<svg xmlns="http://www.w3.org/2000/svg" xmlns:xlink="http://www.w3.org/1999/xlink" width="1309" height="1050"><style><![CDATA[.B{stroke-linecap:round}.C{stroke-linejoin:round}.D{stroke-width:5.322}.E{stroke:#212121}.F{fill:#212121}.G{stroke:#044917}.H{fill:#a7d990}.I{fill:#f5b700}.J{stroke-width:27.322}.K{stroke:#00b832}.L{stroke:#038225}.M{stroke:#f5b700}.N{fill:#044917}.O{fill:#038225}.P{fill:#00b832}.Q{stroke-width:4.322}.R{fill-rule:nonzero}]]></style><g fill="none" fill-rule="evenodd"><path d="M180.14 861.668C148.436 757.112 258.46 622.248 338 598c120.786-36.822 152.426 173.927 147 176-33.475 12.797-135.096 42.02-304.86 87.668z" class="H"/><path d="M431.674 686.927c5.45 43.488-37.133 153.25-82.104 147.217-37.77-5.066-59.773-37.147-71.42-71.482C276.18 756.856 247 772 243 745s27.836-10.042 27-15c-2.794-16.57-2.582-30.63-2.157-41.86.067-1.773 9.6-7.256 29.982-10.495 9.12-1.45 20.41-2.45 33.998-2.466 19.383-.025 41.04 1.88 59.218 4.186 5.228.663.444-48.057 4.96-47.365 4.596.705 18.476 50.82 22.047 51.48 8.388 1.547 13.553 2.862 13.626 3.447z" fill="#beef9e"/><path d="M370 699c2.464 23.7 20 15.905 20 .08M371 712l-6 8m15-5l-4 13m9-15l3 11" class="B C D E"/><path d="M355 690c16.21 24.68 26.026 39.117 29.444 43.308 1.508 1.85 4.41 4.057 3.536 6.337-.804 2.094-19.898 3.677-21.576.287-.868-1.753-1.12-7.846-1.06-5.857.358 12.237 1.43 19.953 3.217 23.148" fill="#beef9e" class="B C D K"/><g class="B C D E"><path d="M317.42 699.7c-3.73 15.702 18.435 17.7 22.58-1.7m-20 13l-7 5"/><path d="M326.654 712l-.3 9M334 711l3 7"/></g><path d="M354.977 761.468c6.5.718 4.524 9.82 9.604 8.6 2.564-.615 4.7-3.453 7.312-2.985 3.948.7 9.424 4.23 16.427 10.556l-18.834 8.698c-11.845 5.708-48.1-14.568-56.495-22.15l29.712 9.52c46.29 6.64 36.387 3.466-29.712-9.52 11.465-6.353 35.485-3.436 41.986-2.72z" class="I"/><path d="M319.943 960.393c-49.5-15.73-144.75-11.236-162.75-14.982s41.25-67.417 148.5-67.417c71.5 0 125.5 14.482 162 43.446l2.335 20.164c24.943-6.95 37.415-3.685 37.415 9.8s-11.162 21.53-33.485 24.14l6.485 56.01-160.5 3.745v-74.908z" class="J K"/><path d="M271.2 880.976c19.465 1.142 16.4 1.573 30.314-11.984m-28.42 21.948c15.307-1.092 16.915-6.937 27.4-19.805m6.702-.755c3.85 9.848 10.455 10.528 20.715 9.713m-20.715-9.59c2.264 17.2-1.74 10 13.137 20.942" class="B C D G"/><g stroke-width="8.322" class="E C"><path d="M280.8 838.968c18.235-16.707 27.6 5.488 25.64 19.805-2.366 17.288-16.44 30.648-29.684 40.115-.182.13-11.754 7.935-15.156 4.92-8.187-7.255-4.94-23.565-1.516-33.303s12.247-23.778 20.715-31.536z"/><path d="M304.915 875.172c3.01-9.242 5.025-20.916 13.262-27.498 17.71-14.152 34.813-9.48 29.934 14.885-2.67 13.327-13.77 29.076-23.492 38.348-12.623 12.038-23.615-4.415-21.726-16.4.917-5.814 3.116-11.353 4.673-17.03" class="B"/></g><g class="D G B C"><path d="M366.552 863.44c4.15 24.335 6.472 42.96 22.734 62.19 23.833 28.186 76.782 16.378 98.896-7.82"/><path d="M386.887 866.594c-4.417 32.342-1.738 68.915 39.156 74.427 2.83.382 21.692 1.398 28.67-1.01 16.908-5.832 17.6-9.352 33.722-22.454"/><path d="M394.34 866.846c14.29 29.593 52.396 98.337 90.56 53.613"/><path d="M413.284 870.38c3.35 18.18 5.038 36.575 17.18 51.47 16.08 19.726 48.867 15.684 62.52-3.533"/><path d="M422.63 873.66c9.167 23.148 26.507 61.977 57.974 49.07m-46.73-46.674c7.6 12.028 23.336 42.615 39.028 45.792 6.108 1.236 12.462-.168 18.694-.252M300 979.12c15.4-5.4 27.822 5.74 43.574 2.9 7.623-1.374 16.926-9.668 22.484-13.878"/></g><path d="M49.208 490.433l137.086-2.253 6.742 27.03c1.2 5.416 2.45 13.426 3.746 24.028 13.983-2.002 22.473 4.005 25.47 18.02s-4.245 22.025-21.724 24.028l6.742 91.6-164.054 9-1.498-82.588C23.24 596.305 14 587.795 14 573.78s9.177-20.918 27.53-20.707c.978-11.946 3.537-32.826 7.677-62.64z" style="mix-blend-mode:multiply" class="J L"/><g class="M B C"><path d="M62.85 512.028c-4.466-8.594-3.45-4.708-3.555-17.574-.047-5.78-.36-11.603.357-17.34 4.156-33.32 21.36 29.013 8.53 33.488-3.274 1.142-3.757-4.972-3.792-5.817-.368-8.688-1.75-39.7 12.323-41.683.776-.11 1.494.997 1.54 1.78.754 12.925 1.31 25.894.828 38.832-.078 2.11-.4 6-2.488 5.82-2.12-.18-1.518-4.048-1.66-6.175-.75-11.283-1.567-38.413 10.2-46.197.753-.5 2.156.23 2.488 1.07 5.643 14.305 8.195 31.5 3.792 47.145-.466 1.654-1.233 5.686-2.488 4.514-6.41-5.987-4.05-48.472 9.48-50.116 1.502-.183 3.232-.234 4.5.593 8.788 5.726 8.766 39.553.12 46.435-1.286 1.024-3.815 3.8-4.384 2.256-3.613-9.805 3.37-44.12 12.795-47.858 2.586-1.026 5.894-3.256 8.176-1.663 2.547 1.778 2.2 5.92 2.368 9.026.546 10.04.806 20.163-.237 30.164-.775 7.43-3.08 8.733-8.648 10.45-.417.13-1.058.242-1.302-.12-8.692-12.886 7.735-39.395 19.786-45.602 1.234-.636 3.435-1.55 4.147-.355 5.724 9.6 2.8 37.537-4.62 46.077-.784.902-2.513 3.127-2.962 2.018-6.463-15.974 10.59-41.668 22.748-48.333.662-.363 1.753-.806 2.25-.238 6.386 7.284-4.16 45.528-10.427 50.35-1.12.862-1.68-2.4-1.894-3.8-.434-2.857-.834-5.904 0-8.67 2.65-8.79 6.503-17.18 10.307-25.532.992-2.177 2.328-4.256 4.027-5.937 1.528-1.513 3.487-2.575 5.452-3.444.795-.352 2.03-.774 2.605-.12 5.55 6.33-2.126 30.746-3.8 35.033-1.43 3.684-2.793 11.58-6.397 9.976-3.898-1.736-1.066-8.686 0-12.825 8.765-34.03 5.223-13.638 15.64-32.184.93-1.658 1.216-7.313 1.657-5.462 1.97 8.265.42 43.737-6.397 49.64-.334.29-1.19.2-1.302-.238-4.087-15.425 8.405-32.012 18.127-42.633.65-.7 2.012-1.597 2.725-.95 1.65 1.498 1.034 10.696.948 11.282-1.85 12.682-4.24 30.474-13.032 40.495" class="D"/><path d="M0 5.556C3.043 18.37 7.926 31.903 21.088 37.383c2.976 1.24 9.852 6.02 9.242 2.85-1.065-5.536-7.895-8.1-11.138-12.705C13.126 18.9 6.994 10.215 2.488.687c-1.34-2.837 5 3.88 7 6.295 6.677 8.068 12.638 16.705 18.958 25.057M11.018.094C23.2 10.82 33.154 17.27 36.5 33.226" transform="matrix(.731354 -.681998 .681998 .731354 117.282739 613.258542)" class="Q"/><path d="M107.876 602.987c-12.69-2.025-24.13 3.743-34.7 10.4-2.25 1.417-8.185 4.187-5.84 5.435 3.67 1.954 8.297-.908 12.31-1.99 6.472-1.745 12.527-4.893 19.043-6.465 3.803-.917 15.145-2.798 11.695-.95-11.95 6.398-25.91 8.447-37.81 14.935-4.65 2.535 10.547-1.338 15.623-2.838 7.778-2.298 15.112-5.913 22.794-8.515.7-.234 2.833-.274 2.183.055-7.308 3.703-14.66 7.408-22.37 10.173-3.995 1.433-10.18 2.935-18.555 4.506 7.624.525 13.263.34 16.917-.552 16.992-4.154 17.404-5.012 25.893-11.79" class="Q"/></g><path d="M68.685 549.104c12.735-33.8 39.186-5.554 38.83-3.486-1.152 6.712-3.18 13.25-4.384 19.952-1.167 6.5-2.133 13.025-2.725 19.592-.36 3.982-.44 8-.12 11.994.878 10.963 27.6 16.546 30.45.713m38.33-55.523c-11.237-19.522-35.957-11.263-38.204-2.666" stroke-width="9.322" class="B G"/><path d="M94.87 564.8c-3.85 5.64-20.014 4.18-11.356-7.253S98.72 559.16 94.87 564.8zm53.57.44c-4.305 5.932-20.02 2.154-10.343-9.868s14.647 3.936 10.343 9.868z" class="F"/><path d="M91.907 627.945c14.982 12.272 42.01 3.08 52.107 4.085.53.053.46 1.334 0 1.603l-3.382 3.386c-2.253 1.317-4.72 2.4-7.288 2.853-3.916.7-9.432-2.58-11.916.533-1.87 2.34 5.082 3.353 6.936 5.706 6.414 8.144-11.417 6.685-12.984 6.772" class="B C D G"/><path d="M834.382 357.842c.544 3.833 1.017 9.454 1.452 15.62-12.24.813-24.63.49-37.012-.4 6.96-23.214 10.734-44.6 14.878-73.652.808-5.662 1.337-11.37 1.8-17.09l5.352-.26a23.87 23.87 0 0 0 1.285-.094c3.378 25.386 8.65 50.502 12.247 75.862zM834 278.648a302.39 302.39 0 0 1 1.987 9.333l.294 1.514.234.422.137.243 1.907 1.72c15.176 13.602 31.053 26.414 46.93 39.2l2.507 2.02c2.647 2.132 5.56 4.003 8.677 5.356 6.406 2.78 13.033 5.015 19.6 7.396-7.284 4.374-15.285 8.436-24.193 13.01-4.758 2.442-9.586 4.526-14.475 6.294-4.494-6.696-9.078-13.342-13.1-20.322-4.94-8.575-8.794-17.752-13.295-26.564l-.617-1.193.8 1.935c3.55 8.702 6.655 17.596 10.382 26.223l.945 2.15c2.486 5.556 5.347 10.973 8.677 16.07l2.082 3.115c-10.054 3.256-20.345 5.242-30.768 6.32.685-24.142-.85-50.372-4.97-75.213l-.262-1.557-.992-1.4-9.86-13.54.945-.248c2.715 3.082 5.56 6.043 8.597 8.797h0l.19.17-.058-.31-.018-.1-.635-1.146c-1.553-2.826-3.043-5.684-4.39-8.61.777-.284 1.56-.592 2.347-.92zM807.61 282.7c-.29 8.155-.818 16.077-2.846 25.65l-4.714 22.18-.307 1.672-6.2 33.29c-.526 2.798-1.012 5.116-1.46 7.05l-1.116-.098-.006.032 9.1-41.946.5-2.705c14.87-80.97-4.287 12.228-10.364 44.563l.003-.012c-8.925-.8-17.826-1.823-26.64-2.85 1.266-2.09 2.502-4.195 3.693-6.327 9.5-17.006 18.517-34.288 27.063-51.79 1.77-3.624 2.804-7.576 3.828-11.476 1.49-5.676 3.15-11.34 4.36-17.083l5.082-.147zm-11.847.124l-.267.796c-16.118 48.39-2.922 26.504-32.532 85.83l-10.02-1.154-7.992-5.99 19.48-33.295c3.36-5.75 6.645-11.564 9.446-17.606 4.463-9.626 8.216-19.57 12.413-29.315 3.15.417 6.29.64 9.472.73zm-19.176-2.666l-1.3 3.038-19.528 47.602c-3.5 7.934-7.528 15.635-11.742 23.215l-3.016 5.33-1.323-1c-3.618-.786-7.965-2.267-12.684-4.226 11.066-14.4 21.847-29.03 31.318-44.502 5.93-9.687 10.87-19.913 15.602-30.255a70.41 70.41 0 0 0 2.682.788zm-10.816-4.043l-.42.707-3.22 5.252c-4.82 7.67-10.594 14.717-15.317 22.446-7.03 11.505-12.728 23.797-19.913 35.206-2.36 3.745-4.79 7.442-7.267 11.1-9.918-4.728-20.588-10.906-29.224-16.842 16.427-10.98 31.546-23.952 44.152-37.893 7.82-8.647 15.158-17.707 22.452-26.808 2.485 2.696 5.378 5.014 8.757 6.82zm85.244-7.458c4.468 2.853 8.83 5.898 13.235 8.823 4.848 3.22 9.022 7.368 13.784 10.713 6.99 4.9 14.17 9.555 21.445 14.033 4.475 2.754 8.995 5.487 13.784 7.65 7.66 3.46 15.448 6.73 23.488 9.187l8.006 2.34a89.96 89.96 0 0 1-14.609 14.871c-21.676-17.153-44.202-33.24-65.9-50.374-5.863-4.63-11.52-9.52-17.067-14.526a93.63 93.63 0 0 0 3.225-2.267zm-14.66 21.237l.245 1.3.878 4.922.26.37c2.913 4.132 5.74 8.32 8.384 12.63 1.523 2.48 2.936 5.023 4.284 7.6l.185.358-.098-.236a182.65 182.65 0 0 0-2.839-6.45c-3.022-6.5-6.728-12.66-10.262-18.907l-.743-1.32-.295-.266zm-84.62-27.82l-1.513.995c-34.843 22.893-54.28 33.863-78.603 53.236-6.34-9.888-11.244-23.552-14.452-33.2 2.294-.902 4.603-1.763 6.935-2.56 11.467-3.923 23.742-5.392 34.972-9.95l47.796-19.433c1.298 3.833 2.9 7.523 4.865 10.914zm123.76-26.563c21.354 3.326 53.665 3.466 62.533 4.212 12.726 1.07 25.295 3.717 38.036 4.593.3.02 1.702.047 3.844.058-.357 5.722-1.056 11.08-2.312 14.995-.55 1.718-1.14 3.435-1.764 5.15-13.638-3.277-27.143-7.123-40.87-10.002-11.465-2.405-26.823-4.678-42.447-7.867l-.994-.204 1.37.576c26 10.922 52.307 21.72 79.935 25.14-5.916 14.032-13.836 27.78-21.852 40.32-6.695-4.046-13.1-8.594-19.84-12.552-11.698-6.86-23.828-12.974-35.488-19.9-3.674-2.182-7.14-4.716-10.467-7.398-6.817-5.496-13.203-11.528-19.897-17.17 3.697-4.317 6.652-8.8 8.435-13.187 5.795 1.558 11.764 2.922 17.708 4.15l.096.02-1.606-.675-15.208-6.33a22.3 22.3 0 0 0 .773-3.802zm-132.552-.6l-.242.09-.988.385c-28.317 11.248-56.33 23.26-84.25 35.46l-3.78 1.663c-2.87-8.925-5.123-18.823-6.615-29.054 9.843-.806 19.742-1 29.545-2.2 10.624-1.29 21.2-3.12 31.655-5.356 11.28-2.41 22.426-5.426 33.613-8.25.302 2.368.648 4.802 1.062 7.264zm2.793 12.612l-3.678 1.43c-56.093 21.84-92.686 36.25 3.504-1.778l.068-.026.106.373zm-81.38-42.238c19.804 5.005 39.87 8.987 59.992 12.502 5.544.968 11.112 1.805 16.696 2.525l.07.727.087.825.498 4.334c-4.606.49-9.202 1.062-13.777 1.79-27.4 4.365-54.003 10.576-80.938 14.893-2.068-14.473-2.61-29.585-1.208-43.538 6.1 2.252 12.274 4.347 18.578 5.94zm312.22-32.654c.987 3.52-.275 7.324 0 10.97.46 6.076 1.333 12.118 2.048 18.17l-1.28.192c-7.283 1.05-14.74.864-21.956 2.3-9.515 1.892-18.534 5.92-28.08 7.65-16.953 3.075-34.24 4.03-51.245 6.78-.06-2.465-.164-4.935-.29-7.402l.03-.012c34.268-14.592 47.357-20.677 48.38-21.832l.032-.078-5.2 1.955-43.45 16.226-.066-1.114c21.736-8.302 48.33-18.076 48.743-17.136l-.03.07 2.104-.8 49.472-18.67.786 2.723zm-238.04 22.317l2.32.964c-1.07-.184-2.675-.316-5.02-.577l6.898 2 .001-.016c.002-.286-.052-.512-.18-.697l.02.008 1.372.577-.198.422-1.015-.294-.003.096c-.027.5-.196 1.14-.427 2.026L695.248 183.6 659.15 171.05l1.723.912c6.22 3.293 12.444 6.584 18.8 9.598 10.812 5.128 22.088 9.23 32.934 14.286 8.14 3.793 15.73 8.736 24 12.244l4.115 1.677c-.07 1.545-.085 3.272-.02 5.2a188.84 188.84 0 0 1-5.884-1.009c-14.077-2.65-28.117-5.668-41.864-9.692-26.668-7.806-38.874-12.41-45.734-15.252.515-2.818 1.12-5.564 1.822-8.22.797-3.017 2.565-7.042 4.896-11.574l5.215 1.832-.6-.323-4.232-2.228.988-1.868.02.006c8.943 2.2 7.225 1.23.6-1.12l1.556-2.817-.01-.005 81.085 32.25zm210.778-75.57l-.69.515-6.21 4.768-.228.183.26-.168 7.46-4.596c7.52 8.97 13.838 19.14 18.985 30.86-7.625 3.446-15.208 6.98-22.69 10.72-46.3 23.134-38.88 21.575-70.828 42.633l-.143-2.33c-.13-2.197-.627-6.882-1.535-11.796 9.95-9.265 20.574-17.812 30.378-27.235 11.147-10.713 21.175-22.558 32.423-33.164 1.58-1.5 3.223-2.912 4.903-4.288l.785-.638-1.187.765c-1.924 1.253-3.82 2.545-5.674 3.9l-1.38 1.03c-9.937 7.545-18.473 16.786-28.08 24.746-10.313 8.545-21.58 15.92-31.655 24.746l.505-.437-2.614 3.605-.302-1.015 2.4-2.153.505-.437 1.017-1.403 45.08-63.82-1.228 1.38-52.067 57.98c-2.01-2.857-4.116-5.41-6.312-7.684l11.982-30.66 2.378-5.652.694-1.58-.116.202c-6.31 10.912-13.168 21.508-20.58 31.668l-.43.588a51.34 51.34 0 0 0-4.977-3.375c2.892-7.516 5.677-15.08 8.008-22.78l.023-.082-.184.367c-1.45 2.863-2.94 5.714-4.127 8.68l-.347.893c-1.552 4.13-2.497 8.484-3.654 12.754-6.176-3.625-12.905-5.835-20.183-7.077.272-1.75.484-3.477.606-5.167 1.775-24.623 9.393-51.66 9.617-77.796 7.012-.078 14.1.014 21.275.244 3.964.127 7.7.856 11.27 1.97l-2.535 16.91 3.487-16.603c8.655 2.877 16.484 7.925 24.793 12.006l.852.42-3.5 8.13-.487 1.092.817-1.553 3.107-6.06.65-1.316c11.347 5.666 21.533 11.87 30.585 18.927l-9.42 13.17 2.412-2.71c2.644-2.98 5.39-5.905 7.656-9.182a20.48 20.48 0 0 0 .325-.486l.01-.018c6.653 5.282 12.683 11.04 18.1 17.405zm-267.128 4.264c17.925 15.85 30.333 25.566 49.823 46.18 5.45 5.764 10.747 11.667 15.985 17.624l-2.462 6.075-.07-.025-87.23-32.15c7.95-13.89 18.562-29.594 22.72-35.912.285-.433.576-.86.873-1.285zM714.4 97.608c2.305 3.176 4.563 6.383 6.63 9.715 12.5 20.15 26.726 39.488 38.85 59.876-3.446 3.43-5.82 7.02-7.798 10.9a57.52 57.52 0 0 0-2.968-2.663c-35.392-29.16-21.125-16.05 2.07 4.483l-.522 1.15.022.02-67.93-58.224c8.03-10.777 19.935-18.605 31.44-25.14zm31.556-14.817l.35 1.57c4.52 19.565 10.69 38.718 16.596 57.9 1.505 4.9 3.415 9.667 5.618 14.286.442.927.912 1.843 1.402 2.75a72.68 72.68 0 0 0-3.304 2.273l-.01-.012-9.75-12.325-.166-.306c-3.023-5.47-10.53-17.557-25.77-40.773l-2.23-3.393c-2.43-3.694-5.068-7.243-7.816-10.712a217.31 217.31 0 0 1 24.318-10.982zm33.05-9.59c4.37 22.752 9.544 50.068 10.7 67.798.203 3.118.516 6.26.877 9.418-5.442 1.26-10.633 3.246-15.558 5.876-.983-8.21-1.757-16.467-3.7-24.48-4.44-18.325-10.6-36.2-16.596-54.08l.597 1.78c7.392-2.4 14.847-4.395 22.377-6.033zm-22.642 75.428l.493.615.236.43c8.43 15.704-28.542-35.72-.73-1.046zm74.974-81.415l-.53 35.516-2.13 47.094c-6.405-1.008-13.228-1.294-20.464-1.155-.196-10.626-.432-23.356-2.936-44.666-2.265-19.28-2.647-28.68-3.385-34.587 9.422-1.15 18.972-1.845 28.667-2.177zm38.54 19.144l-.622 2.89c-2.903 13.4-6.003 26.775-9.6 40.01l-.98 3.468-.49 1.645.25-.492c1.582-3.153 3.076-6.337 4.028-9.72 3.338-11.86 5.4-24.375 7.28-36.89l.137-.915zm25.19 4.84l-13.457 25.564c-1.822 3.66-3.566 7.36-5.225 11.097l-.128.29.74-1.288c6.546-11.437 12.496-23.214 17.86-35.193l.21-.472z" class="H"/><path d="M649.207 20.98l6.76 26.973c1.204 5.405 2.456 16.643 3.755 33.716 28.538-11.988 42.808-3.996 42.808 23.976s-14.27 37.462-42.808 28.47v107.142L375.088 248V134.115c-31.042 7.492-45.31-1.998-42.808-28.47s16.773-34.465 42.808-23.976l5.257-60.69h268.862zM417.896 56.943c-19.526 60.94-21.28 107.392-5.257 139.36 10.19 20.33 96.3 25.758 152.455 20.23 21.43-2.1 43.46-8.853 66.09-20.23 3.893-20.674 5.395-41.902 4.506-63.686s-4.143-43.512-9.763-65.184c-13.518-14.985-46.563-24.475-99.134-28.47s-88.87 1.998-108.897 17.982z" class="N"/><g class="E B C D"><path d="M515.565 61.39l-41.82-17.063c8.39 6.747 18.428 8.157 28.13 11.84 2.805 1.065 7.535 1.03 8.075 3.975.44 2.396-4.95-.45-7.324.122-5.626 1.36-10.818 4.19-16.428 5.615-3.605.915-7.384.91-11.076 1.364"/><path d="M428.093 153.813C442.845 139.378 466.06 124.112 479 135c5.923 4.984 7.226 1.876 13 3 4.64.904 5.998-2.433 11.116-.64.772.27-1.362-1.006-2.168-1.15-2.022-.36-2.898.658-4.948.8-3.4.22-7.07-1.645-10.366-.736-17.38 4.793-34.74 9.744-51.76 15.686-4.9 1.715 10.34-1.48 15.325-2.965 8.82-2.626 17.2-6.6 25.978-9.332 4.987-1.545 10.1-2.862 15.278-3.45 3.818-.433 6.706.945 10.52 1.4 1.327.162-3.583-1.682-2.98-.492 1.05 2.065 8.176 2.66 6.013 3.498-16.158 6.255-41.513 8.145-59.164 14.222-2.816.97-10.585 5.22-7.68 4.557 18.553-4.24 36.577-10.536 54.985-15.364 2.024-.53 4.148-.746 6.24-.694 2.82.07 9.974-1.267 8.392 1.06-2.012 2.96-7.173.898-10.546 2.1-13.605 4.883-11.873 7.663-25.095 10.573-9.935 2.187-20.198 2.743-30.082 5.15-1.758.428-6.132 2.922-4.35 3.238 20.675 3.664 45.367-4.32 63.005-14.186 1.245-.696 1.262-2.877 2.588-3.404 1.57-.623 5.733 1.9 5.054.367l1.536-2.88c-.384-.873-1.9-.1-2.863-.133m9.915.827c17.3 13.578 37.6 26.1 61.17 19.275 2.135-.62-4.037-1.927-6.2-2.476-7.57-1.928-15.573-2.252-22.906-4.936-9.083-3.325-35.484-14.646-25.96-12.954 15.265 2.7 28.756 11.72 43.63 16.092 5.27 1.55 10.918 1.837 16.404 1.558 3.076-.156-6.108-.974-9.034-1.932-10.32-3.38-20.6-6.954-30.64-11.057-7.26-2.963-12.696-4.792-19.232-9.117-3.538-2.342 5.957 2 10.072 3.055 5.863 1.488 12.006 1.797 17.803 3.526 5.617 1.675 10.67 4.94 16.28 6.637 4.9 1.485 9.992 2.93 15.123 2.862 1.224-.016-1.068-2.318-2.06-3.035-2.55-1.846-5.35-3.43-8.32-4.477-9.552-3.364-19.3-6.142-29.1-8.705-3.226-.844-13.22-1.713-9.892-1.495 7.895.515 15.843.908 23.613 2.4 7.37 1.407 14.477 3.96 21.623 6.244 1.623.518 3.272 1.13 4.637 2.146.366.273-.893.436-1.334.316l-11.15-2.215c-6.7-1.83-13.145-4.603-19.9-6.257-7.294-1.786-14.836-2.395-22.163-4.04-1.16-.26-6.136 3.483-5.408 2.545 1.97-2.536 14.004-.197 16 0 17.862 1.762 26.654-1.705 44.937 4.565 2.22.76 7.456 1.138 6.283 3.165-1.864 3.223-8.508.836-10.44 4.02-2.022 3.333 18.048 1.368.733 4.2-2.3.377-4.743.87-6.985.24-58.537-16.5-21.58-11.058-50.515-14.732"/></g><g class="B C D"><path d="M497.058 110.894c-6.028-2.856-12.613-6.86-19.907-4.6-6.13 1.9-5.613 14.48-5.398 17.84.773 12.092 16.334 16.258 25.53 11.668M534 117c22.242-20.05 26.554 11.6 9.395 19.14-6.078 2.674-11.372 1.473-17.657 1M508.07 72.064c1.524 22.424.436-9.38-10.23 38.227-4.116 18.374 11.087 47.533 27.4 26.258 8.657-11.283 9.297-27.435 9.95-41.494.366-7.87 2.385-24.177-7.225-28.976-7.798-17.58-9.695-23.122-5.7-16.63" class="L"/><path d="M532.254 54.578c11.844-2.452 24.046-3.57 35.532-7.356 9.108-3-18.942 3.06-28.338 4.985-3.313.68-9.55-.55-9.746 2.82-.2 3.485 6.02 3.64 9.303 4.854 7.226 2.67 14.736 4.5 22.104 6.75" class="E"/></g><path d="M489.242 0c6.326 0 12.75.457 19.27 1.37l1.224.177a6 6 0 0 1 5.043 4.956c1.93 11.72 2.714 23.662 2.347 35.826 1.7 1.233 3.942.95 6.726-.845-.306-11.872.485-23.532 2.37-34.98a6 6 0 0 1 4.841-4.923l.203-.034 1.224-.177C539.01.457 545.434 0 551.76 0l1.487.007c8.308.076 25.104.748 50.386 2.016a6.76 6.76 0 0 1 5.978 4.336l.074.204.25.73c3.775 11.237 5.663 23.79 5.663 37.66 0 13.235-1.76 24.757-5.276 34.567a9.01 9.01 0 0 1-8.164 5.957l-.235.005-3.62.03c-7.11.047-13.464.022-19.06-.074l-3.226-.057-39.548-.015c-4.3.025-8.006-2.982-8.875-7.162l-.044-.225-.206-1.15c-1.026-5.83-1.836-11.878-2.43-18.143-2.883-3.094-5.845-3.334-8.888-.72a201.03 201.03 0 0 1-3.786 22.485l-.29 1.263c-.922 3.95-4.382 6.796-8.445 6.945l-17.994.637-20.507.6-2.625.048-20.075.05-1.818-.016a9.01 9.01 0 0 1-8.388-5.929c-4.462-12.29-6.693-25.323-6.693-39.097 0-13.87 1.888-26.423 5.663-37.66l.25-.73c.9-2.604 3.294-4.402 6.052-4.54l8.527-.42L489.242 0zm-7.5 7.492l-1.183.044c-7.523.31-18.066 1.27-31.63 2.885l-2.206.265a3 3 0 0 0-2.628 2.69l-.172 1.835c-2.738 29.79-1.898 50.443 2.52 61.96 1.96 5.11 21.237 5.86 57.828 2.248l.33-2.79c1.95-16.72 2.822-28.986 2.61-36.797l-.01-.318c-.257-8.215-1.234-18.4-2.933-30.525-6.64-1.277-14.152-1.776-22.53-1.498zm69.093 0l-.812-.025c-7.87-.22-12.295.288-13.273 1.523l-.227 1.643c-1.56 11.414-2.46 21.04-2.705 28.883l-.02.758c-.18 8.206.743 20.256 2.768 36.15 38.093 2.114 58.12.616 60.08-4.495 4.5-11.727 4.636-31.272.41-58.634a3 3 0 0 0-2.695-2.528l-6.67-.6c-17.378-1.543-29.664-2.433-36.858-2.672z" class="I"/><path d="M486.71 166.824c15.02 12.246 42.116 3.073 52.24 4.076.532.053.462 1.33 0 1.6l-3.4 3.38c-2.258 1.314-4.73 2.395-7.306 2.847-3.926.69-9.456-2.573-11.947.532-1.873 2.336 5.095 3.345 6.953 5.693 6.43 8.126-11.446 6.67-13.017 6.757" class="B C D L"/><g class="J M"><path d="M203.188 334H97.245c-3.5-70 30.5-105 102-105h187.5l2.335 86.19c24.943-6.96 37.415-3.69 37.415 9.81S415.333 346.557 393 349.17l6.485 125.08L203.188 478V334z"/><path d="M211 382.852c25.66 6.012 57.174 3.98 73.066-19.852" class="B"/></g><g class="E C D"><g class="B"><path d="M127.16 331.56c.933 20.17-3.974 44.646-23.16 55.613m31.524-55.613c-4.6 20.6-11.678 37.356-26.43 53.255m33.88-53.255c-4.938 22.42-16.323 44.006-36.695 56.068m45.592-56.068c-4.835 17.803-23.2 54.333-47.692 57.514m56.057-57.514c-6.386 23.052-22.773 56.753-50.6 56.753M206.052 394c-6.914 1.844-26.7-16.538-33.75-27-4.706-6.975-7.456-18.725-8.25-35.25"/><path d="M170.805 331.56c3.427 20.362 1.648 46.168 19.726 58.654M177.3 331c-3.695 10.16 14.46 55.056 24.743 56.525m-20.06-55.965c7.6 18.9 11.725 38.625 26.112 53.18m-19.04-53.18c8.93 20.995 10.786 41.18 28.544 54.928"/><path d="M165.787 331.56c10.78 32.623 16.85 46.52 49.075 52.57"/></g><path d="M208.24 226.96c11.2-4.407 21.878-10.4 33.57-13.222 1.643-.397 1.78 2.95 2.125 4.604.86 4.137 1.693 8.374 1.456 12.593-.696 12.422-4.2 28.067-12.87 37.78-11.38 12.733-22.794 1.882-25.776-11.53-3.038-13.66-1.655-14.877.7-27.27l.786-2.952zm80.553-12.32c4.276 2.4 8.203 5.574 12.83 7.202 7.228 2.544 16.95-.2 22.392 5.195 4.234 4.198 1.194 11.913.866 17.866-.512 9.283-3.8 29.052-13.97 33.213-16.535 6.773-27.395-11.267-28.06-25.264-.268-5.65-.454-11.364.355-16.96.895-6.197 3.148-12.12 4.722-18.18l.866-3.07z"/><g class="F"><use xlink:href="#B"/><use xlink:href="#B" x="84" y="5"/></g><path d="M302.27 198.332c15.33 3.222 34.185 2.487 46 9.667 9.683 5.9-51.157-9.34-39.414-5.667l-10.004.444c55.398 17.32 56.33 5.6-6.45 4.995-12.776-.12 24.43 2.048 35.842 4.176 6.64 1.238 25.493 6.13 18.165 5.892-18.44-.602-34.878-4.225-51.844-7-5.52-.9-20.148-6.025-15.56-3.998 9.3 4.115 19.317 7.493 29.78 10.282 10.95 2.92 49.3-2.457 34.378 6.822-10.27 6.386-54.995-12.376-62.286-14.504-2.167-.632-9.637-1.237-7.462-.615 14.48 4.138 30.13 6.848 44.445 11.183 5.057 1.53 19.035 7.416 13.577 6.387l-5.458-.106c-45.84-8.64-74.267-17.43-.375 2.808m-139.95-25.193c12.168-4.458 45.375-17.417 51.737-10.37 14.43 15.986-35.043 3.114-42.447 13.23-.3.4 1.23 1.195 1.752 1.064l8.64-1.017c7.414-1.854 14.302-4.688 21.7-6.57 3.768-.96 15.773-2.37 11.76-1.944-11.963 1.272-48.582 2.1-35.615 4.48l-14.95 8.052c13.884 2.55 25.93-1.967 38.58-3.713 45.268-6.248-34.033-.046-32.794 9.755.206 1.628 3.336.778 4.822.587a408.39 408.39 0 0 0 30.584-5.134c4.92-1.015 19.142-5.103 14.2-4.1-9.03 1.816-36.54 5.6-26.52 6.587l-13.67 8.83c8.565.852 38.62-13.03 46.386-16.36" class="B"/></g><g class="D E C"><g class="B"><path d="M811.453 183.427c12.278-2.277 7.682-1.06 28.86-13.832 1.57-.946-3.677.472-5.37 1.172-8.128 3.365-29.07 18.165-23.995 10.984 5.666-8.017 28.952-4.47 26-13.834-2.902-9.234-17.728 7.885-26.93 10.9-1.1.36 1.176-2.066 2.097-2.767 2.982-2.267 6.1-4.4 9.48-6.037 4.33-2.1 9.306-2.764 13.507-5.115 1.493-.835-3.492-.118-5.117.42-7.212 2.388-13.726 9.514-21.226 8.3-5.942-.962 10.137-6.533 15.52-9.223 5.16-2.578 10.682-4.36 16.023-6.538m8.058 13.583c1.286-.168 2.567-.627 3.86-.503 49.94 4.778-1.525 3.518-4.78-4.192-3.008-7.122 15.252 3.185 22.988 3.185 7.293 0-14.62-1.224-21.645-3.185-3.286-.917 6.836-.288 10.235 0 5.54.47 11.074 3.353 16.527 2.264 21.5-4.298-57.376-4.265-25.168-5.366 8.26-.282 16.5 1.006 24.75 1.5"/><path d="M836.96 167.75c4.326 0 5.988 7.01 6.292 9.977 1.014 9.916.15 46.158-21.645 38.9-19.534-6.505-11.366-66.698 17.87-48.794"/></g><path d="M844.1 186.782c2.846-12.035 6.184-25.11 23.24-19.284 7 2.395 5.807 24.026 5.62 27.332-.728 12.87-17.24 24.398-25.924 8.803-2.45-4.4-2.405-9.78-3.608-14.672l.67-2.18z"/><path d="M805.497 199.2c13.105-11.435 19.385-12.276 36.663-13.08m1.594 2.85c8.252-5.54 22.357-9.053 31.882-5.03" class="B"/></g><path d="M823.452 190.806c1.694 4.205 11.05 20.542 17.534 9.725l1.76-14.685c-9.72 1.282-15.98 2.283-18.778 3.002-1.5.383-1.66 1.035-.515 1.957zm33.894-4.78c1.98 6.5 6.648 19.514 15.772 11.487l-.33-13.92-7.5-1.5-7.932 3.933zm-80.7 53.114c4.516-16.253 45.947-17.4 69.854-20.267 18.778-2.252 47-7.955 63.845 12.76 1.05 1.292 3.756 10.5-5.258 16.513s-49.938-18.292-58.587-16.513c-28.938 5.95-44.316 16.513-55.583 16.513-7.5 0-12.268-3.002-14.27-9.007zm52.578 18.375c16.842 18.854 25.438 37.22 36.054 7.145.7-1.985 5.07-12.345 3.004-12.76-5.136-1.033-19.26 5.15-24.46 5.783-4.275.52-8.614.056-12.92.085l-1.678-.252z" class="F"/><path d="M866.375 406.52l194.25 13.53c2.85 11.167 4.224 33.035 4.12 65.602l.483-.303c2.542-1.577 4.614-2.565 8.893-3.5l.58-.122c5.56-1.134 17.545-2.553 22.166-1.358 12.622 3.264 18.496 19.296 11.225 30.048-9.187 13.585-28.283 22.62-44.132 17.888l-.152 4.796-3.182 71.112c-66.5 9.52-152.25 9.52-257.25 0-3.465-65.486 17.082-130.727 61.642-195.722l1.358-1.97z" class="H"/><g class="E B C D"><path d="M848.587 393.185c-.066 3.578-2.163 17.134 1.922 22.35 10.03 12.8 35.73 28.577 51.103 15.097m-36.926-36.116c4.86 13.4 9.92 24.2 23.337 30.936 4.637 2.324 15.46 7.78 20.087 2.37M884.773 392c3.415 15.085 8.062 32.166 24.96 34.932"/><path d="M906.2 393.777c-.18 1.17-3.238 15.74-2.364 20.72 3.056 17.416 19.788 28.59 37.368 24.72 10.12-2.228 13.814-7.035 21.268-13.47"/><path d="M918.744 398.365c0 8.66-.36 4.958 7.83 20.278 9.472 17.72 20.81 18.3 35.595 7.55"/><path d="M934.547 398.216c4.54 14.652 11.683 25.22 27.03 28.866m-3.547-30.347c.098 6.414-1.077 12.977.295 19.243 6.323 28.868 43.187 26.216 59.964 10.362"/><path d="M975.31 395.996c-.05 3.158-1.414 6.582-.146 9.473 4.805 10.956 19.116 32.81 34.854 28.42 3.474-.97 6.105-3.85 9.157-5.773"/><path d="M992.297 396.885c4.028 19.81 5.286 26.623 26.438 28.717"/><path d="M1016.666 398.07c.59 13.923-3.153 42.227 17.872 44.406 6.857.71 13.81.293 20.678-.296 6.626-.568 9.212-3.724 14.472-7.55"/><path d="M1030.106 397.773c.697 17.196-2.197 35.032 11.52 47.8 8.233 7.67 29.54-.847 29.54-11.25"/><path d="M1043.25 408.135c-.975 10.26 12.903 51.905 29.246 35.525"/><path d="M882.116 453.28c10.092-.79 20.33-.474 30.276-2.366 4.764-.906 15.4-10.296 13.294-5.923-2.565 5.3-18.93 13.55-26.733 14.654-6.956.985-26.123-2.716-20.973 2.073 4.462 4.15 24.448.164 32.05-2.665 3.988-1.485 14.95-7.895 11.67-5.18-6.323 5.23-13.347 9.86-20.973 12.878-5.978 2.366-12.707 1.948-19.054 2.96-4.18.668 8.45-.883 12.553-1.923 8.38-2.125 16.638-4.74 24.814-7.55 2.04-.702 7.487-4.26 5.76-2.96-5.058 3.802-9.956 8.1-15.804 10.51-10.964 4.52-32.455-1.698-34.117 10.066-1.29 9.123 47.055-15.265 51.99-17.616"/></g><path d="M895.133 478.597c12.374 7.525 6.604 14.75 1.867 30.403-5.316 17.567-11.44-4.046-12.227-10.003-2.242-16.946 1.21-23.746 10.36-20.4z" class="F"/><g class="B C D E"><path d="M940.454 451.356c30.167 2.6.365-1.03 39.73 8.585 5.575 1.362 22.603 1.637 16.986 2.812-9.126 1.9-31.705 1.203-43.423-2.662-3.64-1.2-14.14-5.5-10.34-5.034 14.448 1.8 19.162 10.254 31.607 16.874 3.03 1.6 13.326 2.815 9.897 2.815-10.812 0-37.53-14.02-41.06-15.396-.625-.244-1.98-.077-1.922.592 1.068 12.303 41.296 17.97 47.115 20.13 3.185 1.182-6.806.303-10.2 0-4.9-.44-9.847-.993-14.622-2.22-5.07-1.302-10.1-2.985-14.77-5.33-3.082-1.544-5.195-4.66-8.27-6.216-1.922-.973-8.33-2.035-6.35-1.185 18.67 8.02 33.984 13.408 53.467 17.024.823.153 2.913.723 2.215 1.185-19.377 12.795-42.115-1.68-57.454-12.878m2.67 5.92c-1.306 1.12-1.876 3.023-2.068 4.735-.557 4.952-.668 9.994-.146 14.95 1.513 14.368 14.247 30.28 30.276 25.758 8.903-2.5 23.157-30.43 23.04-35.232m-91.552-19.128c-.76-.7-2.035-1.47-2.955-.988-1.524.798-2.506 2.523-3.078 4.148-1.654 4.7-2.894 9.588-3.498 14.534-1.08 8.848 1.87 19.232 8.195 25.702m33.356-49.726c-9.727 22-27.84 37.656-38.55 58.914-3.714 7.373-15.9 28.97-10.34 32.12 14.954 8.455 40.454-5.075 48.704-18.605 3.9-6.413 11.04 2.3 14.365 4.986 24.594 19.88 21.04 48.528 10.78 75.937M910.02 550c4.055 24.355-1 43.406-5.02 68.68"/><path d="M907.52 575.4c20.95 9.986 31.325 8.537 51.252-2.516"/></g><path d="M935.722 475.6c12.374 7.525 19.907 20.056 15.17 35.71-5.316 17.567-17.992-6.346-18.78-12.303-3.363-25.42 2.647-7.727 2.647-20.27" class="F"/><path d="M973.238 275.1c26.47-33.018 76.243-37.46 117.843-35.803s55.66 11.56 76.495 43.544 16.188 56.914 4.325 80.53c-27.8 55.335-158.91 72.377-202.3 20.32-23.118-27.743-8.66-72.085-1.954-100.633l5.582-7.956z" class="O"/><g class="B C D K"><path d="M1068.745 256.6c7.657 18.692 29.204 6.174 20.695-7.07"/><path d="M1049.162 240.504c15.014 7.617 24.716 21.043 37.226 32.672 6.92 6.434 13.752 12.987 20.077 19.984 1.86 2.058 5.443 4.516 4.363 7.053-.992 2.33-24.55 4.093-26.62.32-1.07-1.95-1.38-8.733-1.3-6.52.662 20.43 8.93 41.773 4.034 58.33-2.62 8.863-39.27 2.8-37.773 8.08 3.174 11.193 16.02 12.067 38.538 2.623 2.224 4.53.923 10.048.655 15.07-.606 11.326-2.18 22.583-3.272 33.874" class="O"/><path d="M1031.098 264.213c-1.61 12.67 15.75 20.674 27.03 11.343 7.58-6.27 3.486-14.41 3.364-23.017"/></g><path d="M1035.56 219.52c-5.434-10.502-8.098-23.752-1.126-34.737 10.458-16.477 32.684-20.134 41.287-.133 6.675 15.52-9.455 34.702-9.01 36.633 2.525 10.993 38.31-33.082 31.41-9.522-8.617 29.413-57.395 34.394-78.76 17.898s-1.23-16.295 11.784-10.183l4.418.044z" class="I"/><path d="M1194.985 716.23c23.814 0 53.064-1.498 87.75-4.493l9-44.18h-39l3-64.398h-216l-1.32 35.712c-24.943-6.948-37.415-3.683-37.415 9.795s11.162 21.523 33.485 24.132l7.5 34.445c78.186 5.99 129.186 8.986 153 8.986z" class="J M"/><path d="M1164.262 602.35c-1.077 18.804 15.64 23.6 20.273 6.282 3.535-13.205-15.735-14.458-21.8-6.282m64.477-2.994c.327 4.002.085 8.1.98 12.005 3.883 16.978 25.083.505 13.84-13.68" class="F"/><path d="M1266.14 588.062c4.623 0-.847 41.262-3.75 49.542-3.682 10.503-12.37 8.237-21.75 8.237-2.98 0-5.538-.098-7.787-.358-4.88-5.918-11.575-12.692-18.645-18.274h0l1.047 6.1-.615-.952-.73-1.18c-5.684 14.343-17.132 18.4-31.02 18.4-32.115 0-44.93-24.463-39.792-61.524h123.042zm-63.814 16.715h-43.388l-.013.213c-.627 10.17.782 17.734 3.945 22.748l.168.262.16.24c3.785 5.583 10.517 8.496 21.193 8.496 7.873 0 13.086-5.482 16.21-19.136l.1-.454c.516-2.427 1.023-6.142 1.504-11.083l.093-.972.028-.314zm51.535 0h-32.14l.016.063c4.85 19.885 11.38 27.8 24.063 28.14l.386.008.454.003c.454 0 .7-.096 1.118-.503.9-.855 1.887-2.545 2.794-5.133 1.724-4.918 2.84-12.153 3.27-21.602l.04-.976z" class="P R"/><g class="B C D E"><path d="M1214.2 629.2c15.086 11.9 28.46 29.25 26.168 32.1-3 3.744-13.85 4.515-16.5 2.995-2.13-1.22-1.168.434-1.168 14.395m-41.45-11.7c17.662 13.1 37.267 14.766 56.63 10.8m-37.716 22.828c3.784 15.127 12.713 24.66 22.167 37.32m-6.72-38.968c10.33 32.675 8.034 18.738 10.377 41.086m2.475-38.732c3.087 31.768 2.712 18.557 2.712 39.556m10.966-39.556l-7.074 43.44m16.626-42.262c-.85 15.4-4.9 27.68-12.617 40.967m23.11-42.5c-1.4 15.02-5.693 29.5-15.8 41.205"/><path d="M1267.974 717.1c-12.488 16.73-13.998 21.857-32.663 26.253m-52.79-81.823c-1.13 3.036-3.38 6.03-7.13 6.204"/></g><path d="M787 745.865c-5.097 112.872-128.7 154.723-49.692 228.28 18.878 17.578-103.518 17.823-93.013 0 56.063-95.117-2.548-115.408-1.274-218.134.15-12.114 1.874-23.48 4.93-33.913 61.528-1.73 106.604-.15 135.227 4.744 2.277.39 3.55 6.73 3.822 19.023z" class="I"/><path d="M803 732c-6.67 29.284-19.354 59.305-21.808 89.385-1.778 21.8-.795 43.744-1.192 65.615m15-155c-14.984 38.006-20.795 72.197-22.2 113.267-1.1 32.267-4.312 24.4 2.07 37.733m.13-128c-14.653 58.34-15.325 77.2-5.07 137m-.93 7c-34.763-31.636-20.2-86.883-10.886-126M701 745c2.14 10.58 1.557 17.67-1.745 21.274-17.54 19.142-24.368 26.506-44.1 53.76-.27.373-.2 1.35.27 1.354 2.187.022 4.63-.05 6.435-1.287 12.653-8.677 22.434-21.86 36.442-28.117 18.856-8.42-25.862 20.683-15.038 26.355C687.7 820.66 765 810 740 815s-62.116 11.925-59 16c13 17 16.274 24.78 13 40m-40-105c-11.423 30.118-26.7 103.5-71.7 112-.57.108-.866-.765-1.3-1.148M647 745c-10.322 51.055-25.58 96.17-68 126m62-145c-13.132 47.6-19.77 99.38-60 132m46-130c-12.05 50.9-13.37 84.4-49 120" class="B C D E"/><path d="M639.758 717.42c-5.483 0 3.297 33.802 6.74 41.61 2.91 6.6 10.928 9.963 24.05 10.087 14.524.447 24.622-2.866 30.293-9.938l.867-1.113c6.74 13.522 20.32 17.355 36.792 17.355 38.09 0 53.292-23.062 47.196-58H639.758zM707 730.327l64.78-.907.018.233c.862 11.138-1.075 19.422-5.423 24.913l-.23.286-.22.263c-5.204 6.115-14.913 9.304-29.6 9.304-10.824 0-23.59-4.55-27.885-19.503l-.138-.497c-.7-2.658-.485-7.275-1.146-12.686l-.127-1.064-.04-.343zm-57 1.093h47l-.023.067c.023 21.183.023 29.933-35.19 29.92l-.565.008-.664.003c-.664 0-1-.102-1.634-.534-1.316-.9-2.76-2.706-4.086-5.458-2.52-5.23-4.152-12.922-4.78-22.97l-.06-1.038z" class="N R"/><path d="M693.24 742.318c.532 8.5-7.735 10.662-10.027 2.84-1.75-5.968 7.783-6.535 10.788-2.84m27.24 0c.532 8.5-7.735 10.662-10.027 2.84-1.75-5.968 7.783-6.535 10.788-2.84" class="F"/><path d="M622.194 994.88c-6.16 9.025-32.022 6.686-18.17-11.604s24.33 2.58 18.17 11.604zm30.506 15.06c-6.313 8.724-29.365 3.168-15.17-14.5s21.483 5.788 15.17 14.5zm44.928 5.428c-6.386 9.058-29.346 4.956-14.987-13.4s21.373 4.342 14.987 13.4zm46.875-5.832c-6.506 8.866-28.642 4.25-19.188-11.4s25.694 2.533 19.188 11.4zm35.193-11.036c-6.154 8.77-25.2 4.565-18.15-11.275s24.305 2.506 18.15 11.275z" class="P"/><path d="M852.563 676.81c-10 133-11.24 216-3.746 249 88.914 12.5 169.086 12 240.516-1.5-18.482-87.5-34.466-142.5-47.953-165 32.468 8.5 51.95 5 58.443-10.5s-19.48-33.25-77.924-53.25c-39.34-10.053-70.06-16.303-92.16-18.75s-47.826-2.447-77.175 0z" class="H"/><g class="B C D"><path d="M866.77 693.232c2.18-14.72 20.998-38.77 34.377-44.428 3.522-1.49 7.2-2.63 10.954-3.404 2.408-.497 6.42-2.65 7.366-.378 6.942 16.672-25.69 43.698-38.152 47.263-1.1.312-.267-2.36.187-3.4 1.346-3.08 2.813-6.236 5.1-8.7 11.7-12.616 26.997-27.975 45.14-31.38 1.61-.302 4.3-1.516 4.912 0 4.93 12.003-6.625 31.57-17.565 37.242-4.803 2.5-10.968 10.696-14.733 6.808-3.622-3.74 5.23-9.14 8.878-12.856 6.948-7.08 14.53-13.605 22.664-19.282 4.253-2.97 9.212-4.9 14.168-6.43 4.322-1.333 8.903-2.477 13.408-2.078 1.234.11 1.377 2.167 1.51 3.4 1.897 17.377-17.6 34.2-31.732 40.27-1.33.573-.467-2.976 0-4.348.586-1.72 1.827-3.17 3.023-4.54 3.225-3.69 6.61-7.25 10.198-10.586 1.78-1.656 3.757-3.12 5.855-4.348 7.174-4.2 14.162-8.905 21.912-11.912 3.656-1.42 8.487-3.372 11.7-1.135 2.535 1.76 1.11 6.384 0 9.265-4.922 12.76-8.74 19.743-18.698 26.655-3.82 2.65-9.048 5.367-13.977 4.917-.618-.056.37-1.218.756-1.704 4.538-5.707 9.075-11.428 13.977-16.825 5.18-5.704 10.55-11.254 16.24-16.447 1.46-1.333 3.18-2.57 5.103-3.026 5.372-1.273 11.36-4.263 16.43-2.078 2.776 1.196.836 6.228-.19 9.074-2.275 6.302-10.99 18.593-16.618 23.064-12.653 10.053-12.427 1.75-6.8-4.348 7.067-7.66 14.063-15.528 22.286-21.93 2.766-2.153 6.56-2.602 10.01-3.213 2.666-.472 5.664-1.136 8.122 0 1.465.677 1.534 2.932 1.698 4.54.347 3.386 1.085 7.052-.187 10.208-4.502 11.17-17.492 24.318-29.843 25.142" class="G"/><path d="M972.73 738.603c2.33 4.16 4.2 8.62 6.988 12.478 7.165 9.88 22.087 6.3 23.797-5.86.763-5.43.504-10.965.378-16.447-.006-.252-.504 0-.756 0m1.7 66.548c17.15 16.082 32.735 2 48.92-8.32" stroke="#beef9e"/><path d="M1066.034 821.786c8.336 3.503 6.58 1.255 10.763 12.478 1.672 4.486 3.27 9.067 3.97 13.803.636 4.3.752 8.76 0 13.043-1.385 7.882-18.685 11.894-23.045 5.104-6.8-10.588-8.516-16.252-9.63-28.924-.233-2.648-1.052-5.99.756-7.94 1.5-1.616 5.014-1.52 6.61 0a33.11 33.11 0 0 1 8.874 14.747c1.88 6.682 1.624 13.87 1.134 20.795-.443 6.246-11.908 16.898-17.374 9.265-4.354-6.08-6.336-13.014-6.988-20.42-.597-6.78-1.635-13.727-.378-20.416 2.078-11.06 6.067 1.215 6.61 5.67.887 7.26 1.268 14.654.565 21.933-.568 5.887-2.55 11.568-4.343 17.203-.488 1.533-1.317 3.02-2.454 4.157s-2.582 2.127-4.156 2.46c-1.852.393-4.098.68-5.668-.378-1.564-1.056-2.238-3.228-2.454-5.104-1.497-12.99-2.832-26.063-2.645-39.136.016-1.09 2.998-1.633 3.214-.565 2.933 14.514-.74 22.925-7.18 35.92-1.263 2.55-6.51 8.84-10.767 6.617-6.914-3.612-2.398-34.7 4.912-38.945.6-.35 1.952-.872 2.076-.187 2.115 11.644-4.408 23.754-12.652 31.572-1.92 1.82-15.39 7.648-16.81 4.157-4.758-11.713-.52-33.305 10.198-40.646.735-.503 2.5-1.258 2.645-.378 2.782 16.72-4.573 18.166-18.32 29.872-2.237 1.905-5.948 6.994-7.557 4.535l-3.588.756c-6.15-9.4 17.274-26.34 17.755-40.455.045-1.328-1.153 2.45-2.08 3.4-4.012 4.118-8.435 7.814-12.652 11.72" class="G"/></g><path d="M493.88 460.035h187.936c9.874 0 17.88 8.05 17.88 17.977v121.163c0 9.93-8.005 17.977-17.88 17.977h-18.47l.012 32.888c.001 2.445-1.967 4.428-4.395 4.428a4.38 4.38 0 0 1-2.616-.867l-48.966-36.45H493.88c-9.874 0-17.88-8.05-17.88-17.977V478.013c0-9.93 8.005-17.977 17.88-17.977z" class="N"/><path d="M491.007 455.954l157.75-31.542c8.288-1.657 15.007 4.962 15.007 14.785v119.868c0 9.823-6.72 19.13-15.007 20.786l-157.75 31.542C482.72 613.05 476 606.43 476 596.61V476.74c0-9.823 6.72-19.13 15.007-20.786z" class="O"/><path d="M488.69 448.012l133.406-65.608c7.01-3.447 12.69 1.73 12.69 11.565v120.01c0 9.834-5.682 20.6-12.69 24.048L488.69 603.636c-7.01 3.447-12.69-1.73-12.69-11.565V472.06c0-9.834 5.682-20.6 12.69-24.048z" class="P"/></g><defs ><path id="B" d="M217.458 249.692c-1.32-8.66.214-14.627 4.604-17.905 7.978-5.958 18.712 4.265 19.795 11.845 1.28 8.965-5.74 22.9-12.5 20.65-6.453-2.15-10.423-7.015-11.91-14.6z"/></defs></svg>