<svg xmlns="http://www.w3.org/2000/svg" width="1058" height="754"><style><![CDATA[.B{stroke-linecap:round}.C{stroke-linejoin:round}.D{stroke-width:5.322}.E{fill:#beef9e}.F{stroke:#038225}]]></style><g fill="none" fill-rule="evenodd"><path d="M34.14 268.668C2.436 164.112 112.46 29.248 192 5c120.786-36.822 152.426 173.927 147 176-33.475 12.797-135.095 42.02-304.86 87.668z" fill="#a7d990"/><path d="M285.674 93.927c5.45 43.488-37.133 153.25-82.104 147.217-37.77-5.066-59.773-37.147-71.42-71.482C130.18 163.856 101 179 97 152s27.836-10.042 27-15c-2.794-16.57-2.582-30.63-2.157-41.86.067-1.773 9.6-7.256 29.982-10.495 9.12-1.45 20.41-2.45 33.998-2.466 19.383-.025 41.04 1.88 59.218 4.186 5.228.663.444-48.057 4.96-47.365 4.596.705 18.476 50.82 22.047 51.48 8.388 1.547 13.553 2.862 13.626 3.447z" class="E"/><g stroke="#212121" class="B C D"><path d="M224 106c2.464 23.7 27 16.826 27 1m-26 12l-6 8"/><path d="M234 122l-4 13m9-15l3 11"/><path d="M209 97c16.21 24.68 26.026 39.117 29.444 43.308 1.508 1.85 4.41 4.057 3.536 6.337-.804 2.094-19.898 3.677-21.576.287-.868-1.753-1.12-7.846-1.06-5.857.358 12.237 1.43 19.953 3.217 23.148" class="E"/><path d="M166 106c3 16 28.775 18.378 34-1m-26 13l-7 5"/><path d="M180.654 119l-.3 9M188 118l3 7"/></g><g fill="#f5b700"><path d="M208.977 168.468c6.5.718 4.524 9.82 9.604 8.6 2.564-.615 4.7-3.453 7.312-2.985 3.948.7 9.424 4.23 16.427 10.556-16.4 10.743-26.83 17.197-31.32 19.36-11.845 5.708-35.614-25.23-44-32.814L209 193c29.333 0 15.33-7.27-42-21.814 11.465-6.353 35.485-3.436 41.986-2.72zM269.034 294.1c-5.167.164-9.244 3.085-13.7 5.26-14.73 7.2-24.258 16.735-29 33.53-.365 1.296.102 2.696 0 4.04-.276 3.64-.96 7.248-1.133 10.895-.127 2.655-.707 12.463.756 17 2.25 6.977 6.216 13.95 10.197 20.098 5.387 8.32 11.815 11.617 20.736 16.173-.746-11.645 1.586-16 1.685-17.838l.003-.087.897.262c5.508-12.22 7.047-21.226 16.927-29.4s21.304-13.16 34.073-13.792c14.588-.722 27.403-.015 38.4 4.958-.183-3.28-.637-6.435-1.398-9.304-1.287-4.848-9.42-16.772-11.804-20.38-3.108-4.702-8.224-7.942-13.03-10.614-16.876-9.38-34.44-11.4-53.636-10.8zM252.5 381.397c4.816.536 6.1.463 6.098 1.76v.013zm61.506-33.287c-5.75.183-10.287 3.44-15.237 5.864-16.393 8.03-26.997 18.66-32.262 37.387-.406 1.446.113 3.007 0 4.504-.308 4.06-1.067 8.082-1.26 12.148-.142 2.96-.786 13.897.84 18.956 2.503 7.78 6.918 15.555 11.35 22.4 6.15 9.517 13.52 13.14 23.855 18.43 17.884 9.156 38.214 6.04 57.275 3.875l5.464-4.082c6.968-1.5 20.507-9.266 25.537-14.14 4.874-4.723 8.228-16.275 9.565-20.2 3.876-11.4 5.254-27.04 2.206-38.54-1.433-5.406-10.482-18.702-13.137-22.725-3.46-5.243-9.153-8.856-14.502-11.835-18.78-10.46-38.327-12.723-59.692-12.042zm-9.2 44.495c6.767-10.628 16.156-12.086 28.076-11.493 5.973.297 11.317 2.645 15.937 6.5s5.34 8.084 7.918 13.835h0l.42-.123.001.043c.052.933 1.325 3.267.67 9.828l-.038.362c-.893 8.265-2.635 19.753-11.6 23.306-7.16 2.834-13.43 2.173-21.32 1.8-7.836-.36-21.687-11.102-22.588-19.37-.44-4.034-.247-8.116-.007-12.176l.112-1.872c.112-1.888.862-8.18 2.43-10.64zM360 400.48l-2.852.834c-.005-.616.6-.582 2.852-.834z"/><path d="M44.034.1c-5.167.164-9.244 3.085-13.7 5.26-14.73 7.2-24.258 16.735-29 33.53-.365 1.296.102 2.696 0 4.04-.276 3.64-.96 7.248-1.133 10.895-.127 2.655-.707 12.463.756 17 2.25 6.977 6.216 13.95 10.197 20.098 5.387 8.32 11.815 11.617 20.736 16.173-.746-11.645 1.586-16 1.685-17.838l.003-.087.897.262c5.508-12.22 7.047-21.226 16.927-29.4s21.304-13.16 34.073-13.792c14.588-.722 27.403-.015 38.4 4.958-.183-3.28-.637-6.435-1.398-9.304-1.287-4.848-9.42-16.772-11.804-20.38-3.108-4.702-8.224-7.942-13.03-10.614C80.794 1.52 63.232-.5 44.034.1zM27.5 87.397c4.816.536 6.1.463 6.098 1.76v.013zM89.006 54.1c-5.75.183-10.287 3.44-15.237 5.864-16.393 8.03-26.997 18.66-32.262 37.387-.406 1.446.113 3.007 0 4.504-.308 4.06-1.067 8.082-1.26 12.148-.142 2.96-.786 13.897.84 18.956 2.503 7.78 6.918 15.555 11.35 22.4 6.15 9.517 13.52 13.14 23.855 18.43 17.884 9.156 38.214 6.04 57.275 3.875l5.464-4.082c6.968-1.5 20.507-9.266 25.537-14.14 4.874-4.723 8.228-16.275 9.565-20.2 3.876-11.4 5.254-27.04 2.206-38.54-1.433-5.406-10.482-18.702-13.137-22.725-3.46-5.243-9.153-8.856-14.502-11.835-18.78-10.46-38.327-12.723-59.692-12.042zm-4.2 49.495c6.767-10.628 16.156-12.086 28.076-11.493 5.973.297 11.317 2.645 15.937 6.5s5.34 8.084 7.918 13.835h0l.42-.123.001.043c.052.933 1.325 3.267.67 9.828l-.038.362c-.893 8.265-2.635 19.753-11.6 23.306-7.16 2.834-13.43 2.173-21.32 1.8-7.836-.36-21.687-11.102-22.588-19.37-.44-4.034-.247-8.116-.007-12.176l.112-1.872c.112-1.888.862-8.18 2.43-10.64zM140 111.48l-2.852.834c-.005-.616.6-.582 2.852-.834z" transform="matrix(-1 0 0 -1 864 474)"/></g><path d="M1007.306 527.102c1.674 14.458 2.894 23.407 3.66 26.85 1.204 5.405 2.456 16.643 3.755 33.716 28.538-11.988 42.808-3.996 42.808 23.976s-14.27 37.462-42.808 28.47v107.142L730.088 754V640.115c-31.042 7.492-45.31-1.998-42.808-28.47s16.773-34.465 42.808-23.976c.75-9.123 2.694-28.965 5.83-59.528.96-9.372 270.434-9.28 271.39-1.038zm-234.4 35.84c-19.526 60.94-21.28 107.392-5.257 139.36 10.19 20.33 96.3 25.758 152.455 20.23 21.43-2.1 43.46-8.853 66.09-20.23 3.893-20.674 5.395-41.902 4.506-63.686s-4.143-43.512-9.763-65.184c-13.518-14.985-46.563-24.475-99.134-28.47s-88.87 1.998-108.897 17.982z" fill="#044917"/><path d="M811 683c6.284 5.123 32.272 9.777 54 10 30.207.3 57.268-5.156 57-5l-31.684 14.17c-2.258 1.314-4.73 2.395-7.306 2.847-3.926.69-9.456-2.573-11.947.532-1.873 2.336 5.095 3.345 6.953 5.693 6.43 8.126-11.446 6.67-13.017 6.757" class="B C D F"/><path d="M783.093 675c14.752-14.434 37.968-29.7 50.907-18.813 5.923 4.984 7.226 1.876 13 3 4.64.904 5.998-2.433 11.116-.64.772.27-1.362-1.006-2.168-1.15-2.022-.36-2.898.658-4.948.8-3.4.22-7.07-1.645-10.366-.736-17.38 4.793-34.74 9.744-51.76 15.686-4.9 1.715 10.34-1.48 15.325-2.965 8.82-2.626 17.2-6.6 25.978-9.332 4.987-1.545 10.1-2.862 15.278-3.45 3.818-.433 6.706.945 10.52 1.4 1.327.162-3.583-1.682-2.98-.492 1.05 2.065 8.176 2.66 6.013 3.498-16.158 6.255-41.513 8.145-59.164 14.222-2.816.97-10.585 5.22-7.68 4.557 18.553-4.24 36.577-10.536 54.985-15.364 2.024-.53 4.148-.746 6.24-.694 2.82.07 9.974-1.267 8.392 1.06-2.012 2.96-7.173.898-10.546 2.1-13.605 4.883-11.873 7.663-25.095 10.573-9.935 2.187-20.198 2.743-30.082 5.15-1.758.428-6.132 2.922-4.35 3.238 20.675 3.664 45.367-4.32 63.005-14.186 1.245-.696 1.262-2.877 2.588-3.404 1.57-.623 5.733 1.9 5.054.367l1.536-2.88c-.384-.873-1.9-.1-2.863-.133m9.915.818c17.3 13.578 37.6 26.1 61.17 19.275 2.135-.62-4.037-1.927-6.2-2.476-7.57-1.928-15.573-2.252-22.906-4.936-9.083-3.325-35.484-14.646-25.96-12.954 15.265 2.7 28.756 11.72 43.63 16.092 5.27 1.55 10.918 1.837 16.404 1.558 3.076-.156-6.108-.974-9.034-1.932-10.32-3.38-20.6-6.954-30.64-11.057-7.26-2.963-12.696-4.792-19.232-9.117-3.538-2.342 5.957 2 10.072 3.055 5.863 1.488 12.006 1.797 17.803 3.526 5.617 1.675 10.67 4.94 16.28 6.637 4.9 1.485 9.992 2.93 15.123 2.862 1.224-.016-1.068-2.318-2.06-3.035-2.55-1.846-5.35-3.43-8.32-4.477-9.552-3.364-19.3-6.142-29.1-8.705-3.226-.844-13.22-1.713-9.892-1.495 7.895.515 15.843.908 23.613 2.4 7.37 1.407 14.477 3.96 21.623 6.244 1.623.518 3.272 1.13 4.637 2.146.366.273-.893.436-1.334.316l-11.15-2.215c-6.7-1.83-13.145-4.603-19.9-6.257-7.294-1.786-14.836-2.395-22.163-4.04-1.16-.26-6.136 3.483-5.408 2.545 1.97-2.536 14.004-.197 16 0 17.862 1.762 26.654-1.705 44.937 4.565 2.22.76 7.456 1.138 6.283 3.165-1.864 3.223-8.508.836-10.44 4.02-2.022 3.333 18.048 1.368.733 4.2-2.3.377-4.743.87-6.985.24-58.537-16.5-21.58-11.058-50.515-14.732" stroke="#212121" class="B C D"/><path d="M852.058 632.07c-6.028-2.856-12.613-6.86-19.907-4.6-6.13 1.9-5.613 14.48-5.398 17.84.773 12.092 16.334 16.258 25.53 11.668m36.717-18.8c22.242-20.05 26.554 11.6 9.395 19.14-6.078 2.674-11.372 1.473-17.657 1" class="B C D F"/><path d="M819.142 549.185c-1.5 26.347 21.8 33.052 28.26 8.8 4.928-18.502-21.933-20.257-30.4-8.8m89.998-3.86c.47 5.554.123 11.23 1.4 16.662 5.585 23.564 36.084.702 19.9-18.988" fill="#212121"/><path d="M863.07 593.24c1.524 22.424.436-9.38-10.23 38.227-4.116 18.374 11.087 47.533 27.41 26.258 8.657-11.283 9.297-27.435 9.95-41.494.366-7.87 2.385-24.177-7.225-28.976-7.798-17.58-9.695-23.122-5.69-16.63" class="B C D F"/><path d="M844.242 538c6.326 0 12.75.457 19.27 1.37l1.224.177a6 6 0 0 1 5.043 4.956c1.93 11.72 2.714 23.662 2.347 35.826 1.7 1.233 3.942.95 6.726-.845-.306-11.872.485-23.532 2.37-34.98a6 6 0 0 1 4.841-4.923l.203-.034 1.224-.177c6.52-.914 12.944-1.37 19.27-1.37l1.487.007c8.308.076 25.104.748 50.386 2.016a6.76 6.76 0 0 1 5.978 4.336l.074.204.25.73c3.775 11.237 5.663 23.79 5.663 37.66 0 13.235-1.76 24.757-5.276 34.567a9.01 9.01 0 0 1-8.164 5.957l-.235.005-3.62.03c-7.11.047-13.464.022-19.06-.074l-3.226-.057-39.548-.015c-4.3.025-8.006-2.982-8.875-7.162l-.044-.225-.206-1.15c-1.026-5.83-1.836-11.878-2.43-18.143-2.883-3.094-5.845-3.334-8.888-.72a201.03 201.03 0 0 1-3.786 22.485l-.29 1.263c-.922 3.95-4.382 6.796-8.445 6.945l-17.994.637-20.507.6-2.625.048-20.075.05-1.818-.016a9.01 9.01 0 0 1-8.388-5.929c-4.462-12.29-6.693-25.323-6.693-39.097 0-13.87 1.888-26.423 5.663-37.66l.25-.73c.9-2.604 3.294-4.402 6.052-4.54l8.527-.42L844.242 538zm-7.5 7.492l-1.183.044c-7.523.31-18.066 1.27-31.63 2.885l-2.206.265a3 3 0 0 0-2.628 2.69l-.172 1.835c-2.738 29.79-1.898 50.443 2.52 61.96 1.96 5.11 21.237 5.86 57.828 2.248l.33-2.79c1.95-16.72 2.822-28.986 2.61-36.797l-.01-.318c-.257-8.215-1.234-18.4-2.933-30.525-6.64-1.277-14.152-1.776-22.53-1.498zm69.093 0l-.812-.025c-7.87-.22-12.295.288-13.273 1.523l-.227 1.643c-1.56 11.414-2.46 21.04-2.705 28.883l-.02.758c-.18 8.206.743 20.256 2.768 36.15 38.093 2.114 58.12.616 60.08-4.495 4.5-11.727 4.636-31.272.41-58.634a3 3 0 0 0-2.695-2.528l-6.67-.6c-17.378-1.543-29.664-2.433-36.858-2.672z" fill="#f5b700"/><path d="M136.474 461.315C113.852 406.752 81.34 378.73 38.94 377.25s-49.734 12.65-22 42.392c79.145 83.895 128.093 120.745 146.845 110.55s30.28-70.168 34.585-179.922c24.96-12.336 38.61-25.066 40.956-38.192 1.9-10.576 8.013-6.457 18.37 12.357 2.496 4.535-2.3 13.675 6.033 18.21 2.022-.182 4.398-13.823 2.786-19.006-3.83-12.323-14.026-23.84-19.432-31.103 5.12-4.774 18.61 14.093 21.142 22.672 1.27 4.306 2.7 10.735 3.114 12.137 2.632-.908 3.176-14.94 1.373-19.056-4.574-10.446-19.814-26.863-18.8-28.958 1.47-5.49 10.44 5.022 16.467 14.726 3.98 6.408 6.12 13.162 5.94 12.236-.68-3.508 1.715-8.97-.82-17-4.16-13.188-16.914-23.403-23.97-22.77-7.57.68-18.587 5.483-33.05 14.412 5.952-12.207 8.815-19.9 8.588-23.05-.396-5.513-3.688-9.82-6.623-12.967-4.85 17.283-9.467 27.97-13.855 32.063-6.582 6.138-24.233 25.333-23.946 37.37s-44.56 141.367-35.652 169.98" class="E"/><path d="M453.88 334.7h187.936c9.874 0 17.88 8.05 17.88 17.977V473.84c0 9.93-8.005 17.977-17.88 17.977h-18.47l.012 32.888c.001 2.445-1.967 4.428-4.395 4.428a4.38 4.38 0 0 1-2.616-.867l-48.966-36.45H453.88c-9.874 0-17.88-8.05-17.88-17.977V352.677c0-9.93 8.005-17.977 17.88-17.977z" fill="#044917"/><path d="M451.007 330.618l157.75-31.542c8.288-1.657 15.007 4.962 15.007 14.785V433.73c0 9.823-6.72 19.13-15.007 20.786l-157.75 31.542C442.72 487.715 436 481.095 436 471.273V351.404c0-9.823 6.72-19.13 15.007-20.786z" fill="#038225"/><path d="M448.69 322.676l133.406-65.608c7.01-3.447 12.69 1.73 12.69 11.565v120.01c0 9.834-5.682 20.6-12.69 24.048L448.69 478.3c-7.01 3.447-12.69-1.73-12.69-11.565v-120.01c0-9.834 5.682-20.6 12.69-24.048z" fill="#00b832"/></g></svg>