<?xml version="1.0" encoding="UTF-8"?>
<svg width="1396px" height="269px" viewBox="0 0 1396 269" version="1.1" xmlns="http://www.w3.org/2000/svg" xmlns:xlink="http://www.w3.org/1999/xlink">
    <title>quickbooks-logo</title>
    <g id="quickbooks-logo" stroke="none" stroke-width="1" fill="none" fill-rule="evenodd">
        <g id="Group-15" transform="translate(99.000000, 58.000000)"></g>
        <g transform="translate(1.000000, 0.000000)" fill-rule="nonzero">
            <g id="Wordmark" transform="translate(269.000000, 59.000000)" fill="#010202">
                <path d="M1118.26085,144.756379 C1118.26085,141.844138 1115.88304,140.783276 1113.23754,140.783276 L1108.48071,140.783276 L1108.48071,154.018103 L1110.85973,154.018103 L1110.85973,148.460345 L1112.44775,148.460345 L1115.61897,154.018103 L1118.52854,154.018103 L1115.08963,148.193621 C1116.93931,147.928103 1118.26085,146.610172 1118.26085,144.756379 Z M1110.85852,146.610172 L1110.85852,142.903793 L1112.97227,142.903793 C1114.29381,142.903793 1115.61777,143.16931 1115.61777,144.757586 C1115.61777,146.344655 1114.02974,146.610172 1112.7082,146.610172 L1110.85852,146.610172 L1110.85852,146.610172 Z M1113.23754,135.757759 C1106.62862,135.757759 1101.60651,141.051207 1101.60651,147.399483 C1101.60651,153.755 1106.89268,159.046034 1113.23754,159.046034 C1119.58601,159.046034 1124.87339,154.018103 1124.87339,147.399483 C1124.8746,140.783276 1119.58601,135.757759 1113.23754,135.757759 Z M1113.23754,157.456552 C1107.6873,157.456552 1103.45619,152.962069 1103.45619,147.667414 C1103.45619,142.107241 1107.95016,137.874655 1113.23754,137.874655 C1118.7926,137.874655 1123.0213,142.375172 1123.0213,147.667414 C1123.0213,152.962069 1118.52854,157.456552 1113.23754,157.456552 Z" id="_xAE__1_"></path>
                <path d="M356.799839,137.873448 C339.613746,137.873448 330.889871,122.525345 330.889871,107.708276 C330.889871,92.8863793 340.405949,78.0668966 356.007637,78.0668966 C363.409968,78.0668966 372.663183,81.7696552 376.10209,86.8012069 L394.342042,68.5384483 C385.618167,59.277931 371.606913,53.7177586 356.007637,53.7177586 C324.279743,53.7177586 301.275723,76.4762069 301.275723,107.707069 C301.275723,139.464138 324.015675,161.692759 356.535772,161.692759 C372.133842,161.692759 386.411576,157.191034 394.873794,147.926897 L377.159566,128.876034 C373.19373,134.17069 364.731511,137.873448 356.799839,137.873448 Z M255.006029,159.046034 L283.297428,159.046034 L283.297428,56.63 L255.006029,56.63 L255.006029,159.046034 Z M203.713023,112.733793 C203.713023,124.642241 195.780145,137.611552 181.23955,137.611552 C169.871383,137.611552 164.053457,129.670172 164.053457,112.996897 L164.053457,56.6287931 L135.763264,56.6287931 L135.763264,120.142931 C135.763264,141.313103 146.338023,161.957069 174.365354,161.957069 C187.584405,161.957069 198.689711,151.371379 204.504019,143.693103 L205.035772,143.693103 L205.035772,159.043621 L232.005627,159.043621 L232.005627,56.6275862 L203.713023,56.6275862 L203.713023,112.733793 L203.713023,112.733793 Z M84.7367363,69.5968966 L84.2049839,69.5968966 C80.2391479,65.0987931 69.4003215,53.7201724 51.9501608,53.7201724 C23.1318328,53.7201724 0.922427653,76.2143103 0.922427653,107.440345 C0.922427653,138.933103 21.278537,161.96069 50.6286174,161.96069 C63.8488746,161.96069 76.2745177,154.812241 83.4127814,146.874483 L83.9409164,146.874483 L83.9409164,209.593276 L112.231109,209.593276 L112.231109,56.6312069 L85.0008039,56.6312069 L85.0008039,69.5968966 L84.7367363,69.5968966 Z M57.5016077,137.873448 C40.0526527,137.873448 30.0048232,122.525345 30.0048232,107.439138 C30.0048232,93.1494828 38.9963826,77.5382759 57.5016077,77.5382759 C74.4236334,77.5382759 84.7355305,93.1506897 84.7355305,107.970172 C84.7367363,122.525345 74.4248392,137.873448 57.5016077,137.873448 Z M700.780949,53.7189655 C668.522508,53.7189655 645.258039,76.2131034 645.258039,107.439138 C645.258039,139.728448 669.050643,162.223793 700.780949,162.223793 C732.508842,162.223793 756.303859,139.465345 756.303859,107.439138 C756.303859,76.4774138 733.036977,53.7189655 700.780949,53.7189655 Z M700.780949,137.873448 C682.273312,137.873448 674.077572,122.258621 674.077572,107.439138 C674.077572,93.1494828 682.537379,77.5382759 700.780949,77.5382759 C719.288585,77.5382759 727.484325,93.1506897 727.484325,107.439138 C727.483119,121.99431 719.287379,137.873448 700.780949,137.873448 Z M1054.01166,96.0641379 C1039.47106,92.622069 1034.44895,90.7694828 1034.44895,84.9486207 C1034.44895,76.742931 1044.75965,75.1558621 1049.51889,75.1558621 C1058.24156,75.1558621 1068.29059,80.4456897 1071.99116,85.4784483 L1088.64791,69.5968966 C1080.98151,59.8053448 1065.91278,54.2487931 1049.78658,54.2487931 C1029.42203,54.2487931 1008.01085,64.5701724 1008.01085,87.592931 C1008.01085,107.439138 1023.34365,113.262414 1038.67765,116.968793 C1054.53979,120.675172 1060.35892,123.32069 1060.35892,129.93569 C1060.35892,139.465345 1049.51889,141.051207 1045.81471,141.051207 C1036.56511,141.051207 1025.98674,135.757759 1020.16881,128.877241 L1002.98272,146.344655 C1012.23473,156.667241 1028.36696,163.015517 1044.75844,163.015517 C1072.25402,163.015517 1088.6467,149.783103 1088.6467,128.085517 C1088.11977,106.383103 1068.2918,99.5025862 1054.01166,96.0641379 Z M1000.60852,56.63 L964.118971,56.63 L927.631833,99.237069 L927.106109,99.237069 L927.106109,0.260689655 L898.811093,0.260689655 L898.811093,159.044828 L927.106109,159.044828 L927.106109,108.496379 L927.631833,108.496379 L965.439309,159.044828 L1002.72227,159.044828 L958.830386,103.206552 L1000.60852,56.63 Z M581.535772,53.7189655 C568.580788,53.7189655 559.063505,59.277931 550.073151,67.7455172 L549.811495,67.7455172 L549.811495,-0.00120689655 L521.520096,-0.00120689655 L521.520096,158.781724 L548.486334,158.781724 L548.486334,144.224138 L549.015675,144.224138 C555.360531,154.809828 568.051447,161.693966 581.27291,161.693966 C610.351688,161.693966 632.565916,138.667586 632.565916,107.174828 C632.303055,76.4774138 610.3541,53.7189655 581.535772,53.7189655 Z M575.984325,137.873448 C559.064711,137.873448 548.752814,122.790862 548.752814,107.970172 C548.752814,93.415 559.064711,77.5382759 575.984325,77.5382759 C594.227894,77.5382759 603.483521,93.1506897 603.483521,107.439138 C603.482315,122.525345 593.694936,137.873448 575.984325,137.873448 Z M510.940514,56.63 L474.456994,56.63 L437.966238,99.237069 L437.438103,99.237069 L437.438103,0.260689655 L409.149116,0.260689655 L409.149116,159.044828 L437.438103,159.044828 L437.438103,108.496379 L437.966238,108.496379 L475.773714,159.044828 L513.056672,159.044828 L469.168408,103.206552 L510.940514,56.63 Z M824.782958,53.7189655 C792.525723,53.7189655 769.258842,76.2131034 769.258842,107.439138 C769.258842,139.728448 793.055064,162.223793 824.782958,162.223793 C856.509646,162.223793 880.305868,139.465345 880.305868,107.439138 C880.304662,76.4774138 857.037781,53.7189655 824.782958,53.7189655 Z M824.782958,137.873448 C806.274116,137.873448 798.080788,122.258621 798.080788,107.439138 C798.080788,93.1494828 806.538183,77.5382759 824.782958,77.5382759 C843.290595,77.5382759 851.48754,93.1506897 851.48754,107.439138 C851.751608,121.99431 843.289389,137.873448 824.782958,137.873448 Z" id="quickbooks"></path>
            </g>
            <g id="Icon_2_">
                <ellipse id="Circle_2_" fill="#2FA037" cx="119.23203" cy="119.066332" rx="119.106495" ry="119.003819"></ellipse>
                <path d="M33.2125505,119.06392 C33.2125505,144.717387 53.8582879,165.340503 79.5314747,165.340503 L86.1486364,165.340503 L86.1486364,148.154573 L79.5314747,148.154573 C63.385697,148.154573 50.4145152,135.195779 50.4145152,119.06392 C50.4145152,102.933266 63.385697,89.9744724 79.5314747,89.9744724 L95.4104899,89.9744724 C95.4104899,89.9744724 95.4104899,178.300503 95.4104899,179.89005 C95.4104899,189.409246 103.086253,197.07598 112.614869,197.07598 L112.614869,72.7861307 C112.614869,72.7861307 94.883,72.7861307 79.5314747,72.7861307 C53.8582879,72.7861307 33.2125505,93.678191 33.2125505,119.06392 Z M158.932586,72.7861307 L152.316631,72.7861307 L152.316631,89.9744724 L158.932586,89.9744724 C175.079571,89.9744724 188.049545,102.933266 188.049545,119.06392 C188.049545,135.195779 175.079571,148.154573 158.932586,148.154573 L143.053571,148.154573 C143.053571,148.154573 143.053571,59.8273367 143.053571,58.241407 C143.053571,48.721005 135.379015,41.0518593 125.849192,41.0518593 L125.849192,165.340503 C125.849192,165.340503 143.579854,165.340503 158.932586,165.340503 C184.608187,165.340503 205.25151,144.717387 205.25151,119.06392 C205.25151,93.678191 184.343838,72.7861307 158.932586,72.7861307 Z" id="qb" fill="#FFFFFF"></path>
            </g>
            <path d="M385.982076,27.7797169 C390.219803,27.7797169 393.928418,24.3594591 393.928418,19.8898585 C393.928418,15.6828933 390.484359,12 385.982076,12 C381.741934,12 378.033319,15.4190586 378.033319,19.8898585 C378.297875,24.0980228 381.740726,27.7797169 385.982076,27.7797169 Z M339.094071,33.0396226 C331.413493,33.0396226 325.321459,37.7718587 322.93804,42.7691288 L322.671068,42.7691288 L322.671068,34.3528001 L310.226068,34.3528001 L310.226068,86.1579537 L323.203804,86.1579537 L323.203804,57.7585407 C323.203804,50.9204235 327.176975,43.8208701 335.386664,43.8208701 C343.864533,43.8208701 345.188521,51.448093 345.188521,57.4959052 L345.188521,86.1579537 L358.169881,86.1579537 L358.169881,53.8130119 C358.433229,43.2943998 352.604543,33.0396226 339.094071,33.0396226 Z M284,86.1579537 L296.977736,86.1579537 L296.977736,34.3528001 L284,34.3528001 L284,86.1579537 Z M521.073506,27.7797169 C525.311233,27.7797169 529.01864,24.3594591 529.01864,19.8898585 C529.01864,15.6828933 525.575789,12 521.073506,12 C516.83578,12 513.127165,15.4190586 513.127165,19.8898585 C513.127165,24.0980228 516.5676,27.7797169 521.073506,27.7797169 Z M499.882457,34.3528001 L499.882457,45.9243526 L514.451153,45.9243526 L514.451153,86.1567545 L527.430097,86.1567545 L527.430097,45.9243526 L542,45.9243526 L542,34.3528001 L499.882457,34.3528001 Z M477.631976,86.1579537 L490.612128,86.1579537 L490.612128,34.3528001 L477.631976,34.3528001 L477.631976,86.1579537 Z M365.055583,45.9243526 L379.625486,45.9243526 L379.625486,86.1567545 L392.605638,86.1567545 L392.605638,45.9243526 L407.173126,45.9243526 L407.173126,34.3528001 L364.791027,34.3528001 L364.791027,45.9243526 L365.055583,45.9243526 Z M451.143768,63.0160478 C451.143768,69.8529658 447.170597,76.9537185 438.960908,76.9537185 C430.483039,76.9537185 429.159051,69.328894 429.159051,63.2810818 L429.159051,34.6178341 L416.178899,34.6178341 L416.178899,66.9627759 C416.178899,77.4825872 421.743029,88 435.516849,88 C443.198635,88 449.291877,83.2665646 451.674088,78.2692945 L451.94106,78.2692945 L451.94106,86.6832247 L464.388476,86.6832247 L464.388476,34.8816688 L451.144976,34.8816688 L451.144976,63.0160478 L451.143768,63.0160478 Z" id="intuit_2_" fill="#010202"></path>
        </g>
    </g>
</svg>