<?xml version="1.0" encoding="UTF-8"?>
<svg width="1396px" height="484px" viewBox="0 0 1396 484" version="1.1" xmlns="http://www.w3.org/2000/svg" xmlns:xlink="http://www.w3.org/1999/xlink">
    <title>zoom-logo</title>
    <g id="zoom-logo" stroke="none" stroke-width="1" fill="none" fill-rule="evenodd">
        <path d="M242,23.8 C362.508,23.8 460.2,121.491 460.2,242 C460.2,362.508 362.508,460.2 242,460.2 C121.491,460.2 23.8,362.508 23.8,242 C23.8,121.491 121.491,23.8 242,23.8 Z M692.7,147 L702.2,147.5 C717.347,147.896 729.5537,159.95519 730.184439,175.041909 L730.2,175.5 L730.7,185 L616.8,298.9 L702.2,298.9 L711.7,299.4 C727.144,300.291 738.17755,311.47305 739.658065,326.930296 L739.7,327.4 L740.2,336.9 L597.9,336.9 L588.4,336.4 C573.352,335.905 561.14629,323.84482 560.418531,308.855121 L560.4,308.4 L559.9,298.9 L673.8,185 L588.4,185 L578.9,184.5 C563.852,183.807 551.84231,171.84285 550.924412,156.952121 L550.9,156.5 L550.4,147 L692.7,147 Z M1162.7,160.1 C1194.3,138.7 1236.9,144.2 1262.1,172.8 C1276.5,156.5 1297.2,147.1 1319,147.1 C1360.9,147.1 1394.9,181.1 1395,223 L1395,223 L1395,336.9 L1385.5,336.4 C1370.3,335.8 1358.1,323.6 1357.6,308.4 L1357.6,308.4 L1357.1,298.9 L1357.1,232.5 L1356.6,223 C1356.6,216.4 1355,209.9 1352,204 C1348.7,198.3 1343.9,193.5 1338.2,190.2 C1320.1,179.6 1296.8,185.8 1286.3,203.9 C1283.2,209.8 1281.6,216.3 1281.6,223 L1281.6,223 L1281.1,232.5 L1281.1,336.9 L1271.6,336.4 C1256.4,335.8 1244.3,323.6 1243.7,308.4 L1243.7,308.4 L1243.2,298.9 L1243.2,232.5 L1242.7,223 C1242.7,216.4 1241.1,209.9 1238,204 L1238,204 L1238.1,204 C1234.8,198.3 1230,193.5 1224.3,190.2 C1206.1,179.7 1182.9,185.9 1172.5,204 C1169.5,209.9 1167.8,216.4 1167.8,223 L1167.8,223 L1167.3,232.5 L1167.3,298.9 L1166.8,308.4 C1166.2,324.2 1154.6,335.4 1138.8,336.4 L1138.8,336.4 L1129.3,336.9 L1129.3,147.1 C1138.8,147.1 1155.4,151.8 1162.7,160.1 Z M1024.8,147.1 C1050,147.1 1074.1,157.1 1091.9,174.9 C1129,211.9 1129.1,272 1092,309 C1055,346.1 994.9,346.1 957.8,309.1 C920.7,272.1 920.7,212 957.7,174.9 C975.5,157.1 999.6,147.1 1024.8,147.1 Z M825.6,147.1 C878,147.1 920.4,189.6 920.4,242 C920.4,294.4 877.9,336.8 825.5,336.8 C773.1,336.8 730.7,294.3 730.7,241.9 C730.7,190.123 772.25624,147.95098 823.931032,147.112717 L825.5,147.1 L825.6,147.1 Z M370.2994,168.439509 L370.1,168.6 L308.4,213.7 L308.4,270.4 L370.1,315.5 C374.45,318.861364 379.484181,319.876963 379.598033,311.106326 L379.6,310.8 L379.6,173.3 C379.6,165.3 375.60061,164.225774 370.2994,168.439509 Z M256.8,165.999601 L107.3,165.999601 C103.1,166.1 99.7,169.4 99.6,173.7 L99.6,276.1 C99.7,299.3 118.6,318 141.8,317.900399 L291.3,317.900399 C295.5,317.900399 298.9,314.5 299,310.3 L299,207.8 C298.9,184.6 280,165.9 256.8,165.999601 Z M785.2,201.6 C774.127951,212.722149 768.602973,227.30808 768.625066,241.8871 C768.62171,256.441333 774.146709,270.996694 785.2,282.1 C807.4,304.3 843.4,304.4 865.7,282.2 C884.132964,263.849695 887.397744,236.002192 875.381384,214.358076 C873.006369,210.048724 870.032237,205.979866 866.45934,202.273082 L865.8,201.6 L865.74213,201.54213 C865.730556,201.530556 865.716667,201.516667 865.7,201.5 C843.4,179.3 807.4,179.4 785.2,201.6 Z M984.5,201.6 C973.45,212.7 967.925,227.25 967.925,241.8 L967.925,241.9 C967.925,256.45 973.45,271 984.5,282.1 C1006.7,304.3 1042.7,304.4 1065,282.2 C1083.43296,263.849695 1086.69774,236.002192 1074.68138,214.358076 C1072.30637,210.048724 1069.33224,205.979866 1065.75934,202.273082 L1065.1,201.6 C1065.1,201.6 1065.1,201.6 1065,201.5 C1042.7,179.3 1006.7,179.4 984.5,201.6 Z" id="Combined-Shape" fill="#4A8CFF"></path>
        <g id="Group-15" transform="translate(99.000000, 166.000000)"></g>
    </g>
</svg>