<?xml version="1.0" encoding="UTF-8"?>
<svg width="760px" height="165px" viewBox="0 0 760 165" version="1.1" xmlns="http://www.w3.org/2000/svg" xmlns:xlink="http://www.w3.org/1999/xlink">
    <title>glueup-logo-cn</title>
    <g id="Web" stroke="none" stroke-width="1" fill="none" fill-rule="evenodd">
        <g id="glueup-logo-cn" fill-rule="nonzero">
            <g id="glueup-logo-en" transform="translate(213.000000, 16.000000)" fill="#212121">
                <path d="M76.14,132.399 L76.14,87.561 C88.971,103.635 105.327,117.735 121.965,126.336 C124.785,121.965 130.143,115.197 134.091,111.813 C115.338,103.635 96.162,88.689 83.895,73.038 L130.425,73.038 L130.425,56.4 L76.14,56.4 L76.14,38.352 L120.273,38.352 L120.273,21.714 L76.14,21.714 L76.14,0.705 L58.233,0.705 L58.233,21.714 L15.369,21.714 L15.369,38.352 L58.233,38.352 L58.233,56.4 L4.794,56.4 L4.794,73.038 L50.478,73.038 C38.07,88.689 18.894,103.635 0,111.672 C4.089,115.197 9.588,121.965 12.408,126.195 C28.905,117.594 45.402,103.917 58.233,88.407 L58.233,132.399 L76.14,132.399 Z M213.935455,132.117 L213.935455,88.83 C226.625455,104.904 243.122455,119.004 260.042455,127.464 C262.580455,123.375 267.938455,116.748 271.745455,113.364 C254.120455,106.032 236.072455,92.496 223.946455,77.832 L268.079455,77.832 L268.079455,61.758 L240.725455,61.758 C245.237455,55.413 250.595455,45.966 255.530455,36.801 L239.315455,32.007 L262.721455,32.007 L262.721455,15.933 L213.935455,15.933 L213.935455,0.564 L196.169455,0.564 L196.169455,15.933 L148.652455,15.933 L148.652455,32.007 L172.622455,32.007 L158.099455,37.506 C162.611455,45.12 167.123455,54.99 168.674455,61.758 L142.025455,61.758 L142.025455,77.832 L186.299455,77.832 C174.032455,92.355 155.843455,105.75 138.077455,113.082 C142.025455,116.466 147.242455,123.093 149.921455,127.182 C166.841455,118.722 183.338455,104.904 196.169455,89.112 L196.169455,132.117 L213.935455,132.117 Z M196.169455,61.758 L171.776455,61.758 L185.171455,56.541 C183.338455,49.632 178.121455,39.621 173.186455,32.007 L196.169455,32.007 L196.169455,61.758 Z M237.623455,61.758 L213.935455,61.758 L213.935455,32.007 L237.764455,32.007 C234.944455,40.185 229.868455,50.76 225.779455,57.669 L237.623455,61.758 Z M388.672909,110.262 L388.672909,91.368 L407.989909,91.368 L407.989909,76.704 L388.672909,76.704 L388.672909,63.45 L404.182909,63.45 L404.182909,49.773 L388.672909,49.773 L388.672909,34.968 L373.021909,34.968 L373.021909,49.773 L364.702909,49.773 C367.240909,43.851 370.060909,37.083 372.598909,30.174 L406.579909,30.174 L406.579909,15.51 L377.392909,15.51 C378.661909,11.28 379.648909,7.191 380.635909,2.961 L363.997909,0 C363.292909,5.217 362.305909,10.434 361.177909,15.51 L346.231909,15.51 L346.231909,30.174 L357.511909,30.174 C355.819909,35.673 354.268909,40.044 353.422909,42.018 C351.307909,46.953 349.474909,50.478 346.936909,51.183 C348.628909,55.272 351.025909,62.604 351.871909,65.706 C353.140909,64.296 358.216909,63.45 363.151909,63.45 L373.021909,63.45 L373.021909,76.704 L346.936909,76.704 L346.936909,91.368 L373.021909,91.368 L373.021909,110.262 L388.672909,110.262 Z M293.356909,131.412 L293.494433,131.233564 C295.778161,128.304811 300.006469,124.59606 321.838909,108.429 C320.146909,105.609 318.031909,99.687 317.044909,95.598 L306.751909,103.212 L306.751909,83.472 L320.146909,83.472 L320.146909,69.231 L306.751909,69.231 L306.751909,54.567 L316.198909,54.567 L316.198909,40.467 L288.703909,40.467 C291.100909,36.801 293.215909,32.994 295.330909,28.764 L319.582909,28.764 L319.582909,14.382 L300.970909,14.382 C302.098909,11.139 303.085909,8.037 303.931909,4.935 L290.113909,0.987 C287.011909,13.113 282.076909,25.098 275.590909,33.135 C277.987909,36.66 281.935909,44.838 283.063909,48.222 C283.909909,47.376 284.896909,46.248 285.601909,44.979 L285.601909,54.567 L292.087909,54.567 L292.087909,69.231 L279.538909,69.231 L279.538909,83.472 L292.087909,83.472 L292.087909,105.609 C292.087909,113.082 287.998909,118.299 285.037909,120.696 C287.575909,122.811 291.664909,128.451 293.074909,131.412 C293.074909,131.13 293.074909,130.848 293.215909,130.566 L293.356909,131.412 Z M328.324909,36.66 L342.847909,32.007 C341.155909,24.252 337.348909,12.831 333.964909,3.948 L320.146909,8.037 C323.389909,16.92 326.914909,28.905 328.324909,36.66 Z M324.799909,132.258 C328.888909,125.208 334.387909,116.889 337.771909,116.889 C340.450909,116.889 344.680909,120.414 349.615909,123.375 C357.229909,128.028 365.689909,130.143 377.815909,130.143 C386.557909,130.143 399.247909,129.72 406.297909,129.156 C406.438909,124.926 408.553909,116.748 409.963909,112.377 C400.798909,113.646 386.416909,114.492 377.956909,114.492 C367.099909,114.492 358.357909,113.223 351.307909,108.993 C347.923909,107.019 345.385909,105.045 342.988909,103.776 L342.988909,46.248 L319.723909,46.248 L319.723909,61.335 L327.901909,61.335 L327.901909,105.609 C323.389909,108.147 318.736909,112.095 314.506909,116.607 L324.799909,132.258 Z M439.894364,128.169 C444.124364,125.49 445.534364,121.401 445.534364,113.646 L445.534364,79.665 C449.764364,78.537 453.853364,77.268 457.942364,75.999 L455.686364,60.771 L445.534364,63.591 L445.534364,42.723 L457.096364,42.723 L457.096364,27.213 L445.534364,27.213 L445.534364,0.705 L430.024364,0.705 L430.024364,27.213 L415.783364,27.213 L415.783364,42.723 L430.024364,42.723 L430.024364,67.821 C423.820364,69.513 418.180364,70.923 413.527364,71.91 L417.193364,87.984 C421.282364,86.856 425.512364,85.587 430.024364,84.318 L430.024364,113.505 C430.024364,115.338 429.460364,115.902 427.768364,115.902 C426.076364,116.043 421.423364,116.043 416.488364,115.761 C418.603364,120.273 420.436364,127.182 420.859364,131.271 C429.601364,131.412 435.664364,130.848 439.894364,128.169 Z M533.236364,132.54 L543.388364,119.85 C537.325364,116.043 529.288364,111.813 520.405364,107.865 C525.058364,101.943 528.724364,94.893 531.262364,86.151 L546.772364,86.151 L546.772364,72.192 L500.665364,72.192 C502.498364,68.667 504.049364,65.283 505.459364,61.899 L494.179364,59.643 L544.798364,59.643 L544.798364,45.402 L522.238364,45.402 C524.917364,41.031 527.878364,35.955 530.839364,30.879 L518.854364,27.354 L541.978364,27.354 L541.978364,13.254 L511.240364,13.254 C509.548364,9.447 507.433364,5.358 505.177364,1.974 L489.385364,4.089 C490.936364,6.768 492.628364,10.011 494.038364,13.254 L464.287364,13.254 L464.287364,27.354 L482.899364,27.354 L473.734364,30.879 C476.413364,35.25 479.233364,40.89 480.643364,45.402 L460.057364,45.402 L460.057364,59.643 L489.667364,59.643 C487.975364,63.732 485.860364,67.962 483.604364,72.192 L458.083364,72.192 L458.083364,86.151 L475.708364,86.151 C471.901364,91.932 468.094364,97.431 464.710364,101.661 C472.747364,104.199 481.630364,107.583 490.654364,111.108 C481.630364,114.774 470.209364,116.889 455.545364,118.017 C458.083364,121.401 460.762364,127.323 462.031364,131.976 C481.912364,129.156 496.717364,125.208 507.856364,118.581 C517.867364,123.375 526.891364,128.169 533.236364,132.54 Z M506.305364,45.402 L487.270364,45.402 L495.166364,42.159 C493.897364,38.211 490.654364,32.148 487.552364,27.354 L515.047364,27.354 C512.932364,32.994 509.407364,40.326 506.305364,45.402 Z M505.318364,101.52 C499.255364,99.264 493.333364,97.008 487.411364,95.034 C489.244364,92.214 491.218364,89.253 493.051364,86.151 L514.483364,86.151 C512.227364,92.355 509.266364,97.431 505.318364,101.52 Z" id="未来链接"></path>
            </g>
            <g id="glueup-symbol">
                <path d="M88.8341051,0 C67.2033786,0 49.6682102,17.6034856 49.6682102,39.3184856 C49.6682102,41.5347165 49.8509262,43.7287828 50.2116395,45.8857125 L50.2803294,46.2784948 L50.3279408,46.5306707 C50.6915997,48.647727 50.8769259,50.8162075 50.8769259,53.0086181 L50.8739508,53.4872879 C50.6797466,69.1049655 40.9944866,82.8516861 26.7089372,88.3841031 L26.4378718,88.4860482 C10.7480544,93.8957437 0,108.758229 0,125.681514 C0,147.396514 17.5351684,165 39.1658949,165 C60.7966214,165 78.3317898,147.396514 78.3317898,125.681514 C78.3317898,123.190434 78.100942,120.728121 77.6460679,118.316177 C77.2997541,116.249929 77.1230741,114.132041 77.1230741,111.991382 C77.1230741,96.0944686 86.9610411,82.0544804 101.528733,76.5250708 C117.225269,71.1396199 128,56.2628218 128,39.3184856 C128,17.6034856 110.464832,0 88.8341051,0 Z" id="Path" fill="#001C6C"></path>
                <path d="M140,86 C118.460895,86 101,103.460895 101,125 C101,146.539105 118.460895,164 140,164 C161.539105,164 179,146.539105 179,125 C179,103.460895 161.539105,86 140,86 Z" id="Path" fill="#0D62FE"></path>
            </g>
        </g>
    </g>
</svg>