<?xml version="1.0" encoding="UTF-8"?>
<svg width="60px" height="60px" viewBox="0 0 60 60" version="1.1" xmlns="http://www.w3.org/2000/svg" xmlns:xlink="http://www.w3.org/1999/xlink">
    <title>glueup-app-icon</title>
    <defs>
        <linearGradient x1="50%" y1="0%" x2="50%" y2="96.6897419%" id="linearGradient-1">
            <stop stop-color="#FFFFFF" offset="0%"></stop>
            <stop stop-color="#F3F3F3" offset="100%"></stop>
        </linearGradient>
        <path d="M22.5311273,0 C17.0448937,0 12.5974226,4.44747107 12.5974226,9.93370467 C12.5974226,10.4936292 12.6437652,11.0479538 12.7352534,11.5928961 L12.7526754,11.6921314 L12.7647511,11.7558429 C12.8569864,12.2907112 12.903991,12.8385717 12.903991,13.3924781 L12.9032364,13.5134127 C12.8539801,17.4591749 10.3974931,20.9322452 6.77422779,22.3299948 L6.70547707,22.3557509 C2.72604516,23.7224952 0,27.4774603 0,31.7530807 C0,37.2393143 4.44747107,41.6867854 9.93370467,41.6867854 C15.4199383,41.6867854 19.8674093,37.2393143 19.8674093,31.7530807 C19.8674093,31.1237163 19.808859,30.5016197 19.6934887,29.892249 C19.6056526,29.3702171 19.5608409,28.8351386 19.5608409,28.2943073 C19.5608409,24.2779969 22.0560593,20.7308334 25.7508848,19.3338436 C29.7320209,17.9732246 32.464832,14.2146435 32.464832,9.93370467 C32.464832,4.44747107 28.0173609,0 22.5311273,0 Z" id="path-2"></path>
        <filter x="-3.1%" y="-2.4%" width="106.2%" height="104.8%" filterUnits="objectBoundingBox" id="filter-3">
            <feGaussianBlur stdDeviation="0.5" in="SourceAlpha" result="shadowBlurInner1"></feGaussianBlur>
            <feOffset dx="0" dy="-1" in="shadowBlurInner1" result="shadowOffsetInner1"></feOffset>
            <feComposite in="shadowOffsetInner1" in2="SourceAlpha" operator="arithmetic" k2="-1" k3="1" result="shadowInnerInner1"></feComposite>
            <feColorMatrix values="0 0 0 0 0.536233544   0 0 0 0 0.536327064   0 0 0 0 0.536221206  0 0 0 0.5 0" type="matrix" in="shadowInnerInner1" result="shadowMatrixInner1"></feColorMatrix>
            <feGaussianBlur stdDeviation="0.5" in="SourceAlpha" result="shadowBlurInner2"></feGaussianBlur>
            <feOffset dx="0" dy="1" in="shadowBlurInner2" result="shadowOffsetInner2"></feOffset>
            <feComposite in="shadowOffsetInner2" in2="SourceAlpha" operator="arithmetic" k2="-1" k3="1" result="shadowInnerInner2"></feComposite>
            <feColorMatrix values="0 0 0 0 0.999901831   0 0 0 0 1   0 0 0 0 0.999879897  0 0 0 0.206484921 0" type="matrix" in="shadowInnerInner2" result="shadowMatrixInner2"></feColorMatrix>
            <feMerge>
                <feMergeNode in="shadowMatrixInner1"></feMergeNode>
                <feMergeNode in="shadowMatrixInner2"></feMergeNode>
            </feMerge>
        </filter>
        <path d="M35.3855732,21.7863308 C29.8993396,21.7863308 25.4518686,26.2338018 25.4518686,31.7200354 C25.4518686,37.206269 29.8993396,41.6537401 35.3855732,41.6537401 C40.8718068,41.6537401 45.3192779,37.206269 45.3192779,31.7200354 C45.3192779,26.2338018 40.8718068,21.7863308 35.3855732,21.7863308 Z" id="path-4"></path>
        <filter x="-5.0%" y="-5.0%" width="110.1%" height="110.1%" filterUnits="objectBoundingBox" id="filter-5">
            <feGaussianBlur stdDeviation="0.5" in="SourceAlpha" result="shadowBlurInner1"></feGaussianBlur>
            <feOffset dx="0" dy="-1" in="shadowBlurInner1" result="shadowOffsetInner1"></feOffset>
            <feComposite in="shadowOffsetInner1" in2="SourceAlpha" operator="arithmetic" k2="-1" k3="1" result="shadowInnerInner1"></feComposite>
            <feColorMatrix values="0 0 0 0 0.536233544   0 0 0 0 0.536327064   0 0 0 0 0.536221206  0 0 0 0.5 0" type="matrix" in="shadowInnerInner1" result="shadowMatrixInner1"></feColorMatrix>
            <feGaussianBlur stdDeviation="0.5" in="SourceAlpha" result="shadowBlurInner2"></feGaussianBlur>
            <feOffset dx="0" dy="1" in="shadowBlurInner2" result="shadowOffsetInner2"></feOffset>
            <feComposite in="shadowOffsetInner2" in2="SourceAlpha" operator="arithmetic" k2="-1" k3="1" result="shadowInnerInner2"></feComposite>
            <feColorMatrix values="0 0 0 0 0.999901831   0 0 0 0 1   0 0 0 0 0.999879897  0 0 0 0.206484921 0" type="matrix" in="shadowInnerInner2" result="shadowMatrixInner2"></feColorMatrix>
            <feMerge>
                <feMergeNode in="shadowMatrixInner1"></feMergeNode>
                <feMergeNode in="shadowMatrixInner2"></feMergeNode>
            </feMerge>
        </filter>
    </defs>
    <g id="glueup-app-icon" stroke="none" stroke-width="1" fill="none" fill-rule="evenodd">
        <g id="App-Icon-60-x-60" fill="url(#linearGradient-1)">
            <path d="M17.3062251,-6.99192208e-16 L42.6937749,6.99192208e-16 C48.7115264,-4.06250808e-16 50.8937085,0.626572875 53.0937085,1.80314575 C55.2937085,2.97971863 57.0202814,4.7062915 58.1968542,6.9062915 C59.3734271,9.1062915 60,11.2884736 60,17.3062251 L60,42.6937749 C60,48.7115264 59.3734271,50.8937085 58.1968542,53.0937085 C57.0202814,55.2937085 55.2937085,57.0202814 53.0937085,58.1968542 C50.8937085,59.3734271 48.7115264,60 42.6937749,60 L17.3062251,60 C11.2884736,60 9.1062915,59.3734271 6.9062915,58.1968542 C4.7062915,57.0202814 2.97971863,55.2937085 1.80314575,53.0937085 C0.626572875,50.8937085 2.70833872e-16,48.7115264 -4.66128138e-16,42.6937749 L4.66128138e-16,17.3062251 C-2.70833872e-16,11.2884736 0.626572875,9.1062915 1.80314575,6.9062915 C2.97971863,4.7062915 4.7062915,2.97971863 6.9062915,1.80314575 C9.1062915,0.626572875 11.2884736,4.06250808e-16 17.3062251,-6.99192208e-16 Z" id="App-Icon"></path>
        </g>
        <g id="Group" transform="translate(7.000000, 9.000000)" fill-rule="nonzero">
            <g id="Path">
                <use fill="#001D71" xlink:href="#path-2"></use>
                <use fill="black" fill-opacity="1" filter="url(#filter-3)" xlink:href="#path-2"></use>
            </g>
            <g id="Path">
                <use fill="#0064FF" xlink:href="#path-4"></use>
                <use fill="black" fill-opacity="1" filter="url(#filter-5)" xlink:href="#path-4"></use>
            </g>
        </g>
    </g>
</svg>