<?xml version="1.0" encoding="UTF-8"?>
<svg width="764px" height="181px" viewBox="0 0 764 181" version="1.1" xmlns="http://www.w3.org/2000/svg" xmlns:xlink="http://www.w3.org/1999/xlink">
    <title>glueup-logo</title>
    <g id="Def-Visual-Glueup" stroke="none" stroke-width="1" fill="none" fill-rule="evenodd">
        <g id="glueup-1" transform="translate(-578.000000, -450.000000)">
            <g id="glueup-logo" transform="translate(578.000000, 450.000000)">
                <path d="M287.010229,150.472519 C296.495267,150.472519 304.867863,149.769924 312.128015,148.364733 C319.388168,146.959542 324.540534,145.67145 327.585115,144.500458 L327.585115,86.0093893 L327.443969,86.0093893 C315.298891,86.0093893 305.453359,95.8549211 305.453359,108 C305.453359,108 305.453359,108 305.453359,108 C305.453359,112.832434 305.453359,120.081086 305.453359,129.745954 C303.813969,130.214351 301.589084,130.594924 298.778702,130.887672 C295.968321,131.18042 292.630992,131.326794 288.766718,131.326794 C282.560458,131.326794 277.144618,130.243626 272.519198,128.07729 C267.893779,125.910954 264.029504,122.895649 260.926374,119.031374 C257.823244,115.167099 255.48126,110.512405 253.90042,105.06729 C252.31958,99.6221756 251.52916,93.6208397 251.52916,87.0632824 C251.52916,73.2455725 254.837214,62.4431679 261.453321,54.6560687 C268.069427,46.8689695 277.64229,42.9754198 290.171908,42.9754198 C295.909771,42.9754198 301.38416,43.7072901 306.595076,45.1710305 C311.805992,46.634771 316.167939,48.4205344 319.680916,50.5283206 L326.355573,32.4364885 C325.535878,31.9680916 324.101412,31.2069466 322.052176,30.1530534 C320.002939,29.0991603 317.397481,28.1038168 314.235802,27.1670229 C311.074122,26.230229 307.297672,25.3812595 302.90645,24.6201145 C298.515229,23.8589695 293.509237,23.4783969 287.888473,23.4783969 C279.691527,23.4783969 271.962977,24.8835878 264.702824,27.6939695 C257.442672,30.5043511 251.119313,34.6320992 245.732748,40.0772137 C240.346183,45.5223282 236.101336,52.1677099 232.998206,60.0133588 C229.895076,67.8590076 228.343511,76.8756489 228.343511,87.0632824 C228.343511,97.250916 229.748702,106.267557 232.559084,114.113206 C235.369466,121.958855 239.321565,128.574962 244.415382,133.961527 C249.509198,139.348092 255.686183,143.446565 262.946336,146.256947 C270.206489,149.067328 278.227786,150.472519 287.010229,150.472519 Z M377.420489,149.769924 L380.406519,132.205038 C377.596138,131.85374 375.283428,131.356069 373.468389,130.712023 C371.653351,130.067977 370.218886,129.131183 369.164992,127.901641 C368.111099,126.672099 367.379229,125.179084 366.969382,123.422595 C366.559534,121.666107 366.354611,119.499771 366.354611,116.923588 L366.354611,116.923588 L366.354611,11.7099237 L345.101099,15.2229008 L345.101099,120.963511 C345.101099,125.530382 345.598771,129.59958 346.594115,133.171107 C347.589458,136.742634 349.316672,139.728664 351.775756,142.129198 C354.23484,144.529733 357.542893,146.374046 361.699916,147.662137 C365.856939,148.950229 371.09713,149.652824 377.420489,149.769924 L377.420489,149.769924 Z M428.661054,150.121221 C436.506703,150.121221 443.708306,149.565 450.265863,148.452557 C456.82342,147.340115 462.151435,146.256947 466.249909,145.203053 L466.249909,56.149084 L444.996397,56.149084 L444.996397,130.44855 C443.591206,130.799847 441.454145,131.092595 438.585214,131.326794 C435.716283,131.560992 432.993725,131.678092 430.417542,131.678092 C423.274489,131.678092 418.268496,129.570305 415.399565,125.354733 C412.530634,121.13916 411.096168,114.113206 411.096168,104.27687 L411.096168,56.149084 L389.842657,56.149084 L389.842657,107.614198 C389.842657,113.820458 390.486703,119.529046 391.774794,124.739962 C393.062886,129.950878 395.199947,134.429924 398.185977,138.177099 C401.172008,141.924275 405.153382,144.851756 410.130099,146.959542 C415.106817,149.067328 421.283802,150.121221 428.661054,150.121221 Z M522.877039,150.29687 C526.038718,150.29687 529.141848,150.121221 532.186428,149.769924 C535.231008,149.418626 538.070664,148.979504 540.705397,148.452557 C543.34013,147.925611 545.682115,147.340115 547.731352,146.696069 C549.780588,146.052023 551.390703,145.437252 552.561695,144.851756 L552.561695,144.851756 L549.751313,127.462519 C547.292229,128.516412 543.925626,129.511756 539.651504,130.44855 C535.377382,131.385344 530.664138,131.85374 525.511771,131.85374 C516.729329,131.85374 510.025397,129.833779 505.399977,125.793855 C500.774558,121.753931 498.1691,116.045344 497.583603,108.668092 L497.583603,108.668092 L558.182458,108.668092 C558.299558,107.497099 558.387382,106.179733 558.445932,104.715992 C558.504481,103.252252 558.533756,101.934885 558.533756,100.763893 C558.533756,85.1896947 554.991504,73.479771 547.907,65.6341221 C540.822497,57.7884733 530.956886,53.8656489 518.310168,53.8656489 C512.923603,53.8656489 507.654138,54.8902672 502.501771,56.9395038 C497.349405,58.9887405 492.782535,62.0333206 488.801161,66.0732443 C484.819787,70.1131679 481.628832,75.1777099 479.228298,81.2668702 C476.827764,87.3560305 475.627497,94.4405344 475.627497,102.520382 C475.627497,109.429237 476.56429,115.78187 478.437878,121.578282 C480.311466,127.374695 483.180397,132.409962 487.044672,136.684084 C490.908947,140.958206 495.827115,144.295534 501.799176,146.696069 C507.771237,149.096603 514.797191,150.29687 522.877039,150.29687 Z M537.280245,93.0353435 L497.759252,93.0353435 C498.11055,90.3420611 498.754596,87.7073282 499.69139,85.131145 C500.628184,82.5549618 501.94555,80.2715267 503.643489,78.2808397 C505.341428,76.2901527 507.419939,74.6800382 509.879023,73.4504962 C512.338107,72.2209542 515.207039,71.6061832 518.485817,71.6061832 C521.647497,71.6061832 524.370054,72.1624046 526.653489,73.2748473 C528.936924,74.3872901 530.869061,75.9095802 532.449901,77.8417176 C534.030741,79.773855 535.231008,82.0572901 536.050703,84.6920229 C536.870397,87.3267557 537.280245,90.1078626 537.280245,93.0353435 L537.280245,93.0353435 Z M628.695497,150.121221 C636.541146,150.121221 643.742749,149.565 650.300306,148.452557 C656.857863,147.340115 662.185878,146.256947 666.284352,145.203053 L666.284352,145.203053 L666.284352,56.149084 L645.03084,56.149084 L645.03084,130.44855 C643.625649,130.799847 641.488588,131.092595 638.619657,131.326794 C635.750726,131.560992 633.028169,131.678092 630.451985,131.678092 C623.308932,131.678092 618.30294,129.570305 615.434008,125.354733 C612.565077,121.13916 611.130611,114.113206 611.130611,104.27687 L611.130611,104.27687 L611.130611,56.149084 L589.8771,56.149084 L589.8771,107.614198 C589.8771,113.820458 590.521146,119.529046 591.809237,124.739962 C593.097329,129.950878 595.23439,134.429924 598.22042,138.177099 C601.206451,141.924275 605.187825,144.851756 610.164543,146.959542 C615.14126,149.067328 621.318245,150.121221 628.695497,150.121221 Z M702.009268,180.508473 L702.009268,144.851756 C704.351253,146.139847 707.337283,147.31084 710.96736,148.364733 C714.597436,149.418626 718.57881,149.945573 722.911482,149.945573 C729.35194,149.945573 735.119077,148.77458 740.212894,146.432595 C745.306711,144.090611 749.551558,140.811832 752.947436,136.59626 C756.343314,132.380687 758.948772,127.34542 760.76381,121.490458 C762.578848,115.635496 763.486367,109.195038 763.486367,102.169084 C763.486367,94.7918321 762.403199,88.1464504 760.236863,82.2329389 C758.070527,76.3194275 754.967398,71.2841603 750.927474,67.1271374 C746.88755,62.9701145 741.998657,59.7791603 736.260795,57.5542748 C730.522932,55.3293893 724.023924,54.2169466 716.763772,54.2169466 C709.737818,54.2169466 703.063161,54.7438931 696.739802,55.7977863 C690.416443,56.8516794 685.088428,57.9641221 680.755756,59.1351145 L680.755756,59.1351145 L680.755756,180.508473 L702.009268,180.508473 Z M719.398505,131.678092 C715.885527,131.678092 712.577474,131.12187 709.474344,130.009427 C706.371214,128.896985 703.882856,127.696718 702.009268,126.408626 L702.009268,126.408626 L702.009268,73.8896183 C704.117054,73.3041221 706.254115,72.9235496 708.420451,72.7479008 C710.586787,72.5722519 712.665298,72.4844275 714.655985,72.4844275 C724.141024,72.4844275 731.020604,75.1191603 735.294726,80.388626 C739.568848,85.6580916 741.705909,93.0353435 741.705909,102.520382 C741.705909,111.419924 739.920146,118.504427 736.348619,123.773893 C732.777092,129.043359 727.127054,131.678092 719.398505,131.678092 Z" id="Glueup" fill="#212121" fill-rule="nonzero"></path>
                <g id="Group-27">
                    <path d="M190.66924,125.780212 C196.293761,146.771209 183.83677,168.347348 162.845774,173.971869 C141.854777,179.596389 120.278638,167.139399 114.654117,146.148403 C109.029597,125.157406 121.486587,103.581267 142.477583,97.9567461 C163.46858,92.3322255 185.044719,104.789216 190.66924,125.780212 Z" id="Path" fill="#0D62FE"></path>
                    <g id="Group-25" fill="#001C6C">
                        <path d="M77.5701406,145.963648 C71.9307535,166.957817 50.2975845,179.41669 29.2511053,173.791319 C8.20462609,168.165949 -4.28528984,146.586548 1.35409727,125.592379 C6.99348437,104.59821 28.6266533,92.1393375 49.6731325,97.7647081 C70.7196117,103.390079 83.2095277,124.969479 77.5701406,145.963648 Z" id="Path"></path>
                        <path d="M105.453819,77.3903602 L104.882708,77.5484633 C91.9937491,81.2233806 81.3048622,91.3615571 77.5828668,105.217709 C75.7250041,112.134113 75.8347763,119.114035 77.5701543,125.566246 C71.0883448,127.309698 64.0730958,127.424473 57.1218461,125.566521 C43.0264101,121.799047 32.768908,110.875604 29.2249725,97.7645526 C42.3903928,94.2417673 53.3632248,84.001936 57.1447033,69.9243425 C59.0072388,62.9905423 58.8922292,55.992905 57.1442626,49.5271148 C63.6125765,47.7961693 70.6100643,47.6866188 77.5438734,49.5399096 C91.515552,53.2743047 101.716395,64.0395634 105.345849,76.9970433 L105.453819,77.3903602 Z" id="Path"></path>
                        <path d="M133.373473,49.5496719 C127.734086,70.5438409 106.100917,83.0027136 85.0544376,77.377343 C64.0079583,71.7519723 51.5180424,50.1725718 57.1574295,29.1784028 C62.7968166,8.1842338 84.4299856,-4.27463892 105.476465,1.35073171 C126.522944,6.97610234 139.01286,28.5555029 133.373473,49.5496719 Z" id="Path"></path>
                    </g>
                </g>
            </g>
        </g>
    </g>
</svg>