<?xml version="1.0" encoding="UTF-8"?>
<svg width="767px" height="180px" viewBox="0 0 767 180" version="1.1" xmlns="http://www.w3.org/2000/svg" xmlns:xlink="http://www.w3.org/1999/xlink">
    <title>Glueup - logo@3x</title>
    <g id="Def-Visual-Glueup" stroke="none" stroke-width="1" fill="none" fill-rule="evenodd">
        <g id="Glueup---logo">
            <g id="Group-19" transform="translate(227.000000, 11.000000)" fill="#212121" fill-rule="nonzero">
                <path d="M492.467545,40.9325104 C499.895493,40.9325104 506.550911,42.0443298 512.426425,44.2768358 C518.320918,46.516553 523.310547,49.687688 527.378557,53.7880733 C531.447523,57.8894215 534.553007,62.8791149 536.692441,68.7402224 C538.820181,74.5692922 539.880662,81.0633802 539.880662,88.2155801 C539.880662,95.1153761 539.024439,101.411898 537.306661,107.102105 C535.576994,112.831696 533.029279,117.780257 529.661096,121.935366 C526.27072,126.117854 522.057895,129.374054 517.040169,131.693322 C512.021933,134.012825 506.271924,135.167196 499.805302,135.167196 C496.236751,135.167196 492.887868,134.822921 489.759922,134.132158 C487.94512,133.731385 486.168928,133.233006 484.431662,132.637083 L483.689503,132.375715 L483.178958,132.185864 L483.179815,158.887817 L454.893694,158.887817 L454.893694,46.3362212 L456.650832,45.8200173 C458.794497,45.1993494 461.219831,44.6047792 463.928147,44.0354401 C466.858276,43.4194718 469.926795,42.887929 473.133793,42.4406319 C476.333744,41.9943177 479.58917,41.6317614 482.900049,41.3529287 C486.22702,41.0727409 489.416122,40.9325104 492.467545,40.9325104 Z M389.829185,42.9821755 L389.829177,90.1836144 L389.830783,90.7164851 C389.875807,98.1043625 390.875387,103.389839 392.743545,106.525793 C394.502198,109.477927 397.858768,110.985738 403.058862,110.985738 C404.780671,110.985738 406.614873,110.905086 408.561051,110.743441 C409.345233,110.678309 410.093812,110.608917 410.806696,110.535297 L411.849241,110.421701 L412.303495,110.36686 L412.304336,42.9821755 L440.461761,42.9821755 L440.461761,130.026935 L438.760186,130.511649 C434.548489,131.696374 429.214104,132.796816 422.749438,133.816999 C416.018677,134.879175 408.956982,135.409841 401.564786,135.409841 C393.944812,135.409841 387.561769,134.382806 382.413222,132.307144 C377.225666,130.215754 373.083223,127.258297 370.015117,123.435862 C366.977501,119.651414 364.821787,115.151017 363.546791,109.952396 C362.352416,105.082495 361.729763,99.7628047 361.675626,93.9941647 L361.67176,93.1670192 L361.67176,42.9821755 L389.829185,42.9821755 Z M58.2330805,11.4439632 C63.7300084,11.4439632 68.6257099,11.8140416 72.9201849,12.5541984 C77.2146598,13.2943553 80.9079083,14.1199148 83.9999303,15.030877 C87.0919522,15.9418393 89.6400074,16.9097367 91.6440957,17.9345692 C93.648184,18.9594017 95.0510458,19.6995585 95.8526812,20.1550397 L95.8526812,20.1550397 L89.3250792,37.747998 C85.8894992,35.698333 81.6236541,33.9618112 76.5275438,32.5384327 C71.4314335,31.1150542 66.0776548,30.4033649 60.4662075,30.4033649 C48.2126389,30.4033649 38.8506835,34.1895518 32.3803412,41.7619254 C25.9099989,49.3342991 22.6748278,59.8388325 22.6748278,73.2755256 C22.6748278,79.6522613 23.4478333,85.4881132 24.9938443,90.7830812 C26.5398553,96.0780493 28.8302419,100.604393 31.8650042,104.362112 C34.8997665,108.119831 38.6789045,111.051991 43.2024181,113.158591 C47.7259317,115.265192 53.0224509,116.318492 59.0919755,116.318492 C62.8711135,116.318492 66.1349144,116.176154 68.8833784,115.891478 C71.6318424,115.606802 73.8077097,115.236724 75.4109803,114.781243 L75.4109803,114.781243 L75.4109803,93.8948469 C75.4109803,81.9411108 85.1013981,72.2506931 97.0551342,72.2506931 L97.0551342,72.2506931 L97.0551342,129.128898 C94.0776315,130.267601 89.0387809,131.520174 81.9385823,132.886617 C74.8383837,134.253061 66.6502514,134.936283 57.3741855,134.936283 C48.7852356,134.936283 40.9406613,133.569839 33.8404627,130.836952 C26.7402641,128.104066 20.6993693,124.118606 15.7177784,118.880573 C10.7361874,113.64254 6.87115994,107.208869 4.12269596,99.5795604 C1.37423199,91.9502516 -3.24465643e-11,83.18224 -3.24465643e-11,73.2755256 C-3.24465643e-11,63.3688112 1.51738115,54.6007996 4.55214346,46.9714908 C7.58690577,39.342182 11.7382316,32.8800435 17.0061209,27.5850755 C22.2740101,22.2901074 28.4580541,18.27618 35.5582527,15.5432933 C42.6584513,12.8104066 50.2167272,11.4439632 58.2330805,11.4439632 Z M290.553574,40.993301 C302.921662,40.993301 312.569915,44.8079554 319.498335,52.4372642 C326.426755,60.066573 329.890964,71.4536011 329.890964,86.5983484 C329.890964,87.7370512 329.862335,89.0180919 329.805075,90.4414704 C329.747815,91.8648489 329.661926,93.1458896 329.547406,94.2845924 L329.547406,94.2845924 L270.283652,94.2845924 L270.329075,94.8066107 C270.981719,101.728244 273.514633,107.105414 277.927817,110.938121 C282.451331,114.866646 289.007563,116.830908 297.596513,116.830908 C302.635363,116.830908 307.244766,116.375427 311.424722,115.464465 C315.604678,114.553502 318.897108,113.585605 321.302014,112.560772 L321.302014,112.560772 L324.050478,129.470509 L323.798507,129.592949 C322.678145,130.125408 321.187495,130.682414 319.326556,131.263966 C317.322468,131.890253 315.032081,132.459604 312.455396,132.97202 C309.878711,133.484436 307.101617,133.91145 304.124115,134.253061 C301.146612,134.594672 298.11185,134.765477 295.019828,134.765477 C287.117994,134.765477 280.246834,133.598307 274.406348,131.263966 C268.565862,128.929625 263.75605,125.684322 259.976912,121.528057 C256.197774,117.371792 253.39205,112.47537 251.559741,106.838791 C249.727432,101.202212 248.811277,95.0247492 248.811277,88.3064026 C248.811277,80.4493533 249.9851,73.5602013 252.332747,67.6389467 C254.680393,61.7176921 257.801045,56.7928025 261.694702,52.8642778 C265.588359,48.9357531 270.054613,45.9751258 275.093464,43.9823959 C280.132314,41.989666 285.285684,40.993301 290.553574,40.993301 Z M179.559245,43.2137715 L179.559245,90.0144568 L179.561234,90.6343933 C179.620902,99.8753218 181.023101,106.500893 183.76783,110.511107 C186.573554,114.610437 191.469255,116.660103 198.454935,116.660103 C200.97436,116.660103 203.636935,116.546232 206.442658,116.318492 C209.248382,116.090751 211.33836,115.806075 212.712592,115.464465 L212.712592,115.464465 L212.712592,43.2137715 L233.49785,43.2137715 L233.49785,129.81212 L233.011097,129.935236 C229.0709,130.921262 224.022521,131.933523 217.865962,132.97202 C211.452879,134.053788 204.40994,134.594672 196.737145,134.594672 C189.522427,134.594672 183.481532,133.569839 178.61446,131.520174 C173.747389,129.470509 169.853732,126.623752 166.933489,122.979903 C164.013246,119.336054 161.923268,114.980516 160.663555,109.913288 C159.403842,104.846061 158.773986,99.2948847 158.773986,93.2597598 L158.773986,93.2597598 L158.773986,43.2137715 L179.559245,43.2137715 Z M135.386947,1.2489653e-10 L135.386947,102.312447 L135.390014,102.843164 C135.416599,105.116503 135.615985,107.046197 135.988173,108.632248 C136.388991,110.340302 137.104737,111.792148 138.135411,112.987786 C139.166085,114.183424 140.568946,115.094386 142.343996,115.720673 C144.119046,116.346959 146.380802,116.830908 149.129266,117.172519 L149.129266,117.172519 L146.209023,134.253061 C140.02498,134.139191 134.900239,133.455969 130.834803,132.203396 C126.769367,130.950823 123.534196,129.157366 121.12929,126.823025 C118.724384,124.488684 117.035224,121.584992 116.061809,118.111949 C115.088395,114.638905 114.601688,110.681913 114.601688,106.240972 L114.601688,106.240972 L114.601688,3.41610842 L135.386947,1.2489653e-10 Z M493.424961,62.6247989 C491.184642,62.6247989 489.117639,62.7081214 487.22476,62.8741935 L486.2562,62.9644219 C485.63188,63.0261922 485.050384,63.0911811 484.512013,63.1592832 L484.029006,63.223164 L484.029006,106.660646 L484.068094,106.68202 C485.282758,107.333965 486.773332,107.910254 488.538465,108.404191 L488.985468,108.525956 C491.413794,109.16984 493.865767,109.491344 496.345204,109.491344 C507.371931,109.491344 512.783216,102.232588 512.783216,86.8266959 C512.783216,79.3250517 511.111885,73.4013308 507.810132,69.0062922 C504.611548,64.7485855 499.876558,62.6247989 493.424961,62.6247989 Z M290.725353,58.2446485 C287.518811,58.2446485 284.713088,58.8424675 282.308182,60.0381055 C279.903276,61.2337434 277.870558,62.7994598 276.210027,64.7352545 C274.549497,66.6710493 273.261155,68.8915198 272.345,71.396666 C271.428845,73.9018121 270.798989,76.4638934 270.455431,79.0829099 L270.455431,79.0829099 L309.105706,79.0829099 C309.105706,76.2361529 308.704888,73.5317337 307.903253,70.9696524 C307.101617,68.4075711 305.927794,66.1871006 304.381783,64.308241 C302.835772,62.4293814 300.946203,60.9490677 298.713076,59.8673 C296.479949,58.7855324 293.817375,58.2446485 290.725353,58.2446485 Z" id="Combined-Shape"></path>
            </g>
            <g id="Group-27">
                <path d="M195.392468,128.896019 C201.156318,150.407001 188.390745,172.517622 166.879763,178.281472 C145.368781,184.045322 123.258161,171.27975 117.49431,149.768767 C111.73046,128.257785 124.496033,106.147165 146.007015,100.383315 C167.517997,94.6194645 189.628617,107.385037 195.392468,128.896019 Z" id="Path" fill="#0D62FE"></path>
                <g id="Group-25" fill="#001C6C">
                    <path d="M79.4916955,149.579436 C73.7126105,171.093669 51.5435481,183.861171 29.9757089,178.09645 C8.40786976,172.331728 -4.39144435,150.217766 1.38764074,128.703533 C7.16672584,107.1893 29.3357882,94.4217983 50.9036273,100.18652 C72.4714665,105.951241 85.2707806,128.065203 79.4916955,149.579436 Z" id="Path"></path>
                    <path d="M108.066104,79.3074617 L107.480846,79.4694813 C94.2726034,83.235433 83.3189331,93.6247508 79.504737,107.824145 C77.6008516,114.911881 77.7133431,122.064709 79.4917096,128.676753 C72.8493338,130.463393 65.6603042,130.581012 58.5368593,128.677034 C44.0922534,124.816234 33.5806541,113.622196 29.9489288,100.18636 C43.4404807,96.5763092 54.68513,86.0828184 58.5602827,71.656497 C60.4689565,64.5509338 60.351098,57.3799522 58.559831,50.7539925 C65.188377,48.9801683 72.3592054,48.867904 79.4647777,50.7671042 C93.7825604,54.5940072 104.236097,65.6259411 107.95546,78.9044016 L108.066104,79.3074617 Z" id="Path"></path>
                    <path d="M136.677379,50.7771083 C130.898294,72.2913415 108.729232,85.0588434 87.1613923,79.294122 C65.5935531,73.5294006 52.794239,51.4154386 58.5733241,29.9012055 C64.3524092,8.38697232 86.5214716,-4.38052958 108.089311,1.38419182 C129.65715,7.14891321 142.456464,29.2628752 136.677379,50.7771083 Z" id="Path"></path>
                </g>
            </g>
        </g>
    </g>
</svg>