<?xml version="1.0" encoding="UTF-8"?>
<svg width="756px" height="756px" viewBox="0 0 756 756" version="1.1" xmlns="http://www.w3.org/2000/svg" xmlns:xlink="http://www.w3.org/1999/xlink">
    <!-- Generator: Sketch 61.1 (89650) - https://sketch.com -->
    <title>merchants-paygage</title>
    <desc>Created with Sketch.</desc>
    <g id="merchants-paygage" stroke="none" stroke-width="1" fill="none" fill-rule="evenodd">
        <g id="Group-5" transform="translate(-202.000000, 0.000000)">
            <g id="Group-3" transform="translate(0.000000, 316.000000)">
                <g id="Group" transform="translate(290.000000, 203.000000) scale(-1, -1) translate(-290.000000, -203.000000) ">
                    <g id="Group-17" transform="translate(43.000000, 62.974939)">
                        <g id="Group-18" transform="translate(193.193337, 0.095820)"></g>
                        <g transform="translate(0.000000, 109.772493)" fill="#00B832">
                            <path d="M28.2551764,0.165648008 C49.4352501,0.165648008 66.6050922,17.3611543 66.6050922,38.5728862 C66.6050922,41.541911 66.2613367,44.4998013 65.5814655,47.3874165 L65.3424035,48.3472709 L50.3843514,105.2648 L69.553463,111.664833 L65.8519424,122.785992 L36.2733596,112.911726 L54.0225693,45.3639146 C54.6050012,43.1473653 54.8998578,40.8649011 54.8998578,38.5728862 C54.8998578,24.0010288 43.2371942,12.1572041 28.7501346,11.8928904 L28.2551764,11.8883785 L0,11.8883785 L0,0.165648008 L28.2551764,0.165648008 Z" id="Path-9" fill-rule="nonzero"></path>
                            <path d="M126.908998,0.165648008 C145.687403,0.165648008 163.881756,6.64536387 178.436377,18.4968329 L179.199033,19.1255485 L190.606221,28.6457474 L183.112713,37.6513985 L171.705524,28.1311997 C159.362951,17.8303489 143.864536,12.1028813 127.817868,11.8942853 L126.908998,11.8883785 L83.9513547,11.8883785 L83.9513547,0.165648008 L126.908998,0.165648008 Z" id="Path-9" fill-rule="nonzero"></path>
                            <path d="M96.840525,99.9740142 C102.14826,99.8655312 106.651201,103.853587 107.192856,109.142616 C107.755247,114.634131 103.86289,119.554881 98.444535,120.301309 L98.0890306,120.344034 L96.928029,120.463289 L68.7290764,111.990958 L72.0925509,100.762618 L97.0089459,108.246665 L96.840525,99.9740142 Z M96.8947588,108.682479 C96.0663936,108.767566 95.463745,109.50907 95.5487055,110.338673 C95.6226318,111.060532 96.1956153,111.618489 96.9005794,111.687442 L97.0793576,111.694304 L97.0465586,110.161748 L96.8947588,108.682479 Z" id="Path-10" fill-rule="nonzero"></path>
                            <path d="M54.1621643,19.5877936 L56.8702725,27.7242619 C58.8437347,36.9475178 56.5473757,46.0910821 51.3136639,53.0970653 C50.477218,47.936658 46.00138,43.9971983 40.6054318,43.9971983 L27.0810822,43.9971983 L27.0810822,54.8458226 L49.9068789,54.8468056 C45.5943805,59.8360975 39.6806806,63.5132781 32.734861,64.9994466 C30.5754304,65.4614911 28.3732828,65.6944469 26.1649744,65.6944469 L0,65.6944469 L0,19.5877936 L54.1621643,19.5877936 Z" id="Combined-Shape"></path>
                            <path d="M115.320386,19.5877936 C143.069128,19.5877936 169.257013,32.3577304 186.344459,54.181722 L186.859467,54.8458226 L159.778385,54.8458226 C154.664488,61.6745438 146.63188,65.6944469 138.100562,65.6944469 L105.61622,65.6944469 L83.9513547,19.5877936 L115.320386,19.5877936 Z M148.92976,43.9971983 L135.405411,43.9971983 L135.405411,54.8458226 L159.778385,54.8458226 C159.778385,48.8542929 154.92129,43.9971983 148.92976,43.9971983 Z" id="Combined-Shape"></path>
                        </g>
                        <ellipse id="Oval" fill="#F5B700" cx="153.008114" cy="222.929671" rx="33.8513527" ry="33.9019509"></ellipse>
                        <g id="Group-2" transform="translate(88.434069, 268.303270) rotate(-10.000000) translate(-88.434069, -268.303270) translate(51.434069, 247.803270)" fill="#00B832">
                            <polygon id="Path-13" points="-3.33360987e-13 16.2729365 73.1189218 16.2729365 48.7459479 -4.76292055e-14 37.913515 8.13646823 24.3729739 -4.76292055e-14"></polygon>
                            <path d="M29.5772105,15.8588068 L72.9069419,15.8588068 C63.0144839,27.8005746 45.3143466,29.4618685 33.3725788,19.5694105 C32.5006464,18.8471092 31.6732028,18.0727279 30.8947808,17.2505088 L29.5772105,15.8588068 L29.5772105,15.8588068 Z" id="Path-14"></path>
                        </g>
                        <path d="M1.00041474,189.925183 C15.950641,193.442084 27.0810822,206.884108 27.0810822,222.929671 C27.0810822,238.975234 15.950641,252.417258 1.00041474,255.934159 L1.00041474,189.925183 Z" id="Path" fill="#F5B700"></path>
                    </g>
                    <path d="M0,43.9824968 C0,43.9824968 14.5384615,75.9697672 43.6153846,139.944308 L334.384615,139.944308 L378,43.9824968 C126,43.9824968 0,43.9824968 0,43.9824968 Z" id="Path-12" fill="#BEEF9E"></path>
                    <path d="M256.184994,153.935712 L272.738081,153.937047 C258.684183,177.456991 250.606679,204.970606 250.606679,234.373644 C250.606679,302.098529 293.460477,359.799413 353.49269,381.762535 L320.021323,381.763847 C269.831729,351.910677 236.193337,297.076366 236.193337,234.373644 C236.193337,205.300848 243.424964,177.919614 256.184994,153.935712 Z M295.406519,153.935559 C279.142539,176.575224 269.563437,204.354102 269.563437,234.373644 C269.563437,299.797277 315.060776,354.578553 376.096689,368.713927 L376.097311,381.759849 L368.716038,381.762467 C303.373203,364.679387 255.150094,305.166488 255.150094,234.373644 C255.150094,204.845527 263.539824,177.279865 278.062206,153.937111 L295.406519,153.935559 Z M43.6980459,349.694877 L43.6979577,366.321704 C30.2061281,373.462291 15.5147752,378.657538 0.00236991795,381.531104 L0.00206806827,366.799062 C15.6995874,363.570872 30.4277702,357.707537 43.6980459,349.694877 Z M318.134633,153.935847 C299.692951,175.076538 288.520194,202.740333 288.520194,233.017566 C288.520194,288.153111 325.57046,334.622169 376.09676,348.81527 L376.096123,363.747448 C317.521454,349.190512 274.106852,296.181629 274.106852,233.017566 C274.106852,203.468834 283.607941,176.142517 299.717479,153.93558 L318.134633,153.935847 Z M43.6977141,326.073985 L43.6963165,343.716535 C30.5198372,352.152809 15.778845,358.381739 0.00184516524,361.877795 L0.0013761932,347.021548 C16.0866035,342.998778 30.8935055,335.77616 43.6977141,326.073985 Z M324.260014,153.936396 L335.475687,153.938739 L335.473814,163.069318 C318.129357,181.249497 307.476952,205.887669 307.476952,233.017562 C307.476952,277.560974 336.192583,315.387461 376.095545,328.942526 L376.095574,344.080481 C328.111427,330.020629 293.063609,285.618144 293.063609,233.017562 C293.063609,202.435207 304.910976,174.624088 324.260014,153.936396 Z M43.6974365,300.709877 L43.6975532,320.279124 C31.0521211,330.474637 16.2164786,338.089204 0.00155219708,342.316461 L0.00138638539,327.29587 C16.8163304,322.22662 31.7937656,312.954857 43.6974365,300.709877 Z M335.474057,172.545977 L335.473988,198.168583 C329.695253,209.429074 326.433709,222.197942 326.433709,235.729722 C326.433709,269.612796 346.883029,298.712536 376.095787,311.325593 L376.095427,326.83531 C338.74709,313.471261 312.020367,277.726337 312.020367,235.729722 C312.020367,211.578444 320.85925,189.494683 335.474057,172.545977 Z M43.6982593,268.640983 L43.6988604,293.979979 C32.1538186,307.102325 17.1038222,317.098207 0.00138018534,322.523292 L0.00175021035,307.208508 C18.8391837,300.033487 34.3706616,286.217108 43.6982593,268.640983 Z" id="Combined-Shape" fill="#BEEF9E"></path>
                    <g id="Oval-+-0-+-1-+-2-+-Oval-Mask" transform="translate(0.000000, 267.893389)"></g>
                    <g id="Oval" transform="translate(89.000000, 0.000000)" fill="#044917">
                        <path d="M98.6942967,4.97182057e-14 C136.398508,4.97182057e-14 170.770673,14.1856891 196.707343,37.4824142 L0.681575224,37.4821223 C26.6182072,14.1855706 60.9902428,4.97182057e-14 98.6942967,4.97182057e-14 Z" id="Combined-Shape"></path>
                    </g>
                </g>
            </g>
            <g id="Group-4" transform="translate(202.000000, 0.000000)">
                <g id="paygage-symbol" transform="translate(91.875000, 68.250000)">
                    <path d="M15.5255576,69.0539062 L178.724442,69.0539062 C187.298971,69.0539062 194.25,76.1381018 194.25,84.8768999 L194.25,191.519774 C194.25,200.258572 187.298971,207.342768 178.724442,207.342768 L162.686113,207.342768 L162.696948,236.290016 C162.697753,238.441715 160.989075,240.1875 158.880509,240.1875 C158.062859,240.1875 157.266708,239.920261 156.609249,239.424211 L114.088851,207.342768 L15.5255576,207.342768 C6.95102891,207.342768 0,200.258572 0,191.519774 L0,84.8768999 C0,76.1381018 6.95102891,69.0539062 15.5255576,69.0539062 Z" id="Rectangle" fill="#044917"></path>
                    <path d="M13.1246982,65.0333166 L151.086642,37.2528068 C158.335213,35.7932087 164.21134,41.6230488 164.21134,50.2741191 L164.21134,155.846418 C164.21134,164.497488 158.335213,172.693804 151.086642,174.153402 L13.1246982,201.933912 C5.87612754,203.39351 0,197.56367 0,188.9126 L0,83.3403012 C0,74.6892309 5.87612754,66.4929147 13.1246982,65.0333166 Z" id="Rectangle" fill="#038225"></path>
                    <path d="M11.0439534,58.253537 L127.133882,0.932520626 C133.233289,-2.0791464 138.177835,2.44463088 138.177835,11.03666 L138.177835,115.888456 C138.177835,124.480485 133.233289,133.88714 127.133882,136.898807 L11.0439534,194.219823 C4.94454634,197.23149 0,192.707713 0,184.115684 L0,79.2638874 C0,70.6718583 4.94454634,61.265204 11.0439534,58.253537 Z" id="Rectangle" fill="#00B832"></path>
                </g>
                <rect id="Rectangle" x="0" y="0" width="378" height="378"></rect>
            </g>
            <g id="Group-4" transform="translate(580.000000, 378.000000)">
                <g id="paygage-symbol" transform="translate(91.875000, 68.250000)">
                    <path d="M15.5255576,69.0539062 L178.724442,69.0539062 C187.298971,69.0539062 194.25,76.1381018 194.25,84.8768999 L194.25,191.519774 C194.25,200.258572 187.298971,207.342768 178.724442,207.342768 L162.686113,207.342768 L162.696948,236.290016 C162.697753,238.441715 160.989075,240.1875 158.880509,240.1875 C158.062859,240.1875 157.266708,239.920261 156.609249,239.424211 L114.088851,207.342768 L15.5255576,207.342768 C6.95102891,207.342768 0,200.258572 0,191.519774 L0,84.8768999 C0,76.1381018 6.95102891,69.0539062 15.5255576,69.0539062 Z" id="Rectangle" fill="#044917"></path>
                    <path d="M13.1246982,65.0333166 L151.086642,37.2528068 C158.335213,35.7932087 164.21134,41.6230488 164.21134,50.2741191 L164.21134,155.846418 C164.21134,164.497488 158.335213,172.693804 151.086642,174.153402 L13.1246982,201.933912 C5.87612754,203.39351 0,197.56367 0,188.9126 L0,83.3403012 C0,74.6892309 5.87612754,66.4929147 13.1246982,65.0333166 Z" id="Rectangle" fill="#038225"></path>
                    <path d="M11.0439534,58.253537 L127.133882,0.932520626 C133.233289,-2.0791464 138.177835,2.44463088 138.177835,11.03666 L138.177835,115.888456 C138.177835,124.480485 133.233289,133.88714 127.133882,136.898807 L11.0439534,194.219823 C4.94454634,197.23149 0,192.707713 0,184.115684 L0,79.2638874 C0,70.6718583 4.94454634,61.265204 11.0439534,58.253537 Z" id="Rectangle" fill="#00B832"></path>
                </g>
                <rect id="Rectangle" x="0" y="0" width="378" height="378"></rect>
            </g>
        </g>
        <g id="Group-5" transform="translate(378.000000, 37.000000)">
            <g id="Group-3">
                <g id="Group">
                    <path d="M48,57.9187972 L48,109 L48,109 L62.9722709,127.923949 L220.500004,127.978151 C255.558018,127.990214 283.987933,99.5798563 283.999996,64.5218415 C283.999999,64.514561 284,64.5072805 284,64.5 L284,58 C283.980384,26.5274282 258.472567,1.01083244 227.000003,0.980387466 L104.999997,0.938409758 C73.5197745,0.907968895 47.9912259,26.4189558 47.9803942,57.8991847 C47.980392,57.9057222 47.9803908,57.9122597 48,57.9187972 Z" id="Path-12" fill="#044917"></path>
                    <g id="Group-17" transform="translate(43.000000, 58.974939)">
                        <g id="Group-18" transform="translate(193.193337, 0.095820)"></g>
                        <g transform="translate(0.000000, 109.772493)" fill="#00B832">
                            <path d="M28.2551764,0.165648008 C49.4352501,0.165648008 66.6050922,17.3611543 66.6050922,38.5728862 C66.6050922,41.541911 66.2613367,44.4998013 65.5814655,47.3874165 L65.3424035,48.3472709 L50.3843514,105.2648 L69.553463,111.664833 L65.8519424,122.785992 L36.2733596,112.911726 L54.0225693,45.3639146 C54.6050012,43.1473653 54.8998578,40.8649011 54.8998578,38.5728862 C54.8998578,24.0010288 43.2371942,12.1572041 28.7501346,11.8928904 L28.2551764,11.8883785 L0,11.8883785 L0,0.165648008 L28.2551764,0.165648008 Z" id="Path-9" fill-rule="nonzero"></path>
                            <path d="M126.908998,0.165648008 C145.687403,0.165648008 163.881756,6.64536387 178.436377,18.4968329 L179.199033,19.1255485 L190.606221,28.6457474 L183.112713,37.6513985 L171.705524,28.1311997 C159.362951,17.8303489 143.864536,12.1028813 127.817868,11.8942853 L126.908998,11.8883785 L83.9513547,11.8883785 L83.9513547,0.165648008 L126.908998,0.165648008 Z" id="Path-9" fill-rule="nonzero"></path>
                            <path d="M96.840525,99.9740142 C102.14826,99.8655312 106.651201,103.853587 107.192856,109.142616 C107.755247,114.634131 103.86289,119.554881 98.444535,120.301309 L98.0890306,120.344034 L96.928029,120.463289 L68.7290764,111.990958 L72.0925509,100.762618 L97.0089459,108.246665 L96.840525,99.9740142 Z M96.8947588,108.682479 C96.0663936,108.767566 95.463745,109.50907 95.5487055,110.338673 C95.6226318,111.060532 96.1956153,111.618489 96.9005794,111.687442 L97.0793576,111.694304 L97.0465586,110.161748 L96.8947588,108.682479 Z" id="Path-10" fill-rule="nonzero"></path>
                            <path d="M54.1621643,19.5877936 L56.8702725,27.7242619 C58.8437347,36.9475178 56.5473757,46.0910821 51.3136639,53.0970653 C50.477218,47.936658 46.00138,43.9971983 40.6054318,43.9971983 L27.0810822,43.9971983 L27.0810822,54.8458226 L49.9068789,54.8468056 C45.5943805,59.8360975 39.6806806,63.5132781 32.734861,64.9994466 C30.5754304,65.4614911 28.3732828,65.6944469 26.1649744,65.6944469 L0,65.6944469 L0,19.5877936 L54.1621643,19.5877936 Z" id="Combined-Shape"></path>
                            <path d="M115.320386,19.5877936 C143.069128,19.5877936 169.257013,32.3577304 186.344459,54.181722 L186.859467,54.8458226 L159.778385,54.8458226 C154.664488,61.6745438 146.63188,65.6944469 138.100562,65.6944469 L105.61622,65.6944469 L83.9513547,19.5877936 L115.320386,19.5877936 Z M148.92976,43.9971983 L135.405411,43.9971983 L135.405411,54.8458226 L159.778385,54.8458226 C159.778385,48.8542929 154.92129,43.9971983 148.92976,43.9971983 Z" id="Combined-Shape"></path>
                        </g>
                        <ellipse id="Oval" fill="#F5B700" cx="153.008114" cy="222.929671" rx="33.8513527" ry="33.9019509"></ellipse>
                        <g id="Group-2" transform="translate(51.413055, 247.604007)" fill="#00B832">
                            <polygon id="Path-13" points="1 16.2729365 74.1189218 16.2729365 49.7459479 0 38.913515 8.13646823 25.3729739 0"></polygon>
                            <path d="M0.916675972,15.421054 L80.916676,15.421054 C62.624918,37.4691551 29.9230009,40.5142729 7.87489984,22.2225149 C6.28475683,20.9032852 4.77485473,19.4902269 3.3532641,17.990893 L0.916675972,15.421054 L0.916675972,15.421054 Z" id="Path-14"></path>
                        </g>
                        <path d="M1.00041474,189.925183 C15.950641,193.442084 27.0810822,206.884108 27.0810822,222.929671 C27.0810822,238.975234 15.950641,252.417258 1.00041474,255.934159 L1.00041474,189.925183 Z" id="Path" fill="#F5B700"></path>
                    </g>
                    <path d="M83.6153846,138.944308 L83.6153846,138.944308 L83.6153846,138.944308 L229.975257,138.982221 C271.329198,138.992934 308.423831,113.547856 323.303562,74.963635 L335.615385,43.0381888 L335.615385,43.0381888 L179.577193,43.0037044 C126.590661,42.9919943 83.627097,85.9365728 83.615387,138.923105 C83.6153854,138.930173 83.6153846,138.93724 83.6153846,138.944308 Z" id="Path-12" fill="#BEEF9E"></path>
                    <path d="M11,115.982518 L11,138.944308 L11,138.944308 C46.4532228,138.976011 76.2580899,112.339339 80.1942282,77.105281 L84,43.0381888 L84,43.0381888 C43.7139594,43.0074544 11.0307556,75.6408278 11.0000212,115.926868 C11.0000071,115.945418 11,115.963968 11,115.982518 Z" id="Path-12" fill="#BEEF9E" transform="translate(47.500000, 90.991248) scale(-1, 1) translate(-47.500000, -90.991248) "></path>
                    <path d="M256.184994,149.935712 L272.738081,149.937047 C258.684183,173.456991 250.606679,200.970606 250.606679,230.373644 C250.606679,298.098529 293.460477,355.799413 353.49269,377.762535 L320.021323,377.763847 C269.831729,347.910677 236.193337,293.076366 236.193337,230.373644 C236.193337,201.300848 243.424964,173.919614 256.184994,149.935712 Z M295.406519,149.935559 C279.142539,172.575224 269.563437,200.354102 269.563437,230.373644 C269.563437,295.797277 315.060776,350.578553 376.096689,364.713927 L376.097311,377.759849 L368.716038,377.762467 C303.373203,360.679387 255.150094,301.166488 255.150094,230.373644 C255.150094,200.845527 263.539824,173.279865 278.062206,149.937111 L295.406519,149.935559 Z M43.6980459,345.694877 L43.6979577,362.321704 C30.2061281,369.462291 15.5147752,374.657538 0.00236991795,377.531104 L0.00206806827,362.799062 C15.6995874,359.570872 30.4277702,353.707537 43.6980459,345.694877 Z M318.134633,149.935847 C299.692951,171.076538 288.520194,198.740333 288.520194,229.017566 C288.520194,284.153111 325.57046,330.622169 376.09676,344.81527 L376.096123,359.747448 C317.521454,345.190512 274.106852,292.181629 274.106852,229.017566 C274.106852,199.468834 283.607941,172.142517 299.717479,149.93558 L318.134633,149.935847 Z M43.6977141,322.073985 L43.6963165,339.716535 C30.5198372,348.152809 15.778845,354.381739 0.00184516524,357.877795 L0.0013761932,343.021548 C16.0866035,338.998778 30.8935055,331.77616 43.6977141,322.073985 Z M324.260014,149.936396 L335.475687,149.938739 L335.473814,159.069318 C318.129357,177.249497 307.476952,201.887669 307.476952,229.017562 C307.476952,273.560974 336.192583,311.387461 376.095545,324.942526 L376.095574,340.080481 C328.111427,326.020629 293.063609,281.618144 293.063609,229.017562 C293.063609,198.435207 304.910976,170.624088 324.260014,149.936396 Z M43.6974365,296.709877 L43.6975532,316.279124 C31.0521211,326.474637 16.2164786,334.089204 0.00155219708,338.316461 L0.00138638539,323.29587 C16.8163304,318.22662 31.7937656,308.954857 43.6974365,296.709877 Z M335.474057,168.545977 L335.473988,194.168583 C329.695253,205.429074 326.433709,218.197942 326.433709,231.729722 C326.433709,265.612796 346.883029,294.712536 376.095787,307.325593 L376.095427,322.83531 C338.74709,309.471261 312.020367,273.726337 312.020367,231.729722 C312.020367,207.578444 320.85925,185.494683 335.474057,168.545977 Z M43.6982593,264.640983 L43.6988604,289.979979 C32.1538186,303.102325 17.1038222,313.098207 0.00138018534,318.523292 L0.00175021035,303.208508 C18.8391837,296.033487 34.3706616,282.217108 43.6982593,264.640983 Z" id="Combined-Shape" fill="#BEEF9E"></path>
                    <g id="Oval-+-0-+-1-+-2-+-Oval-Mask" transform="translate(0.000000, 263.893389)"></g>
                </g>
            </g>
        </g>
    </g>
</svg>