<?xml version="1.0" encoding="UTF-8"?>
<svg width="756px" height="756px" viewBox="0 0 756 756" version="1.1" xmlns="http://www.w3.org/2000/svg" xmlns:xlink="http://www.w3.org/1999/xlink">
    <!-- Generator: Sketch 61.1 (89650) - https://sketch.com -->
    <title>merchants-paygage-2</title>
    <desc>Created with Sketch.</desc>
    <g id="merchants-paygage-2" stroke="none" stroke-width="1" fill="none" fill-rule="evenodd">
        <g id="Group-5" transform="translate(-4.000000, 381.000000)">
            <g id="Group-2" transform="translate(191.000000, 0.000000)">
                <g id="Group">
                    <g id="Group-17" transform="translate(21.658855, 87.085364)">
                        <g transform="translate(0.000000, 0.178136)" fill="#00B832" id="Group-19">
                            <g transform="translate(-0.000000, -0.000000)">
                                <path d="M14.3429858,0.0838187734 C25.0944846,0.0838187734 33.8102965,8.78483644 33.8102965,19.5180857 C33.8102965,21.020428 33.6357982,22.5171363 33.2906797,23.9782849 L33.1693263,24.4639764 L25.5762706,53.264549 L35.3069582,56.5029998 L33.4279801,62.1303652 L18.4132024,57.1339341 L27.4231147,22.9543822 C27.7187707,21.8327965 27.8684468,20.6778574 27.8684468,19.5180857 C27.8684468,12.1446483 21.9482071,6.15160996 14.5942381,6.01786581 L14.3429858,6.01558279 L4.79007209e-13,6.01558279 L4.79007209e-13,0.0838187734 L14.3429858,0.0838187734 Z" id="Path-9" fill-rule="nonzero"></path>
                                <path d="M64.4219639,0.0838187734 C73.9543197,0.0838187734 83.1901974,3.36258948 90.5784621,9.35949589 L90.9656037,9.67762934 L96.7561584,14.4949006 L92.952279,19.051808 L87.1617243,14.2345368 C80.8963468,9.02225143 73.0289902,6.12412232 64.8833275,6.01857168 L64.4219639,6.01558279 L42.6156635,6.01558279 L42.6156635,0.0838187734 L64.4219639,0.0838187734 Z" id="Path-9" fill-rule="nonzero"></path>
                                <path d="M49.1585066,50.5873832 C51.8528367,50.5324902 54.1386341,52.5504675 54.4135907,55.2267447 C54.6990739,58.0054804 52.7232227,60.4954061 49.9727394,60.8731025 L49.7922771,60.8947214 L49.2029256,60.9550651 L34.8884803,56.6680206 L36.5958584,50.9864211 L49.244001,54.7733885 L49.1585066,50.5873832 Z M49.1860369,54.9939127 C48.7655394,55.0369674 48.459621,55.4121722 48.5027489,55.8319559 C48.5402757,56.1972203 48.8311354,56.4795496 49.1889916,56.51444 L49.2797436,56.5179124 L49.263094,55.7424309 L49.1860369,54.9939127 Z" id="Path-10" fill-rule="nonzero"></path>
                                <path d="M27.4939764,9.91152782 L28.8686752,14.028624 C29.8718396,18.7021115 28.7066764,23.3365484 26.0505467,26.884304 C25.6348326,24.2648764 23.3661274,22.2628165 20.629816,22.2628165 L13.7469882,22.2628165 L13.7469882,27.7522781 L25.3517592,27.7527281 C23.1727797,30.2749328 20.1848139,32.1346544 16.6748186,32.8880751 C15.5794711,33.1231915 14.4623187,33.2417397 13.3420214,33.2417397 L4.61899809e-13,33.2417397 L4.61899809e-13,9.91152782 L27.4939764,9.91152782 Z" id="Combined-Shape"></path>
                                <path d="M58.5845295,9.91152782 C72.6001811,9.91152782 85.8328129,16.3298335 94.5095865,27.3106178 L94.8542187,27.7522781 L81.1072305,27.7522781 C78.5107722,31.2083462 74.4398354,33.2417397 70.1171045,33.2417397 L53.613254,33.2417397 L42.6156635,9.91152782 L58.5845295,9.91152782 Z M75.6177688,22.2628165 L68.7349411,22.2628165 L68.7349411,27.7522781 L81.1072305,27.7522781 C81.1072305,24.7205322 78.6495148,22.2628165 75.6177688,22.2628165 Z" id="Combined-Shape"></path>
                                <polygon id="Path-13" transform="translate(43.584744, 74.097842) rotate(-10.000000) translate(-43.584744, -74.097842) " points="25.0276879 78.2048289 62.1418011 78.2204528 49.7669554 69.9804397 44.2703055 74.0955276 37.3955843 69.9752317"></polygon>
                                <path d="M45.1745735,79.4877108 L67.1533347,79.5190907 C62.1365536,85.5681385 53.1659269,86.4049562 47.116879,81.3881751 C46.6806598,81.0263965 46.2664431,80.6388808 45.8764426,80.227699 L45.1745735,79.4877108 L45.1745735,79.4877108 Z" id="Path-14" transform="translate(56.163954, 85.676349) rotate(-30.000000) translate(-56.163954, -85.676349) "></path>
                            </g>
                        </g>
                        <ellipse id="Oval" fill="#F5B700" cx="77.6704834" cy="57.4362705" rx="17.1837353" ry="17.1545676"></ellipse>
                        <path d="M0.50783383,40.7358237 C8.096917,42.5153944 13.7469882,49.31713 13.7469882,57.4362705 C13.7469882,65.555411 8.096917,72.3571466 0.50783383,74.1367173 L0.50783383,40.7358237 Z" id="Path" fill="#F5B700"></path>
                    </g>
                    <path d="M0,22 C0,22 7.37053009,38.2032514 22.1115903,70.6097542 L169.522192,70.6097542 L191,22 C63.6666667,22 0,22 0,22 Z" id="Path-12" fill="#038225"></path>
                    <path d="M138.286081,77.6707296 C131.160242,89.5774802 127.064649,103.505333 127.064649,118.389651 C127.064649,152.672631 148.792467,181.881403 179.230214,192.999995 L162.259034,192.999995 C136.81192,177.887808 119.75666,150.13023 119.75666,118.389651 C119.75666,103.672546 123.423343,89.8117401 129.893113,77.6707296 L138.286081,77.6707296 Z M149.779404,77.670943 C141.533138,89.1314199 136.676283,103.193412 136.676283,118.389651 C136.676283,151.507907 159.553067,178.649266 190.5,185.804832 L190.5,193.656114 L186.949814,192.999884 C153.81895,184.352288 129.368294,154.226012 129.368294,118.389651 C129.368294,103.442176 133.622106,89.4881166 140.985336,77.670943 L149.779404,77.670943 Z M22.1561542,176.766618 L22.1561542,185.183393 C15.3151092,188.798174 7.86594398,191.428145 0.000460978834,192.882781 L0.000460978834,185.425166 C7.95989105,183.790995 15.427638,180.822832 22.1561542,176.766618 Z M161.303514,77.6707407 C151.952916,88.3724677 146.287917,102.376339 146.287917,117.703186 C146.287917,145.613623 164.881544,169.13694 190.5,176.321588 L190.5,183.880409 C160.800859,176.511537 138.979928,149.677711 138.979928,117.703186 C138.979928,102.745246 143.797248,88.9123196 151.965239,77.6707407 L161.303514,77.6707407 Z M22.155721,164.809569 L22.1554004,173.740214 C15.4744804,178.010868 8.00028015,181.164111 0.000777861591,182.933903 L0.000342710135,175.413519 C8.15604551,173.377141 15.6635977,169.72095 22.155721,164.809569 Z M164.408845,77.6714791 L170.095734,77.6714791 L170.094284,82.2949824 C161.300429,91.497979 155.899551,103.969934 155.899551,117.703184 C155.899551,140.251682 170.267975,159.399974 190.5,166.2617 L190.5,173.924842 C166.170379,166.807714 148.591562,144.330469 148.591562,117.703184 C148.591562,102.222103 154.598439,88.1438387 164.408845,77.6714791 Z M22.1556106,151.970024 L22.1556106,161.876157 C15.7439879,167.037269 8.22185987,170.891865 0.00022436476,173.031752 L0.00022436476,165.428159 C8.52591874,162.862062 16.1199437,158.168587 22.1556106,151.970024 Z M170.095347,87.0911601 L170.094966,100.06199 C167.164919,105.762243 165.511185,112.226077 165.511185,119.076115 C165.511185,136.228302 175.688096,150.959067 190.5,157.343886 L190.5,165.195168 C171.563001,158.430267 158.203196,140.335567 158.203196,119.076115 C158.203196,106.850177 162.684947,95.6708857 170.095347,87.0911601 Z M22.1561682,135.736223 L22.1561682,148.563308 C16.3024219,155.206041 8.67153864,160.266087 0,163.01229 L0.000729374165,155.259562 C9.55179492,151.627454 17.426653,144.633445 22.1561682,135.736223 Z" id="Shape" fill="#00B832"></path>
                    <g id="Oval-+-0-+-1-+-2-+-Oval-Mask" transform="translate(0.000000, 135.570728)"></g>
                    <g id="Oval" transform="translate(45.201089, 0.000000)" fill="#044917">
                        <path d="M50.0278965,2.52705303e-14 C69.1401021,2.52705303e-14 86.5632957,7.21025904 99.710538,19.0514434 L0.345579614,19.0511509 C13.4927841,7.21014032 30.9158482,2.52705303e-14 50.0278965,2.52705303e-14 Z" id="Combined-Shape"></path>
                    </g>
                </g>
            </g>
            <g id="Group-2" transform="translate(95.500000, 251.500000) scale(-1, -1) translate(-95.500000, -251.500000) translate(0.000000, 155.000000)">
                <g id="Group">
                    <g id="Group-17" transform="translate(21.658855, 87.085364)">
                        <g transform="translate(0.000000, 0.178136)" fill="#00B832" id="Group-19">
                            <g transform="translate(-0.000000, -0.000000)">
                                <path d="M14.3429858,0.0838187734 C25.0944846,0.0838187734 33.8102965,8.78483644 33.8102965,19.5180857 C33.8102965,21.020428 33.6357982,22.5171363 33.2906797,23.9782849 L33.1693263,24.4639764 L25.5762706,53.264549 L35.3069582,56.5029998 L33.4279801,62.1303652 L18.4132024,57.1339341 L27.4231147,22.9543822 C27.7187707,21.8327965 27.8684468,20.6778574 27.8684468,19.5180857 C27.8684468,12.1446483 21.9482071,6.15160996 14.5942381,6.01786581 L14.3429858,6.01558279 L4.79007209e-13,6.01558279 L4.79007209e-13,0.0838187734 L14.3429858,0.0838187734 Z" id="Path-9" fill-rule="nonzero"></path>
                                <path d="M64.4219639,0.0838187734 C73.9543197,0.0838187734 83.1901974,3.36258948 90.5784621,9.35949589 L90.9656037,9.67762934 L96.7561584,14.4949006 L92.952279,19.051808 L87.1617243,14.2345368 C80.8963468,9.02225143 73.0289902,6.12412232 64.8833275,6.01857168 L64.4219639,6.01558279 L42.6156635,6.01558279 L42.6156635,0.0838187734 L64.4219639,0.0838187734 Z" id="Path-9" fill-rule="nonzero"></path>
                                <path d="M49.1585066,50.5873832 C51.8528367,50.5324902 54.1386341,52.5504675 54.4135907,55.2267447 C54.6990739,58.0054804 52.7232227,60.4954061 49.9727394,60.8731025 L49.7922771,60.8947214 L49.2029256,60.9550651 L34.8884803,56.6680206 L36.5958584,50.9864211 L49.244001,54.7733885 L49.1585066,50.5873832 Z M49.1860369,54.9939127 C48.7655394,55.0369674 48.459621,55.4121722 48.5027489,55.8319559 C48.5402757,56.1972203 48.8311354,56.4795496 49.1889916,56.51444 L49.2797436,56.5179124 L49.263094,55.7424309 L49.1860369,54.9939127 Z" id="Path-10" fill-rule="nonzero"></path>
                                <path d="M27.4939764,9.91152782 L28.8686752,14.028624 C29.8718396,18.7021115 28.7066764,23.3365484 26.0505467,26.884304 C25.6348326,24.2648764 23.3661274,22.2628165 20.629816,22.2628165 L13.7469882,22.2628165 L13.7469882,27.7522781 L25.3517592,27.7527281 C23.1727797,30.2749328 20.1848139,32.1346544 16.6748186,32.8880751 C15.5794711,33.1231915 14.4623187,33.2417397 13.3420214,33.2417397 L4.61899809e-13,33.2417397 L4.61899809e-13,9.91152782 L27.4939764,9.91152782 Z" id="Combined-Shape"></path>
                                <path d="M58.5845295,9.91152782 C72.6001811,9.91152782 85.8328129,16.3298335 94.5095865,27.3106178 L94.8542187,27.7522781 L81.1072305,27.7522781 C78.5107722,31.2083462 74.4398354,33.2417397 70.1171045,33.2417397 L53.613254,33.2417397 L42.6156635,9.91152782 L58.5845295,9.91152782 Z M75.6177688,22.2628165 L68.7349411,22.2628165 L68.7349411,27.7522781 L81.1072305,27.7522781 C81.1072305,24.7205322 78.6495148,22.2628165 75.6177688,22.2628165 Z" id="Combined-Shape"></path>
                                <polygon id="Path-13" transform="translate(43.584744, 74.097842) rotate(-10.000000) translate(-43.584744, -74.097842) " points="25.0276879 78.2048289 62.1418011 78.2204528 49.7669554 69.9804397 44.2703055 74.0955276 37.3955843 69.9752317"></polygon>
                                <path d="M45.1745735,79.4877108 L67.1533347,79.5190907 C62.1365536,85.5681385 53.1659269,86.4049562 47.116879,81.3881751 C46.6806598,81.0263965 46.2664431,80.6388808 45.8764426,80.227699 L45.1745735,79.4877108 L45.1745735,79.4877108 Z" id="Path-14" transform="translate(56.163954, 85.676349) rotate(-30.000000) translate(-56.163954, -85.676349) "></path>
                            </g>
                        </g>
                        <ellipse id="Oval" fill="#F5B700" cx="77.6704834" cy="57.4362705" rx="17.1837353" ry="17.1545676"></ellipse>
                        <path d="M0.50783383,40.7358237 C8.096917,42.5153944 13.7469882,49.31713 13.7469882,57.4362705 C13.7469882,65.555411 8.096917,72.3571466 0.50783383,74.1367173 L0.50783383,40.7358237 Z" id="Path" fill="#F5B700"></path>
                    </g>
                    <path d="M0,22 C0,22 7.37053009,38.2032514 22.1115903,70.6097542 L169.522192,70.6097542 L191,22 C63.6666667,22 0,22 0,22 Z" id="Path-12" fill="#038225"></path>
                    <path d="M138.286081,77.6707296 C131.160242,89.5774802 127.064649,103.505333 127.064649,118.389651 C127.064649,152.672631 148.792467,181.881403 179.230214,192.999995 L162.259034,192.999995 C136.81192,177.887808 119.75666,150.13023 119.75666,118.389651 C119.75666,103.672546 123.423343,89.8117401 129.893113,77.6707296 L138.286081,77.6707296 Z M149.779404,77.670943 C141.533138,89.1314199 136.676283,103.193412 136.676283,118.389651 C136.676283,151.507907 159.744702,179.238879 190.692093,186.394445 L190.692093,192.998496 L186.949814,192.999884 C153.81895,184.352288 129.368294,154.226012 129.368294,118.389651 C129.368294,103.442176 133.622106,89.4881166 140.985336,77.670943 L149.779404,77.670943 Z M22.1561542,176.766618 L22.1561542,185.183393 C15.3151092,188.798174 7.86594398,191.428145 0.000460978834,192.882781 L0.000460978834,185.425166 C7.95989105,183.790995 15.427638,180.822832 22.1561542,176.766618 Z M161.303514,77.6707407 C151.952916,88.3724677 146.287917,102.376339 146.287917,117.703186 C146.287917,145.613623 165.073621,169.13694 190.692077,176.321588 L190.692077,183.880409 C160.992467,176.511537 138.979928,149.677711 138.979928,117.703186 C138.979928,102.745246 143.797248,88.9123196 151.965239,77.6707407 L161.303514,77.6707407 Z M22.155721,164.809569 L22.1554004,173.740214 C15.4744804,178.010868 8.00028015,181.164111 0.000777861591,182.933903 L0.000342710135,175.413519 C8.15604551,173.377141 15.6635977,169.72095 22.155721,164.809569 Z M164.408845,77.6714791 L170.095734,77.6714791 L170.094284,82.2949824 C161.300429,91.497979 155.899551,103.969934 155.899551,117.703184 C155.899551,140.251682 170.459267,159.399974 190.691692,166.2617 L190.691692,173.924842 C166.362071,166.807714 148.591562,144.330469 148.591562,117.703184 C148.591562,102.222103 154.598439,88.1438387 164.408845,77.6714791 Z M22.1556106,151.970024 L22.1556106,161.876157 C15.7439879,167.037269 8.22185987,170.891865 0.00022436476,173.031752 L0.00022436476,165.428159 C8.52591874,162.862062 16.1199437,158.168587 22.1556106,151.970024 Z M170.095347,87.0911601 L170.094966,100.06199 C167.164919,105.762243 165.511185,112.226077 165.511185,119.076115 C165.511185,136.228302 175.879747,150.959067 190.691698,157.343886 L190.691698,165.195168 C171.754699,158.430267 158.203196,140.335567 158.203196,119.076115 C158.203196,106.850177 162.684947,95.6708857 170.095347,87.0911601 Z M22.1561682,135.736223 L22.1561682,148.563308 C16.3024219,155.206041 8.67153864,160.266087 0,163.01229 L0.000729374165,155.259562 C9.55179492,151.627454 17.426653,144.633445 22.1561682,135.736223 Z" id="Shape" fill="#00B832"></path>
                    <g id="Oval-+-0-+-1-+-2-+-Oval-Mask" transform="translate(0.000000, 135.570728)"></g>
                    <g id="Oval" transform="translate(45.201089, 0.000000)" fill="#044917">
                        <path d="M50.0278965,2.52705303e-14 C69.1401021,2.52705303e-14 86.5632957,7.21025904 99.710538,19.0514434 L0.345579614,19.0511509 C13.4927841,7.21014032 30.9158482,2.52705303e-14 50.0278965,2.52705303e-14 Z" id="Combined-Shape"></path>
                    </g>
                </g>
            </g>
            <g id="Group-3" transform="translate(2.000000, 0.000000)">
                <g id="Group-4">
                    <g id="paygage-symbol" transform="translate(46.000000, 34.500000)">
                        <path d="M7.7527881,34.5 L89.2472119,34.5 C93.5289585,34.5 97,38.0393327 97,42.4053208 L97,95.685133 C97,100.051121 93.5289585,103.590454 89.2472119,103.590454 L81.2383679,103.590454 L81.2437783,118.052779 C81.2441804,119.127789 80.390941,120 79.3380146,120 C78.9297159,120 78.5321526,119.866485 78.2038462,119.618653 L56.9710093,103.590454 L7.7527881,103.590454 C3.47104147,103.590454 0,100.051121 0,95.685133 L0,42.4053208 C0,38.0393327 3.47104147,34.5 7.7527881,34.5 Z" id="Rectangle" fill="#044917"></path>
                        <path d="M6.55390335,32.4912745 L75.4460967,18.6118629 C79.0657175,17.8826336 82,20.7952781 82,25.1174366 L82,77.8623788 C82,82.1845373 79.0657175,86.2794962 75.4460967,87.0087255 L6.55390335,100.888137 C2.93428248,101.617366 0,98.7047219 0,94.3825634 L0,41.6376212 C0,37.3154627 2.93428248,33.2205038 6.55390335,32.4912745 Z" id="Rectangle" fill="#038225"></path>
                        <path d="M5.51486989,29.104031 L63.4851301,0.465896332 C66.5309086,-1.03876167 69,1.22136125 69,5.51402216 L69,57.8989946 C69,62.1916555 66.5309086,66.891311 63.4851301,68.395969 L5.51486989,97.0341037 C2.46909135,98.5387617 0,96.2786387 0,91.9859778 L0,39.6010054 C0,35.3083445 2.46909135,30.608689 5.51486989,29.104031 Z" id="Rectangle" fill="#00B832"></path>
                    </g>
                    <rect id="Rectangle" x="0" y="0" width="189" height="189"></rect>
                </g>
            </g>
            <g id="Group-3" transform="translate(186.000000, 181.000000)">
                <g id="Group-4">
                    <g id="paygage-symbol" transform="translate(46.000000, 34.500000)">
                        <path d="M7.7527881,34.5 L89.2472119,34.5 C93.5289585,34.5 97,38.0393327 97,42.4053208 L97,95.685133 C97,100.051121 93.5289585,103.590454 89.2472119,103.590454 L81.2383679,103.590454 L81.2437783,118.052779 C81.2441804,119.127789 80.390941,120 79.3380146,120 C78.9297159,120 78.5321526,119.866485 78.2038462,119.618653 L56.9710093,103.590454 L7.7527881,103.590454 C3.47104147,103.590454 0,100.051121 0,95.685133 L0,42.4053208 C0,38.0393327 3.47104147,34.5 7.7527881,34.5 Z" id="Rectangle" fill="#044917"></path>
                        <path d="M6.55390335,32.4912745 L75.4460967,18.6118629 C79.0657175,17.8826336 82,20.7952781 82,25.1174366 L82,77.8623788 C82,82.1845373 79.0657175,86.2794962 75.4460967,87.0087255 L6.55390335,100.888137 C2.93428248,101.617366 0,98.7047219 0,94.3825634 L0,41.6376212 C0,37.3154627 2.93428248,33.2205038 6.55390335,32.4912745 Z" id="Rectangle" fill="#038225"></path>
                        <path d="M5.51486989,29.104031 L63.4851301,0.465896332 C66.5309086,-1.03876167 69,1.22136125 69,5.51402216 L69,57.8989946 C69,62.1916555 66.5309086,66.891311 63.4851301,68.395969 L5.51486989,97.0341037 C2.46909135,98.5387617 0,96.2786387 0,91.9859778 L0,39.6010054 C0,35.3083445 2.46909135,30.608689 5.51486989,29.104031 Z" id="Rectangle" fill="#00B832"></path>
                    </g>
                    <rect id="Rectangle" x="0" y="0" width="189" height="189"></rect>
                </g>
            </g>
        </g>
        <g id="Group-6" transform="translate(-4.000000, 8.000000)">
            <g id="Group-5" transform="translate(381.000000, 3.000000)">
                <g id="Group-2" transform="translate(191.000000, 0.000000)">
                    <g id="Group">
                        <g id="Group-17" transform="translate(21.658855, 87.085364)">
                            <g transform="translate(0.000000, 0.178136)" fill="#00B832" id="Group-19">
                                <g transform="translate(-0.000000, -0.000000)">
                                    <path d="M14.3429858,0.0838187734 C25.0944846,0.0838187734 33.8102965,8.78483644 33.8102965,19.5180857 C33.8102965,21.020428 33.6357982,22.5171363 33.2906797,23.9782849 L33.1693263,24.4639764 L25.5762706,53.264549 L35.3069582,56.5029998 L33.4279801,62.1303652 L18.4132024,57.1339341 L27.4231147,22.9543822 C27.7187707,21.8327965 27.8684468,20.6778574 27.8684468,19.5180857 C27.8684468,12.1446483 21.9482071,6.15160996 14.5942381,6.01786581 L14.3429858,6.01558279 L4.79007209e-13,6.01558279 L4.79007209e-13,0.0838187734 L14.3429858,0.0838187734 Z" id="Path-9" fill-rule="nonzero"></path>
                                    <path d="M64.4219639,0.0838187734 C73.9543197,0.0838187734 83.1901974,3.36258948 90.5784621,9.35949589 L90.9656037,9.67762934 L96.7561584,14.4949006 L92.952279,19.051808 L87.1617243,14.2345368 C80.8963468,9.02225143 73.0289902,6.12412232 64.8833275,6.01857168 L64.4219639,6.01558279 L42.6156635,6.01558279 L42.6156635,0.0838187734 L64.4219639,0.0838187734 Z" id="Path-9" fill-rule="nonzero"></path>
                                    <path d="M49.1585066,50.5873832 C51.8528367,50.5324902 54.1386341,52.5504675 54.4135907,55.2267447 C54.6990739,58.0054804 52.7232227,60.4954061 49.9727394,60.8731025 L49.7922771,60.8947214 L49.2029256,60.9550651 L34.8884803,56.6680206 L36.5958584,50.9864211 L49.244001,54.7733885 L49.1585066,50.5873832 Z M49.1860369,54.9939127 C48.7655394,55.0369674 48.459621,55.4121722 48.5027489,55.8319559 C48.5402757,56.1972203 48.8311354,56.4795496 49.1889916,56.51444 L49.2797436,56.5179124 L49.263094,55.7424309 L49.1860369,54.9939127 Z" id="Path-10" fill-rule="nonzero"></path>
                                    <path d="M27.4939764,9.91152782 L28.8686752,14.028624 C29.8718396,18.7021115 28.7066764,23.3365484 26.0505467,26.884304 C25.6348326,24.2648764 23.3661274,22.2628165 20.629816,22.2628165 L13.7469882,22.2628165 L13.7469882,27.7522781 L25.3517592,27.7527281 C23.1727797,30.2749328 20.1848139,32.1346544 16.6748186,32.8880751 C15.5794711,33.1231915 14.4623187,33.2417397 13.3420214,33.2417397 L4.61899809e-13,33.2417397 L4.61899809e-13,9.91152782 L27.4939764,9.91152782 Z" id="Combined-Shape"></path>
                                    <path d="M58.5845295,9.91152782 C72.6001811,9.91152782 85.8328129,16.3298335 94.5095865,27.3106178 L94.8542187,27.7522781 L81.1072305,27.7522781 C78.5107722,31.2083462 74.4398354,33.2417397 70.1171045,33.2417397 L53.613254,33.2417397 L42.6156635,9.91152782 L58.5845295,9.91152782 Z M75.6177688,22.2628165 L68.7349411,22.2628165 L68.7349411,27.7522781 L81.1072305,27.7522781 C81.1072305,24.7205322 78.6495148,22.2628165 75.6177688,22.2628165 Z" id="Combined-Shape"></path>
                                    <polygon id="Path-13" transform="translate(43.584744, 74.097842) rotate(-10.000000) translate(-43.584744, -74.097842) " points="25.0276879 78.2048289 62.1418011 78.2204528 49.7669554 69.9804397 44.2703055 74.0955276 37.3955843 69.9752317"></polygon>
                                    <path d="M45.1745735,79.4877108 L67.1533347,79.5190907 C62.1365536,85.5681385 53.1659269,86.4049562 47.116879,81.3881751 C46.6806598,81.0263965 46.2664431,80.6388808 45.8764426,80.227699 L45.1745735,79.4877108 L45.1745735,79.4877108 Z" id="Path-14" transform="translate(56.163954, 85.676349) rotate(-30.000000) translate(-56.163954, -85.676349) "></path>
                                </g>
                            </g>
                            <ellipse id="Oval" fill="#F5B700" cx="77.6704834" cy="57.4362705" rx="17.1837353" ry="17.1545676"></ellipse>
                            <path d="M0.50783383,40.7358237 C8.096917,42.5153944 13.7469882,49.31713 13.7469882,57.4362705 C13.7469882,65.555411 8.096917,72.3571466 0.50783383,74.1367173 L0.50783383,40.7358237 Z" id="Path" fill="#F5B700"></path>
                        </g>
                        <path d="M0,22 C0,22 7.37053009,38.2032514 22.1115903,70.6097542 L169.522192,70.6097542 L191,22 C63.6666667,22 0,22 0,22 Z" id="Path-12" fill="#038225"></path>
                        <path d="M138.286081,77.6707296 C131.160242,89.5774802 127.064649,103.505333 127.064649,118.389651 C127.064649,152.672631 148.792467,181.881403 179.230214,192.999995 L162.259034,192.999995 C136.81192,177.887808 119.75666,150.13023 119.75666,118.389651 C119.75666,103.672546 123.423343,89.8117401 129.893113,77.6707296 L138.286081,77.6707296 Z M149.779404,77.670943 C141.533138,89.1314199 136.676283,103.193412 136.676283,118.389651 C136.676283,151.507907 159.744702,179.238879 190.692093,186.394445 L190.692093,192.998496 L186.949814,192.999884 C153.81895,184.352288 129.368294,154.226012 129.368294,118.389651 C129.368294,103.442176 133.622106,89.4881166 140.985336,77.670943 L149.779404,77.670943 Z M22.1561542,176.766618 L22.1561542,185.183393 C15.3151092,188.798174 7.86594398,191.428145 0.000460978834,192.882781 L0.000460978834,185.425166 C7.95989105,183.790995 15.427638,180.822832 22.1561542,176.766618 Z M161.303514,77.6707407 C151.952916,88.3724677 146.287917,102.376339 146.287917,117.703186 C146.287917,145.613623 165.073621,169.13694 190.692077,176.321588 L190.692077,183.880409 C160.992467,176.511537 138.979928,149.677711 138.979928,117.703186 C138.979928,102.745246 143.797248,88.9123196 151.965239,77.6707407 L161.303514,77.6707407 Z M22.155721,164.809569 L22.1554004,173.740214 C15.4744804,178.010868 8.00028015,181.164111 0.000777861591,182.933903 L0.000342710135,175.413519 C8.15604551,173.377141 15.6635977,169.72095 22.155721,164.809569 Z M164.408845,77.6714791 L170.095734,77.6714791 L170.094284,82.2949824 C161.300429,91.497979 155.899551,103.969934 155.899551,117.703184 C155.899551,140.251682 170.459267,159.399974 190.691692,166.2617 L190.691692,173.924842 C166.362071,166.807714 148.591562,144.330469 148.591562,117.703184 C148.591562,102.222103 154.598439,88.1438387 164.408845,77.6714791 Z M22.1556106,151.970024 L22.1556106,161.876157 C15.7439879,167.037269 8.22185987,170.891865 0.00022436476,173.031752 L0.00022436476,165.428159 C8.52591874,162.862062 16.1199437,158.168587 22.1556106,151.970024 Z M170.095347,87.0911601 L170.094966,100.06199 C167.164919,105.762243 165.511185,112.226077 165.511185,119.076115 C165.511185,136.228302 175.879747,150.959067 190.691698,157.343886 L190.691698,165.195168 C171.754699,158.430267 158.203196,140.335567 158.203196,119.076115 C158.203196,106.850177 162.684947,95.6708857 170.095347,87.0911601 Z M22.1561682,135.736223 L22.1561682,148.563308 C16.3024219,155.206041 8.67153864,160.266087 0,163.01229 L0.000729374165,155.259562 C9.55179492,151.627454 17.426653,144.633445 22.1561682,135.736223 Z" id="Shape" fill="#00B832"></path>
                        <g id="Oval-+-0-+-1-+-2-+-Oval-Mask" transform="translate(0.000000, 135.570728)"></g>
                        <g id="Oval" transform="translate(45.201089, 0.000000)" fill="#044917">
                            <path d="M50.0278965,2.52705303e-14 C69.1401021,2.52705303e-14 86.5632957,7.21025904 99.710538,19.0514434 L0.345579614,19.0511509 C13.4927841,7.21014032 30.9158482,2.52705303e-14 50.0278965,2.52705303e-14 Z" id="Combined-Shape"></path>
                        </g>
                    </g>
                </g>
                <g id="Group-2" transform="translate(95.500000, 251.000000) scale(-1, -1) translate(-95.500000, -251.000000) translate(0.000000, 154.000000)">
                    <g id="Group">
                        <g id="Group-17" transform="translate(21.658855, 87.085364)">
                            <g transform="translate(0.000000, 0.178136)" fill="#00B832" id="Group-19">
                                <g transform="translate(-0.000000, -0.000000)">
                                    <path d="M14.3429858,0.0838187734 C25.0944846,0.0838187734 33.8102965,8.78483644 33.8102965,19.5180857 C33.8102965,21.020428 33.6357982,22.5171363 33.2906797,23.9782849 L33.1693263,24.4639764 L25.5762706,53.264549 L35.3069582,56.5029998 L33.4279801,62.1303652 L18.4132024,57.1339341 L27.4231147,22.9543822 C27.7187707,21.8327965 27.8684468,20.6778574 27.8684468,19.5180857 C27.8684468,12.1446483 21.9482071,6.15160996 14.5942381,6.01786581 L14.3429858,6.01558279 L4.79007209e-13,6.01558279 L4.79007209e-13,0.0838187734 L14.3429858,0.0838187734 Z" id="Path-9" fill-rule="nonzero"></path>
                                    <path d="M64.4219639,0.0838187734 C73.9543197,0.0838187734 83.1901974,3.36258948 90.5784621,9.35949589 L90.9656037,9.67762934 L96.7561584,14.4949006 L92.952279,19.051808 L87.1617243,14.2345368 C80.8963468,9.02225143 73.0289902,6.12412232 64.8833275,6.01857168 L64.4219639,6.01558279 L42.6156635,6.01558279 L42.6156635,0.0838187734 L64.4219639,0.0838187734 Z" id="Path-9" fill-rule="nonzero"></path>
                                    <path d="M49.1585066,50.5873832 C51.8528367,50.5324902 54.1386341,52.5504675 54.4135907,55.2267447 C54.6990739,58.0054804 52.7232227,60.4954061 49.9727394,60.8731025 L49.7922771,60.8947214 L49.2029256,60.9550651 L34.8884803,56.6680206 L36.5958584,50.9864211 L49.244001,54.7733885 L49.1585066,50.5873832 Z M49.1860369,54.9939127 C48.7655394,55.0369674 48.459621,55.4121722 48.5027489,55.8319559 C48.5402757,56.1972203 48.8311354,56.4795496 49.1889916,56.51444 L49.2797436,56.5179124 L49.263094,55.7424309 L49.1860369,54.9939127 Z" id="Path-10" fill-rule="nonzero"></path>
                                    <path d="M27.4939764,9.91152782 L28.8686752,14.028624 C29.8718396,18.7021115 28.7066764,23.3365484 26.0505467,26.884304 C25.6348326,24.2648764 23.3661274,22.2628165 20.629816,22.2628165 L13.7469882,22.2628165 L13.7469882,27.7522781 L25.3517592,27.7527281 C23.1727797,30.2749328 20.1848139,32.1346544 16.6748186,32.8880751 C15.5794711,33.1231915 14.4623187,33.2417397 13.3420214,33.2417397 L4.61899809e-13,33.2417397 L4.61899809e-13,9.91152782 L27.4939764,9.91152782 Z" id="Combined-Shape"></path>
                                    <path d="M58.5845295,9.91152782 C72.6001811,9.91152782 85.8328129,16.3298335 94.5095865,27.3106178 L94.8542187,27.7522781 L81.1072305,27.7522781 C78.5107722,31.2083462 74.4398354,33.2417397 70.1171045,33.2417397 L53.613254,33.2417397 L42.6156635,9.91152782 L58.5845295,9.91152782 Z M75.6177688,22.2628165 L68.7349411,22.2628165 L68.7349411,27.7522781 L81.1072305,27.7522781 C81.1072305,24.7205322 78.6495148,22.2628165 75.6177688,22.2628165 Z" id="Combined-Shape"></path>
                                    <polygon id="Path-13" transform="translate(43.584744, 74.097842) rotate(-10.000000) translate(-43.584744, -74.097842) " points="25.0276879 78.2048289 62.1418011 78.2204528 49.7669554 69.9804397 44.2703055 74.0955276 37.3955843 69.9752317"></polygon>
                                    <path d="M45.1745735,79.4877108 L67.1533347,79.5190907 C62.1365536,85.5681385 53.1659269,86.4049562 47.116879,81.3881751 C46.6806598,81.0263965 46.2664431,80.6388808 45.8764426,80.227699 L45.1745735,79.4877108 L45.1745735,79.4877108 Z" id="Path-14" transform="translate(56.163954, 85.676349) rotate(-30.000000) translate(-56.163954, -85.676349) "></path>
                                </g>
                            </g>
                            <ellipse id="Oval" fill="#F5B700" cx="77.6704834" cy="57.4362705" rx="17.1837353" ry="17.1545676"></ellipse>
                            <path d="M0.50783383,40.7358237 C8.096917,42.5153944 13.7469882,49.31713 13.7469882,57.4362705 C13.7469882,65.555411 8.096917,72.3571466 0.50783383,74.1367173 L0.50783383,40.7358237 Z" id="Path" fill="#F5B700"></path>
                        </g>
                        <path d="M0,22 C0,22 7.37053009,38.2032514 22.1115903,70.6097542 L169.522192,70.6097542 L191,22 C63.6666667,22 0,22 0,22 Z" id="Path-12" fill="#038225"></path>
                        <path d="M138.286081,77.6707296 C131.160242,89.5774802 127.064649,103.505333 127.064649,118.389651 C127.064649,152.672631 148.792467,181.881403 179.230214,192.999995 L162.259034,192.999995 C136.81192,177.887808 119.75666,150.13023 119.75666,118.389651 C119.75666,103.672546 123.423343,89.8117401 129.893113,77.6707296 L138.286081,77.6707296 Z M149.779404,77.670943 C141.533138,89.1314199 136.676283,103.193412 136.676283,118.389651 C136.676283,151.507907 159.553067,178.649266 190.5,185.804832 L190.5,193.656114 L186.949814,192.999884 C153.81895,184.352288 129.368294,154.226012 129.368294,118.389651 C129.368294,103.442176 133.622106,89.4881166 140.985336,77.670943 L149.779404,77.670943 Z M22.1561542,176.766618 L22.1561542,185.183393 C15.3151092,188.798174 7.86594398,191.428145 0.000460978834,192.882781 L0.000460978834,185.425166 C7.95989105,183.790995 15.427638,180.822832 22.1561542,176.766618 Z M161.303514,77.6707407 C151.952916,88.3724677 146.287917,102.376339 146.287917,117.703186 C146.287917,145.613623 164.881544,169.89051 190.5,177.075158 L190.5,184.7383 C160.800859,177.369427 138.979928,149.677711 138.979928,117.703186 C138.979928,102.745246 143.797248,88.9123196 151.965239,77.6707407 L161.303514,77.6707407 Z M22.155721,164.809569 L22.1554004,173.740214 C15.4744804,178.010868 8.00028015,181.164111 0.000777861591,182.933903 L0.000342710135,175.413519 C8.15604551,173.377141 15.6635977,169.72095 22.155721,164.809569 Z M164.408845,77.6714791 L170.095734,77.6714791 L170.094284,82.2949824 C161.300429,91.497979 155.899551,103.969934 155.899551,117.703184 C155.899551,140.251682 170.267975,160.257865 190.5,167.119591 L190.5,174.678412 C166.170379,167.561284 148.591562,144.330469 148.591562,117.703184 C148.591562,102.222103 154.598439,88.1438387 164.408845,77.6714791 Z M22.1556106,151.970024 L22.1556106,161.876157 C15.7439879,167.037269 8.22185987,170.891865 0.00022436476,173.031752 L0.00022436476,165.428159 C8.52591874,162.862062 16.1199437,158.168587 22.1556106,151.970024 Z M170.095347,87.0911601 L170.094966,100.06199 C167.164919,105.762243 165.511185,112.226077 165.511185,119.076115 C165.511185,136.228302 175.688096,150.959067 190.5,157.343886 L190.5,165.195168 C171.563001,158.430267 158.203196,140.335567 158.203196,119.076115 C158.203196,106.850177 162.684947,95.6708857 170.095347,87.0911601 Z M22.1561682,135.736223 L22.1561682,148.563308 C16.3024219,155.206041 8.67153864,160.266087 0,163.01229 L0.000729374165,155.259562 C9.55179492,151.627454 17.426653,144.633445 22.1561682,135.736223 Z" id="Shape" fill="#00B832"></path>
                        <g id="Oval-+-0-+-1-+-2-+-Oval-Mask" transform="translate(0.000000, 135.570728)"></g>
                        <g id="Oval" transform="translate(45.201089, 0.000000)" fill="#044917">
                            <path d="M50.0278965,2.52705303e-14 C69.1401021,2.52705303e-14 86.5632957,7.21025904 99.710538,19.0514434 L0.345579614,19.0511509 C13.4927841,7.21014032 30.9158482,2.52705303e-14 50.0278965,2.52705303e-14 Z" id="Combined-Shape"></path>
                        </g>
                    </g>
                </g>
                <g id="Group-3" transform="translate(2.000000, 0.000000)">
                    <g id="Group-4">
                        <g id="paygage-symbol" transform="translate(46.000000, 34.500000)">
                            <path d="M7.7527881,34.5 L89.2472119,34.5 C93.5289585,34.5 97,38.0393327 97,42.4053208 L97,95.685133 C97,100.051121 93.5289585,103.590454 89.2472119,103.590454 L81.2383679,103.590454 L81.2437783,118.052779 C81.2441804,119.127789 80.390941,120 79.3380146,120 C78.9297159,120 78.5321526,119.866485 78.2038462,119.618653 L56.9710093,103.590454 L7.7527881,103.590454 C3.47104147,103.590454 0,100.051121 0,95.685133 L0,42.4053208 C0,38.0393327 3.47104147,34.5 7.7527881,34.5 Z" id="Rectangle" fill="#044917"></path>
                            <path d="M6.55390335,32.4912745 L75.4460967,18.6118629 C79.0657175,17.8826336 82,20.7952781 82,25.1174366 L82,77.8623788 C82,82.1845373 79.0657175,86.2794962 75.4460967,87.0087255 L6.55390335,100.888137 C2.93428248,101.617366 0,98.7047219 0,94.3825634 L0,41.6376212 C0,37.3154627 2.93428248,33.2205038 6.55390335,32.4912745 Z" id="Rectangle" fill="#038225"></path>
                            <path d="M5.51486989,29.104031 L63.4851301,0.465896332 C66.5309086,-1.03876167 69,1.22136125 69,5.51402216 L69,57.8989946 C69,62.1916555 66.5309086,66.891311 63.4851301,68.395969 L5.51486989,97.0341037 C2.46909135,98.5387617 0,96.2786387 0,91.9859778 L0,39.6010054 C0,35.3083445 2.46909135,30.608689 5.51486989,29.104031 Z" id="Rectangle" fill="#00B832"></path>
                        </g>
                        <rect id="Rectangle" x="0" y="0" width="189" height="189"></rect>
                    </g>
                </g>
                <g id="Group-3" transform="translate(186.000000, 181.000000)">
                    <g id="Group-4">
                        <g id="paygage-symbol" transform="translate(46.000000, 34.500000)">
                            <path d="M7.7527881,34.5 L89.2472119,34.5 C93.5289585,34.5 97,38.0393327 97,42.4053208 L97,95.685133 C97,100.051121 93.5289585,103.590454 89.2472119,103.590454 L81.2383679,103.590454 L81.2437783,118.052779 C81.2441804,119.127789 80.390941,120 79.3380146,120 C78.9297159,120 78.5321526,119.866485 78.2038462,119.618653 L56.9710093,103.590454 L7.7527881,103.590454 C3.47104147,103.590454 0,100.051121 0,95.685133 L0,42.4053208 C0,38.0393327 3.47104147,34.5 7.7527881,34.5 Z" id="Rectangle" fill="#044917"></path>
                            <path d="M6.55390335,32.4912745 L75.4460967,18.6118629 C79.0657175,17.8826336 82,20.7952781 82,25.1174366 L82,77.8623788 C82,82.1845373 79.0657175,86.2794962 75.4460967,87.0087255 L6.55390335,100.888137 C2.93428248,101.617366 0,98.7047219 0,94.3825634 L0,41.6376212 C0,37.3154627 2.93428248,33.2205038 6.55390335,32.4912745 Z" id="Rectangle" fill="#038225"></path>
                            <path d="M5.51486989,29.104031 L63.4851301,0.465896332 C66.5309086,-1.03876167 69,1.22136125 69,5.51402216 L69,57.8989946 C69,62.1916555 66.5309086,66.891311 63.4851301,68.395969 L5.51486989,97.0341037 C2.46909135,98.5387617 0,96.2786387 0,91.9859778 L0,39.6010054 C0,35.3083445 2.46909135,30.608689 5.51486989,29.104031 Z" id="Rectangle" fill="#00B832"></path>
                        </g>
                        <rect id="Rectangle" x="0" y="0" width="189" height="189"></rect>
                    </g>
                </g>
            </g>
            <g id="Group-5">
                <g id="Group-2" transform="translate(191.000000, 0.000000)">
                    <g id="Group">
                        <g id="Group-17" transform="translate(21.658855, 87.085364)">
                            <g transform="translate(0.000000, 0.178136)" fill="#00B832" id="Group-19">
                                <g transform="translate(-0.000000, -0.000000)">
                                    <path d="M14.3429858,0.0838187734 C25.0944846,0.0838187734 33.8102965,8.78483644 33.8102965,19.5180857 C33.8102965,21.020428 33.6357982,22.5171363 33.2906797,23.9782849 L33.1693263,24.4639764 L25.5762706,53.264549 L35.3069582,56.5029998 L33.4279801,62.1303652 L18.4132024,57.1339341 L27.4231147,22.9543822 C27.7187707,21.8327965 27.8684468,20.6778574 27.8684468,19.5180857 C27.8684468,12.1446483 21.9482071,6.15160996 14.5942381,6.01786581 L14.3429858,6.01558279 L4.79007209e-13,6.01558279 L4.79007209e-13,0.0838187734 L14.3429858,0.0838187734 Z" id="Path-9" fill-rule="nonzero"></path>
                                    <path d="M64.4219639,0.0838187734 C73.9543197,0.0838187734 83.1901974,3.36258948 90.5784621,9.35949589 L90.9656037,9.67762934 L96.7561584,14.4949006 L92.952279,19.051808 L87.1617243,14.2345368 C80.8963468,9.02225143 73.0289902,6.12412232 64.8833275,6.01857168 L64.4219639,6.01558279 L42.6156635,6.01558279 L42.6156635,0.0838187734 L64.4219639,0.0838187734 Z" id="Path-9" fill-rule="nonzero"></path>
                                    <path d="M49.1585066,50.5873832 C51.8528367,50.5324902 54.1386341,52.5504675 54.4135907,55.2267447 C54.6990739,58.0054804 52.7232227,60.4954061 49.9727394,60.8731025 L49.7922771,60.8947214 L49.2029256,60.9550651 L34.8884803,56.6680206 L36.5958584,50.9864211 L49.244001,54.7733885 L49.1585066,50.5873832 Z M49.1860369,54.9939127 C48.7655394,55.0369674 48.459621,55.4121722 48.5027489,55.8319559 C48.5402757,56.1972203 48.8311354,56.4795496 49.1889916,56.51444 L49.2797436,56.5179124 L49.263094,55.7424309 L49.1860369,54.9939127 Z" id="Path-10" fill-rule="nonzero"></path>
                                    <path d="M27.4939764,9.91152782 L28.8686752,14.028624 C29.8718396,18.7021115 28.7066764,23.3365484 26.0505467,26.884304 C25.6348326,24.2648764 23.3661274,22.2628165 20.629816,22.2628165 L13.7469882,22.2628165 L13.7469882,27.7522781 L25.3517592,27.7527281 C23.1727797,30.2749328 20.1848139,32.1346544 16.6748186,32.8880751 C15.5794711,33.1231915 14.4623187,33.2417397 13.3420214,33.2417397 L4.61899809e-13,33.2417397 L4.61899809e-13,9.91152782 L27.4939764,9.91152782 Z" id="Combined-Shape"></path>
                                    <path d="M58.5845295,9.91152782 C72.6001811,9.91152782 85.8328129,16.3298335 94.5095865,27.3106178 L94.8542187,27.7522781 L81.1072305,27.7522781 C78.5107722,31.2083462 74.4398354,33.2417397 70.1171045,33.2417397 L53.613254,33.2417397 L42.6156635,9.91152782 L58.5845295,9.91152782 Z M75.6177688,22.2628165 L68.7349411,22.2628165 L68.7349411,27.7522781 L81.1072305,27.7522781 C81.1072305,24.7205322 78.6495148,22.2628165 75.6177688,22.2628165 Z" id="Combined-Shape"></path>
                                    <polygon id="Path-13" transform="translate(43.584744, 74.097842) rotate(-10.000000) translate(-43.584744, -74.097842) " points="25.0276879 78.2048289 62.1418011 78.2204528 49.7669554 69.9804397 44.2703055 74.0955276 37.3955843 69.9752317"></polygon>
                                    <path d="M45.1745735,79.4877108 L67.1533347,79.5190907 C62.1365536,85.5681385 53.1659269,86.4049562 47.116879,81.3881751 C46.6806598,81.0263965 46.2664431,80.6388808 45.8764426,80.227699 L45.1745735,79.4877108 L45.1745735,79.4877108 Z" id="Path-14" transform="translate(56.163954, 85.676349) rotate(-30.000000) translate(-56.163954, -85.676349) "></path>
                                </g>
                            </g>
                            <ellipse id="Oval" fill="#F5B700" cx="77.6704834" cy="57.4362705" rx="17.1837353" ry="17.1545676"></ellipse>
                            <path d="M0.50783383,40.7358237 C8.096917,42.5153944 13.7469882,49.31713 13.7469882,57.4362705 C13.7469882,65.555411 8.096917,72.3571466 0.50783383,74.1367173 L0.50783383,40.7358237 Z" id="Path" fill="#F5B700"></path>
                        </g>
                        <path d="M0,22 C0,22 7.37053009,38.2032514 22.1115903,70.6097542 L169.522192,70.6097542 L191,22 C63.6666667,22 0,22 0,22 Z" id="Path-12" fill="#038225"></path>
                        <path d="M138.286081,77.6707296 C131.160242,89.5774802 127.064649,103.505333 127.064649,118.389651 C127.064649,152.672631 148.792467,181.881403 179.230214,192.999995 L162.259034,192.999995 C136.81192,177.887808 119.75666,150.13023 119.75666,118.389651 C119.75666,103.672546 123.423343,89.8117401 129.893113,77.6707296 L138.286081,77.6707296 Z M149.779404,77.670943 C141.533138,89.1314199 136.676283,103.193412 136.676283,118.389651 C136.676283,151.507907 159.553067,178.649266 190.5,185.804832 L190.5,193.656114 L186.949814,192.999884 C153.81895,184.352288 129.368294,154.226012 129.368294,118.389651 C129.368294,103.442176 133.622106,89.4881166 140.985336,77.670943 L149.779404,77.670943 Z M22.1561542,176.766618 L22.1561542,185.183393 C15.3151092,188.798174 7.86594398,191.428145 0.000460978834,192.882781 L0.000460978834,185.425166 C7.95989105,183.790995 15.427638,180.822832 22.1561542,176.766618 Z M161.303514,77.6707407 C151.952916,88.3724677 146.287917,102.376339 146.287917,117.703186 C146.287917,145.613623 164.881544,169.13694 190.5,176.321588 L190.5,183.880409 C160.800859,176.511537 138.979928,149.677711 138.979928,117.703186 C138.979928,102.745246 143.797248,88.9123196 151.965239,77.6707407 L161.303514,77.6707407 Z M22.155721,164.809569 L22.1554004,173.740214 C15.4744804,178.010868 8.00028015,181.164111 0.000777861591,182.933903 L0.000342710135,175.413519 C8.15604551,173.377141 15.6635977,169.72095 22.155721,164.809569 Z M164.408845,77.6714791 L170.095734,77.6714791 L170.094284,82.2949824 C161.300429,91.497979 155.899551,103.969934 155.899551,117.703184 C155.899551,140.251682 170.267975,159.399974 190.5,166.2617 L190.5,173.924842 C166.170379,166.807714 148.591562,144.330469 148.591562,117.703184 C148.591562,102.222103 154.598439,88.1438387 164.408845,77.6714791 Z M22.1556106,151.970024 L22.1556106,161.876157 C15.7439879,167.037269 8.22185987,170.891865 0.00022436476,173.031752 L0.00022436476,165.428159 C8.52591874,162.862062 16.1199437,158.168587 22.1556106,151.970024 Z M170.095347,87.0911601 L170.094966,100.06199 C167.164919,105.762243 165.511185,112.226077 165.511185,119.076115 C165.511185,136.228302 175.688096,150.959067 190.5,157.343886 L190.5,165.195168 C171.563001,158.430267 158.203196,140.335567 158.203196,119.076115 C158.203196,106.850177 162.684947,95.6708857 170.095347,87.0911601 Z M22.1561682,135.736223 L22.1561682,148.563308 C16.3024219,155.206041 8.67153864,160.266087 0,163.01229 L0.000729374165,155.259562 C9.55179492,151.627454 17.426653,144.633445 22.1561682,135.736223 Z" id="Shape" fill="#00B832"></path>
                        <g id="Oval-+-0-+-1-+-2-+-Oval-Mask" transform="translate(0.000000, 135.570728)"></g>
                        <g id="Oval" transform="translate(45.201089, 0.000000)" fill="#044917">
                            <path d="M50.0278965,2.52705303e-14 C69.1401021,2.52705303e-14 86.5632957,7.21025904 99.710538,19.0514434 L0.345579614,19.0511509 C13.4927841,7.21014032 30.9158482,2.52705303e-14 50.0278965,2.52705303e-14 Z" id="Combined-Shape"></path>
                        </g>
                    </g>
                </g>
                <g id="Group-2" transform="translate(95.500000, 251.500000) scale(-1, -1) translate(-95.500000, -251.500000) translate(0.000000, 155.000000)">
                    <g id="Group">
                        <g id="Group-17" transform="translate(21.658855, 87.085364)">
                            <g transform="translate(0.000000, 0.178136)" fill="#00B832" id="Group-19">
                                <g transform="translate(-0.000000, -0.000000)">
                                    <path d="M14.3429858,0.0838187734 C25.0944846,0.0838187734 33.8102965,8.78483644 33.8102965,19.5180857 C33.8102965,21.020428 33.6357982,22.5171363 33.2906797,23.9782849 L33.1693263,24.4639764 L25.5762706,53.264549 L35.3069582,56.5029998 L33.4279801,62.1303652 L18.4132024,57.1339341 L27.4231147,22.9543822 C27.7187707,21.8327965 27.8684468,20.6778574 27.8684468,19.5180857 C27.8684468,12.1446483 21.9482071,6.15160996 14.5942381,6.01786581 L14.3429858,6.01558279 L4.79007209e-13,6.01558279 L4.79007209e-13,0.0838187734 L14.3429858,0.0838187734 Z" id="Path-9" fill-rule="nonzero"></path>
                                    <path d="M64.4219639,0.0838187734 C73.9543197,0.0838187734 83.1901974,3.36258948 90.5784621,9.35949589 L90.9656037,9.67762934 L96.7561584,14.4949006 L92.952279,19.051808 L87.1617243,14.2345368 C80.8963468,9.02225143 73.0289902,6.12412232 64.8833275,6.01857168 L64.4219639,6.01558279 L42.6156635,6.01558279 L42.6156635,0.0838187734 L64.4219639,0.0838187734 Z" id="Path-9" fill-rule="nonzero"></path>
                                    <path d="M49.1585066,50.5873832 C51.8528367,50.5324902 54.1386341,52.5504675 54.4135907,55.2267447 C54.6990739,58.0054804 52.7232227,60.4954061 49.9727394,60.8731025 L49.7922771,60.8947214 L49.2029256,60.9550651 L34.8884803,56.6680206 L36.5958584,50.9864211 L49.244001,54.7733885 L49.1585066,50.5873832 Z M49.1860369,54.9939127 C48.7655394,55.0369674 48.459621,55.4121722 48.5027489,55.8319559 C48.5402757,56.1972203 48.8311354,56.4795496 49.1889916,56.51444 L49.2797436,56.5179124 L49.263094,55.7424309 L49.1860369,54.9939127 Z" id="Path-10" fill-rule="nonzero"></path>
                                    <path d="M27.4939764,9.91152782 L28.8686752,14.028624 C29.8718396,18.7021115 28.7066764,23.3365484 26.0505467,26.884304 C25.6348326,24.2648764 23.3661274,22.2628165 20.629816,22.2628165 L13.7469882,22.2628165 L13.7469882,27.7522781 L25.3517592,27.7527281 C23.1727797,30.2749328 20.1848139,32.1346544 16.6748186,32.8880751 C15.5794711,33.1231915 14.4623187,33.2417397 13.3420214,33.2417397 L4.61899809e-13,33.2417397 L4.61899809e-13,9.91152782 L27.4939764,9.91152782 Z" id="Combined-Shape"></path>
                                    <path d="M58.5845295,9.91152782 C72.6001811,9.91152782 85.8328129,16.3298335 94.5095865,27.3106178 L94.8542187,27.7522781 L81.1072305,27.7522781 C78.5107722,31.2083462 74.4398354,33.2417397 70.1171045,33.2417397 L53.613254,33.2417397 L42.6156635,9.91152782 L58.5845295,9.91152782 Z M75.6177688,22.2628165 L68.7349411,22.2628165 L68.7349411,27.7522781 L81.1072305,27.7522781 C81.1072305,24.7205322 78.6495148,22.2628165 75.6177688,22.2628165 Z" id="Combined-Shape"></path>
                                    <polygon id="Path-13" transform="translate(43.584744, 74.097842) rotate(-10.000000) translate(-43.584744, -74.097842) " points="25.0276879 78.2048289 62.1418011 78.2204528 49.7669554 69.9804397 44.2703055 74.0955276 37.3955843 69.9752317"></polygon>
                                    <path d="M45.1745735,79.4877108 L67.1533347,79.5190907 C62.1365536,85.5681385 53.1659269,86.4049562 47.116879,81.3881751 C46.6806598,81.0263965 46.2664431,80.6388808 45.8764426,80.227699 L45.1745735,79.4877108 L45.1745735,79.4877108 Z" id="Path-14" transform="translate(56.163954, 85.676349) rotate(-30.000000) translate(-56.163954, -85.676349) "></path>
                                </g>
                            </g>
                            <ellipse id="Oval" fill="#F5B700" cx="77.6704834" cy="57.4362705" rx="17.1837353" ry="17.1545676"></ellipse>
                            <path d="M0.50783383,40.7358237 C8.096917,42.5153944 13.7469882,49.31713 13.7469882,57.4362705 C13.7469882,65.555411 8.096917,72.3571466 0.50783383,74.1367173 L0.50783383,40.7358237 Z" id="Path" fill="#F5B700"></path>
                        </g>
                        <path d="M0,22 C0,22 7.37053009,38.2032514 22.1115903,70.6097542 L169.522192,70.6097542 L191,22 C63.6666667,22 0,22 0,22 Z" id="Path-12" fill="#038225"></path>
                        <path d="M138.286081,77.6707296 C131.160242,89.5774802 127.064649,103.505333 127.064649,118.389651 C127.064649,152.672631 148.792467,181.881403 179.230214,192.999995 L162.259034,192.999995 C136.81192,177.887808 119.75666,150.13023 119.75666,118.389651 C119.75666,103.672546 123.423343,89.8117401 129.893113,77.6707296 L138.286081,77.6707296 Z M149.779404,77.670943 C141.533138,89.1314199 136.676283,103.193412 136.676283,118.389651 C136.676283,151.507907 159.744702,179.238879 190.692093,186.394445 L190.692093,192.998496 L186.949814,192.999884 C153.81895,184.352288 129.368294,154.226012 129.368294,118.389651 C129.368294,103.442176 133.622106,89.4881166 140.985336,77.670943 L149.779404,77.670943 Z M22.1561542,176.766618 L22.1561542,185.183393 C15.3151092,188.798174 7.86594398,191.428145 0.000460978834,192.882781 L0.000460978834,185.425166 C7.95989105,183.790995 15.427638,180.822832 22.1561542,176.766618 Z M161.303514,77.6707407 C151.952916,88.3724677 146.287917,102.376339 146.287917,117.703186 C146.287917,145.613623 165.073621,169.13694 190.692077,176.321588 L190.692077,183.880409 C160.992467,176.511537 138.979928,149.677711 138.979928,117.703186 C138.979928,102.745246 143.797248,88.9123196 151.965239,77.6707407 L161.303514,77.6707407 Z M22.155721,164.809569 L22.1554004,173.740214 C15.4744804,178.010868 8.00028015,181.164111 0.000777861591,182.933903 L0.000342710135,175.413519 C8.15604551,173.377141 15.6635977,169.72095 22.155721,164.809569 Z M164.408845,77.6714791 L170.095734,77.6714791 L170.094284,82.2949824 C161.300429,91.497979 155.899551,103.969934 155.899551,117.703184 C155.899551,140.251682 170.459267,159.399974 190.691692,166.2617 L190.691692,173.924842 C166.362071,166.807714 148.591562,144.330469 148.591562,117.703184 C148.591562,102.222103 154.598439,88.1438387 164.408845,77.6714791 Z M22.1556106,151.970024 L22.1556106,161.876157 C15.7439879,167.037269 8.22185987,170.891865 0.00022436476,173.031752 L0.00022436476,165.428159 C8.52591874,162.862062 16.1199437,158.168587 22.1556106,151.970024 Z M170.095347,87.0911601 L170.094966,100.06199 C167.164919,105.762243 165.511185,112.226077 165.511185,119.076115 C165.511185,136.228302 175.879747,150.959067 190.691698,157.343886 L190.691698,165.195168 C171.754699,158.430267 158.203196,140.335567 158.203196,119.076115 C158.203196,106.850177 162.684947,95.6708857 170.095347,87.0911601 Z M22.1561682,135.736223 L22.1561682,148.563308 C16.3024219,155.206041 8.67153864,160.266087 0,163.01229 L0.000729374165,155.259562 C9.55179492,151.627454 17.426653,144.633445 22.1561682,135.736223 Z" id="Shape" fill="#00B832"></path>
                        <g id="Oval-+-0-+-1-+-2-+-Oval-Mask" transform="translate(0.000000, 135.570728)"></g>
                        <g id="Oval" transform="translate(45.201089, 0.000000)" fill="#044917">
                            <path d="M50.0278965,2.52705303e-14 C69.1401021,2.52705303e-14 86.5632957,7.21025904 99.710538,19.0514434 L0.345579614,19.0511509 C13.4927841,7.21014032 30.9158482,2.52705303e-14 50.0278965,2.52705303e-14 Z" id="Combined-Shape"></path>
                        </g>
                    </g>
                </g>
                <g id="Group-3" transform="translate(2.000000, 0.000000)">
                    <g id="Group-4">
                        <g id="paygage-symbol" transform="translate(46.000000, 34.500000)">
                            <path d="M7.7527881,34.5 L89.2472119,34.5 C93.5289585,34.5 97,38.0393327 97,42.4053208 L97,95.685133 C97,100.051121 93.5289585,103.590454 89.2472119,103.590454 L81.2383679,103.590454 L81.2437783,118.052779 C81.2441804,119.127789 80.390941,120 79.3380146,120 C78.9297159,120 78.5321526,119.866485 78.2038462,119.618653 L56.9710093,103.590454 L7.7527881,103.590454 C3.47104147,103.590454 0,100.051121 0,95.685133 L0,42.4053208 C0,38.0393327 3.47104147,34.5 7.7527881,34.5 Z" id="Rectangle" fill="#044917"></path>
                            <path d="M6.55390335,32.4912745 L75.4460967,18.6118629 C79.0657175,17.8826336 82,20.7952781 82,25.1174366 L82,77.8623788 C82,82.1845373 79.0657175,86.2794962 75.4460967,87.0087255 L6.55390335,100.888137 C2.93428248,101.617366 0,98.7047219 0,94.3825634 L0,41.6376212 C0,37.3154627 2.93428248,33.2205038 6.55390335,32.4912745 Z" id="Rectangle" fill="#038225"></path>
                            <path d="M5.51486989,29.104031 L63.4851301,0.465896332 C66.5309086,-1.03876167 69,1.22136125 69,5.51402216 L69,57.8989946 C69,62.1916555 66.5309086,66.891311 63.4851301,68.395969 L5.51486989,97.0341037 C2.46909135,98.5387617 0,96.2786387 0,91.9859778 L0,39.6010054 C0,35.3083445 2.46909135,30.608689 5.51486989,29.104031 Z" id="Rectangle" fill="#00B832"></path>
                        </g>
                        <rect id="Rectangle" x="0" y="0" width="189" height="189"></rect>
                    </g>
                </g>
                <g id="Group-3" transform="translate(186.000000, 181.000000)">
                    <g id="Group-4">
                        <g id="paygage-symbol" transform="translate(46.000000, 34.500000)">
                            <path d="M7.7527881,34.5 L89.2472119,34.5 C93.5289585,34.5 97,38.0393327 97,42.4053208 L97,95.685133 C97,100.051121 93.5289585,103.590454 89.2472119,103.590454 L81.2383679,103.590454 L81.2437783,118.052779 C81.2441804,119.127789 80.390941,120 79.3380146,120 C78.9297159,120 78.5321526,119.866485 78.2038462,119.618653 L56.9710093,103.590454 L7.7527881,103.590454 C3.47104147,103.590454 0,100.051121 0,95.685133 L0,42.4053208 C0,38.0393327 3.47104147,34.5 7.7527881,34.5 Z" id="Rectangle" fill="#044917"></path>
                            <path d="M6.55390335,32.4912745 L75.4460967,18.6118629 C79.0657175,17.8826336 82,20.7952781 82,25.1174366 L82,77.8623788 C82,82.1845373 79.0657175,86.2794962 75.4460967,87.0087255 L6.55390335,100.888137 C2.93428248,101.617366 0,98.7047219 0,94.3825634 L0,41.6376212 C0,37.3154627 2.93428248,33.2205038 6.55390335,32.4912745 Z" id="Rectangle" fill="#038225"></path>
                            <path d="M5.51486989,29.104031 L63.4851301,0.465896332 C66.5309086,-1.03876167 69,1.22136125 69,5.51402216 L69,57.8989946 C69,62.1916555 66.5309086,66.891311 63.4851301,68.395969 L5.51486989,97.0341037 C2.46909135,98.5387617 0,96.2786387 0,91.9859778 L0,39.6010054 C0,35.3083445 2.46909135,30.608689 5.51486989,29.104031 Z" id="Rectangle" fill="#00B832"></path>
                        </g>
                        <rect id="Rectangle" x="0" y="0" width="189" height="189"></rect>
                    </g>
                </g>
            </g>
        </g>
        <g id="Group-4" transform="translate(381.000000, 373.000000)">
            <g id="paygage-symbol" transform="translate(92.000000, 69.000000)">
                <path d="M15.5055762,69 L178.494424,69 C187.057917,69 194,76.0786654 194,84.8106416 L194,191.370266 C194,200.102242 187.057917,207.180908 178.494424,207.180908 L162.476736,207.180908 L162.487557,236.105559 C162.488361,238.255578 160.781882,240 158.676029,240 C157.859432,240 157.064305,239.732969 156.407692,239.237307 L113.942019,207.180908 L15.5055762,207.180908 C6.94208293,207.180908 0,200.102242 0,191.370266 L0,84.8106416 C0,76.0786654 6.94208293,69 15.5055762,69 Z" id="Rectangle" fill="#044917"></path>
                <path d="M13.1078067,64.982549 L150.892193,37.2237258 C158.131435,35.7652671 164,41.5905562 164,50.2348731 L164,155.724758 C164,164.369075 158.131435,172.558992 150.892193,174.017451 L13.1078067,201.776274 C5.86856495,203.234733 0,197.409444 0,188.765127 L0,83.2752424 C0,74.6309255 5.86856495,66.4410077 13.1078067,64.982549 Z" id="Rectangle" fill="#038225"></path>
                <path d="M11.0297398,58.2080619 L126.97026,0.931792663 C133.061817,-2.07752334 138,2.4427225 138,11.0280443 L138,115.797989 C138,124.383311 133.061817,133.782622 126.97026,136.791938 L11.0297398,194.068207 C4.9381827,197.077523 0,192.557277 0,183.971956 L0,79.2020108 C0,70.616689 4.9381827,61.2173779 11.0297398,58.2080619 Z" id="Rectangle" fill="#00B832"></path>
            </g>
            <rect id="Rectangle" x="0" y="0" width="378" height="378"></rect>
        </g>
    </g>
</svg>