<?xml version="1.0" encoding="UTF-8"?>
<svg width="756px" height="756px" viewBox="0 0 756 756" version="1.1" xmlns="http://www.w3.org/2000/svg" xmlns:xlink="http://www.w3.org/1999/xlink">
    <!-- Generator: Sketch 61.1 (89650) - https://sketch.com -->
    <title>merchants-paygage-4</title>
    <desc>Created with Sketch.</desc>
    <g id="merchants-paygage-4" stroke="none" stroke-width="1" fill="none" fill-rule="evenodd">
        <g id="Group" transform="translate(382.000000, 0.000000)">
            <g id="Group-2" transform="translate(89.000000, 56.000000)">
                <path d="M39,125 L39,59 C39,26.4151998 65.4151998,5.9857307e-15 98,0 C130.5848,-5.9857307e-15 157,26.4151998 157,59 L157,125 L157,125" id="Path-17" stroke="#038225" stroke-width="22.322292" stroke-linecap="round" stroke-linejoin="round"></path>
                <g id="Group-4" transform="translate(0.000000, 87.000000)" fill="#044917">
                    <g id="paygage-symbol" transform="translate(0.875000, 0.250000)">
                        <path d="M178.724442,-8.52651283e-14 C187.298971,-8.52651283e-14 194.25,7.08419556 194.25,15.8229937 L194.25,122.465868 C194.25,131.204666 187.298971,138.288861 178.724442,138.288861 L162.686113,138.288861 L162.696948,167.23611 C162.697753,169.387809 160.989075,171.133594 158.880509,171.133594 C158.062859,171.133594 157.266708,170.866354 156.609249,170.370305 L114.088851,138.288861 L15.5255576,138.288861 C6.95102891,138.288861 0,131.204666 0,122.465868 L0,15.8229937 C0,7.08419556 6.95102891,-8.52651283e-14 15.5255576,-8.52651283e-14 L178.724442,-8.52651283e-14 Z M97.125,25.6960937 C86.079305,25.6960937 77.125,34.6503988 77.125,45.6960937 C77.125,52.3008557 80.3265488,58.1578558 85.2624069,61.7998547 L85.2624069,61.7998547 L78.5826298,99.4741508 C78.5111156,99.8775353 78.4751515,100.286419 78.4751515,100.696094 C78.4751515,104.562087 81.6091582,107.696094 85.4751515,107.696094 L85.4751515,107.696094 L108.835401,107.696094 C109.228312,107.696094 109.620527,107.663012 110.007888,107.5972 C113.819264,106.949654 116.384054,103.334983 115.736507,99.5236066 L115.736507,99.5236066 L109.288666,61.5733091 C114.053248,57.9176324 117.125,52.1655862 117.125,45.6960937 C117.125,34.6503988 108.170695,25.6960937 97.125,25.6960937 Z" id="Combined-Shape"></path>
                    </g>
                </g>
            </g>
            <g id="Group-3">
                <g id="Group-4" transform="translate(0.000000, 0.000000)">
                    <rect id="Rectangle" x="0" y="0" width="373.533358" height="372.534606"></rect>
                </g>
            </g>
        </g>
        <g id="Group-6" transform="translate(140.000000, 485.000000)" stroke="#00B832" stroke-linecap="round" stroke-linejoin="round" stroke-width="22.322292">
            <line x1="48.5" y1="0" x2="48.5" y2="133" id="Path-18"></line>
            <rect id="Rectangle" x="0" y="136" width="96" height="54" rx="27"></rect>
            <line x1="67" y1="-8" x2="67" y2="29" id="Path-18" transform="translate(67.000000, 10.500000) rotate(-90.000000) translate(-67.000000, -10.500000) "></line>
            <line x1="61" y1="36" x2="61" y2="61" id="Path-18" transform="translate(61.000000, 48.500000) rotate(-90.000000) translate(-61.000000, -48.500000) "></line>
        </g>
        <g id="Group-7" transform="translate(378.000000, 375.500000) scale(-1, -1) translate(-378.000000, -375.500000) translate(-202.000000, 30.000000)">
            <g id="Group-5" transform="translate(290.000000, 201.000000) scale(-1, 1) translate(-290.000000, -201.000000) ">
                <g id="Group-3">
                    <g id="Group">
                        <path d="M48,57.9187972 L48,109 L48,109 L62.9722709,127.923949 L220.500004,127.978151 C255.558018,127.990214 283.987933,99.5798563 283.999996,64.5218415 C283.999999,64.514561 284,64.5072805 284,64.5 L284,58 C283.980384,26.5274282 258.472567,1.01083244 227.000003,0.980387466 L104.999997,0.938409758 C73.5197745,0.907968895 47.9912259,26.4189558 47.9803942,57.8991847 C47.980392,57.9057222 47.9803908,57.9122597 48,57.9187972 Z" id="Path-12" fill="#044917"></path>
                        <g id="Group-17" transform="translate(43.000000, 58.974939)">
                            <g id="Group-18" transform="translate(193.193337, 0.095820)"></g>
                            <g transform="translate(0.000000, 109.772493)" fill="#00B832">
                                <path d="M28.2551764,0.165648008 C49.4352501,0.165648008 66.6050922,17.3611543 66.6050922,38.5728862 C66.6050922,41.541911 66.2613367,44.4998013 65.5814655,47.3874165 L65.3424035,48.3472709 L50.3843514,105.2648 L69.553463,111.664833 L65.8519424,122.785992 L36.2733596,112.911726 L54.0225693,45.3639146 C54.6050012,43.1473653 54.8998578,40.8649011 54.8998578,38.5728862 C54.8998578,24.0010288 43.2371942,12.1572041 28.7501346,11.8928904 L28.2551764,11.8883785 L0,11.8883785 L0,0.165648008 L28.2551764,0.165648008 Z" id="Path-9" fill-rule="nonzero"></path>
                                <path d="M126.908998,0.165648008 C145.687403,0.165648008 163.881756,6.64536387 178.436377,18.4968329 L179.199033,19.1255485 L190.606221,28.6457474 L183.112713,37.6513985 L171.705524,28.1311997 C159.362951,17.8303489 143.864536,12.1028813 127.817868,11.8942853 L126.908998,11.8883785 L83.9513547,11.8883785 L83.9513547,0.165648008 L126.908998,0.165648008 Z" id="Path-9" fill-rule="nonzero"></path>
                                <path d="M96.840525,99.9740142 C102.14826,99.8655312 106.651201,103.853587 107.192856,109.142616 C107.755247,114.634131 103.86289,119.554881 98.444535,120.301309 L98.0890306,120.344034 L96.928029,120.463289 L68.7290764,111.990958 L72.0925509,100.762618 L97.0089459,108.246665 L96.840525,99.9740142 Z M96.8947588,108.682479 C96.0663936,108.767566 95.463745,109.50907 95.5487055,110.338673 C95.6226318,111.060532 96.1956153,111.618489 96.9005794,111.687442 L97.0793576,111.694304 L97.0465586,110.161748 L96.8947588,108.682479 Z" id="Path-10" fill-rule="nonzero"></path>
                                <path d="M54.1621643,19.5877936 L56.8702725,27.7242619 C58.8437347,36.9475178 56.5473757,46.0910821 51.3136639,53.0970653 C50.477218,47.936658 46.00138,43.9971983 40.6054318,43.9971983 L27.0810822,43.9971983 L27.0810822,54.8458226 L49.9068789,54.8468056 C45.5943805,59.8360975 39.6806806,63.5132781 32.734861,64.9994466 C30.5754304,65.4614911 28.3732828,65.6944469 26.1649744,65.6944469 L0,65.6944469 L0,19.5877936 L54.1621643,19.5877936 Z" id="Combined-Shape"></path>
                                <path d="M115.320386,19.5877936 C143.069128,19.5877936 169.257013,32.3577304 186.344459,54.181722 L186.859467,54.8458226 L159.778385,54.8458226 C154.664488,61.6745438 146.63188,65.6944469 138.100562,65.6944469 L105.61622,65.6944469 L83.9513547,19.5877936 L115.320386,19.5877936 Z M148.92976,43.9971983 L135.405411,43.9971983 L135.405411,54.8458226 L159.778385,54.8458226 C159.778385,48.8542929 154.92129,43.9971983 148.92976,43.9971983 Z" id="Combined-Shape"></path>
                            </g>
                            <ellipse id="Oval" fill="#F5B700" cx="153.008114" cy="222.929671" rx="33.8513527" ry="33.9019509"></ellipse>
                            <g id="Group-2" transform="translate(51.413055, 247.604007)" fill="#00B832">
                                <polygon id="Path-13" points="1 16.2729365 74.1189218 16.2729365 49.7459479 0 38.913515 8.13646823 25.3729739 0"></polygon>
                                <path d="M0.916675972,15.421054 L80.916676,15.421054 C62.624918,37.4691551 29.9230009,40.5142729 7.87489984,22.2225149 C6.28475683,20.9032852 4.77485473,19.4902269 3.3532641,17.990893 L0.916675972,15.421054 L0.916675972,15.421054 Z" id="Path-14"></path>
                            </g>
                            <path d="M1.00041474,189.925183 C15.950641,193.442084 27.0810822,206.884108 27.0810822,222.929671 C27.0810822,238.975234 15.950641,252.417258 1.00041474,255.934159 L1.00041474,189.925183 Z" id="Path" fill="#F5B700"></path>
                        </g>
                        <path d="M83.6153846,138.944308 L83.6153846,138.944308 L83.6153846,138.944308 L229.975257,138.982221 C271.329198,138.992934 308.423831,113.547856 323.303562,74.963635 L335.615385,43.0381888 L335.615385,43.0381888 L179.577193,43.0037044 C126.590661,42.9919943 83.627097,85.9365728 83.615387,138.923105 C83.6153854,138.930173 83.6153846,138.93724 83.6153846,138.944308 Z" id="Path-12" fill="#BEEF9E"></path>
                        <path d="M11,115.982518 L11,138.944308 L11,138.944308 C46.4532228,138.976011 76.2580899,112.339339 80.1942282,77.105281 L84,43.0381888 L84,43.0381888 C43.7139594,43.0074544 11.0307556,75.6408278 11.0000212,115.926868 C11.0000071,115.945418 11,115.963968 11,115.982518 Z" id="Path-12" fill="#BEEF9E" transform="translate(47.500000, 90.991248) scale(-1, 1) translate(-47.500000, -90.991248) "></path>
                        <path d="M256.184994,149.935712 L272.738081,149.937047 C258.684183,173.456991 250.606679,200.970606 250.606679,230.373644 C250.606679,298.098529 293.460477,355.799413 353.49269,377.762535 L320.021323,377.763847 C269.831729,347.910677 236.193337,293.076366 236.193337,230.373644 C236.193337,201.300848 243.424964,173.919614 256.184994,149.935712 Z M295.406519,149.935559 C279.142539,172.575224 269.563437,200.354102 269.563437,230.373644 C269.563437,295.797277 315.060776,350.578553 376.096689,364.713927 L376.097311,377.759849 L368.716038,377.762467 C303.373203,360.679387 255.150094,301.166488 255.150094,230.373644 C255.150094,200.845527 263.539824,173.279865 278.062206,149.937111 L295.406519,149.935559 Z M43.6980459,345.694877 L43.6979577,362.321704 C30.2061281,369.462291 15.5147752,374.657538 0.00236991795,377.531104 L0.00206806827,362.799062 C15.6995874,359.570872 30.4277702,353.707537 43.6980459,345.694877 Z M318.134633,149.935847 C299.692951,171.076538 288.520194,198.740333 288.520194,229.017566 C288.520194,284.153111 325.57046,330.622169 376.09676,344.81527 L376.096123,359.747448 C317.521454,345.190512 274.106852,292.181629 274.106852,229.017566 C274.106852,199.468834 283.607941,172.142517 299.717479,149.93558 L318.134633,149.935847 Z M43.6977141,322.073985 L43.6963165,339.716535 C30.5198372,348.152809 15.778845,354.381739 0.00184516524,357.877795 L0.0013761932,343.021548 C16.0866035,338.998778 30.8935055,331.77616 43.6977141,322.073985 Z M324.260014,149.936396 L335.475687,149.938739 L335.473814,159.069318 C318.129357,177.249497 307.476952,201.887669 307.476952,229.017562 C307.476952,273.560974 336.192583,311.387461 376.095545,324.942526 L376.095574,340.080481 C328.111427,326.020629 293.063609,281.618144 293.063609,229.017562 C293.063609,198.435207 304.910976,170.624088 324.260014,149.936396 Z M43.6974365,296.709877 L43.6975532,316.279124 C31.0521211,326.474637 16.2164786,334.089204 0.00155219708,338.316461 L0.00138638539,323.29587 C16.8163304,318.22662 31.7937656,308.954857 43.6974365,296.709877 Z M335.474057,168.545977 L335.473988,194.168583 C329.695253,205.429074 326.433709,218.197942 326.433709,231.729722 C326.433709,265.612796 346.883029,294.712536 376.095787,307.325593 L376.095427,322.83531 C338.74709,309.471261 312.020367,273.726337 312.020367,231.729722 C312.020367,207.578444 320.85925,185.494683 335.474057,168.545977 Z M43.6982593,264.640983 L43.6988604,289.979979 C32.1538186,303.102325 17.1038222,313.098207 0.00138018534,318.523292 L0.00175021035,303.208508 C18.8391837,296.033487 34.3706616,282.217108 43.6982593,264.640983 Z" id="Combined-Shape" fill="#BEEF9E"></path>
                        <g id="Oval-+-0-+-1-+-2-+-Oval-Mask" transform="translate(0.000000, 263.893389)"></g>
                    </g>
                </g>
            </g>
            <g id="Group-5" transform="translate(870.000000, 485.000000) scale(1, -1) translate(-870.000000, -485.000000) translate(580.000000, 279.000000)">
                <g id="Group-3" transform="translate(0.000000, 68.000000)">
                    <g id="Group">
                        <g id="Group-17" transform="translate(43.000000, 0.974939)">
                            <g id="Group-18" transform="translate(193.193337, 0.095820)"></g>
                            <g transform="translate(0.000000, 109.772493)" fill="#00B832">
                                <path d="M28.2551764,0.165648008 C49.4352501,0.165648008 66.6050922,17.3611543 66.6050922,38.5728862 C66.6050922,41.541911 66.2613367,44.4998013 65.5814655,47.3874165 L65.3424035,48.3472709 L50.3843514,105.2648 L69.553463,111.664833 L65.8519424,122.785992 L36.2733596,112.911726 L54.0225693,45.3639146 C54.6050012,43.1473653 54.8998578,40.8649011 54.8998578,38.5728862 C54.8998578,24.0010288 43.2371942,12.1572041 28.7501346,11.8928904 L28.2551764,11.8883785 L0,11.8883785 L0,0.165648008 L28.2551764,0.165648008 Z" id="Path-9" fill-rule="nonzero"></path>
                                <path d="M126.908998,0.165648008 C145.687403,0.165648008 163.881756,6.64536387 178.436377,18.4968329 L179.199033,19.1255485 L190.606221,28.6457474 L183.112713,37.6513985 L171.705524,28.1311997 C159.362951,17.8303489 143.864536,12.1028813 127.817868,11.8942853 L126.908998,11.8883785 L83.9513547,11.8883785 L83.9513547,0.165648008 L126.908998,0.165648008 Z" id="Path-9" fill-rule="nonzero"></path>
                                <path d="M96.840525,99.9740142 C102.14826,99.8655312 106.651201,103.853587 107.192856,109.142616 C107.755247,114.634131 103.86289,119.554881 98.444535,120.301309 L98.0890306,120.344034 L96.928029,120.463289 L68.7290764,111.990958 L72.0925509,100.762618 L97.0089459,108.246665 L96.840525,99.9740142 Z M96.8947588,108.682479 C96.0663936,108.767566 95.463745,109.50907 95.5487055,110.338673 C95.6226318,111.060532 96.1956153,111.618489 96.9005794,111.687442 L97.0793576,111.694304 L97.0465586,110.161748 L96.8947588,108.682479 Z" id="Path-10" fill-rule="nonzero"></path>
                                <path d="M54.1621643,19.5877936 L56.8702725,27.7242619 C58.8437347,36.9475178 56.5473757,46.0910821 51.3136639,53.0970653 C50.477218,47.936658 46.00138,43.9971983 40.6054318,43.9971983 L27.0810822,43.9971983 L27.0810822,54.8458226 L49.9068789,54.8468056 C45.5943805,59.8360975 39.6806806,63.5132781 32.734861,64.9994466 C30.5754304,65.4614911 28.3732828,65.6944469 26.1649744,65.6944469 L0,65.6944469 L0,19.5877936 L54.1621643,19.5877936 Z" id="Combined-Shape"></path>
                                <path d="M115.320386,19.5877936 C143.069128,19.5877936 169.257013,32.3577304 186.344459,54.181722 L186.859467,54.8458226 L159.778385,54.8458226 C154.664488,61.6745438 146.63188,65.6944469 138.100562,65.6944469 L105.61622,65.6944469 L83.9513547,19.5877936 L115.320386,19.5877936 Z M148.92976,43.9971983 L135.405411,43.9971983 L135.405411,54.8458226 L159.778385,54.8458226 C159.778385,48.8542929 154.92129,43.9971983 148.92976,43.9971983 Z" id="Combined-Shape"></path>
                            </g>
                            <ellipse id="Oval" fill="#F5B700" cx="153.008114" cy="222.929671" rx="33.8513527" ry="33.9019509"></ellipse>
                            <g id="Group-2" transform="translate(51.413055, 247.604007)" fill="#00B832">
                                <polygon id="Path-13" points="1 16.2729365 74.1189218 16.2729365 49.7459479 0 38.913515 8.13646823 25.3729739 0"></polygon>
                                <path d="M0.916675972,15.421054 L80.916676,15.421054 C62.624918,37.4691551 29.9230009,40.5142729 7.87489984,22.2225149 C6.28475683,20.9032852 4.77485473,19.4902269 3.3532641,17.990893 L0.916675972,15.421054 L0.916675972,15.421054 Z" id="Path-14"></path>
                            </g>
                            <path d="M1.00041474,189.925183 C15.950641,193.442084 27.0810822,206.884108 27.0810822,222.929671 C27.0810822,238.975234 15.950641,252.417258 1.00041474,255.934159 L1.00041474,189.925183 Z" id="Path" fill="#F5B700"></path>
                        </g>
                        <path d="M256.184994,91.9357121 L272.738081,91.9370471 C258.684183,115.456991 250.606679,142.970606 250.606679,172.373644 C250.606679,240.098529 293.460477,297.799413 353.49269,319.762535 L320.021323,319.763847 C269.831729,289.910677 236.193337,235.076366 236.193337,172.373644 C236.193337,143.300848 243.424964,115.919614 256.184994,91.9357121 Z M295.406519,91.9355592 C279.142539,114.575224 269.563437,142.354102 269.563437,172.373644 C269.563437,237.797277 315.060776,292.578553 376.096689,306.713927 L376.097311,319.759849 L368.716038,319.762467 C303.373203,302.679387 255.150094,243.166488 255.150094,172.373644 C255.150094,142.845527 263.539824,115.279865 278.062206,91.9371112 L295.406519,91.9355592 Z M43.6980459,287.694877 L43.6979577,304.321704 C30.2061281,311.462291 15.5147752,316.657538 0.00236991795,319.531104 L0.00206806827,304.799062 C15.6995874,301.570872 30.4277702,295.707537 43.6980459,287.694877 Z M318.134633,91.935847 C299.692951,113.076538 288.520194,140.740333 288.520194,171.017566 C288.520194,226.153111 325.57046,272.622169 376.09676,286.81527 L376.096123,301.747448 C317.521454,287.190512 274.106852,234.181629 274.106852,171.017566 C274.106852,141.468834 283.607941,114.142517 299.717479,91.9355804 L318.134633,91.935847 Z M43.6977141,264.073985 L43.6963165,281.716535 C30.5198372,290.152809 15.778845,296.381739 0.00184516524,299.877795 L0.0013761932,285.021548 C16.0866035,280.998778 30.8935055,273.77616 43.6977141,264.073985 Z M324.260014,91.9363959 L335.475687,91.9387387 L335.473814,101.069318 C318.129357,119.249497 307.476952,143.887669 307.476952,171.017562 C307.476952,215.560974 336.192583,253.387461 376.095545,266.942526 L376.095574,282.080481 C328.111427,268.020629 293.063609,223.618144 293.063609,171.017562 C293.063609,140.435207 304.910976,112.624088 324.260014,91.9363959 Z M43.6974365,238.709877 L43.6975532,258.279124 C31.0521211,268.474637 16.2164786,276.089204 0.00155219708,280.316461 L0.00138638539,265.29587 C16.8163304,260.22662 31.7937656,250.954857 43.6974365,238.709877 Z M335.474057,110.545977 L335.473988,136.168583 C329.695253,147.429074 326.433709,160.197942 326.433709,173.729722 C326.433709,207.612796 346.883029,236.712536 376.095787,249.325593 L376.095427,264.83531 C338.74709,251.471261 312.020367,215.726337 312.020367,173.729722 C312.020367,149.578444 320.85925,127.494683 335.474057,110.545977 Z M43.6982593,206.640983 L43.6988604,231.979979 C32.1538186,245.102325 17.1038222,255.098207 0.00138018534,260.523292 L0.00175021035,245.208508 C18.8391837,238.033487 34.3706616,224.217108 43.6982593,206.640983 Z" id="Combined-Shape" fill="#BEEF9E"></path>
                        <g id="Oval-+-0-+-1-+-2-+-Oval-Mask" transform="translate(0.000000, 205.893389)"></g>
                    </g>
                </g>
                <path d="M0,47.9824968 C0,47.9824968 14.5384615,79.9697672 43.6153846,143.944308 L334.384615,143.944308 L378,47.9824968 C126,47.9824968 0,47.9824968 0,47.9824968 Z" id="Path-12" fill="#044917"></path>
                <g id="Oval" transform="translate(96.000000, 0.961811)" fill="#044917">
                    <path d="M98.0127215,0.555774664 C135.716933,0.555774664 170.089098,14.7414637 196.025768,38.0381888 L-1.91846539e-12,38.0378969 C25.936632,14.7413452 60.3086676,0.555774664 98.0127215,0.555774664 Z" id="Combined-Shape"></path>
                </g>
            </g>
        </g>
    </g>
</svg>