<?xml version="1.0" encoding="UTF-8"?>
<svg width="1247px" height="1028px" viewBox="0 0 1247 1028" version="1.1" xmlns="http://www.w3.org/2000/svg" xmlns:xlink="http://www.w3.org/1999/xlink">
    <!-- Generator: Sketch 61.1 (89650) - https://sketch.com -->
    <title>Group 52</title>
    <desc>Created with Sketch.</desc>
    <g id="yet-another" stroke="none" stroke-width="1" fill="none" fill-rule="evenodd">
        <g id="Group-52" transform="translate(14.000000, 0.000000)">
            <g id="Group-20" transform="translate(55.000000, 762.000000)" stroke-linecap="round">
                <path d="M165.943488,127.393431 C116.443488,111.662803 21.1934875,116.157268 3.19348753,112.411881 C-14.8065125,108.666493 44.4434875,44.9949067 151.693488,44.9949067 C223.193488,44.9949067 277.193488,59.4770715 313.693488,88.4414012 L316.028276,108.60562 C340.97175,101.654812 353.443488,104.921106 353.443488,118.404501 C353.443488,131.887896 342.281677,139.93468 319.958055,142.544855 L326.443488,198.555792 L165.943488,202.30118 L165.943488,127.393431 Z" id="Path-8" stroke="#00B832" stroke-width="27.322292"></path>
                <path d="M117.190986,47.9764758 C136.655609,49.118686 133.601548,49.5492522 147.505421,35.9925682" id="Path-26" stroke="#044917" stroke-width="5.322292" stroke-linejoin="round"></path>
                <path d="M119.084841,57.941397 C134.392016,56.8493722 136.000159,51.0046546 146.494684,38.1364666" id="Path-27" stroke="#044917" stroke-width="5.322292" stroke-linejoin="round"></path>
                <path d="M153.186984,37.3793467 C157.035609,47.2268908 163.642377,47.907182 173.901976,47.0918947" id="Path-28" stroke="#044917" stroke-width="5.322292" stroke-linejoin="round"></path>
                <path d="M153.186984,37.5042588 C155.45081,54.7043176 151.445639,47.503222 166.324005,58.4461436" id="Path-29" stroke="#044917" stroke-width="5.322292" stroke-linejoin="round"></path>
                <path d="M126.79043,5.96779411 C145.025039,-10.7388702 154.39084,11.455931 152.431485,25.7727245 C150.065545,43.0603782 135.992732,56.4206672 122.747484,65.8873319 C122.565064,66.0177112 110.993673,73.8222513 107.591543,70.8073365 C99.4043287,63.5519544 102.650877,47.2423931 106.075438,37.5042588 C109.5,27.7661244 118.322301,13.7263468 126.79043,5.96779411 Z" id="Path-11" stroke="#212121" stroke-width="8.322292" stroke-linejoin="round"></path>
                <path d="M150.91538,42.1718901 C153.926494,32.930292 155.940219,21.2559976 164.177466,14.6733981 C181.886469,0.521672507 198.990485,5.19390008 194.111599,29.5583239 C191.443006,42.8848767 180.341524,58.6345959 170.619635,67.9063182 C157.996834,79.9446272 147.00454,63.4909393 148.893907,51.5071527 C149.810545,45.6931447 152.009494,40.1546032 153.567287,34.4783285" id="Path-15" stroke="#212121" stroke-width="8.322292" stroke-linejoin="round"></path>
                <path d="M212.552433,30.4403558 C216.703488,54.7757538 219.02481,73.3992226 235.286345,92.6312532 C259.119141,120.817588 312.068646,109.00882 334.182817,84.8102304" id="Path-19" stroke="#044917" stroke-width="5.322292" stroke-linejoin="round"></path>
                <path d="M232.887122,33.5937474 C228.470397,65.9357968 231.149548,102.508921 272.042948,108.020926 C274.8733,108.402428 293.735125,109.41869 300.713659,107.011432 C317.621507,101.17904 318.314587,97.6598189 334.435501,84.5578571" id="Path-20" stroke="#044917" stroke-width="5.322292" stroke-linejoin="round"></path>
                <path d="M240.340027,33.8461206 C254.63117,63.4389782 292.736493,132.183067 330.900476,87.4588754" id="Path-21" stroke="#044917" stroke-width="5.322292" stroke-linejoin="round"></path>
                <path d="M259.283677,37.3793467 C262.634372,55.5579484 264.321825,73.9544223 276.463643,88.8482031 C292.544708,108.574067 325.330987,104.531951 338.983814,85.314977" id="Path-22" stroke="#044917" stroke-width="5.322292" stroke-linejoin="round"></path>
                <path d="M268.630436,40.6601995 C277.797501,63.8080796 295.137051,102.637598 326.604846,89.730235" id="Path-23" stroke="#044917" stroke-width="5.322292" stroke-linejoin="round"></path>
                <path d="M279.873602,43.0564712 C287.483871,55.0849043 303.209799,85.6715288 318.90181,88.8482031 C325.009358,90.0846087 331.364155,88.6799542 337.595328,88.5958298" id="Path-24" stroke="#044917" stroke-width="5.322292" stroke-linejoin="round"></path>
                <path d="M145.989316,146.119096 C161.390807,140.708741 173.811282,151.859586 189.563285,149.020114 C197.186312,147.64598 206.489022,139.352075 212.047065,135.142132" id="Path-25" stroke="#044917" stroke-width="5.322292" stroke-linejoin="round"></path>
            </g>
            <g id="Group-25" transform="translate(0.000000, 462.000000)">
                <path d="M35.2078853,33.4331978 L172.293907,31.1806026 C175.587713,43.7849792 177.835024,52.7953599 179.035842,58.2117445 C180.23666,63.6281291 181.485167,71.6373564 182.781362,82.2394262 C196.764636,80.2371194 205.25448,86.2440398 208.250896,100.260187 C211.247312,114.276335 204.005974,122.285562 186.526882,124.287869 L193.268817,209.886485 L29.2150538,218.896866 C28.3861834,181.197722 27.8867808,155.66831 27.7168459,142.30863 C9.23894863,139.30517 -4.54747351e-13,130.795366 -4.54747351e-13,116.779219 C-4.54747351e-13,102.763071 9.17686511,95.8608587 27.5305953,96.0725818 C28.5088797,84.1266422 31.0679764,63.2468475 35.2078853,33.4331978 Z" id="Path-8" stroke="#038225" stroke-width="27.322292" style="mix-blend-mode: multiply;" stroke-linecap="round"></path>
                <path d="M48.8489297,55.0284943 C44.3831711,46.4342247 45.3978926,50.3206096 45.2934998,37.4543369 C45.2465971,31.673642 44.9347004,25.851587 45.6502399,20.1153656 C49.8066837,-13.2053397 67.010193,49.1281522 54.1808775,53.6029789 C50.9068681,54.7449435 50.4242683,48.6312535 50.3884189,47.785724 C50.020047,39.0974589 48.6378848,8.07548452 62.7115151,6.1025969 C63.487547,5.99381019 64.2052886,7.09920238 64.2510042,7.88329126 C65.0045812,20.8082293 65.5601673,33.7773676 65.0794074,46.7153875 C65.0010405,48.824367 64.6896505,52.7147254 62.5918036,52.5350422 C60.4728987,52.3535554 61.0741047,48.4871109 60.932603,46.3602086 C60.1819649,35.0774235 59.3652439,7.94759429 71.1224412,0.16294928 C71.8753712,-0.335578823 73.2782137,0.392172096 73.610045,1.23328578 C79.2534664,15.5380199 81.804837,32.7327845 77.4025036,48.3784888 C76.936978,50.0329469 76.169461,54.0646418 74.9148998,52.892621 C68.5062576,46.9056184 70.8653001,4.42055282 84.393652,2.77639423 C85.895927,2.59381631 87.6260338,2.54245643 88.8948023,3.36915907 C97.6827637,9.09520806 97.6610477,42.9220269 89.0145138,49.8040042 C87.728141,50.8278582 85.1997888,53.6043485 84.6306806,52.0598704 C81.0178989,42.2552983 88.0018636,7.93909706 97.4254399,4.20190966 C100.011378,3.17638229 103.319866,0.945433981 105.601732,2.53880833 C108.14832,4.3170332 107.800725,8.45837837 107.969624,11.5646729 C108.515531,21.6046881 108.77607,31.7281155 107.732595,41.7284833 C106.957326,49.1584441 104.653392,50.4617055 99.0846405,52.1798633 C98.6679507,52.3084269 98.026392,52.4218872 97.78218,52.0598704 C89.0896969,39.1742446 105.517594,12.6648543 117.568088,6.45777583 C118.802005,5.82219866 121.003164,4.90897409 121.714892,6.1025969 C127.43917,15.7026563 124.514507,43.6396148 117.09403,52.1798633 C116.310006,53.0821993 114.58098,55.3070163 114.132369,54.1981436 C107.669691,38.2237569 124.721103,12.5301868 136.879938,5.865011 C137.541771,5.50221047 138.632574,5.05944813 139.130513,5.62742509 C145.516646,12.9117963 134.970053,51.1552134 128.703646,55.9788379 C127.583536,56.8410529 127.02236,53.5793552 126.809811,52.1798633 C126.375856,49.3225538 125.976036,46.2759387 126.809811,43.5091777 C129.458368,34.7203334 133.312758,26.3288308 137.116967,17.9770924 C138.108581,15.8001073 139.445118,13.7212733 141.14406,12.0398447 C142.672539,10.527121 144.63058,9.46531858 146.595719,8.59604897 C147.390948,8.24428313 148.626866,7.8215789 149.20064,8.47605609 C154.749376,14.8052461 147.074668,39.2224572 145.410576,43.5091777 C143.980441,47.1932218 142.617401,55.0902694 139.013196,53.4853858 C135.115562,51.749844 137.947132,44.7997886 139.013196,40.6605467 C147.777827,6.62983627 144.236609,27.0227241 154.652299,8.47605609 C155.583591,6.81775338 155.867852,1.16310613 156.309105,3.01398014 C158.279467,11.2788215 156.728472,46.7508678 149.911726,52.6550351 C149.577828,52.9442333 148.722524,52.8449544 148.609265,52.4174492 C144.522655,36.9920957 157.013781,20.4054238 166.735972,9.7839785 C167.386084,9.07373504 168.74794,8.18648915 169.460605,8.83363488 C171.110317,10.3316791 170.494111,19.5297804 170.408719,20.1153656 C168.559418,32.797182 166.170158,50.5896133 157.376932,60.6105631" id="Path-76" stroke="#F5B700" stroke-width="5.322292" stroke-linecap="round" stroke-linejoin="round"></path>
                <g id="Group-51" transform="translate(50.000000, 131.000000)" stroke="#F5B700" stroke-linecap="round" stroke-linejoin="round" stroke-width="4.322292">
                    <g id="Group-14" transform="translate(81.134748, 28.000000) rotate(-43.000000) translate(-81.134748, -28.000000) translate(62.634748, 7.000000)">
                        <g id="Group-18" transform="translate(-0.000000, 0.000000)">
                            <path d="M-6.81306067e-13,5.55594953 C3.0430623,18.3693249 7.92572315,31.9027942 21.0883682,37.3828613 C24.0647712,38.6220415 30.9403647,43.4035673 30.3300917,40.2314923 C29.2650846,34.6958014 22.4351989,32.1327839 19.1921389,27.5266461 C13.1262556,18.9112353 6.99364394,10.2151993 2.48760383,0.686638407 C1.14610667,-2.15011784 7.47674745,4.56526805 9.47635799,6.98146496 C16.1532156,15.0493374 22.1146943,23.6860739 28.4338624,32.0383784" id="Path-82"></path>
                            <path d="M11.0182414,0.0938735741 C23.2094952,10.8207041 33.1542423,17.2705914 36.4904427,33.2263079" id="Path-83"></path>
                        </g>
                    </g>
                    <path d="M30.6500313,7.22131063 C19.8637724,14.2082324 15.2229486,26.148419 11.8285579,38.1609016 C11.1057858,40.7187355 8.5470796,46.7490913 11.1260019,46.107244 C15.1616343,45.1028478 16.6839325,39.8806503 18.9424291,36.3903873 C22.5838622,30.7629451 24.977562,24.3718716 28.7677749,18.8437859 C30.9797894,15.6175277 38.1505323,6.63031062 36.8228629,10.3114911 C32.2243699,23.0615654 23.2194628,33.9260634 18.7172004,46.7106479 C16.9582656,51.7053036 25.6597381,38.6595873 28.4285277,34.1479711 C32.670508,27.2358584 35.7026164,19.6418585 39.6704351,12.5683106 C40.0266347,11.933303 41.5922505,10.4693325 41.3297224,11.1486292 C38.376591,18.7899165 35.3915748,26.4633491 31.5125896,33.6769006 C29.502722,37.4145492 25.9113416,42.6693072 20.7384484,49.4411746 C26.7556517,44.7301228 30.8231577,40.8200262 32.9409664,37.7108847 C42.7886198,23.2536073 42.5215872,22.3407876 44.2950524,11.6243669" id="Path-81" transform="translate(27.147526, 28.331243) rotate(42.000000) translate(-27.147526, -28.331243) "></path>
                </g>
                <path d="M54.6845878,92.1038062 C67.4193548,58.3148789 93.8705448,86.5495294 93.5156641,88.6178202 C92.3640691,95.3294656 90.3366091,101.867978 89.131831,108.570236 C87.9653054,115.059694 86.9985679,121.595416 86.4071985,128.162674 C86.0486111,132.144849 85.9684522,136.171608 86.287487,140.157163 C87.1650124,151.119679 113.897145,156.703369 116.73729,140.86992" id="Path-77" stroke="#212121" stroke-width="9.322292" stroke-linecap="round"></path>
                <path d="M155.064516,85.3460208 C143.827957,65.8235294 119.107527,74.083045 116.860215,82.6804498" id="Path" stroke="#212121" stroke-width="9.322292" stroke-linecap="round"></path>
                <path d="M68.1285887,107.800912 C71.9789037,113.441836 88.142336,111.979955 79.4850579,100.548295 C70.8277798,89.1166361 64.2782736,102.159988 68.1285887,107.800912 Z" id="Path-155" fill="#212121" transform="translate(74.500000, 103.500000) scale(-1, 1) translate(-74.500000, -103.500000) "></path>
                <path d="M122.561272,108.23866 C126.86592,114.170801 142.582748,110.39269 132.903919,98.370863 C123.22509,86.3490358 118.256623,102.306519 122.561272,108.23866 Z" id="Path-155" fill="#212121" transform="translate(128.500000, 102.500000) scale(-1, 1) translate(-128.500000, -102.500000) "></path>
                <path d="M77.90681,170.944637 C92.8888889,183.21669 119.916043,174.023803 130.013671,175.02972 C130.544105,175.082561 130.474101,176.363393 130.013671,176.632621 L126.632116,180.018524 C124.379463,181.335724 121.912847,182.418471 119.344342,182.871328 C115.428406,183.561753 109.912301,180.292702 107.428042,183.404428 C105.559375,185.745078 112.510466,186.757046 114.363645,189.110035 C120.777533,197.253779 102.946279,195.794919 101.380053,195.881842" id="Path-104" stroke="#212121" stroke-width="5.322292" stroke-linecap="round" stroke-linejoin="round"></path>
            </g>
            <g id="Group-27" transform="translate(348.000000, 0.000000)">
                <path d="M317.207354,20.978852 C320.50955,33.5560288 322.762586,42.5469653 323.966463,47.9516616 C325.17034,53.3563579 326.422027,64.5950286 327.721524,81.6676737 C356.259985,69.6797583 370.529216,77.6717019 370.529216,105.643505 C370.529216,133.615307 356.259985,143.10574 327.721524,134.114804 L327.721524,241.256798 L43.0879207,248 C43.2582885,185.407386 43.2582885,147.445653 43.0879207,134.114804 C12.0460854,141.607251 -2.22314541,132.116818 0.280228413,105.643505 C2.78360223,79.1701913 17.052833,71.1782477 43.0879207,81.6676737 C44.0686971,69.747513 45.8210588,49.5179058 48.3450057,20.978852 L317.207354,20.978852 Z M85.895613,56.9425982 C66.3692972,117.881168 64.6169356,164.33434 80.638528,196.302115 C90.8276072,216.632315 176.938558,222.059878 233.093994,216.531722 C254.523952,214.422075 276.553642,207.678873 299.183062,196.302115 C303.075742,175.628469 304.577767,154.399869 303.689135,132.616314 C302.800504,110.832759 299.546118,89.1046625 293.925977,67.4320242 C280.407759,52.4471299 247.363224,42.9566969 194.792374,38.9607251 C142.221524,34.9647533 105.922604,40.958711 85.895613,56.9425982 Z" id="Combined-Shape" fill="#044917"></path>
                <path d="M180.524899,49.4271375 L135.589518,53.9949387 C146.164326,56.0134081 155.689502,52.5455839 165.985267,51.2421622 C168.962004,50.8653137 173.121796,48.6134985 174.980896,50.9610712 C176.493389,52.8709688 170.397449,52.8871113 168.571063,54.5073694 C164.241505,58.3482897 160.986703,63.2868634 156.70167,67.1772861 C153.947835,69.6775196 150.608787,71.4466867 147.562345,73.581387" id="Path-84" stroke="#044917" stroke-width="5.322292" stroke-linecap="round" stroke-linejoin="round" transform="translate(158.057208, 61.504262) rotate(28.000000) translate(-158.057208, -61.504262) "></path>
                <g id="Group-19" transform="translate(92.927940, 109.368925)" stroke="#044917" stroke-linecap="round" stroke-linejoin="round" stroke-width="5.322292">
                    <path d="M9.4422122,62.8626686 C15.6904645,43.1924323 29.0220309,18.8138376 45.5580783,22.3529536 C53.1280382,23.973109 52.8191146,20.6163704 58.4448117,18.8986661 C62.9655199,17.5183501 62.5988608,13.9344467 67.9588595,13.1144011 C68.7676723,12.9906579 66.2836531,12.8654612 65.5048277,13.1167964 C63.5498209,13.7476976 63.2550725,15.0583331 61.5071306,16.1378322 C58.598897,17.9339077 54.4917108,18.0054508 52.0092501,20.3543715 C38.9134886,32.7456678 25.9093159,45.2672385 13.6714787,58.5043166 C10.1400184,62.3241269 22.1051645,52.3436396 25.8107494,48.6920258 C32.3650168,42.23322 37.8846214,34.7870913 44.3667692,28.2560969 C48.0442899,24.5508641 51.9321139,20.9924168 56.2365219,18.0369781 C59.4040027,15.862162 62.6011354,15.723662 66.1866813,14.3429053 C67.4343293,13.8624489 62.2337021,14.5400702 63.3258542,15.3069495 C65.2211597,16.637781 71.7941074,13.8176475 70.277301,15.5724755 C58.9468703,28.6809098 37.4469007,42.2534188 24.7157742,55.905208 C22.6846911,58.0831707 17.8206274,65.4833728 20.072929,63.5344453 C34.4644255,51.0814137 47.4217884,37.0598123 61.4085174,24.1547998 C62.946556,22.7357111 64.7206391,21.5484244 66.5927082,20.6124485 C69.1147183,19.3515225 74.8044981,14.8106745 74.5003173,17.6093103 C74.1135381,21.1678979 68.5889253,21.7695392 66.1786026,24.4224549 C56.4582373,35.1211511 59.2928344,36.7626767 48.985267,45.5392064 C41.2398734,52.1341358 32.4388148,57.4433075 24.8426164,64.2091919 C23.491814,65.4123428 20.8005138,69.6678064 22.5215091,69.1103033 C42.4964197,62.6395855 60.5504819,43.997317 71.4917647,27.0055981 C72.2640888,25.8061854 71.2554419,23.8732354 72.1789411,22.7854835 C73.271745,21.4983145 78.1376406,21.7805526 76.8135776,20.7372527 L76.8167686,17.4722692 C76.0678867,16.8821852 75.0899779,18.2899705 74.2265825,18.6988211" id="Path-87" transform="translate(43.241156, 41.065872) rotate(28.000000) translate(-43.241156, -41.065872) "></path>
                    <path d="M94.6317526,24.3522351 C106.559626,42.8198663 121.684378,61.280466 146.19419,62.4918605 C148.414372,62.6015928 143.004808,59.3553499 141.146649,58.1351515 C134.618003,53.8479806 127.1551,50.9362045 121.095331,46.0101742 C113.589971,39.9090119 92.3123398,20.6099829 100.7678,25.310888 C114.318247,32.8444064 124.141654,45.7538667 136.780281,54.7303927 C141.257639,57.9104149 146.505874,60.0218515 151.783366,61.544454 C154.742557,62.3982062 146.325335,58.6345637 143.870343,56.7759373 C135.212782,50.2214684 126.66745,43.497797 118.498629,36.3452334 C112.599744,31.1802101 108.054156,27.6811238 103.282542,21.4634791 C100.699309,18.0974025 108.260552,25.3044482 111.811465,27.631535 C116.871069,30.9473419 122.578463,33.2399298 127.496712,36.761485 C132.262213,40.1736699 135.977083,44.906081 140.729043,48.3370459 C144.888122,51.339944 149.223257,54.3605286 154.096259,55.9666346 C155.259125,56.3499064 153.84129,53.4277003 153.13771,52.4268514 C151.326759,49.8507589 149.196445,47.4413603 146.72733,45.4842728 C138.791015,39.1937353 130.468404,33.3896311 122.038074,27.7764393 C119.262574,25.9284198 110.09607,21.8532382 113.171923,23.1419757 C120.468765,26.1992462 127.856007,29.1579418 134.720372,33.0901372 C141.230834,36.8196018 147.119519,41.5481947 153.133068,46.0333897 C154.498694,47.0519394 155.859436,48.1660231 156.819052,49.5723994 C157.076361,49.9495014 155.832794,49.693858 155.455236,49.4366673 L145.635069,43.7125621 C139.887999,39.7976848 134.704667,35.0802554 128.856478,31.3177187 C122.541572,27.2549119 115.608474,24.2226294 109.216443,20.2819898 C108.203846,19.6577313 102.280418,21.5777612 103.274886,20.9279537 C105.963379,19.1712313 116.579804,25.3009615 118.403183,26.1370442 C134.718072,33.6179893 144.159637,33.2026814 159.40548,45.0837285 C161.255702,46.5256021 166.084729,48.587246 164.315766,50.1223069 C161.503547,52.5626779 155.999138,48.1428658 153.136328,50.5239372 C150.139283,53.0166561 169.756137,57.6933033 152.458909,54.7417539 C150.162533,54.3499069 147.690874,54.0208458 145.776584,52.6937549 C95.7968444,18.0450546 128.973272,35.2124743 102.809826,22.3177543" id="Path-88" transform="translate(129.665256, 41.324944) rotate(-19.000000) translate(-129.665256, -41.324944) "></path>
                </g>
                <path d="M165.058078,110.893505 C159.029761,108.037875 152.445035,104.033295 145.151099,106.292957 C139.021096,108.192033 139.538541,120.772702 139.753328,124.132836 C140.526276,136.224825 156.087338,140.390486 165.28308,135.80086" id="Path-102" stroke="#044917" stroke-width="5.322292" stroke-linecap="round" stroke-linejoin="round"></path>
                <path d="M202,117 C224.241664,96.9485788 228.553924,128.590009 211.394815,136.138703 C205.316835,138.812548 200.022553,137.61219 193.737855,137.147694" id="Path-103" stroke="#044917" stroke-width="5.322292" stroke-linecap="round" stroke-linejoin="round"></path>
                <path d="M176.069005,72.0641573 C177.593104,94.4878828 176.504643,62.6835066 165.839944,110.291625 C161.724078,128.665195 176.926539,157.824543 193.250631,136.549125 C201.908065,125.26577 202.547781,109.114473 203.201005,95.0556215 C203.566604,87.1870965 205.585884,70.8790538 195.975628,66.0791737 C188.177345,48.4997044 186.280903,42.9566969 190.286301,49.4501511" id="Path-86" stroke="#044917" stroke-width="5.322292" stroke-linecap="round" stroke-linejoin="round"></path>
                <path d="M201.295162,51.3804152 C213.385136,51.0223626 225.596289,52.0395644 237.565083,50.3062573 C247.055444,48.931874 218.379393,50.0299327 208.792379,50.2946768 C205.411534,50.3880383 199.481517,48.0954053 198.705012,51.3793727 C197.901651,54.7769238 204.002418,56.0110953 207.023624,57.7750379 C213.676044,61.6590784 220.754234,64.7658318 227.61954,68.2612287" id="Path-85" stroke="#044917" stroke-width="5.322292" stroke-linecap="round" stroke-linejoin="round" transform="translate(219.048448, 58.932000) rotate(-10.000000) translate(-219.048448, -58.932000) "></path>
                <path d="M157.241767,-1.06474078e-14 C163.567509,-1.06474078e-14 169.990761,0.456822332 176.511523,1.370467 L177.735308,1.54712898 C180.31716,1.93077288 182.355307,3.93369885 182.778733,6.50339882 C184.709951,18.2236319 185.492373,30.1654944 185.125998,42.3289861 C186.825905,43.5616004 189.068153,43.2795926 191.85229,41.4838672 C191.546508,29.6115022 192.336811,17.9517181 194.223224,6.50339882 C194.635507,4.00132253 196.578645,2.03658254 199.063968,1.58076164 L199.266649,1.54712898 L200.490435,1.370467 C207.011196,0.456822332 213.434448,-1.06474078e-14 219.76019,-1.06474078e-14 L221.247407,0.0072836692 C229.555708,0.0833575475 246.351029,0.755343472 271.633371,2.02324144 C274.318128,2.15788077 276.66021,3.86543301 277.611092,6.35930348 L277.685121,6.56321679 L277.934011,7.294206 C281.709288,18.5313209 283.596927,31.0848131 283.596927,44.9546828 C283.596927,58.1893183 281.838355,69.7117258 278.321211,79.5219054 C277.076205,82.9945333 273.835959,85.3486715 270.157304,85.4791468 L269.921916,85.4844444 L266.303392,85.513707 C259.192628,85.5603287 252.83958,85.5355667 247.244247,85.4394209 L244.017776,85.3821459 C236.273222,85.2660344 223.09049,85.2611653 204.469582,85.3675387 C200.169747,85.3921018 196.463229,82.3852081 195.594189,78.2055103 L195.550361,77.9804865 L195.3448,76.83092 C194.319054,71.0007625 193.509061,64.9532103 192.914824,58.6882634 C190.032233,55.5938794 187.069449,55.3545779 184.027215,57.9687325 C183.199698,65.4820844 181.93718,72.9768971 180.240821,80.4540821 L179.950124,81.7170548 C179.027788,85.6676449 175.568136,88.5128603 171.504992,88.662325 L153.510938,89.2995131 C144.559098,89.6007814 137.7234,89.8003815 133.003845,89.8983132 L130.37875,89.9464273 C124.504008,90.0401411 117.81235,90.0568938 110.303775,89.9966855 L108.486032,89.9807555 C104.723769,89.9450392 101.379653,87.5813332 100.098342,84.052125 C95.636134,71.7615374 93.4050299,58.7290566 93.4050299,44.9546828 C93.4050299,31.0848131 95.2926688,18.5313209 99.0679465,7.294206 L99.3168359,6.56321679 C100.215399,3.95888208 102.611268,2.16151967 105.368586,2.02324144 L113.895639,1.60260955 C135.952506,0.534203182 150.401216,-1.06474078e-14 157.241767,-1.06474078e-14 Z M149.731645,7.49244713 L148.54865,7.53644704 C141.025969,7.84519791 130.482625,8.80678987 116.91862,10.4212229 L114.712682,10.6862987 C113.312088,10.8561715 112.218724,11.9755565 112.084743,13.3767816 L111.912639,15.212038 C109.174651,45.0014437 110.015129,65.6548328 114.434075,77.1722054 C116.395069,82.2832673 135.671047,83.0325121 172.26201,79.4199396 L172.592514,76.6311685 C174.543851,59.9102745 175.414279,47.6447562 175.203798,39.8346136 L175.19454,39.516157 C174.938,31.3014989 173.96049,21.1264254 172.26201,8.99093656 C165.620599,7.71400437 158.110478,7.2145079 149.731645,7.49244713 Z M218.824763,7.49244713 L218.012496,7.46761603 C210.142026,7.24809749 205.717843,7.755871 204.739947,8.99093656 L204.512805,10.6336246 C202.954092,22.0473816 202.052296,31.6748924 201.807418,39.516157 L201.787326,40.2742048 C201.607472,48.4801608 202.530208,60.5297461 204.555532,76.4229607 C242.648519,78.5370438 262.675509,77.0385543 264.636504,71.9274924 C269.135946,60.200316 269.272831,40.655645 265.047159,13.2934794 C264.837129,11.9334887 263.725784,10.8909269 262.352255,10.765367 L255.683104,10.1642403 C238.305034,8.62168655 226.018921,7.73108882 218.824763,7.49244713 Z" id="Shape" fill="#F5B700"></path>
                <path d="M154.708502,166.823915 C169.728745,179.069486 196.824746,169.896437 206.948096,170.900183 C207.479881,170.95291 207.409698,172.230978 206.948096,172.499625 L203.557926,175.878222 C201.299535,177.19258 198.826636,178.272989 196.251589,178.724869 C192.325678,179.413805 186.795521,176.151808 184.304934,179.256819 C182.431507,181.592418 189.400305,182.602202 191.258204,184.950114 C197.688431,193.076283 179.811754,191.620572 178.241538,191.707307" id="Path-104" stroke="#044917" stroke-width="5.322292" stroke-linecap="round" stroke-linejoin="round"></path>
            </g>
            <g id="Group-41" transform="translate(506.000000, 737.000000)">
                <path d="M8.56309871,32.8092272 C-1.42718312,165.809227 -2.67596835,248.809227 4.81674302,281.809227 C93.7302513,294.309227 173.902263,293.809227 245.332778,280.309227 C226.850757,192.809227 210.866306,137.809227 197.379425,115.309227 C229.847841,123.809227 249.328891,120.309227 255.822574,104.809227 C262.316257,89.3092272 236.341524,71.5592272 177.898376,51.5592272 C138.558718,41.5063593 107.838602,35.2563593 85.7380258,32.8092272 C63.6374501,30.3620951 37.9124744,30.3620951 8.56309871,32.8092272 Z" id="Path-105" fill="#044917" style="mix-blend-mode: multiply;"></path>
                <g id="Group-40" transform="translate(22.771430, 0.000000)" stroke="#F5B700" stroke-linecap="round" stroke-linejoin="round" stroke-width="5.322292">
                    <path d="M6.81458129e-13,49.2320408 C2.17925059,34.5132986 20.9978587,10.4621679 34.3771736,4.80425855 C37.8990128,3.31492614 41.5867266,2.17329437 45.3311525,1.40025528 C47.7391193,0.903129004 51.7515564,-1.24960355 52.6974171,1.02203269 C59.6392439,17.6939444 27.0065356,44.7202463 14.54551,48.2845741 C13.4551477,48.5964593 14.2781524,45.9243992 14.7325291,44.8843913 C16.0783075,41.8040836 17.5455563,38.6482945 19.8316636,36.1852718 C31.5415872,23.5691501 46.8286408,8.21051911 64.9719802,4.80425855 C66.5812901,4.50212404 69.261489,3.28840519 69.8840955,4.80425855 C74.8139936,16.8070288 63.2593132,36.3750019 52.319562,42.0458117 C47.5164969,44.5355638 41.3511168,52.7419154 37.5870329,48.8538182 C33.9653364,45.1127996 42.8175268,39.7141904 46.4647176,35.9980708 C53.4129453,28.9185271 60.9960958,22.3934115 69.1283854,16.7163598 C73.3815032,13.7473104 78.3408145,11.8154371 83.2960404,10.2865758 C87.6180299,8.95309022 92.1991364,7.80911691 96.7041686,8.20826181 C97.9386598,8.31763747 98.0809921,10.3752592 98.2155887,11.6084447 C100.11225,28.9858109 80.6059597,45.7988106 66.4834003,51.8795989 C65.153418,52.4522529 66.0167343,48.9038194 66.4834003,47.5319494 C67.0689055,45.8107247 68.3100907,44.3616858 69.5062405,42.9932784 C72.7311227,39.3039804 76.1171987,35.744108 79.7045093,32.4068664 C81.4844812,30.7509752 83.4619012,29.2874563 85.5593538,28.0592169 C92.7334989,23.8581361 99.7214707,19.1543611 107.471128,16.1471157 C111.127464,14.728279 115.958578,12.7752913 119.180817,15.0124479 C121.71588,16.7725072 120.292081,21.3960967 119.180817,24.276991 C114.258717,37.0372904 110.442274,44.020016 100.482719,50.9321322 C96.662844,53.5831963 91.434736,56.2991857 86.5058997,55.8490258 C85.8876466,55.7925596 86.8750084,54.6313422 87.2616098,54.145114 C91.799339,48.4380168 96.3368332,42.7171257 101.238429,37.3199396 C106.418439,31.6161893 111.787218,26.065584 117.478561,20.8729878 C118.939703,19.5398902 120.657688,18.3032032 122.581513,17.8472071 C127.953502,16.573907 133.941511,13.5846443 139.012481,15.7688931 C141.788598,16.9646661 139.848736,21.997291 138.821645,24.8424147 C136.54662,31.144414 127.830314,43.4358485 122.203658,47.9063516 C109.550283,57.9597379 109.776641,49.6561355 115.402267,43.558702 C122.469707,35.8985335 129.465174,28.0307076 137.68808,21.6294329 C140.454386,19.4759506 144.248562,19.0278844 147.69933,18.4164512 C150.36521,17.9440904 153.363331,17.2804571 155.821304,18.4164512 C157.286627,19.0936751 157.355029,21.3480132 157.519744,22.9551222 C157.86673,26.3406546 158.604889,30.0072206 157.332724,33.1633116 C152.830252,44.3334137 139.84055,57.4813789 127.489811,58.3055624" id="Path-106"></path>
                    <path d="M105.959708,94.6034693 C108.289178,98.7626443 110.149522,103.222452 112.948118,107.080994 C120.11325,116.959864 135.035149,113.389877 136.745351,101.220454 C137.508486,95.7901515 137.249158,90.2558198 137.123206,84.7735025 C137.117414,84.5214208 136.619399,84.7735025 136.367496,84.7735025" id="Path-107"></path>
                    <path d="M138.065935,151.321575 C155.215119,167.403738 170.801152,153.332818 186.984802,143.000679" id="Path-108"></path>
                    <path d="M199.263182,177.785695 C207.59944,181.288806 205.843684,179.040462 210.026325,190.26322 C211.69819,194.749127 213.295417,199.330131 213.995711,204.066434 C214.631613,208.367236 214.748096,212.827459 213.995711,217.109383 C212.610767,224.99129 195.310257,229.003027 190.950371,222.213477 C184.151009,211.624987 182.434316,205.961498 181.320793,193.289001 C181.088111,190.640953 180.269223,187.29791 182.076503,185.350147 C183.576068,183.734018 187.090658,183.829788 188.687058,185.350147 C192.840399,189.305654 196.005735,194.573736 197.560926,200.097007 C199.442251,206.778544 199.185135,213.967158 198.694491,220.891609 C198.251947,227.137215 186.786297,237.78911 181.320793,230.156152 C176.966938,224.075688 174.985047,217.142341 174.332384,209.735952 C173.734893,202.955651 172.697651,196.00892 173.954529,189.319574 C176.032654,178.259387 180.021045,190.53478 180.565083,194.989092 C181.451728,202.248501 181.832783,209.642638 181.129957,216.922182 C180.561548,222.809508 178.580036,228.489852 176.786533,234.125579 C176.298516,235.659075 175.46931,237.144174 174.332384,238.282207 C173.194225,239.421473 171.750668,240.408826 170.175978,240.742564 C168.323577,241.135159 166.078031,241.424006 164.508153,240.364341 C162.944198,239.308674 162.270198,237.135965 162.054004,235.260246 C160.556884,222.271095 159.221747,209.197728 159.409019,196.12376 C159.424612,195.035166 162.407016,194.49125 162.622695,195.558336 C165.556161,210.071864 161.883802,218.483476 155.443449,231.47802 C154.180048,234.027154 148.932862,240.318858 144.67649,238.095006 C137.762823,234.48278 142.278269,203.394996 149.588605,199.149541 C150.189667,198.800475 151.54057,198.277987 151.664899,198.962339 C153.780372,210.606622 147.256625,222.716766 139.012481,230.534374 C137.093432,232.354136 123.621922,238.18235 122.203658,234.691002 C117.445773,222.978499 121.683547,201.386208 132.401926,194.045446 C133.136956,193.542042 134.900583,192.787859 135.046912,193.667223 C137.829063,210.386608 130.473971,211.832942 116.726668,223.539167 C114.489613,225.444084 110.778924,230.533244 109.169568,228.074017 L105.581853,228.830462 C99.4306592,219.430941 122.855774,202.489206 123.337223,188.375927 C123.382533,187.047687 122.184112,190.82465 121.257112,191.77611 C117.244972,195.894114 112.822166,199.590163 108.604693,203.49719" id="Path-109"></path>
                </g>
            </g>
            <g id="Group-42" transform="translate(124.000000, 159.000000)" stroke-linecap="round">
                <g id="Group-31" transform="translate(0.000000, 58.000000)">
                    <path d="M106.188488,105 L0.245,105 C-3.255,35 30.745,0 102.245,0 C173.745,0 236.245,0 289.745,0 L292.079788,86.1890514 C317.023263,79.2296838 329.495,82.5 329.495,96 C329.495,109.5 318.333189,117.556694 296.009567,120.170083 L302.495,245.25 L106.188488,249 L106.188488,182.884936 C145.348999,183.055644 170.619503,178.093998 182,168 C193.380497,157.906002 197.380497,136.906002 194,105 L106.188488,105 Z" id="Path-8" stroke="#F5B700" stroke-width="27.322292"></path>
                    <g id="Group-7" transform="translate(65.000000, 102.000000)" stroke="#044917" stroke-linejoin="round" stroke-width="5.322292">
                        <path d="M23.1593646,0.55917997 C24.0923973,20.7277655 19.185443,45.2051318 -9.45910017e-14,56.1725583" id="Path-46"></path>
                        <path d="M31.5243397,0.55917997 C26.9147907,21.1694697 19.8464458,37.9153231 5.09366135,53.8139549" id="Path-47"></path>
                        <path d="M38.9750678,0.55917997 C34.0374787,22.9779845 22.6523182,44.564804 2.28023935,56.6273769" id="Path-62"></path>
                        <path d="M47.871689,0.55917997 C43.0370217,18.3621704 24.6808619,54.8926069 0.179674032,58.0732699" id="Path-63"></path>
                        <path d="M56.2366641,0.55917997 C49.8509658,23.6114791 33.4638867,57.3126779 5.626844,57.3126779" id="Path-64"></path>
                        <path d="M102.051569,63 C95.1373958,64.8437796 75.3603454,46.4621144 68.3015694,36 C63.5957188,29.0252571 60.8457188,17.2752571 60.0515694,0.75" id="Path-66"></path>
                        <path d="M66.805051,0.55917997 C70.2316691,20.9210465 68.4531818,46.7273828 86.5307809,59.2133896" id="Path-67"></path>
                        <path d="M73.2899525,1.54543045e-13 C69.5948827,10.1614421 87.7497486,55.0555853 98.0325163,56.5245521" id="Path-68"></path>
                        <path d="M77.9834481,0.55917997 C85.5846182,19.4700583 89.7083592,39.18438 104.095077,53.738664" id="Path-69"></path>
                        <path d="M85.0546486,0.55917997 C93.9844276,21.5537116 95.8411109,41.7388738 113.598636,55.4872572" id="Path-70"></path>
                        <path d="M61.7866806,0.55917997 C72.5671206,33.1822086 78.6367281,47.0806348 110.862041,53.1301904" id="Path-71"></path>
                    </g>
                </g>
                <g id="Group-35" transform="translate(85.750000, 0.000000)" stroke="#044917" stroke-linejoin="round" stroke-width="5.322292">
                    <path d="M25.4891299,55.9605842 C36.6787476,51.5533402 47.3676271,45.5614256 59.0579831,42.7388521 C60.7009067,42.3421771 60.8383128,45.687884 61.1828759,47.3425215 C62.0443246,51.4793117 62.875512,55.7163086 62.6389683,59.9352153 C61.9424753,72.3576052 58.4499182,88.0020088 49.7703247,97.7140919 C38.3906533,110.447443 26.9767684,99.5958681 23.9940706,86.1838445 C20.9564379,72.5248001 22.3395422,71.3068224 24.7026333,58.9125311 L25.4891299,55.9605842 Z" id="Path-65"></path>
                    <path d="M106.043164,43.6410905 C110.319458,46.041668 114.246176,49.2146975 118.872046,50.8428231 C126.099561,53.3866264 135.822791,50.6425482 141.26374,56.037359 C145.497644,60.2353607 142.457979,67.9500467 142.129761,73.9033178 C141.617955,83.1865328 138.318866,102.955316 128.159704,107.116697 C111.62442,113.889855 100.764784,95.8495547 100.100304,81.85258 C99.8321501,76.2040485 99.6464308,70.4883992 100.454983,64.8916092 C101.350251,58.6945714 103.60309,52.7710255 105.177143,46.7107336 L106.043164,43.6410905 Z" id="Path-72"></path>
                    <path d="M34.7078594,78.6920577 C33.3877375,70.033365 34.922294,64.0650564 39.3115288,60.7871318 C47.2896221,54.8290117 58.0238805,65.0525195 59.1067504,72.632296 C60.3875235,81.597338 53.3670787,95.532338 46.6170787,93.282338 C40.1636374,91.1311909 36.1938977,86.2677641 34.7078594,78.6920577 Z" id="Path-74" fill="#044917"></path>
                    <path d="M118.707859,83.6920577 C117.387738,75.033365 118.922294,69.0650564 123.311529,65.7871318 C131.289622,59.8290117 142.02388,70.0525195 143.10675,77.632296 C144.387523,86.597338 137.367079,100.532338 130.617079,98.282338 C124.163637,96.1311909 120.193898,91.2677641 118.707859,83.6920577 Z" id="Path-74" fill="#044917"></path>
                    <path d="M113.137048,41.5812327 C125.11444,31.4849471 136.142846,16.173921 149.069225,11.292376 C159.672297,7.28820927 110.214585,45.8555756 120.337682,38.8619699 L114.528814,47.0184805 C162.283209,14.0270545 153.614685,6.07290082 114.493668,55.176269 C106.532024,65.1694542 131.148268,37.1864831 139.851232,29.5030032 C144.913582,25.0336679 160.377978,13.1890512 155.678007,18.8163514 C143.850899,32.9770088 130.875158,43.6994776 118.250735,55.3653907 C114.142468,59.161737 101.098645,67.5326158 105.519586,65.1664931 C114.494093,60.3632668 123.316458,54.5576619 131.955417,48.030537 C140.997546,41.1987989 160.371688,7.6689319 158.495982,25.1404265 C157.205089,37.1646119 114.884889,60.8575021 108.719946,65.2930002 C106.887648,66.6112856 101.812043,72.1258332 103.641404,70.7941405 C115.817366,61.9305903 127.586418,51.2683278 139.816789,42.6559038 C144.13715,39.6135772 157.379516,32.2220407 153.208675,35.8896929 L149.765108,40.1257626 C114.734801,70.9298611 90.3073655,87.9182201 151.747321,42.1498755" id="Path-73" transform="translate(130.936508, 41.000000) rotate(52.000000) translate(-130.936508, -41.000000) "></path>
                    <path d="M13.4445517,12 C25.2940968,17.2461545 58.1834384,30.9907306 57.8636925,40.4810287 C57.1385343,62.0042718 30.4930629,18.378155 18.1407092,20.5109878 C17.6383744,20.5977239 18.1946736,22.2241163 18.6622701,22.4936277 L25.5838482,27.7634046 C32.2054122,31.5799146 39.1280599,34.3259705 45.7588388,38.1114368 C49.1356557,40.0392385 58.752148,47.3628852 55.5679808,44.881141 C46.0790111,37.4854253 19.1632218,12.6433112 26.836438,23.3632924 L10.4881023,18.7697042 C18.7046014,30.2486869 30.5071454,35.367135 40.8194736,42.898501 C77.7230755,69.8501772 16.3701513,19.22472 10.4529567,27.1350964 C9.47014971,28.4489577 12.3122911,30.011654 13.51414,30.9069004 C21.891967,37.1474674 30.4305637,42.983008 39.0804684,48.459469 C43.3250664,51.1468252 56.3953001,58.0858977 52.1588558,55.3737916 C44.4020077,50.4079773 21.9917584,34.0129947 28.5058549,41.6897649 L12.5399035,38.5462692 C18.1088058,45.1091415 49.3709919,56.0009989 57.2725432,59" id="Path-75" transform="translate(34.058004, 35.500000) rotate(-44.000000) translate(-34.058004, -35.500000) "></path>
                </g>
            </g>
            <g id="Group-32" transform="translate(661.000000, 67.000000)">
                <path d="M189.382306,290.842389 C189.925901,294.675006 190.399763,300.296311 190.834794,306.463739 C178.594972,307.277065 166.203827,306.954416 153.822609,306.073331 C160.783268,282.859718 164.55669,261.473619 168.70042,232.421821 C169.508012,226.759773 170.037622,221.051544 170.499006,215.333213 C172.250002,215.245749 174.032531,215.156628 175.850606,215.074026 C176.27176,215.054891 176.700097,215.023466 177.135111,214.98009 C180.512885,240.366054 185.785286,265.481591 189.382306,290.842389 Z M188.999315,211.648076 C189.705833,214.723596 190.367949,217.83711 190.986438,220.981198 L191.279964,222.494834 L191.514097,222.917265 L191.514097,222.917265 L191.650964,223.159834 L193.557562,224.879022 C208.73362,238.481471 224.611017,251.293065 240.48666,264.078073 L242.993223,266.096649 C245.640295,268.228568 248.551959,270.09997 251.670433,271.453071 C258.07629,274.232561 264.703428,276.467928 271.271769,278.848899 C263.988197,283.223057 255.987153,287.284837 247.079043,291.857996 C242.321489,294.300382 237.492705,296.384317 232.604538,298.152089 C228.110328,291.455606 223.527015,284.810166 219.504914,277.830254 C214.563614,269.255174 210.711356,260.078673 206.2096,251.266229 L205.592964,250.072834 L206.392401,252.007986 C209.941482,260.709873 213.047146,269.604209 216.774532,278.231237 L217.719947,280.382158 C220.205926,285.938614 223.067081,291.355195 226.397157,296.451424 C227.08045,297.497111 227.77527,298.534869 228.479505,299.566154 C218.425336,302.822134 208.134987,304.808575 197.711592,305.88495 C198.396318,281.742584 196.860339,255.513274 192.740779,230.672211 L192.478964,229.114834 L191.486901,227.715988 C188.246735,223.172158 184.917152,218.686883 181.625407,214.175852 C181.937499,214.098496 182.252832,214.015514 182.570217,213.927889 C185.284946,217.010207 188.129887,219.971313 191.167273,222.724584 L191.167273,222.724584 L191.355964,222.893834 L191.29754,222.58443 L191.29754,222.58443 L191.279964,222.494834 L190.64472,221.349023 C189.091648,218.522537 187.602107,215.664981 186.253878,212.738045 C187.030886,212.453741 187.812895,212.146436 188.601251,211.817009 Z M162.610926,215.700513 C162.319654,223.855762 161.792483,231.77756 159.765267,241.350909 C158.315937,248.195243 156.980713,254.482207 155.752937,260.245028 L155.050964,263.529834 L154.744092,265.201745 C153.349191,272.76305 151.691616,281.668033 149.740536,292.070522 L148.53442,298.492947 C148.008244,301.291377 147.522252,303.608814 147.074025,305.542198 C146.702239,305.509059 146.330118,305.476612 145.958037,305.44377 L145.951731,305.475558 C147.706105,297.677647 150.478218,284.950631 154.56073,265.834365 L155.050964,263.529834 L155.549759,260.824973 C170.419716,179.856469 151.26269,273.052474 145.185494,305.387609 L145.188462,305.375279 C136.263086,304.574467 127.362408,303.552539 118.547027,302.525826 C119.813286,300.437018 121.048699,298.330952 122.239689,296.198811 C131.738832,279.193202 140.756782,261.91123 149.303091,244.408039 C151.072498,240.784219 152.106747,236.832332 153.130968,232.932202 C154.621684,227.255703 156.281836,221.591253 157.492202,215.848916 C159.165679,215.820674 160.858332,215.768308 162.574405,215.701712 Z M150.764374,215.824184 L150.497355,216.620614 C134.379288,265.009206 147.57524,243.124916 117.965021,302.45184 C114.608717,302.066909 111.268657,301.676228 107.944477,301.297464 L99.9519951,295.308892 C106.520185,284.254883 112.949239,273.115543 119.433267,262.013602 C122.792086,256.262638 126.078078,250.449942 128.879147,244.408039 C133.341965,234.78175 137.09564,224.837311 141.292462,215.092961 C144.441127,215.50954 147.58378,215.731562 150.764374,215.824184 Z M131.588746,213.158093 L130.278436,216.195689 C123.553411,231.969894 117.672321,248.106167 110.750899,263.797357 C107.251249,271.731228 103.222692,279.432453 99.0093238,287.011955 C98.0173571,288.796421 97.0108796,290.572662 95.9935975,292.342776 L94.670719,291.35277 C91.0527674,290.566793 86.7055341,289.085598 81.9867498,287.126369 C93.0530413,272.716586 103.834067,258.097153 113.304536,242.624283 C119.233894,232.936888 124.174011,222.711171 128.906765,212.369594 C129.805072,212.653152 130.698699,212.915528 131.588746,213.158093 Z M120.772961,209.114829 L120.352029,209.822302 C119.295809,211.583241 118.224839,213.335179 117.132414,215.074026 C112.313845,222.743889 106.538738,229.79147 101.815746,237.520474 C94.7854758,249.025255 89.0875865,261.317561 81.9025302,272.726445 C79.5438984,276.471629 77.111393,280.168338 74.6357224,283.836778 C64.7179955,279.108804 54.0477503,272.930689 45.4115319,266.995159 C61.8384405,256.015675 76.9574051,243.043609 89.5634435,229.101767 C97.3823247,220.454356 104.721867,211.394434 112.015936,202.294266 C114.500527,204.990367 117.394285,207.308065 120.772961,209.114829 Z M206.016716,201.657254 C210.485022,204.509935 214.847451,207.555162 219.25213,210.480598 C224.099891,213.700313 228.274512,217.848503 233.036615,221.193441 C240.027154,226.103649 247.206599,230.748432 254.482013,235.226338 C258.957229,237.980765 263.477175,240.713392 268.266499,242.876896 C275.92785,246.337794 283.714164,249.608091 291.754807,252.063752 C294.413931,252.875864 297.083315,253.653325 299.760906,254.402342 C295.215682,260.238096 290.380432,265.045603 285.151997,269.272852 C263.475887,252.119466 240.949786,236.031565 219.25213,218.899305 C213.389012,214.269843 207.732451,209.378965 202.184823,204.373113 C203.269704,203.644699 204.346084,202.887716 205.410268,202.106211 Z M191.355964,222.893834 L191.601127,224.192727 C191.900964,225.803483 192.189563,227.421511 192.467025,229.04583 L192.478964,229.114834 L192.740373,229.483604 C195.653366,233.615762 198.479424,237.804955 201.123881,242.113902 C202.646467,244.594842 204.059787,247.136752 205.408076,249.715068 L205.592964,250.072834 L205.495276,249.83679 C204.587681,247.670135 203.646824,245.517903 202.656064,243.387277 C199.633707,236.887713 195.927855,230.725856 192.393593,224.480568 L191.650964,223.159834 L191.355964,222.893834 Z M106.737036,195.073909 L105.224274,196.068448 C70.3810491,218.961322 50.9431524,229.931658 26.6212831,249.304016 C20.2824757,239.416386 15.3767904,225.752342 12.1688992,216.103921 C14.4628053,215.201989 16.7718147,214.340714 19.1036766,213.542883 C30.570759,209.619498 42.8459987,208.151026 54.0756168,203.593033 C71.7060113,196.437028 87.606374,189.9718 101.90253,184.147358 L101.871894,184.159627 C103.170122,187.993061 104.761875,191.683057 106.737036,195.073909 Z M230.495719,168.510477 C251.849798,171.8366 284.160291,171.97613 293.029047,172.722722 C305.754985,173.79402 318.324463,176.440112 331.065352,177.31615 C331.375746,177.337492 332.767726,177.362997 334.909392,177.374553 C334.55211,183.096329 333.853299,188.455304 332.597535,192.369809 C332.046537,194.087395 331.457364,195.804901 330.833448,197.520665 C317.195363,194.243444 303.690324,190.397797 289.964681,187.518613 C278.500008,185.113705 263.141242,182.840333 247.517853,179.651885 L246.523964,179.447834 L247.893078,180.023828 C273.893782,190.945896 300.199994,201.743787 327.82799,205.163175 C321.912259,219.195217 313.991699,232.944231 305.975914,245.484105 C299.280451,241.438298 292.886,236.890559 286.136804,232.932202 C274.438371,226.07115 262.308963,219.958604 250.648977,213.032502 C246.975409,210.85038 243.507678,208.31615 240.181642,205.634557 C233.364596,200.138361 226.978514,194.106996 220.284375,188.46419 C223.981463,184.14719 226.936746,179.654611 228.719631,175.276868 C234.514149,176.834995 240.483831,178.199356 246.427466,179.427937 L246.523964,179.447834 L244.917506,178.773209 C239.840588,176.638977 234.773857,174.510576 229.709726,172.442148 C230.084914,171.156137 230.345875,169.886178 230.482977,168.639675 Z M97.9433831,167.91113 L97.7013127,168.002352 L97.7013127,168.002352 L96.7136292,168.387062 C68.3965581,179.635405 40.385093,191.648259 12.4642184,203.845646 C11.202802,204.396703 9.94291907,204.951176 8.68440135,205.508691 C5.81573464,196.584101 3.56122177,186.685521 2.06908261,176.454424 C11.9120814,175.648569 21.8107599,175.444755 31.6139222,174.253865 C42.2375114,172.963309 52.8035947,171.134171 63.2687128,168.897443 C74.5486665,166.486559 85.6947464,163.471512 96.8817163,160.647164 C97.1834016,163.015094 97.5301417,165.449201 97.9433831,167.91113 Z M100.73642,180.522822 L97.058381,181.95381 C40.9654346,203.794609 4.37257439,218.20513 100.562376,180.176152 L100.630053,180.149693 C100.665242,180.274162 100.700697,180.39854 100.73642,180.522822 Z M19.3564609,138.2849 C39.1606036,143.289955 59.2263746,147.271521 79.3488924,150.786655 C84.8924878,151.755046 90.4609108,152.591451 96.0451591,153.312076 C96.0676237,153.550586 96.0913328,153.793824 96.1161788,154.039529 L96.2029017,154.864546 C96.3565541,156.27333 96.5205815,157.721175 96.7005346,159.198466 C92.0941474,159.687198 87.4989048,160.260287 82.9239853,160.989117 C55.5234803,165.35429 28.9205886,171.564889 1.98635162,175.882454 C-0.0815007725,161.409543 -0.622149457,146.297594 0.778707477,132.344924 C6.88889924,134.596689 13.0522669,136.691656 19.3564609,138.2849 Z M331.57608,105.630834 C332.563458,109.152071 331.300598,112.954952 331.57608,116.601445 C332.035095,122.67734 332.908695,128.719061 333.623636,134.772526 L332.34475,134.964847 C325.061376,136.014926 317.605905,135.82895 310.388625,137.264139 C300.873631,139.156238 291.854527,143.183384 282.308927,144.914697 C265.356198,147.98946 248.068905,148.943306 231.064022,151.693347 C231.005125,149.22815 230.899976,146.758798 230.772556,144.291097 L230.802295,144.278951 C265.069942,129.686997 278.159114,123.601953 279.18208,122.446487 L279.213964,122.368834 L274.015167,124.32385 C255.515295,131.27372 241.264989,136.590882 230.539871,140.559714 L230.565206,140.550137 C230.543505,140.178758 230.521564,139.807448 230.499459,139.436216 C252.235332,131.134037 278.828226,121.360532 279.242924,122.300066 L279.213964,122.368834 L281.317859,121.578636 C293.841099,116.867963 308.137378,111.475761 324.395706,105.327828 L330.790322,102.908247 C331.05747,103.807906 331.319386,104.715399 331.57608,105.630834 Z M93.5370056,127.947718 L95.8581207,128.911881 C94.7896013,128.728349 93.1828751,128.595451 90.8376829,128.335051 L97.7359656,130.335116 L97.7366933,130.318813 C97.739003,130.033137 97.6850082,129.806458 97.5559778,129.622113 L97.5770881,129.629994 C98.0435488,129.825604 98.5010418,130.017996 98.9492506,130.207052 L98.7513806,130.629187 L97.7359656,130.335116 L97.7330811,130.431394 C97.7063906,130.921025 97.5370969,131.572359 97.3057888,132.457081 C87.423121,129.292321 72.1798646,124.170596 50.2477396,116.601445 C36.4390011,111.835814 24.4746636,107.673974 14.1584151,104.053752 L14.1499644,104.049834 L15.8728517,104.961717 C22.0937148,108.25508 28.3167136,111.545307 34.6731286,114.559922 C45.4849404,119.687569 56.760912,123.791271 67.6073175,128.845431 C75.7477425,132.638671 83.3387968,137.581495 91.6063537,141.089418 C92.968682,141.667453 94.3405217,142.227186 95.7212402,142.766241 C95.6520942,144.311572 95.6365557,146.037953 95.6997955,147.96555 C93.7340327,147.659326 91.772395,147.324622 89.8162278,146.95622 C75.7397018,144.30521 61.6987581,141.28805 47.952045,137.264139 C21.2841843,129.457973 9.07774262,124.853081 2.21793581,122.011844 C2.73287797,119.193694 3.33803241,116.447539 4.03979316,113.791773 C4.83699111,110.77483 6.60527652,106.749287 8.93542187,102.217756 C8.9990196,102.239992 9.06783101,102.264226 9.13672271,102.288487 L14.1499644,104.049834 L13.5398717,103.727091 C12.130384,102.981868 10.7201639,102.238232 9.30768556,101.499349 C9.62720648,100.885374 9.95713427,100.262174 10.2957916,99.6315613 L10.3159751,99.6379094 C19.2586283,101.847983 17.5411666,100.868547 10.9063138,98.5183606 C11.404423,97.5908524 11.9263161,96.651512 12.4623105,95.7017953 L12.4519937,95.6966047 C38.7518522,106.020624 72.7704488,119.354845 93.5370056,127.947718 Z M304.314817,52.3770515 L303.623502,52.8916032 C301.52993,54.4525697 299.446681,56.027717 297.412619,57.6597423 L297.184964,57.8428344 L297.445995,57.6753156 C299.907261,56.1064689 302.405997,54.5910944 304.907476,53.079124 C312.426472,62.0500348 318.745068,72.218684 323.892182,83.9403069 C316.266858,87.3864673 308.684214,90.9209989 301.200687,94.6602224 C254.90181,117.793948 262.319859,116.234937 230.372737,137.293423 L230.230193,134.964847 C230.098882,132.767646 229.603499,128.082951 228.694946,123.168671 C238.645353,113.903245 249.26854,105.356292 259.073403,95.9335969 C270.220737,85.2207552 280.248017,73.3754953 291.496864,62.7691496 C293.077547,61.2787507 294.719379,59.8575013 296.399867,58.4806924 L297.184964,57.8428344 L295.997851,58.6079171 C294.0735,59.8606824 292.17659,61.152668 290.324049,62.5082791 L288.943226,63.5372986 C279.006498,71.0820532 270.470619,80.3233301 260.863528,88.2830389 C250.550504,96.8276308 239.282494,104.203739 229.208738,113.028779 L229.713964,112.591834 L227.378747,115.814409 C227.285977,115.941911 227.193187,116.069399 227.100377,116.196872 C227.001495,115.852903 226.901262,115.514419 226.798595,115.181574 C227.594802,114.455784 228.398456,113.73862 229.208738,113.028779 L229.713964,112.591834 L230.73118,111.189161 C245.223271,91.1208331 259.276347,70.7326662 273.575469,50.5225637 L275.810964,47.3678344 L274.583347,48.7486087 C257.28583,68.1270445 239.586154,87.1522432 222.516411,106.728622 C220.505161,103.871297 218.400142,101.31948 216.204797,99.044163 C220.13357,88.7985562 224.052149,78.5471574 228.187283,68.3833394 C228.957486,66.4902422 229.750417,64.6059532 230.565125,62.7309096 L231.258964,61.1498344 L231.143162,61.3520804 C224.832145,72.2637895 217.975048,82.859703 210.562546,93.0197117 L210.131234,93.6073319 C208.514548,92.3676069 206.85548,91.2458548 205.154155,90.2326276 C208.046501,82.7163679 210.831074,75.1523805 213.161719,67.4533838 L213.184964,67.3718344 L213.00065,67.7390031 C211.550901,70.6020345 210.061873,73.4529826 208.873878,76.4190322 L208.526851,77.3124274 C206.974385,81.4412682 206.029784,85.7968981 204.872776,90.0666883 C198.697146,86.4415028 191.967599,84.2320578 184.690195,82.9898147 C184.962094,81.2386981 185.174652,79.5126595 185.296486,77.8228082 C187.071719,53.2000676 194.689408,26.1629102 194.91319,0.0270261022 C201.925015,-0.0509370148 209.014184,0.0413276581 216.187765,0.270689295 C220.15148,0.397421557 223.877848,1.12687563 227.457153,2.24174263 C226.609547,7.58463809 225.827794,12.9864162 225.022147,18.3943695 L224.877964,19.3568344 L224.922402,19.1526373 C226.107263,13.6227584 227.262576,8.08646178 228.409343,2.54972583 C237.064031,5.42642948 244.893684,10.474944 253.202615,14.5561989 L254.054998,14.9773157 C252.918296,17.6957427 251.752062,20.4058056 250.556177,23.1059393 L250.068964,24.1978344 L250.886398,22.6452999 C251.937511,20.6335559 252.975728,18.6153054 253.993377,16.5866682 L254.644753,15.2704236 C265.991651,20.9367235 276.178154,27.1398044 285.230215,34.1974411 C282.431398,38.0741973 279.650099,41.9641029 276.879946,45.8620814 L275.810964,47.3678344 L278.223106,44.6583609 L278.223106,44.6583609 C280.867366,41.6771033 283.612095,38.7537415 285.878861,35.4766602 C285.979093,35.3317543 286.087987,35.1686104 286.203887,34.9902506 L286.215385,34.9724939 C292.868685,40.2542028 298.898298,46.0124887 304.314817,52.3770515 Z M37.1871003,56.6413943 C55.1124824,72.4922314 67.5197128,82.2077644 87.0098057,102.821161 C92.4593119,108.584748 97.756423,114.488349 102.995131,120.445176 C102.214817,122.390345 101.414072,124.411531 100.533486,126.519869 L100.462942,126.494764 C61.2922264,112.012167 32.945584,101.565611 13.2099969,94.337086 L13.2331821,94.3455663 C21.1831086,80.454511 31.7953127,64.7512093 35.952527,58.4334897 C36.2374018,58.0005653 36.5285124,57.5722034 36.8256149,57.1483094 Z M69.4005569,30.6078009 C71.7052426,33.7842984 73.9634599,36.991277 76.0317427,40.322701 C88.542188,60.4735218 102.757873,79.8110511 114.882408,100.198831 C111.436152,103.62953 109.061246,107.219646 107.084464,111.098308 C105.998876,110.065614 104.99827,109.161804 104.116599,108.435351 C68.7250085,79.2744523 82.9920296,92.3865409 106.185931,112.918123 C106.013156,113.301917 105.837545,113.683446 105.664026,114.067895 L105.685808,114.087218 C87.0010374,98.0835459 62.8581692,77.3893571 32.1246497,51.0355444 L37.7548367,55.8628306 C45.7845126,45.0854459 57.6897298,37.2581512 69.1943814,30.7239543 Z M100.956401,15.7908552 C101.068259,16.3149329 101.184354,16.8382398 101.305018,17.3607162 C105.823529,36.9258279 111.995665,56.0782966 117.901084,75.2709038 C119.405824,80.1613069 121.315619,84.9381314 123.519087,89.5564134 C123.961399,90.4834611 124.430927,91.3997225 124.920885,92.3078099 C123.803965,93.0309266 122.702972,93.7891441 121.617227,94.5803344 L121.606939,94.5680347 C118.102937,90.0983376 115.133597,86.3439116 112.633472,83.2137495 L111.856964,82.2428344 L111.690911,81.9370867 C108.667788,76.4672236 101.160066,64.380381 85.9224005,41.1636702 L83.692656,37.7707965 C81.2616671,34.076379 78.6244723,30.5274707 75.8768436,27.0589581 C83.917386,22.8172676 92.0193672,19.180127 100.195317,16.0766607 Z M134.005852,6.1994059 C138.37535,28.9512265 143.550059,56.267833 144.706543,73.9975292 C144.909925,77.115516 145.222352,80.2585674 145.583113,83.4156072 C140.140896,84.6743617 134.949987,86.6613853 130.024951,89.2915756 C129.041707,81.0823755 128.267688,72.8246307 126.32551,64.8106732 C121.884344,46.4852182 115.715577,28.6120362 109.729444,10.7309199 L110.326078,12.5120223 C117.717726,10.1112482 125.173514,8.11701511 132.703486,6.47920255 Z M111.364035,81.6277431 L111.856964,82.2428344 L112.092629,82.6739696 C120.522613,98.3784331 83.550802,46.9554168 111.364035,81.6277431 Z M186.338294,0.212886651 C186.202847,12.0522512 186.292944,23.9014858 185.807214,35.729273 C185.162669,51.4242627 184.753862,67.1529048 183.675879,82.8234788 C177.270533,81.8151803 170.448296,81.5298888 163.211778,81.6682239 C163.0155,71.041978 162.779791,58.3122673 160.275995,37.0026475 C158.010603,17.7220666 157.628647,8.3215891 156.890984,2.41553498 C166.312835,1.26581586 175.862558,0.570866087 185.557773,0.238449503 Z M224.877964,19.3568344 L224.255811,22.247941 C221.352685,35.6576813 218.252575,49.0230805 214.655582,62.2587687 C214.340522,63.4180821 214.013613,64.5739461 213.676007,65.7266535 L213.184964,67.3718344 L213.434057,66.879604 C215.016396,63.7262122 216.510031,60.5428102 217.462004,57.1601151 C220.799814,45.2997097 222.861911,32.785375 224.741449,20.2713838 L224.877964,19.3568344 Z M250.068964,24.1978344 L249.301014,25.6585211 C245.05264,33.6833515 240.659264,41.6351209 236.611708,49.7621698 C234.78938,53.421204 233.045297,57.1213016 231.387056,60.8589641 L231.258964,61.1498344 L232.000371,59.8621739 C238.546372,48.4247238 244.495984,36.6480839 249.859861,24.6694976 L250.068964,24.1978344 Z" id="Combined-Shape" fill="#E3E7D3" style="mix-blend-mode: multiply;"></path>
                <path d="M132.453281,115.427293 C144.730828,113.149878 140.135778,114.366336 161.314054,101.595452 C162.882606,100.649587 157.637248,102.067202 155.944726,102.767872 C147.817015,106.13258 126.874353,120.932673 131.949747,113.751682 C137.615705,105.735123 160.901823,109.281664 157.95886,99.9181469 C155.056601,90.6841408 140.231236,107.803305 131.02745,110.817244 C129.927269,111.177518 132.203294,108.751103 133.124658,108.050537 C136.106779,105.783063 139.234325,103.649221 142.605328,102.013932 C146.936788,99.9127208 151.911439,99.2496604 156.11257,96.898997 C157.605764,96.0635088 152.620369,96.7814122 150.995857,97.3191705 C143.783417,99.7066868 137.269577,106.833195 129.769464,105.619291 C123.827468,104.657571 139.906902,99.0859473 145.29084,96.3958053 C150.450928,93.8175123 155.972983,92.0370699 161.314054,89.8577023" id="Path-92" stroke="#212121" stroke-width="5.322292" stroke-linecap="round" stroke-linejoin="round"></path>
                <path d="M169.368893,103.438794 C170.655136,103.271064 171.936377,102.812068 173.227621,102.935603 C223.168352,107.713498 171.702834,106.453308 168.446596,98.744033 C165.438316,91.6218055 183.698565,101.929219 191.434508,101.929219 C198.727366,101.929219 176.813303,100.704815 169.789352,98.744033 C166.503443,97.8267499 176.624922,98.4564993 180.024475,98.744033 C185.565079,99.2126566 191.098731,102.097013 196.551222,101.007548 C218.062576,96.7093562 139.174823,96.7425378 171.383027,95.6418649 C179.643361,95.3595789 187.882648,96.6482483 196.132458,97.1514399" id="Path-93" stroke="#212121" stroke-width="5.322292" stroke-linecap="round" stroke-linejoin="round"></path>
                <path d="M157.95886,99.7504163 C162.285198,99.7504163 163.946842,106.75904 164.250484,109.727843 C165.264704,119.644183 164.399825,155.885456 142.605328,148.627777 C123.071697,142.122978 131.238952,81.9294804 160.476527,99.8334345" id="Path-94" stroke="#212121" stroke-width="5.322292" stroke-linecap="round" stroke-linejoin="round"></path>
                <path d="M165.089707,118.781904 C167.935288,106.74666 171.273675,93.6704491 188.330233,99.4979734 C195.339803,101.892855 194.137329,123.524337 193.95048,126.829582 C193.222937,139.699365 176.70992,151.227834 168.026137,135.632895 C165.575643,131.232128 165.620932,125.851436 164.418329,120.960707 L165.089707,118.781904 Z" id="Path-95" stroke="#212121" stroke-width="5.322292" stroke-linecap="round" stroke-linejoin="round"></path>
                <path d="M126.497345,131.190576 C139.602173,119.756052 145.88228,118.91435 163.160343,118.110982" id="Path-96" stroke="#212121" stroke-width="5.322292" stroke-linecap="round" stroke-linejoin="round"></path>
                <path d="M164.754018,120.960707 C173.006288,115.422133 187.111332,111.907254 196.635992,115.930485" id="Path-97" stroke="#212121" stroke-width="5.322292" stroke-linecap="round" stroke-linejoin="round"></path>
                <path d="M144.451618,122.805743 C146.145861,127.010883 155.50182,143.347622 161.985432,132.530727 L163.744395,117.845966 C154.024425,119.128104 147.765083,120.128919 144.966368,120.848411 C143.477799,121.231091 143.306215,121.883535 144.451618,122.805743 Z" id="Path-98" fill="#212121"></path>
                <path d="M178.34603,118.02627 C180.3247,124.516616 184.993961,137.540504 194.118324,129.513271 L193.789238,115.594132 L186.278027,114.09291 L178.34603,118.02627 Z" id="Path-99" fill="#212121"></path>
                <path d="M97.6457399,171.139364 C102.162125,154.886547 143.592329,153.739834 167.5,150.872861 C186.278027,148.621027 214.499452,142.917709 231.345291,163.633252 C232.396336,164.925734 235.100897,174.141809 226.087444,180.146699 C217.073991,186.151589 176.149693,161.854889 167.5,163.633252 C138.562182,169.582821 123.183857,180.146699 111.91704,180.146699 C104.40583,180.146699 99.6487294,177.144254 97.6457399,171.139364 Z" id="Path-100" fill="#212121"></path>
                <path d="M150.224215,189.515487 C167.066468,208.369708 175.662673,226.734675 186.278027,196.660147 C186.978653,194.675191 191.347362,184.315011 189.282511,183.899756 C184.146854,182.866939 170.023567,189.050958 164.823294,189.683217 C160.54785,190.203034 156.209538,189.739692 151.90266,189.76793 L150.224215,189.515487 Z" id="Path-101" fill="#212121"></path>
            </g>
            <g id="Group-34" transform="translate(719.000000, 451.000000)">
                <path d="M63.375,14.521436 L257.625,28.0516374 C260.475378,39.2189523 261.848546,61.0863529 261.744504,93.653839 L262.227192,93.3511938 C264.768706,91.7745303 266.840809,90.78582 271.120437,89.8498221 L271.700744,89.7273605 C277.25998,88.5931635 289.24551,87.1742146 293.866286,88.3691262 C306.488051,91.6330577 312.362221,107.664844 305.091471,118.416783 C295.904949,132.001751 276.808473,141.036857 260.958981,136.305114 L260.807297,141.100645 C260.121178,162.090135 259.060394,185.79469 257.625,212.212711 C191.125,221.733964 105.375,221.733964 0.375,212.212711 C-3.09,146.726537 17.45745,81.4859353 62.01735,16.4909072 L63.375,14.521436 Z" id="Path" fill="#E3E7D3" style="mix-blend-mode: multiply;"></path>
                <g id="Group-33" transform="translate(44.990858, 0.000000)" stroke="#212121" stroke-linecap="round" stroke-linejoin="round" stroke-width="5.322292">
                    <path d="M0.596181661,1.1845567 C0.53004008,4.76285317 -1.56638881,18.3183432 2.51828195,23.5355861 C12.5474299,36.345554 38.2496225,52.1128152 53.6210787,38.6327014" id="Path-110"></path>
                    <path d="M16.6952639,2.51568733 C21.5542306,15.9046645 26.6147101,26.7270895 40.0320684,33.4517615 C44.6693164,35.7759129 55.4916553,41.2310689 60.1186134,35.8208749" id="Path-111"></path>
                    <path d="M36.7818088,3.41823512e-13 C40.1964805,15.0845655 44.8440248,32.1656802 61.7422509,34.9324574" id="Path-112"></path>
                    <path d="M58.1994977,1.77683505 C58.0180092,2.94720664 54.9615351,17.5153778 55.8356725,22.4976034 C58.8913885,39.9139348 75.62411,51.0866359 93.2032122,47.2177462 C103.324404,44.9902276 107.017503,40.1829974 114.47167,33.7479007" id="Path-113"></path>
                    <path d="M70.7528421,6.3654966 C70.7528421,15.0269413 70.3925812,11.3236503 78.5815208,26.6435518 C88.0532975,44.3633904 99.3902358,44.9438631 114.176192,34.1936051" id="Path-114"></path>
                    <path d="M86.5564462,6.21593136 C91.0950907,20.8680644 98.2397139,31.435338 113.585235,35.0820226" id="Path-115"></path>
                    <path d="M110.039497,4.73523549 C110.13799,11.1495901 108.96257,17.7123791 110.334976,23.9782992 C116.657778,52.8459832 153.521894,50.193829 170.299132,34.340179" id="Path-116"></path>
                    <path d="M127.320492,3.9963832 C127.271743,7.15420396 125.906133,10.5786681 127.174246,13.4698455 C131.979669,24.4257596 146.290531,46.2787912 162.028729,41.8902323 C165.502773,40.9215034 168.133287,38.0414202 171.185567,36.1170141" id="Path-117"></path>
                    <path d="M144.306009,4.88480073 C148.333736,24.6941009 149.592256,31.5079801 170.743842,33.6013267" id="Path-118"></path>
                    <path d="M168.675495,6.06935743 C169.264184,19.9924839 165.522882,48.2959629 186.547446,50.4752771 C193.404076,51.1860054 200.356851,50.7682563 207.224947,50.1791379 C213.85056,49.6108188 216.437402,46.4549329 221.697407,42.6290846" id="Path-119"></path>
                    <path d="M182.115274,5.77321825 C182.812273,22.9690519 179.91835,40.8052499 193.635937,53.5832428 C201.868911,61.2522941 223.174798,52.7359359 223.174798,42.3329454" id="Path-120"></path>
                    <path d="M195.259574,16.1350981 C194.28428,26.3936657 208.162679,68.039659 224.505942,51.6598338" id="Path-121"></path>
                </g>
                <path d="M79.1163481,61.27987 C89.2083695,60.4911626 99.4473395,60.80575 109.392412,58.9137479 C114.156635,58.0073776 124.802088,48.6179939 122.685944,52.9909644 C120.120781,58.2918267 103.755529,66.5399528 95.9526334,67.6453666 C88.9968706,68.6307695 69.8299953,64.9295411 74.979654,69.7183408 C79.4412178,73.8672635 99.4271715,69.8825047 107.028587,67.0530882 C111.016935,65.5685362 121.979547,59.157658 118.698482,61.8721483 C112.375745,67.1030743 105.351273,71.7321339 97.7255023,74.7497155 C91.7473861,77.1153064 85.0187915,76.6976135 78.6716386,77.7111072 C74.4912971,78.3786112 87.1211774,76.8280998 91.224983,75.7876982 C99.6051896,73.6631385 107.862705,71.0486959 116.039178,68.2376449 C118.080409,67.5358751 123.525838,63.9784824 121.79951,65.2762532 C116.741791,69.0784048 111.843072,73.3775201 105.995906,75.7876982 C95.0320177,80.3069684 73.5409178,74.0893625 71.8786257,85.8534389 C70.5894651,94.9768561 118.933719,70.5885903 123.867857,68.2376449" id="Path-122" stroke="#212121" stroke-width="5.322292" stroke-linecap="round" stroke-linejoin="round"></path>
                <path d="M92.1326745,86.5969334 C104.506518,94.1219571 98.7370492,101.34627 94,117 C88.6838281,134.567459 82.5607306,112.953879 81.7725236,106.996544 C79.5304478,90.050748 82.9838314,83.2508776 92.1326745,86.5969334 Z" id="Path-124" fill="#212121"></path>
                <path d="M137.453883,59.356461 C167.620828,61.9458226 137.819084,58.3258408 177.185247,67.9415058 C182.760606,69.3033551 199.788227,69.578065 194.170764,70.7533323 C185.044923,72.6626108 162.466135,71.9559799 150.747415,68.091071 C147.107934,66.8907469 136.606779,62.5804063 140.408664,63.056705 C154.856689,64.8667485 159.570506,73.3110404 172.015872,79.9306554 C175.044995,81.5418277 185.342167,82.7454732 181.912898,82.7454732 C171.100857,82.7454732 144.382719,68.7265969 140.853374,67.3492274 C140.228758,67.1054639 138.87318,67.2722356 138.931273,67.9415058 C139.999172,80.2444082 180.227491,85.9126677 186.046607,88.072987 C189.231629,89.2554112 179.240145,88.3756267 175.857088,88.072987 C170.947124,87.6337541 166.010541,87.0800257 161.235397,85.8534389 C156.166145,84.5513049 151.145098,82.8684815 146.464474,80.5229337 C143.38241,78.9784543 141.269957,75.8638031 138.19407,74.3070024 C136.271835,73.3340998 129.863475,72.2722253 131.842782,73.1224457 C150.513266,81.1424362 165.826913,86.5301294 185.309404,90.1459613 C186.132166,90.2986607 188.222722,90.8691256 187.523998,91.3305179 C168.147045,104.125804 145.409409,89.6495966 130.069913,78.4529508" id="Path-123" stroke="#212121" stroke-width="5.322292" stroke-linecap="round" stroke-linejoin="round"></path>
                <path d="M132.729217,84.372743 C131.423698,85.4938311 130.853486,87.395791 130.66087,89.1079785 C130.103742,94.0603531 129.99261,99.1023036 130.514623,104.05852 C132.027918,118.426403 144.761634,134.337232 160.790687,129.816645 C169.693631,127.305797 183.94772,99.3869782 183.832014,94.5850576" id="Path-125" stroke="#212121" stroke-width="5.322292" stroke-linecap="round" stroke-linejoin="round"></path>
                <path d="M87.5268384,75.2348633 C86.6278303,74.713113 85.2135808,74.2605843 84.4253142,74.937237 C83.1201958,76.0575583 82.55085,77.9590238 82.3590497,79.6709234 C81.8042816,84.6224655 81.6956045,89.663792 82.220101,94.6197043 C83.158247,103.484148 88.3686584,112.938003 95.9871127,117.819483" id="Path-125" stroke="#212121" stroke-width="5.322292" stroke-linecap="round" stroke-linejoin="round" transform="translate(88.933336, 96.207753) rotate(13.000000) translate(-88.933336, -96.207753) "></path>
                <path d="M124.309582,69.1260625 C114.582991,91.1148225 96.4690093,106.782541 85.7601295,128.03981 C82.0458276,135.412749 69.8498267,157.01022 75.4213789,160.160441 C90.375,168.615396 115.875,155.085194 124.125,141.554993 C128.03512,135.142301 135.165724,143.854306 138.489548,146.541031 C163.083338,166.420761 159.528897,195.068751 149.270024,222.478294" id="Path-126" stroke="#212121" stroke-width="5.322292" stroke-linecap="round" stroke-linejoin="round"></path>
                <path d="M107.020144,158 C111.075449,182.354706 106.019843,201.406211 102,226.680358" id="Path-127" stroke="#212121" stroke-width="5.322292" stroke-linecap="round" stroke-linejoin="round"></path>
                <path d="M104.518515,183.399888 C125.467812,193.385742 135.843326,191.936415 155.770543,180.884201" id="Path-128" stroke="#212121" stroke-width="5.322292" stroke-linecap="round" stroke-linejoin="round"></path>
                <path d="M132.722163,83.590222 C145.096007,91.1152457 152.629631,103.645763 147.892582,119.299493 C142.57641,136.866952 129.900219,112.953879 129.112012,106.996544 C125.748899,81.5778497 131.758808,99.2696238 131.758808,86.7256939" id="Path-124" fill="#212121"></path>
            </g>
            <g id="Group-47" transform="translate(961.000000, 248.000000)">
                <g id="Group-43" transform="translate(0.000000, 68.000000)">
                    <path d="M16.2383135,36.0985818 C42.7083757,3.08100701 92.4810789,-1.36143283 134.081017,0.295682618 C175.680955,1.95279807 189.741604,11.855576 210.575688,43.8399267 C231.409772,75.8242773 226.764087,100.753513 214.900373,124.369033 C187.101813,179.703933 55.9889946,196.74632 12.6099759,144.688162 C-10.5079974,116.944817 3.9493937,72.6027751 10.6562556,44.0550244 L16.2383135,36.0985818 Z" id="Path-129" fill="#038225"></path>
                    <path d="M111.744966,17.6007993 C119.401764,36.292714 140.948493,23.774554 132.44022,10.5299145" id="Path-132" stroke="#212121" stroke-width="5.322292" stroke-linecap="round" stroke-linejoin="round"></path>
                    <path d="M92.1616388,1.5042735 C107.175329,9.1217323 116.877752,22.5475773 129.38752,34.1764427 C136.308418,40.609991 143.139519,47.1635764 149.464663,54.1607941 C151.325144,56.2189581 154.90765,58.6764272 153.828014,61.2138405 C152.836394,63.5443943 129.277603,65.3066362 127.206947,61.5334519 C126.136322,59.5825401 125.825509,52.8000478 125.897281,55.013811 C126.55965,75.4444185 134.828038,96.7864851 129.931683,113.34463 C127.310706,122.208063 90.6613141,116.145115 92.1587408,121.42512 C95.3331588,132.618285 108.179307,133.492483 130.697186,124.047716 C132.921416,128.578833 131.62049,134.096214 131.35202,139.116962 C130.746373,150.443355 129.170712,161.699956 128.080058,172.991453" id="Path-130" stroke="#212121" stroke-width="5.322292" fill="#038225" stroke-linecap="round" stroke-linejoin="round"></path>
                    <path d="M74.0976432,25.2129963 C72.4886453,37.881785 89.8487922,45.8866605 101.128472,36.555944 C108.708019,30.2860317 104.614137,22.1468186 104.492297,13.5384615" id="Path-131" stroke="#212121" stroke-width="5.322292" stroke-linecap="round" stroke-linejoin="round"></path>
                </g>
                <path d="M78.5589911,48.5188125 C73.1249497,38.0165791 70.4608941,24.7667028 77.4331455,13.7822771 C87.8914485,-2.6942448 110.11747,-6.35173971 118.719988,13.6495419 C125.395383,29.1701669 109.26512,48.3510459 109.708846,50.2826763 C112.234179,61.2759855 148.019777,17.2010803 141.117838,40.7604844 C132.500985,70.1736545 83.7231698,75.1542952 62.3567944,58.6583567 C40.9901271,42.1621928 61.1273532,42.3637302 74.1405285,48.4751613 L78.5589911,48.5188125 Z" id="Path-134" fill="#F5B700"></path>
            </g>
            <g id="Group-38" transform="translate(925.000000, 604.000000)">
                <g id="Group-39" transform="translate(0.000000, 0.054178)">
                    <path d="M193.985433,128.176408 C217.799928,128.176408 247.049928,126.678778 281.735433,123.683517 L290.735433,79.5034226 L251.735433,79.5034226 L254.735433,15.1053183 L38.7354325,15.1053183 L37.4152117,50.8177792 C12.4717372,43.8694058 0,47.1345556 0,60.6132286 C0,74.0919016 11.1618108,82.1358683 33.4854325,84.7451287 L40.9854325,119.190626 C119.170937,125.181148 170.170937,128.176408 193.985433,128.176408 Z" id="Path-8" stroke="#F5B700" stroke-width="27.322292" stroke-linecap="round"></path>
                    <g id="Group-50" transform="translate(161.724762, 9.168975)" fill="#212121">
                        <path d="M1.53689092,5.12796579 C0.460346741,23.9322982 17.1762295,28.7183909 21.8102903,11.4096736 C25.3457221,-1.79554608 6.07534937,-3.04853952 2.27373675e-13,5.12796579" id="Path-154"></path>
                        <path d="M64.4874287,2.13270513 C64.8142064,6.13434386 64.5726547,10.2234328 65.4677617,14.1376213 C69.3503096,31.1155054 90.550554,14.6431126 79.3082555,0.457206957" id="Path-155"></path>
                    </g>
                    <path d="M265.141169,0.00834642244 C269.764267,0.00834642244 264.293917,41.2703517 261.391169,49.5508159 C257.709406,60.0535187 249.019779,57.7877828 239.641169,57.7877828 C236.661189,57.7877828 234.102838,57.6895063 231.854124,57.4302483 C226.973245,51.5123008 220.279218,44.7378218 213.208903,39.155879 L213.208903,39.155879 L214.256158,45.2547584 C214.053196,44.9449807 213.848406,44.6278584 213.641497,44.3032284 C213.39334,43.9138834 213.149846,43.5203571 212.910825,43.1223181 C207.227224,57.4655392 195.778977,61.5318586 181.891169,61.5318586 C149.776569,61.5318586 136.95983,37.068927 142.099415,0.00834642244 L265.141169,0.00834642244 Z M201.326669,16.7230255 L157.938419,16.7230255 L157.92517,16.9356894 C157.298428,27.1055689 158.706876,34.6701081 161.86989,39.6838001 L162.037983,39.9453236 L162.198157,40.1857115 C165.983634,45.7690593 172.714897,48.6813322 183.391169,48.6813322 C191.264465,48.6813322 196.476853,43.1992527 199.601706,29.5452074 L199.701746,29.0914896 C200.21803,26.6641336 200.724787,22.9493099 201.205539,18.0082747 L201.298259,17.0366501 L201.326669,16.7230255 Z M252.862169,16.7230255 L220.722419,16.7230255 L220.738036,16.786251 C225.587103,36.6708645 232.119331,44.596664 244.801161,44.9264715 L245.187346,44.9341451 L245.641169,44.9372564 C246.09533,44.9372564 246.331571,44.8409841 246.758787,44.4347541 C247.65842,43.5793145 248.645456,41.889925 249.552763,39.3017159 C251.276719,34.3839069 252.392269,27.1487873 252.821408,17.6994655 L252.862169,16.7230255 Z" id="Combined-Shape" fill="#00B832" fill-rule="nonzero"></path>
                    <path d="M180.259469,78.9458218 C197.921083,92.0470539 217.526236,93.7120083 236.88836,89.7355357" id="Path-145" stroke="#212121" stroke-width="5.322292" stroke-linecap="round" stroke-linejoin="round"></path>
                    <path d="M199.1742,112.573766 C202.957745,127.700414 211.887276,137.232896 221.34126,149.893484" id="Path-146" stroke="#212121" stroke-width="5.322292" stroke-linecap="round" stroke-linejoin="round"></path>
                    <path d="M214.61942,110.925104 C224.949227,143.60027 222.65309,129.663597 224.996454,152.010814" id="Path-147" stroke="#212121" stroke-width="5.322292" stroke-linecap="round" stroke-linejoin="round"></path>
                    <path d="M227.472169,113.280336 C230.559578,145.048288 230.18378,131.837436 230.18378,152.836334" id="Path-148" stroke="#212121" stroke-width="5.322292" stroke-linecap="round" stroke-linejoin="round"></path>
                    <path d="M241.149362,113.280336 C238.791198,127.76065 236.433034,142.240963 234.07487,156.721277" id="Path-149" stroke="#212121" stroke-width="5.322292" stroke-linecap="round" stroke-linejoin="round"></path>
                    <path d="M250.701952,114.457952 C249.852498,129.857338 245.791456,142.136558 238.085099,155.42471" id="Path-150" stroke="#212121" stroke-width="5.322292" stroke-linecap="round" stroke-linejoin="round"></path>
                    <path d="M261.195743,112.925862 C259.786625,127.946408 255.502575,142.414559 245.395487,154.130522" id="Path-151" stroke="#212121" stroke-width="5.322292" stroke-linecap="round" stroke-linejoin="round"></path>
                    <path d="M266.974,129.055631 C254.485875,145.785677 252.976467,150.912445 234.310766,155.308138" id="Path-152" stroke="#212121" stroke-width="5.322292" stroke-linecap="round" stroke-linejoin="round"></path>
                    <path d="M181.521745,73.4771847 C180.391169,76.5129012 178.141169,79.5081619 174.391169,79.6808925" id="Path-144" stroke="#212121" stroke-width="5.322292" stroke-linecap="round" stroke-linejoin="round"></path>
                </g>
                <g id="Group-37" transform="translate(199.174200, 110.979282)"></g>
            </g>
            <g id="Group-49" transform="translate(124.000000, 478.000000)">
                <path d="M25.9184444,265.013586 C26.1695496,155.757276 142.219631,48.7282001 225.372847,48.7944614 C351.646417,48.8951611 394.981841,272.88097 389.186478,273.278254 C353.43225,275.729283 232.342906,272.974393 25.9184444,265.013586 Z" id="Path-166" fill="#E3E7D3" style="mix-blend-mode: multiply;" transform="translate(207.805448, 161.469101) rotate(-17.000000) translate(-207.805448, -161.469101) "></path>
                <g id="Group-43" transform="translate(151.000000, 127.000000)" fill="#BEEF9E">
                    <path d="M164.673519,11.9273303 C170.123535,55.4149547 127.540582,165.176198 82.5699482,159.144385 C13.9634739,149.942349 -0.708379384,54.0810726 0.843052324,13.1402316 C0.940284839,10.5743559 20.8675078,0.234991451 64.8226656,0.17841036 C108.777823,0.124116486 164.431565,9.99669776 164.673519,11.9273303 Z" id="Path-129"></path>
                </g>
                <g id="Group-44" transform="translate(196.000000, 135.000000)" stroke="#00B832" stroke-linecap="round" stroke-linejoin="round" stroke-width="5.322292">
                    <path d="M42.3932584,14.7772052 C48.5348324,31.2142064 65.8176221,20.2061843 58.9930735,8.55932203" id="Path-132"></path>
                    <path d="M25.9935909,0 C38.1620635,6.84368999 46.0257971,18.9057599 56.1648608,29.3533845 C61.7741918,35.1334237 67.3107426,41.0213067 72.4372204,47.3077587 C73.9451243,49.1568578 76.8487158,51.3647013 75.9736798,53.6443684 C75.1699801,55.7381884 56.0757738,57.3214247 54.3975246,53.9315142 C53.5297916,52.1787728 53.2778806,46.0852348 53.3360506,48.0741276 C53.6939475,60.3109944 54.7661649,68.0269497 56.5527029,71.2219934" id="Path-130"></path>
                    <path d="M0.316747864,92.6202985 C9.42309844,83.1930767 33.201371,78.7785346 39.6279387,77.5641298 C46.0545065,76.3497249 46.8250017,85.6313833 51.327118,82.9810567 C53.5991878,81.6435241 54.8219023,78.3020534 57.4467888,77.9890709 C61.4302941,77.5140915 67.6954217,79.2779552 76.2421717,83.2806621 C69.5918738,89.1149347 64.4359952,93.7230424 60.7745361,97.1049853 C51.1158876,106.026291 10.5619531,97.4175345 0.316747864,92.6202985 L31.4691008,92.8577197 C100.783563,82.0801743 2.58065395,98.7726763 54.2275079,93.4951315 C55.8466193,93.3296822 56.9463975,91.7238279 58.3058422,90.838176" id="Path-195"></path>
                    <path d="M12.1949243,22.3163183 C10.9218943,33.5296115 24.6571443,40.6148205 33.581563,32.3560941 C39.5784574,26.8065214 36.3394016,19.6024085 36.2430021,11.9830508" id="Path-131"></path>
                </g>
            </g>
            <g id="Group-48" transform="translate(771.000000, 712.000000)">
                <g id="Group-43" transform="translate(65.000000, 4.000000)" fill="#F5B700">
                    <path d="M144,24.8649663 C138.903382,137.736568 15.3104008,179.587836 94.3079766,253.14461 C113.186155,270.722592 -9.21045582,270.967732 1.29470191,253.14461 C57.3574976,158.028092 -1.25360699,137.736568 0.0205474613,35.0107283 C0.170805872,22.8964815 1.89489059,11.5314802 4.95091148,1.09809168 C66.4788892,-0.631913315 111.554431,0.949277012 140.177537,5.84166266 C142.454228,6.23080471 143.728383,12.5719059 144,24.8649663 Z" id="Path-129"></path>
                </g>
                <path d="M225,15 C218.331445,44.2840827 205.645521,74.305318 203.192126,104.384656 C201.414029,126.184653 202.397375,148.128219 202,170" id="Path-185" stroke="#212121" stroke-width="5.322292" stroke-linecap="round" stroke-linejoin="round"></path>
                <path d="M217,15 C202.015999,53.0058615 196.205093,87.196882 194.790429,128.26677 C193.678967,160.534239 190.478563,152.655307 196.860293,166" id="Path-186" stroke="#212121" stroke-width="5.322292" stroke-linecap="round" stroke-linejoin="round"></path>
                <path d="M197,38 C182.347252,96.3397806 181.674802,115.191105 191.931073,175" id="Path-187" stroke="#212121" stroke-width="5.322292" stroke-linecap="round" stroke-linejoin="round"></path>
                <path d="M191,182 C156.236669,150.363605 170.800691,95.1171666 180.11433,56" id="Path-188" stroke="#212121" stroke-width="5.322292" stroke-linecap="round" stroke-linejoin="round"></path>
                <path d="M122.989863,28 C125.128837,38.5786532 124.547051,45.6700203 121.244506,49.2741013 C103.703987,68.4161436 96.8762235,75.780033 77.1541783,103.035177 C76.8843482,103.408072 76.9650196,104.384665 77.4252034,104.389269 C79.6124857,104.411152 82.0559039,104.339474 83.859998,103.102265 C96.5129912,94.425119 106.293547,81.2414092 120.301933,74.9853447 C139.15796,66.5643512 94.4399747,95.6683653 105.264142,101.340166 C109.689061,103.658797 187,93 162,98 C137,103 99.8835518,109.924645 103,114 C116,131 119.273747,138.778673 116,154" id="Path-189" stroke="#212121" stroke-width="5.322292" stroke-linecap="round" stroke-linejoin="round"></path>
                <path d="M76,49 C64.5772725,79.1183117 49.2903307,152.500676 4.29851988,160.990884 C3.72828918,161.098489 3.43283996,160.225587 3,159.842938" id="Path-191" stroke="#212121" stroke-width="5.322292" stroke-linecap="round" stroke-linejoin="round"></path>
                <path d="M69,28 C58.6778621,79.0553489 43.4193508,124.170499 1,154" id="Path-192" stroke="#212121" stroke-width="5.322292" stroke-linecap="round" stroke-linejoin="round"></path>
                <path d="M63,9 C49.8678482,56.6089929 43.2303461,108.379808 3,141" id="Path-193" stroke="#212121" stroke-width="5.322292" stroke-linecap="round" stroke-linejoin="round"></path>
                <path d="M49,11 C36.9510852,61.9095401 35.6287406,95.4089667 0,131" id="Path-194" stroke="#212121" stroke-width="5.322292" stroke-linecap="round" stroke-linejoin="round"></path>
                <path d="M207.241566,0.420183027 C212.724938,0.420183027 203.944158,34.2226448 200.501261,42.0288787 C197.590014,48.6296804 189.573426,51.9919993 176.451496,52.1158352 C161.927307,52.5627126 151.829724,49.2501854 146.158749,42.1782535 C145.864414,41.8112066 145.575611,41.440218 145.292112,41.064975 C138.550898,54.5867458 124.972341,58.420183 108.500266,58.420183 C70.4097279,58.420183 55.2080288,35.3582676 61.3039957,0.420183027 L207.241566,0.420183027 Z M140,13.3267087 L75.2186445,12.420183 L75.2004308,12.6530876 C74.3388277,23.7909049 76.2750696,32.0754137 80.6233739,37.5662935 L80.8544571,37.8527079 L81.0746533,38.1159752 C86.2786795,44.2307289 95.9877943,47.420183 110.664832,47.420183 C121.488525,47.420183 134.253829,42.8706796 138.549672,27.9170843 L138.687201,27.420183 C139.396954,24.7617988 139.172572,20.1455916 139.83348,14.7342839 L139.960945,13.670183 L140,13.3267087 Z M197,14.420183 L150,14.420183 L150.022839,14.4874102 C150,35.670183 150,44.420183 185.211876,44.4087155 L185.776619,44.4168748 L186.440273,44.420183 C187.104422,44.420183 187.449891,44.3178173 188.074637,43.8858758 C189.390227,42.9762926 190.833634,41.1799762 192.160446,38.4279511 C194.681497,33.1988782 196.312836,25.5058247 196.940394,15.458425 L197,14.420183 Z" id="Path-153" fill="#044917" fill-rule="nonzero" transform="translate(134.500000, 29.000000) scale(-1, 1) translate(-134.500000, -29.000000) "></path>
                <path d="M105.760157,25.3176542 C105.227691,33.816529 113.495487,35.979669 115.787527,28.1567578 C117.536177,22.1884784 108.004912,21.6221709 105,25.3176542" id="Path-154" fill="#212121" transform="translate(110.500000, 28.000000) scale(-1, 1) translate(-110.500000, -28.000000) "></path>
                <path d="M133.760157,25.3176542 C133.227691,33.816529 141.495487,35.979669 143.787527,28.1567578 C145.536177,22.1884784 136.004912,21.6221709 133,25.3176542" id="Path-154" fill="#212121" transform="translate(138.500000, 28.000000) scale(-1, 1) translate(-138.500000, -28.000000) "></path>
                <path d="M23.8057419,277.881459 C29.9662459,286.906937 55.8277377,284.567927 41.9760927,266.277273 C28.1244477,247.986618 17.6452378,268.855981 23.8057419,277.881459 Z" id="Path-155" fill="#00B832" transform="translate(34.000000, 271.000000) scale(-1, 1) translate(-34.000000, -271.000000) "></path>
                <path d="M57.2898653,292.939205 C63.6033501,301.662942 86.6546968,296.106897 72.4590808,278.42774 C58.2634647,260.748582 50.9763805,284.215469 57.2898653,292.939205 Z" id="Path-155" fill="#00B832" transform="translate(66.000000, 284.500000) scale(-1, 1) translate(-66.000000, -284.500000) "></path>
                <path d="M102.371908,298.367753 C108.758052,307.425682 131.718037,303.323771 117.35905,284.967354 C103.000062,266.610937 95.9857641,289.309825 102.371908,298.367753 Z" id="Path-155" fill="#00B832" transform="translate(111.000000, 290.500000) scale(-1, 1) translate(-111.000000, -290.500000) "></path>
                <path d="M146.496815,292.535669 C153.002482,301.402054 175.139114,296.786311 165.685221,281.13603 C156.231327,265.485749 139.991148,283.669283 146.496815,292.535669 Z" id="Path-155" fill="#00B832" transform="translate(156.500000, 286.000000) scale(-1, 1) translate(-156.500000, -286.000000) "></path>
                <path d="M183.303556,281.501277 C189.457527,290.270616 208.512147,286.066498 201.454639,270.226412 C194.39713,254.386326 177.149584,272.731937 183.303556,281.501277 Z" id="Path-155" fill="#00B832" transform="translate(192.500000, 275.000000) scale(-1, 1) translate(-192.500000, -275.000000) "></path>
            </g>
            <g id="Group" transform="translate(409.000000, 262.000000)">
                <g id="Group-9">
                    <path d="M28.2550636,124.610603 L325.261778,124.610603 C340.866619,124.610603 353.516842,137.300566 353.516842,152.95443 L353.516842,343.984478 C353.516842,359.638342 340.866619,372.328305 325.261778,372.328305 L296.073518,372.328305 L296.093236,424.181693 C296.094702,428.036044 292.985068,431.16328 289.147674,431.16328 C287.659628,431.16328 286.210707,430.684572 285.014193,429.795995 L207.631044,372.328305 L28.2550636,372.328305 C12.6502229,372.328305 0,359.638342 0,343.984478 L0,152.95443 C0,137.300566 12.6502229,124.610603 28.2550636,124.610603 Z" id="Rectangle" fill="#044917"></path>
                    <path d="M23.7166855,118.176236 L273.017659,68.4451487 C286.116022,65.8322593 296.734344,76.2685072 296.734344,91.7551607 L296.734344,280.744679 C296.734344,296.231333 286.116022,310.903911 273.017659,313.516801 L23.7166855,363.247888 C10.6183218,365.860777 0,355.42453 0,339.937876 L0,150.948357 C0,135.461704 10.6183218,120.789125 23.7166855,118.176236 Z" id="Rectangle" fill="#038225"></path>
                    <path d="M20.0567032,105.653706 L230.885304,2.21257752 C241.962315,-3.22225698 250.942007,4.94132172 250.942007,20.4464409 L250.942007,209.661303 C250.942007,225.166422 241.962315,242.141608 230.885304,247.576443 L20.0567032,351.017572 C8.97969188,356.452406 0,348.288827 0,332.783708 L0,143.568846 C0,128.063727 8.97969188,111.088541 20.0567032,105.653706 Z" id="Rectangle" fill="#00B832"></path>
                </g>
            </g>
            <path d="M1138.2089,645.210057 C1153.29521,657.120542 1166.66831,674.460525 1164.3766,677.320634 C1161.3766,681.06471 1150.52671,681.835384 1147.8766,680.315895 C1145.74791,679.09537 1146.70894,680.749594 1146.70894,694.710457" id="Path-143" stroke="#212121" stroke-width="5.322292" stroke-linecap="round" stroke-linejoin="round"></path>
        </g>
    </g>
</svg>