<?xml version="1.0" encoding="UTF-8"?>
<svg width="400px" height="104px" viewBox="0 0 400 104" version="1.1" xmlns="http://www.w3.org/2000/svg" xmlns:xlink="http://www.w3.org/1999/xlink">
    <!-- Generator: Sketch 61.1 (89650) - https://sketch.com -->
    <title>paygage-logo</title>
    <desc>Created with Sketch.</desc>
    <g id="Visual-Identity-" stroke="none" stroke-width="1" fill="none" fill-rule="evenodd">
        <g id="paygage-logo">
            <g id="Group-4" transform="translate(104.000000, 29.777778)" fill="#000000" fill-opacity="0.87" fill-rule="nonzero">
                <g id="Group-2">
                    <path d="M10.5265532,58.5753543 L10.5265532,38.2611912 L15.7567244,38.2611912 C19.9629996,38.2611912 23.6988361,37.9004206 26.964234,37.1788793 C30.2296319,36.4573379 32.9969182,35.3333986 35.266093,33.8070612 C37.5352678,32.2807238 39.2648217,30.310361 40.4547549,27.8959728 C41.644688,25.4815845 42.2396546,22.5815435 42.2396546,19.1958496 C42.2396546,12.7019778 40.0119891,7.92870452 35.5566581,4.87602974 C31.1013271,1.82335495 24.6950592,0.297017563 16.3378545,0.297017563 C13.8472968,0.297017563 11.1215198,0.394148124 8.16052339,0.588409247 C5.19952701,0.782670369 2.50142284,1.15731682 0.0662108672,1.7123486 L0.0662108672,52.2464654 C0.0662108672,55.7418143 2.89975094,58.5753543 6.39509976,58.5753543 L10.5265532,58.5753543 L10.5265532,58.5753543 Z M15.6309464,29.2919326 L10.5735876,29.2919326 L10.5735876,9.63485413 C12.2870097,9.46826872 14.4702411,9.38497602 17.1232818,9.38497602 C19.1130623,9.38497602 20.9784815,9.53767931 22.7195394,9.8430859 C24.4605973,10.1484925 25.9667506,10.6621308 27.2379993,11.384001 C28.5092479,12.1058711 29.5041382,13.1053835 30.22267,14.3825383 C30.9412019,15.6596932 31.3004678,17.2422546 31.3004678,19.1302226 C31.3004678,23.072744 29.9463116,25.7519926 27.2379993,27.1679686 C24.5296869,28.5839446 20.6606693,29.2919326 15.6309464,29.2919326 L15.6309464,29.2919326 Z M61.3417177,59.4408742 C65.2716765,59.4408742 68.8003366,59.2055066 71.9276982,58.7347714 C73.7787353,58.4561505 75.8297436,58.1084123 78.0807233,57.6915568 C78.5807272,57.5989718 78.9435049,57.1628436 78.9435049,56.6543401 L78.9435049,31.196762 L78.9435049,31.196762 C78.9435049,28.6492538 78.6529093,26.309423 78.0717182,24.1772694 C77.4905271,22.0451158 76.5218753,20.2314008 75.1657628,18.7361242 C73.8096503,17.2408477 71.9968876,16.0778549 69.7274748,15.2471457 C67.458062,14.4164365 64.6628096,14.0010819 61.3417177,14.0010819 C58.5741411,14.0010819 55.9726191,14.2226043 53.5371517,14.6656492 C51.1016843,15.1086941 49.247408,15.551739 47.9743228,15.9947839 L49.0383144,22.9498481 C49.126373,23.525758 49.6646557,23.9211988 50.2405589,23.8330967 C50.2818936,23.8267733 50.3228157,23.8179977 50.3631086,23.8068165 C51.7373616,23.4254637 52.9337548,23.1474385 53.9522882,22.9727411 C55.8895918,22.6404574 58.0206258,22.4743156 60.3453902,22.4743156 C62.0612876,22.4743156 63.4865896,22.695838 64.621296,23.1388829 C65.7560024,23.5819278 66.6693027,24.2049597 67.3611968,25.0079786 C68.053091,25.8109974 68.5374169,26.7386227 68.8141745,27.7908543 C69.0909322,28.843086 69.229311,29.9506982 69.229311,31.1136911 L69.229311,32.7751094 C67.8455227,32.4428257 66.5447617,32.2074581 65.327028,32.0690066 C64.1092943,31.9305551 62.9469122,31.8613293 61.8398815,31.8613293 C59.4597656,31.8613293 57.176515,32.0966969 54.9901294,32.5674321 C52.8037439,33.0381673 50.8802782,33.8134959 49.2197323,34.8934178 C47.5591863,35.9733398 46.2445874,37.3717002 45.2759356,39.0884992 C44.3072838,40.8052982 43.8229579,42.9097614 43.8229579,45.401889 C43.8229579,48.0047778 44.2519323,50.1923119 45.109881,51.9644915 C45.9678298,53.7366711 47.1578877,55.176567 48.6800548,56.2841793 C50.2022219,57.3917915 52.0426604,58.1948104 54.2013701,58.6932359 C56.3600799,59.1916614 58.7401957,59.4408742 61.3417177,59.4408742 Z M62.234349,51.5068034 L62.0795736,51.5069422 C59.526578,51.5069422 57.5008315,51.0490105 56.0023341,50.1331473 C54.5038367,49.217284 53.754588,47.5659547 53.754588,45.1791595 C53.754588,43.9580084 54.0320875,42.9450081 54.5870865,42.1401585 C55.1420856,41.335309 55.8774593,40.7108567 56.7932077,40.2668018 C57.7089562,39.8227469 58.7357044,39.5174591 59.8734524,39.3509385 C61.0112005,39.1844179 62.1350735,39.1011576 63.2450716,39.1011576 C64.5215694,39.1011576 65.6870674,39.1844179 66.7415656,39.3509385 C67.7960638,39.5174591 68.6008124,39.6839797 69.1558114,39.8505003 L69.1558114,39.8505003 L69.1558114,51.0073804 C66.510316,51.3404216 64.1515701,51.5069422 62.0795736,51.5069422 L62.234349,51.5068034 Z M88.5721554,74.0104584 C90.8945236,74.0104584 92.9404195,73.7473146 94.7098429,73.2210271 C96.4792664,72.6947395 98.0828063,71.8499095 99.5204629,70.6865371 C100.958119,69.5231646 102.25754,68.0550993 103.418724,66.2823413 C104.579908,64.5095833 105.713445,62.3767338 106.819335,59.8837928 C110.763674,50.9461377 115.961356,35.9884918 122.412379,15.0108551 L112.044663,15.0108551 C110.256808,22.0741879 108.846799,27.4617103 107.814635,31.1734224 C106.26639,36.7409906 104.607555,41.9900164 102.838132,46.9204997 C101.787537,44.5383561 100.736941,41.962317 99.6863463,39.1923826 C98.6357512,36.4224482 97.6404505,33.6386641 96.7004443,30.8410303 C95.7604381,28.0433965 94.88955,25.2873118 94.08778,22.572776 C93.5978261,20.9139496 92.9878517,18.6577684 92.2578568,15.8042326 C92.1383914,15.3374079 91.7177833,15.0108551 91.2359148,15.0108551 L81.3562254,15.0108551 L81.3562254,15.0108551 C83.6232992,23.0990636 86.2083163,30.7440826 89.1112766,37.9459121 C92.0142369,45.1477416 95.0416098,51.7955843 98.1933953,57.88944 C97.0875057,60.4931784 95.8019089,62.4182828 94.3366052,63.6647533 C92.8713014,64.9112238 90.8392292,65.534459 88.2403885,65.534459 C86.9501839,65.534459 84.9872298,65.1466682 82.3515261,64.3710866 L80.730312,71.5326381 C80.6124104,72.0534622 80.9023162,72.58024 81.4053984,72.7593122 C82.3382307,73.0913539 83.1927278,73.3422066 83.9688897,73.5118702 C85.489488,73.8442623 87.0239099,74.0104584 88.5721554,74.0104584 Z M141.431065,74.1547117 C148.684307,74.1547117 154.068871,72.5478124 157.584755,69.3340138 C161.10064,66.1202153 162.858582,61.050171 162.858582,54.123881 L162.858582,17.3074519 C162.858541,16.8174222 162.521067,16.3919278 162.043909,16.2803486 C159.381831,15.6578446 157.161816,15.1955198 155.383867,14.8933745 C152.449349,14.3946816 149.348726,14.1453352 146.081999,14.1453352 C142.704535,14.1453352 139.686964,14.6717332 137.029288,15.7245293 C134.371611,16.7773254 132.115354,18.2456989 130.260518,20.1296498 C128.405681,22.0136006 126.99379,24.2854238 126.024845,26.9451191 C125.055901,29.6048145 124.571429,32.5138563 124.571429,35.6722445 C124.571429,39.052274 125.028217,42.0305787 125.941793,44.6071586 C126.855369,47.1837385 128.128839,49.3308884 129.762203,51.0486083 C131.395567,52.7663282 133.36114,54.0684707 135.658923,54.9550358 C137.956706,55.8416009 140.489804,56.2848835 143.258217,56.2848835 C145.362211,56.2848835 147.23089,56.0355371 148.864254,55.5368442 C150.497618,55.0381513 151.812614,54.5394584 152.809243,54.0407655 L152.809243,55.7030751 C152.809243,58.972284 151.951034,61.4380433 150.234618,63.1003529 C148.518202,64.7626624 145.639053,65.5938172 141.597169,65.5938172 C139.050229,65.5938172 136.683236,65.372176 134.49619,64.9288934 C132.309143,64.4856108 130.357412,63.9038025 128.640996,63.1834683 L127.017507,70.7901216 C126.902189,71.3303137 127.223136,71.8679788 127.753342,72.0228594 C130.201814,72.7380933 132.172589,73.2270694 133.665666,73.4897878 C136.184922,73.9330704 138.773388,74.1547117 141.431065,74.1547117 Z M144.786534,47.9006095 C141.843384,47.9006095 139.441663,46.918807 137.581371,44.955202 C135.721078,42.9915971 134.790932,39.8802512 134.790932,35.6211644 C134.790932,31.6939545 135.762727,28.5272958 137.706316,26.1211883 C139.649905,23.7150809 142.454227,22.5120271 146.119281,22.5120271 C147.729683,22.5120271 149.06243,22.5811681 150.117522,22.7194502 C151.172613,22.8577322 152.061111,23.0098425 152.783015,23.1757809 L152.783015,23.1757809 L152.783015,45.6604404 C151.894518,46.2688814 150.742247,46.7943532 149.326203,47.2368557 C147.91016,47.6793582 146.396936,47.9006095 144.786534,47.9006095 Z M186.998429,59.4408742 C190.928388,59.4408742 194.457048,59.2055066 197.584409,58.7347714 C199.435446,58.4561505 201.486455,58.1084123 203.737434,57.6915568 C204.237438,57.5989718 204.600216,57.1628436 204.600216,56.6543401 L204.600216,31.196762 L204.600216,31.196762 C204.600216,28.6492538 204.30962,26.309423 203.728429,24.1772694 C203.147238,22.0451158 202.178586,20.2314008 200.822474,18.7361242 C199.466361,17.2408477 197.653599,16.0778549 195.384186,15.2471457 C193.114773,14.4164365 190.319521,14.0010819 186.998429,14.0010819 C184.230852,14.0010819 181.62933,14.2226043 179.193863,14.6656492 C176.758395,15.1086941 174.904119,15.551739 173.631034,15.9947839 L174.695025,22.9498481 C174.783084,23.525758 175.321367,23.9211988 175.89727,23.8330967 C175.938605,23.8267733 175.979527,23.8179977 176.01982,23.8068165 C177.394073,23.4254637 178.590466,23.1474385 179.608999,22.9727411 C181.546303,22.6404574 183.677337,22.4743156 186.002101,22.4743156 C187.717999,22.4743156 189.143301,22.695838 190.278007,23.1388829 C191.412713,23.5819278 192.326014,24.2049597 193.017908,25.0079786 C193.709802,25.8109974 194.194128,26.7386227 194.470886,27.7908543 C194.747643,28.843086 194.886022,29.9506982 194.886022,31.1136911 L194.886022,32.7751094 C193.502234,32.4428257 192.201473,32.2074581 190.983739,32.0690066 C189.766005,31.9305551 188.603623,31.8613293 187.496593,31.8613293 C185.116477,31.8613293 182.833226,32.0966969 180.64684,32.5674321 C178.460455,33.0381673 176.536989,33.8134959 174.876443,34.8934178 C173.215897,35.9733398 171.901298,37.3717002 170.932647,39.0884992 C169.963995,40.8052982 169.479669,42.9097614 169.479669,45.401889 C169.479669,48.0047778 169.908643,50.1923119 170.766592,51.9644915 C171.624541,53.7366711 172.814599,55.176567 174.336766,56.2841793 C175.858933,57.3917915 177.699371,58.1948104 179.858081,58.6932359 C182.016791,59.1916614 184.396907,59.4408742 186.998429,59.4408742 Z M187.89106,51.5068034 L187.736285,51.5069422 C185.183289,51.5069422 183.157543,51.0490105 181.659045,50.1331473 C180.160548,49.217284 179.411299,47.5659547 179.411299,45.1791595 C179.411299,43.9580084 179.688799,42.9450081 180.243798,42.1401585 C180.798797,41.335309 181.53417,40.7108567 182.449919,40.2668018 C183.365667,39.8227469 184.392415,39.5174591 185.530163,39.3509385 C186.667912,39.1844179 187.791785,39.1011576 188.901783,39.1011576 C190.17828,39.1011576 191.343778,39.1844179 192.398277,39.3509385 C193.452775,39.5174591 194.257523,39.6839797 194.812522,39.8505003 L194.812522,39.8505003 L194.812522,51.0073804 C193.203025,51.3404216 190.844279,51.5069422 187.736285,51.5069422 L187.89106,51.5068034 Z M228.224875,74.1547117 C235.478118,74.1547117 240.862681,72.5478124 244.378566,69.3340138 C247.894451,66.1202153 249.652393,61.050171 249.652393,54.123881 L249.652393,17.3074519 C249.652352,16.8174222 249.314877,16.3919278 248.83772,16.2803486 C246.175641,15.6578446 243.955627,15.1955198 242.177677,14.8933745 C239.24316,14.3946816 236.142537,14.1453352 232.875809,14.1453352 C229.498345,14.1453352 226.480775,14.6717332 223.823098,15.7245293 C221.165422,16.7773254 218.909165,18.2456989 217.054328,20.1296498 C215.199491,22.0136006 213.787601,24.2854238 212.818656,26.9451191 C211.849712,29.6048145 211.365239,32.5138563 211.365239,35.6722445 C211.365239,39.052274 211.822027,42.0305787 212.735604,44.6071586 C213.64918,47.1837385 214.92265,49.3308884 216.556014,51.0486083 C218.189378,52.7663282 220.154951,54.0684707 222.452734,54.9550358 C224.750517,55.8416009 227.283615,56.2848835 230.052028,56.2848835 C232.156022,56.2848835 234.024701,56.0355371 235.658065,55.5368442 C237.291428,55.0381513 238.606425,54.5394584 239.603053,54.0407655 L239.603053,55.7030751 C239.603053,58.972284 238.744845,61.4380433 237.028429,63.1003529 C235.312013,64.7626624 232.432863,65.5938172 228.39098,65.5938172 C225.84404,65.5938172 223.477047,65.372176 221.29,64.9288934 C219.102954,64.4856108 217.151223,63.9038025 215.434807,63.1834683 L213.811318,70.7901216 C213.696,71.3303137 214.016947,71.8679788 214.547152,72.0228594 C216.995625,72.7380933 218.9664,73.2270694 220.459476,73.4897878 C222.978732,73.9330704 225.567199,74.1547117 228.224875,74.1547117 Z M231.580345,47.9006095 C228.637195,47.9006095 226.235474,46.918807 224.375182,44.955202 C222.514889,42.9915971 221.584743,39.8802512 221.584743,35.6211644 C221.584743,31.6939545 222.556537,28.5272958 224.500127,26.1211883 C226.443716,23.7150809 229.248038,22.5120271 232.913092,22.5120271 C234.523494,22.5120271 235.856241,22.5811681 236.911332,22.7194502 C237.966424,22.8577322 238.854922,23.0098425 239.576826,23.1757809 L239.576826,23.1757809 L239.576826,45.6604404 C238.688328,46.2688814 237.536057,46.7943532 236.120014,47.2368557 C234.70397,47.6793582 233.190747,47.9006095 231.580345,47.9006095 Z M279.161849,59.5851275 C280.654887,59.5851275 282.120277,59.5018337 283.558017,59.3352461 C284.995757,59.1686585 286.336726,58.9604239 287.580925,58.7105425 C288.825123,58.4606611 289.931077,58.1830151 290.898787,57.8776045 C291.866497,57.5721939 292.62684,57.2806655 293.179817,57.0030195 L292.051521,49.992459 C291.958938,49.4172915 291.417629,49.0260664 290.842459,49.1186356 C290.787037,49.1275554 290.732415,49.140885 290.679114,49.1584975 C289.331794,49.6037 288.133171,49.9418434 287.083245,50.1729275 C285.064879,50.6171612 282.839147,50.839278 280.406048,50.839278 C276.25872,50.839278 273.092927,49.8813992 270.908667,47.9656417 C268.724408,46.0498842 267.494034,43.3428355 267.217546,39.8444957 L294.831811,39.8444957 C295.393843,39.8445039 295.857175,39.4038418 295.885346,38.8425158 C295.961782,37.3194478 296,36.4040341 296,36.0962745 C296,28.7108905 294.327244,23.1579701 290.981733,19.4375135 C287.636222,15.7170569 282.977391,13.8568286 277.005239,13.8568286 C274.461545,13.8568286 271.973148,14.3427091 269.540049,15.3144702 C267.10695,16.2862312 264.95034,17.7299905 263.070218,19.645748 C261.190096,21.5615055 259.683234,23.9631436 258.549631,26.8506622 C257.416028,29.7381807 256.849226,33.0976975 256.849226,36.9292125 C256.849226,40.2054355 257.291608,43.2178948 258.176371,45.9665904 C259.061134,48.7152859 260.415928,51.1030417 262.240752,53.1298576 C264.065577,55.1566735 266.38808,56.7392558 269.208263,57.8776045 C272.028446,59.0159532 275.346308,59.5851275 279.161849,59.5851275 Z M286.06837,32.4655054 L267.356603,32.4655054 C267.52293,31.1963916 267.827862,29.9548672 268.271401,28.7409323 C268.714939,27.5269973 269.338664,26.4510095 270.142577,25.5129689 C270.94649,24.5749283 271.930591,23.8162189 273.094878,23.2368409 C274.259166,22.6574628 275.617502,22.3677738 277.169885,22.3677738 C278.666827,22.3677738 279.955859,22.6298734 281.036984,23.1540726 C282.118108,23.6782718 283.032906,24.395597 283.781376,25.3060482 C284.529847,26.2164994 285.09813,27.2924872 285.486226,28.5340116 C285.874322,29.7755359 286.06837,31.0860339 286.06837,32.4655054 L286.06837,32.4655054 Z" id="Paygage"></path>
                </g>
            </g>
            <g id="Group-9">
                <path d="M6.60718711,29.3333333 L76.0594796,29.3333333 C79.7085282,29.3333333 82.6666667,32.313824 82.6666667,35.9904456 L82.6666667,80.8576559 C82.6666667,84.5342775 79.7085282,87.5147681 76.0594796,87.5147681 L69.234073,87.5147681 L69.2386839,99.6935686 C69.2390266,100.59884 68.5118672,101.333333 67.6145279,101.333333 C67.266562,101.333333 66.9277452,101.220899 66.6479514,101.012199 L48.5526127,87.5147681 L6.60718711,87.5147681 C2.95813843,87.5147681 0,84.5342775 0,80.8576559 L0,35.9904456 C0,32.313824 2.95813843,29.3333333 6.60718711,29.3333333 Z" id="Rectangle" fill="#044917"></path>
                <path d="M5.54151177,27.7583236 L63.7918216,16.09401 C66.852314,15.4811627 69.3333333,17.928961 69.3333333,21.5613204 L69.3333333,65.888383 C69.3333333,69.5207424 66.852314,72.9621624 63.7918216,73.5750097 L5.54151177,85.2393233 C2.48101933,85.8521706 0,83.4043723 0,79.7720129 L0,35.4449503 C0,31.8125909 2.48101933,28.3711709 5.54151177,27.7583236 Z" id="Rectangle" fill="#038225"></path>
                <path d="M4.6889715,24.6762382 L53.9776952,0.395016377 C56.5673426,-0.880727842 58.6666667,1.03554732 58.6666667,4.67513674 L58.6666667,49.0904296 C58.6666667,52.730019 56.5673426,56.7146842 53.9776952,57.9904284 L4.6889715,82.2716503 C2.09932405,83.5473945 0,81.6311194 0,77.9915299 L0,33.5762371 C0,29.9366476 2.09932405,25.9519824 4.6889715,24.6762382 Z" id="Rectangle" fill="#00B832"></path>
            </g>
        </g>
    </g>
</svg>