<svg xmlns="http://www.w3.org/2000/svg" xmlns:xlink="http://www.w3.org/1999/xlink" width="756" height="936"><style><![CDATA[.B{fill:#fff}.C{stroke-linejoin:round}.D{mask:url(#N)}.E{stroke-linecap:round}.F{stroke-width:2.496}.G{fill:#fd5200}.H{fill:#038225}.I{stroke:#212121}.J{fill:#f5b700}.K{stroke:#008bf8}.L{mask:url(#R)}.M{fill:#bdc2bf}.N{stroke-opacity:.588}.O{fill:#a83904}.P{fill:#011638}.Q{fill:#044917}.R{fill:#00b832}]]></style><defs><path d="M0 308.5c0-33.44 19.232-70.052 42.955-81.774L494.485 3.63C518.21-8.092 537.44 9.515 537.44 42.955V154.45l50.998-10.268c28.23-5.685 51.117 17.02 51.117 50.712l-.001 73.812 56.022.001c33.37 0 60.424 27.586 60.424 61.615V745.6c0 34.03-27.053 61.615-60.424 61.615h-62.42l.042 112.72c.003 8.38-6.647 15.177-14.853 15.177-3.182 0-6.28-1.04-8.84-2.972L444.02 807.205H60.424C27.053 807.205 0 779.62 0 745.6V308.5z" id="A"/><rect id="B" width="499" height="267" rx="15.082"/><path d="M23.08 142.072l.278.366c8.87 11.81 3.342 8.158-.18-.13l-.097-.236zM119.313.406l-.048-.066c5.525 7.398 7.855 14.505 7.855 18.917 0 8.6-3.99 18.513-2.34 22.3 5.94 13.626 6.187 15.392 13.642 20.034s-5.697 10.012-8.253 15.18c-5.076 10.264-5.765 24.21-25.2 32.818s-42.92-2.536-64.14 2.9c-22.446 5.76-21.59 19.99-17.918 29.163l.17.41-.433-.573c-4.193-5.497-11.202-13.985-22.386-26.36l8.253-1.82c.2-4.706-2.417-17.23-3.442-22.86C24.57 86.825 38 85.164 45.133 74.227c8.004-12.29 7.357-11.043 9.35-17.272 1.738-5.43-4.572-5.723-.008-9.177 5.44-4.116 18.607-1.772 22.15-7.58C82.4 30.716 99.71 27.194 104.12 21.584S114.244 1.96 119.223.436l.1-.03z" id="C"/><rect id="D" width="235.661" height="235.661" rx="15.082"/><rect id="E" width="235.661" height="235.661" rx="15.082"/><path d="M1.03 116.593c9.315-29.12 29.66-98.088 66.737-108.466C89.78 1.965 128.018-.867 152.01.475c13.277.743 23.707 9.363 35.69 13.646 23.078 8.248 17.636 25.992 21.91 50.8 2.648 15.378 23.873 47.53 12.268 57.97-17.65 15.88-13.767-1.9-37.393.535-17.187 1.778-121.277 21.068-132.902-11.83 24.167 37.2 32.396 56.178 24.69 56.938-5.29.522-84.556-22.833-75.242-51.953z" id="F"/><rect id="G" width="235.661" height="235.661" rx="15.082"/><rect id="H" x=".572" y=".29" width="235.661" height="235.661" rx="15.082"/><rect id="I" width="235.661" height="235.661" rx="15.082"/><rect id="J" width="235.661" height="397" rx="15.082"/><rect id="K" y=".29" width="235.661" height="235.661" rx="15.082"/><path id="L" d="M83.76 38.116c3.305 3 2.867 3.237 1.654-.246"/><path id="M" d="M177.997 194.74c21.152 60.58 14.716 33.106 22.963 81.48"/></defs><g fill="none" fill-rule="evenodd"><mask id="N" class="B"><use xlink:href="#A"/></mask><g class="D"><g transform="translate(-2.791 601.438)"><mask id="O" class="B"><use xlink:href="#B"/></mask><use xlink:href="#B" class="J"/><g mask="url(#O)"><g transform="translate(245.855 -7.438)"><path d="M124.496.06c-8.354 1.173-24.588 4.694-29.72 6.85-4.696 1.972-8.286 12.876.5 19.81l-.066.05.078.054c4.25 2.87 5.64 17.525 8.143 24.328l.118.313c2.577 6.654 18.1 15.08 20.85 25.84 1.7 6.59 14.968 8.197 18.966 13.724 3.355 4.638-2.765 3.074-2.69 8.774l.037 2.77c.087 3.75.486 4.79 3.855 16.48 3.614 12.54 15.98 18.06 33.564 27.236l.283-.55c4.267-8.364 24.734-15.965 26.046-24.686.417-2.77-7.92-6.907-7.503-9.593 1.086-6.982 8.392-10.984 9.114-18.043.624-6.1-4.094-14.383-3.44-20.277.93-8.387-3.03-14.495-4.663-21.163-1.56-6.36-.422-16.265-2.532-21.198-5.63-13.163-23.575-14.383-23.726-14.486-2.805-1.906-14.47-4.584-21.123-7.968l-1.118-.58C141.514 3.702 128.903-.56 124.496.06z" class="G"/><path d="M0 288.3c7.058-21.95.563-36.693 21.242-60.365 11.857-13.573 30.93-35.87 47.04-40.355 40.767-11.353 69.797-33.375 109.9-19.116 27.513 9.783 20.564 51.274 25.658 80.7 3.156 18.24 60.875-50.615 47.04-38.23-5.93 5.308 22.742 1.6 17.105 27.61C253.617 304.83 204.822 434 184.595 436.08c-20.5 2.11-166.6-99.04-180.458-138.057L0 288.3z" transform="matrix(-1 0 0 1 268.72038 0)" class="H"/><path d="M176.218 139.626c-8.142 18.043-8.142 30.072 0 36.086s16.284 10.024 24.426 12.03c-19.508 42.312-43.51 58.456-72.01 48.432s-40.653-26.21-36.466-48.56c12.858-3.882 20.723-8.105 23.596-12.668 3.7-5.88 4.062-48.702 8.58-54.894 9.778-13.402 20.963-20.9 33.553-22.524l18.32 42.1z" transform="matrix(-1 0 0 1 292.009478 0)" class="O"/><g transform="matrix(-.951057 -.309017 -.309017 .951057 211.898723 58.403468)"><g transform="translate(.539 .892)" class="O"><use xlink:href="#C"/></g><g class="C E I"><path d="M102.175 83.605c3.767.282 10.045 4.153 24.286 2.697" stroke-width="1.421"/><g class="F"><path d="M103.052 42.648c21.55-1.96 20.612-4.964-2.716-1.284m12.882 13.656c3.93 3.544 3.4 3.837 1.967-.292"/></g></g><path d="M79.83 44.014C50.187 26.846 34.477 59.793 69.534 69.37" class="O"/></g></g></g><g mask="url(#O)"><g transform="matrix(-1 0 0 1 229.152403 12.807)"><path d="M234.753 274.242c-9.315-29.12-29.297-117.15-66.374-127.528-22.013-6.162-60.252-8.995-84.244-7.652-13.277.743-23.707 9.363-35.69 13.646-23.078 8.248-17.636 25.992-21.91 50.8-2.648 15.378-23.873 47.53-12.268 57.97 17.65 15.88 13.767-1.9 37.393.535 17.187 1.778 121.277 21.068 132.902-11.83l50.19 24.048z" fill="#beef9e"/><path d="M143.47 90.036c17.47-11.738 20.177-25.666 15.97-39.264-1.47-4.75-5.343-13.172-8.165-17.735-8.38-13.548-21.862-15.153-30.455-23.29-.882-.835-13.267-5.957-14.332-5.374-3.707 2.028-10.963-3.288-21.042-2.877-.942.038 2.636 2.183 1.697 2.26-10.066.836-17.666.3-25.307-.565-2.904-.33-6.964-1.513-8.73.816-1.34 1.767 5.79 3.598 4.208 5.15-3.368 3.3-10.4.52-13.564 4.02C42.103 15 49.1 15.87 49.026 18.326l-3.957 3.14c-.064 2.147 4.47 3.266 3.705 5.274-1 2.646-6.28 1.647-7.347 4.27-.872 2.14 3.786 4.016 3.077 6.217l-4.52 5.526c-1.5 4.663-2.872 9.757-1.947 14.568 1.027 5.34 23.44 38.107 25.494 41.444 19.283 31.334 48.855 15.342 73.344-4.396" class="P"/><g transform="matrix(-.809017 -.587785 -.587785 .809017 203.389862 95.205248)"><path d="M127.133 16.114l.486.153c2.623.776 5.55 3.62 10.11 4.74 5.31 1.305 8.304 5.032 11.595 8.424 2.845 2.932 6.644 5.025 3.538 12.163l-.582 1.322c-3.112 6.995-7.882 16.576-14.31 28.743-1.37 1.097-2.74 2.145-4.1 3.145a28.41 28.41 0 0 1 1.681 2.015l1.12 3.05c.465.55 1 1.075 1.59 1.52 6.3 14.516-10.45 25.5-25.164 5.53-14.44 6.132-10.813.33-28.04 4.764-44.943 11.57 5.225 18.41-19.036 20.714-16.173 1.536-31.853-11.628-47.04-39.49l1.38.48c8.09 2.78 12.856 3.818 14.3 3.114l1.333-.655c9.34-4.62 14.098-7.73 14.275-9.328 1.41-12.698-.03-18.553.416-24.953-24.59-7.75-16.466-29.916 3.164-24.06l.476.663c1.795 1.383 1.806 3.002.032 4.858l7.347-5.567c6.58-4.963 12.358-6.3 16.36-8.8C86.658 3.277 89.403.416 90.83.22c1.707-.234 5.358 2.94 9.75 4.87 4.605 2.02 11.017.628 15.807 2.627 5.347 2.232 8.92 7.78 10.747 8.398z" class="G"/><path d="M40.08 102.782c-12.16 1.753-3.36 2.59 26.405 2.514 2.904-.008-.06-6.856.065-3.955l5.64 4.755c.24 5.482-2.963 26.537-13.547 22.378-9.725-3.82-9.818-22.267-20.115-24.042l-4.605-2.66c-6.154-1.06-14.312 3.103-18.685-1.355-18.187-18.54 4.768-43.13 17.465-24.805 1.576 2.274-4.866 4.516-4.15 7.188 1.783 6.65 7.198 11.74 10.797 17.612l.73 2.37z" class="Q"/><g class="C E F I"><path d="M69.98 63.34c3.802 13.08 13.24 16 25.94 17.347m20.287-32.457c11.504 14.098 13.164 12.028-.38-2.5"/><path d="M100.605 56.17c7.773 31.334 5.632 25.204-12.26 3.718" class="G"/><path d="M79.412 25.846c15.298 9.854 16.237 7.37-1.133-2.26m33.29 36.332c4.175 5.04 3.62 5.456 2.1-.415"/><use xlink:href="#L"/></g></g></g><g class="C E F K"><use xlink:href="#M"/><path d="M66.777 206.49c-5.317 63.945-.02 36.23-12.163 83.775"/></g><path d="M269.758 182.077l-12.812 58.485H84.79l12.967-59.784a13.2 13.2 0 0 1 12.507-10.394l146.212-4.322a13.2 13.2 0 0 1 13.581 12.801c.032 1.08-.07 2.16-.3 3.214z" fill="#dfd6d6"/></g></g><g transform="translate(-.896 96.243)"><mask id="P" class="B"><use xlink:href="#D"/></mask><use xlink:href="#D" class="J"/><g mask="url(#P)"><g transform="matrix(-1 0 0 1 215.895735 41.756556)"><g class="G"><path d="M117.26 112.088c-6.8 15.3-6.8 25.516 0 30.62s13.6 8.505 20.4 10.206c-16.293 35.902-36.34 49.6-60.14 41.095s-33.952-22.24-30.455-41.204c10.738-3.294 17.307-6.877 19.706-10.75 3.09-4.99 3.392-41.324 7.166-46.578 8.166-11.37 17.507-17.742 28.022-19.11l15.3 35.722z" transform="matrix(-.970296 .241922 .241922 .970296 148.321167 -18.211549)"/><path d="M204.36 195.787c-2.627-7.26-4.184-15.003-7.88-21.78-3.854-7.066-8.185-14.328-14.52-19.29-44.226-34.647-.007 51.372-29.666 53.518-31.526 2.28-88.03 18.733-101.85-23.44-1.533-4.678.475-10.758-2.7-14.52-1.847-2.19-6.353-.65-8.5 1.245-3.648 3.217-5.693 8.052-7.26 12.655-1.806 5.304-5.153 11.554-2.7 16.592 10.54 21.64 73.92 32.372 78.83 33.607 47.905 12.053 70.224 14.72 92.516-29.872"/></g><g transform="matrix(-.997564 -.069756 -.069756 .997564 147.061683 9.883388)"><path d="M42.21 145.786l-.08-.2 1.04 1.402c6.3 8.633 1.887 5.524-.96-1.203zM122.963 26.02l-.038-.056c4.64 6.244 6.598 12.243 6.598 15.966 0 7.267-1.654 15.184-1.965 18.82-1.843 21.534 7.467 16.798 5.305 22.034-.927 2.244-2.666 2.505-3.95 5.11-1.42 2.883-2.08 6.395-2.93 10.065-9.214.51-13.973-1.742-16.968-2.344l-.307-.057 11.924 15.266c-2.165 2.806-5.225 5.343-9.718 7.343-16.326 7.267-36.052-2.14-53.877 2.456-18.636 4.805-18.15 16.592-15.158 24.342l.25.618-1.22-1.6c-3.593-4.645-9.277-11.49-17.95-21.133l6.933-1.536c.16-3.97-2.03-14.543-2.89-19.294l6.944-1.284c12.664-2.37 21.61-4.552 26.707-12.414l3.725-5.752c1.302-2.035-4.668-12.787-4.163-13.847.607-1.273 1.843-8.42 2.537-10.598 1.46-4.582 21.38 6.38 24.355 1.477 4.86-8.004 19.4-10.976 23.094-15.71 3.616-4.622 8.278-16.003 12.388-17.74l.373-.135z" class="G"/><path d="M102.52 2.012C99.123.633 88.355 1.48 81.052 3.1h0l-1.683.393c-6.127 1.36-15.985 1.184-18.628 2.16-.144.053-15.02-2.615-22.28 7.013-2.72 3.608-3.805 11.95-6.367 16.84-2.686 5.127-7.153 9.32-8.098 16.377-.664 4.96-6.19 10.78-6.92 15.9-.844 5.928 4.298 10.698 3.766 16.638-.205 2.285 4.017 8.808 3.795 11.16-.18 1.892 4.085 4.768 2.95 9.185s-5.622 3.71-7.773 8.436 3.224 8.214 2.7 12.76-3.236 1.153-5.86 6.774c-1.306 2.796 1.984 6.16 1.162 9.06-.83 2.93-5.765 5.394-5.986 8.56-.44 6.3 4.216 5.167 2.95 9.185s-1.96 2.965-4.2 8.686c-.77 1.963-.044 3.71-.5 7.148-.872 6.584-6.148 12.158-8.398 17.37-3.426 7.936 13.016-1.123 16.834-9.598s4.8-9.638 6.36-13.922-3.118-3.9-1.162-9.06c1.026-2.706 6.42-.612 7.398-3.074.89-2.234-2.775-9.173.625-8.936 7.148.5 1.206-16.55 4.574-14.047s5.67-5.99 8.023-12c1.276-3.262-2.846-6.334-2.95-9.185-.087-2.41 3.688-4.657 5.86-6.774 4.744-4.62 13.61-2.803 14.76-4.795 5.03-8.727 5.636-9.626 6.444-12.548h0l.523-1.994c-12.204-9.803-1.42-26.302 18.887-17.016 5.24-7.224 18.064-10.8 21.3-15.406h0l.248-.363c3.403-5.127 7.477-16.657 11.488-18.126h0l.073-.03-.043-.053c8.57-3.883 7.858-13.546 4.43-16.12-3.543-2.66-14.936-8.354-21.72-11.22h0z" fill="#212121"/><g class="C E I"><path d="M108.853 60.92l8.083-.963c4.096-.646 7.703.87 6.703.634-.663-.156-4.503-2.27-7.398-2.01l-9.67 1.254" class="F"/><path d="M113.855 71.113c3.3 2.99 2.864 3.238 1.652-.246" stroke-width="6.079"/></g></g></g></g></g><g transform="translate(260 96)"><mask id="Q" class="B"><use xlink:href="#E"/></mask><use xlink:href="#E" class="H"/><g mask="url(#Q)"><g transform="translate(-4 -13)"><path d="M158.002 27.8c20.333 9.5 41.246 23.905 37.757 54.824-1.95 17.273-12.322 30.597-23.948 40.26l-.337-.917c8.173-15.3 13.988-26.922 17.444-34.867 9.985-22.952-18.036-22.874-25.73-25.482-5.025-1.703-25.722-23.29-31.217-22.536-2.326.32-16.18 10.134-41.563 29.446 1.774-1.855 1.763-3.475-.032-4.858h0l-2.595-3.608c6.43-21.843 18.285-33.036 50.17-36.912 7.447-.905 13.255 1.47 20.05 4.648z" transform="matrix(-.819152 -.573576 -.573576 .819152 300.077582 94.614098)" class="P"/><g transform="translate(0 15)"><g transform="translate(40.412)"><g transform="translate(10.555 156.501)"><mask id="R" class="B"><use xlink:href="#F"/></mask><use fill="#56e49f" transform="matrix(-1 0 0 1 225.589516 0)" xlink:href="#F"/><g class="C E F L"><path d="M12.042 76.846c-17.2 32.97-23.838 15.697-37.685-2.066-4.94-6.336-11.013-11.7-16.52-17.552" stroke="#0202c8"/><g class="K"><path d="M11.327 53.805c-13.45 49.2-10.14 25.066-11.31 72.2"/><use xlink:href="#M" x="-23.147" y="-151.394"/><use xlink:href="#M" x="-151.931" y="-138.495" transform="matrix(.913545 .406737 -.406737 .913545 42.693278 -6.887198)"/></g></g></g><g transform="matrix(-.809017 -.587785 -.587785 .809017 199.83925 86.182115)"><path d="M117.04 23.33c7.694 2.607 35.715 2.53 25.73 25.482l-.55 1.25c-3.51 7.895-9.14 19.1-16.894 33.616l.337.917-.4.33c.398.525.764 1.05 1.1 1.57l.214.59c.136.16.278.32.426.475 8.312 14.637-7.093 26.996-21.816 10.41a122.35 122.35 0 0 1-5.888 2.813l-2.44 1.078c-13.827 6.07-13.603 5.175-30.51 9.527-44.943 11.57 5.225 18.41-19.036 20.714-16.173 1.536-31.853-11.628-47.04-39.49l1.38.48c8.09 2.78 12.856 3.818 14.3 3.114l1.333-.655c9.34-4.62 14.098-7.73 14.275-9.328l1.23-10.84 2.62-20.834.097-.682.836-5.727c-18.5-8.303-12.026-26.043 4.413-23.19a104.02 104.02 0 0 1 .879-3.177l2.594 3.6c1.795 1.383 1.806 3.002.032 4.858l6.565-4.978C72.04 9.24 83.705 1.084 85.822.794 91.317.04 112.014 21.627 117.04 23.33z" fill="#ff7a3a"/><g class="I F E C"><path d="M66.057 83.326c12.16 6.14 20.738 1.234 30.378-7.14" transform="matrix(.681998 .731354 -.731354 .681998 85.172747 -33.619326)"/><path d="M111.88 68.01c18.12-1.653 17.333-4.188-2.284-1.083" transform="matrix(.559193 .829038 -.829038 .559193 107.013644 -67.791226)"/><path d="M93.938 73.24c-2.852 32.158-2.88 25.665-12.802-.476" fill="#ff7a3a"/><path d="M77.097 42.74c18.12-1.653 17.333-4.188-2.284-1.083" transform="matrix(.788011 .615661 -.615661 .788011 43.010881 -41.984461)"/><path d="M105.216 71.308c4.175 5.04 3.62 5.456 2.1-.415"/><use xlink:href="#L" x="-4.142" y="15.304"/></g><use xlink:href="#L" x="-56.55" y="99.018" class="C E F K"/></g></g><path d="M0 190.687h114.654l41.204 91.365H0z" class="M"/></g></g></g></g><rect x="515.943" y="-152.275" width="235.661" height="235.661" rx="15.082" class="Q"/><g transform="translate(0 349)"><mask id="S" class="B"><use xlink:href="#G"/></mask><use xlink:href="#G" class="R"/><g mask="url(#S)"><g transform="matrix(-1 0 0 1 186 29.1594)"><g transform="matrix(-1 0 0 1 227 0)"><path d="M95.378 22.055l.7.174-.73-.3c-2.698-1.12-9.344-4.376-2.825-6.632 5.633-1.95 9.486-.076 13.742 1.78l-.288-.658c-.738-1.646-1.553-3.3-.9-4.776 6.135-13.762 7.583.027 13.848-1.884l3.55-1.094c5.923-1.844 10.353-3.323 13.6-4.5l1.046-.386a16.28 16.28 0 0 1-2.959-1.581l-.115-.083-.125-.06c-.08-.037-.125-.08-.14-.123l-.004-.024-.092-.075c-1.25-1.06-1.115-2.03 4.608-1.465l.36.037.673-.11c3.003-.464 5.78-.52 4.062.7l-.082.054 2.168.362 1.757.3c2.806.53 5.93 1.4 6.683 3.868.71 2.33-8.162 3.765-5.817 4.425 14.563 4.095 18.704-7.347 29.99-3.44 6.76 2.34-.638 5.755-3.108 6.748l-.467.18.457-.118c3.345-.807 18.77-3.57 10.82 5.482-1.814 2.065-10.45 2.862-7.7 2.95 5.21.166 10.362-4.027 15.405-2.704 11.203 2.94 10.194 5.917 5.498 8.304l-.155.076h.018c.916.98 1.56 2.337 2.014 3.564.838 2.264-1.44 6.014.656 7.21l-8.114 2.95c3.05 1.742 7.16-2.976 10.407-1.64 11.495 4.733-4.998 7.1-2.868 8.768 3.345 2.617 16.07-1.425 9.997 9.75-.184.338-.41.65-.67.937l-.215.22 2.77.728c5.67 9.258-7.513 4.71-7.786 8.604-.26 3.71.586 5.613 1.91 6.41l.18.1-1.142.71-3.91 2.538-.725.486c-1.365.917 3.94-1.734 4.916-.41 1.152 1.56.04 4.09-.984 5.736l-12.128 4.343c-1.733 2.786 4.885 6.01 3.77 9.094-1.013 2.8-5.934 1.52-8.276 3.36l4.098 5.655c-9.453 7.42-17.465 11.88-25.775 12.924-3.357 2.786-7.16 3.82-11.407 1.997l-.457-.206-6.554 1.31c-4.16 1.014-8.213 2.736-12.456 3.194l-.983.083-3.196-2.293c-1.242.073 1.637-4.332.573-3.688-21.824 13.2-35.065 10.62-54.015-4.088l-.64-.5 4.098-5.655c-2.342-1.84-7.263-.56-8.276-3.36-1.08-2.986 5.083-6.1 3.91-8.823l-.142-.27-12.128-4.343c-1.025-1.647-2.136-4.175-.984-5.736.946-1.282 5.954 1.166 5.025.486l-.11-.076-4.63-3.02-1.148-.716.183-.097c1.254-.754 2.078-2.503 1.94-5.838l-.032-.57c-.27-3.835-13.064.52-8.027-8.2l.24-.405 2.77-.728-.214-.22c-.173-.19-.33-.393-.472-.607l-.197-.33c-6.074-11.177 6.652-7.134 9.997-9.75 2.13-1.666-14.363-4.035-2.868-8.768 3.127-1.288 7.054 3.04 10.064 1.807l.343-.168-8.114-2.95c2.096-1.197-.182-4.948.656-7.21.397-1.074.94-2.246 1.683-3.18l.347-.403-.153-.077c-4.545-2.31-5.637-5.175 4.46-8.022l1.038-.282c5.043-1.323 10.194 2.87 15.405 2.704l.295-.015c1.714-.144-6.262-.958-7.997-2.934-7.76-8.834 6.745-6.416 10.557-5.544h0zM62.796 83.43l.677.412-.03.02c-5.2 2.582-16.788-10.215-.647-.432zm144.35-8.32l.678-.415.935-.56c14.745-8.717 3.513 3.523-1.582.992l-.032-.017zm-142.81-8.1l-3.787.992.057.058c1.5 1.438 3.89 2.154 5.942 2.226 1.317.046-1.524-4.4-2.212-3.277zm141.95-8.734c-.688-1.124-3.53 3.323-2.212 3.277 2.05-.072 4.44-.79 5.942-2.226l.056-.058-3.785-.993zM73.513 35.055c-.563.192-1.06.518-1.5.93l-.24.24.077.038c2.872 1.413 7.008 2.612 10.595 3.463 1.31.31-.366-4.12-1.64-3.688l-7.292-.984zm123.594-8.734l-7.292.984c-1.273-.434-2.948 3.998-1.64 3.688 3.31-.786 7.1-1.868 9.91-3.14l.76-.36-.24-.238c-.352-.33-.74-.605-1.17-.8l-.33-.13zM139.338.49l-.675-.075-.893.165c-2.102.412-3.942.955-3.983 1.317v.02l.27.206 1.752.845c.653.324 1.077.55 1.323.693l.13.077.575-.215c2.855-1.084 4.543-1.867 5.392-2.416l.088-.06-1.557-.238-2.42-.32z" fill="#212121"/><g transform="matrix(-1 0 0 1 226.516588 15.332)"><g class="P"><path d="M.27 135.655c9.315-29.12 29.297-117.15 66.374-127.528C88.656 1.965 126.895-.867 150.886.475c13.277.743 23.707 9.363 35.69 13.646 23.078 8.248 17.636 25.992 21.91 50.8 2.648 15.378 23.873 47.53 12.268 57.97-17.65 15.88-13.767-1.9-37.393.535-17.187 1.778-121.277 21.068-132.902-11.83L.27 135.655z" transform="matrix(-1 0 0 1 225.272796 120.672)"/></g><g transform="matrix(-.809017 -.587785 -.587785 .809017 173.242449 73.541995)"><path d="M97.104 16.646l.486.153c2.623.776 5.55 3.62 10.11 4.74 5.31 1.305 8.304 5.032 11.595 8.424 2.845 2.932 6.644 5.025 3.538 12.163l-.582 1.322c-3.112 6.995 3.44 7.088-2.988 19.254-1.37 1.097-2.74 2.145-4.1 3.145a28.41 28.41 0 0 1 1.681 2.015l1.12 3.05c.465.55 1 1.075 1.59 1.52 6.3 14.516-10.45 25.5-25.164 5.53-14.44 6.132-10.813.33-28.04 4.764-44.943 11.57 5.225 18.41-19.036 20.714-3.818.362-8.676-1.63-16.49-.466-1.286.192-3.656 1.422-7.11 3.69-.15-5.023-.678-8.36-1.585-10.01C14.143 82.154 5.1 72.812.27 63.95l1.38.48c8.09 2.78 12.856 3.818 14.3 3.114l1.333-.655c9.34-4.62 14.098-7.73 14.275-9.328 1.41-12.698-.03-18.553.416-24.953-24.59-7.75-16.466-29.916 3.164-24.06l.476.663c1.795 1.383 1.806 3.002.032 4.858L42.993 8.5c6.58-4.963 1.035 3.2 5.036.688C56.63 3.808 59.374.947 60.8.752c1.707-.234 5.358 2.94 9.75 4.87 4.605 2.02 11.017.628 15.807 2.627 5.347 2.232 8.92 7.78 10.747 8.398z" class="G"/><g class="C E F I"><path d="M51.652 43.585c3.802 13.08 13.24 16 25.94 17.347m22.015-24.558c11.504 14.098 13.164 12.028-.38-2.5"/><path d="M72.378 53.537c26.095-19.007 20.515-15.688-7-10.728" class="G"/><path d="M66.367 12.145c15.298 9.854 16.237 7.37-1.133-2.26m25.21 35.055c4.175 5.04 3.62 5.456 2.1-.415"/><use xlink:href="#L" x="-14.873" y="-11.673"/></g></g></g><g class="C E F K"><use xlink:href="#M" x="7.103" y="-15.39"/><path d="M73.9 191.1c-5.317 63.945-.02 36.23-12.163 83.775"/></g></g><path d="M22.47 148.488c-4.082 5.63-5.154 7.13-3.566 11.896 1.044 3.134 1.327 7.932 3.583 10.75 1.764 2.202 4.808 6.617 7.166 8.957 4.1 4.08 7.673 6.057 9.77 9.175 3.648 5.427 1.765 14.697 7.275 18.22 5.303 3.39 15.893 4.037 18.82-1.535 3.26-6.206-7.5-12.55-7.74-19.554-.907-25.278 7.706-26.01 1.4-30.7s-20.5 10.202-34.972-4.937l-1.734-2.27z" class="G"/><g class="C"><path d="M44.018 127.805c-6.558-1.875-16.394-2.688-29.51-2.44l23.776 58.414 29.968 3.662-24.235-59.637z" stroke="#bdc2bf" stroke-width="4.16" class="M"/><g class="E F G I N"><path d="M33.236 169.34c7.44 0 8.818.616 15.725 2.927.99.33-.055 4.952-1.05 5.205l-2.393 2.403c-3.908.99-7.878.8-11.817 1.202"/><path d="M31.444 163.966c7.74 7.85 12.453.616 21.004 2.927 1.225.33-.068 4.952-1.3 5.205l-2.962 2.403c-4.84.99-11.3.8-16.167 1.202"/><path d="M31.444 160.383c11.51 7.85 13.144-1.176 25.86 1.136 1.82.33-.102 4.952-1.935 5.205l-4.405 2.403c-7.195.99-16.296.8-23.548 1.202"/><path d="M23.338 153.893c11.51 7.85 18.518-1.176 31.234 1.136 1.82.33-.102 4.952-1.935 5.205l-4.405 2.403c-7.195.99-14.504.8-21.757 1.202"/></g></g></g></g></g><g class="J"><rect x="258.378" y="-152.708" width="235.661" height="235.661" rx="15.082"/></g><g transform="translate(519.526 348.841)"><mask id="T" class="B"><use xlink:href="#H"/></mask><use xlink:href="#H" class="J"/><g mask="url(#T)"><rect x="29.974" y="53.159" width="147" height="96" rx="17" class="R"/><path d="M29.974 114.11h147v25.905h-147z" class="H"/><rect fill="#e3e7d3" x="59.974" y="87.159" width="147" height="96" rx="17"/><g class="M"><ellipse cx="173.495" cy="105.826" rx="10.39" ry="10.286"/><ellipse cx="189.657" cy="105.826" rx="10.39" ry="10.286"/></g><path d="M80.726 137.867l-.24 6.434-2.042.001c-1.7 0-3.08-1.364-3.08-3.048v-2.556l5.36-.83zm9.33-11.85l4.55 5.53v3.07l-5.686.232-.095.01a.89.89 0 0 0-.758.784l-.005.094.025 8.568h-1.18l-.145-7.78-.007-.107c-.118-.998-1.616-1.023-1.768-.03l-.01.106-.4 7.808h-2.292l.276-7.538a.89.89 0 0 0-.933-.82l-.097.01-6.155.954v-2.8l6.316-1.125.093-.022c.422-.122.697-.534.634-.974l-.875-5.97H84.1l-.22 6.29a.89.89 0 0 0 .763.81l.097.01.097-.002a.89.89 0 0 0 .818-.755l.01-.096.222-6.257h4.18zm4.55 10.372v4.867c0 1.683-1.378 3.048-3.08 3.048l-1.653-.001-.023-7.722 4.754-.192zm-14.883-10.372l.132.863.66 4.514-5.15.917v-3.246c0-1.683 1.378-3.048 3.08-3.048l1.28-.001z" class="J"/><g class="M"><path d="M75.367 153.445h72.346v7.62H75.367zm0 10.665h48.487v7.62H75.367z"/></g></g></g><g transform="translate(520.526 96)"><mask id="U" class="B"><use xlink:href="#I"/></mask><use xlink:href="#I" class="H"/><circle stroke="#fff" stroke-width="42.322" mask="url(#U)" cx="116.974" cy="117.5" r="65.5" class="C"/></g><g transform="translate(520.526 601)"><mask id="V" class="B"><use xlink:href="#J"/></mask><use xlink:href="#J" class="H"/><path d="M131.966 237v-25.916c6.962-1.133 12.822-2.974 17.582-5.523s8.63-5.594 11.615-9.134 5.115-7.4 6.393-11.577 1.918-8.39 1.918-12.64c0-6.23-1.1-11.684-3.303-16.357s-5.257-8.745-9.164-12.215-8.525-6.55-13.852-9.24-11.117-5.17-17.37-7.435c-4.12-1.416-7.637-2.726-10.55-3.93s-5.363-2.443-7.352-3.718-3.445-2.726-4.37-4.355-1.385-3.576-1.385-5.842c0-3.682 1.492-6.656 4.475-8.922s7.885-3.4 14.705-3.4 13.32.708 19.5 2.124 11.615 3.116 16.303 5.098h0l6.607-25.492c-3.126-1.416-7.352-2.832-12.68-4.25s-11.686-2.478-19.074-3.186h0V49h-26.852v22.942c-6.25 1.133-11.65 2.94-16.197 5.417s-8.24 5.488-11.082 9.028-4.937 7.47-6.287 11.8-2.025 8.816-2.025 13.49c0 6.1 1.1 11.294 3.303 15.614s5.115 7.966 8.738 10.94 7.672 5.488 12.148 7.54 9.057 3.93 13.746 5.63c4.83 1.7 9.093 3.293 12.787 4.78s6.75 3.01 9.164 4.567 4.262 3.293 5.54 5.205 1.918 4.213 1.918 6.904c0 4.25-1.598 7.54-4.795 9.878s-9.128 3.505-17.795 3.505c-7.672 0-14.954-.99-21.844-2.974s-12.822-4.178-17.795-6.585h0l-9.164 24.43c3.126 1.558 7.92 3.505 14.385 5.842s14.883 3.93 25.254 4.78h0V237h26.852z" fill="#beef9e" fill-rule="nonzero" mask="url(#V)"/></g><g transform="translate(259.763 348.841)"><mask id="W" class="B"><use xlink:href="#K"/></mask><use xlink:href="#K" class="B"/><g mask="url(#W)"><path d="M54.673 162.09c0 5.517 3.795 9.252 8.506 8.414l.143-.027 90.918-17.894c4.73-.93 8.572-6.114 8.648-11.625l.001-.167V83.676h8.187c5.177 0 9.373 4.213 9.373 9.4v69.435c0 5.197-4.197 9.4-9.373 9.4h-11.064l.022 25.158c0 .34-.273.614-.61.614a.61.61 0 0 1-.393-.143l-30.484-25.63h-64.5c-5.177 0-9.373-4.213-9.373-9.4v-.433zm0-68.965a9.39 9.39 0 0 1 1.955-5.743c-1.197 1.942-1.925 4.243-1.955 6.602v-.86z" class="Q"/><path d="M54.673 160.87c0 5.522 3.187 8.455 7.142 6.616l.12-.057 76.34-37.2c3.97-1.935 7.197-7.94 7.26-13.47l.001-.167V66.422l8.932-1.754c4.788-.94 8.67 2.815 8.67 8.39v68.012c0 5.573-3.88 10.853-8.67 11.794L63.342 170.76c-4.788.94-8.67-2.815-8.67-8.39v-1.5z" class="H"/><path d="M61.934 79.183l76.324-37.196c4-1.954 7.26.98 7.26 6.557v68.04c0 5.575-3.25 11.68-7.26 13.634l-76.324 37.196c-4 1.954-7.26-.98-7.26-6.557v-68.04c0-5.575 3.25-11.68 7.26-13.634z" class="R"/></g></g></g></g></svg>