<svg xmlns="http://www.w3.org/2000/svg" xmlns:xlink="http://www.w3.org/1999/xlink" width="756" height="935"><style><![CDATA[.B{stroke-linejoin:round}.C{fill:#fff}.D{stroke-linecap:round}.E{stroke:#212121}.F{fill:#fd5200}.G{stroke-width:2.496}.H{stroke-width:1.393}.I{mask:url(#f)}.J{fill:#e3e7d3}.K{stroke:#008bf8}.L{fill:#011638}.M{stroke:#e3e7d3}.N{mask:url(#y)}.O{fill:#ffb998}.P{stroke-width:2.322}.Q{fill:#00b832}.R{stroke:#0202c8}.S{fill:#038225}.T{fill:#044917}.U{fill:#f5b700}.V{mask:url(#h)}.W{stroke-opacity:.588}.X{fill:#89fc00}.Y{fill:#008bf8}.Z{mask:url(#n)}.a{mask:url(#r)}.b{mask:url(#u)}.c{mask:url(#x)}.d{fill:#beef9e}.e{fill:#a83904}]]></style><defs><path d="M0 308.5c0-33.44 19.232-70.052 42.955-81.774L494.485 3.63C518.21-8.092 537.44 9.515 537.44 42.955V154.45l50.998-10.268c28.23-5.685 51.117 17.02 51.117 50.712l-.001 73.812 56.022.001c33.37 0 60.424 27.586 60.424 61.615V745.6c0 34.03-27.053 61.615-60.424 61.615h-62.42l.042 112.72c.003 8.38-6.647 15.177-14.853 15.177-3.182 0-6.28-1.04-8.84-2.972L444.02 807.205H60.424C27.053 807.205 0 779.62 0 745.6V308.5z" id="A"/><rect id="B" width="235.661" height="235.661" rx="15.082"/><path d="M208.825 125.443c.606 1.7 1.19 2.937 1.748 3.62 27.642 33.784 40.407 5.783 48.932 32.443h0l-53.943-25.856c1.24-3.383 2.312-6.725 3.212-10.026zM117.122.26c10.775.09 20.54 1.572 30.132 3.76 2.128 2.217 4.332 4.662 6.66 7.355h0l2.703 3.126c5.91 6.795 9.266 10.25 13.706 13.826h0l.792.647c12.793 10.59 18.647 22.685 18.64 36.666-.01 19.213-9.044 38.098-31.453 72.104h0l-6.688 10.1-5.075 7.71c-5.992.227-12.18.222-18.402.048 1.495-2.15 2.76-4.042 3.72-5.58h0l.746-1.196c14.522-23.325 20.677-35.54 23.454-49.74h0l.18-.98c1.07-6.207.806-12.515-.612-19.613h0l-.11-.534.064-.67c1.617-18.322-2.78-35.75-13.87-54.066-2.477-4.1-7.194-8.615-16.39-16.234h0zm34.215 97.85l-.287 1.414c-2.666 12.434-8.397 23.89-21.132 44.494h0l-2.147 3.455c-1.282 2.052-3.14 4.778-5.38 7.923l-.527-.022.7-1.082c7.463-11.67 12.8-20.594 17.337-29.26h0l.595-1.142c4.52-8.736 8.08-17.067 10.636-25.123h0l.203-.657zm4.395-91.98c8.71 2.32 17.482 5.064 26.946 7.714 7.318 2.05 16.37 71.308 23.432 101.735-1.174 6.616-3.14 13.46-5.857 20.508l-.32.813c-6.732 11.86-25.334 16.89-47.424 18.35l9.844-14.9c22.933-34.802 32.207-54.208 32.22-74.706.01-15.75-6.765-29.42-21.226-41.065h0l-.46-.373c-3.795-3.106-6.883-6.28-12.032-12.173h0l-5.012-5.778zm-18.765 33.12l.238.463c2.998 6 5.587 12.52 7.93 19.747h0l1.585 4.87c1.567 4.85 2.383 7.575 3.19 10.757h0l.27 1.09.253 1.075.2.952-.05.503c-1.52 13.776-6.603 28.17-14.955 44.09-4.307 8.21-9.35 16.692-16.323 27.64h0l-2.493 3.89c.01-.014-.167.255-.495.76-7.813-.457-15.53-1.124-22.837-1.878a57.82 57.82 0 0 0 3.26-2.249c9.048-6.714 15.125-13.954 22.654-25.628h0l.615-.956 2.836-4.466c10.06-15.96 14.85-25.767 16.573-36.312h0l.207-1.298c2.617-16.784 2.204-30.207-2.334-42.203h0l-.332-.847zM68.78 18.028c1.516 1.36 3.357 2.916 5.65 4.807h0l4.126 3.385 2.302 1.935c5.8 4.976 8.905 8.602 9.91 11.983 11.02 37.14 7.19 60.41-19.54 88.75-5.518 5.85-15.247 11.5-27.032 15.986h0l-6.163 2.33-.63.23c-4.47.63-7.666 2.032-10.306 3.42-6.608 1.854-10.88 2.222-11.19 1.4-.462-1.214 2.425-3.352 10.244-7.03h0l5.105-2.364c5.133-2.412 7.958-3.98 10.153-5.822h0l.56-.488c10.772-9.75 18.63-18.655 23.676-27.403 5.727-9.93 9.097-20.56 10.426-31.883 3.054-26.033-.002-38.154-16.79-53.963l9.017-5.01zm35.376-9.274l.924.918a235.2 235.2 0 0 0 5.08 4.845h0l5.477 5.052c9.2 8.574 13.082 13.073 15.758 18.888 5.61 12.192 6.263 26.088 3.277 44.36-1.518 9.284-5.773 18.27-14.64 32.52h0l-1.924 3.062-3.496 5.464c-6.898 10.555-12.53 17.138-20.732 23.224-2.5 1.847-5.233 3.534-8.513 5.226-9.7-1.118-18.36-2.318-25.173-3.274l4.18-3.238c4.246-3.24 16.677-12.264 20.846-15.297h0l2.35-1.73c24.1-18.03 34.414-31.606 36.827-54.1.694-6.473-6.072-34.717-14.04-53.352h0l-.36-.838c-1.81-4.166-3.69-7.972-5.638-11.388h0l-.2-.345zM54.82 25.736c16.2 14.817 19.26 25.255 16.686 49.02h0l-.22 1.955c-1.254 10.694-4.425 20.695-9.814 30.04-4.75 8.238-12.303 16.796-22.735 26.238-1.89 1.712-4.657 3.25-10.23 5.85h0l-4.452 2.055c-3.895 1.816-6.21 3.018-8.13 4.307h0l-.627.434c-2.716 1.94-4.303 4.036-4.283 6.367a34.62 34.62 0 0 1-2.129-1.465c7.742-6.37 17.39-17.494 22.155-25.014 10.547-16.648 16.876-30.754 18.94-44.148 1.06-6.88.175-13.612-2.393-22.43h0l-.112-.383-.573-1.905-2.937-9.25-.607-2.022c-1.242-4.24-3.116-8.232-5.632-11.903 1.486-.642 3.1-1.278 4.886-1.913 3.052-1.09 7.228-3.166 12.05-5.75zm5.764 116.906l-.81.62-6.13 4.866-3.477-.464c3.6-1.512 6.98-3.134 10.088-4.84h0l.328-.18zM33.337 35.612c2.436 3.4 4.23 7.14 5.397 11.127l1.1 3.63 1.41 4.406 1.706 5.515.3 1.015c2.162 7.696 2.86 13.534 1.967 19.336-1.943 12.613-8.024 26.168-18.247 42.304-4.66 7.356-14.502 18.624-21.902 24.48l-.77-.686C1.4 144.14.278 140.38.312 135.9l16.333-11.637.2-.168a2.41 2.41 0 0 0 .764-1.376h0l.038-.184c.31-1.293 1.54-2.744 4.46-5.36h0l2.184-1.93c3.203-2.855 4.58-4.4 5.558-6.522 7.552-16.454 5.146-31.116-5.98-44.688a70.64 70.64 0 0 0-3.208-3.646c.956-11.88 1.884-18.814 12.608-24.746zM95.56 4.338c3.585 4.772 7.044 11.11 10.367 18.88h0l.333.786c7.528 17.95 13.925 44.764 13.346 50.16-2.207 20.57-11.524 33.096-33.937 50.016h0l-1.982 1.483-8.93 6.502.81-.864c26.704-28.713 31.013-53.234 20.5-90.23h0l-.67-2.304c-1.396-4.704-5.15-8.992-12.07-14.847l-.982-.825L78.81 20.2l-5.55-4.647c7.622-4.188 15.408-8.296 22.2-11.17zM20.118 67.045l.035.043c9.996 12.196 12.082 24.908 5.326 39.628-.612 1.333-1.756 2.59-4.463 5.004h0l-1.72 1.516c-3.585 3.173-5.318 5.067-6.083 7.315h0l-.1.315-12.1 8.628c3.07-16.133 15.383-37.614 17.494-49.88.803-4.663 1.276-8.826 1.62-12.57zM124.32 12.433l1.982 1.68c6.115 5.246 9.545 8.73 11.285 11.604h0l.587.98c6.573 11.085 10.566 21.808 12.135 32.65h0l.104.77-1.2-3.682c-4.75-14.24-10.53-25.9-18.583-36.302-1.647-2.13-3.782-4.736-6.17-7.543h0l-.14-.158zM107.235.64c6.354 6.644 13.813 15.17 18.44 20.985h0l1.142 1.455.844 1.108 1.638 2.25.32.464-.334-.395c-2.647-3.086-6.108-6.507-10.88-10.938h0l-5.287-4.876c-3.874-3.61-6.907-6.614-9.297-9.3 1.13-.31 2.2-.548 3.2-.71z" id="C"/><rect id="D" width="235.661" height="235.661" rx="15.082"/><rect id="E" width="235.661" height="235.661" rx="15.082"/><rect id="F" width="235.661" height="235.661" rx="15.082"/><rect id="G" width="235.661" height="235.661" rx="15.082"/><rect id="H" width="328" height="236" rx="15.082"/><rect id="I" x=".572" y=".29" width="235.661" height="382" rx="15.082"/><path d="M.27 135.655c9.315-29.12 29.297-117.15 66.374-127.528C88.656 1.965 126.895-.867 150.886.475c13.277.743 23.707 9.363 35.69 13.646 23.078 8.248 17.636 25.992 21.91 50.8 2.648 15.378 23.873 47.53 12.268 57.97-17.65 15.88-13.767-1.9-37.393.535-7.337.76 15.64 109.992-9.418 111.712C140.305 237.457 57.12 130.46 50.46 111.608L.27 135.655z" id="J"/><rect id="K" width="235.661" height="482" rx="15.082"/><circle id="L" cx="25.5" cy="25.5" r="25.5"/><circle id="M" cx="25.5" cy="25.5" r="25.5"/><path d="M43.393 26.067c.126.353.247.6.363.752 5.744 7.02 8.396 1.202 10.168 6.742h0l-11.21-5.374a25.73 25.73 0 0 0 .667-2.083zM24.34.054c2.24.02 4.268.327 6.26.78.442.46.9.97 1.384 1.528h0l.562.65c1.228 1.412 1.925 2.13 2.848 2.873h0l.165.134c2.658 2.2 3.875 4.714 3.873 7.62-.002 3.992-1.88 7.917-6.536 14.983h0l-1.4 2.1-1.055 1.603c-1.244.047-2.53.046-3.824.01.31-.447.574-.84.774-1.16h0l.155-.248c3.018-4.847 4.297-7.385 4.874-10.336h0l.037-.204c.223-1.3.167-2.6-.127-4.075h0l-.023-.11.013-.14c.336-3.807-.578-7.43-2.882-11.235-.515-.85-1.495-1.8-3.406-3.373h0zm7.11 20.333l-.06.294c-.554 2.584-1.745 4.964-4.39 9.246h0l-.446.718c-.266.426-.652.992-1.117 1.645a2.51 2.51 0 0 1-.111-.003l.146-.225c1.55-2.425 2.658-4.28 3.603-6.08h0l.124-.237c.94-1.815 1.68-3.546 2.2-5.22h0l.042-.137zm.914-19.113c1.8.482 3.632 1.052 5.6 1.603 1.52.426 3.402 14.82 4.87 21.14-.244 1.374-.653 2.796-1.217 4.26l-.07.18c-1.405 2.457-5.266 3.5-9.85 3.803l2.046-3.096c4.765-7.232 6.693-11.264 6.695-15.524.002-3.273-1.406-6.114-4.41-8.533h0l-.095-.077c-.79-.645-1.43-1.305-2.5-2.53h0l-.844-.974zm-3.9 6.882l.05.096c.623 1.247 1.16 2.602 1.648 4.103h0l.33 1.012c.326 1.008.495 1.574.663 2.235h0l.056.227.053.223.044.198-.01.104c-.316 2.863-1.372 5.854-3.108 9.162-.895 1.706-1.943 3.47-3.392 5.743h0l-.518.81c.002-.003-.034.053-.102.157-1.625-.094-3.228-.232-4.747-.39.237-.15.46-.306.68-.467 1.88-1.395 3.143-2.9 4.707-5.326h0l.128-.2.59-.928c2.09-3.316 3.086-5.354 3.444-7.546h0l.043-.27c.544-3.488.458-6.277-.485-8.77h0l-.07-.176zm-14.17-4.41c.315.282.697.606 1.174.998h0l.857.703.478.402c1.205 1.034 1.85 1.788 2.06 2.5 2.3 7.717 1.494 12.553-4.06 18.442-1.147 1.216-3.168 2.4-5.617 3.322h0l-1.28.484-.132.048c-.927.13-1.59.422-2.14.7-1.374.386-2.262.463-2.327.294-.096-.252.504-.697 2.13-1.46h0l1.06-.49c1.067-.5 1.654-.827 2.1-1.2h0l.116-.1c2.238-2.026 3.87-3.876 4.92-5.694 1.2-2.064 1.9-4.272 2.166-6.625.635-5.4 0-7.928-3.49-11.213l1.79-.995zm7.35-1.928l.192.19c.317.313.668.647 1.056 1.007h0l1.138 1.05c1.912 1.782 2.718 2.717 3.275 3.925 1.166 2.533 1.302 5.42.68 9.218-.315 1.93-1.2 3.796-3.042 6.758h0l-.4.636-.726 1.135c-1.433 2.193-2.604 3.56-4.308 4.826-.518.384-1.088.735-1.77 1.086-2.013-.233-3.814-.482-5.23-.68l.264-.208.603-.465c.882-.673 3.465-2.55 4.332-3.18h0l.49-.36c5.008-3.746 7.15-6.568 7.653-11.242.144-1.345-1.262-7.214-2.917-11.086h0l-.075-.174a24.59 24.59 0 0 0-1.172-2.366h0l-.042-.072zm-10.25 3.53c3.364 3.08 4.002 5.248 3.467 10.186h0l-.046.406c-.26 2.222-.92 4.3-2.04 6.242-.987 1.712-2.557 3.5-4.724 5.452-.393.356-.968.676-2.126 1.215h0l-.925.427c-.81.377-1.29.627-1.69.895h0l-.13.1c-.564.403-.894.84-.9 1.323-.14-.087-.287-.19-.443-.305 1.608-1.32 3.615-3.634 4.605-5.197 2.192-3.46 3.507-6.39 3.935-9.174.22-1.43.036-2.828-.497-4.66h0l-.023-.08-.12-.396-.6-1.922L9 9.43c-.258-.88-.648-1.71-1.17-2.473.307-.133.645-.265 1.015-.398.618-.22 1.457-.636 2.426-1.153zM12.59 29.64l-.168.13-1.274 1.012-.724-.097c.75-.314 1.452-.65 2.098-1.006h0l.068-.038zM6.928 7.4a7.66 7.66 0 0 1 1.121 2.312l.23.754.293.916.355 1.146.06.21c.45 1.6.594 2.812.41 4.018-.404 2.62-1.667 5.438-3.792 8.79-1.014 1.6-3.206 4.1-4.762 5.25l.2-.163-.16-.142c-.6-.54-.835-1.322-.828-2.252l3.394-2.418.044-.035a.5.5 0 0 0 .159-.286h0l.008-.038c.065-.27.32-.57.927-1.114h0l.454-.4c.665-.593.952-.912 1.155-1.355 1.57-3.42 1.07-6.466-1.242-9.286a14.68 14.68 0 0 0-.666-.757c.194-2.417.382-3.85 2.48-5.065zm12.93-6.5c.745.992 1.464 2.308 2.154 3.923h0l.07.163c1.564 3.73 2.894 9.302 2.773 10.423-.46 4.274-2.395 6.877-7.052 10.393h0l-.412.308-1.856 1.35.168-.18c5.55-5.966 6.444-11.062 4.258-18.75h0l-.14-.48c-.3-.978-1.07-1.868-2.508-3.085l-.204-.17-.732-.602-1.153-.966c1.54-.846 3.113-1.677 4.496-2.272zM4.18 13.93l.007.01c2.077 2.534 2.51 5.176 1.107 8.235-.127.277-.365.538-.928 1.04h0L4 23.53c-.745.66-1.105 1.053-1.264 1.52h0l-.02.066L.208 26.91c.637-3.352 3.197-7.817 3.635-10.366.167-.97.265-1.835.337-2.613zM25.834 2.584l.412.35c1.27 1.1 1.984 1.814 2.345 2.41h0l.122.203c1.366 2.303 2.196 4.532 2.522 6.785h0l.022.16-.25-.765c-.987-2.96-2.188-5.38-3.862-7.543-.342-.443-.786-.984-1.282-1.567h0l-.03-.033zm-3.55-2.45a72.05 72.05 0 0 1 3.833 4.361h0l.237.302.175.23.34.467.063.092-.066-.078c-.495-.577-1.127-1.21-1.972-2.003l-.29-.27-1.1-1.013C22.7 1.47 22.07.847 21.573.287a6.79 6.79 0 0 1 .584-.133z" id="N"/><circle id="O" cx="25.5" cy="25.5" r="25.5"/><path d="M4.03 25.092l.05.064c1.548 2.07.583 1.43-.032-.023l-.017-.04zM20.826.246l-.008-.01c.964 1.298 1.37 2.544 1.37 3.318 0 1.5-.697 3.247-.408 3.91 1.037 2.4 1.08 2.7 2.38 3.514s-.994 1.756-1.44 2.662c-.886 1.8-1.006 4.246-4.4 5.756s-7.492-.445-11.196.5C3.21 20.916 3.358 23.41 4 25.02l.03.072-.076-.1c-.732-.964-1.955-2.453-3.907-4.623l1.44-.32c.033-.826-.423-3.026-.6-4.012 3.404-.634 5.75-.926 6.993-2.844 1.397-2.155 1.284-1.937 1.632-3.03.303-.952-.798-1.004-.001-1.61.95-.722 3.248-.31 3.866-1.33 1-1.663 4.03-2.28 4.8-3.265S19.94.52 20.8.252l.015-.006z" id="P"/><circle id="Q" cx="25.5" cy="25.5" r="25.5"/><path d="M.056 28.19c1.936-6.05 6.088-24.344 13.792-26.5C18.422.408 26.368-.18 31.354.1c2.76.154 4.926 1.946 7.416 2.836 4.796 1.714 3.665 5.4 4.553 10.558.55 3.195 4.96 9.877 2.55 12.046-3.668 3.3-2.86-.397-7.77.11-3.572.37-25.2 4.378-27.617-2.458L.056 28.19z" id="R"/><circle id="S" cx="25.5" cy="25.5" r="25.5"/><circle id="T" cx="25.5" cy="25.5" r="25.5"/><path d="M22.9 1.22c7.063 4.21 9.883 6.537 7.477 11.875-1.547 3.433-3.605 6.154-5.283 8.22 2.702 1.416-.017 3.882-2.558 3.192-1.438 1.805-2.89 2.203-6.384 3.102-9.34 2.404-1.28 4.04-6.32 4.52-3.36.32-6.62-2.416-9.775-8.206 1.855.652 2.94.9 3.258.747 2.124-1.035 3.205-1.727 3.243-2.074l.82-6.724c.056-.392.123-.785.2-1.178-4.072-1.807-2.385-5.804 1.424-4.708C11.794 3.194 17.376-2.073 22.9 1.22z" id="U"/><path id="V" d="M185.1 179.35c21.152 60.58 14.716 33.106 22.963 81.48"/><path id="W" d="M32.558 128.218c3.305 3 3.555-1.846 1.098-1.4l-1.098 1.4z"/><path id="X" d="M15.936 14.896c-4.137 5.28-3.407 4.147-2.177-1.532"/><path id="Y" d="M17.677 14.255c.867 1.047.752 1.134.434-.086"/><path id="Z" d="M13.197 10.412c.687.62.596.673.344-.05"/><path id="a" d="M38.673 42.48c4.395 12.588 3.058 6.88 4.772 16.93"/><path id="b" d="M15.562 44.922c-1.105 13.288-.004 7.528-2.527 17.408"/><path id="c" d="M2.502 15.968c-3.576 6.85-4.953 3.262-7.83-.43-1.026-1.317-2.288-2.43-3.433-3.647"/><path id="d" d="M2.354 11.18C-.44 21.404.247 16.39.003 26.184"/><path id="e" d="M23.248 14.34c3.766-.344 3.602-.87-.475-.225"/></defs><g transform="translate(0 -1)" fill="none" fill-rule="evenodd"><mask id="f" class="C"><use xlink:href="#A"/></mask><g class="I"><g transform="translate(260 602)"><mask id="g" class="C"><use xlink:href="#B"/></mask><use xlink:href="#B" class="Q"/><g mask="url(#g)"><g transform="matrix(-.984808 -.173648 -.173648 .984808 330.177794 17.892685)"><path d="M127.946 204.745c-47.176-19.254-62.18-45.302-45.01-78.143C108.692 77.34 158.034-1.517 211.86 44.246c35.883 30.51 30.614 82.694-15.81 156.555l-68.104 3.944z" transform="matrix(.798636 -.601815 .601815 .798636 -39.427846 117.381809)" class="L"/><g transform="matrix(-1 0 0 1 261.402161 34.306483)"><g transform="translate(.933 152.046)"><mask id="h" class="C"><use xlink:href="#C"/></mask><use xlink:href="#C" class="d"/><g class="B D G V"><path d="M13.94 93.412c-19.92 38.176-27.592 18.175-43.62-2.392-5.718-7.337-12.747-13.55-19.12-20.323" class="R"/><path d="M13.1 66.732C-2.457 123.7 1.374 95.756.018 150.332" class="K"/><g class="E"><path d="M179.234 54.622c24.482 70.145 17.034 38.333 26.58 94.344"/><path d="M30.164 69.558c24.493 70.144 17.04 38.333 26.594 94.342" transform="matrix(.913545 .406737 -.406737 .913545 51.235442 -7.585195)"/></g></g></g><g transform="matrix(-.809017 -.587785 -.587785 .809017 211.380545 85.263098)"><path d="M138.545 81.91l.25.688c.157.186-8.602-4.68.49.548s-8.89 22.928-18.54 16.934l-6.816 3.257c-18.918 8.41-18.827.342-39.483 5.662-52.02 13.397 2.027 29.677-26.054 32.344C29.675 143.12 13.72 126.738.532 92.196l3.53 1.438 4.16 1.66c12.18 4.788 19.008 6.822 20.486 6.1 7.886-3.846 13.88-9.746 17.98-17.7l-.65-2.19-.616-2.128c-4.3-15.02-6.077-25.142-5.33-30.366l1.03-6.603c-.7-.313-1.503-.46-2.01-.972-6.016-6.08-5.872-23.923 9.1-25.47.238-.567-2.297 23.245.285 22.89l.722-.11c9.362-1.553 68.932-14.52 88.293-37.753 4.965-5.958 9.778 43.003 1.03 80.918z" class="O"/><g class="E G D B"><path d="M69.23 89.14c14.077 7.11 24.01 1.433 35.167-8.26" transform="matrix(.681998 .731354 -.731354 .681998 90.944136 -35.951279)"/><path d="M128.498 65.386c20.98-1.9 20.067-4.844-2.644-1.254" transform="matrix(.559193 .829038 -.829038 .559193 112.37028 -83.515983)"/><path d="M104.688 74.95c-1.278 14.665-11.586 1.836-7.13-2.865" class="O"/><path d="M88.237 36.124c20.977-1.91 20.065-4.845-2.644-1.254" transform="matrix(.788011 .615661 -.615661 .788011 41.356076 -50.809518)"/><path d="M120.786 69.205c4.832 5.836 4.2 6.318 2.42-.48M91.157 48.5c3.825 3.462 3.318 3.748 1.915-.285"/></g></g></g></g></g><g mask="url(#g)"><path d="M11.715 179.897c-4.082 5.63-5.154 7.13-3.566 11.896 1.044 3.134 1.327 7.932 3.583 10.75 1.764 2.202 4.808 6.617 7.166 8.957 4.1 4.08 7.673 6.057 9.77 9.175 3.648 5.427 1.765 14.697 7.275 18.22 5.303 3.39 15.893 4.037 18.82-1.535 3.26-6.206-7.5-12.55-7.74-19.554-.907-25.278 7.706-26.01 1.4-30.7s-20.5 10.202-34.972-4.937l-1.734-2.27z" class="O"/><g class="B"><path d="M33.262 159.214l-29.51-8.44L27.53 215.19l29.968 3.662-24.235-59.637z" stroke="#bdc2bf" stroke-width="4.16" fill="#bdc2bf"/><g class="D E G O W"><path d="M22.48 200.75c7.44 0 8.818.616 15.725 2.927.99.33-.055 4.952-1.05 5.205l-2.393 2.403c-3.908.99-7.878.8-11.817 1.202"/><path d="M20.688 195.375c7.74 7.85 12.453.616 21.004 2.927 1.225.33-.068 4.952-1.3 5.205L37.43 205.9c-4.84.99-11.3.8-16.167 1.202"/><path d="M20.688 191.792c11.51 7.85 13.144-1.176 25.86 1.136 1.82.33-.102 4.952-1.935 5.205l-4.405 2.403c-7.195.99-16.296.8-23.548 1.202"/><path d="M12.582 185.302c11.51 7.85 18.518-1.176 31.234 1.136 1.82.33-.102 4.952-1.935 5.205l-4.405 2.403c-7.195.99-14.504.8-21.757 1.202"/></g></g></g></g><g transform="translate(258 349)"><mask id="i" class="C"><use xlink:href="#D"/></mask><use stroke-width="2.189" xlink:href="#D" class="B C D M"/><g mask="url(#i)"><g fill="#004b90"><path d="M50.7 122.258a2.42 2.42 0 0 1 0-3.403l54.693-54.63a2.41 2.41 0 0 1 3.407 0l30.75 30.708a2.41 2.41 0 0 1 0 3.394l-34.12 34.087c-.946.93-2.476.93-3.4 0l-5.746-5.744a2.38 2.38 0 0 1 0-3.391l24.954-24.952a2.39 2.39 0 0 0 0-3.394L108.8 82.505c-.93-.932-2.476-.932-3.407 0l-36.38 36.35c-.936.932-.936 2.46 0 3.403l35.784 35.74c.93.945 2.464.945 3.4 0l24.852-24.828a2.43 2.43 0 0 1 3.41 0l5.734 5.74c.943.945.943 2.47 0 3.406l-33.995 33.972a2.4 2.4 0 0 1-3.41 0L50.7 122.258z"/></g><path d="M147.75 122.807c-.946-.948-.946-2.474 0-3.42l21.084-21.064c.933-.932.933-2.462 0-3.39l-20.59-20.57c-.93-.942-.93-2.47 0-3.403l5.75-5.74c.93-.932 2.473-.932 3.407 0l29.73 29.714a2.38 2.38 0 0 1 0 3.391l-30.228 30.21c-.943.942-2.476.942-3.42 0l-5.734-5.728z" class="Q"/></g></g><g transform="translate(258 96)"><mask id="j" class="C"><use xlink:href="#E"/></mask><use xlink:href="#E" class="Q"/><g mask="url(#j)"><path d="M11 65h49v77H11z" class="X"/><path d="M11 46h49v19H11z" class="Y"/><path d="M11 142h49v73H11z" class="S"/><path d="M65 55h49v82H65z" class="X"/><path d="M65 35h49v20H65z" class="Y"/><path d="M65 137h49v78H65z" class="S"/><path d="M119 47h49v86h-49z" class="X"/><path d="M119 26h49v21h-49z" class="Y"/><path d="M119 133h49v82h-49z" class="S"/><path d="M173 39h49v90h-49z" class="X"/><path d="M173 17h49v22h-49z" class="Y"/><path d="M173 129h49v86h-49z" class="S"/></g></g><g transform="translate(517 96)"><mask id="k" class="C"><use xlink:href="#F"/></mask><use xlink:href="#F" class="T"/><g mask="url(#k)"><g transform="matrix(-1 0 0 1 234.660848 29.1594)"><path d="M95.378 22.055l.7.174-.73-.3c-2.698-1.12-9.344-4.376-2.825-6.632 5.633-1.95 9.486-.076 13.742 1.78l-.288-.658c-.738-1.646-1.553-3.3-.9-4.776 6.135-13.762 7.583.027 13.848-1.884l3.55-1.094c5.923-1.844 10.353-3.323 13.6-4.5l1.046-.386a16.28 16.28 0 0 1-2.959-1.581l-.115-.083-.125-.06c-.08-.037-.125-.08-.14-.123l-.004-.024-.092-.075c-1.25-1.06-1.115-2.03 4.608-1.465l.36.037.673-.11c3.003-.464 5.78-.52 4.062.7l-.082.054 2.168.362 1.757.3c2.806.53 5.93 1.4 6.683 3.868.71 2.33-8.162 3.765-5.817 4.425 14.563 4.095 18.704-7.347 29.99-3.44 6.76 2.34-.638 5.755-3.108 6.748l-.467.18.457-.118c3.345-.807 18.77-3.57 10.82 5.482-1.814 2.065-10.45 2.862-7.7 2.95 5.21.166 10.362-4.027 15.405-2.704 11.203 2.94 10.194 5.917 5.498 8.304l-.155.076h.018c.916.98 1.56 2.337 2.014 3.564.838 2.264-1.44 6.014.656 7.21l-8.114 2.95c3.05 1.742 7.16-2.976 10.407-1.64 11.495 4.733-4.998 7.1-2.868 8.768 3.345 2.617 16.07-1.425 9.997 9.75-.184.338-.41.65-.67.937l-.215.22 2.77.728c5.67 9.258-7.513 4.71-7.786 8.604-.26 3.71.586 5.613 1.91 6.41l.18.1-1.142.71-3.91 2.538-.725.486c-1.365.917 3.94-1.734 4.916-.41 1.152 1.56.04 4.09-.984 5.736l-12.128 4.343c-1.733 2.786 4.885 6.01 3.77 9.094-1.013 2.8-5.934 1.52-8.276 3.36l4.098 5.655c-9.453 7.42-17.465 11.88-25.775 12.924-3.357 2.786-7.16 3.82-11.407 1.997l-.457-.206-6.554 1.31c-4.16 1.014-8.213 2.736-12.456 3.194l-.983.083-3.196-2.293c-1.242.073 1.637-4.332.573-3.688-21.824 13.2-35.065 10.62-54.015-4.088l-.64-.5 4.098-5.655c-2.342-1.84-7.263-.56-8.276-3.36-1.08-2.986 5.083-6.1 3.91-8.823l-.142-.27-12.128-4.343c-1.025-1.647-2.136-4.175-.984-5.736.946-1.282 5.954 1.166 5.025.486l-.11-.076-4.63-3.02-1.148-.716.183-.097c1.254-.754 2.078-2.503 1.94-5.838l-.032-.57c-.27-3.835-13.064.52-8.027-8.2l.24-.405 2.77-.728-.214-.22c-.173-.19-.33-.393-.472-.607l-.197-.33c-6.074-11.177 6.652-7.134 9.997-9.75 2.13-1.666-14.363-4.035-2.868-8.768 3.127-1.288 7.054 3.04 10.064 1.807l.343-.168-8.114-2.95c2.096-1.197-.182-4.948.656-7.21.397-1.074.94-2.246 1.683-3.18l.347-.403-.153-.077c-4.545-2.31-5.637-5.175 4.46-8.022l1.038-.282c5.043-1.323 10.194 2.87 15.405 2.704l.295-.015c1.714-.144-6.262-.958-7.997-2.934-7.76-8.834 6.745-6.416 10.557-5.544h0zM62.796 83.43l.677.412-.03.02c-5.2 2.582-16.788-10.215-.647-.432zm144.35-8.32l.678-.415.935-.56c14.745-8.717 3.513 3.523-1.582.992l-.032-.017zm-142.81-8.1l-3.787.992.057.058c1.5 1.438 3.89 2.154 5.942 2.226 1.317.046-1.524-4.4-2.212-3.277zm141.95-8.734c-.688-1.124-3.53 3.323-2.212 3.277 2.05-.072 4.44-.79 5.942-2.226l.056-.058-3.785-.993zM73.513 35.055c-.563.192-1.06.518-1.5.93l-.24.24.077.038c2.872 1.413 7.008 2.612 10.595 3.463 1.31.31-.366-4.12-1.64-3.688l-7.292-.984zm123.594-8.734l-7.292.984c-1.273-.434-2.948 3.998-1.64 3.688 3.31-.786 7.1-1.868 9.91-3.14l.76-.36-.24-.238c-.352-.33-.74-.605-1.17-.8l-.33-.13zM139.338.49l-.675-.075-.893.165c-2.102.412-3.942.955-3.983 1.317v.02l.27.206 1.752.845c.653.324 1.077.55 1.323.693l.13.077.575-.215c2.855-1.084 4.543-1.867 5.392-2.416l.088-.06-1.557-.238-2.42-.32z" fill="#212121"/><g transform="matrix(-1 0 0 1 226.516588 15.332)"><g class="L"><path d="M.27 135.655c9.315-29.12 29.297-117.15 66.374-127.528C88.656 1.965 126.895-.867 150.886.475c13.277.743 23.707 9.363 35.69 13.646 23.078 8.248 17.636 25.992 21.91 50.8 2.648 15.378 23.873 47.53 12.268 57.97-17.65 15.88-13.767-1.9-37.393.535-17.187 1.778-121.277 21.068-132.902-11.83L.27 135.655z" transform="matrix(-1 0 0 1 225.272796 120.672)"/></g><g transform="matrix(-.809017 -.587785 -.587785 .809017 173.242449 73.541995)"><path d="M97.104 16.646l.486.153c2.623.776 5.55 3.62 10.11 4.74 5.31 1.305 8.304 5.032 11.595 8.424 2.845 2.932 6.644 5.025 3.538 12.163l-.582 1.322c-3.112 6.995 3.44 7.088-2.988 19.254-1.37 1.097-2.74 2.145-4.1 3.145a28.41 28.41 0 0 1 1.681 2.015l1.12 3.05c.465.55 1 1.075 1.59 1.52 6.3 14.516-10.45 25.5-25.164 5.53-14.44 6.132-10.813.33-28.04 4.764-44.943 11.57 5.225 18.41-19.036 20.714-3.818.362-8.676-1.63-16.49-.466-1.286.192-3.656 1.422-7.11 3.69-.15-5.023-.678-8.36-1.585-10.01C14.143 82.154 5.1 72.812.27 63.95l1.38.48c8.09 2.78 12.856 3.818 14.3 3.114l1.333-.655c9.34-4.62 14.098-7.73 14.275-9.328 1.41-12.698-.03-18.553.416-24.953-24.59-7.75-16.466-29.916 3.164-24.06l.476.663c1.795 1.383 1.806 3.002.032 4.858L42.993 8.5c6.58-4.963 1.035 3.2 5.036.688C56.63 3.808 59.374.947 60.8.752c1.707-.234 5.358 2.94 9.75 4.87 4.605 2.02 11.017.628 15.807 2.627 5.347 2.232 8.92 7.78 10.747 8.398z" class="F"/><g class="B D E G"><path d="M51.652 43.585c3.802 13.08 13.24 16 25.94 17.347m22.015-24.558c11.504 14.098 13.164 12.028-.38-2.5"/><path d="M72.378 53.537c26.095-19.007 20.515-15.688-7-10.728" class="F"/><path d="M66.367 12.145c15.298 9.854 16.237 7.37-1.133-2.26m25.21 35.055c4.175 5.04 3.62 5.456 2.1-.415M68.887 26.443c3.305 3 2.867 3.237 1.654-.246"/></g></g></g><g class="B D G K"><use xlink:href="#V"/><path d="M73.9 191.1c-5.317 63.945-.02 36.23-12.163 83.775"/></g></g></g><path d="M-91.84 176.553l-38.488 66.25H42.637l44.843-69.856-164.15-4.83a16.97 16.97 0 0 0-15.17 8.437z" mask="url(#k)" transform="matrix(-1 0 0 1 -42.847426 0)" class="J"/></g><g transform="translate(-1 96)"><mask id="l" class="C"><use xlink:href="#G"/></mask><use xlink:href="#G" class="U"/><g mask="url(#l)"><g transform="matrix(-1 0 0 1 209.393365 42.699684)"><g class="F"><path d="M117.26 112.088c-6.8 15.3-6.8 25.516 0 30.62s13.6 8.505 20.4 10.206c-16.293 35.902-36.34 49.6-60.14 41.095s-33.952-22.24-30.455-41.204c10.738-3.294 17.307-6.877 19.706-10.75 3.09-4.99 3.392-41.324 7.166-46.578 8.166-11.37 17.507-17.742 28.022-19.11l15.3 35.722z" transform="matrix(-.970296 .241922 .241922 .970296 148.321167 -18.211549)"/><path d="M204.36 195.787c-2.627-7.26-4.184-15.003-7.88-21.78-3.854-7.066-8.185-14.328-14.52-19.29-44.226-34.647-.007 51.372-29.666 53.518-31.526 2.28-88.03 18.733-101.85-23.44-1.533-4.678.475-10.758-2.7-14.52-1.847-2.19-6.353-.65-8.5 1.245-3.648 3.217-5.693 8.052-7.26 12.655-1.806 5.304-5.153 11.554-2.7 16.592 10.54 21.64 73.92 32.372 78.83 33.607 47.905 12.053 70.224 14.72 92.516-29.872"/></g><g transform="matrix(-.997564 -.069756 -.069756 .997564 147.061683 9.883388)"><path d="M42.21 145.786l-.08-.2 1.04 1.402c6.3 8.633 1.887 5.524-.96-1.203zM122.963 26.02l-.038-.056c4.64 6.244 6.598 12.243 6.598 15.966 0 7.267-1.654 15.184-1.965 18.82-1.843 21.534 7.467 16.798 5.305 22.034-.927 2.244-2.666 2.505-3.95 5.11-1.42 2.883-2.08 6.395-2.93 10.065-9.214.51-13.973-1.742-16.968-2.344l-.307-.057 11.924 15.266c-2.165 2.806-5.225 5.343-9.718 7.343-16.326 7.267-36.052-2.14-53.877 2.456-18.636 4.805-18.15 16.592-15.158 24.342l.25.618-1.22-1.6c-3.593-4.645-9.277-11.49-17.95-21.133l6.933-1.536c.16-3.97-2.03-14.543-2.89-19.294l6.944-1.284c12.664-2.37 21.61-4.552 26.707-12.414l3.725-5.752c1.302-2.035-4.668-12.787-4.163-13.847.607-1.273 1.843-8.42 2.537-10.598 1.46-4.582 21.38 6.38 24.355 1.477 4.86-8.004 19.4-10.976 23.094-15.71 3.616-4.622 8.278-16.003 12.388-17.74l.373-.135z" class="F"/><path d="M102.52 2.012C99.123.633 88.355 1.48 81.052 3.1h0l-1.683.393c-6.127 1.36-15.985 1.184-18.628 2.16-.144.053-15.02-2.615-22.28 7.013-2.72 3.608-3.805 11.95-6.367 16.84-2.686 5.127-7.153 9.32-8.098 16.377-.664 4.96-6.19 10.78-6.92 15.9-.844 5.928 4.298 10.698 3.766 16.638-.205 2.285 4.017 8.808 3.795 11.16-.18 1.892 4.085 4.768 2.95 9.185s-5.622 3.71-7.773 8.436 3.224 8.214 2.7 12.76-3.236 1.153-5.86 6.774c-1.306 2.796 1.984 6.16 1.162 9.06-.83 2.93-5.765 5.394-5.986 8.56-.44 6.3 4.216 5.167 2.95 9.185s-1.96 2.965-4.2 8.686c-.77 1.963-.044 3.71-.5 7.148-.872 6.584-6.148 12.158-8.398 17.37-3.426 7.936 13.016-1.123 16.834-9.598s4.8-9.638 6.36-13.922-3.118-3.9-1.162-9.06c1.026-2.706 6.42-.612 7.398-3.074.89-2.234-2.775-9.173.625-8.936 7.148.5 1.206-16.55 4.574-14.047s5.67-5.99 8.023-12c1.276-3.262-2.846-6.334-2.95-9.185-.087-2.41 3.688-4.657 5.86-6.774 4.744-4.62 13.61-2.803 14.76-4.795 5.03-8.727 5.636-9.626 6.444-12.548h0l.523-1.994c-12.204-9.803-1.42-26.302 18.887-17.016 5.24-7.224 18.064-10.8 21.3-15.406h0l.248-.363c3.403-5.127 7.477-16.657 11.488-18.126h0l.073-.03-.043-.053c8.57-3.883 7.858-13.546 4.43-16.12-3.543-2.66-14.936-8.354-21.72-11.22h0z" fill="#212121"/><g class="B D E"><path d="M108.853 60.92l8.083-.963c4.096-.646 7.703.87 6.703.634-.663-.156-4.503-2.27-7.398-2.01l-9.67 1.254" class="G"/><path d="M113.855 71.113c3.3 2.99 2.864 3.238 1.652-.246" stroke-width="6.079"/></g></g></g></g></g><g class="Q"><g transform="translate(517 349)"><use xlink:href="#H"/></g></g><g transform="translate(517 602)"><mask id="m" class="C"><use xlink:href="#I"/></mask><use xlink:href="#I" class="U"/><g mask="url(#m)"><g transform="translate(-23.102 3.35)"><g transform="translate(32.053 156.501)"><mask id="n" class="C"><use xlink:href="#J"/></mask><use transform="matrix(-1 0 0 1 224.466796 0)" xlink:href="#J" class="T"/><g class="B D G Z"><path d="M12.042 76.846c-17.2 32.97-23.838 15.697-37.685-2.066-4.94-6.336-11.013-11.7-16.52-17.552" class="R"/><path d="M11.327 53.805c-13.45 49.2-10.14 25.066-11.31 72.2" class="K"/><g class="E"><use xlink:href="#V" x="-30.25" y="-136.004"/><use xlink:href="#V" x="-159.034" y="-123.105" transform="matrix(.913545 .406737 -.406737 .913545 42.693278 -6.887198)"/></g></g></g><g transform="matrix(-.809017 -.587785 -.587785 .809017 231.482184 93.553109)"><g class="F"><path d="M39.798 90.138c2.824 13.258 12.915 22.622 30.27 28.095-9.42 7.247 8.044 12.137-10.22 13.87-3.353.318-10.934-1.396-16.5-.466-4.525.757-7.727 4.54-6.058 2.242 1.036-1.426 3.436-2.592 3.16-4.348-1.4-8.953-19.73-22.385-27.65-36.92l1.38.48c8.1 2.78 12.856 3.818 14.3 3.114l1.638-.806c3.716-1.845 6.7-3.446 8.925-4.802l.745-.46zm81.187 5.292c-1.476 1.855-2.956 3.4-4.534 4.727l1.817-1.933c3.993-4.286 9.282-10.183 15.87-17.7 11.573 6.878-1.197 18.145-13.152 14.897zM98.362.794c5.495-.753 26.192 20.833 31.217 22.536l.453.144c7.728 2.305 31.608 2.76 26.758 21.15-6.505 13.247-14.453 24.14-21.394 32.842-14.295 13.268-24 17.07-29.112 11.4l-.223-.256c-6.326-7.55-13.705-13.65-22.137-18.3-13.7-5.525-21.125-14.6-22.272-27.254l-.28-3.17c-.437-5.094-.726-9.252-.865-12.473l7.78-5.868C86.4 7.982 96.415 1.06 98.362.794zM55.08 25.334l-.5 1.585c-1.343 4.3-2.908 9.775-4.693 16.393l-1.26 4.718-.202-.1c-18.58-8.7-10.94-27.078 6.654-22.604z"/></g><g class="E G D B"><path d="M73.57 88.783c12.16 6.14 20.738 1.234 30.378-7.14" transform="matrix(.681998 .731354 -.731354 .681998 91.553044 -37.378943)"/><path d="M124.42 68.01c18.12-1.653 17.333-4.188-2.284-1.083" transform="matrix(.559193 .829038 -.829038 .559193 112.54149 -78.187593)"/><path d="M111.314 57.004c3.138 13.532-7.716 41.9-17.637 15.76" class="F"/><path d="M89.637 42.74c18.12-1.653 17.333-4.188-2.284-1.083" transform="matrix(.788011 .615661 -.615661 .788011 45.669286 -49.70503)"/><path d="M117.757 71.308c4.175 5.04 3.62 5.456 2.1-.415M92.16 53.42c3.305 3 2.867 3.237 1.654-.246"/></g><g stroke="#038225" class="B G"><use xlink:href="#W"/><use xlink:href="#W" x="-8.655" y="11.912"/><path d="M17.53 151c3.305 3 3.555-1.846 1.098-1.4L17.53 151z"/><use xlink:href="#W" x="-23.451" y="34.378"/><use xlink:href="#W" x="-31.875" y="45.972"/></g></g></g></g></g><rect x="517" y="-152" width="235.661" height="235.661" rx="15.082" class="T"/><g class="U"><rect x="258.378" y="-152.708" width="235.661" height="235.661" rx="15.082"/></g><g transform="translate(-.896 349.438)"><mask id="o" class="C"><use xlink:href="#K"/></mask><use xlink:href="#K" class="J"/><g mask="url(#o)"><g transform="translate(-6.104 -.438)"><rect width="297" height="65" rx="10" class="B C M P"/><g class="J"><rect x="71.933" y="17.931" width="67.112" height="11.58" rx="1"/><rect x="71.933" y="35.488" width="95.292" height="11.58" rx="1"/></g><rect y="75" width="297" height="65" rx="10" class="B C M P"/><g class="J"><rect x="71.933" y="92.931" width="67.112" height="11.58" rx="1"/><rect x="71.933" y="110.488" width="95.292" height="11.58" rx="1"/></g><rect y="151" width="297" height="65" rx="10" class="B C M P"/><g class="J"><rect x="71.933" y="168.931" width="67.112" height="11.58" rx="1"/><rect x="71.933" y="186.488" width="95.292" height="11.58" rx="1"/></g><rect y="227" width="297" height="65" rx="10" class="B C M P"/><g class="J"><rect x="71.933" y="244.931" width="67.112" height="11.58" rx="1"/><rect x="71.933" y="262.488" width="95.292" height="11.58" rx="1"/></g><rect y="303" width="297" height="65" rx="10" class="B C M P"/><g class="J"><rect x="71.933" y="320.931" width="67.112" height="11.58" rx="1"/><rect x="71.933" y="338.488" width="95.292" height="11.58" rx="1"/></g><rect y="378" width="297" height="65" rx="10" class="B C M P"/><g class="J"><rect x="71.933" y="395.931" width="67.112" height="11.58" rx="1"/><rect x="71.933" y="413.488" width="95.292" height="11.58" rx="1"/></g><g transform="translate(9 83)"><mask id="p" class="C"><use xlink:href="#L"/></mask><use xlink:href="#L" class="J"/><g mask="url(#p)"><g transform="matrix(-1 0 0 1 47.948478 0)"><g class="L"><path d="M23.88 5.865c-4.507-1.202-9.76-1.704-13.333 3.684-2.232 3.365-2.193 7.84-1.452 11.54.64-2.978 1.19-5.236 1.645-6.777 1.476-4.987 5.926-1.232 7.5-.62 1.027.4 7.205-.27 7.98.582.328.36 1.222 3.774 2.683 10.24-.035-.532.183-.79.654-.77h0l.164-.042a5.69 5.69 0 0 0-.164-.068c1.903-3.64 2.76-6.768 1.787-10-.452-.76-.86-1.607-1.172-2.6-.62-1.042-1.438-2.1-2.48-3.223-1.065-1.14-2.306-1.536-3.813-1.938z"/><path d="M.056 28.19c1.936-6.05 6.088-24.344 13.792-26.5C18.422.408 26.368-.18 31.354.1c2.76.154 4.926 1.946 7.416 2.836 4.796 1.714 3.665 5.4 4.553 10.558.55 3.195 4.96 9.877 2.55 12.046-3.668 3.3-2.86-.397-7.77.11-3.572.37-25.2 4.378-27.617-2.458L.056 28.19z" transform="matrix(-1 0 0 1 47.482634 33.473)"/></g><g transform="matrix(-.809017 -.587785 -.587785 .809017 38.761832 20.801178)"><path d="M22.53 5.045l.1.032c1.728.51 7.28.59 5.246 5.263l-.12.275-2.974 5.973-.852.654.35.42.232.634a2.08 2.08 0 0 0 .33.316c1.31 3.016-2.17 5.3-5.23 1.15-3 1.274-2.247.068-5.827 1-9.34 2.404 1.086 3.826-3.956 4.304-3.36.32-6.62-2.416-9.775-8.206l.287.1c1.68.578 2.672.793 2.972.647l.277-.136c1.94-.96 2.93-1.606 2.966-1.938.293-2.64-.006-3.855.086-5.185-5.1-1.6-3.422-6.216.657-5l.1.138c.373.287.375.624.007 1.01l1.527-1.157C13.24 2.076 15.6.422 16.044.363c1.142-.156 5.443 4.33 6.487 4.683z" class="F"/><g class="B D E H"><path d="M11.27 14c.8 2.718 2.75 3.327 5.4 3.605m3.6-5.885c2.4 2.93 2.736 2.5-.08-.52"/><use xlink:href="#X" class="F"/><path d="M12.615 7.068c3.18 2.048 3.374 1.532-.235-.47"/><use xlink:href="#Y"/><use xlink:href="#Z"/></g></g></g><g class="B D H K"><use xlink:href="#a"/><use xlink:href="#b"/></g></g></g><g transform="translate(9 159)"><mask id="q" class="C"><use xlink:href="#M"/></mask><use xlink:href="#M" class="Q"/><g mask="url(#q)"><g transform="matrix(-.984808 -.173648 -.173648 .984808 63.891668 .776521)"><path d="M27.466 42.546c-9.803-4-12.92-9.414-9.353-16.238C23.465 16.07 33.718-.315 44.903 9.194c7.456 6.34 6.36 17.184-3.285 32.532l-14.152.82z" transform="matrix(.798636 -.601815 .601815 .798636 -8.016038 24.920548)" class="L"/><g transform="matrix(-1 0 0 1 55.197559 5.921003)"><g transform="translate(.194 32.803)"><mask id="r" class="C"><use xlink:href="#N"/></mask><use xlink:href="#N" class="d"/><g class="B D H a"><path d="M2.896 19.41c-4.14 7.933-5.733 3.777-9.064-.497-1.188-1.525-2.65-2.815-3.973-4.223" class="R"/><path d="M2.724 13.867C-.51 25.705.286 19.898.004 31.24" class="K"/><g class="E"><path d="M37.244 11.35c5.087 14.576 3.54 7.966 5.523 19.605"/><path d="M6.268 14.454c5.1 14.576 3.54 7.966 5.526 19.604" transform="matrix(.913545 .406737 -.406737 .913545 10.646596 -1.576184)"/></g></g></g><g transform="matrix(-.809017 -.587785 -.587785 .809017 44.092455 19.047394)"><path d="M28.997 17.02l.052.143c.033.04-1.787-.973.102.114s-1.847 4.764-3.852 3.52l-1.416.677c-3.93 1.748-3.912.07-8.204 1.176-10.8 2.784.42 6.167-5.414 6.72-3.9.37-7.205-3.035-9.946-10.212l.734.3.865.345c2.53.995 3.95 1.418 4.257 1.268 1.64-.8 2.884-2.025 3.736-3.678l-.135-.455-.128-.442c-.894-3.12-1.263-5.224-1.108-6.3l.214-1.372c-.145-.065-.312-.096-.417-.202-1.25-1.263-1.22-4.97 1.89-5.293.05-.118-.477 4.83.06 4.757l.15-.023C12.38 7.728 24.76 5.034 28.783.206c1.032-1.238 2.032 8.936.214 16.814z" class="O"/><g class="E H D B"><path d="M14.594 18.523c2.925 1.478 4.99.298 7.308-1.716" transform="matrix(.681998 .731354 -.731354 .681998 18.964042 -7.622558)"/><path d="M26.91 13.587c4.36-.397 4.17-1.007-.55-.26" transform="matrix(.559193 .829038 -.829038 .559193 23.441859 -17.526682)"/><path d="M21.962 15.574c-.266 3.047-2.407.38-1.482-.595" class="O"/><path d="M18.543 7.506c4.36-.397 4.17-1.007-.55-.26" transform="matrix(.788011 .615661 -.615661 .788011 8.637739 -10.686022)"/><path d="M25.307 14.38c1.004 1.213.87 1.313.503-.1m-6.66-4.204c.795.72.7.78.398-.06"/></g></g></g></g></g></g><g transform="matrix(-1 0 0 1 60 234)"><mask id="s" class="C"><use xlink:href="#O"/></mask><use xlink:href="#O" class="F"/><g mask="url(#s)"><g transform="translate(0 5.212)"><path d="M0 52.438c1.23-3.847.098-6.43 3.698-10.58 2.064-2.38 5.385-6.287 8.2-7.073 7.098-2 12.152-5.85 19.134-3.35 4.8 1.715 3.58 8.987 4.467 14.146.55 3.197 10.6-8.87 8.2-6.7-1.033.93 3.96.28 2.978 4.84-2.5 11.616-10.997 34.256-14.518 34.62C28.572 78.7 3.133 60.982.72 54.143L0 52.438z" transform="matrix(-1 0 0 1 46.786128 0)" class="U"/><path d="M30.798 26.325c-1.413 3.18-1.413 5.302 0 6.363s2.826 1.767 4.24 2.12c-3.386 7.46-7.55 10.307-12.497 8.54s-7.055-4.62-6.328-8.562c2.23-.685 3.596-1.43 4.095-2.234.642-1.037.705-8.587 1.49-9.68 1.697-2.363 3.638-3.687 5.823-3.97l3.18 7.423z" transform="matrix(-1 0 0 1 51.110322 0)" class="e"/><path d="M32.767 3.572c1.335.625 3.865 2.048 4.61 2.673.683.57.726 2.584-1.095 3.297l.008.01-.015.006c-.83.256-1.78 2.516-2.535 3.573l-.102.136c-.77.984-3.79 1.602-4.8 3.265-.618 1.02-2.917.607-3.866 1.33-.797.606.305.657.001 1.61-.348 1.092-.235.874-1.632 3.03-1.243 1.918-3.59 2.21-6.99 2.847l-.02-.106c-.285-1.622-3.314-3.946-3.088-5.476.072-.486 1.675-.752 1.742-1.224.175-1.227-.84-2.273-.6-3.493.207-1.055 1.417-2.202 1.61-3.224.273-1.454 1.245-2.276 1.858-3.3.585-.987.9-2.706 1.504-3.425 1.61-1.92 4.67-1.203 4.7-1.213.576-.18 2.724-.02 4-.266 1.528-.293 3.98-.376 4.71-.036z" transform="matrix(-.956305 -.292372 -.292372 .956305 54.124904 8.089021)" class="J"/><g transform="matrix(-.951057 -.309017 -.309017 .951057 37.060735 11.962034)"><g transform="translate(.094 .156)" class="e"><use xlink:href="#P"/></g><g class="B D E"><path d="M17.835 14.838c.658.05 1.753.728 4.24.473" stroke-width=".793"/><g class="H"><path d="M17.988 7.655c3.76-.344 3.598-.87-.474-.225m2.248 2.395c.686.622.595.673.343-.05"/></g></g><path d="M13.935 7.895c-5.174-3.01-7.917 2.767-1.797 4.447" class="e"/></g></g></g></g><g transform="translate(9 309)"><mask id="t" class="C"><use xlink:href="#Q"/></mask><use xlink:href="#Q" class="C"/><g mask="url(#t)"><g transform="translate(4.584 4.212)"><g transform="translate(2.657 33.728)"><mask id="u" class="C"><use xlink:href="#R"/></mask><use transform="matrix(-1 0 0 1 46.643634 0)" xlink:href="#R" class="T"/><g class="B D H b"><use xlink:href="#c" class="R"/><use xlink:href="#d" class="K"/><g class="E"><use xlink:href="#a" x="-6.496" y="-33.473"/><use xlink:href="#a" x="-33.257" y="-30.792" transform="matrix(.913545 .406737 -.406737 .913545 8.871555 -1.431142)"/></g></g></g><g transform="matrix(-.809017 -.587785 -.587785 .809017 42.111504 18.948111)"><g class="F"><path d="M5.664 18.938c.587 2.755 2.684 4.7 6.3 5.838-1.958 1.506 1.67 2.522-2.123 2.882-3.36.32-6.62-2.416-9.775-8.206l.287.1c1.68.578 2.672.793 2.972.647l.34-.167c.772-.383 1.4-.716 1.855-.998l.155-.096zm16.87 1.1a6.77 6.77 0 0 1-.942.982l.378-.402 3.298-3.676c2.405 1.43-.25 3.77-2.733 3.096z"/><path d="M17.834.373c1.142-.156 5.443 4.33 6.487 4.683l.094.03c1.606.48 6.568.574 5.56 4.395-1.352 2.753-3.003 5.016-4.446 6.824-2.97 2.757-4.987 3.547-6.05 2.37l-.046-.053c-1.314-1.57-2.848-2.836-4.6-3.802-2.847-1.148-4.4-3.036-4.628-5.663l-.058-.658-.18-2.592 1.617-1.22 6.25-4.314zm-8.994 5.1l-.104.33-.975 3.406-.262.98-.042-.02C3.596 8.363 5.184 4.542 8.84 5.472z"/></g><g class="E H D B"><path d="M12.682 18.657c2.527 1.276 4.31.257 6.312-1.484" transform="matrix(.681998 .731354 -.731354 .681998 18.347804 -5.795379)"/><use xlink:href="#e" transform="matrix(.559193 .829038 -.829038 .559193 22.409437 -13.995247)"/><path d="M20.525 12.053c.652 2.812-1.603 8.707-3.665 3.275" class="F"/><use xlink:href="#e" x="-7.228" y="-5.25" transform="matrix(.788011 .615661 -.615661 .788011 9.065486 -8.680214)"/><use xlink:href="#Y" x="4.187" y="0.77"/><use xlink:href="#Z" x="3.347" y="0.896"/></g></g></g></g></g><g transform="translate(9 385)"><mask id="v" class="C"><use xlink:href="#S"/></mask><use xlink:href="#S" class="S"/><g mask="url(#v)"><g transform="matrix(-1 0 0 1 48.277425 8.19)"><path d="M47.756 57.195c-1.936-6.05-6.088-24.344-13.792-26.5-4.574-1.28-12.52-1.87-17.506-1.6-2.76.154-4.926 1.946-7.416 2.836-4.796 1.714-3.665 5.4-4.553 10.558-.55 3.195-4.96 9.877-2.55 12.046 3.668 3.3 2.86-.397 7.77.11 3.572.37 25.2 4.378 27.617-2.458l10.43 4.997z" class="U"/><path d="M28.787 18.918c3.63-2.44 4.193-5.333 3.32-8.16-.305-.987-1.1-2.737-1.697-3.685-1.74-2.815-4.543-3.15-6.328-4.84-.183-.173-2.757-1.238-2.978-1.117-.77.42-2.278-.683-4.372-.598-.196.008.548.454.353.47-2.092.174-3.67.063-5.26-.117-.603-.068-1.447-.314-1.814.17-.278.367 1.203.748.874 1.07-.7.686-2.16.108-2.82.835-.342.38 1.11.56 1.096 1.07l-.822.653c-.013.446.93.68.77 1.096-.2.55-1.305.342-1.527.887-.18.445.787.834.64 1.292l-.94 1.148c-.312.97-.597 2.027-.404 3.027.213 1.1 4.87 7.92 5.298 8.612 4.007 6.51 10.152 3.188 15.24-.913" class="L"/><g transform="matrix(-.809017 -.587785 -.587785 .809017 38.215536 17.53832)"><path d="M22.53 3.556l.1.032c.545.16 1.153.752 2.1.985 1.103.27 1.725 1.046 2.41 1.75.59.61 1.38 1.044.735 2.528l-.12.275-2.974 5.973-.852.654.35.42.232.634a2.08 2.08 0 0 0 .33.316c1.31 3.016-2.17 5.3-5.23 1.15-3 1.274-2.247.068-5.827 1-9.34 2.404 1.086 3.826-3.956 4.304-3.36.32-6.62-2.416-9.775-8.206l.287.1c1.68.578 2.672.793 2.972.647l.277-.136c1.94-.96 2.93-1.606 2.966-1.938.293-2.64-.006-3.855.086-5.185-5.1-1.6-3.422-6.216.657-5l.1.138c.373.287.375.624.007 1.01l1.527-1.157c1.367-1.03 2.568-1.31 3.4-1.83C14.12.89 14.69.294 14.987.254c.355-.05 1.113.61 2.026 1.012.957.42 2.29.13 3.285.546 1.11.464 1.853 1.616 2.233 1.745z" class="F"/><g class="B D E H"><path d="M10.654 13.37c.8 2.718 2.75 3.327 5.4 3.605m4.206-6.745c2.4 2.93 2.736 2.5-.08-.52"/></g><path d="M11.38 12.818c.72.32 1.184 1.315 1.89 1.833 1.61 1.182 3.188 2.183 2.77 3.414-.234.69-2.936.106-3.363-2.24-1.82.39-3.484-2.448-3.828-3.036" class="L"/><g class="B D E H"><use xlink:href="#X" y="-1.489" class="F"/><path d="M12.615 5.58c3.18 2.048 3.374 1.532-.235-.47"/><use xlink:href="#Y" y="-1.489"/><use xlink:href="#Z" y="-1.489"/></g></g></g><g class="B D H K"><use xlink:href="#a" y="3.723"/><use xlink:href="#b" y="3.723"/></g></g></g><g transform="translate(9 7)"><mask id="w" class="C"><use xlink:href="#T"/></mask><use xlink:href="#T" class="d"/><g mask="url(#w)"><g transform="matrix(-1 0 0 1 50.510949 -.671053)"><g transform="translate(3.401 37.494)"><mask id="x" class="C"><use xlink:href="#U" href="#R"/></mask><use transform="matrix(-1 0 0 1 46.643634 0)" xlink:href="#U" class="T" href="#R"/><g class="B D H c"><use xlink:href="#c" class="R"/><g class="K"><use xlink:href="#d"/><use xlink:href="#a" x="-6.496" y="-33.473"/><use xlink:href="#a" x="-33.257" y="-30.792" transform="matrix(.913545 .406737 -.406737 .913545 8.871555 -1.431142)"/></g></g></g><g transform="matrix(-.809017 -.587785 -.587785 .809017 45.481756 19.100052)"><mask id="y" class="C"><use xlink:href="#U"/></mask><use xlink:href="#U" class="F"/><path d="M12.682 23.124c2.527 1.276 4.31.257 6.312-1.484" transform="matrix(.681998 .731354 -.731354 .681998 21.614873 -4.374818)" class="B D E H N"/><path d="M26.282-3.16c10.57.123 13.827 11.63 9.848 19.804-1.54 3.165-4.775 7.757-9.02 6.682-.317-.08-.598-.306-.81-.556h0l-.26-.708c1.698-3.18 2.907-5.594 3.625-7.245 2.075-4.77-3.748-4.753-5.346-5.295-1.044-.354-5.345-4.84-6.487-4.683-.46.063-3.08 1.907-7.866 5.533.034.804.113 1.887.237 3.25.238 2.627 1.78 4.515 4.628 5.663 1.752.966 3.285 2.234 4.6 3.802s4.17-.038 8.564-4.82c-3.73 4.324-6.147 7.017-7.25 8.077-3.126 3.008-4.81 4.104-8.593 2.96-5.785-1.75-7.803-5.516-6.054-11.3h0L7.458 14.8c.603-2.292 1.1-4.026 1.49-5.2L5.713 5.114C8.88.842 13.033 2.8 17.7-.753c1.982-1.505 6.43-2.43 8.582-2.406z" fill-opacity=".158" class="L N"/><g class="E H D B N"><use xlink:href="#e" y="4.468" transform="matrix(.559193 .829038 -.829038 .559193 26.112874 -12.026094)"/><path d="M20.525 16.52c.652 2.812-1.603 8.707-3.665 3.275" class="F"/><use xlink:href="#e" x="-7.228" y="-0.784" transform="matrix(.788011 .615661 -.615661 .788011 11.81574 -7.733226)"/><use xlink:href="#Y" x="4.187" y="5.238"/><use xlink:href="#Z" x="3.347" y="5.363"/></g></g></g></g></g></g></g></g></g></g></svg>