<?xml version="1.0" encoding="UTF-8"?>
<svg width="194px" height="240px" viewBox="0 0 194 240" version="1.1" xmlns="http://www.w3.org/2000/svg" xmlns:xlink="http://www.w3.org/1999/xlink">
    <!-- Generator: Sketch 61.1 (89650) - https://sketch.com -->
    <title>paygage-symbol</title>
    <desc>Created with Sketch.</desc>
    <g id="Website" stroke="none" stroke-width="1" fill="none" fill-rule="evenodd">
        <g id="paygage-symbol">
            <path d="M15.5055762,69 L178.494424,69 C187.057917,69 194,76.0786654 194,84.8106416 L194,191.370266 C194,200.102242 187.057917,207.180908 178.494424,207.180908 L162.476736,207.180908 L162.487557,236.105559 C162.488361,238.255578 160.781882,240 158.676029,240 C157.859432,240 157.064305,239.732969 156.407692,239.237307 L113.942019,207.180908 L15.5055762,207.180908 C6.94208293,207.180908 0,200.102242 0,191.370266 L0,84.8106416 C0,76.0786654 6.94208293,69 15.5055762,69 Z" id="Rectangle" fill="#044917"></path>
            <path d="M13.1078067,64.982549 L150.892193,37.2237258 C158.131435,35.7652671 164,41.5905562 164,50.2348731 L164,155.724758 C164,164.369075 158.131435,172.558992 150.892193,174.017451 L13.1078067,201.776274 C5.86856495,203.234733 0,197.409444 0,188.765127 L0,83.2752424 C0,74.6309255 5.86856495,66.4410077 13.1078067,64.982549 Z" id="Rectangle" fill="#038225"></path>
            <path d="M11.0297398,58.2080619 L126.97026,0.931792663 C133.061817,-2.07752334 138,2.4427225 138,11.0280443 L138,115.797989 C138,124.383311 133.061817,133.782622 126.97026,136.791938 L11.0297398,194.068207 C4.9381827,197.077523 0,192.557277 0,183.971956 L0,79.2020108 C0,70.616689 4.9381827,61.2173779 11.0297398,58.2080619 Z" id="Rectangle" fill="#00B832"></path>
        </g>
    </g>
</svg>