<svg xmlns="http://www.w3.org/2000/svg" xmlns:xlink="http://www.w3.org/1999/xlink" width="756" height="936"><style><![CDATA[.B{stroke-linejoin:round}.C{stroke-width:2.496}.D{fill:#fff}.E{stroke-linecap:round}.F{mask:url(#K)}.G{fill:#044917}.H{stroke:#212121}.I{fill:#fd5200}.J{mask:url(#P)}.K{mask:url(#Q)}.L{fill:#ffb998}.M{stroke-opacity:.588}.N{fill:#f5b700}.O{stroke-width:22.322}]]></style><defs><path d="M0 308.5c0-33.44 19.232-70.052 42.955-81.774L494.485 3.63C518.21-8.092 537.44 9.515 537.44 42.955V154.45l50.998-10.268c28.23-5.685 51.117 17.02 51.117 50.712l-.001 73.812 56.022.001c33.37 0 60.424 27.586 60.424 61.615V745.6c0 34.03-27.053 61.615-60.424 61.615h-62.42l.042 112.72c.003 8.38-6.647 15.177-14.853 15.177-3.182 0-6.28-1.04-8.84-2.972L444.02 807.205H60.424C27.053 807.205 0 779.62 0 745.6V308.5z" id="A"/><rect id="B" width="235.661" height="235.661" rx="15.082"/><rect id="C" width="235.661" height="358.204" rx="15.082"/><rect id="D" width="521" height="235.661" rx="15.082"/><rect id="E" x=".572" y=".29" width="235.661" height="382" rx="15.082"/><path d="M.27 135.655c9.315-29.12 29.297-117.15 66.374-127.528C88.656 1.965 126.895-.867 150.886.475c13.277.743 23.707 9.363 35.69 13.646 23.078 8.248 17.636 25.992 21.91 50.8 2.648 15.378 23.873 47.53 12.268 57.97-17.65 15.88-13.767-1.9-37.393.535-7.337.76 15.64 109.992-9.418 111.712C140.305 237.457 57.12 130.46 50.46 111.608L.27 135.655z" id="F"/><rect id="G" width="235.661" height="482" rx="15.082"/><path d="M122.704.43c14.15.755 26.715 3.84 39.775 7.563 1.856 2.007 3.765 4.153 5.748 6.446h0l3.307 3.823c7.23 8.31 11.336 12.536 16.768 16.91h0l.97.79c5.045 4.175 9.208 8.54 12.533 13.114l9.565 22.685c.474 2.94.706 5.955.704 9.045-.015 23.5-11.068 46.597-38.487 88.19h0l-8.183 12.354c-18.524 28.02-23.717 36.643-29.116 49.194h0l-1.058 2.5c-1.564 3.753 1.354 5.598 4.764 5.375 1.723-.113 4.066-.67 6.908-1.578 4.92-1.574 11.027-4.144 14.224-5.955 12.326-6.982 23.552-14.117 33.558-21.38-2.463 26.526-5.453 50.137-8.924 51.635-26.227 11.32-112.22 77.87-145.116 40.82-10.03-11.296 6.178-68.4 12.776-96.136l10.66-3.96c16.607-6.275 26.215-10.782 34.2-16.705 11.07-8.212 18.506-17.067 27.718-31.347h0l.752-1.17 3.47-5.463c12.3-19.52 18.17-31.515 20.28-44.413h0l.254-1.587c3.203-20.528 2.698-36.945-2.853-51.617h0l-.406-1.036.292.566c3.668 7.34 6.834 15.313 9.7 24.15h0l1.938 5.957c1.917 5.932 2.915 9.264 3.903 13.157h0l.33 1.334.31 1.315.257 1.164-.063.615c-1.86 16.85-8.08 34.454-18.3 53.924-5.27 10.04-11.44 20.416-19.973 33.805h0l-3.05 4.76c.105-.163-19.074 29.237-26 40.133h0l-2.7 4.28c-2.305 3.7-2.74 4.47-2.254 5.887h0l.163.425c.87 2.088 2.745 2.212 4.164 1.55.4-.182.715-.41 1.08-.715.468-.392 1.046-.96 1.764-1.725h0l.328-.352c2.592-2.805 6.947-8.032 12.2-14.612h0l2.496-3.15c11.112-14.088 22.293-29.218 27.146-36.983h0l.912-1.462c17.77-28.53 25.3-43.47 28.7-60.837h0l.22-1.198c1.31-7.592.987-15.307-.747-23.988h0l-.136-.653.08-.82c1.98-22.4-3.4-43.726-16.966-66.125-3.03-5.003-8.8-10.536-20.05-19.855h0zm78.32 135.1c-1.247 8.12-3.143 37.7-5.633 66.123-10.822 8.186-23.275 16.24-37.17 24.1-2.817 1.596-8.56 4.012-13.114 5.47h0l-.648.203c-.847.26-1.628.48-2.326.652h0l-.102.024.277-.63c4.51-10.236 9.332-18.448 22.9-39.123h0l13.338-20.178c8.98-13.62 16.247-25.314 21.98-35.74zm38.463-7.1c19.707 23.07 12.233 8.723 20.02 33.074-22.418 44.255-36.32 65.092-41.706 62.5-3.734-1.8-6.96-10.11-9.68-24.957l4.482-3.86c8.275-7.34 13.876-15.9 17.812-26.114 5.447-14.12 8.546-27.687 9.067-40.598zm-131.81-117.08l1.132 1.122c1.872 1.842 3.94 3.804 6.225 5.922h0l6.712 6.175c11.274 10.48 16.032 15.98 19.3 23.088 6.873 14.905 7.667 31.896 3.997 54.24-1.865 11.352-7.086 22.34-17.965 39.772h0l-2.36 3.745-4.288 6.683c-8.46 12.9-15.368 20.96-25.427 28.407-7.844 5.806-17.734 10.317-35.578 16.956h0l-4.497 1.668c1.092-5.203 1.457-8.356.6-8.444-8.838-.915-3.776-.484-7.878 1.39-1.22.557-2.688.293-4.35-.606 4.804-4.148 9.92-8.26 15.52-12.522 5.207-3.963 20.45-15.004 25.563-18.714h0l2.883-2.117c29.555-22.056 42.204-38.662 45.173-66.167.854-7.915-7.428-42.447-17.187-65.23h0l-.442-1.024c-2.218-5.093-4.522-9.746-6.907-13.922h0l-.246-.42zm57.6 109.143l-.35 1.734c-3.263 15.248-10.28 29.296-25.874 54.56h0l-2.63 4.236c-2.122 3.402-5.534 8.316-9.65 13.965h0l-2.97 4.04 6.243-9.643c8.944-14.005 15.383-24.784 20.873-35.2l.357-.68.728-1.4c5.533-10.712 9.894-20.928 13.023-30.806h0l.25-.806zm52.456-33.4c6.936 16.72 12.815 30.543 15.385 33.684l.566.69-.013 4.18c-.153 12.98-3.147 26.793-8.745 41.305-3.615 9.372-8.7 17.154-16.224 23.827l-1.705 1.494c-2.245-14.575-4.103-34.118-5.575-58.626l.063 1.04c9.942-18.388 15-32.843 16.21-47.14zm-163.7 87.89l-.99.758c-5.22 4.033-10.036 7.96-14.6 11.932-1.2-1.15-2.454-2.478-3.75-3.94l2.835-1.08c5.8-2.274 11.225-4.776 16.093-7.45h0l.4-.22zm8.723-153.61c2.08 1.94 4.722 4.2 8.226 7.077h0l5.048 4.14 2.816 2.366C85.94 41.055 89.74 45.5 90.966 49.624c13.48 45.422 8.794 73.886-23.912 108.547-6.752 7.155-18.656 14.067-33.075 19.553h0l-3.305 1.25c-1.83-2.26-3.714-4.68-5.616-7.16 2.306-1.273 4.027-2.417 5.512-3.663h0l.684-.596c13.18-11.925 22.795-22.817 28.968-33.517C67.232 121.89 71.355 108.89 72.98 95.04c3.822-32.557-.172-47.323-21.953-67.31 3.388-1.74 7.223-3.844 11.294-6.105zM45.3 30.5c21.28 18.947 25.336 31.602 22.098 61.474h0l-.27 2.392c-1.535 13.08-5.415 25.31-12.01 36.74-5.814 10.076-15.053 20.544-27.818 32.093-1.393 1.26-3.175 2.445-5.86 3.882l-6.604-8.54a88.6 88.6 0 0 0 3.051-4.474c12.905-20.362 20.65-37.615 23.174-53.998 1.297-8.414.215-16.648-2.926-27.432h0l-.137-.468-.702-2.33-3.592-11.313-.743-2.473c-1.532-5.228-3.85-10.15-6.965-14.668 3.065-3.696 8.1-6.762 16.617-9.808.694-.248 1.445-.547 2.25-.89zM95.485 4.37c4.835 5.986 9.485 14.267 13.933 24.634h0l.41.962c9.246 21.966 17.092 54.782 16.375 61.388-2.733 25.182-14.207 40.522-41.797 61.254h0l-2.44 1.817-10.992 7.967.996-1.058c32.88-35.17 38.202-65.2 25.29-110.465h0l-.822-2.82C94.722 42.29 90.107 37.046 81.6 29.884l-1.207-1.01-4.334-3.544c-3.42-2.785-6.05-4.98-8.13-6.83C77.165 13.364 87.07 7.932 95.46 4.38zM22.757 47.238c1.957 3.287 3.47 6.786 4.547 10.463l1.357 4.44 1.727 5.39 2.087 6.745.355 1.24c2.645 9.413 3.5 16.553 2.405 23.65-2.378 15.427-9.82 32.005-22.328 51.742-.583.92-1.232 1.9-1.938 2.898-2.34-2.76-4.587-5.2-6.672-7.065l-.193-.178c.758-.783 1.7-1.673 2.863-2.713h0l2.672-2.36c3.92-3.492 5.603-5.37 6.8-7.977 7.433-16.188 6.983-30.957-.56-44.755 1.22-3.382 2.16-6.48 2.618-9.143 2.572-14.943 1.766-24.754 4.157-32.073zM12.95 96.276c4.406 10.81 3.914 22.195-1.865 34.78-.75 1.63-2.15 3.17-5.46 6.12h0l-2.104 1.854L1 141.34c-3.175-10.843 5.47-29.265 11.802-44.68zM131.94 15.88l2.38 2.054c7.34 6.41 11.46 10.67 13.553 14.176h0l.706 1.195c7.907 13.53 12.723 26.6 14.634 39.83h0l.127.94-1.45-4.492c-5.732-17.37-12.693-31.586-22.37-44.3-1.98-2.6-4.545-5.784-7.412-9.21h0l-.168-.193zM110.564.376c7.887 8.23 17.46 19.227 23.302 26.625h0l1.38 1.772 1.02 1.35 1.98 2.74.387.565-.403-.48c-3.2-3.76-7.384-7.93-13.153-13.33h0l-6.39-5.943c-5.408-5.08-9.462-9.177-12.527-12.847 1-.198 1.938-.324 2.806-.373l1.092-.057zm62.56 10.717l9.556 2.75c2.416.677 6.652 8.08 11.696 18.72a94.52 94.52 0 0 0-2.374-1.975h0l-.56-.456c-4.642-3.798-8.42-7.68-14.72-14.887h0z" id="H"/><rect id="I" width="235.661" height="235.661" rx="15.082"/><path id="J" d="M32.558 128.218c3.305 3 3.555-1.846 1.098-1.4l-1.098 1.4z"/></defs><g fill="none" fill-rule="evenodd"><mask id="K" class="D"><use xlink:href="#A"/></mask><g class="F"><path d="M597.872 465.808v-42.18c0-20.78 16.846-37.628 37.628-37.628s37.628 16.846 37.628 37.628v42.18" stroke="#038225" class="B E O"/><g class="G"><path d="M687.54 441.706c5.468 0 9.902 4.523 9.902 10.102v68.087c0 5.58-4.433 10.102-9.902 10.102h-10.23l.007 18.482c.001 1.374-1.09 2.488-2.434 2.488a2.4 2.4 0 0 1-1.449-.487l-27.118-20.483h-62.86c-5.468 0-9.902-4.523-9.902-10.102v-68.087c0-5.58 4.433-10.102 9.902-10.102h104.08zm-52.04 16.406c-7.044 0-12.755 5.717-12.755 12.77 0 4.217 2.042 7.956 5.19 10.28h0l-3.733 21.083a7 7 0 0 0 6.893 8.221h8.874a7 7 0 0 0 6.901-8.171h0l-3.6-21.277c3.038-2.334 4.997-6.006 4.997-10.137 0-7.052-5.71-12.77-12.755-12.77z"/></g><g transform="translate(-.896 96.243)"><mask id="L" class="D"><use xlink:href="#B"/></mask><use xlink:href="#B" class="N"/><g mask="url(#L)"><g transform="matrix(-1 0 0 1 209.393365 42.699684)"><g class="I"><path d="M117.26 112.088c-6.8 15.3-6.8 25.516 0 30.62s13.6 8.505 20.4 10.206c-16.293 35.902-36.34 49.6-60.14 41.095s-33.952-22.24-30.455-41.204c10.738-3.294 17.307-6.877 19.706-10.75 3.09-4.99 3.392-41.324 7.166-46.578 8.166-11.37 17.507-17.742 28.022-19.11l15.3 35.722z" transform="matrix(-.970296 .241922 .241922 .970296 148.321167 -18.211549)"/><path d="M204.36 195.787c-2.627-7.26-4.184-15.003-7.88-21.78-3.854-7.066-8.185-14.328-14.52-19.29-44.226-34.647-.007 51.372-29.666 53.518-31.526 2.28-88.03 18.733-101.85-23.44-1.533-4.678.475-10.758-2.7-14.52-1.847-2.19-6.353-.65-8.5 1.245-3.648 3.217-5.693 8.052-7.26 12.655-1.806 5.304-5.153 11.554-2.7 16.592 10.54 21.64 73.92 32.372 78.83 33.607 47.905 12.053 70.224 14.72 92.516-29.872"/></g><g transform="matrix(-.997564 -.069756 -.069756 .997564 147.061683 9.883388)"><path d="M42.21 145.786l-.08-.2 1.04 1.402c6.3 8.633 1.887 5.524-.96-1.203zM122.963 26.02l-.038-.056c4.64 6.244 6.598 12.243 6.598 15.966 0 7.267-1.654 15.184-1.965 18.82-1.843 21.534 7.467 16.798 5.305 22.034-.927 2.244-2.666 2.505-3.95 5.11-1.42 2.883-2.08 6.395-2.93 10.065-9.214.51-13.973-1.742-16.968-2.344l-.307-.057 11.924 15.266c-2.165 2.806-5.225 5.343-9.718 7.343-16.326 7.267-36.052-2.14-53.877 2.456-18.636 4.805-18.15 16.592-15.158 24.342l.25.618-1.22-1.6c-3.593-4.645-9.277-11.49-17.95-21.133l6.933-1.536c.16-3.97-2.03-14.543-2.89-19.294l6.944-1.284c12.664-2.37 21.61-4.552 26.707-12.414l3.725-5.752c1.302-2.035-4.668-12.787-4.163-13.847.607-1.273 1.843-8.42 2.537-10.598 1.46-4.582 21.38 6.38 24.355 1.477 4.86-8.004 19.4-10.976 23.094-15.71 3.616-4.622 8.278-16.003 12.388-17.74l.373-.135z" class="I"/><path d="M102.52 2.012C99.123.633 88.355 1.48 81.052 3.1h0l-1.683.393c-6.127 1.36-15.985 1.184-18.628 2.16-.144.053-15.02-2.615-22.28 7.013-2.72 3.608-3.805 11.95-6.367 16.84-2.686 5.127-7.153 9.32-8.098 16.377-.664 4.96-6.19 10.78-6.92 15.9-.844 5.928 4.298 10.698 3.766 16.638-.205 2.285 4.017 8.808 3.795 11.16-.18 1.892 4.085 4.768 2.95 9.185s-5.622 3.71-7.773 8.436 3.224 8.214 2.7 12.76-3.236 1.153-5.86 6.774c-1.306 2.796 1.984 6.16 1.162 9.06-.83 2.93-5.765 5.394-5.986 8.56-.44 6.3 4.216 5.167 2.95 9.185s-1.96 2.965-4.2 8.686c-.77 1.963-.044 3.71-.5 7.148-.872 6.584-6.148 12.158-8.398 17.37-3.426 7.936 13.016-1.123 16.834-9.598s4.8-9.638 6.36-13.922-3.118-3.9-1.162-9.06c1.026-2.706 6.42-.612 7.398-3.074.89-2.234-2.775-9.173.625-8.936 7.148.5 1.206-16.55 4.574-14.047s5.67-5.99 8.023-12c1.276-3.262-2.846-6.334-2.95-9.185-.087-2.41 3.688-4.657 5.86-6.774 4.744-4.62 13.61-2.803 14.76-4.795 5.03-8.727 5.636-9.626 6.444-12.548h0l.523-1.994c-12.204-9.803-1.42-26.302 18.887-17.016 5.24-7.224 18.064-10.8 21.3-15.406h0l.248-.363c3.403-5.127 7.477-16.657 11.488-18.126h0l.073-.03-.043-.053c8.57-3.883 7.858-13.546 4.43-16.12-3.543-2.66-14.936-8.354-21.72-11.22h0z" fill="#212121"/><g class="B E H"><path d="M108.853 60.92l8.083-.963c4.096-.646 7.703.87 6.703.634-.663-.156-4.503-2.27-7.398-2.01l-9.67 1.254" class="C"/><path d="M113.855 71.113c3.3 2.99 2.864 3.238 1.652-.246" stroke-width="6.079"/></g></g></g></g></g><g transform="translate(259.763 601.438)"><mask id="M" class="D"><use xlink:href="#C"/></mask><use xlink:href="#C" class="G"/><g mask="url(#M)" class="B O"><g transform="matrix(0 1 1 0 41.236967 60.562244)" stroke="#00b832"><path d="M39.5 0v108" class="E"/><rect y="110" width="78" height="44" rx="22"/><g class="E"><path transform="matrix(0 -1 1 0 45.5 63.5)" d="M54.5-6v30"/><path transform="matrix(0 -1 1 0 10.5 88.5)" d="M49.5 29v20"/></g></g></g></g><g transform="translate(259.763 96.243)"><mask id="N" class="D"><use xlink:href="#D"/></mask><use fill="#038225" xlink:href="#D"/><path d="M71.82 139.76l11.978-8.475-1.808-2.373c-.603-.83-1.394-1.695-2.373-2.6l-3.108-2.656-3.277-2.486-2.995-2.1h3.616l4.18-.056 4.068-.283c1.28-.15 2.41-.377 3.4-.678h0l2.712-.904-4.52-14.012-2.712.904c-.904.3-1.96.772-3.164 1.413a38.82 38.82 0 0 0-3.559 2.147l-3.447 2.373c-1.13.79-2.072 1.525-2.825 2.204l1.186-3.447 1.187-4.01.96-4.012c.264-1.318.395-2.467.395-3.446h0v-2.825h-14.7v2.825c0 .98.132 2.128.395 3.446l.96 4.012 1.186 4.01 1.187 3.447-2.882-2.204-3.4-2.373a38.82 38.82 0 0 0-3.559-2.147c-1.205-.64-2.26-1.11-3.164-1.413h0l-2.712-.904-4.52 14.012 2.712.904c.98.3 2.11.527 3.4.678l4.068.283 4.18.056h3.616l-2.995 2.1-3.277 2.486-3.108 2.656c-.98.904-1.77 1.77-2.373 2.6h0l-1.808 2.373 11.978 8.475 1.695-2.26c.603-.753 1.186-1.733 1.752-2.938l1.64-3.786 1.356-3.898 1.017-3.503 1.017 3.503 1.356 3.898 1.638 3.786c.565 1.205 1.15 2.185 1.752 2.938h0l1.695 2.26zm53.538 0l11.978-8.475-1.808-2.373c-.603-.83-1.394-1.695-2.373-2.6l-3.108-2.656-3.277-2.486-2.995-2.1h3.616l4.18-.056 4.068-.283c1.28-.15 2.41-.377 3.4-.678h0l2.712-.904-4.52-14.012-2.712.904c-.904.3-1.96.772-3.164 1.413a38.82 38.82 0 0 0-3.559 2.147l-3.447 2.373c-1.13.79-2.072 1.525-2.825 2.204l1.186-3.447 1.187-4.01.96-4.012c.264-1.318.395-2.467.395-3.446h0v-2.825h-14.7v2.825c0 .98.132 2.128.395 3.446l.96 4.012 1.187 4.01 1.186 3.447-2.882-2.204-3.4-2.373a38.82 38.82 0 0 0-3.559-2.147c-1.205-.64-2.26-1.11-3.164-1.413h0l-2.712-.904-4.52 14.012 2.712.904c.98.3 2.11.527 3.4.678l4.068.283 4.18.056h3.616l-2.994 2.1-3.277 2.486-3.108 2.656c-.98.904-1.77 1.77-2.373 2.6h0l-1.808 2.373 11.978 8.475 1.695-2.26c.603-.753 1.187-1.733 1.752-2.938l1.638-3.786 1.356-3.898 1.017-3.503 1.017 3.503 1.356 3.898 1.638 3.786c.565 1.205 1.15 2.185 1.752 2.938h0l1.695 2.26zm53.538 0l11.978-8.475-1.808-2.373c-.603-.83-1.394-1.695-2.373-2.6l-3.107-2.656-3.277-2.486-2.994-2.1h3.616l4.18-.056 4.068-.283c1.28-.15 2.41-.377 3.4-.678h0l2.712-.904-4.52-14.012-2.712.904c-.904.3-1.96.772-3.164 1.413a38.82 38.82 0 0 0-3.559 2.147l-3.447 2.373c-1.13.79-2.072 1.525-2.825 2.204l1.186-3.447 1.186-4.01.96-4.012c.264-1.318.395-2.467.395-3.446h0v-2.825h-14.7v2.825c0 .98.132 2.128.395 3.446l.96 4.012 1.187 4.01 1.186 3.447-2.882-2.204-3.4-2.373a38.82 38.82 0 0 0-3.56-2.147c-1.205-.64-2.26-1.11-3.164-1.413h0l-2.712-.904-4.52 14.012 2.712.904c.98.3 2.11.527 3.4.678l4.068.283 4.18.056h3.616l-2.994 2.1-3.277 2.486-3.107 2.656c-.98.904-1.77 1.77-2.373 2.6h0l-1.808 2.373 11.978 8.475 1.695-2.26c.603-.753 1.187-1.733 1.752-2.938l1.638-3.786 1.356-3.898 1.017-3.503 1.017 3.503 1.356 3.898 1.638 3.786c.565 1.205 1.15 2.185 1.75 2.938h0l1.695 2.26z" fill="#e3e7d3" fill-rule="nonzero" mask="url(#N)"/></g><rect x="515.943" y="-152.275" width="235.661" height="235.661" rx="15.082" class="G"/><g class="N"><rect x="258.378" y="-152.708" width="235.661" height="235.661" rx="15.082"/></g><g transform="translate(520 601)"><mask id="O" class="D"><use xlink:href="#E"/></mask><use xlink:href="#E" class="N"/><g mask="url(#O)"><g transform="translate(-23.102 3.35)"><g transform="translate(32.053 156.501)"><mask id="P" class="D"><use xlink:href="#F"/></mask><use transform="matrix(-1 0 0 1 224.466796 0)" xlink:href="#F" class="G"/><g class="B C E J"><path d="M12.042 76.846c-17.2 32.97-23.838 15.697-37.685-2.066-4.94-6.336-11.013-11.7-16.52-17.552" stroke="#0202c8"/><path d="M11.327 53.805c-13.45 49.2-10.14 25.066-11.31 72.2" stroke="#008bf8"/><g class="H"><path d="M154.85 43.346c21.152 60.58 14.716 33.106 22.963 81.48"/><path d="M26.066 56.245c21.152 60.58 14.716 33.106 22.963 81.48" transform="matrix(.913545 .406737 -.406737 .913545 42.693278 -6.887198)"/></g></g></g><g transform="matrix(-.809017 -.587785 -.587785 .809017 231.482184 93.553109)"><g class="I"><path d="M39.798 90.138c2.824 13.258 12.915 22.622 30.27 28.095-9.42 7.247 8.044 12.137-10.22 13.87-3.353.318-10.934-1.396-16.5-.466-4.525.757-7.727 4.54-6.058 2.242 1.036-1.426 3.436-2.592 3.16-4.348-1.4-8.953-19.73-22.385-27.65-36.92l1.38.48c8.1 2.78 12.856 3.818 14.3 3.114l1.638-.806c3.716-1.845 6.7-3.446 8.925-4.802l.745-.46zm81.187 5.292c-1.476 1.855-2.956 3.4-4.534 4.727l1.817-1.933c3.993-4.286 9.282-10.183 15.87-17.7 11.573 6.878-1.197 18.145-13.152 14.897zM98.362.794c5.495-.753 26.192 20.833 31.217 22.536l.453.144c7.728 2.305 31.608 2.76 26.758 21.15-6.505 13.247-14.453 24.14-21.394 32.842-14.295 13.268-24 17.07-29.112 11.4l-.223-.256c-6.326-7.55-13.705-13.65-22.137-18.3-13.7-5.525-21.125-14.6-22.272-27.254l-.28-3.17c-.437-5.094-.726-9.252-.865-12.473l7.78-5.868C86.4 7.982 96.415 1.06 98.362.794zM55.08 25.334l-.5 1.585c-1.343 4.3-2.908 9.775-4.693 16.393l-1.26 4.718-.202-.1c-18.58-8.7-10.94-27.078 6.654-22.604z"/></g><g class="H C E B"><path d="M73.57 88.783c12.16 6.14 20.738 1.234 30.378-7.14" transform="matrix(.681998 .731354 -.731354 .681998 91.553044 -37.378943)"/><path d="M124.42 68.01c18.12-1.653 17.333-4.188-2.284-1.083" transform="matrix(.559193 .829038 -.829038 .559193 112.54149 -78.187593)"/><path d="M111.314 57.004c3.138 13.532-7.716 41.9-17.637 15.76" class="I"/><path d="M89.637 42.74c18.12-1.653 17.333-4.188-2.284-1.083" transform="matrix(.788011 .615661 -.615661 .788011 45.669286 -49.70503)"/><path d="M117.757 71.308c4.175 5.04 3.62 5.456 2.1-.415M92.16 53.42c3.305 3 2.867 3.237 1.654-.246"/></g><g stroke="#038225" class="B C"><use xlink:href="#J"/><use xlink:href="#J" x="-8.655" y="11.912"/><path d="M17.53 151c3.305 3 3.555-1.846 1.098-1.4L17.53 151z"/><use xlink:href="#J" x="-23.451" y="34.378"/><use xlink:href="#J" x="-31.875" y="45.972"/></g></g></g></g></g><g transform="translate(-.896 349.438)"><mask id="Q" class="D"><use xlink:href="#G"/></mask><use fill="#00b832" xlink:href="#G"/><g class="K"><g transform="matrix(-.984808 -.173648 -.173648 .984808 330.177794 74.837039)"><path d="M127.946 204.745c-47.176-19.254-62.18-45.302-45.01-78.143C108.692 77.34 158.034-1.517 211.86 44.246c35.883 30.51 30.614 82.694-15.81 156.555l-68.104 3.944z" fill="#011638" transform="matrix(.798636 -.601815 .601815 .798636 -39.427846 117.381809)"/><g transform="matrix(-1 0 0 1 261.402161 34.306483)"><g transform="translate(.933 152.046)"><mask id="R" class="D"><use xlink:href="#H"/></mask><use fill="#beef9e" xlink:href="#H"/><g class="B C E"><path d="M13.94 93.412c-19.92 38.176-27.592 18.175-43.62-2.392-5.718-7.337-12.747-13.55-19.12-20.323" stroke="#0202c8" mask="url(#R)"/><path d="M179.234 54.622c24.482 70.145 17.034 38.333 26.58 94.344" stroke="#044917" mask="url(#R)"/></g></g><g transform="matrix(-.809017 -.587785 -.587785 .809017 211.380545 85.263098)"><path d="M138.545 81.91l.25.688c.157.186-8.602-4.68.49.548s-8.89 22.928-18.54 16.934l-6.816 3.257c-18.918 8.41-18.827.342-39.483 5.662-52.02 13.397 2.027 29.677-26.054 32.344C29.675 143.12 13.72 126.738.532 92.196l3.53 1.438 4.16 1.66c12.18 4.788 19.008 6.822 20.486 6.1 7.886-3.846 13.88-9.746 17.98-17.7l-.65-2.19-.616-2.128c-4.3-15.02-6.077-25.142-5.33-30.366l1.03-6.603c-.7-.313-1.503-.46-2.01-.972-6.016-6.08-5.872-23.923 9.1-25.47.238-.567-2.297 23.245.285 22.89l.722-.11c9.362-1.553 68.932-14.52 88.293-37.753 4.965-5.958 9.778 43.003 1.03 80.918z" class="L"/><g class="H C E B"><path d="M69.23 89.14c14.077 7.11 24.01 1.433 35.167-8.26" transform="matrix(.681998 .731354 -.731354 .681998 90.944136 -35.951279)"/><path d="M128.498 65.386c20.98-1.9 20.067-4.844-2.644-1.254" transform="matrix(.559193 .829038 -.829038 .559193 112.37028 -83.515983)"/><path d="M104.688 74.95c-1.278 14.665-11.586 1.836-7.13-2.865" class="L"/><path d="M88.237 36.124c20.977-1.91 20.065-4.845-2.644-1.254" transform="matrix(.788011 .615661 -.615661 .788011 41.356076 -50.809518)"/><path d="M120.786 69.205c4.832 5.836 4.2 6.318 2.42-.48M91.157 48.5c3.825 3.462 3.318 3.748 1.915-.285"/></g></g></g></g></g><g stroke="#044917" class="C E B K"><path d="M70.828 318.52c24.493 70.144 17.04 38.333 26.594 94.342" transform="matrix(.75471 .656059 -.656059 .75471 260.550869 34.510107)"/><path d="M89.792 321.82c0 17.036.585 34.116-7.197 49.886m-4.47-26.83c.44 22.37 4.165 49.9-16.9 65.187m-15.93-101.45c20.547-2.63 17.004-4.517 23.826 16.56"/></g><g class="K"><path d="M11.715 270.21c-4.082 5.63-5.154 7.13-3.566 11.896 1.044 3.134 1.327 7.932 3.583 10.75 1.764 2.202 4.808 6.617 7.166 8.957 4.1 4.08 7.673 6.057 9.77 9.175 3.648 5.427 1.765 14.697 7.275 18.22 5.303 3.39 15.893 4.037 18.82-1.535 3.26-6.206-7.5-12.55-7.74-19.554-.907-25.278 7.706-26.01 1.4-30.7s-20.5 10.202-34.972-4.937l-1.734-2.27z" class="L"/><g class="B"><path d="M33.262 249.526l-29.51-8.44L27.53 305.5l29.968 3.662-24.235-59.637z" stroke="#bdc2bf" stroke-width="4.16" fill="#bdc2bf"/><g class="C E H L M"><path d="M22.48 291.062c7.44 0 8.818.616 15.725 2.927.99.33-.055 4.952-1.05 5.205l-2.393 2.403c-3.908.99-7.878.8-11.817 1.202"/><path d="M20.688 285.687c7.74 7.85 12.453.616 21.004 2.927 1.225.33-.068 4.952-1.3 5.205l-2.962 2.403c-4.84.99-11.3.8-16.167 1.202"/><path d="M20.688 282.104c11.51 7.85 13.144-1.176 25.86 1.136 1.82.33-.102 4.952-1.935 5.205l-4.405 2.403c-7.195.99-16.296.8-23.548 1.202"/><path d="M12.582 275.614c11.51 7.85 18.518-1.176 31.234 1.136 1.82.33-.102 4.952-1.935 5.205l-4.405 2.403c-7.195.99-14.504.8-21.757 1.202"/></g></g></g></g><g transform="translate(259.763 348.841)"><mask id="S" class="D"><use xlink:href="#I"/></mask><use xlink:href="#I" class="D"/><g mask="url(#S)"><path d="M54.673 162.09c0 5.517 3.795 9.252 8.506 8.414l.143-.027 90.918-17.894c4.73-.93 8.572-6.114 8.648-11.625l.001-.167V83.676h8.187c5.177 0 9.373 4.213 9.373 9.4v69.435c0 5.197-4.197 9.4-9.373 9.4h-11.064l.022 25.158c0 .34-.273.614-.61.614a.61.61 0 0 1-.393-.143l-30.484-25.63h-64.5c-5.177 0-9.373-4.213-9.373-9.4v-.433zm0-68.965a9.39 9.39 0 0 1 1.955-5.743c-1.197 1.942-1.925 4.243-1.955 6.602v-.86z" class="G"/><path d="M54.673 160.87c0 5.522 3.187 8.455 7.142 6.616l.12-.057 76.34-37.2c3.97-1.935 7.197-7.94 7.26-13.47l.001-.167V66.422l8.932-1.754c4.788-.94 8.67 2.815 8.67 8.39v68.012c0 5.573-3.88 10.853-8.67 11.794L63.342 170.76c-4.788.94-8.67-2.815-8.67-8.39v-1.5z" fill="#038225"/><path d="M61.934 79.183l76.324-37.196c4-1.954 7.26.98 7.26 6.557v68.04c0 5.575-3.25 11.68-7.26 13.634l-76.324 37.196c-4 1.954-7.26-.98-7.26-6.557v-68.04c0-5.575 3.25-11.68 7.26-13.634z" fill="#00b832"/></g></g></g></g></svg>