<?xml version="1.0" encoding="UTF-8"?>
<svg width="756px" height="756px" viewBox="0 0 756 756" version="1.1" xmlns="http://www.w3.org/2000/svg" xmlns:xlink="http://www.w3.org/1999/xlink">
    <!-- Generator: Sketch 61.1 (89650) - https://sketch.com -->
    <title>paygage-bg2</title>
    <desc>Created with Sketch.</desc>
    <g id="Website" stroke="none" stroke-width="1" fill="none" fill-rule="evenodd">
        <g id="paygage-bg2">
            <path d="M189,504 C223.793939,504 252,532.206061 252,567 C252,601.793939 223.793939,630 189,630 C154.206061,630 126,601.793939 126,567 C126,532.206061 154.206061,504 189,504 Z M188.324932,525.28 C165.237603,525.28 146.521624,543.994497 146.521624,567.08 C146.521624,590.165503 165.237603,608.88 188.324932,608.88 C211.412262,608.88 230.128241,590.165503 230.128241,567.08 C230.128241,543.994497 211.412262,525.28 188.324932,525.28 Z" id="Combined-Shape" fill="#F5B700"></path>
            <path d="M63,126 C97.7939392,126 126,154.206061 126,189 C126,223.793939 97.7939392,252 63,252 C28.2060608,252 1.22923893e-12,223.793939 1.22923893e-12,189 C1.22923893e-12,154.206061 28.2060608,126 63,126 Z M62.3249323,147.28 C39.2376027,147.28 20.5216241,165.994497 20.5216241,189.08 C20.5216241,212.165503 39.2376027,230.88 62.3249323,230.88 C85.412262,230.88 104.128241,212.165503 104.128241,189.08 C104.128241,165.994497 85.412262,147.28 62.3249323,147.28 Z" id="Combined-Shape" fill="#F5B700"></path>
            <path d="M441,630 C475.793939,630 504,658.206061 504,693 C504,727.793939 475.793939,756 441,756 C406.206061,756 378,727.793939 378,693 C378,658.206061 406.206061,630 441,630 Z M440.324932,651.28 C417.237603,651.28 398.521624,669.994497 398.521624,693.08 C398.521624,716.165503 417.237603,734.88 440.324932,734.88 C463.412262,734.88 482.128241,716.165503 482.128241,693.08 C482.128241,669.994497 463.412262,651.28 440.324932,651.28 Z" id="Combined-Shape" fill="#F5B700"></path>
            <path d="M315,1.42108547e-13 C349.793939,1.42108547e-13 378,28.2060608 378,63 C378,97.7939392 349.793939,126 315,126 C280.206061,126 252,97.7939392 252,63 C252,28.2060608 280.206061,1.42108547e-13 315,1.42108547e-13 Z M314.324932,21.28 C291.237603,21.28 272.521624,39.9944975 272.521624,63.08 C272.521624,86.1655025 291.237603,104.88 314.324932,104.88 C337.412262,104.88 356.128241,86.1655025 356.128241,63.08 C356.128241,39.9944975 337.412262,21.28 314.324932,21.28 Z" id="Combined-Shape" fill="#F5B700"></path>
            <path d="M693,378 C727.793939,378 756,406.206061 756,441 C756,475.793939 727.793939,504 693,504 C658.206061,504 630,475.793939 630,441 C630,406.206061 658.206061,378 693,378 Z M692.324932,399.28 C669.237603,399.28 650.521624,417.994497 650.521624,441.08 C650.521624,464.165503 669.237603,482.88 692.324932,482.88 C715.412262,482.88 734.128241,464.165503 734.128241,441.08 C734.128241,417.994497 715.412262,399.28 692.324932,399.28 Z" id="Combined-Shape" fill="#F5B700"></path>
            <path d="M136.070632,126 L241.929368,126 C247.491224,126 252,130.553527 252,136.170588 L252,204.717715 C252,210.334776 247.491224,214.888303 241.929368,214.888303 L231.526127,214.888303 L231.533155,233.494804 C231.533678,234.877857 230.425346,236 229.057627,236 C228.52726,236 228.010837,235.828226 227.584378,235.509379 L200.003579,214.888303 L136.070632,214.888303 C130.508776,214.888303 126,210.334776 126,204.717715 L126,136.170588 C126,130.553527 130.508776,126 136.070632,126 Z" id="Rectangle" fill="#044917"></path>
            <path d="M514.070632,504 L619.929368,504 C625.491224,504 630,508.553527 630,514.170588 L630,582.717715 C630,588.334776 625.491224,592.888303 619.929368,592.888303 L609.526127,592.888303 L609.533155,611.494804 C609.533678,612.877857 608.425346,614 607.057627,614 C606.52726,614 606.010837,613.828226 605.584378,613.509379 L578.003579,592.888303 L514.070632,592.888303 C508.508776,592.888303 504,588.334776 504,582.717715 L504,514.170588 C504,508.553527 508.508776,504 514.070632,504 Z" id="Rectangle" fill="#044917"></path>
            <path d="M10.070632,630 L115.929368,630 C121.491224,630 126,634.553527 126,640.170588 L126,708.717715 C126,714.334776 121.491224,718.888303 115.929368,718.888303 L105.526127,718.888303 L105.533155,737.494804 C105.533678,738.877857 104.425346,740 103.057627,740 C102.52726,740 102.010837,739.828226 101.584378,739.509379 L74.0035791,718.888303 L10.070632,718.888303 C4.50877551,718.888303 0,714.334776 0,708.717715 L0,640.170588 C0,634.553527 4.50877551,630 10.070632,630 Z" id="Rectangle" fill="#044917"></path>
            <path d="M514.070632,0 L619.929368,0 C625.491224,0 630,4.55352742 630,10.1705882 L630,78.717715 C630,84.3347757 625.491224,88.8883032 619.929368,88.8883032 L609.526127,88.8883032 L609.533155,107.494804 C609.533678,108.877857 608.425346,110 607.057627,110 C606.52726,110 606.010837,109.828226 605.584378,109.509379 L578.003579,88.8883032 L514.070632,88.8883032 C508.508776,88.8883032 504,84.3347757 504,78.717715 L504,10.1705882 C504,4.55352742 508.508776,0 514.070632,0 Z" id="Rectangle" fill="#044917"></path>
            <rect id="Rectangle" fill="#00B832" x="504" y="126" width="126" height="126" rx="63"></rect>
            <path d="M630,0 L756,0 L756,26 C756,81.228475 711.228475,126 656,126 L630,126 L630,126 L630,0 Z" id="Rectangle" fill="#F5B700"></path>
            <path d="M226,0 L252,0 L252,0 L252,26 C252,81.228475 207.228475,126 152,126 L126,126 L126,126 L126,100 C126,44.771525 170.771525,1.01453063e-14 226,0 Z" id="Rectangle" fill="#00B832" transform="translate(189.000000, 63.000000) scale(-1, 1) translate(-189.000000, -63.000000) "></path>
            <path d="M630,504 L656,504 C711.228475,504 756,548.771525 756,604 L756,630 L756,630 L730,630 C674.771525,630 630,585.228475 630,530 L630,504 L630,504 Z" id="Rectangle" fill="#BEEF9E" transform="translate(693.000000, 567.000000) scale(-1, 1) translate(-693.000000, -567.000000) "></path>
            <path d="M378,0 L404,0 C459.228475,-1.01453063e-14 504,44.771525 504,100 L504,126 L504,126 L478,126 C422.771525,126 378,81.228475 378,26 L378,0 L378,0 Z" id="Rectangle" fill="#BEEF9E" transform="translate(441.000000, 63.000000) scale(-1, 1) translate(-441.000000, -63.000000) "></path>
            <path d="M630,126 L656,126 C711.228475,126 756,170.771525 756,226 L756,252 L756,252 L730,252 C674.771525,252 630,207.228475 630,152 L630,126 L630,126 Z" id="Rectangle" fill="#BEEF9E" transform="translate(693.000000, 189.000000) scale(-1, 1) translate(-693.000000, -189.000000) "></path>
            <path d="M0,252 L26,252 C81.228475,252 126,296.771525 126,352 L126,378 L126,378 L100,378 C44.771525,378 6.76353751e-15,333.228475 0,278 L0,252 L0,252 Z" id="Rectangle" fill="#BEEF9E" transform="translate(63.000000, 315.000000) scale(-1, 1) translate(-63.000000, -315.000000) "></path>
            <rect id="Rectangle" fill="#00B832" x="630" y="252" width="126" height="126" rx="63"></rect>
            <path d="M0,0 L26,0 C81.228475,-1.01453063e-14 126,44.771525 126,100 L126,126 L126,126 L100,126 C44.771525,126 6.76353751e-15,81.228475 0,26 L0,0 L0,0 Z" id="Rectangle" fill="#BEEF9E" transform="translate(63.000000, 63.000000) scale(-1, 1) translate(-63.000000, -63.000000) "></path>
            <path d="M252,630 L278,630 C333.228475,630 378,674.771525 378,730 L378,756 L378,756 L352,756 C296.771525,756 252,711.228475 252,656 L252,630 L252,630 Z" id="Rectangle" fill="#BEEF9E" transform="translate(315.000000, 693.000000) scale(-1, 1) translate(-315.000000, -693.000000) "></path>
            <path d="M630,630 L656,630 C711.228475,630 756,674.771525 756,730 L756,756 L756,756 L730,756 C674.771525,756 630,711.228475 630,656 L630,630 L630,630 Z" id="Rectangle" fill="#00B832" transform="translate(693.000000, 693.000000) scale(-1, 1) translate(-693.000000, -693.000000) "></path>
            <path d="M604,630 L630,630 L630,630 L630,656 C630,711.228475 585.228475,756 530,756 L504,756 L504,756 L504,730 C504,674.771525 548.771525,630 604,630 Z" id="Rectangle" fill="#00B832" transform="translate(567.000000, 693.000000) scale(-1, 1) translate(-567.000000, -693.000000) "></path>
            <path d="M100,378 L126,378 L126,378 L126,404 C126,459.228475 81.228475,504 26,504 L0,504 L0,504 L0,478 C-6.76353751e-15,422.771525 44.771525,378 100,378 Z" id="Rectangle" fill="#00B832" transform="translate(63.000000, 441.000000) scale(-1, 1) translate(-63.000000, -441.000000) "></path>
            <path d="M226,630 L252,630 L252,630 L252,656 C252,711.228475 207.228475,756 152,756 L126,756 L126,756 L126,730 C126,674.771525 170.771525,630 226,630 Z" id="Rectangle" fill="#00B832" transform="translate(189.000000, 693.000000) scale(-1, 1) translate(-189.000000, -693.000000) "></path>
            <path d="M100,504 L126,504 L126,504 L126,630 L0,630 L0,604 C-6.76353751e-15,548.771525 44.771525,504 100,504 Z" id="Rectangle" fill="#BEEF9E"></path>
            <rect id="Rectangle" x="252" y="126" width="126" height="126"></rect>
            <rect id="Rectangle" x="252" y="252" width="126" height="126"></rect>
            <rect id="Rectangle" x="252" y="378" width="126" height="126"></rect>
            <rect id="Rectangle" x="252" y="504" width="126" height="126"></rect>
            <rect id="Rectangle" x="126" y="252" width="126" height="126"></rect>
            <rect id="Rectangle" x="126" y="378" width="126" height="126"></rect>
            <rect id="Rectangle" x="378" y="126" width="126" height="126"></rect>
            <rect id="Rectangle" x="378" y="252" width="126" height="126"></rect>
            <rect id="Rectangle" x="378" y="378" width="126" height="126"></rect>
            <rect id="Rectangle" x="378" y="504" width="126" height="126"></rect>
            <rect id="Rectangle" x="504" y="252" width="126" height="126"></rect>
            <rect id="Rectangle" x="504" y="378" width="126" height="126"></rect>
        </g>
    </g>
</svg>