<?xml version="1.0" encoding="UTF-8"?>
<svg width="274px" height="73px" viewBox="0 0 274 73" version="1.1" xmlns="http://www.w3.org/2000/svg" xmlns:xlink="http://www.w3.org/1999/xlink">
    <!-- Generator: Sketch 61.1 (89650) - https://sketch.com -->
    <title>Group@2x</title>
    <desc>Created with Sketch.</desc>
    <defs>
        <path d="M7.1370124,39.7984013 L7.1370124,25.9961593 L10.6830731,25.9961593 C13.5349314,25.9961593 16.0678319,25.7510375 18.2817746,25.260794 C20.4957172,24.7705504 22.3719398,24.0069018 23.9104423,22.9698481 C25.4489449,21.9327944 26.621584,20.5940523 27.4283597,18.9536219 C28.2351354,17.3131915 28.6385232,15.3427895 28.6385232,13.0424158 C28.6385232,8.63022369 27.1281641,5.38707393 24.1074457,3.31296653 C21.0867273,1.23885913 16.743272,0.201805423 11.0770798,0.201805423 C9.38847951,0.201805423 7.54040026,0.26779975 5.53284209,0.399788403 C3.52528393,0.531777056 1.6959669,0.786326601 0.0448910267,1.16343704 L0.0448910267,37.4829649 C0.0448910267,38.7617451 1.08154723,39.7984013 2.36032745,39.7984013 L7.1370124,39.7984013 L7.1370124,39.7984013 Z M10.5977955,19.902092 L7.16890178,19.902092 L7.16890178,6.54629914 C8.33060348,6.43311445 9.8108363,6.37652211 11.6096002,6.37652211 C12.9586732,6.37652211 14.223429,6.48027474 15.4038679,6.68777999 C16.5843067,6.89528525 17.60548,7.24427136 18.4673877,7.73473833 C19.3292954,8.2252053 20.0038319,8.90431341 20.4909971,9.77206267 C20.9781623,10.6398119 21.2217449,11.7150664 21.2217449,12.9978262 C21.2217449,15.6765304 20.3036258,17.4969174 18.4673877,18.4589873 C16.6311495,19.4210571 14.0079521,19.902092 10.5977955,19.902092 L10.5977955,19.902092 Z M41.589739,40.3864696 C44.2542545,40.3864696 46.6466893,40.2265516 48.7670432,39.9067155 C50.0957154,39.7062975 51.5763525,39.4532434 53.2089543,39.1475535 C53.3914743,39.1132947 53.5237663,38.9539332 53.5237663,38.7682259 L53.5237663,21.196308 L53.5237663,21.196308 C53.5237663,19.4654307 53.3267423,17.8756575 52.9326942,16.4269885 C52.5386461,14.9783194 51.8818993,13.74601 50.9624538,12.7300603 C50.0430084,11.7141106 48.8139537,10.9239274 47.2752898,10.3595109 C45.7366259,9.7950944 43.8414423,9.51288614 41.589739,9.51288614 C39.7133196,9.51288614 37.9494854,9.66339721 36.2982364,9.96441935 C34.6469873,10.2654415 33.3897863,10.5664636 32.5266334,10.8674858 L33.3044358,15.962585 C33.336512,16.1733495 33.5334394,16.3181151 33.7441893,16.2859426 C33.7605446,16.2834459 33.7767226,16.2799002 33.792623,16.2753275 C34.8741329,15.964306 35.8031583,15.7420583 36.5796993,15.6085845 C37.8931928,15.3828179 39.3380358,15.2699346 40.914228,15.2699346 C42.0776081,15.2699346 43.043964,15.4204457 43.813296,15.7214678 C44.5826279,16.02249 45.2018463,16.4458023 45.6709512,16.991405 C46.140056,17.5370076 46.4684294,18.1672727 46.6560714,18.8822003 C46.8437133,19.5971279 46.9375343,20.3496833 46.9375343,21.1398664 L46.9375343,22.2686994 C45.9993246,22.0429328 45.1174075,21.8830148 44.2917829,21.7889454 C43.4661584,21.6948759 42.6780623,21.6478412 41.9274945,21.6478412 C40.3137738,21.6478412 38.7657279,21.8077593 37.2833565,22.1275953 C35.8009852,22.4474313 34.4968738,22.9742201 33.3710221,23.7079615 C32.2451705,24.441703 31.3538713,25.3918041 30.6971245,26.5582649 C30.0403777,27.7247257 29.7120043,29.1545809 29.7120043,30.8478305 C29.7120043,32.6163355 30.0028493,34.1026324 30.5845393,35.3067209 C31.1662293,36.5108095 31.9730897,37.4891315 33.0051203,38.2416868 C34.037151,38.9942422 35.2849699,39.5398448 36.748577,39.8784947 C38.2121841,40.2171446 39.8259048,40.3864696 41.589739,40.3864696 Z M42.1949438,34.9957496 L42.090006,34.9958439 C40.3590727,34.9958439 38.9856148,34.6847071 37.9696322,34.0624335 C36.9536496,33.44016 36.4456583,32.3181819 36.4456583,30.6964992 C36.4456583,29.8668012 36.6338032,29.1785289 37.0100931,28.6316824 C37.3863829,28.0848359 37.884967,27.6605585 38.5058452,27.3588501 C39.1267235,27.0571417 39.8228597,26.8497172 40.5942539,26.7365765 C41.365648,26.6234359 42.127635,26.5668656 42.8802147,26.5668656 C43.7456813,26.5668656 44.53589,26.6234359 45.2508407,26.7365765 C45.9657914,26.8497172 46.5114116,26.9628578 46.8877015,27.0759985 L46.8877015,27.0759985 L46.8877015,34.656422 C45.0940532,34.8827033 43.4948214,34.9958439 42.090006,34.9958439 L42.1949438,34.9957496 Z M60.0519999,50.2856186 C61.6265676,50.2856186 63.0136868,50.1068283 64.2133575,49.7492478 C65.4130282,49.3916674 66.5002297,48.8176566 67.4749621,48.0272156 C68.4496945,47.2367745 69.3307026,46.2393132 70.1179865,45.0348316 C70.9052704,43.8303501 71.6738094,42.3812081 72.4236036,40.6874059 C75.0978694,34.6148113 78.621902,24.4519979 82.9957012,10.1989658 L75.966381,10.1989658 C74.7542137,14.9980721 73.7982262,18.6585669 73.0984183,21.1804502 C72.0487065,24.9632752 70.9240152,28.5296699 69.7243446,31.8796343 C69.0120401,30.2611122 68.2997357,28.5108499 67.5874312,26.6288474 C66.8751268,24.7468449 66.200312,22.8554324 65.562987,20.9546099 C64.9256619,19.0537874 64.335199,17.181195 63.7915983,15.3368325 C63.4453536,14.1620721 63.0107031,12.546373 62.4876467,10.4897352 C62.4441179,10.3186995 62.2901211,10.1989658 62.1136333,10.1989658 L55.159593,10.1989658 L55.159593,10.1989658 C56.696671,15.694413 58.4493149,20.8887398 60.4175246,25.7819463 C62.3857342,30.6751527 64.4382957,35.1919587 66.5752091,39.3323641 C65.8254149,41.1014465 64.9537792,42.4094382 63.960302,43.2563393 C62.9668247,44.1032404 61.5890779,44.526691 59.8270617,44.526691 C58.9523018,44.526691 57.6214172,44.2632106 55.8344077,43.7362499 L54.6709454,48.8866327 C54.6284592,49.0749562 54.7316378,49.2657261 54.9125193,49.3331997 C55.655092,49.610199 56.3279128,49.8147518 56.9309817,49.9468581 C57.9619487,50.1726984 59.0022881,50.2856186 60.0519999,50.2856186 Z M95.8903872,50.3836299 C100.808092,50.3836299 104.458831,49.2918393 106.842604,47.1082581 C109.226377,44.9246768 110.418263,41.4798892 110.418263,36.7738951 L110.418263,16.1230572 C110.418282,13.1539896 108.277326,10.6176031 105.350399,10.1191449 C105.350399,10.1191449 105.350399,10.1191449 105.350399,10.1191449 C103.360794,9.7803133 101.258569,9.61089752 99.0437246,9.61089752 C96.753801,9.61089752 94.7078857,9.96855307 92.9059786,10.6838642 C91.1040715,11.3991753 89.5743274,12.396846 88.3167464,13.6768764 C87.0591654,14.9569068 86.1019023,16.5004728 85.444957,18.3075745 C84.7880117,20.1146762 84.4595391,22.0911937 84.4595391,24.237127 C84.4595391,26.5336521 84.7692418,28.5572295 85.3886474,30.3078593 C86.008053,32.0584891 86.8714668,33.5173473 87.9788889,34.6844338 C89.0863109,35.8515203 90.4189714,36.7362472 91.9768702,37.3386144 C93.5347691,37.9409817 95.2522118,38.2421653 97.1291983,38.2421653 C98.5557081,38.2421653 99.8226741,38.0727495 100.930096,37.7339179 C102.037518,37.3950864 102.929087,37.0562548 103.604802,36.7174232 L103.604802,37.8468618 C103.604802,40.068091 103.022936,41.7434249 101.859204,42.8728634 C100.695473,44.002302 98.7434068,44.5670213 96.0030064,44.5670213 C94.2761788,44.5670213 92.6713553,44.4164295 91.1885359,44.1152459 C89.7057165,43.8140622 88.382441,43.4187587 87.2187093,42.9293354 L86.0540575,48.3977427 C86.0120571,48.5947145 86.1286156,48.7908421 86.3216909,48.848147 C88.1192259,49.3816568 89.5538089,49.7428927 90.6254399,49.9318545 C92.3334977,50.2330381 94.0884801,50.3836299 95.8903872,50.3836299 Z M98.1653984,32.5455595 C96.1699405,32.5455595 94.5415715,31.8784843 93.2802915,30.5443338 C92.0190114,29.2101833 91.3883714,27.0962124 91.3883714,24.2024212 C91.3883714,21.5341202 92.0472491,19.3825676 93.3650043,17.7477635 C94.6827595,16.1129594 96.5840921,15.2955573 99.069002,15.2955573 C100.160856,15.2955573 101.06446,15.3425345 101.779813,15.4364887 C102.495166,15.530443 103.097568,15.6337927 103.58702,15.7465378 L103.58702,15.7465378 L103.58702,31.0235005 C102.984618,31.4368992 102.203377,31.7939254 101.243298,32.0945791 C100.283219,32.3952327 99.2572528,32.5455595 98.1653984,32.5455595 Z M126.785101,40.3864696 C129.449616,40.3864696 131.842051,40.2265516 133.962405,39.9067155 C135.291077,39.7062975 136.771714,39.4532434 138.404316,39.1475535 C138.586836,39.1132947 138.719128,38.9539332 138.719128,38.7682259 L138.719128,21.196308 L138.719128,21.196308 C138.719128,19.4654307 138.522104,17.8756575 138.128056,16.4269885 C137.734008,14.9783194 137.077261,13.74601 136.157815,12.7300603 C135.23837,11.7141106 134.009315,10.9239274 132.470651,10.3595109 C130.931987,9.7950944 129.036804,9.51288614 126.785101,9.51288614 C124.908681,9.51288614 123.144847,9.66339721 121.493598,9.96441935 C119.842349,10.2654415 118.585148,10.5664636 117.721995,10.8674858 L118.499797,15.962585 C118.531874,16.1733495 118.728801,16.3181151 118.939551,16.2859426 C118.955906,16.2834459 118.972084,16.2799002 118.987985,16.2753275 C120.069494,15.964306 120.99852,15.7420583 121.775061,15.6085845 C123.088554,15.3828179 124.533397,15.2699346 126.10959,15.2699346 C127.27297,15.2699346 128.239326,15.4204457 129.008658,15.7214678 C129.777989,16.02249 130.397208,16.4458023 130.866313,16.991405 C131.335418,17.5370076 131.663791,18.1672727 131.851433,18.8822003 C132.039075,19.5971279 132.132896,20.3496833 132.132896,21.1398664 L132.132896,22.2686994 C131.194686,22.0429328 130.312769,21.8830148 129.487144,21.7889454 C128.66152,21.6948759 127.873424,21.6478412 127.122856,21.6478412 C125.509135,21.6478412 123.961089,21.8077593 122.478718,22.1275953 C120.996347,22.4474313 119.692235,22.9742201 118.566384,23.7079615 C117.440532,24.441703 116.549233,25.3918041 115.892486,26.5582649 C115.235739,27.7247257 114.907366,29.1545809 114.907366,30.8478305 C114.907366,32.6163355 115.198211,34.1026324 115.779901,35.3067209 C116.361591,36.5108095 117.168451,37.4891315 118.200482,38.2416868 C119.232513,38.9942422 120.480331,39.5398448 121.943939,39.8784947 C123.407546,40.2171446 125.021266,40.3864696 126.785101,40.3864696 Z M127.390305,34.9957496 L127.285368,34.9958439 C125.554434,34.9958439 124.180976,34.6847071 123.164994,34.0624335 C122.149011,33.44016 121.64102,32.3181819 121.64102,30.6964992 C121.64102,29.8668012 121.829165,29.1785289 122.205455,28.6316824 C122.581744,28.0848359 123.080329,27.6605585 123.701207,27.3588501 C124.322085,27.0571417 125.018221,26.8497172 125.789615,26.7365765 C126.56101,26.6234359 127.322997,26.5668656 128.075576,26.5668656 C128.941043,26.5668656 129.731252,26.6234359 130.446202,26.7365765 C131.161153,26.8497172 131.706773,26.9628578 132.083063,27.0759985 L132.083063,27.0759985 L132.083063,34.656422 C130.991822,34.8827033 129.392591,34.9958439 127.285368,34.9958439 L127.390305,34.9957496 Z M154.736668,50.3836299 C159.654373,50.3836299 163.305112,49.2918393 165.688884,47.1082581 C168.072657,44.9246768 169.264544,41.4798892 169.264544,36.7738951 L169.264544,16.1230572 C169.264563,13.1539896 167.123607,10.6176031 164.19668,10.1191449 C164.19668,10.1191449 164.19668,10.1191449 164.19668,10.1191449 C162.207074,9.7803133 160.104849,9.61089752 157.890005,9.61089752 C155.600082,9.61089752 153.554166,9.96855307 151.752259,10.6838642 C149.950352,11.3991753 148.420608,12.396846 147.163027,13.6768764 C145.905446,14.9569068 144.948183,16.5004728 144.291238,18.3075745 C143.634292,20.1146762 143.30582,22.0911937 143.30582,24.237127 C143.30582,26.5336521 143.615522,28.5572295 144.234928,30.3078593 C144.854334,32.0584891 145.717747,33.5173473 146.82517,34.6844338 C147.932592,35.8515203 149.265252,36.7362472 150.823151,37.3386144 C152.38105,37.9409817 154.098492,38.2421653 155.975479,38.2421653 C157.401989,38.2421653 158.668955,38.0727495 159.776377,37.7339179 C160.883799,37.3950864 161.775367,37.0562548 162.451083,36.7174232 L162.451083,37.8468618 C162.451083,40.068091 161.869217,41.7434249 160.705485,42.8728634 C159.541753,44.002302 157.589687,44.5670213 154.849287,44.5670213 C153.122459,44.5670213 151.517636,44.4164295 150.034817,44.1152459 C148.551997,43.8140622 147.228722,43.4187587 146.06499,42.9293354 L144.900338,48.3977427 C144.858338,48.5947145 144.974896,48.7908421 145.167972,48.848147 C146.965507,49.3816568 148.40009,49.7428927 149.471721,49.9318545 C151.179778,50.2330381 152.934761,50.3836299 154.736668,50.3836299 Z M157.011679,32.5455595 C155.016221,32.5455595 153.387852,31.8784843 152.126572,30.5443338 C150.865292,29.2101833 150.234652,27.0962124 150.234652,24.2024212 C150.234652,21.5341202 150.89353,19.3825676 152.211285,17.7477635 C153.52904,16.1129594 155.430373,15.2955573 157.915283,15.2955573 C159.007137,15.2955573 159.910741,15.3425345 160.626093,15.4364887 C161.341446,15.530443 161.943849,15.6337927 162.433301,15.7465378 L162.433301,15.7465378 L162.433301,31.0235005 C161.830898,31.4368992 161.049658,31.7939254 160.089579,32.0945791 C159.1295,32.3952327 158.103533,32.5455595 157.011679,32.5455595 Z M189.271982,40.484481 C190.284263,40.484481 191.277798,40.4278879 192.252587,40.3147017 C193.227376,40.2015155 194.136554,40.0600328 194.980122,39.8902535 C195.82369,39.7204742 196.573527,39.5318306 197.229636,39.3243226 C197.885744,39.1168146 198.401257,38.9187388 198.776176,38.7300952 L197.949392,33.5820529 C197.915606,33.371603 197.717606,33.2284002 197.507158,33.2621985 C197.485508,33.2656755 197.464193,33.2709913 197.443446,33.2780882 C196.381018,33.6415085 195.447435,33.9119664 194.642695,34.0894618 C193.274241,34.3912916 191.765192,34.5422065 190.115549,34.5422065 C187.303657,34.5422065 185.157246,33.891386 183.676317,32.589745 C182.195387,31.2881039 181.361192,29.4488285 181.173733,27.0719187 L200.209156,27.0719187 C200.414682,27.07197 200.584159,26.9109152 200.594626,26.705656 C200.65705,25.4815337 200.688263,24.754725 200.688263,24.5252297 C200.688263,19.5073091 199.554133,15.7344364 197.285873,13.2066118 C195.017614,10.6787871 191.858922,9.41487477 187.809798,9.41487477 C186.085171,9.41487477 184.398036,9.74500112 182.748392,10.4052538 C181.098749,11.0655065 179.636565,12.0464534 178.361841,13.3480945 C177.087117,14.6497356 176.065463,16.281503 175.296879,18.2433967 C174.528295,20.2052905 174.144003,22.4878785 174.144003,25.0911606 C174.144003,27.3171554 174.443938,29.3639388 175.043809,31.2315108 C175.643679,33.0990828 176.56223,34.721418 177.799463,36.0985165 C179.036695,37.475615 180.611355,38.5508837 182.523441,39.3243226 C184.435528,40.0977615 186.685041,40.484481 189.271982,40.484481 Z M193.954609,22.0583423 L181.268014,22.0583423 C181.380784,21.1960564 181.587528,20.3525159 181.888248,19.5277207 C182.188967,18.7029255 182.611853,17.971857 183.156907,17.3345153 C183.701961,16.6971736 184.369182,16.1816766 185.15857,15.7880243 C185.947958,15.3943721 186.868911,15.1975459 187.921428,15.1975459 C188.936356,15.1975459 189.810321,15.3756267 190.543324,15.7317883 C191.276327,16.0879498 191.896561,16.5753288 192.404025,17.1939252 C192.911489,17.8125216 193.296785,18.5435901 193.559914,19.3871306 C193.823044,20.2306711 193.954609,21.121075 193.954609,22.0583423 L193.954609,22.0583423 Z" id="path-1"></path>
        <filter x="-1.2%" y="-5.0%" width="102.5%" height="110.0%" filterUnits="objectBoundingBox" id="filter-2">
            <feGaussianBlur stdDeviation="2" in="SourceAlpha" result="shadowBlurInner1"></feGaussianBlur>
            <feOffset dx="0" dy="1" in="shadowBlurInner1" result="shadowOffsetInner1"></feOffset>
            <feComposite in="shadowOffsetInner1" in2="SourceAlpha" operator="arithmetic" k2="-1" k3="1" result="shadowInnerInner1"></feComposite>
            <feColorMatrix values="0 0 0 0 0   0 0 0 0 0   0 0 0 0 0  0 0 0 0.14996722 0" type="matrix" in="shadowInnerInner1"></feColorMatrix>
        </filter>
        <path d="M4.62453845,20.4998143 L53.2359659,20.4998143 C55.7900279,20.4998143 57.8605043,22.5874528 57.8605043,25.1626855 L57.8605043,56.5892288 C57.8605043,59.1644615 55.7900279,61.2521001 53.2359659,61.2521001 L48.4586901,61.2521001 L48.4619173,69.7825525 C48.4621572,70.4166357 47.9531999,70.9311003 47.3251292,70.9311003 C47.0815791,70.9311003 46.8444325,70.8523477 46.6485978,70.706167 L33.9832096,61.2521001 L4.62453845,61.2521001 C2.07047639,61.2521001 0,59.1644615 0,56.5892288 L0,25.1626855 C0,22.5874528 2.07047639,20.4998143 4.62453845,20.4998143 Z" id="path-3"></path>
        <filter x="-4.3%" y="-5.0%" width="108.6%" height="109.9%" filterUnits="objectBoundingBox" id="filter-4">
            <feGaussianBlur stdDeviation="2" in="SourceAlpha" result="shadowBlurInner1"></feGaussianBlur>
            <feOffset dx="0" dy="1" in="shadowBlurInner1" result="shadowOffsetInner1"></feOffset>
            <feComposite in="shadowOffsetInner1" in2="SourceAlpha" operator="arithmetic" k2="-1" k3="1" result="shadowInnerInner1"></feComposite>
            <feColorMatrix values="0 0 0 0 0   0 0 0 0 0   0 0 0 0 0  0 0 0 0.14996722 0" type="matrix" in="shadowInnerInner1"></feColorMatrix>
        </filter>
        <path d="M3.88173694,19.4412902 L44.6851112,11.2599795 C46.8289354,10.8301305 48.5668482,12.547008 48.5668482,15.0947328 L48.5668482,46.1855866 C48.5668482,48.7333114 46.8289354,51.1471119 44.6851112,51.576961 L3.88173694,59.7582716 C1.73791282,60.1881207 0,58.4712431 0,55.9235183 L0,24.8326645 C0,22.2849397 1.73791282,19.8711392 3.88173694,19.4412902 Z" id="path-5"></path>
        <filter x="-5.1%" y="-5.1%" width="110.3%" height="110.3%" filterUnits="objectBoundingBox" id="filter-6">
            <feGaussianBlur stdDeviation="2" in="SourceAlpha" result="shadowBlurInner1"></feGaussianBlur>
            <feOffset dx="0" dy="1" in="shadowBlurInner1" result="shadowOffsetInner1"></feOffset>
            <feComposite in="shadowOffsetInner1" in2="SourceAlpha" operator="arithmetic" k2="-1" k3="1" result="shadowInnerInner1"></feComposite>
            <feColorMatrix values="0 0 0 0 0   0 0 0 0 0   0 0 0 0 0  0 0 0 0.14996722 0" type="matrix" in="shadowInnerInner1"></feColorMatrix>
        </filter>
        <path d="M3.28270346,17.3811964 L37.7892607,0.363993329 C39.6022478,-0.530096703 41.0719642,0.812901755 41.0719642,3.36366434 L41.0719642,34.4915896 C41.0719642,37.0423522 39.6022478,39.834957 37.7892607,40.729047 L3.28270346,57.7462501 C1.4697164,58.6403401 0,57.2973417 0,54.7465791 L0,23.6186538 C0,21.0678913 1.4697164,18.2752864 3.28270346,17.3811964 Z" id="path-7"></path>
        <filter x="-6.1%" y="-4.3%" width="112.2%" height="108.6%" filterUnits="objectBoundingBox" id="filter-8">
            <feGaussianBlur stdDeviation="2" in="SourceAlpha" result="shadowBlurInner1"></feGaussianBlur>
            <feOffset dx="0" dy="1" in="shadowBlurInner1" result="shadowOffsetInner1"></feOffset>
            <feComposite in="shadowOffsetInner1" in2="SourceAlpha" operator="arithmetic" k2="-1" k3="1" result="shadowInnerInner1"></feComposite>
            <feColorMatrix values="0 0 0 0 0   0 0 0 0 0   0 0 0 0 0  0 0 0 0.14996722 0" type="matrix" in="shadowInnerInner1"></feColorMatrix>
        </filter>
    </defs>
    <g id="Website" stroke="none" stroke-width="1" fill="none" fill-rule="evenodd">
        <g id="Group">
            <g id="Group-4" transform="translate(73.000000, 22.000000)" fill-rule="nonzero">
                <g id="Group-2">
                    <g id="Paygage">
                        <use fill="#F1F1F1" xlink:href="#path-1"></use>
                        <use fill="black" fill-opacity="1" filter="url(#filter-2)" xlink:href="#path-1"></use>
                    </g>
                </g>
            </g>
            <g id="Group-9">
                <g id="Rectangle">
                    <use fill="#F1F1F1" fill-rule="evenodd" xlink:href="#path-3"></use>
                    <use fill="black" fill-opacity="1" filter="url(#filter-4)" xlink:href="#path-3"></use>
                </g>
                <g id="Rectangle">
                    <use fill="#F1F1F1" fill-rule="evenodd" xlink:href="#path-5"></use>
                    <use fill="black" fill-opacity="1" filter="url(#filter-6)" xlink:href="#path-5"></use>
                </g>
                <g id="Rectangle">
                    <use fill="#F1F1F1" fill-rule="evenodd" xlink:href="#path-7"></use>
                    <use fill="black" fill-opacity="1" filter="url(#filter-8)" xlink:href="#path-7"></use>
                </g>
            </g>
        </g>
    </g>
</svg>