<?xml version="1.0" encoding="UTF-8"?>
<svg width="422px" height="522px" viewBox="0 0 422 522" version="1.1" xmlns="http://www.w3.org/2000/svg" xmlns:xlink="http://www.w3.org/1999/xlink">
    <!-- Generator: Sketch 61.1 (89650) - https://sketch.com -->
    <title>Group</title>
    <desc>Created with Sketch.</desc>
    <defs>
        <path d="M0,172.213603 C0,153.546031 10.7351798,133.108555 23.9776952,126.565222 L276.022305,2.02605174 C289.26482,-4.51728151 300,5.31135559 300,23.9789271 L300,86.218 L328.466543,80.4867731 C344.225136,77.3135206 357,89.9879375 357,108.795875 L357,150 L388.271375,150 C406.89918,150 422,165.399202 422,184.39508 L422,416.209 C422,435.204878 406.89918,450.60408 388.271375,450.60408 L353.428776,450.60408 L353.452314,513.527882 C353.454063,518.205117 349.742032,522 345.161259,522 C343.38495,522 341.655344,521.419091 340.227042,520.340808 L247.853257,450.60408 L33.7286245,450.60408 C15.1008196,450.60408 0,435.204878 0,416.209 L0,172.213603 Z" id="path-1"></path>
        <rect id="path-3" x="0" y="0" width="151.199991" height="151.199991" rx="11"></rect>
        <path d="M0.927389431,75.6404382 C6.12681353,59.3855671 17.2811944,10.2470442 37.9773872,4.45400177 C50.2652702,1.0145176 71.6102419,-0.566788559 85.0023844,0.182815584 C92.4137241,0.597653679 105.387945,6.33431616 112.077383,8.72518796 C124.959752,13.3294751 132.769443,22.3086855 135.154571,36.1621142 C136.632443,44.7459697 148.480649,62.6934435 142.002381,68.5217946 C132.1499,77.3858493 116.317601,67.4558728 103.129786,68.8202101 C93.5357176,69.8127584 35.4326811,80.5802845 28.9438359,62.2170807 L0.927389431,75.6404382 Z" id="path-5"></path>
        <path d="M0.224999987,62.0959677 C1.36925479,51.4731567 2.30026434,43.6501059 3.01802864,38.626815 C6.49873273,14.2670231 9.41946249,3.15023755 34.4430161,0.108515746 C38.5998808,-0.396769242 41.8421676,0.929178799 45.6352297,2.70319091 C56.9849912,8.01146537 63.8405851,21.3949443 63.8405851,25.4495021 C63.8405851,29.5040599 61.0382702,30.7620946 61.8131666,32.5449783 C64.60213,38.9618333 69.6246282,44.0570937 72.8113879,50.2859968 C73.1788098,51.0041669 72.3344049,52.1682564 71.5485122,52.3504826 C68.9049369,52.9634528 64.6080538,50.0324581 63.4081776,52.4663348 C61.0253441,57.2997696 67.8954222,68.0223592 58.7720387,72.076917 C49.6486553,76.1314749 38.6251985,70.8828589 28.664034,73.4471639 C3.57669153,79.9054046 17.3611831,92.1274525 8.03021819,78.3148553 C1.80957493,69.1064572 -0.792164472,63.7001613 0.224999987,62.0959677 Z" id="path-7"></path>
        <rect id="path-9" x="0" y="0" width="151.199991" height="151.199991" rx="11"></rect>
        <path d="M0.927389431,75.6404382 C6.12681353,59.3855671 17.2811944,10.2470442 37.9773872,4.45400177 C50.2652702,1.0145176 71.6102419,-0.566788559 85.0023844,0.182815584 C92.4137241,0.597653679 105.387945,6.33431616 112.077383,8.72518796 C124.959752,13.3294751 132.769443,22.3086855 135.154571,36.1621142 C136.632443,44.7459697 148.480649,62.6934435 142.002381,68.5217946 C132.1499,77.3858493 116.317601,67.4558728 103.129786,68.8202101 C93.5357176,69.8127584 35.4326811,80.5802845 28.9438359,62.2170807 L0.927389431,75.6404382 Z" id="path-11"></path>
        <path d="M0.224999987,62.0959677 C1.36925479,51.4731567 2.30026434,43.6501059 3.01802864,38.626815 C6.49873273,14.2670231 9.41946249,3.15023755 34.4430161,0.108515746 C38.5998808,-0.396769242 41.8421676,0.929178799 45.6352297,2.70319091 C56.9849912,8.01146537 63.8405851,21.3949443 63.8405851,25.4495021 C63.8405851,29.5040599 61.0382702,30.7620946 61.8131666,32.5449783 C64.60213,38.9618333 69.6246282,44.0570937 72.8113879,50.2859968 C73.1788098,51.0041669 72.3344049,52.1682564 71.5485122,52.3504826 C68.9049369,52.9634528 64.6080538,50.0324581 63.4081776,52.4663348 C61.0253441,57.2997696 67.8954222,68.0223592 58.7720387,72.076917 C49.6486553,76.1314749 38.6251985,70.8828589 28.664034,73.4471639 C3.57669153,79.9054046 17.3611831,92.1274525 8.03021819,78.3148553 C1.80957493,69.1064572 -0.792164472,63.7001613 0.224999987,62.0959677 Z" id="path-13"></path>
        <rect id="path-15" x="0" y="0" width="151.199991" height="151.199991" rx="11"></rect>
        <path d="M0.927389431,75.6404382 C6.12681353,59.3855671 17.2811944,10.2470442 37.9773872,4.45400177 C50.2652702,1.0145176 71.6102419,-0.566788559 85.0023844,0.182815584 C92.4137241,0.597653679 105.387945,6.33431616 112.077383,8.72518796 C124.959752,13.3294751 132.769443,22.3086855 135.154571,36.1621142 C136.632443,44.7459697 148.480649,62.6934435 142.002381,68.5217946 C132.1499,77.3858493 116.317601,67.4558728 103.129786,68.8202101 C93.5357176,69.8127584 35.4326811,80.5802845 28.9438359,62.2170807 L0.927389431,75.6404382 Z" id="path-17"></path>
        <path d="M0.224999987,62.0959677 C1.36925479,51.4731567 2.30026434,43.6501059 3.01802864,38.626815 C6.49873273,14.2670231 9.41946249,3.15023755 34.4430161,0.108515746 C38.5998808,-0.396769242 41.8421676,0.929178799 45.6352297,2.70319091 C56.9849912,8.01146537 63.8405851,21.3949443 63.8405851,25.4495021 C63.8405851,29.5040599 61.0382702,30.7620946 61.8131666,32.5449783 C64.60213,38.9618333 69.6246282,44.0570937 72.8113879,50.2859968 C73.1788098,51.0041669 72.3344049,52.1682564 71.5485122,52.3504826 C68.9049369,52.9634528 64.6080538,50.0324581 63.4081776,52.4663348 C61.0253441,57.2997696 67.8954222,68.0223592 58.7720387,72.076917 C49.6486553,76.1314749 38.6251985,70.8828589 28.664034,73.4471639 C3.57669153,79.9054046 17.3611831,92.1274525 8.03021819,78.3148553 C1.80957493,69.1064572 -0.792164472,63.7001613 0.224999987,62.0959677 Z" id="path-19"></path>
        <rect id="path-21" x="0" y="0" width="151.199991" height="151.199991" rx="11"></rect>
        <path d="M0.149999991,75.7230331 C5.34942409,59.468162 16.5038049,10.3296392 37.1999978,4.53659669 C49.4878808,1.09711252 70.8328524,-0.484193637 84.224995,0.265410506 C91.6363346,0.680248601 97.4581664,5.49172266 104.147604,7.88259446 C117.029973,12.4868816 113.992054,22.3912805 116.377182,36.2447091 C117.855054,44.8285647 129.70326,62.7760384 123.224993,68.6043895 C113.372511,77.4684443 115.540212,67.5384677 102.352396,68.902805 C92.7583281,69.8953533 34.6552916,80.6628794 28.1664464,62.2996756 L0.149999991,75.7230331 Z" id="path-23"></path>
        <path d="M62.4352287,2.70319091 C73.7849902,8.01146537 85.4588618,16.0471807 83.5113875,33.3062736 C82.1778313,45.124643 72.918389,54.97621 64.2836802,61.3147913 C73.0408058,70.9018426 62.1152761,80.8732644 52.6867602,68.0770535 C44.6263709,71.4998182 46.6511941,68.2605196 37.0342946,70.7362003 C11.9469522,77.194441 39.9506545,81.013108 26.4086147,82.2988513 C17.3805882,83.1560135 8.62802319,75.8080485 0.150919703,60.2549562 C5.13479332,62.0071304 8.05231902,62.6757139 8.90349678,62.2607066 C14.6081557,59.4792963 17.5122933,57.6217861 17.6159096,56.6881761 C18.4025906,49.5999775 17.5995265,46.3319662 17.8479764,42.7594482 C3.93388195,38.3740134 8.78438809,25.7190697 20.0690335,29.472666 C23.7986706,12.5020656 30.6749435,2.60865433 51.2430151,0.108515744 C55.3998798,-0.396769244 58.6421666,0.929178798 62.4352287,2.70319091 Z" id="path-25"></path>
        <rect id="path-27" x="0" y="0" width="151.199991" height="151.199991" rx="11"></rect>
        <path d="M0.149999991,75.7230331 C5.34942409,59.468162 16.5038049,10.3296392 37.1999978,4.53659669 C49.4878808,1.09711252 70.8328524,-0.484193637 84.224995,0.265410506 C91.6363346,0.680248601 97.4581664,5.49172266 104.147604,7.88259446 C117.029973,12.4868816 113.992054,22.3912805 116.377182,36.2447091 C117.855054,44.8285647 129.70326,62.7760384 123.224993,68.6043895 C113.372511,77.4684443 115.540212,67.5384677 102.352396,68.902805 C92.7583281,69.8953533 34.6552916,80.6628794 28.1664464,62.2996756 L0.149999991,75.7230331 Z" id="path-29"></path>
        <path d="M61.5122001,3.27633796 C80.4861445,14.5895795 88.0618496,20.8352902 81.5988014,35.1750597 C77.4428614,44.3959751 71.9180012,51.7023295 67.409184,57.2493663 C74.6643241,61.056605 67.3612604,67.6811075 60.5339262,65.8265408 C56.6738763,70.676686 52.7705574,71.7438939 43.3862618,74.1596954 C18.2989194,80.617936 39.9506545,85.013108 26.4086147,86.2988513 C17.3805882,87.1560135 8.62802319,79.8080485 0.150919703,64.2549562 C5.13479332,66.0071304 8.05231902,66.6757139 8.90349678,66.2607067 C14.6081557,63.4792963 17.5122933,61.6217861 17.6159096,60.6881761 C18.4940192,52.7761819 19.2280585,46.7557282 19.8180276,42.626815 C19.9682725,41.5753228 20.1478796,40.5202082 20.35556,39.464653 C9.41767874,34.6083725 13.9495693,23.8728342 24.1787368,26.8166488 C31.6801249,8.58096184 46.6773364,-5.56897079 61.5122001,3.27633796 Z" id="path-31"></path>
        <rect id="path-33" x="0" y="0" width="151.199991" height="151.199991" rx="11"></rect>
        <path d="M0.149999991,78.7230331 C4.26119869,65.8702626 10.4170149,79.3694805 23.7476027,63.0826006 C27.2761804,58.7714988 32.8683406,8.74906481 37.1999978,7.53659669 C49.4878808,4.09711252 59.3554601,0.332996501 72.7476027,1.08260064 C80.1589423,1.49743874 98.0581648,13.6917288 104.747603,16.0826006 C117.629972,20.6868878 113.992054,25.3912805 116.377182,39.2447091 C117.855054,47.8285647 129.70326,65.7760384 123.224993,71.6043895 C113.372511,80.4684443 115.540212,70.5384677 102.352396,71.902805 C92.7583281,72.8953533 34.6552916,83.6628794 28.1664464,65.2996756 L0.149999991,78.7230331 Z" id="path-35"></path>
        <path d="M60.0295117,1.37944168 L60.7136231,1.69927836 C71.936046,6.94645457 85.4199123,13.3923625 83.5113875,30.3062736 C82.4109808,40.0584029 76.5002331,47.5555893 69.9206856,52.9639705 C76.5561313,61.7262484 67.4210281,70.0555725 58.7133682,60.2462811 C57.5416894,60.8440352 56.4358294,61.367744 55.4265372,61.8162875 C46.3031537,65.8708453 46.3469408,61.9813759 36.3857762,64.5456809 C11.2984338,71.0039215 37.363094,78.8524922 23.8210542,80.1382355 C14.7930276,80.9953977 7.09891123,73.0979656 0.738704955,56.4459392 C8.94677976,59.8170841 13.476406,61.295153 14.3275838,60.8801458 C18.1306897,59.0258722 21.0211754,56.181661 22.9990408,52.3475123 C20.4850526,43.9529896 19.4247149,38.3794238 19.8180276,35.626815 C19.9748377,34.5293761 20.1398395,33.4688307 20.3142648,32.443804 C9.58839377,27.6527383 13.8329369,17.1887024 23.7337262,19.6962327 C28.5706302,8.18529779 37.5069763,4.2714869 55.839105,2.04313691 C59.9959697,1.53785192 56.2364497,-0.394570431 60.0295117,1.37944168 Z" id="path-37"></path>
        <path d="M11,0 L140.225445,0 C146.290628,-1.54986925e-14 151.211364,4.90935018 151.225415,10.9745167 L151.750516,237.63628 C151.76459,243.711396 146.851145,248.64766 140.776029,248.661734 C138.485,248.667041 136.249484,247.956873 134.38154,246.630363 L4.63099465,154.488668 C1.72587943,152.425616 -8.44542686e-15,149.083197 0,145.520069 L0,11 C-2.52034597e-15,4.92486775 4.92486775,-6.6037315e-16 11,0 Z" id="path-39"></path>
        <path d="M0.574297644,65.0825949 C5.77372174,48.8277295 17.1305089,10.3296392 37.8267018,4.53659669 C50.1145848,1.09711252 71.4595564,-0.484193637 84.851699,0.265410506 C92.2630386,0.680248601 98.0848704,5.49172266 104.774308,7.88259446 C117.656677,12.4868816 114.618758,22.3912805 117.003886,36.2447091 C118.481758,44.8285647 130.329964,62.7760384 123.851697,68.6043895 C113.999215,77.4684443 116.166916,67.5384677 102.9791,68.902805 C93.3850321,69.8953533 35.2819956,80.6628794 28.7931504,62.2996756 C42.2830407,83.0639875 46.8767565,93.6582939 42.5742976,94.0825949 C39.6217017,94.3737832 -4.62512645,81.3374718 0.574297644,65.0825949 Z" id="path-41"></path>
        <path d="M62.4352287,2.70319091 C73.7849902,8.01146536 85.4588618,16.0471807 83.5113875,33.3062736 C82.4109808,43.0584029 76.5002331,50.5555893 69.9206856,55.9639705 C76.5565995,64.7258215 67.4212512,73.0558239 58.7133682,63.2462811 C57.5416894,63.8440352 56.4358294,64.367744 55.4265372,64.8162875 C46.3031537,68.8708453 46.9954592,68.1718953 37.0342946,70.7362003 C11.9469522,77.194441 39.9506545,81.013108 26.4086147,82.2988513 C17.3805882,83.1560135 8.62802319,75.8080485 0.150919703,60.2549562 C5.13479332,62.0071304 8.05231902,62.6757139 8.90349678,62.2607066 C14.6081557,59.4792963 17.5122933,57.6217861 17.6159096,56.6881761 C18.4940192,48.7761819 19.2280585,42.7557282 19.8180276,38.626815 C19.9740834,37.5346551 20.1290135,36.4691155 20.2848604,35.4297303 C9.95881825,30.7949574 13.571985,20.8922933 22.7480164,22.4854438 C26.2268126,9.12119666 32.6023282,2.37437234 51.2430151,0.108515743 C55.3998798,-0.396769245 58.6421666,0.929178796 62.4352287,2.70319091 Z" id="path-43"></path>
        <rect id="path-45" x="0" y="0" width="151.199991" height="151.199991" rx="11"></rect>
        <path d="M0,62.1208392 C0.305528291,54.5124838 1.71446016,46.1802406 2.78990096,38.6422864 C6.26670729,14.2727375 9.18416635,3.15149933 34.1796981,0.108559211 C38.3319079,-0.396928161 41.5705638,0.929550968 45.3593784,2.70427363 C56.6964302,8.01467423 60.8574963,16.9076262 60.8574963,20.9638081 C60.8574963,25.0199899 60.7451703,30.7744159 61.5191989,32.5580137 C64.3050391,38.9774388 63.0457563,36.1802648 66.2289475,42.4116628 C69.4121386,48.6430608 63.4856535,45.6248241 62.287121,48.0596756 C59.9069558,52.8950464 59.5841285,59.4648725 50.4709616,63.5210543 C41.3577947,67.5772361 30.3466822,62.326518 20.3966724,64.8918501 C-4.66257672,71.3526774 32.2211762,100.432513 1.37487731,66.135566 L0,62.1208392 Z" id="path-47"></path>
        <path d="M11,0 L140.199991,0 C146.275123,-1.11598369e-15 151.199991,4.92486775 151.199991,11 L151.199991,226.119868 C151.199991,232.195001 146.275123,237.119868 140.199991,237.119868 C138.133043,237.119868 136.107915,236.537507 134.356711,235.439529 L5.15671975,154.433173 C1.94811799,152.42143 1.16891705e-14,148.900626 0,145.113512 L0,11 C-7.43989126e-16,4.92486775 4.92486775,1.11598369e-15 11,0 Z" id="path-49"></path>
        <path d="M10.2448344,70.2779404 C10.3372147,67.977459 9.01751437,61.7097781 8.57972171,59.2222902 C7.81307503,54.8662913 -0.322336126,48.6224705 0.284967028,44.5125188 C0.47783085,43.2073041 4.78364832,42.4917491 4.96448498,41.224233 C5.43463014,37.9289026 2.7073287,35.1193934 3.35113144,31.8397671 C3.90743673,29.0058657 7.15861489,25.9238229 7.67362133,23.1781648 C8.40640513,19.2714683 11.0186905,17.0649714 12.6659043,14.2856336 C14.2367903,11.6350832 15.0850601,7.01566104 16.7071308,5.08408541 C21.035941,-0.0706987939 29.2501728,1.8512851 29.3318714,1.82587674 C30.8779386,1.34504774 36.6500121,1.76847077 40.0785045,1.11182061 C44.1831945,0.325660135 50.7738263,0.10079287 52.7272507,1.01579848 C56.3122967,2.69507372 63.1090725,6.51758076 65.114991,8.19520595 C66.950563,9.73036403 67.0651151,15.137613 62.1744371,17.0516573 C64.7650086,20.5371692 65.8574963,23.8854356 65.8574963,25.9638081 C65.8574963,30.0199899 63.9863611,34.6858713 64.7603897,36.4694691 C67.54623,42.8888942 67.6615703,43.7208931 71.1567794,45.9080176 C74.6519885,48.0951421 68.4856535,50.6248241 67.2871211,53.0596756 C64.9069558,57.8950464 64.5841285,64.4648725 55.4709616,68.5210543 C46.3577947,72.5772361 35.3466822,67.326518 25.3966724,69.8918501 C0.337423285,76.3526774 37.2211763,105.432513 6.37487732,71.135566 L10.2448344,70.2779404 Z" id="path-51"></path>
    </defs>
    <g id="Website" stroke="none" stroke-width="1" fill="none" fill-rule="evenodd">
        <g id="Group">
            <mask id="mask-2" fill="white">
                <use xlink:href="#path-1"></use>
            </mask>
            <use id="Mask" fill="#BEEF9E" xlink:href="#path-1"></use>
            <g mask="url(#mask-2)">
                <g transform="translate(-1.000000, -30.000000)">
                    <g id="Group-24" transform="translate(76.199991, 406.000000) scale(-1, 1) translate(-76.199991, -406.000000) translate(0.199991, 330.000000)">
                        <mask id="mask-4" fill="white">
                            <use xlink:href="#path-3"></use>
                        </mask>
                        <use id="Mask" fill="#011638" xlink:href="#path-3"></use>
                        <g mask="url(#mask-4)">
                            <g transform="translate(3.199991, 0.000000)">
                                <g id="Path-55-+-Path-56-Mask" transform="translate(2.850000, 90.517400)">
                                    <mask id="mask-6" fill="white">
                                        <use xlink:href="#path-5"></use>
                                    </mask>
                                    <use id="Mask" fill="#56E49F" transform="translate(72.426190, 37.820219) scale(-1, 1) translate(-72.426190, -37.820219) " xlink:href="#path-5"></use>
                                    <path d="M15.9225841,39.0341025 C8.41499814,66.4974282 10.2627387,53.0257587 9.60876123,79.336114" id="Path-55" stroke="#008BF8" stroke-width="1.39337501" stroke-linecap="round" stroke-linejoin="round" mask="url(#mask-6)"></path>
                                    <path d="M96.0367115,33.195934 C107.843519,67.0114682 104.251432,51.6756665 108.85482,78.6777026" id="Path-56" stroke="#008BF8" stroke-width="1.39337501" stroke-linecap="round" stroke-linejoin="round" mask="url(#mask-6)"></path>
                                </g>
                                <g id="Path-51" transform="translate(55.037588, 56.395688) scale(-1, 1) rotate(-36.000000) translate(-55.037588, -56.395688) translate(18.537588, 13.895688)">
                                    <mask id="mask-8" fill="white">
                                        <use xlink:href="#path-7"></use>
                                    </mask>
                                    <use id="Mask" fill="#FD5200" xlink:href="#path-7"></use>
                                    <path d="M51.5249969,54.1016917 C53.2934208,54.2347158 56.2403382,56.0572599 62.9249962,55.3717722" id="Path-50" stroke="#212121" stroke-width="0.793375153" stroke-linecap="round" stroke-linejoin="round" mask="url(#mask-8)"></path>
                                    <path d="M54.2247889,27.0508458 C64.339983,26.1279311 63.9001906,24.7132937 52.9499968,26.4462724" id="Path-48" stroke="#212121" stroke-width="1.39337501" stroke-linecap="round" stroke-linejoin="round" mask="url(#mask-8)"></path>
                                    <path d="M57.2249966,31.4595191 C59.0698013,33.1285634 58.8252331,33.2662815 58.1484524,31.322032" id="Path-49" stroke="#212121" stroke-width="1.39337501" stroke-linecap="round" stroke-linejoin="round" mask="url(#mask-8)"></path>
                                    <path d="M-0.104168622,56.9491491 C10.9688408,54.6756691 18.9080274,52.6302934 22.6652494,46.8427797 C26.4224714,41.0552659 26.1186774,41.6423258 27.0545496,38.7088634 C27.8702731,36.1520033 24.9083578,36.0137601 27.0508841,34.3871148 C29.6041733,32.4486107 35.7852119,33.5527107 37.4481859,30.8178239 C39.2585011,27.8406234 39.1975214,22.6204099 37.2652471,15.1571831 C43.1441484,14.990492 47.5334486,14.6868961 50.4331478,14.2463955 C52.8508869,13.8791107 55.1070196,12.8099883 57.4439555,12.0917847 L62.9249962,-13.2478516 C37.1392835,-18.6532378 23.9071414,-21.3559309 23.22857,-21.3559309 C22.210713,-21.3559309 -0.182142846,-17.3018912 -0.182142846,-13.2478516 C-0.182142846,-10.5451584 -2.8964284,-5.13977217 -8.3249995,2.96830721 L-8.3249995,24.2520156 L-8.3249995,37.4276446 L-0.104168622,56.9491491 Z" fill="#212121" mask="url(#mask-8)"></path>
                                    <path d="M38.6999977,32.1941107 C24.7847961,24.1090155 17.4099668,39.6250989 33.8665779,44.1355906" id="Path-52" fill="#FD5200" mask="url(#mask-8)"></path>
                                </g>
                            </g>
                        </g>
                    </g>
                    <g id="Group-24" transform="translate(76.199991, 76.000000) scale(-1, 1) translate(-76.199991, -76.000000) translate(0.199991, 0.000000)">
                        <mask id="mask-10" fill="white">
                            <use xlink:href="#path-9"></use>
                        </mask>
                        <use id="Mask" fill="#BEEF9E" xlink:href="#path-9"></use>
                        <g mask="url(#mask-10)">
                            <g transform="translate(3.199991, -9.000000)">
                                <g id="Path-55-+-Path-56-Mask" transform="translate(2.850000, 90.517400)">
                                    <mask id="mask-12" fill="white">
                                        <use xlink:href="#path-11"></use>
                                    </mask>
                                    <use id="Mask" fill="#011638" transform="translate(72.426190, 37.820219) scale(-1, 1) translate(-72.426190, -37.820219) " xlink:href="#path-11"></use>
                                    <path d="M15.9225841,39.0341025 C8.41499814,66.4974282 10.2627387,53.0257587 9.60876123,79.336114" id="Path-55" stroke="#008BF8" stroke-width="1.39337501" stroke-linecap="round" stroke-linejoin="round" mask="url(#mask-12)"></path>
                                    <path d="M96.0367115,33.195934 C107.843519,67.0114682 104.251432,51.6756665 108.85482,78.6777026" id="Path-56" stroke="#008BF8" stroke-width="1.39337501" stroke-linecap="round" stroke-linejoin="round" mask="url(#mask-12)"></path>
                                </g>
                                <g id="Path-51" transform="translate(55.037588, 56.395688) scale(-1, 1) rotate(-36.000000) translate(-55.037588, -56.395688) translate(18.537588, 13.895688)">
                                    <mask id="mask-14" fill="white">
                                        <use xlink:href="#path-13"></use>
                                    </mask>
                                    <use id="Mask" fill="#FD5200" xlink:href="#path-13"></use>
                                    <path d="M51.5249969,54.1016917 C53.2934208,54.2347158 56.2403382,56.0572599 62.9249962,55.3717722" id="Path-50" stroke="#212121" stroke-width="0.793375153" stroke-linecap="round" stroke-linejoin="round" mask="url(#mask-14)"></path>
                                    <path d="M-0.104168622,56.9491491 C10.9688408,54.6756691 18.9080274,52.6302934 22.6652494,46.8427797 C26.4224714,41.0552659 26.1186774,41.6423258 27.0545496,38.7088634 C27.8702731,36.1520033 24.9083578,36.0137601 27.0508841,34.3871148 C29.6041733,32.4486107 35.7852119,33.5527107 37.4481859,30.8178239 C39.2585011,27.8406234 39.1975214,22.6204099 37.2652471,15.1571831 C43.1441484,14.990492 47.5334486,14.6868961 50.4331478,14.2463955 C52.8508869,13.8791107 55.1070196,12.8099883 57.4439555,12.0917847 L62.9249962,-13.2478516 C37.1392835,-18.6532378 23.9071414,-21.3559309 23.22857,-21.3559309 C22.210713,-21.3559309 -0.182142846,-17.3018912 -0.182142846,-13.2478516 C-0.182142846,-10.5451584 -2.8964284,-5.13977217 -8.3249995,2.96830721 L-8.3249995,24.2520156 L-8.3249995,37.4276446 L-0.104168622,56.9491491 Z" fill="#212121" mask="url(#mask-14)"></path>
                                    <path d="M38.6999977,32.1941107 C24.7847961,24.1090155 17.4099668,39.6250989 33.8665779,44.1355906" id="Path-52" fill="#FD5200" mask="url(#mask-14)"></path>
                                </g>
                            </g>
                        </g>
                    </g>
                    <g id="Group-24" transform="translate(402.199991, 76.000000) scale(-1, 1) translate(-402.199991, -76.000000) translate(326.199991, 0.000000)">
                        <mask id="mask-16" fill="white">
                            <use xlink:href="#path-15"></use>
                        </mask>
                        <use id="Mask" fill="#008BF8" xlink:href="#path-15"></use>
                        <g mask="url(#mask-16)">
                            <g transform="translate(3.199991, -9.000000)">
                                <g id="Path-55-+-Path-56-Mask" transform="translate(2.850000, 90.517400)">
                                    <mask id="mask-18" fill="white">
                                        <use xlink:href="#path-17"></use>
                                    </mask>
                                    <use id="Mask" fill="#011638" transform="translate(72.426190, 37.820219) scale(-1, 1) translate(-72.426190, -37.820219) " xlink:href="#path-17"></use>
                                    <path d="M96.0367115,33.195934 C107.843519,67.0114682 104.251432,51.6756665 108.85482,78.6777026" id="Path-56" stroke="#008BF8" stroke-width="1.39337501" stroke-linecap="round" stroke-linejoin="round" mask="url(#mask-18)"></path>
                                </g>
                                <g id="Path-51" transform="translate(55.037588, 56.395688) scale(-1, 1) rotate(-36.000000) translate(-55.037588, -56.395688) translate(18.537588, 13.895688)">
                                    <mask id="mask-20" fill="white">
                                        <use xlink:href="#path-19"></use>
                                    </mask>
                                    <use id="Mask" fill="#FD5200" xlink:href="#path-19"></use>
                                    <path d="M-0.104168622,56.9491491 C10.9688408,54.6756691 18.9080274,52.6302934 22.6652494,46.8427797 C26.4224714,41.0552659 26.1186774,41.6423258 27.0545496,38.7088634 C27.8702731,36.1520033 24.9083578,36.0137601 27.0508841,34.3871148 C29.6041733,32.4486107 35.7852119,33.5527107 37.4481859,30.8178239 C39.2585011,27.8406234 39.1975214,22.6204099 37.2652471,15.1571831 C43.1441484,14.990492 47.5334486,14.6868961 50.4331478,14.2463955 C52.8508869,13.8791107 55.1070196,12.8099883 57.4439555,12.0917847 L62.9249962,-13.2478516 C37.1392835,-18.6532378 23.9071414,-21.3559309 23.22857,-21.3559309 C22.210713,-21.3559309 -0.182142846,-17.3018912 -0.182142846,-13.2478516 C-0.182142846,-10.5451584 -2.8964284,-5.13977217 -8.3249995,2.96830721 L-8.3249995,24.2520156 L-8.3249995,37.4276446 L-0.104168622,56.9491491 Z" fill="#212121" mask="url(#mask-20)"></path>
                                    <path d="M38.6999977,32.1941107 C24.7847961,24.1090155 17.4099668,39.6250989 33.8665779,44.1355906" id="Path-52" fill="#FD5200" mask="url(#mask-20)"></path>
                                </g>
                            </g>
                        </g>
                    </g>
                    <g id="Group-24" transform="translate(239.199991, 76.000000) scale(-1, 1) translate(-239.199991, -76.000000) translate(163.199991, 0.000000)">
                        <mask id="mask-22" fill="white">
                            <use xlink:href="#path-21"></use>
                        </mask>
                        <use id="Mask" fill="#044917" xlink:href="#path-21"></use>
                        <g mask="url(#mask-22)">
                            <g transform="translate(18.000000, 30.000000)">
                                <g id="Path-55-+-Path-56-Mask" transform="translate(6.450000, 95.917399)">
                                    <mask id="mask-24" fill="white">
                                        <use xlink:href="#path-23"></use>
                                    </mask>
                                    <use id="Mask" fill="#00B832" transform="translate(62.648802, 37.902814) scale(-1, 1) translate(-62.648802, -37.902814) " xlink:href="#path-23"></use>
                                    <path d="M6.72209422,42.8957181 C-2.88431208,61.2999106 -6.58408682,51.65769 -14.3137646,41.7427492 C-17.0711053,38.2058786 -20.4609908,35.2112 -23.534604,31.9454253" id="Path-2" stroke="#0202C8" stroke-width="1.39337501" stroke-linecap="round" stroke-linejoin="round" mask="url(#mask-24)"></path>
                                    <path d="M6.32258469,30.034103 C-1.18500129,57.4974288 0.662739293,44.0257593 0.00876180154,70.3361146" id="Path-55" stroke="#008BF8" stroke-width="1.39337501" stroke-linecap="round" stroke-linejoin="round" mask="url(#mask-24)"></path>
                                    <path d="M86.4367121,24.1959345 C98.2435195,58.0114688 94.6514327,42.675667 99.2548201,69.6777031" id="Path-56" stroke="#008BF8" stroke-width="1.39337501" stroke-linecap="round" stroke-linejoin="round" mask="url(#mask-24)"></path>
                                    <path d="M14.5499991,31.3959341 C26.3568065,65.2114683 22.7647198,49.8756666 27.3681071,76.8777027" id="Path-56" stroke="#008BF8" stroke-width="1.39337501" stroke-linecap="round" stroke-linejoin="round" mask="url(#mask-24)" transform="translate(20.959053, 54.136818) rotate(24.000000) translate(-20.959053, -54.136818) "></path>
                                </g>
                                <g id="Path-51" transform="translate(58.767265, 58.628644) scale(-1, 1) rotate(-36.000000) translate(-58.767265, -58.628644) translate(16.767265, 17.128644)">
                                    <mask id="mask-26" fill="white">
                                        <use xlink:href="#path-25"></use>
                                    </mask>
                                    <use id="Combined-Shape" fill="#FD5200" xlink:href="#path-25"></use>
                                    <path d="M28.475991,59.2251045 C35.2630051,62.6525536 40.0520239,59.9141836 45.4328372,55.2396088" id="Path-58" stroke="#212121" stroke-width="1.39337501" stroke-linecap="round" stroke-linejoin="round" mask="url(#mask-26)" transform="translate(36.954414, 58.000329) rotate(47.000000) translate(-36.954414, -58.000329) "></path>
                                    <path d="M30.4936817,49.4314171 C31.7546282,49.5330043 32.2519429,50.2877333 31.985626,51.6956042 C37.9974831,34.937884 41.4993479,26.1309215 42.4912204,25.2747167 C44.8348632,23.251636 61.0864329,27.0646546 63.9567587,26.3340885 C68.3511577,25.2156096 81.4454684,16.6604754 83.748651,30.4410507 C84.5458728,35.2110485 85.3571118,42.4197852 86.1823678,52.0672608 L87.80348,53.2827536 C88.6449576,53.5365196 89.6072312,53.6340655 90.4393238,53.3510397 C101.573441,49.5639091 102.142452,34.4856462 100.982699,25.1010771 C97.9873555,0.863150857 73.8158069,-20.2946323 49.8227472,-5.10733097 C44.9404074,-2.01687204 36.2713407,6.58061083 34.0076848,12.8696696 C28.6771028,27.6794924 16.4720924,29.3658058 15.5854697,43.6262279 L30.4936817,49.4314171 Z" id="Path-57" fill="#011638" mask="url(#mask-26)" transform="translate(58.494333, 21.649098) rotate(33.000000) translate(-58.494333, -21.649098) "></path>
                                    <path d="M53.6926967,49.2815468 C63.8078908,48.3586321 63.3680984,46.9439946 52.4179046,48.6769734" id="Path-48" stroke="#212121" stroke-width="1.39337501" stroke-linecap="round" stroke-linejoin="round" mask="url(#mask-26)" transform="translate(56.692904, 48.569682) rotate(56.000000) translate(-56.692904, -48.569682) "></path>
                                    <path d="M40.1589471,52.1128201 C38.5667708,70.0632708 38.5509042,66.4388919 33.0130714,51.8473811" id="Path" stroke="#212121" stroke-width="1.39337501" fill="#FD5200" stroke-linecap="round" stroke-linejoin="round" mask="url(#mask-26)" transform="translate(36.586009, 58.037014) rotate(33.000000) translate(-36.586009, -58.037014) "></path>
                                    <path d="M33.6885036,35.9837177 C43.8036977,35.060803 43.3639053,33.6461656 32.4137115,35.3791443" id="Path-48" stroke="#212121" stroke-width="1.39337501" stroke-linecap="round" stroke-linejoin="round" mask="url(#mask-26)" transform="translate(36.688711, 35.271853) rotate(38.000000) translate(-36.688711, -35.271853) "></path>
                                    <path d="M47.485486,53.2937343 C49.8157656,56.1072661 49.5068374,56.3394195 48.6519565,53.0619703" id="Path-49" stroke="#212121" stroke-width="1.39337501" stroke-linecap="round" stroke-linejoin="round" mask="url(#mask-26)"></path>
                                    <path d="M35.4517276,42.9688922 C37.2965323,44.6379366 37.0519641,44.7756547 36.3751834,42.8314052" id="Path-49" stroke="#212121" stroke-width="1.39337501" stroke-linecap="round" stroke-linejoin="round" mask="url(#mask-26)"></path>
                                </g>
                            </g>
                        </g>
                    </g>
                    <g id="Group-24" transform="translate(326.199991, 165.000000)">
                        <mask id="mask-28" fill="white">
                            <use xlink:href="#path-27"></use>
                        </mask>
                        <use id="Mask" fill="#038225" xlink:href="#path-27"></use>
                        <g mask="url(#mask-28)">
                            <g transform="translate(0.000000, -3.000000)">
                                <g id="Path-55-+-Path-56-Mask" transform="translate(6.450000, 98.917399)">
                                    <mask id="mask-30" fill="white">
                                        <use xlink:href="#path-29"></use>
                                    </mask>
                                    <use id="Mask" fill="#044917" transform="translate(62.648802, 37.902814) scale(-1, 1) translate(-62.648802, -37.902814) " xlink:href="#path-29"></use>
                                    <path d="M6.72209422,42.8957181 C-2.88431208,61.2999106 -6.58408682,51.65769 -14.3137646,41.7427492 C-17.0711053,38.2058786 -20.4609908,35.2112 -23.534604,31.9454253" id="Path-2" stroke="#0202C8" stroke-width="1.39337501" stroke-linecap="round" stroke-linejoin="round" mask="url(#mask-30)"></path>
                                    <path d="M6.32258469,30.034103 C-1.18500129,57.4974288 0.662739293,44.0257593 0.00876180154,70.3361146" id="Path-55" stroke="#008BF8" stroke-width="1.39337501" stroke-linecap="round" stroke-linejoin="round" mask="url(#mask-30)"></path>
                                    <path d="M86.4367121,24.1959345 C98.2435195,58.0114688 94.6514327,42.675667 99.2548201,69.6777031" id="Path-56" stroke="#008BF8" stroke-width="1.39337501" stroke-linecap="round" stroke-linejoin="round" mask="url(#mask-30)"></path>
                                    <path d="M14.5499991,31.3959341 C26.3568065,65.2114683 22.7647198,49.8756666 27.3681071,76.8777027" id="Path-56" stroke="#008BF8" stroke-width="1.39337501" stroke-linecap="round" stroke-linejoin="round" mask="url(#mask-30)" transform="translate(20.959053, 54.136818) rotate(24.000000) translate(-20.959053, -54.136818) "></path>
                                </g>
                                <g id="Path-51" transform="translate(59.942835, 60.010610) scale(-1, 1) rotate(-36.000000) translate(-59.942835, -60.010610) translate(17.942835, 16.510610)">
                                    <mask id="mask-32" fill="white">
                                        <use xlink:href="#path-31"></use>
                                    </mask>
                                    <use id="Combined-Shape" fill="#FD5200" xlink:href="#path-31"></use>
                                    <path d="M34.0671477,62.1172274 C40.8541618,65.5446764 45.6431806,62.8063064 51.0239939,58.1317317" id="Path-58" stroke="#212121" stroke-width="1.39337501" stroke-linecap="round" stroke-linejoin="round" mask="url(#mask-32)" transform="translate(42.545571, 60.892452) rotate(47.000000) translate(-42.545571, -60.892452) "></path>
                                    <path d="M70.2326831,-8.48687721 L70.6017241,-8.48599425 C98.9955943,-8.15558002 107.744206,22.7535989 97.0553915,44.7126151 C92.9168394,53.2148237 84.2274166,65.5506138 72.8269409,62.6626937 C71.9749424,62.4468691 71.2210391,61.8409684 70.6535276,61.1698408 L70.6535276,61.1698408 L69.9559533,59.2675218 C74.5182272,50.7270013 77.7640243,44.2394136 79.6933448,39.8047587 C85.2671726,26.9929927 69.6258996,27.0362592 65.3312792,25.5809333 C62.5261266,24.6303461 50.9731322,12.5812403 47.9057392,13.0014992 C46.6722409,13.170499 39.6286701,18.1254624 26.7750269,27.8663894 C26.8684468,30.0244785 27.0817126,32.9349336 27.4141573,36.5978547 C28.0547153,43.6556098 32.1988475,48.7266114 39.8465539,51.8108594 C44.5531681,54.4063695 48.6719969,57.8108965 52.2030406,62.0244405 C55.7340842,66.2379845 63.4027619,61.9210611 75.2090736,49.0736704 C65.1884745,60.6894469 58.6975334,67.9221593 55.7362503,70.7718075 C47.3392956,78.8522123 42.8177211,81.7957329 32.6543073,78.7231538 C17.1145254,74.0252039 11.6936094,63.906338 16.3915593,48.3665561 L16.3915593,48.3665561 L20.0353778,39.7844995 C21.6558435,33.6288016 22.9887436,28.9733435 24.0340781,25.8181254 L15.3457287,13.7384495 C23.8560955,2.2615425 35.0105106,7.49460617 47.5471205,-2.02271331 C52.870849,-6.06428641 64.8238649,-8.55323014 70.6017241,-8.48599425 Z" id="Combined-Shape" fill-opacity="0.158080201" fill="#011638" mask="url(#mask-32)"></path>
                                    <path d="M62.4517682,50.5222174 C72.5669622,49.5993027 72.1271699,48.1846652 61.1769761,49.917644" id="Path-48" stroke="#212121" stroke-width="1.39337501" stroke-linecap="round" stroke-linejoin="round" mask="url(#mask-32)" transform="translate(65.451976, 49.810353) rotate(56.000000) translate(-65.451976, -49.810353) "></path>
                                    <path d="M55.1354687,44.3778865 C56.8868649,51.9316015 50.8281889,67.7665485 45.2903561,53.1750378" id="Path" stroke="#212121" stroke-width="1.39337501" fill="#FD5200" stroke-linecap="round" stroke-linejoin="round" mask="url(#mask-32)"></path>
                                    <path d="M43.0353615,36.4153722 C53.1505555,35.4924575 52.7107631,34.07782 41.7605694,35.8107988" id="Path-48" stroke="#212121" stroke-width="1.39337501" stroke-linecap="round" stroke-linejoin="round" mask="url(#mask-32)" transform="translate(46.035569, 35.703508) rotate(38.000000) translate(-46.035569, -35.703508) "></path>
                                    <path d="M58.7319189,52.3624215 C61.0621985,55.1759534 60.7532703,55.4081068 59.8983894,52.1306576" id="Path-49" stroke="#212121" stroke-width="1.39337501" stroke-linecap="round" stroke-linejoin="round" mask="url(#mask-32)"></path>
                                    <path d="M44.4430523,42.3768563 C46.287857,44.0459006 46.0432888,44.1836187 45.3665081,42.2393692" id="Path-49" stroke="#212121" stroke-width="1.39337501" stroke-linecap="round" stroke-linejoin="round" mask="url(#mask-32)"></path>
                                </g>
                            </g>
                        </g>
                    </g>
                    <g id="Group-24" transform="translate(163.199991, 165.000000)">
                        <mask id="mask-34" fill="white">
                            <use xlink:href="#path-33"></use>
                        </mask>
                        <use id="Mask" fill="#00B832" xlink:href="#path-33"></use>
                        <path d="M55.6863779,68.5739455 L33.033902,52.1159584 C64.9991506,19.282764 89.6317674,10.2191608 106.931752,24.9251487 C124.231737,39.6311365 121.712252,64.76087 99.3732955,100.314349 L55.6863779,68.5739455 Z" id="Path-59" fill="#011638" mask="url(#mask-34)" transform="translate(75.645620, 59.207836) rotate(-37.000000) translate(-75.645620, -59.207836) "></path>
                        <g mask="url(#mask-34)">
                            <g transform="translate(67.000000, 87.000000) scale(-1, 1) translate(-67.000000, -87.000000) translate(0.000000, 2.000000)">
                                <g id="Path-55-+-Path-56-Mask" transform="translate(7.450000, 90.917399)">
                                    <mask id="mask-36" fill="white">
                                        <use xlink:href="#path-35"></use>
                                    </mask>
                                    <use id="Mask" fill="#BEEF9E" transform="translate(62.648802, 39.854647) scale(-1, 1) translate(-62.648802, -39.854647) " xlink:href="#path-35"></use>
                                    <path d="M76.9473208,-12.7100499 C65.3146845,2.631349 53.1599856,15.1676962 38.3245073,5.66380229 C36.0675183,4.21793155 34.54489,-0.482870804 32.1941983,-1.24463919 L26.1504228,-12.8655454 C8.6330315,-18.5422552 24.6833316,0.382226334 30.3481489,5.19414252 C36.5370334,10.4512217 43.0325912,14.9507552 49.7435441,16.9705442 C55.3822288,18.6676136 61.1782634,17.0196746 66.8720993,16.1867201 C69.4332746,15.8120442 71.9997286,14.9202542 74.4293638,13.3592413 C78.4716996,10.7620866 82.000067,2.14775492 86.1843544,3.77881642 C90.0473904,5.2846521 78.5276697,23.189887 78.459113,23.250657 C67.8421396,32.6617618 61.9816737,32.8526144 49.911521,29.6894387 C45.0977954,28.4279253 40.2908575,26.2813147 35.8048536,22.7809972 C31.7469411,19.6147089 28.0072464,14.9933471 24.5537937,9.90343382 C21.8787552,5.96079577 20.9661451,-4.84222214 17.5852968,-4.072118 C14.8509224,-3.44927047 17.2601436,6.57956777 18.3403445,11.3187599 C19.6224315,16.9436919 21.6669303,22.368163 24.3858168,25.7639715 C37.7647916,42.4739141 50.4340572,43.882152 66.5361455,41.4690137 C74.1919726,40.3216738 83.4894586,22.2710831 89.0382653,32.2027532 C99.3054286,50.579692 51.6640616,53.8790534 47.895798,52.9312511 C25.9227065,47.4045286 25.682608,24.5474046 6.92130773,2.99499233 C4.92398204,0.700525189 7.45199796,11.8230512 8.34995989,15.8725557 C9.85673235,22.66759 11.2522734,30.0331724 14.0594783,35.1857275 C17.4817499,41.4672223 22.0363343,45.2947984 26.4015398,49.0057839 C31.6308258,53.4513488 37.0238795,57.7630818 42.6902104,59.5255282 C49.9557516,61.7853904 57.5009598,63.1236214 64.7732362,60.9408543 C73.6172154,58.2863422 81.3740749,46.656715 90.2989405,45.2358121 C96.6926692,44.2178844 78.8040685,56.1823776 72.6664545,59.6841971 C66.5175216,63.1924747 60.0906903,64.999048 53.6901533,66.1229788 C47.2249347,67.2582676 40.5955085,68.6435954 34.2099212,66.4371431 C26.4453546,63.7542034 19.080772,57.7160356 11.8757784,51.6745938 C5.48339473,46.3145316 -12.8215915,27.0038328 -6.42861523,32.3614221 C20.4606578,54.8957899 39.7269364,77.9166194 70.5658947,64.7076527 C78.07634,61.4907729 95.4798392,38.9976069 92.7337574,52.4615913 C89.2606099,69.4903647 76.1711691,71.7739003 67.4591702,79.9398618 C41.7290778,104.057283 14.357575,61.9186713 -8.27636131,48.5329507 C-9.81100418,47.6253622 -8.1397847,54.9079541 -7.18366298,57.3295514 C-4.00834557,65.3717703 -0.349040152,72.8865731 3.81458316,79.1560377 C6.35942513,82.9879878 9.49918669,85.4242799 12.6308261,87.165641 C17.8502596,90.0679285 23.2411602,92.1484463 28.6683798,92.976094 C37.7073833,94.3545367 46.8065854,94.2264083 55.8721564,93.7599181 C60.0714804,93.5438321 64.3280115,92.9791018 68.3838916,90.9324393 C73.9439645,88.1267369 79.4841567,84.588301 84.5045853,79.3115332 C90.6341156,72.8690336 95.8681953,63.8191072 101.55,56.0728942" id="Path-60" stroke="#044917" stroke-width="2.32229183" stroke-linecap="round" stroke-linejoin="round" mask="url(#mask-36)" transform="translate(46.325851, 40.082601) rotate(-98.000000) translate(-46.325851, -40.082601) "></path>
                                    <path d="M6.72209422,45.8957181 C-2.88431208,64.2999106 -6.58408682,54.65769 -14.3137646,44.7427492 C-17.0711053,41.2058786 -20.4609908,38.2112 -23.534604,34.9454253" id="Path-2" stroke="#0202C8" stroke-width="1.39337501" stroke-linecap="round" stroke-linejoin="round" mask="url(#mask-36)"></path>
                                    <path d="M6.32258469,33.034103 C-1.18500129,60.4974288 0.662739293,47.0257593 0.00876180154,73.3361146" id="Path-55" stroke="#008BF8" stroke-width="1.39337501" stroke-linecap="round" stroke-linejoin="round" mask="url(#mask-36)"></path>
                                    <path d="M86.4367121,27.1959345 C98.2435195,61.0114688 94.6514327,45.675667 99.2548201,72.6777031" id="Path-56" stroke="#212121" stroke-width="1.39337501" stroke-linecap="round" stroke-linejoin="round" mask="url(#mask-36)"></path>
                                    <path d="M14.5499991,34.3959341 C26.3568065,68.2114683 22.7647198,52.8756666 27.3681071,79.8777027" id="Path-56" stroke="#212121" stroke-width="1.39337501" stroke-linecap="round" stroke-linejoin="round" mask="url(#mask-36)" transform="translate(20.959053, 57.136818) rotate(24.000000) translate(-20.959053, -57.136818) "></path>
                                </g>
                                <g id="Path-51" transform="translate(58.591694, 58.246678) scale(-1, 1) rotate(-36.000000) translate(-58.591694, -58.246678) translate(16.591694, 17.746678)">
                                    <mask id="mask-38" fill="white">
                                        <use xlink:href="#path-37"></use>
                                    </mask>
                                    <use id="Combined-Shape" fill="#FFB998" xlink:href="#path-37"></use>
                                    <path d="M33.8704395,54.9743105 C40.6574535,58.4017595 45.4464723,55.6633895 50.8272857,50.9888148" id="Path-58" stroke="#212121" stroke-width="1.39337501" stroke-linecap="round" stroke-linejoin="round" mask="url(#mask-38)" transform="translate(42.348863, 53.749535) rotate(47.000000) translate(-42.348863, -53.749535) "></path>
                                    <path d="M33.7358016,38.9953818 C34.9967481,39.096969 35.4940629,39.851698 35.2277459,41.2595689 C36.7808202,47.0557382 38.0532935,49.5257204 39.045166,48.6695156 C41.3888088,46.6464349 63.3220442,24.9075043 65.1057131,9.98039721 C65.5493738,6.26750528 86.5645419,20.4767001 88.8677245,34.2572754 C89.6649464,39.0272732 89.8505341,41.4852566 89.4244877,41.6312256 L91.0455999,42.8467183 C91.8870775,43.1004844 92.8493511,43.1980303 93.6814437,42.9150044 C104.815561,39.1278738 105.384572,24.0496109 104.224819,14.6650419 C101.229475,-9.57288441 77.0579268,-30.7306676 53.0648671,-15.5433662 C48.1825273,-12.4529073 39.5134606,-3.85542444 37.2498047,2.43363434 C31.9192227,17.2434572 19.7142123,18.9297706 18.8275896,33.1901927 L33.7358016,38.9953818 Z" id="Path-57" fill="#011638" mask="url(#mask-38)" transform="translate(61.736453, 14.087038) rotate(33.000000) translate(-61.736453, -14.087038) "></path>
                                    <path d="M62.4517682,43.5222174 C72.5669622,42.5993027 72.1271699,41.1846652 61.1769761,42.917644" id="Path-48" stroke="#212121" stroke-width="1.39337501" stroke-linecap="round" stroke-linejoin="round" mask="url(#mask-38)" transform="translate(65.451976, 42.810353) rotate(56.000000) translate(-65.451976, -42.810353) "></path>
                                    <path d="M52.4362318,46.4404768 C51.8200127,53.5100865 43.1420575,48.4412509 45.2903561,46.1750378" id="Path" stroke="#212121" stroke-width="1.39337501" fill="#FFB998" stroke-linecap="round" stroke-linejoin="round" mask="url(#mask-38)"></path>
                                    <path d="M43.0353615,29.4153722 C53.1505555,28.4924575 52.7107631,27.07782 41.7605694,28.8107988" id="Path-48" stroke="#212121" stroke-width="1.39337501" stroke-linecap="round" stroke-linejoin="round" mask="url(#mask-38)" transform="translate(46.035569, 28.703508) rotate(38.000000) translate(-46.035569, -28.703508) "></path>
                                    <path d="M58.7319189,45.3624215 C61.0621985,48.1759534 60.7532703,48.4081068 59.8983894,45.1306576" id="Path-49" stroke="#212121" stroke-width="1.39337501" stroke-linecap="round" stroke-linejoin="round" mask="url(#mask-38)"></path>
                                    <path d="M44.4430523,35.3768563 C46.287857,37.0459006 46.0432888,37.1836187 45.3665081,35.2393692" id="Path-49" stroke="#212121" stroke-width="1.39337501" stroke-linecap="round" stroke-linejoin="round" mask="url(#mask-38)"></path>
                                </g>
                            </g>
                        </g>
                    </g>
                    <g id="Group-24" transform="translate(163.199991, 330.000000)">
                        <mask id="mask-40" fill="white">
                            <use xlink:href="#path-39"></use>
                        </mask>
                        <use id="Mask" fill="#F5B700" xlink:href="#path-39"></use>
                        <g mask="url(#mask-40)">
                            <g transform="translate(18.800009, 0.000000)">
                                <g id="Path-55-+-Path-56-Mask" transform="translate(6.450000, 95.917399)">
                                    <mask id="mask-42" fill="white">
                                        <use xlink:href="#path-41"></use>
                                    </mask>
                                    <use id="Mask" fill="#00B832" transform="translate(62.962154, 47.084987) scale(-1, 1) translate(-62.962154, -47.084987) " xlink:href="#path-41"></use>
                                    <path d="M6.72209422,42.8957181 C-2.88431208,61.2999106 -6.58408682,51.65769 -14.3137646,41.7427492 C-17.0711053,38.2058786 -20.4609908,35.2112 -23.534604,31.9454253" id="Path-2" stroke="#0202C8" stroke-width="1.39337501" stroke-linecap="round" stroke-linejoin="round" mask="url(#mask-42)"></path>
                                    <path d="M6.32258469,30.034103 C-1.18500129,57.4974288 0.662739293,44.0257593 0.00876180154,70.3361146" id="Path-55" stroke="#008BF8" stroke-width="1.39337501" stroke-linecap="round" stroke-linejoin="round" mask="url(#mask-42)"></path>
                                    <path d="M86.4367121,24.1959345 C98.2435195,58.0114688 94.6514327,42.675667 99.2548201,69.6777031" id="Path-56" stroke="#008BF8" stroke-width="1.39337501" stroke-linecap="round" stroke-linejoin="round" mask="url(#mask-42)"></path>
                                    <path d="M14.5499991,31.3959341 C26.3568065,65.2114683 22.7647198,49.8756666 27.3681071,76.8777027" id="Path-56" stroke="#008BF8" stroke-width="1.39337501" stroke-linecap="round" stroke-linejoin="round" mask="url(#mask-42)" transform="translate(20.959053, 54.136818) rotate(24.000000) translate(-20.959053, -54.136818) "></path>
                                </g>
                                <g id="Path-51" transform="translate(58.767265, 58.628644) scale(-1, 1) rotate(-36.000000) translate(-58.767265, -58.628644) translate(16.767265, 17.128644)">
                                    <mask id="mask-44" fill="white">
                                        <use xlink:href="#path-43"></use>
                                    </mask>
                                    <use id="Combined-Shape" fill="#FF7A3A" xlink:href="#path-43"></use>
                                    <path d="M36.8731535,55.0711062 C43.6601676,58.4985552 48.4491864,55.7601852 53.8299997,51.0856105" id="Path-58" stroke="#212121" stroke-width="1.39337501" stroke-linecap="round" stroke-linejoin="round" mask="url(#mask-44)" transform="translate(45.351577, 53.846331) rotate(47.000000) translate(-45.351577, -53.846331) "></path>
                                    <path d="M35.3010811,42.4590388 C36.5620276,42.5606259 37.0593424,43.315355 36.7930255,44.7232258 C42.8048825,27.9655056 46.3067473,19.1585432 47.2986198,18.3023384 C49.6422626,16.2792576 65.8938323,20.0922762 68.7641581,19.3617102 C73.1585571,18.2432313 86.2528678,9.68809707 88.5560504,23.4686724 C89.3532722,28.2386701 90.1645112,35.4474069 90.9897673,45.0948825 L92.6108794,46.3103752 C93.452357,46.5641413 94.4146306,46.6616872 95.2467232,46.3786613 C106.380841,42.5915308 106.949851,27.5132679 105.790098,18.1286988 C102.794755,-6.1092275 78.6232063,-27.2670107 54.6301466,-12.0797093 C49.7478068,-8.98925039 41.0787402,-0.391767526 38.8150842,5.89729125 C33.4845022,20.7071141 21.2794918,22.3934275 20.3928691,36.6538496 L35.3010811,42.4590388 Z" id="Path-57" fill="#011638" mask="url(#mask-44)" transform="translate(63.301733, 14.676719) rotate(33.000000) translate(-63.301733, -14.676719) "></path>
                                    <path d="M62.4517682,46.5222174 C72.5669622,45.5993027 72.1271699,44.1846652 61.1769761,45.917644" id="Path-48" stroke="#212121" stroke-width="1.39337501" stroke-linecap="round" stroke-linejoin="round" mask="url(#mask-44)" transform="translate(65.451976, 45.810353) rotate(56.000000) translate(-65.451976, -45.810353) "></path>
                                    <path d="M52.4362318,49.4404768 C50.8440554,67.3909274 50.8281889,63.7665485 45.2903561,49.1750378" id="Path" stroke="#212121" stroke-width="1.39337501" fill="#FF7A3A" stroke-linecap="round" stroke-linejoin="round" mask="url(#mask-44)"></path>
                                    <path d="M43.0353615,32.4153722 C53.1505555,31.4924575 52.7107631,30.07782 41.7605694,31.8107988" id="Path-48" stroke="#212121" stroke-width="1.39337501" stroke-linecap="round" stroke-linejoin="round" mask="url(#mask-44)" transform="translate(46.035569, 31.703508) rotate(38.000000) translate(-46.035569, -31.703508) "></path>
                                    <path d="M58.7319189,48.3624215 C61.0621985,51.1759534 60.7532703,51.4081068 59.8983894,48.1306576" id="Path-49" stroke="#212121" stroke-width="1.39337501" stroke-linecap="round" stroke-linejoin="round" mask="url(#mask-44)"></path>
                                    <path d="M44.4430523,38.3768563 C46.287857,40.0459006 46.0432888,40.1836187 45.3665081,38.2393692" id="Path-49" stroke="#212121" stroke-width="1.39337501" stroke-linecap="round" stroke-linejoin="round" mask="url(#mask-44)"></path>
                                </g>
                            </g>
                        </g>
                        <polygon id="Path-61" fill="#BDC2BF" mask="url(#mask-40)" points="-3.19999099 115 60.800009 115 83.800009 166 -3.19999099 166"></polygon>
                    </g>
                    <g id="Group-23" transform="translate(0.199991, 165.000000)">
                        <mask id="mask-46" fill="white">
                            <use xlink:href="#path-45"></use>
                        </mask>
                        <use id="Mask" fill="#F5B700" xlink:href="#path-45"></use>
                        <g mask="url(#mask-46)">
                            <g transform="translate(9.599999, 10.199999)">
                                <path d="M101.683009,47.2786106 C101.197303,67.4613449 114.048345,93.1204069 100.22589,107.826814 C88.8077191,119.97518 66.9114619,105.10131 50.6133941,101.614146 C49.187469,101.309053 50.3149154,98.6344097 50.7401558,97.2387576 C54.7037777,84.2300291 58.829393,71.2499892 63.7300329,58.564935 C70.2295885,41.7411699 82.0787903,26.3696917 97.9769602,18.3708231 C100.784906,16.9580574 102.020256,26.5939865 101.683009,47.2786106 Z" id="Path-47" fill="#212121"></path>
                                <path d="M0,135.995523 C5.19360167,119.734142 3.39650913,93.5347923 24.069526,87.7394296 C43.1362655,82.394362 69.3666223,88.1471071 88.1227136,94.8609245 C100.990657,99.4670558 109.914512,100.649984 112.296969,114.508962 C113.773186,123.096255 121.672199,134.656479 115.201186,140.487165 C105.359737,149.35477 89.2108812,145.815254 76.0378335,147.180138 C66.4545092,148.173084 8.41653767,158.944923 1.93495878,140.574364 L0,135.995523 Z" id="Path-53" fill="#044917"></path>
                                <path d="M78.3822887,72.0721408 C74.5865442,80.6179347 74.5865442,86.3151306 78.3822887,89.1637285 C82.1780331,92.0123265 85.9737776,93.9113918 89.769522,94.8609245 C81.229097,108.154382 70.3163317,112.427279 57.0312261,107.679615 C43.7461205,102.931952 38.0525038,93.4366255 39.9503761,79.1936357 L69.8418637,52.131955 L78.3822887,72.0721408 Z" id="Path-54" fill="#FD5200"></path>
                                <g id="Path-51" stroke-width="1" fill="none" transform="translate(81.950754, 52.791508) rotate(29.000000) translate(-81.950754, -52.791508) translate(47.950754, 11.291508)">
                                    <mask id="mask-48" fill="white">
                                        <use xlink:href="#path-47"></use>
                                    </mask>
                                    <use id="Mask" fill="#FD5200" xlink:href="#path-47"></use>
                                    <path d="M51.2425501,54.1233613 C53.0089937,54.2564387 55.9526111,56.0797127 62.6297835,55.3939505" id="Path-50" stroke="#212121" stroke-width="0.793375153" stroke-linecap="round" stroke-linejoin="round" mask="url(#mask-48)"></path>
                                    <path d="M49.491127,27.1324145 C59.5949939,26.2091301 59.155694,24.793926 48.2177624,26.5275989" id="Path-48" stroke="#212121" stroke-width="1.39337501" stroke-linecap="round" stroke-linejoin="round" mask="url(#mask-48)"></path>
                                    <path d="M54.750844,32.6842255 C56.5935828,34.3539383 56.3492885,34.4917116 55.6732656,32.5466833" id="Path-49" stroke="#212121" stroke-width="1.39337501" stroke-linecap="round" stroke-linejoin="round" mask="url(#mask-48)"></path>
                                    <path d="M-0.328799998,56.9719592 C10.7318096,54.6975686 18.6621058,52.6513736 22.4151203,46.8615418 C26.1681349,41.07171 25.8646812,41.659005 26.7995053,38.7243676 C27.6143154,36.1664834 24.6557169,36.0281848 26.7958439,34.400888 C29.3462739,32.4616075 35.5203909,33.5661497 37.1815026,30.8301675 C39.8939345,26.3625781 48.0048303,24.7032737 50.0726948,22.0602451 C52.1405593,19.4172165 54.8205616,12.8151192 57.1548805,12.0966279 L62.6297835,-13.2531578 C36.8729461,-18.6607091 23.6556217,-21.3644847 22.9778102,-21.3644847 C21.9610929,-21.3644847 -0.406686906,-17.3088212 -0.406686906,-13.2531578 C-0.406686906,-10.5493821 -3.11793294,-5.14183082 -8.54042502,2.96949612 L-8.54042502,24.2617293 L-8.54042502,37.4426356 L-0.328799998,56.9719592 Z" fill="#212121" mask="url(#mask-48)"></path>
                                    <path d="M38.4319126,32.2070056 C24.5322936,24.118672 17.1657227,39.6409701 33.6039054,44.1532684" id="Path-52" fill="#FD5200" mask="url(#mask-48)"></path>
                                </g>
                                <path d="M70.3681177,47.2786106 C69.8824111,67.4613449 82.7334537,93.1204069 68.9109979,107.826814 C57.4928274,119.97518 35.5965702,105.10131 19.2985023,101.614146 C17.8725772,101.309053 19.0000236,98.6344097 19.425264,97.2387576 C23.3888859,84.2300291 27.5145013,71.2499892 32.4151412,58.564935 C40.6366307,37.2840323 57.4178247,18.3268621 80.1262107,13.6758826" id="Path-47" fill="#212121"></path>
                            </g>
                        </g>
                    </g>
                    <g id="Group-23" transform="translate(402.199991, 453.000000) scale(-1, 1) translate(-402.199991, -453.000000) translate(326.199991, 330.000000)">
                        <mask id="mask-50" fill="white">
                            <use xlink:href="#path-49"></use>
                        </mask>
                        <use id="Mask" fill="#044917" xlink:href="#path-49"></use>
                        <g mask="url(#mask-50)">
                            <g transform="translate(16.599999, 7.199999)">
                                <path d="M0.2650508,145.22116 C3.5659226,134.885994 0.528544246,127.945169 10.2000096,116.800001 C15.7456571,110.409327 24.6660401,99.9120332 32.2000096,97.8000006 C51.2667491,92.454933 64.8439002,82.0861832 83.5999916,88.8000006 C96.4679348,93.406132 93.2175345,112.941023 95.5999916,126.800001 C97.0762086,135.387294 124.071005,102.969315 117.599992,108.800001 C114.826231,111.299289 128.236588,109.553806 125.599992,121.800001 C118.881806,153.003945 96.0602846,213.819802 86.5999916,214.800001 C77.0166672,215.792946 8.68158847,168.170559 2.20000958,149.800001 L0.2650508,145.22116 Z" id="Path-53" fill="#038225"></path>
                                <path d="M71.3822887,75.0721408 C67.5865442,83.6179347 67.5865442,89.3151306 71.3822887,92.1637285 C75.1780331,95.0123265 78.9737776,96.9113918 82.769522,97.8609245 C73.6749527,117.901305 62.4851152,125.547664 49.2000096,120.800001 C35.914904,116.052337 30.2482373,108.385671 32.2000096,97.8000006 C38.1941335,95.9611868 41.8608002,93.9611868 43.2000096,91.8000006 C44.9255194,89.0154114 45.0936848,68.7330073 47.2000096,65.8000006 C51.7584879,59.4524291 56.9724392,55.896414 62.8418637,55.131955 L71.3822887,75.0721408 Z" id="Path-54" fill="#A83904"></path>
                                <g id="Path-51" stroke-width="1" fill="none" transform="translate(64.049826, 53.694902) rotate(-18.000000) translate(-64.049826, -53.694902) translate(27.549826, 9.694902)">
                                    <mask id="mask-52" fill="white">
                                        <use xlink:href="#path-51"></use>
                                    </mask>
                                    <use id="Mask" fill="#A83904" xlink:href="#path-51"></use>
                                    <path d="M53.9088112,55.859439 C55.6752548,55.9925164 58.6188722,57.8157905 65.2960446,57.1300282" id="Path-50" stroke="#212121" stroke-width="0.793375153" stroke-linecap="round" stroke-linejoin="round" mask="url(#mask-52)"></path>
                                    <path d="M54.3200755,36.5633503 C64.4239424,35.6400659 63.9846424,34.2248618 53.0467109,35.9585347" id="Path-48" stroke="#212121" stroke-width="1.39337501" stroke-linecap="round" stroke-linejoin="round" mask="url(#mask-52)"></path>
                                    <path d="M59.0865204,42.3915897 C60.9292593,44.0613026 60.6849649,44.1990758 60.0089421,42.2540476" id="Path-49" stroke="#212121" stroke-width="1.39337501" stroke-linecap="round" stroke-linejoin="round" mask="url(#mask-52)"></path>
                                    <path d="M5.10851818,60.1973523 C16.1691278,57.9229617 23.6621058,57.6513736 27.4151203,51.8615418 C31.1681349,46.07171 30.8646812,46.659005 31.7995053,43.7243676 C32.6143154,41.1664834 29.6557169,41.0281848 31.7958439,39.400888 C34.3462739,37.4616075 40.5203909,38.5661497 42.1815026,35.8301675 C44.8939345,31.3625781 53.0048303,29.7032737 55.0726948,27.0602451 C57.1405593,24.4172165 59.8205616,17.8151192 62.1548805,17.0966279 C67.0487937,15.530701 69.6285932,14.1326509 69.8942791,12.9024775 C70.8452383,8.49936516 70.0904065,1.44748675 67.6297835,-8.25315777 C41.8729461,-13.6607091 28.6556217,-16.3644847 27.9778102,-16.3644847 C26.9610929,-16.3644847 4.59331309,-12.3088212 4.59331309,-8.25315777 C4.59331309,-5.54938212 1.88206706,-0.141830824 -3.54042502,7.96949612 L-3.54042502,29.2617293 L-3.54042502,42.4426356 L5.10851818,60.1973523 Z" fill="#BDC2BF" mask="url(#mask-52)"></path>
                                    <path d="M43.4319126,37.2070056 C29.5322936,29.118672 22.1657227,44.6409701 38.6039054,49.1532684" id="Path-52" fill="#A83904" mask="url(#mask-52)"></path>
                                </g>
                            </g>
                        </g>
                    </g>
                </g>
            </g>
        </g>
    </g>
</svg>