<svg xmlns="http://www.w3.org/2000/svg" xmlns:xlink="http://www.w3.org/1999/xlink" width="422" height="522"><style><![CDATA[.B{fill:#fff}.C{stroke-linecap:round}.D{stroke-linejoin:round}.E{stroke-width:1.393}.F{fill:#fd5200}.G{stroke:#212121}.H{fill:#011638}.I{stroke:#008bf8}.J{mask:url(#v)}.K{fill:#212121}.L{mask:url(#s)}.M{mask:url(#y)}.N{mask:url(#AA)}.O{mask:url(#j)}.P{stroke-width:.793}.Q{fill:#044917}.R{stroke:#0202c8}.S{mask:url(#r)}.T{mask:url(#u)}.U{mask:url(#x)}.V{mask:url(#z)}.W{mask:url(#AC)}.X{mask:url(#AE)}.Y{fill:#beef9e}.Z{mask:url(#m)}.a{fill:#00b832}.b{fill:#a83904}]]></style><defs><path d="M0 172.214c0-18.668 10.735-39.105 23.978-45.648L276.022 2.026C289.265-4.517 300 5.31 300 23.98v62.24l28.467-5.73c15.76-3.173 28.533 9.5 28.533 28.31V150h31.27C406.9 150 422 165.4 422 184.395V416.21c0 18.996-15.1 34.395-33.73 34.395H353.43l.024 62.924c.002 4.677-3.7 8.472-8.29 8.472-1.776 0-3.506-.58-4.934-1.66l-92.374-69.737H33.73C15.1 450.604 0 435.205 0 416.21V172.214z" id="A"/><rect id="B" width="151.2" height="151.2" rx="11"/><path d="M.927 75.64c5.2-16.255 16.354-65.393 37.05-71.186C50.265 1.015 71.6-.567 85.002.183c7.41.415 20.386 6.152 27.075 8.542 12.882 4.604 20.692 13.583 23.077 27.437 1.478 8.584 13.326 26.53 6.848 32.36-9.852 8.864-25.685-1.066-38.873.298-9.594.993-67.697 11.76-74.186-6.603L.927 75.64z" id="C"/><path d="M.225 62.096l2.793-23.47C6.5 14.267 9.42 3.15 34.443.11c4.157-.505 7.4.82 11.192 2.595C56.985 8.01 63.84 21.395 63.84 25.45s-2.802 5.313-2.027 7.095c2.79 6.417 7.81 11.512 10.998 17.74.367.718-.477 1.882-1.263 2.064-2.644.613-6.94-2.318-8.14.116-2.383 4.833 4.487 15.556-4.636 19.61s-20.147-1.194-30.108 1.37C3.577 79.905 17.36 92.127 8.03 78.315 1.8 69.106-.792 63.7.225 62.096z" id="D"/><rect id="E" width="151.2" height="151.2" rx="11"/><rect id="F" width="151.2" height="151.2" rx="11"/><rect id="G" width="151.2" height="151.2" rx="11"/><path d="M.15 75.723C5.35 59.468 16.504 10.33 37.2 4.537c12.288-3.44 33.633-5.02 47.025-4.27 7.41.415 13.233 5.226 19.923 7.617 12.882 4.604 9.844 14.51 12.23 28.362 1.478 8.584 13.326 26.53 6.848 32.36-9.852 8.864-7.685-1.066-20.873.298-9.594.993-67.697 11.76-74.186-6.603L.15 75.723z" id="H"/><path d="M60.524 26.553c4.295 1.455 19.936 1.412 14.362 14.224-1.722 3.958-4.493 9.552-8.313 16.782a68.27 68.27 0 0 1-2.289 1.755c.342.375.655.75.938 1.125l.624 1.703c.26.307.558.6.887.85 3.517 8.103-5.833 14.234-14.046 3.086-8.06 3.423-6.036.183-15.652 2.66C11.947 75.194 39.95 79.013 26.41 80.3c-9.028.857-17.78-6.49-26.258-22.044 4.984 1.752 7.9 2.42 8.753 2.006 5.705-2.78 8.61-4.64 8.712-5.573.787-7.088-.016-10.356.232-13.93-13.726-4.326-9.192-16.7 1.766-13.43l.266.37c1.002.772 1.008 1.676.018 2.71 14.17-10.78 21.902-16.26 23.2-16.437 3.067-.42 14.62 11.63 17.426 12.58zM33.855 3.73l-.187.065c2.014-1.322 4.307-2.44 6.928-3.348-2.3 1.476-4.55 2.502-6.74 3.283z" id="I"/><rect id="J" width="151.2" height="151.2" rx="11"/><path d="M61.512 3.276c18.974 11.313 26.55 17.56 20.087 31.9-4.156 9.22-9.68 16.527-14.2 22.074 7.255 3.807-.048 10.432-6.875 8.577-3.86 4.85-7.763 5.917-17.148 8.333C18.3 80.618 39.95 85.013 26.41 86.3c-9.028.857-17.78-6.49-26.258-22.044 4.984 1.752 7.9 2.42 8.753 2.006 5.705-2.78 8.61-4.64 8.712-5.573l2.202-18.06a61.31 61.31 0 0 1 .538-3.162C9.418 34.608 13.95 23.873 24.18 26.817c7.5-18.236 22.5-32.386 37.333-23.54z" id="K"/><rect id="L" width="151.2" height="151.2" rx="11"/><path d="M100.697 61.3c.296.834.58 1.44.853 1.773 13.33 16.287 19.486 2.788 23.598 15.64h0l-26.025-12.47c.566-1.546 1.06-3.075 1.478-4.586zM56.493.99c5.193.045 9.9.758 14.524 1.813a93.33 93.33 0 0 1 3.197 3.535h0l1.303 1.508c2.85 3.277 4.467 4.944 6.608 6.668h0l.382.312c6.168 5.108 9 10.94 8.987 17.683-.005 9.266-4.36 18.373-15.162 34.77h0l-3.224 4.87-2.437 3.704c-2.89.1-5.872.108-8.872.024.717-1.032 1.324-1.94 1.785-2.678h0l.36-.577c7-11.248 9.967-17.14 11.306-23.987h0l.087-.472c.516-2.993.388-6.035-.295-9.458h0l-.054-.257.03-.324c.78-8.836-1.34-17.24-6.688-26.074-1.194-1.973-3.468-4.155-7.9-7.83h0zm16.482 47.176l-.138.682c-1.285 5.996-4.047 11.52-10.186 21.457h0l-1.035 1.666c-.616.987-1.508 2.296-2.583 3.807l-.255-.01.33-.51c3.598-5.628 6.166-9.93 8.357-14.1h0l.287-.55c2.178-4.213 3.895-8.23 5.127-12.115h0l.098-.317zM75.1 3.817c4.202 1.12 8.433 2.442 12.998 3.72 3.526.987 7.887 34.312 11.3 49.002-.564 3.206-1.515 6.524-2.83 9.94l-.175.444c-3.277 5.672-12.22 8.082-22.833 8.783l4.737-7.172c11.055-16.783 15.525-26.14 15.53-36.026.004-7.596-3.262-14.188-10.234-19.804h0l-.22-.18c-1.83-1.498-3.32-3.03-5.8-5.87h0l-1.958-2.262-.372-.427zm-9.054 15.96l.115.223c1.446 2.894 2.694 6.038 3.823 9.523h0l.764 2.35c.756 2.34 1.15 3.653 1.538 5.188h0l.13.526.122.52.1.46-.025.242c-.733 6.644-3.182 13.585-7.208 21.262-2.076 3.96-4.507 8.05-7.868 13.328h0l-1.202 1.876a369.31 369.31 0 0 0-.23.353c-3.764-.22-7.48-.54-11.002-.903.542-.348 1.057-.704 1.556-1.074 4.362-3.237 7.29-6.73 10.92-12.36h0l.296-.46 1.367-2.154c4.85-7.697 7.158-12.426 7.99-17.51h0l.1-.626c1.26-8.094 1.062-14.567-1.126-20.352h0l-.16-.408zM33.18 9.55c.73.654 1.615 1.403 2.717 2.312h0l1.99 1.633 1.1.933c2.796 2.4 4.293 4.15 4.777 5.78 5.313 17.9 3.468 29.133-9.418 42.8-2.66 2.82-7.35 5.546-13.032 7.708h0l-2.97 1.123-.255.092c-2.22.304-3.792 1.002-5.088 1.687-3.146.876-5.175 1.05-5.323.66-.223-.585 1.17-1.617 4.94-3.4h0l2.46-1.14c2.475-1.163 3.836-1.92 4.894-2.807h0l.27-.235c5.193-4.7 8.98-8.996 11.413-13.215 2.76-4.79 4.385-9.915 5.025-15.376 1.47-12.552-.001-18.397-8.09-26.02l4.185-2.323zm17.047-4.478l.445.443a113.42 113.42 0 0 0 2.449 2.337h0l2.64 2.437c4.435 4.135 6.307 6.305 7.597 9.11 2.705 5.88 3.02 12.58 1.58 21.393-.73 4.477-2.783 8.8-7.058 15.683h0l-.928 1.477-1.685 2.635c-3.325 5.1-6.04 8.265-9.994 11.2-1.196.888-2.513 1.7-4.087 2.51a493.09 493.09 0 0 1-12.141-1.579l2.004-1.554c2.047-1.562 8.04-5.914 10.05-7.376h0l1.134-.834c11.618-8.694 16.6-15.24 17.753-26.09.335-3.122-2.928-16.742-6.77-25.73h0l-.174-.404c-.873-2.01-1.78-3.845-2.718-5.492h0l-.097-.166zm-23.78 8.193c7.8 7.144 9.28 12.177 8.04 23.636h0l-.106.943c-.604 5.157-2.133 9.98-4.73 14.486-2.3 3.973-5.93 8.1-10.96 12.653-.912.825-2.245 1.568-4.932 2.82h0l-2.146.99c-1.878.876-2.994 1.455-3.92 2.077h0l-.302.21c-1.3.935-2.075 1.947-2.065 3.072a17.18 17.18 0 0 1-1.028-.706c3.732-3.07 8.385-8.437 10.68-12.064 5.084-8.028 8.135-14.83 9.13-21.3.51-3.317.084-6.564-1.154-10.817h0l-.054-.185-.277-.92-1.416-4.46-.293-.975c-.598-2.043-1.5-3.967-2.712-5.736.713-.308 1.493-.613 2.345-.917 1.454-.52 3.438-1.503 5.73-2.727zm2.777 56.374l-.4.3-2.946 2.34-1.668-.223c1.73-.728 3.352-1.507 4.846-2.328h0l.158-.087zM16.09 18.026c1.173 1.643 2.037 3.442 2.6 5.363l.535 1.75.68 2.125.823 2.66.14.49c1.043 3.71 1.38 6.527.95 9.325-.936 6.083-3.868 12.62-8.796 20.4-2.248 3.55-6.995 8.986-10.563 11.81l-.384-.343C.684 70.355.138 68.55.15 66.4l7.89-5.624.1-.08a1.16 1.16 0 0 0 .368-.664h0l.018-.09c.15-.624.742-1.323 2.15-2.585h0l1.053-.93c1.544-1.377 2.208-2.117 2.68-3.145 3.64-7.935 2.48-15.006-2.883-21.55a34.08 34.08 0 0 0-1.558-1.77c.46-5.717.912-9.056 6.08-11.912zM46.09 2.953c1.726 2.3 3.4 5.353 5 9.094h0l.16.38c3.63 8.657 6.714 21.588 6.435 24.2-1.063 9.92-5.555 15.96-16.36 24.12h0l-.956.715-4.305 3.136.4-.417c12.873-13.846 14.95-25.67 9.876-43.512h0L46 19.546c-.673-2.27-2.483-4.336-5.82-7.16l-.473-.398-1.7-1.397-2.668-2.235c3.65-2.005 7.376-3.97 10.633-5.354zM9.704 33.167l.028.034c4.82 5.882 5.825 12.012 2.57 19.11-.295.643-.847 1.25-2.152 2.413h0l-.83.73c-1.728 1.53-2.564 2.443-2.932 3.528h0l-.048.152L.48 63.31c1.473-7.78 7.422-18.148 8.44-24.066.388-2.255.617-4.268.783-6.077zm50.245-26.32l.956.8c2.948 2.53 4.602 4.21 5.44 5.596h0l.283.472c3.17 5.346 5.094 10.517 5.85 15.746h0l.05.367-.578-1.77C69.74 21.446 67.07 15.985 63.4 11.1l-.412-.54c-.794-1.027-1.824-2.284-2.974-3.638h0l-.067-.076zM51.722 1.17c3.06 3.203 6.65 7.307 8.88 10.11h0l.55.7.407.535.8 1.085.15.22-.158-.186c-1.2-1.4-2.75-2.945-4.846-4.903l-.4-.372-2.55-2.352c-1.862-1.736-3.32-3.18-4.472-4.478a15.09 15.09 0 0 1 1.45-.326z" id="M"/><path d="M73.505 33.78c-1.93 4.435-3.112 6.597-3.55 6.488l.188.512-.224.185.612.874.12.332.237.264c4.64 8.17-3.958 15.07-12.177 5.812-1.172.598-2.278 1.12-3.287 1.57-9.123 4.055-9.08.165-19.04 2.73-25.087 6.458.977 14.307-12.565 15.593C14.793 68.995 7.1 61.098.74 44.446c8.208 3.37 12.738 4.85 13.59 4.434 3.803-1.854 6.694-4.698 8.67-8.533-2.514-8.395-3.574-13.968-3.18-16.72l.496-3.183c-10.726-4.79-6.48-15.255 3.42-12.748l.352-.807.602.838c1.002.772 1.008 1.676.018 2.71-1.854 5.707-2.132 8.47-.834 8.294 3.067-.42 33.302-6.706 42.928-18.254 2.394-2.872 12.28 20.5 6.706 33.302z" id="N"/><path d="M.574 65.083C5.774 48.828 17.13 10.33 37.827 4.537 50.115 1.097 71.46-.484 84.852.265c7.41.415 13.233 5.226 19.923 7.617 12.882 4.604 9.844 14.51 12.23 28.362 1.478 8.584 13.326 26.53 6.848 32.36-9.852 8.864-7.685-1.066-20.873.298-9.594.993-67.697 11.76-74.186-6.603 13.5 20.764 18.084 31.36 13.78 31.783-2.953.29-47.2-12.745-42-29z" id="O"/><path d="M65.33 13.58c4.295 1.455 19.936 1.412 14.362 14.224-1.93 4.435-5.175 10.922-9.737 19.463l.188.512-.223.185c.222.293.426.586.614.877l.12.33a6.13 6.13 0 0 0 .238.265c4.64 8.17-3.96 15.07-12.178 5.81-1.172.598-2.278 1.12-3.287 1.57-9.123 4.055-8.43 3.356-18.392 5.92C11.947 69.194 39.95 73.013 26.41 74.3c-9.028.857-17.78-6.49-26.258-22.044 4.984 1.752 7.9 2.42 8.753 2.006 5.705-2.78 8.61-4.64 8.712-5.573l2.202-18.06.467-3.197c-10.326-4.635-6.713-14.537 2.463-12.944.157-.605.32-1.196.49-1.774l1.448 2.015c1.002.772 1.008 1.676.018 2.71C38.874 6.658 46.608 1.18 47.906 1c3.067-.42 14.62 11.63 17.426 12.58z" id="P"/><rect id="Q" width="151.2" height="151.2" rx="11"/><path d="M0 62.12c.306-7.608 1.714-15.94 2.8-23.48C6.267 14.273 9.184 3.15 34.18.11c4.152-.505 7.39.82 11.18 2.596 11.337 5.3 15.498 14.203 15.498 18.26s-.112 9.81.662 11.594c2.786 6.42 1.527 3.622 4.7 9.854s-2.743 3.213-3.942 5.648c-2.38 4.835-2.703 11.405-11.816 15.46s-20.124-1.195-30.074 1.37c-25.06 6.46 11.825 35.54-19.022 1.244L0 62.12z" id="R"/><path d="M11 0h129.2c6.075 0 11 4.925 11 11v215.12c0 6.075-4.925 11-11 11a11 11 0 0 1-5.843-1.68l-129.2-81.006A11 11 0 0 1 0 145.114V11C0 4.925 4.925 0 11 0z" id="S"/><path d="M10.245 70.278c.092-2.3-1.227-8.568-1.665-11.056-.767-4.356-8.902-10.6-8.295-14.7.193-1.305 4.5-2.02 4.68-3.288.47-3.295-2.257-6.105-1.613-9.384.556-2.834 3.807-5.916 4.322-8.662.733-3.907 3.345-6.113 4.992-8.893 1.57-2.65 2.42-7.27 4.04-9.202C21.036-.07 29.25 1.85 29.332 1.826c1.546-.48 7.318-.057 10.747-.714C44.183.326 50.774.1 52.727 1.016c3.585 1.68 10.382 5.502 12.388 7.18 1.836 1.535 1.95 6.942-2.94 8.856 2.59 3.486 3.683 6.834 3.683 8.912 0 4.056-1.87 8.722-1.097 10.506 2.786 6.42 2.9 7.25 6.396 9.44s-2.67 4.717-3.87 7.152c-2.38 4.835-2.703 11.405-11.816 15.46s-20.124-1.195-30.074 1.37c-25.06 6.46 11.825 35.54-19.022 1.244l3.87-.858z" id="T"/><path id="U" d="M15.923 39.034c-7.508 27.463-5.66 13.992-6.314 40.302"/><path id="V" d="M96.037 33.196c11.807 33.816 8.215 18.48 12.818 45.482"/><path id="W" d="M51.525 54.102c1.768.133 4.715 1.956 11.4 1.27"/><path id="X" d="M54.225 27.05c10.115-.923 9.675-2.338-1.275-.605"/><path id="Y" d="M57.225 31.46c1.845 1.67 1.6 1.807.923-.137"/><path id="Z" d="M-.104 56.95c11.073-2.273 19.012-4.32 22.77-10.106s3.453-5.2 4.39-8.134c.816-2.557-2.146-2.695-.004-4.322 2.553-1.94 8.734-.834 10.397-3.57 1.8-2.977 1.75-8.197-.183-15.66 5.88-.167 10.268-.47 13.168-.91 2.418-.367 4.674-1.436 7.01-2.155l5.48-25.34-39.696-8.108c-1.018 0-23.41 4.054-23.41 8.108 0 2.703-2.714 8.108-8.143 16.216v34.46l8.22 19.522z"/><path id="a" d="M38.7 32.194c-13.915-8.085-21.3 7.43-4.833 11.94"/><path id="b" d="M6.722 42.896C-2.884 61.3-6.584 51.658-14.314 41.743c-2.757-3.537-6.147-6.532-9.22-9.797"/><path id="c" d="M6.323 30.034C-1.185 57.497.663 44.026.01 70.336"/><path id="d" d="M28.476 57.225c6.787 3.427 11.576.69 16.957-3.985"/><path id="e" d="M47.485 51.294c2.33 2.814 2.02 3.046 1.166-.232"/><path id="f" d="M38.432 32.207c-13.9-8.088-21.266 7.434-4.828 11.946"/></defs><g fill="none" fill-rule="evenodd"><mask id="g" class="B"><use xlink:href="#A"/></mask><use xlink:href="#A" class="Y"/><g mask="url(#g)"><g transform="translate(-1 -32)"><g transform="matrix(-1 0 0 1 152.199991 332)"><mask id="h" class="B"><use xlink:href="#B"/></mask><use xlink:href="#B" class="H"/><g mask="url(#h)"><g transform="translate(3.2)"><g transform="translate(2.85 90.517)"><mask id="i" class="B"><use xlink:href="#C"/></mask><use fill="#56e49f" transform="matrix(-1 0 0 1 144.85238 0)" xlink:href="#C"/><g class="C D E I"><use xlink:href="#U" mask="url(#i)"/><use xlink:href="#V" mask="url(#i)"/></g></g><g transform="matrix(-.809017 -.587785 -.587785 .809017 109.547582 43.466627)"><mask id="j" class="B"><use xlink:href="#D"/></mask><use xlink:href="#D" class="F"/><g class="C D G O"><use xlink:href="#W" class="P"/><g class="E"><use xlink:href="#X"/><use xlink:href="#Y"/></g></g><use xlink:href="#Z" class="K O"/><use xlink:href="#a" class="F O"/></g></g></g></g><g transform="matrix(-1 0 0 1 152.199991 2)"><mask id="k" class="B"><use xlink:href="#E"/></mask><use xlink:href="#E" class="Y"/><g mask="url(#k)"><g transform="translate(3.2 -9)"><g transform="translate(2.85 90.517)"><mask id="l" class="B"><use xlink:href="#F" href="#C"/></mask><use transform="matrix(-1 0 0 1 144.85238 0)" xlink:href="#F" class="H" href="#C"/><g class="C D E I"><use xlink:href="#U" mask="url(#l)"/><use xlink:href="#V" mask="url(#l)"/></g></g><g transform="matrix(-.809017 -.587785 -.587785 .809017 109.547582 43.466627)"><mask id="m" class="B"><use xlink:href="#G" href="#D"/></mask><use xlink:href="#G" class="F" href="#D"/><use xlink:href="#W" class="C D G P Z"/><use xlink:href="#Z" class="K Z"/><use xlink:href="#a" class="F Z"/></g></g></g></g><g transform="matrix(-1 0 0 1 478.199991 2)"><mask id="n" class="B"><use xlink:href="#F"/></mask><use fill="#008bf8" xlink:href="#F"/><g mask="url(#n)"><g transform="translate(3.2 -9)"><g transform="translate(2.85 90.517)"><mask id="o" class="B"><use xlink:href="#I" href="#C"/></mask><use transform="matrix(-1 0 0 1 144.85238 0)" xlink:href="#I" class="H" href="#C"/><use xlink:href="#V" mask="url(#o)" class="C D E I"/></g><g transform="matrix(-.809017 -.587785 -.587785 .809017 109.547582 43.466627)"><mask id="p" class="B"><use xlink:href="#J" href="#D"/></mask><use xlink:href="#J" class="F" href="#D"/><use xlink:href="#Z" mask="url(#p)" class="K"/><use xlink:href="#a" mask="url(#p)" class="F"/></g></g></g></g><g transform="matrix(-1 0 0 1 315.199991 0)"><mask id="q" class="B"><use xlink:href="#G"/></mask><use xlink:href="#G" class="Q"/><path d="M90.17 112.27l.11.248c-.33-.25-.627-.542-.887-.85h0l-.624-1.702c.586.775 1.05 1.546 1.4 2.302zm-4.187-62.04c11.35 5.308 23.024 13.344 21.076 30.603-1.216 10.778-9.024 19.92-16.938 26.253 3.82-7.23 6.6-12.824 8.313-16.783 5.574-12.812-10.067-12.768-14.362-14.224-2.805-.95-14.358-13-17.426-12.58-1.298.178-9.032 5.657-23.2 16.437 1-1.036.984-1.94-.018-2.71h0l-.267-.37c.15.045.303.093.457.144 2.367-10.77 6.002-18.69 13.6-23.68 2.25-.787 4.56-1.83 6.925-3.344 3.07-1.068 6.594-1.848 10.65-2.34 4.157-.505 7.4.82 11.192 2.595z" mask="url(#q)" transform="matrix(-.766044 -.642788 -.642788 .766044 184.272642 67.069757)" class="H"/><g mask="url(#q)"><g transform="translate(24 36)"><g transform="translate(.45 89.917)"><mask id="r" class="B"><use xlink:href="#H"/></mask><use transform="matrix(-1 0 0 1 125.297604 0)" xlink:href="#H" class="a"/><g class="C D E S"><use xlink:href="#b" class="R"/><g class="I"><use xlink:href="#c"/><use xlink:href="#V" x="-9.6" y="-9"/><use xlink:href="#V" x="-81.487" y="-1.8" transform="matrix(.913545 .406737 -.406737 .913545 23.831433 -3.844441)"/></g></g></g><g transform="matrix(-.809017 -.587785 -.587785 .809017 109.963496 45.359453)"><mask id="s" class="B"><use xlink:href="#I"/></mask><use xlink:href="#I" class="F"/><g class="G E C D L"><use xlink:href="#d" transform="matrix(.681998 .731354 -.731354 .681998 52.707612 -9.218551)"/><use xlink:href="#X" x="-0.532" y="20.232" transform="matrix(.559193 .829038 -.829038 .559193 63.598651 -26.472301)"/><path d="M40.16 50.113c-1.592 17.95-1.608 14.326-7.146-.265" transform="matrix(.838671 .544639 -.544639 .838671 36.422345 -10.885749)" class="F"/><use xlink:href="#X" x="-20.535" y="6.934" transform="matrix(.788011 .615661 -.615661 .788011 28.26181 -15.534551)"/><use xlink:href="#e"/><use xlink:href="#Y" x="-21.773" y="9.51"/></g></g></g></g></g><g transform="translate(326.2 167)"><mask id="t" class="B"><use xlink:href="#J"/></mask><use fill="#038225" xlink:href="#J"/><g mask="url(#t)"><g transform="translate(0 -3)"><g transform="translate(6.45 98.917)"><mask id="u" class="B"><use xlink:href="#O" href="#H"/></mask><use transform="matrix(-1 0 0 1 125.297604 0)" xlink:href="#O" class="Q" href="#H"/><g class="C D E T"><use xlink:href="#b" class="R"/><g class="I"><use xlink:href="#c"/><use xlink:href="#V" x="-9.6" y="-9"/><use xlink:href="#V" x="-81.487" y="-1.8" transform="matrix(.913545 .406737 -.406737 .913545 23.831433 -3.844441)"/></g></g></g><g transform="matrix(-.809017 -.587785 -.587785 .809017 119.490207 49.505351)"><mask id="v" class="B"><use xlink:href="#K"/></mask><use xlink:href="#K" class="F"/><use xlink:href="#d" x="5.591" y="4.892" transform="matrix(.681998 .731354 -.731354 .681998 58.063482 -11.751961)" class="C D E G J"/><path d="M70.233-8.487l.37.001c28.394.33 37.142 31.24 26.454 53.2-4.14 8.502-12.828 20.838-24.228 17.95-.852-.216-1.606-.822-2.173-1.493h0l-.698-1.902c4.562-8.54 7.808-15.028 9.737-19.463C85.267 26.993 69.626 27.036 65.33 25.58c-2.805-.95-14.358-13-17.426-12.58-1.233.17-8.277 5.124-21.13 14.865.093 2.158.307 5.07.64 8.73.64 7.058 4.785 12.13 12.432 15.213 4.707 2.596 8.825 6 12.356 10.214s11.2-.103 23.006-12.95C65.188 60.69 58.698 67.922 55.736 70.772c-8.397 8.08-12.92 11.024-23.082 7.95-15.54-4.698-20.96-14.817-16.263-30.357h0l3.644-8.582c1.62-6.156 2.953-10.81 4-13.966l-8.688-12.08c8.5-11.477 19.665-6.244 32.2-15.76 5.324-4.042 17.277-6.53 23.055-6.463z" fill-opacity=".158" class="H J"/><g class="G E C D J"><use xlink:href="#X" x="8.227" y="23.472" transform="matrix(.559193 .829038 -.829038 .559193 70.14635 -32.30539)"/><path d="M55.135 44.378c1.75 7.554-4.307 23.39-9.845 8.797" class="F"/><use xlink:href="#X" x="-11.19" y="9.365" transform="matrix(.788011 .615661 -.615661 .788011 31.74032 -20.773567)"/><use xlink:href="#e" x="11.247" y="1.068"/><use xlink:href="#Y" x="-12.782" y="10.917"/></g></g></g></g></g><g transform="translate(162 167)"><mask id="w" class="B"><use xlink:href="#L"/></mask><use xlink:href="#L" class="a"/><path d="M55.686 68.574L33.034 52.116C65 19.283 89.632 10.22 106.932 24.925s14.78 39.836-7.558 75.39l-43.687-31.74z" mask="url(#w)" transform="matrix(.798636 -.601815 .601815 .798636 -20.399824 57.447026)" class="H"/><g mask="url(#w)"><g transform="matrix(-1 0 0 1 127 17)"><g transform="translate(.45 75.917)"><mask id="x" class="B"><use xlink:href="#M"/></mask><use xlink:href="#M" class="Y"/><g class="C D E U"><path d="M6.722 45.896C-2.884 64.3-6.584 54.658-14.314 44.743c-2.757-3.537-6.147-6.532-9.22-9.797" class="R"/><path d="M6.323 33.034C-1.185 60.497.663 47.026.01 73.336" class="I"/><g class="G"><use xlink:href="#V" x="-9.6" y="-6"/><use xlink:href="#V" x="-81.487" y="1.2" transform="matrix(.913545 .406737 -.406737 .913545 25.051643 -3.585077)"/></g></g></g><g transform="matrix(-.809017 -.587785 -.587785 .809017 102.322288 44.876674)"><mask id="y" class="B"><use xlink:href="#N"/></mask><use fill="#ffb998" xlink:href="#N"/><g class="G E C D M"><use xlink:href="#d" x="5.394" y="-14.251" transform="matrix(.681998 .731354 -.731354 .681998 44.000685 -17.695577)"/><use xlink:href="#X" x="8.227" y="4.472" transform="matrix(.559193 .829038 -.829038 .559193 54.394636 -40.680725)"/><path d="M52.436 34.44c-.616 7.07-9.294 2-7.146-.265" fill="#ffb998"/><use xlink:href="#X" x="-11.19" y="-9.635" transform="matrix(.788011 .615661 -.615661 .788011 20.042752 -24.801362)"/><use xlink:href="#e" x="11.247" y="-17.932"/><use xlink:href="#Y" x="-12.782" y="-8.083"/></g></g></g></g></g><g transform="translate(163.2 332)"><path d="M11 0h129.225c6.065 0 10.986 4.91 11 10.975l.525 226.662c.014 6.075-4.9 11.01-10.974 11.025a11 11 0 0 1-6.394-2.031L4.63 154.49A11 11 0 0 1 0 145.52V11C0 4.925 4.925 0 11 0z" fill="#f5b700"/><path d="M84.997 15.703c11.35 5.308 23.024 13.344 21.076 30.603-1.088 9.642-6.878 17.08-13.368 22.474l-.187-.513c4.562-8.54 7.808-15.028 9.737-19.463 5.574-12.812-10.067-12.768-14.362-14.224-2.805-.95-14.358-13-17.426-12.58-1.298.178-9.032 5.657-23.2 16.437 1-1.036.984-1.94-.018-2.71h0L45.8 33.713c3.6-12.193 10.207-18.44 28.004-20.604 4.157-.505 7.4.82 11.192 2.595z" transform="matrix(-.819152 -.573576 -.573576 .819152 161.788316 51.01166)" class="H"/><g transform="translate(20.8 8)"><g transform="translate(4.45 87.917)"><mask id="z" class="B"><use xlink:href="#O"/></mask><use transform="matrix(-1 0 0 1 125.924308 0)" xlink:href="#O" class="a"/><g class="C D E V"><use xlink:href="#b" class="R"/><g class="I"><use xlink:href="#c"/><use xlink:href="#V" x="-9.6" y="-9"/><use xlink:href="#V" x="-81.487" y="-1.8" transform="matrix(.913545 .406737 -.406737 .913545 23.831433 -3.844441)"/></g></g></g><g transform="matrix(-.809017 -.587785 -.587785 .809017 110.436784 48.213554)"><mask id="AA" class="B"><use xlink:href="#P"/></mask><use fill="#ff7a3a" xlink:href="#P"/><g class="G E C D N"><use xlink:href="#d" x="8.397" y="-10.155" transform="matrix(.681998 .731354 -.731354 .681998 47.95176 -18.588835)"/><use xlink:href="#X" x="8.227" y="11.472" transform="matrix(.559193 .829038 -.829038 .559193 60.197899 -37.595075)"/><path d="M52.436 41.44c-1.592 17.95-1.608 14.326-7.146-.265" fill="#ff7a3a"/><use xlink:href="#X" x="-11.19" y="-2.635" transform="matrix(.788011 .615661 -.615661 .788011 24.352382 -23.317438)"/><use xlink:href="#e" x="11.247" y="-10.932"/><use xlink:href="#Y" x="-12.782" y="-1.083"/></g></g></g><path fill="#bdc2bf" d="M-3.2 115h64l23 51h-87z"/></g><g transform="translate(.2 167)"><mask id="AB" class="B"><use xlink:href="#Q"/></mask><use fill="#f5b700" xlink:href="#Q"/><g mask="url(#AB)"><g transform="translate(9.6 10.2)"><path d="M101.683 47.28c-.486 20.183 12.365 45.842-1.457 60.548-11.418 12.148-33.314-2.726-49.612-6.213-1.426-.305-.298-2.98.127-4.375 3.964-13.01 8.09-25.99 13-38.674C70.23 41.74 82.08 26.37 97.977 18.37c2.808-1.413 4.043 8.223 3.706 28.908z" class="K"/><path d="M0 135.996c5.194-16.26 3.397-42.46 24.07-48.256 19.067-5.345 45.297.408 64.053 7.12 12.868 4.606 21.792 5.79 24.174 19.648 1.476 8.587 9.375 20.148 2.904 25.978-9.84 8.868-26 5.328-39.163 6.693-9.583.993-67.62 11.765-74.103-6.606L0 135.996z" class="Q"/><path d="M78.382 72.072c-3.796 8.546-3.796 14.243 0 17.092s7.59 4.748 11.387 5.697c-8.54 13.293-19.453 17.566-32.738 12.82s-18.98-14.243-17.08-28.486l29.89-27.062 8.54 19.94z" class="F"/><g transform="matrix(.87462 .48481 -.48481 .87462 72.333283 .011263)"><mask id="AC" class="B"><use xlink:href="#R"/></mask><use xlink:href="#R" class="F"/><g class="C D G W"><path d="M51.243 54.123c1.766.133 4.7 1.956 11.387 1.27" class="P"/><g class="E"><path d="M49.5 27.132c10.104-.923 9.665-2.338-1.273-.605m6.533 6.157c1.843 1.67 1.598 1.807.922-.138"/></g></g><path d="M-.33 56.972c11.06-2.274 18.99-4.32 22.744-10.1s3.45-5.203 4.384-8.137c.815-2.558-2.144-2.696-.004-4.323 2.55-1.94 8.725-.835 10.386-3.57 2.712-4.468 10.823-6.127 12.89-8.77s4.748-9.245 7.082-9.964l5.475-25.35-39.652-8.11c-1.017 0-23.384 4.056-23.384 8.11 0 2.704-2.71 8.11-8.134 16.223v34.473l8.212 19.53z" class="K W"/><use xlink:href="#f" class="F W"/></g><path d="M70.368 47.28c-.486 20.183 12.365 45.842-1.457 60.548-11.418 12.148-33.314-2.726-49.612-6.213-1.426-.305-.298-2.98.127-4.375 3.964-13.01 8.09-25.99 13-38.674 8.22-21.28 25.003-40.238 47.71-44.89" class="K"/></g></g></g><g transform="matrix(-1 0 0 1 478.199991 332)"><mask id="AD" class="B"><use xlink:href="#S"/></mask><use xlink:href="#S" class="Q"/><g mask="url(#AD)"><g transform="translate(16.6 7.2)"><path d="M.265 145.22c3.3-10.335.263-17.276 9.935-28.42 5.546-6.39 14.466-16.888 22-19 19.067-5.345 32.644-15.714 51.4-9 12.868 4.606 9.618 24.14 12 38 1.476 8.587 28.47-23.83 22-18-2.774 2.5 10.637.754 8 13-6.718 31.204-29.54 92.02-39 93-9.583.993-77.918-46.63-84.4-65l-1.935-4.58z" fill="#038225"/><path d="M71.382 75.072c-3.796 8.546-3.796 14.243 0 17.092s7.59 4.748 11.387 5.697c-9.095 20.04-20.284 27.687-33.57 22.94s-18.952-12.414-17-23c5.994-1.84 9.66-3.84 11-6 1.726-2.785 1.894-23.067 4-26 4.558-6.348 9.772-9.904 15.642-10.668l8.54 19.94z" class="b"/><g transform="matrix(.951057 -.309017 .309017 .951057 15.739515 23.127536)"><mask id="AE" class="B"><use xlink:href="#T"/></mask><use xlink:href="#T" class="b"/><g class="C D G X"><path d="M53.91 55.86c1.766.133 4.7 1.956 11.387 1.27" class="P"/><g class="E"><path d="M54.32 36.563c10.104-.923 9.665-2.338-1.273-.605m6.04 6.434c1.843 1.67 1.598 1.807.922-.138"/></g></g><path d="M5.11 60.197c11.06-2.274 18.554-2.546 22.307-8.336s3.45-5.203 4.384-8.137c.815-2.558-2.144-2.696-.004-4.323 2.55-1.94 8.725-.835 10.386-3.57 2.712-4.468 10.823-6.127 12.89-8.77s4.748-9.245 7.082-9.964c4.894-1.566 7.474-2.964 7.74-4.194.95-4.403.196-11.455-2.264-21.156l-39.652-8.11c-1.017 0-23.384 4.056-23.384 8.11 0 2.704-2.71 8.11-8.134 16.223v34.473l8.65 17.755z" fill="#bdc2bf" class="X"/><use xlink:href="#f" x="5" y="5" class="X b"/></g></g></g></g></g></g></g></svg>