<svg xmlns="http://www.w3.org/2000/svg" xmlns:xlink="http://www.w3.org/1999/xlink" width="756" height="936"><style><![CDATA[.B{stroke-linejoin:round}.C{stroke-width:2.496}.D{stroke-linecap:round}.E{fill:#fff}.F{stroke:#212121}.G{mask:url(#W)}.H{fill:#fd5200}.I{stroke:#008bf8}.J{fill:#011638}.K{fill:#044917}.L{fill:#f5b700}.M{fill:#00b832}.N{mask:url(#b)}.O{fill:#038225}.P{mask:url(#g)}.Q{mask:url(#i)}.R{fill:#ffb998}.S{stroke-opacity:.588}.T{mask:url(#X)}.U{stroke-width:1.421}.V{fill:#212121}.W{mask:url(#Y)}.X{stroke:#0202c8}.Y{fill:#a83904}.Z{stroke-width:4.16}]]></style><defs><path d="M0 308.5c0-33.44 19.232-70.052 42.955-81.774L494.485 3.63C518.21-8.092 537.44 9.515 537.44 42.955V154.45l50.998-10.268c28.23-5.685 51.117 17.02 51.117 50.712l-.001 73.812 56.022.001c33.37 0 60.424 27.586 60.424 61.615V745.6c0 34.03-27.053 61.615-60.424 61.615h-62.42l.042 112.72c.003 8.38-6.647 15.177-14.853 15.177-3.182 0-6.28-1.04-8.84-2.972L444.02 807.205H60.424C27.053 807.205 0 779.62 0 745.6V308.5z" id="A"/><rect id="B" x=".523" width="235.661" height="235.661" rx="15.082"/><path d="M134.574 24.95c8.38 3.92 15.394 10.297 20.743 16.95l.412-.13c-4.187 1.287-8.228 3.202-12.56 3.86-5.195.79-13.058 1.333-23.6 1.632 3.462 13.37 3.57 22.722.328 28.056-.204.336-.446.64-.72.914-18.015-8.408-28.68 5.725-18.782 15.95-.903 2.614-1.72 3.742-6.98 11.844-6.545 10.08-20.173 13.825-39.157 17.768l3.96-32.487c6.236-43.64 11.468-63.555 56.297-69.004 7.447-.905 13.255 1.47 20.05 4.648z" id="C"/><rect id="D" width="235.661" height="235.661" rx="15.082"/><rect id="E" width="235.661" height="358.204" rx="15.082"/><path d="M1.03 116.593c9.315-29.12 29.66-98.088 66.737-108.466C89.78 1.965 128.018-.867 152.01.475c13.277.743 23.707 9.363 35.69 13.646 23.078 8.248 17.636 25.992 21.91 50.8 2.648 15.378 23.873 47.53 12.268 57.97-17.65 15.88-13.767-1.9-37.393.535-17.187 1.778-121.277 21.068-132.902-11.83 24.167 37.2 32.396 56.178 24.69 56.938-5.29.522-84.556-22.833-75.242-51.953z" id="F"/><rect id="G" width="235.661" height="235.661" rx="15.082"/><rect id="H" width="235.661" height="235.661" rx="15.082"/><path d="M220.58 0c8.33 0 15.082 6.753 15.082 15.082v328.04c0 8.33-6.753 15.082-15.082 15.082H15.082C6.753 358.204 0 351.452 0 343.122V15.082C0 6.753 6.753 0 15.082 0H220.58zM107.56 11.54c-8.354 1.173-24.588 4.694-29.72 6.85-4.696 1.972-8.286 12.876.5 19.81l-.066.05.078.054c4.25 2.87 5.64 17.525 8.143 24.328l.118.313c2.577 6.654 18.1 15.08 20.85 25.84 1.7 6.59 14.968 8.197 18.966 13.724 3.355 4.638-2.765 3.074-2.69 8.774.085 6.54-.17 5.158 3.892 19.25 3.614 12.54 15.98 18.06 33.564 27.236l.283-.55c4.267-8.364 24.734-15.965 26.046-24.686.417-2.77-7.92-6.907-7.503-9.593 1.086-6.982 8.392-10.984 9.114-18.043.624-6.1-4.094-14.383-3.44-20.277.93-8.387-3.03-14.495-4.663-21.163-1.56-6.36-.422-16.265-2.532-21.198-5.63-13.163-23.575-14.383-23.726-14.486-2.855-1.94-14.9-4.68-21.475-8.15-7.884-4.155-21.186-8.72-25.738-8.082z" id="I"/><path d="M23.08 142.072l.278.366c8.87 11.81 3.342 8.158-.18-.13l-.097-.236zM119.313.406l-.048-.066c5.525 7.398 7.855 14.505 7.855 18.917 0 8.6-3.99 18.513-2.34 22.3 5.94 13.626 6.187 15.392 13.642 20.034s-5.697 10.012-8.253 15.18c-5.076 10.264-5.765 24.21-25.2 32.818s-42.92-2.536-64.14 2.9c-22.446 5.76-21.59 19.99-17.918 29.163l.17.41-.433-.573c-4.193-5.497-11.202-13.985-22.386-26.36l8.253-1.82c.2-4.706-2.417-17.23-3.442-22.86C24.57 86.825 38 85.164 45.133 74.227c8.004-12.29 7.357-11.043 9.35-17.272 1.738-5.43-4.572-5.723-.008-9.177 5.44-4.116 18.607-1.772 22.15-7.58C82.4 30.716 99.71 27.194 104.12 21.584S114.244 1.96 119.223.436l.1-.03z" id="J"/><rect id="K" x=".572" y=".29" width="235.661" height="235.661" rx="15.082"/><path d="M.27 135.655c9.315-29.12 29.297-117.15 66.374-127.528C88.656 1.965 126.895-.867 150.886.475c13.277.743 23.707 9.363 35.69 13.646 23.078 8.248 17.636 25.992 21.91 50.8 2.648 15.378 23.873 47.53 12.268 57.97-17.65 15.88-13.767-1.9-37.393.535-17.187 1.778-121.277 21.068-132.902-11.83L.27 135.655z" id="L"/><rect id="M" width="235.661" height="235.661" rx="15.082"/><path d="M208.825 125.443c.606 1.7 1.19 2.937 1.748 3.62 27.642 33.784 40.407 5.783 48.932 32.443h0l-53.943-25.856c1.24-3.383 2.312-6.725 3.212-10.026zM117.122.26c10.775.09 20.54 1.572 30.132 3.76 2.128 2.217 4.332 4.662 6.66 7.355h0l2.703 3.126c5.91 6.795 9.266 10.25 13.706 13.826h0l.792.647c12.793 10.59 18.647 22.685 18.64 36.666-.01 19.213-9.044 38.098-31.453 72.104h0l-6.688 10.1-5.075 7.71c-5.992.227-12.18.222-18.402.048 1.495-2.15 2.76-4.042 3.72-5.58h0l.746-1.196c14.522-23.325 20.677-35.54 23.454-49.74h0l.18-.98c1.07-6.207.806-12.515-.612-19.613h0l-.11-.534.064-.67c1.617-18.322-2.78-35.75-13.87-54.066-2.477-4.1-7.194-8.615-16.39-16.234h0zm34.215 97.85l-.287 1.414c-2.666 12.434-8.397 23.89-21.132 44.494h0l-2.147 3.455c-1.282 2.052-3.14 4.778-5.38 7.923l-.527-.022.7-1.082c7.463-11.67 12.8-20.594 17.337-29.26h0l.595-1.142c4.52-8.736 8.08-17.067 10.636-25.123h0l.203-.657zm4.395-91.98c8.71 2.32 17.482 5.064 26.946 7.714 7.318 2.05 16.37 71.308 23.432 101.735-1.174 6.616-3.14 13.46-5.857 20.508l-.32.813c-6.732 11.86-25.334 16.89-47.424 18.35l9.844-14.9c22.933-34.802 32.207-54.208 32.22-74.706.01-15.75-6.765-29.42-21.226-41.065h0l-.46-.373c-3.795-3.106-6.883-6.28-12.032-12.173h0l-5.012-5.778zm-18.765 33.12l.238.463c2.998 6 5.587 12.52 7.93 19.747h0l1.585 4.87c1.567 4.85 2.383 7.575 3.19 10.757h0l.27 1.09.253 1.075.2.952-.05.503c-1.52 13.776-6.603 28.17-14.955 44.09-4.307 8.21-9.35 16.692-16.323 27.64h0l-2.493 3.89c.01-.014-.167.255-.495.76-7.813-.457-15.53-1.124-22.837-1.878a57.82 57.82 0 0 0 3.26-2.249c9.048-6.714 15.125-13.954 22.654-25.628h0l.615-.956 2.836-4.466c10.06-15.96 14.85-25.767 16.573-36.312h0l.207-1.298c2.617-16.784 2.204-30.207-2.334-42.203h0l-.332-.847zM68.78 18.028c1.516 1.36 3.357 2.916 5.65 4.807h0l4.126 3.385 2.302 1.935c5.8 4.976 8.905 8.602 9.91 11.983 11.02 37.14 7.19 60.41-19.54 88.75-5.518 5.85-15.247 11.5-27.032 15.986h0l-6.163 2.33-.63.23c-4.47.63-7.666 2.032-10.306 3.42-6.608 1.854-10.88 2.222-11.19 1.4-.462-1.214 2.425-3.352 10.244-7.03h0l5.105-2.364c5.133-2.412 7.958-3.98 10.153-5.822h0l.56-.488c10.772-9.75 18.63-18.655 23.676-27.403 5.727-9.93 9.097-20.56 10.426-31.883 3.054-26.033-.002-38.154-16.79-53.963l9.017-5.01zm35.376-9.274l.924.918a235.2 235.2 0 0 0 5.08 4.845h0l5.477 5.052c9.2 8.574 13.082 13.073 15.758 18.888 5.61 12.192 6.263 26.088 3.277 44.36-1.518 9.284-5.773 18.27-14.64 32.52h0l-1.924 3.062-3.496 5.464c-6.898 10.555-12.53 17.138-20.732 23.224-2.5 1.847-5.233 3.534-8.513 5.226-9.7-1.118-18.36-2.318-25.173-3.274l4.18-3.238c4.246-3.24 16.677-12.264 20.846-15.297h0l2.35-1.73c24.1-18.03 34.414-31.606 36.827-54.1.694-6.473-6.072-34.717-14.04-53.352h0l-.36-.838c-1.81-4.166-3.69-7.972-5.638-11.388h0l-.2-.345zM54.82 25.736c16.2 14.817 19.26 25.255 16.686 49.02h0l-.22 1.955c-1.254 10.694-4.425 20.695-9.814 30.04-4.75 8.238-12.303 16.796-22.735 26.238-1.89 1.712-4.657 3.25-10.23 5.85h0l-4.452 2.055c-3.895 1.816-6.21 3.018-8.13 4.307h0l-.627.434c-2.716 1.94-4.303 4.036-4.283 6.367a34.62 34.62 0 0 1-2.129-1.465c7.742-6.37 17.39-17.494 22.155-25.014 10.547-16.648 16.876-30.754 18.94-44.148 1.06-6.88.175-13.612-2.393-22.43h0l-.112-.383-.573-1.905-2.937-9.25-.607-2.022c-1.242-4.24-3.116-8.232-5.632-11.903 1.486-.642 3.1-1.278 4.886-1.913 3.052-1.09 7.228-3.166 12.05-5.75zm5.764 116.906l-.81.62-6.13 4.866-3.477-.464c3.6-1.512 6.98-3.134 10.088-4.84h0l.328-.18zM33.337 35.612c2.436 3.4 4.23 7.14 5.397 11.127l1.1 3.63 1.41 4.406 1.706 5.515.3 1.015c2.162 7.696 2.86 13.534 1.967 19.336-1.943 12.613-8.024 26.168-18.247 42.304-4.66 7.356-14.502 18.624-21.902 24.48l-.77-.686C1.4 144.14.278 140.38.312 135.9l16.333-11.637.2-.168a2.41 2.41 0 0 0 .764-1.376h0l.038-.184c.31-1.293 1.54-2.744 4.46-5.36h0l2.184-1.93c3.203-2.855 4.58-4.4 5.558-6.522 7.552-16.454 5.146-31.116-5.98-44.688a70.64 70.64 0 0 0-3.208-3.646c.956-11.88 1.884-18.814 12.608-24.746zM95.56 4.338c3.585 4.772 7.044 11.11 10.367 18.88h0l.333.786c7.528 17.95 13.925 44.764 13.346 50.16-2.207 20.57-11.524 33.096-33.937 50.016h0l-1.982 1.483-8.93 6.502.81-.864c26.704-28.713 31.013-53.234 20.5-90.23h0l-.67-2.304c-1.396-4.704-5.15-8.992-12.07-14.847l-.982-.825L78.81 20.2l-5.55-4.647c7.622-4.188 15.408-8.296 22.2-11.17zM20.118 67.045l.035.043c9.996 12.196 12.082 24.908 5.326 39.628-.612 1.333-1.756 2.59-4.463 5.004h0l-1.72 1.516c-3.585 3.173-5.318 5.067-6.083 7.315h0l-.1.315-12.1 8.628c3.07-16.133 15.383-37.614 17.494-49.88.803-4.663 1.276-8.826 1.62-12.57zM124.32 12.433l1.982 1.68c6.115 5.246 9.545 8.73 11.285 11.604h0l.587.98c6.573 11.085 10.566 21.808 12.135 32.65h0l.104.77-1.2-3.682c-4.75-14.24-10.53-25.9-18.583-36.302-1.647-2.13-3.782-4.736-6.17-7.543h0l-.14-.158zM107.235.64c6.354 6.644 13.813 15.17 18.44 20.985h0l1.142 1.455.844 1.108 1.638 2.25.32.464-.334-.395c-2.647-3.086-6.108-6.507-10.88-10.938h0l-5.287-4.876c-3.874-3.61-6.907-6.614-9.297-9.3 1.13-.31 2.2-.548 3.2-.71z" id="N"/><rect id="O" y=".29" width="235.661" height="235.661" rx="15.082"/><path id="P" d="M27.525 69.928c-13.45 49.2-10.14 25.066-11.31 72.2"/><path id="Q" d="M171.047 59.47c21.152 60.58 14.716 33.106 22.963 81.48"/><path id="R" d="M12.003 10.45c3.305 3 2.867 3.237 1.654-.246"/><path id="S" d="M138.878 46.84c18.12-1.653 17.333-4.188-2.284-1.083"/><path id="T" d="M12.042 76.846c-17.2 32.97-23.838 15.697-37.685-2.066-4.94-6.336-11.013-11.7-16.52-17.552"/><path id="U" d="M105.216 71.308c4.175 5.04 3.62 5.456 2.1-.415"/><path id="V" d="M32.558 128.218c3.305 3 3.555-1.846 1.098-1.4l-1.098 1.4z"/></defs><g fill="none" fill-rule="evenodd"><mask id="W" class="E"><use xlink:href="#A"/></mask><g class="G"><g transform="translate(-.791 601.438)"><mask id="X" class="E"><use xlink:href="#B"/></mask><use xlink:href="#B" class="L"/><g class="T"><g transform="matrix(-1 0 0 1 223.725118 144.778447)"><path d="M.66 135.508C9.976 106.387 29.96 18.357 67.035 7.98 89.05 1.817 127.288-1.015 151.28.328c13.277.743 36.52 11.02 48.504 15.303 23.078 8.248 37.07 24.334 41.342 49.152 2.648 15.378 23.873 47.53 12.268 57.97-17.65 15.88-46.013-1.9-69.64.535-17.187 1.778-121.277 21.068-132.902-11.83L.66 135.508z" fill="#008bf8" transform="matrix(-1 0 0 1 257.498578 0)"/><g class="D B"><path d="M125.402 11.08c16.72 10.75 22.692 20.9 17.915 30.455L123.6 37.95 94.947 48.7C73.483 26.985 64.506 13.33 68.014 7.735" stroke="#fff" opacity=".465" transform="matrix(-1 0 0 1 212.18351 0)" class="Z"/><g class="C I"><use xlink:href="#P"/><use xlink:href="#Q"/></g></g></g><path d="M151.437 30.15c4.27 5.876 1.533 10.65 4.533 12.42 10.8 6.363 23.444 8.46 34.62 14.13 1.29.654 1.29 3.23.344 4.322-3.186 3.672-12.5 3.95-11.676 8.74 1.636 9.514 22.884 17.82 13.93 33.304s-30.457 19.484-42.194 33.7c-29.264 35.42.28 33.435-15.845 45.976l-16.392-10.742c-11.322-4.212-20.28-10.78-26.872-19.706l1.353-10.05-.863-1.516 2.682-2.974c11.555-12.932 19.145-23.26 18.558-34.422l-.394-7.364c-.207-3.377-.39-4.577-.92-6.32-14.018-2.454-13.698-20.155 5.82-23.943.06-.384.08-.772.046-1.164-.51-6.22-6.097-13.723-16.756-22.505l1.694-1.31c7.474-5.813 12.95-10.437 16.432-13.875 2.765-2.73 4.764-6.127 7.017-9.303 12.35 3.117 22.282 9.035 24.882 12.614z" class="H"/><g class="B D F"><g transform="matrix(.809017 -.587785 .587785 .809017 135.814685 46.547852)"><path d="M.738 52.46c3.168.238 8.447 3.503 20.423 2.275" class="U"/><g class="C"><path d="M6.628 2.55C24.75.897 23.96-1.637 4.344 1.467"/><use xlink:href="#R"/></g></g></g></g><mask id="Y" class="E"><use xlink:href="#C"/></mask><use transform="matrix(.809017 -.587785 .587785 .809017 -21.651326 75.266858)" xlink:href="#C" class="V"/><g class="F D B W"><path d="M164.025 85.557c3.168.238 8.447 3.503 20.423 2.275" transform="matrix(.809017 -.587785 .587785 .809017 -17.762703 118.996976)" class="U"/><g class="C"><use xlink:href="#S" transform="matrix(.809017 -.587785 .587785 .809017 .768245 93.491314)"/><use xlink:href="#R" x="138.002" y="41.588" transform="matrix(.809017 -.587785 .587785 .809017 -2.299734 99.056134)"/></g></g></g><g transform="translate(-.896 96.243)"><mask id="Z" class="E"><use xlink:href="#D"/></mask><use xlink:href="#D" class="L"/><g mask="url(#Z)"><g transform="matrix(-1 0 0 1 209.393365 42.699684)"><g class="H"><path d="M117.26 112.088c-6.8 15.3-6.8 25.516 0 30.62s13.6 8.505 20.4 10.206c-16.293 35.902-36.34 49.6-60.14 41.095s-33.952-22.24-30.455-41.204c10.738-3.294 17.307-6.877 19.706-10.75 3.09-4.99 3.392-41.324 7.166-46.578 8.166-11.37 17.507-17.742 28.022-19.11l15.3 35.722z" transform="matrix(-.970296 .241922 .241922 .970296 148.321167 -18.211549)"/><path d="M204.36 195.787c-2.627-7.26-4.184-15.003-7.88-21.78-3.854-7.066-8.185-14.328-14.52-19.29-44.226-34.647-.007 51.372-29.666 53.518-31.526 2.28-88.03 18.733-101.85-23.44-1.533-4.678.475-10.758-2.7-14.52-1.847-2.19-6.353-.65-8.5 1.245-3.648 3.217-5.693 8.052-7.26 12.655-1.806 5.304-5.153 11.554-2.7 16.592 10.54 21.64 73.92 32.372 78.83 33.607 47.905 12.053 70.224 14.72 92.516-29.872"/></g><g transform="matrix(-.997564 -.069756 -.069756 .997564 147.061683 9.883388)"><path d="M42.21 145.786l-.08-.2 1.04 1.402c6.3 8.633 1.887 5.524-.96-1.203zM122.963 26.02l-.038-.056c4.64 6.244 6.598 12.243 6.598 15.966 0 7.267-1.654 15.184-1.965 18.82-1.843 21.534 7.467 16.798 5.305 22.034-.927 2.244-2.666 2.505-3.95 5.11-1.42 2.883-2.08 6.395-2.93 10.065-9.214.51-13.973-1.742-16.968-2.344l-.307-.057 11.924 15.266c-2.165 2.806-5.225 5.343-9.718 7.343-16.326 7.267-36.052-2.14-53.877 2.456-18.636 4.805-18.15 16.592-15.158 24.342l.25.618-1.22-1.6c-3.593-4.645-9.277-11.49-17.95-21.133l6.933-1.536c.16-3.97-2.03-14.543-2.89-19.294l6.944-1.284c12.664-2.37 21.61-4.552 26.707-12.414l3.725-5.752c1.302-2.035-4.668-12.787-4.163-13.847.607-1.273 1.843-8.42 2.537-10.598 1.46-4.582 21.38 6.38 24.355 1.477 4.86-8.004 19.4-10.976 23.094-15.71 3.616-4.622 8.278-16.003 12.388-17.74l.373-.135z" class="H"/><path d="M102.52 2.012C99.123.633 88.355 1.48 81.052 3.1h0l-1.683.393c-6.127 1.36-15.985 1.184-18.628 2.16-.144.053-15.02-2.615-22.28 7.013-2.72 3.608-3.805 11.95-6.367 16.84-2.686 5.127-7.153 9.32-8.098 16.377-.664 4.96-6.19 10.78-6.92 15.9-.844 5.928 4.298 10.698 3.766 16.638-.205 2.285 4.017 8.808 3.795 11.16-.18 1.892 4.085 4.768 2.95 9.185s-5.622 3.71-7.773 8.436 3.224 8.214 2.7 12.76-3.236 1.153-5.86 6.774c-1.306 2.796 1.984 6.16 1.162 9.06-.83 2.93-5.765 5.394-5.986 8.56-.44 6.3 4.216 5.167 2.95 9.185s-1.96 2.965-4.2 8.686c-.77 1.963-.044 3.71-.5 7.148-.872 6.584-6.148 12.158-8.398 17.37-3.426 7.936 13.016-1.123 16.834-9.598s4.8-9.638 6.36-13.922-3.118-3.9-1.162-9.06c1.026-2.706 6.42-.612 7.398-3.074.89-2.234-2.775-9.173.625-8.936 7.148.5 1.206-16.55 4.574-14.047s5.67-5.99 8.023-12c1.276-3.262-2.846-6.334-2.95-9.185-.087-2.41 3.688-4.657 5.86-6.774 4.744-4.62 13.61-2.803 14.76-4.795 5.03-8.727 5.636-9.626 6.444-12.548h0l.523-1.994c-12.204-9.803-1.42-26.302 18.887-17.016 5.24-7.224 18.064-10.8 21.3-15.406h0l.248-.363c3.403-5.127 7.477-16.657 11.488-18.126h0l.073-.03-.043-.053c8.57-3.883 7.858-13.546 4.43-16.12-3.543-2.66-14.936-8.354-21.72-11.22h0z" class="V"/><g class="B D F"><path d="M108.853 60.92l8.083-.963c4.096-.646 7.703.87 6.703.634-.663-.156-4.503-2.27-7.398-2.01l-9.67 1.254" class="C"/><path d="M113.855 71.113c3.3 2.99 2.864 3.238 1.652-.246" stroke-width="6.079"/></g></g></g></g></g><g transform="translate(259.763 601.438)"><mask id="a" class="E"><use xlink:href="#E"/></mask><use xlink:href="#E" class="M"/><g mask="url(#a)"><g transform="translate(-26.279 -.264)"><path d="M158.435 27.132c20.333 9.5 41.246 23.905 37.757 54.824-1.95 17.273-12.322 30.597-23.948 40.26l-.337-.917c8.173-15.3 13.988-26.922 17.444-34.867 9.985-22.952-18.036-22.874-25.73-25.482-5.025-1.703-25.722-23.29-31.217-22.536-2.326.32-16.18 10.134-41.563 29.446 1.774-1.855 1.763-3.475-.032-4.858h0l-2.595-3.608c6.43-21.843 18.285-33.036 50.17-36.912 7.447-.905 13.255 1.47 20.05 4.648z" transform="matrix(-.819152 -.573576 -.573576 .819152 300.482334 94.741716)" class="J"/><g transform="translate(40.846 14.332)"><g transform="translate(10.555 156.501)"><mask id="b" class="E"><use xlink:href="#F"/></mask><use fill="#56e49f" transform="matrix(-1 0 0 1 225.589516 0)" xlink:href="#F"/><g class="B C D N"><use xlink:href="#T" class="X"/><g class="I"><use xlink:href="#P" x="-16.198" y="-16.123"/><use xlink:href="#Q" x="-16.197" y="-16.124"/><use xlink:href="#Q" x="-144.981" y="-3.225" transform="matrix(.913545 .406737 -.406737 .913545 42.693278 -6.887198)"/></g></g></g><g transform="matrix(-.809017 -.587785 -.587785 .809017 199.83925 86.182115)"><path d="M117.04 23.33c7.694 2.607 35.715 2.53 25.73 25.482l-.55 1.25c-3.51 7.895-9.14 19.1-16.894 33.616l.337.917-.4.33c.398.525.764 1.05 1.1 1.57l.214.59c.136.16.278.32.426.475 8.312 14.637-7.093 26.996-21.816 10.41a122.35 122.35 0 0 1-5.888 2.813l-2.44 1.078c-13.827 6.07-13.603 5.175-30.51 9.527-44.943 11.57 5.225 18.41-19.036 20.714-16.173 1.536-31.853-11.628-47.04-39.49l1.38.48c8.09 2.78 12.856 3.818 14.3 3.114l1.333-.655c9.34-4.62 14.098-7.73 14.275-9.328l1.23-10.84 2.62-20.834.097-.682.836-5.727c-18.5-8.303-12.026-26.043 4.413-23.19a104.02 104.02 0 0 1 .879-3.177l2.594 3.6c1.795 1.383 1.806 3.002.032 4.858l6.565-4.978C72.04 9.24 83.705 1.084 85.822.794 91.317.04 112.014 21.627 117.04 23.33z" fill="#ff7a3a"/><g class="F C D B"><path d="M66.057 83.326c12.16 6.14 20.738 1.234 30.378-7.14" transform="matrix(.681998 .731354 -.731354 .681998 85.172747 -33.619326)"/><use xlink:href="#S" x="-26.998" y="21.17" transform="matrix(.559193 .829038 -.829038 .559193 107.013644 -67.791226)"/><path d="M93.938 73.24c-2.852 32.158-2.88 25.665-12.802-.476" fill="#ff7a3a"/><use xlink:href="#S" x="-61.781" y="-4.1" transform="matrix(.788011 .615661 -.615661 .788011 43.010881 -41.984461)"/><use xlink:href="#U"/><use xlink:href="#R" x="67.615" y="42.97"/></g><use xlink:href="#R" x="15.207" y="126.684" class="B C D I"/></g></g><path fill="#bdc2bf" d="M.433 205.02h114.654l41.204 91.365H.433z"/></g></g></g><path d="M370.834 788.246c-2.123-3.884-5.374 0-8.508.878-6.7 1.874-.876 13.42-4.48 11.462-4.264-2.315-11.125-25.445-.427-28.442 3.24-.908 4.76-2.635 6.25-1.812 5.522 3.05 2.748 16.813 13.718 14.494 34.652-7.328 28.605-10.238 31.07-12.702 3.583-3.583 17.295 1.62 14.332 3.583l-14.427 11.65c-7.17 4.75-11.737 15.62-20.334 15.883-6.714.205-9.085-9.897-13.628-14.846l-3.564-.146z" fill="#008bf8"/><g transform="translate(259.763 96.243)"><mask id="c" class="E"><use xlink:href="#G"/></mask><use xlink:href="#G" class="O"/><g mask="url(#c)"><g transform="matrix(-1 0 0 1 215.361403 12.245)"><path d="M234.753 274.242c-9.315-29.12-29.297-117.15-66.374-127.528-22.013-6.162-60.252-8.995-84.244-7.652-13.277.743-23.707 9.363-35.69 13.646-23.078 8.248-17.636 25.992-21.91 50.8-2.648 15.378-23.873 47.53-12.268 57.97 17.65 15.88 13.767-1.9 37.393.535 17.187 1.778 121.277 21.068 132.902-11.83l50.19 24.048z" fill="#beef9e"/><path d="M143.47 90.036c17.47-11.738 20.177-25.666 15.97-39.264-1.47-4.75-5.343-13.172-8.165-17.735-8.38-13.548-21.862-15.153-30.455-23.29-.882-.835-13.267-5.957-14.332-5.374-3.707 2.028-10.963-3.288-21.042-2.877-.942.038 2.636 2.183 1.697 2.26-10.066.836-17.666.3-25.307-.565-2.904-.33-6.964-1.513-8.73.816-1.34 1.767 5.79 3.598 4.208 5.15-3.368 3.3-10.4.52-13.564 4.02C42.103 15 49.1 15.87 49.026 18.326l-3.957 3.14c-.064 2.147 4.47 3.266 3.705 5.274-1 2.646-6.28 1.647-7.347 4.27-.872 2.14 3.786 4.016 3.077 6.217l-4.52 5.526c-1.5 4.663-2.872 9.757-1.947 14.568 1.027 5.34 23.44 38.107 25.494 41.444 19.283 31.334 48.855 15.342 73.344-4.396" class="J"/><g transform="matrix(-.809017 -.587785 -.587785 .809017 203.389862 95.205248)"><path d="M127.133 16.114l.486.153c2.623.776 5.55 3.62 10.11 4.74 5.31 1.305 8.304 5.032 11.595 8.424 2.845 2.932 6.644 5.025 3.538 12.163l-.582 1.322c-3.112 6.995-7.882 16.576-14.31 28.743-1.37 1.097-2.74 2.145-4.1 3.145a28.41 28.41 0 0 1 1.681 2.015l1.12 3.05c.465.55 1 1.075 1.59 1.52 6.3 14.516-10.45 25.5-25.164 5.53-14.44 6.132-10.813.33-28.04 4.764-44.943 11.57 5.225 18.41-19.036 20.714-16.173 1.536-31.853-11.628-47.04-39.49l1.38.48c8.09 2.78 12.856 3.818 14.3 3.114l1.333-.655c9.34-4.62 14.098-7.73 14.275-9.328 1.41-12.698-.03-18.553.416-24.953-24.59-7.75-16.466-29.916 3.164-24.06l.476.663c1.795 1.383 1.806 3.002.032 4.858l7.347-5.567c6.58-4.963 12.358-6.3 16.36-8.8C86.658 3.277 89.403.416 90.83.22c1.707-.234 5.358 2.94 9.75 4.87 4.605 2.02 11.017.628 15.807 2.627 5.347 2.232 8.92 7.78 10.747 8.398z" class="H"/><path d="M40.08 102.782c-12.16 1.753-3.36 2.59 26.405 2.514 2.904-.008-.06-6.856.065-3.955l5.64 4.755c.24 5.482-2.963 26.537-13.547 22.378-9.725-3.82-9.818-22.267-20.115-24.042l-4.605-2.66c-6.154-1.06-14.312 3.103-18.685-1.355-18.187-18.54 4.768-43.13 17.465-24.805 1.576 2.274-4.866 4.516-4.15 7.188 1.783 6.65 7.198 11.74 10.797 17.612l.73 2.37z" class="K"/><g class="B C D F"><path d="M63.684 57.416c8.066 17.653 20.514 23.8 36.594 28.773m15.93-37.96c11.504 14.098 13.164 12.028-.38-2.5"/></g><path d="M73.473 60.684c3.463 1.542 5.7 6.328 9.092 8.82 7.745 5.7 15.344 10.506 13.332 16.43-1.125 3.315-14.127.5-16.186-10.774-8.757 1.882-16.768-11.782-18.424-14.61" class="J"/><g class="B C D F"><path d="M95.397 63.52C75.49 88.935 79.003 83.474 84.92 56.148" class="H"/><path d="M79.412 25.846c15.298 9.854 16.237 7.37-1.133-2.26"/><use xlink:href="#U" x="-1.441" y="-10.872"/><use xlink:href="#R" x="70.214" y="31.49"/></g></g></g><g class="B C D I"><use xlink:href="#Q" x="-6.841" y="134.708"/><path d="M52.986 205.93c-5.317 63.945-.02 36.23-12.163 83.775"/></g></g><path d="M61.16 190.522l-4.24 62.312h172.155l5.1-55.88a13.2 13.2 0 0 0-12.752-14.391l-146.707-4.337a13.2 13.2 0 0 0-13.557 12.296z" fill="#dfd6d6" mask="url(#c)"/></g><rect x="515.943" y="-152.275" width="235.661" height="235.661" rx="15.082" class="K"/><g transform="translate(519.526 96.243)"><mask id="d" class="E"><use xlink:href="#H"/></mask><use xlink:href="#H" class="M"/><g mask="url(#d)"><g transform="matrix(-1 0 0 1 234.660848 29.1594)"><path d="M95.378 22.055l.7.174-.73-.3c-2.698-1.12-9.344-4.376-2.825-6.632 5.633-1.95 9.486-.076 13.742 1.78l-.288-.658c-.738-1.646-1.553-3.3-.9-4.776 6.135-13.762 7.583.027 13.848-1.884l3.55-1.094c5.923-1.844 10.353-3.323 13.6-4.5l1.046-.386a16.28 16.28 0 0 1-2.959-1.581l-.115-.083-.125-.06c-.08-.037-.125-.08-.14-.123l-.004-.024-.092-.075c-1.25-1.06-1.115-2.03 4.608-1.465l.36.037.673-.11c3.003-.464 5.78-.52 4.062.7l-.082.054 2.168.362 1.757.3c2.806.53 5.93 1.4 6.683 3.868.71 2.33-8.162 3.765-5.817 4.425 14.563 4.095 18.704-7.347 29.99-3.44 6.76 2.34-.638 5.755-3.108 6.748l-.467.18.457-.118c3.345-.807 18.77-3.57 10.82 5.482-1.814 2.065-10.45 2.862-7.7 2.95 5.21.166 10.362-4.027 15.405-2.704 11.203 2.94 10.194 5.917 5.498 8.304l-.155.076h.018c.916.98 1.56 2.337 2.014 3.564.838 2.264-1.44 6.014.656 7.21l-8.114 2.95c3.05 1.742 7.16-2.976 10.407-1.64 11.495 4.733-4.998 7.1-2.868 8.768 3.345 2.617 16.07-1.425 9.997 9.75-.184.338-.41.65-.67.937l-.215.22 2.77.728c5.67 9.258-7.513 4.71-7.786 8.604-.26 3.71.586 5.613 1.91 6.41l.18.1-1.142.71-3.91 2.538-.725.486c-1.365.917 3.94-1.734 4.916-.41 1.152 1.56.04 4.09-.984 5.736l-12.128 4.343c-1.733 2.786 4.885 6.01 3.77 9.094-1.013 2.8-5.934 1.52-8.276 3.36l4.098 5.655c-9.453 7.42-17.465 11.88-25.775 12.924-3.357 2.786-7.16 3.82-11.407 1.997l-.457-.206-6.554 1.31c-4.16 1.014-8.213 2.736-12.456 3.194l-.983.083-3.196-2.293c-1.242.073 1.637-4.332.573-3.688-21.824 13.2-35.065 10.62-54.015-4.088l-.64-.5 4.098-5.655c-2.342-1.84-7.263-.56-8.276-3.36-1.08-2.986 5.083-6.1 3.91-8.823l-.142-.27-12.128-4.343c-1.025-1.647-2.136-4.175-.984-5.736.946-1.282 5.954 1.166 5.025.486l-.11-.076-4.63-3.02-1.148-.716.183-.097c1.254-.754 2.078-2.503 1.94-5.838l-.032-.57c-.27-3.835-13.064.52-8.027-8.2l.24-.405 2.77-.728-.214-.22c-.173-.19-.33-.393-.472-.607l-.197-.33c-6.074-11.177 6.652-7.134 9.997-9.75 2.13-1.666-14.363-4.035-2.868-8.768 3.127-1.288 7.054 3.04 10.064 1.807l.343-.168-8.114-2.95c2.096-1.197-.182-4.948.656-7.21.397-1.074.94-2.246 1.683-3.18l.347-.403-.153-.077c-4.545-2.31-5.637-5.175 4.46-8.022l1.038-.282c5.043-1.323 10.194 2.87 15.405 2.704l.295-.015c1.714-.144-6.262-.958-7.997-2.934-7.76-8.834 6.745-6.416 10.557-5.544h0zM62.796 83.43l.677.412-.03.02c-5.2 2.582-16.788-10.215-.647-.432zm144.35-8.32l.678-.415.935-.56c14.745-8.717 3.513 3.523-1.582.992l-.032-.017zm-142.81-8.1l-3.787.992.057.058c1.5 1.438 3.89 2.154 5.942 2.226 1.317.046-1.524-4.4-2.212-3.277zm141.95-8.734c-.688-1.124-3.53 3.323-2.212 3.277 2.05-.072 4.44-.79 5.942-2.226l.056-.058-3.785-.993zM73.513 35.055c-.563.192-1.06.518-1.5.93l-.24.24.077.038c2.872 1.413 7.008 2.612 10.595 3.463 1.31.31-.366-4.12-1.64-3.688l-7.292-.984zm123.594-8.734l-7.292.984c-1.273-.434-2.948 3.998-1.64 3.688 3.31-.786 7.1-1.868 9.91-3.14l.76-.36-.24-.238c-.352-.33-.74-.605-1.17-.8l-.33-.13zM139.338.49l-.675-.075-.893.165c-2.102.412-3.942.955-3.983 1.317v.02l.27.206 1.752.845c.653.324 1.077.55 1.323.693l.13.077.575-.215c2.855-1.084 4.543-1.867 5.392-2.416l.088-.06-1.557-.238-2.42-.32z" class="V"/><g transform="matrix(-1 0 0 1 226.516588 15.332)"><g class="J"><path d="M.27 135.655c9.315-29.12 29.297-117.15 66.374-127.528C88.656 1.965 126.895-.867 150.886.475c13.277.743 23.707 9.363 35.69 13.646 23.078 8.248 17.636 25.992 21.91 50.8 2.648 15.378 23.873 47.53 12.268 57.97-17.65 15.88-13.767-1.9-37.393.535-17.187 1.778-121.277 21.068-132.902-11.83L.27 135.655z" transform="matrix(-1 0 0 1 225.272796 120.672)"/></g><g transform="matrix(-.809017 -.587785 -.587785 .809017 173.242449 73.541995)"><path d="M97.104 16.646l.486.153c2.623.776 5.55 3.62 10.11 4.74 5.31 1.305 8.304 5.032 11.595 8.424 2.845 2.932 6.644 5.025 3.538 12.163l-.582 1.322c-3.112 6.995 3.44 7.088-2.988 19.254-1.37 1.097-2.74 2.145-4.1 3.145a28.41 28.41 0 0 1 1.681 2.015l1.12 3.05c.465.55 1 1.075 1.59 1.52 6.3 14.516-10.45 25.5-25.164 5.53-14.44 6.132-10.813.33-28.04 4.764-44.943 11.57 5.225 18.41-19.036 20.714-3.818.362-8.676-1.63-16.49-.466-1.286.192-3.656 1.422-7.11 3.69-.15-5.023-.678-8.36-1.585-10.01C14.143 82.154 5.1 72.812.27 63.95l1.38.48c8.09 2.78 12.856 3.818 14.3 3.114l1.333-.655c9.34-4.62 14.098-7.73 14.275-9.328 1.41-12.698-.03-18.553.416-24.953-24.59-7.75-16.466-29.916 3.164-24.06l.476.663c1.795 1.383 1.806 3.002.032 4.858L42.993 8.5c6.58-4.963 1.035 3.2 5.036.688C56.63 3.808 59.374.947 60.8.752c1.707-.234 5.358 2.94 9.75 4.87 4.605 2.02 11.017.628 15.807 2.627 5.347 2.232 8.92 7.78 10.747 8.398z" class="H"/><g class="B C D F"><path d="M51.652 43.585c3.802 13.08 13.24 16 25.94 17.347m22.015-24.558c11.504 14.098 13.164 12.028-.38-2.5"/><path d="M72.378 53.537c26.095-19.007 20.515-15.688-7-10.728" class="H"/><path d="M66.367 12.145c15.298 9.854 16.237 7.37-1.133-2.26"/><use xlink:href="#U" x="-14.771" y="-26.368"/><use xlink:href="#R" x="56.884" y="15.993"/></g></g></g><g class="B C D I"><use xlink:href="#Q" x="14.053" y="119.88"/><path d="M73.9 191.1c-5.317 63.945-.02 36.23-12.163 83.775"/></g></g></g><path d="M-91.84 176.553l-38.488 66.25H42.637l44.843-69.856-164.15-4.83a16.97 16.97 0 0 0-15.17 8.437z" fill="#e3e7d3" mask="url(#d)" transform="matrix(-1 0 0 1 -42.847426 0)"/></g><g transform="translate(519.526 601.438)"><mask id="e" class="E"><use xlink:href="#I"/></mask><use xlink:href="#I" class="K"/><g mask="url(#e)"><g transform="translate(-16.936 25.621)"><path d="M0 274.157c7.058-21.95.563-36.693 21.242-60.365 11.857-13.573 30.93-35.87 47.04-40.355 40.767-11.353 69.797-33.375 109.9-19.116 27.513 9.783 20.564 51.274 25.658 80.7 3.156 18.24 60.875-50.615 47.04-38.23-5.93 5.308 22.742 1.6 17.105 27.61-14.364 66.276-63.16 195.446-83.387 197.528-20.5 2.11-166.6-99.04-180.458-138.057L0 274.157z" transform="matrix(-1 0 0 1 268.72038 0)" class="O"/><path d="M176.218 125.484c-8.142 18.043-8.142 30.072 0 36.086s16.284 10.024 24.426 12.03c-19.508 42.312-43.51 58.456-72.01 48.432s-40.653-26.21-36.466-48.56c12.858-3.882 20.723-8.105 23.596-12.668 3.7-5.88 4.062-48.702 8.58-54.894 9.778-13.402 20.963-20.9 33.553-22.524l18.32 42.1z" transform="matrix(-1 0 0 1 292.009478 0)" class="Y"/><g transform="matrix(-.951057 -.309017 -.309017 .951057 211.898723 44.261647)"><g transform="translate(.539 .892)" class="Y"><use xlink:href="#J"/></g><g class="B D F"><path d="M102.175 83.605c3.767.282 10.045 4.153 24.286 2.697" class="U"/><g class="C"><path d="M103.052 42.648c21.55-1.96 20.612-4.964-2.716-1.284m12.882 13.656c3.93 3.544 3.4 3.837 1.967-.292"/></g></g><path d="M79.83 44.014C50.187 26.846 34.477 59.793 69.534 69.37" class="Y"/></g></g></g><g mask="url(#e)" class="O"><path d="M-737.35 212.77c5.913-18.515.472-30.95 17.798-50.916 9.935-11.45 25.915-30.254 39.412-34.038 34.157-9.576 58.48-28.15 92.08-16.123 23.053 8.252 17.23 43.248 21.498 68.076 2.645 15.384 51.005-42.692 39.412-32.246-4.97 4.477 19.055 1.35 14.332 23.29-12.035 55.9-52.92 164.85-69.867 166.607-17.168 1.78-139.588-83.535-151.2-116.445l-3.466-8.203z"/></g></g><g class="L"><rect x="258.378" y="-152.708" width="235.661" height="235.661" rx="15.082"/></g><g transform="translate(519.526 348.841)"><mask id="f" class="E"><use xlink:href="#K"/></mask><use xlink:href="#K" class="L"/><g mask="url(#f)"><g transform="translate(-23.102 3.35)"><g transform="translate(32.053 156.501)"><mask id="g" class="E"><use xlink:href="#L"/></mask><use transform="matrix(-1 0 0 1 224.466796 0)" xlink:href="#L" class="K"/><g class="B C D P"><use xlink:href="#T" class="X"/><use xlink:href="#P" x="-16.198" y="-16.123" class="I"/><g class="F"><use xlink:href="#Q" x="-16.197" y="-16.124"/><use xlink:href="#Q" x="-144.981" y="-3.225" transform="matrix(.913545 .406737 -.406737 .913545 42.693278 -6.887198)"/></g></g></g><g transform="matrix(-.809017 -.587785 -.587785 .809017 231.482184 93.553109)"><g class="H"><path d="M39.798 90.138c2.824 13.258 12.915 22.622 30.27 28.095-9.42 7.247 8.044 12.137-10.22 13.87-3.353.318-10.934-1.396-16.5-.466-4.525.757-7.727 4.54-6.058 2.242 1.036-1.426 3.436-2.592 3.16-4.348-1.4-8.953-19.73-22.385-27.65-36.92l1.38.48c8.1 2.78 12.856 3.818 14.3 3.114l1.638-.806c3.716-1.845 6.7-3.446 8.925-4.802l.745-.46zm81.187 5.292c-1.476 1.855-2.956 3.4-4.534 4.727l1.817-1.933c3.993-4.286 9.282-10.183 15.87-17.7 11.573 6.878-1.197 18.145-13.152 14.897zM98.362.794c5.495-.753 26.192 20.833 31.217 22.536l.453.144c7.728 2.305 31.608 2.76 26.758 21.15-6.505 13.247-14.453 24.14-21.394 32.842-14.295 13.268-24 17.07-29.112 11.4l-.223-.256c-6.326-7.55-13.705-13.65-22.137-18.3-13.7-5.525-21.125-14.6-22.272-27.254l-.28-3.17c-.437-5.094-.726-9.252-.865-12.473l7.78-5.868C86.4 7.982 96.415 1.06 98.362.794zM55.08 25.334l-.5 1.585c-1.343 4.3-2.908 9.775-4.693 16.393l-1.26 4.718-.202-.1c-18.58-8.7-10.94-27.078 6.654-22.604z"/></g><g class="F C D B"><path d="M73.57 88.783c12.16 6.14 20.738 1.234 30.378-7.14" transform="matrix(.681998 .731354 -.731354 .681998 91.553044 -37.378943)"/><use xlink:href="#S" x="-14.458" y="21.17" transform="matrix(.559193 .829038 -.829038 .559193 112.54149 -78.187593)"/><path d="M111.314 57.004c3.138 13.532-7.716 41.9-17.637 15.76" class="H"/><use xlink:href="#S" x="-49.241" y="-4.1" transform="matrix(.788011 .615661 -.615661 .788011 45.669286 -49.70503)"/><use xlink:href="#U" x="12.541"/><use xlink:href="#R" x="80.157" y="42.97"/></g><g stroke="#038225" class="B C"><use xlink:href="#V"/><use xlink:href="#V" x="-8.655" y="11.912"/><path d="M17.53 151c3.305 3 3.555-1.846 1.098-1.4L17.53 151z"/><use xlink:href="#V" x="-23.451" y="34.378"/><use xlink:href="#V" x="-31.875" y="45.972"/></g></g></g></g></g><g transform="translate(-.896 348.841)"><mask id="h" class="E"><use xlink:href="#M"/></mask><use xlink:href="#M" class="M"/><g mask="url(#h)"><g transform="matrix(-.984808 -.173648 -.173648 .984808 330.177794 17.892685)"><path d="M127.946 204.745c-47.176-19.254-62.18-45.302-45.01-78.143C108.692 77.34 158.034-1.517 211.86 44.246c35.883 30.51 30.614 82.694-15.81 156.555l-68.104 3.944z" transform="matrix(.798636 -.601815 .601815 .798636 -39.427846 117.381809)" class="J"/><g transform="matrix(-1 0 0 1 261.402161 34.306483)"><g transform="translate(.933 152.046)"><mask id="i" class="E"><use xlink:href="#N"/></mask><use fill="#beef9e" xlink:href="#N"/><g class="B C D Q"><path d="M13.94 93.412c-19.92 38.176-27.592 18.175-43.62-2.392-5.718-7.337-12.747-13.55-19.12-20.323" class="X"/><path d="M13.1 66.732C-2.457 123.7 1.374 95.756.018 150.332" class="I"/><g class="F"><path d="M179.234 54.622c24.482 70.145 17.034 38.333 26.58 94.344"/><path d="M30.164 69.558c24.493 70.144 17.04 38.333 26.594 94.342" transform="matrix(.913545 .406737 -.406737 .913545 51.235442 -7.585195)"/></g></g></g><g transform="matrix(-.809017 -.587785 -.587785 .809017 211.380545 85.263098)"><path d="M138.545 81.91l.25.688c.157.186-8.602-4.68.49.548s-8.89 22.928-18.54 16.934l-6.816 3.257c-18.918 8.41-18.827.342-39.483 5.662-52.02 13.397 2.027 29.677-26.054 32.344C29.675 143.12 13.72 126.738.532 92.196l3.53 1.438 4.16 1.66c12.18 4.788 19.008 6.822 20.486 6.1 7.886-3.846 13.88-9.746 17.98-17.7l-.65-2.19-.616-2.128c-4.3-15.02-6.077-25.142-5.33-30.366l1.03-6.603c-.7-.313-1.503-.46-2.01-.972-6.016-6.08-5.872-23.923 9.1-25.47.238-.567-2.297 23.245.285 22.89l.722-.11c9.362-1.553 68.932-14.52 88.293-37.753 4.965-5.958 9.778 43.003 1.03 80.918z" class="R"/><g class="F C D B"><path d="M69.23 89.14c14.077 7.11 24.01 1.433 35.167-8.26" transform="matrix(.681998 .731354 -.731354 .681998 90.944136 -35.951279)"/><path d="M128.498 65.386c20.98-1.9 20.067-4.844-2.644-1.254" transform="matrix(.559193 .829038 -.829038 .559193 112.37028 -83.515983)"/><path d="M104.688 74.95c-1.278 14.665-11.586 1.836-7.13-2.865" class="R"/><path d="M88.237 36.124c20.977-1.91 20.065-4.845-2.644-1.254" transform="matrix(.788011 .615661 -.615661 .788011 41.356076 -50.809518)"/><path d="M120.786 69.205c4.832 5.836 4.2 6.318 2.42-.48M91.157 48.5c3.825 3.462 3.318 3.748 1.915-.285"/></g></g></g></g></g><g mask="url(#h)"><path d="M11.715 179.897c-4.082 5.63-5.154 7.13-3.566 11.896 1.044 3.134 1.327 7.932 3.583 10.75 1.764 2.202 4.808 6.617 7.166 8.957 4.1 4.08 7.673 6.057 9.77 9.175 3.648 5.427 1.765 14.697 7.275 18.22 5.303 3.39 15.893 4.037 18.82-1.535 3.26-6.206-7.5-12.55-7.74-19.554-.907-25.278 7.706-26.01 1.4-30.7s-20.5 10.202-34.972-4.937l-1.734-2.27z" class="R"/><g class="B"><path d="M33.262 159.214l-29.51-8.44L27.53 215.19l29.968 3.662-24.235-59.637z" stroke="#bdc2bf" fill="#bdc2bf" class="Z"/><g class="C D F R S"><path d="M22.48 200.75c7.44 0 8.818.616 15.725 2.927.99.33-.055 4.952-1.05 5.205l-2.393 2.403c-3.908.99-7.878.8-11.817 1.202"/><path d="M20.688 195.375c7.74 7.85 12.453.616 21.004 2.927 1.225.33-.068 4.952-1.3 5.205L37.43 205.9c-4.84.99-11.3.8-16.167 1.202"/><path d="M20.688 191.792c11.51 7.85 13.144-1.176 25.86 1.136 1.82.33-.102 4.952-1.935 5.205l-4.405 2.403c-7.195.99-16.296.8-23.548 1.202"/><path d="M12.582 185.302c11.51 7.85 18.518-1.176 31.234 1.136 1.82.33-.102 4.952-1.935 5.205l-4.405 2.403c-7.195.99-14.504.8-21.757 1.202"/></g></g></g></g><g transform="translate(259.763 348.841)"><mask id="j" class="E"><use xlink:href="#O"/></mask><use xlink:href="#O" class="E"/><g mask="url(#j)"><path d="M54.673 162.09c0 5.517 3.795 9.252 8.506 8.414l.143-.027 90.918-17.894c4.73-.93 8.572-6.114 8.648-11.625l.001-.167V83.676h8.187c5.177 0 9.373 4.213 9.373 9.4v69.435c0 5.197-4.197 9.4-9.373 9.4h-11.064l.022 25.158c0 .34-.273.614-.61.614a.61.61 0 0 1-.393-.143l-30.484-25.63h-64.5c-5.177 0-9.373-4.213-9.373-9.4v-.433zm0-68.965a9.39 9.39 0 0 1 1.955-5.743c-1.197 1.942-1.925 4.243-1.955 6.602v-.86z" class="K"/><path d="M54.673 160.87c0 5.522 3.187 8.455 7.142 6.616l.12-.057 76.34-37.2c3.97-1.935 7.197-7.94 7.26-13.47l.001-.167V66.422l8.932-1.754c4.788-.94 8.67 2.815 8.67 8.39v68.012c0 5.573-3.88 10.853-8.67 11.794L63.342 170.76c-4.788.94-8.67-2.815-8.67-8.39v-1.5z" class="O"/><path d="M61.934 79.183l76.324-37.196c4-1.954 7.26.98 7.26 6.557v68.04c0 5.575-3.25 11.68-7.26 13.634l-76.324 37.196c-4 1.954-7.26-.98-7.26-6.557v-68.04c0-5.575 3.25-11.68 7.26-13.634z" class="M"/></g></g></g></g></svg>