<svg xmlns="http://www.w3.org/2000/svg" xmlns:xlink="http://www.w3.org/1999/xlink" width="380" height="655" xmlns:v="https://vecta.io/nano"><style><![CDATA[.B{stroke-linejoin:round}.C{stroke-width:.5}.D{stroke-linecap:round}.E{fill:#0064ff}.F{mask:url(#a)}.G{fill-rule:nonzero}.H{fill:#fff}.I{fill:#ff0034}.J{fill:#ff9d00}.K{fill:#00173a}.L{fill:#005b11}.M{mask:url(#b)}.N{stroke:#f4f2ee}.O{stroke:#001d75}.P{fill:#001d71}.Q{mask:url(#c)}.R{stroke:#212121}.S{stroke:#0064ff}.T{filter:url(#E)}.U{fill:#001d75}.V{fill:#2ac2ff}.W{fill:#ff7800}]]></style><defs><filter x="-51.8%" y="-27.9%" width="203.6%" height="155.8%" id="A"><feOffset dy="24" in="SourceAlpha"/><feGaussianBlur stdDeviation="16"/><feColorMatrix values="0 0 0 0 0 0 0 0 0 0.160784314 0 0 0 0 0.349019608 0 0 0 0.1 0" result="C"/><feMerge><feMergeNode in="C"/><feMergeNode in="SourceGraphic"/></feMerge></filter><filter x="-22.5%" y="-12.1%" width="145.0%" height="124.2%" id="B"><feOffset dy="12" in="SourceAlpha"/><feGaussianBlur stdDeviation="12"/><feColorMatrix values="0 0 0 0 0 0 0 0 0 0.164542109 0 0 0 0 0.362271488 0 0 0 0.1 0" result="C"/><feMerge><feMergeNode in="C"/><feMergeNode in="SourceGraphic"/></feMerge></filter><path d="M24.927 0h230.1c13.244 0 23.985 10.73 24 23.973l.547 495.248c.015 13.255-10.72 24.012-23.973 24.026h-.027-230.1c-13.244 0-23.985-10.73-24-23.973L.927 24.027C.912 10.772 11.645.015 24.9 0h.027z" id="C"/><path d="M25.027 0h230.1c13.244 0 23.985 10.73 24 23.973l.547 495c.015 13.255-10.72 24.012-23.973 24.027h-.027-230.1c-13.244 0-23.985-10.73-24-23.973l-.547-495C1.012 10.772 11.745.015 25 0h.027z" id="D"/><filter x="-9.3%" y="-11.3%" width="118.7%" height="122.6%" id="E"><feOffset dy="4" in="SourceAlpha"/><feGaussianBlur stdDeviation="3.5"/><feColorMatrix values="0 0 0 0 0 0 0 0 0 0.164542109 0 0 0 0 0.362271488 0 0 0 0.1 0" result="C"/><feMerge><feMergeNode in="C"/><feMergeNode in="SourceGraphic"/></feMerge></filter><path id="F" d="M0 .752h241v188.633H0z"/><path id="G" d="M0 0h241v110.72H0z"/><path id="H" d="M17.5 0h279v97h-279z"/><filter x="-10.0%" y="-20.6%" width="120.1%" height="157.7%" id="I"><feOffset dy="8" in="SourceAlpha"/><feGaussianBlur stdDeviation="8"/><feColorMatrix values="0 0 0 0 0 0 0 0 0 0.160784314 0 0 0 0 0.349019608 0 0 0 0.1 0"/></filter><path d="M33.815 592h246.37C298.86 592 314 576.865 314 558.195V526H0v32.195C0 576.865 15.14 592 33.815 592z" id="J"/><filter x="-4.5%" y="-15.2%" width="108.9%" height="142.4%" id="K"><feOffset dy="4" in="SourceAlpha"/><feGaussianBlur stdDeviation="4"/><feColorMatrix values="0 0 0 0 0 0 0 0 0 0.164542109 0 0 0 0 0.362271488 0 0 0 0.1 0"/></filter><path id="L" d="M10.93 0C4.893 0 0 4.885 0 10.91s4.893 10.91 10.93 10.91 10.93-4.885 10.93-10.91S16.966 0 10.93 0z"/><path id="M" d="M5.39 1.302c-.026.42.383.528.497.14.087-.295-.386-.323-.535-.14"/><path id="N" d="M22.724 91.197V87.97H15.32V74.508h-3.763v16.7h11.167zm7.814.337c.95 0 1.805-.16 2.57-.482s1.42-.775 1.966-1.36.965-1.292 1.254-2.12.434-1.738.434-2.733-.153-1.903-.458-2.72-.732-1.517-1.278-2.095-1.202-1.028-1.966-1.35-1.604-.482-2.52-.482c-.9 0-1.733.16-2.496.482a5.85 5.85 0 0 0-1.978 1.349 6.17 6.17 0 0 0-1.302 2.095c-.314.82-.47 1.726-.47 2.72s.153 1.907.458 2.733.732 1.533 1.278 2.12 1.202 1.04 1.966 1.36 1.612.482 2.545.482zm0-3.083a2.18 2.18 0 0 1-1.905-.975c-.45-.65-.675-1.53-.675-2.637s.225-1.98.675-2.613 1.085-.95 1.905-.95 1.45.317 1.893.95.663 1.505.663 2.613-.22 1.987-.663 2.637-1.073.975-1.893.975zm14.64 3.083c.95 0 1.805-.16 2.57-.482s1.42-.775 1.966-1.36.965-1.292 1.254-2.12.434-1.738.434-2.733-.153-1.903-.458-2.72-.732-1.517-1.278-2.095-1.202-1.028-1.966-1.35-1.604-.482-2.52-.482c-.9 0-1.733.16-2.496.482a5.85 5.85 0 0 0-1.978 1.349 6.17 6.17 0 0 0-1.302 2.095c-.314.82-.47 1.726-.47 2.72s.153 1.907.458 2.733.732 1.533 1.278 2.12 1.202 1.04 1.966 1.36 1.612.482 2.545.482zm0-3.083a2.18 2.18 0 0 1-1.905-.975c-.45-.65-.675-1.53-.675-2.637s.225-1.98.675-2.613 1.085-.95 1.905-.95 1.45.317 1.893.95.663 1.505.663 2.613-.22 1.987-.663 2.637-1.073.975-1.893.975zm12.6 2.745v-5.54a9.76 9.76 0 0 1 1.218 1.18l1.17 1.457 1.05 1.517.88 1.385H66.2l-1.013-1.758-1.327-1.927-1.495-1.866c-.515-.602-1.013-1.12-1.495-1.553l2.665-2.758 2.496-2.806h-4.27l-.808.963-1 1.168-1.097 1.24-1.097 1.204V72.51l-3.594.578v18.1h3.594zm12.156-14.21a2.2 2.2 0 0 0 1.507-.566c.426-.377.64-.895.64-1.553s-.213-1.176-.64-1.553a2.2 2.2 0 0 0-1.507-.566 2.2 2.2 0 0 0-1.507.566c-.426.377-.64.895-.64 1.553s.213 1.176.64 1.553a2.2 2.2 0 0 0 1.507.566zm1.81 14.21V78.53H68.14v12.668h3.594zm6.97 0V81.42l.772-.084.82-.036c.836 0 1.407.24 1.712.722s.458 1.3.458 2.456h0v6.72h3.594v-7.153c0-.867-.088-1.654-.265-2.36s-.474-1.317-.892-1.83-.985-.91-1.7-1.192-1.612-.42-2.69-.42a19.45 19.45 0 0 0-3.039.229l-2.364.494v12.234h3.594zm15.098 4.528c2.203 0 3.83-.502 4.884-1.505s1.58-2.54 1.58-4.612h0V78.963l-1.097-.277-1.3-.23-1.363-.157-1.34-.06c-1.013 0-1.92.15-2.725.446s-1.483.718-2.038 1.264-.977 1.2-1.266 1.963-.434 1.6-.434 2.54c0 1.862.466 3.31 1.4 4.347s2.275 1.553 4.028 1.553a6.36 6.36 0 0 0 1.339-.132 5.79 5.79 0 0 0 1.194-.397h0v.458c0 .706-.213 1.284-.64 1.734s-1.154.674-2.183.674c-.788 0-1.49-.064-2.1-.193s-1.2-.305-1.773-.53h0l-.627 3c.66.225 1.375.405 2.147.542s1.544.205 2.315.205zm1.013-8.26c-1.624 0-2.436-1.003-2.436-3 0-.963.233-1.758.7-2.384s1.174-.94 2.122-.94l.844.036.627.084v5.732c-.225.128-.498.24-.82.337s-.667.144-1.037.144zM13.1 96.145a2.2 2.2 0 0 0 1.507-.566c.426-.377.64-.895.64-1.553s-.213-1.176-.64-1.553a2.2 2.2 0 0 0-1.507-.566 2.2 2.2 0 0 0-1.507.566c-.426.377-.64.895-.64 1.553s.213 1.176.64 1.553a2.2 2.2 0 0 0 1.507.566zm1.81 14.21V97.686h-3.594v12.668H14.9zm6.97 0v-9.778l.772-.084.82-.036c.836 0 1.407.24 1.712.722s.458 1.3.458 2.456h0v6.72h3.594V103.2c0-.867-.088-1.654-.265-2.36s-.474-1.317-.892-1.83-.985-.91-1.7-1.192-1.612-.42-2.69-.42a19.45 19.45 0 0 0-3.039.229l-2.364.494v12.234h3.594zm15.508.29c.772 0 1.423-.064 1.954-.193s1.013-.28 1.447-.458h0l-.506-2.794a6.16 6.16 0 0 1-1.122.301c-.4.072-.808.108-1.194.108-.804 0-1.34-.225-1.604-.674s-.398-1.052-.398-1.806h0v-4.455h4.317v-2.986h-4.317v-3.733l-3.594.578v10.645c0 .82.076 1.565.23 2.24s.422 1.248.808 1.722.9.843 1.544 1.108 1.455.397 2.436.397zm10.974.048c.95 0 1.805-.16 2.57-.482s1.42-.775 1.966-1.36.965-1.292 1.254-2.12.434-1.738.434-2.733-.153-1.903-.458-2.72-.732-1.517-1.278-2.095-1.202-1.028-1.966-1.35-1.604-.482-2.52-.482c-.9 0-1.733.16-2.496.482a5.85 5.85 0 0 0-1.978 1.349 6.17 6.17 0 0 0-1.302 2.095c-.314.82-.47 1.726-.47 2.72s.153 1.907.458 2.733.732 1.533 1.278 2.12 1.202 1.04 1.966 1.36 1.612.482 2.545.482zm0-3.083a2.18 2.18 0 0 1-1.905-.975c-.45-.65-.675-1.53-.675-2.637s.225-1.98.675-2.613 1.085-.95 1.905-.95 1.45.317 1.893.95.663 1.505.663 2.613-.22 1.987-.663 2.637-1.073.975-1.893.975zm19.68 3.034c.772 0 1.423-.064 1.954-.193s1.013-.28 1.447-.458h0l-.506-2.794a6.16 6.16 0 0 1-1.122.301c-.4.072-.808.108-1.194.108-.804 0-1.34-.225-1.604-.674s-.398-1.052-.398-1.806h0v-4.455h4.317v-2.986H66.62v-3.733l-3.594.578v10.645c0 .82.076 1.565.23 2.24s.422 1.248.808 1.722.9.843 1.544 1.108 1.455.397 2.436.397zm9.406-.29v-9.633l.76-.18c.28-.056.583-.084.904-.084.804 0 1.355.24 1.652.722s.446 1.3.446 2.456h0v6.72h3.594V103.2c0-.867-.084-1.654-.253-2.36s-.458-1.317-.868-1.83-.957-.91-1.64-1.192-1.54-.42-2.57-.42a5.84 5.84 0 0 0-1.097.108c-.378.072-.687.15-.93.23h0v-6.07l-3.594.578v18.1h3.594zm16.714.337a12.69 12.69 0 0 0 1.351-.072l1.266-.18a10.11 10.11 0 0 0 1.073-.253c.322-.096.58-.193.772-.29h0l-.482-2.914c-.402.177-.92.325-1.556.446a10.4 10.4 0 0 1-1.942.181c-1.03 0-1.85-.217-2.46-.65a2.38 2.38 0 0 1-1.037-1.758H99.3l.048-.662.024-.686c0-2.135-.523-3.753-1.568-4.853s-2.468-1.65-4.27-1.65c-.772 0-1.523.144-2.255.433a5.67 5.67 0 0 0-1.942 1.276c-.563.562-1.017 1.264-1.363 2.107s-.52 1.826-.52 2.95c0 .93.133 1.798.398 2.6s.675 1.497 1.23 2.083 1.254 1.048 2.098 1.385 1.837.506 2.98.506zm1.737-7.947h-4.75a5.13 5.13 0 0 1 .229-.903c.105-.297.253-.558.446-.783s.434-.405.724-.542.635-.205 1.037-.205c.418 0 .768.072 1.05.217s.515.33.7.554.322.482.4.77a3.7 3.7 0 0 1 .157.891h0zM15.32 129.51v-6.888h6.61v-3.155h-6.61v-3.492h7.43v-3.155h-11.19v16.7h3.763zm14.785.29a19.45 19.45 0 0 0 3.039-.229l2.364-.494v-12.234h-3.594v9.778l-.772.084-.82.036c-.836 0-1.407-.257-1.712-.77s-.458-1.35-.458-2.505h0v-6.623h-3.594v7.056c0 .867.088 1.662.265 2.384s.474 1.345.892 1.866.985.927 1.7 1.216 1.612.433 2.69.433zm13.675 0c.772 0 1.423-.064 1.954-.193s1.013-.28 1.447-.458h0l-.506-2.794a6.16 6.16 0 0 1-1.122.301c-.4.072-.808.108-1.194.108-.804 0-1.34-.225-1.604-.674s-.398-1.052-.398-1.806h0v-4.455h4.317v-2.986h-4.317V113.1l-3.594.578v10.645c0 .82.076 1.565.23 2.24s.422 1.248.808 1.722.9.843 1.544 1.108 1.455.397 2.436.397zm11.24 0a19.45 19.45 0 0 0 3.039-.229l2.364-.494v-12.234h-3.594v9.778l-.772.084-.82.036c-.836 0-1.407-.257-1.712-.77s-.458-1.35-.458-2.505h0v-6.623h-3.594v7.056c0 .867.088 1.662.265 2.384s.474 1.345.892 1.866.985.927 1.7 1.216 1.612.433 2.69.433zm12.373-.29v-9.68c.16-.048.398-.092.71-.132a6.5 6.5 0 0 1 .808-.06c.498 0 .965.044 1.4.132l1.134.253.603-2.962c-.193-.08-.426-.15-.7-.205l-.82-.144-.82-.096-.7-.036c-1.077 0-2.054.1-2.93.3l-2.28.638v11.993h3.594zm12.445.337a12.69 12.69 0 0 0 1.351-.072l1.266-.18a10.11 10.11 0 0 0 1.073-.253c.322-.096.58-.193.772-.29h0l-.482-2.914c-.402.177-.92.325-1.556.446a10.4 10.4 0 0 1-1.942.181c-1.03 0-1.85-.217-2.46-.65a2.38 2.38 0 0 1-1.037-1.758h8.152l.048-.662.024-.686c0-2.135-.523-3.753-1.568-4.853s-2.468-1.65-4.27-1.65c-.772 0-1.523.144-2.255.433a5.67 5.67 0 0 0-1.942 1.276c-.563.562-1.017 1.264-1.363 2.107s-.52 1.826-.52 2.95c0 .93.133 1.798.398 2.6s.675 1.497 1.23 2.083 1.254 1.048 2.098 1.385 1.837.506 2.98.506zm1.737-7.947h-4.75a5.13 5.13 0 0 1 .229-.903c.105-.297.253-.558.446-.783s.434-.405.724-.542.635-.205 1.037-.205c.418 0 .768.072 1.05.217s.515.33.7.554.322.482.4.77a3.7 3.7 0 0 1 .157.891h0z"/><path id="O" d="M19.89 67.66v-1.217H12.9v-.043c0-.342.082-.687.246-1.035s.385-.704.663-1.067a12.8 12.8 0 0 1 .941-1.089l1.08-1.078 1.304-1.28a11.51 11.51 0 0 0 1.144-1.323c.335-.455.602-.93.802-1.42s.3-1.014.3-1.57c0-1.252-.363-2.23-1.1-2.935s-1.8-1.057-3.25-1.057c-.542 0-1.033.068-1.475.203s-.83.295-1.165.48-.613.374-.834.566l-.46.438.727.96c.086-.085.22-.206.406-.363a4.42 4.42 0 0 1 .673-.459c.264-.15.574-.28.93-.395a4 4 0 0 1 1.219-.171c.812 0 1.486.217 2.02.65s.802 1.15.802 2.145c0 .455-.07.875-.214 1.26a4.7 4.7 0 0 1-.577 1.089 7.71 7.71 0 0 1-.844.993l-1.015.993-1.336 1.28a10.92 10.92 0 0 0-1.261 1.43 7.91 7.91 0 0 0-.93 1.633 4.77 4.77 0 0 0-.363 1.868l.01.352.01.16h8.53zm7.824.32c1.51 0 2.683-.662 3.517-1.985s1.25-3.23 1.25-5.72c0-2.505-.417-4.42-1.25-5.742s-2.006-1.985-3.517-1.985c-1.525 0-2.7.662-3.527 1.985s-1.24 3.238-1.24 5.742c0 2.5.417 4.397 1.25 5.72s2.006 1.985 3.517 1.985zm0-1.26c-.627 0-1.147-.178-1.56-.534s-.745-.83-.994-1.42-.428-1.274-.534-2.05-.16-1.6-.16-2.444.053-1.67.16-2.444.285-1.462.534-2.06.58-1.074.994-1.43.934-.534 1.56-.534c.613 0 1.126.178 1.54.534s.748.833 1.005 1.43.438 1.284.545 2.06.16 1.6.16 2.444-.053 1.67-.16 2.444-.29 1.46-.545 2.05-.59 1.064-1.005 1.42-.926.534-1.54.534zm16.3.94v-1.217h-6.99v-.043c0-.342.082-.687.246-1.035s.385-.704.663-1.067a12.8 12.8 0 0 1 .941-1.089l1.08-1.078 1.304-1.28a11.51 11.51 0 0 0 1.144-1.323c.335-.455.602-.93.802-1.42s.3-1.014.3-1.57c0-1.252-.363-2.23-1.1-2.935s-1.8-1.057-3.25-1.057c-.542 0-1.033.068-1.475.203s-.83.295-1.165.48-.613.374-.834.566l-.46.438.727.96c.086-.085.22-.206.406-.363a4.42 4.42 0 0 1 .673-.459c.264-.15.574-.28.93-.395a4 4 0 0 1 1.219-.171c.812 0 1.486.217 2.02.65s.802 1.15.802 2.145c0 .455-.07.875-.214 1.26a4.7 4.7 0 0 1-.577 1.089 7.71 7.71 0 0 1-.844.993l-1.015.993-1.336 1.28a10.92 10.92 0 0 0-1.261 1.43 7.91 7.91 0 0 0-.93 1.633 4.77 4.77 0 0 0-.363 1.868l.01.352.01.16h8.53zm9.342 0V52.868h-.983c-.656.797-1.318 1.427-1.988 1.89s-1.432.843-2.287 1.142h0l.406 1.067a6.75 6.75 0 0 0 1.026-.395l.983-.512c.314-.178.595-.36.844-.544a4.33 4.33 0 0 0 .609-.534h0v12.68h1.4z"/><path id="P" d="M20.455 25.97v-.77h-4.3v-.027a1.57 1.57 0 0 1 .151-.655c.1-.22.236-.446.407-.676a8.04 8.04 0 0 1 .577-.689l.663-.682.8-.81a7.23 7.23 0 0 0 .702-.838c.206-.288.37-.588.492-.9s.184-.642.184-.993c0-.793-.223-1.412-.67-1.858s-1.11-.67-1.994-.67c-.332 0-.634.043-.905.128s-.5.187-.715.304-.376.237-.512.358l-.282.277.446.608a4.45 4.45 0 0 1 .249-.23 2.71 2.71 0 0 1 .413-.291 2.98 2.98 0 0 1 .571-.25c.22-.072.468-.108.748-.108.5 0 .912.137 1.24.412s.492.728.492 1.358a2.34 2.34 0 0 1-.131.797 3.01 3.01 0 0 1-.354.689c-.15.216-.32.426-.518.628l-.623.628-.82.81a6.85 6.85 0 0 0-.774.905 5.05 5.05 0 0 0-.571 1.034c-.15.365-.223.76-.223 1.183l.007.223.007.1h5.235zm4.682 0v-9.366h-.604c-.402.505-.81.903-1.22 1.196s-.88.534-1.404.723h0l.25.676c.2-.063.42-.146.63-.25l.604-.324c.192-.113.365-.227.518-.345s.278-.23.374-.338h0v8.028h.853z"/><path id="Q" d="M16.746 14.16l.063-1.43.096-1.264.117.223.183.368.216.45.22.465.195.417.134.307h.286l.134-.307.195-.417.22-.465.216-.45.183-.368.117-.223.096 1.264.063 1.43h.324l-.096-1.685-.134-1.54h-.267l-.3.538-.317.633-.305.647-.26.575-.26-.575-.305-.647-.317-.633-.3-.538h-.28l-.134 1.54-.096 1.685h.314zm4.516.05l.293-.012.26-.03.206-.035.136-.03v-1.517c0-.127-.016-.245-.047-.354a.73.73 0 0 0-.15-.282c-.07-.08-.16-.14-.27-.186a1.08 1.08 0 0 0-.406-.067 2.12 2.12 0 0 0-.401.033c-.11.022-.193.045-.246.07h0l.042.265c.04-.016.105-.036.192-.06s.22-.037.4-.037c.125 0 .226.02.302.058s.136.1.178.154.07.135.082.214.02.16.02.244h0v.15a.36.36 0 0 0-.068-.021l-.117-.023-.14-.02-.138-.007a1.87 1.87 0 0 0-.408.042.95.95 0 0 0-.324.133c-.09.06-.16.137-.21.23a.7.7 0 0 0-.075.335c0 .137.023.252.068.347s.108.172.188.233.174.105.28.133a1.41 1.41 0 0 0 .354.042zm.052-.27a1.2 1.2 0 0 1-.26-.026c-.077-.017-.142-.044-.197-.08a.37.37 0 0 1-.127-.149c-.03-.062-.045-.138-.045-.228a.42.42 0 0 1 .066-.247c.044-.062.1-.11.17-.147a.68.68 0 0 1 .225-.07 1.77 1.77 0 0 1 .234-.016c.13 0 .234.01.3.026a.94.94 0 0 1 .164.049h0v.847a2.15 2.15 0 0 1-.227.03l-.312.012zm1.557 1.094c.138 0 .257-.016.36-.047a.74.74 0 0 0 .267-.144 1.05 1.05 0 0 0 .209-.249c.063-.1.123-.22.183-.36a11.49 11.49 0 0 0 .417-1.168l.342-1.313h-.305l-.134.573-.13.52-.148.5-.183.545-.263-.568-.223-.563-.18-.533-.13-.482h-.324l.178.617.227.628.267.62.298.59a1.68 1.68 0 0 1-.134.27c-.045.07-.096.13-.152.175a.51.51 0 0 1-.19.095c-.07.02-.15.028-.237.028-.063 0-.123-.01-.18-.026s-.093-.03-.106-.04h0l-.06.25a.68.68 0 0 0 .12.042c.064.02.135.028.213.028z"/><path id="R" d="M52.593 26.215V.03h-26.13l.003.308c.23 14.187 11.663 25.645 25.82 25.875l.307.003z"/><path id="S" d="M52.593 26.814V53h-26.13l.003-.308c.23-14.187 11.663-25.645 25.82-25.875l.307-.003z"/><path id="T" d="M26.463 53V26.814H.334l.003.308C.566 41.31 12 52.767 26.156 52.997l.307.003z"/><path id="U" d="M26.86 79.364V53.092H0l.003.31c.236 14.234 11.99 25.73 26.54 25.96l.316.003z"/><path id="V" d="M26.86 0v26.272H0l.003-.31C.24 11.73 11.99.233 26.544.003L26.86 0z"/><path id="W" d="M26.86 26.272V0h26.86l-.003.31c-.236 14.234-11.99 25.73-26.54 25.96l-.316.003z"/><path id="X" d="M26.86 26.82v26.272H0l.003-.31c.236-14.234 11.99-25.73 26.54-25.96l.316-.003z"/><path id="Y" d="M39.74 53.092c7.114 0 12.882 5.88 12.882 13.136S46.855 79.364 39.74 79.364 26.86 73.483 26.86 66.228s5.767-13.136 12.882-13.136z"/></defs><g filter="url(#A)" transform="translate(36 12)" fill="none" fill-rule="evenodd"><g filter="url(#B)"><path d="M36.037 0h234.9c19.37 0 35.08 15.692 35.1 35.063l.526 499.8c.02 19.385-15.678 35.117-35.063 35.137h-.037-234.9c-19.37 0-35.08-15.692-35.1-35.063l-.526-499.8C.917 15.752 16.615.02 36 0h.037z" fill="#292929"/><path d="M36.03 4.5h233.423c16.556 0 29.983 13.413 30 29.97l.515 501c.017 16.57-13.4 30.014-29.97 30.03h-.03H36.546c-16.556 0-29.983-13.413-30-29.97l-.515-501C6.014 17.962 19.43 4.517 36 4.5h.03z" fill="#000"/><g transform="translate(13.5 13.5)"><use fill="#fafafa" xlink:href="#C"/><mask id="Z" class="H"><use xlink:href="#D"/></mask><use fill="#fafafa" xlink:href="#D"/><g mask="url(#Z)"><g transform="translate(-17 -40.5)"><g transform="translate(36.5 84)"><g class="T"><mask id="a" class="H"><use xlink:href="#F"/></mask><use xlink:href="#F" class="C H N"/><rect x="149.256" y="155.827" width="80.79" height="21.871" rx="3" class="E F"/><g class="F"><g transform="translate(10.955 155.827)"><path d="M10.663 0C4.774 0 0 4.766 0 10.644S4.774 21.29 10.663 21.29s10.663-4.766 10.663-10.644S16.552 0 10.663 0z" fill="#06f" class="G"/><g transform="translate(1.11 4.72)"><path d="M7.995 1.51c-2.42 0-4.585.64-6.2 1.657C1.14 3.58.62 4.032.32 4.445c-.18.25-.3.49-.303.744-.022.43.255.78.678.87l.036.007c.276.052.68.072 1.628.097l.858.023 2.067.1.13.01.114.008c.978.073 1.798.182 2.448.333l.045.01v3.78c.087.9 1.048 1.335 2.88 1.335s3.92-.516 6.26-1.548L16.84 7.4l.023-.006c.334-.09.617-.214.85-.38.44-.317.678-.774.678-1.31 0-.62-.348-1.086-.943-1.242l-.023-.006c-.255-.063-.55-.07-.888-.025l-.04.005-.06-.522-.214-.17c-1.893-1.5-4.64-2.235-8.226-2.235z" class="G J"/><g class="B C D O"><path d="M6.33 2.31c.94.055.792.076 1.463-.577"/><path d="M6.42 2.79c.74-.053.816-.334 1.323-.954"/><path d="M8.067 1.8c.186.474.504.507 1 .468"/><path d="M8.067 1.806c.11.828-.084.482.634 1.01"/></g><g stroke="#fff" class="B C"><path d="M6.793.287c.88-.805 1.332.264 1.237.954-.114.833-.793 1.476-1.432 1.932-.01.006-.567.382-.73.237-.395-.35-.238-1.135-.073-1.604A4.36 4.36 0 0 1 6.793.287z"/><g class="D"><path d="M7.957 2.03c.145-.445.242-1.007.64-1.324.854-.682 1.68-.457 1.444.717-.13.642-.664 1.4-1.133 1.847-.61.58-1.14-.213-1.048-.8.044-.28.15-.547.225-.82"/></g></g><g class="O B C D"><path d="M10.93 1.466c.2 1.172.312 2.07 1.097 2.995 1.15 1.358 3.705.79 4.772-.377"/><path d="M11.912 1.618c-.213 1.558-.084 3.32 1.89 3.585.137.018 1.047.067 1.383-.05.816-.28.85-.45 1.627-1.08"/><path d="M12.272 1.63c.7 1.425 2.528 4.736 4.37 2.582"/><path d="M13.186 1.8c.162.876.243 1.762.83 2.48.776.95 2.358.755 3.017-.17"/><path d="M13.637 1.958c.442 1.115 1.28 2.985 2.797 2.363"/><path d="M14.18 2.074c.367.58 1.126 2.053 1.883 2.206.295.06.6-.008.902-.012"/><path d="M7.72 7.038c.743-.26 1.342.276 2.102.14.368-.066.817-.466 1.085-.668"/></g></g><path d="M7.72 14.642l3.136 1.734 4.92-1.734-.29 3.66-4.632-1.397L6.9 18.303z" class="B C O U"/></g><g transform="translate(27.386 155.827)"><use xlink:href="#L" class="G P"/><g transform="translate(3.017 6.813)"><g transform="translate(0 .003)"><path d="M10.553 7.34c1.296 0 2.887-.08 4.774-.244l.5-2.4h-2.122l.163-3.497H2.107l-.072 1.94C.678 2.763 0 2.94 0 3.672s.607 1.17 1.822 1.31l.408 1.87 8.323.488z" class="J"/><g transform="translate(8.798 .878)" fill="#212121"><path d="M.084.278c-.06 1.02.85 1.28 1.103.34C1.38-.098.33-.166 0 .278"/><path d="M3.508.116c.018.217.005.44.053.652.21.922 1.365.027.753-.743"/></g><path d="M14.152 0c.252 0-.046 2.24-.204 2.7-.2.57-.673.447-1.183.447a3.75 3.75 0 0 1-.425-.02 6.94 6.94 0 0 0-.785-.804l-.228-.19.057.33-.073-.115c-.31.78-.932 1-1.688 1-1.747 0-2.444-1.328-2.165-3.34h6.694zM10.68.908H8.32V.92c-.03.483.025.858.155 1.127l.078.136c.206.303.572.46 1.153.46.395 0 .667-.254.84-.876l.047-.188.033-.192.033-.257.022-.223zm2.804 0h-1.748c.248 1.016.576 1.457 1.184 1.523l.17.01c.025 0 .038-.005.06-.027.05-.046.103-.138.152-.28.08-.23.136-.55.166-.96l.014-.266z" fill="#ff0025" class="G"/><g class="B C D R"><path d="M11.6 2.615c.82.647 1.548 1.588 1.424 1.744-.163.203-.753.245-.898.163-.116-.066-.064.024-.064.782"/><path d="M9.806 4.667c.96.71 2.027.802 3.08.586"/></g><g class="O B C D"><path d="M10.835 6.494c.206.82.692 1.34 1.206 2.027"/><path d="M11.676 6.404c.562 1.774.437 1.018.565 2.23"/><path d="M12.375 6.532c.168 1.725.148 1.008.148 2.148"/><path d="M13.12 6.532l-.385 2.36"/><path d="M13.64 6.596c-.046.836-.267 1.503-.686 2.225"/><path d="M14.2 6.513c-.077.816-.3 1.6-.86 2.238"/><path d="M14.524 7.39c-.68.91-.76 1.187-1.777 1.426"/></g><path d="M9.875 4.37c-.062.165-.184.328-.388.337" class="B C D R"/></g></g></g><g transform="translate(43.818 155.827)"><use xlink:href="#L" fill="#06f" class="G"/><g transform="translate(.692 2.32)"><path d="M1.234 12.316c.01-5.395 7.16-10.17 11.272-10.166 6.244.008 4.7 10.415 4.412 10.435-1.768.12-6.996.03-15.684-.27z" transform="matrix(.956305 -.292372 .292372 .956305 -1.756857 3.031606)" class="U"/><g transform="translate(6.083 3.061)" fill="#f1f4f6"><path d="M9.38 2.76c.27 2.147-1.836 7.566-4.06 7.268-1.868-.25-2.956-1.834-3.532-3.53C1.7 6.213.247 6.96.05 5.628s1.377-.496 1.335-.74c-.138-.818-.128-1.512-.107-2.067.003-.088.475-.358 1.483-.518.45-.072 1.01-.12 1.68-.122.96-.001 2.03.093 2.93.207.26.033.022-2.373.245-2.338s.914 2.51 1.1 2.542c.415.076.67.14.674.17z"/></g><g transform="translate(9.446 5.974)"><g transform="translate(2.72 .444)" class="B C D R"><path d="M.247 0c.122 1.17.99.785.99.004"/><path d="M.297.642L0 1.037"/><path d="M.742.8l-.198.642"/><path d="M.99.69l.148.543"/></g><path d="M2.226 0l1.456 2.138c.075.09.218.2.175.313-.04.103-.984.182-1.067.014-.043-.087-.055-.387-.052-.29.018.604.07.985.16 1.143" fill="#f3fff6" class="B C D O"/><g transform="translate(.148 .395)" class="B C D R"><path d="M.22.083C.034.86 1.13.957 1.335 0"/><path d="M.346.642L0 .89"/><path d="M.733.69L.7 1.135"/><path d="M1.04.642l.148.346"/></g><path d="M2.06 4.058h1.046l-1.45.001c2.285-.001 1.77-.001-1.543.001l1.946-.001z" fill="#ff243a" transform="matrix(.956305 .292372 -.292372 .956305 1.273384 -.404895)"/></g></g></g><g transform="translate(60.25 155.827)"><path d="M10.955 0C4.905 0 0 4.896 0 10.935S4.905 21.87 10.955 21.87 21.91 16.975 21.91 10.935 17.005 0 10.955 0z" fill="#cce4ff" class="G"/><g transform="translate(5.205 3.167)"><g transform="translate(3.321 .198)" fill="#ff5fa7"><path d="M7.336 1.272C7.076 7.045.78 9.186 4.805 12.948c.962.9-5.274.912-4.74 0C2.922 8.083-.064 7.045.001 1.79.01 1.17.097.6.252.056 3.387-.032 5.683.05 7.14.3c.116.02.18.344.195.973z"/></g><g stroke="#ffc200" class="B C D"><path d="M11.5.792c-.345 1.496-1 3.03-1.128 4.565-.092 1.113-.04 2.234-.062 3.35"/><path d="M11.103.742c-.774 1.943-1.074 3.69-1.147 5.8-.057 1.65-.223 1.247.107 1.93"/><path d="M10.062 1.93c-.726 2.992-.76 3.96-.25 7.026"/><path d="M9.765 9.302C7.963 7.687 8.718 4.867 9.2 2.87"/></g><path d="M6.272 1.435c.1.54.08.902-.09 1.086-.9.977-1.25 1.353-2.26 2.745-.014.02-.01.07.014.07.112.001.237-.003.33-.066.648-.443 1.15-1.116 1.867-1.435C7.1 3.404 4.8 4.9 5.364 5.18c.227.118 4.188-.426 2.907-.17s-3.183.61-3.023.817c.666.868.834 1.265.666 2.042" class="B C D R"/><g stroke="#ffc200" class="B C D"><path d="M3.866 2.474c-.582 1.544-1.36 5.304-3.65 5.74-.03.006-.044-.04-.066-.06"/><path d="M3.52 1.435C2.993 4.04 2.214 6.345.05 7.867"/><path d="M3.222.445C2.55 2.872 2.21 5.512.15 7.175"/><path d="M2.528.544C1.906 3.147 1.838 4.86 0 6.68"/></g><path d="M3.163.022c-.28 0 .17 1.73.345 2.13.15.338.56.5 1.232.516.744.023 1.26-.147 1.552-.51l.044-.057c.345.692 1.04.888 1.885.888 1.95 0 2.73-1.18 2.418-2.97H3.163zm3.445.66l3.32-.046.001.012c.044.57-.055.994-.278 1.275l-.023.028c-.267.313-.764.476-1.516.476-.515 0-1.116-.2-1.375-.842l-.06-.18c-.03-.11-.028-.282-.043-.49L6.608.682zm-2.92.056h2.408l-.004.354c-.02.795-.19 1.15-1.6 1.18l-.263.003c-.034 0-.052-.005-.084-.027-.067-.047-.14-.14-.21-.28-.11-.23-.188-.552-.228-.963l-.02-.266z" fill="#00ffce" class="G"/><g fill="#212121"><use xlink:href="#M" transform="matrix(-1 0 0 1 11.251954 0)"/><use xlink:href="#M" x="1.44" transform="matrix(-1 0 0 1 14.126902 0)"/></g><g fill="#ff0025"><path d="M1.233 14.185c.318.465 1.653.345.938-.598s-1.256.133-.938.598z" transform="matrix(-1 0 0 1 3.519334 0)"/><path d="M2.944 14.982c.327.45 1.522.163.786-.747s-1.113.298-.786.747z" transform="matrix(-1 0 0 1 6.790826 0)"/><path d="M5.228 15.25c.33.466 1.52.255.777-.7s-1.108.223-.777.7z" transform="matrix(-1 0 0 1 11.35109 0)"/><path d="M7.463 14.96c.336.46 1.48.22.992-.6s-1.33.13-.992.6z" transform="matrix(-1 0 0 1 15.96092 0)"/><path d="M9.238 14.414c.32.454 1.31.236.943-.583s-1.262.13-.943.583z" transform="matrix(-1 0 0 1 19.430686 0)"/></g></g></g><g transform="translate(76.682 155.827)"><use xlink:href="#L" fill="#06f" class="G"/><path d="M14.04 8.113c2.516 1.567 4.283 4.817 5.302 9.752-2.005 2.446-5.05 4.005-8.462 4.005-3.468 0-6.56-1.613-8.562-4.128.184-1.242.433-2.337.748-3.288.34-1.027 1.416-2.79 3.23-5.286l.554-.754c2.584.138 4.842.04 6.748-.233l.442-.068z" class="J"/><g class="B C D O"><path d="M5.726 16.517c1.49.766 2.45-.213 3.456-1.28"/><path d="M10.86 15.41c.205.885.333 1.44.84 2.152.012.017-.04.01-.06.015"/><path d="M12.642 17.288c-1.016-.603-.406-.15-1.544-1.68"/><path d="M14.736 16.853c-1.38-.094-2.803-.594-3.853-1.51"/><path d="M14.86 15.99c-.728.104-2.21.844-3.945-.748"/><path d="M14.805 14.945c-1.9.382-.727.23-3.547.16"/><path d="M7.16 17.71c.848-.674 2.098-1.42 2.32-2.597"/><path d="M8.374 17.697c1.008-.665.3-.113 1.452-2.27"/><path d="M9.49 17.757c.764-1.484.512-.753.835-2.165"/><path d="M10.7 17.586c-.57-1.16-.362-.496-.5-2.027"/><path d="M11.844 17.53c-.878-1.185-.452-.483-1.17-2.17"/><path d="M6.633 14.3c.77.454 1.834 1.293 2.674.538"/><path d="M6.186 15.323c.5.13 2.963.862 2.918-.387"/><path d="M8 8.738c-.058.526-.058.855 0 .987.37.84.947.56 1.187-.346"/><path d="M9.584 8.146c-1.12 4.838-1.04 7.257.247 7.257s1.73-.856 1.335-2.567l-.198-4.394c.593 2.074 1.154 2.172 1.682.296" class="J"/></g><g stroke="#ff5fa7" fill="#ff5fa7" class="B C"><path d="M5.627 12.77c-.286-.147-.45-.28-.495-.395-.235-.62.24-.956 1.088-.494.033-.724.313-1.168.84-1.333s.626.28.297 1.333c.525-.078.855-.078.99 0 .45.26.24.897-.692 1.284.462.395.528.806.198 1.234s-.725.23-1.187-.592c-.66.8-1.17.987-1.533.592s-.198-.938.495-1.63z"/><path d="M12.947 12.06c-.3-.154-.472-.29-.52-.413-.246-.648.25-1 1.142-.517.035-.758.33-1.223.882-1.395s.657.293.31 1.395c.55-.082.897-.082 1.038 0 .472.273.253.94-.727 1.344.484.413.553.844.207 1.292s-.76.24-1.245-.62c-.692.827-1.228 1.034-1.61.62s-.207-.982.52-1.705z" transform="matrix(-.987688 .156434 .156434 .987688 26.245017 -2.065528)"/></g><g fill="#d41c61"><circle cx="6.74" cy="12.746" r="1"/><circle cx="14.136" cy="11.947" r="1"/></g><path d="M14.397 8.234c2.037-.364 3.174-.627 3.412-.8L17.364 6.2l-3.71.74c-.23-3.587-.874-5.38-1.93-5.38-.343 0-.74.494-1.187 1.48C9.913 1.14 9.253.78 8.56 1.964s-1.055 2.98-1.088 5.38L5.05 7.208c-.526-.057-.94-.143-1.236-.257v1.135c-.053.055.313.133 1.098.233l2.364.21c.956.073 3.33-.026 7.122-.296z" class="U"/></g><g class="G"><use xlink:href="#N" fill="#000"/><use xlink:href="#O" class="I"/><g class="E"><use xlink:href="#P"/><use xlink:href="#Q"/></g></g></g><g opacity=".92" class="F"><g transform="translate(123.334 50.147)"><g transform="translate(52.074)"><use xlink:href="#R" class="V"/><use xlink:href="#S" class="K"/><use xlink:href="#T" class="J"/><ellipse cx="13.399" cy="13.122" rx="13.065" ry="13.093" class="L"/><ellipse cx="13.399" cy="66.185" rx="13.065" ry="13.093" class="I"/></g><use xlink:href="#U" class="L"/><use xlink:href="#V" class="E"/><use xlink:href="#W" class="K"/><use xlink:href="#X" class="I"/><use xlink:href="#Y" class="W"/></g></g><g class="B D N F"><path d="M0 35.54h242.37"/><path d="M0 146.26h242.37"/></g></g><rect x="9.585" y="6.835" width="21.909" height="23.237" rx="3" class="B C S"/><rect x="38.341" y="15.036" width="78.736" height="8.201" rx="3" class="P"/><g transform="translate(0 392)"><g class="T"><mask id="b" class="H"><use xlink:href="#H" href="#F"/></mask><use xlink:href="#H" class="C H N" href="#F"/><g class="M"><g transform="translate(40.386 167.827)"/><g class="G"><use xlink:href="#N" fill="#000"/><use xlink:href="#O" class="I"/><g class="E"><use xlink:href="#P"/><use xlink:href="#Q"/></g></g></g><g opacity=".92" class="M"><g transform="translate(123.334 50.147)"><g transform="translate(52.074)"><use xlink:href="#R" class="V"/><use xlink:href="#S" class="K"/><use xlink:href="#T" class="J"/><ellipse cx="13.399" cy="13.122" rx="13.065" ry="13.093" class="L"/><ellipse cx="13.399" cy="66.185" rx="13.065" ry="13.093" class="I"/></g><use xlink:href="#U" class="L"/><use xlink:href="#V" class="E"/><use xlink:href="#W" class="K"/><use xlink:href="#X" class="I"/><use xlink:href="#Y" class="W"/></g></g><path d="M0 35.54h242.37" class="B D M N"/></g><rect x="9.585" y="6.835" width="21.909" height="23.237" rx="3" class="B C S"/><rect x="38.341" y="15.036" width="78.736" height="8.201" rx="3" class="P"/></g><g transform="translate(0 194)"><g class="T"><mask id="c" class="H"><use xlink:href="#J" href="#F"/></mask><use xlink:href="#J" class="C H N" href="#F"/><g class="Q"><g transform="translate(0 35.54)"><mask id="d" class="H"><use xlink:href="#G"/></mask><use xlink:href="#G" class="J"/><g opacity=".92" style="mix-blend-mode:overlay" mask="url(#d)"><g transform="translate(-6.847)"><g transform="translate(.822)"><g class="V"><path d="M247.838 41.41V.047h-40.982l.004.487c.36 22.4 18.292 40.51 40.497 40.872l.48.004z"/><path d="M40.982 41.41V.047H0l.004.487c.36 22.4 18.292 40.51 40.497 40.872l.48.004z"/></g><path d="M247.838 42.354v41.363h-40.982l.004-.487c.36-22.4 18.292-40.51 40.497-40.872l.48-.004z" transform="matrix(-1 0 0 -1 454.695008 126.071182)" class="K"/><path d="M206.856 83.717V42.355h-40.982l.004.487c.36 22.4 18.292 40.51 40.497 40.872l.48.004z" class="J"/><ellipse cx="186.366" cy="20.728" rx="20.491" ry="20.681" class="L"/><ellipse cx="186.577" cy="104.544" rx="20.491" ry="20.681" class="I"/></g><g class="K"><path d="M248.22 83.837V125.2H207.24l.004-.487c.36-22.4 18.292-40.51 40.497-40.872l.48-.004z"/><path d="M125.494 42.354v41.363H84.513l.004-.487c.36-22.4 18.292-40.51 40.497-40.872l.48-.004z"/></g><ellipse cx="145.947" cy="20.728" rx="20.491" ry="20.681" class="L"/><ellipse cx="145.947" cy="63.335" rx="20.491" ry="20.681" class="P"/><g class="I"><ellipse cx="145.947" cy="104.544" rx="20.491" ry="20.681"/><ellipse cx="20.491" cy="104.544" rx="20.491" ry="20.681"/></g><path d="M83.894 125.755V83.837h-42.77l.004.493c.376 22.71 19.1 41.053 42.263 41.42l.503.004z" class="L"/><path d="M84.717 0v41.918h-42.77l.004-.493c.376-22.71 19.1-41.053 42.263-41.42L84.717 0z" class="I"/><ellipse cx="23.03" cy="63.289" rx="20.562" ry="20.548" class="P"/><path d="M83.894 41.918V0h42.77l-.004.493c-.376 22.71-19.1 41.053-42.263 41.42l-.503.004z" class="K"/><path d="M83.894 41.918v41.918h-42.77l.004-.493c.376-22.71 19.1-41.053 42.263-41.42l.503-.004z" class="I"/><ellipse transform="matrix(1 0 0 -1 0 209.592326)" cx="104.457" cy="104.796" rx="20.562" ry="20.959" class="W"/></g></g></g><g class="E G"><path d="M19.086 25.97v-.77h-4.3v-.027a1.57 1.57 0 0 1 .151-.655c.1-.22.236-.446.407-.676a8.04 8.04 0 0 1 .577-.689l.663-.682.8-.81a7.23 7.23 0 0 0 .702-.838c.206-.288.37-.588.492-.9s.184-.642.184-.993c0-.793-.223-1.412-.67-1.858s-1.11-.67-1.994-.67c-.332 0-.634.043-.905.128s-.5.187-.715.304-.376.237-.512.358l-.282.277.446.608a4.45 4.45 0 0 1 .249-.23 2.71 2.71 0 0 1 .413-.291 2.98 2.98 0 0 1 .571-.25c.22-.072.468-.108.748-.108.5 0 .912.137 1.24.412s.492.728.492 1.358a2.34 2.34 0 0 1-.131.797 3.01 3.01 0 0 1-.354.689c-.15.216-.32.426-.518.628l-.623.628-.82.81a6.85 6.85 0 0 0-.774.905 5.05 5.05 0 0 0-.571 1.034c-.15.365-.223.76-.223 1.183l.007.223.007.1h5.235z"/><path d="M27.3 25.97v-.77h-4.3v-.027a1.57 1.57 0 0 1 .151-.655c.1-.22.236-.446.407-.676a8.04 8.04 0 0 1 .577-.689l.663-.682.8-.81a7.23 7.23 0 0 0 .702-.838c.206-.288.37-.588.492-.9s.184-.642.184-.993c0-.793-.223-1.412-.67-1.858s-1.11-.67-1.994-.67c-.332 0-.634.043-.905.128s-.5.187-.715.304-.376.237-.512.358l-.282.277.446.608a4.45 4.45 0 0 1 .249-.23 2.71 2.71 0 0 1 .413-.291 2.98 2.98 0 0 1 .571-.25c.22-.072.468-.108.748-.108.5 0 .912.137 1.24.412s.492.728.492 1.358a2.34 2.34 0 0 1-.131.797 3.01 3.01 0 0 1-.354.689c-.15.216-.32.426-.518.628l-.623.628-.82.81a6.85 6.85 0 0 0-.774.905 5.05 5.05 0 0 0-.571 1.034c-.15.365-.223.76-.223 1.183l.007.223.007.1H27.3z"/><use xlink:href="#Q"/></g><g class="B D N"><path d="M0 35.54h242.37"/><path d="M0 146.26h242.37"/></g></g></g><rect x="9.585" y="6.835" width="21.909" height="23.237" rx="3" class="B C S"/><rect x="12.324" y="154.46" width="80.79" height="21.871" rx="3" class="E"/><rect opacity=".315" x="98.591" y="154.46" width="80.79" height="21.871" rx="3" class="B S"/><rect x="38.341" y="15.036" width="78.736" height="8.201" rx="3" class="P"/></g></g><use fill="#000" filter="url(#I)" xlink:href="#H"/><use xlink:href="#H" class="H"/><rect x="96.5" y="68" width="124" height="16" rx="4" class="E"/><use fill="#000" filter="url(#K)" xlink:href="#J"/><use xlink:href="#J" class="H"/><g transform="translate(98.5 542)" class="E"><path d="M20.09.01L.828 4.443c-.437.1-.765.457-.82.893a1.04 1.04 0 0 0 .578 1.058L6.057 9.1l.56 5.45a1.05 1.05 0 0 0 .8.908c.435.11.895-.062 1.148-.425l.166-.166-1.106-4.16a1.41 1.41 0 0 1 .707-1.339l4.754-2.752-3.8 3.588c-.27.255-.382.63-.298.987l1.732 7.316c.1.428.467.748.912.802a1.08 1.08 0 0 0 1.083-.565l9.05-17.278a1.02 1.02 0 0 0 .106-.204c.095-.242.036-.612-.072-.866-.134-.314-.703-.445-1.707-.395z"/></g><path d="M63.5 552h4v-4h-4v4zm-6 0h4v-4h-4v4zm0 6h4v-4h-4v4zm-6-6h4v-4h-4v4zm0 6h4v-4h-4v4zm17-16h-2v-2h-2v5h-2v-3h-6v-2h-2v5h-2v-3h-2a2 2 0 0 0-2 2v15c0 1.102.897 2 2 2h18c1.103 0 2-.898 2-2v-15c0-1.103-.897-2-2-2z" class="E"/><g transform="translate(198.5 540)" class="E"><path d="M17.857 11.786c-.657 0-1.2-.528-1.2-1.18s.533-1.18 1.2-1.18 1.2.528 1.2 1.18-.533 1.18-1.2 1.18m-4.762 0c-.657 0-1.2-.528-1.2-1.18s.533-1.18 1.2-1.18 1.2.528 1.2 1.18-.533 1.18-1.2 1.18m-4.762 0c-.657 0-1.2-.528-1.2-1.18s.533-1.18 1.2-1.18 1.2.528 1.2 1.18-.533 1.18-1.2 1.18M13.095 0C6.53 0 1.2 4.76 1.2 10.607c0 2.045.644 3.998 1.873 5.7L0 21.214h13.095C19.66 21.214 25 16.455 25 10.607S19.66 0 13.095 0"/></g><g transform="translate(149.5 542)" class="E"><path d="M10.023 17.822L1.417 9.476l5.056-4.902 3.304 3.204 5.292-5.645H2.2C.986 2.133 0 3.09 0 4.267v12.8C0 18.243.986 19.2 2.2 19.2h15.4c1.213 0 2.2-.957 2.2-2.133V7.393l-9.777 10.43z"/><path d="M9.947 14.73l-5.42-5.254L6.472 7.59l3.38 3.278L19.882.17l2.035 1.793z"/></g><g transform="translate(250.5 542)" class="E"><path d="M10.08 9.6c2.78 0 5.04-2.153 5.04-4.8S12.86 0 10.08 0 5.04 2.153 5.04 4.8s2.26 4.8 5.04 4.8"/><path d="M10.08 10.8C4.145 10.8 0 13.76 0 18v1.2h20.16V18c0-4.24-4.145-7.2-10.08-7.2"/></g></g></g></g><path d="M93.3 13.5c0 7.456 6.044 13.5 13.5 13.5H204c7.456 0 13.5-6.044 13.5-13.5h0H93.3z" fill="#011638"/></g></g></svg>