<svg xmlns="http://www.w3.org/2000/svg" xmlns:xlink="http://www.w3.org/1999/xlink" width="974" height="964" xmlns:v="https://vecta.io/nano"><style><![CDATA[.B{stroke-opacity:.668}.C{fill:#fff}.D{mask:url(#V)}.E{mask:url(#X)}.F{stroke-linejoin:round}.G{mask:url(#a)}.H{fill:#00173a}.I{stroke:#fff}.J{mask:url(#T)}.K{fill:#ff9d00}.L{fill:#ff0034}.M{fill:#f4f2ee}.N{fill-rule:nonzero}.O{filter:url(#A)}.P{fill:#e6e7e7}.Q{opacity:.92}.R{fill:#005b11}.S{stroke-linecap:round}.T{fill:#0064ff}.U{fill:#fb3640}.V{mask:url(#Z)}.W{mask:url(#R)}.X{fill:#2ac2ff}.Y{fill:#001c6c}.Z{stroke:#f4f2ee}.a{stroke-width:2.322}.b{fill:#0d62fe}.c{fill:#ff8100}]]></style><defs><filter x="-10.4%" y="-16.2%" width="120.8%" height="132.4%" id="A"><feOffset dy="8" in="SourceAlpha"/><feGaussianBlur stdDeviation="8"/><feColorMatrix values="0 0 0 0 0 0 0 0 0 0.164542109 0 0 0 0 0.362271488 0 0 0 0.1 0" result="C"/><feMerge><feMergeNode in="C"/><feMergeNode in="SourceGraphic"/></feMerge></filter><path id="B" d="M0 0h441.69v261.377H0z"/><path id="C" d="M0 0h442v273H0z"/><path id="D" d="M0 0h442v241H0z"/><path id="E" d="M0 0h442v161.503L0 203z"/><path id="F" d="M0 0h442v170H0z"/><path id="G" d="M0 0h185v60H0z"/><path id="H" d="M0 0h132v68H0z"/><path id="I" d="M550.823 258.76V0H294l.025 3.044c2.256 140.195 114.634 253.42 253.782 255.692l3.016.025z"/><path id="J" d="M513.706 268.964v258.76H256.883l.025-3.044c2.256-140.195 114.634-253.42 253.782-255.692l3.016-.025z"/><path id="K" d="M256.88 527.727v-258.76H.057L.082 272c2.256 140.195 114.634 253.42 253.782 255.692l3.016.025z"/><path id="L" d="M533 4v259H268l.025-3.046C270.353 119.63 386.31 6.3 529.886 4.025L533 4z"/><path id="M" d="M266 263V4h265l-.025 3.046C528.647 147.37 412.69 260.7 269.114 262.975L266 263z"/><path id="N" d="M14.26 49.1v-4.127H4.805V27.756H0V49.1h14.26zm9.98.43c1.21 0 2.305-.205 3.28-.616s1.812-.99 2.5-1.74 1.232-1.653 1.602-2.7.554-2.223.554-3.496-.195-2.433-.585-3.48-.934-1.94-1.632-2.68-1.535-1.314-2.5-1.725-2.048-.616-3.22-.616c-1.15 0-2.212.205-3.188.616a7.47 7.47 0 0 0-2.526 1.725c-.708.74-1.263 1.632-1.663 2.68s-.6 2.207-.6 3.48.195 2.438.585 3.496.934 1.96 1.632 2.7 1.535 1.33 2.5 1.74 2.058.616 3.25.616zm0-3.942c-1.047 0-1.858-.416-2.433-1.247s-.862-1.956-.862-3.373.287-2.53.862-3.342 1.386-1.217 2.433-1.217 1.853.406 2.418 1.217.847 1.925.847 3.342-.282 2.54-.847 3.373-1.37 1.247-2.418 1.247zm18.696 3.942c1.21 0 2.305-.205 3.28-.616s1.812-.99 2.5-1.74 1.232-1.653 1.602-2.7.554-2.223.554-3.496-.195-2.433-.585-3.48-.934-1.94-1.632-2.68-1.535-1.314-2.5-1.725-2.048-.616-3.22-.616c-1.15 0-2.212.205-3.188.616a7.47 7.47 0 0 0-2.526 1.725c-.708.74-1.263 1.632-1.663 2.68s-.6 2.207-.6 3.48.195 2.438.585 3.496.934 1.96 1.632 2.7 1.535 1.33 2.5 1.74 2.058.616 3.25.616zm0-3.942c-1.047 0-1.858-.416-2.433-1.247s-.862-1.956-.862-3.373.287-2.53.862-3.342 1.386-1.217 2.433-1.217 1.853.406 2.418 1.217.847 1.925.847 3.342-.282 2.54-.847 3.373-1.37 1.247-2.418 1.247zm16.078 3.51v-7.084c.513.41 1.032.914 1.555 1.51l1.494 1.863 1.34 1.94 1.124 1.77h5.267L68.5 46.852l-1.694-2.464-1.9-2.387c-.657-.77-1.294-1.432-1.9-1.987l3.403-3.527 3.188-3.588h-5.452l-1.032 1.232-1.278 1.494-1.4 1.586-1.4 1.54V25.2l-4.59.74V49.1h4.59zM74.536 30.93c.74 0 1.38-.24 1.925-.724s.816-1.145.816-1.987-.272-1.504-.816-1.987-1.186-.724-1.925-.724-1.38.24-1.925.724-.816 1.145-.816 1.987.272 1.504.816 1.987 1.186.724 1.925.724zm2.3 18.172V32.9h-4.59v16.2h4.59zm8.9 0V36.596l.986-.108 1.047-.046c1.068 0 1.797.308 2.187.924s.585 1.663.585 3.142h0V49.1h4.59v-9.148c0-1.11-.113-2.115-.34-3.018s-.606-1.684-1.14-2.34-1.258-1.165-2.17-1.525-2.058-.54-3.434-.54c-1.355 0-2.65.098-3.88.293l-3.018.63V49.1h4.59zm19.28 5.8c2.813 0 4.892-.642 6.237-1.925s2.017-3.25 2.017-5.898h0V33.454l-1.4-.354-1.648-.293-1.74-.2-1.71-.077c-1.294 0-2.454.2-3.48.57s-1.894.92-2.603 1.617-1.247 1.535-1.617 2.5-.554 2.058-.554 3.25c0 2.382.595 4.235 1.786 5.56s2.905 1.987 5.144 1.987c.616 0 1.186-.056 1.71-.17s1.032-.282 1.525-.508h0v.585c0 .903-.272 1.643-.816 2.218S106.404 51 105.1 51c-1.006 0-1.904-.082-2.695-.246a13.45 13.45 0 0 1-2.264-.678h0l-.8 3.85c.842.287 1.756.518 2.74.693s1.97.262 2.957.262zm1.294-10.564c-2.074 0-3.11-1.283-3.11-3.85 0-1.232.298-2.248.893-3.05s1.5-1.2 2.7-1.2l1.078.046.8.108v7.33c-.287.164-.637.308-1.047.43s-.852.185-1.324.185zm17.65-13.906c.74 0 1.38-.24 1.925-.724s.816-1.145.816-1.987-.272-1.504-.816-1.987S124.7 25 123.97 25s-1.38.24-1.925.724-.816 1.145-.816 1.987.272 1.504.816 1.987 1.186.724 1.925.724zm2.3 18.172v-16.2h-4.59v16.2h4.59zm8.9 0V36.088l.986-.108 1.047-.046c1.068 0 1.797.308 2.187.924s.585 1.663.585 3.142h0v8.593h4.59v-9.148c0-1.11-.113-2.115-.34-3.018s-.606-1.684-1.14-2.34-1.258-1.165-2.17-1.525-2.058-.54-3.434-.54c-1.355 0-2.65.098-3.88.293l-3.018.63v15.646h4.59zm19.804.37c.986 0 1.817-.082 2.495-.246s1.294-.36 1.848-.585h0l-.647-3.573c-.43.164-.91.293-1.432.385a8.77 8.77 0 0 1-1.525.139c-1.027 0-1.71-.287-2.048-.862s-.508-1.345-.508-2.3h0V36.21h5.513v-3.82h-5.513v-4.774l-4.59.74V41.97c0 1.047.098 2.002.293 2.864s.54 1.596 1.032 2.202 1.15 1.078 1.97 1.417 1.858.508 3.11.508zm14.014.062c1.21 0 2.305-.205 3.28-.616s1.812-.99 2.5-1.74 1.232-1.653 1.602-2.7.554-2.223.554-3.496-.195-2.433-.585-3.48-.934-1.94-1.632-2.68-1.535-1.314-2.5-1.725-2.048-.616-3.22-.616c-1.15 0-2.212.205-3.188.616a7.47 7.47 0 0 0-2.526 1.725c-.708.74-1.263 1.632-1.663 2.68s-.6 2.207-.6 3.48.195 2.438.585 3.496.934 1.96 1.632 2.7 1.535 1.33 2.5 1.74 2.058.616 3.25.616zm0-3.942c-1.047 0-1.858-.416-2.433-1.247s-.862-1.956-.862-3.373.287-2.53.862-3.342 1.386-1.217 2.433-1.217 1.853.406 2.418 1.217.847 1.925.847 3.342-.282 2.54-.847 3.373-1.37 1.247-2.418 1.247zm22.636 4.19c.986 0 1.817-.082 2.495-.246s1.294-.36 1.848-.585h0l-.647-3.573c-.43.164-.91.293-1.432.385a8.77 8.77 0 0 1-1.525.139c-1.027 0-1.71-.287-2.048-.862s-.508-1.345-.508-2.3h0V36.52h5.513V32.7h-5.513v-4.774l-4.59.74V42.28c0 1.047.098 2.002.293 2.864s.54 1.596 1.032 2.202 1.15 1.078 1.97 1.417 1.858.508 3.11.508zm12.012-.37V36.58l.97-.23c.36-.072.744-.108 1.155-.108 1.027 0 1.73.308 2.1.924s.57 1.663.57 3.142h0V48.9h4.59v-9.148c0-1.11-.108-2.115-.323-3.018s-.585-1.684-1.11-2.34-1.222-1.165-2.094-1.525-1.966-.54-3.28-.54c-.452 0-.92.046-1.4.14s-.878.2-1.186.293h0V25l-4.59.74V48.9h4.59zm21.344.43a16.18 16.18 0 0 0 1.725-.092l1.617-.23c.503-.092.96-.2 1.37-.323s.74-.246.986-.37h0l-.616-3.727c-.513.226-1.176.416-1.987.57a13.26 13.26 0 0 1-2.479.231c-1.314 0-2.36-.277-3.142-.832s-1.222-1.304-1.324-2.248h10.4l.062-.847.03-.878c0-2.73-.667-4.8-2.002-6.206s-3.152-2.1-5.452-2.1c-.986 0-1.946.185-2.88.554a7.24 7.24 0 0 0-2.479 1.632c-.72.72-1.3 1.617-1.74 2.695s-.662 2.336-.662 3.773c0 1.19.17 2.3.508 3.326s.862 1.915 1.57 2.664 1.602 1.34 2.68 1.77 2.346.647 3.804.647zm2.218-10.164h-6.068a6.57 6.57 0 0 1 .293-1.155 3.1 3.1 0 0 1 .57-1.001c.246-.287.554-.518.924-.693s.81-.262 1.324-.262c.534 0 .98.092 1.34.277s.657.42.893.708.41.616.524.986.18.75.2 1.14h0zm17.824 9.176v-8.81h8.44V35.5h-8.44v-4.466h9.486V27h-14.29v21.344h4.805zm18.88.37c1.355 0 2.65-.098 3.88-.293l3.018-.63V32.144h-4.59v12.505l-.986.108-1.047.046c-1.068 0-1.797-.33-2.187-.986s-.585-1.725-.585-3.203h0v-8.47h-4.59v9.024c0 1.11.113 2.125.34 3.05s.606 1.72 1.14 2.387 1.258 1.186 2.17 1.555 2.058.554 3.434.554zm17.464 0c.986 0 1.817-.082 2.495-.246s1.294-.36 1.848-.585h0l-.647-3.573c-.43.164-.91.293-1.432.385a8.77 8.77 0 0 1-1.525.139c-1.027 0-1.71-.287-2.048-.862s-.508-1.345-.508-2.3h0v-5.698h5.513v-3.82h-5.513V27.37l-4.59.74v13.614c0 1.047.098 2.002.293 2.864s.54 1.596 1.032 2.202 1.15 1.078 1.97 1.417 1.858.508 3.11.508zm14.353 0c1.355 0 2.65-.098 3.88-.293l3.018-.63V32.144h-4.59v12.505l-.986.108-1.047.046c-1.068 0-1.797-.33-2.187-.986s-.585-1.725-.585-3.203h0v-8.47h-4.59v9.024c0 1.11.113 2.125.34 3.05s.606 1.72 1.14 2.387 1.258 1.186 2.17 1.555 2.058.554 3.434.554zm15.8-.37V35.963c.205-.062.508-.118.91-.17a8.29 8.29 0 0 1 1.032-.077c.637 0 1.232.056 1.786.17l1.448.323.77-3.788c-.246-.103-.544-.2-.893-.262l-1.047-.185-1.047-.123-.893-.046c-1.376 0-2.623.128-3.742.385l-2.91.816v15.338h4.59zm15.893.43a16.18 16.18 0 0 0 1.725-.092l1.617-.23c.503-.092.96-.2 1.37-.323s.74-.246.986-.37h0l-.616-3.727c-.513.226-1.176.416-1.987.57a13.26 13.26 0 0 1-2.479.231c-1.314 0-2.36-.277-3.142-.832s-1.222-1.304-1.324-2.248h10.4l.062-.847.03-.878c0-2.73-.667-4.8-2.002-6.206s-3.152-2.1-5.452-2.1c-.986 0-1.946.185-2.88.554a7.24 7.24 0 0 0-2.479 1.632c-.72.72-1.3 1.617-1.74 2.695s-.662 2.336-.662 3.773c0 1.19.17 2.3.508 3.326s.862 1.915 1.57 2.664 1.602 1.34 2.68 1.77 2.346.647 3.804.647zm2.218-10.164h-6.068a6.57 6.57 0 0 1 .293-1.155 3.1 3.1 0 0 1 .57-1.001c.246-.287.554-.518.924-.693s.81-.262 1.324-.262c.534 0 .98.092 1.34.277s.657.42.893.708.41.616.524.986.18.75.2 1.14h0z"/><path id="O" d="M151.22 19.328v-1.556h-8.927v-.055c0-.437.105-.878.314-1.324a7.54 7.54 0 0 1 .846-1.365 16.36 16.36 0 0 1 1.201-1.392l1.38-1.38 1.665-1.638c.546-.546 1.033-1.1 1.46-1.693s.77-1.188 1.024-1.815.382-1.297.382-2.007c0-1.602-.464-2.853-1.392-3.754S146.86 0 145.023 0c-.692 0-1.32.086-1.884.26s-1.06.378-1.488.614a6.17 6.17 0 0 0-1.065.723l-.587.56.928 1.228c.11-.11.282-.264.52-.464s.523-.396.86-.587.733-.36 1.188-.505.974-.218 1.556-.218c1.037 0 1.897.278 2.58.833s1.024 1.47 1.024 2.744c0 .582-.09 1.12-.273 1.61s-.428.955-.737 1.392-.67.86-1.078 1.27l-1.297 1.27-1.706 1.638a13.96 13.96 0 0 0-1.611 1.829 10.12 10.12 0 0 0-1.188 2.088c-.31.737-.464 1.533-.464 2.39l.014.45.014.205h10.893zm9.992.4c1.93 0 3.426-.846 4.49-2.54s1.597-4.13 1.597-7.316c0-3.203-.532-5.65-1.597-7.344S163.14 0 161.212 0c-1.947 0-3.45.846-4.504 2.54s-1.583 4.14-1.583 7.344c0 3.185.532 5.624 1.597 7.316s2.562 2.54 4.49 2.54zm0-1.61c-.8 0-1.465-.227-1.993-.682s-.95-1.06-1.27-1.815-.546-1.63-.683-2.62a22.93 22.93 0 0 1-.205-3.126 22.93 22.93 0 0 1 .205-3.126c.137-.992.364-1.87.683-2.634s.742-1.374 1.27-1.83 1.192-.682 1.993-.682c.783 0 1.438.228 1.966.682s.956 1.065 1.283 1.83.56 1.643.696 2.634a22.93 22.93 0 0 1 .205 3.126 22.93 22.93 0 0 1-.205 3.126c-.136.992-.37 1.865-.696 2.62s-.755 1.36-1.283 1.815-1.183.682-1.966.682zm20.803 1.2v-1.556h-8.927v-.055c0-.437.105-.878.314-1.324a7.54 7.54 0 0 1 .846-1.365 16.36 16.36 0 0 1 1.201-1.392l1.38-1.38 1.665-1.638c.546-.546 1.033-1.1 1.46-1.693s.77-1.188 1.024-1.815.382-1.297.382-2.007c0-1.602-.464-2.853-1.392-3.754S177.656 0 175.818 0c-.692 0-1.32.086-1.884.26s-1.06.378-1.488.614a6.17 6.17 0 0 0-1.065.723l-.587.56.928 1.228c.11-.11.282-.264.52-.464s.523-.396.86-.587.733-.36 1.188-.505.974-.218 1.556-.218c1.037 0 1.897.278 2.58.833s1.024 1.47 1.024 2.744c0 .582-.09 1.12-.273 1.61s-.428.955-.737 1.392-.67.86-1.078 1.27l-1.297 1.27-1.706 1.638a13.96 13.96 0 0 0-1.611 1.829 10.12 10.12 0 0 0-1.188 2.088c-.31.737-.464 1.533-.464 2.39l.014.45.014.205h10.893zm11.93 0V.41h-1.256c-.837 1.02-1.684 1.825-2.54 2.416s-1.83 1.078-2.92 1.46h0l.52 1.365c.437-.127.874-.296 1.3-.505l1.256-.655c.4-.227.76-.46 1.078-.696s.578-.464.778-.682h0v16.216h1.774z"/><path id="P" d="M7.904 13.7v-1.104H1.615v-.04a2.21 2.21 0 0 1 .221-.939c.147-.316.346-.64.596-.968s.532-.658.846-.988l.97-.978 1.173-1.162a10.42 10.42 0 0 0 1.029-1.201 5.97 5.97 0 0 0 .721-1.288 3.77 3.77 0 0 0 .269-1.423c0-1.136-.327-2.024-.98-2.663S4.833 0 3.538 0c-.487 0-.93.06-1.327.184S1.465.452 1.163.62s-.55.34-.75.513L0 1.53l.654.87a6.47 6.47 0 0 1 .365-.329c.167-.142.37-.28.606-.416s.516-.255.837-.358a3.57 3.57 0 0 1 1.096-.155c.73 0 1.337.197 1.817.59s.72 1.042.72 1.946c0 .413-.064.794-.192 1.142s-.3.678-.52.988a6.98 6.98 0 0 1-.76.9l-.913.9L2.5 8.772a9.88 9.88 0 0 0-1.135 1.297 7.19 7.19 0 0 0-.837 1.481 4.36 4.36 0 0 0-.327 1.694l.01.32.01.145h7.673zm7.038.3c1.36 0 2.413-.6 3.163-1.8S19.23 9.27 19.23 7c0-2.272-.375-4.008-1.125-5.21S16.3 0 14.942 0c-1.372 0-2.43.6-3.173 1.8S10.654 4.738 10.654 7c0 2.26.375 3.99 1.125 5.19s1.804 1.8 3.163 1.8zm0-1.142c-.564 0-1.032-.16-1.404-.484s-.67-.752-.894-1.288-.385-1.155-.48-1.86S12.02 7.784 12.02 7s.048-1.514.144-2.217.256-1.326.48-1.87.522-.975.894-1.297.84-.484 1.404-.484c.55 0 1.013.16 1.385.484s.673.755.904 1.297.394 1.165.5 1.87.144 1.443.144 2.217-.048 1.514-.144 2.217-.26 1.323-.5 1.86-.532.965-.904 1.288-.833.484-1.385.484zm14.654.852v-1.104h-6.288v-.04a2.21 2.21 0 0 1 .221-.939c.147-.316.346-.64.596-.968s.532-.658.846-.988l.97-.978 1.173-1.162a10.42 10.42 0 0 0 1.029-1.201 5.97 5.97 0 0 0 .721-1.288 3.77 3.77 0 0 0 .269-1.423c0-1.136-.327-2.024-.98-2.663S26.526 0 25.23 0c-.487 0-.93.06-1.327.184s-.747.268-1.048.436-.55.34-.75.513l-.413.397.654.87a6.47 6.47 0 0 1 .365-.329c.167-.142.37-.28.606-.416s.516-.255.837-.358a3.57 3.57 0 0 1 1.096-.155c.73 0 1.337.197 1.817.59s.72 1.042.72 1.946c0 .413-.064.794-.192 1.142s-.3.678-.52.988a6.98 6.98 0 0 1-.76.9l-.913.9-1.202 1.162a9.88 9.88 0 0 0-1.135 1.297 7.19 7.19 0 0 0-.837 1.481 4.36 4.36 0 0 0-.327 1.694l.01.32.01.145h7.673zm8.404 0V.3h-.885c-.6.723-1.186 1.294-1.788 1.714s-1.288.765-2.058 1.036h0l.365.968c.308-.1.615-.2.923-.358l.885-.465a7.42 7.42 0 0 0 .76-.494c.224-.168.407-.33.548-.484h0V13.7H38z"/><path id="Q" d="M-74.578 123c25.77 15.917 41.57 54.07 47.405 114.463L-27 239.3-170 242c.263-29.16 3.25-52.3 8.962-69.445 2.918-8.754 12.75-24.345 29.493-46.772l.322-.43c21.922 1.162 40.868.19 56.576-2.34l.068-.012z"/></defs><g transform="translate(34 34)" fill="none" fill-rule="evenodd" class="O"><rect width="442" height="284.004" rx="4.546" class="P"/><g class="F I B"><circle cx="14.5" cy="11.5" r="5.5"/><circle cx="29.5" cy="11.5" r="5.5"/><circle cx="44.5" cy="11.5" r="5.5"/></g><g transform="translate(0 22)"><mask id="R" class="C"><use xlink:href="#B"/></mask><use xlink:href="#B" class="C"/><g class="W"><mask id="S" class="C"><use xlink:href="#C"/></mask><use xlink:href="#C" class="b"/><g style="mix-blend-mode:luminosity" mask="url(#S)" class="Q"><g transform="translate(-300 -69)"><g transform="translate(371.5)"><path d="M369.79 186.013V.2H185.287l.018 2.186c1.62 100.667 82.353 181.967 182.317 183.6l2.167.018z" class="X"/><path d="M369.79 190.257V376.06H185.287l.018-2.186c1.62-100.667 82.353-181.967 182.317-183.6l2.167-.018z" class="H"/><path d="M185.285 376.062V190.26H.783l.018 2.186c1.62 100.667 82.353 181.967 182.317 183.6l2.167.018z" class="K"/><ellipse cx="93.036" cy="93.111" rx="92.252" ry="92.901" class="R"/></g><path d="M191.5 186V0h191l-.018 2.187c-1.678 100.774-85.253 182.16-188.738 183.795L191.5 186z" class="H"/></g></g><g class="C N"><path d="M161.472 115.612v-5.896h-13.508V85.12H141.1v30.492h20.372zm14.256.616c1.73 0 3.293-.293 4.686-.88s2.59-1.415 3.586-2.486 1.76-2.36 2.288-3.872.792-3.175.792-4.994-.28-3.476-.836-4.972-1.335-2.772-2.332-3.828a10.44 10.44 0 0 0-3.586-2.464c-1.393-.587-2.926-.88-4.598-.88-1.643 0-3.16.293-4.554.88a10.67 10.67 0 0 0-3.608 2.464c-1.012 1.056-1.804 2.332-2.376 3.828s-.858 3.153-.858 4.972.28 3.483.836 4.994 1.335 2.8 2.332 3.872 2.193 1.9 3.586 2.486 2.94.88 4.642.88zm0-5.632c-1.496 0-2.655-.594-3.476-1.782s-1.232-2.794-1.232-4.818.41-3.615 1.232-4.774 1.98-1.738 3.476-1.738 2.647.58 3.454 1.738 1.2 2.75 1.2 4.774-.403 3.63-1.2 4.818-1.958 1.782-3.454 1.782zm26.708 5.632c1.73 0 3.293-.293 4.686-.88s2.59-1.415 3.586-2.486 1.76-2.36 2.288-3.872.792-3.175.792-4.994-.28-3.476-.836-4.972-1.335-2.772-2.332-3.828a10.44 10.44 0 0 0-3.586-2.464c-1.393-.587-2.926-.88-4.598-.88-1.643 0-3.16.293-4.554.88a10.67 10.67 0 0 0-3.608 2.464c-1.012 1.056-1.804 2.332-2.376 3.828s-.858 3.153-.858 4.972.28 3.483.836 4.994 1.335 2.8 2.332 3.872 2.193 1.9 3.586 2.486 2.94.88 4.642.88zm0-5.632c-1.496 0-2.655-.594-3.476-1.782s-1.232-2.794-1.232-4.818.41-3.615 1.232-4.774 1.98-1.738 3.476-1.738 2.647.58 3.454 1.738 1.2 2.75 1.2 4.774-.403 3.63-1.2 4.818-1.958 1.782-3.454 1.782zm22.968 5.016v-10.12c.733.587 1.474 1.305 2.222 2.156l2.134 2.662 1.914 2.772 1.606 2.53h7.524l-1.848-3.212-2.42-3.52-2.728-3.4c-.94-1.1-1.848-2.046-2.728-2.838l4.862-5.038 4.554-5.126h-7.788l-1.474 1.76-1.826 2.134-2.002 2.266-2.002 2.2v-19.36l-6.556 1.056v33.088h6.556zm22.176-25.96c1.056 0 1.973-.345 2.75-1.034s1.166-1.635 1.166-2.838-.39-2.15-1.166-2.838-1.694-1.034-2.75-1.034-1.973.345-2.75 1.034-1.166 1.635-1.166 2.838.39 2.15 1.166 2.838 1.694 1.034 2.75 1.034zm3.3 25.96V92.468h-6.556v23.144h6.556zm12.716 0V97.748l1.408-.154 1.496-.066c1.525 0 2.567.44 3.124 1.32s.836 2.376.836 4.488h0v12.276h6.556v-13.068c0-1.584-.16-3.02-.484-4.312s-.865-2.405-1.628-3.344-1.797-1.665-3.102-2.178-2.94-.77-4.906-.77c-1.936 0-3.784.14-5.544.418l-4.312.902v22.352h6.556zm27.544 8.272c4.02 0 6.99-.917 8.9-2.75s2.882-4.642 2.882-8.426h0V93.26l-2.002-.506-2.354-.418-2.486-.286-2.442-.1c-1.848 0-3.505.27-4.972.814s-2.706 1.313-3.718 2.3-1.782 2.193-2.3 3.586-.792 2.94-.792 4.642c0 3.403.85 6.05 2.552 7.942s4.15 2.838 7.348 2.838c.88 0 1.694-.08 2.442-.242s1.474-.403 2.178-.726h0v.836c0 1.29-.39 2.347-1.166 3.168s-2.105 1.232-3.982 1.232c-1.437 0-2.72-.117-3.85-.352s-2.207-.557-3.234-.968h0l-1.144 5.5c1.203.41 2.508.74 3.916 1a24.18 24.18 0 0 0 4.224.374zm1.848-15.092c-2.963 0-4.444-1.833-4.444-5.5 0-1.76.425-3.212 1.276-4.356s2.14-1.716 3.872-1.716l1.54.066 1.144.154v10.472c-.41.235-.91.44-1.496.616s-1.217.264-1.892.264zm-149.072 15.86c1.056 0 1.973-.345 2.75-1.034s1.166-1.635 1.166-2.838-.39-2.15-1.166-2.838-1.694-1.034-2.75-1.034-1.973.345-2.75 1.034S140 119.577 140 120.78s.39 2.15 1.166 2.838 1.694 1.034 2.75 1.034zm3.3 25.96v-23.144h-6.556v23.144h6.556zm12.716 0v-17.864l1.408-.154 1.496-.066c1.525 0 2.567.44 3.124 1.32s.836 2.376.836 4.488h0v12.276h6.556v-13.068c0-1.584-.16-3.02-.484-4.312s-.865-2.405-1.628-3.344-1.797-1.665-3.102-2.178-2.94-.77-4.906-.77c-1.936 0-3.784.14-5.544.418l-4.312.902v22.352h6.556zm28.292.528c1.408 0 2.596-.117 3.564-.352s1.848-.513 2.64-.836h0l-.924-5.104c-.616.235-1.298.418-2.046.55s-1.474.198-2.178.198c-1.467 0-2.442-.41-2.926-1.232s-.726-1.92-.726-3.3h0v-8.14h7.876v-5.456h-7.876v-6.82l-6.556 1.056v19.448c0 1.496.14 2.86.418 4.092s.77 2.28 1.474 3.146 1.643 1.54 2.816 2.024 2.655.726 4.444.726zm20.02.088c1.73 0 3.293-.293 4.686-.88s2.59-1.415 3.586-2.486 1.76-2.36 2.288-3.872.792-3.175.792-4.994-.28-3.476-.836-4.972-1.335-2.772-2.332-3.828a10.44 10.44 0 0 0-3.586-2.464c-1.393-.587-2.926-.88-4.598-.88-1.643 0-3.16.293-4.554.88a10.67 10.67 0 0 0-3.608 2.464c-1.012 1.056-1.804 2.332-2.376 3.828s-.858 3.153-.858 4.972.28 3.483.836 4.994 1.335 2.8 2.332 3.872 2.193 1.9 3.586 2.486 2.94.88 4.642.88zm0-5.632c-1.496 0-2.655-.594-3.476-1.782s-1.232-2.794-1.232-4.818.41-3.615 1.232-4.774 1.98-1.738 3.476-1.738 2.647.58 3.454 1.738 1.2 2.75 1.2 4.774-.403 3.63-1.2 4.818-1.958 1.782-3.454 1.782zm35.904 5.544c1.408 0 2.596-.117 3.564-.352s1.848-.513 2.64-.836h0l-.924-5.104c-.616.235-1.298.418-2.046.55s-1.474.198-2.178.198c-1.467 0-2.442-.41-2.926-1.232s-.726-1.92-.726-3.3h0v-8.14h7.876v-5.456h-7.876v-6.82l-6.556 1.056v19.448c0 1.496.14 2.86.418 4.092s.77 2.28 1.474 3.146 1.643 1.54 2.816 2.024 2.655.726 4.444.726zm17.16-.528v-17.6l1.386-.33a8.41 8.41 0 0 1 1.65-.154c1.467 0 2.47.44 3.014 1.32s.814 2.376.814 4.488h0v12.276h6.556v-13.068c0-1.584-.154-3.02-.462-4.312s-.836-2.405-1.584-3.344-1.745-1.665-2.992-2.178-2.81-.77-4.686-.77a10.64 10.64 0 0 0-2.002.198c-.69.132-1.254.27-1.694.418h0v-11.088l-6.556 1.056v33.088h6.556zm30.492.616c.82 0 1.643-.044 2.464-.132l2.3-.33c.72-.132 1.37-.286 1.958-.462s1.056-.352 1.408-.528h0l-.88-5.324c-.733.323-1.68.594-2.838.814s-2.34.33-3.542.33c-1.877 0-3.373-.396-4.488-1.188s-1.745-1.863-1.892-3.212h14.872l.088-1.2.044-1.254c0-3.9-.953-6.857-2.86-8.866s-4.503-3.014-7.788-3.014a11.09 11.09 0 0 0-4.114.792 10.34 10.34 0 0 0-3.542 2.332c-1.027 1.027-1.855 2.3-2.486 3.85s-.946 3.337-.946 5.4c0 1.7.242 3.285.726 4.752s1.232 2.735 2.244 3.806 2.288 1.914 3.828 2.53 3.35.924 5.434.924zm3.168-14.52H286.3c.088-.557.227-1.107.418-1.65a4.43 4.43 0 0 1 .814-1.43 3.91 3.91 0 0 1 1.32-.99c.528-.25 1.16-.374 1.892-.374.763 0 1.4.132 1.914.396s.94.6 1.276 1.012.587.88.748 1.408.257 1.07.286 1.628h0zm-147.004 48.904v-12.584h12.056v-5.764h-12.056v-6.38h13.552v-5.764H141.1v30.492h6.864zm26.972.528c1.936 0 3.784-.14 5.544-.418l4.312-.902v-22.352h-6.556v17.864l-1.408.154-1.496.066c-1.525 0-2.567-.47-3.124-1.408s-.836-2.464-.836-4.576h0v-12.1h-6.556v12.892c0 1.584.16 3.036.484 4.356s.865 2.457 1.628 3.4 1.797 1.694 3.102 2.222 2.94.792 4.906.792zm24.948 0c1.408 0 2.596-.117 3.564-.352s1.848-.513 2.64-.836h0l-.924-5.104c-.616.235-1.298.418-2.046.55s-1.474.198-2.178.198c-1.467 0-2.442-.41-2.926-1.232s-.726-1.92-.726-3.3h0v-8.14h7.876v-5.456h-7.876v-6.82l-6.556 1.056v19.448c0 1.496.14 2.86.418 4.092s.77 2.28 1.474 3.146 1.643 1.54 2.816 2.024 2.655.726 4.444.726zm20.504 0c1.936 0 3.784-.14 5.544-.418l4.312-.902v-22.352h-6.556v17.864l-1.408.154-1.496.066c-1.525 0-2.567-.47-3.124-1.408s-.836-2.464-.836-4.576h0v-12.1h-6.556v12.892c0 1.584.16 3.036.484 4.356s.865 2.457 1.628 3.4 1.797 1.694 3.102 2.222 2.94.792 4.906.792zm22.572-.528v-17.688c.293-.088.726-.17 1.298-.242s1.063-.1 1.474-.1a12.78 12.78 0 0 1 2.552.242l2.068.462 1.1-5.412c-.352-.147-.777-.27-1.276-.374l-1.496-.264-1.496-.176-1.276-.066c-1.965 0-3.747.183-5.346.55l-4.158 1.166v21.912h6.556zm22.704.616c.82 0 1.643-.044 2.464-.132l2.3-.33c.72-.132 1.37-.286 1.958-.462s1.056-.352 1.408-.528h0l-.88-5.324c-.733.323-1.68.594-2.838.814s-2.34.33-3.542.33c-1.877 0-3.373-.396-4.488-1.188s-1.745-1.863-1.892-3.212h14.872l.088-1.2.044-1.254c0-3.9-.953-6.857-2.86-8.866s-4.503-3.014-7.788-3.014a11.09 11.09 0 0 0-4.114.792 10.34 10.34 0 0 0-3.542 2.332c-1.027 1.027-1.855 2.3-2.486 3.85s-.946 3.337-.946 5.4c0 1.7.242 3.285.726 4.752s1.232 2.735 2.244 3.806 2.288 1.914 3.828 2.53 3.35.924 5.434.924zm3.168-14.52h-8.668c.088-.557.227-1.107.418-1.65a4.43 4.43 0 0 1 .814-1.43 3.91 3.91 0 0 1 1.32-.99c.528-.25 1.16-.374 1.892-.374.763 0 1.4.132 1.914.396s.94.6 1.276 1.012.587.88.748 1.408.257 1.07.286 1.628h0z"/><path d="M156.11 72.612V70.39h-12.753v-.078c0-.624.15-1.255.448-1.892s.702-1.287 1.21-1.95 1.08-1.326 1.716-1.99l1.97-1.97 2.38-2.34c.78-.78 1.476-1.586 2.087-2.418s1.1-1.697 1.463-2.593a7.55 7.55 0 0 0 .546-2.867c0-2.288-.663-4.075-1.99-5.362S149.882 45 147.256 45c-.988 0-1.885.123-2.69.37s-1.514.54-2.125.877-1.118.683-1.52 1.034l-.838.8 1.326 1.755a13.09 13.09 0 0 1 .741-.663c.338-.286.748-.566 1.228-.84s1.047-.514 1.697-.72 1.39-.312 2.223-.312c1.482 0 2.71.396 3.686 1.19s1.463 2.1 1.463 3.92c0 .832-.13 1.6-.4 2.3A8.59 8.59 0 0 1 151 56.7a14.08 14.08 0 0 1-1.541 1.813l-1.852 1.813-2.437 2.34c-.845.806-1.612 1.677-2.3 2.613s-1.255 1.93-1.697 2.983-.663 2.19-.663 3.413l.02.644.02.292h15.56zm14.274.585c2.756 0 4.894-1.21 6.415-3.627s2.282-5.902 2.282-10.452c0-4.576-.76-8.073-2.282-10.49S173.14 45 170.383 45c-2.782 0-4.927 1.21-6.435 3.627s-2.262 5.915-2.262 10.49c0 4.55.76 8.034 2.28 10.452s3.66 3.627 6.416 3.627zm0-2.3c-1.144 0-2.093-.325-2.847-.975s-1.358-1.515-1.814-2.594-.78-2.327-.975-3.744-.292-2.906-.292-4.465.097-3.05.292-4.465.52-2.672.975-3.764 1.06-1.963 1.814-2.613 1.703-.975 2.847-.975c1.118 0 2.054.325 2.808.975s1.365 1.52 1.833 2.613.8 2.346.994 3.764.293 2.905.293 4.465-.097 3.048-.293 4.465-.526 2.665-.994 3.744-1.08 1.944-1.833 2.594-1.7.975-2.808.975zm29.718 1.716V70.39h-12.753v-.078c0-.624.15-1.255.448-1.892s.702-1.287 1.21-1.95 1.08-1.326 1.716-1.99 1.293-1.32 1.97-1.97l2.38-2.34c.78-.78 1.476-1.586 2.087-2.418s1.1-1.697 1.463-2.593a7.55 7.55 0 0 0 .546-2.867c0-2.288-.663-4.075-1.99-5.362S193.874 45 191.248 45c-.988 0-1.885.123-2.69.37s-1.514.54-2.125.877-1.118.683-1.52 1.034-.683.617-.84.8h0l1.326 1.755a13.09 13.09 0 0 1 .741-.663c.338-.286.748-.566 1.228-.84s1.046-.514 1.696-.72 1.39-.312 2.223-.312c1.482 0 2.7.396 3.685 1.19s1.463 2.1 1.463 3.92c0 .832-.13 1.6-.4 2.3a8.59 8.59 0 0 1-1.053 1.989 14.08 14.08 0 0 1-1.54 1.813l-1.853 1.813-2.437 2.34c-.845.806-1.612 1.677-2.3 2.613s-1.255 1.93-1.697 2.983-.663 2.19-.663 3.413c0 .286.006.5.02.644s.02.24.02.292h15.56zm17.043 0V45.585h-1.794c-1.196 1.456-2.405 2.606-3.627 3.45s-2.613 1.54-4.173 2.087h0l.74 1.95c.624-.182 1.248-.422 1.872-.72a28.98 28.98 0 0 0 1.794-.936 15.06 15.06 0 0 0 1.541-.995c.455-.338.826-.663 1.112-.975h0v23.166h2.535z"/></g><rect x="189" y="221" width="63" height="14" rx="2" class="Y"/></g></g><g transform="translate(422 6)" class="F I S B"><path d="M0 .5h10"/><path d="M0 5.5h10"/><path d="M0 10.5h10"/></g><g transform="translate(0 306)"><rect width="442" height="284.004" rx="4.546" class="P"/><g class="F I B"><circle cx="14.5" cy="11.5" r="5.5"/><circle cx="29.5" cy="11.5" r="5.5"/><circle cx="44.5" cy="11.5" r="5.5"/></g><g transform="translate(0 22)"><mask id="T" class="C"><use xlink:href="#E" href="#B"/></mask><use xlink:href="#E" class="C" href="#B"/><circle cx="20.5" cy="11.5" r="6.5" class="J U"/><g fill="#14591d" class="J"><rect x="42" y="8" width="46" height="7" rx="3.5"/><rect x="103" y="8" width="46" height="7" rx="3.5"/><rect x="164" y="8" width="46" height="7" rx="3.5"/><rect x="225" y="8" width="46" height="7" rx="3.5"/></g><rect x="385" y="3" width="46" height="17" rx="3.5" class="J U"/><g class="J"><g transform="translate(0 22)"><mask id="U" class="C"><use xlink:href="#D"/></mask><use fill="#ffe156" xlink:href="#D"/><g mask="url(#U)" class="Q"><g transform="translate(-550 -136)"><g transform="translate(408)"><g class="c"><path d="M666.823 258.76V0H410l.025 3.044c2.256 140.195 114.634 253.42 253.782 255.692l3.016.025z"/><path d="M256.823 464.76V206H0l.025 3.044C2.28 349.24 114.66 462.463 253.807 464.736l3.016.025z" transform="matrix(-1 0 0 -1 256.823146 670.760916)"/></g><path d="M622.706 378.964v258.76H365.883l.025-3.044c2.256-140.195 114.634-253.42 253.782-255.692l3.016-.025z" class="H"/><path d="M365.88 637.727v-258.76H109.057l.025 3.044c2.256 140.195 114.634 253.42 253.782 255.692l3.016.025z" class="K"/><ellipse cx="363.413" cy="258.38" rx="128.413" ry="129.38" class="R"/></g><path d="M533 114v259H268l.025-3.046c2.328-140.325 118.284-253.654 261.86-255.93L533 114z" class="T"/><path d="M266 373V114h265l-.025 3.046C528.647 257.37 412.69 370.7 269.114 372.975L266 373z" class="H"/></g></g></g><g class="C N"><path d="M161.472 128.144v-5.896h-13.508V97.652H141.1v30.492h20.372zm14.256.616c1.73 0 3.293-.293 4.686-.88s2.59-1.415 3.586-2.486 1.76-2.36 2.288-3.872.792-3.175.792-4.994-.28-3.476-.836-4.972-1.335-2.772-2.332-3.828a10.44 10.44 0 0 0-3.586-2.464c-1.393-.587-2.926-.88-4.598-.88-1.643 0-3.16.293-4.554.88a10.67 10.67 0 0 0-3.608 2.464c-1.012 1.056-1.804 2.332-2.376 3.828s-.858 3.153-.858 4.972.28 3.483.836 4.994 1.335 2.8 2.332 3.872 2.193 1.9 3.586 2.486 2.94.88 4.642.88zm0-5.632c-1.496 0-2.655-.594-3.476-1.782s-1.232-2.794-1.232-4.818.41-3.615 1.232-4.774 1.98-1.738 3.476-1.738 2.647.58 3.454 1.738 1.2 2.75 1.2 4.774-.403 3.63-1.2 4.818-1.958 1.782-3.454 1.782zm26.708 5.632c1.73 0 3.293-.293 4.686-.88s2.59-1.415 3.586-2.486 1.76-2.36 2.288-3.872.792-3.175.792-4.994-.28-3.476-.836-4.972-1.335-2.772-2.332-3.828a10.44 10.44 0 0 0-3.586-2.464c-1.393-.587-2.926-.88-4.598-.88-1.643 0-3.16.293-4.554.88a10.67 10.67 0 0 0-3.608 2.464c-1.012 1.056-1.804 2.332-2.376 3.828s-.858 3.153-.858 4.972.28 3.483.836 4.994 1.335 2.8 2.332 3.872 2.193 1.9 3.586 2.486 2.94.88 4.642.88zm0-5.632c-1.496 0-2.655-.594-3.476-1.782s-1.232-2.794-1.232-4.818.41-3.615 1.232-4.774 1.98-1.738 3.476-1.738 2.647.58 3.454 1.738 1.2 2.75 1.2 4.774-.403 3.63-1.2 4.818-1.958 1.782-3.454 1.782zm22.968 5.016v-10.12c.733.587 1.474 1.305 2.222 2.156l2.134 2.662 1.914 2.772 1.606 2.53h7.524l-1.848-3.212-2.42-3.52-2.728-3.4c-.94-1.1-1.848-2.046-2.728-2.838l4.862-5.038 4.554-5.126h-7.788l-1.474 1.76-1.826 2.134-2.002 2.266-2.002 2.2V94l-6.556 1.056v33.088h6.556zm22.176-25.96c1.056 0 1.973-.345 2.75-1.034s1.166-1.635 1.166-2.838-.39-2.15-1.166-2.838-1.694-1.034-2.75-1.034-1.973.345-2.75 1.034-1.166 1.635-1.166 2.838.39 2.15 1.166 2.838 1.694 1.034 2.75 1.034zm3.3 25.96V105h-6.556v23.144h6.556zm12.716 0V110.28l1.408-.154 1.496-.066c1.525 0 2.567.44 3.124 1.32s.836 2.376.836 4.488h0v12.276h6.556v-13.068c0-1.584-.16-3.02-.484-4.312s-.865-2.405-1.628-3.344-1.797-1.665-3.102-2.178-2.94-.77-4.906-.77c-1.936 0-3.784.14-5.544.418l-4.312.902v22.352h6.556zm27.544 8.272c4.02 0 6.99-.917 8.9-2.75s2.882-4.642 2.882-8.426h0v-19.448l-2.002-.506-2.354-.418-2.486-.286-2.442-.1c-1.848 0-3.505.27-4.972.814s-2.706 1.313-3.718 2.3-1.782 2.193-2.3 3.586-.792 2.94-.792 4.642c0 3.403.85 6.05 2.552 7.942s4.15 2.838 7.348 2.838c.88 0 1.694-.08 2.442-.242s1.474-.403 2.178-.726h0v.836c0 1.29-.39 2.347-1.166 3.168s-2.105 1.232-3.982 1.232c-1.437 0-2.72-.117-3.85-.352s-2.207-.557-3.234-.968h0l-1.144 5.5c1.203.41 2.508.74 3.916 1a24.18 24.18 0 0 0 4.224.374zm1.848-15.092c-2.963 0-4.444-1.833-4.444-5.5 0-1.76.425-3.212 1.276-4.356s2.14-1.716 3.872-1.716l1.54.066 1.144.154v10.472c-.41.235-.91.44-1.496.616s-1.217.264-1.892.264zm-149.072 15.86c1.056 0 1.973-.345 2.75-1.034s1.166-1.635 1.166-2.838-.39-2.15-1.166-2.838-1.694-1.034-2.75-1.034-1.973.345-2.75 1.034S140 132.11 140 133.312s.39 2.15 1.166 2.838 1.694 1.034 2.75 1.034zm3.3 25.96V140h-6.556v23.144h6.556zm12.716 0V145.28l1.408-.154 1.496-.066c1.525 0 2.567.44 3.124 1.32s.836 2.376.836 4.488h0v12.276h6.556v-13.068c0-1.584-.16-3.02-.484-4.312s-.865-2.405-1.628-3.344-1.797-1.665-3.102-2.178-2.94-.77-4.906-.77c-1.936 0-3.784.14-5.544.418l-4.312.902v22.352h6.556zm28.292.528c1.408 0 2.596-.117 3.564-.352s1.848-.513 2.64-.836h0l-.924-5.104c-.616.235-1.298.418-2.046.55s-1.474.198-2.178.198c-1.467 0-2.442-.41-2.926-1.232s-.726-1.92-.726-3.3h0v-8.14h7.876V140h-7.876v-6.82l-6.556 1.056v19.448c0 1.496.14 2.86.418 4.092s.77 2.28 1.474 3.146 1.643 1.54 2.816 2.024 2.655.726 4.444.726zm20.02.088c1.73 0 3.293-.293 4.686-.88s2.59-1.415 3.586-2.486 1.76-2.36 2.288-3.872.792-3.175.792-4.994-.28-3.476-.836-4.972-1.335-2.772-2.332-3.828a10.44 10.44 0 0 0-3.586-2.464c-1.393-.587-2.926-.88-4.598-.88-1.643 0-3.16.293-4.554.88a10.67 10.67 0 0 0-3.608 2.464c-1.012 1.056-1.804 2.332-2.376 3.828s-.858 3.153-.858 4.972.28 3.483.836 4.994 1.335 2.8 2.332 3.872 2.193 1.9 3.586 2.486 2.94.88 4.642.88zm0-5.632c-1.496 0-2.655-.594-3.476-1.782s-1.232-2.794-1.232-4.818.41-3.615 1.232-4.774 1.98-1.738 3.476-1.738 2.647.58 3.454 1.738 1.2 2.75 1.2 4.774-.403 3.63-1.2 4.818-1.958 1.782-3.454 1.782zm35.904 5.544c1.408 0 2.596-.117 3.564-.352s1.848-.513 2.64-.836h0l-.924-5.104c-.616.235-1.298.418-2.046.55s-1.474.198-2.178.198c-1.467 0-2.442-.41-2.926-1.232s-.726-1.92-.726-3.3h0v-8.14h7.876V140h-7.876v-6.82l-6.556 1.056v19.448c0 1.496.14 2.86.418 4.092s.77 2.28 1.474 3.146 1.643 1.54 2.816 2.024 2.655.726 4.444.726zm17.16-.528v-17.6l1.386-.33a8.41 8.41 0 0 1 1.65-.154c1.467 0 2.47.44 3.014 1.32s.814 2.376.814 4.488h0v12.276h6.556v-13.068c0-1.584-.154-3.02-.462-4.312s-.836-2.405-1.584-3.344-1.745-1.665-2.992-2.178-2.81-.77-4.686-.77a10.64 10.64 0 0 0-2.002.198c-.69.132-1.254.27-1.694.418h0V129l-6.556 1.056v33.088h6.556zm30.492.616c.82 0 1.643-.044 2.464-.132l2.3-.33c.72-.132 1.37-.286 1.958-.462s1.056-.352 1.408-.528h0l-.88-5.324c-.733.323-1.68.594-2.838.814s-2.34.33-3.542.33c-1.877 0-3.373-.396-4.488-1.188s-1.745-1.863-1.892-3.212h14.872l.088-1.2.044-1.254c0-3.9-.953-6.857-2.86-8.866s-4.503-3.014-7.788-3.014a11.09 11.09 0 0 0-4.114.792 10.34 10.34 0 0 0-3.542 2.332c-1.027 1.027-1.855 2.3-2.486 3.85s-.946 3.337-.946 5.4c0 1.7.242 3.285.726 4.752s1.232 2.735 2.244 3.806 2.288 1.914 3.828 2.53 3.35.924 5.434.924zm3.168-14.52H286.3c.088-.557.227-1.107.418-1.65a4.43 4.43 0 0 1 .814-1.43 3.91 3.91 0 0 1 1.32-.99c.528-.25 1.16-.374 1.892-.374.763 0 1.4.132 1.914.396s.94.6 1.276 1.012.587.88.748 1.408.257 1.07.286 1.628h0zm-147.004 48.904V185.56h12.056v-5.764h-12.056v-6.38h13.552v-5.764H141.1v30.492h6.864zm26.972.528c1.936 0 3.784-.14 5.544-.418l4.312-.902V175h-6.556v17.864l-1.408.154-1.496.066c-1.525 0-2.567-.47-3.124-1.408s-.836-2.464-.836-4.576h0V175h-6.556v12.892c0 1.584.16 3.036.484 4.356s.865 2.457 1.628 3.4 1.797 1.694 3.102 2.222 2.94.792 4.906.792zm24.948 0c1.408 0 2.596-.117 3.564-.352s1.848-.513 2.64-.836h0l-.924-5.104c-.616.235-1.298.418-2.046.55s-1.474.198-2.178.198c-1.467 0-2.442-.41-2.926-1.232s-.726-1.92-.726-3.3h0v-8.14h7.876V175h-7.876v-6.82l-6.556 1.056v19.448c0 1.496.14 2.86.418 4.092s.77 2.28 1.474 3.146 1.643 1.54 2.816 2.024 2.655.726 4.444.726zm20.504 0c1.936 0 3.784-.14 5.544-.418l4.312-.902V175h-6.556v17.864l-1.408.154-1.496.066c-1.525 0-2.567-.47-3.124-1.408s-.836-2.464-.836-4.576h0V175h-6.556v12.892c0 1.584.16 3.036.484 4.356s.865 2.457 1.628 3.4 1.797 1.694 3.102 2.222 2.94.792 4.906.792zm22.572-.528v-17.688c.293-.088.726-.17 1.298-.242s1.063-.1 1.474-.1a12.78 12.78 0 0 1 2.552.242l2.068.462 1.1-5.412c-.352-.147-.777-.27-1.276-.374l-1.496-.264-1.496-.176-1.276-.066c-1.965 0-3.747.183-5.346.55l-4.158 1.166v21.912h6.556zm22.704.616c.82 0 1.643-.044 2.464-.132l2.3-.33c.72-.132 1.37-.286 1.958-.462s1.056-.352 1.408-.528h0l-.88-5.324c-.733.323-1.68.594-2.838.814s-2.34.33-3.542.33c-1.877 0-3.373-.396-4.488-1.188s-1.745-1.863-1.892-3.212h14.872l.088-1.2.044-1.254c0-3.9-.953-6.857-2.86-8.866s-4.503-3.014-7.788-3.014a11.09 11.09 0 0 0-4.114.792 10.34 10.34 0 0 0-3.542 2.332c-1.027 1.027-1.855 2.3-2.486 3.85s-.946 3.337-.946 5.4c0 1.7.242 3.285.726 4.752s1.232 2.735 2.244 3.806 2.288 1.914 3.828 2.53 3.35.924 5.434.924zm3.168-14.52h-8.668c.088-.557.227-1.107.418-1.65a4.43 4.43 0 0 1 .814-1.43 3.91 3.91 0 0 1 1.32-.99c.528-.25 1.16-.374 1.892-.374.763 0 1.4.132 1.914.396s.94.6 1.276 1.012.587.88.748 1.408.257 1.07.286 1.628h0z"/><path d="M198.03 88.612V86.39h-12.753v-.078c0-.624.15-1.255.448-1.892s.702-1.287 1.21-1.95 1.08-1.326 1.716-1.99l1.97-1.97 2.38-2.34c.78-.78 1.476-1.586 2.087-2.418s1.1-1.697 1.463-2.594a7.55 7.55 0 0 0 .546-2.866c0-2.288-.663-4.076-1.99-5.363S191.802 61 189.176 61c-.988 0-1.885.123-2.69.37s-1.515.54-2.126.877-1.118.683-1.52 1.034l-.84.8 1.326 1.755a13.09 13.09 0 0 1 .741-.663c.338-.286.748-.566 1.228-.838s1.047-.514 1.696-.722 1.39-.312 2.223-.312c1.482 0 2.7.396 3.685 1.19s1.463 2.1 1.463 3.92c0 .832-.13 1.6-.4 2.3a8.59 8.59 0 0 1-1.053 1.989 14.08 14.08 0 0 1-1.54 1.813l-1.853 1.814-2.437 2.34c-.845.806-1.612 1.677-2.3 2.613s-1.255 1.93-1.696 2.983-.663 2.19-.663 3.413l.02.644.02.292h15.56zm14.274.585c2.756 0 4.894-1.21 6.416-3.627S221 79.668 221 75.118c0-4.576-.76-8.073-2.28-10.49S215.06 61 212.303 61c-2.782 0-4.927 1.21-6.435 3.627s-2.262 5.915-2.262 10.49c0 4.55.76 8.034 2.28 10.452s3.66 3.627 6.416 3.627zm0-2.3c-1.144 0-2.093-.325-2.847-.975s-1.358-1.515-1.813-2.594-.78-2.327-.975-3.744-.292-2.906-.292-4.466.097-3.048.292-4.465.52-2.672.975-3.764 1.06-1.963 1.813-2.613 1.703-.975 2.847-.975c1.118 0 2.054.325 2.808.975s1.365 1.52 1.833 2.613.8 2.347.995 3.764.292 2.906.292 4.465-.097 3.05-.292 4.466-.526 2.665-.995 3.744-1.08 1.944-1.833 2.594-1.7.975-2.808.975zm29.718 1.716V86.39h-12.753v-.078c0-.624.15-1.255.448-1.892s.702-1.287 1.21-1.95 1.08-1.326 1.716-1.99 1.293-1.32 1.97-1.97l2.38-2.34c.78-.78 1.475-1.586 2.087-2.418s1.1-1.697 1.462-2.594a7.55 7.55 0 0 0 .546-2.866c0-2.288-.663-4.076-1.99-5.363S235.794 61 233.168 61c-.988 0-1.885.123-2.69.37s-1.514.54-2.126.877-1.118.683-1.52 1.034-.683.617-.84.8h0l1.326 1.755a13.09 13.09 0 0 1 .741-.663c.338-.286.748-.566 1.228-.838s1.047-.514 1.697-.722 1.39-.312 2.223-.312c1.482 0 2.7.396 3.686 1.19s1.462 2.1 1.462 3.92c0 .832-.13 1.6-.4 2.3a8.59 8.59 0 0 1-1.053 1.989 14.08 14.08 0 0 1-1.541 1.813l-1.852 1.814-2.437 2.34c-.845.806-1.612 1.677-2.3 2.613s-1.254 1.93-1.696 2.983-.663 2.19-.663 3.413c0 .286.007.5.02.644s.02.24.02.292h15.56zm17.043 0V61.585h-1.794c-1.196 1.456-2.405 2.607-3.627 3.452s-2.613 1.54-4.173 2.087h0l.74 1.95c.624-.182 1.248-.422 1.872-.72a28.98 28.98 0 0 0 1.794-.936 15.06 15.06 0 0 0 1.54-.994c.455-.338.826-.663 1.112-.975h0v23.166h2.535z"/></g><rect x="190" y="223" width="63" height="14" rx="2" class="c"/></g></g><g transform="translate(422 6)" class="F I S B"><path d="M0 .5h10"/><path d="M0 5.5h10"/><path d="M0 10.5h10"/></g></g><g transform="translate(464 306)"><rect width="442" height="284.004" rx="4.546" class="P"/><g class="F I B"><circle cx="14.5" cy="11.5" r="5.5"/><circle cx="29.5" cy="11.5" r="5.5"/><circle cx="44.5" cy="11.5" r="5.5"/></g><g transform="translate(0 22)"><mask id="V" class="C"><use xlink:href="#H" href="#B"/></mask><use xlink:href="#H" class="C" href="#B"/><g class="D"><mask id="W" class="C"><use xlink:href="#E"/></mask><use xlink:href="#E" class="b"/><g mask="url(#W)" class="Q"><g transform="translate(-550 -4)"><g transform="translate(517)"><use xlink:href="#I" class="U"/><use xlink:href="#J" class="H"/><use xlink:href="#K" class="K"/><ellipse cx="128.472" cy="148.38" rx="128.413" ry="129.38" class="Y"/></g><use xlink:href="#L" class="T"/><use xlink:href="#M" class="H"/><path d="M265 270v259H0l.025-3.046C2.353 385.63 118.31 272.3 261.886 270.025L265 270z" class="L"/></g></g><g class="C"><circle cx="96.5" cy="11.5" r="6.5"/><rect x="118" y="8" width="46" height="7" rx="3.5"/></g><rect fill="#aaa" x="71" y="209" width="46" height="7" rx="3.5"/><rect x="179" y="8" width="46" height="7" rx="3.5" class="C"/><g class="M"><rect x="71" y="227" width="148" height="7" rx="3.5"/><rect x="71" y="236" width="148" height="7" rx="3.5"/></g><rect x="240" y="8" width="46" height="7" rx="3.5" class="C"/><g class="M"><rect x="230" y="227" width="148" height="7" rx="3.5"/><rect x="230" y="236" width="148" height="7" rx="3.5"/><rect x="71" y="245" width="148" height="7" rx="3.5"/><rect x="230" y="245" width="148" height="7" rx="3.5"/><rect x="71" y="254" width="148" height="7" rx="3.5"/><rect x="230" y="254" width="148" height="7" rx="3.5"/><rect x="71" y="263" width="148" height="7" rx="3.5"/><rect x="230" y="263" width="148" height="7" rx="3.5"/></g><g class="C"><rect x="301" y="8" width="46" height="7" rx="3.5"/><rect x="198" y="131" width="41" height="15" rx="3.5"/><g class="N"><g transform="translate(54 51)"><use xlink:href="#N"/><use xlink:href="#O"/></g></g></g></g></g><g transform="translate(422 6)" class="F I S B"><path d="M0 .5h10"/><path d="M0 5.5h10"/><path d="M0 10.5h10"/></g></g><g transform="translate(0 612)"><rect width="442" height="284.004" rx="4.546" class="P"/><g class="F I B"><circle cx="14.5" cy="11.5" r="5.5"/><circle cx="29.5" cy="11.5" r="5.5"/><circle cx="44.5" cy="11.5" r="5.5"/></g><g transform="translate(0 22)"><mask id="X" class="C"><use xlink:href="#K" href="#B"/></mask><use xlink:href="#K" class="C" href="#B"/><g class="E"><mask id="Y" class="C"><use xlink:href="#F"/></mask><use xlink:href="#F" class="c"/><g mask="url(#Y)" class="Q"><g transform="translate(-559 -297)"><g transform="translate(517)"><use xlink:href="#I" class="U"/><use xlink:href="#J" class="H"/><use xlink:href="#K" class="K"/><ellipse fill="#b33f62" cx="128.472" cy="148.38" rx="128.413" ry="129.38"/></g><use xlink:href="#L" class="T"/><use xlink:href="#M" class="H"/></g></g><circle fill="#000" cx="96.5" cy="11.5" r="6.5"/><rect x="118" y="8" width="46" height="7" rx="3.5" class="C"/><rect fill="#aaa" x="71" y="225" width="46" height="7" rx="3.5"/><rect x="179" y="8" width="46" height="7" rx="3.5" class="C"/><g class="M"><rect x="71" y="243" width="148" height="7" rx="3.5"/><rect x="71" y="252" width="148" height="7" rx="3.5"/></g><rect x="240" y="8" width="46" height="7" rx="3.5" class="C"/><g class="M"><rect x="230" y="243" width="148" height="7" rx="3.5"/><rect x="230" y="252" width="148" height="7" rx="3.5"/><rect x="71" y="261" width="148" height="7" rx="3.5"/><rect x="230" y="261" width="148" height="7" rx="3.5"/><rect x="71" y="270" width="148" height="7" rx="3.5"/><rect x="230" y="270" width="148" height="7" rx="3.5"/><rect x="71" y="263" width="148" height="7" rx="3.5"/><rect x="230" y="263" width="148" height="7" rx="3.5"/></g><g class="C"><rect x="301" y="8" width="46" height="7" rx="3.5"/><g class="N"><g transform="translate(54 42)"><use xlink:href="#N"/><use xlink:href="#O"/></g></g></g></g></g><g transform="translate(132 148)"><rect width="85" height="77" rx="6" class="C F Z a"/><g transform="translate(24 11)" fill="#000" class="N"><use xlink:href="#P"/><path d="M18 54v-2.576H3.68v-.1c0-.723.168-1.454.504-2.192s.788-1.492 1.358-2.26a26.87 26.87 0 0 1 1.927-2.305l2.212-2.282 2.672-2.712c.876-.904 1.657-1.838 2.343-2.802a14.04 14.04 0 0 0 1.642-3.006c.41-1.04.613-2.147.613-3.322 0-2.652-.745-4.723-2.234-6.215S11.007 22 8.058 22c-1.11 0-2.117.143-3.022.43s-1.7.625-2.387 1.017-1.255.79-1.708 1.198L0 25.57l1.49 2.034a14.87 14.87 0 0 1 .832-.768 9.05 9.05 0 0 1 1.38-.972c.54-.316 1.175-.595 1.905-.836s1.562-.362 2.496-.362c1.664 0 3.044.46 4.14 1.38s1.642 2.433 1.642 4.542c0 .964-.146 1.853-.438 2.667a10.07 10.07 0 0 1-1.182 2.305c-.496.723-1.073 1.424-1.73 2.102l-2.08 2.102-2.737 2.712c-.95.934-1.8 1.944-2.584 3.028s-1.41 2.237-1.905 3.458-.745 2.54-.745 3.955l.022.746.022.34H18zm20 0V23h-2.057c-1.37 1.67-2.757 3-4.16 3.96S28.79 28.726 27 29.352h0l.85 2.237c.715-.21 1.43-.485 2.146-.828l2.057-1.074c.656-.373 1.245-.753 1.766-1.14s.946-.76 1.274-1.118h0V54H38z"/></g><g transform="translate(92)"><rect width="85" height="77" rx="6" class="C F Z a"/><g class="M"><rect x="7" y="14" width="70" height="7" rx="3.5"/><rect x="7" y="23" width="70" height="7" rx="3.5"/><rect x="7" y="32" width="70" height="7" rx="3.5"/></g><rect fill="#000" x="7" y="54" width="70" height="12" rx="2"/></g></g><g transform="translate(422 6)" class="F I S B"><path d="M0 .5h10"/><path d="M0 5.5h10"/><path d="M0 10.5h10"/></g></g><g transform="translate(464)"><rect width="442" height="284.004" rx="4.546" class="P"/><g class="F I B"><circle cx="14.5" cy="11.5" r="5.5"/><circle cx="29.5" cy="11.5" r="5.5"/><circle cx="44.5" cy="11.5" r="5.5"/></g><g transform="translate(0 22)"><mask id="Z" class="C"><use xlink:href="#N" href="#B"/></mask><use xlink:href="#N" class="C" href="#B"/><g class="N V"><path d="M56.892 112v-5.896H43.384V81.508H36.52V112h20.372zm14.256.616c1.73 0 3.293-.293 4.686-.88s2.59-1.415 3.586-2.486 1.76-2.36 2.288-3.872.792-3.175.792-4.994-.28-3.476-.836-4.972-1.335-2.772-2.332-3.828a10.44 10.44 0 0 0-3.586-2.464c-1.393-.587-2.926-.88-4.598-.88-1.643 0-3.16.293-4.554.88a10.67 10.67 0 0 0-3.608 2.464c-1.012 1.056-1.804 2.332-2.376 3.828s-.858 3.153-.858 4.972.28 3.483.836 4.994 1.335 2.8 2.332 3.872 2.193 1.9 3.586 2.486 2.94.88 4.642.88zm0-5.632c-1.496 0-2.655-.594-3.476-1.782s-1.232-2.794-1.232-4.818.41-3.615 1.232-4.774 1.98-1.738 3.476-1.738 2.647.58 3.454 1.738 1.2 2.75 1.2 4.774-.403 3.63-1.2 4.818-1.958 1.782-3.454 1.782zm26.708 5.632c1.73 0 3.293-.293 4.686-.88s2.59-1.415 3.586-2.486 1.76-2.36 2.288-3.872.792-3.175.792-4.994-.28-3.476-.836-4.972-1.335-2.772-2.332-3.828a10.44 10.44 0 0 0-3.586-2.464c-1.393-.587-2.926-.88-4.598-.88-1.643 0-3.16.293-4.554.88a10.67 10.67 0 0 0-3.608 2.464c-1.012 1.056-1.804 2.332-2.376 3.828s-.858 3.153-.858 4.972.28 3.483.836 4.994 1.335 2.8 2.332 3.872 2.193 1.9 3.586 2.486 2.94.88 4.642.88zm0-5.632c-1.496 0-2.655-.594-3.476-1.782s-1.232-2.794-1.232-4.818.41-3.615 1.232-4.774 1.98-1.738 3.476-1.738 2.647.58 3.454 1.738 1.2 2.75 1.2 4.774-.403 3.63-1.2 4.818-1.958 1.782-3.454 1.782zM120.824 112v-10.12c.733.587 1.474 1.305 2.222 2.156l2.134 2.662 1.914 2.772L128.7 112h7.524l-1.848-3.212-2.42-3.52-2.728-3.4c-.94-1.1-1.848-2.046-2.728-2.838l4.862-5.038 4.554-5.126h-7.788l-1.474 1.76-1.826 2.134-2.002 2.266-2.002 2.2v-19.36l-6.556 1.056V112h6.556zM143 86.04c1.056 0 1.973-.345 2.75-1.034s1.166-1.635 1.166-2.838-.39-2.15-1.166-2.838-1.694-1.034-2.75-1.034-1.973.345-2.75 1.034-1.166 1.635-1.166 2.838.39 2.15 1.166 2.838 1.694 1.034 2.75 1.034zm3.3 25.96V88.856h-6.556V112h6.556zm12.716 0V94.136l1.408-.154 1.496-.066c1.525 0 2.567.44 3.124 1.32s.836 2.376.836 4.488h0V112h6.556V98.932c0-1.584-.16-3.02-.484-4.312s-.865-2.405-1.628-3.344-1.797-1.665-3.102-2.178-2.94-.77-4.906-.77c-1.936 0-3.784.14-5.544.418l-4.312.902V112h6.556zm27.544 8.272c4.02 0 6.99-.917 8.9-2.75s2.882-4.642 2.882-8.426h0V89.648l-2.002-.506-2.354-.418-2.486-.286-2.442-.1c-1.848 0-3.505.27-4.972.814s-2.706 1.313-3.718 2.3-1.782 2.193-2.3 3.586-.792 2.94-.792 4.642c0 3.403.85 6.05 2.552 7.942s4.15 2.838 7.348 2.838c.88 0 1.694-.08 2.442-.242s1.474-.403 2.178-.726h0v.836c0 1.29-.39 2.347-1.166 3.168s-2.105 1.232-3.982 1.232c-1.437 0-2.72-.117-3.85-.352s-2.207-.557-3.234-.968h0l-1.144 5.5c1.203.41 2.508.74 3.916 1a24.18 24.18 0 0 0 4.224.374zm1.848-15.092c-2.963 0-4.444-1.833-4.444-5.5 0-1.76.425-3.212 1.276-4.356s2.14-1.716 3.872-1.716l1.54.066 1.144.154V104.3c-.41.235-.91.44-1.496.616s-1.217.264-1.892.264zM39.336 121.04c1.056 0 1.973-.345 2.75-1.034s1.166-1.635 1.166-2.838-.39-2.15-1.166-2.838-1.694-1.034-2.75-1.034-1.973.345-2.75 1.034-1.166 1.635-1.166 2.838.39 2.15 1.166 2.838 1.694 1.034 2.75 1.034zm3.3 25.96v-23.144H36.08V147h6.556zm12.716 0v-17.864l1.408-.154 1.496-.066c1.525 0 2.567.44 3.124 1.32s.836 2.376.836 4.488h0V147h6.556v-13.068c0-1.584-.16-3.02-.484-4.312s-.865-2.405-1.628-3.344-1.797-1.665-3.102-2.178-2.94-.77-4.906-.77c-1.936 0-3.784.14-5.544.418l-4.312.902V147h6.556zm28.292.528c1.408 0 2.596-.117 3.564-.352s1.848-.513 2.64-.836h0l-.924-5.104c-.616.235-1.298.418-2.046.55s-1.474.198-2.178.198c-1.467 0-2.442-.41-2.926-1.232s-.726-1.92-.726-3.3h0v-8.14h7.876v-5.456h-7.876v-6.82l-6.556 1.056v19.448c0 1.496.14 2.86.418 4.092s.77 2.28 1.474 3.146 1.643 1.54 2.816 2.024 2.655.726 4.444.726zm20.02.088c1.73 0 3.293-.293 4.686-.88s2.59-1.415 3.586-2.486 1.76-2.36 2.288-3.872.792-3.175.792-4.994-.28-3.476-.836-4.972-1.335-2.772-2.332-3.828a10.44 10.44 0 0 0-3.586-2.464c-1.393-.587-2.926-.88-4.598-.88-1.643 0-3.16.293-4.554.88a10.67 10.67 0 0 0-3.608 2.464c-1.012 1.056-1.804 2.332-2.376 3.828s-.858 3.153-.858 4.972.28 3.483.836 4.994 1.335 2.8 2.332 3.872 2.193 1.9 3.586 2.486 2.94.88 4.642.88zm0-5.632c-1.496 0-2.655-.594-3.476-1.782s-1.232-2.794-1.232-4.818.41-3.615 1.232-4.774 1.98-1.738 3.476-1.738 2.647.58 3.454 1.738 1.2 2.75 1.2 4.774-.403 3.63-1.2 4.818-1.958 1.782-3.454 1.782zm35.904 5.544c1.408 0 2.596-.117 3.564-.352s1.848-.513 2.64-.836h0l-.924-5.104c-.616.235-1.298.418-2.046.55s-1.474.198-2.178.198c-1.467 0-2.442-.41-2.926-1.232s-.726-1.92-.726-3.3h0v-8.14h7.876v-5.456h-7.876v-6.82l-6.556 1.056v19.448c0 1.496.14 2.86.418 4.092s.77 2.28 1.474 3.146 1.643 1.54 2.816 2.024 2.655.726 4.444.726zm17.16-.528v-17.6l1.386-.33a8.41 8.41 0 0 1 1.65-.154c1.467 0 2.47.44 3.014 1.32s.814 2.376.814 4.488h0V147h6.556v-13.068c0-1.584-.154-3.02-.462-4.312s-.836-2.405-1.584-3.344-1.745-1.665-2.992-2.178-2.81-.77-4.686-.77a10.64 10.64 0 0 0-2.002.198c-.69.132-1.254.27-1.694.418h0v-11.088l-6.556 1.056V147h6.556zm30.492.616c.82 0 1.643-.044 2.464-.132l2.3-.33c.72-.132 1.37-.286 1.958-.462s1.056-.352 1.408-.528h0l-.88-5.324c-.733.323-1.68.594-2.838.814s-2.34.33-3.542.33c-1.877 0-3.373-.396-4.488-1.188s-1.745-1.863-1.892-3.212h14.872l.088-1.2.044-1.254c0-3.9-.953-6.857-2.86-8.866s-4.503-3.014-7.788-3.014a11.09 11.09 0 0 0-4.114.792 10.34 10.34 0 0 0-3.542 2.332c-1.027 1.027-1.855 2.3-2.486 3.85s-.946 3.337-.946 5.4c0 1.7.242 3.285.726 4.752s1.232 2.735 2.244 3.806 2.288 1.914 3.828 2.53 3.35.924 5.434.924zm3.168-14.52h-8.668c.088-.557.227-1.107.418-1.65a4.43 4.43 0 0 1 .814-1.43 3.91 3.91 0 0 1 1.32-.99c.528-.25 1.16-.374 1.892-.374.763 0 1.4.132 1.914.396s.94.6 1.276 1.012.587.88.748 1.408.257 1.07.286 1.628h0zM43.384 182v-12.584H55.44v-5.764H43.384v-6.38h13.552v-5.764H36.52V182h6.864zm26.972.528c1.936 0 3.784-.14 5.544-.418l4.312-.902v-22.352h-6.556v17.864l-1.408.154-1.496.066c-1.525 0-2.567-.47-3.124-1.408s-.836-2.464-.836-4.576h0v-12.1h-6.556v12.892c0 1.584.16 3.036.484 4.356s.865 2.457 1.628 3.4 1.797 1.694 3.102 2.222 2.94.792 4.906.792zm24.948 0c1.408 0 2.596-.117 3.564-.352s1.848-.513 2.64-.836h0l-.924-5.104c-.616.235-1.298.418-2.046.55s-1.474.198-2.178.198c-1.467 0-2.442-.41-2.926-1.232s-.726-1.92-.726-3.3h0v-8.14h7.876v-5.456h-7.876v-6.82l-6.556 1.056v19.448c0 1.496.14 2.86.418 4.092s.77 2.28 1.474 3.146 1.643 1.54 2.816 2.024 2.655.726 4.444.726zm20.504 0c1.936 0 3.784-.14 5.544-.418l4.312-.902v-22.352h-6.556v17.864l-1.408.154-1.496.066c-1.525 0-2.567-.47-3.124-1.408s-.836-2.464-.836-4.576h0v-12.1h-6.556v12.892c0 1.584.16 3.036.484 4.356s.865 2.457 1.628 3.4 1.797 1.694 3.102 2.222 2.94.792 4.906.792zM138.38 182v-17.688c.293-.088.726-.17 1.298-.242s1.063-.1 1.474-.1a12.78 12.78 0 0 1 2.552.242l2.068.462 1.1-5.412c-.352-.147-.777-.27-1.276-.374l-1.496-.264-1.496-.176-1.276-.066c-1.965 0-3.747.183-5.346.55l-4.158 1.166V182h6.556zm22.704.616c.82 0 1.643-.044 2.464-.132l2.3-.33c.72-.132 1.37-.286 1.958-.462s1.056-.352 1.408-.528h0l-.88-5.324c-.733.323-1.68.594-2.838.814s-2.34.33-3.542.33c-1.877 0-3.373-.396-4.488-1.188s-1.745-1.863-1.892-3.212h14.872l.088-1.2.044-1.254c0-3.9-.953-6.857-2.86-8.866s-4.503-3.014-7.788-3.014a11.09 11.09 0 0 0-4.114.792 10.34 10.34 0 0 0-3.542 2.332c-1.027 1.027-1.855 2.3-2.486 3.85s-.946 3.337-.946 5.4c0 1.7.242 3.285.726 4.752s1.232 2.735 2.244 3.806 2.288 1.914 3.828 2.53 3.35.924 5.434.924zm3.168-14.52h-8.668c.088-.557.227-1.107.418-1.65a4.43 4.43 0 0 1 .814-1.43 3.91 3.91 0 0 1 1.32-.99c.528-.25 1.16-.374 1.892-.374.763 0 1.4.132 1.914.396s.94.6 1.276 1.012.587.88.748 1.408.257 1.07.286 1.628h0z" fill="#000"/><g class="L"><path d="M51.72 69v-2.223H38.967V66.7c0-.624.15-1.254.45-1.89s.702-1.287 1.21-1.95 1.08-1.326 1.716-1.99l1.97-1.97 2.38-2.34c.78-.78 1.475-1.586 2.087-2.418s1.1-1.697 1.462-2.593a7.55 7.55 0 0 0 .546-2.867c0-2.288-.663-4.075-1.99-5.362s-3.302-1.93-5.928-1.93c-.988 0-1.885.123-2.69.37s-1.515.54-2.126.878-1.118.682-1.52 1.033l-.838.8 1.326 1.755a13.09 13.09 0 0 1 .741-.663c.338-.286.747-.566 1.228-.84s1.047-.513 1.697-.72 1.39-.312 2.223-.312c1.482 0 2.71.397 3.686 1.2s1.462 2.1 1.462 3.92c0 .832-.13 1.6-.4 2.3a8.59 8.59 0 0 1-1.053 1.989 14.08 14.08 0 0 1-1.54 1.813l-1.852 1.814-2.437 2.34c-.845.806-1.612 1.677-2.3 2.613s-1.255 1.93-1.697 2.983-.663 2.19-.663 3.412l.02.644.02.293h15.56zm14.274.585c2.756 0 4.894-1.21 6.415-3.627s2.282-5.902 2.282-10.452c0-4.576-.76-8.073-2.282-10.49s-3.66-3.627-6.415-3.627c-2.782 0-4.927 1.21-6.435 3.627s-2.262 5.915-2.262 10.49c0 4.55.76 8.034 2.282 10.452s3.66 3.627 6.416 3.627zm0-2.3c-1.144 0-2.093-.325-2.847-.975s-1.358-1.514-1.813-2.593-.78-2.327-.975-3.744-.292-2.905-.292-4.465.097-3.048.292-4.465.52-2.672.975-3.764 1.06-1.963 1.813-2.613 1.703-.975 2.847-.975c1.118 0 2.054.325 2.808.975s1.365 1.52 1.833 2.613.8 2.346.994 3.764.293 2.905.293 4.465-.097 3.048-.293 4.465-.526 2.665-.994 3.744-1.08 1.944-1.833 2.593-1.7.975-2.808.975zM95.712 69v-2.223H82.96V66.7c0-.624.15-1.254.448-1.89s.702-1.287 1.21-1.95 1.08-1.326 1.716-1.99 1.294-1.32 1.97-1.97l2.38-2.34c.78-.78 1.475-1.586 2.087-2.418s1.1-1.697 1.463-2.593a7.55 7.55 0 0 0 .546-2.867c0-2.288-.663-4.075-1.99-5.362s-3.302-1.93-5.928-1.93c-.988 0-1.885.123-2.69.37s-1.515.54-2.126.878-1.118.682-1.52 1.033-.683.617-.838.8h0l1.326 1.755a13.09 13.09 0 0 1 .741-.663c.338-.286.748-.566 1.228-.84s1.047-.513 1.697-.72 1.39-.312 2.223-.312c1.482 0 2.71.397 3.686 1.2s1.463 2.1 1.463 3.92c0 .832-.13 1.6-.4 2.3a8.59 8.59 0 0 1-1.053 1.989 14.08 14.08 0 0 1-1.54 1.813L87.2 56.715l-2.437 2.34c-.845.806-1.612 1.677-2.3 2.613s-1.255 1.93-1.697 2.983-.663 2.19-.663 3.412c0 .286.007.5.02.644s.02.24.02.293h15.56zm17.043 0V41.973h-1.794c-1.196 1.456-2.405 2.607-3.627 3.452s-2.613 1.54-4.173 2.087h0l.74 1.95c.624-.182 1.248-.422 1.872-.72a28.98 28.98 0 0 0 1.794-.936 15.06 15.06 0 0 0 1.541-.995c.455-.338.825-.663 1.11-.975h0V69h2.535z"/></g></g><rect x="189" y="212" width="63" height="14" rx="2" class="L V"/><g class="Q V"><g transform="translate(225 37)"><g transform="translate(95)"><path d="M95.945 47.896V.054H48.277l.005.563C48.7 26.537 69.56 47.47 95.386 47.89l.56.005z" class="X"/><path d="M95.945 48.99V96.83H48.277l.005-.563c.42-25.92 21.277-46.854 47.104-47.275l.56-.005z" class="H"/><path d="M48.277 96.83V48.99H.61l.005.563c.42 25.92 21.277 46.854 47.104 47.275l.56.005z" class="K"/><ellipse cx="24.443" cy="23.975" rx="23.834" ry="23.921" class="R"/><ellipse cx="24.443" cy="120.921" rx="23.834" ry="23.921" class="L"/></g><path d="M49 145V97H0l.005.564c.43 26.006 21.87 47.01 48.42 47.43L49 145z" class="R"/><path d="M49 0v48H0l.005-.564C.435 21.43 21.876.426 48.424.005L49 0z" class="T"/><path d="M49 48V0h49l-.005.564c-.43 26.006-21.87 47.01-48.42 47.43L49 48z" class="H"/><path d="M49 49v48H0l.005-.564c.43-26.006 21.87-47.01 48.42-47.43L49 49z" class="L"/><ellipse fill="#ff7800" transform="matrix(1 0 0 -1 0 242)" cx="72.5" cy="121" rx="23.5" ry="24"/></g></g><use xlink:href="#Q" class="K V"/></g><g transform="translate(422 6)" class="F I S B"><path d="M0 .5h10"/><path d="M0 5.5h10"/><path d="M0 10.5h10"/></g></g><g transform="translate(464 612)"><rect width="442" height="284.004" rx="4.546" class="P"/><g class="F I B"><circle cx="14.5" cy="11.5" r="5.5"/><circle cx="29.5" cy="11.5" r="5.5"/><circle cx="44.5" cy="11.5" r="5.5"/></g><g transform="translate(0 22)"><mask id="a" class="C"><use xlink:href="#P" href="#B"/></mask><use xlink:href="#P" class="M" href="#B"/><rect x="157" y="42" width="238" height="271" rx="6" class="C F G Z a"/><g class="G"><g transform="translate(190 183)"><mask id="b" class="C"><use xlink:href="#G"/></mask><use xlink:href="#G" class="M"/><g mask="url(#b)"><g transform="translate(-13)"><g transform="translate(114)"><path d="M117 59V0H58l.006.694c.518 31.966 26.335 57.782 58.3 58.3L117 59z" class="X"/><path d="M117 60v59H58l.006-.694c.518-31.966 26.335-57.782 58.3-58.3L117 60z" class="H"/><path d="M58 119V60H0l.006.694c.5 31.966 25.89 57.782 57.313 58.3L58 119z" class="K"/><ellipse cx="29" cy="29.5" rx="29" ry="29.5" class="R"/></g><path d="M59 0v60H0l.006-.706C.524 26.787 26.34.533 58.307.006L59 0z" class="T"/><path d="M59 60V0h59l-.006.706c-.518 32.508-26.335 58.762-58.3 59.29L59 60z" class="H"/><path d="M59 59v60H0l.006-.706c.518-32.508 26.335-58.762 58.3-59.29L59 59z" class="L"/></g></g></g><rect x="189" y="61" width="64" height="7" rx="3.5" class="Y"/><rect x="189" y="107" width="186" height="7" rx="3.5" class="M"/><rect x="189" y="164" width="55" height="7" rx="3.5" class="Y"/><g class="M"><rect x="189" y="80" width="186" height="7" rx="3.5"/><rect x="189" y="116" width="186" height="7" rx="3.5"/><rect x="189" y="89" width="186" height="7" rx="3.5"/><rect x="189" y="125" width="186" height="7" rx="3.5"/><rect x="189" y="249" width="186" height="7" rx="3.5"/><rect x="189" y="98" width="186" height="7" rx="3.5"/><rect x="189" y="134" width="186" height="7" rx="3.5"/><rect x="189" y="258" width="186" height="7" rx="3.5"/></g><g transform="translate(40 24)"><rect width="132" height="209" rx="6" class="C F Z a"/><g transform="translate(15 99)" class="N"><path d="M10.675 34.622v-2.87H3.96V19.778H.547v14.844h10.128zm7.087.3c.86 0 1.637-.143 2.33-.428s1.287-.69 1.783-1.2a5.26 5.26 0 0 0 1.137-1.885c.262-.735.394-1.546.394-2.43s-.14-1.692-.416-2.42-.664-1.35-1.16-1.864-1.1-.914-1.783-1.2-1.455-.428-2.286-.428c-.817 0-1.57.143-2.264.428a5.31 5.31 0 0 0-1.794 1.2c-.503.514-.897 1.135-1.18 1.864s-.427 1.535-.427 2.42.14 1.696.416 2.43.664 1.364 1.16 1.885 1.1.925 1.783 1.2 1.462.428 2.308.428zm0-2.742c-.744 0-1.32-.29-1.728-.868s-.612-1.36-.612-2.346.204-1.76.612-2.324.984-.846 1.728-.846 1.316.282 1.717.846.602 1.34.602 2.324-.2 1.767-.602 2.346-.973.868-1.717.868zm13.278 2.742c.86 0 1.637-.143 2.33-.428s1.287-.69 1.783-1.2a5.26 5.26 0 0 0 1.137-1.885c.262-.735.394-1.546.394-2.43s-.14-1.692-.416-2.42-.664-1.35-1.16-1.864-1.1-.914-1.783-1.2-1.455-.428-2.286-.428c-.817 0-1.57.143-2.264.428a5.31 5.31 0 0 0-1.794 1.2c-.503.514-.897 1.135-1.18 1.864s-.427 1.535-.427 2.42.14 1.696.416 2.43.664 1.364 1.16 1.885 1.1.925 1.783 1.2 1.462.428 2.308.428zm0-2.742c-.744 0-1.32-.29-1.728-.868s-.612-1.36-.612-2.346.204-1.76.612-2.324.984-.846 1.728-.846 1.316.282 1.717.846.602 1.34.602 2.324-.2 1.767-.602 2.346-.973.868-1.717.868zm11.418 2.442v-4.927c.365.286.733.635 1.105 1.05l1.06 1.296.952 1.35.798 1.232h3.74l-.92-1.564-1.203-1.714-1.356-1.66c-.467-.536-.92-.996-1.356-1.382l2.417-2.453 2.264-2.495H46.09l-.733.857-.908 1.04-.995 1.103-.995 1.07V18l-3.26.514v16.108h3.26zm11.025-12.638c.525 0 .98-.168 1.367-.503s.58-.796.58-1.382-.193-1.046-.58-1.382-.842-.503-1.367-.503-.98.168-1.367.503-.58.796-.58 1.382.193 1.046.58 1.382.842.503 1.367.503zm1.64 12.638V23.355h-3.26v11.267h3.26zm6.322 0v-8.697l.7-.075.744-.032c.758 0 1.276.214 1.553.643s.416 1.157.416 2.185h0v5.976h3.26V28.26a8.49 8.49 0 0 0-.241-2.099c-.16-.628-.43-1.17-.81-1.628s-.893-.8-1.542-1.06-1.462-.375-2.44-.375a17.98 17.98 0 0 0-2.756.203l-2.144.44v10.882h3.26zm13.693 4.027c1.998 0 3.474-.446 4.43-1.34S81 35.05 81 33.208h0V23.74l-.995-.246-1.17-.203-1.236-.14-1.214-.054c-.92 0-1.743.132-2.472.396s-1.345.64-1.848 1.125-.886 1.067-1.148 1.746-.394 1.432-.394 2.26c0 1.657.423 2.945 1.27 3.866s2.063 1.382 3.653 1.382c.437 0 .842-.04 1.214-.118s.733-.196 1.083-.353h0v.407c0 .628-.193 1.142-.58 1.542s-1.046.6-1.98.6c-.715 0-1.353-.057-1.914-.17s-1.097-.27-1.608-.47h0l-.57 2.678c.598.2 1.247.36 1.947.482a12.27 12.27 0 0 0 2.1.182zm.92-7.347c-1.473 0-2.21-.893-2.21-2.678 0-.857.21-1.564.634-2.12s1.065-.835 1.925-.835l.766.032.57.075v5.098c-.204.114-.452.214-.744.3s-.605.13-.94.13zm-74.1 7.72c.525 0 .98-.168 1.367-.503s.58-.796.58-1.382-.193-1.046-.58-1.382-.842-.503-1.367-.503-.98.168-1.367.503-.58.796-.58 1.382.193 1.046.58 1.382.842.503 1.367.503zm1.64 12.638V40.394H.328V51.66h3.26zm6.322 0v-8.697l.7-.075.744-.032c.758 0 1.276.214 1.553.643s.416 1.157.416 2.185h0v5.976h3.26V45.3a8.49 8.49 0 0 0-.241-2.099c-.16-.628-.43-1.17-.81-1.628s-.893-.8-1.542-1.06-1.462-.375-2.44-.375a17.98 17.98 0 0 0-2.756.203l-2.144.44V51.66h3.26zm14.065.257c.7 0 1.29-.057 1.772-.17s.92-.25 1.312-.407h0l-.46-2.485c-.306.114-.645.203-1.017.268s-.733.096-1.083.096c-.73 0-1.214-.2-1.455-.6s-.36-.935-.36-1.607h0V43.05H26.6v-2.656h-3.915v-3.32l-3.26.514v9.468c0 .728.07 1.392.208 1.992s.383 1.1.733 1.532.817.75 1.4.985 1.32.353 2.21.353zm9.953.043c.86 0 1.637-.143 2.33-.428s1.287-.69 1.783-1.2a5.26 5.26 0 0 0 1.137-1.885c.262-.735.394-1.546.394-2.43s-.14-1.692-.416-2.42-.664-1.35-1.16-1.864-1.1-.914-1.783-1.2-1.455-.428-2.286-.428c-.817 0-1.57.143-2.264.428a5.31 5.31 0 0 0-1.794 1.2c-.503.514-.897 1.135-1.18 1.864s-.427 1.535-.427 2.42.14 1.696.416 2.43.664 1.364 1.16 1.885 1.1.925 1.783 1.2 1.462.428 2.308.428zm0-2.742c-.744 0-1.32-.29-1.728-.868s-.612-1.36-.612-2.346.204-1.76.612-2.324.984-.846 1.728-.846 1.316.282 1.717.846.602 1.34.602 2.324-.2 1.767-.602 2.346-.973.868-1.717.868zm17.85 2.7c.7 0 1.29-.057 1.772-.17s.92-.25 1.312-.407h0l-.46-2.485c-.306.114-.645.203-1.017.268s-.733.096-1.083.096c-.73 0-1.214-.2-1.455-.6s-.36-.935-.36-1.607h0V43.05H54.4v-2.656h-3.915v-3.32l-3.26.514v9.468c0 .728.07 1.392.208 1.992s.383 1.1.733 1.532.817.75 1.4.985 1.32.353 2.21.353zm8.53-.257v-8.568l.69-.16c.255-.05.53-.075.82-.075.73 0 1.23.214 1.498.643s.405 1.157.405 2.185h0v5.976h3.26V45.3c0-.77-.077-1.47-.23-2.1s-.416-1.17-.787-1.628-.868-.8-1.487-1.06-1.396-.375-2.33-.375c-.32 0-.653.032-.995.096s-.623.132-.842.203h0V35.04l-3.26.514V51.66h3.26zm15.16.3a11.73 11.73 0 0 0 1.225-.064l1.148-.16.973-.225a4.56 4.56 0 0 0 .7-.257h0l-.437-2.592c-.365.157-.835.29-1.41.396a9.61 9.61 0 0 1-1.761.161c-.933 0-1.677-.193-2.23-.578a2.11 2.11 0 0 1-.941-1.564h7.393l.044-.59.022-.6c0-1.9-.474-3.338-1.422-4.316s-2.238-1.467-3.872-1.467c-.7 0-1.382.13-2.045.386a5.15 5.15 0 0 0-1.761 1.135c-.5.5-.922 1.125-1.236 1.874s-.47 1.624-.47 2.624a7.2 7.2 0 0 0 .361 2.313c.24.714.612 1.332 1.116 1.853s1.137.932 1.903 1.232 1.666.45 2.7.45zm1.575-7.07h-4.31a4.49 4.49 0 0 1 .208-.803c.095-.264.23-.496.405-.696a1.94 1.94 0 0 1 .656-.482c.262-.12.576-.182.94-.182.38 0 .696.064.952.193s.467.293.634.493.292.428.372.685.128.52.142.793h0zM3.96 68.7v-6.126h5.994v-2.806H3.96v-3.106h6.737v-2.806H.547V68.7H3.96zm13.41.257a17.98 17.98 0 0 0 2.756-.203l2.144-.44V57.433h-3.26v8.697l-.7.075-.744.032c-.758 0-1.276-.228-1.553-.685s-.416-1.2-.416-2.228h0v-5.89h-3.26v6.276c0 .77.08 1.478.24 2.12s.43 1.196.81 1.66.893.825 1.542 1.082 1.462.386 2.44.386zm12.403 0c.7 0 1.29-.057 1.772-.17s.92-.25 1.312-.407h0l-.46-2.485c-.306.114-.645.203-1.017.268s-.733.096-1.083.096c-.73 0-1.214-.2-1.455-.6s-.36-.935-.36-1.607h0V60.09h3.915v-2.656H28.48v-3.32l-3.26.514v9.468c0 .728.07 1.392.208 1.992s.383 1.1.733 1.532.817.75 1.4.985 1.32.353 2.21.353zm10.193 0a17.98 17.98 0 0 0 2.756-.203l2.144-.44V57.433h-3.26v8.697l-.7.075-.744.032c-.758 0-1.276-.228-1.553-.685s-.416-1.2-.416-2.228h0v-5.89h-3.26v6.276c0 .77.08 1.478.24 2.12s.43 1.196.81 1.66.893.825 1.542 1.082 1.462.386 2.44.386zm11.22-.257v-8.61c.146-.043.36-.082.645-.118a6.01 6.01 0 0 1 .733-.054c.452 0 .875.04 1.27.118l1.028.225.547-2.635c-.175-.07-.386-.132-.634-.182l-.744-.13-.744-.086-.634-.032c-.977 0-1.863.09-2.658.268l-2.067.568V68.7h3.26zm11.287.3a11.73 11.73 0 0 0 1.225-.064l1.148-.16.973-.225a4.56 4.56 0 0 0 .7-.257h0l-.437-2.592c-.365.157-.835.29-1.41.396a9.61 9.61 0 0 1-1.761.161c-.933 0-1.677-.193-2.23-.578a2.11 2.11 0 0 1-.941-1.564h7.393l.044-.59.022-.6c0-1.9-.474-3.338-1.422-4.316s-2.238-1.467-3.872-1.467c-.7 0-1.382.13-2.045.386a5.15 5.15 0 0 0-1.761 1.135c-.5.5-.922 1.125-1.236 1.874s-.47 1.624-.47 2.624a7.2 7.2 0 0 0 .361 2.313c.24.714.612 1.332 1.116 1.853s1.137.932 1.903 1.232 1.666.45 2.7.45zm1.575-7.07h-4.31a4.49 4.49 0 0 1 .208-.803c.095-.264.23-.496.405-.696a1.94 1.94 0 0 1 .656-.482c.262-.12.576-.182.94-.182.38 0 .696.064.952.193s.467.293.634.493.292.428.372.685.128.52.142.793h0z" fill="#000"/><use xlink:href="#P" class="L"/></g><rect x="15" y="178" width="102" height="12" rx="2" class="L"/><g transform="translate(0 22)"><mask id="c" class="C"><use xlink:href="#H"/></mask><use xlink:href="#H" class="b"/><g mask="url(#c)" class="Q"><g transform="translate(64.671)"><path d="M67.29 33.626V.038H33.86l.003.395c.294 18.198 14.922 32.895 33.036 33.2l.393.003z" class="X"/><path d="M67.29 34.393v33.588H33.86l.003-.395c.294-18.198 14.922-32.895 33.036-33.2l.393-.003z" class="H"/><path d="M33.86 67.982V34.394H.427l.003.395c.294 18.198 14.922 32.895 33.036 33.2l.393.003z" class="K"/><ellipse cx="17.143" cy="16.832" rx="16.716" ry="16.794" class="R"/></g><path d="M33.664 0v34H0l.003-.4C.3 15.18 15.03.302 33.27.003L33.664 0z" class="T"/><path d="M33.664 34V0H67.33l-.003.4C67.03 18.82 52.3 33.698 34.06 33.997l-.396.003z" class="H"/><path d="M33.664 34v34H0l.003-.4C.3 49.18 15.03 34.302 33.27 34.003l.396-.003z" class="L"/></g></g><circle cx="21" cy="12" r="6" class="U"/></g><use xlink:href="#Q" class="K"/></g></g><g transform="translate(422 6)" class="F I S B"><path d="M0 .5h10"/><path d="M0 5.5h10"/><path d="M0 10.5h10"/></g></g></g></svg>