<svg xmlns="http://www.w3.org/2000/svg" xmlns:xlink="http://www.w3.org/1999/xlink" width="1231" height="1025" xmlns:v="https://vecta.io/nano"><style><![CDATA[.B{stroke-linejoin:round}.C{stroke-width:.5}.D{stroke-linecap:round}.E{fill-rule:nonzero}.F{mask:url(#X)}.G{fill:#fff}.H{fill:#0064ff}.I{fill:#001d71}.J{stroke:#212121}.K{fill:#ff9d00}.L{stroke:#001d75}.M{mask:url(#Y)}.N{mask:url(#W)}.O{stroke-width:5.322}.P{mask:url(#V)}.Q{fill:#f7fff7}.R{stroke:#f4f2ee}.S{fill:#fb3640}.T{fill:#005b11}.U{fill:#ff0034}.V{fill:#001d75}.W{fill:#212121}.X{stroke:#0064ff}.Y{stroke:#ffa300}]]></style><defs><filter x="-2.2%" y="-1.4%" width="104.3%" height="102.8%" id="A"><feOffset dy="1" in="SourceAlpha"/><feGaussianBlur stdDeviation="2"/><feColorMatrix values="0 0 0 0 0 0 0 0 0 0.160784314 0 0 0 0 0.349019608 0 0 0 0.1 0" result="C"/><feMerge><feMergeNode in="C"/><feMergeNode in="SourceGraphic"/></feMerge></filter><path id="B" d="M0 0h482.95v747.344H0z"/><filter x="-13.9%" y="-7.5%" width="127.8%" height="115.0%" id="C"><feOffset dy="8" in="SourceAlpha"/><feGaussianBlur stdDeviation="8"/><feColorMatrix values="0 0 0 0 0 0 0 0 0 0.164542109 0 0 0 0 0.362271488 0 0 0 0.1 0" result="C"/><feMerge><feMergeNode in="C"/><feMergeNode in="SourceGraphic"/></feMerge></filter><path d="M16.987 0h267.48c8.83 0 16 7.153 16 15.982l.61 553.85c.01 8.837-7.146 16.008-15.982 16.018H17.598c-8.83 0-16-7.153-16-15.982l-.61-553.85C.977 7.18 8.133.01 16.97 0z" id="D"/><path d="M16.987 0h267.48c8.83 0 16 7.152 16 15.982l.6 542.258c.01 8.837-7.145 16.008-15.982 16.018H17.597c-8.83 0-16-7.152-16-15.982l-.6-542.258C.977 7.18 8.133.01 16.97 0z" id="E"/><filter x="-7.9%" y="-9.6%" width="115.4%" height="119.1%" id="F"><feOffset dy="4" in="SourceAlpha"/><feGaussianBlur stdDeviation="3.5"/><feColorMatrix values="0 0 0 0 0 0 0 0 0 0.164542109 0 0 0 0 0.362271488 0 0 0 0.1 0" result="C"/><feMerge><feMergeNode in="C"/><feMergeNode in="SourceGraphic"/></feMerge></filter><path id="G" d="M0 .9h284.296v223.233H0z"/><path id="H" d="M0 0h284.296v131.028H0z"/><path d="M27.46 596.905h247.144c18.734 0 33.922-15.21 33.922-33.97v-32.353H-6.46v32.353c0 18.76 15.187 33.97 33.922 33.97z" id="I"/><filter x="-4.4%" y="-15.1%" width="108.9%" height="142.2%" id="J"><feOffset dy="4" in="SourceAlpha"/><feGaussianBlur stdDeviation="4"/><feColorMatrix values="0 0 0 0 0 0 0 0 0 0.164542109 0 0 0 0 0.362271488 0 0 0 0.1 0"/></filter><path d="M43.572 1.604c-34.568 74.258-48.567 125.81-42 154.652 54.234 43.018 112.66 58.627 175.276 46.828 33.318-66.58 44.065-109.705 32.242-129.37 28.462 7.43 45.54 4.37 51.232-9.178s-17.077-29.062-68.3-46.543C157.53 9.206 130.6 3.743 111.225 1.604s-41.925-2.14-67.653 0z" id="K"/><path id="L" d="M25.845 33.97L14.498 4.853.483 31.83C.134 32.504 0 33.242 0 33.97h25.845z"/><path id="M" d="M71.074 33.97H96.92c0-.728-.134-1.466-.483-2.14L82.42 4.853 71.074 33.97z"/><path id="N" d="M7.27 38.823h67.843c0-6.97-5.7-12.617-12.72-12.617-1.33 0-2.595.26-3.803.64-3.833-5.46-10.185-9.05-17.398-9.05s-13.564 3.592-17.398 9.05c-1.208-.38-2.472-.64-3.803-.64-7.022 0-12.72 5.648-12.72 12.617"/><path id="O" d="M16.96 15L8.444 6.47l-6.02 6.03 8.517 8.53z"/><path id="P" d="M78.343 12.5l-6.02-6.03L63.805 15l6.02 6.03z"/><path id="Q" d="M65.42 74.25h-51.7V56.78h12.923v8.735h25.845V56.78H65.42v17.47zM39.57 50.22c2.382 0 4.312 1.957 4.312 4.372s-1.93 4.372-4.312 4.372-4.312-1.957-4.312-4.372 1.93-4.372 4.312-4.372h0zm34.464-6.543H5.115c-2.378 0-4.308 1.957-4.308 4.368v34.94c0 2.41 1.93 4.368 4.308 4.368h68.92c2.378 0 4.308-1.957 4.308-4.368v-34.94c0-2.41-1.93-4.368-4.308-4.368h0z"/><path id="R" d="M12.893 0C5.773 0 0 5.78 0 12.912s5.773 12.912 12.893 12.912 12.893-5.78 12.893-12.912S20.014 0 12.893 0z"/><path id="S" d="M6.36 1.54c-.03.498.452.624.586.166.102-.35-.455-.383-.63-.166"/><path id="T" d="M19.754 16.758l.075-1.694.113-1.496.138.264.216.435.254.532.26.55.23.493.158.364h.337l.158-.364.23-.493.26-.55.254-.532.216-.435.138-.264.113 1.496.075 1.694h.382l-.113-1.994-.158-1.823h-.315l-.354.636-.373.75-.36.766-.307.68-.307-.68-.36-.766-.373-.75-.354-.636h-.332l-.158 1.823-.113 1.994h.37zm5.327.06l.346-.014.307-.036.243-.04.16-.036v-1.796c0-.15-.018-.3-.055-.42s-.096-.24-.177-.333a.82.82 0 0 0-.318-.22c-.13-.053-.3-.08-.48-.08s-.342.013-.473.04-.228.053-.3.083h0l.05.314a2.97 2.97 0 0 1 .227-.072c.103-.03.26-.044.47-.044a.79.79 0 0 1 .357.069c.1.046.16.106.2.182a.63.63 0 0 1 .097.253c.015.094.022.2.022.29h0v.176c-.015-.007-.04-.016-.08-.025l-.138-.028-.166-.022-.163-.008a2.2 2.2 0 0 0-.481.05 1.12 1.12 0 0 0-.382.157.75.75 0 0 0-.249.273.83.83 0 0 0-.089.397c0 .162.027.298.08.4a.74.74 0 0 0 .221.275c.094.072.205.124.332.157a1.66 1.66 0 0 0 .418.05zm.06-.32c-.114 0-.217-.01-.307-.03s-.168-.052-.232-.096-.114-.103-.15-.176-.053-.163-.053-.27c0-.12.026-.218.077-.292a.55.55 0 0 1 .199-.174.8.8 0 0 1 .266-.083c.096-.013.188-.02.277-.02a1.72 1.72 0 0 1 .365.03c.09.02.153.04.194.058h0v1.003c-.074.015-.163.027-.268.036a4.29 4.29 0 0 1-.368.014zm1.837 1.294a1.45 1.45 0 0 0 .423-.055c.12-.037.225-.094.315-.17a1.24 1.24 0 0 0 .246-.295 3.17 3.17 0 0 0 .216-.427 13.63 13.63 0 0 0 .492-1.383l.404-1.553h-.36l-.158.678-.155.614-.174.603-.216.644-.3-.672-.263-.667-.213-.63-.155-.57h-.382l.2.73.268.744.315.735.35.7a1.99 1.99 0 0 1-.158.319.83.83 0 0 1-.18.207.6.6 0 0 1-.224.113 1.09 1.09 0 0 1-.279.033c-.074 0-.145-.01-.213-.03s-.1-.036-.124-.047h0l-.072.297a.8.8 0 0 0 .141.05.9.9 0 0 0 .252.033z"/><path id="U" d="M22.514 30.735v-.912h-5.06v-.032c0-.256.06-.514.178-.776s.28-.528.48-.8.428-.544.68-.816l.782-.808.944-.96a8.55 8.55 0 0 0 .828-.992 4.97 4.97 0 0 0 .58-1.064c.144-.368.217-.76.217-1.176 0-.938-.263-1.67-.79-2.2s-1.3-.792-2.353-.792c-.392 0-.748.05-1.068.152s-.6.22-.844.36-.444.28-.604.424l-.333.328.526.72c.062-.064.16-.155.294-.272a3.2 3.2 0 0 1 .488-.344 3.51 3.51 0 0 1 .673-.296c.258-.085.552-.128.882-.128.588 0 1.076.163 1.463.488s.58.86.58 1.607c0 .34-.052.656-.155.944s-.242.56-.418.816a5.73 5.73 0 0 1-.611.744l-.735.744-.967.96a8.1 8.1 0 0 0-.913 1.072c-.273.384-.498.792-.673 1.224s-.263.898-.263 1.4l.008.264.008.12h6.175z"/></defs><g transform="translate(2 3)" fill="none" fill-rule="evenodd"><g transform="translate(244)"><g filter="url(#A)" transform="translate(277.835)"><mask id="V" class="G"><use xlink:href="#B"/></mask><use xlink:href="#B" class="G"/><path fill="#ffa300" d="M27.46 486.906h206.992v161.4H27.46z" class="P"/><g class="P Q"><g transform="translate(82.381 520.876)"><path d="M56.536 0l10.51 24.264L75.92 0z"/><path d="M62.997 38.823h-27.46l13.728 45.294z"/><path d="M64.613 33.97L49.267 0 33.922 33.97z"/><path d="M21 0l8.87 24.264L40.383 0z"/><path d="M43.614 93.822l-17.232-55H1.615z"/><use xlink:href="#L"/><use xlink:href="#M"/><path d="M70.535 38.823l-17.23 55 41.998-55z"/></g></g><path d="M248.76 486.906H455.75v161.4H248.76z" class="P S"/><g class="P Q"><g transform="translate(313.372 524.112)"><use xlink:href="#N"/><path d="M44.42 0H34.73v12.94h9.692z"/><use xlink:href="#O"/><use xlink:href="#P"/><use xlink:href="#Q"/></g></g><g transform="translate(28.579 56.797)"><g transform="translate(.408)"><path d="M238.786 59.73v-13.37c1.726 2.022 3.355 4.172 4.885 6.45l4.267 6.92h3.855V39.32h-4.56v12.046l-2.266-3.313-2.428-3.328-2.398-3.02-2.148-2.386h-3.737v20.41h4.532zm32.165 0V55.87h-9.858v-4.92h8.152v-3.77h-8.152v-4.006h9.182V39.32h-13.772v20.41h14.45zm11.094 0l1.972-5.935 1.883-6.23 1.913 6.23 2 5.935h4.208c1.04-3.16 2.006-6.5 2.9-10.014s1.682-6.98 2.37-10.397h0-4.767l-.633 3.608-.692 3.755c-.235 1.257-.486 2.474-.75 3.652l-.78 3.27c-.314-.923-.638-1.924-.97-3.004l-.986-3.24-.912-3.137-.78-2.724h-3.914l-.72 2.68-.868 3.122-.97 3.24c-.334 1.08-.677 2.1-1.03 3.063a72.64 72.64 0 0 1-.809-3.269l-.78-3.652-.736-3.755-.647-3.608h-4.973a211.71 211.71 0 0 0 2.369 10.397c.893 3.515 1.86 6.853 2.9 10.014h4.208zm25.75.412c2.688 0 4.7-.525 6.033-1.576s2-2.528 2-4.433c0-.982-.128-1.816-.383-2.503s-.643-1.286-1.162-1.797-1.172-.957-1.957-1.34-1.707-.77-2.766-1.163c-.5-.177-.976-.35-1.398-.515a6.6 6.6 0 0 1-1.118-.56c-.324-.206-.574-.437-.75-.692s-.265-.57-.265-.942c0-.628.24-1.095.72-1.4s1.27-.457 2.37-.457c.98 0 1.82.113 2.516.34s1.33.486 1.898.78h0l1.324-3.623c-.647-.353-1.47-.677-2.472-.972s-2.187-.442-3.56-.442c-1.157 0-2.197.142-3.12.427s-1.707.692-2.354 1.222a5.44 5.44 0 0 0-1.501 1.929c-.353.756-.53 1.605-.53 2.548s.167 1.743.5 2.4.765 1.217 1.295 1.68 1.128.844 1.795 1.15 1.334.574 2 .8c1.53.51 2.61.987 3.237 1.428s.942.996.942 1.664c0 .314-.05.6-.147.854s-.275.476-.53.663-.593.334-1.015.442-.956.162-1.604.162c-1.295 0-2.39-.133-3.28-.398s-1.643-.565-2.25-.898h0l-1.295 3.652c.275.157.613.324 1.015.5a11.05 11.05 0 0 0 1.442.501c.56.157 1.202.3 1.928.398a16.7 16.7 0 0 0 2.443.162zm25.2-.412v-3.947h-9.034V39.32h-4.59v20.41h13.625zm17.392 0V55.87h-9.858v-4.92h8.152v-3.77h-8.152v-4.006h9.182V39.32h-13.772v20.41h14.45zm12.36 0V43.236h6.15V39.32h-16.892v3.917h6.15V59.73h4.59zm18.07 0V43.236h6.15V39.32h-16.892v3.917h6.15V59.73h4.59zm23.542 0V55.87h-9.858v-4.92h8.152v-3.77h-8.152v-4.006h9.182V39.32H389.9v20.41h14.45zm7.975 0v-7.45h2.266a19.94 19.94 0 0 1 1.177 1.576c.392.58.8 1.193 1.192 1.84a48.87 48.87 0 0 1 1.177 2.003l1.133 2.032h5.15c-.353-.746-.736-1.507-1.148-2.283a40.46 40.46 0 0 0-1.28-2.238 49.97 49.97 0 0 0-1.339-2.062c-.45-.658-.883-1.242-1.295-1.752 1.236-.51 2.183-1.212 2.84-2.106s.986-2.057.986-3.5c0-2.297-.814-3.99-2.443-5.08s-3.973-1.635-7.033-1.635c-.844 0-1.8.04-2.87.118s-2.104.216-3.105.412h0V59.73h4.59zm1.295-11.104h-1.295V43.09l.75-.06c.265-.02.564-.03.898-.03 1.47 0 2.585.21 3.34.633s1.133 1.134 1.133 2.135c0 1.04-.373 1.777-1.118 2.21s-1.98.648-3.708.648h0z" fill="#000" class="E"/><g opacity=".92"><path d="M321.988 212.068V107.31H214.715l.01 1.232c.942 56.757 47.882 102.594 106.003 103.514l1.26.01z" class="T"/><path d="M107.44 0v104.756H.168l.01-1.232C1.12 46.768 48.06.93 106.18.01l1.26-.01z" class="H"/><path d="M106.93 104.756V0h107.273l-.01 1.232c-.942 56.757-47.882 102.594-106.003 103.514l-1.26.01z" fill="#00173a"/><path d="M107.44 107.31v104.756H.168l.01-1.232C1.12 154.08 48.06 108.242 106.18 107.32l1.26-.01z" class="U"/><ellipse fill="#ff7800" transform="matrix(1 0 0 -1 0 319.37891)" cx="373.326" cy="159.689" rx="51.338" ry="52.378"/></g></g><g fill="#f4f2ee"><rect x=".408" y="338.736" width="400.799" height="13.703" rx="6.852"/><rect x=".408" y="317.488" width="414.491" height="13.703" rx="6.852"/><rect x=".408" y="624.353" width="118.806" height="13.703" rx="6.852"/><rect x="218.831" y="624.353" width="169.839" height="13.703" rx="6.852"/><rect x=".408" y="359.984" width="414.491" height="13.703" rx="6.852"/><rect x=".408" y="380.823" width="138.164" height="13.703" rx="6.852"/><rect x=".408" y="296.241" width="425.693" height="13.703" rx="6.852"/><rect x=".408" y="603.106" width="207.4" height="13.703" rx="6.852"/><rect x="218.762" y="603.106" width="207.4" height="13.703" rx="6.852"/><rect x=".339" y="243.939" width="425.693" height="26.161" rx="13.08"/></g></g><g class="H"><rect x="178.343" y="437.769" width="74.683" height="13.703" rx="6.852"/><rect x="28.509" y="702.397" width="74.683" height="13.703" rx="6.852"/><rect x="247.41" y="702.397" width="74.683" height="13.703" rx="6.852"/></g><g transform="translate(110.352 447.994)"/></g><g transform="translate(0 194.115)"><g filter="url(#C)"><path d="M24.394 0H306.15c12.914 0 23.386 10.462 23.4 23.375l.597 567.9c.014 12.923-10.452 23.41-23.375 23.425h-.025H24.99c-12.914 0-23.386-10.462-23.4-23.375l-.597-567.9C.98 10.5 11.446.014 24.37 0h.025z" fill="#292929"/><path d="M26.482 4.853h275.98c11.038 0 19.99 8.942 20 19.98l.58 564.993c.01 11.046-8.934 20.01-19.98 20.02h-.02-275.98c-11.038 0-19.99-8.942-20-19.98l-.58-564.993c-.01-11.046 8.934-20.01 19.98-20.02h.02z" fill="#000"/><g transform="translate(14.538 14.559)"><use fill="#fafafa" xlink:href="#D"/><mask id="W" class="G"><use xlink:href="#E"/></mask><use fill="#fafafa" xlink:href="#E"/><path d="M-12.923-37.205h329.525V77.646H-12.923z" class="I N"/><rect x="79.151" y="32.353" width="146.994" height="19.412" rx="4" class="H N"/><g class="N"><g transform="translate(9.692 82.499)"><g filter="url(#F)"><mask id="X" class="G"><use xlink:href="#G"/></mask><use xlink:href="#G" class="C G R"/><g class="F"><g transform="translate(0 42.058)"><path d="M133.264 69.558v-4.853h-51.7v4.853c0 13.384 11.594 24.264 25.845 24.264s25.845-10.88 25.845-24.264" fill="#011638"/><path d="M0 0h284.296v131.028H0z" class="S"/><g transform="translate(93.688 21.029)" class="Q"><path d="M56.536 0l10.51 24.264L75.92 0z"/><path d="M62.997 38.823h-27.46l13.728 45.294z"/><path d="M64.613 33.97L49.267 0 33.922 33.97z"/><path d="M21 0l8.87 24.264L40.383 0z"/><path d="M43.614 93.822l-17.232-55H1.615z"/><use xlink:href="#L"/><use xlink:href="#M"/><path d="M70.535 38.823l-17.23 55 41.998-55z"/></g></g><rect x="176.07" y="184.41" width="95.304" height="25.882" rx="3" class="H"/><g transform="translate(12.923 184.41)"><path d="M12.58 0C5.632 0 0 5.64 0 12.597s5.632 12.597 12.58 12.597 12.58-5.64 12.58-12.597S19.526 0 12.58 0z" fill="#06f" class="E"/><g transform="translate(1.309 5.586)"><path d="M9.43 1.786c-2.856 0-5.408.757-7.314 1.96C1.345 4.235.732 4.77.38 5.26c-.213.294-.343.58-.358.88-.026.508.3.925.8 1.028l.043.01c.325.062.804.085 1.92.114l1.012.027 2.438.107.155.01.134.01c1.154.087 2.12.215 2.888.394l.054.013v4.474c.103 1.053 1.236 1.58 3.4 1.58s4.624-.61 7.384-1.832l-.384-3.317.027-.007c.394-.105.727-.253 1-.45.52-.375.8-.916.8-1.552 0-.733-.41-1.285-1.113-1.47l-.027-.007c-.3-.074-.647-.082-1.047-.03l-.046.006-.07-.618-.252-.2C16.902 2.656 13.66 1.786 9.43 1.786z" class="E K"/><g class="B C D L"><path d="M7.467 2.735c1.108.065.934.1 1.725-.683"/><path d="M7.575 3.303c.87-.062.963-.395 1.56-1.13"/><path d="M9.516 2.13c.22.56.595.6 1.18.554"/><path d="M9.516 2.138c.13.98-.1.57.748 1.194"/></g><g stroke="#fff" class="B C"><path d="M8.014.34c1.038-.952 1.57.313 1.46 1.13-.135.985-.936 1.747-1.7 2.287-.01.007-.67.452-.863.28-.466-.414-.28-1.343-.086-1.898A5.16 5.16 0 0 1 8.014.34z"/><g class="D"><path d="M9.387 2.404c.17-.527.286-1.192.755-1.567 1.008-.807 1.98-.54 1.704.848-.152.76-.784 1.657-1.337 2.186-.718.686-1.344-.252-1.237-.935.052-.33.177-.647.266-.97"/></g></g><g class="L B C D"><path d="M12.895 1.735c.236 1.387.368 2.45 1.294 3.545 1.357 1.607 4.37.934 5.63-.446"/><path d="M14.052 1.915c-.25 1.843-.1 3.928 2.23 4.242.16.022 1.235.08 1.632-.058.962-.332 1.002-.533 1.92-1.28"/><path d="M14.477 1.93c.813 1.687 2.982 5.605 5.155 3.056"/><path d="M15.555 2.13c.19 1.036.287 2.085.978 2.934.915 1.124 2.78.894 3.56-.2"/><path d="M16.087 2.318c.522 1.32 1.51 3.533 3.3 2.797"/><path d="M16.727 2.454c.433.686 1.328 2.43 2.22 2.6.348.07.71-.01 1.064-.014"/><path d="M9.106 8.33c.877-.308 1.584.327 2.48.165.434-.078.963-.55 1.28-.79"/></g></g><path d="M9.107 17.328l3.7 2.052 5.806-2.052-.342 4.332-5.464-1.653L8.14 21.66z" class="B C L V"/></g><g transform="translate(32.306 184.41)"><use xlink:href="#R" class="E I"/><g transform="translate(3.559 8.063)"><g transform="translate(0 .003)"><path d="M12.45 8.687c1.528 0 3.405-.096 5.63-.29l.578-2.84h-2.503l.193-4.14H2.486L2.4 3.716C.8 3.27 0 3.48 0 4.345s.716 1.383 2.15 1.55L2.63 8.1l9.82.577z" class="K"/><g transform="translate(10.379 1.039)" class="W"><path d="M.1.33C.03 1.538 1.102 1.846 1.4.733c.227-.85-1-.93-1.4-.404"/><path d="M4.138.137c.02.257.005.52.063.772C4.45 2 5.81.94 5.1.03"/></g><path d="M16.695.001c.297 0-.054 2.652-.24 3.184-.236.675-.794.53-1.396.53a4.41 4.41 0 0 1-.502-.023c-.25-.304-.574-.644-.926-.95l-.27-.223.067.39-.086-.136c-.365.922-1.1 1.183-1.99 1.183-2.06 0-2.883-1.572-2.554-3.954h7.896zM12.6 1.075H9.815l-.001.014c-.035.572.03 1.016.182 1.333l.092.16c.243.36.675.546 1.36.546.466 0 .787-.3.992-1.037l.055-.222.04-.227.038-.305.026-.264zm3.307 0h-2.063c.293 1.202.68 1.725 1.397 1.803l.202.01c.03 0 .044-.006.072-.032.058-.055.12-.164.18-.33.095-.27.16-.65.195-1.137l.017-.314z" fill="#ff0025" class="E"/><g class="B C D J"><path d="M13.683 3.095c.968.765 1.826 1.88 1.68 2.064-.193.24-.89.3-1.06.192-.137-.078-.075.028-.075.925"/><path d="M11.568 5.523c1.133.842 2.392.95 3.634.693"/></g><g class="L B C D"><path d="M12.782 7.685c.243.972.816 1.585 1.423 2.398"/><path d="M13.773 7.58c.663 2.1.516 1.204.666 2.64"/><path d="M14.598 7.73c.198 2.042.174 1.193.174 2.542"/><path d="M15.476 7.73l-.454 2.792"/><path d="M16.09 7.806c-.055 1-.315 1.78-.8 2.633"/><path d="M16.762 7.707c-.1.965-.365 1.895-1.014 2.648"/><path d="M17.133 8.744c-.8 1.075-.898 1.405-2.096 1.687"/></g><path d="M11.65 5.172c-.073.195-.217.388-.458.4" class="B C D J"/></g></g></g><g transform="translate(51.69 184.41)"><use xlink:href="#R" fill="#06f" class="E"/><g transform="translate(.817 2.746)"><path d="M1.446 14.583c.017-6.382 8.46-12.04 13.31-12.04 7.368.003 5.533 12.318 5.195 12.34-2.086.144-8.255.043-18.506-.302z" transform="matrix(.956305 -.292372 .292372 .956305 -2.079906 3.575913)" class="V"/><g transform="translate(7.176 3.622)" fill="#f1f4f6"><path d="M11.066 3.268c.318 2.54-2.166 8.953-4.8 8.6-2.204-.296-3.487-2.17-4.167-4.176-.115-.34-1.817.546-2.05-1.032s1.624-.587 1.575-.876c-.163-.968-.15-1.8-.126-2.446.004-.104.56-.424 1.75-.613.532-.085 1.19-.143 1.983-.144 1.13-.001 2.394.1 3.455.245.305.04.026-2.808.29-2.767s1.078 2.97 1.286 3.008c.49.1.79.167.795.2z"/></g><g transform="translate(11.143 7.069)"><g transform="translate(3.209 .526)" class="B C D J"><path d="M.292 0C.435 1.385 1.46.93 1.46.005"/><path d="M.35.76L0 1.227"/><path d="M.875.935l-.233.76"/><path d="M1.167.818l.175.643"/></g><path d="M2.625 0l1.718 2.53c.088.108.257.237.206.37-.047.122-1.16.215-1.26.017-.05-.102-.065-.458-.062-.342.02.715.083 1.166.188 1.352" fill="#f3fff6" class="B C D L"/><g transform="translate(.175 .467)" class="B C D J"><path d="M.258.1C.04 1.016 1.333 1.132 1.575 0"/><path d="M.408.76L0 1.052"/><path d="M.864.818l-.05.526"/><path d="M1.225.76l.175.41"/></g><path d="M2.43 4.8l.683.001h.357l1.097.001-.903.001a2694.02 2694.02 0 0 1-3.53-.002h1.82c2.696 0 2.09 0-1.82-.001L2.43 4.8z" fill="#ff243a" transform="matrix(.956305 .292372 -.292372 .956305 1.506667 -.476946)"/></g></g></g><g transform="translate(71.074 184.41)"><path d="M12.923 0C5.786 0 0 5.794 0 12.94s5.786 12.94 12.923 12.94 12.923-5.794 12.923-12.94S20.06 0 12.923 0z" fill="#cce4ff" class="E"/><g transform="translate(6.14 3.748)"><g transform="translate(3.918 .234)" fill="#ff5fa7"><path d="M8.654 1.505C8.348 8.337.92 10.87 5.668 15.323c1.135 1.064-6.22 1.08-5.6 0C3.447 9.566-.075 8.337.001 2.12.01 1.386.114.698.298.066c3.698-.105 6.407-.01 8.127.287.137.024.213.407.23 1.15z"/></g><g stroke="#ffc200" class="B C D"><path d="M13.566.937c-.407 1.77-1.18 3.585-1.33 5.403-.108 1.318-.048 2.644-.073 3.966"/><path d="M13.098.878c-.913 2.3-1.267 4.368-1.353 6.852-.068 1.952-.263 1.475.126 2.283"/><path d="M11.87 2.284c-.857 3.54-.896 4.685-.296 8.315"/><path d="M11.52 11.01c-2.125-1.91-1.235-5.25-.665-7.612"/></g><path d="M7.4 1.698c.13.64.094 1.068-.105 1.285C6.234 4.14 5.82 4.585 4.63 6.23c-.016.023-.01.082.016.082.132.001.28-.003.39-.078.765-.524 1.356-1.32 2.203-1.7 1.14-.51-1.563 1.25-.91 1.592.267.14 4.94-.504 3.43-.202s-3.755.72-3.566.967c.786 1.027.984 1.497.786 2.417" class="B C D J"/><g stroke="#ffc200" class="B C D"><path d="M4.56 2.928C3.875 4.754 2.956 9.205.253 9.72.22 9.726.2 9.673.175 9.65"/><path d="M4.152 1.698c-.62 3.085-1.54 5.8-4.093 7.612"/><path d="M3.8.527C3.007 3.4 2.606 6.523.175 8.49"/><path d="M2.982.644C2.25 3.725 2.168 5.752 0 7.905"/></g><path d="M3.732.025c-.33 0 .2 2.048.407 2.52.176.4.66.604 1.453.61.878.027 1.488-.174 1.83-.602l.052-.067c.407.82 1.228 1.05 2.224 1.05C12 3.54 12.92 2.142 12.55.025h-8.82zm4.064.782L11.7.752l.001.014c.052.675-.065 1.177-.328 1.51l-.027.033c-.315.37-.9.564-1.788.564-.607 0-1.316-.238-1.622-.997l-.072-.215c-.034-.13-.032-.334-.05-.578L7.795.807zM4.35.874h2.84l-.004.42c-.023.94-.223 1.362-1.888 1.396l-.3.003c-.04 0-.06-.006-.1-.032-.08-.055-.167-.164-.247-.33-.13-.272-.222-.653-.27-1.14L4.35.874z" fill="#00ffce" class="E"/><g class="W"><use xlink:href="#S" transform="matrix(-1 0 0 1 13.273384 0)"/><use xlink:href="#S" x="1.695" transform="matrix(-1 0 0 1 16.664822 0)"/></g><g fill="#ff0025"><path d="M1.455 16.786c.375.55 1.95.408 1.107-.708s-1.482.157-1.107.708z" transform="matrix(-1 0 0 1 4.151588 0)"/><path d="M3.473 17.73c.386.53 1.795.193.927-.884s-1.313.352-.927.884z" transform="matrix(-1 0 0 1 8.010808 0)"/><path d="M6.168 18.046c.4.552 1.794.302.916-.816s-1.307.264-.916.816z" transform="matrix(-1 0 0 1 13.39033 0)"/><path d="M8.804 17.704c.397.543 1.748.26 1.17-.698s-1.568.155-1.17.698z" transform="matrix(-1 0 0 1 18.828324 0)"/><path d="M10.897 17.057c.377.537 1.544.28 1.112-.7s-1.49.153-1.112.7z" transform="matrix(-1 0 0 1 22.921438 0)"/></g></g></g><g transform="translate(90.458 184.41)"><use xlink:href="#R" fill="#06f" class="E"/><path d="M16.563 9.6c2.968 1.854 5.053 5.7 6.255 11.54-2.365 2.894-5.958 4.74-9.982 4.74-4.092 0-7.738-1.91-10.1-4.885.217-1.47.51-2.766.882-3.89.4-1.215 1.67-3.3 3.81-6.255l.653-.893c3.048.163 5.712.048 7.96-.276l.522-.08z" class="K"/><g class="B C D L"><path d="M6.755 19.546c1.76.907 2.892-.253 4.077-1.514"/><path d="M12.81 18.237c.242 1.047.393 1.702.992 2.547.014.02-.048.012-.072.018"/><path d="M14.913 20.46c-1.2-.713-.478-.176-1.822-1.987"/><path d="M17.384 19.944c-1.63-.11-3.307-.703-4.546-1.788"/><path d="M17.528 18.924c-.858.123-2.61 1-4.654-.885"/><path d="M17.465 17.686c-2.242.452-.857.273-4.185.2"/><path d="M8.445 20.96c1-.797 2.475-1.68 2.736-3.074"/><path d="M9.88 20.944c1.19-.787.352-.134 1.713-2.686"/><path d="M11.196 21.013c.9-1.757.604-.892.984-2.562"/><path d="M12.623 20.812c-.674-1.372-.426-.587-.59-2.4"/><path d="M13.97 20.745c-1.036-1.403-.533-.57-1.38-2.57"/><path d="M7.825 16.923c.908.537 2.164 1.53 3.155.637"/><path d="M7.297 18.134c.578.155 3.496 1.02 3.442-.458"/><path d="M9.438 10.34c-.07.623-.07 1.012 0 1.168.436.993 1.117.662 1.4-.41"/><path d="M11.305 9.64c-1.322 5.726-1.225 8.588.292 8.588s2.042-1.013 1.575-3.038l-.233-5.2c.7 2.454 1.36 2.57 1.984.35" class="K"/></g><g stroke="#ff5fa7" fill="#ff5fa7" class="B C"><path d="M6.638 15.113c-.337-.174-.53-.33-.583-.467-.277-.733.282-1.13 1.284-.584.04-.857.37-1.383.992-1.577s.74.33.35 1.577c.62-.092 1.008-.092 1.167 0 .53.31.285 1.062-.817 1.52.545.467.622.954.233 1.46s-.856.273-1.4-.7c-.778.935-1.38 1.168-1.81.7s-.233-1.1.583-1.928z"/><path d="M15.273 14.272c-.354-.182-.558-.345-.612-.49-.29-.767.296-1.184 1.346-.61.04-.897.387-1.447 1.04-1.65s.775.347.368 1.65c.65-.096 1.058-.096 1.224 0 .557.323.3 1.11-.857 1.6.57.49.653 1 .245 1.53s-.898.285-1.47-.734c-.816.978-1.448 1.223-1.897.733s-.245-1.162.612-2.018z" transform="matrix(-.987688 .156434 .156434 .987688 30.952405 -2.436007)"/></g><g fill="#d41c61"><circle cx="7.951" cy="15.084" r="1"/><circle cx="16.676" cy="14.138" r="1"/></g><path d="M16.983 9.744c2.403-.43 3.744-.742 4.026-.935l-.525-1.46-4.376.876c-.272-4.246-1.03-6.368-2.275-6.368-.405 0-.872.584-1.4 1.753-.74-2.26-1.517-2.688-2.334-1.285S8.854 5.85 8.815 8.693l-2.86-.163c-.62-.067-1.107-.17-1.46-.305V9.57c-.063.065.37.157 1.295.276l2.79.25c1.128.086 3.928-.03 8.4-.35z" class="V"/></g><g class="E H"><path d="M24.13 30.735v-.912h-5.06v-.032c0-.256.06-.514.178-.776s.28-.528.48-.8.428-.544.68-.816l.782-.808.944-.96a8.55 8.55 0 0 0 .828-.992 4.97 4.97 0 0 0 .58-1.064c.144-.368.217-.76.217-1.176 0-.938-.263-1.67-.79-2.2s-1.3-.792-2.353-.792c-.392 0-.748.05-1.068.152s-.6.22-.844.36-.444.28-.604.424l-.333.328.526.72c.062-.064.16-.155.294-.272a3.2 3.2 0 0 1 .488-.344 3.51 3.51 0 0 1 .673-.296c.258-.085.552-.128.882-.128.588 0 1.076.163 1.463.488s.58.86.58 1.607c0 .34-.052.656-.155.944s-.242.56-.418.816a5.73 5.73 0 0 1-.611.744l-.735.744-.967.96a8.1 8.1 0 0 0-.913 1.072c-.273.384-.498.792-.673 1.224s-.263.898-.263 1.4l.008.264.008.12h6.175zm5.523 0V19.65h-.712c-.475.597-.954 1.07-1.44 1.415a6.82 6.82 0 0 1-1.656.856h0l.294.8a4.79 4.79 0 0 0 .743-.296l.712-.384a5.96 5.96 0 0 0 .611-.408 3.17 3.17 0 0 0 .441-.4h0v9.5h1.006z"/><use xlink:href="#T"/></g><g class="B D R"><path d="M0 42.058h285.91"/><path d="M0 173.086h285.91"/></g></g></g><rect x="11.307" y="8.088" width="25.845" height="27.5" rx="3" class="B C X"/><rect x="45.229" y="17.794" width="92.881" height="9.706" rx="3" class="I"/></g><g transform="translate(9.692 312.202)"><g filter="url(#F)"><mask id="Y" class="G"><use xlink:href="#I" href="#G"/></mask><use xlink:href="#I" class="C G R" href="#G"/><g class="M"><g transform="translate(0 42.058)"><mask id="Z" class="G"><use xlink:href="#H"/></mask><use xlink:href="#H" class="K"/><g mask="url(#Z)" class="Q"><g transform="translate(107.419 19.412)"><use xlink:href="#N"/><path d="M44.42 0H34.73v12.94h9.692z"/><use xlink:href="#O"/><use xlink:href="#P"/><use xlink:href="#Q"/></g></g><g opacity=".92" style="mix-blend-mode:overlay" mask="url(#Z)"><g transform="translate(-51.69 -19.412)"><g fill="#2ac2ff"><path d="M596.033 134.663V35.7h-97.757l.01 1.164c.86 53.618 43.634 96.92 96.6 97.79l1.148.01z"/><path d="M97.757 98.963V0H0l.01 1.164c.86 53.618 43.634 96.92 96.6 97.79l1.148.01z" transform="matrix(-1 0 0 1 97.757194 0)"/></g><path d="M596.033 136.923v98.963h-97.757l.01-1.164c.86-53.618 43.634-96.92 96.6-97.79l1.148-.01z" fill="#00173a" transform="matrix(-1 0 0 -1 1094.308994 372.810008)"/><path d="M498.275 235.887v-98.963h-97.757l.01 1.164c.86 53.618 43.634 96.92 96.6 97.79l1.148.01z" class="K"/><ellipse cx="449.397" cy="85.181" rx="48.879" ry="49.481" class="T"/><ellipse cx="449.901" cy="285.718" rx="48.879" ry="49.481" class="U"/><path d="M203.53 336.467V236.174H101.765l.01 1.18c.894 54.338 45.423 98.223 100.56 99.104l1.196.01z" class="T"/><ellipse cx="58.959" cy="186.836" rx="49.267" ry="49.338" class="I"/><path d="M365.062 119.704v100.293H263.297l.01-1.18c.894-54.338 45.423-98.223 100.56-99.104l1.196-.01z" class="U"/><ellipse fill="#ff7800" transform="matrix(1 0 0 -1 0 572.640352)" cx="252.797" cy="286.32" rx="49.267" ry="50.146"/></g></g></g></g><g class="E H M"><use xlink:href="#U"/><use xlink:href="#U" x="9.692"/><use xlink:href="#T"/></g><g class="B D R M"><path d="M0 42.058h285.91"/><path d="M0 173.086h285.91"/></g></g><rect x="11.307" y="8.088" width="25.845" height="27.5" rx="3" class="B C X"/><rect x="14.538" y="182.792" width="95.304" height="25.882" rx="3" class="H"/><rect opacity=".315" x="116.303" y="182.792" width="95.304" height="25.882" rx="3" class="B X"/><rect x="45.229" y="17.794" width="92.881" height="9.706" rx="3" class="I"/></g><use fill="#000" filter="url(#J)" xlink:href="#I"/><use xlink:href="#I" class="G"/></g></g><path d="M100.473 14.56a14.56 14.56 0 0 0 14.559 14.559h104.63a14.56 14.56 0 0 0 14.559-14.559h0-133.748z" fill="#000"/></g><g class="H"><path d="M120.906 559.712l-23 5.377a1.28 1.28 0 0 0-.98 1.083 1.24 1.24 0 0 0 .7 1.284l6.532 3.295.668 6.6a1.27 1.27 0 0 0 .955 1.102 1.28 1.28 0 0 0 1.37-.516l.198-.2-1.32-5.046c-.056-.657.272-1.288.844-1.625l5.676-3.34-4.536 4.353a1.26 1.26 0 0 0-.356 1.197l2.068 8.876c.12.52.557.908 1.1.973s1.05-.2 1.293-.686l10.804-20.962a1.23 1.23 0 0 0 .127-.247c.113-.294.043-.742-.086-1.05-.16-.38-.84-.54-2.038-.48zm-65.913 12.664h4.758v-4.765h-4.758v4.765zm-7.136 0h4.758v-4.765h-4.758v4.765zm0 7.147h4.758v-4.765h-4.758v4.765zm-7.136-7.147h4.758v-4.765h-4.76v4.765zm0 7.147h4.758v-4.765h-4.76v4.765zm20.22-19.058h-2.38v-2.382h-2.38v5.956H53.8v-3.573h-7.137v-2.382h-2.38v5.956H41.9v-3.573h-2.38c-1.312-.001-2.38 1.068-2.38 2.382v17.867c0 1.312 1.067 2.382 2.38 2.382h21.4c1.3 0 2.38-1.07 2.38-2.382V562.85c0-1.314-1.068-2.383-2.38-2.382zm174.664 11.482c-.764 0-1.385-.62-1.385-1.387s.62-1.387 1.385-1.387 1.385.62 1.385 1.387-.62 1.387-1.385 1.387m-5.538 0c-.764 0-1.385-.62-1.385-1.387s.62-1.387 1.385-1.387 1.385.62 1.385 1.387-.62 1.387-1.385 1.387m-5.538 0c-.764 0-1.385-.62-1.385-1.387s.62-1.387 1.385-1.387 1.385.62 1.385 1.387-.62 1.387-1.385 1.387m5.538-13.865c-7.634 0-13.846 5.6-13.846 12.48 0 2.406.75 4.703 2.178 6.705l-3.562 5.774h15.23c7.634 0 13.846-5.6 13.846-12.48s-6.2-12.48-13.846-12.48m-61.607 23.24l-10.1-10.125 5.94-5.948 3.882 3.887 6.217-6.848h-15.12a2.59 2.59 0 0 0-2.585 2.588v15.53a2.59 2.59 0 0 0 2.585 2.588h18.092a2.59 2.59 0 0 0 2.585-2.588v-11.736L168.46 581.32z"/><path d="M168.372 577.57l-6.367-6.375 2.285-2.288 3.97 3.977 11.783-12.98 2.4 2.175zm119.478-6.224c3.207 0 5.815-2.612 5.815-5.823s-2.608-5.823-5.815-5.823-5.815 2.612-5.815 5.823 2.608 5.823 5.815 5.823m0 1.456c-6.847 0-11.63 3.592-11.63 8.735v1.456h23.26v-1.456c0-5.144-4.783-8.735-11.63-8.735"/></g></g></g><g transform="matrix(-1 0 0 1 276 666)"><path d="M48.93 69.75c-1.33-23.34 19.312-29.282 25.035-7.797 4.366 16.39-19.43 17.947-26.933 7.797" class="W"/><path d="M79.18.156c7.845 0 15.8.566 23.897 1.697l1.518.22c3.202.475 5.73 2.955 6.254 6.136 2.395 14.51 3.365 29.297 2.91 44.357 2.108 1.526 4.89 1.177 8.34-1.046-.38-14.7.6-29.136 2.94-43.3.51-3.098 2.92-5.53 6.003-6.095l.25-.042 1.518-.22C140.9.722 148.867.156 156.712.156l1.844.01c10.303.094 31.132.926 62.485 2.496a8.38 8.38 0 0 1 7.413 5.369l.092.252.31.905c4.682 13.913 7.023 29.456 7.023 46.63 0 16.386-2.18 30.652-6.543 42.8-1.544 4.3-5.562 7.214-10.124 7.376l-.292.007-4.487.036c-8.818.058-16.697.027-23.636-.092l-4-.07-49.045-.018c-5.332.03-9.93-3.693-11.007-8.868l-.054-.28-.255-1.423c-1.272-7.218-2.277-14.706-3.013-22.463-3.575-3.83-7.25-4.128-11.022-.89-1.026 9.302-2.592 18.582-4.696 27.84l-.36 1.564c-1.144 4.89-5.434 8.414-10.473 8.6l-22.315.79-25.43.74-3.255.06-24.895.062-2.254-.02c-4.666-.044-8.813-2.97-10.402-7.34C2.783 89.006.016 72.87.016 55.816c0-17.173 2.34-32.716 7.023-46.63l.31-.905c1.114-3.225 4.085-5.45 7.505-5.62l10.575-.52L79.18.156zm-9.417 8.8l-1.465.055c-9.317.384-22.374 1.58-39.172 3.587l-2.732.33c-1.735.21-3.09 1.603-3.255 3.345l-.213 2.282c-3.39 37.038-2.35 62.717 3.123 77.037 2.43 6.355 26.3 7.286 71.618 2.795l.41-3.467c2.417-20.8 3.495-36.04 3.234-45.75l-.01-.396c-.318-10.214-1.528-22.864-3.632-37.953-8.225-1.588-17.526-2.21-27.903-1.863zm85.892.87l-1.005-.03c-9.74-.27-15.215.355-16.426 1.878l-.28 2.025c-1.93 14.07-3.045 25.94-3.348 35.608l-.025.935c-.223 10.117.92 24.972 3.426 44.566 47.143 2.606 71.927.76 74.354-5.542 5.568-14.458 5.738-38.553.508-72.286-.26-1.677-1.635-2.962-3.335-3.117l-8.254-.74c-21.507-1.902-36.71-3-45.615-3.294z" class="I"/><path d="M92.65 10.335L262.178 22.22c1.658 6.54 2.584 39.638 2.777 99.296l-2.777 62.46c-58.037 8.363-132.874 8.363-224.51 0-3.024-57.52 14.908-114.823 53.797-171.91l1.185-1.73z" class="S"/><g class="J B D O"><path d="M171.74 165.96c18.283-8.77 27.338-7.498 44.73 2.2M39.958 142.08c18.283 8.77 27.338 7.498 44.73-2.2"/><path d="M102.04 14.983c-.188 10.697-6.153 51.222 5.468 66.82 28.533 38.296 101.657 85.433 145.39 45.133"/><path d="M106.815 103.36c2.77-7.26 4.764-13.55 13.452-18.252 4.817-2.607 11.07-1.713 16.44-.61 4.613.948 9.243 3.173 12.502 6.557 14.573 15.133 1.1 37.792-16.578 40.696-6.488 1.066-23.708 3.357-27.515-5.68" fill="#ff4445"/><path d="M147.688 18.472c13.735 40.332 28.04 72.933 65.966 93.2 13.108 7 43.7 23.434 56.778 7.137M204.677 11.493c9.595 44.83 22.655 95.6 70.14 103.814"/></g></g><path d="M710.342 899.494c23.25-28.868 66.966-32.752 103.504-31.303 30.09 1.193 43.775 7.275 57.888 25 3.025 3.8 18.456-17.39 30.752 7.1s-14.432 18.1-12.4 23.745c7.123 19.82 2.853 36.58-5.254 52.644-24.416 48.38-139.576 63.28-177.677 17.765-12.984-15.5-12.473-36.954-8.877-56.927 1.1-6.05-30.305 9.112-21.522-22.363s27.7-4.53 28.683-8.695l4.903-6.956z" class="H"/><g class="B D J O"><path d="M770.452 900.342c.517 12.173-2.77 36.92 15.697 38.825 6.022.62 12.13.256 18.162-.26 5.82-.497 8.092-3.256 12.712-6.6"/><path d="M782.257 900.083c.612 15.035-1.93 30.63 10.12 41.8 7.23 6.705 25.945-.74 25.945-9.836"/><path d="M793.802 909.143c-.857 8.97 11.333 45.38 25.688 31.06"/></g><path d="M765.114 850.762c-4.734-9.256-7.055-20.934-.98-30.615 9.11-14.522 28.475-17.745 35.97-.117 5.816 13.68-8.237 30.584-7.85 32.287 2.2 9.69 33.377-29.157 27.364-8.392-7.507 25.923-50.003 30.313-68.618 15.774s-1.07-14.36 10.266-8.975l3.85.038z" class="I"/><g transform="matrix(-1 0 0 1 1244 475)"><g transform="matrix(.965926 .258819 -.258819 .965926 54.167441 17.724737)"><mask id="a" class="G"><use xlink:href="#K"/></mask><use fill="#00c15a" xlink:href="#K"/><path d="M176.314 113.202c15.033 14.057 28.696 1.758 42.883-7.273" stroke="#fff" mask="url(#a)" class="B D O"/></g><g transform="matrix(.965926 .258819 -.258819 .965926 96.751913 .196559)" class="B D"><g class="O"><path d="M.2 43.03C2.11 30.166 18.607 9.144 30.336 4.2a51.49 51.49 0 0 1 9.602-2.975c2.11-.435 5.628-2.316 6.457-.33 6.085 14.572-22.52 38.194-33.445 41.3-.956.273-.234-2.063.164-2.972 1.18-2.692 2.466-5.45 4.47-7.603C27.85 20.6 41.25 7.176 57.156 4.2c1.41-.264 3.76-1.325 4.306 0 4.322 10.49-5.807 27.594-15.397 32.55-4.2 2.176-9.615 9.35-12.915 5.95-3.175-3.27 4.585-7.988 7.782-11.237 6.09-6.188 12.738-11.89 19.867-16.853 3.728-2.595 8.076-4.284 12.42-5.62 3.79-1.166 7.805-2.165 11.754-1.817 1.082.096 1.207 1.894 1.325 2.972 1.663 15.19-15.437 29.884-27.817 35.2-1.166.5-.41-2.6 0-3.8.513-1.504 1.6-2.77 2.65-3.967 2.827-3.225 5.795-6.336 8.94-9.253a29.26 29.26 0 0 1 5.132-3.8c6.29-3.672 12.415-7.783 19.208-10.412 3.205-1.24 7.44-2.947 10.265-.992 2.222 1.538.974 5.58 0 8.098-4.315 11.153-7.66 17.256-16.39 23.298-3.35 2.317-7.932 4.69-12.252 4.298-.542-.05.324-1.064.662-1.49 3.978-4.988 7.955-9.99 12.252-14.706 4.54-4.985 9.247-9.837 14.236-14.375 1.28-1.165 2.787-2.246 4.473-2.645 4.71-1.113 9.958-3.726 14.404-1.817 2.434 1.045.733 5.444-.167 7.93-1.994 5.508-9.635 16.252-14.568 20.16-11.092 8.787-10.894 1.53-5.962-3.8 6.195-6.695 12.328-13.572 19.536-19.167 2.425-1.882 5.75-2.274 8.776-2.808 2.337-.413 4.965-.993 7.12 0 1.285.592 1.344 2.562 1.49 3.967.304 2.96.95 6.164-.164 8.922-3.947 9.763-15.334 21.255-26.16 21.976" class="Y"/><path d="M118.543 59.385c2.042 3.635 3.673 7.533 6.126 10.906 6.28 8.635 19.362 5.514 20.86-5.122.67-4.746.442-9.584.33-14.375-.005-.22-.442 0-.662 0" stroke="#fff"/><path d="M162.667 155.124c7.308 3.062 5.77 1.097 9.435 10.906 1.466 3.92 2.866 7.925 3.48 12.065.557 3.76.66 7.658 0 11.4-1.214 6.89-16.38 10.396-20.202 4.46-5.96-9.255-7.465-14.205-8.44-25.28-.204-2.315-.922-5.237.662-6.94 1.315-1.413 4.395-1.33 5.795 0 3.64 3.457 6.416 8.062 7.78 12.89 1.65 5.84 1.424 12.123.994 18.176-.388 5.46-10.44 14.77-15.23 8.098-3.817-5.315-5.554-11.375-6.126-17.848-.524-5.926-1.433-11.998-.33-17.845 1.822-9.667 5.318 1.062 5.795 4.955.777 6.345 1.11 12.808.495 19.17-.498 5.146-2.235 10.11-3.808 15.037-.428 1.34-1.155 2.638-2.15 3.633s-2.263 1.86-3.644 2.15c-1.624.343-3.592.596-4.97-.33-1.37-.923-1.962-2.822-2.15-4.46-1.312-11.353-2.483-22.78-2.32-34.207.014-.95 2.628-1.427 2.817-.494 2.572 12.686-.648 20.038-6.293 31.396-1.108 2.228-5.707 7.727-9.438 5.784-6.06-3.157-2.102-30.33 4.306-34.04.527-.305 1.71-.762 1.82-.164 1.854 10.178-3.864 20.763-11.09 27.596-1.682 1.59-13.492 6.685-14.735 3.633-4.17-10.237-.456-29.1 8.94-35.526.644-.44 2.2-1.1 2.32-.33 2.44 14.614-4.01 15.878-16.06 26.1-1.96 1.665-5.214 6.113-6.625 3.964l-3.145.66c-5.392-8.216 15.143-23.024 15.565-35.36.04-1.16-1.01 2.14-1.823 2.972-3.517 3.6-7.394 6.83-11.09 10.245" class="Y"/></g><path d="M170.19 104.14c3.2 1.354 2.518.485 4.118 4.823.64 1.734 1.25 3.505 1.52 5.336.243 1.662.288 3.387 0 5.042-.53 3.047-7.15 4.597-8.818 1.973-2.602-4.093-3.26-6.282-3.685-11.18-.09-1.024-.402-2.316.29-3.07.574-.625 1.92-.588 2.53 0 1.59 1.53 2.8 3.565 3.396 5.7.72 2.583.622 5.36.434 8.038-.17 2.414-4.557 6.532-6.648 3.58-1.666-2.35-2.424-5.03-2.674-7.893-.23-2.62-.626-5.306-.145-7.892.795-4.275 2.32.47 2.53 2.192.34 2.806.485 5.664.216 8.478-.218 2.276-.976 4.47-1.662 6.65-.187.593-.504 1.167-.94 1.607s-.988.822-1.6.95c-.71.152-1.568.263-2.17-.146s-.856-1.248-.94-1.973c-.573-5.02-1.084-10.074-1.012-15.128.006-.42 1.147-.63 1.23-.22 1.122 5.6-.283 8.862-2.747 13.885-.483.985-2.49 3.417-4.12 2.558-2.646-1.396-.918-13.413 1.88-15.054.23-.135.747-.337.794-.072.81 4.5-1.687 9.182-4.84 12.204-.734.703-5.89 2.956-6.432 1.607-1.82-4.527-.2-12.874 3.902-15.71.28-.195.956-.486 1.012-.146 1.065 6.463-1.75 7.022-7 11.547-.856.736-2.276 2.704-2.892 1.753l-1.373.292c-2.354-3.633 6.6-10.182 6.794-15.638.017-.513-.44.947-.796 1.314-1.535 1.592-3.228 3.02-4.84 4.53" stroke-width="2.322" class="Y"/></g></g></g></svg>