<svg xmlns="http://www.w3.org/2000/svg" xmlns:xlink="http://www.w3.org/1999/xlink" width="1759" height="1254" xmlns:v="https://vecta.io/nano"><style><![CDATA[.B{fill:#fff}.C{stroke:#f4f2ee}.D{stroke-linejoin:round}.E{mask:url(#H)}.F{fill:#0064ff}.G{fill:#f4f2ee}.H{fill-rule:nonzero}.I{stroke-linecap:round}.J{stroke-width:2.322}.K{stroke-linecap:square}]]></style><defs><filter x="-3.4%" y="-1.4%" width="106.7%" height="102.7%" id="A"><feOffset dy="1" in="SourceAlpha"/><feGaussianBlur stdDeviation="2"/><feColorMatrix values="0 0 0 0 0 0 0 0 0 0.160784314 0 0 0 0 0.349019608 0 0 0 0.1 0" result="C"/><feMerge><feMergeNode in="C"/><feMergeNode in="SourceGraphic"/></feMerge></filter><filter x="-10.4%" y="-14.2%" width="120.8%" height="128.4%" id="B"><feOffset dy="21" in="SourceAlpha"/><feGaussianBlur stdDeviation="21.5"/><feColorMatrix values="0 0 0 0 0 0 0 0 0 0.164542109 0 0 0 0 0.362271488 0 0 0 0.1 0" result="C"/><feMerge><feMergeNode in="C"/><feMergeNode in="SourceGraphic"/></feMerge></filter><path id="C" d="M.652.383H1183.58v863H.652z"/><filter x="-10.6%" y="-39.3%" width="121.1%" height="178.0%" id="D"><feOffset dy="21" in="SourceAlpha"/><feGaussianBlur stdDeviation="21.5"/><feColorMatrix values="0 0 0 0 0 0 0 0 0 0.164542109 0 0 0 0 0.362271488 0 0 0 0.1 0" result="C"/><feMerge><feMergeNode in="C"/><feMergeNode in="SourceGraphic"/></feMerge></filter><filter x="-46.6%" y="-61.4%" width="193.1%" height="222.7%" id="E"><feOffset dy="24" in="SourceAlpha"/><feGaussianBlur stdDeviation="16"/><feColorMatrix values="0 0 0 0 0 0 0 0 0 0.160784314 0 0 0 0 0.349019608 0 0 0 0.1 0" result="C"/><feMerge><feMergeNode in="C"/><feMergeNode in="SourceGraphic"/></feMerge></filter><filter x="-24.0%" y="-22.6%" width="148.0%" height="146.0%" id="F"><feOffset dy="1" in="SourceAlpha"/><feGaussianBlur stdDeviation="1"/><feColorMatrix values="0 0 0 0 0 0 0 0 0 0 0 0 0 0 0 0 0 0 0.3 0" result="C"/><feMerge><feMergeNode in="C"/><feMergeNode in="SourceGraphic"/></feMerge></filter><path id="G" d="M0 17.977h35.944v-3.594H0z"/></defs><g fill="none" fill-rule="evenodd"><g transform="translate(134 97)"><g filter="url(#A)" transform="translate(1275 61)"><g stroke-width="1.2" class="B C"><rect width="103" height="103" rx="3.6"/><rect y="113" width="103" height="103" rx="3.6"/><rect x="120" y="113" width="103" height="103" rx="3.6"/><rect y="225" width="103" height="103" rx="3.6"/><rect x="120" y="225" width="103" height="103" rx="3.6"/><rect y="338" width="103" height="103" rx="3.6"/><rect x="120" y="338" width="103" height="103" rx="3.6"/><rect y="451" width="103" height="103" rx="3.6"/><rect x="120" y="451" width="103" height="103" rx="3.6"/><rect y="613" width="103" height="103" rx="3.6"/><rect x="120" y="613" width="103" height="103" rx="3.6"/><rect y="738" width="103" height="103" rx="3.6"/><rect x="120" y="738" width="103" height="103" rx="3.6"/><rect x="238" y="113" width="103" height="103" rx="3.6"/><rect x="238" y="225" width="103" height="103" rx="3.6"/><rect x="238" y="338" width="103" height="103" rx="3.6"/><rect x="238" y="451" width="103" height="103" rx="3.6"/><rect x="238" y="613" width="103" height="103" rx="3.6"/><rect x="238" width="103" height="103" rx="3.6"/></g><g transform="translate(120)"><rect stroke-width="1.2" fill="#001c6c" width="103" height="103" rx="3.6" class="C"/><path d="M55.948 42.136v-9.364l9.364 9.364h-9.364zM39.093 66.482l5.618-7.49 3.745 3.745 7.49-9.364 5.618 13.11H39.093zm4.682-20.6c2.582 0 4.682 2.096 4.682 4.682s-2.1 4.682-4.682 4.682a4.68 4.68 0 1 1 0-9.364h0zM58.596 30.9H37.22a3.75 3.75 0 0 0-3.745 3.745v33.71A3.75 3.75 0 0 0 37.22 72.1H63.44a3.75 3.75 0 0 0 3.745-3.745V39.488L58.596 30.9z" class="B"/></g><g class="F"><path d="M272 31h35v6.333h-13.746V72h-7.57V37.333H272z"/><path d="M74 162H28v5h46z"/><g transform="translate(31 256)"><path d="M34.762 12.384H6.518V6.192h28.244v6.192zm0 10.32H21.726v-4.128h13.036v4.128zm0 6.192H21.726v-4.128h13.036v4.128zm0 6.192H21.726V30.96h13.036v4.128zM19.554 22.704H6.518v-4.128h13.036v4.128zm0 6.192H6.518v-4.128h13.036v4.128zm0 6.192H6.518V30.96h13.036v4.128zM2.173 0C.973 0 0 .925 0 2.064v37.152c0 1.14.973 2.064 2.173 2.064h36.935c1.2 0 2.173-.925 2.173-2.064V2.064C41.28.925 40.307 0 39.107 0H2.173z"/></g><path d="M182.662 296.654l-11.162-7.458-11.162 7.458c-.713.477-1.65.46-2.345-.05s-1-1.397-.763-2.225l3.768-13.22-9.397-9.418c-.586-.586-.763-1.47-.445-2.237a2.05 2.05 0 0 1 1.894-1.27h11.033l5.582-11.192c.695-1.39 2.974-1.39 3.67 0l5.582 11.192h11.033a2.05 2.05 0 0 1 1.894 1.27c.318.766.14 1.652-.445 2.237l-9.397 9.418 3.768 13.22c.238.828-.068 1.718-.763 2.225a2.04 2.04 0 0 1-1.207.394c-.396 0-.79-.115-1.138-.345z"/><g transform="translate(28 369)"><path d="M11.417 9.537L8.45 7.003c3.702-4.45 9.115-7.004 14.855-7.004 5.722 0 11.126 2.542 14.83 6.972L35.17 9.51c-2.964-3.544-7.29-5.58-11.866-5.58-4.59 0-8.925 2.044-11.887 5.606"/><path d="M29.52 14.944c-1.483-2-3.748-3.15-6.215-3.15a7.67 7.67 0 0 0-6.211 3.147l-3.106-2.363c2.2-2.954 5.672-4.716 9.317-4.716 3.702 0 7.1 1.722 9.32 4.722l-3.106 2.36z"/><path d="M7.764 37.35a11.83 11.83 0 0 1 .679-3.931H6.472C2.898 33.417 0 35.695 0 39.314v1.966h7.764v-3.93z"/><path d="M14.736 26.554c.002-2.732-2.172-4.932-4.853-4.932s-4.85 2.2-4.85 4.914c0 2.538 1.904 4.6 4.338 4.863 1.238-2.135 3.114-3.84 5.365-4.845"/><path d="M11.647 41.28H34.94v-3.93c0-3.766-2.62-6.906-6.11-7.674-1.572 1.113-3.478 1.777-5.538 1.777s-3.966-.664-5.538-1.777c-3.5.77-6.11 3.908-6.11 7.674v3.93z"/><path d="M29.116 21.623c0 3.257-2.607 5.897-5.823 5.897s-5.823-2.64-5.823-5.897 2.607-5.897 5.823-5.897 5.823 2.64 5.823 5.897"/><path d="M38.496 21.854c-2.656 0-4.8 2.178-4.8 4.865 0 .068.017.132.02.2 2.08 1.016 3.807 2.64 4.966 4.647 2.576-.095 4.64-2.22 4.64-4.848 0-2.688-2.156-4.865-4.814-4.865"/><path d="M40.746 33.995h-2.248a9.14 9.14 0 0 1 .774 3.642v3.642h8.85v-1.82c0-3.353-3.303-5.464-7.377-5.464"/></g><g transform="translate(269 256)"><path d="M33.024 24.768c-2.477 0-4.677 1.12-6.192 2.852l-10.508-5.255a8.2 8.2 0 0 0 .188-1.726 8.2 8.2 0 0 0-.188-1.726l10.508-5.255c1.515 1.734 3.715 2.852 6.192 2.852 4.553 0 8.256-3.703 8.256-8.256S37.577 0 33.024 0s-8.256 3.703-8.256 8.256a8.2 8.2 0 0 0 .188 1.726l-10.508 5.255c-1.515-1.734-3.715-2.852-6.192-2.852C3.703 12.384 0 16.087 0 20.64s3.703 8.256 8.256 8.256c2.477 0 4.677-1.12 6.192-2.852l10.508 5.255a8.2 8.2 0 0 0-.188 1.726c0 4.553 3.703 8.256 8.256 8.256s8.256-3.703 8.256-8.256-3.703-8.256-8.256-8.256"/></g><path d="M21.19 644c-.658 0-1.19.535-1.19 1.195v36.65c0 1.74 1.366 3.154 3.05 3.154h54.9c1.687 0 3.05-1.413 3.05-3.154v-36.65A1.19 1.19 0 0 0 79.809 644H21.19z"/><path d="M168.45 644v41h-24.4c-1.684 0-3.05-1.413-3.05-3.154h0v-36.65c0-.66.536-1.195 1.197-1.195h26.253zm32.353 0c.66 0 1.197.535 1.197 1.195h0v36.65c0 1.74-1.366 3.154-3.05 3.154h0-24.4v-41z"/><path d="M299.95 644v41h-18.9v-41h18.9zm-25.2 0v41h-12.6c-1.74 0-3.15-1.413-3.15-3.154h0v-36.65c0-.66.542-1.195 1.2-1.195h14.54zm46.04 0c.668 0 1.2.535 1.2 1.195h0v36.65c0 1.74-1.41 3.154-3.15 3.154h0-12.6v-41z"/><path d="M36.75 769v41h-12.6c-1.74 0-3.15-1.413-3.15-3.154h0v-36.65c0-.66.542-1.195 1.2-1.195h14.54zm46.047 0c.67 0 1.203.535 1.203 1.195h0v36.65c0 1.74-1.41 3.154-3.15 3.154h0-37.8v-41z"/><path d="M178.8 769v41h-34.65c-1.74 0-3.15-1.413-3.15-3.154h0v-36.65c0-.66.534-1.195 1.194-1.195H178.8zm24.003 0c.65 0 1.197.535 1.197 1.195h0v36.65c0 1.74-1.41 3.154-3.15 3.154h0-15.75v-41z"/><g transform="translate(31 31)"><path d="M0 4.368h43.308V.007H0z"/><path d="M0 13.1h43.308V8.73H0z"/><path d="M0 21.813h43.308v-4.36H0z"/><path d="M0 30.535h43.308v-4.36H0z"/><path d="M0 39.258h30.316v-4.36H0z"/></g><g transform="translate(156 143)"><path d="M27.147 24.808l-8.632-1.732v-8.63c0-1.137-.922-2.064-2.057-2.064h-4.114c-1.136 0-2.057.927-2.057 2.064v10.32H6.172c-.714 0-1.376.372-1.75.98a2.07 2.07 0 0 0-.091 2.008l6.17 12.384c.35.7 1.06 1.14 1.84 1.14h14.4a2.06 2.06 0 0 0 2.057-2.064V26.83c0-.982-.693-1.83-1.654-2.023"/><path d="M6.17 16.512H0v-4.128h6.17z"/><path d="M7.127 10.07L2.764 5.692l2.91-2.92 4.363 4.378z"/><path d="M12.343 0h4.114v6.192h-4.114z"/><path d="M18.763 7.15l4.365-4.378 2.91 2.918-4.365 4.38z"/><path d="M22.63 12.384h6.17v4.128h-6.17z"/></g><path d="M298.317 167.428h7.818v-7.8h-7.818v7.8zm-11.727 0h7.818v-7.8h-7.818v7.8zm0 11.714h7.818v-7.8h-7.818v7.8zm-11.727-11.714h7.818v-7.8h-7.818v7.8zm0 11.714h7.818v-7.8h-7.818v7.8zm33.227-31.237h-3.91V144h-3.91v9.762h-3.91v-5.857h-11.727V144h-3.91v9.762h-3.91v-5.857h-3.91A3.91 3.91 0 0 0 269 151.81v29.286c0 2.15 1.753 3.905 3.91 3.905h35.182c2.155 0 3.91-1.754 3.91-3.905V151.8a3.91 3.91 0 0 0-3.909-3.905z"/><g transform="translate(146 369)"><path d="M39.168 14.57h-9.792V12.14h9.792v2.428zm4.896 7.285H29.376v-2.428h14.688v2.428zm0 7.285H29.376V26.71h14.688v2.428zm-24.48-14.57H9.792V12.14h9.792v2.428zm0 7.285h-14.7v-2.428h14.7v2.428zm0 7.285h-14.7V26.71h14.7v2.428zM46.512 0H29.376c-.65 0-1.27.255-1.73.71L24.48 3.85 21.315.71c-.46-.457-1.082-.71-1.73-.71H2.448A2.44 2.44 0 0 0 0 2.428v31.567a2.44 2.44 0 0 0 2.448 2.428H18.57l4.18 4.145a2.45 2.45 0 0 0 3.461 0l4.18-4.145h16.123a2.44 2.44 0 0 0 2.448-2.428V2.428A2.44 2.44 0 0 0 46.512 0h0z"/></g><g transform="translate(269 369)"><path d="M4.128 10.32h33.024v6.192H4.128V10.32zm33.024-4.128h-4.128V0h-4.128v6.192H12.384V0H8.256v6.192H4.128C1.85 6.192 0 8.045 0 10.32v26.832c0 2.277 1.85 4.128 4.128 4.128h33.024c2.277 0 4.128-1.85 4.128-4.128V10.32c0-2.275-1.85-4.128-4.128-4.128h0z"/></g><path d="M175.387 498.595l1.943 5.857-5.83-3.905-5.83 3.905 1.943-5.857-3.887-3.905h5.83l1.943-5.857 1.943 5.857h5.83l-3.887 3.905zm-3.018 16.802a1.93 1.93 0 0 0-1.737 0l-4.413 2.216.884-5.777c1.263.882 2.78 1.4 4.398 1.402h.002c1.617 0 3.133-.515 4.396-1.398l.884 5.773-4.413-2.216zm12.57-17.78c1.386-2.382 1.432-5.353.023-7.807-1.374-2.392-3.945-3.88-6.7-3.88h-.03c-1.362-2.4-3.9-3.93-6.72-3.93s-5.36 1.53-6.72 3.932h-.03a7.76 7.76 0 0 0-6.716 3.877c-1.41 2.454-1.36 5.426.027 7.81-1.388 2.388-1.436 5.36-.027 7.81a7.76 7.76 0 0 0 5.538 3.782l-1.766 11.54c-.11.722.188 1.445.775 1.874s1.366.496 2.013.17l6.904-3.47 6.904 3.47c.274.137.57.205.87.205.404 0 .806-.127 1.145-.375.587-.43.886-1.152.775-1.874l-1.766-11.54c2.3-.357 4.36-1.734 5.534-3.782 1.413-2.452 1.364-5.424-.023-7.81h0z"/><path d="M40.842 491.897v9.94c0 6.222 4.772 11.266 10.658 11.266s10.658-5.044 10.658-11.266l-.001-9.94H65V502.5c0 6.696-4.926 12.248-11.37 13.265v4.407h4.706a2.4 2.4 0 0 1 2.4 2.4V523H42.263v-.428a2.4 2.4 0 0 1 2.4-2.4h4.705l.001-4.407C42.926 514.748 38 509.196 38 502.5v-10.603h2.842zm18.474 1.414v9.2c0 4.294-3.5 7.776-7.816 7.776s-7.816-3.48-7.816-7.776v-9.2h15.632zM51.5 482c4.317 0 7.816 3.48 7.816 7.776v2.12H43.684v-2.12c0-4.294 3.5-7.776 7.816-7.776z" class="H"/><g transform="translate(269 482)"><path d="M4.587 4.587h4.587V5.93L6.88 8.224 4.587 5.93V4.587zM36.693 5.93L34.4 8.224 32.107 5.93V4.587h4.587V5.93zM25.227 8.224L22.933 5.93V4.587h4.587V5.93l-2.293 2.293zm-9.173 0L13.76 5.93V4.587h4.587V5.93l-2.293 2.293zM4.587 20.612h4.587v-8.196l2.293-2.293 2.965 2.965a2.29 2.29 0 0 0 3.243 0l2.965-2.965 2.965 2.965a2.29 2.29 0 0 0 3.243 0l2.965-2.965 2.293 2.293v8.196h4.587v-8.196L40.608 8.5c.43-.43.672-1.01.672-1.62V2.293C41.28 1.027 40.253 0 38.987 0H2.293C1.027 0 0 1.027 0 2.293V6.88c0 .6.243 1.193.672 1.62l3.915 3.915v8.196z"/><path d="M0 22.933v4.587h4.587v11.456c0 1.266 1.027 2.293 2.293 2.293H34.4c1.266 0 2.293-1.027 2.293-2.293V27.52h4.587v-4.587H0z"/></g></g></g><g transform="translate(2 201)"><g filter="url(#B)" transform="translate(.171)"><g transform="translate(.348 .178)"><mask id="H" class="B"><use xlink:href="#C"/></mask><use xlink:href="#C" class="B"/><g stroke-width="1.322" class="C D I E"><path d="M581.972 88.268c7.102-3.68 15.124-5.965 21.307-11.04 21.865-17.944 37.065-44.853 62.32-57.593 8.5-4.293 23.76 4.002 25.253 13.416 5.813 36.64-35.906 96.777 0 69.422 7.647-5.826 15.134-11.905 22.088-18.54 7.402-7.063 14.53-14.474 20.9-22.48 9.045-11.363 39.65-37.41 25.253-35.504-65.076 8.62-64.9 39.282-50.1 79.68.77 2.098 4.54.557 6.704 0 2.564-.66 4.984-1.967 7.102-3.555 17.45-13.088 47.153-34.65 65.476-53.64 2.726-2.825 7.2-5.165 7.5-9.08.976-12.636-19.728-3.984-22.487-2.367-18.047 10.57-41.262 26.68-50.89 46.154-2.856 5.778-9.113 15.09-3.938 18.932l.79 4.344c10.827 8.04 28.316 5.65 39.442 2.758 27.102-7.043 70.955-44.26 88.362-64.296 6.434-7.406 11.96-15.81 15.775-24.846 1.384-3.28 2.444-9.16-.79-10.65-22.598-10.404-42.4 10.13-57.593 21.7-24.226 18.434-44.723 52.126-40.63 83.228 1.95 14.82 39.556 12.022 49.71 4.735 47.37-34 73.002-43.914 96.245-89.143.324-.63-.08-1.954-.79-1.977-7.895-.255-16.678-2.494-23.667 1.188-7.906 4.165-86.868 46.575-87.573 80.072-.083 3.954-1.017 8.32.79 11.837 4.243 8.265 36.984 1.368 44.966-1.578 42.17-15.565 81.64-40.783 118.342-66.273 3.393-2.357 10.558-6.63 11.44-12.228.225-1.428 1.116-3.418 0-4.336-7.378-6.07-38.66-.62-48.123 2.758C912.127 44 817.013 69.74 822.203 104.05c.668 4.413 9.85 3.946 11.048 3.946 9.08 0 18.395.975 27.214-1.188 43.81-10.746 88.446-41.628 123.467-67.453 5.645-4.162 28.04-21.204 24.464-33.13-.987-3.29-6.72-7.3-24.065-1.188-30.82 10.878-63.725 35.204-88.752 55.225-5.88 4.704-23.653 16.658-16.174 15.775 19.25-2.27 124.06-7.09 157.784-46.544 2.346-2.744 5.208-9.056 1.97-10.65-25.853-12.72-74.938 17.543-93.487 29.98-11.99 8.04-23.347 17.04-34.316 26.425-1.886 1.613-3.358 3.902-3.946 6.313-.78 3.193-1.64 7.012 0 9.86 1.875 3.257 15.403 4.282 17.36 4.344 9.2.292 18.447.84 27.613 0 34.728-3.188 74.854-27.5 104.926-43.396 2.608-1.38 14.91-8.4 16.564-13.806.808-2.643 2.21-7.35-.39-8.282-23.72-8.494-87.426 19.534-102.957 36.293-11.155 12.037-20.765 25.472-29.98 39.05-.96 1.414-.918 3.685 0 5.126 8.55 13.42 44.92 1.996 55.616-2.758 26.663-11.85 60.234-27.385 85.604-42.997 3.034-1.867 28.84-18.01 32.738-27.613.644-1.587-1.07-4.04-2.758-4.336-6.48-1.137-13.45-1.573-19.73.39-34.6 10.823-92.33 39.326-119.52 63.117-7.824 6.845-15.503 16.083-16.564 26.425-.48 4.673 8.766 3.618 13.408 4.336 6.03.934 26.526-.425 31.558-2.36 26.184-10.062 100.27-39.584 133.328-62.327 2.278-1.567 3.365-4.735 3.555-7.493.968-14.025-38.594-.794-43.396.79-43.596 14.378-103.814 35.096-122.28 82.048-1.218 3.097 6.535 1.444 9.86 1.57 22.228.843 31.015 2.29 50.1-5.126 37.712-14.652 76.17-27.786 112.42-45.755 6.01-2.98-13.425-.407-20.12 0-4.12.25-8.338.585-12.228 1.97-15.78 5.614-31.298 12.002-46.544 18.94-12.525 5.7-25.015 11.64-36.684 18.932-12.6 7.874-24.368 17.05-35.895 26.425-.715.582-.825 2.353 0 2.766 2.376 1.19 5.227 1.155 7.884 1.18 11.574.106 23.483 2.005 34.715-.79 42.496-10.572 83.36-26.915 125.436-39.05 12.663-3.653 51.016-12.87 38.66-8.282-101.76 37.79-92.627 20.586-158.182 58.382-1.78 1.026-3.333 2.774-3.946 4.735-.784 2.508-1.108 5.5 0 7.884 1.69 3.632 14.264 5.1 15.385 5.134 51.215 1.056 64.98-.754 119.92-17.752 5.653-1.75-11.868-.628-17.752 0-4.058.433-8.018 1.697-11.83 3.157-8.577 3.284-17.094 6.808-25.245 11.04-5.57 2.89-10.717 6.557-15.783 10.26-1.802 1.317-3.994 2.63-4.735 4.735-1.858 5.28-2.555 10.97-2.758 16.564-.067 1.83.675 3.83 1.97 5.126 21.49 21.49 69.007-.18 91.91-6.305 8.324-2.226 32.694-1.18 25.253-5.524-9.993-5.834-23.193-1.076-34.715 0-27.57 2.574-65.6 14.178-90.33 21.7-6.032 1.832-36.036 12.824-29.59 22.487 18.57 27.835 92.896-3.04 108.083-7.493 12.5-3.66 27.218-3.737 37.082-12.228 5.78-4.975-15.286-.72-22.878 0-7.727.732-15.348 2.454-22.878 4.336-15.632 3.907-31.26 7.94-46.552 13.017-20.374 6.766-41.075 13.035-60.35 22.487-2.255 1.106-2.24 5.444-.79 7.493 1.493 2.107 4.917 1.793 7.493 1.97 9.054.617 18.26 1.826 27.222.4 56.4-8.984 113.608-15.525 168.433-31.558 13.854-4.05-28.572-4.62-42.997-5.126-23.263-.814-46.643-.974-69.82 1.18-12.386 1.15-24.29 5.415-36.293 8.68-8.695 2.366-20.95 7.842-28.003 13.017-2.746 2.014-5.932 13.535-3.157 14.986 40.45 21.148 111.04 10.386 149.9-6.704.496-.218.932-1.547.39-1.578-43.34-2.513-85.71 10.987-125.835 26.034-7.407 2.778-21.52 7.937-26.034 16.963-.882 1.763-1.32 4.45 0 5.915 1.644 1.827 4.653 1.775 7.102 1.977 8.782.725 17.678 1.858 26.425.79 37.66-4.6 74.88-12.314 112.427-17.752 10.59-1.534 42.202-6.222 31.95-3.157-11.547 3.452-24.107 1.83-35.895 4.336-43.152 9.18-120.562 25.916-158.97 48.123-1.74 1.005-4.984 4.3-3.157 5.134 30.688 14.017 85.656-6.656 114.794-13.017 16.854-3.68 34.132-5.333 50.88-9.47 6.668-1.647-13.85.296-20.5 1.97-20.655 5.188-40.896 11.927-61.14 18.54-19.607 6.406-39.533 12.132-58.382 20.5-7.403 3.3-13.994 8.475-19.72 14.205-1 1.002 2.53 1.52 3.946 1.578 14.977.603 30.117 2.437 44.966.39 30.22-4.166 60.12-10.863 89.54-18.932 6.593-1.808-13.714-.747-20.5 0-6.435.708-12.713 2.537-18.932 4.336-14.7 4.253-29.46 8.426-43.786 13.806-16.877 6.338-33.974 12.5-49.71 21.307-1.954 1.092-1.722 4.904-.39 6.704 1.484 2.006 4.6 2.235 7.102 2.367 14.968.793 30.112 2.402 44.966.39 28.113-3.807 55.637-11.187 83.236-17.752.514-.122-37.52-2.104-49.71 0-25.708 4.436-50.576 12.83-75.735 19.73-7.458 2.045-14.87 4.32-22.088 7.094-9.895 3.805-20.2 7.008-29.19 12.627-3.002 1.876-4.28 5.757-5.524 9.07-.426 1.134-.38 3.228.79 3.547 51.816 14.136 114.945-8.56 162.917-21.3 6.3-1.676 17.82.176 18.54-6.313.654-5.887-11.9-1.636-17.752-.79-36.698 5.298-62.128 11.67-95.464 25.245-.25.102-32.123 11.724-35.496 21.307-.348 1-1.03 2.947 0 3.15 44.393 8.68 86.005-2.183 128.593-15.377.916-.284.167-2.7-.79-2.766-43.26-2.974-81.24 9.124-119.13 29.98-14.964 8.237-14.986 13.97-7.892 17.752 33.02 17.605 125.564-6.99 157.002-16.963.45-.143-.317-1.21-.79-1.18h-22.487c-5.307.327-10.65.95-15.775 2.36-23.583 6.5-47.123 13.252-70.22 21.307-8.273 2.886-16.304 6.69-23.667 11.44-1.235.796-2.228 4.04-.79 4.336 18.952 3.897 47.103-.52 64.695-3.946 13.428-2.616 26.454-7.04 39.84-9.86 112.545-23.723 37.858-9.048 25.636-5.126l-70.6 23.667c-10.197 3.68-25.124 2.923-29.972 12.62l-2.766 1.578c-.294.59.53 1.535 1.188 1.578 42.572 2.84 107.153-12.043 146.345-22.878 17.13-4.735-35.31 4.84-52.467 9.47-20.957 5.656-41.154 13.84-61.538 21.3-5.14 1.88-10.14 4.164-14.986 6.704-3.457 1.81-6.83 3.855-9.86 6.313-1.884 1.528-5.008 3.114-4.735 5.524.51 4.503 2.31 10.715 6.704 11.83 27.027 6.856 58.813.186 85.205-5.524 19.295-4.174 77.106-10.814 57.593-13.806l-1.578-2.36c-4.55-.698-9.287-.87-13.806 0-13.997 2.7-27.732 6.662-41.42 10.65-22.878 6.665-45.714 13.532-68.242 21.3-11.82 4.075-23.333 9.025-34.715 14.197-.48.218-.525 1.55 0 1.578 58.6 3.125 99.41-10.686 160.55-26.034 3.064-.77-6.48-.625-9.47.4-44.74 15.325-89.237 31.405-133.328 48.513-8.827 3.425-17.06 8.26-25.245 13.017-1.608.935-3.463 2.15-3.946 3.946-.556 2.068-.472 4.96 1.188 6.313 3.31 2.698 20.68 3.22 22.878 3.157 18.424-.53 36.988-.098 55.225-2.766 137.676-20.14 76.024-21.074 36.293-7.884-21.793 7.235-43.298 15.332-64.695 23.667-23.844 9.288-47.696 18.622-71 29.19-1.136.515-1.78 2.45-1.188 3.547.67 1.247 2.535 1.452 3.946 1.578 7.47.67 15 1.25 22.487.79 16.1-.99 32.278-2.096 48.123-5.126 121.417-23.216 38.34-13.378 26.034-9.47-25.6 8.134-50.793 17.616-75.735 27.613-9.552 3.828-18.598 8.844-27.613 13.806-2.72 1.498-5.345 3.29-7.5 5.524-1.47 1.524-2.944 3.41-3.15 5.516-.347 3.572-2 10.364 1.578 10.65 33.954 2.713 68.364 1.895 102.16-2.36 120.15-15.127 52.37-21.636 21.307-22.487-44.383-1.216-92.202 2.4-132.937 22.088-3.188 1.54-7 2.652-9.07 5.524-2.313 3.21-6.192 8.903-3.157 11.44 29.872 24.96 96.694 17.033 122.678 16.963 19.745-.053 58.932 16.978 59.17-2.766.265-21.933-38.85-38.742-58.78-29.58-82.62 37.974-29.018 79.73-2.758 103.738 12.128 11.087 24.762 21.65 37.872 31.558 4.696 3.55 9.723 7.045 15.377 8.68 1.397.404.216-3.023-.39-4.344-1.675-3.647-4.03-6.952-6.313-10.25l-32.738-46.154c-10.538-14.094-21.046-28.266-32.738-41.42-7.293-8.204-15.093-16.155-24.065-22.48-1.503-1.06-.683 3.81 0 5.516 2.797 6.99 6.386 13.664 10.26 20.12 2.462 4.103 5.44 7.9 8.673 11.44 6.782 7.406 13.692 14.753 21.307 21.3 7.42 6.378 15.583 11.85 23.667 17.36 3.5 2.388 7.23 4.452 11.04 6.305 5.933 2.885 11.92 5.726 18.15 7.892 3.287 1.142 6.873 2.813 10.25 1.977 2.91-.72-5.925-1.173-8.673-2.367-18.453-8.023-36.31-17.4-54.834-25.245-14.368-6.092-28.973-11.663-43.786-16.572-7.84-2.6-15.96-4.322-24.065-5.915-7.298-1.434-14.663-2.73-22.088-3.157-10.895-.627-22.52-3.832-32.738 0-7.173 2.7-12.374 10.42-14.595 17.752-3.32 10.954-2.26 22.922-1.18 34.316.652 6.87 3.297 13.5 6.305 19.72 3.227 6.663 7.692 12.7 12.228 18.54a147.8 147.8 0 0 0 14.994 16.572c5.15 4.893 10.738 9.343 16.564 13.408 5.513 3.846 11.377 7.198 17.36 10.26 20.6 10.537 46.355 17.553 69.422 14.197 3.914-.57 9.195.1 11.44-3.157 7.936-11.52-6.217-31.5-12.62-39.05-27.9-32.916-58.957-64.007-91.518-92.3-7.243-6.294-19.894-17.2-30.37-14.994-3.024.637-4.153 13.018-2.367 42.208 1.775 29 26.384 58.538 47.724 75.345 5.222 4.113 28.558 19.387 39.05 11.44 8.304-6.3 1.392-40.28-3.15-49.3-9.174-18.245-18.478-36.512-29.59-53.647-20.928-32.272-30.25-44.542-56.405-65.086-2.13-1.672-4.59-2.933-7.102-3.938-2.132-.852-6.83-3.87-6.704-1.578 2.1 37.77 14.4 92.165 56.405 108.473 2.527.98 6.546 4.323 7.892 1.97 2.376-4.157-.694-22.112-2.367-27.214-1.8-5.484-10.747-58.575-30.77-72.188-.73-.496-1.07 1.492-1.18 2.367-1.87 15.088-3.85 30.187-4.735 45.365-2.648 45.448-.554 38.847 21.698 87.174.7 1.52 3.347 5.207 3.547 3.547 4.367-36.22-13.77-60.748-31.558-94.276-2.494-4.7-22.9-37.738-34.715-46.544-1.738-1.294-4.344-2.5-6.305-1.578-6.396 3.002-9.08 14.842-9.868 20.12-5.12 34.22-11.924 81.664 1.977 114.396 1.204 2.834 5.51 10.147 5.915 7.094 6.53-49.37-2.633-58.23-7.102-106.106-1.688-18.084-.588-36.36-2.367-54.436-.12-1.206-2.33 1.234-2.758 2.367-4.887 12.953-9.44 26.067-13.017 39.442-3.01 11.262-4.714 22.838-6.704 34.324-.905 5.222-1.75 10.48-1.977 15.775-.565 13.27-5.005 27.387-.39 39.84 3.18 8.58 10.554-28.913 10.65-29.58 2.363-16.532 5.026-33.05 6.313-49.7.82-10.62.5-21.316 0-31.957-.035-.743-.85-1.427-1.578-1.578-26.513-5.512-43.157 62.778-46.943 76.134-3.384 11.936-6.75 23.974-8.282 36.285-1.77 14.232-12.943 34.248-1.578 42.997l1.578 3.157c5.84 4.496 9.706-8.027 10.25-10.25 3.77-15.39 6.48-31.13 7.5-46.943 2.143-33.204 1.608-66.53 1.97-99.8.033-3.035-.023-6.134-.79-9.07-.133-.51-1.388-.49-1.578 0l-17.353 38.262c-14.15 36.54-25.455 74.162-40.24 110.45-1.842 4.52-.008-9.863 1.188-14.595 5.4-21.38 12.867-42.197 18.54-63.507 7.213-27.086 43.51-97.082 20.112-81.65-14.366 9.474-57.237 154.136-65.476 174.348-2.34 5.744.395-12.452 1.578-18.54C843.78 895.72 850 874.44 854.16 852.73c6.1-31.824 20.38-63.725 16.174-95.855-2.503-19.126-15.445 35.4-21.698 53.647-11.647 33.992-21.072 68.706-31.957 102.95-.82 2.582-1.792 5.148-3.15 7.493-.198.343-1.184.396-1.188 0-1.186-113.248-.272-44.068 12.228-173.95 1.464-15.213-3.622 30.388-6.704 45.357-3.37 16.37-8.043 32.45-12.627 48.52-5.02 17.597-10.387 35.1-16.174 52.46-2.108 6.324-4.628 12.522-7.493 18.54-1.097 2.305-4.265 8.865-4.336 6.313-1.1-39.957 4.268-80.06 1.18-119.912-.325-4.196-7.185 4.635-9.86 7.884-2.955 3.588-5.005 7.9-6.704 12.228-8.178 20.83-15.696 41.922-22.878 63.117-3.606 10.64-7 43.308-9.47 32.347-4.43-19.654 2.683-40.217 3.157-60.36.58-24.58 3.46-49.417 0-73.758-.503-3.536-7.887-3.452-10.65-1.188-6.405 5.25-9.712 13.502-13.416 20.91-5.668 11.335-10.14 23.242-14.595 35.106-4.5 11.95-8.803 23.995-12.228 36.293-4.603 16.528-11.337 67.24-11.83 50.092-1.14-39.697 8.4-79.045 9.86-118.732.158-4.292-4.255 7.486-5.915 11.447l-35.903 88.354c-3.057 7.262-5.607 14.934-10.25 21.3-1.32 1.808-.606-4.475-.4-6.704.715-7.665 1.95-15.275 3.157-22.878 2.343-14.75 6-29.316 7.493-44.177 1.538-15.317 2.758-30.805 1.578-46.154-.397-5.17-8.744 1.26-9.86 2.758-4.8 6.437-9.028 13.336-12.62 20.518-12.205 24.412-17.732 52.79-34.715 74.157-6.22 7.824-1.125-20.012-.4-29.98 1.645-22.563 4.764-44.996 7.5-67.453.24-1.957.645 4.052 0 5.915-5.312 15.345-12.65 29.95-17.752 45.365-7.27 21.965-15.065 43.924-19.33 66.664-1.164 6.206 7-10.544 9.86-16.174 5.57-10.963 10.84-22.102 15.385-33.527 5.196-13.06 10.166-26.265 13.806-39.84 2.693-10.043 3.872-20.447 5.126-30.77.46-3.785 3.382-13.2 0-11.44-51.25 26.676-47.766 56.876-78.892 108.083-2.867 4.717 1.92-10.902 3.555-16.174 11.388-36.695 29-71.792 35.496-109.66 4.16-24.285-18.3 45.77-28.402 68.242-8.052 17.914-16.6 35.626-26.034 52.858-4.41 8.063-9.743 15.623-15.385 22.878-2.682 3.45-5.607 11.13-9.462 9.07-3.744-1.998 1.572-8.47 3.547-12.228 22.677-43.132 45.06-93.966 79.68-131.35 4.885-5.275 9.686-11.74 16.572-13.806 2.907-.872.378 6.27-.79 9.07-4.818 11.56-10.86 22.6-16.963 33.527-10.998 19.713-22.57 39.106-34.316 58.382-3.644 5.98-7.612 11.77-11.837 17.353-6.828 9.023-13.638 18.105-21.3 26.433-4.48 4.87-9.7 9.046-14.994 13.017-2.115 1.586-4.475 3.19-7.094 3.547-.94.128-1.578-1.42-1.578-2.367 0-57.966 21.828-113.11 48.123-164.09 1.676-3.25 7.67-12.207 6.704-8.68-4.328 15.81-10.03 31.3-16.963 46.154-8.76 18.77-19.5 36.562-29.98 54.428-7.2 12.27-24.85 32.62-32.738 41.42-9.466 10.558-33.674 32.214-35.106 3.555-2.104-42.113-.888-67.147 17.752-102.957 2.82-5.418 11.758-21.014 20.9-23.667 4.098-1.19 5.534 7.14 4.344 24.854-.807 12.025-1.362 24.217-4.344 35.895-8.908 34.877-30.547 80.544-61.53 101.37-5.376 3.613-17.12 8.066-19.33 1.977-4.828-13.31.45-28.715 4.735-42.208 17-53.557 50.803-107.208 90.33-146.735 1.165-1.165 3.53-3.803 4.336-2.367 1.423 2.53.35 6.002-.79 8.673-11.807 27.71-24.762 54.926-37.864 82.048-18.748 38.81-39.946 75.007-68.64 107.293-2.78 3.128-9.445 12.85-9.07 8.68 1.054-11.764 31.416-85.9 31.95-87.174 8.4-19.902 17.076-39.7 26.433-59.17 5.25-10.923 11.23-21.5 17.353-31.95 3.354-5.73 6.688-11.566 11.048-16.572.955-1.097.276 3.056-.4 4.344-11.08 21.17-22.367 42.258-34.707 62.718-7.93 13.147-28.924 43.808-42.208 57.983-13.923 14.857-28.062 29.55-42.997 43.388-4.844 4.488-11.345 15.943-16.174 11.44-5.58-5.205 1.72-15.3 4.336-22.48 13.883-38.04 38.28-99.857 67.062-131.75 8.97-9.94 18.268-19.733 28.792-28.01 3.27-2.57 8.993-6.98 11.837-3.946 2.893 3.085-2.198 31.63-2.766 33.926-11.622 46.957-41.006 89.354-72.58 125.046-7.454 8.427-15.8 16.023-24.065 23.667-2.41 2.232-4.92 4.5-7.884 5.915-2.936 1.4-6.374 3.368-9.47 2.367-2.467-.798-4.246-4.128-3.946-6.704 2.66-22.85 6.84-45.585 12.627-67.852 4.08-15.704 28.014-71.877 35.106-85.986 1.64-3.262 21.25-40.98 31.95-46.154 2.63-1.272-.02 6-1.18 8.68-7.7 17.813-16.113 35.336-25.245 52.46-18.646 34.96-41.684 69.866-72.188 95.855-8.63 7.352-16.975 15.293-26.823 20.91-7.223 4.12-19.884 15.288-23.667 7.884-6.744-13.2 1.165-29.89 5.126-44.177 7.78-28.07 32.926-67.217 51.28-90.33 9.746-12.274 19.665-24.448 30.37-35.895 2.642-2.825 6.396-9.05 9.47-6.704 3.218 2.457-1.396 8.016-2.758 11.83-1.94 5.433-4.465 10.652-7.102 15.783-7.098 13.813-13.616 28.005-22.088 41.02-9.727 14.942-20.476 29.296-32.347 42.6-17.644 19.77-35.63 39.48-56.014 56.413-13.25 11.01-29.1 18.49-44.177 26.823-1.267.7-3.178.86-4.344 0-13.74-10.12 3.17-54.103 8.68-66.273l32.738-69.82c4.726-9.496 41.902-54.926 28.8-11.44-7.778 25.816-16.897 51.35-28.402 75.735-6.225 13.193-15.343 24.902-24.456 36.293-15.874 19.843-30.883 33-51.678 46.544-3 1.96-6.373 3.487-9.86 4.344-4.626 1.137-11.69 5.616-14.205 1.57-6.06-9.745-9.135-22.902-5.915-33.918 13.302-45.51 58.944-147.83 110.06-178.294 3.384-2.017 11.605-8.947 10.65-5.126-16.174 64.673-89.818 138.727-144.774 172.77-8.804 5.453-17.638 18.93-27.214 14.986-9.085-3.74-9.87-19.633-6.313-28.792 8.7-22.403 26.507-40.115 40.63-59.56 19.42-26.74 45.805-58.915 69.82-82.048 6.358-6.124 35.52-32.2 49.7-35.106 2.486-.51-1.356 4.98-2.758 7.094-6.656 10.04-13.932 19.662-21.3 29.19-4.738 6.128-9.733 12.067-14.994 17.752-11.053 11.943-22.288 23.73-33.926 35.106-5.733 5.603-11.477 11.33-18.143 15.783-25.877 17.288-52.208 33.957-79.282 49.302-1.845 1.046-5.028.897-6.313-.79-1.514-1.986-.508-5.048 0-7.493 1.6-7.745 2.53-15.93 6.313-22.878 17.884-32.85 47.434-69 74.547-94.276 10.12-9.434 21.663-17.353 33.535-24.456 15.534-9.293 16.776-1.122 10.65 14.197-3.196 7.99-21.16 40.18-30.77 49.3C80.77 810.75 55.85 832.4 30.52 853.51c-12.38 10.316-41.894 23.096-53.655 27.222-2.976 1.044-7.493 2.464-9.462 0-4.05-5.068 3.012-20.73 5.126-24.065 6.477-10.217 27.478-39.53 38.66-50.5 27.37-26.824 54.448-54.048 83.627-78.892 7.303-6.218 15.817-12.043 25.245-13.806 5.584-1.044-8.01 8.135-12.627 11.447-12.65 9.078-25.8 17.46-39.05 25.636-5.305 3.273-10.818 6.264-16.564 8.68-17.422 7.326-34.608 15.598-52.858 20.5-12.774 3.44-26.405 6.534-39.45 4.336-3.56-.6.036-7.605 1.977-10.65 4.96-7.78 11.102-14.944 18.143-20.91 13.727-11.628 28.507-22.054 43.786-31.55 32.373-20.12 65.215-39.577 99.01-57.202 9.216-4.806 19.51-7.297 29.58-9.86 4.476-1.14 17.663-3.72 13.806-1.18-60.422 39.808-70.54 39.294-143.587 46.154-14.27 1.34-28.674.516-42.997 0-3.995-.144-8.52.267-11.83-1.977-1.745-1.183-1.675-4.635-.4-6.313 3.73-4.903 8.268-10.18 14.205-11.83 42.915-11.926 86.654-20.962 130.57-28.402 12.185-2.064 49.313-1.718 37.074 0-14.682 2.06-53.932 5.9-76.134 1.18-17.468-3.714-34.917-7.642-52.068-12.62-45.868-13.31-43.278-29.737 4.735-37.082 32.53-4.977 84.88-6.227 116.365 7.5a28.51 28.51 0 0 1 8.681 5.915c3.184 3.18-7.59 6.834-10.65 7.102-11.265.988-22.795 1.996-33.926 0-25.556-4.582-60.62-18.18-84.416-30.77-9.2-4.862-17.953-10.545-26.425-16.572-4.325-3.077-9.463-5.903-11.837-10.65-.965-1.928 1.803-4.888 3.946-5.126 13.983-1.553 28.2-1.413 42.208 0 42.1 4.25 83.925 11.054 125.835 16.963 1.823.257-3.717.355-5.524 0a169.83 169.83 0 0 1-18.541-4.735c-20.886-6.624-41.354-14.54-62.32-20.91-24.938-7.574-50.557-12.847-75.345-20.9-1.877-.6-5.52-4.562-3.555-4.735 46.524-4.1 106.6-6.416 153.057 9.07 3.377 1.126-7.09.875-10.65.79-7.38-.178-14.823-.272-22.088-1.578-4.544-.817-8.783-2.893-13.017-4.735-9.98-4.343-19.917-8.817-29.59-13.806-10.987-5.667-21.747-11.782-32.347-18.143-5.19-3.115-10.11-6.67-14.986-10.26-4.598-3.385-9.324-6.667-13.416-10.65-5.937-5.78-21.688-12.022-16.564-18.533 8.522-10.83 26.067-11.502 39.84-11.048 7.483.247 77.15 25.617 84.806 28.792 9.723 4.033 19.25 8.604 28.402 13.806 4.322 2.457 10.718 4.228 11.837 9.07.782 3.382-4.826 6.633-8.282 6.313-21.774-2.01-43.74-5.56-64.296-13.017-19.44-7.053-70.3-31.406-87.573-55.225-.545-.752-1.04-2.088-.4-2.758C6.1 421.05 24.84 421.065 40.38 425.135c33.123 8.674 63.99 24.402 96.245 35.895 13.516 4.816 26.717 14.04 41.028 13.017 10.974-.784-20.23-8.71-29.98-13.806-4.88-2.55-9.342-5.847-13.806-9.07-51.425-37.143-105.68-70.738-153.846-112.02-8.426-7.222 21.67 4.86 32.347 7.884 42.717 12.097 83.458 35.51 127.812 37.473 14.792.654-19.09-22.7-29.59-33.13-12.677-12.602-26.805-23.664-39.84-35.895-8.273-7.762-16.4-15.71-24.065-24.065-7.198-7.835-13.85-16.16-20.5-24.456-.34-.423-.775-1.196-.39-1.578 3.864-3.848 16.082-1.11 31.95 5.126 14.208 5.584 65.138 44.115 70.21 48.123 14.414 11.388 66.534 64.82 1.188 23.276-10.417-6.622-19.6-15.046-28.8-23.276-10.81-9.67-21.425-19.62-31.16-30.37-10.42-11.507-21.18-22.99-29.19-36.285-10.655-17.683-18.28-37.044-26.425-56.014-.727-1.692-1.56-4.545 0-5.524 40.66-25.527 91.102 11.002 113.208 44.575 5.873 8.92 17.647 29.12 15.775 42.997-.18 1.327-2.786-.106-3.938-.79-2.493-1.478-4.798-3.348-6.712-5.524-14.42-16.397-28.484-33.115-42.208-50.1L-10.9 94.98c-.666-.826-2.51-2.608-2.766-1.578-.415 1.66 1.015 3.32 1.977 4.735 5.767 8.48 11.17 17.327 18.143 24.846 31.74 34.223 64.1 67.922 97.824 100.19 15.12 14.468 28.926 32.493 48.52 39.84 11.065 4.15-13.067-19.71-20.12-29.19-16.62-22.345-32.867-45.027-50.88-66.265-12.15-14.325-25.348-27.83-39.45-40.24-5.755-5.064-13.433-7.445-19.72-11.83-.754-.526 1.917-.372 2.758 0 7.258 3.213 14.43 6.672 21.3 10.65 29.7 17.2 57.914 37.018 88.362 52.858 18.48 9.613 37.808 18.128 57.99 23.276 7.6 1.938-12-10.623-19.33-13.416-48.143-18.34-99.284-28.74-146.345-49.7-4.313-1.92 118.418 29.557 110.45-1.18-2.184-8.426-4.996-28.658-11.837-23.276-11.512 9.057-21.47 30.844-12.228 42.208 8.81 10.835 30.792 2.75 41.42-6.313 9.707-8.278 15.018-25.595 9.47-37.082-18.46-38.22-43.112-75.603-76.532-101.77C60.234-10.076 23-17.503-11.69-24.54c-5.303-1.076-7.05 9.185-7.102 14.595-.09 9.216.2 20.292 6.704 26.823 55.85 56.098 119.674 87.32 198.023 89.932 16.473.55 36.592 2.53 46.154-14.197 7.71-13.484.242-40.242-6.313-50.1-37.466-56.34-122.185-129.72-192.5-132.93-1.88-.086-4.545-.428-5.524 1.18-4.004 6.576 5.696 16.9 8.68 19.33 18.372 14.962 36.9 29.962 57.194 42.208 38.3 23.122 90.22 34.494 132.148 42.6 7.618 1.472 15.586 1.03 23.276 0 3.322-.445 7.67-1.292 9.07-4.336 7.554-16.423-15.305-49.266-25.644-54.436-54.817-27.408-109.733-60.405-170.4-69.03-15.027-2.137-2.543 31.643 3.946 45.365C82.088-33.552 163.008 6.494 196.584 14.5c32.74 7.816 66.14 15.488 99.8 15.385 11.41-.035 21.23-8.955 30.37-15.783 2.4-1.793 2.17-5.682 2.367-8.673.73-11.153 1.435-22.4.4-33.527-2.74-29.418-33.234-69.31-66.273-65.875-12.626 1.312-9.496 47.83-9.47 48.123 2.96 32.832 38.846 68.52 63.515 87.565 15.7 12.128 39.68 21.8 55.225 2.367 15.7-19.612 19.938-66.587 14.197-89.54-10.015-40.047-42.197-62.444-62.718.79-8.36 25.762-7.703 53.785-7.892 80.87-.14 20.168 8.11 40.788 22.487 54.826 2.616 2.554 5.498 4.905 8.68 6.704 2.933 1.657 6.117 3.15 9.462 3.547 6.79.804 13.75 1.025 20.5 0a22.44 22.44 0 0 0 10.658-4.727c11.592-9.482 22.537-19.805 32.738-30.77 29.685-31.905 37.098-94.303 44.966-130.96.442-2.058 1.238-4.61 0-6.313-11.115-15.282-38.68 21.532-43.388 31.168-19.337 39.584-24.5 73.5-24.065 118.334.462 47.818 31.272 41.313 55.225 13.408 6.99-8.142 13.546-16.754 18.932-26.034 7.025-12.106 12.495-25.06 18.15-37.864 5.79-13.11 11.096-26.437 16.174-39.84 2.946-7.776 7.34-15.37 7.884-23.667.19-2.877-3.252-7.42-5.915-6.313-8.007 3.326-13.995 10.45-19.72 16.963-7.78 8.85-14.712 18.534-20.5 28.792-19.957 35.3-29.493 75.36-23.276 115.576 1.903 12.312 24.11 16.157 32.738 9.07 5.532-4.544 10.74-9.54 15.385-14.986 6.042-7.085 11.683-14.563 16.572-22.487 6.578-10.66 12.446-21.777 17.744-33.13 6.682-14.317 15.342-28.238 18.15-43.786 4.398-24.347 9.622-50.275 3.157-74.157-2.42-8.94-12.205 13.998-17.36 21.7-13.03 19.438-17.573 48.333-20.112 70.22-1.304 11.243-2.376 22.628-1.578 33.918 1.05 14.88 1.597 30.318 7.094 44.185 3.79 9.558 33.748-7.885 39.45-12.627 34.374-28.582 62.96-63.107 80.86-104.527 5.708-13.208 9.72-27.122 13.416-41.028.8-3.048 3.14-9.75 0-9.462-12.136 1.116-24.01 6.116-34.316 12.62-24.224 15.282-54.64 48.295-57.593 79.3-.8 8.507-4.696 18.497 0 25.636 11.18 16.993 49.525 28.342 69.03 18.54 20.3-10.204 38.656-24.318 55.616-39.45 8.987-8.02 14.81-19.04 21.307-29.183C707.8 4.48 710.092-.95 712.15-6.4c3.866-10.228 7.186-20.664 10.25-31.16a85.98 85.98 0 0 0 2.766-13.416c.752-6.013 6.45-21.133 1.18-18.143-59.165 33.57-132.962 80.418-122.28 159.752 1.173 8.71 29.304 6.47 33.918 3.946 9.374-5.13 18.675-10.792 26.433-18.143 38.9-36.86 57.293-55.818 80.08-99.01 4.603-8.725 22.32-43.062 17.353-57.983-.242-.726-1.248-1.437-1.97-1.18h-8.3c-8.64 3.084-17.72 6.056-24.846 11.83-16.69 13.52-33.285 27.882-45.763 45.365-22.994 32.215-33.427 61.757-31.16 99.01 1.58 25.976 35.067 21.654 50.5 12.228 13.26-8.104 23.837-20.082 34.316-31.558 8.938-9.788 16.862-20.58 23.675-31.95 15.945-26.612 28.78-49.17 34.707-78.5.677-3.35 2.743-8.214 0-10.25-7.265-5.394-22.38 3.573-26.823 7.493-39.87 35.178-95.768 85.56-73.766 148.314 3.134 8.94 33.265-3.135 37.872-5.915 48.54-29.294 91.303-74.192 119.13-123.467 1.803-3.193 3.296-7.022 2.758-10.65-.212-1.43-2.976-.488-4.336 0-16.025 5.743-24.088 9.37-36.684 19.72-29.33 24.102-48.41 55.07-61.148 90.73-12.272 34.358 40.197 7.484 45.365 3.938 12.4-8.515 24.487-17.728 35.106-28.394 18.406-18.49 35.575-38.254 51.678-58.78 1.46-1.86 2.356-6.888 0-7.094-7.66-.67-15.818 1.3-22.487 5.126-29.2 16.743-51.57 47.14-68.242 75.337-5.616 9.498-9.374 26.387-4.727 37.082 3.435 7.904 36.23 4.508 41.42 1.578C881.3 59.433 931.272 12.72 966.58-36.77c1.756-2.462-6.11-.614-9.07 0-4.115.853-8.035 2.548-11.837 4.336-5.165 2.43-10.766 4.44-14.986 8.282-31.148 28.358-63.763 55.603-90.73 87.963-4.985 5.982-2.61 15.516-1.97 23.276.3 3.754 1.85 7.838 4.735 10.26 24.16 20.28 67.795 2.14 88.354-9.08 42.56-23.227 76.458-51.222 104.934-88.752 2.14-2.82 7.904-6.46 5.516-9.07-3.105-3.397-9.552-1.754-13.806 0-11.174 4.607-21.477 11.308-31.16 18.54-30.616 22.87-48.82 45.18-67.852 79.68-15.584 28.252 36.833 20.632 43.396 18.932 12.602-3.264 24.16-9.75 35.895-15.385 11.56-5.55 22.93-11.546 33.926-18.143 10.07-6.04 20.37-11.97 29.19-19.72 15.09-13.255 29.438-27.496 42.208-42.997 4.636-5.627 6.892-12.898 9.462-19.72.885-2.35.912-4.985.79-7.493-1.566-32.1-54.69 1.498-65.476 9.07-31.146 21.867-62.878 52.595-78.5 87.963-15.1 34.206-6.692 60.328 36.684 52.068 13-2.474 25.382-7.664 37.473-13.017 15.86-7.02 59.433-32.443 74.165-42.208 10.983-7.28 22.012-14.623 31.95-23.276 17.602-15.328 34.092-31.904 50.5-48.513 4.01-4.063 16.36-13.416 10.65-13.416-21.25 0-42.726 5.192-62.32 13.416-22.56 9.47-99.362 76.12-107.692 86.385-11.054 13.62-23.52 30.722-21.3 48.123 1.24 9.712 18.696 6.2 28.402 7.493 15.03 2.005 26.02-3.127 39.442-9.07 22.108-9.792 44.152-19.75 65.875-30.37 19.708-9.635 39.937-18.502 58.382-30.38 18.267-11.762 40.674-21.27 51.28-40.23 5.04-9.008-20.876.576-30.76 3.547-18.803 5.65-68.3 33.274-82.447 41.817-15.86 9.572-31.33 19.802-46.544 30.37-6.764 4.698-13.634 9.437-19.33 15.385-9.246 9.654-18.27 19.757-25.245 31.16-1.65 2.695-2.632 8.55.39 9.47 41.037 12.495 122.985-28.176 159.37-43.786 18.54-7.955 39.025-13.1 54.826-25.644 4.098-3.253 2.064-15.732-3.157-15.377-19.333 1.316-36.728 12.4-54.826 19.322-37.153 14.2-78.398 33.317-109.66 58.382-14.027 11.246-33.626 21.185-23.276 42.6 1.63 3.37 6.92 3.263 10.65 3.555 11.536.904 23.41 2.475 34.715 0 55.674-12.19 110.365-28.527 165.277-43.786 7.58-2.106 29.88-9.408 22.096-8.282-49.446 7.152-99.326 13.304-147.533 26.425-12.883 3.506-94.054 35.857-46.544 62.327 4.15 2.313 9.12 2.766 13.806 3.547 44.755 7.457 122.194 3.683 164.886-18.143 1.573-.804 2.96-2.077 3.938-3.547.9-1.353-.505-4.1-1.97-4.344-7.163-1.194-14.45-2.44-21.698-1.97-56.027 3.637-93.987 11.933-144.368 33.918-11.954 5.216-48.117 23.415-42.997 39.84 6.846 21.963 68.618 16.052 79.282 15.783 7.512-.19 15.055-.47 22.487-1.578 41.113-6.13 82.37-11.66 123.07-20.12 7.34-1.526-14.982-.888-22.48-.79-12.5.165-25.03.367-37.473 1.578-7.855.765-15.605 2.482-23.276 4.336-16.277 3.934-32.448 8.32-48.52 13.017-7.345 2.146-14.593 4.658-21.698 7.5-6.06 2.425-12.255 4.75-17.744 8.282-7.876 5.068-16.725 9.68-22.096 17.353-4.352 6.217-11.594 17.544-5.516 22.088 13.466 10.068 32.525 9.555 49.302 10.65 33.7 2.2 93.784-8.17 125.444-14.595 3.737-.758-7.782-1.08-11.44 0-26.757 7.9-53.546 16.067-79.3 26.823-21.598 9.024-42.22 20.363-62.327 32.347-6.726 4.01-13.494 8.813-17.752 15.385-2.288 3.532-1.838 8.667-.39 12.62 2.132 5.82 22.296 6.664 26.034 6.712 26.954.347 56.324-11.144 80.87 0 11.255 5.1.526 24.716.79 37.074"/><path d="M496.33 168.063c6.714-3.442 14.297-5.58 20.142-10.326 20.67-16.783 35.038-41.95 58.912-53.865 8.045-4.015 22.46 3.743 23.872 12.547 5.495 34.27-33.942 90.513 0 64.93 7.228-5.45 14.306-11.134 20.88-17.34 6.997-6.606 13.734-13.537 19.758-21.024 8.55-10.627 37.482-35 23.872-33.206-61.518 8.062-61.35 36.74-47.36 74.524.727 1.962 4.292.52 6.337 0 2.424-.617 4.712-1.84 6.714-3.325 16.497-12.24 44.575-32.407 61.896-50.167 2.577-2.642 6.805-4.83 7.09-8.492.922-11.818-18.65-3.726-21.257-2.214-17.06 9.887-39.005 24.952-48.106 43.166-2.7 5.404-8.615 14.113-3.722 17.706l.746 4.063c10.235 7.52 26.768 5.284 37.285 2.58 25.62-6.587 67.075-41.394 83.53-60.135 6.082-6.927 11.305-14.785 14.913-23.238 1.31-3.067 2.31-8.568-.746-9.96-21.362-9.73-40.08 9.474-54.443 20.286-22.9 17.24-42.277 48.752-38.408 77.84 1.844 13.86 37.393 11.244 46.99 4.428 44.78-31.8 69-41.07 90.982-83.373.307-.6-.076-1.828-.746-1.85-7.463-.238-15.766-2.333-22.373 1.11-7.473 3.895-82.117 43.56-82.784 74.89-.08 3.698-.96 7.78.746 11.07 4.01 7.73 34.96 1.28 42.507-1.476 39.864-14.558 77.174-38.143 111.87-61.984 3.208-2.204 9.98-6.202 10.813-11.437.213-1.335 1.055-3.197 0-4.056-6.975-5.678-36.545-.58-45.49 2.58-12.32 4.352-102.233 28.418-97.327 60.508.63 4.128 9.31 3.7 10.444 3.7 8.583 0 17.39.912 25.726-1.11 41.413-10.05 83.61-38.933 116.715-63.087 5.336-3.893 26.508-19.832 23.126-30.984-.933-3.078-6.352-6.837-22.75-1.11-29.135 10.174-60.24 32.926-83.9 51.65-5.56 4.4-22.36 15.58-15.29 14.754 18.197-2.124 117.276-6.632 149.155-43.532 2.217-2.567 4.923-8.47 1.86-9.96-24.44-11.896-70.84 16.408-88.375 28.04-11.336 7.52-22.07 15.936-32.44 24.714-1.782 1.51-3.174 3.65-3.73 5.905-.736 2.987-1.55 6.558 0 9.222 1.772 3.046 14.56 4.005 16.412 4.063 8.696.273 17.438.787 26.103 0 32.83-2.98 70.76-25.72 99.188-40.587 2.466-1.3 14.095-7.856 15.66-12.913.764-2.472 2.1-6.875-.37-7.746-22.424-7.944-82.645 18.27-97.327 33.944-10.545 11.258-19.63 23.824-28.34 36.524-.907 1.322-.868 3.446 0 4.794 8.08 12.553 42.462 1.867 52.574-2.58 25.204-11.083 56.94-25.613 80.922-40.214 2.868-1.746 27.264-16.843 30.948-25.825.61-1.485-1.012-3.78-2.607-4.056-6.124-1.063-12.716-1.47-18.65.365-32.707 10.123-87.28 36.78-112.985 59.03-7.396 6.402-14.655 15.042-15.66 24.714-.453 4.37 8.286 3.383 12.674 4.056 5.7.873 25.075-.398 29.833-2.207 24.752-9.41 94.787-37.022 126.037-58.293 2.153-1.466 3.18-4.43 3.36-7.008.915-13.118-36.484-.743-41.023.738-41.212 13.447-98.137 32.824-115.593 76.738-1.152 2.897 6.177 1.35 9.32 1.47 21.013.788 29.32 2.14 47.36-4.794 35.65-13.703 72.005-25.988 106.27-42.794 5.68-2.786-12.69-.38-19.02 0-3.896.235-7.882.547-11.56 1.84-14.918 5.25-29.587 11.226-44 17.714-11.84 5.33-23.647 10.886-34.678 17.706-11.9 7.364-23.035 15.947-33.932 24.714-.676.544-.78 2.2 0 2.587 2.246 1.112 4.94 1.08 7.452 1.103 10.94.1 22.198 1.875 32.817-.738 40.172-9.887 78.802-25.173 118.577-36.524 11.97-3.416 48.226-12.037 36.547-7.746-96.196 35.343-87.562 19.253-149.532 54.603-1.683.96-3.15 2.595-3.73 4.428-.74 2.346-1.047 5.145 0 7.373 1.596 3.397 13.484 4.78 14.543 4.8 48.414.988 61.427-.705 113.362-16.603 5.344-1.636-11.22-.587-16.78 0-3.836.405-7.58 1.587-11.182 2.952-8.108 3.072-16.16 6.368-23.865 10.326-5.265 2.704-10.13 6.132-14.92 9.595-1.704 1.232-3.776 2.46-4.476 4.428-1.756 4.938-2.415 10.26-2.607 15.492-.063 1.71.638 3.583 1.86 4.794 20.316 20.1 65.233-.17 86.883-5.897 7.87-2.082 30.906-1.103 23.872-5.167-9.447-5.457-21.925-1.006-32.817 0-26.062 2.408-62.003 13.26-85.39 20.286-5.702 1.713-34.065 11.994-27.97 21.032 17.554 26.034 87.816-2.845 102.172-7.008 11.807-3.424 25.73-3.495 35.055-11.437 5.463-4.653-14.45-.673-21.627 0-7.304.685-14.508 2.295-21.627 4.056-14.777 3.654-29.55 7.425-44.007 12.175-19.26 6.328-38.83 12.192-57.05 21.032-2.132 1.034-2.12 5.09-.746 7.008 1.41 1.97 4.648 1.677 7.083 1.84 8.56.577 17.26 1.708 25.733.373 53.326-8.402 107.396-14.52 159.222-29.516 13.096-3.79-27-4.322-40.646-4.794-22-.76-44.093-.91-66.002 1.103-11.708 1.076-22.962 5.065-34.31 8.12-8.22 2.212-19.803 7.335-26.472 12.175-2.596 1.884-5.608 12.66-2.984 14.016 38.24 19.78 104.967 9.714 141.703-6.27.47-.204.88-1.447.37-1.476-40.97-2.35-81.024 10.276-118.953 24.35-7.002 2.598-20.344 7.423-24.61 15.865-.833 1.65-1.247 4.16 0 5.532 1.554 1.708 4.4 1.66 6.714 1.85 8.302.678 16.71 1.738 24.98.738 35.6-4.303 70.784-11.517 106.28-16.603 10.012-1.435 39.894-5.82 30.202-2.952-10.915 3.23-22.788 1.71-33.932 4.056-40.792 8.585-113.97 24.24-150.278 45.008-1.644.94-4.71 4.02-2.984 4.8 29 13.11 80.972-6.225 108.517-12.175 15.933-3.442 32.266-4.988 48.098-8.857 6.303-1.54-13.092.277-19.39 1.84-19.525 4.853-38.66 11.155-57.796 17.34-18.534 5.99-37.37 11.347-55.19 19.183-6.998 3.078-13.23 7.926-18.643 13.285-.947.937 2.392 1.423 3.73 1.476 14.158.564 28.47 2.28 42.507.365 28.57-3.896 56.833-10.16 84.645-17.706 6.233-1.69-12.964-.7-19.39 0-6.083.662-12.018 2.373-17.897 4.056-13.897 3.977-27.85 7.88-41.392 12.913-15.954 5.928-32.116 11.7-46.99 19.928-1.847 1.022-1.628 4.587-.37 6.27 1.403 1.876 4.358 2.09 6.714 2.214 14.15.742 28.466 2.247 42.507.365 26.575-3.56 52.594-10.463 78.684-16.603.486-.114-35.467-1.967-46.99 0-24.302 4.15-47.81 12-71.594 18.452-7.05 1.913-14.057 4.04-20.88 6.635-9.354 3.56-19.096 6.554-27.595 11.81-2.838 1.755-4.046 5.384-5.222 8.484-.402 1.06-.36 3.02.746 3.318 48.983 13.22 108.66-8.006 154.008-19.92 5.965-1.567 16.846.164 17.527-5.905.618-5.506-11.24-1.53-16.78-.738-34.69 4.955-58.73 10.916-90.244 23.61-.236.095-30.367 10.965-33.555 19.928-.33.926-.974 2.757 0 2.945 41.965 8.118 81.302-2.04 121.56-14.38.866-.265.158-2.526-.746-2.587-40.894-2.78-76.798 8.533-112.616 28.04-14.146 7.704-14.167 13.065-7.46 16.603 31.214 16.466 118.698-6.538 148.417-15.865.426-.134-.3-1.13-.746-1.103h-21.257c-5.017.306-10.067.887-14.912 2.207-22.294 6.07-44.546 12.394-66.38 19.928-7.82 2.7-15.412 6.256-22.373 10.698-1.167.745-2.106 3.78-.746 4.056 17.916 3.645 44.527-.485 61.157-3.7 12.694-2.447 25.007-6.583 37.662-9.222 106.4-22.187 35.788-8.463 24.234-4.794l-66.748 22.135c-9.64 3.44-23.75 2.734-28.333 11.802l-2.615 1.476c-.278.55.502 1.435 1.123 1.476 40.244 2.655 101.294-11.264 138.342-21.397 16.192-4.43-33.378 4.526-49.598 8.857-19.81 5.3-38.903 12.944-58.173 19.92-4.858 1.76-9.584 3.895-14.166 6.27-3.268 1.694-6.456 3.605-9.32 5.905-1.78 1.43-4.734 2.913-4.476 5.167.483 4.212 2.184 10.022 6.337 11.064 25.55 6.412 55.597.174 80.546-5.167 18.24-3.904 72.89-10.114 54.443-12.913l-1.492-2.207c-4.3-.653-8.78-.815-13.05 0-13.232 2.525-26.216 6.23-39.154 9.96-21.627 6.234-43.214 12.656-64.5 19.92-11.173 3.81-22.057 8.44-32.817 13.278-.453.204-.497 1.45 0 1.476 55.405 2.922 93.973-9.994 151.77-24.35 2.897-.72-6.127-.585-8.952.373-42.295 14.333-84.357 29.372-126.037 45.373-8.344 3.203-16.126 7.726-23.865 12.175-1.52.874-3.274 2-3.73 3.7-.526 1.934-.446 4.64 1.123 5.905 3.128 2.523 19.55 3.01 21.627 2.952 17.416-.496 34.965-.092 52.205-2.587 130.147-18.835 71.867-19.7 34.31-7.373-20.6 6.767-40.93 14.34-61.157 22.135-22.54 8.687-45.088 17.417-67.118 27.3-1.074.482-1.68 2.29-1.123 3.318.635 1.167 2.396 1.358 3.73 1.476 7.062.626 14.18 1.168 21.257.738 15.22-.925 30.513-1.96 45.49-4.794 114.777-21.713 36.243-12.512 24.61-8.857-24.21 7.608-48.015 16.476-71.594 25.825-9.03 3.58-17.58 8.27-26.103 12.913-2.57 1.4-5.053 3.076-7.09 5.167-1.39 1.425-2.783 3.188-2.976 5.16-.328 3.34-1.9 9.693 1.492 9.96 32.097 2.538 64.626 1.773 96.573-2.207 113.58-14.148 49.505-20.235 20.142-21.032-41.956-1.138-87.16 2.245-125.667 20.66-3.013 1.44-6.618 2.48-8.575 5.167-2.187 3-5.853 8.326-2.984 10.698 28.24 23.343 91.406 15.93 115.97 15.865 18.665-.05 55.7 15.88 55.935-2.587.25-20.514-36.725-36.234-55.566-27.667-78.1 35.516-27.43 74.57-2.607 97.024 11.465 10.37 23.408 20.25 35.8 29.516 4.44 3.32 9.19 6.59 14.536 8.12 1.32.378.204-2.827-.37-4.063-1.583-3.41-3.81-6.502-5.968-9.588l-30.948-43.166c-9.962-13.182-19.895-26.437-30.948-38.738-6.894-7.673-14.268-15.11-22.75-21.024-1.42-.99-.646 3.563 0 5.16 2.644 6.537 6.037 12.78 9.698 18.817 2.327 3.838 5.144 7.398 8.198 10.698 6.41 6.927 12.943 13.798 20.142 19.92 7.014 5.965 14.73 11.082 22.373 16.238 3.3 2.233 6.834 4.164 10.436 5.897 5.608 2.7 11.267 5.356 17.158 7.38 3.107 1.068 6.497 2.63 9.7 1.85 2.75-.673-5.6-1.097-8.198-2.214-17.444-7.504-34.323-16.264-51.836-23.61-13.582-5.698-27.388-10.908-41.392-15.5-7.412-2.43-15.087-4.042-22.75-5.532-6.9-1.342-13.86-2.552-20.88-2.952-10.3-.587-21.29-3.584-30.948 0-6.78 2.516-11.698 9.746-13.797 16.603-3.137 10.245-2.137 21.438-1.115 32.095.616 6.426 3.116 12.635 5.96 18.445 3.05 6.232 7.27 11.87 11.56 17.34 4.315 5.506 9.068 10.7 14.174 15.5 4.868 4.576 10.15 8.74 15.66 12.54 5.212 3.597 10.755 6.732 16.412 9.595 19.474 9.855 43.82 16.417 65.626 13.278 3.7-.533 8.692.094 10.813-2.952 7.502-10.776-5.877-29.46-11.928-36.524-26.373-30.786-55.733-59.864-86.514-86.326-6.847-5.886-18.806-16.087-28.7-14.024-2.86.596-3.926 12.176-2.238 39.476 1.678 27.132 24.94 54.75 45.114 70.468 4.937 3.847 26.996 18.133 36.916 10.698 7.85-5.883 1.316-37.672-2.976-46.12-8.672-17.065-17.467-34.15-27.97-50.175-19.783-30.183-28.597-41.66-53.32-60.873-2.012-1.564-4.338-2.744-6.714-3.683-2.015-.797-6.458-3.62-6.337-1.476 1.984 35.326 13.622 86.2 53.32 101.452 2.39.918 6.188 4.043 7.46 1.84 2.246-3.888-.656-20.68-2.238-25.453-1.7-5.13-10.16-54.784-29.087-67.516-.69-.464-1.013 1.396-1.115 2.214-1.767 14.112-3.64 28.233-4.476 42.428-2.503 42.507-.524 36.333 20.51 81.532.66 1.42 3.164 4.87 3.353 3.318 4.128-33.876-13.016-56.816-29.833-88.174-2.358-4.396-21.64-35.296-32.817-43.532-1.643-1.2-4.106-2.337-5.96-1.476-6.046 2.808-8.582 13.88-9.33 18.817-4.84 32.004-11.272 76.38 1.87 106.992 1.138 2.65 5.2 9.5 5.59 6.635 6.173-46.175-2.49-54.46-6.714-99.238-1.596-16.913-.556-34.007-2.238-50.913-.112-1.128-2.203 1.154-2.607 2.214-4.62 12.115-8.925 24.38-12.305 36.89-2.846 10.533-4.456 21.36-6.337 32.103-.855 4.884-1.656 9.802-1.87 14.754-.534 12.4-4.73 25.614-.37 37.262 3.005 8.024 9.977-27.042 10.067-27.667 2.233-15.462 4.75-30.91 5.968-46.484.776-9.933.473-19.937 0-29.89-.033-.695-.803-1.335-1.492-1.476-25.064-5.156-40.797 58.714-44.376 71.206-3.198 11.163-6.382 22.422-7.83 33.937-1.673 13.31-12.235 32.032-1.492 40.214l1.492 2.952c5.52 4.205 9.175-7.508 9.7-9.588 3.564-14.395 6.126-29.115 7.09-43.905 2.026-31.055 1.52-62.223 1.86-93.34.03-2.84-.02-5.737-.746-8.484-.126-.476-1.312-.46-1.492 0l-16.405 35.786c-13.377 34.174-24.063 69.362-38.04 103.3-1.74 4.228-.007-9.224 1.123-13.65 5.106-19.997 12.163-39.466 17.527-59.397 6.818-25.333 41.132-90.798 19.012-76.365-13.58 8.86-54.107 144.16-61.896 163.063-2.213 5.372.373-11.646 1.492-17.34 3.986-20.294 9.864-40.196 13.797-60.5 5.766-29.764 19.264-59.6 15.29-89.65-2.366-17.888-14.6 33.108-20.51 50.175-11 31.792-19.92 64.26-30.21 96.286-.776 2.415-1.694 4.815-2.976 7.008-.187.32-1.12.37-1.123 0-1.12-105.918-.257-41.216 11.56-162.69 1.384-14.228-3.424 28.42-6.337 42.42-3.186 15.3-7.603 30.35-11.936 45.38-4.744 16.458-9.82 32.828-15.29 49.064-1.993 5.915-4.375 11.712-7.083 17.34-1.037 2.156-4.032 8.292-4.1 5.905-1.05-37.37 4.034-74.877 1.115-112.15-.307-3.924-6.792 4.335-9.32 7.373-2.794 3.356-4.73 7.4-6.337 11.437-7.73 19.482-14.838 39.21-21.627 59.03-3.408 9.952-6.617 40.505-8.952 30.254-4.187-18.382 2.536-37.614 2.984-56.452.547-22.988 3.27-46.218 0-68.984-.475-3.307-7.456-3.228-10.067-1.11-6.055 4.91-9.18 12.628-12.682 19.555-5.358 10.6-9.584 21.738-13.797 32.833-4.244 11.177-8.322 22.442-11.56 33.944-4.35 15.458-10.717 62.89-11.182 46.85-1.076-37.128 7.94-73.93 9.32-111.047.15-4.014-4.022 7-5.59 10.706l-33.94 82.635c-2.9 6.792-5.3 13.968-9.7 19.92-1.247 1.69-.573-4.185-.377-6.27.676-7.17 1.843-14.286 2.984-21.397 2.215-13.796 5.672-27.418 7.083-41.318 1.454-14.325 2.607-28.812 1.492-43.166-.376-4.836-8.266 1.18-9.32 2.58-4.537 6.02-8.534 12.473-11.928 19.2-11.538 22.832-16.763 49.374-32.817 69.357-5.88 7.317-1.064-18.717-.377-28.04 1.555-21.103 4.503-42.084 7.09-63.087.226-1.83.6 3.79 0 5.532-5.022 14.35-11.958 28.01-16.78 42.428-6.873 20.543-14.24 41.08-18.273 62.35-1.1 5.804 6.618-9.862 9.32-15.127 5.264-10.253 10.246-20.672 14.543-31.357 4.912-12.214 9.6-24.565 13.05-37.262 2.545-9.393 3.66-19.124 4.845-28.778.435-3.54 3.197-12.345 0-10.698-48.447 24.95-45.154 53.195-74.578 101.087-2.7 4.412 1.814-10.196 3.36-15.127 10.765-34.32 27.423-67.145 33.555-102.563 3.932-22.713-17.3 42.807-26.85 63.825-7.612 16.754-15.702 33.32-24.61 49.436-4.168 7.54-9.2 14.612-14.543 21.397-2.536 3.226-5.3 10.408-8.944 8.484-3.54-1.87 1.486-7.923 3.353-11.437 21.437-40.34 42.595-87.884 75.324-122.85 4.618-4.934 9.156-10.98 15.666-12.913 2.748-.816.358 5.864-.746 8.484-4.554 10.813-10.267 21.128-16.035 31.357-10.397 18.437-21.335 36.575-32.44 54.603-3.445 5.592-7.196 11.008-11.2 16.23-6.455 8.44-12.892 16.933-20.135 24.722-4.236 4.556-9.168 8.46-14.174 12.175-2 1.484-4.23 2.984-6.706 3.318-.888.12-1.492-1.327-1.492-2.214 0-54.214 20.634-105.79 45.49-153.468 1.584-3.04 7.25-11.417 6.337-8.12-4.09 14.786-9.482 29.275-16.035 43.166-8.28 17.554-18.433 34.196-28.34 50.905-6.805 11.477-23.49 30.5-30.948 38.738-8.95 9.874-31.832 30.13-33.186 3.325-1.99-39.387-.84-62.8 16.78-96.293 2.666-5.068 11.115-19.654 19.758-22.135 3.874-1.112 5.23 6.68 4.107 23.246-.763 11.247-1.287 22.65-4.107 33.57-8.42 32.62-28.876 75.33-58.166 94.8-5.082 3.38-16.185 7.544-18.273 1.85-4.564-12.447.425-26.856 4.476-39.476 16.08-50.1 48.025-100.27 85.39-137.238 1.1-1.09 3.336-3.557 4.1-2.214 1.345 2.366.33 5.614-.746 8.11-11.16 25.917-23.408 51.37-35.793 76.738-17.723 36.3-37.762 70.152-64.887 100.35-2.628 2.926-8.928 12.018-8.575 8.12.996-11.002 29.698-80.35 30.202-81.532 7.94-18.614 16.143-37.13 24.987-55.34 4.962-10.216 10.617-20.1 16.405-29.88 3.17-5.36 6.322-10.817 10.444-15.5.903-1.026.26 2.858-.377 4.063-10.475 19.798-21.144 39.523-32.81 58.66-7.496 12.296-27.343 40.972-39.9 54.23-13.16 13.896-26.527 27.636-40.646 40.58-4.58 4.198-10.724 14.91-15.29 10.698-5.275-4.868 1.626-14.32 4.1-21.024 13.124-35.577 36.185-93.394 63.395-123.222 8.48-9.297 17.27-18.456 27.218-26.198 3.1-2.405 8.5-6.528 11.2-3.7 2.734 2.886-2.077 29.582-2.615 31.73-10.986 43.918-38.764 83.57-68.6 116.952-7.047 7.882-14.945 14.986-22.75 22.135-2.28 2.088-4.65 4.208-7.452 5.532-2.776 1.31-6.025 3.15-8.952 2.214-2.332-.746-4.013-3.86-3.73-6.27 2.515-21.372 6.467-42.635 11.936-63.46 3.857-14.688 26.482-67.225 33.186-80.42 1.55-3.05 20.09-38.327 30.202-43.166 2.485-1.19-.02 5.612-1.115 8.12-7.278 16.66-15.232 33.05-23.865 49.064-17.626 32.698-39.404 65.344-68.24 89.65-8.157 6.876-16.047 14.303-25.357 19.555-6.828 3.852-18.797 14.3-22.373 7.373-6.375-12.347 1.102-27.957 4.845-41.318 7.356-26.253 31.125-62.867 48.475-84.484 9.213-11.48 18.59-22.865 28.7-33.57 2.497-2.642 6.046-8.465 8.952-6.27 3.042 2.298-1.32 7.497-2.607 11.064-1.834 5.082-4.22 9.962-6.714 14.762-6.7 12.92-12.87 26.193-20.88 38.365-9.195 13.975-19.356 27.4-30.58 39.84-16.68 18.49-33.683 36.924-52.95 52.762-12.527 10.296-27.508 17.292-41.76 25.087-1.198.655-3.005.803-4.107 0-12.99-9.464 2.996-50.6 8.206-61.984l30.948-65.3c4.467-8.882 39.61-51.37 27.225-10.698-7.353 24.145-15.973 48.028-26.85 70.833-5.884 12.34-14.504 23.3-23.12 33.944-15.006 18.56-29.194 30.864-48.852 43.532-2.845 1.833-6.024 3.26-9.32 4.063-4.373 1.063-11.05 5.252-13.428 1.47-5.73-9.115-8.635-21.42-5.59-31.723 12.575-42.563 55.72-138.263 104.04-166.754 3.2-1.886 10.97-8.368 10.067-4.794-15.3 60.487-84.906 129.748-136.857 161.587-8.322 5.1-16.674 17.704-25.726 14.016-8.588-3.5-9.33-18.363-5.968-26.93 8.225-20.953 25.058-37.52 38.408-55.706 18.358-25 43.3-55.102 66.002-76.738 6-5.728 33.577-30.116 46.983-32.833 2.35-.476-1.282 4.657-2.607 6.635-6.292 9.39-13.17 18.39-20.135 27.3-4.48 5.73-9.2 11.286-14.174 16.603-10.45 11.17-21.07 22.195-32.07 32.833-5.42 5.24-10.85 10.597-17.15 14.762-24.462 16.17-49.353 31.76-74.947 46.11-1.744.978-4.753.84-5.968-.738-1.43-1.858-.48-4.72 0-7.008 1.522-7.244 2.392-14.9 5.968-21.397 16.906-30.724 44.84-64.535 70.47-88.174 9.566-8.823 20.478-16.23 31.7-22.873 14.684-8.692 15.86-1.05 10.067 13.278-3.02 7.474-20.004 37.58-29.087 46.12-22.598 21.244-46.155 41.494-70.102 61.238-11.703 9.65-39.603 21.6-50.72 25.46-2.813.977-7.083 2.304-8.944 0-3.83-4.74 2.847-19.39 4.845-22.508 6.122-9.556 25.975-36.97 36.547-47.222 25.872-25.088 51.47-50.55 79.054-73.786 6.903-5.815 14.952-11.264 23.865-12.913 5.28-.977-7.573 7.608-11.936 10.706-11.96 8.49-24.39 16.33-36.916 23.976C5.812 790.553.6 793.35-4.83 795.6c-16.47 6.85-32.715 14.588-49.967 19.183-12.076 3.216-24.96 6.11-37.293 4.056-3.366-.56.034-7.113 1.87-9.96 4.69-7.277 10.495-13.977 17.15-19.555 12.976-10.875 26.948-20.627 41.392-29.508 30.602-18.818 61.65-37.015 93.597-53.5 8.712-4.495 18.442-6.825 27.964-9.222 4.23-1.065 16.697-3.48 13.05-1.103-57.118 37.232-66.684 36.75-135.735 43.166-13.49 1.253-27.106.483-40.646 0-3.777-.135-8.054.25-11.182-1.85-1.65-1.107-1.584-4.335-.377-5.905 3.527-4.586 7.816-9.52 13.428-11.064 40.568-11.154 81.916-19.605 123.43-26.563 11.518-1.93 46.616-1.607 35.047 0-13.88 1.928-50.983 5.52-71.97 1.103-16.513-3.474-33.008-7.147-49.22-11.802-43.36-12.448-40.91-27.813 4.476-34.682 30.752-4.654 80.24-5.824 110 7.015 3.034 1.31 5.865 3.217 8.206 5.532 3 2.975-7.176 6.392-10.067 6.643-10.65.924-21.548 1.867-32.07 0-24.16-4.286-57.305-17.002-79.8-28.778-8.688-4.548-16.97-9.862-24.98-15.5-4.088-2.878-8.945-5.52-11.2-9.96-.912-1.804 1.704-4.57 3.73-4.794 13.22-1.452 26.667-1.322 39.9 0C13.72 612.54 53.247 618.9 92.865 624.428c1.724.24-3.514.332-5.222 0a161.95 161.95 0 0 1-17.527-4.428c-19.744-6.195-39.092-13.6-58.912-19.555-23.575-7.084-47.792-12.015-71.224-19.548-1.774-.57-5.22-4.266-3.36-4.428 43.98-3.836 100.78-6 144.687 8.484 3.192 1.053-6.703.818-10.067.738-6.976-.166-14.013-.254-20.88-1.476-4.296-.764-8.303-2.705-12.305-4.428-9.434-4.062-18.827-8.246-27.97-12.913-10.386-5.3-20.558-11.02-30.58-16.968-4.907-2.913-9.558-6.238-14.167-9.595-4.347-3.166-8.814-6.236-12.682-9.96-5.613-5.405-20.502-11.244-15.66-17.334 8.056-10.13 24.64-10.758 37.662-10.333 7.074.23 72.93 23.96 80.17 26.93 9.192 3.772 18.198 8.047 26.85 12.913 4.085 2.298 10.132 3.954 11.2 8.484.74 3.163-4.562 6.203-7.83 5.905-20.584-1.88-41.348-5.2-60.78-12.175-18.378-6.596-66.465-29.374-82.784-51.65-.515-.703-.984-1.952-.377-2.58 10.855-11.202 28.57-11.187 43.26-7.38 31.312 8.112 60.492 22.823 90.982 33.57 12.776 4.504 25.256 13.13 38.785 12.175 10.374-.733-19.122-8.148-28.34-12.913-4.614-2.385-8.83-5.47-13.05-8.484-48.613-34.74-99.902-66.16-145.433-104.77-7.966-6.755 20.484 4.545 30.58 7.373 40.38 11.314 78.894 33.213 120.822 35.048 13.983.612-18.045-21.22-27.97-30.984-11.983-11.787-25.34-22.132-37.662-33.57-7.82-7.26-15.494-14.694-22.75-22.508-6.804-7.328-13.092-15.114-19.39-22.873-.32-.395-.732-1.118-.37-1.476 3.653-3.6 15.202-1.04 30.202 4.794 13.43 5.223 61.576 41.26 66.372 45.008 13.626 10.65 62.895 60.625 1.123 21.77-9.847-6.194-18.53-14.072-27.225-21.77-10.218-9.045-20.253-18.35-29.456-28.405-9.85-10.763-20.02-21.5-27.595-33.937-10.072-16.538-17.28-34.647-24.98-52.39-.687-1.582-1.474-4.25 0-5.167 38.436-23.875 86.12 10.3 107.017 41.7 5.552 8.342 16.682 27.235 14.913 40.214-.17 1.24-2.634-.1-3.722-.738-2.356-1.382-4.536-3.132-6.345-5.167-13.632-15.336-26.926-30.97-39.9-46.857l-95.08-118.42c-.63-.773-2.37-2.44-2.615-1.476-.392 1.552.96 3.106 1.87 4.428 5.452 7.93 10.558 16.206 17.15 23.238 30.004 32.008 60.594 63.526 92.474 93.706 14.294 13.532 27.344 30.4 45.868 37.262 10.46 3.88-12.352-18.433-19.02-27.3-15.712-20.9-31.07-42.113-48.098-61.976-11.485-13.398-23.962-26.03-37.293-37.635-5.44-4.736-12.7-6.963-18.643-11.064-.713-.492 1.813-.348 2.607 0 6.86 3.005 13.64 6.24 20.135 9.96 28.076 16.087 54.747 34.622 83.53 49.436 17.468 8.99 35.74 16.955 54.82 21.77 7.184 1.813-11.345-9.936-18.273-12.547-45.5-17.154-93.854-26.88-138.342-46.484-4.077-1.797 111.942 27.644 104.4-1.103-2.065-7.88-4.723-26.803-11.2-21.77-10.883 8.47-20.296 28.847-11.56 39.476 8.33 10.134 29.108 2.57 39.154-5.905 9.176-7.742 14.197-23.938 8.952-34.682-17.45-35.747-40.755-70.7-72.347-95.182C3.125 76.084-32.074 69.138-64.866 62.555c-5.013-1.006-6.665 8.59-6.714 13.65-.084 8.62.2 18.98 6.337 25.087 52.796 52.467 113.13 81.668 187.194 84.11 15.572.514 34.59 2.365 43.63-13.278 7.287-12.61.23-37.638-5.968-46.857C124.196 72.576 44.1 3.944-22.358.944c-1.778-.08-4.296-.4-5.222 1.103-3.785 6.15 5.385 15.806 8.206 18.08C-2.007 34.12 15.517 48.15 34.692 59.603c36.206 21.626 85.286 32.262 124.92 39.84 7.2 1.377 14.734.964 22.003 0 3.14-.416 7.25-1.208 8.575-4.056 7.14-15.36-14.468-46.078-24.24-50.913C114.13 18.842 62.218-12.02 4.86-20.087-9.346-22.086 2.455 9.508 8.59 22.34c15.194 31.787 91.69 69.24 123.43 76.738 30.95 7.3 62.524 14.485 94.343 14.39 10.785-.033 20.07-8.376 28.7-14.762 2.27-1.677 2.053-5.315 2.238-8.11.69-10.43 1.357-20.95.377-31.357-2.59-27.514-31.417-64.823-62.65-61.61-11.935 1.227-8.977 44.734-8.952 45.008 2.797 30.707 36.722 64.086 60.042 81.897 14.85 11.343 37.51 20.388 52.205 2.214C313.164 108.403 317.18 64.47 311.752 43c-9.468-37.455-39.9-58.403-59.288.738-7.903 24.094-7.282 50.304-7.46 75.635-.132 18.862 7.667 38.148 21.257 51.278 2.473 2.39 5.197 4.588 8.206 6.27 2.772 1.55 5.782 2.947 8.944 3.318 6.418.752 13 .96 19.39 0 3.632-.545 7.23-2.12 10.075-4.42 10.958-8.868 21.304-18.523 30.948-28.778 28.062-29.84 35.07-88.2 42.507-122.484.417-1.924 1.17-4.313 0-5.905-10.507-14.293-36.565 20.138-41.015 29.15-18.28 37.022-23.16 68.743-22.75 110.675.437 44.723 29.562 38.64 52.205 12.54 6.607-7.615 12.805-15.67 17.897-24.35 6.64-11.322 11.812-23.44 17.158-35.413 5.475-12.262 10.5-24.726 15.29-37.262 2.785-7.273 6.937-14.375 7.452-22.135.18-2.69-3.074-6.94-5.59-5.905-7.57 3.11-13.23 9.775-18.643 15.865-7.355 8.276-13.908 17.334-19.39 26.93-18.866 33.024-27.88 70.482-22.003 108.095 1.8 11.515 22.792 15.112 30.948 8.484 5.23-4.25 10.152-8.92 14.543-14.016 5.712-6.626 11.044-13.62 15.666-21.032 6.218-9.97 11.766-20.367 16.774-30.984 6.316-13.39 14.503-26.41 17.158-40.952 4.158-22.77 9.096-47.02 2.984-69.357-2.288-8.36-11.537 13.092-16.412 20.286-12.32 18.18-16.612 45.205-19.012 65.674-1.233 10.515-2.246 21.163-1.492 31.723.993 13.917 1.5 28.356 6.706 41.325 3.582 8.94 31.903-7.375 37.293-11.81 32.494-26.733 59.517-59.023 76.44-97.762 5.396-12.353 9.19-25.367 12.682-38.373.766-2.85 2.97-9.12 0-8.85-11.473 1.044-22.696 5.72-32.44 11.802-22.9 14.293-51.652 45.17-54.443 74.158-.766 7.956-4.44 17.3 0 23.976 10.568 15.893 46.816 26.507 65.256 17.34 19.2-9.543 36.542-22.744 52.574-36.897 8.496-7.5 14-17.808 20.142-27.294 2.97-4.587 5.137-9.667 7.083-14.762 3.655-9.566 6.793-19.326 9.7-29.143a79.67 79.67 0 0 0 2.615-12.547c.71-5.624 6.098-19.766 1.115-16.968-55.93 31.397-125.69 75.213-115.593 149.413 1.11 8.147 27.7 6.052 32.063 3.7 8.862-4.8 17.654-10.094 24.987-16.968 36.774-34.475 54.16-52.205 75.7-92.603 4.35-8.16 21.1-40.274 16.405-54.23-.228-.68-1.18-1.344-1.86-1.103h-7.837c-8.167 2.884-16.75 5.664-23.488 11.064-15.778 12.644-31.464 26.077-43.26 42.428-21.737 30.13-31.6 57.76-29.456 92.603 1.495 24.294 33.15 20.252 47.73 11.437 12.535-7.58 22.534-18.783 32.44-29.516 8.45-9.155 15.94-19.247 22.38-29.88 15.073-24.89 27.206-45.988 32.81-73.42.64-3.133 2.593-7.682 0-9.588-6.868-5.045-21.156 3.34-25.357 7.008-37.7 32.902-90.53 80.023-69.732 138.714 2.963 8.36 31.446-2.932 35.8-5.532 45.886-27.398 86.3-69.4 112.616-115.476 1.705-2.986 3.115-6.568 2.607-9.96-.2-1.337-2.813-.456-4.1 0-15.15 5.37-22.77 8.764-34.678 18.445-27.726 22.542-45.764 51.506-57.804 84.857-11.6 32.134 37.998 7 42.884 3.683 11.73-7.964 23.148-16.58 33.186-26.556 17.4-17.292 33.63-35.778 48.852-54.976 1.38-1.74 2.227-6.442 0-6.635-7.24-.627-14.953 1.217-21.257 4.794-27.602 15.66-48.75 44.09-64.5 70.46-5.31 8.884-8.862 24.68-4.468 34.682 3.247 7.393 34.248 4.216 39.154 1.476C779.3 141.095 826.53 97.406 859.906 51.12c1.66-2.302-5.776-.574-8.575 0-3.9.798-7.595 2.383-11.2 4.056-4.882 2.272-10.177 4.152-14.167 7.746-29.445 26.522-60.276 52.004-85.768 82.27-4.712 5.595-2.466 14.512-1.86 21.77.293 3.51 1.75 7.33 4.476 9.595 22.84 18.967 64.088 2.002 83.522-8.492 40.233-21.724 72.276-47.907 99.196-83.008 2.022-2.637 7.47-6.04 5.214-8.484-2.935-3.177-9.03-1.64-13.05 0-10.563 4.31-20.302 10.576-29.456 17.34-28.942 21.4-46.15 42.255-64.14 74.524-14.732 26.423 34.82 19.296 41.023 17.706 11.913-3.053 22.84-9.12 33.932-14.39 10.928-5.192 21.675-10.798 32.07-16.968 9.52-5.65 19.255-11.196 27.595-18.445 14.264-12.397 27.828-25.716 39.9-40.214 4.383-5.263 6.515-12.063 8.944-18.445.837-2.198.862-4.662.746-7.008-1.48-30.02-51.698 1.4-61.896 8.484-29.443 20.45-59.44 49.19-74.208 82.27-14.284 31.992-6.326 56.424 34.678 48.698 12.28-2.313 23.994-7.168 35.424-12.175 14.993-6.567 56.183-30.343 70.11-39.476 10.382-6.808 20.808-13.677 30.202-21.77 16.64-14.336 32.228-29.84 47.73-45.373 3.792-3.8 15.465-12.547 10.067-12.547-20.087 0-40.4 4.856-58.912 12.547-21.326 8.856-93.928 71.193-101.803 80.794-10.45 12.74-22.235 28.734-20.135 45.008 1.172 9.084 17.674 5.797 26.85 7.008 14.21 1.875 24.597-2.924 37.285-8.484 20.9-9.158 41.738-18.472 62.272-28.405 18.63-9.012 37.753-17.305 55.19-28.412 17.268-11 38.45-19.893 48.475-37.627 4.763-8.425-19.735.54-29.08 3.318-17.774 5.285-64.555 31.12-77.938 39.11-14.994 8.952-29.616 18.52-44 28.405-6.394 4.394-12.89 8.826-18.273 14.39-8.74 9.03-17.27 18.478-23.865 29.143-1.558 2.52-2.488 7.996.37 8.857 38.793 11.686 116.26-26.352 150.655-40.952 17.527-7.44 36.89-12.25 51.828-23.984 3.874-3.043 1.95-14.714-2.984-14.38-18.275 1.23-34.72 11.598-51.828 18.072-35.12 13.3-74.11 31.16-103.664 54.603-13.26 10.518-31.787 19.814-22.003 39.84 1.54 3.15 6.54 3.052 10.067 3.325 10.905.846 22.13 2.315 32.817 0 52.63-11.4 104.33-26.68 156.238-40.952 7.164-1.97 28.247-8.8 20.888-7.746-46.742 6.69-93.894 12.443-139.465 24.714-12.178 3.28-88.91 33.536-44 58.293 3.924 2.163 8.62 2.587 13.05 3.318 42.308 6.975 115.512 3.444 155.87-16.968 1.487-.752 2.797-1.942 3.722-3.318.85-1.265-.477-3.835-1.86-4.063-6.772-1.117-13.66-2.28-20.51-1.84-52.963 3.4-88.847 11.16-136.473 31.723-11.3 4.88-45.486 21.9-40.646 37.262 6.47 20.54 64.865 15.013 74.947 14.762 7.1-.177 14.232-.44 21.257-1.476 38.865-5.732 77.867-10.905 116.34-18.817 6.94-1.427-14.163-.83-21.25-.738-11.817.154-23.66.343-35.424 1.476-7.426.715-14.75 2.322-22.003 4.056-15.387 3.68-30.673 7.782-45.868 12.175-6.944 2.007-13.795 4.356-20.51 7.015-5.73 2.268-11.585 4.443-16.774 7.746-7.445 4.74-15.81 9.055-20.888 16.23-4.114 5.814-10.96 16.41-5.214 20.66 12.73 9.416 30.746 8.937 46.606 9.96 31.858 2.056 88.655-7.64 118.584-13.65 3.532-.71-7.357-1.01-10.813 0-25.293 7.398-50.618 15.027-74.954 25.087-20.417 8.44-39.912 19.045-58.92 30.254-6.358 3.75-12.756 8.243-16.78 14.39-2.163 3.303-1.737 8.106-.37 11.802 2.015 5.445 21.076 6.232 24.61 6.277 25.48.324 53.244-10.423 76.446 0 10.64 4.78.497 23.117.746 34.675" transform="matrix(-1 0 0 1 1108.962504 0)"/></g><g stroke="#fff" stroke-width="32.322" class="E"><path d="M14.16 17.16H1165.84V847.84H14.16z"/><path d="M155.16 119.66h869.678V745.34H155.16z" class="B"/></g></g><g class="G"><rect x="275" y="469" width="631" height="33.537" rx="16.768"/><rect x="264" y="417" width="652" height="33.537" rx="16.768"/><rect x="264" y="521" width="652" height="33.537" rx="16.768"/><rect x="482" y="572" width="217" height="33.537" rx="16.768"/></g><rect x="499" y="365" width="182.927" height="33.537" rx="16.768" class="F"/><path stroke="#0202c8" d="M263.33 682.5h217" class="D J K"/><g transform="translate(271.293 471.39)"/></g><rect x="256" y="267" width="670" height="64.024" rx="32.012" class="G"/></g><g filter="url(#D)" transform="translate(.171)"><path stroke-width="3.049" d="M0 0h1182.927v113H0z" class="B C"/><g transform="translate(51.829 36.585)" fill="#000"><g transform="translate(674.383)"><path d="M34.146.005H1.797V3.6h32.35z"/><path d="M30.552 7.194H5.392v3.594h25.16z"/><use xlink:href="#G"/><path d="M5.392 25.166h25.16v-3.594H5.392z"/><path d="M1.797 32.355h32.35V28.76H1.797z"/></g><g transform="translate(823.759)"><path d="M0 3.6h35.944V.005H0z"/><path d="M0 10.788h35.944V7.194H0z"/><use xlink:href="#G"/><use xlink:href="#G" y="7.189"/><path d="M0 32.355h25.16V28.76H0z"/></g><g transform="translate(949.695)"><path d="M2.807 23.633L6.1 20.34l-.548-.548c-.2-.2-.228-.43-.228-.55s.03-.35.228-.548l13.17-13.17c.197-.197.428-.227.548-.227s.352.03.55.227l.55.55L23.66 2.78l-.548-.548C21.058.178 17.48.18 15.43 2.23L2.26 15.4C1.232 16.425.667 17.8.667 19.24a5.4 5.4 0 0 0 1.592 3.843l.548.55z"/><path d="M31.342 10.462l-3.292 3.292.55.55a.78.78 0 0 1 0 1.096l-13.17 13.17a.77.77 0 0 1-1.097 0l-.55-.548-3.292 3.294.55.548c1.026 1.026 2.4 1.59 3.84 1.59a5.4 5.4 0 0 0 3.841-1.591l13.17-13.17a5.44 5.44 0 0 0 0-7.681l-.55-.55z"/><path d="M20.916 16.5l-3.292-3.294L28.598 2.23l3.292 3.294z"/><path d="M5.55 31.864L2.26 28.572l10.975-10.975 3.292 3.292z"/></g><g transform="translate(599.695)"><path d="M32.35.005H0V3.6h32.35z"/><path d="M25.16 7.194H0v3.594h25.16z"/><use xlink:href="#G"/><path d="M25.16 21.572H0v3.594h25.16z"/><path d="M0 32.355h32.35V28.76H0z"/></g><g transform="translate(749.071)"><path d="M3.594 3.6h32.35V.005H3.594z"/><path d="M10.783 10.788h25.16V7.194h-25.16z"/><use xlink:href="#G"/><path d="M10.783 25.166h25.16v-3.594h-25.16z"/><path d="M3.594 32.355h32.35V28.76H3.594z"/></g><path d="M7.684 13.82h7.782c1.37 0 2.496-.32 3.377-.956s1.32-1.674 1.32-3.11c0-.797-.147-1.45-.44-1.96s-.685-.91-1.175-1.196-1.052-.486-1.69-.598a11.46 11.46 0 0 0-1.982-.167H7.684v7.987zM0 0h16.445c1.664 0 3.18.143 4.552.43s2.545.757 3.524 1.41 1.737 1.522 2.276 2.606.808 2.423.808 4.017c0 1.722-.4 3.156-1.2 4.304s-1.982 2.088-3.548 2.822c2.154.606 3.76 1.666 4.82 3.18s1.59 3.34 1.59 5.476c0 1.722-.343 3.212-1.028 4.472a8.78 8.78 0 0 1-2.765 3.085c-1.158.797-2.48 1.387-3.964 1.77s-3 .574-4.576.574H0V0zm7.684 28.312h8.223c.75 0 1.468-.072 2.154-.215s1.29-.383 1.81-.717a3.64 3.64 0 0 0 1.248-1.363c.3-.574.465-1.307.465-2.2 0-1.754-.506-3.005-1.517-3.754s-2.35-1.124-4.013-1.124h-8.37v9.374z"/><path d="M152.598 36.28l4.268 4.268 4.268-4.268h3.2v6.402H130.19V36.28h22.41zM150.567 0l13.77 34.146h-6.71l-3.355-9.04h-14.27l-3.355 9.04h-6.46L143.908 0h6.66zm-3.2 5.69h-.157l-5.64 15.176h11.382L147.367 5.69z"/><path d="M67.534 34.146v-4.878h6.114l5.204-24.4h-6.44V0h19.512v4.878H84.95l-5.204 24.4h7.3v4.878H67.534z"/><g transform="translate(471.497)"><path d="M5.762 0A5.77 5.77 0 0 0 0 5.762a5.77 5.77 0 0 0 5.762 5.762 5.77 5.77 0 0 0 5.762-5.762A5.77 5.77 0 0 0 5.762 0"/><path d="M5.762 13.445A5.77 5.77 0 0 0 0 19.207a5.77 5.77 0 0 0 5.762 5.762 5.77 5.77 0 0 0 5.762-5.762 5.77 5.77 0 0 0-5.762-5.762"/><path d="M5.762 26.9A5.77 5.77 0 0 0 0 32.652a5.77 5.77 0 0 0 5.762 5.762 5.77 5.77 0 0 0 5.762-5.762 5.77 5.77 0 0 0-5.762-5.762"/><path d="M15.366 7.683h23.05V3.84h-23.05z"/><path d="M15.366 21.128h23.05v-3.84h-23.05z"/><path d="M15.366 34.573h23.05v-3.84h-23.05z"/></g><g transform="translate(394.817)"><path d="M9.604 7.683h26.9V3.84h-26.9z"/><path d="M9.604 21.128h26.9v-3.84h-26.9z"/><path d="M9.604 34.573h26.9v-3.84h-26.9z"/><path d="M2.536 3.6v6.917h2.1V1.053c0-.424-.257-.81-.65-.972S3.143.008 2.843.3L.001 3.152 1.485 4.64l1.05-1.05z"/><path d="M2.88 13.445c-1.588 0-2.88 1.293-2.88 2.88v.96h1.92v-.96a.96.96 0 0 1 .96-.96c.53 0 .962.43.962.96 0 .94-1.85 3.37-3.563 5.082-.273.275-.355.688-.207 1.047a.96.96 0 0 0 .887.594h4.802v-1.92H3.146c1.197-1.4 2.616-3.384 2.616-4.802 0-1.588-1.29-2.88-2.88-2.88"/><path d="M2.88 27.74L0 27.742l.002 1.92 2.88-.002a.96.96 0 0 1 .96.96.96.96 0 0 1-.96.958h0-.96v1.92h.96V33.5c.528 0 .96.432.96.96a.96.96 0 0 1-.96.96L0 35.423l.002 1.92 2.88-.002c1.588 0 2.88-1.293 2.88-2.88a2.87 2.87 0 0 0-.736-1.921 2.86 2.86 0 0 0 .736-1.919c0-1.588-1.293-2.88-2.88-2.88"/></g></g><g transform="translate(270.293 275.39)"/><path stroke-width="3.21" d="M2.404 112.805h1178.118" class="C D K"/></g><path d="M585 602c3.86 0 7 3.133 7 7s-3.14 7-7 7c-3.87 0-7-3.13-7-7a7 7 0 0 1 7-7h0z" class="B"/></g><path d="M843 998.663c57.875-40.466 52.695-18.982 61.44-79.788.91-6.332.47-12.812 0-19.193-.527-7.163-.728-28.16-2.983-21.34-19.967 60.374-31.086 123.424-50.775 183.9-3.843 11.803-.405-25.177 2.983-37.118 2.73-9.62 9.582-17.573 14.933-26.02 5.468-8.633 10.268-17.95 17.494-25.176 9.332-9.332 19.544-18.462 31.574-23.892 5.097-2.3 13.697-2.625 16.64 2.13 12.882 20.804-14.07 43.45-24.745 52.905-4.523 4.006-11.622 12.045-16.21 8.113l-5.975.845c-1.5-1.294-.42-4.023 0-5.966.732-3.385 1.66-6.827 3.414-9.812 6.15-10.46 44.144-51.715 58.448-41.386 2.916 2.105 3.223 6.643 3.414 10.234.388 7.266 1.223 15.102-1.707 21.762-.12.275-16.104 21.658-23.038 26.452-1.52 1.052-3.918 3.533-5.12 2.13-1.758-2.05-.54-5.458 0-8.105.9-4.405 2.123-8.843 4.268-12.795 2.47-4.55 5.94-8.513 9.39-12.373 8.29-9.27 16.12-17.406 26.875-23.47 3.937-2.22 8.12-4.017 12.373-5.544 1.346-.483 3.993-1.834 4.268-.43 1.43 7.3.363 36.423-12.373 39.256-1.936.43.736-4.15 2.138-5.553 4.02-4.02 8.72-7.397 13.65-10.234 4.534-2.6 9.548-4.322 14.51-5.975 1.49-.496 6.26-.45 4.7-.422-19.632.335-68.918.998-81.495 9.812-10.716 7.5 26.194.775 39.256 0 20.54-1.22 40.918-4.476 61.44-5.975 12.63-.922 25.314-.856 37.97-1.285" stroke="#0202c8" class="D I J"/><g filter="url(#E)" transform="translate(283 265)"><path d="M0 0h232v176H0z" class="B"/><g opacity=".92"><g transform="translate(115.479)"><path d="M115.258 57.877V.065H57.656l.006.68c.506 31.322 25.71 56.618 56.92 57.126l.677.006z" fill="#2ac2ff"/><path d="M115.258 59.197v57.81H57.656l.006-.68c.506-31.322 25.71-56.618 56.92-57.126l.677-.006z" fill="#00173a"/><path d="M57.656 117.01v-57.81H.054l.006.68c.506 31.322 25.71 56.618 56.92 57.126l.677.006z" fill="#ff9d00"/><ellipse fill="#005b11" cx="28.855" cy="28.971" rx="28.801" ry="28.906"/><ellipse fill="#ff0034" cx="28.855" cy="146.119" rx="28.801" ry="28.906"/></g><path d="M59.21 175.216v-58.002H0l.006.682c.52 31.425 26.43 56.805 58.5 57.315l.696.006z" fill="#005b11"/><path d="M59.21 0v58.002H0l.006-.682C.526 25.895 26.435.515 58.516.006L59.21 0z" class="F"/><path d="M59.21 58.002V0h59.21l-.006.682c-.52 31.425-26.43 56.805-58.5 57.315l-.696.006z" fill="#00173a"/><path d="M59.21 59.21v58.002H0l.006-.682c.52-31.425 26.43-56.805 58.5-57.315l.696-.006z" fill="#ff0034"/><ellipse fill="#ff7800" transform="matrix(1 0 0 -1 0 292.428792)" cx="87.608" cy="146.214" rx="28.397" ry="29.001"/></g></g><g filter="url(#F)" transform="translate(447.342 408.564)" class="H"><path fill="#231d1e" d="M0 12.476h1.78v-1.782h3.56v1.782h1.78V1.782h1.78V0h3.56v1.782h1.78V7.13h7.123V8.91h3.56v1.782h1.78v8.91h-1.78v3.564h-1.78v5.347h-3.56v-1.782h-1.78v1.782H8.904V24.95h-1.78V23.17h-1.78v-1.782H3.56v-3.564H1.78V16.04H0z"/><path d="M1.78 12.476h3.56v1.782h1.78v1.782h1.78V1.782h3.56v10.693h1.78V8.91h3.56v3.564h1.78V8.91h1.78v3.564h1.78v-1.782h1.78v8.91h-1.78v3.564h-1.78v3.564h-1.78V24.95h-1.78v1.782h-7.123V24.95h-1.78V23.17h-1.78v-1.782h-1.78v-3.564H3.56V16.04H1.78z" class="B"/><g fill="#231d1e"><path d="M12.465 16.04h1.78v7.13h-1.78z"/><path d="M16.026 16.04h1.78v7.13h-1.78z"/><path d="M19.588 16.04h1.78v7.13h-1.78z"/></g></g><path d="M799.212 927l4.962 10.05 7.685-8.16 1.943 11.91 10.657-5.84-1.72 11.2 10.936-2.27-5.61 11.637 13 1.9-8.22 8.01L843 970.2l-10.48 5.4 8.786 8.268-11.447 1.867 5.622 9.84-12.582-1.708 2.185 12.735-10.312-5.42-1.452 11.392-8.3-8.23-5.03 10.654-5.32-10.316-7.804 8.585-2.28-12.573-11.24 5.907 1.942-11.32-11.445 2.17 5.36-10.643-11.603-1.48 7.984-8.057L755 972.505l11.5-6.183-9.15-8.917 11.102-1.613-5.518-10.062 12 1.843-2.22-11.713 9.975 5.022 1.238-11.263 9.5 9.084z" class="G"/></g></svg>