<svg xmlns="http://www.w3.org/2000/svg" xmlns:xlink="http://www.w3.org/1999/xlink" width="1591" height="925" xmlns:v="https://vecta.io/nano"><style><![CDATA[.B{stroke-linejoin:round}.C{stroke-width:.6}.D{stroke-linecap:round}.E{fill:#ff0034}.F{fill-rule:nonzero}.G{fill:#ff9d00}.H{fill:#fff}.I{fill:#f4f2ee}.J{fill:#000}.K{fill:#00173a}.L{fill:#005b11}.M{stroke-opacity:.668}.N{mask:url(#V)}.O{fill:#0064ff}.P{mask:url(#W)}.Q{mask:url(#X)}.R{opacity:.92}.S{fill:#ff7800}.T{fill:#0d62fe}.U{stroke:#001d75}.V{fill:#42be65}.W{fill:#2ac2ff}.X{filter:url(#G)}.Y{filter:url(#I)}]]></style><defs><filter x="-2.0%" y="-3.1%" width="103.9%" height="106.1%" id="A"><feOffset dy="1" in="SourceAlpha"/><feGaussianBlur stdDeviation="2"/><feColorMatrix values="0 0 0 0 0 0 0 0 0 0.160784314 0 0 0 0 0.349019608 0 0 0 0.1 0" result="C"/><feMerge><feMergeNode in="C"/><feMergeNode in="SourceGraphic"/></feMerge></filter><path id="B" d="M0 0h533.733v315.844H0z"/><filter x="-18.2%" y="-10.5%" width="136.5%" height="121.1%" id="C"><feOffset dy="7" in="SourceAlpha"/><feGaussianBlur stdDeviation="7"/><feColorMatrix values="0 0 0 0 0 0 0 0 0 0.164542109 0 0 0 0 0.362271488 0 0 0 0.1 0" result="C"/><feMerge><feMergeNode in="C"/><feMergeNode in="SourceGraphic"/></feMerge></filter><path d="M197.304.01l-.001.124c0 13.467 10.78 24.415 24.18 24.673v334.854c-12.707.245-23.06 10.106-24.094 22.613H25.062C24.016 369.61 13.41 359.66.484 359.66l-.484.005V24.81l.484.005c13.62 0 24.663-11.05 24.663-24.678V.01h172.157z" id="D"/><filter x="-3.5%" y="-2.3%" width="107.0%" height="104.5%" id="E"><feOffset dy="1" in="SourceAlpha"/><feGaussianBlur stdDeviation="2"/><feColorMatrix values="0 0 0 0 0 0 0 0 0 0.160784314 0 0 0 0 0.349019608 0 0 0 0.1 0" result="C"/><feMerge><feMergeNode in="C"/><feMergeNode in="SourceGraphic"/></feMerge></filter><path id="F" d="M0 0h298.982v462H0z"/><filter x="-20.3%" y="-48.7%" width="140.6%" height="198.2%" id="G"><feOffset dy="24" in="SourceAlpha"/><feGaussianBlur stdDeviation="16"/><feColorMatrix values="0 0 0 0 0.3515625 0 0 0 0 0.3515625 0 0 0 0 0.3515625 0 0 0 0.1 0" result="C"/><feMerge><feMergeNode in="C"/><feMergeNode in="SourceGraphic"/></feMerge></filter><path id="H" d="M0 0h552v228H0z"/><filter x="-1.2%" y="-2.4%" width="102.4%" height="105.7%" id="I"><feOffset dy="1" in="SourceAlpha"/><feGaussianBlur stdDeviation="2"/><feColorMatrix values="0 0 0 0 0 0 0 0 0 0.160784314 0 0 0 0 0.349019608 0 0 0 0.1 0"/></filter><path id="J" d="M122.615 348.045v-4.92c2.487-.367 4.273-1.18 5.358-2.44s1.627-2.756 1.627-4.488c0-1.155-.205-2.152-.615-2.992s-.972-1.568-1.687-2.185-1.555-1.155-2.52-1.614l-3.076-1.32-2.064-.768c-.61-.25-1.125-.512-1.548-.787s-.74-.6-.953-.945-.318-.794-.318-1.32c0-.892.357-1.594 1.072-2.106s1.786-.768 3.215-.768c1.35 0 2.547.13 3.592.394l2.72.827.992-3.897c-.582-.236-1.376-.48-2.38-.728s-2.143-.426-3.413-.53h0v-4.252h-4.128v4.41c-2.25.367-3.916 1.188-5 2.46s-1.627 2.815-1.627 4.626c0 1.102.198 2.034.595 2.795s.92 1.41 1.568 1.95 1.376.99 2.183 1.358l2.44.984 2.4.905c.728.29 1.356.604 1.885.945s.94.735 1.23 1.18.437.97.437 1.575c0 .892-.35 1.607-1.052 2.145s-1.965.807-3.8.807c-1.535 0-2.904-.17-4.108-.512s-2.23-.722-3.076-1.142h0l-1.35 3.74c.582.315 1.462.663 2.64 1.043s2.72.636 4.624.768h0v4.803h4.128zm21.278 0v-4.92c2.487-.367 4.273-1.18 5.358-2.44s1.627-2.756 1.627-4.488c0-1.155-.205-2.152-.615-2.992s-.972-1.568-1.687-2.185-1.555-1.155-2.52-1.614l-3.076-1.32-2.064-.768c-.61-.25-1.125-.512-1.548-.787s-.74-.6-.953-.945-.318-.794-.318-1.32c0-.892.357-1.594 1.072-2.106s1.786-.768 3.215-.768c1.35 0 2.547.13 3.592.394l2.72.827.992-3.897c-.582-.236-1.376-.48-2.38-.728s-2.143-.426-3.413-.53h0v-4.252h-4.128v4.41c-2.25.367-3.916 1.188-5 2.46s-1.627 2.815-1.627 4.626c0 1.102.198 2.034.595 2.795s.92 1.41 1.568 1.95 1.376.99 2.183 1.358l2.44.984 2.4.905c.728.29 1.356.604 1.885.945s.94.735 1.23 1.18.437.97.437 1.575c0 .892-.35 1.607-1.052 2.145s-1.965.807-3.8.807c-1.535 0-2.904-.17-4.108-.512s-2.23-.722-3.076-1.142h0l-1.35 3.74c.582.315 1.462.663 2.64 1.043s2.72.636 4.624.768h0v4.803h4.128zm20.31 0v-4.92c2.487-.367 4.273-1.18 5.358-2.44s1.627-2.756 1.627-4.488c0-1.155-.205-2.152-.615-2.992s-.972-1.568-1.687-2.185-1.555-1.155-2.52-1.614l-3.076-1.32-2.064-.768c-.61-.25-1.125-.512-1.548-.787s-.74-.6-.953-.945-.318-.794-.318-1.32c0-.892.357-1.594 1.072-2.106s1.786-.768 3.215-.768c1.35 0 2.547.13 3.592.394l2.72.827.992-3.897c-.582-.236-1.376-.48-2.38-.728s-2.143-.426-3.413-.53h0v-4.252h-4.128v4.41c-2.25.367-3.916 1.188-5 2.46s-1.627 2.815-1.627 4.626c0 1.102.198 2.034.595 2.795s.92 1.41 1.568 1.95 1.376.99 2.183 1.358l2.44.984 2.4.905c.728.29 1.356.604 1.885.945s.94.735 1.23 1.18.437.97.437 1.575c0 .892-.35 1.607-1.052 2.145s-1.965.807-3.8.807c-1.535 0-2.904-.17-4.108-.512s-2.23-.722-3.076-1.142h0l-1.35 3.74c.582.315 1.462.663 2.64 1.043s2.72.636 4.624.768h0v4.803h4.128zm20.31 0v-4.92c2.487-.367 4.273-1.18 5.358-2.44s1.627-2.756 1.627-4.488c0-1.155-.205-2.152-.615-2.992s-.972-1.568-1.687-2.185-1.555-1.155-2.52-1.614l-3.076-1.32-2.064-.768c-.61-.25-1.125-.512-1.548-.787s-.74-.6-.953-.945-.318-.794-.318-1.32c0-.892.357-1.594 1.072-2.106s1.786-.768 3.215-.768c1.35 0 2.547.13 3.592.394l2.72.827.992-3.897c-.582-.236-1.376-.48-2.38-.728s-2.143-.426-3.413-.53h0v-4.252h-4.128v4.41c-2.25.367-3.916 1.188-5 2.46s-1.627 2.815-1.627 4.626c0 1.102.198 2.034.595 2.795s.92 1.41 1.568 1.95 1.376.99 2.183 1.358l2.44.984 2.4.905c.728.29 1.356.604 1.885.945s.94.735 1.23 1.18.437.97.437 1.575c0 .892-.35 1.607-1.052 2.145s-1.965.807-3.8.807c-1.535 0-2.904-.17-4.108-.512s-2.23-.722-3.076-1.142h0l-1.35 3.74c.582.315 1.462.663 2.64 1.043s2.72.636 4.624.768h0v4.803h4.128z"/><path id="K" d="M48.257 91.015v-5.02H36.76V65.047h-5.842v25.968h17.34zm12.133.525c1.473 0 2.802-.25 3.988-.75s2.203-1.205 3.052-2.117 1.498-2.01 1.947-3.298.674-2.704.674-4.253-.237-2.96-.712-4.234-1.136-2.36-1.985-3.26-1.866-1.6-3.052-2.098-2.5-.75-3.913-.75c-1.398 0-2.7.25-3.876.75s-2.21 1.2-3.07 2.098-1.535 1.986-2.022 3.26-.73 2.685-.73 4.234.237 2.967.712 4.253 1.136 2.386 1.985 3.298S55.254 90.3 56.44 90.8s2.503.75 3.95.75zm0-4.796c-1.273 0-2.26-.506-2.958-1.518s-1.05-2.38-1.05-4.103.35-3.08 1.05-4.066 1.685-1.48 2.958-1.48 2.253.493 2.94 1.48 1.03 2.342 1.03 4.066-.343 3.09-1.03 4.103-1.666 1.518-2.94 1.518zm22.73 4.796c1.473 0 2.802-.25 3.988-.75s2.203-1.205 3.052-2.117 1.498-2.01 1.947-3.298.674-2.704.674-4.253-.237-2.96-.712-4.234-1.136-2.36-1.985-3.26-1.866-1.6-3.052-2.098-2.5-.75-3.913-.75c-1.398 0-2.7.25-3.876.75s-2.21 1.2-3.07 2.098-1.535 1.986-2.022 3.26-.73 2.685-.73 4.234.237 2.967.712 4.253 1.136 2.386 1.985 3.298S77.985 90.3 79.17 90.8s2.503.75 3.95.75zm0-4.796c-1.273 0-2.26-.506-2.958-1.518s-1.05-2.38-1.05-4.103.35-3.08 1.05-4.066 1.685-1.48 2.958-1.48 2.253.493 2.94 1.48 1.03 2.342 1.03 4.066-.343 3.09-1.03 4.103-1.666 1.518-2.94 1.518zm19.548 4.272v-8.618a15.17 15.17 0 0 1 1.891 1.836l1.816 2.267 1.63 2.36 1.367 2.155h6.404l-1.573-2.735-2.06-2.998-2.322-2.904c-.8-.937-1.573-1.742-2.322-2.417l4.138-4.29 3.876-4.365h-6.628l-1.255 1.5-1.554 1.817-1.704 1.93-1.704 1.874V61.937l-5.58.9v28.18h5.58zm18.874-22.108a3.41 3.41 0 0 0 2.341-.881c.662-.587.992-1.393.992-2.417s-.33-1.83-.992-2.417a3.41 3.41 0 0 0-2.341-.881 3.41 3.41 0 0 0-2.341.881c-.662.587-.992 1.393-.992 2.417s.33 1.83.992 2.417a3.41 3.41 0 0 0 2.341.881zm2.81 22.108v-19.7h-5.58v19.7h5.58zm10.823 0V75.8l1.198-.13 1.273-.056c1.298 0 2.185.375 2.66 1.124s.712 2.023.712 3.822h0v10.455h5.58v-11.13c0-1.35-.137-2.573-.412-3.672s-.736-2.048-1.386-2.848-1.53-1.418-2.64-1.855-2.503-.656-4.176-.656a30.14 30.14 0 0 0-4.719.356l-3.67.768v19.036h5.58zm23.443 7.045c3.42 0 5.948-.78 7.583-2.342s2.453-3.953 2.453-7.176h0V71.98l-1.704-.43-2.004-.356-2.116-.244-2.078-.094c-1.573 0-2.983.23-4.232.693s-2.303 1.118-3.164 1.967-1.517 1.867-1.966 3.054-.674 2.504-.674 3.953c0 2.898.724 5.152 2.172 6.764s3.533 2.417 6.254 2.417c.75 0 1.442-.07 2.078-.206a8.98 8.98 0 0 0 1.854-.618h0v.712c0 1.1-.33 1.998-.992 2.698s-1.79 1.05-3.39 1.05c-1.223 0-2.316-.1-3.277-.3s-1.88-.475-2.752-.824h0l-.974 4.684c1.024.35 2.135.63 3.333.843a20.57 20.57 0 0 0 3.595.319zm1.573-12.853c-2.522 0-3.782-1.56-3.782-4.684 0-1.5.362-2.735 1.086-3.7s1.823-1.46 3.295-1.46l1.31.056.974.13v8.918c-.35.2-.774.375-1.273.525s-1.036.225-1.6.225zM33.315 98.713a3.41 3.41 0 0 0 2.341-.881c.662-.587.992-1.393.992-2.417s-.33-1.83-.992-2.417a3.41 3.41 0 0 0-2.341-.881 3.41 3.41 0 0 0-2.341.881c-.662.587-.992 1.393-.992 2.417s.33 1.83.992 2.417a3.41 3.41 0 0 0 2.341.881zm2.81 22.108v-19.7h-5.58v19.7h5.58zm10.823 0v-15.214l1.198-.13 1.273-.056c1.298 0 2.185.375 2.66 1.124s.712 2.023.712 3.822h0v10.455h5.58v-11.13c0-1.35-.137-2.573-.412-3.672s-.736-2.048-1.386-2.848-1.53-1.418-2.64-1.855-2.503-.656-4.176-.656a30.14 30.14 0 0 0-4.719.356l-3.67.768v19.036h5.58zm24.08.45c1.198 0 2.21-.1 3.033-.3s1.573-.437 2.247-.712h0l-.786-4.347a9.55 9.55 0 0 1-1.741.468c-.637.112-1.255.17-1.854.17-1.248 0-2.078-.35-2.5-1.05s-.618-1.636-.618-2.8h0v-6.932h6.703v-4.646h-6.703v-5.808l-5.58.9v16.562c0 1.274.12 2.436.356 3.485s.655 1.942 1.255 2.68 1.398 1.312 2.397 1.724 2.26.618 3.782.618zm17.04.075c1.473 0 2.802-.25 3.988-.75s2.203-1.205 3.052-2.117 1.498-2.01 1.947-3.298.674-2.704.674-4.253-.237-2.96-.712-4.234-1.136-2.36-1.985-3.26-1.866-1.6-3.052-2.098-2.5-.75-3.913-.75c-1.398 0-2.7.25-3.876.75s-2.21 1.2-3.07 2.098-1.535 1.986-2.022 3.26-.73 2.685-.73 4.234.237 2.967.712 4.253 1.136 2.386 1.985 3.298 1.866 1.618 3.052 2.117 2.503.75 3.95.75zm0-4.796c-1.273 0-2.26-.506-2.958-1.518s-1.05-2.38-1.05-4.103.35-3.08 1.05-4.066 1.685-1.48 2.958-1.48 2.253.493 2.94 1.48 1.03 2.342 1.03 4.066-.343 3.09-1.03 4.103-1.666 1.518-2.94 1.518zm30.558 4.72c1.198 0 2.21-.1 3.033-.3s1.573-.437 2.247-.712h0l-.786-4.347a9.55 9.55 0 0 1-1.741.468c-.637.112-1.255.17-1.854.17-1.248 0-2.078-.35-2.5-1.05s-.618-1.636-.618-2.8h0v-6.932h6.703v-4.646h-6.703v-5.808l-5.58.9v16.562c0 1.274.12 2.436.356 3.485s.655 1.942 1.255 2.68 1.398 1.312 2.397 1.724 2.26.618 3.782.618zm14.605-.45v-14.99l1.18-.28c.437-.087.905-.13 1.404-.13 1.248 0 2.103.375 2.565 1.124s.693 2.023.693 3.822h0v10.455h5.58v-11.13c0-1.35-.13-2.573-.393-3.672s-.712-2.048-1.348-2.848-1.485-1.418-2.547-1.855-2.4-.656-3.988-.656a9.05 9.05 0 0 0-1.704.169c-.587.112-1.067.23-1.442.356h0v-9.443l-5.58.9v28.18h5.58zm25.952.525a19.66 19.66 0 0 0 2.097-.112l1.966-.28c.612-.112 1.167-.244 1.666-.393s.9-.3 1.198-.45h0l-.75-4.534c-.624.275-1.43.506-2.415.693s-1.99.28-3.015.28c-1.598 0-2.87-.337-3.82-1.012s-1.485-1.586-1.6-2.735h12.658l.075-1.03.037-1.068c0-3.322-.81-5.84-2.434-7.55s-3.832-2.567-6.628-2.567c-1.198 0-2.366.225-3.5.674a8.8 8.8 0 0 0-3.015 1.986c-.874.874-1.58 1.967-2.116 3.28s-.805 2.842-.805 4.6c0 1.45.206 2.798.618 4.047s1.05 2.33 1.9 3.24 1.947 1.63 3.258 2.155 2.852.787 4.625.787zm2.696-12.366H154.5c.075-.475.193-.943.356-1.405s.393-.868.693-1.218.674-.63 1.123-.843.986-.32 1.6-.32c.65 0 1.192.112 1.63.337a3.39 3.39 0 0 1 1.086.862c.287.35.5.75.637 1.2s.218.912.243 1.386h0zM36.76 150.63v-10.717h10.26v-4.91H36.76v-5.433h11.534v-4.91H30.918v25.968h5.842zm22.956.45a30.14 30.14 0 0 0 4.719-.356l3.67-.768V130.92h-5.58v15.214l-1.198.13-1.273.056c-1.298 0-2.185-.4-2.66-1.2s-.712-2.098-.712-3.897h0V130.92h-5.58v10.98c0 1.35.137 2.586.412 3.7s.736 2.092 1.386 2.904 1.53 1.443 2.64 1.892 2.503.674 4.176.674zm21.233 0c1.198 0 2.21-.1 3.033-.3s1.573-.437 2.247-.712h0l-.786-4.347a9.55 9.55 0 0 1-1.741.468c-.637.112-1.255.17-1.854.17-1.248 0-2.078-.35-2.5-1.05s-.618-1.636-.618-2.8h0v-6.932h6.703v-4.646H78.74v-5.808l-5.58.9v16.562c0 1.274.12 2.436.356 3.485s.655 1.942 1.255 2.68 1.398 1.312 2.397 1.724 2.26.618 3.782.618zm17.45 0a30.14 30.14 0 0 0 4.719-.356l3.67-.768V130.92h-5.58v15.214l-1.198.13-1.273.056c-1.298 0-2.185-.4-2.66-1.2s-.712-2.098-.712-3.897h0V130.92h-5.58v10.98c0 1.35.137 2.586.412 3.7s.736 2.092 1.386 2.904 1.53 1.443 2.64 1.892 2.503.674 4.176.674zm19.21-.45v-15.064c.25-.075.618-.144 1.105-.206s.905-.094 1.255-.094a10.87 10.87 0 0 1 2.172.206l1.76.393.936-4.61c-.3-.125-.662-.23-1.086-.32l-1.273-.225-1.273-.15-1.086-.056c-1.673 0-3.19.156-4.55.468l-3.54.993v18.66h5.58zm19.324.525a19.66 19.66 0 0 0 2.097-.112l1.966-.28c.612-.112 1.167-.244 1.666-.393s.9-.3 1.198-.45h0l-.75-4.534c-.624.275-1.43.506-2.415.693s-1.99.28-3.015.28c-1.598 0-2.87-.337-3.82-1.012s-1.485-1.586-1.6-2.735h12.658l.075-1.03.037-1.068c0-3.322-.81-5.84-2.434-7.55s-3.832-2.567-6.628-2.567c-1.198 0-2.366.225-3.5.674a8.8 8.8 0 0 0-3.015 1.986c-.874.874-1.58 1.967-2.116 3.28s-.805 2.842-.805 4.6c0 1.45.206 2.798.618 4.047s1.05 2.33 1.9 3.24 1.947 1.63 3.258 2.155 2.852.787 4.625.787zm2.696-12.366h-7.377c.075-.475.193-.943.356-1.405s.393-.868.693-1.218.674-.63 1.123-.843.986-.32 1.6-.32c.65 0 1.192.112 1.63.337a3.39 3.39 0 0 1 1.086.862c.287.35.5.75.637 1.2s.218.912.243 1.386h0z"/><path id="L" d="M44.02 54.233V52.34H33.165v-.066a3.77 3.77 0 0 1 .382-1.611c.254-.542.597-1.096 1.03-1.66s.918-1.13 1.46-1.694l1.676-1.677 2.025-1.993a17.9 17.9 0 0 0 1.776-2.059c.52-.71.935-1.445 1.245-2.21s.465-1.578.465-2.44c0-1.95-.564-3.47-1.693-4.567s-2.8-1.644-5.045-1.644c-.84 0-1.604.105-2.3.316s-1.29.46-1.81.747-.952.58-1.295.88l-.714.68 1.13 1.495c.133-.133.343-.32.63-.565s.636-.482 1.046-.714.89-.437 1.444-.614 1.184-.266 1.892-.266c1.26 0 2.307.338 3.137 1.013S40.9 35.48 40.9 37.03c0 .71-.11 1.362-.332 1.96a7.32 7.32 0 0 1-.896 1.694 11.99 11.99 0 0 1-1.311 1.544l-1.577 1.544-2.075 1.993a16.98 16.98 0 0 0-1.958 2.225c-.586.797-1.068 1.644-1.444 2.54s-.564 1.865-.564 2.906l.017.548.017.25H44.02zm12.15.498c2.346 0 4.166-1.03 5.46-3.09s1.942-5.026 1.942-8.9c0-3.897-.647-6.875-1.942-8.934s-3.115-3.09-5.46-3.09c-2.368 0-4.193 1.03-5.477 3.09s-1.925 5.037-1.925 8.934c0 3.875.647 6.842 1.942 8.9s3.115 3.09 5.46 3.09zm0-1.96c-.974 0-1.78-.277-2.423-.83s-1.156-1.3-1.543-2.21-.664-1.982-.83-3.188-.25-2.474-.25-3.803.083-2.596.25-3.803.443-2.275.83-3.205.902-1.672 1.543-2.225 1.45-.83 2.423-.83c.952 0 1.748.277 2.4.83s1.162 1.295 1.56 2.225.68 1.998.846 3.205.25 2.474.25 3.803-.083 2.596-.25 3.803-.448 2.27-.846 3.188-.918 1.655-1.56 2.21-1.438.83-2.4.83zm25.293 1.46V52.34H70.607v-.066a3.77 3.77 0 0 1 .382-1.611c.254-.542.597-1.096 1.03-1.66s.918-1.13 1.46-1.694l1.676-1.677 2.025-1.993a17.9 17.9 0 0 0 1.776-2.059c.52-.71.935-1.445 1.245-2.21s.465-1.578.465-2.44c0-1.95-.564-3.47-1.693-4.567s-2.8-1.644-5.045-1.644c-.84 0-1.604.105-2.3.316s-1.29.46-1.81.747-.952.58-1.295.88l-.714.68 1.13 1.495c.133-.133.343-.32.63-.565s.636-.482 1.046-.714.89-.437 1.444-.614 1.184-.266 1.892-.266c1.26 0 2.307.338 3.137 1.013s1.245 1.788 1.245 3.338c0 .71-.11 1.362-.332 1.96a7.32 7.32 0 0 1-.896 1.694 11.99 11.99 0 0 1-1.311 1.544l-1.577 1.544-2.075 1.993a16.98 16.98 0 0 0-1.958 2.225c-.586.797-1.068 1.644-1.444 2.54s-.564 1.865-.564 2.906l.017.548.017.25H81.46zm14.505 0V31.216H94.44c-1.018 1.24-2.047 2.22-3.087 2.94s-2.224 1.312-3.552 1.777h0l.63 1.66a10.47 10.47 0 0 0 1.593-.614l1.527-.797c.487-.277.924-.56 1.31-.847s.703-.565.946-.83h0v19.73h2.158z"/><path id="M" d="M81.66 40.8V.046H41.09l.004.48c.356 22.075 18.11 39.903 40.1 40.26l.477.004z"/><path id="N" d="M81.66 41.72v40.744H41.09l.004-.48c.356-22.075 18.11-39.903 40.1-40.26l.477-.004z"/><path id="O" d="M41.09 82.464V41.72H.518l.004.48c.356 22.075 18.11 39.903 40.1 40.26l.477.004z"/><path id="P" d="M41.704 123.486V82.608H0l.004.48c.366 22.148 18.615 40.034 41.2 40.394l.5.004z"/><path id="Q" d="M41.704 0v40.878H0l.004-.48C.37 18.25 18.62.363 41.214.004l.5-.004z"/><path id="R" d="M41.704 40.878V0H83.41l-.004.48c-.366 22.148-18.615 40.034-41.2 40.394l-.5.004z"/><path id="S" d="M41.704 41.73v40.878H0l.004-.48C.37 59.98 18.62 42.093 41.214 41.734l.5-.004z"/><path id="T" d="M-63.474 88.298c21.932 13.555 35.38 46.05 40.347 97.48l.148 1.564-121.71 2.3c.224-24.835 2.766-44.548 7.628-59.14 2.483-7.455 10.85-20.733 25.102-39.832l.274-.366c18.658.99 34.783.163 48.153-1.994l.058-.01z"/><path id="U" d="M52.8 24.427a16.73 16.73 0 0 1 10.498 3.683L51.09 42.55l-6.53-7.023-3.758 4.04 10.472 11.26 15.72-18.594a16.72 16.72 0 0 1 2.608 8.994c0 9.278-7.522 16.8-16.8 16.8S36 50.505 36 41.227s7.522-16.8 16.8-16.8z"/></defs><g transform="translate(84 57)" fill="none" fill-rule="evenodd"><g transform="translate(437)"><g filter="url(#A)" transform="translate(70)"><rect fill="#e6e7e7" x=".336" width="534" height="343" rx="4.546"/><g stroke="#fff" class="B M"><circle cx="17.836" cy="13.5" r="6.5"/><circle cx="35.836" cy="13.5" r="6.5"/><circle cx="53.836" cy="13.5" r="6.5"/></g><g transform="translate(.336 26)"><mask id="V" class="H"><use xlink:href="#B"/></mask><use xlink:href="#B" class="H"/><g class="F N"><path d="M66.335 139.02v-6.27H51.97v-26.155h-7.3v32.425h21.663zm15.16.655c1.84 0 3.5-.312 4.983-.936a10.95 10.95 0 0 0 3.813-2.644c1.06-1.14 1.872-2.51 2.433-4.117s.842-3.377.842-5.31-.296-3.696-.89-5.287-1.42-2.948-2.48-4.07-2.332-1.996-3.813-2.62-3.11-.936-4.89-.936c-1.747 0-3.36.312-4.843.936s-2.76 1.497-3.837 2.62-1.918 2.48-2.527 4.07-.912 3.353-.912 5.287.296 3.704.89 5.31 1.42 2.98 2.48 4.117a10.95 10.95 0 0 0 3.813 2.644c1.482.624 3.127.936 4.936.936zm0-5.99c-1.59 0-2.823-.632-3.696-1.895s-1.3-2.97-1.3-5.123.437-3.844 1.3-5.077 2.106-1.848 3.696-1.848 2.815.616 3.673 1.848 1.287 2.924 1.287 5.077-.43 3.86-1.287 5.123-2.082 1.895-3.673 1.895zm28.4 5.99c1.84 0 3.5-.312 4.983-.936a10.95 10.95 0 0 0 3.813-2.644c1.06-1.14 1.872-2.51 2.433-4.117s.842-3.377.842-5.31-.296-3.696-.89-5.287-1.42-2.948-2.48-4.07-2.332-1.996-3.813-2.62-3.11-.936-4.89-.936c-1.747 0-3.36.312-4.843.936s-2.76 1.497-3.837 2.62-1.918 2.48-2.527 4.07-.912 3.353-.912 5.287.296 3.704.89 5.31 1.42 2.98 2.48 4.117a10.95 10.95 0 0 0 3.813 2.644c1.482.624 3.127.936 4.936.936zm0-5.99c-1.59 0-2.823-.632-3.696-1.895s-1.3-2.97-1.3-5.123.437-3.844 1.3-5.077 2.106-1.848 3.696-1.848 2.815.616 3.673 1.848 1.287 2.924 1.287 5.077-.43 3.86-1.287 5.123-2.082 1.895-3.673 1.895zm24.424 5.334v-10.76c.78.624 1.567 1.388 2.363 2.293l2.27 2.83 2.035 2.948 1.708 2.7h8l-1.965-3.416-2.573-3.743-2.9-3.626c-.998-1.17-1.965-2.176-2.9-3.018l5.17-5.357 4.843-5.45h-8.282l-1.567 1.872-1.942 2.27-2.13 2.4-2.13 2.34v-20.587l-6.972 1.123v35.185h6.972zm23.582-27.605c1.123 0 2.098-.367 2.924-1.1s1.24-1.74 1.24-3.018-.413-2.285-1.24-3.018-1.8-1.1-2.924-1.1-2.098.367-2.924 1.1-1.24 1.74-1.24 3.018.413 2.285 1.24 3.018 1.8 1.1 2.924 1.1zm3.51 27.605V114.4h-6.972v24.61h6.972zm13.522 0v-18.996l1.497-.164 1.59-.07c1.622 0 2.73.468 3.322 1.404s.89 2.527.89 4.772h0v13.054h6.972v-13.896c0-1.684-.172-3.213-.515-4.585s-.92-2.558-1.73-3.556-1.91-1.77-3.3-2.316-3.127-.82-5.217-.82a37.68 37.68 0 0 0-5.895.444l-4.585.96v23.77h6.972zm29.3 8.796c4.273 0 7.432-.975 9.475-2.924s3.065-4.936 3.065-8.96h0v-20.68l-2.13-.538-2.503-.444-2.644-.304-2.597-.117c-1.965 0-3.728.29-5.287.866s-2.878 1.396-3.954 2.456-1.895 2.332-2.456 3.813-.842 3.127-.842 4.936c0 3.618.905 6.433 2.714 8.445s4.414 3.018 7.814 3.018c.936 0 1.8-.086 2.597-.257s1.567-.43 2.316-.772h0v.89c0 1.372-.413 2.495-1.24 3.37s-2.238 1.3-4.234 1.3c-1.528 0-2.893-.125-4.094-.374s-2.347-.593-3.44-1.03h0l-1.217 5.85a27.99 27.99 0 0 0 4.164 1.053c1.497.265 2.994.398 4.492.398zm1.965-16.048c-3.15 0-4.726-1.95-4.726-5.85 0-1.872.452-3.416 1.357-4.632s2.277-1.825 4.117-1.825l1.638.07 1.217.164v11.136c-.437.25-.967.468-1.59.655a6.97 6.97 0 0 1-2.012.281zm-158.52 16.865c1.123 0 2.098-.367 2.924-1.1s1.24-1.74 1.24-3.018-.413-2.285-1.24-3.018-1.8-1.1-2.924-1.1-2.098.367-2.924 1.1-1.24 1.74-1.24 3.018.413 2.285 1.24 3.018 1.8 1.1 2.924 1.1zm3.51 27.605v-24.61h-6.972v24.61h6.972zm13.522 0v-18.996l1.497-.164 1.59-.07c1.622 0 2.73.468 3.322 1.404s.89 2.527.89 4.772h0v13.054h6.972v-13.896c0-1.684-.172-3.213-.515-4.585s-.92-2.558-1.73-3.556-1.91-1.77-3.3-2.316-3.127-.82-5.217-.82a37.68 37.68 0 0 0-5.895.444l-4.585.96v23.77h6.972zm30.085.56c1.497 0 2.76-.125 3.8-.374s1.965-.546 2.807-.89h0l-.983-5.427c-.655.25-1.38.444-2.176.585a13.32 13.32 0 0 1-2.316.211c-1.56 0-2.597-.437-3.11-1.3s-.772-2.043-.772-3.51h0v-8.656h8.375v-5.802h-8.375v-7.252L85.05 145.5v20.68c0 1.59.148 3.04.444 4.35s.82 2.425 1.567 3.345 1.747 1.638 2.994 2.152 2.823.772 4.726.772zm21.29.094c1.84 0 3.5-.312 4.983-.936a10.95 10.95 0 0 0 3.813-2.644c1.06-1.14 1.872-2.51 2.433-4.117s.842-3.377.842-5.31-.296-3.696-.89-5.287-1.42-2.948-2.48-4.07-2.332-1.996-3.813-2.62-3.11-.936-4.89-.936c-1.747 0-3.36.312-4.843.936s-2.76 1.497-3.837 2.62-1.918 2.48-2.527 4.07-.912 3.353-.912 5.287.296 3.704.89 5.31 1.42 2.98 2.48 4.117a10.95 10.95 0 0 0 3.813 2.644c1.482.624 3.127.936 4.936.936zm0-5.99c-1.59 0-2.823-.632-3.696-1.895s-1.3-2.97-1.3-5.123.437-3.844 1.3-5.077 2.106-1.848 3.696-1.848 2.815.616 3.673 1.848 1.287 2.924 1.287 5.077-.43 3.86-1.287 5.123-2.082 1.895-3.673 1.895zm38.18 5.895c1.497 0 2.76-.125 3.8-.374s1.965-.546 2.807-.89h0l-.983-5.427c-.655.25-1.38.444-2.176.585a13.32 13.32 0 0 1-2.316.211c-1.56 0-2.597-.437-3.11-1.3s-.772-2.043-.772-3.51h0v-8.656h8.375v-5.802h-8.375v-7.252l-6.972 1.123v20.68c0 1.59.148 3.04.444 4.35s.82 2.425 1.567 3.345 1.747 1.638 2.994 2.152 2.823.772 4.726.772zm18.248-.56v-18.715l1.474-.35c.546-.11 1.13-.164 1.755-.164 1.56 0 2.628.468 3.205 1.404s.866 2.527.866 4.772h0v13.054h6.972v-13.896c0-1.684-.164-3.213-.49-4.585s-.89-2.558-1.684-3.556-1.856-1.77-3.182-2.316-2.987-.82-4.983-.82c-.686 0-1.396.07-2.13.21s-1.333.29-1.8.444h0v-11.79l-6.972 1.123v35.185h6.972zm32.425.655a24.58 24.58 0 0 0 2.62-.14l2.456-.35a19.59 19.59 0 0 0 2.082-.491c.624-.187 1.123-.374 1.497-.56h0l-.936-5.66c-.78.343-1.786.632-3.018.866s-2.488.35-3.767.35c-1.996 0-3.587-.42-4.772-1.263a4.63 4.63 0 0 1-2.012-3.416H214.9l.094-1.287.047-1.333c0-4.15-1.014-7.29-3.04-9.428s-4.788-3.205-8.282-3.205c-1.497 0-2.956.28-4.375.842s-2.675 1.388-3.767 2.48-1.973 2.456-2.644 4.094-1.006 3.548-1.006 5.732c0 1.81.257 3.494.772 5.053s1.3 2.91 2.386 4.047 2.433 2.035 4.07 2.7 3.564.983 5.778.983zm3.37-15.44h-9.217a9.98 9.98 0 0 1 .444-1.755 4.71 4.71 0 0 1 .866-1.521c.374-.437.842-.788 1.404-1.053s1.232-.398 2.012-.398c.81 0 1.49.14 2.035.42s.998.64 1.357 1.076.624.936.795 1.497.273 1.14.304 1.73h0zM51.97 213.457v-13.382h12.82v-6.13H51.97v-6.784h14.41v-6.13h-21.7v32.425h7.3zm28.682.56a37.68 37.68 0 0 0 5.895-.444l4.585-.96v-23.77h-6.972v18.996l-1.497.164-1.59.07c-1.622 0-2.73-.5-3.322-1.497s-.89-2.62-.89-4.866h0v-12.867H69.89v13.71c0 1.684.172 3.228.515 4.632s.92 2.612 1.73 3.626 1.91 1.8 3.3 2.363 3.127.842 5.217.842zm26.53 0c1.497 0 2.76-.125 3.8-.374s1.965-.546 2.807-.89h0l-.983-5.427c-.655.25-1.38.444-2.176.585a13.32 13.32 0 0 1-2.316.211c-1.56 0-2.597-.437-3.11-1.3s-.772-2.043-.772-3.51h0v-8.656h8.375v-5.802h-8.375v-7.252l-6.972 1.123v20.68c0 1.59.148 3.04.444 4.35s.82 2.425 1.567 3.345 1.747 1.638 2.994 2.152 2.823.772 4.726.772zm21.804 0a37.68 37.68 0 0 0 5.895-.444l4.585-.96v-23.77h-6.972v18.996l-1.497.164-1.59.07c-1.622 0-2.73-.5-3.322-1.497s-.89-2.62-.89-4.866h0v-12.867h-6.972v13.71c0 1.684.172 3.228.515 4.632s.92 2.612 1.73 3.626 1.91 1.8 3.3 2.363 3.127.842 5.217.842zm24.003-.56v-18.81c.312-.094.772-.18 1.38-.257s1.13-.117 1.567-.117a13.59 13.59 0 0 1 2.714.257l2.2.49 1.17-5.755c-.374-.156-.827-.29-1.357-.398l-1.59-.28-1.59-.187-1.357-.07c-2.1 0-3.985.195-5.685.585l-4.422 1.24v23.3h6.972zm24.143.655a24.58 24.58 0 0 0 2.62-.14l2.456-.35a19.59 19.59 0 0 0 2.082-.491c.624-.187 1.123-.374 1.497-.56h0l-.936-5.66c-.78.343-1.786.632-3.018.866s-2.488.35-3.767.35c-1.996 0-3.587-.42-4.772-1.263a4.63 4.63 0 0 1-2.012-3.416h15.815l.094-1.287.047-1.333c0-4.15-1.014-7.29-3.04-9.428s-4.788-3.205-8.282-3.205c-1.497 0-2.956.28-4.375.842s-2.675 1.388-3.767 2.48-1.973 2.456-2.644 4.094-1.006 3.548-1.006 5.732c0 1.81.257 3.494.772 5.053s1.3 2.91 2.386 4.047 2.433 2.035 4.07 2.7 3.564.983 5.778.983zm3.37-15.44h-9.217a9.98 9.98 0 0 1 .444-1.755 4.71 4.71 0 0 1 .866-1.521c.374-.437.842-.788 1.404-1.053s1.232-.398 2.012-.398c.81 0 1.49.14 2.035.42s.998.64 1.357 1.076.624.936.795 1.497.273 1.14.304 1.73h0z" class="J"/><g class="E"><path d="M62.498 83.378v-2.686h-15.41v-.094c0-.754.18-1.516.542-2.286s.848-1.555 1.46-2.356 1.304-1.602 2.074-2.403l2.38-2.38 2.875-2.828c.943-.943 1.783-1.916 2.52-2.922s1.327-2.05 1.767-3.134.66-2.24.66-3.464c0-2.765-.8-4.925-2.403-6.48s-4-2.333-7.163-2.333c-1.194 0-2.278.15-3.252.448s-1.83.652-2.568 1.06-1.35.825-1.838 1.25l-1.013.966 1.602 2.12c.19-.19.487-.456.895-.8s.903-.683 1.485-1.013 1.265-.62 2.05-.872 1.68-.377 2.686-.377c1.79 0 3.275.48 4.454 1.437s1.767 2.537 1.767 4.736c0 1.005-.157 1.932-.47 2.78s-.738 1.65-1.272 2.403-1.155 1.484-1.862 2.19l-2.24 2.19-2.945 2.828a24.1 24.1 0 0 0-2.781 3.158 17.47 17.47 0 0 0-2.05 3.605c-.534 1.272-.8 2.647-.8 4.124l.024.778.024.353h18.804zm17.25.707c3.33 0 5.914-1.46 7.752-4.383s2.757-7.132 2.757-12.63c0-5.53-.92-9.755-2.757-12.677s-4.422-4.383-7.752-4.383c-3.362 0-5.954 1.46-7.776 4.383s-2.733 7.148-2.733 12.677c0 5.498.92 9.708 2.757 12.63s4.422 4.383 7.752 4.383zm0-2.78c-1.382 0-2.53-.393-3.44-1.178s-1.642-1.83-2.19-3.134-.943-2.812-1.178-4.524-.353-3.51-.353-5.396.118-3.684.353-5.396.628-3.228 1.178-4.548 1.28-2.372 2.19-3.158 2.058-1.178 3.44-1.178c1.35 0 2.482.393 3.393 1.178s1.65 1.838 2.215 3.158.966 2.835 1.202 4.548.353 3.51.353 5.396-.118 3.684-.353 5.396-.636 3.22-1.202 4.524-1.304 2.348-2.215 3.134-2.042 1.178-3.393 1.178zm35.91 2.074v-2.686h-15.41v-.094c0-.754.18-1.516.542-2.286s.848-1.555 1.46-2.356 1.304-1.602 2.074-2.403a84.99 84.99 0 0 1 2.38-2.38l2.875-2.828c.943-.943 1.783-1.916 2.52-2.922s1.327-2.05 1.767-3.134.66-2.24.66-3.464c0-2.765-.8-4.925-2.403-6.48s-4-2.333-7.163-2.333c-1.194 0-2.278.15-3.252.448s-1.83.652-2.568 1.06-1.35.825-1.838 1.25-.825.746-1.013.966h0l1.602 2.12c.19-.19.487-.456.895-.8s.903-.683 1.485-1.013 1.265-.62 2.05-.872 1.68-.377 2.686-.377c1.79 0 3.275.48 4.454 1.437s1.767 2.537 1.767 4.736c0 1.005-.157 1.932-.47 2.78s-.738 1.65-1.272 2.403-1.155 1.484-1.862 2.19l-2.24 2.19-2.945 2.828a24.1 24.1 0 0 0-2.781 3.158 17.47 17.47 0 0 0-2.05 3.605c-.534 1.272-.8 2.647-.8 4.124 0 .346.008.605.024.778a4.73 4.73 0 0 1 .024.353h18.804zm20.595 0V50.72h-2.168c-1.445 1.76-2.906 3.15-4.383 4.17s-3.158 1.862-5.043 2.52h0l.895 2.356a14.87 14.87 0 0 0 2.262-.872 35.02 35.02 0 0 0 2.168-1.131 18.2 18.2 0 0 0 1.862-1.202c.55-.408.998-.8 1.343-1.178h0v27.993h3.063z"/></g></g><rect x="228.386" y="256.177" width="76.129" height="16.917" rx="2" class="E N"/><g class="N R"><g transform="translate(271.888 44.71)"><g transform="translate(115.479)"><path d="M115.258 57.877V.065H57.656l.006.68c.506 31.322 25.71 56.618 56.92 57.126l.677.006z" class="W"/><path d="M115.258 59.197v57.81H57.656l.006-.68c.506-31.322 25.71-56.618 56.92-57.126l.677-.006z" class="K"/><path d="M57.656 117.01v-57.81H.054l.006.68c.506 31.322 25.71 56.618 56.92 57.126l.677.006z" class="G"/><ellipse cx="28.855" cy="28.971" rx="28.801" ry="28.906" class="L"/><ellipse cx="28.855" cy="146.119" rx="28.801" ry="28.906" class="E"/></g><path d="M59.21 175.216v-58.002H0l.006.682c.52 31.425 26.43 56.805 58.5 57.315l.696.006z" class="L"/><path d="M59.21 0v58.002H0l.006-.682C.526 25.895 26.435.515 58.516.006L59.21 0z" class="O"/><path d="M59.21 58.002V0h59.21l-.006.682c-.52 31.425-26.43 56.805-58.5 57.315l-.696.006z" class="K"/><path d="M59.21 59.21v58.002H0l.006-.682c.52-31.425 26.43-56.805 58.5-57.315l.696-.006z" class="E"/><ellipse transform="matrix(1 0 0 -1 0 292.428792)" cx="87.608" cy="146.214" rx="28.397" ry="29.001" class="S"/></g></g><path d="M-90.12 148.63c31.14 19.234 50.234 65.34 57.283 138.315l.2 2.22-172.8 3.263c.318-35.238 3.928-63.2 10.83-83.916 3.526-10.578 15.406-29.418 35.64-56.52l.4-.52c26.5 1.404 49.385.23 68.367-2.83l.082-.015z" class="G N"/></g><g transform="translate(510.336 7)" stroke="#fff" class="B D M"><path d="M0 .62h11.812"/><path d="M0 6.816h11.812"/><path d="M0 13.013h11.812"/></g></g><g transform="translate(0 205)"><g transform="translate(0 31.869)" filter="url(#C)"><g transform="translate(0 .348)"><mask id="W" class="H"><use xlink:href="#D"/></mask><use fill="#ffe156" xlink:href="#D"/><g class="F J P"><use xlink:href="#J"/><use xlink:href="#K"/></g><use xlink:href="#L" class="E F P"/><g class="P R"><g transform="translate(29.982 166.455)"><g transform="translate(80.855)"><use xlink:href="#M" class="W"/><use xlink:href="#N" class="K"/><use xlink:href="#O" class="G"/><ellipse cx="20.804" cy="20.418" rx="20.286" ry="20.372" class="L"/><ellipse cx="20.804" cy="102.98" rx="20.286" ry="20.372" class="E"/></g><use xlink:href="#P" class="L"/><use xlink:href="#Q" class="O"/><use xlink:href="#R" class="K"/><use xlink:href="#S" class="E"/><ellipse transform="matrix(1 0 0 -1 0 206.094272)" cx="61.705" cy="103.047" rx="20.001" ry="20.439" class="S"/></g></g><use xlink:href="#T" class="G P"/></g></g><g transform="translate(74.418)" filter="url(#C)"><g transform="translate(0 .348)"><mask id="X" class="H"><use xlink:href="#F" href="#D"/></mask><use fill="#ffa300" xlink:href="#F" href="#D"/><g class="F J Q"><use xlink:href="#J"/><use xlink:href="#K"/></g><use xlink:href="#L" class="E F Q"/><g class="Q R"><g transform="translate(29.982 166.455)"><g transform="translate(80.855)"><use xlink:href="#M" class="W"/><use xlink:href="#N" class="K"/><use xlink:href="#O" class="G"/><ellipse cx="20.804" cy="20.418" rx="20.286" ry="20.372" class="L"/><ellipse cx="20.804" cy="102.98" rx="20.286" ry="20.372" class="E"/></g><use xlink:href="#P" class="L"/><use xlink:href="#Q" class="O"/><use xlink:href="#R" class="K"/><use xlink:href="#S" class="E"/><ellipse transform="matrix(1 0 0 -1 0 206.094272)" cx="61.705" cy="103.047" rx="20.001" ry="20.439" class="S"/></g></g><use xlink:href="#T" class="G Q"/></g></g></g></g><g filter="url(#E)" transform="translate(253 362)"><mask id="Y" class="H"><use xlink:href="#F"/></mask><use xlink:href="#F" class="H"/><path mask="url(#Y)" d="M17.187 301.096H145.33v99.776H17.187z" class="T"/><path fill="#ffe156" mask="url(#Y)" d="M153.627 301.096H281.77v99.776H153.627z"/><g transform="translate(17.692 35.111)"><g transform="translate(.253)"><g class="F J"><path d="M147.826 16.924V8.658c1.07 1.25 2.077 2.58 3.024 3.987l2.642 4.28h2.387V4.306h-2.824v7.447l-1.403-2.048-1.503-2.057-1.485-1.866-1.33-1.475h-2.314v12.618h2.806zm19.912 0V14.54h-6.103v-3.04h5.046v-2.33h-5.046V6.692h5.684V4.306h-8.526v12.618h8.945zm6.868 0l1.22-3.67 1.166-3.85 1.184 3.85 1.24 3.67h2.605l1.794-6.2 1.467-6.427h-2.95l-.392 2.23-.428 2.32-.465 2.258-.483 2.02-.6-1.857-.6-2.003-.565-1.94-.483-1.684h-2.423l-.446 1.657-.537 1.93-.6 2.003-.638 1.894-.5-2.02-.483-2.258-.455-2.32-.4-2.23h-3.08l1.467 6.427 1.794 6.2h2.605zm15.94.255c1.664 0 2.91-.325 3.735-.974s1.24-1.563 1.24-2.74c0-.607-.08-1.123-.237-1.548a3 3 0 0 0-.72-1.111c-.322-.316-.726-.592-1.21-.828a19.02 19.02 0 0 0-1.712-.719l-.865-.32c-.26-.103-.492-.218-.692-.346s-.355-.27-.465-.428-.164-.352-.164-.583c0-.388.15-.677.446-.865s.786-.282 1.467-.282c.607 0 1.126.07 1.558.21s.823.3 1.175.482h0l.82-2.24c-.4-.218-.91-.42-1.53-.6s-1.354-.273-2.204-.273c-.717 0-1.36.088-1.93.264s-1.057.428-1.457.756a3.36 3.36 0 0 0-.929 1.193c-.22.467-.328.992-.328 1.575s.103 1.077.3 1.484.474.753.802 1.038.698.522 1.11.7l1.24.5c.947.316 1.615.6 2.004.883s.583.616.583 1.03a1.46 1.46 0 0 1-.091.528c-.06.158-.17.294-.328.4s-.367.206-.63.273-.592.1-.993.1c-.802 0-1.48-.082-2.03-.246s-1.017-.35-1.394-.555h0l-.802 2.258a6.78 6.78 0 0 0 .629.31c.25.11.547.212.893.3s.744.18 1.193.246.953.1 1.512.1zm15.595-.255v-2.44h-5.593V4.306h-2.842v12.618h8.435zm10.767 0V14.54h-6.103v-3.04h5.046v-2.33h-5.046V6.692h5.684V4.306h-8.526v12.618h8.945zm7.652 0V6.728h3.808V4.306H217.91v2.422h3.808v10.196h2.842zm11.186 0V6.728h3.808V4.306h-10.457v2.422h3.808v10.196h2.842zm14.574 0V14.54h-6.103v-3.04h5.046v-2.33h-5.046V6.692h5.684V4.306h-8.526v12.618h8.945zm4.937 0v-4.606h1.403a12.33 12.33 0 0 1 .729.974l.738 1.138.73 1.238.7 1.256h3.188l-.71-1.41-.792-1.384-.83-1.275-.802-1.083c.765-.316 1.35-.75 1.758-1.302s.6-1.27.6-2.158c0-1.42-.504-2.467-1.512-3.14s-2.46-1-4.354-1l-1.776.073a16.12 16.12 0 0 0-1.922.255h0v12.436h2.842zm.802-6.864h-.802V6.637l.465-.036.556-.018c.91 0 1.6.13 2.068.39s.7.7.7 1.32c0 .643-.23 1.1-.692 1.366s-1.227.4-2.295.4h0z"/><path d="M203.9 37.384l.446-1.347.483-1.384h4.92l.483 1.384.446 1.347h3.042l-1.348-3.77-1.248-3.26-1.21-2.904-1.22-2.686h-2.714l-1.23 2.686-1.202 2.904-1.248 3.26-1.348 3.77h2.95zm5.174-4.99h-3.59l.574-1.566.52-1.366.42-1.092.273-.746.29.746.428 1.092.52 1.366.565 1.566zm10.202 5.207a14.68 14.68 0 0 0 2.295-.173l1.785-.373v-9.25h-2.714V35.2l-.583.064-.62.027c-.632 0-1.063-.194-1.293-.583s-.346-1.02-.346-1.894h0v-5.007h-2.714v5.335c0 .655.067 1.256.2 1.803s.358 1.017.674 1.41.744.7 1.284.92 1.218.328 2.03.328zm10.02 3.204c1.664 0 2.894-.38 3.69-1.138s1.193-1.92 1.193-3.487h0v-8.048l-.83-.21-.975-.173-1.03-.118-1.01-.046c-.765 0-1.45.112-2.06.337a4.27 4.27 0 0 0-1.539.956c-.42.413-.738.907-.956 1.484a5.38 5.38 0 0 0-.328 1.921c0 1.408.352 2.503 1.057 3.286s1.72 1.174 3.042 1.174a4.8 4.8 0 0 0 1.011-.1 4.37 4.37 0 0 0 .902-.3h0v.346c0 .534-.16.97-.483 1.31s-.87.5-1.65.5c-.595 0-1.126-.05-1.594-.146a7.96 7.96 0 0 1-1.339-.401h0l-.474 2.276c.498.17 1.038.306 1.62.4s1.166.155 1.75.155zm.765-6.245c-1.227 0-1.84-.76-1.84-2.276 0-.728.176-1.33.528-1.803s.887-.7 1.603-.7l.638.027.474.064v4.333c-.17.097-.377.182-.62.255s-.504.11-.783.11zm10.767 3.04a14.68 14.68 0 0 0 2.295-.173l1.785-.373v-9.25h-2.714V35.2l-.583.064-.62.027c-.632 0-1.063-.194-1.293-.583s-.346-1.02-.346-1.894h0v-5.007h-2.714v5.335c0 .655.067 1.256.2 1.803s.358 1.017.674 1.41.744.7 1.284.92 1.218.328 2.03.328zm9.364.036c1.3 0 2.305-.243 3.015-.728s1.066-1.202 1.066-2.148c0-.4-.046-.753-.137-1.056s-.25-.58-.474-.828-.53-.48-.92-.692a11.12 11.12 0 0 0-1.476-.646l-.72-.3c-.188-.09-.337-.176-.446-.255s-.182-.16-.22-.246-.055-.182-.055-.29c0-.473.425-.7 1.275-.7.462 0 .878.042 1.248.127a9.97 9.97 0 0 1 1.029.291h0l.474-2.112c-.316-.12-.74-.234-1.275-.337s-1.093-.155-1.676-.155c-1.166 0-2.083.26-2.75.783s-1.002 1.232-1.002 2.13c0 .46.067.856.2 1.183s.322.6.565.847a3.4 3.4 0 0 0 .884.61c.346.17.732.334 1.157.492.547.206.953.39 1.22.555s.4.355.4.574c0 .28-.103.467-.3.564s-.56.146-1.057.146c-.474 0-.953-.052-1.44-.155a8.91 8.91 0 0 1-1.421-.428h0l-.455 2.203c.22.097.6.218 1.175.364s1.272.218 2.122.218zm9.8-.036c.583 0 1.075-.05 1.476-.146s.765-.212 1.093-.346h0L262.18 35a4.65 4.65 0 0 1-.847.228 5.19 5.19 0 0 1-.902.082c-.607 0-1.01-.17-1.21-.5s-.3-.795-.3-1.366h0v-3.368h3.26v-2.258h-3.26v-2.822l-2.714.437v8.048a7.68 7.68 0 0 0 .173 1.693c.115.5.32.944.6 1.302s.68.637 1.166.838 1.1.3 1.84.3z"/></g><g class="R"><path d="M199.334 131.098V66.34h-66.4l.006.76c.583 35.086 29.642 63.423 65.623 63.99l.78.006z" class="L"/><path d="M127.385 366.013V265.985H24.77l.01 1.176c.9 54.195 45.803 97.964 101.4 98.843l1.206.01z" fill="#28bafe"/><path d="M66.514 0v64.76H.104l.006-.76C.694 28.91 29.753.575 65.734.006l.78-.006z" class="O"/><path d="M66.198 64.76V0h66.4l-.006.76c-.583 35.086-29.642 63.423-65.623 63.99l-.78.006z" class="K"/><path d="M66.514 66.34v64.76H.104l.006-.76c.583-35.086 29.642-63.423 65.623-63.99l.78-.006z" class="E"/><g class="S"><ellipse transform="matrix(1 0 0 -1 0 197.436548)" cx="231.116" cy="98.718" rx="31.782" ry="32.38"/><ellipse transform="matrix(1 0 0 -1 0 632.25041)" cx="200.572" cy="316.125" rx="48.967" ry="49.888"/></g></g></g><g class="I"><rect x=".253" y="209.403" width="248.124" height="8.471" rx="4.236"/><rect x=".253" y="196.268" width="256.6" height="8.471" rx="4.236"/><rect x=".253" y="385.968" width="73.549" height="8.471" rx="4.236"/><rect x="135.473" y="385.968" width="105.143" height="8.471" rx="4.236"/><rect x=".253" y="222.538" width="256.6" height="8.471" rx="4.236"/><rect x=".253" y="235.42" width="85.533" height="8.471" rx="4.236"/><rect x=".253" y="183.133" width="263.535" height="8.471" rx="4.236"/><rect x=".253" y="372.833" width="128.396" height="8.471" rx="4.236"/><rect x="135.429" y="372.833" width="128.396" height="8.471" rx="4.236"/><rect x=".21" y="150.8" width="263.535" height="16.172" rx="8.086"/></g></g><g class="O"><rect x="110.407" y="270.624" width="46.234" height="8.471" rx="4.236"/><rect x="17.649" y="434.214" width="46.234" height="8.471" rx="4.236"/><rect x="153.165" y="434.214" width="46.234" height="8.471" rx="4.236"/></g><g transform="translate(68.316 276.945)"/></g><g transform="translate(402 555)" class="X"><use xlink:href="#H" class="J Y"/><use xlink:href="#H" class="H"/><g class="I"><rect x="115.2" y="96.48" width="328.8" height="16.8" rx="3.6"/><rect x="115.2" y="117.6" width="328.8" height="16.8" rx="3.6"/><rect x="115.2" y="139.2" width="249.6" height="16.8" rx="3.6"/><rect x="115.2" y="30.72" width="83.52" height="17.28" rx="3.6"/></g><g fill="#ff8100"><rect x="220.8" y="31.2" width="16.8" height="17.28" rx="3.6"/><rect x="242.4" y="31.2" width="16.8" height="17.28" rx="3.6"/></g><rect x="264" y="31.2" width="16.8" height="17.28" rx="3.6" class="I"/><g transform="translate(28.8 96)"><path d="M28.735 0C12.865 0 0 12.872 0 28.75S12.865 57.5 28.735 57.5 57.47 44.627 57.47 28.75 44.605 0 28.735 0z" fill="#06f" class="F"/><path d="M36.912 21.38c6.615 4.128 11.26 12.694 13.94 25.696-5.27 6.444-13.28 10.554-22.247 10.554-9.12 0-17.245-4.25-22.51-10.877.484-3.272 1.14-6.158 1.966-8.663.893-2.706 3.724-7.35 8.493-13.928l1.456-1.988c6.793.364 12.73.108 17.74-.615l1.162-.18z" class="G"/><g class="B C D U"><path d="M15.054 43.522c3.92 2.02 6.444-.563 9.087-3.37"/><path d="M28.552 40.607c.54 2.33.877 3.79 2.21 5.67.032.045-.107.027-.16.04"/><path d="M33.235 45.554c-2.672-1.588-1.066-.393-4.06-4.424"/><path d="M38.743 44.408c-3.63-.247-7.37-1.565-10.13-3.982"/><path d="M39.064 42.136c-1.913.273-5.813 2.224-10.372-1.97"/><path d="M38.923 39.38c-4.997 1.007-1.91.608-9.326.422"/><path d="M18.82 46.668c2.228-1.775 5.517-3.74 6.098-6.844"/><path d="M22.016 46.633c2.65-1.75.785-.298 3.818-5.98"/><path d="M24.953 46.79c2.01-3.912 1.346-1.985 2.194-5.704"/><path d="M28.132 46.34c-1.502-3.055-.95-1.307-1.313-5.34"/><path d="M31.138 46.192c-2.31-3.124-1.187-1.272-3.075-5.72"/><path d="M17.438 37.68c2.024 1.196 4.823 3.406 7.03 1.417"/><path d="M16.263 40.376c1.288.344 7.79 2.27 7.67-1.02"/><path d="M21.035 23.026c-.153 1.386-.153 2.254 0 2.602.972 2.212 2.49 1.475 3.12-.91"/><path d="M25.196 21.465c-2.947 12.75-2.73 19.123.65 19.123s4.55-2.255 3.51-6.765l-.52-11.578c1.56 5.464 3.034 5.724 4.42.78" class="G"/></g><g stroke="#ff5fa7" fill="#ff5fa7" class="B C"><path d="M14.794 33.65c-.75-.387-1.184-.734-1.3-1.04-.617-1.633.63-2.52 2.86-1.3.087-1.908.823-3.08 2.2-3.512s1.647.737.78 3.512c1.38-.205 2.247-.205 2.6 0 1.184.687.634 2.364-1.82 3.382 1.214 1.04 1.387 2.125.52 3.252s-1.907.607-3.12-1.56c-1.734 2.08-3.077 2.602-4.03 1.56s-.52-2.472 1.3-4.293z"/><path d="M34.038 31.78c-.788-.405-1.243-.768-1.364-1.09-.648-1.71.66-2.636 3-1.36.09-1.997.864-3.222 2.32-3.676s1.728.772.82 3.676c1.448-.215 2.357-.215 2.728 0 1.242.72.666 2.474-1.9 3.54 1.273 1.09 1.455 2.224.546 3.404s-2 .635-3.274-1.634c-1.82 2.178-3.228 2.723-4.23 1.634s-.546-2.587 1.364-4.493z" transform="matrix(-.987688 .156434 .156434 .987688 68.987366 -5.429423)"/></g><g fill="#d41c61"><circle cx="17.72" cy="33.586" r="1.625"/><circle cx="37.164" cy="31.48" r="1.625"/></g><path d="M37.85 21.697c5.354-.96 8.345-1.653 8.972-2.08l-1.17-3.252-9.752 1.95c-.607-9.453-2.297-14.18-5.07-14.18-.902 0-1.943 1.3-3.12 3.903-1.647-5.03-3.38-5.984-5.2-2.862s-2.774 7.85-2.86 14.18c-2.863-.092-4.987-.213-6.37-.363s-2.468-.376-3.25-.678v2.992c-.14.144.823.35 2.886.615s4.135.45 6.215.556c2.514.192 8.755-.068 18.723-.78z" fill="#001d75"/></g><circle cx="52.8" cy="41.227" r="24" class="I"/><use xlink:href="#U" class="V"/><g class="T"><path d="M483.6 38.4l25.2-16.053c-.807-.462-1.723-.747-2.713-.747h-44.975c-.99 0-1.906.286-2.713.747L483.6 38.4z"/><path d="M486.318 41.908c-.467.305-.99.457-1.518.457s-1.054-.152-1.52-.457L456.01 24c0 .03-.01.058-.01.082v27.424c0 3.36 2.583 6.094 5.76 6.094h46.08c3.177 0 5.76-2.733 5.76-6.094V24.082c0-.024-.01-.052-.01-.082l-27.274 17.908z"/></g></g><g transform="translate(0 26)" class="X"><use xlink:href="#M" class="J Y" href="#H"/><use xlink:href="#M" class="H" href="#H"/><g class="I"><rect x="115.2" y="96.48" width="328.8" height="16.8" rx="3.6"/><rect x="115.2" y="117.6" width="328.8" height="16.8" rx="3.6"/><rect x="115.2" y="139.2" width="249.6" height="16.8" rx="3.6"/><rect x="115.2" y="30.72" width="83.52" height="17.28" rx="3.6"/></g><g fill="#fb3640"><rect x="220.8" y="31.2" width="16.8" height="17.28" rx="3.6"/><rect x="242.4" y="31.2" width="16.8" height="17.28" rx="3.6"/><rect x="264" y="31.2" width="16.8" height="17.28" rx="3.6"/></g><circle cx="52.8" cy="41.227" r="24" class="I"/><use xlink:href="#U" class="V"/><g transform="translate(32 94)"><path d="M28.436 0C12.73 0 0 12.73 0 28.436S12.73 56.87 28.436 56.87 56.87 44.14 56.87 28.436 44.14 0 28.436 0z" fill="#06f" class="F"/><path d="M35.304 36.896c3.37 0 7.5-.212 12.42-.636l1.274-6.253h-5.52l.425-9.115H13.33l-.187 5.055c-3.53-.983-5.296-.52-5.296 1.386s1.58 3.046 4.74 3.416l1.062 4.875c11.066.848 18.284 1.272 21.655 1.272z" class="G"/><g fill="#212121"><path d="M30.956 20.778c-.152 2.66 2.214 3.34 2.87.89.5-1.87-2.227-2.046-3.087-.89"/><path d="M39.866 20.354c.046.566.012 1.145.14 1.7.55 2.403 3.55.072 1.96-1.936"/></g><path d="M44.668 17.765c.654 0-.12 5.84-.53 7.012-.52 1.486-1.75 1.166-3.078 1.166-.423 0-.787-.014-1.106-.05-.55-.67-1.266-1.418-2.043-2.094l-.592-.492.147.86-.19-.3c-.804 2.03-2.425 2.606-4.4 2.606-4.545 0-6.36-3.462-5.632-8.708h17.415zm-9.032 2.366h-6.14l-.002.03c-.078 1.26.065 2.237.402 2.937l.203.354c.536.8 1.488 1.202 3 1.202 1.03 0 1.736-.66 2.187-2.283l.122-.5.087-.5a19.05 19.05 0 0 0 .085-.671l.058-.58zm7.294 0h-4.55c.646 2.647 1.498 3.798 3.08 3.97l.445.023c.064 0 .098-.014.158-.07.127-.12.267-.36.395-.727.21-.597.355-1.434.43-2.504l.038-.692z" fill="#ff0025" class="F"/><g stroke="#212121" class="B C D"><path d="M38.025 24.58c2.135 1.686 4.028 4.14 3.704 4.545-.425.53-1.96.64-2.335.424-.3-.173-.165.06-.165 2.037"/><path d="M33.362 29.928c2.5 1.854 5.275 2.1 8.015 1.527"/></g><g class="U B C D"><path d="M36.04 34.688c.536 2.14 1.8 3.5 3.137 5.282"/><path d="M38.225 34.454c1.462 4.625 1.137 2.652 1.47 5.815"/><path d="M40.044 34.788c.437 4.496.384 2.626.384 5.6"/><path d="M41.98 34.788l-1 6.148"/><path d="M43.332 34.954c-.12 2.18-.695 3.917-1.786 5.798"/><path d="M44.817 34.738c-.2 2.126-.806 4.174-2.236 5.832"/><path d="M45.635 37.02c-1.768 2.368-1.98 3.094-4.623 3.716"/></g><path d="M33.54 29.154c-.16.43-.478.854-1.01.878" stroke="#212121" class="B C D"/></g><g transform="translate(460 17)" class="T"><path d="M43.2 33.6H27.396l-4.8-4.8 4.8-4.8H43.2v9.6zM30.043 5.448L32.116 9.6h-12.45l10.378-4.152zM45.6 19.2h-2.4v-4.8c0-2.646-2.152-4.8-4.8-4.8h-.916l-4.137-8.272C32.788.212 31.472-.288 30.31.17L6.735 9.6H4.8C2.152 9.6 0 11.754 0 14.4v28.8C0 45.846 2.152 48 4.8 48h33.6c2.648 0 4.8-2.154 4.8-4.8v-4.798h2.4c1.326 0 2.4-1.077 2.4-2.4V21.6a2.4 2.4 0 0 0-2.401-2.399z"/><path d="M34.8 29.4c0-1.655-1.344-3-3-3s-3 1.346-3 3a3 3 0 0 0 6 0z"/></g></g><g transform="translate(871 197)" class="X"><use xlink:href="#P" class="J Y" href="#H"/><use xlink:href="#P" class="H" href="#H"/><g class="I"><rect x="115.2" y="93.6" width="328.8" height="16.8" rx="3.6"/><rect x="115.2" y="114.72" width="328.8" height="16.8" rx="3.6"/><rect x="115.2" y="136.32" width="249.6" height="16.8" rx="3.6"/><rect x="115.2" y="30.72" width="83.52" height="17.28" rx="3.6"/></g><rect x="220.8" y="31.2" width="16.8" height="17.28" rx="3.6" class="V"/><g class="I"><rect x="242.4" y="31.2" width="16.8" height="17.28" rx="3.6"/><rect x="264" y="31.2" width="16.8" height="17.28" rx="3.6"/><circle cx="52.8" cy="41.227" r="24"/></g><use xlink:href="#U" class="V"/><path d="M500.017 41.454h9.818v-9.818h-9.818v9.818zm-14.726 0h9.818v-9.818h-9.818v9.818zm0 14.726h9.818v-9.818h-9.818v9.818zm-14.726-14.726h9.818v-9.818h-9.818v9.818zm0 14.726h9.818v-9.818h-9.818v9.818zm41.727-39.27h-4.91V12h-4.91v12.273h-4.91V16.91h-14.727V12h-4.91v12.273h-4.91V16.91h-4.91c-2.708-.002-4.91 2.2-4.91 4.91v36.818c0 2.704 2.2 4.91 4.91 4.91h44.182a4.92 4.92 0 0 0 4.909-4.909V21.818c0-2.708-2.203-4.91-4.91-4.91z" class="T"/><g transform="translate(31.2 93.6)"><g class="F"><path d="M28.034 0C12.55 0 0 12.558 0 28.048s12.55 28.048 28.034 28.048S56.068 43.54 56.068 28.048 43.517 0 28.034 0z" fill="#06f"/><path d="M23.936 16.414c-6.364 0-12.053 1.686-16.302 4.367-1.72 1.086-3.085 2.28-3.873 3.37-.474.656-.764 1.293-.798 1.96-.058 1.13.67 2.06 1.782 2.3l.096.02c.725.137 1.79.2 4.28.254l2.256.06c2.658.074 3.734.122 5.434.238l.344.024.3.022c2.572.193 4.726.478 6.436.878l.12.028v9.962c.23 2.345 2.755 3.517 7.575 3.517s10.306-1.36 16.457-4.08l-.855-7.386.06-.016c.878-.234 1.62-.564 2.23-1.004a4.13 4.13 0 0 0 1.781-3.456c0-1.632-.915-2.86-2.48-3.272l-.06-.015c-.67-.165-1.443-.183-2.333-.067l-.102.014-.16-1.375-.562-.446c-4.978-3.952-12.2-5.9-21.627-5.9z" class="G"/></g><g class="B C D U"><path d="M19.56 18.527c2.47.145 2.082.2 3.845-1.52"/><path d="M19.8 19.79c1.942-.14 2.146-.88 3.477-2.514"/><path d="M24.125 17.182c.488 1.25 1.326 1.336 2.628 1.233"/><path d="M24.125 17.198c.287 2.183-.22 1.27 1.666 2.658"/></g><g stroke="#fff" class="B C"><path d="M20.777 13.195c2.313-2.12 3.5.697 3.253 2.514-.3 2.194-2.085 3.9-3.765 5.09-.023.017-1.49 1.007-1.923.624-1.04-.92-.627-2.99-.192-4.227s1.554-3.018 2.628-4.002z"/><g class="D"><path d="M23.837 17.8c.382-1.173.637-2.655 1.682-3.5 2.246-1.796 4.416-1.203 3.797 1.89-.34 1.69-1.747 3.7-2.98 4.867-1.6 1.528-2.996-.56-2.756-2.08.116-.738.395-1.44.593-2.16"/></g></g><g class="U B C"><path d="M31.656 16.3c.527 3.09.82 5.452 2.884 7.893 3.023 3.577 9.74 2.08 12.545-.993" class="D"/><path d="M34.236 16.7c-.56 4.105-.22 8.746 4.967 9.446.36.048 2.752.177 3.637-.128 2.145-.74 2.233-1.187 4.278-2.85" class="D"/><path d="M35.18 16.733c1.813 3.756 6.647 12.48 11.488 6.804" class="D"/><path d="M37.584 17.182c.425 2.307.64 4.642 2.18 6.532 2.04 2.504 6.2 1.99 7.93-.448" class="D"/><path d="M38.77 17.598c1.163 2.938 3.362 7.866 7.354 6.228" class="D"/><path d="M40.196 17.902c.965 1.527 2.96 5.41 4.95 5.812.775.157 1.58-.02 2.37-.032" class="D"/><path d="M23.212 30.982c1.954-.687 3.53.73 5.527.368.967-.174 2.147-1.227 2.852-1.76" class="D"/><path fill="#001d75" d="M20.296 38.582l8.245 4.57 12.94-4.57-.76 9.646-12.178-3.68-10.402 3.68z"/></g></g></g></g></svg>