<svg xmlns="http://www.w3.org/2000/svg" xmlns:xlink="http://www.w3.org/1999/xlink" width="1062" height="1062" xmlns:v="https://vecta.io/nano"><style><![CDATA[.B{stroke-linejoin:round}.C{stroke-linecap:round}.D{stroke:#000}.E{stroke-width:3.251}.F{fill:#ff8100}.G{stroke-width:6.813}.H{stroke-width:4.258}]]></style><defs><path d="M52.545 13.286C60.852 27.87 4.062 27.423.244 16.65c-3.776-10.656 37.34-29.624 52.3-3.364z" id="A"/><path id="B" d="M0 0h180.803v113.64H0z"/><path id="C" d="M0 0h178.7v113.526H0z"/><path id="D" d="M0 29.342L37.85 0h20.78v10.533L18.554 40.627H0z"/><path id="E" d="M320.294 211.024c.497 7.91-7.22 9.924-9.36 2.643-1.632-5.555 7.264-6.082 10.068-2.643"/><path id="F" d="M210.71 375c-2.878-4.813-8.03-8.863-8.634-14.44-1.89-17.45 23.788-21.1 14.442-28.725-4.352-3.555-17.423-3.032-11.146-13.81 1.402-2.407 5.024-2.41 7.537-3.613"/><path id="G" d="M8.505 136.968l2.378-49.774a140 140 0 0 0-4.149-41.145c-1.328-5.23-2.005-9-2.03-11.313-.06-5.556-4.045-10.552-1.8-15.08.455-.92.706-4.012 1.8-4.667 3.75-2.227 2.5-3.045 5.43-4.667C24.837 2.207 37.093 0 70.22 0c20.244 0 37.097 2.355 50.558 7.065a14.84 14.84 0 0 1 9.764 16.282l-1.34 8.638a140 140 0 0 1-.905 5.189l-1.85 9.542a23.97 23.97 0 0 0 .608 11.565c1.158 3.8 1.84 7.71 2.028 11.668l3.202 67.02H8.505z"/><path id="H" d="M8.406 136.83l2.36-49.92A140 140 0 0 0 6.68 46.098C5.35 40.824 4.674 37.025 4.65 34.7 4.59 29.15.652 24.16 2.86 19.637c.45-.92.697-4.008 1.79-4.663 3.706-2.225 2.46-3.042 5.366-4.663C24.548 2.205 36.662 0 69.404 0c19.944 0 36.558 2.338 49.84 7.013a14.9 14.9 0 0 1 9.779 16.311l-1.328 8.652a140 140 0 0 1-.887 5.138l-1.833 9.557a24.18 24.18 0 0 0 .601 11.551c1.144 3.786 1.818 7.7 2.004 11.65l3.165 66.958H8.406z"/></defs><g fill="none" fill-rule="evenodd"><g transform="translate(389 275)"><path d="M19.847 45.123C52.2 3.85 113.032-1.702 163.877.37s68.03 14.45 93.493 54.43 19.786 71.142 5.286 100.66c-7.256 14.772-20.272 27.36-36.773 37.392C217.125 198.177 204 205 241 216s-65.145-2.588-76.33-.378c-56.014 11.067-119.512 1.746-149.257-34.762-28.255-34.68-10.585-90.107-2.388-125.79l6.823-9.946z" fill="#f4f2ee"/><path fill="#0d62fe" d="M124.856 147.614L98 120.69l9.637-9.664 16.75 16.796L174.088 73l10.084 9.188z"/><path d="M429.666 212.648C424.777 321.25 306.22 361.518 382 432.293c18.11 16.913-99.3 17.15-89.224 0 53.78-91.52-2.444-111.043-1.222-209.884.144-11.656 1.798-22.59 4.73-32.63 59.02-1.665 102.26-.143 129.717 4.564 2.184.374 3.406 6.476 3.667 18.304z" fill="#f06aa6"/><path d="M445.533 199.893c-6.495 28.137-18.85 56.982-21.24 85.883-1.732 20.946-.774 42.03-1.16 63.045m14.934-149.86c-14.568 36.547-20.217 69.426-21.593 108.92-1.08 31.03-4.192 23.453 2.012 36.285m-.02-122.867c-13.676 56.285-14.304 74.472-4.73 132.174m-.87 6.516c-33.92-30.382-19.7-83.438-10.622-121.004" stroke="#ffc415" class="B C G"/><path d="M347.105 211.993c2.064 10.16 1.502 16.97-1.684 20.43-16.923 18.383-23.51 25.455-42.54 51.63-.26.358-.183 1.296.26 1.3 2.1.02 4.468-.048 6.208-1.236 12.208-8.333 21.644-20.994 35.16-27.002 18.193-8.087-3.395 17.564-9.905 17.564s18.807 11.572 44.847-2.17-22.423 16.634-38.337 15.188 6.5 13.018 0 32.545" stroke="#212121" class="B C H"/><path d="M301.8 231.54c-10.953 29.035-25.612 99.78-68.755 107.964-.547.104-.83-.738-1.245-1.107m63.467-126.404c-9.917 49.03-24.577 92.358-65.333 121.004m59.733-139.62C277 239.035 270.6 288.683 231.8 319.966m44.8-124.726c-11.705 48.966-13 81.187-47.6 115.42" stroke="#ffc415" class="G B C"/><path d="M288.563 185.405c-5.3 0 3.18 32.548 6.502 40.065 2.808 6.356 10.542 9.593 23.2 9.713 14.01.43 23.75-2.76 29.222-9.57l.836-1.072c6.503 13.02 19.602 16.71 35.49 16.71 36.744 0 51.41-22.206 45.528-55.848h-140.78zm64.865 12.428l62.492-.873.018.224c.83 10.725-1.037 18.702-5.23 23.99l-.223.276-.212.253c-5.02 5.888-14.386 8.96-28.544 8.96-10.44 0-22.755-4.38-26.9-18.78l-.133-.478c-.685-2.56-.468-7.005-1.106-12.215l-.123-1.025-.038-.33zm-54.985 1.053h45.34l-.022.065c.022 20.397.022 28.822-33.945 28.81l-.545.008-.64.003c-.64 0-.974-.1-1.577-.514-1.27-.876-2.66-2.606-3.94-5.255-2.432-5.035-4.006-12.443-4.61-22.117l-.057-1z" fill="#001c6c" fill-rule="nonzero"/><g fill="#212121"><use xlink:href="#E"/><use xlink:href="#E" x="57.283"/></g><path d="M272.044 451.83c-6 8.75-31.132 6.483-17.666-11.25s23.655 2.5 17.666 11.25zm29.388 14.995c-6.16 8.445-28.653 3.066-14.8-14.048s20.962 5.603 14.8 14.048zm42.854 5.032c-6.23 8.768-28.635 4.798-14.624-12.972s20.855 4.204 14.624 12.972zM389 466.412c-6.336 8.628-27.895 4.136-18.688-11.093s25.024 2.465 18.688 11.093zm31.915-10.272c-6.017 8.534-24.648 4.442-17.748-10.972s23.765 2.438 17.748 10.972z" fill="#ff0034"/><g transform="translate(185 354)"><path d="M.52 30.682c.887-2.573 1.926-4.314 3.118-5.22 14.64-11.143 31.368-11.494 44.686 0 1.83 1.58 4.157 3.154 4.157 6.308L49.82 54.736C27.903 58.36 12.704 57.634 4.22 52.562l-3.7-21.88z" fill="#0c2610"/><path d="M0 13l12.462 72.343c18 4.875 29.077 4.875 33.23 0L54 17.18" fill="#f4f2ee"/><mask id="I" fill="#fff"><use xlink:href="#A"/></mask><use fill="#d3d3d3" xlink:href="#A"/><path d="M52.545 25.53c8.308 14.583-48.483 14.137-52.3 3.364-3.776-10.656 37.34-29.624 52.3-3.364z" fill="#451b1b" mask="url(#I)"/><path d="M1 30c19.102 7.138 36.435 7.495 52 1.07L49.816 56.77c-21.932 3.57-37.143 2.855-45.633-2.142L1 30z" fill="#14591d"/></g><g opacity=".07" stroke="#212121" class="B C H"><use xlink:href="#F"/><use xlink:href="#F" x="8.024"/></g></g><g transform="translate(296 509)"><g class="B D"><path d="M4 313l.082-145.5c.01-17.882 10.185-34.265 26.377-42.473l32.947-16.7C70.325 104.83 77.998 103 85.785 103h206.46c26.658-.028 48.32 20.962 48.75 47.016l.007.79c0 .01 0 .02-.03.03l-.07 113.85L286.747 313H4z" fill="#f2f4f6" class="E"/><path stroke-width="1.161" fill="#000" d="M306 153.5V239l11-6v-87z"/></g><g transform="translate(71)"><path fill="#011638" d="M12.274 111.236L0 117.55h210.192l12.658-6.313z"/><g transform="translate(18.02)"><mask id="J" fill="#fff"><use xlink:href="#B"/></mask><g mask="url(#J)"><g transform="translate(24.107 12.415)"><g transform="translate(.044)"><path d="M70.54-1.357c20.4 0 37.4 2.382 50.974 7.114 3.784 1.318 6.826 3.878 8.77 7.1s2.793 7.085 2.183 11.018h0l-1.607 10.36a48.95 48.95 0 0 1-.316 1.814h0l-2.182 11.256a22.33 22.33 0 0 0 .472 10.46c1.302 4.276 1.996 8.284 2.19 12.33h0l3.263 68.298-9.92 3.35H-1.387L1.9 72.96A48.97 48.97 0 0 1 3.83 61.491h0l.163-.544c1.067-3.494 1.262-7.193.567-10.778h0L2.38 38.913c-.117-.603-.222-1.208-.316-1.814h0L.455 26.737a16.42 16.42 0 0 1 1.414-9.618c1.397-2.923 3.646-5.426 6.52-7.133.337-.257.75-.528 1.277-.82C24.563.947 36.96-1.357 70.54-1.357z" class="B D E F"/><g transform="translate(.318 .359)"><g class="F"><use xlink:href="#G"/><use xlink:href="#G"/></g><path d="M0 139.84l3.202-67.02c.19-3.958.87-7.878 2.028-11.668a23.97 23.97 0 0 0 .608-11.565l-1.85-9.542a140 140 0 0 1-.905-5.189l-1.34-8.638a14.9 14.9 0 0 1 9.786-16.341c13.298-4.67 30.027-7.006 50.187-7.006 20.244 0 37.097 2.355 50.558 7.065a14.84 14.84 0 0 1 9.764 16.282l-1.34 8.638a140 140 0 0 1-.905 5.189l-1.85 9.542a23.97 23.97 0 0 0 .608 11.565c1.158 3.8 1.84 7.71 2.028 11.668l3.202 67.02H0z" fill="#ffe156"/></g></g></g></g></g></g><g transform="translate(50 15)"><path fill="#011638" d="M12.274 109.02L0 115.328h210.192l12.658-6.307z"/><g transform="translate(20.123)"><mask id="K" fill="#fff"><use xlink:href="#C"/></mask><g mask="url(#K)"><g transform="translate(9.054 20.511)"><g transform="translate(.043)"><path d="M69.72-1.357c20.168 0 36.964 2.38 50.393 7.11a16.47 16.47 0 0 1 8.677 7.088c1.923 3.2 2.76 7.073 2.157 11h0l-1.588 10.35a49.37 49.37 0 0 1-.313 1.812h0l-2.157 11.245c-.667 3.475-.506 7.057.467 10.456 1.286 4.27 1.972 8.274 2.163 12.315h0l3.225 68.225-9.818 3.35H-1.4l3.248-68.707C2.04 69 2.68 65.168 3.766 61.433h0l.16-.544c1.056-3.493 1.248-7.2.56-10.774h0L2.332 38.87a49.37 49.37 0 0 1-.313-1.812h0L.43 26.708c-.517-3.37.022-6.693 1.397-9.6 1.38-2.92 3.605-5.422 6.447-7.128.334-.257.742-.528 1.264-.82C24.265.946 36.52-1.357 69.72-1.357z" class="B D E F"/><g transform="translate(.315 .359)"><g class="F"><use xlink:href="#H"/><use xlink:href="#H"/></g><path d="M0 139.7l3.165-66.958c.187-3.95.86-7.864 2.004-11.65a24.18 24.18 0 0 0 .601-11.551l-1.833-9.557a140 140 0 0 1-.887-5.138l-1.328-8.652a14.96 14.96 0 0 1 9.802-16.37C24.648 5.187 41.14 2.87 60.998 2.87c19.944 0 36.558 2.338 49.84 7.013a14.9 14.9 0 0 1 9.779 16.311l-1.328 8.652a140 140 0 0 1-.887 5.138l-1.833 9.557a24.18 24.18 0 0 0 .601 11.551c1.144 3.786 1.818 7.7 2.004 11.65l3.165 66.958H0z" fill="#ffe156"/></g></g></g></g></g></g><path d="M38 136h199.277c26.9-.026 48.723 21.853 48.723 48.843 0 .01 0 .02-.028.028L285.9 309m-282.437-.903c-1.913 0-3.463 1.6-3.463 3.57v2.134c0 3.152 2.476 5.7 5.533 5.715l280.42.484c.954.002 1.875-.362 2.584-1.02l51.7-48.073c2.388-2.22 3.752-5.38 3.752-8.697v-.845c0-2.4-1.895-4.364-4.233-4.364h0" class="B C D E"/><g transform="translate(295 149)"><mask id="L" fill="#fff"><use xlink:href="#D"/></mask><g class="D E"><path d="M60.257-1.626v12.97l-41.16 30.908H-1.626V28.545l38.92-30.17h22.963z"/><path d="M60.257-12.16V.812L19.097 31.72H-1.626V18.012l38.92-30.17h22.963z" fill="#fff" mask="url(#L)" class="B"/></g></g></g></g></svg>