<svg xmlns="http://www.w3.org/2000/svg" xmlns:xlink="http://www.w3.org/1999/xlink" width="705" height="627" xmlns:v="https://vecta.io/nano"><style><![CDATA[.B{stroke-linejoin:round}.C{stroke-width:.6}.D{stroke-linecap:round}.E{fill-rule:nonzero}.F{fill:#0064ff}.G{fill:#eaeaea}.H{fill:#001d71}.I{fill:#b4b4b4}.J{fill:#fff}.K{stroke:#001d75}.L{fill:#f2f4f6}.M{stroke:#f4f2ee}.N{fill:#ff0034}.O{stroke:#212121}.P{fill:#001d75}.Q{fill:#06f}.R{fill:#ff9d00}.S{fill:#ff7800}.T{fill:#42be65}.U{fill:#005b11}.V{fill:#00173a}.W{fill:#00c15a}.X{fill:#ffa300}.Y{stroke-width:1.053}.Z{stroke-linecap:square}.a{fill:#212121}.b{fill:#ff0025}.c{stroke:#ffc200}.d{fill:#ff243a}]]></style><defs><filter x="-8.5%" y="-6.8%" width="117.0%" height="113.5%" id="A"><feOffset dy="5" in="SourceAlpha"/><feGaussianBlur stdDeviation="5"/><feColorMatrix values="0 0 0 0 0 0 0 0 0 0.164542109 0 0 0 0 0.362271488 0 0 0 0.1 0" result="C"/><feMerge><feMergeNode in="C"/><feMergeNode in="SourceGraphic"/></feMerge></filter><filter x="-40.0%" y="-432.0%" width="180.0%" height="964.0%" id="B"><feOffset dy="24" in="SourceAlpha"/><feGaussianBlur stdDeviation="16"/><feColorMatrix values="0 0 0 0 0.3515625 0 0 0 0 0.3515625 0 0 0 0 0.3515625 0 0 0 0.1 0" result="C"/><feMerge><feMergeNode in="C"/><feMergeNode in="SourceGraphic"/></feMerge></filter><filter x="-40.5%" y="-31.6%" width="181.0%" height="163.2%" id="C"><feOffset dy="24" in="SourceAlpha"/><feGaussianBlur stdDeviation="16"/><feColorMatrix values="0 0 0 0 0.3515625 0 0 0 0 0.3515625 0 0 0 0 0.3515625 0 0 0 0.1 0" result="C"/><feMerge><feMergeNode in="C"/><feMergeNode in="SourceGraphic"/></feMerge></filter><filter x="-40.5%" y="-31.7%" width="181.0%" height="163.4%" id="D"><feOffset dy="24" in="SourceAlpha"/><feGaussianBlur stdDeviation="16"/><feColorMatrix values="0 0 0 0 0.3515625 0 0 0 0 0.3515625 0 0 0 0 0.3515625 0 0 0 0.1 0" result="C"/><feMerge><feMergeNode in="C"/><feMergeNode in="SourceGraphic"/></feMerge></filter><filter x="-40.4%" y="-31.7%" width="180.7%" height="163.4%" id="E"><feOffset dy="24" in="SourceAlpha"/><feGaussianBlur stdDeviation="16"/><feColorMatrix values="0 0 0 0 0.3515625 0 0 0 0 0.3515625 0 0 0 0 0.3515625 0 0 0 0.1 0" result="C"/><feMerge><feMergeNode in="C"/><feMergeNode in="SourceGraphic"/></feMerge></filter><path id="F" d="M11.973 0C5.36 0 0 5.36 0 11.973s5.36 11.973 11.973 11.973 11.973-5.36 11.973-11.973S18.585 0 11.973 0z"/><path id="G" d="M11.56 8.056c1.42 0 3.162-.09 5.23-.268l.536-2.633h-2.324l.18-3.838H2.308l-.08 2.128C.743 3.03 0 3.226 0 4.03s.665 1.283 1.996 1.438l.447 2.053 9.118.535z"/><path id="H" d="M15.503 0c.276 0-.05 2.46-.223 2.952-.22.626-.737.49-1.296.49a4.1 4.1 0 0 1-.466-.021 7.61 7.61 0 0 0-.86-.882l-.25-.207.062.363-.08-.126c-.34.855-1.02 1.097-1.85 1.097C8.628 3.667 7.864 2.21 8.17 0h7.333zM11.7.997H9.114l-.001.013c-.033.53.027.942.17 1.236l.085.15c.226.333.627.506 1.263.506.433 0 .73-.278.92-.96l.05-.206.037-.2.036-.282.025-.244zm3.07 0h-1.915c.272 1.115.63 1.6 1.297 1.672l.188.01c.027 0 .04-.006.067-.03.054-.05.112-.152.167-.306.088-.25.15-.604.18-1.054l.016-.29z"/><path id="I" d="M12.706 2.87c.9.7 1.696 1.743 1.56 1.914-.18.223-.825.27-.983.178-.127-.073-.07.026-.07.858"/><path id="J" d="M61.3 17.92l-3.912 2.42-3.246-5.017c-.035-.054-.094-.08-.138-.124l.9-.93a.49.49 0 0 0 0-.68l-1.21-1.246a.46.46 0 0 0-.662 0l-1.21 1.246a.49.49 0 0 0 0 .68l.9.93c-.045.044-.103.07-.138.124l-3.247 5.017-3.912-2.42c-.324-.2-.735-.18-1.04.052a.98.98 0 0 0-.35 1.008l1.87 7.71c.104.428.48.73.908.73H59.9c.43 0 .804-.302.908-.73l1.87-7.71a.98.98 0 0 0-.35-1.008c-.305-.233-.714-.252-1.04-.052z"/><path id="K" d="M11.973 0A11.98 11.98 0 0 0 0 11.979a11.98 11.98 0 0 0 11.973 11.979 11.98 11.98 0 0 0 11.973-11.979A11.98 11.98 0 0 0 11.973 0z"/><path id="L" d="M11.68 0C5.23 0 0 5.232 0 11.687s5.23 11.687 11.68 11.687 11.68-5.232 11.68-11.687S18.132 0 11.68 0z"/><path id="M" d="M1.834 4.16c-.07-.458.01-.773.243-.947.422-.315.99.226 1.046.626.068.474-.303 1.21-.66 1.092-.34-.114-.55-.37-.63-.772z"/><path id="N" d="M4.884 7.704v-1.33H1.81V.824H.25v6.88h4.633zm3.242.14a2.74 2.74 0 0 0 1.066-.199c.317-.132.59-.32.816-.56s.4-.533.52-.874a3.37 3.37 0 0 0 .18-1.127 3.17 3.17 0 0 0-.19-1.122 2.52 2.52 0 0 0-.53-.864c-.227-.238-.5-.424-.816-.556s-.666-.2-1.046-.2a2.66 2.66 0 0 0-1.036.199c-.317.132-.6.318-.82.556a2.54 2.54 0 0 0-.54.864c-.13.338-.195.71-.195 1.122a3.21 3.21 0 0 0 .19 1.127c.127.34.304.632.53.874s.5.43.816.56.67.2 1.056.2zm0-1.27c-.34 0-.604-.134-.79-.402s-.28-.63-.28-1.087.093-.816.28-1.077.45-.392.79-.392a.9.9 0 0 1 .786.392c.183.26.275.62.275 1.077s-.092.82-.275 1.087-.445.402-.786.402zm6.075 1.27a2.74 2.74 0 0 0 1.066-.199c.317-.132.59-.32.816-.56s.4-.533.52-.874a3.37 3.37 0 0 0 .18-1.127 3.17 3.17 0 0 0-.19-1.122 2.52 2.52 0 0 0-.53-.864c-.227-.238-.5-.424-.816-.556s-.666-.2-1.046-.2a2.66 2.66 0 0 0-1.036.199c-.317.132-.6.318-.82.556a2.54 2.54 0 0 0-.54.864c-.13.338-.195.71-.195 1.122a3.21 3.21 0 0 0 .19 1.127c.127.34.304.632.53.874s.5.43.816.56.67.2 1.056.2zm0-1.27c-.34 0-.604-.134-.79-.402s-.28-.63-.28-1.087.093-.816.28-1.077.45-.392.79-.392a.9.9 0 0 1 .786.392c.183.26.275.62.275 1.077s-.092.82-.275 1.087-.445.402-.786.402zm5.224 1.132V5.42a4.04 4.04 0 0 1 .505.486l.485.6.435.625.365.57h1.71l-.42-.725-.55-.794-.62-.77c-.213-.248-.42-.462-.62-.64L21.82 3.64l1.036-1.157h-1.77l-.335.397-.415.48-.455.51-.455.496V0l-1.49.238v7.466h1.49zm5.044-5.857c.24 0 .45-.078.625-.233s.265-.37.265-.64-.088-.485-.265-.64S24.71.1 24.468.1s-.45.078-.625.233-.265.37-.265.64.088.485.265.64.385.233.625.233zm.75 5.857V2.482h-1.49v5.222h1.49zm2.892 0v-4.03l.32-.035.34-.015c.347 0 .584.1.71.298s.2.536.2 1.013h0v2.77h1.49v-2.95c0-.357-.037-.682-.1-.973a1.91 1.91 0 0 0-.37-.755c-.173-.212-.41-.376-.706-.49s-.67-.174-1.116-.174c-.44 0-.86.03-1.26.094l-.98.204v5.043h1.49zm6.265 1.866c.914 0 1.6-.207 2.027-.62s.655-1.047.655-1.9h0V2.66l-.455-.114-.535-.094-.565-.065-.555-.025c-.42 0-.797.06-1.13.184s-.615.296-.846.52-.405.495-.525.81-.18.664-.18 1.047c0 .768.193 1.365.58 1.792s.944.64 1.67.64c.2 0 .385-.018.555-.055s.335-.09.495-.164h0v.19c0 .29-.088.53-.265.715s-.48.278-.906.278a4.36 4.36 0 0 1-.876-.079c-.257-.053-.502-.126-.736-.218h0l-.26 1.24c.274.093.57.167.89.223s.64.084.96.084zm.42-3.405c-.674 0-1.01-.414-1.01-1.24 0-.397.097-.725.3-.983s.487-.387.88-.387l.35.015.26.035v2.363c-.093.053-.207.1-.34.14a1.5 1.5 0 0 1-.43.06zM.89 9.744c.24 0 .45-.078.625-.233s.265-.37.265-.64-.088-.485-.265-.64-.385-.233-.625-.233-.45.078-.625.233S0 8.6 0 8.87s.088.485.265.64.385.233.625.233zm.75 5.857V10.38H.15V15.6h1.49zm2.892 0v-4.03l.32-.035.34-.015c.347 0 .584.1.71.298s.2.536.2 1.013h0v2.77h1.49v-2.95c0-.357-.037-.682-.1-.973a1.91 1.91 0 0 0-.37-.755c-.173-.212-.41-.376-.706-.49s-.67-.174-1.116-.174c-.44 0-.86.03-1.26.094l-.98.204V15.6h1.49zm6.435.12c.32 0 .6-.026.81-.08s.42-.116.6-.19h0l-.2-1.152a2.57 2.57 0 0 1-.465.124 2.87 2.87 0 0 1-.495.045c-.334 0-.555-.093-.666-.278s-.165-.434-.165-.745h0V11.6h1.79v-1.23h-1.79V8.84l-1.49.238v4.388c0 .338.032.645.095.923s.175.515.335.7.374.347.64.457.604.164 1.01.164zm4.553.02a2.74 2.74 0 0 0 1.066-.199c.317-.132.59-.32.816-.56s.4-.533.52-.874a3.37 3.37 0 0 0 .18-1.127 3.17 3.17 0 0 0-.19-1.122 2.52 2.52 0 0 0-.53-.864c-.227-.238-.5-.424-.816-.556s-.666-.2-1.046-.2a2.66 2.66 0 0 0-1.036.199c-.317.132-.6.318-.82.556a2.54 2.54 0 0 0-.54.864c-.13.338-.195.71-.195 1.122a3.21 3.21 0 0 0 .19 1.127c.127.34.304.632.53.874s.5.43.816.56.67.2 1.056.2zm0-1.27c-.34 0-.604-.134-.79-.402s-.28-.63-.28-1.087.093-.816.28-1.077.45-.392.79-.392a.9.9 0 0 1 .786.392c.183.26.275.62.275 1.077s-.092.82-.275 1.087-.445.402-.786.402zm8.166 1.25c.32 0 .6-.026.81-.08s.42-.116.6-.19h0l-.2-1.152a2.57 2.57 0 0 1-.465.124 2.87 2.87 0 0 1-.495.045c-.334 0-.555-.093-.666-.278s-.165-.434-.165-.745h0V11.6h1.79v-1.23h-1.79V8.84l-1.49.238v4.388c0 .338.032.645.095.923s.175.515.335.7.374.347.64.457.604.164 1.01.164zm3.903-.12v-3.97l.315-.074c.117-.023.242-.035.375-.035.334 0 .562.1.686.298s.185.536.185 1.013h0v2.77h1.49v-2.95c0-.357-.035-.682-.105-.973s-.2-.543-.36-.755-.397-.376-.68-.49-.64-.174-1.066-.174a2.44 2.44 0 0 0-.455.045 3.11 3.11 0 0 0-.385.094h0V7.897l-1.49.238V15.6h1.49zm6.935.14a5.3 5.3 0 0 0 .56-.03l.525-.074a4.22 4.22 0 0 0 .445-.104 2.07 2.07 0 0 0 .32-.119h0l-.2-1.2a3.06 3.06 0 0 1-.645.184c-.264.05-.532.074-.806.074-.427 0-.767-.09-1.02-.268a.98.98 0 0 1-.43-.725h3.383l.02-.273.01-.283c0-.88-.217-1.547-.65-2s-1.024-.68-1.77-.68a2.54 2.54 0 0 0-.936.179c-.304.12-.572.295-.806.526s-.422.52-.565.87-.215.753-.215 1.216c0 .384.055.74.165 1.072a2.26 2.26 0 0 0 .51.859c.23.242.52.432.87.57s.762.208 1.236.208zm.72-3.276h-1.97c.02-.126.052-.25.095-.372s.105-.23.185-.323a.89.89 0 0 1 .3-.223c.12-.056.264-.084.43-.084.173 0 .32.03.435.09s.213.136.3.228.133.2.17.318.058.242.065.367h0zM1.81 23.498v-2.84h2.742v-1.3H1.81v-1.44h3.082v-1.3H.25v6.88h1.56zm6.135.12c.44 0 .86-.03 1.26-.094l.98-.204v-5.043h-1.49v4.03l-.32.035-.34.015c-.347 0-.584-.106-.71-.318s-.2-.556-.2-1.032h0v-2.73h-1.49v2.91c0 .357.037.685.1.983a1.95 1.95 0 0 0 .37.769c.173.215.41.382.706.5s.67.18 1.116.18zm5.674 0c.32 0 .6-.026.81-.08s.42-.116.6-.19h0l-.2-1.152a2.57 2.57 0 0 1-.465.124 2.87 2.87 0 0 1-.495.045c-.334 0-.555-.093-.666-.278s-.165-.434-.165-.745h0v-1.837h1.79v-1.23h-1.79v-1.54l-1.49.238v4.388c0 .338.032.645.095.923s.175.515.335.7.374.347.64.457.604.164 1.01.164zm4.664 0c.44 0 .86-.03 1.26-.094l.98-.204v-5.043h-1.49v4.03l-.32.035-.34.015c-.347 0-.584-.106-.71-.318s-.2-.556-.2-1.032h0v-2.73h-1.49v2.91c0 .357.037.685.1.983a1.95 1.95 0 0 0 .37.769c.173.215.41.382.706.5s.67.18 1.116.18zm5.134-.12v-3.99c.067-.02.165-.038.295-.055s.242-.025.335-.025a2.93 2.93 0 0 1 .58.055l.47.104.25-1.22a1.61 1.61 0 0 0-.29-.084l-.34-.06-.34-.04-.3-.015a5.49 5.49 0 0 0-1.216.124l-.946.263v4.944h1.49zm5.164.14a5.3 5.3 0 0 0 .56-.03l.525-.074a4.22 4.22 0 0 0 .445-.104 2.07 2.07 0 0 0 .32-.119h0l-.2-1.2a3.06 3.06 0 0 1-.645.184c-.264.05-.532.074-.806.074-.427 0-.767-.09-1.02-.268a.98.98 0 0 1-.43-.725h3.383l.02-.273.01-.283c0-.88-.217-1.547-.65-2s-1.024-.68-1.77-.68a2.54 2.54 0 0 0-.936.179c-.304.12-.572.295-.806.526s-.422.52-.565.87-.215.753-.215 1.216c0 .384.055.74.165 1.072a2.26 2.26 0 0 0 .51.859c.23.242.52.432.87.57s.762.208 1.236.208zm.72-3.276h-1.97c.02-.126.052-.25.095-.372s.105-.23.185-.323a.89.89 0 0 1 .3-.223c.12-.056.264-.084.43-.084.173 0 .32.03.435.09s.213.136.3.228.133.2.17.318.058.242.065.367h0z"/><path id="O" d="M112.113 22.912V.517H107.1v22.395h5.012zm10.09 0V8.24c1.885 2.22 3.663 4.578 5.334 7.077l4.66 7.594h4.21V.517h-4.98v13.217L128.95 10.1l-2.65-3.652-2.62-3.312-2.346-2.618h-4.08v22.395h4.948zm30.78 0l2.603-5.85 2.442-6.01 2.12-5.688L161.85.517h-5.334l-1.398 4.185-1.542 4.476-1.542 4.266-1.366 3.522-1.382-3.522-1.526-4.266-1.542-4.476-1.398-4.185h-5.526l1.687 4.847 2.137 5.688 2.442 6.01 2.603 5.85h4.82zm21.077.452c1.564 0 3.026-.248 4.386-.743s2.533-1.233 3.518-2.214 1.762-2.197 2.33-3.652.85-3.14.85-5.057-.29-3.603-.868-5.057-1.37-2.677-2.378-3.668-2.185-1.734-3.534-2.23S175.58 0 174.06 0c-1.478 0-2.886.248-4.225.743a9.97 9.97 0 0 0-3.534 2.23c-1.017.99-1.826 2.214-2.426 3.668s-.9 3.14-.9 5.057.29 3.603.868 5.057 1.37 2.67 2.378 3.652a9.89 9.89 0 0 0 3.534 2.214c1.35.496 2.785.743 4.305.743zm0-4.427c-.942 0-1.778-.172-2.506-.517s-1.344-.835-1.847-1.47-.89-1.395-1.157-2.278-.402-1.874-.402-2.973c0-1.077.134-2.063.402-2.957s.653-1.66 1.157-2.294 1.12-1.13 1.847-1.487 1.564-.533 2.506-.533c.92 0 1.75.172 2.5.517a5.09 5.09 0 0 1 1.864 1.47c.503.636.89 1.4 1.157 2.294s.402 1.9.402 2.99-.134 2.1-.402 2.973-.653 1.643-1.157 2.278a5.09 5.09 0 0 1-1.864 1.47c-.74.345-1.57.517-2.5.517zm20.274 3.975V.517h-5.012v22.395h5.012zm15.294.452c1.692 0 3.18-.172 4.466-.517s2.28-.732 2.988-1.163h0l-1.382-4.04-.932.42c-.343.15-.74.285-1.19.404a14.48 14.48 0 0 1-1.542.307c-.578.086-1.232.13-1.96.13-1.157 0-2.142-.19-2.956-.566s-1.473-.89-1.976-1.535-.868-1.417-1.092-2.31a11.83 11.83 0 0 1-.337-2.892c0-1.293.17-2.39.514-3.296s.798-1.643 1.366-2.214a5.12 5.12 0 0 1 1.96-1.244c.74-.26 1.494-.388 2.265-.388 1.157 0 2.2.13 3.1.388s1.708.57 2.394.937h0l1.446-4.072c-.17-.108-.45-.26-.835-.452s-.868-.382-1.446-.566S213.227.35 212.456.2s-1.628-.2-2.57-.2c-1.628 0-3.138.26-4.53.776s-2.592 1.276-3.6 2.278-1.8 2.23-2.378 3.684-.868 3.108-.868 4.96c0 3.727.948 6.603 2.844 8.628s4.654 3.038 8.274 3.038zm26.443-.452V18.68h-10.764v-5.397h8.9V9.145h-8.9V4.75h10.025V.517h-15.037v22.395h15.776z"/><path id="P" d="M9.61 5.466l-.918.942-2.7-2.77.918-.942a.6.6 0 0 1 .865 0L9.61 4.578a.64.64 0 0 1 0 .888h0zM5.328 9.86c-.12.122-.276.184-.433.184s-.313-.062-.433-.184L2.627 7.976a.64.64 0 0 1 0-.888L5.38 4.264l2.7 2.77L5.328 9.86zm6.73-6.277a.64.64 0 0 0 0-.888L9.61.184a.6.6 0 0 0-.865 0c-.35.36-1.232.36-1.582 0a.6.6 0 0 0-.865 0L.18 6.46a.64.64 0 0 0 0 .888c.37.38.37 1.244 0 1.623a.64.64 0 0 0 0 .888l2.448 2.51a.6.6 0 0 0 .865 0c.35-.36 1.232-.36 1.582 0 .12.122.276.184.433.184s.313-.062.433-.184l6.12-6.277a.64.64 0 0 0 0-.888c-.37-.38-.37-1.244 0-1.623h0z"/><path id="Q" d="M9.61 33.478l-.918.942-2.7-2.77.918-.942a.6.6 0 0 1 .865 0L9.61 32.6a.64.64 0 0 1 0 .888h0zm-4.283 4.394c-.12.122-.276.184-.433.184s-.313-.062-.433-.184L2.627 35.99a.64.64 0 0 1 0-.888l2.754-2.825 2.7 2.77-2.754 2.825zm6.73-6.277a.64.64 0 0 0 0-.888l-2.448-2.51a.6.6 0 0 0-.865 0c-.35.36-1.232.36-1.582 0a.6.6 0 0 0-.865 0L.18 34.473a.64.64 0 0 0 0 .888c.37.38.37 1.244 0 1.623a.64.64 0 0 0 0 .888l2.448 2.51a.6.6 0 0 0 .865 0c.35-.36 1.232-.36 1.582 0 .12.122.276.184.433.184s.313-.062.433-.184l6.12-6.277a.64.64 0 0 0 0-.888c-.37-.38-.37-1.244 0-1.623h0z"/><path id="R" d="M4.884 7.682V6.355H1.81V.822H.25v6.86h4.633zm3.242.14c.394 0 .75-.066 1.066-.198s.59-.318.816-.56.4-.53.52-.87.18-.714.18-1.124-.063-.782-.2-1.12a2.51 2.51 0 0 0-.53-.861c-.227-.238-.5-.422-.816-.554s-.666-.198-1.046-.198c-.374 0-.72.066-1.036.198a2.43 2.43 0 0 0-.821.554c-.23.238-.4.525-.54.86a3.08 3.08 0 0 0-.195 1.119c0 .41.063.784.2 1.124s.304.63.53.87.5.427.816.56a2.72 2.72 0 0 0 1.056.198zm0-1.267c-.34 0-.604-.134-.79-.4s-.28-.63-.28-1.084.093-.813.28-1.074.45-.39.79-.39.602.13.786.39.275.62.275 1.074-.092.817-.275 1.084-.445.4-.786.4zM14.2 7.82c.394 0 .75-.066 1.066-.198s.59-.318.816-.56.4-.53.52-.87.18-.714.18-1.124-.063-.782-.2-1.12a2.51 2.51 0 0 0-.53-.861c-.227-.238-.5-.422-.816-.554s-.666-.198-1.046-.198c-.374 0-.72.066-1.036.198a2.43 2.43 0 0 0-.821.554c-.23.238-.4.525-.54.86a3.08 3.08 0 0 0-.195 1.119c0 .41.063.784.2 1.124s.304.63.53.87.5.427.816.56a2.72 2.72 0 0 0 1.056.198zm0-1.267c-.34 0-.604-.134-.79-.4s-.28-.63-.28-1.084.093-.813.28-1.074.45-.39.79-.39.602.13.786.39.275.62.275 1.074-.092.817-.275 1.084-.445.4-.786.4zm5.224 1.128V5.405c.167.132.335.294.505.485l.485.6.435.624.365.57h1.71l-.42-.723-.55-.792-.62-.767c-.213-.247-.42-.46-.62-.638l1.106-1.133 1.036-1.153h-1.77l-.335.396-.415.48-.455.5-.455.495V0l-1.49.238v7.444h1.49zm5.044-5.84c.24 0 .45-.078.625-.233s.265-.368.265-.638-.088-.483-.265-.638S24.71.1 24.468.1s-.45.078-.625.233-.265.368-.265.638.088.483.265.638.385.233.625.233zm.75 5.84V2.475h-1.49v5.207h1.49zm2.892 0v-4.02l.32-.035.34-.015c.347 0 .584.1.71.297s.2.535.2 1h0v2.762h1.49v-2.94a3.96 3.96 0 0 0-.11-.97 1.9 1.9 0 0 0-.37-.752c-.173-.21-.41-.375-.706-.5s-.67-.173-1.116-.173c-.44 0-.86.03-1.26.094l-.98.203v5.03h1.49zm6.265 1.86c.914 0 1.6-.206 2.027-.62s.655-1.044.655-1.896h0V2.653l-.455-.114-.535-.094-.565-.064-.555-.025c-.42 0-.797.06-1.13.183a2.35 2.35 0 0 0-.846.52 2.22 2.22 0 0 0-.525.807c-.12.313-.18.662-.18 1.044 0 .766.193 1.36.58 1.787s.944.638 1.67.638c.2 0 .385-.018.555-.054a2.42 2.42 0 0 0 .495-.163h0v.188c0 .3-.088.528-.265.713s-.48.277-.906.277c-.327 0-.62-.026-.876-.08s-.502-.125-.736-.218h0l-.26 1.237a6.04 6.04 0 0 0 .891.223 5.56 5.56 0 0 0 .961.084zm.42-3.395c-.674 0-1.01-.412-1.01-1.237 0-.396.097-.723.3-.98s.487-.386.88-.386l.35.015.26.035V5.95c-.093.053-.207.1-.34.14s-.277.06-.43.06zM.89 9.715c.24 0 .45-.078.625-.233s.265-.368.265-.638-.088-.483-.265-.638-.385-.233-.625-.233-.45.078-.625.233S0 8.574 0 8.844s.088.483.265.638.385.233.625.233zm.75 5.84V10.35H.15v5.207h1.49zm2.892 0v-4.02l.32-.035.34-.015c.347 0 .584.1.71.297s.2.535.2 1h0v2.762h1.49v-2.94a3.96 3.96 0 0 0-.11-.97 1.9 1.9 0 0 0-.37-.752c-.173-.21-.41-.375-.706-.5s-.67-.173-1.116-.173c-.44 0-.86.03-1.26.094l-.98.203v5.03h1.49zm6.435.12c.32 0 .6-.026.81-.08s.42-.115.6-.188h0l-.2-1.148c-.14.053-.295.094-.465.124a2.88 2.88 0 0 1-.495.045c-.334 0-.555-.092-.666-.277s-.165-.432-.165-.742h0v-1.83h1.79V10.35h-1.79V8.815l-1.49.238v4.375c0 .337.032.643.095.92s.175.513.335.708.374.346.64.455.604.163 1.01.163zm4.553.02c.394 0 .75-.066 1.066-.198s.59-.318.816-.56.4-.53.52-.87.18-.714.18-1.124-.063-.782-.2-1.12a2.51 2.51 0 0 0-.53-.861c-.227-.238-.5-.422-.816-.554s-.666-.198-1.046-.198c-.374 0-.72.066-1.036.198a2.43 2.43 0 0 0-.821.554c-.23.238-.4.525-.54.86a3.08 3.08 0 0 0-.195 1.119c0 .41.063.784.2 1.124s.304.63.53.87.5.427.816.56a2.72 2.72 0 0 0 1.056.198zm0-1.267c-.34 0-.604-.134-.79-.4s-.28-.63-.28-1.084.093-.813.28-1.074.45-.39.79-.39.602.13.786.39.275.62.275 1.074-.092.817-.275 1.084-.445.4-.786.4zm8.166 1.247c.32 0 .6-.026.81-.08s.42-.115.6-.188h0l-.2-1.148c-.14.053-.295.094-.465.124a2.88 2.88 0 0 1-.495.045c-.334 0-.555-.092-.666-.277s-.165-.432-.165-.742h0v-1.83h1.79V10.35h-1.79V8.815l-1.49.238v4.375c0 .337.032.643.095.92s.175.513.335.708.374.346.64.455.604.163 1.01.163zm3.903-.12v-3.96l.315-.074c.117-.023.242-.035.375-.035.334 0 .562.1.686.297s.185.535.185 1h0v2.762h1.49v-2.94a4.14 4.14 0 0 0-.105-.97c-.07-.3-.2-.54-.36-.752s-.397-.375-.68-.5-.64-.173-1.066-.173c-.147 0-.3.015-.455.045a3.12 3.12 0 0 0-.385.094h0V7.874l-1.49.238v7.444h1.49zm6.935.14c.187 0 .374-.01.56-.03l.525-.074.445-.104c.133-.04.24-.08.32-.12h0l-.2-1.198c-.167.073-.382.134-.645.183s-.532.074-.806.074c-.427 0-.767-.09-1.02-.267s-.397-.42-.43-.723h3.383l.02-.272.01-.282c0-.878-.217-1.543-.65-1.995s-1.024-.678-1.77-.678c-.32 0-.632.06-.936.178s-.572.294-.806.525-.422.52-.565.866-.215.75-.215 1.213c0 .383.055.74.165 1.07s.28.615.5.856a2.41 2.41 0 0 0 .871.569c.35.14.762.208 1.236.208zm.72-3.267h-1.97c.02-.125.052-.25.095-.37s.105-.23.185-.322a.89.89 0 0 1 .3-.223 1.01 1.01 0 0 1 .43-.084c.173 0 .32.03.435.09s.213.135.3.228a.91.91 0 0 1 .17.317 1.51 1.51 0 0 1 .065.366h0zM1.81 23.43V20.6h2.742v-1.297H1.81v-1.435h3.082V16.57H.25v6.86h1.56zm6.135.12c.44 0 .86-.03 1.26-.094l.98-.203v-5.03h-1.49v4.02l-.32.035-.34.015c-.347 0-.584-.106-.71-.317s-.2-.554-.2-1.03h0v-2.722h-1.49v2.9c0 .356.037.683.1.98s.197.553.37.767.41.38.706.5.67.178 1.116.178zm5.674 0c.32 0 .6-.026.81-.08s.42-.115.6-.188h0l-.2-1.148c-.14.053-.295.094-.465.124a2.88 2.88 0 0 1-.495.045c-.334 0-.555-.092-.666-.277s-.165-.432-.165-.742h0v-1.83h1.79v-1.227h-1.79V16.69l-1.49.238v4.375c0 .337.032.643.095.92s.175.513.335.708.374.346.64.455.604.163 1.01.163zm4.664 0c.44 0 .86-.03 1.26-.094l.98-.203v-5.03h-1.49v4.02l-.32.035-.34.015c-.347 0-.584-.106-.71-.317s-.2-.554-.2-1.03h0v-2.722h-1.49v2.9c0 .356.037.683.1.98s.197.553.37.767.41.38.706.5.67.178 1.116.178zm5.134-.12v-3.98c.067-.02.165-.038.295-.054s.242-.025.335-.025c.207 0 .4.018.58.054l.47.104.25-1.218c-.08-.033-.177-.06-.3-.084l-.34-.06-.34-.04-.3-.015c-.447 0-.852.04-1.216.124l-.946.262v4.93h1.49zm5.164.14c.187 0 .374-.01.56-.03l.525-.074.445-.104c.133-.04.24-.08.32-.12h0l-.2-1.198c-.167.073-.382.134-.645.183s-.532.074-.806.074c-.427 0-.767-.09-1.02-.267s-.397-.42-.43-.723h3.383l.02-.272.01-.282c0-.878-.217-1.543-.65-1.995s-1.024-.678-1.77-.678c-.32 0-.632.06-.936.178s-.572.294-.806.525-.422.52-.565.866-.215.75-.215 1.213c0 .383.055.74.165 1.07s.28.615.5.856a2.41 2.41 0 0 0 .871.569c.35.14.762.208 1.236.208zm.72-3.267h-1.97c.02-.125.052-.25.095-.37s.105-.23.185-.322a.89.89 0 0 1 .3-.223 1.01 1.01 0 0 1 .43-.084c.173 0 .32.03.435.09s.213.135.3.228a.91.91 0 0 1 .17.317 1.51 1.51 0 0 1 .065.366h0z"/><path id="S" d="M112.113 22.846V.516H107.1v22.33h5.012zm10.09 0V8.217c1.885 2.213 3.663 4.565 5.334 7.057l4.66 7.572h4.21V.516h-4.98v13.18l-2.474-3.625-2.65-3.64-2.62-3.303-2.346-2.6h-4.08v22.33h4.948zm30.78 0l2.603-5.832 2.442-5.993 2.12-5.67L161.85.516h-5.334l-1.398 4.173-1.542 4.463-1.542 4.253-1.366 3.512-1.382-3.512-1.526-4.253-1.542-4.463-1.398-4.173h-5.526l1.687 4.833 2.137 5.67 2.442 5.993 2.603 5.832h4.82zm21.077.45c1.564 0 3.026-.247 4.386-.74a9.56 9.56 0 0 0 3.518-2.207c.985-.977 1.762-2.19 2.33-3.64s.85-3.13.85-5.043-.29-3.593-.868-5.043-1.37-2.67-2.378-3.657-2.185-1.73-3.534-2.223S175.58 0 174.06 0c-1.478 0-2.886.247-4.225.74a9.97 9.97 0 0 0-3.534 2.223c-1.017.988-1.826 2.207-2.426 3.657s-.9 3.13-.9 5.043.29 3.593.868 5.043 1.37 2.664 2.378 3.64 2.185 1.713 3.534 2.207 2.785.74 4.305.74zm0-4.414c-.942 0-1.778-.172-2.506-.516a5.12 5.12 0 0 1-1.847-1.466c-.503-.634-.89-1.39-1.157-2.272s-.402-1.87-.402-2.964c0-1.074.134-2.057.402-2.948s.653-1.654 1.157-2.288a5.28 5.28 0 0 1 1.847-1.482c.728-.354 1.564-.532 2.506-.532.92 0 1.75.172 2.5.516s1.36.832 1.864 1.466.89 1.396 1.157 2.288.402 1.885.402 2.98-.134 2.084-.402 2.964-.653 1.638-1.157 2.272-1.125 1.122-1.864 1.466-1.57.516-2.5.516zm20.274 3.963V.516h-5.012v22.33h5.012zm15.294.45c1.692 0 3.18-.172 4.466-.516s2.28-.73 2.988-1.16h0l-1.382-4.028-.932.42c-.343.15-.74.285-1.19.403s-.964.22-1.542.306-1.232.13-1.96.13c-1.157 0-2.142-.188-2.956-.564s-1.473-.886-1.976-1.53-.868-1.412-1.092-2.304-.337-1.853-.337-2.884c0-1.29.17-2.384.514-3.287s.798-1.638 1.366-2.207a5.12 5.12 0 0 1 1.96-1.241 6.83 6.83 0 0 1 2.265-.387c1.157 0 2.2.13 3.1.387s1.708.57 2.394.934h0l1.446-4.06c-.17-.107-.45-.258-.835-.45s-.868-.38-1.446-.564-1.253-.344-2.024-.483a14.48 14.48 0 0 0-2.57-.209c-1.628 0-3.138.258-4.53.773s-2.592 1.273-3.6 2.272-1.8 2.223-2.378 3.673-.868 3.1-.868 4.946c0 3.716.948 6.584 2.844 8.603s4.654 3.03 8.274 3.03zm26.443-.45v-4.22h-10.764v-5.38h8.9V9.12h-8.9V4.737h10.025V.516h-15.037v22.33h15.776z"/><path id="T" d="M9.61 5.45l-.918.94-2.7-2.763.918-.94a.6.6 0 0 1 .865 0L9.61 4.565c.24.245.24.64 0 .885h0zM5.328 9.83c-.12.122-.276.183-.433.183s-.313-.06-.433-.183L2.627 7.953c-.24-.245-.24-.64 0-.885L5.38 4.252l2.7 2.763L5.328 9.83zm6.73-6.26c.24-.245.24-.64 0-.885L9.61.183a.6.6 0 0 0-.865 0c-.35.358-1.232.358-1.582 0a.6.6 0 0 0-.865 0L.18 6.442c-.24.245-.24.64 0 .885.37.378.37 1.24 0 1.62-.24.245-.24.64 0 .885l2.448 2.504a.6.6 0 0 0 .865 0c.35-.358 1.232-.358 1.582 0 .12.122.276.183.433.183s.313-.06.433-.183l6.12-6.26c.24-.245.24-.64 0-.885-.37-.378-.37-1.24 0-1.62h0z"/><path id="U" d="M9.61 33.38l-.918.94-2.7-2.763.918-.94a.6.6 0 0 1 .865 0l1.836 1.878c.24.245.24.64 0 .885h0zm-4.283 4.38c-.12.122-.276.183-.433.183s-.313-.06-.433-.183l-1.836-1.878c-.24-.245-.24-.64 0-.885l2.754-2.817 2.7 2.763-2.754 2.817zm6.73-6.26c.24-.245.24-.64 0-.885L9.61 28.114a.6.6 0 0 0-.865 0c-.35.358-1.232.358-1.582 0a.6.6 0 0 0-.865 0l-6.12 6.26c-.24.245-.24.64 0 .885.37.378.37 1.24 0 1.62-.24.245-.24.64 0 .885l2.448 2.504a.6.6 0 0 0 .865 0c.35-.358 1.232-.358 1.582 0 .12.122.276.183.433.183s.313-.06.433-.183l6.12-6.26c.24-.245.24-.64 0-.885-.37-.378-.37-1.24 0-1.62h0z"/></defs><g transform="translate(81 22)" fill="none" fill-rule="evenodd"><g transform="translate(255)"><g filter="url(#A)"><g transform="translate(0 218.911)"><path d="M0 .2h347v40.2H0z" class="J"/><g transform="translate(12 10.4)"><use xlink:href="#F" class="E Q"/><g transform="translate(3.305 7.476)"><g transform="translate(0 .003)"><use xlink:href="#G" class="R"/><g transform="translate(9.638 .964)" class="a"><path d="M.092.306C.027 1.426 1.024 1.71 1.3.68 1.5-.107.362-.182 0 .306"/><path d="M3.843.127c.02.238.005.482.058.715.23 1.012 1.495.03.825-.815"/></g><use xlink:href="#H" class="E b"/><g class="B C D O"><use xlink:href="#I"/><path d="M10.742 5.122c1.053.78 2.22.88 3.375.643"/></g><g class="K B C D"><path d="M11.87 7.126c.225.9.758 1.47 1.32 2.224"/><path d="M12.8 7.028c.616 1.947.48 1.117.618 2.448"/><path d="M13.556 7.168c.184 1.893.162 1.106.162 2.357"/><path d="M14.37 7.168l-.422 2.59"/><path d="M14.94 7.238c-.05.918-.293 1.65-.752 2.44"/><path d="M15.566 7.147c-.084.895-.34 1.757-.942 2.456"/><path d="M15.9 8.108c-.744.997-.834 1.303-1.947 1.564"/></g><path d="M10.818 4.796c-.067.18-.2.36-.425.37" class="B C D O"/></g></g></g><rect x="149.8" y="18.8" width="58.8" height="7.2" rx="3.6" class="F"/><rect x="73" y="18.8" width="56.4" height="7.2" rx="3.6" class="H"/><rect x="228.6" y="18.8" width="53" height="7.2" rx="3.6" class="L"/></g><g transform="translate(0 350.377)"><path d="M0 .2h347v40.2H0z" class="J"/><rect x="149.8" y="18.8" width="69" height="7.2" rx="3.6" class="F"/><rect x="73" y="18.8" width="42.6" height="7.2" rx="3.6" class="H"/><rect x="228.6" y="18.8" width="53" height="7.2" rx="3.6" class="L"/></g><g transform="translate(0 306.555)"><path d="M0 .2h347v40.2H0z" class="J"/><rect x="149.8" y="18.8" width="54.6" height="7.2" rx="3.6" class="F"/><rect x="73" y="18.8" width="56.4" height="7.2" rx="3.6" class="H"/><rect x="228.6" y="18.8" width="53" height="7.2" rx="3.6" class="L"/></g><g transform="translate(0 262.733)"><path d="M0 .2h347v40.2H0z" class="J"/><rect x="149.8" y="18.8" width="58.8" height="7.2" rx="3.6" class="F"/><rect x="73" y="18.8" width="42.6" height="7.2" rx="3.6" class="H"/><rect x="228.6" y="18.8" width="53" height="7.2" rx="3.6" class="L"/></g><g transform="translate(0 394.199)"><path d="M0 .2h347v40.2H0z" class="J"/><rect x="149.8" y="18.8" width="54.6" height="7.2" rx="3.6" class="F"/><rect x="73" y="18.8" width="56.4" height="7.2" rx="3.6" class="H"/><rect x="228.6" y="18.8" width="53" height="7.2" rx="3.6" class="L"/></g><path d="M0 0h347v40.004H0z" class="J"/><path d="M61.3 17.632l-3.912 2.407-3.246-4.993c-.035-.054-.094-.08-.138-.123l.9-.924a.49.49 0 0 0 0-.677l-1.21-1.24a.46.46 0 0 0-.662 0l-1.21 1.24a.49.49 0 0 0 0 .677l.9.924c-.045.043-.103.07-.138.123L49.33 20.04l-3.912-2.407a.92.92 0 0 0-1.039.052c-.303.23-.442.627-.35 1.003l1.87 7.67c.104.426.48.726.908.726H59.9a.94.94 0 0 0 .908-.726l1.87-7.67c.092-.376-.047-.77-.35-1.003s-.714-.25-1.04-.052z" class="T"/><g transform="translate(12.6 8.359)"><path d="M12 0C5.373 0 0 5.346 0 11.94s5.373 11.94 12 11.94 12-5.346 12-11.94S18.627 0 12 0z" fill="#cce4ff" class="E"/><g transform="translate(5.701 3.458)"><g transform="translate(3.638 .216)" fill="#ff5fa7"><path d="M8.036 1.39C7.752 7.693.854 10.03 5.263 14.14c1.054.982-5.777.996-5.19 0C3.2 8.827-.07 7.693.001 1.956.01 1.28.106.644.276.06 3.7-.035 6.226.053 7.823.326c.127.022.198.376.213 1.063z"/></g><g class="B C D c"><path d="M12.597.865C12.22 2.498 11.5 4.172 11.362 5.85c-.1 1.216-.045 2.44-.068 3.66"/><path d="M12.163.81c-.848 2.122-1.176 4.03-1.256 6.323-.063 1.8-.244 1.36.117 2.106"/><path d="M11.023 2.107c-.796 3.267-.832 4.323-.275 7.673"/><path d="M10.697 10.158C8.723 8.395 9.55 5.315 10.08 3.134"/></g><path d="M6.87 1.567c.12.6.087.985-.098 1.186C5.788 3.82 5.405 4.23 4.298 5.75c-.015.02-.01.075.015.075.123.001.26-.003.36-.072.7-.484 1.26-1.22 2.045-1.567 1.058-.47-1.452 1.153-.844 1.47.248.13 4.588-.465 3.185-.186s-3.487.665-3.312.892c.73.948.913 1.38.73 2.23" class="B C D O"/><g class="c B C D"><path d="M4.235 2.702c-.637 1.686-1.5 5.792-4 6.267-.032.006-.048-.043-.072-.064"/><path d="M3.855 1.567c-.577 2.846-1.43 5.36-3.8 7.024"/><path d="M3.53.486C2.793 3.137 2.42 6.02.163 7.835"/><path d="M2.77.594c-.68 2.843-.756 4.713-2.77 6.7"/></g><path d="M3.465.023c-.308 0 .185 1.89.378 2.326.163.37.613.557 1.35.564.815.025 1.382-.16 1.7-.555l.05-.062c.378.756 1.14.97 2.065.97 2.138 0 2.99-1.29 2.65-3.242h-8.2zm3.774.72l3.636-.05.001.013c.048.623-.06 1.086-.304 1.393l-.025.03c-.292.342-.837.52-1.66.52-.564 0-1.222-.22-1.506-.92l-.066-.198c-.032-.12-.03-.308-.047-.533L7.24.745zm-3.2.06h2.638l-.004.386c-.02.87-.207 1.256-1.753 1.288l-.288.003c-.037 0-.057-.006-.092-.03-.074-.05-.155-.15-.23-.305-.12-.25-.206-.602-.25-1.05L4.04.806z" fill="#00ffce" class="E"/><g class="a"><path d="M5.906 1.422c-.03.46.42.576.544.153.095-.322-.423-.353-.586-.153" transform="matrix(-1 0 0 1 12.325792 0)"/><path d="M7.48 1.422c-.03.46.42.576.544.153.095-.322-.423-.353-.586-.153" transform="matrix(-1 0 0 1 15.475112 0)"/></g><g class="b"><path d="M1.35 15.5c.348.508 1.81.376 1.028-.653s-1.376.145-1.028.653z" transform="matrix(-1 0 0 1 3.855204 0)"/><path d="M3.225 16.36c.358.5 1.667.178.86-.815s-1.22.325-.86.815z" transform="matrix(-1 0 0 1 7.438914 0)"/><path d="M5.727 16.652c.363.51 1.666.28.85-.753s-1.213.244-.85.753z" transform="matrix(-1 0 0 1 12.434388 0)"/><path d="M8.175 16.336c.37.5 1.623.24 1.087-.644s-1.456.143-1.087.644z" transform="matrix(-1 0 0 1 17.484162 0)"/><path d="M10.12 15.74c.35.495 1.434.258 1.033-.637s-1.383.142-1.033.637z" transform="matrix(-1 0 0 1 21.285066 0)"/></g></g></g><rect x="149.8" y="16.718" width="69" height="7.165" rx="3.582" class="F"/><rect x="73" y="16.718" width="42.6" height="7.165" rx="3.582" class="H"/><rect x="228.6" y="16.718" width="53" height="7.165" rx="3.582" class="L"/><g transform="translate(0 87.644)"><g class="J"><path d="M0 0h347v40.2H0z"/><path d="M0 43.8h347V84H0z"/></g><rect x="149.8" y="16.8" width="54.6" height="7.2" rx="3.6" class="F"/><rect x="73" y="16.8" width="69" height="7.2" rx="3.6" class="H"/><rect x="228.6" y="16.8" width="53" height="7.2" rx="3.6" class="L"/></g><g transform="translate(0 43.822)"><path d="M0 0h347v40.2H0z" class="J"/><g class="T"><use xlink:href="#J"/><use xlink:href="#J" y="43"/><use xlink:href="#J" y="86"/></g><use xlink:href="#J" y="129" class="R"/><g class="T"><use xlink:href="#J" y="176"/><use xlink:href="#J" y="264"/><use xlink:href="#J" y="309"/></g><rect x="149.8" y="16.8" width="58.8" height="7.2" rx="3.6" class="F"/><rect x="73" y="16.8" width="34.8" height="7.2" rx="3.6" class="H"/><rect x="228.6" y="16.8" width="53" height="7.2" rx="3.6" class="L"/></g><g transform="translate(0 175.289)"><path d="M0 0h347v40.004H0z" class="J"/><rect x="149.8" y="16.718" width="54.6" height="7.165" rx="3.582" class="F"/><rect x="73" y="16.718" width="69" height="7.165" rx="3.582" class="H"/><rect x="228.6" y="16.718" width="53" height="7.165" rx="3.582" class="L"/></g><g transform="translate(12.6 96.048)"><use xlink:href="#K" class="E Q"/><g transform="translate(.758 2.548)"><path d="M1.346 13.527C1.36 7.606 9.197 2.358 13.703 2.36c6.84.004 5.14 11.43 4.827 11.45-1.937.133-7.665.038-17.184-.285z" transform="matrix(.956305 -.292372 .292372 .956305 -1.929427 3.320716)" class="P"/><g transform="translate(6.664 3.361)" fill="#f1f4f6"><path d="M10.276 3.03c.295 2.357-2.012 8.307-4.448 7.98-2.046-.275-3.238-2.014-3.87-3.875C1.852 6.822.27 7.643.054 6.18s1.508-.544 1.463-.813c-.15-.898-.14-1.66-.117-2.27.004-.096.52-.393 1.624-.57.494-.08 1.106-.133 1.842-.134a26.43 26.43 0 0 1 3.208.227c.283.036.024-2.605.27-2.567s1 2.755 1.194 2.8c.454.084.734.155.738.187z"/></g><g transform="translate(10.348 6.559)"><g transform="translate(2.98 .488)" class="B C D O"><path d="M.27 0c.133 1.285 1.084.862 1.084.004"/><path d="M.325.705L0 1.138"/><path d="M.813.867l-.217.705"/><path d="M1.084.76l.163.596"/></g><path d="M2.438 0l1.595 2.347c.082.1.24.22.192.343-.044.113-1.078.2-1.17.016-.047-.095-.06-.425-.058-.317.02.663.077 1.082.174 1.255" fill="#f3fff6" class="B C D K"/><g transform="translate(.163 .434)" class="B C D O"><path d="M.24.092c-.202.85 1 .96 1.223-.092"/><path d="M.38.705L0 .976"/><path d="M.783.76l-.037.488"/><path d="M1.138.705l.163.38"/></g><path d="M2.256 3.825c.348-.066.4.437.634.294.123-.072.19-.254.332-.27.216-.026.555.07 1.018.287l-.838.75C2.878 5.367.678 4.89.123 4.63l1.7.023c2.504-.39 1.94-.397-1.7-.023.493-.51 1.784-.74 2.132-.806z" transform="matrix(.956305 .292372 -.292372 .956305 1.397871 -.443087)" class="d"/></g></g></g><g transform="translate(12.6 53.427)"><use xlink:href="#K" class="E Q"/><path d="M15.38 8.908c2.756 1.72 4.692 5.29 5.808 10.707-2.196 2.685-5.533 4.398-9.27 4.398-3.8 0-7.186-1.77-9.38-4.532.202-1.363.475-2.566.82-3.6.372-1.127 1.55-3.062 3.54-5.804l.607-.828c2.83.152 5.304.045 7.39-.256l.484-.075z" class="R"/><g class="B C D K"><path d="M6.273 18.134c1.633.84 2.685-.234 3.786-1.404"/><path d="M11.897 16.92c.224.97.365 1.58.92 2.363.013.02-.045.01-.067.017"/><path d="M13.848 18.98c-1.113-.662-.444-.164-1.692-1.844"/><path d="M16.143 18.503c-1.513-.103-3.07-.652-4.22-1.66"/><path d="M16.277 17.557c-.797.114-2.422.927-4.322-.82"/><path d="M16.218 16.408c-2.082.42-.796.253-3.886.176"/><path d="M7.842 19.445c.93-.74 2.3-1.56 2.54-2.852"/><path d="M9.173 19.43c1.104-.73.327-.124 1.59-2.492"/><path d="M10.397 19.495c.837-1.63.56-.827.914-2.377"/><path d="M11.722 19.308c-.626-1.273-.396-.544-.547-2.225"/><path d="M12.974 19.247c-.962-1.302-.495-.53-1.28-2.384"/><path d="M7.266 15.7c.843.498 2.01 1.42 2.93.59"/><path d="M6.776 16.823c.537.144 3.246.946 3.196-.425"/><path d="M8.765 9.594c-.064.578-.064.94 0 1.084.405.922 1.037.615 1.3-.38"/><path d="M10.498 8.944c-1.228 5.312-1.138 7.968.27 7.968s1.896-.94 1.463-2.82l-.217-4.824c.65 2.277 1.264 2.385 1.842.325" class="R"/></g><g stroke="#ff5fa7" fill="#ff5fa7" class="B C"><path d="M6.164 14.02c-.313-.16-.493-.306-.542-.434-.257-.68.262-1.05 1.192-.542.036-.795.343-1.283.92-1.463s.686.307.325 1.463c.575-.086.936-.086 1.084 0 .493.286.264.985-.758 1.41.506.434.578.885.217 1.355s-.795.253-1.3-.65c-.722.867-1.282 1.084-1.68.65s-.217-1.03.542-1.79z"/><path d="M14.183 13.24c-.328-.17-.518-.32-.568-.454-.27-.712.275-1.098 1.25-.567.038-.832.36-1.343.966-1.532s.72.322.34 1.532c.603-.09.982-.09 1.137 0 .518.3.277 1.03-.796 1.475.53.454.606.927.227 1.418s-.834.265-1.364-.68c-.758.908-1.345 1.135-1.762.68s-.227-1.078.568-1.872z" transform="matrix(-.987688 .156434 .156434 .987688 28.744736 -2.26226)"/></g><g fill="#d41c61"><circle cx="7.383" cy="13.994" r="1"/><circle cx="15.485" cy="13.117" r="1"/></g><path d="M15.77 9.04c2.23-.4 3.477-.69 3.738-.867l-.488-1.355-4.063.813c-.253-3.94-.957-5.908-2.113-5.908-.376 0-.81.542-1.3 1.626-.686-2.096-1.41-2.493-2.167-1.192s-1.156 3.27-1.192 5.908l-2.655-.15c-.577-.062-1.028-.157-1.354-.283v1.247c-.058.06.343.146 1.203.256l2.6.232c1.047.08 3.648-.028 7.8-.325z" class="P"/></g><g transform="translate(13.2 183.693)"><use xlink:href="#L" class="E Q"/><g transform="translate(1.216 5.182)"><path d="M8.758 1.657c-2.652 0-5.022.702-6.792 1.82C1.25 3.93.68 4.427.352 4.88c-.198.273-.318.54-.332.817-.024.47.28.858.742.954l.04.008c.302.057.746.08 1.783.106l.94.025 2.264.1h.144l.124.01c1.07.08 1.97.2 2.682.366l.05.012v4.15c.096.977 1.148 1.466 3.156 1.466s4.294-.566 6.857-1.7l-.356-3.077.025-.007a2.81 2.81 0 0 0 .93-.418 1.72 1.72 0 0 0 .742-1.44 1.33 1.33 0 0 0-1.034-1.363l-.025-.006c-.28-.07-.6-.076-.972-.028l-.043.006-.066-.573-.234-.186c-2.074-1.647-5.083-2.454-9.01-2.454z" class="E R"/><g class="B C D K"><path d="M6.934 2.537c1.03.06.867.083 1.602-.634"/><path d="M7.034 3.064c.81-.058.894-.367 1.45-1.047"/><path d="M8.837 1.977c.203.52.553.557 1.095.514"/><path d="M8.837 1.983c.12.9-.092.53.694 1.107"/></g><g stroke="#fff" class="B C"><path d="M7.44.316c.964-.883 1.46.3 1.355 1.047-.125.914-.87 1.62-1.57 2.12-.01.007-.62.42-.8.26-.433-.384-.26-1.246-.08-1.76S6.994.726 7.44.316z"/><g class="D"><path d="M8.717 2.23c.16-.49.266-1.106.7-1.454.936-.748 1.84-.5 1.582.787-.14.705-.728 1.538-1.242 2.028-.667.637-1.248-.233-1.148-.867.048-.307.165-.6.247-.9"/></g></g><g class="K B C D"><path d="M11.974 1.6c.22 1.287.342 2.272 1.202 3.29 1.26 1.49 4.058.866 5.227-.414"/><path d="M13.05 1.776c-.233 1.7-.092 3.644 2.07 3.936.15.02 1.147.074 1.515-.053.894-.308.93-.495 1.782-1.187"/><path d="M13.443 1.8c.755 1.565 2.77 5.2 4.787 2.835"/><path d="M14.444 1.977c.177.96.266 1.934.908 2.722.85 1.043 2.583.83 3.304-.187"/><path d="M14.938 2.15c.485 1.224 1.4 3.277 3.064 2.595"/><path d="M15.533 2.277c.402.636 1.233 2.254 2.063 2.422.323.065.66-.01.988-.013"/><path d="M8.456 7.727c.814-.286 1.47.304 2.303.153.403-.073.895-.51 1.188-.734"/></g></g><path d="M8.457 16.076l3.436 1.904 5.39-1.904-.317 4.02-5.074-1.534-4.334 1.534z" class="B C K P"/></g><g transform="translate(13.2 273.738)"><use xlink:href="#L" class="E P"/><g transform="translate(2.696 2.485)"><g transform="translate(0 3.067)"><path d="M5.613 5.553h-5.6C-.172 1.85 1.625 0 5.404 0h9.9l.176 4.293c1.283-.192 1.925.07 1.925.783s-.6 1.14-1.77 1.278l.343 6.614-10.376.198V9.67c2.07.01 3.405-.253 4.007-.787s.813-1.644.634-3.332h-4.64z" stroke="#ff243a" stroke-width="1.444" class="d"/><g transform="translate(3.436 5.394)" stroke="#06f" class="B C D"><path d="M1.224.03c.05 1.067-.2 2.36-1.224 2.94"/><path d="M1.666.03C1.423 1.12 1.05 2.005.27 2.846"/><path d="M2.06.03C1.8 1.215 1.197 2.357.12 2.995"/><path d="M2.53.03C2.275.97 1.304 2.903.01 3.07"/><path d="M2.972.03c-.338 1.22-1.204 3-2.675 3"/><path d="M5.394 3.332c-.365.098-1.41-.875-1.784-1.428-.25-.37-.394-1-.436-1.864"/><path d="M3.53.03c.18 1.077.087 2.44 1.043 3.102"/><path d="M3.874 0c-.195.537.764 2.91 1.308 2.99"/><path d="M4.122.03c.402 1 .62 2.043 1.38 2.812"/><path d="M4.496.03c.472 1.1.57 2.178 1.51 2.905"/><path d="M3.266.03c.57 1.725.89 2.46 2.594 2.78"/></g></g><g transform="translate(4.532)" class="B C"><g class="K"><path d="M1.347 2.96c.59-.233 1.156-.55 1.774-.7.087-.02.094.156.112.243.046.22.09.443.077.666-.037.657-.22 1.484-.68 1.998-.6.673-1.205.1-1.362-.6-.16-.722-.087-.787.037-1.442l.042-.156z"/><path d="M5.605 2.308c.226.127.434.295.678.38.382.135.896-.01 1.184.275.224.222.063.63.046.945-.027.49-.2 1.536-.738 1.756-.874.358-1.448-.596-1.483-1.336-.014-.3-.024-.6.02-.897.047-.328.166-.64.25-.96l.046-.162z"/><g class="P"><use xlink:href="#M"/><use xlink:href="#M" x="4.44" y="0.266"/></g></g><g stroke="#06f" class="D"><path d="M5.98 2.2c.633-.534 1.216-1.343 1.9-1.6.56-.212-2.054 1.827-1.52 1.457l-.307.43C8.578.743 8.12.322 6.05 2.917c-.42.528.88-.95 1.34-1.357.268-.236 1.085-.862.837-.565-.625.748-1.31 1.315-1.978 1.932-.217.2-.907.643-.673.518.474-.254.94-.56 1.397-.906.478-.36 1.502-2.133 1.403-1.2-.068.636-2.305 1.888-2.63 2.122-.097.07-.365.36-.268.29L7.4 2.256c.228-.16.928-.55.708-.358l-.182.224c-1.852 1.628-3.143 2.526.105.107" transform="matrix(.615661 .788011 -.788011 .615661 4.36843 -4.620277)"/><path d="M.71.635C1.337.912 3.076 1.64 3.06 2.14 3.02 3.278 1.612.972.96 1.085c-.027.005.003.09.028.105l.366.28 1.066.547c.178.102.687.49.518.358-.502-.39-1.924-1.704-1.52-1.137L.554.993c.434.607 1.058.877 1.603 1.275C4.108 3.693.865 1.017.552 1.435c-.052.07.098.152.162.2l1.35.928c.224.142.915.51.69.365-.4-.262-1.595-1.13-1.25-.723L.662 2.04c.294.347 1.947.922 2.365 1.08" transform="matrix(.71934 -.694658 .694658 .71934 -.798833 1.777347)"/></g></g></g></g><g transform="translate(13.2 318.161)"><use xlink:href="#L" fill="#cce4ff" class="E"/><g transform="translate(1.85 5.129)"><path d="M16.766 1.11l.357 1.426c.064.286.13.88.198 1.783 1.508-.634 2.263-.21 2.263 1.268s-.754 1.98-2.263 1.506v5.666l-15.044.357V7.092C.637 7.488-.118 6.987.015 5.587S.9 3.764 2.277 4.32l.278-3.21h14.21zM4.54 3.01c-1.032 3.223-1.125 5.68-.278 7.37.54 1.075 5.1 1.362 8.058 1.07 1.133-.112 2.297-.468 3.493-1.07.206-1.093.285-2.216.238-3.368a16.36 16.36 0 0 0-.516-3.447c-.715-.792-2.46-1.294-5.24-1.506s-4.697.106-5.756.95z" class="P"/><g class="O B C D"><path d="M9.542 2.614l-2.375.24c.56.107 1.062-.076 1.607-.145.157-.02.377-.14.476-.015.08.1-.242.102-.34.187-.23.203-.4.464-.627.67-.146.132-.322.226-.483.34" transform="matrix(.882948 .469472 -.469472 .882948 2.504776 -3.541231)"/><g transform="translate(4.912 5.784)"><path d="M.5 3.324c.33-1.04 1.035-2.33 1.91-2.142.4.086.384-.092.68-.183.24-.073.22-.262.503-.306.043-.007-.09-.013-.13 0-.103.033-.12.103-.21.16-.154.095-.37.1-.502.223L.723 3.093c-.187.202.446-.326.642-.52.346-.34.638-.735.98-1.08a4.43 4.43 0 0 1 .627-.54C3.14.84 3.31.832 3.498.76c.066-.025-.21.01-.15.05.1.07.448-.08.367.014-.6.693-1.735 1.4-2.408 2.132-.107.115-.364.506-.245.403l2.185-2.082a1.19 1.19 0 0 1 .274-.187c.133-.067.434-.307.418-.16-.02.188-.312.22-.44.36-.514.566-.364.652-.91 1.116l-1.276.987c-.07.064-.214.29-.123.26 1.056-.342 2-1.327 2.588-2.226.04-.063-.013-.166.036-.223.058-.068.315-.053.245-.108V.924c-.04-.03-.09.043-.137.065" transform="matrix(.882948 .469472 -.469472 .882948 1.287046 -.818782)"/><path d="M5.002 1.288c.63.976 1.43 1.952 2.725 2.016.117.006-.17-.166-.267-.23-.345-.227-.74-.38-1.06-.64C6.004 2.11 4.88 1.1 5.326 1.34c.716.398 1.235 1.08 1.903 1.555.237.168.514.28.793.36.156.045-.288-.154-.418-.252l-1.34-1.08c-.312-.273-.552-.458-.804-.787-.137-.178.263.203.45.326.267.175.57.296.83.483.252.18.448.43.7.612.22.16.45.318.706.403.06.02-.013-.134-.05-.187a1.75 1.75 0 0 0-.339-.367L6.45 1.47c-.147-.098-.63-.313-.47-.245l1.14.526c.344.197.655.447.973.684.072.054.144.113.195.187.014.02-.052.006-.072-.007l-.52-.303-.887-.655c-.334-.215-.7-.375-1.038-.583-.054-.033-.367.07-.314.034.142-.093.703.23.8.275.862.395 1.36.373 2.167 1.002.098.076.353.185.26.266-.15.13-.44-.105-.59.02-.158.132.878.38-.036.223-.12-.02-.252-.038-.353-.108-2.642-1.832-.888-.924-2.27-1.606" transform="matrix(.945519 -.325568 .325568 .945519 -.338087 2.350328)"/></g></g><g class="B C D"><g class="K"><path d="M8.724 5.864c-.32-.15-.667-.363-1.052-.243-.324.1-.297.766-.285.943.04.64.863.86 1.35.617"/><path d="M10.677 6.187c1.176-1.06 1.403.613.497 1.012-.32.14-.6.078-.933.053"/><path d="M9.306 3.81c.08 1.186.023-.496-.54 2.022-.218.972.586 2.514 1.45 1.39.458-.597.49-1.45.526-2.194.02-.416.126-1.278-.382-1.532-.412-.93-.512-1.223-.3-.88"/></g><path d="M10.64 2.717c.64-.02 1.284.035 1.917-.057.502-.073-1.014-.015-1.52 0-.18.005-.492-.116-.533.057-.042.18.28.245.44.338.352.205.726.37 1.09.554" transform="matrix(.984808 -.173648 .173648 .984808 -.365268 2.057806)" class="O"/></g><path d="M8.31 0a7.33 7.33 0 0 1 1.018.072l.065.01c.136.02.244.126.267.262.102.62.143 1.25.124 1.895.1.065.208.05.356-.045-.016-.628.026-1.244.125-1.85.022-.132.124-.236.256-.26l.01-.002.065-.01A7.33 7.33 0 0 1 11.615 0h.08l2.663.107c.142.007.266.097.316.23l.004.01.013.04c.2.594.3 1.258.3 1.992 0 .7-.093 1.31-.28 1.828-.066.184-.237.308-.432.315h-.012l-.19.002c-.376.002-.712.001-1.007-.004l-.17-.003-2.1-.001c-.227.001-.423-.158-.47-.38l-.002-.012-.01-.06-.128-.96c-.152-.164-.31-.176-.47-.038-.044.397-.1.794-.2 1.19l-.015.067c-.05.21-.232.36-.446.367l-.95.034-1.084.032-.14.003-1.06.003-.096-.001c-.2-.002-.376-.127-.443-.314-.236-.65-.354-1.34-.354-2.068 0-.733.1-1.397.3-1.992l.013-.04c.047-.138.174-.233.32-.24l.45-.022L8.31 0zm-.397.396L7.85.4 6.18.55l-.117.014c-.074.01-.132.068-.14.142l-.01.097c-.145 1.575-.1 2.667.133 3.277.104.27 1.122.3 3.056.12l.017-.147.138-1.946V2.1c-.014-.434-.065-.972-.155-1.614-.35-.068-.748-.094-1.19-.08zm3.652 0l-.043-.001c-.416-.012-.65.015-.702.08l-.012.087-.143 1.527-.001.04c-.01.434.04 1.07.146 1.912 2.013.112 3.072.033 3.176-.238.238-.62.245-1.654.022-3.1-.01-.072-.07-.127-.142-.134l-.352-.032-1.948-.14z" class="d"/><path d="M8.177 8.822c.794.648 2.226.162 2.76.216.028.003.024.07 0 .085l-.18.18c-.12.07-.25.127-.386.15-.208.036-.5-.136-.63.028-.1.124.27.177.368.3.34.43-.605.353-.688.357" class="B C D K"/></g></g><g transform="translate(13.2 362.583)"><use xlink:href="#L" class="E Q"/><g transform="translate(6.131 4.706)"><g transform="translate(0 3.596)"><path d="M.858 1.91c1.4-1.746 4.03-1.98 6.23-1.893s2.942.61 4.043 2.303.856 3 .23 4.258C9.89 9.503 2.96 10.404.666 7.65-.555 6.184.21 3.84.563 2.33l.295-.42z" class="S"/><g class="B C D c"><path d="M5.906.93C6.31 1.92 7.45 1.257 7 .557"/><path d="M4.87.08c.794.403 1.306 1.113 1.968 1.728L7.9 2.864c.098.11.288.24.23.373-.052.123-1.298.216-1.407.017-.057-.103-.073-.462-.07-.345.035 1.08.472 2.21.213 3.085-.14.47-2.076.148-1.996.427.168.592.847.638 2.037.14.118.24.05.53.035.797l-.173 1.79"/><path d="M3.916 1.333c-.085.67.833 1.093 1.43.6.4-.332.184-.762.178-1.217"/></g></g><path d="M4.152 2.566C3.865 2 3.724 1.3 4.093.73 4.645-.142 5.82-.336 6.275.722c.353.82-.5 1.835-.476 1.937.133.58 2.025-1.75 1.66-.504-.455 1.555-3.034 1.82-4.163.946s-.065-.862.623-.54l.234.002z" class="P"/></g></g><g transform="translate(13.2 404.604)"><use xlink:href="#L" class="E H"/><g transform="translate(4.44 5.5)"><path d="M3.35.927l10.267.715c.15.59.223 1.747.218 3.47l.026-.016a1.3 1.3 0 0 1 .47-.185l.03-.006c.294-.06.927-.135 1.172-.072.667.173.978 1.02.593 1.59-.486.718-1.495 1.196-2.333.946l-.008.254-.168 3.76c-3.515.503-8.047.503-13.597 0-.183-3.463.903-6.913 3.258-10.35L3.35.927z" fill="#00ffce"/><g class="P"><g class="E"><g transform="translate(2.484)"><path d="M.193.08C.27.082.332.146.33.224V.24L.326.3.315.455.3.518V.84c.004.228.04.394.103.475.27.345.73.694 1.186.877.524.21.984.2 1.31-.097a.14.14 0 0 1 .198.013c.05.058.045.147-.013.2-.42.367-.988.394-1.602.147C.983 2.253.48 1.873.18 1.5.07 1.347.023 1.13.018.846.016.73.02.612.032.467L.044.303.05.24V.22C.05.14.115.08.193.08z"/><path d="M.993.16a.14.14 0 0 1 .18.084c.315.87.587 1.27 1.164 1.558l.08.04.122.057c.11.05.21.086.302.11.186.047.314.034.383-.038l.007-.007a.14.14 0 0 1 .198-.015c.06.05.066.14.015.198-.153.18-.388.208-.673.136a2.08 2.08 0 0 1-.31-.109l-.037-.016-.194-.093-.018-.01C1.555 1.724 1.246 1.27.91.34.882.267.92.186.993.16z"/><path d="M2.072.02a.14.14 0 0 1 .168.106l.015.068c.115.498.212.797.362 1.062.197.346.46.55.827.6.077.013.13.085.116.162s-.085.13-.162.116c-.458-.075-.8-.333-1.026-.75-.175-.307-.28-.64-.407-1.206-.017-.076.03-.15.106-.168z"/><path d="M3.053.463l.045-.24c.016-.072.085-.12.16-.11s.125.078.12.152l-.001.01-.066.367L3.28.82 3.274.86c-.03.218-.04.383-.025.463.148.844.957 1.38 1.806 1.194a1.44 1.44 0 0 0 .682-.343l.034-.03.346-.308a.14.14 0 0 1 .198.015c.05.06.044.148-.015.198l-.023.02-.36.32c-.253.213-.475.33-.802.403-1.005.22-1.968-.418-2.144-1.42-.02-.118-.01-.303.024-.55l.027-.18.008-.047.023-.133z"/><path d="M3.898.355c.078 0 .14.063.14.14V.65c.002.12.008.14.032.192l.005.01.332.597.028.053c.437.818.92.902 1.675.352a.14.14 0 0 1 .196.031c.046.063.032.15-.03.197-.88.64-1.553.53-2.072-.418l-.067-.123-.32-.58-.008-.02c-.048-.11-.05-.148-.05-.447 0-.078.063-.14.14-.14z"/><path d="M4.692.353a.14.14 0 0 1 .176.093c.256.827.637 1.267 1.327 1.43.076.018.122.094.104.17a.14.14 0 0 1-.169.104c-.8-.2-1.248-.708-1.53-1.622-.023-.074.02-.153.093-.176z"/><path d="M5.973.268c.078-.001.142.06.143.14v.036L6.112.61 6.1.858c-.01.26-.006.39.027.54.14.642.602 1 1.25 1.05.6.048 1.27-.182 1.684-.575a.14.14 0 0 1 .199.006c.053.056.05.146-.006.2-.474.448-1.223.705-1.9.65-.767-.06-1.335-.5-1.504-1.27-.04-.184-.046-.333-.032-.63l.01-.223.003-.19c-.001-.078.06-.142.138-.143z"/><path d="M6.9.23c.078.001.14.065.138.143l-.001.02a1.22 1.22 0 0 1-.014.136L7.01.56c-.022.145-.023.202 0 .253.15.34.402.733.676 1.014.34.348.68.5 1 .4.073-.02.13-.055.25-.145l.07-.054.126-.09a.14.14 0 0 1 .194.044c.04.066.022.153-.044.194l-.022.014-.076.054-.083.063c-.145.1-.224.157-.34.2-.437.122-.87-.07-1.276-.484A3.92 3.92 0 0 1 6.752.927C6.702.814 6.7.724 6.728.54l.01-.073.01-.1C6.75.3 6.813.228 6.9.23z"/><path d="M7.758.28a.14.14 0 0 1 .166.11l.06.292.013.06.01.047c.173.76.36.925 1.2 1.008.077.008.134.077.126.154s-.077.134-.154.126l-.058-.006c-.91-.1-1.182-.362-1.377-1.214l-.03-.133-.057-.278c-.015-.076.034-.15.1-.166z"/><path d="M9.068.34c.078-.003.143.057.146.135l.002.068.002.153V.98l.01.45v.016c.048.777.27 1.186.803 1.24.303.03.607.024 1.066-.016.156-.013.262-.055.4-.143l.018-.012.286-.218a.14.14 0 0 1 .196.031c.046.063.032.15-.03.197l-.045.034-.237.18-.006.005a1.02 1.02 0 0 1-.547.206l-.082.007c-.43.035-.73.04-1.037.01-.383-.04-.656-.23-.827-.543-.13-.24-.2-.543-.225-.923v-.037l-.012-.435V.665l-.004-.18C8.93.408 9 .342 9.068.34z"/><path d="M9.78.323c.078-.003.143.057.146.135L9.927.5l.004.197.002.39c.004.448.02.666.074.917.077.355.227.638.482.875.34.316 1.305-.055 1.324-.48v-.013c0-.078.063-.14.14-.14s.14.063.14.14c0 .683-1.28 1.18-1.798.698-.3-.28-.476-.613-.565-1.02l-.007-.034c-.056-.27-.07-.5-.074-.995L9.65.773V.68L9.644.47C9.64.392 9.7.326 9.78.323z"/><path d="M10.34 1c.007-.077.076-.134.153-.127s.13.07.127.145v.01c-.025.267.16.935.412 1.386.3.536.594.68.894.38a.14.14 0 0 1 .199 0c.055.055.055.144 0 .2-.245.246-.515.303-.775.175-.208-.102-.397-.318-.564-.617-.277-.496-.478-1.218-.447-1.55z"/></g><path d="M6.625 2.795l.023-.01c.063-.03.107-.038.167-.01.068.032.094.097.087.16-.003.03-.013.057-.028.087a.79.79 0 0 1-.208.236l-.023.02.007.004a.14.14 0 0 1 .059.133l-.001.01c-.002.012-.005.022-.01.03v.002-.001l.038.003.014.004c.036.01.04.017.086.075l.008.038c.006.027.006.037.001.053l-.002.005.007.003a.14.14 0 0 1 .072.062l.004.008c.032.067.006.147-.058.183l-.395.193-.702.328-.225.1-.055.024c-.408.175-.744.3-.992.365-.152.04-.27.056-.362.045-.147-.017-.246-.115-.224-.265a.52.52 0 0 1 .295-.409l.02-.01.001-.005.014-.043.012-.02c.01-.016.014-.018.026-.028l.015-.01.028-.013c.01-.004.02-.006.048-.01l.05-.008.183-.02.048-.004.016-.002.086-.013.06-.01-.02.001c-.295.014-.545-.018-.663-.118l-.01-.008c-.088-.082-.13-.178-.058-.276.044-.06.106-.083.196-.094l.015-.002c.1-.01.203-.007.464.008l.172.01c.203.01.315.012.395.001a1.91 1.91 0 0 0 .425-.129l.015-.006-.04.005-.57.04-.357.015-.33.02c-.077.006-.145-.052-.15-.13s.052-.145.13-.15l.07-.005.213-.012.407-.018c.426-.02.64-.04.894-.088.046-.01.126-.048.236-.114l.033-.02.064-.04.14-.09.03-.02.103-.06zM5.048 4.417l-.073.003c-.51.023-.705.078-.76.243l-.001.003h.002a1.05 1.05 0 0 0 .205-.035l.02-.005a5.1 5.1 0 0 0 .548-.185l.06-.024z"/></g><path d="M5.134 4.738c.654.398.35.78.1 1.608-.28.93-.605-.214-.646-.53-.12-.896.064-1.256.548-1.08z"/><g class="E"><path d="M7.54 3.157l.137.012.572.046.044.004c.08.008.114.016.158.037l.007.003.02.01c.055.027.086.04.165.067l.046.015c.192.063.495.146.94.255l.032.008c.074.018.197.034.4.052l.322.03.068.007c.078.01.128.017.163.027.026.008.047.017.07.035.062.053.073.147.013.212-.034.037-.067.048-.132.06-.33.07-.9.075-1.434.025l-.027-.003h.001l.29.18.037.02a1.02 1.02 0 0 0 .205.062l.032.007.233.048.02.004.023.006c.025.007.04.01.057.024l.016.01c.018.014.02.02.047.08l-.002.033c-.005.057-.01.07-.036.095L10 4.644l-.002.001.093.023.053.015.003.001a.29.29 0 0 1 .045.021c.035.02.06.044.074.092.006.02.008.04.006.058v.007l.004.003.01.01c.065.07.05.178-.03.23-.5.337-1.088.367-1.72.15-.468-.16-.912-.424-1.476-.836-.063-.046-.076-.134-.03-.197a.14.14 0 0 1 .197-.031l.073.053c.508.366.913.602 1.328.744.427.146.814.165 1.165.038l.02-.008-.03-.006-.25-.054-.035-.008h-.016a4.61 4.61 0 0 1-.703-.109l-.024-.006c-.303-.078-.57-.172-.81-.292a.85.85 0 0 1-.19-.132l-.036-.03-.033-.013-.45-.186-.058-.025a.24.24 0 0 1-.034-.018c-.034-.02-.057-.044-.068-.096s.007-.1.043-.134c.02-.018.04-.027.06-.033s.03-.006.047-.006a.72.72 0 0 1 .123.014l.152.033.007.002h0c-.02-.045-.032-.09-.038-.14l-.001-.013c-.007-.075.028-.126.078-.157l.002-.001-.006-.006h-.008c-.032-.04-.047-.096-.022-.15l.002-.003h-.005c-.07-.01-.12-.072-.12-.142v-.01c.007-.077.075-.135.152-.128zm.383.82l.006.005c.145.104.37.207.668.306l.014.005-.033-.014-.056-.025-.063-.028-.536-.25zm.313-.48l.005.002c.116.05.23.116.35.198l.02.014.03.006.525.07.024.002-.136-.036-.4-.115-.05-.016-.038-.013-.138-.05-.012-.005-.04-.018-.017-.008-.03-.015c-.01-.004-.02-.006-.062-.01l-.03-.003z"/><path d="M7.188 4.514a.14.14 0 0 1 .198.015c.048.057.044.14-.008.192l-.007.007c-.03.025-.053.084-.06.16a3.52 3.52 0 0 0-.008.76c.083.788.747 1.432 1.422 1.24.163-.046.437-.368.705-.822a5.74 5.74 0 0 0 .285-.546l.016-.036c.068-.155.108-.277.1-.316v-.004c-.002-.078.06-.142.137-.144s.142.06.144.137c.004.164-.187.603-.436 1.03l-.013.022c-.306.518-.6.876-.87.95-.87.245-1.68-.54-1.778-1.483-.028-.262-.024-.537.008-.82a.51.51 0 0 1 .157-.341z"/><path d="M4.635 4.015c.096-.082.218-.062.326.001.067.04.1.125.05.192a.14.14 0 0 1-.184.055L4.82 4.26l-.02-.01-.003.004c-.018.028-.03.07-.04.12l-.002.014c-.03.264-.033.52-.007.76.047.443.3.897.664 1.123.065.042.084.13.043.194a.14.14 0 0 1-.194.043c-.428-.274-.736-.805-.792-1.33-.028-.262-.024-.537.007-.82a.51.51 0 0 1 .157-.341z" transform="matrix(.97437 .224951 -.224951 .97437 1.30715 -.982409)"/><path d="M6.706 3.757a.14.14 0 0 1 .186-.072c.07.03.103.115.072.186l-.02.044c-.22.5-.465.855-1.015 1.58l-.144.2c-.426.563-.63.863-.822 1.23l-.244.474-.08.158-.11.235c-.1.22-.167.402-.196.54-.015.07-.02.126-.015.162.001.01.003.017.005.022v.001l.016.01c.648.342 1.89-.195 2.35-.923l.014-.022c.13-.213.333-.237.544-.12.07.04.14.09.218.16l.026.024.18.163c.644.52.974 1.178 1.028 1.958.045.656-.102 1.38-.414 2.216a.14.14 0 0 1-.181.082c-.073-.027-.1-.108-.082-.18.64-1.712.562-2.953-.494-3.83l-.032-.026C7.46 7.988 7.3 7.85 7.3 7.84c-.074-.066-.134-.112-.188-.142-.088-.05-.123-.047-.162.013l-.005.007c-.234.384-.702.76-1.218.984-.572.248-1.132.283-1.545.05-.15-.085-.174-.257-.124-.488.035-.162.108-.36.215-.597l.094-.2.04-.08.265-.517.02-.04c.213-.415.43-.734.913-1.37l.146-.192c.52-.69.746-1.035.955-1.508z"/><path d="M5.898 8.375c.077-.013.15.04.162.116.094.563.103 1.097.043 1.696l-.09.68-.015.097-.026.157-.133.777-.044.27c-.012.077-.084.13-.16.117s-.13-.084-.117-.16L5.535 12l.026-.16.038-.224.08-.455.035-.21.007-.043.103-.76c.057-.576.048-1.085-.04-1.622-.013-.077.04-.15.116-.162z"/><path d="M8.43 9.6a.14.14 0 0 1 .191.055c.038.068.013.154-.055.19l-.067.037c-1.1.593-1.68.62-2.77.1-.07-.033-.1-.117-.066-.188a.14.14 0 0 1 .187-.066l.06.03c.986.46 1.483.417 2.52-.158z"/></g><path d="M7.28 4.58c.654.398 1.052 1.06.802 1.888-.28.93-.95-.336-.993-.65-.178-1.344.14-.41.14-1.072"/></g></g></g></g><g filter="url(#B)" transform="translate(12 139.47)"><g transform="translate(0 .4)"><use xlink:href="#F" class="E Q"/><g transform="translate(3.305 7.476)"><g transform="translate(0 .003)"><use xlink:href="#G" class="R"/><g transform="translate(9.638 .964)" class="a"><path d="M.092.306C.027 1.426 1.024 1.71 1.3.68 1.5-.107.362-.182 0 .306"/><path d="M3.843.127c.02.238.005.482.058.715.23 1.012 1.495.03.825-.815"/></g><use xlink:href="#H" class="E b"/><g class="B C D O"><use xlink:href="#I"/><path d="M10.742 5.122c1.053.78 2.22.88 3.375.643"/></g><g class="K B C D"><path d="M11.87 7.126c.225.9.758 1.47 1.32 2.224"/><path d="M12.8 7.028c.616 1.947.48 1.117.618 2.448"/><path d="M13.556 7.168c.184 1.893.162 1.106.162 2.357"/><path d="M14.37 7.168l-.422 2.59"/><path d="M14.94 7.238c-.05.918-.293 1.65-.752 2.44"/><path d="M15.566 7.147c-.084.895-.34 1.757-.942 2.456"/><path d="M15.9 8.108c-.744.997-.834 1.303-1.947 1.564"/></g><path d="M10.818 4.796c-.067.18-.2.36-.425.37" class="B C D O"/></g></g></g><rect x="137.8" y="8.8" width="58.8" height="7.2" rx="3.6" class="F"/><rect x="61" y="8.8" width="69" height="7.2" rx="3.6" class="H"/><rect x="216.6" y="8.8" width="53" height="7.2" rx="3.6" class="L"/></g><path d="M327 18h-4v-2h4v2zm0 4h-4v-2h4v2zm0 4h-11v-2h11v2zm-12-7h3.5a.5.5 0 1 0 0-1h-1c-1.38 0-2.5-1.122-2.5-2.5 0-1.207.86-2.217 2-2.45V12h2v1h2v2h-3.5a.5.5 0 1 0 0 1h1c1.378 0 2.5 1.122 2.5 2.5 0 1.207-.86 2.218-2 2.45V22h-2v-1h-2v-2zm14.707-4.707l-5-5C324.52 9.105 324.265 9 324 9h-11a1 1 0 0 0-1 1v18a1 1 0 0 0 1 1h16a1 1 0 0 0 1-1V15c0-.265-.105-.52-.293-.707h0zM327 62h-4v-2h4v2zm0 4h-4v-2h4v2zm0 4h-11v-2h11v2zm-12-7h3.5a.5.5 0 1 0 0-1h-1c-1.38 0-2.5-1.122-2.5-2.5 0-1.207.86-2.217 2-2.45V56h2v1h2v2h-3.5a.5.5 0 1 0 0 1h1c1.378 0 2.5 1.122 2.5 2.5 0 1.207-.86 2.218-2 2.45V66h-2v-1h-2v-2zm14.707-4.707l-5-5c-.187-.188-.442-.293-.707-.293h-11a1 1 0 0 0-1 1v18a1 1 0 0 0 1 1h16a1 1 0 0 0 1-1V59c0-.265-.105-.52-.293-.707h0zM327 106h-4v-2h4v2zm0 4h-4v-2h4v2zm0 4h-11v-2h11v2zm-12-7h3.5a.5.5 0 1 0 0-1h-1c-1.38 0-2.5-1.122-2.5-2.5 0-1.207.86-2.217 2-2.45V100h2v1h2v2h-3.5a.5.5 0 1 0 0 1h1c1.378 0 2.5 1.122 2.5 2.5 0 1.207-.86 2.218-2 2.45V110h-2v-1h-2v-2zm14.707-4.707l-5-5c-.187-.188-.442-.293-.707-.293h-11a1 1 0 0 0-1 1v18a1 1 0 0 0 1 1h16a1 1 0 0 0 1-1v-13c0-.265-.105-.52-.293-.707h0zM327 150h-4v-2h4v2zm0 4h-4v-2h4v2zm0 4h-11v-2h11v2zm-12-7h3.5a.5.5 0 1 0 0-1h-1c-1.38 0-2.5-1.122-2.5-2.5 0-1.207.86-2.217 2-2.45V144h2v1h2v2h-3.5a.5.5 0 1 0 0 1h1c1.378 0 2.5 1.122 2.5 2.5 0 1.207-.86 2.218-2 2.45V154h-2v-1h-2v-2zm14.707-4.707l-5-5c-.187-.188-.442-.293-.707-.293h-11a1 1 0 0 0-1 1v18a1 1 0 0 0 1 1h16a1 1 0 0 0 1-1v-13c0-.265-.105-.52-.293-.707h0z" class="T"/><path d="M327 194h-4v-2h4v2zm0 4h-4v-2h4v2zm0 4h-11v-2h11v2zm-12-7h3.5a.5.5 0 1 0 0-1h-1c-1.38 0-2.5-1.122-2.5-2.5 0-1.207.86-2.217 2-2.45V188h2v1h2v2h-3.5a.5.5 0 1 0 0 1h1c1.378 0 2.5 1.122 2.5 2.5 0 1.207-.86 2.218-2 2.45V198h-2v-1h-2v-2zm14.707-4.707l-5-5c-.187-.188-.442-.293-.707-.293h-11a1 1 0 0 0-1 1v18a1 1 0 0 0 1 1h16a1 1 0 0 0 1-1v-13c0-.265-.105-.52-.293-.707h0zM327 238h-4v-2h4v2zm0 4h-4v-2h4v2zm0 4h-11v-2h11v2zm-12-7h3.5a.5.5 0 1 0 0-1h-1c-1.38 0-2.5-1.122-2.5-2.5 0-1.207.86-2.217 2-2.45V232h2v1h2v2h-3.5a.5.5 0 1 0 0 1h1c1.378 0 2.5 1.122 2.5 2.5 0 1.207-.86 2.218-2 2.45V242h-2v-1h-2v-2zm14.707-4.707l-5-5c-.187-.188-.442-.293-.707-.293h-11a1 1 0 0 0-1 1v18a1 1 0 0 0 1 1h16a1 1 0 0 0 1-1v-13c0-.265-.105-.52-.293-.707h0z" fill="#f4f2ee"/><path d="M327 282h-4v-2h4v2zm0 4h-4v-2h4v2zm0 4h-11v-2h11v2zm-12-7h3.5a.5.5 0 1 0 0-1h-1c-1.38 0-2.5-1.122-2.5-2.5 0-1.207.86-2.217 2-2.45V276h2v1h2v2h-3.5a.5.5 0 1 0 0 1h1c1.378 0 2.5 1.122 2.5 2.5 0 1.207-.86 2.218-2 2.45V286h-2v-1h-2v-2zm14.707-4.707l-5-5c-.187-.188-.442-.293-.707-.293h-11a1 1 0 0 0-1 1v18a1 1 0 0 0 1 1h16a1 1 0 0 0 1-1v-13c0-.265-.105-.52-.293-.707h0z" class="T"/><path d="M327 326h-4v-2h4v2zm0 4h-4v-2h4v2zm0 4h-11v-2h11v2zm-12-7h3.5a.5.5 0 1 0 0-1h-1c-1.38 0-2.5-1.122-2.5-2.5 0-1.207.86-2.217 2-2.45V320h2v1h2v2h-3.5a.5.5 0 1 0 0 1h1c1.378 0 2.5 1.122 2.5 2.5 0 1.207-.86 2.218-2 2.45V330h-2v-1h-2v-2zm14.707-4.707l-5-5c-.187-.188-.442-.293-.707-.293h-11a1 1 0 0 0-1 1v18a1 1 0 0 0 1 1h16a1 1 0 0 0 1-1v-13c0-.265-.105-.52-.293-.707h0zM327 370h-4v-2h4v2zm0 4h-4v-2h4v2zm0 4h-11v-2h11v2zm-12-7h3.5a.5.5 0 1 0 0-1h-1c-1.38 0-2.5-1.122-2.5-2.5 0-1.207.86-2.217 2-2.45V364h2v1h2v2h-3.5a.5.5 0 1 0 0 1h1c1.378 0 2.5 1.122 2.5 2.5 0 1.207-.86 2.218-2 2.45V374h-2v-1h-2v-2zm14.707-4.707l-5-5c-.187-.188-.442-.293-.707-.293h-11a1 1 0 0 0-1 1v18a1 1 0 0 0 1 1h16a1 1 0 0 0 1-1v-13c0-.265-.105-.52-.293-.707h0zM327 414h-4v-2h4v2zm0 4h-4v-2h4v2zm0 4h-11v-2h11v2zm-12-7h3.5a.5.5 0 1 0 0-1h-1c-1.38 0-2.5-1.122-2.5-2.5 0-1.207.86-2.217 2-2.45V408h2v1h2v2h-3.5a.5.5 0 1 0 0 1h1c1.378 0 2.5 1.122 2.5 2.5 0 1.207-.86 2.218-2 2.45V418h-2v-1h-2v-2zm14.707-4.707l-5-5c-.187-.188-.442-.293-.707-.293h-11a1 1 0 0 0-1 1v18a1 1 0 0 0 1 1h16a1 1 0 0 0 1-1v-13c0-.265-.105-.52-.293-.707h0z" fill="#f4f2ee"/></g><g transform="translate(0 80)" filter="url(#C)"><path d="M0 0h269v345H0z" class="J M"/><g transform="translate(16.277 17.164)"><g transform="translate(18.949)" fill="#000" class="E"><use xlink:href="#N"/></g><path d="M8.072 23.7v-7.85H0v.093c.072 4.25 3.603 7.685 7.975 7.754l.096.001z" class="U"/><path d="M8.145 7.848l-.097.001V0h8.072v.093c-.072 4.25-3.602 7.684-7.974 7.754h0z" class="V"/><path d="M7.975 8.013l.097-.001v7.85H0v-.093c.072-4.25 3.602-7.684 7.974-7.754h0z" class="N"/><ellipse transform="matrix(1 0 0 -1 0 39.571422)" cx="11.943" cy="19.786" rx="3.871" ry="3.924" class="S"/><g class="F"><path d="M8.142.001L8.24 0v8.286H0C0 3.755 3.633.074 8.142.001h0z"/><use xlink:href="#O" class="E"/></g></g><rect x="17.99" y="78.097" width="47.118" height="5.149" rx="2.575" class="F"/><g class="G"><rect x="17.134" y="106.418" width="46.261" height="6.007" rx="3.004"/><rect x="81.385" y="97.836" width="46.261" height="5.149" rx="2.575"/><rect x="71.962" y="193.097" width="106.229" height="5.149" rx="2.575"/><rect x="164.484" y="238.582" width="41.121" height="5.149" rx="2.575"/></g><rect x="227.022" y="193.097" width="12.85" height="5.149" rx="2.575" class="I"/><g class="G"><rect x="71.962" y="200.821" width="59.968" height="5.149" rx="2.575"/><rect x="164.484" y="246.306" width="41.121" height="5.149" rx="2.575"/><rect x="81.385" y="106.418" width="46.261" height="6.007" rx="3.004"/></g><rect x="172.194" y="322.687" width="35.981" height="12.873" rx="6.318" class="W"/><rect x="211.602" y="322.687" width="35.981" height="12.873" rx="6.318" class="X"/><rect x="17.99" y="69.515" width="54.828" height="6.007" rx="3.004" class="H"/><g class="G"><rect x="17.99" y="97.836" width="53.971" height="5.149" rx="2.575"/><rect x="81.385" y="78.097" width="53.971" height="5.149" rx="2.575"/><rect x="71.962" y="148.47" width="72.818" height="5.149" rx="2.575"/><rect x="71.962" y="176.791" width="42.834" height="5.149" rx="2.575"/></g><g transform="translate(17.99 140.746)" class="F"><use xlink:href="#P"/><use xlink:href="#Q"/></g><rect x="227.022" y="246.306" width="12.85" height="5.149" rx="2.575" class="I"/><rect x="227.022" y="254.888" width="20.561" height="6.866" rx="3.433" class="N"/><g class="G"><rect x="81.385" y="69.515" width="53.971" height="5.149" rx="2.575"/><rect x="71.962" y="140.746" width="95.949" height="5.149" rx="2.575"/><rect x="71.962" y="169.067" width="79.672" height="5.149" rx="2.575"/></g><g class="I"><rect x="227.022" y="140.746" width="15.42" height="5.149" rx="2.575"/><rect x="227.022" y="169.067" width="15.42" height="5.149" rx="2.575"/><rect x="227.022" y="238.582" width="15.42" height="5.149" rx="2.575"/></g><g class="B M Y Z"><path d="M18 57.07h233.876"/><path d="M18 126.586h233.876"/><path d="M18 225.28h233.876"/><path d="M18 275.056h233.876"/></g></g><g transform="translate(23 105)" filter="url(#D)"><path d="M0 0h269v344H0z" class="J M"/><g transform="translate(16.277 17.114)"><g transform="translate(18.949)" fill="#000" class="E"><use xlink:href="#R"/></g><path d="M8.072 23.64v-7.826H0v.093c.072 4.24 3.603 7.663 7.975 7.732h.096z" class="U"/><path d="M8.145 7.825l-.097.001V0h8.072v.093c-.072 4.24-3.602 7.662-7.974 7.732h0z" class="V"/><path d="M7.975 8l.097-.001v7.826H0v-.093C.072 11.483 3.603 8.06 7.975 8h0z" class="N"/><ellipse transform="matrix(1 0 0 -1 0 39.456722)" cx="11.943" cy="19.728" rx="3.871" ry="3.913" class="S"/><g class="F"><path d="M8.142.001L8.24 0v8.262H0C0 3.744 3.633.074 8.142.001h0z"/><use xlink:href="#S" class="E"/></g></g><rect x="17.99" y="77.871" width="47.118" height="5.134" rx="2.567" class="F"/><g class="G"><rect x="17.134" y="106.109" width="46.261" height="5.99" rx="2.995"/><rect x="81.385" y="97.552" width="46.261" height="5.134" rx="2.567"/><rect x="71.962" y="192.537" width="106.229" height="5.134" rx="2.567"/><rect x="164.484" y="237.891" width="41.121" height="5.134" rx="2.567"/></g><rect x="227.022" y="192.537" width="12.85" height="5.134" rx="2.567" class="I"/><g class="G"><rect x="71.962" y="200.239" width="59.968" height="5.134" rx="2.567"/><rect x="164.484" y="245.592" width="41.121" height="5.134" rx="2.567"/><rect x="81.385" y="106.109" width="46.261" height="5.99" rx="2.995"/></g><rect x="172.194" y="321.751" width="35.981" height="12.836" rx="6.318" class="W"/><rect x="211.602" y="321.751" width="35.981" height="12.836" rx="6.318" class="X"/><rect x="17.99" y="69.313" width="54.828" height="5.99" rx="2.995" class="H"/><g class="G"><rect x="17.99" y="97.552" width="53.971" height="5.134" rx="2.567"/><rect x="81.385" y="77.871" width="53.971" height="5.134" rx="2.567"/><rect x="71.962" y="148.04" width="72.818" height="5.134" rx="2.567"/><rect x="71.962" y="176.279" width="42.834" height="5.134" rx="2.567"/></g><g transform="translate(17.99 140.338)" class="F"><use xlink:href="#T"/><use xlink:href="#U"/></g><rect x="227.022" y="245.592" width="12.85" height="5.134" rx="2.567" class="I"/><rect x="227.022" y="254.149" width="20.561" height="6.846" rx="3.423" class="N"/><g class="G"><rect x="81.385" y="69.313" width="53.971" height="5.134" rx="2.567"/><rect x="71.962" y="140.338" width="95.949" height="5.134" rx="2.567"/><rect x="71.962" y="168.577" width="79.672" height="5.134" rx="2.567"/></g><g class="I"><rect x="227.022" y="140.338" width="15.42" height="5.134" rx="2.567"/><rect x="227.022" y="168.577" width="15.42" height="5.134" rx="2.567"/><rect x="227.022" y="237.891" width="15.42" height="5.134" rx="2.567"/></g><g class="B M Y Z"><path d="M18 56.905h233.876"/><path d="M18 126.22h233.876"/><path d="M18 224.627h233.876"/><path d="M18 274.26h233.876"/></g></g><g transform="translate(46 130)" filter="url(#D)"><path d="M0 0h269v344H0z" class="J M"/><g transform="translate(16.277 17.114)"><g transform="translate(18.949)" fill="#000" class="E"><use xlink:href="#R"/></g><path d="M8.072 23.64v-7.826H0v.093c.072 4.24 3.603 7.663 7.975 7.732h.096z" class="U"/><path d="M8.145 7.825l-.097.001V0h8.072v.093c-.072 4.24-3.602 7.662-7.974 7.732h0z" class="V"/><path d="M7.975 8l.097-.001v7.826H0v-.093C.072 11.483 3.603 8.06 7.975 8h0z" class="N"/><ellipse transform="matrix(1 0 0 -1 0 39.456722)" cx="11.943" cy="19.728" rx="3.871" ry="3.913" class="S"/><g class="F"><path d="M8.142.001L8.24 0v8.262H0C0 3.744 3.633.074 8.142.001h0z"/><use xlink:href="#S" class="E"/></g></g><rect x="17.99" y="77.871" width="47.118" height="5.134" rx="2.567" class="F"/><g class="G"><rect x="17.134" y="106.109" width="46.261" height="5.99" rx="2.995"/><rect x="81.385" y="97.552" width="46.261" height="5.134" rx="2.567"/><rect x="71.962" y="192.537" width="106.229" height="5.134" rx="2.567"/><rect x="164.484" y="237.891" width="41.121" height="5.134" rx="2.567"/></g><rect x="227.022" y="192.537" width="12.85" height="5.134" rx="2.567" class="I"/><g class="G"><rect x="71.962" y="200.239" width="59.968" height="5.134" rx="2.567"/><rect x="164.484" y="245.592" width="41.121" height="5.134" rx="2.567"/><rect x="81.385" y="106.109" width="46.261" height="5.99" rx="2.995"/></g><rect x="172.194" y="321.751" width="35.981" height="12.836" rx="6.318" class="W"/><rect x="211.602" y="321.751" width="35.981" height="12.836" rx="6.318" class="X"/><rect x="17.99" y="69.313" width="54.828" height="5.99" rx="2.995" class="H"/><g class="G"><rect x="17.99" y="97.552" width="53.971" height="5.134" rx="2.567"/><rect x="81.385" y="77.871" width="53.971" height="5.134" rx="2.567"/><rect x="71.962" y="148.04" width="72.818" height="5.134" rx="2.567"/><rect x="71.962" y="176.279" width="42.834" height="5.134" rx="2.567"/></g><g transform="translate(17.99 140.338)" class="F"><use xlink:href="#T"/><use xlink:href="#U"/></g><rect x="227.022" y="245.592" width="12.85" height="5.134" rx="2.567" class="I"/><rect x="227.022" y="254.149" width="20.561" height="6.846" rx="3.423" class="N"/><g class="G"><rect x="81.385" y="69.313" width="53.971" height="5.134" rx="2.567"/><rect x="71.962" y="140.338" width="95.949" height="5.134" rx="2.567"/><rect x="71.962" y="168.577" width="79.672" height="5.134" rx="2.567"/></g><g class="I"><rect x="227.022" y="140.338" width="15.42" height="5.134" rx="2.567"/><rect x="227.022" y="168.577" width="15.42" height="5.134" rx="2.567"/><rect x="227.022" y="237.891" width="15.42" height="5.134" rx="2.567"/></g><g class="B M Y Z"><path d="M18 56.905h233.876"/><path d="M18 126.22h233.876"/><path d="M18 224.627h233.876"/><path d="M18 274.26h233.876"/></g></g><g transform="translate(69 155)" filter="url(#E)"><path d="M0 0h270v344H0z" class="J M"/><g transform="translate(16.338 17.114)"><g transform="translate(19.019)" fill="#000" class="E"><path d="M4.902 7.682V6.355H1.818V.822H.25v6.86h4.65zm3.254.14c.395 0 .752-.066 1.07-.198a2.35 2.35 0 0 0 .819-.559c.228-.24.402-.53.522-.87a3.34 3.34 0 0 0 .181-1.124 3.14 3.14 0 0 0-.191-1.119 2.51 2.51 0 0 0-.532-.861c-.228-.238-.5-.422-.82-.554s-.668-.198-1.05-.198c-.375 0-.722.066-1.04.198s-.593.317-.824.554a2.53 2.53 0 0 0-.542.861 3.07 3.07 0 0 0-.196 1.119c0 .41.064.784.19 1.124s.305.63.532.87a2.35 2.35 0 0 0 .819.559 2.74 2.74 0 0 0 1.06.198zm0-1.267c-.342 0-.606-.134-.794-.4s-.28-.63-.28-1.084.094-.813.28-1.074a.92.92 0 0 1 .794-.391c.342 0 .604.13.79.39s.276.62.276 1.074-.092.817-.276 1.084a.9.9 0 0 1-.789.401zm6.097 1.267c.395 0 .752-.066 1.07-.198a2.35 2.35 0 0 0 .819-.559c.228-.24.402-.53.522-.87a3.34 3.34 0 0 0 .181-1.124 3.14 3.14 0 0 0-.191-1.119 2.51 2.51 0 0 0-.532-.861c-.228-.238-.5-.422-.82-.554s-.668-.198-1.05-.198c-.375 0-.722.066-1.04.198s-.593.317-.824.554a2.53 2.53 0 0 0-.542.861 3.07 3.07 0 0 0-.196 1.119c0 .41.064.784.19 1.124s.305.63.532.87a2.35 2.35 0 0 0 .819.559 2.74 2.74 0 0 0 1.06.198zm0-1.267c-.342 0-.606-.134-.794-.4s-.28-.63-.28-1.084.094-.813.28-1.074a.92.92 0 0 1 .794-.391c.342 0 .604.13.79.39s.276.62.276 1.074-.092.817-.276 1.084a.9.9 0 0 1-.789.401zm5.243 1.128V5.405a4.04 4.04 0 0 1 .507.485l.487.6.437.624.367.57h1.718l-.422-.723-.552-.792-.623-.767c-.214-.247-.422-.46-.623-.638l1.1-1.133 1.04-1.153h-1.778l-.336.396-.417.48-.457.5-.457.495V0L18 .238v7.444h1.497zm5.063-5.84c.24 0 .45-.078.628-.233s.266-.368.266-.638-.09-.483-.266-.638S24.8.1 24.56.1s-.45.078-.628.233-.266.368-.266.638.09.483.266.638.387.233.628.233zm.753 5.84V2.475h-1.497v5.207h1.497zm2.903 0v-4.02l.32-.035.342-.015c.348 0 .586.1.713.297s.19.535.19 1h0v2.762h1.497v-2.94c0-.356-.037-.68-.1-.97s-.198-.54-.372-.752-.4-.375-.708-.5-.67-.173-1.12-.173c-.442 0-.864.03-1.266.094l-.984.203v5.03h1.497zm6.288 1.86c.917 0 1.595-.206 2.034-.62s.658-1.044.658-1.896h0V2.653l-.457-.114-.537-.094-.568-.064-.557-.025c-.422 0-.8.06-1.135.183a2.36 2.36 0 0 0-.849.52 2.22 2.22 0 0 0-.527.807c-.12.313-.18.662-.18 1.044 0 .766.194 1.36.583 1.787s.948.638 1.677.638a2.68 2.68 0 0 0 .557-.054c.17-.036.336-.09.497-.163h0v.188c0 .3-.09.528-.266.713s-.48.277-.91.277c-.328 0-.62-.026-.88-.08s-.504-.125-.738-.218h0l-.26 1.237a6.08 6.08 0 0 0 .894.223 5.6 5.6 0 0 0 .964.084zm.422-3.395c-.676 0-1.015-.412-1.015-1.237 0-.396.097-.723.29-.98s.49-.386.884-.386l.352.015.26.035V5.95c-.094.053-.208.1-.342.14s-.278.06-.432.06zM.894 9.715c.24 0 .45-.078.628-.233s.266-.368.266-.638-.09-.483-.266-.638-.387-.233-.628-.233-.45.078-.628.233S0 8.574 0 8.844s.09.483.266.638.387.233.628.233zm.753 5.84V10.35H.15v5.207h1.497zm2.903 0v-4.02l.32-.035.342-.015c.348 0 .586.1.713.297s.19.535.19 1h0v2.762h1.497v-2.94c0-.356-.037-.68-.1-.97s-.198-.54-.372-.752-.4-.375-.708-.5-.67-.173-1.12-.173c-.442 0-.864.03-1.266.094l-.984.203v5.03H4.55zm6.46.12c.32 0 .593-.026.814-.08s.422-.115.603-.188h0l-.21-1.148c-.14.053-.296.094-.467.124a2.9 2.9 0 0 1-.497.045c-.335 0-.557-.092-.668-.277s-.166-.432-.166-.742h0v-1.83h1.798V10.35h-1.798V8.815l-1.497.238v4.375a4.12 4.12 0 0 0 .095.921c.064.277.176.513.336.708a1.59 1.59 0 0 0 .643.455c.268.11.606.163 1.015.163zm4.57.02c.395 0 .752-.066 1.07-.198a2.35 2.35 0 0 0 .819-.559c.228-.24.402-.53.522-.87a3.34 3.34 0 0 0 .181-1.124 3.14 3.14 0 0 0-.191-1.119 2.51 2.51 0 0 0-.532-.861c-.228-.238-.5-.422-.82-.554s-.668-.198-1.05-.198c-.375 0-.722.066-1.04.198s-.593.317-.824.554a2.53 2.53 0 0 0-.542.861 3.07 3.07 0 0 0-.196 1.119c0 .41.064.784.19 1.124s.305.63.532.87a2.35 2.35 0 0 0 .819.559 2.74 2.74 0 0 0 1.06.198zm0-1.267c-.342 0-.606-.134-.794-.4s-.28-.63-.28-1.084.094-.813.28-1.074a.92.92 0 0 1 .794-.391c.342 0 .604.13.79.39s.276.62.276 1.074-.092.817-.276 1.084a.9.9 0 0 1-.789.401zm8.197 1.247c.32 0 .593-.026.814-.08s.422-.115.603-.188h0l-.21-1.148c-.14.053-.296.094-.467.124a2.9 2.9 0 0 1-.497.045c-.335 0-.557-.092-.668-.277s-.166-.432-.166-.742h0v-1.83h1.798V10.35h-1.798V8.815l-1.497.238v4.375a4.12 4.12 0 0 0 .095.921c.064.277.176.513.336.708a1.59 1.59 0 0 0 .643.455c.268.11.606.163 1.015.163zm3.917-.12v-3.96l.316-.074c.117-.023.243-.035.377-.035.335 0 .564.1.688.297s.186.535.186 1h0v2.762h1.497v-2.94c0-.356-.035-.68-.105-.97s-.19-.54-.362-.752a1.66 1.66 0 0 0-.683-.49c-.285-.115-.64-.173-1.07-.173-.147 0-.3.015-.457.045a3.14 3.14 0 0 0-.387.094h0V7.874l-1.497.238v7.444h1.497zm6.96.14c.188 0 .375-.01.563-.03l.527-.074.447-.104c.134-.04.24-.08.32-.12h0l-.2-1.198c-.167.073-.383.134-.648.183s-.534.074-.81.074c-.43 0-.77-.09-1.025-.267s-.398-.42-.432-.723h3.395l.02-.272.01-.282c0-.878-.218-1.543-.653-1.995s-1.028-.678-1.778-.678c-.32 0-.634.06-.94.178s-.574.294-.81.525-.424.52-.568.866-.216.75-.216 1.213c0 .383.055.74.166 1.07s.28.615.512.856a2.42 2.42 0 0 0 .874.569c.352.14.765.208 1.24.208zm.723-3.267H33.4c.02-.125.052-.25.095-.37s.105-.23.186-.322a.89.89 0 0 1 .301-.223c.12-.056.265-.084.432-.084a.96.96 0 0 1 .437.089c.117.06.214.135.29.228a.91.91 0 0 1 .171.317c.037.12.06.24.065.366h0zM1.818 23.43V20.6H4.57v-1.297H1.818v-1.435h3.094V16.57H.25v6.86h1.567zm6.157.12c.442 0 .864-.03 1.266-.094l.984-.203v-5.03H8.73v4.02l-.32.035-.342.015c-.348 0-.586-.106-.713-.317s-.19-.554-.19-1.03h0v-2.722H5.665v2.9a4.07 4.07 0 0 0 .11.98 1.94 1.94 0 0 0 .372.767 1.7 1.7 0 0 0 .708.5c.298.12.67.178 1.12.178zm5.695 0c.32 0 .593-.026.814-.08s.422-.115.603-.188h0l-.21-1.148c-.14.053-.296.094-.467.124a2.9 2.9 0 0 1-.497.045c-.335 0-.557-.092-.668-.277s-.166-.432-.166-.742h0v-1.83h1.798v-1.227h-1.798V16.69l-1.497.238v4.375a4.12 4.12 0 0 0 .095.921c.064.277.176.513.336.708a1.59 1.59 0 0 0 .643.455c.268.11.606.163 1.015.163zm4.68 0c.442 0 .864-.03 1.266-.094l.984-.203v-5.03h-1.497v4.02l-.32.035-.342.015c-.348 0-.586-.106-.713-.317s-.19-.554-.19-1.03h0v-2.722H16.04v2.9a4.07 4.07 0 0 0 .11.98 1.94 1.94 0 0 0 .372.767 1.7 1.7 0 0 0 .708.5c.298.12.67.178 1.12.178zm5.153-.12v-3.98c.067-.02.166-.038.296-.054s.243-.025.336-.025a2.96 2.96 0 0 1 .583.054l.472.104.25-1.218c-.08-.033-.177-.06-.29-.084l-.342-.06-.342-.04-.29-.015c-.45 0-.855.04-1.22.124l-.95.262v4.93h1.497zm5.183.14c.188 0 .375-.01.563-.03l.527-.074.447-.104c.134-.04.24-.08.32-.12h0l-.2-1.198c-.167.073-.383.134-.648.183s-.534.074-.81.074c-.43 0-.77-.09-1.025-.267s-.398-.42-.432-.723h3.395l.02-.272.01-.282c0-.878-.218-1.543-.653-1.995s-1.028-.678-1.778-.678c-.32 0-.634.06-.94.178s-.574.294-.81.525-.424.52-.568.866-.216.75-.216 1.213c0 .383.055.74.166 1.07s.28.615.512.856a2.42 2.42 0 0 0 .874.569c.352.14.765.208 1.24.208zm.723-3.267h-1.98c.02-.125.052-.25.095-.37s.105-.23.186-.322a.89.89 0 0 1 .301-.223c.12-.056.265-.084.432-.084a.96.96 0 0 1 .437.089c.117.06.214.135.29.228a.91.91 0 0 1 .171.317c.037.12.06.24.065.366h0z"/></g><path d="M8.102 23.64v-7.826H0v.093c.072 4.24 3.616 7.663 8.005 7.732h.096z" class="U"/><path d="M8.175 7.825l-.098.001V0h8.102v.093c-.072 4.24-3.615 7.662-8.003 7.732h0z" class="V"/><path d="M8.004 8l.098-.001v7.826H0v-.093C.073 11.483 3.616 8.06 8.004 8h0z" class="N"/><ellipse transform="matrix(1 0 0 -1 0 39.456722)" cx="11.988" cy="19.728" rx="3.886" ry="3.913" class="S"/><g class="F"><path d="M8.172.001L8.27 0v8.262H0C0 3.744 3.646.074 8.172.001h0z"/><path d="M112.53 22.846V.516h-5.03v22.33h5.03zm10.126 0V8.217a76.96 76.96 0 0 1 5.353 7.057l4.676 7.572h4.225V.516h-5v13.18l-2.483-3.625-2.66-3.64-2.628-3.303-2.354-2.6H117.7v22.33h4.966zm30.895 0l2.612-5.832 2.45-5.993 2.128-5.67 1.71-4.833H157.1l-1.403 4.173-1.548 4.463-1.548 4.253-1.37 3.512-1.387-3.512-1.532-4.253-1.548-4.463L145.36.516h-5.547l1.693 4.833 2.145 5.67 2.45 5.993 2.612 5.832h4.837zm21.156.45c1.57 0 3.037-.247 4.402-.74a9.6 9.6 0 0 0 3.531-2.207c.99-.977 1.768-2.19 2.338-3.64s.855-3.13.855-5.043-.3-3.593-.87-5.043-1.376-2.67-2.386-3.657-2.193-1.73-3.547-2.223-2.795-.74-4.32-.74a12.19 12.19 0 0 0-4.241.741c-1.344.494-2.526 1.235-3.547 2.223s-1.833 2.207-2.435 3.657-.903 3.13-.903 5.043.3 3.593.87 5.043 1.376 2.664 2.386 3.64 2.193 1.713 3.547 2.207 2.795.74 4.32.74zm0-4.414c-.946 0-1.784-.172-2.515-.516s-1.35-.832-1.854-1.466-.892-1.39-1.16-2.272-.403-1.87-.403-2.964c0-1.074.134-2.057.403-2.948s.656-1.654 1.16-2.288a5.3 5.3 0 0 1 1.854-1.482c.73-.354 1.57-.532 2.515-.532.924 0 1.758.172 2.5.516a5.1 5.1 0 0 1 1.87 1.466c.505.634.892 1.396 1.16 2.288s.403 1.885.403 2.98-.134 2.084-.403 2.964-.656 1.638-1.16 2.272a5.1 5.1 0 0 1-1.87 1.466c-.742.344-1.575.516-2.5.516zm20.35 3.963V.516h-5.03v22.33h5.03zm15.35.45c1.698 0 3.193-.172 4.483-.516s2.3-.73 3-1.16h0l-1.387-4.028-.935.42c-.344.15-.742.285-1.193.403s-.967.22-1.548.306-1.236.13-1.967.13c-1.16 0-2.15-.188-2.967-.564s-1.478-.886-1.983-1.53-.87-1.412-1.096-2.304-.34-1.853-.34-2.884c0-1.29.172-2.384.516-3.287s.8-1.638 1.37-2.207 1.225-.983 1.967-1.24a6.88 6.88 0 0 1 2.274-.387c1.16 0 2.198.13 3.112.387s1.715.57 2.403.934h0l1.45-4.06c-.172-.107-.45-.258-.838-.45s-.87-.38-1.45-.564a16.74 16.74 0 0 0-2.032-.483c-.774-.14-1.634-.21-2.58-.21-1.634 0-3.15.258-4.547.773s-2.6 1.273-3.612 2.272-1.806 2.223-2.386 3.673-.87 3.1-.87 4.946c0 3.716.95 6.584 2.854 8.603s4.67 3.03 8.304 3.03zm26.542-.45v-4.22h-10.804v-5.38h8.933V9.12h-8.933V4.737h10.062V.516h-15.093v22.33h15.835z" class="E"/></g></g><rect x="18.057" y="77.871" width="47.293" height="5.134" rx="2.567" class="F"/><g class="G"><rect x="17.197" y="106.109" width="46.433" height="5.99" rx="2.995"/><rect x="81.688" y="97.552" width="46.433" height="5.134" rx="2.567"/><rect x="72.229" y="192.537" width="106.624" height="5.134" rx="2.567"/><rect x="165.096" y="237.891" width="41.274" height="5.134" rx="2.567"/></g><rect x="227.866" y="192.537" width="12.898" height="5.134" rx="2.567" class="I"/><g class="G"><rect x="72.229" y="200.239" width="60.191" height="5.134" rx="2.567"/><rect x="165.096" y="245.592" width="41.274" height="5.134" rx="2.567"/><rect x="81.688" y="106.109" width="46.433" height="5.99" rx="2.995"/></g><rect x="172.834" y="321.751" width="36.115" height="12.836" rx="6.318" class="W"/><rect x="212.389" y="321.751" width="36.115" height="12.836" rx="6.318" class="X"/><rect x="18.057" y="69.313" width="55.032" height="5.99" rx="2.995" class="H"/><g class="G"><rect x="18.057" y="97.552" width="54.172" height="5.134" rx="2.567"/><rect x="81.688" y="77.871" width="54.172" height="5.134" rx="2.567"/><rect x="72.229" y="148.04" width="73.089" height="5.134" rx="2.567"/><rect x="72.229" y="176.279" width="42.994" height="5.134" rx="2.567"/></g><g transform="translate(18.057 140.338)" class="F"><path d="M9.647 5.45l-.92.94-2.71-2.763.92-.94c.24-.245.628-.245.868 0l1.843 1.878c.24.245.24.64 0 .885h0zm-4.3 4.38c-.12.122-.277.183-.434.183s-.314-.06-.434-.183L2.637 7.953c-.24-.245-.24-.64 0-.885L5.4 4.252l2.71 2.763L5.348 9.83zm6.756-6.26c.24-.245.24-.64 0-.885L9.647.183c-.24-.245-.628-.245-.868 0-.35.358-1.237.358-1.588 0-.24-.245-.628-.245-.868 0L.18 6.442c-.24.245-.24.64 0 .885.37.378.37 1.24 0 1.62-.24.245-.24.64 0 .885l2.457 2.504c.24.245.628.245.868 0 .35-.358 1.237-.358 1.588 0 .12.122.277.183.434.183s.314-.06.434-.183l6.142-6.26c.24-.245.24-.64 0-.885-.37-.378-.37-1.24 0-1.62h0z"/><path d="M9.647 33.38l-.92.94-2.71-2.763.92-.94c.24-.245.628-.245.868 0l1.843 1.878c.24.245.24.64 0 .885h0zm-4.3 4.38c-.12.122-.277.183-.434.183s-.314-.06-.434-.183l-1.843-1.878c-.24-.245-.24-.64 0-.885L5.4 32.183l2.71 2.763-2.764 2.817zm6.756-6.26c.24-.245.24-.64 0-.885l-2.457-2.504c-.24-.245-.628-.245-.868 0-.35.358-1.237.358-1.588 0-.24-.245-.628-.245-.868 0L.18 34.373c-.24.245-.24.64 0 .885.37.378.37 1.24 0 1.62-.24.245-.24.64 0 .885l2.457 2.504c.24.245.628.245.868 0 .35-.358 1.237-.358 1.588 0 .12.122.277.183.434.183s.314-.06.434-.183l6.142-6.26c.24-.245.24-.64 0-.885-.37-.378-.37-1.24 0-1.62h0z"/></g><rect x="227.866" y="245.592" width="12.898" height="5.134" rx="2.567" class="I"/><rect x="227.866" y="254.149" width="20.637" height="6.846" rx="3.423" class="N"/><g class="G"><rect x="81.688" y="69.313" width="54.172" height="5.134" rx="2.567"/><rect x="72.229" y="140.338" width="96.306" height="5.134" rx="2.567"/><rect x="72.229" y="168.577" width="79.968" height="5.134" rx="2.567"/></g><g class="I"><rect x="227.866" y="140.338" width="15.478" height="5.134" rx="2.567"/><rect x="227.866" y="168.577" width="15.478" height="5.134" rx="2.567"/><rect x="227.866" y="237.891" width="15.478" height="5.134" rx="2.567"/></g><g class="B M Y Z"><path d="M18.057 56.905h234.745"/><path d="M18.057 126.22h234.745"/><path d="M18.057 224.627h234.745"/><path d="M18.057 274.26h234.745"/></g></g><g transform="translate(93 179)" filter="url(#C)"><path d="M0 0h269v345H0z" class="J M"/><g transform="translate(16.277 17.164)"><g transform="translate(18.949)" fill="#000" class="E"><use xlink:href="#N"/></g><path d="M8.072 23.7v-7.85H0v.093c.072 4.25 3.603 7.685 7.975 7.754l.096.001z" class="U"/><path d="M8.145 7.848l-.097.001V0h8.072v.093c-.072 4.25-3.602 7.684-7.974 7.754h0z" class="V"/><path d="M7.975 8.013l.097-.001v7.85H0v-.093c.072-4.25 3.602-7.684 7.974-7.754h0z" class="N"/><ellipse transform="matrix(1 0 0 -1 0 39.571422)" cx="11.943" cy="19.786" rx="3.871" ry="3.924" class="S"/><g class="F"><path d="M8.142.001L8.24 0v8.286H0C0 3.755 3.633.074 8.142.001h0z"/><use xlink:href="#O" class="E"/></g></g><rect x="17.99" y="78.097" width="47.118" height="5.149" rx="2.575" class="F"/><g class="G"><rect x="17.134" y="106.418" width="46.261" height="6.007" rx="3.004"/><rect x="81.385" y="97.836" width="46.261" height="5.149" rx="2.575"/><rect x="71.962" y="193.097" width="106.229" height="5.149" rx="2.575"/><rect x="164.484" y="238.582" width="41.121" height="5.149" rx="2.575"/></g><rect x="227.022" y="193.097" width="12.85" height="5.149" rx="2.575" class="I"/><g class="G"><rect x="71.962" y="200.821" width="59.968" height="5.149" rx="2.575"/><rect x="164.484" y="246.306" width="41.121" height="5.149" rx="2.575"/><rect x="81.385" y="106.418" width="46.261" height="6.007" rx="3.004"/></g><rect x="172.194" y="322.687" width="35.981" height="12.873" rx="6.318" class="W"/><rect x="211.602" y="322.687" width="35.981" height="12.873" rx="6.318" class="X"/><rect x="17.99" y="69.515" width="54.828" height="6.007" rx="3.004" class="H"/><g class="G"><rect x="17.99" y="97.836" width="53.971" height="5.149" rx="2.575"/><rect x="81.385" y="78.097" width="53.971" height="5.149" rx="2.575"/><rect x="71.962" y="148.47" width="72.818" height="5.149" rx="2.575"/><rect x="71.962" y="176.791" width="42.834" height="5.149" rx="2.575"/></g><g transform="translate(17.99 140.746)" class="F"><use xlink:href="#P"/><use xlink:href="#Q"/></g><rect x="227.022" y="246.306" width="12.85" height="5.149" rx="2.575" class="I"/><rect x="227.022" y="254.888" width="20.561" height="6.866" rx="3.433" class="N"/><g class="G"><rect x="81.385" y="69.515" width="53.971" height="5.149" rx="2.575"/><rect x="71.962" y="140.746" width="95.949" height="5.149" rx="2.575"/><rect x="71.962" y="169.067" width="79.672" height="5.149" rx="2.575"/></g><g class="I"><rect x="227.022" y="140.746" width="15.42" height="5.149" rx="2.575"/><rect x="227.022" y="169.067" width="15.42" height="5.149" rx="2.575"/><rect x="227.022" y="238.582" width="15.42" height="5.149" rx="2.575"/></g><g class="B M Y Z"><path d="M18 57.07h233.876"/><path d="M18 126.586h233.876"/><path d="M18 225.28h233.876"/><path d="M18 275.056h233.876"/></g></g></g></svg>