<svg xmlns="http://www.w3.org/2000/svg" xmlns:xlink="http://www.w3.org/1999/xlink" width="616" height="571" xmlns:v="https://vecta.io/nano"><style><![CDATA[.B{stroke-linejoin:round}.C{fill:#0d62fe}.D{stroke-width:1.668}.E{stroke-linecap:round}.F{fill-opacity:.035}.G{stroke:#e7e7e7}.H{stroke-width:.783}.I{fill:#d4d4d4}.J{fill-rule:nonzero}.K{stroke:#f4f2ee}.L{fill:#eaeaea}.M{fill:#0064ff}.N{fill:#b4b4b4}.O{stroke-linecap:square}]]></style><defs><filter x="-34.7%" y="-27.1%" width="169.4%" height="154.2%" id="A"><feOffset dy="24" in="SourceAlpha"/><feGaussianBlur stdDeviation="16"/><feColorMatrix values="0 0 0 0 0.3515625 0 0 0 0 0.3515625 0 0 0 0 0.3515625 0 0 0 0.1 0" result="C"/><feMerge><feMergeNode in="C"/><feMergeNode in="SourceGraphic"/></feMerge></filter><filter x="-15.0%" y="-11.5%" width="129.9%" height="123.1%" id="B"><feOffset dy="8" in="SourceAlpha"/><feGaussianBlur stdDeviation="8"/><feColorMatrix values="0 0 0 0 0 0 0 0 0 0.160784314 0 0 0 0 0.349019608 0 0 0 0.1 0" result="C"/><feMerge><feMergeNode in="C"/><feMergeNode in="SourceGraphic"/></feMerge></filter><path id="C" d="M215 273h76v76h-76z"/><filter x="-8.6%" y="-7.2%" width="117.1%" height="117.1%" id="D"><feOffset dy="1" in="SourceAlpha"/><feGaussianBlur stdDeviation="2"/><feColorMatrix values="0 0 0 0 0 0 0 0 0 0.160784314 0 0 0 0 0.349019608 0 0 0 0.1 0"/></filter><filter x="-40.6%" y="-38.2%" width="181.2%" height="176.5%" id="E"><feOffset dy="1" in="SourceAlpha"/><feGaussianBlur stdDeviation="1"/><feColorMatrix values="0 0 0 0 0 0 0 0 0 0 0 0 0 0 0 0 0 0 0.3 0" result="C"/><feMerge><feMergeNode in="C"/><feMergeNode in="SourceGraphic"/></feMerge></filter><path id="F" d="M76.273 292.898l-7.53 4.61-6.247-9.562c-.068-.104-.18-.152-.266-.236l1.733-1.77a.93.93 0 0 0 0-1.296l-2.327-2.375a.89.89 0 0 0-1.273 0l-2.327 2.375a.93.93 0 0 0 0 1.296l1.733 1.77c-.087.083-.198.132-.266.236l-6.248 9.562-7.528-4.61c-.624-.382-1.414-.343-2 .1a1.86 1.86 0 0 0-.674 1.92l3.6 14.69c.2.816.922 1.39 1.748 1.39h25.2c.826 0 1.547-.575 1.747-1.39l3.6-14.69c.177-.72-.1-1.477-.674-1.92a1.77 1.77 0 0 0-1.999-.099z"/></defs><g transform="translate(35 35)" fill="none" fill-rule="evenodd"><g filter="url(#A)" transform="translate(186 53)"><path fill="#fff" d="M0 0h314v402H0z" class="K"/><g transform="translate(19 20)"><g transform="translate(22.118)" fill="#000" class="J"><path d="M5.7 8.977v-1.55H2.114V.96H.292v8.017H5.7zm3.785.162c.46 0 .874-.077 1.244-.23s.687-.372.952-.654.467-.62.607-1.018.2-.835.2-1.313-.074-.914-.222-1.307-.354-.73-.62-1.006-.582-.494-.952-.648-.777-.23-1.22-.23a3.11 3.11 0 0 0-1.209.231c-.37.154-.69.37-.958.648a2.96 2.96 0 0 0-.631 1.006c-.152.393-.228.83-.228 1.307s.074.916.222 1.313.354.737.62 1.018.582.5.952.654.78.23 1.232.23zm0-1.48c-.397 0-.705-.156-.923-.47s-.327-.735-.327-1.267.11-.95.327-1.255.526-.457.923-.457.703.152.917.457.32.723.32 1.255-.107.954-.32 1.267-.52.47-.917.47zm7.09 1.48c.46 0 .874-.077 1.244-.23s.687-.372.952-.654.467-.62.607-1.018.2-.835.2-1.313-.074-.914-.222-1.307-.354-.73-.62-1.006-.582-.494-.952-.648-.777-.23-1.22-.23a3.11 3.11 0 0 0-1.209.231c-.37.154-.69.37-.958.648a2.96 2.96 0 0 0-.631 1.006c-.152.393-.228.83-.228 1.307s.074.916.222 1.313.354.737.62 1.018.582.5.952.654.78.23 1.232.23zm0-1.48c-.397 0-.705-.156-.923-.47s-.327-.735-.327-1.267.11-.95.327-1.255.526-.457.923-.457.703.152.917.457.32.723.32 1.255-.107.954-.32 1.267-.52.47-.917.47zm6.098 1.32v-2.66a4.71 4.71 0 0 1 .59.567l.567.7.508.73.426.665h1.998l-.49-.844-.642-.925-.724-.897a7.96 7.96 0 0 0-.724-.746l1.29-1.325 1.21-1.348h-2.068l-.39.463-.485.56-.532.596-.532.578V0l-1.74.278v8.7h1.74zm5.888-6.825a1.07 1.07 0 0 0 .73-.272c.206-.18.3-.43.3-.746s-.103-.565-.3-.746a1.07 1.07 0 0 0-.73-.272 1.07 1.07 0 0 0-.73.272c-.206.18-.3.43-.3.746s.103.565.3.746a1.07 1.07 0 0 0 .73.272zm.876 6.825V2.892h-1.74v6.085h1.74zm3.376 0V4.28l.374-.04.397-.017c.405 0 .68.116.83.347s.222.625.222 1.18h0v3.227h1.74V5.54c0-.416-.043-.794-.128-1.134s-.23-.632-.432-.88-.477-.438-.824-.573-.78-.202-1.303-.202c-.514 0-1.005.037-1.472.1l-1.145.237v5.877h1.74zm7.313 2.175c1.067 0 1.855-.24 2.366-.723s.765-1.22.765-2.215h0V3.1l-.532-.133-.625-.1-.66-.075-.648-.03c-.49 0-.93.07-1.32.214s-.718.345-.987.607-.473.576-.613.943a3.39 3.39 0 0 0-.21 1.22c0 .895.226 1.59.678 2.088s1.102.746 1.95.746c.234 0 .45-.02.648-.064a2.82 2.82 0 0 0 .578-.191h0v.22c0 .34-.103.617-.3.833s-.56.324-1.057.324a5.1 5.1 0 0 1-1.022-.093 5.14 5.14 0 0 1-.859-.254h0l-.304 1.446c.32.108.666.195 1.04.26a6.48 6.48 0 0 0 1.121.098zm.49-3.968c-.787 0-1.18-.482-1.18-1.446 0-.463.113-.844.34-1.145s.57-.45 1.028-.45l.41.017.304.04v2.753a1.92 1.92 0 0 1-.397.162c-.156.046-.323.07-.502.07zM1.04 11.354a1.07 1.07 0 0 0 .73-.272c.206-.18.3-.43.3-.746s-.103-.565-.3-.746a1.07 1.07 0 0 0-.73-.272 1.07 1.07 0 0 0-.73.272c-.206.18-.3.43-.3.746s.103.565.3.746a1.07 1.07 0 0 0 .73.272zm.876 6.825v-6.085H.175v6.085h1.74zm3.376 0v-4.697l.374-.04.397-.017c.405 0 .68.116.83.347s.222.625.222 1.18h0v3.227h1.74v-3.436c0-.416-.043-.794-.128-1.134s-.23-.632-.432-.88-.477-.438-.824-.573-.78-.202-1.303-.202c-.514 0-1.005.037-1.472.1l-1.145.237v5.877h1.74zm7.51.14c.374 0 .69-.03.946-.093s.49-.135.7-.22h0l-.245-1.342c-.164.062-.345.1-.543.145s-.39.052-.578.052c-.39 0-.648-.108-.777-.324s-.193-.505-.193-.868h0v-2.14h2.09v-1.434h-2.09V10.3l-1.74.278v5.113c0 .393.037.752.11 1.076s.204.6.39.827a1.85 1.85 0 0 0 .748.532c.312.127.705.19 1.18.19zm5.315.023c.46 0 .874-.077 1.244-.23s.687-.372.952-.654.467-.62.607-1.018.2-.835.2-1.313-.074-.914-.222-1.307-.354-.73-.62-1.006-.582-.494-.952-.648-.777-.23-1.22-.23a3.11 3.11 0 0 0-1.209.231c-.37.154-.69.37-.958.648a2.96 2.96 0 0 0-.631 1.006c-.152.393-.228.83-.228 1.307s.074.916.222 1.313.354.737.62 1.018.582.5.952.654.78.23 1.232.23zm0-1.48c-.397 0-.705-.156-.923-.47s-.327-.735-.327-1.267.11-.95.327-1.255.526-.457.923-.457.703.152.917.457.32.723.32 1.255-.107.954-.32 1.267-.52.47-.917.47zm9.532 1.458c.374 0 .69-.03.946-.093s.49-.135.7-.22h0l-.245-1.342c-.164.062-.345.1-.543.145s-.39.052-.578.052c-.39 0-.648-.108-.777-.324s-.193-.505-.193-.868h0v-2.14h2.09v-1.434h-2.09V10.3l-1.74.278v5.113c0 .393.037.752.11 1.076s.204.6.39.827a1.85 1.85 0 0 0 .748.532c.312.127.705.19 1.18.19zm4.556-.14V13.55l.368-.087c.136-.027.282-.04.438-.04.39 0 .656.116.8.347s.216.625.216 1.18h0v3.227h1.74v-3.436c0-.416-.04-.794-.123-1.134s-.222-.632-.42-.88a1.93 1.93 0 0 0-.794-.573c-.33-.135-.746-.202-1.244-.202a2.85 2.85 0 0 0-.532.052c-.183.035-.333.07-.45.1h0V9.202l-1.74.278v8.7h1.74zm8.095.162c.218 0 .436-.012.654-.035l.613-.087a4.93 4.93 0 0 0 .52-.121 2.42 2.42 0 0 0 .374-.139h0l-.234-1.4c-.195.085-.446.156-.753.214a5.08 5.08 0 0 1-.94.087c-.498 0-.896-.104-1.192-.312s-.463-.5-.502-.844H42.8l.023-.318.012-.33c0-1.026-.253-1.803-.76-2.33s-1.195-.792-2.068-.792a2.97 2.97 0 0 0-1.092.208 2.75 2.75 0 0 0-.94.613c-.273.27-.493.607-.66 1.012s-.25.877-.25 1.417c0 .447.064.864.193 1.25s.327.72.596 1 .607.503 1.016.665.9.243 1.443.243zm.84-3.817h-2.3a2.45 2.45 0 0 1 .111-.434 1.16 1.16 0 0 1 .216-.376c.093-.108.2-.195.35-.26s.308-.098.502-.098c.202 0 .372.035.508.104s.25.158.34.266.156.23.2.37.068.28.076.428h0zM2.114 27.38v-3.308h3.2v-1.515h-3.2V20.88h3.598v-1.515H.292v8.017h1.822zm7.16.14c.514 0 1.005-.037 1.472-.1l1.145-.237v-5.877h-1.74v4.697l-.374.04-.397.017c-.405 0-.68-.123-.83-.37s-.222-.648-.222-1.203h0v-3.18h-1.74v3.39c0 .416.043.798.128 1.145a2.27 2.27 0 0 0 .432.897c.202.25.477.445.824.584s.78.208 1.303.208zm6.624 0c.374 0 .69-.03.946-.093s.49-.135.7-.22h0l-.245-1.342c-.164.062-.345.1-.543.145s-.39.052-.578.052c-.39 0-.648-.108-.777-.324s-.193-.505-.193-.868h0v-2.14h2.09v-1.434H15.2v-1.793l-1.74.278v5.113c0 .393.037.752.11 1.076s.204.6.39.827a1.85 1.85 0 0 0 .748.532c.312.127.705.19 1.18.19zm5.444 0c.514 0 1.005-.037 1.472-.1l1.145-.237v-5.877h-1.74v4.697l-.374.04-.397.017c-.405 0-.68-.123-.83-.37s-.222-.648-.222-1.203h0v-3.18h-1.74v3.39c0 .416.043.798.128 1.145a2.27 2.27 0 0 0 .432.897c.202.25.477.445.824.584s.78.208 1.303.208zm5.993-.14v-4.65c.078-.023.193-.044.345-.064s.282-.03.39-.03c.24 0 .467.02.678.064l.55.12.292-1.423c-.093-.04-.206-.07-.34-.098l-.397-.07-.397-.046-.34-.017a6.42 6.42 0 0 0-1.419.145l-1.104.307v5.76h1.74zm6.028.162c.218 0 .436-.012.654-.035l.613-.087a4.93 4.93 0 0 0 .52-.121 2.42 2.42 0 0 0 .374-.139h0l-.234-1.4c-.195.085-.446.156-.753.214a5.08 5.08 0 0 1-.94.087c-.498 0-.896-.104-1.192-.312s-.463-.5-.502-.844h3.948l.023-.318.012-.33c0-1.026-.253-1.803-.76-2.33s-1.195-.792-2.068-.792a2.97 2.97 0 0 0-1.092.208 2.75 2.75 0 0 0-.94.613c-.273.27-.493.607-.66 1.012s-.25.877-.25 1.417c0 .447.064.864.193 1.25s.327.72.596 1 .607.503 1.016.665.9.243 1.443.243zm.84-3.817h-2.3a2.45 2.45 0 0 1 .111-.434 1.16 1.16 0 0 1 .216-.376c.093-.108.2-.195.35-.26s.308-.098.502-.098c.202 0 .372.035.508.104s.25.158.34.266.156.23.2.37.068.28.076.428h0z"/></g><path d="M9.422 27.627v-9.145H0v.11c.084 4.954 4.205 8.955 9.31 9.036h.112z" fill="#005b11"/><path d="M9.507 9.145l-.114.001V0h9.422v.11c-.084 4.953-4.205 8.954-9.308 9.036h0z" fill="#00173a"/><path d="M9.31 9.337l.114-.001v9.145H0v-.11C.085 13.42 4.205 9.42 9.31 9.337h0z" fill="#ff0034"/><ellipse fill="#ff7800" transform="matrix(1 0 0 -1 0 46.109308)" cx="13.941" cy="23.055" rx="4.519" ry="4.573"/><g class="M"><path d="M9.504.001L9.617 0v9.655H0C0 4.376 4.24.086 9.504.001h0z"/><path d="M130.868 26.698V.602h-5.85v26.095h5.85zm11.777 0V9.602c2.2 2.586 4.276 5.334 6.226 8.246s3.763 5.862 5.438 8.85h4.913V.602h-5.813v15.4l-2.888-4.236a133.39 133.39 0 0 0-3.094-4.255c-1.038-1.368-2.057-2.655-3.057-3.86s-1.913-2.222-2.738-3.05h0-4.763v26.095h5.776zm35.93 0a196.63 196.63 0 0 0 3.038-6.816l2.85-7.004 2.475-6.627 1.988-5.648H182.7l-1.63 4.876-1.8 5.215-1.8 4.97-1.594 4.104c-.5-1.155-1.038-2.523-1.613-4.104l-1.78-4.97-1.8-5.215-1.63-4.876h-6.45l1.97 5.648 2.494 6.627a258.57 258.57 0 0 0 2.85 7.004 196.63 196.63 0 0 0 3.038 6.816h5.626zm24.603.527c1.825 0 3.532-.29 5.12-.866s2.957-1.437 4.107-2.58 2.057-2.56 2.72-4.255.994-3.66.994-5.893-.338-4.2-1.013-5.893-1.6-3.12-2.775-4.274-2.55-2.02-4.126-2.598S204.954 0 203.178 0c-1.725 0-3.37.29-4.932.866a11.64 11.64 0 0 0-4.126 2.598c-1.188 1.155-2.132 2.58-2.832 4.274s-1.05 3.66-1.05 5.893.338 4.2 1.013 5.893 1.6 3.113 2.775 4.255 2.55 2.002 4.126 2.58 3.25.866 5.026.866zm0-5.16c-1.1 0-2.075-.2-2.925-.602a5.98 5.98 0 0 1-2.157-1.713c-.588-.74-1.038-1.625-1.35-2.655s-.47-2.184-.47-3.464c0-1.255.156-2.404.47-3.445s.763-1.933 1.35-2.674 1.306-1.318 2.157-1.732 1.825-.62 2.925-.62c1.075 0 2.044.2 2.907.602a5.94 5.94 0 0 1 2.175 1.713c.588.74 1.038 1.632 1.35 2.674s.47 2.203.47 3.483-.156 2.435-.47 3.464-.763 1.914-1.35 2.655a5.94 5.94 0 0 1-2.175 1.713c-.863.402-1.832.602-2.907.602zm23.666 4.632V.602h-5.85v26.095h5.85zm17.852.527c1.975 0 3.713-.2 5.213-.602s2.663-.854 3.488-1.356h0l-1.613-4.707-1.088.5c-.4.176-.863.333-1.388.47s-1.125.257-1.8.358-1.438.15-2.288.15c-1.35 0-2.5-.22-3.45-.66s-1.72-1.036-2.307-1.79-1.013-1.65-1.275-2.692-.394-2.165-.394-3.37c0-1.506.2-2.786.6-3.84s.93-1.914 1.594-2.58 1.425-1.148 2.288-1.45 1.744-.452 2.644-.452c1.35 0 2.557.15 3.62.452s1.994.665 2.794 1.092h0l1.688-4.745c-.2-.126-.525-.3-.975-.527s-1.013-.446-1.688-.66-1.463-.402-2.363-.565-1.9-.245-3-.245c-1.9 0-3.663.3-5.288.904s-3.025 1.487-4.2 2.655-2.1 2.598-2.775 4.293-1.013 3.62-1.013 5.78c0 4.343 1.106 7.694 3.32 10.054s5.432 3.54 9.658 3.54zm30.867-.527v-4.933H263v-6.288h10.39v-4.82H263v-5.12H274.7V.602h-17.552v26.095h18.415z" class="J"/></g></g><rect x="21" y="91" width="55" height="6" rx="3" class="M"/><g class="L"><rect x="20" y="124" width="54" height="7" rx="3.5"/><rect x="95" y="114" width="54" height="6" rx="3"/><rect x="84" y="225" width="124" height="6" rx="3"/><rect x="192" y="278" width="48" height="6" rx="3"/></g><rect x="265" y="225" width="15" height="6" rx="3" class="N"/><g class="L"><rect x="84" y="234" width="70" height="6" rx="3"/><rect x="192" y="287" width="48" height="6" rx="3"/><rect x="95" y="124" width="54" height="7" rx="3.5"/></g><rect fill="#00c15a" x="201" y="376" width="42" height="15" rx="6.318"/><rect fill="#ffa300" x="247" y="376" width="42" height="15" rx="6.318"/><rect fill="#001d71" x="21" y="81" width="64" height="7" rx="3.5"/><g class="L"><rect x="21" y="114" width="63" height="6" rx="3"/><rect x="95" y="91" width="63" height="6" rx="3"/><rect x="84" y="173" width="85" height="6" rx="3"/><rect x="84" y="206" width="50" height="6" rx="3"/></g><g transform="translate(21 164)" class="M"><path d="M11.22 6.37l-1.07 1.097-3.153-3.23 1.07-1.097a.7.7 0 0 1 1.01 0l2.143 2.194c.28.286.28.748 0 1.034h0zm-5 5.12c-.14.143-.322.214-.505.214s-.366-.072-.505-.214L3.066 9.294c-.28-.286-.28-.748 0-1.034L6.28 4.97l3.153 3.23-3.214 3.29zm7.857-7.314c.28-.286.28-.748 0-1.034L11.22.214a.7.7 0 0 0-1.01 0c-.41.418-1.44.418-1.847 0a.7.7 0 0 0-1.01 0L.21 7.53c-.28.286-.28.748 0 1.034.43.442.43 1.45 0 1.89-.28.286-.28.748 0 1.034l2.857 2.926a.7.7 0 0 0 1.01 0c.41-.418 1.44-.418 1.847 0 .14.143.322.214.505.214s.366-.072.505-.214L14.076 7.1c.28-.286.28-.748 0-1.034-.43-.442-.43-1.45 0-1.89h0z"/><path d="M11.22 39.01l-1.07 1.097-3.153-3.23 1.07-1.097a.7.7 0 0 1 1.01 0l2.143 2.194c.28.286.28.748 0 1.034h0zm-5 5.12c-.14.143-.322.214-.505.214s-.366-.072-.505-.214l-2.143-2.194c-.28-.286-.28-.748 0-1.034l3.214-3.29 3.153 3.23-3.214 3.29zm7.857-7.314c.28-.286.28-.748 0-1.034l-2.857-2.926a.7.7 0 0 0-1.01 0c-.41.418-1.44.418-1.847 0a.7.7 0 0 0-1.01 0L.21 40.17c-.28.286-.28.748 0 1.034.43.442.43 1.45 0 1.89-.28.286-.28.748 0 1.034l2.857 2.926a.7.7 0 0 0 1.01 0c.41-.418 1.44-.418 1.847 0 .14.143.322.214.505.214s.366-.072.505-.214l7.143-7.314c.28-.286.28-.748 0-1.034-.43-.442-.43-1.45 0-1.89h0z"/></g><rect x="265" y="287" width="15" height="6" rx="3" class="N"/><rect fill="#ff0034" x="265" y="297" width="24" height="8" rx="4"/><g class="L"><rect x="95" y="81" width="63" height="6" rx="3"/><rect x="84" y="164" width="112" height="6" rx="3"/><rect x="84" y="197" width="93" height="6" rx="3"/></g><g class="N"><rect x="265" y="164" width="18" height="6" rx="3"/><rect x="265" y="197" width="18" height="6" rx="3"/><rect x="265" y="278" width="18" height="6" rx="3"/></g><g stroke-width="1.053" class="B K O"><path d="M21 66.5h273"/><path d="M21 147.5h273"/><path d="M21 262.5h273"/><path d="M21 320.5h273"/></g></g><g filter="url(#B)"><path stroke-width=".64" fill="#fff" d="M0 0h314v407H0z" class="K"/><use fill="#000" filter="url(#D)" xlink:href="#C"/><use fill="#fff" xlink:href="#C"/><use xlink:href="#F" fill="#837764"/><g fill="#c2c2c2" class="J"><path d="M56.58 335v-2.4c1.218-.18 2.093-.576 2.624-1.19s.797-1.345.797-2.2c0-.563-.1-1.05-.3-1.46a3.32 3.32 0 0 0-.826-1.066c-.35-.3-.76-.563-1.234-.788l-1.506-.644-1.01-.375c-.298-.122-.55-.25-.758-.384s-.363-.288-.467-.46-.156-.387-.156-.644c0-.435.175-.778.525-1.028s.875-.375 1.575-.375c.66 0 1.247.064 1.76.192l1.332.403.486-1.902c-.285-.115-.674-.234-1.166-.355a10.65 10.65 0 0 0-1.672-.259h0V318h-2.022v2.15c-1.102.18-1.918.58-2.45 1.2s-.797 1.373-.797 2.257c0 .538.097.992.292 1.364s.45.688.768.95a4.74 4.74 0 0 0 1.069.663l1.195.48 1.176.442a5.35 5.35 0 0 1 .923.461c.26.166.46.36.603.576a1.37 1.37 0 0 1 .214.768 1.25 1.25 0 0 1-.515 1.047c-.343.263-.962.394-1.856.394-.752 0-1.422-.083-2.012-.25s-1.092-.352-1.506-.557h0l-.66 1.825c.285.154.716.323 1.293.51s1.332.31 2.265.375h0V335h2.022zm10 0v-2.4c1.218-.18 2.093-.576 2.624-1.19s.797-1.345.797-2.2c0-.563-.1-1.05-.3-1.46a3.32 3.32 0 0 0-.826-1.066c-.35-.3-.76-.563-1.234-.788l-1.506-.644-1.01-.375c-.298-.122-.55-.25-.758-.384s-.363-.288-.467-.46-.156-.387-.156-.644c0-.435.175-.778.525-1.028s.875-.375 1.575-.375c.66 0 1.247.064 1.76.192l1.332.403.486-1.902c-.285-.115-.674-.234-1.166-.355a10.65 10.65 0 0 0-1.672-.259h0V318h-2.022v2.15c-1.102.18-1.918.58-2.45 1.2s-.797 1.373-.797 2.257c0 .538.097.992.292 1.364s.45.688.768.95a4.74 4.74 0 0 0 1.069.663l1.195.48 1.176.442a5.35 5.35 0 0 1 .923.461c.26.166.46.36.603.576a1.37 1.37 0 0 1 .214.768 1.25 1.25 0 0 1-.515 1.047c-.343.263-.962.394-1.856.394-.752 0-1.422-.083-2.012-.25s-1.092-.352-1.506-.557h0l-.66 1.825c.285.154.716.323 1.293.51s1.332.31 2.265.375h0V335h2.022z"/><path d="M147.58 335v-2.4c1.218-.18 2.093-.576 2.624-1.19s.797-1.345.797-2.2c0-.563-.1-1.05-.3-1.46a3.32 3.32 0 0 0-.826-1.066c-.35-.3-.76-.563-1.234-.788l-1.506-.644-1.01-.375c-.298-.122-.55-.25-.758-.384s-.363-.288-.467-.46-.156-.387-.156-.644c0-.435.175-.778.525-1.028s.875-.375 1.575-.375c.66 0 1.247.064 1.76.192l1.332.403.486-1.902c-.285-.115-.674-.234-1.166-.355a10.65 10.65 0 0 0-1.672-.259h0V318h-2.022v2.15c-1.102.18-1.918.58-2.45 1.2s-.797 1.373-.797 2.257c0 .538.097.992.292 1.364s.45.688.768.95a4.74 4.74 0 0 0 1.069.663l1.195.48 1.176.442c.356.14.664.295.923.46s.46.36.603.576a1.37 1.37 0 0 1 .214.768 1.25 1.25 0 0 1-.515 1.047c-.343.263-.962.394-1.856.394-.752 0-1.422-.083-2.012-.25s-1.092-.352-1.506-.557h0l-.66 1.825c.285.154.716.323 1.293.51s1.332.31 2.265.375h0V335h2.022zm10 0v-2.4c1.218-.18 2.093-.576 2.624-1.19s.797-1.345.797-2.2c0-.563-.1-1.05-.3-1.46a3.32 3.32 0 0 0-.826-1.066c-.35-.3-.76-.563-1.234-.788l-1.506-.644-1.01-.375c-.298-.122-.55-.25-.758-.384s-.363-.288-.467-.46-.156-.387-.156-.644c0-.435.175-.778.525-1.028s.875-.375 1.575-.375c.66 0 1.247.064 1.76.192l1.332.403.486-1.902c-.285-.115-.674-.234-1.166-.355a10.65 10.65 0 0 0-1.672-.259h0V318h-2.022v2.15c-1.102.18-1.918.58-2.45 1.2s-.797 1.373-.797 2.257c0 .538.097.992.292 1.364s.45.688.768.95a4.74 4.74 0 0 0 1.069.663l1.195.48 1.176.442c.356.14.664.295.923.46s.46.36.603.576a1.37 1.37 0 0 1 .214.768 1.25 1.25 0 0 1-.515 1.047c-.343.263-.962.394-1.856.394-.752 0-1.422-.083-2.012-.25s-1.092-.352-1.506-.557h0l-.66 1.825c.285.154.716.323 1.293.51s1.332.31 2.265.375h0V335h2.022zm10 0v-2.4c1.218-.18 2.093-.576 2.624-1.19s.797-1.345.797-2.2c0-.563-.1-1.05-.3-1.46a3.32 3.32 0 0 0-.826-1.066c-.35-.3-.76-.563-1.234-.788l-1.506-.644-1.01-.375c-.298-.122-.55-.25-.758-.384s-.363-.288-.467-.46-.156-.387-.156-.644c0-.435.175-.778.525-1.028s.875-.375 1.575-.375c.66 0 1.247.064 1.76.192l1.332.403.486-1.902c-.285-.115-.674-.234-1.166-.355a10.65 10.65 0 0 0-1.672-.259h0V318h-2.022v2.15c-1.102.18-1.918.58-2.45 1.2s-.797 1.373-.797 2.257c0 .538.097.992.292 1.364s.45.688.768.95a4.74 4.74 0 0 0 1.069.663l1.195.48 1.176.442c.356.14.664.295.923.46s.46.36.603.576a1.37 1.37 0 0 1 .214.768 1.25 1.25 0 0 1-.515 1.047c-.343.263-.962.394-1.856.394-.752 0-1.422-.083-2.012-.25s-1.092-.352-1.506-.557h0l-.66 1.825c.285.154.716.323 1.293.51s1.332.31 2.265.375h0V335h2.022z"/><path d="M238.58 335v-2.4c1.218-.18 2.093-.576 2.624-1.19s.797-1.345.797-2.2c0-.563-.1-1.05-.3-1.46a3.32 3.32 0 0 0-.826-1.066c-.35-.3-.76-.563-1.234-.788l-1.506-.644-1.01-.375c-.298-.122-.55-.25-.758-.384s-.363-.288-.467-.46-.156-.387-.156-.644c0-.435.175-.778.525-1.028s.875-.375 1.575-.375c.66 0 1.247.064 1.76.192l1.332.403.486-1.902c-.285-.115-.674-.234-1.166-.355a10.65 10.65 0 0 0-1.672-.259h0V318h-2.022v2.15c-1.102.18-1.918.58-2.45 1.2s-.797 1.373-.797 2.257c0 .538.097.992.292 1.364s.45.688.768.95a4.74 4.74 0 0 0 1.069.663l1.195.48 1.176.442c.356.14.664.295.923.46s.46.36.603.576a1.37 1.37 0 0 1 .214.768 1.25 1.25 0 0 1-.515 1.047c-.343.263-.962.394-1.856.394-.752 0-1.422-.083-2.012-.25s-1.092-.352-1.506-.557h0l-.66 1.825c.285.154.716.323 1.293.51s1.332.31 2.265.375h0V335h2.022zm10 0v-2.4c1.218-.18 2.093-.576 2.624-1.19s.797-1.345.797-2.2c0-.563-.1-1.05-.3-1.46a3.32 3.32 0 0 0-.826-1.066c-.35-.3-.76-.563-1.234-.788l-1.506-.644-1.01-.375c-.298-.122-.55-.25-.758-.384s-.363-.288-.467-.46-.156-.387-.156-.644c0-.435.175-.778.525-1.028s.875-.375 1.575-.375c.66 0 1.247.064 1.76.192l1.332.403.486-1.902c-.285-.115-.674-.234-1.166-.355a10.65 10.65 0 0 0-1.672-.259h0V318h-2.022v2.15c-1.102.18-1.918.58-2.45 1.2s-.797 1.373-.797 2.257c0 .538.097.992.292 1.364s.45.688.768.95a4.74 4.74 0 0 0 1.069.663l1.195.48 1.176.442c.356.14.664.295.923.46s.46.36.603.576a1.37 1.37 0 0 1 .214.768 1.25 1.25 0 0 1-.515 1.047c-.343.263-.962.394-1.856.394-.752 0-1.422-.083-2.012-.25s-1.092-.352-1.506-.557h0l-.66 1.825c.285.154.716.323 1.293.51s1.332.31 2.265.375h0V335h2.022zm10 0v-2.4c1.218-.18 2.093-.576 2.624-1.19s.797-1.345.797-2.2c0-.563-.1-1.05-.3-1.46a3.32 3.32 0 0 0-.826-1.066c-.35-.3-.76-.563-1.234-.788l-1.506-.644-1.01-.375c-.298-.122-.55-.25-.758-.384s-.363-.288-.467-.46-.156-.387-.156-.644c0-.435.175-.778.525-1.028s.875-.375 1.575-.375c.66 0 1.247.064 1.76.192l1.332.403.486-1.902c-.285-.115-.674-.234-1.166-.355a10.65 10.65 0 0 0-1.672-.259h0V318h-2.022v2.15c-1.102.18-1.918.58-2.45 1.2s-.797 1.373-.797 2.257c0 .538.097.992.292 1.364s.45.688.768.95a4.74 4.74 0 0 0 1.069.663l1.195.48 1.176.442c.356.14.664.295.923.46s.46.36.603.576a1.37 1.37 0 0 1 .214.768 1.25 1.25 0 0 1-.515 1.047c-.343.263-.962.394-1.856.394-.752 0-1.422-.083-2.012-.25s-1.092-.352-1.506-.557h0l-.66 1.825c.285.154.716.323 1.293.51s1.332.31 2.265.375h0V335h2.022zm10 0v-2.4c1.218-.18 2.093-.576 2.624-1.19s.797-1.345.797-2.2c0-.563-.1-1.05-.3-1.46a3.32 3.32 0 0 0-.826-1.066c-.35-.3-.76-.563-1.234-.788l-1.506-.644-1.01-.375c-.298-.122-.55-.25-.758-.384s-.363-.288-.467-.46-.156-.387-.156-.644c0-.435.175-.778.525-1.028s.875-.375 1.575-.375c.66 0 1.247.064 1.76.192l1.332.403.486-1.902c-.285-.115-.674-.234-1.166-.355a10.65 10.65 0 0 0-1.672-.259h0V318h-2.022v2.15c-1.102.18-1.918.58-2.45 1.2s-.797 1.373-.797 2.257c0 .538.097.992.292 1.364s.45.688.768.95a4.74 4.74 0 0 0 1.069.663l1.195.48 1.176.442c.356.14.664.295.923.46s.46.36.603.576a1.37 1.37 0 0 1 .214.768 1.25 1.25 0 0 1-.515 1.047c-.343.263-.962.394-1.856.394-.752 0-1.422-.083-2.012-.25s-1.092-.352-1.506-.557h0l-.66 1.825c.285.154.716.323 1.293.51s1.332.31 2.265.375h0V335h2.022z"/></g><use xlink:href="#F" x="96" fill="#bebebe"/><use xlink:href="#F" x="192" fill="#ffe156"/><g transform="translate(126.4 32.8)"><path d="M0 0h59.2v59.2H0z" class="C"/><g opacity="1" transform="translate(6.4 16.8)"><path d="M32.137 22.393c3.945 0 8.79-.248 14.537-.744l1.49-7.32h-6.46L42.2 3.66H6.417l-.22 5.916C2.066 8.426 0 8.967 0 11.2s1.85 3.566 5.547 3.998L6.8 20.904c12.953.992 21.402 1.49 25.347 1.49z" fill="#ff9d00"/><g fill="#212121"><path d="M27.047 3.527c-.178 3.115 2.59 3.908 3.36 1.04.586-2.188-2.607-2.395-3.613-1.04"/><path d="M37.476 3.03c.054.663.014 1.34.162 1.99.643 2.813 4.155.084 2.293-2.266"/></g><path d="M43.096 0c.766 0-.14 6.836-.62 8.207-.6 1.74-2.05 1.365-3.603 1.365-.496 0-.92-.016-1.295-.06-.644-.784-1.482-1.66-2.39-2.45l-.693-.576.172 1.008-.22-.35c-.942 2.376-2.838 3.05-5.14 3.05-5.32 0-7.444-4.053-6.592-10.192h20.384zM32.525 2.77h-7.188l-.002.035c-.09 1.474.076 2.618.47 3.437l.237.414c.627.925 1.742 1.407 3.51 1.407 1.204 0 2.032-.774 2.56-2.672l.142-.573.102-.584c.034-.228.067-.5.1-.785l.068-.68zm8.538 0h-5.324c.756 3.1 1.754 4.446 3.607 4.647l.52.027c.075 0 .114-.016.185-.083.15-.142.313-.422.463-.85.245-.698.416-1.68.504-2.93l.044-.8z" fill="#ff0025" class="J"/><g stroke="#212121" class="B D E"><path d="M35.32 7.976c2.5 1.973 4.715 4.846 4.335 5.32-.497.62-2.294.748-2.733.496-.353-.202-.193.072-.193 2.385"/><path d="M29.863 14.237c2.926 2.17 6.174 2.446 9.38 1.787"/></g><g stroke="#001d75" class="B D E"><path d="M32.996 19.808c.627 2.506 2.106 4.085 3.672 6.183"/><path d="M35.555 19.535c1.71 5.413 1.33 3.104 1.72 6.806"/><path d="M37.684 19.925c.51 5.263.45 3.074.45 6.553"/><path d="M39.95 19.925l-1.172 7.197"/><path d="M41.533 20.12c-.14 2.55-.814 4.585-2.1 6.787"/><path d="M43.27 19.866c-.233 2.488-.943 4.885-2.618 6.826"/><path d="M44.228 22.538c-2.07 2.772-2.32 3.62-5.41 4.35"/></g><path d="M30.072 13.33c-.187.503-.56 1-1.18 1.028" stroke="#212121" class="B D E"/></g></g><g transform="translate(12.8 187.68)"><rect y="10.24" width="138.4" height="13.44" rx="1.28" class="B C F G H"/><rect y=".64" width="51.2" height="7.04" rx="3.52" class="I"/></g><g transform="translate(12.8 99.2)"><rect y="10.24" width="138.4" height="13.44" rx="1.28" class="B C F G H"/><rect y=".64" width="51.2" height="7.04" rx="3.52" class="I"/><rect x="4" y="12.8" width="60" height="7.04" rx="3.52" class="C"/><g transform="translate(146.08)"><rect x=".8" y="10.4" width="139.2" height="13.44" rx="1.28" class="B C F G H"/><rect x=".32" y=".64" width="51.2" height="7.04" rx="3.52" class="I"/><rect x="4.12" y="12.8" width="60" height="7.04" rx="3.52" class="C"/></g></g><g transform="translate(12.8 132.64)"><rect y="10.24" width="78.4" height="13.44" rx="1.28" class="B C F G H"/><rect y=".64" width="51.2" height="7.04" rx="3.52" class="I"/><g class="C"><rect x="4" y="12.8" width="60" height="7.04" rx="3.52"/><rect x="4" y="68.36" width="60" height="7.04" rx="3.52"/></g></g><g transform="translate(96 132.64)"><rect y="10.24" width="78.4" height="13.44" rx="1.28" class="B C F G H"/><rect y=".64" width="51.2" height="7.04" rx="3.52" class="I"/><rect x="3" y="12.8" width="60" height="7.04" rx="3.52" class="C"/></g><g transform="translate(177.6 143.04)"><rect x="55.2" width="66.4" height="13.44" rx="1.28" class="B C F G H"/><rect y="3.04" width="51.2" height="7.04" rx="3.52" class="I"/></g><g transform="translate(14.8 188.48)"><g class="C"><rect x="146" y="9.6" width="138.4" height="13.44" rx="1.28" class="B F G H"/><rect x="148.2" y="12.52" width="60" height="7.04" rx="3.52"/><rect x=".4" y="43.16" width="67" height="7.04" rx="3.52"/><rect x="148.2" y="42.52" width="74" height="7.04" rx="3.52"/></g><rect x="146" width="51.2" height="7.04" rx="3.52" class="I"/></g><g transform="translate(12.8 218.56)"><g class="B C G H F"><rect x="148" y="9.6" width="138.4" height="13.44" rx="1.28"/><rect x=".2" y="10.04" width="138.4" height="13.44" rx="1.28"/></g><g class="I"><rect x="148" width="51.2" height="7.04" rx="3.52"/><rect x=".2" y=".44" width="51.2" height="7.04" rx="3.52"/></g></g><g fill="#001c6c"><rect x="12.8" y="8.96" width="60.16" height="8.32" rx="4.044"/><rect x="12.8" y="169.76" width="60.16" height="8.32" rx="4.044"/><rect x="12.8" y="258" width="60.16" height="8.32" rx="4.044"/></g><path stroke-width=".674" d="M1.145 24.32l312.055.08" class="B K O"/><g transform="translate(124.2 300.4)"><rect fill="#00c15a" y="62.6" width="66" height="20" rx="4"/><path fill="#fff" d="M30.163 78.6L25.8 74.27l1.566-1.554 2.72 2.7 8.075-8.817 1.638 1.478z"/><g transform="translate(114.8 .6)" class="J"><g filter="url(#E)" transform="translate(3.159 2.106)"><path fill="#231d1e" d="M0 7.37h1.053V6.318H3.16V7.37h1.053V1.053h1.053V0H7.37v1.053h1.053v3.16h4.212v1.053h2.106v1.053h1.053v5.265h-1.053v2.106H13.69v3.16h-2.106v-1.053H10.53v1.053H5.265v-2.106H4.212V13.69H3.16v-1.053H2.106V10.53H1.053V9.477H0z"/><path fill="#fff" d="M1.053 7.37H3.16v1.053h1.053v1.053h1.053V1.053H7.37V7.37h1.053V5.265h2.106V7.37h1.053V5.265h1.053V7.37h1.053V6.318h1.053v5.265H13.69v2.106h-1.053v2.106h-1.053v-1.053H10.53v1.053H6.318v-1.053H5.265V13.69H4.212v-1.053H3.16V10.53H2.106V9.477H1.053z"/><g fill="#231d1e"><path d="M7.37 9.477h1.053v4.212H7.37z"/><path d="M9.477 9.477h1.053v4.212H9.477z"/><path d="M11.583 9.477h1.053v4.212h-1.053z"/></g></g></g></g></g></g></svg>