<svg xmlns="http://www.w3.org/2000/svg" xmlns:xlink="http://www.w3.org/1999/xlink" width="380" height="655" xmlns:v="https://vecta.io/nano"><style><![CDATA[.B{stroke-width:.5}.C{stroke-linecap:round}.D{stroke-linejoin:round}.E{fill:#fff}.F{fill:#0064ff}.G{mask:url(#h)}.H{fill-rule:nonzero}.I{stroke:#ffc200}.J{fill:#0d62fe}.K{fill:#cce4ff}.L{fill:#ff5fa7}.M{stroke:#212121}.N{fill:#00ffce}.O{fill:#212121}.P{fill:#ff0025}.Q{stroke-width:.675}]]></style><defs><filter x="-51.8%" y="-27.9%" width="203.6%" height="155.8%" id="A"><feOffset dy="24" in="SourceAlpha"/><feGaussianBlur stdDeviation="16"/><feColorMatrix values="0 0 0 0 0 0 0 0 0 0.160784314 0 0 0 0 0.349019608 0 0 0 0.1 0" result="C"/><feMerge><feMergeNode in="C"/><feMergeNode in="SourceGraphic"/></feMerge></filter><filter x="-22.5%" y="-12.1%" width="145.0%" height="124.2%" id="B"><feOffset dy="12" in="SourceAlpha"/><feGaussianBlur stdDeviation="12"/><feColorMatrix values="0 0 0 0 0 0 0 0 0 0.164542109 0 0 0 0 0.362271488 0 0 0 0.1 0" result="C"/><feMerge><feMergeNode in="C"/><feMergeNode in="SourceGraphic"/></feMerge></filter><path d="M24.927 0h230.1c13.244 0 23.985 10.73 24 23.973l.547 495.248c.015 13.255-10.72 24.012-23.973 24.026h-.027-230.1c-13.244 0-23.985-10.73-24-23.973L.927 24.027C.912 10.772 11.645.015 24.9 0h.027z" id="C"/><rect id="D" y="600.075" width="257.85" height="40.5" rx="2.43"/><filter x="-0.4%" y="-2.5%" width="100.8%" height="104.9%" id="E"><feGaussianBlur stdDeviation=".5" in="SourceAlpha"/><feOffset dy="1"/><feComposite in2="SourceAlpha" operator="arithmetic" k2="-1" k3="1"/><feColorMatrix values="0 0 0 0 0.880942166 0 0 0 0 0.881090164 0 0 0 0 0.880922616 0 0 0 0.5 0"/></filter><path d="M55.687 512.325H257.85V529.2H55.687a8.44 8.44 0 0 1-8.437-8.437 8.44 8.44 0 0 1 8.437-8.437z" id="F"/><path d="M97.875 531.9H257.85v17.55H97.875c-4.846 0-8.775-3.93-8.775-8.775s3.93-8.775 8.775-8.775z" id="G"/><path d="M227.812 491.4h21.6a8.44 8.44 0 0 1 8.437 8.438v8.438h-30.037a8.44 8.44 0 0 1-8.437-8.437 8.44 8.44 0 0 1 8.438-8.437z" id="H"/><path d="M125.212 552.15H257.85v8.438a8.44 8.44 0 0 1-8.437 8.438h-124.2a8.44 8.44 0 0 1-8.437-8.437 8.44 8.44 0 0 1 8.438-8.437z" id="I"/><path id="J" d="M-11-25.5h307v107H-11z"/><filter x="-9.1%" y="-18.7%" width="118.2%" height="152.3%" id="K"><feOffset dy="8" in="SourceAlpha"/><feGaussianBlur stdDeviation="8"/><feColorMatrix values="0 0 0 0 0 0 0 0 0 0.160784314 0 0 0 0 0.349019608 0 0 0 0.1 0"/></filter><filter x="-179.2%" y="-119.4%" width="458.3%" height="338.9%" id="L"><feOffset dy="4" in="SourceAlpha"/><feGaussianBlur stdDeviation="3.5"/><feColorMatrix values="0 0 0 0 0 0 0 0 0 0.164542109 0 0 0 0 0.362271488 0 0 0 0.1 0" result="C"/><feMerge><feMergeNode in="C"/><feMergeNode in="SourceGraphic"/></feMerge></filter><path d="M33.815 66h246.37C298.86 66 314 50.865 314 32.195V0H0v32.195C0 50.865 15.14 66 33.815 66z" id="M"/><filter x="-16.2%" y="-86.4%" width="132.5%" height="254.5%" id="N"><feOffset dy="-6" in="SourceAlpha"/><feGaussianBlur stdDeviation="16"/><feColorMatrix values="0 0 0 0 0 0 0 0 0 0.160784314 0 0 0 0 0.349019608 0 0 0 0.1 0"/></filter><path id="O" d="M19.575 0C8.764 0 0 8.764 0 19.575S8.764 39.15 19.575 39.15 39.15 30.386 39.15 19.575 30.386 0 19.575 0z"/><path id="P" d="M13.352 2.327C12.88 12.893 1.42 16.8 8.745 23.695c1.75 1.645-9.6 1.668-8.625 0C5.318 14.792-.116 12.893.002 3.277.016 2.143.176 1.08.46.103 6.164-.06 10.344.09 12.998.547c.21.036.33.63.354 1.78z"/><path id="Q" d="M20.93 1.45c-.628 2.737-1.822 5.543-2.053 8.355-.167 2.038-.075 4.09-.112 6.133"/><path id="R" d="M20.21 1.358c-1.408 3.555-1.954 6.754-2.087 10.596-.104 3.02-.405 2.282.195 3.53"/><path id="S" d="M18.315 3.53c-1.322 5.476-1.383 7.245-.457 12.858"/><path id="T" d="M17.773 17.024c-3.28-2.956-1.905-8.117-1.027-11.772"/><path id="U" d="M11.416 2.626c.2.988.145 1.65-.163 1.988C9.618 6.402 8.98 7.1 7.142 9.636c-.025.035-.018.126.025.127.204.002.432-.005.6-.12 1.18-.81 2.092-2.042 3.4-2.627 1.76-.787-2.412 1.932-1.402 2.462.413.217 7.623-.78 5.29-.312S9.262 10.28 9.552 10.66c1.212 1.588 1.518 2.315 1.212 3.737"/><path id="V" d="M7.037 4.528C5.978 7.352 4.56 14.234.39 15.03c-.053.01-.08-.072-.12-.108"/><path id="W" d="M6.406 2.626C5.447 7.396 4.03 11.61.1 14.398"/><path id="X" d="M5.864.815C4.64 5.257 4.02 10.087.27 13.13"/><path id="Y" d="M4.6.996C3.47 5.76 3.346 8.894 0 12.224"/><path id="Z" d="M5.758.04c-.51 0 .307 3.166.63 3.898.27.618 1.02.933 2.243.945 1.354.042 2.296-.268 2.825-.93l.08-.104c.63 1.267 1.895 1.626 3.43 1.626 3.552 0 4.97-2.16 4.4-5.433H5.758zm6.27 1.21l6.04-.085.002.022c.08 1.043-.1 1.82-.506 2.334l-.042.05c-.485.573-1.39.872-2.76.872-.937 0-2.03-.367-2.503-1.54l-.1-.332c-.053-.2-.05-.516-.078-.894l-.044-.426zm-5.315.102h4.383l-.007.647c-.036 1.455-.344 2.105-2.912 2.158l-.48.005c-.062 0-.094-.01-.152-.05-.123-.085-.257-.253-.38-.51-.2-.42-.342-1.01-.415-1.762l-.036-.487z"/><path id="a" d="M9.812 2.383c-.048.77.698.965.905.257.158-.54-.702-.592-.973-.257"/><path id="b" d="M2.245 25.958c.58.85 3.01.63 1.708-1.095s-2.287.243-1.708 1.095z"/><path id="c" d="M5.358 27.417c.595.822 2.77.298 1.43-1.367s-2.026.545-1.43 1.367z"/><path id="d" d="M9.516 27.906c.602.853 2.768.467 1.414-1.262s-2.016.41-1.414 1.262z"/><path id="e" d="M13.584 27.377c.612.84 2.696.402 1.806-1.08s-2.42.24-1.806 1.08z"/><path id="f" d="M16.814 26.377c.582.83 2.383.432 1.716-1.067s-2.297.237-1.716 1.067z"/><path id="g" d="M9.812 2.326c-.048.75.698.942.905.25.158-.528-.702-.578-.973-.25"/></defs><g filter="url(#A)" transform="translate(36 12)" fill="none" fill-rule="evenodd"><g filter="url(#B)"><path d="M36.037 0h234.9c19.37 0 35.08 15.692 35.1 35.063l.526 499.8c.02 19.385-15.678 35.117-35.063 35.137h-.037-234.9c-19.37 0-35.08-15.692-35.1-35.063l-.526-499.8C.917 15.752 16.615.02 36 0h.037z" fill="#292929"/><path d="M36.03 4.5h233.423c16.556 0 29.983 13.413 30 29.97l.515 501c.017 16.57-13.4 30.014-29.97 30.03h-.03H36.546c-16.556 0-29.983-13.413-30-29.97l-.515-501C6.014 17.962 19.43 4.517 36 4.5h.03z" fill="#000"/><g transform="translate(13.5 13.5)"><mask id="h" class="E"><use xlink:href="#C"/></mask><use fill="#fafafa" xlink:href="#C"/><g class="G"><g transform="translate(13 -168)"><use xlink:href="#D" class="E"/><use fill-opacity=".054" xlink:href="#D" class="F"/><use fill="#000" filter="url(#E)" xlink:href="#D"/><g transform="translate(216 603)"><rect width="33.75" height="34.425" rx="16.875" class="F"/><path d="M25.875 9.46L6.89 13.795c-.43.096-.754.447-.808.873s.173.84.57 1.035l5.39 2.656.55 5.33a1.03 1.03 0 0 0 .789.888 1.07 1.07 0 0 0 1.131-.416L14.68 24l-1.1-4.067c-.046-.53.224-1.038.697-1.3l4.685-2.69-3.744 3.51c-.266.25-.377.617-.294.965l1.707 7.155c.1.418.46.732.9.784s.866-.17 1.067-.553l8.918-16.897c.043-.063.077-.13.105-.2.093-.237.035-.598-.07-.847-.132-.307-.692-.436-1.682-.386z" class="E"/></g><g stroke="#f4f2ee" fill="#42be65" class="Q"><path d="M63.45 443.475h160.987a8.44 8.44 0 0 1 8.438 8.438 8.44 8.44 0 0 1-8.437 8.438H46.575c0-9.32 7.555-16.875 16.875-16.875z"/><path d="M63.45 304.425h78.637a8.44 8.44 0 0 1 8.438 8.438 8.44 8.44 0 0 1-8.437 8.437H46.575c0-9.32 7.555-16.875 16.875-16.875z"/></g><use xlink:href="#F" class="E"/><use xlink:href="#F" class="J"/><rect x="47.25" y="392.85" width="210.6" height="16.875" rx="8.437" class="F"/><g stroke="#f4f2ee" fill="#42be65" class="Q"><path d="M46.575 464.4h112.387a8.44 8.44 0 0 1 8.438 8.437 8.44 8.44 0 0 1-8.437 8.438H63.45c-9.32 0-16.875-7.555-16.875-16.875h0z"/><path d="M46.575 324H116.1c4.846 0 8.775 3.93 8.775 8.775s-3.93 8.775-8.775 8.775H46.575V324z"/><path d="M46.575 344.925h202.162a8.44 8.44 0 0 1 8.437 8.438 8.44 8.44 0 0 1-8.437 8.437H46.575v-16.875z"/><path d="M46.575 364.5H148.5c4.846 0 8.775 3.93 8.775 8.775s-3.93 8.775-8.775 8.775H64.125c-9.693 0-17.55-7.857-17.55-17.55h0z"/></g><use xlink:href="#G" class="E"/><use xlink:href="#G" class="J"/><use xlink:href="#H" class="E"/><use xlink:href="#H" class="J"/><use xlink:href="#I" class="E"/><use xlink:href="#I" class="J"/><g transform="translate(0 443.475)"><use xlink:href="#O" class="H K"/><g transform="translate(9.45 4.725)"><g transform="translate(6.045 .362)" class="L"><use xlink:href="#P"/></g><g class="B C D I"><use xlink:href="#Q"/><use xlink:href="#R"/><use xlink:href="#S"/><use xlink:href="#T"/></g><use xlink:href="#U" class="B C D M"/><g class="I B C D"><use xlink:href="#V"/><use xlink:href="#W"/><use xlink:href="#X"/><use xlink:href="#Y"/></g><use xlink:href="#Z" class="H N"/><g class="O"><use xlink:href="#a" transform="matrix(-1 0 0 1 20.479776 0)"/><use xlink:href="#a" x="2.618" transform="matrix(-1 0 0 1 25.712494 0)"/></g><g class="P"><use xlink:href="#b" transform="matrix(-1 0 0 1 6.405568 0)"/><use xlink:href="#c" transform="matrix(-1 0 0 1 12.36004 0)"/><use xlink:href="#d" transform="matrix(-1 0 0 1 20.660214 0)"/><use xlink:href="#e" transform="matrix(-1 0 0 1 29.050606 0)"/><use xlink:href="#f" transform="matrix(-1 0 0 1 35.365956 0)"/></g></g></g><g transform="translate(0 304.425)"><path d="M19.575 0C8.764 0 0 8.613 0 19.237s8.764 19.237 19.575 19.237S39.15 29.862 39.15 19.237 30.386 0 19.575 0z" class="H K"/><g transform="translate(9.45 4.725)"><g transform="translate(6.045 .354)" class="L"><path d="M13.352 2.272C12.88 12.586 1.42 16.4 8.745 23.13c1.75 1.606-9.6 1.63-8.625 0C5.318 14.44-.116 12.586.002 3.2.016 2.092.176 1.054.46.1c5.705-.158 9.885-.014 12.54.433.21.036.33.615.354 1.738z"/></g><g class="B C D I"><path d="M20.93 1.414c-.628 2.672-1.822 5.41-2.053 8.156-.167 1.99-.075 3.99-.112 5.987"/><path d="M20.21 1.326C18.8 4.797 18.255 7.92 18.122 11.67c-.104 2.947-.405 2.227.195 3.446"/><path d="M18.315 3.447C16.993 8.793 16.932 10.52 17.857 16"/><path d="M17.773 16.618c-3.28-2.885-1.905-7.924-1.027-11.49"/></g><path d="M11.416 2.563c.2.965.145 1.612-.163 1.94C9.618 6.25 8.98 6.92 7.142 9.407c-.025.034-.018.123.025.123.204.002.432-.005.6-.117 1.18-.79 2.092-1.994 3.4-2.564 1.76-.768-2.412 1.886-1.402 2.404.413.21 7.623-.76 5.29-.305s-5.793 1.088-5.502 1.46c1.212 1.55 1.518 2.26 1.212 3.648" class="B C D M"/><g class="I B C D"><path d="M7.037 4.42C5.978 7.177 4.56 13.895.39 14.673c-.053.01-.08-.07-.12-.105"/><path d="M6.406 2.563C5.447 7.22 4.03 11.334.1 14.055"/><path d="M5.864.796C4.64 5.13 4.02 9.846.27 12.817"/><path d="M4.6.972c-1.13 4.65-1.256 7.7-4.6 10.96"/></g><path d="M5.758.038c-.51 0 .307 3.09.63 3.805.27.604 1.02.91 2.243.922 1.354.04 2.296-.262 2.825-.91l.08-.102c.63 1.236 1.895 1.587 3.43 1.587 3.552 0 4.97-2.11 4.4-5.304H5.758zm6.27 1.18l6.04-.083.002.02c.08 1.018-.1 1.776-.506 2.278l-.042.05c-.485.56-1.39.85-2.76.85-.937 0-2.03-.36-2.503-1.505l-.1-.324c-.053-.194-.05-.504-.078-.873l-.044-.416zm-5.315.1h4.383l-.007.632c-.036 1.42-.344 2.055-2.912 2.107l-.48.005c-.062 0-.094-.01-.152-.05-.123-.083-.257-.247-.38-.5-.2-.4-.342-.985-.415-1.72l-.036-.475z" class="H N"/><g class="O"><use xlink:href="#g" transform="matrix(-1 0 0 1 20.479776 0)"/><use xlink:href="#g" x="2.618" transform="matrix(-1 0 0 1 25.712494 0)"/></g><g class="P"><path d="M2.245 25.34c.58.83 3.01.616 1.708-1.068s-2.287.237-1.708 1.068z" transform="matrix(-1 0 0 1 6.405568 0)"/><path d="M5.358 26.764c.595.802 2.77.29 1.43-1.334s-2.026.532-1.43 1.334z" transform="matrix(-1 0 0 1 12.36004 0)"/><path d="M9.516 27.242c.602.833 2.768.456 1.414-1.232s-2.016.4-1.414 1.232z" transform="matrix(-1 0 0 1 20.660214 0)"/><path d="M13.584 26.725c.612.82 2.696.393 1.806-1.053s-2.42.234-1.806 1.053z" transform="matrix(-1 0 0 1 29.050606 0)"/><path d="M16.814 25.75c.582.8 2.383.422 1.716-1.042s-2.297.232-1.716 1.042z" transform="matrix(-1 0 0 1 35.365956 0)"/></g></g></g></g><use fill="#000" filter="url(#K)" xlink:href="#J"/><use xlink:href="#J" class="E"/><g transform="translate(55.5 27.5)"><use xlink:href="#O" class="H K"/><g transform="translate(9.45 4.725)"><g transform="translate(6.045 .362)" class="L"><use xlink:href="#P"/></g><g class="B C D I"><use xlink:href="#Q"/><use xlink:href="#R"/><use xlink:href="#S"/><use xlink:href="#T"/></g><use xlink:href="#U" class="B C D M"/><g class="I B C D"><use xlink:href="#V"/><use xlink:href="#W"/><use xlink:href="#X"/><use xlink:href="#Y"/></g><use xlink:href="#Z" class="H N"/><g class="O"><use xlink:href="#a" transform="matrix(-1 0 0 1 20.479776 0)"/><use xlink:href="#a" x="2.618" transform="matrix(-1 0 0 1 25.712494 0)"/></g><g class="P"><use xlink:href="#b" transform="matrix(-1 0 0 1 6.405568 0)"/><use xlink:href="#c" transform="matrix(-1 0 0 1 12.36004 0)"/><use xlink:href="#d" transform="matrix(-1 0 0 1 20.660214 0)"/><use xlink:href="#e" transform="matrix(-1 0 0 1 29.050606 0)"/><use xlink:href="#f" transform="matrix(-1 0 0 1 35.365956 0)"/></g></g></g><rect x="104" y="28" width="120" height="15" rx="7.5" class="J"/><rect fill="#f4f2ee" x="104" y="47.5" width="120" height="15" rx="7.5"/></g><g filter="url(#L)" class="G F H"><g transform="translate(-36.5 230.5)"><path d="M6.256 17.525v-.876H1.378v-.03c0-.246.057-.494.172-.745s.27-.507.462-.768a9.14 9.14 0 0 1 .656-.784l.753-.776.9-.922a8.22 8.22 0 0 0 .798-.953 4.77 4.77 0 0 0 .559-1.022c.14-.353.21-.73.21-1.13 0-.9-.254-1.606-.76-2.113s-1.263-.76-2.267-.76a3.41 3.41 0 0 0-1.029.146c-.308.097-.58.213-.813.346a3.37 3.37 0 0 0-.582.407l-.32.315.507.69a5.06 5.06 0 0 1 .283-.261c.13-.113.286-.223.47-.33s.4-.202.65-.284.532-.123.85-.123c.567 0 1.037.156 1.4.47s.56.827.56 1.544a2.66 2.66 0 0 1-.149.906 3.42 3.42 0 0 1-.403.784 5.51 5.51 0 0 1-.589.714l-.71.714-.932.922a7.79 7.79 0 0 0-.88 1.029c-.264.37-.48.76-.65 1.175s-.254.863-.254 1.344l.007.254.007.115h5.952zm5.323 0V6.878h-.686c-.457.574-.92 1.027-1.387 1.36a6.58 6.58 0 0 1-1.596.822h0l.283.768c.24-.072.477-.166.716-.284l.686-.37c.22-.128.415-.26.59-.392s.316-.26.425-.384h0v9.126h.97z"/><path d="M2.04 4.1l.072-1.627.11-1.437.133.254.208.418.245.51.25.53.22.474.152.35h.325l.152-.35.22-.474.25-.53.245-.51.208-.418.133-.254.11 1.437.072 1.627h.368l-.11-1.916L5.254.432H4.95l-.34.61-.36.72-.347.736-.296.654-.296-.654-.347-.736-.36-.72-.34-.61h-.32L1.79 2.183 1.682 4.1h.357zm5.134.058l.333-.013.296-.034.235-.04.155-.034V2.3a1.45 1.45 0 0 0-.053-.402.83.83 0 0 0-.171-.32.79.79 0 0 0-.307-.212 1.23 1.23 0 0 0-.461-.077 2.41 2.41 0 0 0-.456.037c-.126.025-.22.05-.28.08h0l.048.302a2.87 2.87 0 0 1 .219-.069 1.79 1.79 0 0 1 .453-.042c.142 0 .257.022.344.066s.155.102.203.175.08.153.093.243.02.183.02.278h0v.17a.41.41 0 0 0-.077-.024l-.133-.026-.16-.02-.157-.008c-.167 0-.322.016-.464.048a1.08 1.08 0 0 0-.368.151c-.103.07-.183.156-.24.262s-.085.233-.085.38c0 .155.026.287.077.394s.123.196.213.265.197.12.32.15.257.048.403.048zm.06-.307c-.1 0-.21-.01-.296-.03a.64.64 0 0 1-.224-.093.42.42 0 0 1-.144-.169c-.034-.07-.05-.157-.05-.26 0-.116.025-.2.075-.28a.53.53 0 0 1 .192-.167c.078-.04.164-.067.256-.08s.18-.02.267-.02c.15 0 .267.01.352.03a1.07 1.07 0 0 1 .187.056h0v.963a2.44 2.44 0 0 1-.259.034l-.355.013zm1.77 1.244c.156 0 .292-.018.408-.053s.217-.1.304-.164a1.19 1.19 0 0 0 .237-.283 3.04 3.04 0 0 0 .208-.41c.17-.402.33-.845.475-1.328l.39-1.492h-.347l-.152.65-.15.6-.168.58-.208.62-.3-.646-.253-.64-.205-.606-.15-.548h-.368l.203.7.26.714.304.706.34.672a1.91 1.91 0 0 1-.152.307.8.8 0 0 1-.173.198.58.58 0 0 1-.216.108c-.08.02-.17.032-.27.032a.72.72 0 0 1-.205-.029c-.066-.02-.106-.034-.12-.045h0l-.07.286c.018.01.063.026.136.048a.87.87 0 0 0 .243.032z"/></g></g><g class="G"><g transform="translate(-17 485.5)"><use fill="#000" filter="url(#N)" xlink:href="#M"/><use xlink:href="#M" class="E"/><g transform="translate(98.5 16)" class="F"><path d="M20.09.01L.828 4.443c-.437.1-.765.457-.82.893a1.04 1.04 0 0 0 .578 1.058L6.057 9.1l.56 5.45a1.05 1.05 0 0 0 .8.908c.435.11.895-.062 1.148-.425l.166-.166-1.106-4.16a1.41 1.41 0 0 1 .707-1.339l4.754-2.752-3.8 3.588c-.27.255-.382.63-.298.987l1.732 7.316c.1.428.467.748.912.802a1.08 1.08 0 0 0 1.083-.565l9.05-17.278a1.02 1.02 0 0 0 .106-.204c.095-.242.036-.612-.072-.866-.134-.314-.703-.445-1.707-.395z"/></g><path d="M63.5 26h4v-4h-4v4zm-6 0h4v-4h-4v4zm0 6h4v-4h-4v4zm-6-6h4v-4h-4v4zm0 6h4v-4h-4v4zm17-16h-2v-2h-2v5h-2v-3h-6v-2h-2v5h-2v-3h-2a2 2 0 0 0-2 2v15c0 1.102.897 2 2 2h18c1.103 0 2-.898 2-2V18c0-1.103-.897-2-2-2z" class="F"/><g transform="translate(198.5 14)" class="F"><path d="M17.857 11.786c-.657 0-1.2-.528-1.2-1.18s.533-1.18 1.2-1.18 1.2.528 1.2 1.18-.533 1.18-1.2 1.18m-4.762 0c-.657 0-1.2-.528-1.2-1.18s.533-1.18 1.2-1.18 1.2.528 1.2 1.18-.533 1.18-1.2 1.18m-4.762 0c-.657 0-1.2-.528-1.2-1.18s.533-1.18 1.2-1.18 1.2.528 1.2 1.18-.533 1.18-1.2 1.18M13.095 0C6.53 0 1.2 4.76 1.2 10.607c0 2.045.644 3.998 1.873 5.7L0 21.214h13.095C19.66 21.214 25 16.455 25 10.607S19.66 0 13.095 0"/></g><g transform="translate(149.5 16)" class="F"><path d="M10.023 17.822L1.417 9.476l5.056-4.902 3.304 3.204 5.292-5.645H2.2C.986 2.133 0 3.09 0 4.267v12.8C0 18.243.986 19.2 2.2 19.2h15.4c1.213 0 2.2-.957 2.2-2.133V7.393l-9.777 10.43z"/><path d="M9.947 14.73l-5.42-5.254L6.472 7.59l3.38 3.278L19.882.17l2.035 1.793z"/></g><g transform="translate(250.5 16)" class="F"><path d="M10.08 9.6c2.78 0 5.04-2.153 5.04-4.8S12.86 0 10.08 0 5.04 2.153 5.04 4.8s2.26 4.8 5.04 4.8"/><path d="M10.08 10.8C4.145 10.8 0 13.76 0 18v1.2h20.16V18c0-4.24-4.145-7.2-10.08-7.2"/></g></g></g></g><path d="M93.3 13.5c0 7.456 6.044 13.5 13.5 13.5H204c7.456 0 13.5-6.044 13.5-13.5h0H93.3z" fill="#011638"/></g></g></svg>