<svg xmlns="http://www.w3.org/2000/svg" xmlns:xlink="http://www.w3.org/1999/xlink" width="754" height="1015" xmlns:v="https://vecta.io/nano"><style><![CDATA[.B{fill:#fff}.C{fill:#000}.D{fill-rule:nonzero}.E{fill:#ff0034}.F{filter:url(#B)}.G{fill:#0064ff}.H{fill:#eaeaea}.I{mask:url(#O)}.J{fill:#42be65}.K{fill:#0d62fe}.L{fill:#28356a}.M{fill:#005b11}.N{fill:#00173a}.O{fill:#b4b4b4}.P{stroke-linejoin:round}]]></style><defs><path id="A" d="M18 626h625v72H18z"/><filter x="-1.0%" y="-7.6%" width="102.1%" height="118.1%" id="B"><feOffset dy="1" in="SourceAlpha"/><feGaussianBlur stdDeviation="2"/><feColorMatrix values="0 0 0 0 0 0 0 0 0 0.160784314 0 0 0 0 0.349019608 0 0 0 0.1 0"/></filter><path id="C" d="M18 705h625v72H18z"/><path id="D" d="M18 782h625v72H18z"/><path id="E" d="M18 857h625v72H18z"/><path id="F" d="M0 .008h31.6v31.477H0z"/><path id="G" d="M29.5.057v22.36H.022V.057H29.5z"/><filter x="-24.4%" y="-19.1%" width="148.9%" height="138.2%" id="H"><feOffset dy="24" in="SourceAlpha"/><feGaussianBlur stdDeviation="16"/><feColorMatrix values="0 0 0 0 0.3515625 0 0 0 0 0.3515625 0 0 0 0 0.3515625 0 0 0 0.1 0" result="C"/><feMerge><feMergeNode in="C"/><feMergeNode in="SourceGraphic"/></feMerge></filter><filter x="-14.0%" y="-8.1%" width="127.9%" height="116.2%" id="I"><feOffset dy="7" in="SourceAlpha"/><feGaussianBlur stdDeviation="7"/><feColorMatrix values="0 0 0 0 0 0 0 0 0 0.164542109 0 0 0 0 0.362271488 0 0 0 0.1 0" result="C"/><feMerge><feMergeNode in="C"/><feMergeNode in="SourceGraphic"/></feMerge></filter><path d="M257.74.014l-.001.163c0 17.606 14.084 31.918 31.585 32.255v437.752c-16.6.32-30.125 13.212-31.475 29.562h-225.1C31.372 483.19 17.52 470.18.632 470.18l-.632.006V32.432l.632.006c17.793 0 32.217-14.444 32.217-32.26V.014h224.9z" id="J"/><path id="K" d="M578.5 809.01l-21.093 4.587c-.48.102-.838.473-.898.924s.193.89.633 1.095l5.99 2.81.612 5.64c.05.453.4.83.876.94s.98-.065 1.257-.44l.182-.17-1.212-4.304c-.05-.56.25-1.1.774-1.386l5.205-2.848-4.16 3.713c-.295.264-.418.653-.327 1.02l1.897 7.57c.1.443.51.774 1 .83s.962-.18 1.186-.585l9.91-17.88c.047-.066.086-.137.116-.21.104-.25.04-.633-.08-.896-.146-.325-.77-.46-1.87-.41z"/><path id="L" d="M15.707 9.022l-1.5 1.554-4.414-4.574 1.5-1.554c.39-.405 1.023-.405 1.414 0l3 3.11a1.06 1.06 0 0 1 0 1.465h0zm-7 7.253a.98.98 0 0 1-1.414 0l-3-3.11a1.06 1.06 0 0 1 0-1.465l4.5-4.663 4.414 4.574-4.5 4.663zm11-10.362a1.06 1.06 0 0 0 0-1.465l-4-4.145c-.39-.405-1.023-.405-1.414 0-.572.593-2.014.593-2.586 0-.39-.405-1.023-.405-1.414 0l-10 10.362a1.06 1.06 0 0 0 0 1.465c.604.626.604 2.054 0 2.68a1.06 1.06 0 0 0 0 1.465l4 4.145c.39.405 1.023.405 1.414 0 .572-.593 2.014-.593 2.586 0a.98.98 0 0 0 1.414 0l10-10.362a1.06 1.06 0 0 0 0-1.465c-.604-.626-.604-2.054 0-2.68h0z"/></defs><g transform="translate(30 81)" fill="none" fill-rule="evenodd"><use xlink:href="#A" class="C F"/><use xlink:href="#A" class="B"/><g class="D"><path d="M448.637 650h-3.12c-3.12 0-5.805 2.26-5.805 6.643 0 2.615 1.306 4.594 3.556 5.583l-4.21 7.35c-.145.212 0 .424.218.424h1.96a.4.4 0 0 0 .363-.212l3.846-7.208h1.38v7.208c0 .07.073.212.218.212h1.742c.145 0 .218-.07.218-.212v-19.505c-.073-.212-.145-.283-.363-.283h0zm-1.814 10.883h-1.16c-5.007 0-4.644-9.187-.218-9.187h1.45v9.187h-.073z" fill="red"/><path d="M459.02 656.383h-1.685c-.14 0-.21.074-.21.22v5.294h-3.09v-5.294c0-.147-.07-.22-.21-.22h-1.615c-.14 0-.21.074-.21.22v13.455c0 .147.07.22.21.22h1.685c.14 0 .21-.074.21-.22v-6.47h3.09v6.47c0 .147.07.22.21.22h1.685c.14 0 .21-.074.21-.22v-13.455c-.07-.147-.14-.22-.28-.22h0zm37.9 12.058c0-.074-.07-.074-.14-.074-.702 0-4.984 2.132-4.984-4.926 0-3.088 1.123-7.426 3.79-4.853.07.074.14.074.21.074s.14-.074.21-.22l.702-1.25c.07-.074.07-.147.07-.22 0-.147-.14-.22-.28-.294-4.633-2.426-7.02 2.06-7.02 7.28 0 6.765 4.704 7.72 7.37 5.662.14-.074.14-.22.14-.294l-.07-.882zm-11.513-5.81l3.23-6.103c.07-.074 0-.22-.07-.22h-1.615c-.49 0-.632.147-.772.515s-2.527 5.588-2.808 5.81v-6.103c0-.074-.07-.22-.14-.22h-1.755c-.07 0-.14.074-.14.22v13.53c0 .074.07.22.14.22h1.755c.14 0 .14-.074.14-.22v-6.985c.21.147 3.16 6.544 3.23 6.765.14.294.42.44.772.44h1.755c.14 0 .14-.074.07-.22l-3.79-7.426zm-15.374 5.882h-.35c-.42 0-.49-.147-.49-.515v-11.47c0-.147-.07-.22-.14-.22h-5.406c-.14 0-.21.074-.21.22 0 3.088.07 8.235-1.895 11.985h-.562c-.14 0-.21.074-.21.22v4.044a.23.23 0 0 0 .211.221h1.264c.28 0 .42-.22.42-.44v-2.28h5.686v2.5c0 .074.07.22.21.22h1.404c.14 0 .35-.147.35-.44v-3.823c-.07-.147-.14-.22-.28-.22h0zm-2.95 0h-3.93c1.123-1.912 2.176-5 2.176-10.44h1.755v10.44zm8.424-12.5c-2.878 0-4.212 3.75-4.212 7.867 0 6.765 4.493 7.794 7.582 5.81.14-.074.14-.147.14-.22l-.21-.956c0-.074-.07-.147-.21-.147-1.123 0-5.055 2.06-5.055-4.632 1.404.147 1.404.147 5.616.147-.07-3.382-.42-7.867-3.65-7.867h0zm-1.895 6.176c0-5.367 3.37-6.397 3.37-.147-1.474 0-2.106 0-3.37.147h0z" class="C"/></g><rect x="518" y="648" width="101" height="29" rx="3" class="J"/><path d="M64.154 669.867l-1.988-1.438v1.97H50.833v-16.8h11.333v3.298L65 653.075V650.8c0-1.547-1.27-2.8-2.833-2.8H50.833c-1.565 0-2.833 1.253-2.833 2.8v22.4c0 1.546 1.268 2.8 2.833 2.8h11.333c1.564 0 2.833-1.254 2.833-2.8v-4.474l-.846 1.14zM62.206 667L55 661.8l2.174-2.8 4.4 3.167 7.6-9.18L72 655.17z" class="K"/><use xlink:href="#C" class="C F"/><use xlink:href="#C" class="B"/><path d="M450.5 746.738c2.2 6.15-3.184 7.033-7.236 5.51-4.4-1.582-8.336-4.98-10.94-8.968-.767.016-1.53-.103-2.257-.35 1.447 4.22 2.084 8.557 1.68 12.073 0-7.09-3.3-14.182-8.046-20.043-1.68-2.05.056-3.575 1.563-1.583a42.29 42.29 0 0 1 2.779 4.513c1.678-5.8 9.725-10.84 15.224-11.66 12.677-1.933 4.573 9.084.637 12.13 2.72 2.1 5.442 5.04 6.6 8.38zm-8.857-6.74c-.572.395-1.172.748-1.795 1.055-1.657.95-3.456 1.622-5.325 2 2.2 2.58 5.325 5.04 8.625 5.978 1.9.528 4.052.293 3.242-2.46-.753-2.58-2.78-4.864-4.747-6.564v.002zm-8.104-5.687c2.837-.35 5.673.938 7.988 2.344 2.43-1.522 9.954-9.785 2.952-9.023-4.052.47-8.973 4.278-10.94 6.68v-.002zm5.5 3.753c-1.563-.996-3.647-2.05-5.557-1.877-2.49.234-1.966 3.165.637 3.165 1.706-.11 3.376-.547 4.92-1.29l.001.001z" fill="#febe12" class="D"/><rect x="518" y="727" width="101" height="29" rx="3" class="J"/><path d="M569.2 751v-2.684c1.353-.2 2.325-.644 2.916-1.33s.886-1.503.886-2.447c0-.63-.112-1.174-.335-1.632a3.71 3.71 0 0 0-.918-1.192c-.39-.336-.846-.63-1.37-.88l-1.674-.72-1.123-.42a5.08 5.08 0 0 1-.842-.429c-.23-.15-.403-.322-.518-.515s-.173-.433-.173-.72c0-.487.194-.87.583-1.15s.972-.42 1.75-.42c.734 0 1.386.072 1.955.215l1.48.45.54-2.125c-.317-.13-.75-.26-1.296-.397a11.77 11.77 0 0 0-1.857-.29h0V732h-2.246v2.405c-1.224.2-2.13.648-2.72 1.342s-.886 1.535-.886 2.523c0 .6.108 1.11.324 1.524a3.42 3.42 0 0 0 .853 1.063c.353.293.75.54 1.188.74l1.328.537 1.307.494a5.93 5.93 0 0 1 1.026.515c.288.186.51.4.67.644s.238.53.238.86a1.4 1.4 0 0 1-.572 1.17c-.382.293-1.07.44-2.063.44-.835 0-1.58-.093-2.235-.28s-1.213-.394-1.674-.623h0l-.734 2.04c.317.172.796.36 1.436.57s1.48.347 2.516.42h0V751h2.246z" class="B D"/><use xlink:href="#D" class="C F"/><use xlink:href="#D" class="B"/><use xlink:href="#E" class="C F"/><use xlink:href="#E" class="B"/><g stroke="#42be65" stroke-width=".322" class="P"><rect x="518" y="804" width="101" height="29" rx="3"/><rect x="518" y="879" width="101" height="29" rx="3"/></g><g class="J"><use xlink:href="#K"/><use xlink:href="#K" y="74"/></g><path d="M52 896l-5-5v-5h11l5 5v5H52zm13-12H45v14h20v-14zm-10 4a3 3 0 1 0 0 6 3 3 0 1 0 0-6m11 0v11H49v2h19v-13z" class="K"/><g fill="#f4f2ee"><rect x="214" y="812" width="124" height="13" rx="3.6"/><rect x="214" y="887" width="124" height="13" rx="3.6"/><rect x="113" y="656" width="77" height="13" rx="3.6"/><rect x="113" y="735" width="77" height="13" rx="3.6"/><rect x="113" y="812" width="77" height="13" rx="3.6"/><rect x="113" y="887" width="77" height="13" rx="3.6"/><rect x="366" y="812" width="96" height="13" rx="3.6"/><rect x="366" y="887" width="96" height="13" rx="3.6"/></g><path d="M569.2 672v-2.684c1.353-.2 2.325-.644 2.916-1.33s.886-1.503.886-2.447c0-.63-.112-1.174-.335-1.632a3.71 3.71 0 0 0-.918-1.192c-.39-.336-.846-.63-1.37-.88l-1.674-.72-1.123-.42a5.08 5.08 0 0 1-.842-.429c-.23-.15-.403-.322-.518-.515s-.173-.433-.173-.72c0-.487.194-.87.583-1.15s.972-.42 1.75-.42c.734 0 1.386.072 1.955.215l1.48.45.54-2.125c-.317-.13-.75-.26-1.296-.397a11.77 11.77 0 0 0-1.857-.29h0V653h-2.246v2.405c-1.224.2-2.13.648-2.72 1.342s-.886 1.535-.886 2.523c0 .6.108 1.11.324 1.524a3.42 3.42 0 0 0 .853 1.063c.353.293.75.54 1.188.74l1.328.537 1.307.494a5.93 5.93 0 0 1 1.026.515c.288.186.51.4.67.644s.238.53.238.86a1.4 1.4 0 0 1-.572 1.17c-.382.293-1.07.44-2.063.44-.835 0-1.58-.093-2.235-.28s-1.213-.394-1.674-.623h0l-.734 2.04c.317.172.796.36 1.436.57s1.48.347 2.516.42h0V672h2.246z" class="B D"/><path d="M66 823h-8v-2h8v2zm0 4H54v-2h12v2zm-5.414-14l-8.097 8.097-2.114.528.528-2.114L59 811.414 60.586 813zM62 808.414L63.586 810 62 811.586 60.414 810 62 808.414zm.414 5.586l3.293-3.292a1 1 0 0 0 0-1.415l-3-3a1 1 0 0 0-1.414 0L59 808.586l-1.293-1.293a1 1 0 0 0-1.414 0l-3 3 1.414 1.415L57 809.414l.586.586-4 4H44v16h24v-16h-5.586zM68 736.002V734c0-1.103-.897-2-2-2H46c-1.103 0-2 .897-2 2v2.002h24zm-24 4V748c0 1.103.897 2 2 2h20c1.103 0 2-.897 2-2v-7.998H44z" class="K"/><path d="M403.525 728.614h-28.5c-1.12 0-2.035 1.105-2.035 2.455v20.864c0 1.35.916 2.455 2.035 2.455h28.5c1.12 0 2.035-1.105 2.035-2.455v-20.864c0-1.35-.916-2.455-2.035-2.455z" fill="#3498d8"/><path d="M379.532 741.865h1.608l-.804-2.43-.804 2.43zm22.4-4.617h-4.12l-1.005 1.337-.904-1.337h-8.743l-.804 2.187-.804-2.187h-3.517v.972l-.402-.972h-3.015l-2.914 8.505h3.517l.402-1.337h1.005l.402 1.337h3.92v-.972l.3.972h2l.3-1.093v1.093h8.04l1.005-1.337.904 1.337h4.12l-2.613-4.252 2.914-4.253zm-12.16 7.3h-1.105v-4.74l-1.708 4.74h-1.005l-1.708-4.74v4.74h-2.31l-.402-1.337h-2.412l-.402 1.337h-1.306l2.1-6.075h1.708l1.91 5.71v-5.71h1.91l1.507 4.13 1.407-4.13h1.91v6.075h-.1zm9.95 0h-1.507l-1.306-2.066-1.507 2.066h-4.522v-6.075h4.623l1.407 1.944 1.507-1.944h1.407l-2.21 3.038 2.1 3.038zm-7.738-4.86v1.093h2.512v1.215h-2.512v1.215h2.814l1.306-1.822-1.206-1.7h-2.914z" class="B"/><g transform="translate(320.114 646.018)"><g transform="translate(0 .109)"><mask id="M" class="B"><use xlink:href="#F"/></mask><path d="M31.6 4.944V26.6c-.03 2.704-2.236 4.886-4.955 4.886H4.955c-2.737 0-4.955-2.2-4.955-4.936V4.944C0 2.217 2.218.007 4.955.007h21.69c2.737 0 4.955 2.2 4.955 4.936" fill="#5b9edd" mask="url(#M)"/></g><g transform="translate(2.099 4.291)" class="B"><mask id="N"><use xlink:href="#G"/></mask><path d="M6.176 20.047c-4.212 0-4.864-2.365-4.937-3.777-.07-1.235.77-3.553 5.524-3.553 1.77 0 4.575.9 7.724 2.2-1.78 2.33-4.632 5.12-8.312 5.12m12.843-6.53c1.624-3.105 2.7-6.384 2.7-6.384h-6.267v-2.2h7.724v-1.34h-7.724V.057h-3.596v3.54H4.132v1.34h7.724v2.2H5.36v1.177h12.553s-.696 2.13-1.863 4.24c-3.367-1.036-6.474-1.76-8.968-1.76-5.98 0-7.308 2.993-7.025 5.73.228 2.185 1.86 5.373 6.844 5.373 4.553 0 8.228-2.6 10.5-5.694 4.313 1.98 8.87 4.416 12.1 6.215v-5.193L19.02 13.52" mask="url(#N)"/></g></g><path d="M388.9 658.583h-3.4c-.232 0-.43.163-.465.385l-1.37 8.413c-.027.166.106.316.28.316h1.618c.232 0 .43-.163.465-.385l.37-2.27c.036-.222.233-.385.465-.385h1.073c2.233 0 3.52-1.046 3.858-3.118.152-.907.006-1.62-.432-2.118-.482-.548-1.336-.838-2.47-.838zm.4 3.073c-.185 1.177-1.115 1.177-2.013 1.177h-.512l.36-2.2a.28.28 0 0 1 .279-.231h.234c.612 0 1.2 0 1.488.338.178.2.232.5.164.914h0zm9.742-.038h-1.623a.28.28 0 0 0-.279.231l-.072.44-.113-.16c-.35-.494-1.135-.66-1.917-.66-1.794 0-3.325 1.315-3.624 3.16-.155.92.065 1.8.605 2.414.495.564 1.202.8 2.044.8 1.445 0 2.246-.9 2.246-.9l-.072.437c-.027.167.106.317.28.317h1.462c.233 0 .43-.163.465-.385l.877-5.378c.028-.166-.105-.316-.278-.316zm-2.262 3.058c-.157.898-.892 1.5-1.83 1.5-.47 0-.848-.146-1.1-.424s-.33-.667-.255-1.104c.146-.9.895-1.512 1.82-1.512.46 0 .836.148 1.082.428s.345.677.274 1.112h0zm10.906-3.058h-1.63a.51.51 0 0 0-.4.2l-2.25 3.208-.954-3.082a.47.47 0 0 0-.452-.325h-1.603c-.195 0-.33.184-.268.362l1.797 5.104-1.7 2.308c-.133.182.001.432.23.432h1.63c.155 0 .3-.073.387-.196l5.425-7.58c.13-.18-.003-.43-.232-.43" class="L"/><path d="M413.076 658.583h-3.4c-.23 0-.43.163-.465.385l-1.37 8.413c-.027.166.106.316.28.316h1.74c.16 0 .3-.114.325-.27l.4-2.385c.036-.222.233-.385.465-.385h1.072c2.233 0 3.52-1.046 3.858-3.118.152-.907.006-1.62-.433-2.118-.48-.548-1.335-.838-2.47-.838zm.4 3.073c-.185 1.177-1.114 1.177-2.013 1.177h-.5l.36-2.2c.02-.133.14-.23.278-.23h.234c.6 0 1.2 0 1.488.338.178.2.232.5.164.914h0zm9.74-.038h-1.622c-.14 0-.258.098-.278.23l-.072.44-.114-.16c-.35-.494-1.134-.66-1.916-.66-1.793 0-3.325 1.315-3.623 3.16-.155.92.065 1.8.604 2.414.496.564 1.202.8 2.044.8 1.445 0 2.246-.9 2.246-.9l-.072.437c-.027.167.105.317.28.317h1.46c.23 0 .43-.163.465-.385l.878-5.378c.027-.166-.106-.316-.28-.316zm-2.262 3.058c-.156.898-.893 1.5-1.83 1.5-.47 0-.848-.146-1.1-.424s-.33-.667-.255-1.104c.147-.9.895-1.512 1.82-1.512.46 0 .836.148 1.082.428s.346.677.275 1.112h0zm4.175-5.862l-1.4 8.567c-.027.166.105.316.278.316h1.4c.233 0 .43-.163.465-.385l1.372-8.413c.027-.166-.105-.316-.278-.316H425.4a.28.28 0 0 0-.279.231" fill="#298fc2"/><path d="M369.6 669.332l.26-1.594-.577-.013h-2.757l1.916-11.76c.006-.036.025-.07.053-.092a.16.16 0 0 1 .102-.036h4.648c1.543 0 2.608.31 3.164.924.26.288.427.59.507.92.084.347.086.762.003 1.27l-.006.037v.324l.26.143c.22.113.394.242.528.39.223.246.367.56.428.93.063.38.042.835-.06 1.35-.12.59-.31 1.106-.57 1.527a3.18 3.18 0 0 1-.904.959c-.345.237-.755.417-1.218.532a6.27 6.27 0 0 1-1.523.17h-.362a1.12 1.12 0 0 0-.707.252 1.05 1.05 0 0 0-.369.637l-.027.144-.458 2.81-.02.103c-.006.033-.015.05-.03.06s-.03.017-.047.017H369.6" class="L"/><path d="M377.422 659.023l-.047.264c-.613 3.047-2.7 4.1-5.39 4.1h-1.364c-.328 0-.604.23-.655.543l-.896 5.502c-.033.205.13.39.344.39h2.42c.286 0 .53-.2.575-.475l.024-.12.455-2.798.03-.153c.045-.274.288-.476.575-.476h.362c2.344 0 4.178-.92 4.715-3.587.224-1.114.108-2.043-.485-2.697-.18-.197-.402-.36-.662-.494" fill="#298fc2"/><path d="M376.78 658.776l-.29-.072-.307-.056c-.368-.058-.77-.085-1.202-.085h-3.643c-.1 0-.175.02-.25.055-.168.078-.293.232-.323.42l-.797 4.89c.05-.313.327-.543.655-.543h1.364c2.68 0 4.776-1.053 5.39-4.1l.047-.264a3.32 3.32 0 0 0-.504-.206l-.137-.042" fill="#22284f"/><path d="M370.765 659.04c.03-.19.155-.343.323-.42.077-.036.16-.055.25-.055h3.643c.432 0 .835.027 1.202.085l.307.056.29.072.138.04c.18.058.35.127.504.206.182-1.126-.002-1.893-.63-2.587-.693-.764-1.945-1.09-3.546-1.09h-4.65c-.327 0-.606.23-.657.544l-1.936 11.88c-.038.235.15.447.394.447h2.87l1.496-9.178" class="L"/><path fill="#ff5f00" d="M278.753 747.256h7.204V734.7h-7.204z"/><path d="M279.21 740.983c0-2.545 1.23-4.812 3.145-6.273-1.4-1.07-3.168-1.706-5.088-1.706-4.547 0-8.233 3.572-8.233 7.98s3.686 7.98 8.233 7.98c1.92 0 3.688-.637 5.088-1.706-1.915-1.46-3.145-3.728-3.145-6.273" fill="#eb001b"/><path d="M295.42 745.927v-.3h-.083l-.096.213-.096-.213h-.083v.3h.06v-.234l.1.2h.06l.1-.202v.234h.06zm-.528 0v-.257h.107v-.053h-.272v.053h.107v.257h.06zm.785-4.944c0 4.407-3.686 7.98-8.233 7.98-1.92 0-3.688-.637-5.088-1.706 1.915-1.46 3.145-3.728 3.145-6.273s-1.23-4.812-3.145-6.273c1.4-1.07 3.168-1.706 5.088-1.706 4.547 0 8.233 3.572 8.233 7.98h0z" fill="#f79e1b"/><path d="M312.12 741.017c0-.932.63-1.698 1.66-1.698.985 0 1.65.733 1.65 1.698s-.664 1.7-1.65 1.7c-1.03 0-1.66-.766-1.66-1.7zm4.433 0v-2.653h-1.19v.644c-.378-.477-.95-.777-1.73-.777-1.535 0-2.738 1.166-2.738 2.786s1.203 2.787 2.738 2.787c.78 0 1.352-.3 1.73-.777v.644h1.19v-2.653zm40.23 0c0-.932.63-1.698 1.66-1.698.985 0 1.65.733 1.65 1.698s-.664 1.7-1.65 1.7c-1.03 0-1.66-.766-1.66-1.7zm5.766 2.4v.083h.08c.018 0 .033-.004.043-.01s.016-.018.016-.032-.005-.024-.016-.03-.025-.01-.043-.01h-.08zm.08-.06a.15.15 0 0 1 .096.027c.022.018.034.042.034.073 0 .026-.01.047-.027.064s-.043.027-.076.03l.106.118h-.083l-.098-.117h-.032v.117h-.07v-.313h.15zm-.02.42c.038 0 .073-.007.105-.02s.06-.033.085-.056.043-.05.057-.083.02-.066.02-.102-.007-.07-.02-.102a.26.26 0 0 0-.057-.084c-.024-.023-.053-.042-.085-.056a.27.27 0 0 0-.105-.02.28.28 0 0 0-.107.02c-.033.014-.062.032-.086.056a.26.26 0 0 0-.058.084c-.014.032-.02.066-.02.102s.007.07.02.102.033.06.058.083.053.042.086.056.07.02.107.02zm0-.6a.36.36 0 0 1 .25.099.34.34 0 0 1 .076.107c.018.04.028.085.028.13s-.01.1-.028.13-.044.076-.076.107-.07.055-.112.073-.09.027-.138.027-.097-.01-.14-.027a.36.36 0 0 1-.113-.073c-.032-.03-.057-.066-.075-.107s-.028-.084-.028-.13.01-.1.028-.13a.34.34 0 0 1 .075-.107c.032-.03.07-.055.113-.072a.37.37 0 0 1 .14-.026zm-1.392-2.164v-4.785h-1.192v2.775c-.378-.477-.95-.777-1.73-.777-1.535 0-2.738 1.166-2.738 2.786s1.203 2.787 2.738 2.787c.78 0 1.352-.3 1.73-.777v.644h1.192v-2.653zm-29.887-1.754c.768 0 1.26.466 1.386 1.288h-2.84c.126-.766.607-1.288 1.455-1.288zm.023-1.032c-1.604 0-2.726 1.132-2.726 2.786 0 1.688 1.168 2.787 2.807 2.787.825 0 1.58-.2 2.245-.744l-.584-.855c-.458.355-1.042.555-1.592.555-.768 0-1.466-.344-1.638-1.3h4.067l.023-.444c-.01-1.654-1.065-2.786-2.6-2.786zm14.377 2.786c0-.932.63-1.698 1.66-1.698.985 0 1.65.733 1.65 1.698s-.664 1.7-1.65 1.7c-1.03 0-1.66-.766-1.66-1.7zm4.433 0v-2.653h-1.19v.644c-.378-.477-.95-.777-1.73-.777-1.535 0-2.738 1.166-2.738 2.786s1.203 2.787 2.738 2.787c.78 0 1.352-.3 1.73-.777v.644h1.19v-2.653zm-11.158 0c0 1.6 1.157 2.787 2.92 2.787.825 0 1.374-.178 1.97-.633l-.573-.932c-.447.31-.916.477-1.432.477-.95-.01-1.65-.677-1.65-1.7s.7-1.687 1.65-1.698c.516 0 .985.166 1.432.477l.573-.932c-.596-.455-1.145-.633-1.97-.633-1.764 0-2.92 1.177-2.92 2.786zm15.35-2.786c-.687 0-1.134.31-1.443.777v-.644h-1.18v5.306h1.19v-2.975c0-.877.4-1.366 1.168-1.366.24 0 .493.033.745.133l.367-1.088a2.62 2.62 0 0 0-.848-.144zm-31.914.555c-.573-.366-1.363-.555-2.234-.555-1.386 0-2.28.644-2.28 1.698 0 .866.664 1.4 1.9 1.565l.56.078c.653.09.962.255.962.555 0 .41-.435.644-1.25.644-.825 0-1.42-.255-1.82-.555l-.56.9c.653.466 1.478.688 2.37.688 1.58 0 2.497-.722 2.497-1.732 0-.933-.722-1.42-1.913-1.588l-.56-.078c-.516-.067-.928-.166-.928-.522 0-.39.39-.622 1.042-.622.7 0 1.375.255 1.707.455l.516-.933zm15.362-.555c-.687 0-1.134.31-1.443.777v-.644h-1.18v5.306h1.19v-2.975c0-.877.39-1.366 1.168-1.366.24 0 .493.033.745.133l.366-1.088c-.263-.1-.607-.144-.848-.144zm-10.16.133h-1.947v-1.6h-1.203v1.6h-1.11v1.055h1.11v2.42c0 1.232.493 1.965 1.9 1.965.516 0 1.11-.156 1.49-.41l-.344-.988c-.355.2-.745.3-1.054.3-.596 0-.8-.355-.8-.888v-2.398h1.947v-1.055zm-17.802 5.306v-3.33c0-1.254-.825-2.098-2.154-2.11-.7-.01-1.42.2-1.925.944-.378-.588-.974-.944-1.8-.944-.584 0-1.157.166-1.604.788v-.655h-1.19v5.306h1.203v-2.942c0-.92.527-1.4 1.34-1.4.8 0 1.192.5 1.192 1.4v2.953h1.203v-2.942c0-.92.55-1.4 1.34-1.4.813 0 1.203.5 1.203 1.4v2.953h1.203z" class="C"/><path d="M243.56 655.482c-.103-.17-.182-.176-.345-.077l-1.634.946-4.18 2.375-4.943 2.816-6.98 4c-.65.373-1.273.172-1.584-.506l-.785-1.7-2.03-4.435c-.124-.273-.078-.47.128-.64.195-.162.427-.16.667.008l3.257 2.295c.5.34 1.024.39 1.577.147l4.246-1.86 6.015-2.662 5.1-2.24c.22-.096.236-.168.08-.342-1.265-1.405-2.762-2.5-4.46-3.35a17.63 17.63 0 0 0-4.93-1.602c-1.043-.18-2.096-.293-3.08-.236-1.42-.04-2.74.122-4.048.402-1.05.225-2.07.536-3.06.948-2.65 1.105-4.874 2.745-6.522 5.1-1.336 1.91-2.03 4.026-2.048 6.344a10.45 10.45 0 0 0 .472 3.159c.624 2.037 1.757 3.755 3.282 5.238.52.506 1.085.957 1.663 1.394.357.27.48.637.378 1.047l-.684 2.493-.113.42c-.06.225.016.42.195.547.2.14.424.106.636-.015l3.372-1.916c.33-.186.676-.324 1.065-.247l.855.213c1.217.328 2.46.487 3.718.53 1.275.044 2.544-.02 3.81-.228 1.054-.174 2.088-.416 3.087-.776 1.823-.657 3.5-1.56 4.995-2.813 2.068-1.743 3.52-3.865 4.168-6.496.35-1.42.39-2.85.16-4.284-.227-1.424-.748-2.752-1.496-3.993" fill="#0dc803"/><path d="M244.253 734.11c1.436 0 2.588.294 3.32.567h0l-.502 2.916-.334-.155a6.89 6.89 0 0 0-2.772-.515c-1.45 0-2.123.6-2.123 1.158-.008.63.786 1.045 2.082 1.668 2.138.962 3.124 2.127 3.1 3.656-.03 2.796-2.557 4.598-6.452 4.598-1.662-.016-3.263-.34-4.127-.717h0l.52-3.013.477.213c1.218.502 2.005.706 3.486.706 1.066 0 2.21-.4 2.22-1.313.005-.59-.48-1.01-1.922-1.67-1.406-.644-3.267-1.724-3.247-3.657.023-2.617 2.602-4.442 6.263-4.442zm12.798 0L260 748h-3.38l-.443-2.082c-.425 0-2.888-.004-4.07-.006l-.594-.001-.767 2.09h-3.826l5.41-12.738c.383-.904 1.036-1.153 1.908-1.153h2.813zm-36.923-.11c.818.03 1.48.28 1.71 1.128h0l1.32 6.148-.258-.583c.155.326.283.653.38.976h0l.388 1.927 3.63-9.487h3.927l-5.838 13.885-3.923.006-3.312-12.15c-1.204-.67-2.6-1.206-4.15-1.57h0l.045-.278zm16.33.11l-2.27 13.89h-3.617l2.262-13.89h3.624zm18.037 3.747l.247 1.198.844 4.014h-3.023l1.45-3.886c-.02.038.3-.805.482-1.326z" fill="#16216a"/><g filter="url(#H)" transform="translate(197)"><path stroke="#f4f2ee" d="M0 0h446v571H0z" class="B"/><g transform="translate(27 28)"><g transform="translate(31.415)" class="C D"><path d="M8.097 12.824V10.6H3.003V1.372H.415v11.452h7.682zm5.376.23c.653 0 1.242-.1 1.767-.33s.976-.532 1.352-.934.664-.887.863-1.454.3-1.193.3-1.876-.105-1.306-.315-1.867-.503-1.04-.88-1.438-.827-.705-1.352-.925-1.103-.33-1.734-.33c-.62 0-1.192.1-1.717.33s-.98.53-1.36.925-.68.876-.896 1.438-.324 1.184-.324 1.867.105 1.308.315 1.876.503 1.052.88 1.454.827.713 1.352.934 1.11.33 1.75.33zm0-2.115a1.5 1.5 0 0 1-1.311-.669c-.3-.446-.465-1.05-.465-1.8s.155-1.358.465-1.793.747-.653 1.31-.653.998.218 1.302.653.456 1.033.456 1.793-.152 1.363-.456 1.8a1.48 1.48 0 0 1-1.302.669zm10.07 2.115c.653 0 1.242-.1 1.767-.33s.976-.532 1.352-.934.664-.887.863-1.454.3-1.193.3-1.876-.105-1.306-.315-1.867-.503-1.04-.88-1.438-.827-.705-1.352-.925-1.103-.33-1.734-.33c-.62 0-1.192.1-1.717.33s-.98.53-1.36.925-.68.876-.896 1.438-.324 1.184-.324 1.867.105 1.308.315 1.876.503 1.052.88 1.454.827.713 1.352.934 1.11.33 1.75.33zm0-2.115a1.5 1.5 0 0 1-1.311-.669c-.3-.446-.465-1.05-.465-1.8s.155-1.358.465-1.793.747-.653 1.31-.653.998.218 1.302.653.456 1.033.456 1.793-.152 1.363-.456 1.8a1.48 1.48 0 0 1-1.302.669zm8.66 1.884v-3.8c.277.22.556.5.838.8l.805 1 .722 1.04.606.95h2.837l-.697-1.206-.913-1.322-1.03-1.28a11.34 11.34 0 0 0-1.029-1.066l1.833-1.892 1.717-1.925h-2.937l-.556.66-.69.802-.755.85-.755.826V0l-2.472.397v12.427h2.472zm8.362-9.75c.398 0 .744-.13 1.037-.388s.44-.614.44-1.066-.147-.807-.44-1.066-.64-.388-1.037-.388-.744.13-1.037.388-.44.614-.44 1.066.147.807.44 1.066.64.388 1.037.388zm1.244 9.75V4.13h-2.472v8.693H41.8zm4.795 0v-6.71l.53-.058.564-.025c.575 0 .968.165 1.178.496s.315.892.315 1.686h0v4.61h2.472V7.916c0-.595-.06-1.135-.183-1.62s-.326-.903-.614-1.256-.677-.625-1.17-.818-1.11-.29-1.85-.29c-.73 0-1.427.052-2.09.157l-1.626.34v8.395h2.472zM56.99 15.93c1.515 0 2.635-.344 3.36-1.033s1.087-1.743 1.087-3.165h0V4.43l-.755-.2-.888-.157-.937-.107-.92-.04c-.697 0-1.322.102-1.875.306a3.89 3.89 0 0 0-1.402.868c-.382.375-.672.824-.87 1.347s-.3 1.104-.3 1.743c0 1.278.32 2.272.962 2.983s1.565 1.066 2.77 1.066c.332 0 .64-.03.92-.09a3.99 3.99 0 0 0 .821-.273h0v.314c0 .485-.147.88-.44 1.2s-.794.463-1.502.463c-.542 0-1.026-.044-1.452-.132s-.832-.21-1.22-.364h0l-.43 2.066c.453.154.946.278 1.477.372s1.062.14 1.593.14zm.697-5.668c-1.117 0-1.676-.69-1.676-2.066 0-.66.16-1.206.48-1.636s.807-.645 1.46-.645l.58.025.43.058v3.933c-.155.088-.343.165-.564.23a2.48 2.48 0 0 1-.713.099zM1.477 16.22c.398 0 .744-.13 1.037-.388s.44-.614.44-1.066-.147-.807-.44-1.066-.64-.388-1.037-.388-.744.13-1.037.388-.44.614-.44 1.066.147.807.44 1.066.64.388 1.037.388zm1.244 9.75v-8.693H.25v8.693H2.72zm4.795 0v-6.71l.53-.058.564-.025c.575 0 .968.165 1.178.496s.315.892.315 1.686h0v4.61h2.472V21.06c0-.595-.06-1.135-.183-1.62s-.326-.903-.614-1.256-.677-.625-1.17-.818-1.11-.29-1.85-.29c-.73 0-1.427.052-2.09.157l-1.626.34v8.395h2.472zm10.668.198c.53 0 .98-.044 1.344-.132s.697-.193.995-.314h0l-.348-1.917c-.232.088-.49.157-.77.207a4.74 4.74 0 0 1-.821.074c-.553 0-.92-.154-1.103-.463s-.274-.722-.274-1.24h0v-3.057h2.97v-2.05h-2.97v-2.562l-2.472.397v7.304c0 .562.053 1.074.158 1.537s.3.857.556 1.182.62.578 1.062.76 1 .273 1.676.273zm7.55.033c.653 0 1.242-.1 1.767-.33s.976-.532 1.352-.934.664-.887.863-1.454.3-1.193.3-1.876-.105-1.306-.315-1.867-.503-1.04-.88-1.438-.827-.705-1.352-.925-1.103-.33-1.734-.33c-.62 0-1.192.1-1.717.33s-.98.53-1.36.925-.68.876-.896 1.438-.324 1.184-.324 1.867.105 1.308.315 1.876.503 1.052.88 1.454.827.713 1.352.934 1.11.33 1.75.33zm0-2.115a1.5 1.5 0 0 1-1.311-.669c-.3-.446-.465-1.05-.465-1.8s.155-1.358.465-1.793.747-.653 1.31-.653.998.218 1.302.653.456 1.033.456 1.793-.152 1.363-.456 1.8a1.48 1.48 0 0 1-1.302.669zm13.54 2.082c.53 0 .98-.044 1.344-.132s.697-.193.995-.314h0l-.348-1.917c-.232.088-.49.157-.77.207a4.74 4.74 0 0 1-.821.074c-.553 0-.92-.154-1.103-.463s-.274-.722-.274-1.24h0v-3.057h2.97v-2.05h-2.97v-2.562l-2.472.397v7.304c0 .562.053 1.074.158 1.537s.3.857.556 1.182.62.578 1.062.76 1 .273 1.676.273zm6.47-.198v-6.6l.523-.124c.194-.04.4-.058.622-.058.553 0 .932.165 1.137.496s.307.892.307 1.686h0v4.61h2.472V21.06a6.96 6.96 0 0 0-.174-1.62c-.116-.485-.315-.903-.597-1.256s-.658-.625-1.128-.818-1.06-.29-1.767-.29c-.243 0-.495.025-.755.074a5.14 5.14 0 0 0-.639.157h0v-4.165l-2.472.397V25.97h2.472zm11.498.23a8.75 8.75 0 0 0 .929-.05l.87-.124a6.97 6.97 0 0 0 .738-.174c.22-.066.398-.132.53-.198h0l-.332-2c-.277.12-.633.223-1.07.306a7.17 7.17 0 0 1-1.336.124c-.708 0-1.272-.15-1.692-.446s-.658-.7-.713-1.206h5.608l.033-.454.017-.47c0-1.465-.36-2.575-1.078-3.33s-1.698-1.132-2.937-1.132c-.53 0-1.048.1-1.55.297a3.9 3.9 0 0 0-1.336.876c-.387.386-.7.868-.937 1.446s-.357 1.253-.357 2.024c0 .64.09 1.234.274 1.785s.465 1.027.846 1.43.863.72 1.443.95 1.264.347 2.05.347zm1.195-5.454h-3.268c.033-.21.086-.416.158-.62a1.66 1.66 0 0 1 .307-.537c.133-.154.3-.278.498-.372s.437-.14.713-.14c.288 0 .528.05.722.15a1.5 1.5 0 0 1 .481.38c.127.154.22.33.282.53s.097.402.108.61h0zM3.003 39.115V34.39H7.55v-2.165H3.003v-2.396h5.1v-2.165H.415v11.452h2.588zm10.17.198c.73 0 1.427-.052 2.09-.157l1.626-.34v-8.395h-2.472v6.71l-.53.058-.564.025c-.575 0-.968-.176-1.178-.53s-.315-.925-.315-1.72h0v-4.545H9.358v4.842c0 .595.06 1.14.183 1.636s.326.923.614 1.28.677.636 1.17.835 1.11.297 1.85.297zm9.407 0c.53 0 .98-.044 1.344-.132s.697-.193.995-.314h0l-.348-1.917c-.232.088-.49.157-.77.207a4.74 4.74 0 0 1-.821.074c-.553 0-.92-.154-1.103-.463s-.274-.722-.274-1.24h0v-3.057h2.97v-2.05h-2.97V27.86l-2.472.397v7.304c0 .562.053 1.074.158 1.537s.3.857.556 1.182.62.578 1.062.76 1 .273 1.676.273zm7.732 0c.73 0 1.427-.052 2.09-.157l1.626-.34v-8.395h-2.472v6.71l-.53.058-.564.025c-.575 0-.968-.176-1.178-.53s-.315-.925-.315-1.72h0v-4.545h-2.472v4.842c0 .595.06 1.14.183 1.636s.326.923.614 1.28.677.636 1.17.835 1.11.297 1.85.297zm8.51-.198v-6.643c.11-.033.274-.063.49-.09s.4-.04.556-.04c.343 0 .664.03.962.09l.78.174.415-2.033c-.133-.055-.293-.102-.48-.14l-.564-.1-.564-.066-.48-.025c-.74 0-1.413.07-2.016.207l-1.568.438v8.23h2.472zm8.56.23a8.75 8.75 0 0 0 .929-.05l.87-.124a6.97 6.97 0 0 0 .738-.174c.22-.066.398-.132.53-.198h0l-.332-2c-.277.12-.633.223-1.07.306a7.17 7.17 0 0 1-1.336.124c-.708 0-1.272-.15-1.692-.446s-.658-.7-.713-1.206h5.608l.033-.454.017-.47c0-1.465-.36-2.575-1.078-3.33s-1.698-1.132-2.937-1.132c-.53 0-1.048.1-1.55.297a3.9 3.9 0 0 0-1.336.876c-.387.386-.7.868-.937 1.446s-.357 1.253-.357 2.024c0 .64.09 1.234.274 1.785s.465 1.027.846 1.43.863.72 1.443.95 1.264.347 2.05.347zm1.195-5.454H45.31c.033-.21.086-.416.158-.62a1.66 1.66 0 0 1 .307-.537c.133-.154.3-.278.498-.372s.437-.14.713-.14c.288 0 .528.05.722.15a1.5 1.5 0 0 1 .481.38c.127.154.22.33.282.53s.097.402.108.61h0z"/></g><path d="M13.382 39.468V26.403H.001v.156c.12 7.077 5.973 12.792 13.222 12.908l.16.001z" class="M"/><path d="M13.503 13.064l-.16.001V0h13.382l-.001.156c-.12 7.076-5.972 12.79-13.22 12.908h0z" class="N"/><path d="M13.22 13.34l.16-.001v13.065H.001v-.156c.12-7.076 5.972-12.79 13.22-12.908h0z" class="E"/><ellipse fill="#ff7800" transform="matrix(1 0 0 -1 0 65.87044)" cx="19.801" cy="32.935" rx="6.418" ry="6.533"/><g class="G"><path d="M13.498.001L13.66 0v13.793H0C0 6.25 6.023.123 13.498.001h0z"/><path d="M185.87 38.14V.86h-8.3v37.28h8.3zm16.726 0V13.717a128.36 128.36 0 0 1 8.843 11.781c2.77 4.16 5.345 8.374 7.724 12.64h6.978V.86h-8.257v22l-4.102-6.052a190.52 190.52 0 0 0-4.395-6.079 160.33 160.33 0 0 0-4.341-5.514c-1.42-1.72-2.717-3.174-3.89-4.357h0-6.765v37.28h8.203zm51.03 0a281.73 281.73 0 0 0 4.315-9.737l4.048-10.006 3.516-9.468L268.33.86h-8.843l-2.317 6.966-2.557 7.45-2.557 7.1-2.264 5.863c-.7-1.65-1.474-3.604-2.29-5.863l-2.53-7.1-2.557-7.45L240.098.86h-9.162l2.797 8.07 3.542 9.468c1.278 3.3 2.628 6.634 4.048 10.006a281.73 281.73 0 0 0 4.315 9.737h8zm34.944.753c2.592 0 5.016-.412 7.27-1.237s4.2-2.053 5.833-3.685 2.92-3.658 3.862-6.08 1.412-5.227 1.412-8.42-.48-5.998-1.438-8.42S303.24 6.6 301.57 4.95a16.21 16.21 0 0 0-5.86-3.712C293.473.412 291.093 0 288.572 0c-2.45 0-4.785.412-7.005 1.237s-4.173 2.062-5.86 3.712-3.027 3.685-4.022 6.106-1.492 5.227-1.492 8.42.48 5.998 1.438 8.42 2.273 4.447 3.942 6.08 3.622 2.86 5.86 3.685 4.617 1.237 7.138 1.237zm0-7.37c-1.563 0-2.948-.287-4.155-.86a8.5 8.5 0 0 1-3.063-2.448c-.835-1.058-1.474-2.322-1.918-3.792s-.666-3.12-.666-4.95c0-1.793.222-3.434.666-4.922s1.083-2.76 1.918-3.82a8.77 8.77 0 0 1 3.063-2.474c1.207-.592 2.592-.888 4.155-.888 1.527 0 2.903.287 4.128.86a8.44 8.44 0 0 1 3.09 2.448c.835 1.058 1.474 2.33 1.918 3.82s.666 3.147.666 4.976-.222 3.48-.666 4.95-1.083 2.734-1.918 3.792a8.44 8.44 0 0 1-3.09 2.448c-1.225.574-2.6.86-4.128.86zm33.612 6.617V.86h-8.3v37.28h8.3zm25.356.753c2.805 0 5.274-.287 7.404-.86s3.782-1.22 4.954-1.937h0l-2.29-6.724-1.545.7c-.568.25-1.225.475-1.97.672s-1.598.368-2.557.51-2.042.215-3.25.215c-1.918 0-3.55-.314-4.9-.94s-2.44-1.48-3.276-2.555-1.438-2.358-1.81-3.846-.56-3.093-.56-4.814c0-2.152.284-3.98.852-5.487s1.323-2.734 2.264-3.685 2.024-1.64 3.25-2.07 2.477-.646 3.755-.646c1.918 0 3.63.215 5.14.646s2.832.95 3.968 1.56h0l2.397-6.778c-.284-.18-.746-.43-1.385-.753s-1.438-.637-2.397-.94-2.077-.574-3.356-.807-2.7-.35-4.26-.35c-2.7 0-5.203.43-7.51 1.29s-4.297 2.125-5.966 3.792-2.983 3.712-3.942 6.132-1.438 5.173-1.438 8.257c0 6.204 1.57 10.992 4.714 14.363s7.715 5.057 13.717 5.057zm43.84-.753v-7.047h-17.845V22.11H388.3v-6.886h-14.755V7.908h16.62V.86h-24.93v37.28h26.155z" class="D"/></g></g><rect x="30" y="129" width="78" height="9" rx="4.5" class="G"/><g class="H"><rect x="28" y="176" width="77" height="10" rx="5"/><rect x="135" y="162" width="77" height="9" rx="4.5"/><rect x="119" y="319" width="176" height="9" rx="3"/><rect x="273" y="395" width="68" height="9" rx="3"/></g><rect x="377" y="319" width="21" height="9" rx="3" class="O"/><g class="H"><rect x="120" y="332" width="99" height="9" rx="3"/><rect x="273" y="407" width="68" height="9" rx="3"/><rect x="135" y="176" width="77" height="10" rx="5"/></g><rect fill="#00c15a" x="285" y="534" width="60" height="21" rx="6.318"/><rect fill="#ffa300" x="351" y="534" width="60" height="21" rx="6.318"/><rect fill="#001d71" x="30" y="115" width="91" height="10" rx="5"/><g class="H"><rect x="30" y="162" width="89" height="9" rx="4.5"/><rect x="135" y="129" width="89" height="9" rx="4.5"/><rect x="119" y="245" width="121" height="9" rx="3"/><rect x="119" y="292" width="71" height="9" rx="3"/></g><g transform="translate(30 233)" class="G"><use xlink:href="#L"/><use xlink:href="#L" y="46.24"/></g><rect x="377" y="407" width="21" height="9" rx="3" class="O"/><rect x="376" y="422" width="34" height="11" rx="4" class="E"/><g class="H"><rect x="135" y="115" width="89" height="9" rx="4.5"/><rect x="119" y="233" width="159" height="9" rx="3"/><rect x="119" y="280" width="132" height="9" rx="3"/></g><g class="O"><rect x="376" y="233" width="26" height="9" rx="3"/><rect x="376" y="280" width="26" height="9" rx="3"/><rect x="376" y="395" width="26" height="9" rx="3"/></g><g stroke="#f4f2ee" stroke-width="1.053" stroke-linecap="square" class="P"><path d="M30 94.5h388"/><path d="M30 209.5h388"/><path d="M30 372.5h388"/><path d="M30 455.5h388"/></g></g><path d="M269.986 653.854c.6-.7 1.022-1.7.9-2.686-.88.034-1.945.564-2.576 1.275-.566.63-1.06 1.637-.928 2.602.98.073 1.984-.48 2.594-1.2m2.2 6.25c.025 2.546 2.322 3.393 2.347 3.404-.02.06-.367 1.207-1.2 2.392-.73 1.025-1.485 2.046-2.677 2.067-1.17.02-1.547-.668-2.886-.668s-1.757.647-2.865.7c-1.15.042-2.026-1.108-2.76-2.13-1.502-2.088-2.65-5.9-1.108-8.475.766-1.278 2.133-2.088 3.62-2.108 1.13-.02 2.196.73 2.886.73s1.986-.904 3.348-.77c.57.023 2.17.222 3.2 1.668-.083.05-1.9 1.072-1.9 3.2m7.734.158c.265.075.56.128.9.158l1.052.045c1.404 0 2.492-.318 3.264-.953s1.158-1.566 1.158-2.8c0-.6-.1-1.105-.304-1.544a2.77 2.77 0 0 0-.866-1.078c-.376-.28-.82-.5-1.334-.635s-1.084-.216-1.708-.216l-1.287.057-.866.124v6.832zm-1.1-7.626l1.498-.204c.546-.06 1.146-.1 1.802-.1.936 0 1.743.1 2.422.33s1.236.534 1.672.942a3.88 3.88 0 0 1 .878 1.293c.21.5.316 1.074.316 1.725 0 .787-.144 1.476-.433 2.065s-.682 1.086-1.182 1.487-1.092.7-1.778.896a8.13 8.13 0 0 1-2.247.295c-.733 0-1.35-.053-1.848-.16v6.536h-1.1v-15.116zm16.235 9.283c-.593-.015-1.213.007-1.86.068s-1.244.193-1.8.397a3.43 3.43 0 0 0-1.357.896c-.358.394-.538.916-.538 1.566 0 .772.226 1.34.678 1.702s.96.544 1.52.544a3.83 3.83 0 0 0 1.217-.18 3.18 3.18 0 0 0 .936-.488c.266-.204.487-.435.667-.692s.316-.522.4-.794c.078-.303.117-.523.117-.66v-2.36zm1.1 3.245l.023 1.317a8.24 8.24 0 0 0 .14 1.27h-1.03l-.163-1.543h-.047a3.91 3.91 0 0 1-.538.636 4.29 4.29 0 0 1-.76.578 4.08 4.08 0 0 1-.983.42c-.367.106-.768.158-1.205.158-.546 0-1.026-.087-1.44-.26s-.753-.4-1.018-.68a2.77 2.77 0 0 1-.596-.965 3.15 3.15 0 0 1-.199-1.089c0-1.286.557-2.277 1.673-2.973s2.797-1.03 5.043-1v-.295a6.79 6.79 0 0 0-.082-.987 3.04 3.04 0 0 0-.363-1.055c-.187-.333-.468-.613-.842-.84s-.88-.34-1.52-.34a4.95 4.95 0 0 0-1.438.215c-.476.144-.9.344-1.3.6l-.35-.795c.5-.332 1.014-.57 1.544-.714a6.31 6.31 0 0 1 1.661-.216c.78 0 1.416.128 1.907.386a3.23 3.23 0 0 1 1.158 1c.28.4.472.866.574 1.373a7.69 7.69 0 0 1 .152 1.509v4.3zm2.15-8.307l2.854 7.082.445 1.214.374 1.146h.047l.374-1.124.468-1.283 2.668-7.036h1.17l-3.252 8-.925 2.304-.877 1.86a13.47 13.47 0 0 1-.9 1.464 6.16 6.16 0 0 1-1.018 1.112c-.437.378-.838.654-1.205.83l-.737.33-.375-.886a9.34 9.34 0 0 0 .936-.477c.343-.197.68-.454 1.006-.772.28-.272.6-.632.924-1.078s.636-.987.9-1.623c.094-.242.14-.4.14-.477 0-.106-.047-.265-.14-.477l-4.048-10.1h1.17" fill="#0b0b09"/><g transform="translate(0 93)" filter="url(#I)"><g transform="translate(0 .455)"><mask id="O" class="B"><use xlink:href="#J"/></mask><use xlink:href="#J" class="B"/><use fill-opacity=".308" fill="#ffa300" xlink:href="#J"/><g class="C D I"><path d="M160.173 454.997v-6.433c3.25-.48 5.582-1.544 7-3.19s2.126-3.602 2.126-5.867c0-1.5-.268-2.813-.804-3.91s-1.27-2.05-2.203-2.856-2.03-1.5-3.292-2.1l-4.018-1.724-2.696-1.004c-.795-.326-1.47-.67-2.022-1.03s-.968-.772-1.244-1.235-.415-1.038-.415-1.724c0-1.167.467-2.084 1.4-2.753s2.333-1.004 4.2-1.004c1.763 0 3.327.172 4.692.515l3.55 1.08 1.296-5.095c-.76-.31-1.797-.626-3.11-.952s-2.8-.558-4.46-.695h0v-5.558h-5.392v5.764c-2.938.48-5.116 1.552-6.533 3.216s-2.126 3.68-2.126 6.047c0 1.44.26 2.66.778 3.654a8.2 8.2 0 0 0 2.048 2.547c.847.703 1.797 1.295 2.852 1.775l3.19 1.287 3.137 1.184c.95.377 1.77.79 2.463 1.235s1.227.96 1.607 1.544.57 1.27.57 2.06c0 1.167-.458 2.1-1.374 2.805s-2.566 1.055-4.95 1.055c-2.005 0-3.793-.223-5.366-.67s-2.912-.943-4.018-1.492h0l-1.763 4.89c.76.412 1.9.866 3.448 1.364s3.55.832 6.04 1.004h0v6.28h5.392zm27.795 0v-6.433c3.25-.48 5.582-1.544 7-3.19s2.126-3.602 2.126-5.867c0-1.5-.268-2.813-.804-3.91s-1.27-2.05-2.203-2.856-2.03-1.5-3.292-2.1l-4.018-1.724-2.696-1.004c-.795-.326-1.47-.67-2.022-1.03s-.968-.772-1.244-1.235-.415-1.038-.415-1.724c0-1.167.467-2.084 1.4-2.753s2.333-1.004 4.2-1.004c1.763 0 3.327.172 4.692.515l3.55 1.08 1.296-5.095c-.76-.31-1.797-.626-3.11-.952s-2.8-.558-4.46-.695h0v-5.558h-5.392v5.764c-2.938.48-5.116 1.552-6.533 3.216s-2.126 3.68-2.126 6.047c0 1.44.26 2.66.778 3.654a8.2 8.2 0 0 0 2.048 2.547c.847.703 1.797 1.295 2.852 1.775l3.19 1.287 3.137 1.184c.95.377 1.77.79 2.463 1.235s1.227.96 1.607 1.544.57 1.27.57 2.06c0 1.167-.458 2.1-1.374 2.805s-2.566 1.055-4.95 1.055c-2.005 0-3.793-.223-5.366-.67s-2.912-.943-4.018-1.492h0l-1.763 4.89c.76.412 1.9.866 3.448 1.364s3.55.832 6.04 1.004h0v6.28h5.392zm26.532 0v-6.433c3.25-.48 5.582-1.544 7-3.19s2.126-3.602 2.126-5.867c0-1.5-.268-2.813-.804-3.91s-1.27-2.05-2.203-2.856-2.03-1.5-3.292-2.1l-4.018-1.724-2.696-1.004c-.795-.326-1.47-.67-2.022-1.03s-.968-.772-1.244-1.235-.415-1.038-.415-1.724c0-1.167.467-2.084 1.4-2.753s2.333-1.004 4.2-1.004c1.763 0 3.327.172 4.692.515l3.55 1.08 1.296-5.095c-.76-.31-1.797-.626-3.11-.952s-2.8-.558-4.46-.695h0v-5.558h-5.392v5.764c-2.938.48-5.116 1.552-6.533 3.216s-2.126 3.68-2.126 6.047c0 1.44.26 2.66.778 3.654a8.2 8.2 0 0 0 2.048 2.547c.847.703 1.797 1.295 2.852 1.775l3.19 1.287 3.137 1.184c.95.377 1.77.79 2.463 1.235s1.227.96 1.607 1.544.57 1.27.57 2.06c0 1.167-.458 2.1-1.374 2.805s-2.566 1.055-4.95 1.055c-2.005 0-3.793-.223-5.366-.67s-2.912-.943-4.018-1.492h0l-1.763 4.89c.76.412 1.9.866 3.448 1.364s3.55.832 6.04 1.004h0v6.28h5.392zm26.532 0v-6.433c3.25-.48 5.582-1.544 7-3.19s2.126-3.602 2.126-5.867c0-1.5-.268-2.813-.804-3.91s-1.27-2.05-2.203-2.856-2.03-1.5-3.292-2.1l-4.018-1.724-2.696-1.004c-.795-.326-1.47-.67-2.022-1.03s-.968-.772-1.244-1.235-.415-1.038-.415-1.724c0-1.167.467-2.084 1.4-2.753s2.333-1.004 4.2-1.004c1.763 0 3.327.172 4.692.515l3.55 1.08 1.296-5.095c-.76-.31-1.797-.626-3.11-.952s-2.8-.558-4.46-.695h0v-5.558h-5.392v5.764c-2.938.48-5.116 1.552-6.533 3.216s-2.126 3.68-2.126 6.047c0 1.44.26 2.66.778 3.654a8.2 8.2 0 0 0 2.048 2.547c.847.703 1.797 1.295 2.852 1.775l3.19 1.287 3.137 1.184c.95.377 1.77.79 2.463 1.235s1.227.96 1.607 1.544.57 1.27.57 2.06c0 1.167-.458 2.1-1.374 2.805s-2.566 1.055-4.95 1.055c-2.005 0-3.793-.223-5.366-.67s-2.912-.943-4.018-1.492h0l-1.763 4.89c.76.412 1.9.866 3.448 1.364s3.55.832 6.04 1.004h0v6.28h5.392z"/><path d="M63.04 118.983v-6.564H48.02V85.035h-7.63v33.948h22.65zm15.85.686c1.924 0 3.66-.327 5.2-.98s2.878-1.576 3.987-2.768 1.957-2.63 2.544-4.31.88-3.535.88-5.56-.3-3.87-.93-5.535-1.484-3.086-2.593-4.262S85.55 94.163 84 93.5s-3.253-.98-5.112-.98c-1.826 0-3.514.327-5.063.98s-2.886 1.568-4.01 2.743-2.006 2.596-2.642 4.262-.954 3.51-.954 5.535.3 3.878.93 5.56 1.484 3.12 2.593 4.31 2.438 2.115 3.987 2.768 3.27.98 5.16.98zm0-6.27c-1.663 0-2.95-.66-3.865-1.984s-1.37-3.11-1.37-5.364.457-4.025 1.37-5.315 2.2-1.935 3.865-1.935 2.943.645 3.84 1.935 1.345 3.062 1.345 5.315-.448 4.04-1.345 5.364-2.177 1.984-3.84 1.984zm29.694 6.27c1.924 0 3.66-.327 5.2-.98s2.878-1.576 3.987-2.768 1.957-2.63 2.544-4.31.88-3.535.88-5.56-.3-3.87-.93-5.535-1.484-3.086-2.593-4.262-2.438-2.1-3.987-2.743-3.253-.98-5.112-.98c-1.826 0-3.514.327-5.063.98s-2.886 1.568-4.01 2.743-2.006 2.596-2.642 4.262-.954 3.51-.954 5.535.3 3.878.93 5.56 1.484 3.12 2.593 4.31 2.438 2.115 3.987 2.768 3.27.98 5.16.98zm0-6.27c-1.663 0-2.95-.66-3.865-1.984s-1.37-3.11-1.37-5.364.457-4.025 1.37-5.315 2.2-1.935 3.865-1.935 2.943.645 3.84 1.935 1.345 3.062 1.345 5.315-.448 4.04-1.345 5.364-2.177 1.984-3.84 1.984zm25.536 5.584v-11.267c.815.653 1.64 1.453 2.47 2.4l2.373 2.964 2.128 3.086 1.786 2.817h8.365l-2.055-3.576-2.69-3.92-3.033-3.796c-1.044-1.225-2.055-2.278-3.033-3.16l5.406-5.61 5.063-5.707h-8.66l-1.64 1.96-2.03 2.376-2.226 2.523-2.226 2.45V80.97l-7.29 1.176v36.838h7.29zm24.655-28.902c1.174 0 2.193-.384 3.057-1.15s1.296-1.82 1.296-3.16-.432-2.392-1.296-3.16-1.883-1.15-3.057-1.15-2.193.384-3.057 1.15-1.296 1.82-1.296 3.16.432 2.392 1.296 3.16 1.883 1.15 3.057 1.15zm3.67 28.902V93.216h-7.29v25.767h7.29zm14.138 0V99.094l1.565-.17 1.663-.073c1.696 0 2.854.5 3.473 1.47s.93 2.645.93 4.997h0v13.667h7.29v-14.55c0-1.764-.18-3.364-.538-4.8s-.962-2.678-1.8-3.723-1.998-1.853-3.45-2.425-3.27-.857-5.455-.857c-2.152 0-4.207.155-6.164.465l-4.794 1.004v24.885h7.29zm30.624 9.21c4.468 0 7.77-1.02 9.906-3.062s3.204-5.168 3.204-9.38h0V94.098c-.652-.196-1.394-.384-2.226-.563a37.68 37.68 0 0 0-2.617-.465c-.913-.13-1.834-.237-2.764-.318s-1.834-.122-2.715-.122c-2.055 0-3.897.302-5.528.906s-3.01 1.46-4.134 2.572-1.98 2.44-2.568 3.992-.88 3.274-.88 5.168c0 3.788.946 6.736 2.837 8.842s4.615 3.16 8.17 3.16c.978 0 1.883-.1 2.715-.27s1.64-.45 2.422-.808h0v.93c0 1.437-.432 2.613-1.296 3.527s-2.34 1.372-4.427 1.372c-1.598 0-3.025-.13-4.28-.392a21.34 21.34 0 0 1-3.596-1.078h0l-1.272 6.123c1.337.457 2.788.825 4.354 1.102a26.85 26.85 0 0 0 4.696.416zm2.055-16.802c-3.294 0-4.94-2.04-4.94-6.123 0-1.96.473-3.576 1.42-4.85s2.38-1.9 4.305-1.9c.652 0 1.223.024 1.712.073s.913.106 1.272.17h0v11.66c-.457.26-1.01.5-1.663.686s-1.353.294-2.104.294zM43.52 129.047c1.174 0 2.193-.384 3.057-1.15s1.296-1.82 1.296-3.16-.432-2.392-1.296-3.16-1.883-1.15-3.057-1.15-2.193.384-3.057 1.15-1.296 1.82-1.296 3.16.432 2.392 1.296 3.16 1.883 1.15 3.057 1.15zm3.67 28.902v-25.767H39.9v25.767h7.29zm14.138 0V138.06c.457-.065.978-.122 1.565-.17a20.05 20.05 0 0 1 1.663-.073c1.696 0 2.854.5 3.473 1.47s.93 2.645.93 4.997h0v13.667h7.29V143.4c0-1.764-.18-3.364-.538-4.8s-.962-2.678-1.8-3.723-1.998-1.853-3.45-2.425-3.27-.857-5.455-.857c-2.152 0-4.207.155-6.164.465s-3.555.645-4.794 1.004h0v24.885h7.29zm31.455.588c1.565 0 2.886-.13 3.962-.392s2.055-.572 2.935-.93h0l-1.027-5.682c-.685.26-1.443.465-2.275.612s-1.64.22-2.422.22c-1.63 0-2.715-.457-3.253-1.372s-.807-2.14-.807-3.674h0v-9.062h8.757v-6.074h-8.757v-7.593l-7.29 1.176v21.652c0 1.666.155 3.184.465 4.556s.856 2.54 1.64 3.503 1.826 1.715 3.13 2.253 2.95.808 4.94.808zm22.258.098c1.924 0 3.66-.327 5.2-.98s2.878-1.576 3.987-2.768 1.957-2.63 2.544-4.31.88-3.535.88-5.56-.3-3.87-.93-5.535-1.484-3.086-2.593-4.262-2.438-2.1-3.987-2.743-3.253-.98-5.112-.98c-1.826 0-3.514.327-5.063.98s-2.886 1.568-4.01 2.743-2.006 2.596-2.642 4.262-.954 3.51-.954 5.535.3 3.878.93 5.56 1.484 3.12 2.593 4.31 2.438 2.115 3.987 2.768 3.27.98 5.16.98zm0-6.27c-1.663 0-2.95-.66-3.865-1.984s-1.37-3.11-1.37-5.364.457-4.025 1.37-5.315 2.2-1.935 3.865-1.935 2.943.645 3.84 1.935 1.345 3.062 1.345 5.315-.448 4.04-1.345 5.364-2.177 1.984-3.84 1.984zm39.918 6.172c1.565 0 2.886-.13 3.962-.392s2.055-.572 2.935-.93h0l-1.027-5.682c-.685.26-1.443.465-2.275.612s-1.64.22-2.422.22c-1.63 0-2.715-.457-3.253-1.372s-.807-2.14-.807-3.674h0v-9.062h8.757v-6.074h-8.757v-7.593l-7.29 1.176v21.652c0 1.666.155 3.184.465 4.556s.856 2.54 1.64 3.503 1.826 1.715 3.13 2.253 2.95.808 4.94.808zm19.08-.588v-19.595c.457-.13.97-.253 1.54-.367s1.182-.17 1.834-.17c1.63 0 2.748.5 3.35 1.47s.905 2.645.905 4.997h0v13.667h7.29V143.4c0-1.764-.17-3.364-.514-4.8s-.93-2.678-1.76-3.723-1.94-1.853-3.327-2.425-3.123-.857-5.2-.857c-.717 0-1.46.073-2.226.22s-1.394.302-1.883.465h0v-12.345l-7.29 1.176v36.838h7.29zm33.9.686a25.66 25.66 0 0 0 2.739-.147 34.68 34.68 0 0 0 2.568-.367 20.46 20.46 0 0 0 2.177-.514c.652-.196 1.174-.392 1.565-.588h0L216 151.09c-.815.36-1.867.66-3.155.906s-2.6.367-3.938.367c-2.087 0-3.75-.44-5-1.323s-1.94-2.074-2.104-3.576h16.535l.098-1.347a21.84 21.84 0 0 0 .049-1.396c0-4.343-1.06-7.634-3.18-9.87s-5.006-3.356-8.66-3.356c-1.565 0-3.1.294-4.574.882s-2.797 1.453-3.938 2.596-2.063 2.572-2.764 4.286-1.052 3.715-1.052 6c0 1.894.27 3.658.807 5.29s1.37 3.045 2.495 4.237 2.544 2.13 4.256 2.817 3.726 1.03 6.042 1.03zm3.522-16.166h-9.637a10.46 10.46 0 0 1 .465-1.837c.212-.604.514-1.135.905-1.592s.88-.825 1.468-1.102 1.288-.416 2.104-.416c.848 0 1.557.147 2.128.44s1.044.67 1.42 1.127.652.98.832 1.568.285 1.192.318 1.812h0zM48.02 196.916v-14h13.404v-6.417H48.02v-7.103h15.067v-6.417h-22.7v33.948h7.63zm29.988.588c2.152 0 4.207-.155 6.164-.465s3.555-.645 4.794-1.004h0V171.15h-7.29v19.888c-.457.065-.978.122-1.565.17a20.05 20.05 0 0 1-1.663.073c-1.696 0-2.854-.523-3.473-1.568s-.93-2.743-.93-5.095h0v-13.47h-7.29v14.353c0 1.764.18 3.38.538 4.85s.962 2.735 1.8 3.796 1.998 1.886 3.45 2.474 3.27.882 5.455.882zm27.737 0c1.565 0 2.886-.13 3.962-.392s2.055-.572 2.935-.93h0l-1.027-5.682c-.685.26-1.443.465-2.275.612s-1.64.22-2.422.22c-1.63 0-2.715-.457-3.253-1.372s-.807-2.14-.807-3.674h0v-9.062h8.757v-6.074h-8.757v-7.593l-7.29 1.176v21.652c0 1.666.155 3.184.465 4.556s.856 2.54 1.64 3.503 1.826 1.715 3.13 2.253 2.95.808 4.94.808zm22.797 0c2.152 0 4.207-.155 6.164-.465s3.555-.645 4.794-1.004h0V171.15h-7.29v19.888c-.457.065-.978.122-1.565.17a20.05 20.05 0 0 1-1.663.073c-1.696 0-2.854-.523-3.473-1.568s-.93-2.743-.93-5.095h0v-13.47h-7.29v14.353c0 1.764.18 3.38.538 4.85s.962 2.735 1.8 3.796 1.998 1.886 3.45 2.474 3.27.882 5.455.882zm25.096-.588v-19.693c.326-.098.807-.188 1.443-.27s1.182-.122 1.64-.122c1.01 0 1.957.1 2.837.27a54.3 54.3 0 0 1 2.299.514h0l1.223-6.025c-.39-.163-.864-.302-1.42-.416s-1.11-.212-1.663-.294-1.11-.147-1.663-.196-1.027-.073-1.42-.073c-2.185 0-4.166.204-5.944.612s-3.318.84-4.623 1.298h0v24.395h7.29zm25.243.686a25.66 25.66 0 0 0 2.739-.147 34.68 34.68 0 0 0 2.568-.367 20.46 20.46 0 0 0 2.177-.514c.652-.196 1.174-.392 1.565-.588h0l-.978-5.927c-.815.36-1.867.66-3.155.906s-2.6.367-3.938.367c-2.087 0-3.75-.44-5-1.323s-1.94-2.074-2.104-3.576H189.3l.098-1.347a21.84 21.84 0 0 0 .049-1.396c0-4.343-1.06-7.634-3.18-9.87s-5.006-3.356-8.66-3.356c-1.565 0-3.1.294-4.574.882s-2.797 1.453-3.938 2.596-2.063 2.572-2.764 4.286-1.052 3.715-1.052 6c0 1.894.27 3.658.807 5.29s1.37 3.045 2.495 4.237 2.544 2.13 4.256 2.817 3.726 1.03 6.042 1.03zm3.522-16.166h-9.637a10.46 10.46 0 0 1 .465-1.837c.212-.604.514-1.135.905-1.592s.88-.825 1.468-1.102 1.288-.416 2.104-.416c.848 0 1.557.147 2.128.44s1.044.67 1.42 1.127.652.98.832 1.568.285 1.192.318 1.812h0z"/></g><path d="M57.503 70.9v-2.475h-14.18v-.087c0-.695.166-1.397.5-2.106s.78-1.433 1.344-2.17 1.2-1.476 1.908-2.214l2.2-2.193 2.645-2.605c.867-.868 1.64-1.766 2.32-2.692s1.22-1.89 1.626-2.887.607-2.062.607-3.19c0-2.547-.737-4.537-2.21-5.97s-3.67-2.15-6.59-2.15c-1.098 0-2.096.137-2.992.412s-1.684.6-2.363.977-1.243.76-1.69 1.15l-.932.9 1.474 1.954c.173-.174.448-.42.824-.738s.83-.63 1.366-.934 1.164-.572 1.886-.803 1.547-.347 2.472-.347c1.648 0 3.014.44 4.098 1.324s1.626 2.337 1.626 4.364c0 .926-.145 1.78-.434 2.562a9.57 9.57 0 0 1-1.171 2.214 15.67 15.67 0 0 1-1.713 2.019l-2.06 2.02-2.7 2.605c-.94.897-1.792 1.867-2.558 2.91a16.1 16.1 0 0 0-1.886 3.322c-.49 1.172-.737 2.44-.737 3.8l.022.716.022.326h17.3zm15.87.65c3.064 0 5.442-1.346 7.133-4.038s2.537-6.57 2.537-11.637c0-5.095-.846-8.988-2.537-11.68s-4.07-4.038-7.133-4.038c-3.093 0-5.478 1.346-7.154 4.038s-2.515 6.585-2.515 11.68c0 5.066.846 8.944 2.537 11.637s4.07 4.038 7.133 4.038zm0-2.562c-1.272 0-2.327-.362-3.165-1.085s-1.5-1.686-2.016-2.887-.867-2.59-1.084-4.168-.325-3.235-.325-4.972.108-3.394.325-4.972.578-2.974 1.084-4.2 1.178-2.185 2.016-2.91 1.893-1.085 3.165-1.085c1.243 0 2.284.362 3.122 1.085s1.518 1.693 2.038 2.91.89 2.612 1.106 4.2.325 3.235.325 4.972-.108 3.394-.325 4.972-.585 2.967-1.106 4.168-1.2 2.164-2.038 2.887-1.88 1.085-3.122 1.085zm33.04 1.9v-2.475h-14.18v-.087c0-.695.166-1.397.5-2.106s.78-1.433 1.344-2.17 1.2-1.476 1.908-2.214a78.25 78.25 0 0 1 2.19-2.193l2.645-2.605c.867-.868 1.64-1.766 2.32-2.692s1.22-1.89 1.626-2.887.607-2.062.607-3.19c0-2.547-.737-4.537-2.21-5.97s-3.67-2.15-6.59-2.15c-1.098 0-2.096.137-2.992.412s-1.684.6-2.363.977-1.243.76-1.69 1.15-.76.687-.932.9h0l1.474 1.954c.173-.174.448-.42.824-.738s.83-.63 1.366-.934 1.164-.572 1.886-.803 1.547-.347 2.472-.347c1.648 0 3.014.44 4.098 1.324s1.626 2.337 1.626 4.364c0 .926-.145 1.78-.434 2.562a9.57 9.57 0 0 1-1.171 2.214 15.67 15.67 0 0 1-1.713 2.019l-2.06 2.02-2.7 2.605c-.94.897-1.792 1.867-2.558 2.91a16.1 16.1 0 0 0-1.886 3.322c-.49 1.172-.737 2.44-.737 3.8a8.65 8.65 0 0 0 .022.716c.014.16.022.268.022.326h17.3zm18.95 0v-30.1h-1.995c-1.33 1.62-2.674 2.902-4.033 3.843s-2.905 1.715-4.64 2.323h0l.824 2.17a13.67 13.67 0 0 0 2.081-.803c.694-.333 1.36-.68 1.995-1.042s1.207-.73 1.713-1.107.918-.738 1.236-1.085h0V70.9h2.818z" class="D E I"/><g opacity=".92" class="I"><g transform="translate(39.166 217.605)"><g transform="translate(105.622)"><path d="M106.673 53.324V.06H53.675l.005.627c.466 28.858 23.656 52.164 52.37 52.632l.622.005z" fill="#2ac2ff"/><path d="M106.673 54.54v53.264H53.675l.005-.627c.466-28.858 23.656-52.164 52.37-52.632l.622-.005z" class="N"/><path d="M53.675 107.805V54.54H.677l.005.627c.466 28.858 23.656 52.164 52.37 52.632l.622.005z" fill="#ff9d00"/><ellipse cx="27.177" cy="26.692" rx="26.499" ry="26.632" class="M"/><ellipse cx="27.177" cy="134.625" rx="26.499" ry="26.632" class="E"/></g><path d="M54.48 161.433v-53.44H0l.005.628c.48 28.953 24.317 52.337 53.833 52.806l.64.005z" class="M"/><path d="M54.48 0v53.44H0l.005-.628C.484 23.858 24.322.475 53.84.005L54.48 0z" class="G"/><path d="M54.48 53.44V0h54.48l-.005.628c-.48 28.953-24.317 52.337-53.833 52.806l-.64.005z" class="N"/><path d="M54.48 54.553v53.44H0l.005-.628C.484 78.41 24.322 55.028 53.84 54.558l.64-.005z" class="E"/><ellipse fill="#ff7800" transform="matrix(1 0 0 -1 0 269.425324)" cx="80.606" cy="134.713" rx="26.128" ry="26.72"/></g></g></g></g></g></svg>