<svg xmlns="http://www.w3.org/2000/svg" xmlns:xlink="http://www.w3.org/1999/xlink" width="1925" height="1569" xmlns:v="https://vecta.io/nano"><style><![CDATA[.B{stroke-width:1.2}.C{stroke-linejoin:round}.D{stroke-linecap:round}.E{fill:#fff}.F{fill-rule:nonzero}.G{fill:#f4f2ee}.H{stroke:#001d75}.I{fill:#f2f4f6}.J{stroke:#212121}.K{fill:#001d75}.L{fill:#ff9d00}.M{fill:#06f}.N{stroke:#f4f2ee}.O{fill:#0064ff}.P{mask:url(#Z)}.Q{fill:#212121}.R{fill:#ff0025}.S{stroke:#ffc200}.T{fill:#ff243a}.U{fill:#ff0034}]]></style><defs><filter x="-19.4%" y="-6.6%" width="129.3%" height="113.3%" id="A"><feOffset dy="10" in="SourceAlpha"/><feGaussianBlur stdDeviation="10"/><feColorMatrix values="0 0 0 0 0 0 0 0 0 0.164542109 0 0 0 0 0.362271488 0 0 0 0.1 0" result="C"/><feMerge><feMergeNode in="C"/><feMergeNode in="SourceGraphic"/></feMerge></filter><filter x="-23.1%" y="-220.4%" width="146.2%" height="540.8%" id="B"><feOffset dy="24" in="SourceAlpha"/><feGaussianBlur stdDeviation="16"/><feColorMatrix values="0 0 0 0 0.3515625 0 0 0 0 0.3515625 0 0 0 0 0.3515625 0 0 0 0.1 0" result="C"/><feMerge><feMergeNode in="C"/><feMergeNode in="SourceGraphic"/></feMerge></filter><filter x="-10.6%" y="-20.9%" width="121.1%" height="141.8%" id="C"><feOffset dy="21" in="SourceAlpha"/><feGaussianBlur stdDeviation="21.5"/><feColorMatrix values="0 0 0 0 0 0 0 0 0 0.164542109 0 0 0 0 0.362271488 0 0 0 0.1 0" result="C"/><feMerge><feMergeNode in="C"/><feMergeNode in="SourceGraphic"/></feMerge></filter><filter x="-3.4%" y="-1.4%" width="106.7%" height="102.7%" id="D"><feOffset dy="1" in="SourceAlpha"/><feGaussianBlur stdDeviation="2"/><feColorMatrix values="0 0 0 0 0 0 0 0 0 0.160784314 0 0 0 0 0.349019608 0 0 0 0.1 0" result="C"/><feMerge><feMergeNode in="C"/><feMergeNode in="SourceGraphic"/></feMerge></filter><filter x="-3.7%" y="-7.6%" width="107.4%" height="115.3%" id="E"><feOffset dy="7" in="SourceAlpha"/><feGaussianBlur stdDeviation="7"/><feColorMatrix values="0 0 0 0 0 0 0 0 0 0.164542109 0 0 0 0 0.362271488 0 0 0 0.1 0" result="C"/><feMerge><feMergeNode in="C"/><feMergeNode in="SourceGraphic"/></feMerge></filter><path id="F" d="M0 .033h1097.115v530.18H0z"/><filter x="-13.2%" y="-12.4%" width="126.3%" height="124.8%" id="G"><feOffset dy="1" in="SourceAlpha"/><feGaussianBlur stdDeviation="1"/><feColorMatrix values="0 0 0 0 0 0 0 0 0 0 0 0 0 0 0 0 0 0 0.3 0" result="C"/><feMerge><feMergeNode in="C"/><feMergeNode in="SourceGraphic"/></feMerge></filter><path id="H" d="M0 0h588v80.4H0z"/><path id="I" d="M23.946 0A23.95 23.95 0 0 0 0 23.946a23.95 23.95 0 0 0 23.946 23.946 23.95 23.95 0 0 0 23.946-23.946A23.95 23.95 0 0 0 23.946 0z"/><path id="J" d="M23.12 16.11c2.838 0 6.325-.178 10.46-.535l1.073-5.266h-4.648l.358-7.675H4.617L4.46 6.89C1.486 6.063 0 6.452 0 8.06s1.33 2.565 3.99 2.876l.894 4.105c9.32.714 15.397 1.07 18.236 1.07z"/><path id="K" d="M.183.61c-.128 2.24 1.864 2.812 2.416.75C3.02-.214.724-.363 0 .61"/><path id="L" d="M7.686.254c.04.477.01.964.117 1.43.463 2.024 3 .06 1.65-1.63"/><path id="M" d="M31.006.001c.55 0-.1 4.918-.447 5.905-.44 1.252-1.475.982-2.592.982a8.2 8.2 0 0 1-.931-.043 15.22 15.22 0 0 0-1.72-1.764l-.5-.414.124.725-.16-.253c-.677 1.7-2.042 2.194-3.697 2.194-3.828 0-5.355-2.916-4.743-7.333h14.665zM23.4 1.993h-5.17l-.002.025c-.065 1.06.055 1.883.34 2.473l.17.298c.45.665 1.253 1.013 2.526 1.013.866 0 1.462-.557 1.842-1.922l.102-.412.073-.42.07-.565.05-.49zm6.142 0h-3.83c.544 2.23 1.262 3.2 2.595 3.343l.375.02c.054 0 .082-.01.133-.06.107-.102.225-.303.333-.612.176-.502.3-1.208.363-2.108l.032-.583z"/><path id="N" d="M25.412 5.74c1.798 1.42 3.392 3.486 3.12 3.827-.358.446-1.65.538-1.967.357-.254-.145-.14.052-.14 1.716"/><path id="O" d="M21.485 10.244c2.105 1.562 4.442 1.76 6.75 1.286"/><path id="P" d="M23.74 14.252c.45 1.803 1.515 2.94 2.642 4.448"/><path id="Q" d="M25.58 14.055c1.23 3.894.958 2.233 1.237 4.897"/><path id="R" d="M27.112 14.336c.368 3.786.323 2.212.323 4.715"/><path id="S" d="M29.88 14.476c-.1 1.835-.585 3.3-1.504 4.883"/><path id="T" d="M31.13 14.294c-.168 1.8-.68 3.515-1.883 4.91"/><path id="U" d="M31.82 16.216c-1.488 1.994-1.668 2.605-3.893 3.13"/><path id="V" d="M11.81 2.858c-.058.923.84 1.158 1.09.308.2-.648-.845-.7-1.17-.308"/><path id="W" d="M23.362 0C10.46 0 0 10.46 0 23.362s10.46 23.362 23.362 23.362 23.362-10.46 23.362-23.362S36.264 0 23.362 0z"/><path id="X" d="M3.67 8.318c-.14-.915.023-1.546.487-1.893.843-.63 1.978.45 2.093 1.252.135.948-.607 2.42-1.32 2.183-.682-.227-1.102-.742-1.26-1.542z"/><path id="Y" d="M0 17.977h35.944v-3.594H0z"/></defs><g transform="translate(99 32)" fill="none" fill-rule="evenodd"><g transform="translate(0 11)"><g filter="url(#A)"><g transform="translate(0 441.6)"><use xlink:href="#H" class="E"/><g transform="translate(24 16.8)"><use xlink:href="#I" class="F M"/><g transform="translate(6.609 14.953)"><g transform="translate(0 .006)"><use xlink:href="#J" class="L"/><g transform="translate(19.276 1.927)" class="Q"><use xlink:href="#K"/><use xlink:href="#L"/></g><use xlink:href="#M" class="F R"/><g class="B C D J"><use xlink:href="#N"/><use xlink:href="#O"/></g><g class="H B C D"><use xlink:href="#P"/><use xlink:href="#Q"/><use xlink:href="#R"/><path d="M28.742 14.336l-.843 5.178"/><use xlink:href="#S"/><use xlink:href="#T"/><use xlink:href="#U"/></g><path d="M21.635 9.592c-.135.362-.403.72-.85.74" class="B C D J"/></g></g></g><g class="G"><rect x="249.6" y="33.6" width="117.6" height="14.4" rx="7.2"/><rect x="96" y="33.6" width="112.8" height="14.4" rx="7.2"/></g><rect x="407.2" y="33.6" width="84" height="14.4" rx="7.2" class="I"/></g><g transform="translate(0 704.4)"><use xlink:href="#H" class="E"/><g class="G"><rect x="249.6" y="33.6" width="138" height="14.4" rx="7.2"/><rect x="96" y="33.6" width="85.2" height="14.4" rx="7.2"/></g><rect x="407.2" y="33.6" width="84" height="14.4" rx="7.2" class="I"/></g><g transform="translate(0 616.8)"><use xlink:href="#H" class="E"/><g class="G"><rect x="249.6" y="33.6" width="109.2" height="14.4" rx="7.2"/><rect x="96" y="33.6" width="112.8" height="14.4" rx="7.2"/></g><rect x="407.2" y="33.6" width="84" height="14.4" rx="7.2" class="I"/></g><g transform="translate(0 529.2)"><use xlink:href="#H" class="E"/><g class="G"><rect x="249.6" y="33.6" width="117.6" height="14.4" rx="7.2"/><rect x="96" y="33.6" width="85.2" height="14.4" rx="7.2"/></g><rect x="407.2" y="33.6" width="84" height="14.4" rx="7.2" class="I"/></g><g transform="translate(0 792)"><use xlink:href="#H" class="E"/><g class="G"><rect x="249.6" y="33.6" width="109.2" height="14.4" rx="7.2"/><rect x="96" y="33.6" width="112.8" height="14.4" rx="7.2"/></g><rect x="407.2" y="33.6" width="84" height="14.4" rx="7.2" class="I"/></g><use xlink:href="#H" class="E"/><g transform="translate(25.2 16.8)"><path d="M24 0C10.745 0 0 10.745 0 24s10.745 24 24 24 24-10.745 24-24S37.255 0 24 0z" fill="#cce4ff" class="F"/><g transform="translate(11.403 6.95)"><g transform="translate(7.276 .434)" fill="#ff5fa7"><path d="M16.072 2.79c-.57 12.67-14.364 17.37-5.546 25.626 2.107 1.973-11.554 2-10.382 0C6.402 17.74-.14 15.462.002 3.93.02 2.57.21 1.294.553.123 7.42-.07 12.45.107 15.646.656c.254.044.396.756.427 2.136z"/></g><g class="B C D S"><path d="M25.195 1.738C24.44 5.02 23 8.386 22.723 11.758c-.2 2.444-.1 4.904-.135 7.356"/><path d="M24.326 1.63c-1.695 4.264-2.352 8.1-2.512 12.708-.126 3.62-.488 2.736.234 4.233"/><path d="M22.045 4.235c-1.59 6.567-1.664 8.69-.55 15.42"/><path d="M21.394 20.416C17.447 16.872 19.1 10.682 20.158 6.3"/></g><path d="M13.742 3.15c.24 1.185.175 1.98-.196 2.384-1.97 2.145-2.736 2.97-4.95 6.024-.03.042-.02.15.03.152.246.002.52-.006.722-.144 1.42-.972 2.518-2.45 4.09-3.15 2.117-.944-2.903 2.317-1.688 2.953.497.26 9.176-.934 6.37-.374s-6.973 1.336-6.623 1.793c1.46 1.905 1.827 2.776 1.46 4.482" class="B C D J"/><g class="S B C D"><path d="M8.47 5.43c-1.274 3.388-2.98 11.64-8 12.596-.064.012-.097-.086-.145-.13"/><path d="M7.7 3.15C6.556 8.87 4.85 13.925.11 17.267"/><path d="M7.06.977C5.585 6.304 4.84 12.097.326 15.747"/><path d="M5.538 1.195C4.177 6.907 4.027 10.667 0 14.66"/></g><path d="M6.93.047c-.615 0 .37 3.797.757 4.674.327.742 1.227 1.12 2.7 1.133 1.63.05 2.764-.322 3.4-1.116l.097-.125c.757 1.52 2.28 1.95 4.13 1.95 4.275 0 5.982-2.59 5.297-6.516H6.93zm7.547 1.45l7.27-.102v.026c.097 1.25-.12 2.182-.61 2.8l-.05.062c-.584.687-1.674 1.045-3.32 1.045-1.128 0-2.444-.44-3.012-1.85l-.133-.398c-.064-.24-.06-.62-.094-1.072l-.053-.51zM8.08 1.62h5.275l-.008.776c-.043 1.746-.414 2.525-3.506 2.59L9.265 5a.27.27 0 0 1-.183-.06c-.148-.102-.3-.304-.46-.613-.243-.504-.412-1.2-.5-2.113L8.08 1.62z" fill="#00ffce" class="F"/><g class="Q"><use xlink:href="#V" transform="matrix(-1 0 0 1 24.651582 0)"/><use xlink:href="#V" x="3.15" transform="matrix(-1 0 0 1 30.950224 0)"/></g><g class="R"><path d="M2.702 31.13c.697 1.02 3.622.756 2.055-1.313s-2.752.292-2.055 1.313z" transform="matrix(-1 0 0 1 7.710406 0)"/><path d="M6.45 32.88c.717.985 3.334.358 1.722-1.64s-2.44.654-1.722 1.64z" transform="matrix(-1 0 0 1 14.877828 0)"/><path d="M11.455 33.468c.725 1.023 3.332.56 1.702-1.513s-2.427.5-1.702 1.513z" transform="matrix(-1 0 0 1 24.868776 0)"/><path d="M16.35 32.833c.737 1.007 3.246.483 2.174-1.294s-2.912.288-2.174 1.294z" transform="matrix(-1 0 0 1 34.968324 0)"/><path d="M20.24 31.634c.7.996 2.868.518 2.065-1.28s-2.765.284-2.065 1.28z" transform="matrix(-1 0 0 1 42.570134 0)"/></g></g></g><g class="G"><rect x="249.6" y="33.6" width="138" height="14.4" rx="7.2"/><rect x="96" y="33.6" width="85.2" height="14.4" rx="7.2"/></g><rect x="407.2" y="33.6" width="84" height="14.4" rx="7.2" class="I"/><g transform="translate(0 175.2)"><use xlink:href="#H" class="E"/><g class="G"><rect x="249.6" y="33.6" width="109.2" height="14.4" rx="7.2"/><rect x="96" y="33.6" width="138" height="14.4" rx="7.2"/></g><rect x="407.2" y="33.6" width="84" height="14.4" rx="7.2" class="I"/></g><g transform="translate(0 87.6)"><use xlink:href="#H" class="E"/><g transform="translate(0 174.4)"><use xlink:href="#H" class="E"/><g filter="url(#B)" transform="translate(24 16)"><g transform="translate(0 .8)"><use xlink:href="#I" class="F M"/><g transform="translate(6.609 14.953)"><g transform="translate(0 .006)"><use xlink:href="#J" class="L"/><g transform="translate(19.276 1.927)" class="Q"><use xlink:href="#K"/><use xlink:href="#L"/></g><use xlink:href="#M" class="F R"/><g class="B C D J"><use xlink:href="#N"/><use xlink:href="#O"/></g><g class="H B C D"><use xlink:href="#P"/><use xlink:href="#Q"/><use xlink:href="#R"/><path d="M28.742 14.336l-.843 5.178"/><use xlink:href="#S"/><use xlink:href="#T"/><use xlink:href="#U"/></g><path d="M21.635 9.592c-.135.362-.403.72-.85.74" class="B C D J"/></g></g></g><g class="G"><rect x="225.6" y="17.6" width="117.6" height="14.4" rx="7.2"/><rect x="72" y="17.6" width="138" height="14.4" rx="7.2"/></g><rect x="383.2" y="17.6" width="84" height="14.4" rx="7.2" class="I"/></g></g><g class="G"><rect x="249.6" y="33.6" width="117.6" height="14.4" rx="7.2"/><rect x="96" y="33.6" width="69.6" height="14.4" rx="7.2"/></g><rect x="407.2" y="33.6" width="84" height="14.4" rx="7.2" class="I"/></g><g transform="translate(0 350.4)"><use xlink:href="#H" class="E"/><g class="G"><rect x="249.6" y="33.6" width="109.2" height="14.4" rx="7.2"/><rect x="96" y="33.6" width="138" height="14.4" rx="7.2"/></g><rect x="407.2" y="33.6" width="84" height="14.4" rx="7.2" class="I"/></g><g transform="translate(25.2 192)"><use xlink:href="#I" class="F M"/><g transform="translate(1.517 5.093)"><path d="M2.694 27.04c.027-11.838 15.7-22.327 24.7-22.32 13.682.01 10.284 22.85 9.656 22.894-3.874.266-15.33.074-34.366-.574z" transform="matrix(.956305 -.292372 .292372 .956305 -3.856656 6.641522)" class="K"/><g transform="translate(13.327 6.718)" fill="#f1f4f6"><path d="M20.552 6.06c.59 4.712-4.023 16.605-8.896 15.95-4.093-.55-6.477-4.025-7.74-7.745-.213-.63-3.375 1.012-3.808-1.914s3.016-1.088 2.926-1.625C2.73 8.93 2.754 7.408 2.8 6.19 2.807 6 3.84 5.405 6.05 5.054c.988-.157 2.212-.265 3.684-.267 2.1-.003 4.447.204 6.416.454.566.072.048-5.207.537-5.132.498.076 2.002 5.507 2.39 5.578.91.168 1.468.3 1.476.374z"/></g><g transform="translate(20.695 13.111)"><g transform="translate(5.959 .975)" class="B C D J"><path d="M.542 0C.81 2.568 2.71 1.723 2.71.01"/><path d="M.65 1.41L0 2.275"/><path d="M1.625 1.734l-.433 1.41"/><path d="M2.167 1.517l.325 1.192"/></g><path d="M4.876 0l3.2 4.692c.163.2.478.44.383.687-.087.227-2.156.398-2.338.03-.094-.2-.12-.85-.115-.635.04 1.326.155 2.162.35 2.508" fill="#f3fff6" class="B C D H"/><g transform="translate(.325 .867)" class="B C D J"><path d="M.48.183C.075 1.884 2.476 2.1 2.926 0"/><path d="M.758 1.41L0 1.95"/><path d="M1.566 1.517l-.074.975"/><path d="M2.275 1.41l.325.758"/></g><path d="M4.51 7.645c.696-.132.78.874 1.268.587.246-.145.38-.507.663-.54.432-.05 1.1.14 2.037.573L6.803 9.762c-1.047.967-5.446.014-6.556-.506l3.38.045c5.007-.78 3.88-.794-3.38-.045.987-1.02 3.568-1.48 4.264-1.612z" transform="matrix(.956305 .292372 -.292372 .956305 2.79441 -.886386)" class="T"/></g></g></g><g transform="translate(25.2 106.8)"><use xlink:href="#I" class="F M"/><path d="M30.76 17.807c5.512 3.44 9.384 10.573 11.616 21.402C37.985 44.576 31.31 48 23.837 48c-7.6 0-14.37-3.54-18.758-9.06.403-2.725.95-5.13 1.638-7.216.744-2.254 3.103-6.12 7.077-11.6l1.214-1.655c5.66.303 10.608.1 14.783-.512l.97-.15z" class="L"/><g class="B C D H"><path d="M12.545 36.25c3.267 1.68 5.37-.47 7.573-2.807"/><path d="M23.793 33.822c.45 1.94.73 3.157 1.842 4.723.027.038-.09.022-.134.034"/><path d="M27.696 37.943c-2.226-1.323-.89-.327-3.384-3.685"/><path d="M32.286 36.988c-3.025-.206-6.14-1.303-8.442-3.317"/><path d="M32.554 35.095c-1.594.227-4.845 1.853-8.643-1.642"/><path d="M32.436 32.8c-4.164.84-1.592.506-7.772.352"/><path d="M15.684 38.87c1.857-1.478 4.597-3.116 5.082-5.7"/><path d="M18.347 38.84c2.21-1.46.654-.248 3.18-4.98"/><path d="M20.794 38.97c1.674-3.258 1.12-1.654 1.828-4.75"/><path d="M23.443 38.597c-1.25-2.545-.792-1.088-1.094-4.448"/><path d="M25.948 38.474c-1.924-2.602-.99-1.06-2.562-4.765"/><path d="M14.532 31.384c1.687.996 4.02 2.837 5.86 1.18"/><path d="M13.553 33.63c1.073.287 6.493 1.89 6.392-.85"/><path d="M17.53 19.178c-.127 1.155-.127 1.877 0 2.167.8 1.842 2.075 1.228 2.6-.758"/><path d="M20.997 17.878c-2.456 10.62-2.275 15.928.542 15.928s3.792-1.878 2.926-5.634l-.433-9.643c1.3 4.55 2.528 4.767 3.684.65" class="L"/></g><g stroke="#ff5fa7" fill="#ff5fa7" class="B C"><path d="M12.328 28.028c-.626-.322-.987-.61-1.084-.867-.514-1.36.524-2.098 2.384-1.084.072-1.59.686-2.564 1.842-2.926s1.372.614.65 2.926c1.15-.17 1.872-.17 2.167 0 .987.572.528 1.97-1.517 2.817 1.01.867 1.156 1.77.433 2.71s-1.59.506-2.6-1.3c-1.445 1.734-2.564 2.167-3.36 1.3s-.433-2.06 1.084-3.576z"/><path d="M28.365 26.47c-.656-.337-1.035-.64-1.137-.907-.54-1.423.55-2.196 2.5-1.134.076-1.663.72-2.684 1.933-3.062s1.44.643.682 3.062c1.207-.18 1.964-.18 2.274 0 1.035.6.554 2.06-1.59 2.95 1.06.907 1.213 1.852.455 2.835s-1.667.53-2.728-1.36c-1.516 1.814-2.7 2.268-3.524 1.36s-.455-2.155 1.137-3.742z" transform="matrix(-.987688 .156434 .156434 .987688 57.491696 -4.524695)"/></g><g fill="#d41c61"><circle cx="14.766" cy="27.974" r="1.354"/><circle cx="30.97" cy="26.22" r="1.354"/></g><path d="M31.542 18.072c4.462-.8 6.954-1.377 7.476-1.734l-.975-2.71-8.126 1.625c-.506-7.874-1.914-11.8-4.226-11.8-.752 0-1.62 1.084-2.6 3.25-1.372-4.2-2.817-4.984-4.334-2.384s-2.312 6.537-2.384 11.8c-2.386-.077-4.156-.177-5.31-.302s-2.056-.313-2.71-.565v2.492c-.116.12.686.29 2.405.512a67.23 67.23 0 0 0 5.179.463c2.095.16 7.296-.057 15.603-.65z" class="K"/></g><g transform="translate(26.4 367.2)"><use xlink:href="#W" class="F M"/><g transform="translate(2.431 10.36)"><path d="M17.515 3.312C12.212 3.312 7.47 4.716 3.93 6.95c-1.434.905-2.57 1.9-3.228 2.806-.395.546-.636 1.077-.665 1.634-.048.942.56 1.715 1.485 1.907l.08.016c.604.114 1.492.158 3.567.212l1.88.05c2.215.062 3.112.1 4.53.198l.287.02.25.018c2.143.16 3.938.398 5.364.73l.1.024v8.298c.192 1.953 2.296 2.93 6.313 2.93s8.588-1.132 13.714-3.397l-.712-6.152.05-.013c.732-.195 1.35-.47 1.86-.836a3.44 3.44 0 0 0 1.485-2.878c0-1.36-.762-2.383-2.067-2.725l-.05-.013c-.56-.137-1.202-.152-1.945-.056l-.085.012-.132-1.145-.468-.37C31.4 4.926 25.372 3.312 17.515 3.312z" class="F L"/><g class="B C D H"><path d="M13.868 5.072c2.058.12 1.735.166 3.205-1.267"/><path d="M14.068 6.125c1.618-.115 1.788-.733 2.897-2.094"/><path d="M17.673 3.95c.407 1.04 1.105 1.113 2.2 1.027"/><path d="M17.673 3.965c.24 1.818-.184 1.057 1.39 2.214"/></g><g stroke="#fff" class="B C"><path d="M14.883.63c1.928-1.766 2.918.58 2.71 2.094-.25 1.827-1.738 3.24-3.138 4.24-.02.014-1.242.84-1.602.52-.865-.767-.522-2.49-.16-3.52s1.295-2.514 2.2-3.334z"/><g class="D"><path d="M17.433 4.458c.318-.977.53-2.21 1.402-2.907C20.707.055 22.515.55 22 3.125c-.282 1.41-1.456 3.074-2.483 4.054-1.334 1.273-2.496-.467-2.297-1.734.097-.615.33-1.2.494-1.8"/></g></g><g class="H B C D"><path d="M23.95 3.218c.44 2.572.684 4.54 2.403 6.574 2.52 2.98 8.117 1.73 10.454-.827"/><path d="M26.098 3.55c-.467 3.42-.184 7.285 4.14 7.868.3.04 2.293.148 3.03-.107 1.787-.617 1.86-.99 3.565-2.374"/><path d="M26.886 3.578c1.51 3.128 5.54 10.395 9.573 5.667"/><path d="M28.89 3.95c.354 1.922.533 3.866 1.816 5.44 1.7 2.085 5.166 1.658 6.61-.373"/><path d="M29.877 4.298c.97 2.447 2.802 6.552 6.128 5.187"/><path d="M31.065 4.55c.804 1.272 2.467 4.505 4.126 4.84.646.13 1.317-.018 1.976-.027"/><path d="M16.912 15.446c1.628-.572 2.94.607 4.606.307.806-.145 1.79-1.022 2.377-1.467"/></g></g><path d="M16.914 32.136l6.87 3.806 10.782-3.806-.634 8.034-10.148-3.066-8.668 3.066z" class="B C H K"/></g><g transform="translate(26.4 547.2)"><use xlink:href="#W" class="F K"/><g transform="translate(5.391 4.968)"><g transform="translate(0 6.131)"><path d="M11.225 11.1H.026C-.344 3.7 3.25 0 10.808 0h19.82l.353 8.582c2.566-.383 3.85.14 3.85 1.566s-1.18 2.28-3.54 2.555l.686 13.222-20.75.396v-6.99c4.14.018 6.81-.506 8.014-1.573s1.626-3.287 1.27-6.66h-9.283z" stroke="#ff243a" stroke-width="2.888" class="T"/><g transform="translate(6.871 10.782)" stroke="#06f" class="B C D"><path d="M2.448.06c.1 2.132-.42 4.72-2.448 5.88"/><path d="M3.332.06c-.487 2.18-1.234 3.95-2.794 5.63"/><path d="M4.12.06C3.598 2.43 2.395 4.71.24 5.986"/><path d="M5.06.06C4.55 1.94 2.61 5.803.02 6.14"/><path d="M5.945.06c-.675 2.437-2.407 6-5.35 6"/><path d="M10.788 6.66c-.73.195-2.822-1.748-3.568-2.854-.497-.737-.788-1.98-.872-3.726"/><path d="M7.062.06c.362 2.152.174 4.88 2.085 6.2"/><path d="M7.747 0c-.39 1.074 1.53 5.82 2.616 5.975"/><path d="M8.244.06c.804 2 1.24 4.083 2.76 5.622"/><path d="M8.99.06c.944 2.22 1.14 4.353 3.017 5.806"/><path d="M6.53.06c1.14 3.45 1.78 4.918 5.188 5.557"/></g></g><g transform="translate(9.065)" class="B C"><g class="H"><path d="M2.694 5.916c1.183-.466 2.313-1.1 3.55-1.398.174-.042.188.312.225.487.09.437.18.885.154 1.33-.074 1.313-.443 2.967-1.36 3.994-1.203 1.346-2.41.2-2.725-1.22-.32-1.444-.175-1.573.075-2.883l.083-.312z"/><path d="M11.2 4.613c.452.254.867.59 1.356.76.764.27 1.792-.02 2.367.55.448.444.126 1.26.092 1.89-.054.98-.403 3.07-1.477 3.51-1.748.716-2.896-1.19-2.966-2.67-.028-.597-.048-1.2.037-1.793.095-.655.333-1.28.5-1.922l.092-.324z"/><g class="K"><use xlink:href="#X"/><use xlink:href="#X" x="8.88" y="0.529"/></g></g><g stroke="#06f" class="D"><path d="M11.96 4.396c1.266-1.067 2.432-2.686 3.798-3.202C16.88.77 11.65 4.847 12.72 4.108l-.614.862c5.048-3.488 4.132-4.328-.004.862-.842 1.056 1.76-1.902 2.68-2.714.535-.472 2.17-1.725 1.673-1.13-1.25 1.497-2.622 2.63-3.956 3.864-.434.4-1.813 1.286-1.346 1.036.95-.508 1.88-1.12 2.795-1.81.956-.722 3.004-4.267 2.806-2.42-.136 1.27-4.6 3.776-5.262 4.245-.194.14-.73.722-.537.582L14.78 4.51c.457-.322 1.857-1.103 1.416-.715l-.364.448c-3.703 3.256-6.285 5.052.2.214" transform="matrix(.615661 .788011 -.788011 .615661 8.73502 -9.241274)"/><path d="M1.42 1.27c1.253.555 4.73 2.007 4.696 3.01-.077 2.275-2.893-2.336-4.2-2.11-.053.01.006.18.055.2l.732.557L4.837 4.03c.357.204 1.374.978 1.037.716C4.87 3.963 2.026 1.337 2.837 2.47L1.11 1.984c.87 1.213 2.116 1.755 3.206 2.55 3.9 2.85-2.585-2.503-3.2-1.666-.104.14.197.304.324.4L4.13 5.123c.45.284 1.83 1.018 1.383.73-.82-.525-3.19-2.258-2.5-1.447l-1.688-.332c.59.694 3.893 1.845 4.73 2.162" transform="matrix(.71934 -.694658 .694658 .71934 -1.596386 3.554174)"/></g></g></g></g><g transform="translate(26.4 636)"><use xlink:href="#W" fill="#cce4ff" class="F"/><g transform="translate(3.7 10.254)"><path d="M33.532 2.218l.715 2.85c.127.57.26 1.76.397 3.564 3.017-1.267 4.525-.422 4.525 2.534s-1.508 3.96-4.525 3v11.326l-30.088.713v-12.04c-3.28.792-4.8-.21-4.525-3s1.773-3.643 4.525-2.534l.556-6.415h28.42zM9.08 6.02C7.016 12.46 6.83 17.372 8.524 20.75 9.6 22.9 18.704 23.474 24.64 22.89c2.265-.223 4.594-.936 6.986-2.138.41-2.185.57-4.43.476-6.732a32.69 32.69 0 0 0-1.032-6.891c-1.43-1.584-4.922-2.587-10.48-3s-9.394.21-11.51 1.9z" class="K"/><g class="J B C D"><path d="M19.083 5.225l-4.75.483c1.118.213 2.125-.153 3.213-.29.315-.04.754-.278.95-.03.16.202-.485.204-.678.375-.458.406-.802.928-1.255 1.34-.29.264-.644.45-.966.677" transform="matrix(.882948 .469472 -.469472 .882948 5.008034 -7.082968)"/><g transform="translate(9.823 11.561)"><path d="M.998 6.645c.66-2.08 2.07-4.656 3.818-4.282.8.17.768-.184 1.362-.365.478-.146.44-.525 1.006-.61.085-.013-.177-.026-.26 0-.207.067-.238.205-.423.32-.307.2-.742.197-1.004.446L1.445 6.184c-.373.404.892-.65 1.283-1.037.693-.683 1.276-1.47 1.962-2.16.39-.392.8-.768 1.255-1.08.335-.23.673-.245 1.052-.4.132-.05-.418.02-.302.102.2.14.895-.157.735.028C6.23 3.032 3.958 4.467 2.613 5.9c-.215.23-.73 1.013-.49.806l4.37-4.163c.163-.15.35-.276.548-.374.267-.133.868-.613.836-.317-.04.376-.625.44-.88.72-1.028 1.13-.728 1.304-1.817 2.232L2.626 6.788c-.143.127-.427.577-.245.518 2.112-.684 4.02-2.655 5.177-4.45.082-.127-.025-.33.073-.446.116-.136.63-.106.5-.217v-.345c-.08-.062-.183.086-.274.13" transform="matrix(.882948 .469472 -.469472 .882948 2.573045 -1.637823)"/><path d="M10.003 2.574c1.26 1.952 2.86 3.904 5.45 4.032.235.012-.337-.332-.534-.46-.7-.453-1.48-.76-2.12-1.282-.793-.645-3.043-2.685-2.15-2.188 1.432.796 2.47 2.16 3.807 3.1.473.336 1.028.56 1.586.72.313.1-.577-.308-.836-.504l-2.682-2.16c-.624-.546-1.104-.916-1.608-1.573-.273-.356.526.406.902.652.535.35 1.138.593 1.658.965.504.36.896.86 1.4 1.224.44.317.898.637 1.413.807.123.04-.027-.268-.1-.374a3.5 3.5 0 0 0-.678-.734l-2.6-1.872c-.293-.195-1.262-.626-.937-.5l2.278 1.052c.688.394 1.31.894 1.946 1.368.144.108.288.225.4.374.027.04-.104.013-.144-.014l-1.038-.605-1.774-1.3c-.668-.43-1.4-.75-2.076-1.167-.107-.066-.733.137-.628.068.284-.186 1.406.462 1.6.55 1.725.79 2.723.747 4.334 2.003.196.152.706.37.52.533-.297.258-.88-.21-1.182.042-.317.264 1.757.758-.072.446-.243-.04-.504-.076-.706-.216-5.283-3.663-1.776-1.848-4.542-3.21" transform="matrix(.945519 -.325568 .325568 .945519 -.675455 4.700508)"/></g></g><g class="B C D"><g class="H"><path d="M17.448 11.722c-.637-.302-1.333-.725-2.104-.486-.648.2-.593 1.53-.57 1.886.082 1.278 1.727 1.72 2.7 1.233"/><path d="M21.353 12.368c2.35-2.12 2.807 1.225.993 2.023-.642.283-1.202.156-1.867.107"/><path d="M18.612 7.618c.16 2.37.046-.992-1.08 4.04-.435 1.942 1.172 5.025 2.898 2.776.915-1.193.983-2.9 1.052-4.386.04-.832.252-2.556-.764-3.063-.824-1.858-1.025-2.444-.6-1.758"/></g><path d="M21.28 5.43c1.278-.038 2.57.07 3.834-.114 1.003-.145-2.028-.03-3.042-.001-.357.01-.984-.232-1.066.115-.085.36.56.5.88.676.703.41 1.45.74 2.177 1.108" transform="matrix(.984808 -.173648 .173648 .984808 -.729987 4.11555)" class="J"/></g><path d="M16.622 0a14.67 14.67 0 0 1 2.037.145l.13.02c.273.04.488.252.533.524a19.61 19.61 0 0 1 .248 3.787c.18.13.417.1.71-.09a19.59 19.59 0 0 1 .251-3.698c.044-.264.25-.472.512-.52l.02-.004.13-.02A14.67 14.67 0 0 1 23.231 0l.157.001 5.326.213c.284.014.53.195.632.458l.008.022.026.077c.4 1.188.6 2.515.6 3.98 0 1.4-.186 2.617-.558 3.654-.132.367-.474.616-.863.63l-.025.001-.383.003a85.79 85.79 0 0 1-2.015-.008l-.34-.006-4.18-.002a.95.95 0 0 1-.938-.757l-.005-.024-.022-.122-.257-1.918c-.305-.327-.618-.352-.94-.076a21.25 21.25 0 0 1-.4 2.377l-.03.134a.95.95 0 0 1-.893.734l-1.902.067-2.168.063-.277.005-2.122.005-.192-.002c-.398-.004-.75-.254-.887-.627-.472-1.3-.708-2.677-.708-4.133 0-1.466.2-2.793.6-3.98L10.5.694c.095-.275.348-.465.64-.48l.9-.044L16.622 0zm-.794.792l-.125.005-3.344.305-.233.028c-.148.018-.264.136-.278.284l-.018.194c-.29 3.15-.2 5.332.267 6.55.207.54 2.245.62 6.113.238l.035-.295.276-3.9v-.034c-.027-.868-.13-1.944-.3-3.227-.702-.135-1.496-.188-2.382-.158zm7.304 0L23.046.79c-.832-.023-1.3.03-1.403.16l-.024.174-.286 3.053-.002.08c-.02.867.08 2.14.293 3.82 4.027.223 6.144.065 6.35-.475.476-1.24.5-3.306.043-6.198-.022-.144-.14-.254-.285-.267l-.705-.064-3.896-.282z" class="T"/><path d="M16.354 17.635c1.588 1.294 4.452.325 5.522.43.056.006.05.14 0 .17l-.358.357c-.24.14-.5.253-.772.3-.415.073-1-.272-1.263.056-.198.247.54.354.735.602.68.86-1.2.705-1.376.714" class="B C D H"/></g></g><g transform="translate(26.4 724.8)"><use xlink:href="#W" class="F M"/><g transform="translate(12.262 9.408)"><g transform="translate(0 7.188)"><path d="M1.717 3.816C4.515.326 9.776-.144 14.174.03s5.884 1.222 8.086 4.603 1.71 6.016.457 8.513c-2.94 5.85-16.798 7.65-21.384 2.148-2.444-2.933-.916-7.62-.207-10.638l.6-.84z" fill="#ff7800"/><g class="B C D S"><path d="M11.812 1.86c.81 1.976 3.087.653 2.188-.747"/><path d="M9.742.16c1.587.805 2.613 2.224 3.935 3.454L15.8 5.725c.197.218.575.477.46.746-.105.246-2.595.433-2.814.034-.113-.206-.146-.923-.138-.69.07 2.16.944 4.416.426 6.166-.277.937-4.15.296-3.993.854.336 1.183 1.694 1.276 4.074.277.235.48.098 1.062.07 1.593l-.346 3.58"/><path d="M7.833 2.665c-.17 1.34 1.665 2.185 2.857 1.2.8-.663.368-1.523.356-2.433"/></g></g><path d="M8.304 5.13c-.574-1.1-.856-2.51-.12-3.672C9.29-.285 11.64-.67 12.55 1.443c.706 1.64-1 3.668-.953 3.872.267 1.162 4.05-3.497 3.32-1.007-.91 3.11-6.067 3.636-8.326 1.892s-.13-1.722 1.246-1.076l.467.005z" class="K"/></g></g><g transform="translate(26.4 808.8)"><use xlink:href="#W" fill="#001d71" class="F"/><g transform="translate(8.88 10.994)"><path d="M6.7 1.852l20.534 1.43c.3 1.18.446 3.492.435 6.935l.05-.032c.27-.167.488-.27.94-.37l.06-.013c.588-.12 1.855-.27 2.343-.144 1.334.345 1.955 2.04 1.187 3.176-.97 1.436-3 2.39-4.665 1.89l-.016.507-.336 7.517c-7.03 1.006-16.094 1.006-27.194 0-.366-6.923 1.806-13.82 6.516-20.7l.144-.208z" fill="#00ffce"/><g class="K"><g class="F"><g transform="translate(4.967)"><path d="M.385.16a.28.28 0 0 1 .276.286L.66.482.652.62.63.91l-.01.127-.02.646c.008.455.078.787.206.95.54.69 1.462 1.387 2.373 1.753 1.05.422 1.968.38 2.622-.195a.28.28 0 1 1 .371.423c-.838.735-1.976.787-3.203.294C1.965 4.503.962 3.745.362 2.978.138 2.692.047 2.26.037 1.69c-.004-.235.005-.47.026-.758L.09.606.097.48.1.437A.28.28 0 0 1 .385.161z"/><path d="M1.986.32a.28.28 0 0 1 .36.168c.63 1.737 1.174 2.536 2.33 3.115l.157.078.244.114c.218.097.418.17.603.218.372.094.628.068.766-.076l.013-.015a.28.28 0 1 1 .428.366c-.306.358-.776.415-1.345.27-.198-.05-.403-.123-.62-.217l-.073-.032-.387-.185-.037-.018C3.1 3.447 2.492 2.54 1.818.68a.28.28 0 0 1 .168-.36z"/><path d="M4.143.043a.28.28 0 0 1 .336.212L4.51.4c.23.996.423 1.594.724 2.122.393.69.918 1.1 1.655 1.22a.28.28 0 1 1-.091.555c-.916-.15-1.58-.666-2.053-1.497-.35-.614-.56-1.282-.815-2.412a.28.28 0 0 1 .212-.336z"/><path d="M6.105.925l.09-.48a.28.28 0 0 1 .318-.217.28.28 0 0 1 .237.303l-.002.02-.133.734-.055.354-.012.084c-.06.435-.08.766-.05.925.296 1.687 1.914 2.76 3.613 2.387a2.88 2.88 0 0 0 1.363-.687l.07-.06.693-.616a.28.28 0 1 1 .368.426l-.046.04-.72.64c-.505.425-.95.66-1.605.805-2 .442-3.936-.836-4.288-2.84-.04-.236-.02-.606.047-1.098l.054-.36.015-.094.046-.266z"/><path d="M7.796.71a.28.28 0 0 1 .281.281l.001.31c.003.242.016.28.063.384l.01.02.663 1.193.057.105c.874 1.635 1.838 1.802 3.35.703a.28.28 0 1 1 .331.455c-1.76 1.28-3.107 1.06-4.145-.835l-.133-.246-.642-1.158-.017-.038c-.096-.218-.1-.295-.1-.893a.28.28 0 0 1 .281-.281z"/><path d="M9.384.705a.28.28 0 0 1 .352.185c.512 1.653 1.275 2.533 2.654 2.86a.28.28 0 0 1-.13.547c-1.598-.38-2.495-1.415-3.06-3.242a.28.28 0 0 1 .185-.352z"/><path d="M11.945.536c.155-.002.283.122.286.277v.072l-.007.335-.023.493c-.022.52-.01.778.054 1.077.28 1.283 1.204 1.997 2.502 2.1 1.197.095 2.537-.364 3.368-1.15a.28.28 0 1 1 .386.409c-.948.896-2.445 1.41-3.8 1.3-1.534-.122-2.67-1-3.007-2.54-.08-.368-.09-.667-.065-1.262l.02-.446.006-.382c-.002-.155.122-.283.277-.286z"/><path d="M13.78.458c.155.002.28.13.277.286l-.001.04c-.003.08-.01.152-.03.273l-.01.065c-.044.3-.045.403 0 .507.297.677.804 1.466 1.352 2.027.68.696 1.362.997 2 .82.145-.04.262-.1.5-.29l.142-.108.252-.178a.28.28 0 0 1 .3.476l-.044.028-.15.11-.166.127c-.29.22-.45.314-.682.38-.873.243-1.743-.14-2.552-.968-.6-.612-1.142-1.458-1.465-2.194-.1-.228-.1-.407-.047-.774l.02-.145.018-.2c.002-.155.13-.28.286-.277z"/><path d="M15.516.558a.28.28 0 0 1 .332.22l.12.584.026.12.02.094c.345 1.516.718 1.85 2.38 2.014a.28.28 0 1 1-.055.56l-.115-.012C16.406 3.94 15.86 3.413 15.47 1.7l-.058-.265L15.296.9a.28.28 0 0 1 .22-.332z"/><path d="M18.136.678a.28.28 0 0 1 .293.269l.005.136.004.305-.001.572.02.9.002.032c.096 1.552.543 2.37 1.607 2.48.606.063 1.213.047 2.133-.032a1.47 1.47 0 0 0 .781-.286l.035-.025.572-.435a.28.28 0 0 1 .331.455l-.09.068-.473.36-.013.01c-.35.25-.66.375-1.094.413l-.165.014c-.862.07-1.463.08-2.074.017-.765-.08-1.312-.458-1.655-1.086-.263-.482-.398-1.085-.45-1.846l-.005-.074-.024-.87V1.33l-.007-.36a.28.28 0 0 1 .269-.293z"/><path d="M19.557.646a.28.28 0 0 1 .292.27l.004.104.01.393.005.78c.008.895.04 1.332.148 1.832.154.71.454 1.274.963 1.75.68.633 2.6-.11 2.65-.958v-.026a.28.28 0 1 1 .563 0c0 1.365-2.56 2.36-3.596 1.395-.598-.557-.952-1.225-1.13-2.04l-.014-.068c-.112-.542-.14-1.02-.147-1.99l-.003-.544v-.182l-.01-.423a.28.28 0 0 1 .27-.292z"/><path d="M20.678 1.996a.28.28 0 0 1 .307-.253.28.28 0 0 1 .255.289l-.001.018c-.05.533.322 1.87.825 2.77.6 1.07 1.188 1.36 1.788.76a.28.28 0 1 1 .398.397c-.5.49-1.03.605-1.55.35-.416-.205-.793-.635-1.127-1.233-.554-.992-.957-2.436-.894-3.097z"/></g><path d="M13.25 5.587l.047-.023c.127-.06.214-.075.335-.02.136.064.188.194.175.32-.006.058-.025.113-.055.175-.07.145-.218.307-.416.47l-.047.038.013.01a.28.28 0 0 1 .118.265l-.003.02c-.004.024-.01.044-.018.063l-.002.003.023-.003c.007 0 .013 0 .022 0l.053.005.028.008c.072.022.082.034.172.15l.017.075c.01.054.01.073.002.106l-.003.01.014.005a.28.28 0 0 1 .143.125l.008.016c.064.135.012.295-.117.366l-.79.385-1.405.655-.45.198-.11.047c-.816.35-1.49.602-1.984.73-.304.08-.542.112-.724.09-.294-.033-.49-.23-.45-.53.054-.38.26-.648.59-.817l.04-.02.002-.01c.002-.01.006-.023.01-.037l.018-.05.025-.037c.022-.032.028-.036.053-.057l.03-.02c.014-.01.02-.012.03-.016l.026-.01a.53.53 0 0 1 .095-.02l.098-.015.367-.043.097-.01.03-.005.172-.026.12-.02-.04.002c-.59.028-1.1-.037-1.326-.237l-.018-.016c-.177-.164-.257-.356-.115-.552.087-.12.212-.166.393-.187l.03-.003c.202-.02.406-.015.927.017l.343.02c.406.022.63.024.79.001.234-.033.535-.13.85-.258l.03-.013-.082.01-1.14.077-.714.03-.663.04a.28.28 0 0 1-.044-.561l.142-.01.425-.025.813-.036c.852-.04 1.28-.078 1.79-.175.092-.017.252-.095.473-.228l.065-.04.128-.08.278-.178.06-.037.206-.118zM10.095 8.83l-.147.006c-1.018.045-1.41.155-1.518.485v.005h.004c.097-.003.236-.026.4-.07l.038-.01c.293-.076.662-.2 1.095-.37l.12-.047z"/></g><path d="M10.268 9.47c1.308.795.698 1.56.197 3.214-.562 1.857-1.21-.428-1.293-1.057-.237-1.79.128-2.5 1.095-2.156z"/><g class="F"><path d="M15.083 6.31l.274.023 1.145.09.09.008c.16.016.228.032.316.074l.014.007.04.02c.1.054.173.08.33.133l.093.03c.384.126.99.292 1.88.51l.064.016c.148.036.394.067.78.103l.644.058.137.014c.156.017.256.033.326.054.052.016.094.034.137.07a.29.29 0 0 1 .026.423c-.068.073-.133.096-.263.123-.662.138-1.802.15-2.867.05l-.053-.005.002.002.578.36.073.04c.065.034.21.078.4.124l.065.014.466.095.038.008.032.008.014.004c.05.013.078.022.114.047l.03.023c.036.027.04.04.094.16l-.005.066c-.01.115-.018.138-.072.2l-.03.03-.004.002.186.046.106.03.006.002a.58.58 0 0 1 .09.041c.07.04.12.087.148.183a.31.31 0 0 1 .011.116l-.002.015.008.007.018.018c.13.142.1.357-.06.463-1.02.673-2.176.734-3.443.302-.936-.32-1.824-.848-2.952-1.67a.28.28 0 1 1 .332-.454l.147.106c1.016.73 1.825 1.203 2.655 1.486.854.29 1.628.33 2.33.075l.042-.016-.06-.012-.497-.11-.07-.016-.033-.003c-.583-.055-.997-.116-1.406-.218l-.047-.012c-.606-.156-1.138-.344-1.617-.584a1.7 1.7 0 0 1-.379-.264l-.07-.062-.065-.026-.898-.372-.117-.05a.48.48 0 0 1-.068-.035c-.068-.043-.115-.09-.136-.19s.015-.202.086-.267c.04-.036.078-.054.12-.066.034-.01.062-.013.095-.013.06-.001.143.01.246.027l.303.067.015.004h-.001a.97.97 0 0 1-.075-.279l-.003-.027c-.013-.15.055-.253.157-.313l.005-.003-.012-.013-.016-.02c-.064-.08-.094-.192-.044-.3l.003-.006h-.01c-.14-.02-.243-.143-.24-.284l.001-.018a.28.28 0 0 1 .304-.256zm.767 1.638l.012.01c.29.207.743.415 1.335.612l.03.01-.065-.028-.113-.05-.126-.056-1.073-.497zm.625-.96l.01.004c.232.103.46.233.7.395l.04.028.06.012 1.05.14.048.004-.272-.072-.802-.23-.102-.033-.077-.026-.275-.102-.024-.01-.08-.036-.034-.017-.06-.03c-.02-.01-.04-.013-.125-.02l-.06-.005z"/><path d="M14.376 9.023a.28.28 0 0 1 .397.03c.097.113.09.28-.016.384l-.014.013c-.06.05-.105.167-.122.32a7.03 7.03 0 0 0-.015 1.519c.166 1.575 1.495 2.862 2.844 2.482.326-.092.874-.737 1.41-1.644.217-.367.417-.753.57-1.092l.032-.072c.135-.31.216-.554.22-.63v-.008a.28.28 0 1 1 .562-.014c.008.327-.374 1.205-.873 2.058l-.026.045c-.612 1.036-1.22 1.752-1.74 1.9-1.737.5-3.358-1.08-3.557-2.964-.055-.524-.048-1.074.016-1.64.03-.28.128-.522.315-.683z"/><path d="M9.27 8.025c.19-.164.437-.124.652.002a.28.28 0 0 1 .102.385c-.075.13-.237.176-.368.11l-.016-.01c-.01-.006-.02-.01-.03-.016l-.01-.004-.005.008c-.035.056-.063.14-.077.24l-.004.028c-.06.528-.066 1.037-.015 1.52.094.886.62 1.792 1.327 2.245a.28.28 0 1 1-.304.474c-.856-.548-1.472-1.61-1.583-2.66-.056-.524-.05-1.074.015-1.64.03-.28.128-.522.315-.683z" transform="matrix(.97437 .224951 -.224951 .97437 2.613109 -1.964954)"/><path d="M13.412 7.51a.28.28 0 1 1 .515.228l-.04.088c-.442.98-.93 1.71-2.03 3.16l-.288.38c-.85 1.126-1.262 1.726-1.643 2.456l-.488.948-.16.315-.222.47c-.198.44-.333.804-.393 1.08-.03.14-.04.25-.03.324.003.02.007.034.01.043l.001.002.033.018c1.296.683 3.78-.4 4.703-1.845l.028-.045c.26-.427.667-.475 1.09-.24.14.078.278.182.436.32l.053.047.358.325c1.288 1.04 1.947 2.355 2.055 3.915.09 1.31-.204 2.76-.83 4.43a.28.28 0 1 1-.527-.197c1.28-3.422 1.125-5.902-.988-7.657l-.065-.053c-.073-.06-.37-.336-.392-.355-.148-.132-.268-.225-.376-.285-.176-.098-.247-.094-.325.026v.014c-.468.767-1.405 1.52-2.437 1.967-1.144.495-2.264.566-3.1.1-.3-.17-.35-.513-.25-.975.07-.323.217-.72.43-1.193l.19-.402.08-.162.572-1.116c.425-.83.862-1.466 1.826-2.736l.29-.384c1.04-1.377 1.492-2.07 1.9-3.014z"/><path d="M11.795 16.742a.28.28 0 0 1 .324.231c.187 1.125.206 2.192.087 3.4l-.18 1.358-.03.193-.052.314-.267 1.554-.09.54a.28.28 0 1 1-.556-.088l.037-.228.053-.318.076-.448.157-.91.07-.422.014-.086.205-1.517c.115-1.152.096-2.17-.082-3.242a.28.28 0 0 1 .231-.324z"/><path d="M16.86 19.192a.28.28 0 0 1 .273.492l-.135.074c-2.18 1.186-3.36 1.24-5.54.2a.28.28 0 1 1 .242-.508l.122.057c1.97.918 2.967.834 5.038-.315z"/></g><path d="M14.56 9.153c1.308.795 2.104 2.12 1.604 3.775-.562 1.857-1.902-.67-1.985-1.3-.356-2.687.28-.817.28-2.143"/></g></g></g></g><g transform="translate(235 835)"><g filter="url(#C)" transform="translate(.171)"><path stroke-width="3.049" d="M0 0h1182.927v597.56H0z" class="E N"/><g transform="translate(51.829 36.585)" fill="#000"><g transform="translate(674.383)"><path d="M34.146.005H1.797V3.6h32.35z"/><path d="M30.552 7.194H5.392v3.594h25.16z"/><use xlink:href="#Y"/><path d="M5.392 25.166h25.16v-3.594H5.392z"/><path d="M1.797 32.355h32.35V28.76H1.797z"/></g><g transform="translate(823.759)"><path d="M0 3.6h35.944V.005H0z"/><path d="M0 10.788h35.944V7.194H0z"/><use xlink:href="#Y"/><use xlink:href="#Y" y="7.189"/><path d="M0 32.355h25.16V28.76H0z"/></g><g transform="translate(949.695)"><path d="M2.807 23.633L6.1 20.34l-.548-.548c-.2-.2-.228-.43-.228-.55s.03-.35.228-.548l13.17-13.17c.197-.197.428-.227.548-.227s.352.03.55.227l.55.55L23.66 2.78l-.548-.548C21.058.178 17.48.18 15.43 2.23L2.26 15.4C1.232 16.425.667 17.8.667 19.24a5.4 5.4 0 0 0 1.592 3.843l.548.55z"/><path d="M31.342 10.462l-3.292 3.292.55.55a.78.78 0 0 1 0 1.096l-13.17 13.17a.77.77 0 0 1-1.097 0l-.55-.548-3.292 3.294.55.548c1.026 1.026 2.4 1.59 3.84 1.59a5.4 5.4 0 0 0 3.841-1.591l13.17-13.17a5.44 5.44 0 0 0 0-7.681l-.55-.55z"/><path d="M20.916 16.5l-3.292-3.294L28.598 2.23l3.292 3.294z"/><path d="M5.55 31.864L2.26 28.572l10.975-10.975 3.292 3.292z"/></g><g transform="translate(599.695)"><path d="M32.35.005H0V3.6h32.35z"/><path d="M25.16 7.194H0v3.594h25.16z"/><use xlink:href="#Y"/><path d="M25.16 21.572H0v3.594h25.16z"/><path d="M0 32.355h32.35V28.76H0z"/></g><g transform="translate(749.071)"><path d="M3.594 3.6h32.35V.005H3.594z"/><path d="M10.783 10.788h25.16V7.194h-25.16z"/><use xlink:href="#Y"/><path d="M10.783 25.166h25.16v-3.594h-25.16z"/><path d="M3.594 32.355h32.35V28.76H3.594z"/></g><path d="M7.684 13.82h7.782c1.37 0 2.496-.32 3.377-.956s1.32-1.674 1.32-3.11c0-.797-.147-1.45-.44-1.96s-.685-.91-1.175-1.196-1.052-.486-1.69-.598a11.46 11.46 0 0 0-1.982-.167H7.684v7.987zM0 0h16.445c1.664 0 3.18.143 4.552.43s2.545.757 3.524 1.41 1.737 1.522 2.276 2.606.808 2.423.808 4.017c0 1.722-.4 3.156-1.2 4.304s-1.982 2.088-3.548 2.822c2.154.606 3.76 1.666 4.82 3.18s1.59 3.34 1.59 5.476c0 1.722-.343 3.212-1.028 4.472a8.78 8.78 0 0 1-2.765 3.085c-1.158.797-2.48 1.387-3.964 1.77s-3 .574-4.576.574H0V0zm7.684 28.312h8.223c.75 0 1.468-.072 2.154-.215s1.29-.383 1.81-.717a3.64 3.64 0 0 0 1.248-1.363c.3-.574.465-1.307.465-2.2 0-1.754-.506-3.005-1.517-3.754s-2.35-1.124-4.013-1.124h-8.37v9.374z"/><path d="M152.598 36.28l4.268 4.268 4.268-4.268h3.2v6.402H130.19V36.28h22.41zM150.567 0l13.77 34.146h-6.71l-3.355-9.04h-14.27l-3.355 9.04h-6.46L143.908 0h6.66zm-3.2 5.69h-.157l-5.64 15.176h11.382L147.367 5.69z"/><path d="M67.534 34.146v-4.878h6.114l5.204-24.4h-6.44V0h19.512v4.878H84.95l-5.204 24.4h7.3v4.878H67.534z"/><g transform="translate(471.497)"><path d="M5.762 0A5.77 5.77 0 0 0 0 5.762a5.77 5.77 0 0 0 5.762 5.762 5.77 5.77 0 0 0 5.762-5.762A5.77 5.77 0 0 0 5.762 0"/><path d="M5.762 13.445A5.77 5.77 0 0 0 0 19.207a5.77 5.77 0 0 0 5.762 5.762 5.77 5.77 0 0 0 5.762-5.762 5.77 5.77 0 0 0-5.762-5.762"/><path d="M5.762 26.9A5.77 5.77 0 0 0 0 32.652a5.77 5.77 0 0 0 5.762 5.762 5.77 5.77 0 0 0 5.762-5.762 5.77 5.77 0 0 0-5.762-5.762"/><path d="M15.366 7.683h23.05V3.84h-23.05z"/><path d="M15.366 21.128h23.05v-3.84h-23.05z"/><path d="M15.366 34.573h23.05v-3.84h-23.05z"/></g><g transform="translate(394.817)"><path d="M9.604 7.683h26.9V3.84h-26.9z"/><path d="M9.604 21.128h26.9v-3.84h-26.9z"/><path d="M9.604 34.573h26.9v-3.84h-26.9z"/><path d="M2.536 3.6v6.917h2.1V1.053c0-.424-.257-.81-.65-.972S3.143.008 2.843.3L.001 3.152 1.485 4.64l1.05-1.05z"/><path d="M2.88 13.445c-1.588 0-2.88 1.293-2.88 2.88v.96h1.92v-.96a.96.96 0 0 1 .96-.96c.53 0 .962.43.962.96 0 .94-1.85 3.37-3.563 5.082-.273.275-.355.688-.207 1.047a.96.96 0 0 0 .887.594h4.802v-1.92H3.146c1.197-1.4 2.616-3.384 2.616-4.802 0-1.588-1.29-2.88-2.88-2.88"/><path d="M2.88 27.74L0 27.742l.002 1.92 2.88-.002a.96.96 0 0 1 .96.96.96.96 0 0 1-.96.958h0-.96v1.92h.96V33.5c.528 0 .96.432.96.96a.96.96 0 0 1-.96.96L0 35.423l.002 1.92 2.88-.002c1.588 0 2.88-1.293 2.88-2.88a2.87 2.87 0 0 0-.736-1.921 2.86 2.86 0 0 0 .736-1.919c0-1.588-1.293-2.88-2.88-2.88"/></g></g><g class="G"><rect x="51.829" y="378.049" width="981.707" height="33.537" rx="16.768"/><rect x="51.829" y="326.22" width="1015.244" height="33.537" rx="16.768"/><rect x="51.829" y="429.878" width="1015.244" height="33.537" rx="16.768"/><rect x="51.829" y="481.707" width="338.415" height="33.537" rx="16.768"/></g><rect x="408.537" y="481.707" width="182.927" height="33.537" rx="16.768" class="O"/><rect x="51.829" y="274.39" width="1042.683" height="33.537" rx="16.768" class="G"/><g transform="translate(270.293 275.39)"/><path stroke-width="3.21" stroke-linecap="square" d="M2.404 112.805h1178.118" class="C N"/></g><rect x="52" y="146.341" width="1042.683" height="64.024" rx="32.012" class="G"/></g><path d="M252 437h1152c6.627 0 12 5.373 12 12v342c0 6.627-5.373 12-12 12H252c-6.627 0-12-5.373-12-12V449c0-6.627 5.373-12 12-12z" stroke="#0d62fe" stroke-width="2.322" fill-opacity=".618" stroke-dasharray="11" class="C D E"/><path d="M839.752 589h-32.974c-3.186 0-5.778 2.57-5.778 5.727v51.545c0 3.16 2.59 5.727 5.778 5.727h40.444c3.186 0 5.778-2.57 5.778-5.727v-44.14L839.752 589z" class="O"/><path d="M836 606v-14l14 14zm-27 37l8.75-11.43 5.833 5.714L835.25 623l8.75 20zm8-31c3.86 0 7 3.133 7 7s-3.14 7-7 7c-3.87 0-7-3.13-7-7a7 7 0 0 1 7-7h0z" class="E"/><rect fill="#00c15a" x="1241" y="151" width="175" height="70" rx="12"/><path d="M1351.75 165.024l-44.823 10.1c-1.017.224-1.78 1.04-1.908 2.033s.41 1.955 1.345 2.4l12.73 6.183 1.302 12.406c.103.997.85 1.824 1.862 2.068s2.083-.142 2.67-.967l.386-.377-2.575-9.468c-.11-1.233.53-2.417 1.645-3.05l11.06-6.265-8.84 8.168a2.32 2.32 0 0 0-.694 2.247l4.03 16.656c.233.974 1.086 1.703 2.123 1.825s2.044-.394 2.52-1.287l21.056-39.337c.1-.146.183-.3.247-.464.22-.55.084-1.393-.168-1.972-.31-.714-1.635-1.014-3.972-.9z" class="E"/></g><g filter="url(#D)" transform="translate(1476 44)"><g class="B E N"><rect width="103" height="103" rx="3.6"/><rect y="113" width="103" height="103" rx="3.6"/><rect x="120" y="113" width="103" height="103" rx="3.6"/><rect y="225" width="103" height="103" rx="3.6"/><rect x="120" y="225" width="103" height="103" rx="3.6"/><rect y="338" width="103" height="103" rx="3.6"/><rect x="120" y="338" width="103" height="103" rx="3.6"/><rect y="451" width="103" height="103" rx="3.6"/><rect x="120" y="451" width="103" height="103" rx="3.6"/><rect y="613" width="103" height="103" rx="3.6"/><rect x="120" y="613" width="103" height="103" rx="3.6"/><rect y="738" width="103" height="103" rx="3.6"/><rect x="120" y="738" width="103" height="103" rx="3.6"/><rect x="238" y="113" width="103" height="103" rx="3.6"/><rect x="238" y="225" width="103" height="103" rx="3.6"/><rect x="238" y="338" width="103" height="103" rx="3.6"/><rect x="238" y="451" width="103" height="103" rx="3.6"/><rect x="238" y="613" width="103" height="103" rx="3.6"/><rect x="238" width="103" height="103" rx="3.6"/></g><g transform="translate(120)"><rect fill="#001c6c" width="103" height="103" rx="3.6" class="B N"/><path d="M55.948 42.136v-9.364l9.364 9.364h-9.364zM39.093 66.482l5.618-7.49 3.745 3.745 7.49-9.364 5.618 13.11H39.093zm4.682-20.6c2.582 0 4.682 2.096 4.682 4.682s-2.1 4.682-4.682 4.682a4.68 4.68 0 1 1 0-9.364h0zM58.596 30.9H37.22a3.75 3.75 0 0 0-3.745 3.745v33.71A3.75 3.75 0 0 0 37.22 72.1H63.44a3.75 3.75 0 0 0 3.745-3.745V39.488L58.596 30.9z" class="E"/></g><g class="O"><path d="M272 31h35v6.333h-13.746V72h-7.57V37.333H272z"/><path d="M74 162H28v5h46z"/><g transform="translate(31 256)"><path d="M34.762 12.384H6.518V6.192h28.244v6.192zm0 10.32H21.726v-4.128h13.036v4.128zm0 6.192H21.726v-4.128h13.036v4.128zm0 6.192H21.726V30.96h13.036v4.128zM19.554 22.704H6.518v-4.128h13.036v4.128zm0 6.192H6.518v-4.128h13.036v4.128zm0 6.192H6.518V30.96h13.036v4.128zM2.173 0C.973 0 0 .925 0 2.064v37.152c0 1.14.973 2.064 2.173 2.064h36.935c1.2 0 2.173-.925 2.173-2.064V2.064C41.28.925 40.307 0 39.107 0H2.173z"/></g><path d="M182.662 296.654l-11.162-7.458-11.162 7.458c-.713.477-1.65.46-2.345-.05s-1-1.397-.763-2.225l3.768-13.22-9.397-9.418c-.586-.586-.763-1.47-.445-2.237a2.05 2.05 0 0 1 1.894-1.27h11.033l5.582-11.192c.695-1.39 2.974-1.39 3.67 0l5.582 11.192h11.033a2.05 2.05 0 0 1 1.894 1.27c.318.766.14 1.652-.445 2.237l-9.397 9.418 3.768 13.22c.238.828-.068 1.718-.763 2.225a2.04 2.04 0 0 1-1.207.394c-.396 0-.79-.115-1.138-.345z"/><g transform="translate(28 369)"><path d="M11.417 9.537L8.45 7.003c3.702-4.45 9.115-7.004 14.855-7.004 5.722 0 11.126 2.542 14.83 6.972L35.17 9.51c-2.964-3.544-7.29-5.58-11.866-5.58-4.59 0-8.925 2.044-11.887 5.606"/><path d="M29.52 14.944c-1.483-2-3.748-3.15-6.215-3.15a7.67 7.67 0 0 0-6.211 3.147l-3.106-2.363c2.2-2.954 5.672-4.716 9.317-4.716 3.702 0 7.1 1.722 9.32 4.722l-3.106 2.36z"/><path d="M7.764 37.35a11.83 11.83 0 0 1 .679-3.931H6.472C2.898 33.417 0 35.695 0 39.314v1.966h7.764v-3.93z"/><path d="M14.736 26.554c.002-2.732-2.172-4.932-4.853-4.932s-4.85 2.2-4.85 4.914c0 2.538 1.904 4.6 4.338 4.863 1.238-2.135 3.114-3.84 5.365-4.845"/><path d="M11.647 41.28H34.94v-3.93c0-3.766-2.62-6.906-6.11-7.674-1.572 1.113-3.478 1.777-5.538 1.777s-3.966-.664-5.538-1.777c-3.5.77-6.11 3.908-6.11 7.674v3.93z"/><path d="M29.116 21.623c0 3.257-2.607 5.897-5.823 5.897s-5.823-2.64-5.823-5.897 2.607-5.897 5.823-5.897 5.823 2.64 5.823 5.897"/><path d="M38.496 21.854c-2.656 0-4.8 2.178-4.8 4.865 0 .068.017.132.02.2 2.08 1.016 3.807 2.64 4.966 4.647 2.576-.095 4.64-2.22 4.64-4.848 0-2.688-2.156-4.865-4.814-4.865"/><path d="M40.746 33.995h-2.248a9.14 9.14 0 0 1 .774 3.642v3.642h8.85v-1.82c0-3.353-3.303-5.464-7.377-5.464"/></g><g transform="translate(269 256)"><path d="M33.024 24.768c-2.477 0-4.677 1.12-6.192 2.852l-10.508-5.255a8.2 8.2 0 0 0 .188-1.726 8.2 8.2 0 0 0-.188-1.726l10.508-5.255c1.515 1.734 3.715 2.852 6.192 2.852 4.553 0 8.256-3.703 8.256-8.256S37.577 0 33.024 0s-8.256 3.703-8.256 8.256a8.2 8.2 0 0 0 .188 1.726l-10.508 5.255c-1.515-1.734-3.715-2.852-6.192-2.852C3.703 12.384 0 16.087 0 20.64s3.703 8.256 8.256 8.256c2.477 0 4.677-1.12 6.192-2.852l10.508 5.255a8.2 8.2 0 0 0-.188 1.726c0 4.553 3.703 8.256 8.256 8.256s8.256-3.703 8.256-8.256-3.703-8.256-8.256-8.256"/></g><path d="M21.19 644c-.658 0-1.19.535-1.19 1.195v36.65c0 1.74 1.366 3.154 3.05 3.154h54.9c1.687 0 3.05-1.413 3.05-3.154v-36.65A1.19 1.19 0 0 0 79.809 644H21.19z"/><path d="M168.45 644v41h-24.4c-1.684 0-3.05-1.413-3.05-3.154h0v-36.65c0-.66.536-1.195 1.197-1.195h26.253zm32.353 0c.66 0 1.197.535 1.197 1.195h0v36.65c0 1.74-1.366 3.154-3.05 3.154h0-24.4v-41z"/><path d="M299.95 644v41h-18.9v-41h18.9zm-25.2 0v41h-12.6c-1.74 0-3.15-1.413-3.15-3.154h0v-36.65c0-.66.542-1.195 1.2-1.195h14.54zm46.04 0c.668 0 1.2.535 1.2 1.195h0v36.65c0 1.74-1.41 3.154-3.15 3.154h0-12.6v-41z"/><path d="M36.75 769v41h-12.6c-1.74 0-3.15-1.413-3.15-3.154h0v-36.65c0-.66.542-1.195 1.2-1.195h14.54zm46.047 0c.67 0 1.203.535 1.203 1.195h0v36.65c0 1.74-1.41 3.154-3.15 3.154h0-37.8v-41z"/><path d="M178.8 769v41h-34.65c-1.74 0-3.15-1.413-3.15-3.154h0v-36.65c0-.66.534-1.195 1.194-1.195H178.8zm24.003 0c.65 0 1.197.535 1.197 1.195h0v36.65c0 1.74-1.41 3.154-3.15 3.154h0-15.75v-41z"/><g transform="translate(31 31)"><path d="M0 4.368h43.308V.007H0z"/><path d="M0 13.1h43.308V8.73H0z"/><path d="M0 21.813h43.308v-4.36H0z"/><path d="M0 30.535h43.308v-4.36H0z"/><path d="M0 39.258h30.316v-4.36H0z"/></g><g transform="translate(156 143)"><path d="M27.147 24.808l-8.632-1.732v-8.63c0-1.137-.922-2.064-2.057-2.064h-4.114c-1.136 0-2.057.927-2.057 2.064v10.32H6.172c-.714 0-1.376.372-1.75.98a2.07 2.07 0 0 0-.091 2.008l6.17 12.384c.35.7 1.06 1.14 1.84 1.14h14.4a2.06 2.06 0 0 0 2.057-2.064V26.83c0-.982-.693-1.83-1.654-2.023"/><path d="M6.17 16.512H0v-4.128h6.17z"/><path d="M7.127 10.07L2.764 5.692l2.91-2.92 4.363 4.378z"/><path d="M12.343 0h4.114v6.192h-4.114z"/><path d="M18.763 7.15l4.365-4.378 2.91 2.918-4.365 4.38z"/><path d="M22.63 12.384h6.17v4.128h-6.17z"/></g><path d="M298.317 167.428h7.818v-7.8h-7.818v7.8zm-11.727 0h7.818v-7.8h-7.818v7.8zm0 11.714h7.818v-7.8h-7.818v7.8zm-11.727-11.714h7.818v-7.8h-7.818v7.8zm0 11.714h7.818v-7.8h-7.818v7.8zm33.227-31.237h-3.91V144h-3.91v9.762h-3.91v-5.857h-11.727V144h-3.91v9.762h-3.91v-5.857h-3.91A3.91 3.91 0 0 0 269 151.81v29.286c0 2.15 1.753 3.905 3.91 3.905h35.182c2.155 0 3.91-1.754 3.91-3.905V151.8a3.91 3.91 0 0 0-3.909-3.905z"/><g transform="translate(146 369)"><path d="M39.168 14.57h-9.792V12.14h9.792v2.428zm4.896 7.285H29.376v-2.428h14.688v2.428zm0 7.285H29.376V26.71h14.688v2.428zm-24.48-14.57H9.792V12.14h9.792v2.428zm0 7.285h-14.7v-2.428h14.7v2.428zm0 7.285h-14.7V26.71h14.7v2.428zM46.512 0H29.376c-.65 0-1.27.255-1.73.71L24.48 3.85 21.315.71c-.46-.457-1.082-.71-1.73-.71H2.448A2.44 2.44 0 0 0 0 2.428v31.567a2.44 2.44 0 0 0 2.448 2.428H18.57l4.18 4.145a2.45 2.45 0 0 0 3.461 0l4.18-4.145h16.123a2.44 2.44 0 0 0 2.448-2.428V2.428A2.44 2.44 0 0 0 46.512 0h0z"/></g><g transform="translate(269 369)"><path d="M4.128 10.32h33.024v6.192H4.128V10.32zm33.024-4.128h-4.128V0h-4.128v6.192H12.384V0H8.256v6.192H4.128C1.85 6.192 0 8.045 0 10.32v26.832c0 2.277 1.85 4.128 4.128 4.128h33.024c2.277 0 4.128-1.85 4.128-4.128V10.32c0-2.275-1.85-4.128-4.128-4.128h0z"/></g><path d="M175.387 498.595l1.943 5.857-5.83-3.905-5.83 3.905 1.943-5.857-3.887-3.905h5.83l1.943-5.857 1.943 5.857h5.83l-3.887 3.905zm-3.018 16.802a1.93 1.93 0 0 0-1.737 0l-4.413 2.216.884-5.777c1.263.882 2.78 1.4 4.398 1.402h.002c1.617 0 3.133-.515 4.396-1.398l.884 5.773-4.413-2.216zm12.57-17.78c1.386-2.382 1.432-5.353.023-7.807-1.374-2.392-3.945-3.88-6.7-3.88h-.03c-1.362-2.4-3.9-3.93-6.72-3.93s-5.36 1.53-6.72 3.932h-.03a7.76 7.76 0 0 0-6.716 3.877c-1.41 2.454-1.36 5.426.027 7.81-1.388 2.388-1.436 5.36-.027 7.81a7.76 7.76 0 0 0 5.538 3.782l-1.766 11.54c-.11.722.188 1.445.775 1.874s1.366.496 2.013.17l6.904-3.47 6.904 3.47c.274.137.57.205.87.205.404 0 .806-.127 1.145-.375.587-.43.886-1.152.775-1.874l-1.766-11.54c2.3-.357 4.36-1.734 5.534-3.782 1.413-2.452 1.364-5.424-.023-7.81h0z"/><path d="M40.842 491.897v9.94c0 6.222 4.772 11.266 10.658 11.266s10.658-5.044 10.658-11.266l-.001-9.94H65V502.5c0 6.696-4.926 12.248-11.37 13.265v4.407h4.706a2.4 2.4 0 0 1 2.4 2.4V523H42.263v-.428a2.4 2.4 0 0 1 2.4-2.4h4.705l.001-4.407C42.926 514.748 38 509.196 38 502.5v-10.603h2.842zm18.474 1.414v9.2c0 4.294-3.5 7.776-7.816 7.776s-7.816-3.48-7.816-7.776v-9.2h15.632zM51.5 482c4.317 0 7.816 3.48 7.816 7.776v2.12H43.684v-2.12c0-4.294 3.5-7.776 7.816-7.776z" class="F"/><g transform="translate(269 482)"><path d="M4.587 4.587h4.587V5.93L6.88 8.224 4.587 5.93V4.587zM36.693 5.93L34.4 8.224 32.107 5.93V4.587h4.587V5.93zM25.227 8.224L22.933 5.93V4.587h4.587V5.93l-2.293 2.293zm-9.173 0L13.76 5.93V4.587h4.587V5.93l-2.293 2.293zM4.587 20.612h4.587v-8.196l2.293-2.293 2.965 2.965a2.29 2.29 0 0 0 3.243 0l2.965-2.965 2.965 2.965a2.29 2.29 0 0 0 3.243 0l2.965-2.965 2.293 2.293v8.196h4.587v-8.196L40.608 8.5c.43-.43.672-1.01.672-1.62V2.293C41.28 1.027 40.253 0 38.987 0H2.293C1.027 0 0 1.027 0 2.293V6.88c0 .6.243 1.193.672 1.62l3.915 3.915v8.196z"/><path d="M0 22.933v4.587h4.587v11.456c0 1.266 1.027 2.293 2.293 2.293H34.4c1.266 0 2.293-1.027 2.293-2.293V27.52h4.587v-4.587H0z"/></g></g></g><g transform="translate(428)"><g filter="url(#E)"><g transform="translate(.5)"><mask id="Z" class="E"><use xlink:href="#F"/></mask><use xlink:href="#F" class="E"/><g class="F P"><path d="M141.314 264.752V250.12h-33.553v-61.04h-17.05v75.672h50.602zm35.41 1.53c4.3 0 8.18-.728 11.64-2.184s6.43-3.512 8.907-6.17 4.372-5.86 5.683-9.61 1.967-7.88 1.967-12.394-.692-8.626-2.077-12.34-3.315-6.88-5.792-9.5-5.446-4.66-8.907-6.115-7.268-2.184-11.42-2.184c-4.08 0-7.85.728-11.312 2.184s-6.448 3.494-8.962 6.115-4.48 5.787-5.902 9.5-2.13 7.826-2.13 12.34.692 8.645 2.077 12.394 3.315 6.952 5.792 9.61 5.446 4.714 8.907 6.17 7.304 2.184 11.53 2.184zm0-13.977c-3.716 0-6.594-1.474-8.634-4.422s-3.06-6.934-3.06-11.957 1.02-8.972 3.06-11.848 4.918-4.313 8.634-4.313 6.576 1.438 8.58 4.313 3.006 6.825 3.006 11.848-1.002 9.01-3.006 11.957-4.863 4.422-8.58 4.422zm66.34 13.977c4.3 0 8.18-.728 11.64-2.184s6.43-3.512 8.907-6.17 4.372-5.86 5.683-9.61 1.967-7.88 1.967-12.394-.692-8.626-2.077-12.34-3.315-6.88-5.792-9.5-5.446-4.66-8.907-6.115-7.268-2.184-11.42-2.184c-4.08 0-7.85.728-11.312 2.184s-6.448 3.494-8.962 6.115-4.48 5.787-5.902 9.5-2.13 7.826-2.13 12.34.692 8.645 2.077 12.394 3.315 6.952 5.792 9.61 5.446 4.714 8.907 6.17 7.304 2.184 11.53 2.184zm0-13.977c-3.716 0-6.594-1.474-8.634-4.422s-3.06-6.934-3.06-11.957 1.02-8.972 3.06-11.848 4.918-4.313 8.634-4.313 6.576 1.438 8.58 4.313 3.006 6.825 3.006 11.848-1.002 9.01-3.006 11.957-4.863 4.422-8.58 4.422zm57.05 12.448v-25.115c1.822 1.456 3.66 3.24 5.52 5.35a93.47 93.47 0 0 1 5.301 6.606 155.56 155.56 0 0 1 4.754 6.879l3.99 6.28h18.69c-1.24-2.402-2.77-5.06-4.6-7.97s-3.825-5.824-6.01-8.736-4.445-5.733-6.776-8.463-4.6-5.078-6.776-7.043c4.372-4.295 8.397-8.463 12.077-12.503l11.312-12.72h-19.345l-3.66 4.368-4.536 5.296-4.973 5.624-4.973 5.46v-48.046l-16.284 2.62v82.114h16.284zm55.083-64.425c2.623 0 4.9-.855 6.83-2.566s2.896-4.058 2.896-7.043-.965-5.332-2.896-7.043-4.208-2.566-6.83-2.566-4.9.855-6.83 2.566-2.896 4.058-2.896 7.043.965 5.332 2.896 7.043 4.208 2.566 6.83 2.566zm8.197 64.425v-57.436H347.11v57.436h16.284zm31.585 0V220.42c1.02-.146 2.186-.273 3.497-.382s2.55-.164 3.716-.164c3.79 0 6.375 1.092 7.76 3.276s2.077 5.897 2.077 11.138h0v30.465h16.284v-32.43c0-3.93-.4-7.498-1.202-10.7s-2.15-5.97-4.044-8.3-4.463-4.13-7.705-5.405-7.304-1.91-12.186-1.91c-4.81 0-9.4.346-13.77 1.037s-7.942 1.438-10.71 2.238h0v55.47h16.284zm68.417 20.53c9.982 0 17.36-2.275 22.132-6.825s7.16-11.52 7.16-20.91h0V209.28c-1.457-.437-3.115-.855-4.973-1.256s-3.807-.746-5.847-1.037a114.35 114.35 0 0 0-6.175-.71 69.49 69.49 0 0 0-6.066-.273c-4.6 0-8.707.673-12.35 2.02s-6.72 3.258-9.235 5.733-4.426 5.442-5.738 8.9-1.967 7.298-1.967 11.52c0 8.444 2.113 15.014 6.34 19.7s10.3 7.043 18.252 7.043c2.186 0 4.208-.2 6.066-.6a26.23 26.23 0 0 0 5.41-1.802h0v2.075c0 3.203-.965 5.824-2.896 7.862s-5.228 3.057-9.89 3.057c-3.57 0-6.758-.29-9.563-.874a47.76 47.76 0 0 1-8.033-2.402h0l-2.842 13.65c2.987 1.02 6.23 1.838 9.727 2.457s6.995.928 10.492.928zm4.6-37.454c-7.36 0-11.038-4.55-11.038-13.65 0-4.368 1.056-7.97 3.17-10.8s5.32-4.26 9.618-4.26c1.457 0 2.732.055 3.825.164s2.04.237 2.842.382h0v25.988c-1.02.582-2.26 1.092-3.716 1.53s-3.024.655-4.7.655zm-370.28 39.36c2.623 0 4.9-.855 6.83-2.566s2.896-4.058 2.896-7.043-.965-5.332-2.896-7.043-4.208-2.566-6.83-2.566-4.9.855-6.83 2.566-2.896 4.058-2.896 7.043.965 5.332 2.896 7.043 4.208 2.566 6.83 2.566zm8.197 64.425v-57.436H89.62v57.436h16.284zm31.585 0v-44.333c1.02-.146 2.186-.273 3.497-.382s2.55-.164 3.716-.164c3.79 0 6.375 1.092 7.76 3.276s2.077 5.897 2.077 11.138h0v30.465h16.284v-32.43c0-3.93-.4-7.498-1.202-10.7s-2.15-5.97-4.044-8.3-4.463-4.13-7.705-5.405-7.304-1.91-12.186-1.91c-4.81 0-9.4.346-13.77 1.037s-7.942 1.438-10.71 2.238h0v55.47h16.284zm70.275 1.3c3.497 0 6.448-.29 8.853-.874s4.6-1.274 6.558-2.075h0l-2.295-12.667c-1.53.582-3.224 1.037-5.082 1.365a31.14 31.14 0 0 1-5.41.491c-3.643 0-6.066-1.02-7.268-3.057s-1.803-4.768-1.803-8.2h0v-20.2h19.563v-13.54h-19.563V277.25l-16.284 2.62v48.264c0 3.713.346 7.098 1.038 10.155s1.913 5.66 3.66 7.807 4.08 3.822 6.995 5.023 6.594 1.802 11.038 1.802zm49.728.218c4.3 0 8.18-.728 11.64-2.184s6.43-3.512 8.907-6.17 4.372-5.86 5.683-9.61 1.967-7.88 1.967-12.394-.692-8.626-2.077-12.34-3.315-6.88-5.792-9.5-5.446-4.66-8.907-6.115-7.268-2.184-11.42-2.184c-4.08 0-7.85.728-11.312 2.184s-6.448 3.494-8.962 6.115-4.48 5.787-5.902 9.5-2.13 7.826-2.13 12.34.692 8.645 2.077 12.394 3.315 6.952 5.792 9.61 5.446 4.714 8.907 6.17 7.304 2.184 11.53 2.184zm0-13.977c-3.716 0-6.594-1.474-8.634-4.422s-3.06-6.934-3.06-11.957 1.02-8.972 3.06-11.848 4.918-4.313 8.634-4.313 6.576 1.438 8.58 4.313 3.006 6.825 3.006 11.848-1.002 9.01-3.006 11.957-4.863 4.422-8.58 4.422zm89.182 13.76c3.497 0 6.448-.29 8.853-.874s4.6-1.274 6.558-2.075h0l-2.295-12.667c-1.53.582-3.224 1.037-5.082 1.365a31.14 31.14 0 0 1-5.41.491c-3.643 0-6.066-1.02-7.268-3.057s-1.803-4.768-1.803-8.2h0v-20.2h19.563v-13.54h-19.563V277.25l-16.284 2.62v48.264c0 3.713.346 7.098 1.038 10.155s1.913 5.66 3.66 7.807 4.08 3.822 6.995 5.023 6.594 1.802 11.038 1.802zm42.624-1.3v-43.678a44.11 44.11 0 0 1 3.443-.819c1.275-.255 2.64-.382 4.098-.382 3.643 0 6.14 1.092 7.486 3.276s2.022 5.897 2.022 11.138h0v30.465h16.284v-32.43c0-3.93-.383-7.498-1.148-10.7s-2.077-5.97-3.935-8.3-4.335-4.13-7.432-5.405-6.976-1.91-11.64-1.91a26.45 26.45 0 0 0-4.973.491c-1.712.328-3.115.673-4.208 1.037h0v-27.517l-16.284 2.62v82.114h16.284zm75.74 1.53a57.46 57.46 0 0 0 6.12-.328c2.04-.218 3.953-.49 5.738-.82s3.406-.7 4.863-1.147 2.623-.874 3.497-1.3h0l-2.186-13.213c-1.822.8-4.17 1.474-7.05 2.02a47.1 47.1 0 0 1-8.798.819c-4.663 0-8.38-.983-11.148-2.948s-4.335-4.623-4.7-7.97h36.94l.22-3.003c.073-1.128.11-2.166.11-3.112 0-9.682-2.368-17.016-7.104-22.003s-11.184-7.48-19.345-7.48c-3.497 0-6.904.655-10.22 1.966a25.69 25.69 0 0 0-8.798 5.787c-2.55 2.548-4.608 5.733-6.175 9.555s-2.35 8.28-2.35 13.376c0 4.222.6 8.153 1.803 11.793s3.06 6.788 5.574 9.445 5.683 4.75 9.508 6.28 8.324 2.293 13.498 2.293zm7.87-36.034h-21.53a23.27 23.27 0 0 1 1.038-4.095c.474-1.347 1.148-2.53 2.022-3.55s1.967-1.838 3.28-2.457 2.878-.928 4.7-.928c1.894 0 3.48.328 4.754.983s2.332 1.492 3.17 2.51 1.457 2.184 1.858 3.494a16.78 16.78 0 0 1 .71 4.04h0zM107.762 438.47v-31.23h29.946v-14.304h-29.946v-15.833h33.662v-14.304h-50.71v75.672h17.05zm66.996 1.3c4.81 0 9.4-.346 13.77-1.037s7.942-1.438 10.71-2.238h0v-55.47h-16.284v44.333a60.6 60.6 0 0 1-3.497.382c-1.312.11-2.55.164-3.716.164-3.79 0-6.375-1.165-7.76-3.494s-2.077-6.115-2.077-11.356h0v-30.028H149.62v31.994c0 3.93.4 7.534 1.202 10.8s2.15 6.097 4.044 8.463 4.463 4.204 7.705 5.514 7.304 1.966 12.186 1.966zm61.97 0c3.497 0 6.448-.29 8.853-.874s4.6-1.274 6.558-2.075h0l-2.295-12.667c-1.53.582-3.224 1.037-5.082 1.365a31.14 31.14 0 0 1-5.41.491c-3.643 0-6.066-1.02-7.268-3.057s-1.803-4.768-1.803-8.2h0v-20.2h19.563v-13.54h-19.563V364.11l-16.284 2.62v48.264c0 3.713.346 7.098 1.038 10.155s1.913 5.66 3.66 7.807 4.08 3.822 6.995 5.023 6.594 1.802 11.038 1.802zm50.93 0c4.81 0 9.4-.346 13.77-1.037s7.942-1.438 10.71-2.238h0v-55.47h-16.284v44.333a60.6 60.6 0 0 1-3.497.382c-1.312.11-2.55.164-3.716.164-3.79 0-6.375-1.165-7.76-3.494s-2.077-6.115-2.077-11.356h0v-30.028H262.52v31.994c0 3.93.4 7.534 1.202 10.8s2.15 6.097 4.044 8.463 4.463 4.204 7.705 5.514 7.304 1.966 12.186 1.966zm56.067-1.3v-43.896c.73-.218 1.803-.42 3.224-.6s2.64-.273 3.66-.273c2.26 0 4.372.2 6.34.6s3.68.783 5.137 1.147h0l2.732-13.43c-.874-.364-1.93-.673-3.17-.928a66.21 66.21 0 0 0-3.716-.655c-1.24-.182-2.477-.328-3.716-.437s-2.295-.164-3.17-.164c-4.882 0-9.308.455-13.28 1.365s-7.414 1.875-10.328 2.894h0v54.38h16.284zm56.395 1.53a57.46 57.46 0 0 0 6.12-.328c2.04-.218 3.953-.49 5.738-.82s3.406-.7 4.863-1.147 2.623-.874 3.497-1.3h0l-2.186-13.213c-1.822.8-4.17 1.474-7.05 2.02a47.1 47.1 0 0 1-8.798.819c-4.663 0-8.38-.983-11.148-2.948s-4.335-4.623-4.7-7.97h36.94l.22-3.003c.073-1.128.11-2.166.11-3.112 0-9.682-2.368-17.016-7.104-22.003s-11.184-7.48-19.345-7.48c-3.497 0-6.904.655-10.22 1.966a25.69 25.69 0 0 0-8.798 5.787c-2.55 2.548-4.608 5.733-6.175 9.555s-2.35 8.28-2.35 13.376c0 4.222.6 8.153 1.803 11.793s3.06 6.788 5.574 9.445 5.683 4.75 9.508 6.28S394.945 440 400.118 440zm7.87-36.034h-21.53a23.27 23.27 0 0 1 1.038-4.095c.474-1.347 1.148-2.53 2.022-3.55s1.967-1.838 3.28-2.457 2.878-.928 4.7-.928c1.894 0 3.48.328 4.754.983s2.332 1.492 3.17 2.51 1.457 2.184 1.858 3.494a16.78 16.78 0 0 1 .71 4.04h0z" fill="#000"/><path d="M128.468 158.04v-5.517H96.8v-.194c0-1.55.37-3.113 1.114-4.694s1.744-3.194 3.003-4.84 2.68-3.29 4.262-4.936l4.892-4.888 5.91-5.807c1.937-1.936 3.665-3.936 5.183-6s2.73-4.2 3.633-6.436 1.356-4.597 1.356-7.114c0-5.678-1.647-10.114-4.94-13.308s-8.202-4.79-14.725-4.79c-2.454 0-4.682.306-6.684.92s-3.762 1.34-5.28 2.178-2.777 1.694-3.778 2.565-1.695 1.532-2.083 1.984h0l3.294 4.355c.387-.387 1-.936 1.84-1.645s1.857-1.403 3.05-2.08 2.6-1.274 4.214-1.79 3.455-.774 5.522-.774c3.68 0 6.733.984 9.154 2.952s3.633 5.2 3.633 9.727c0 2.065-.323 3.968-.97 5.7s-1.518 3.388-2.616 4.936-2.373 3.05-3.826 4.5l-4.6 4.5-6.055 5.807a49.51 49.51 0 0 0-5.715 6.485 35.87 35.87 0 0 0-4.214 7.404c-1.098 2.613-1.647 5.436-1.647 8.47 0 .7.016 1.242.048 1.597s.048.597.048.726h38.652zm35.455 1.452c6.846 0 12.157-3 15.936-9s5.667-14.647 5.667-25.94c0-11.356-1.89-20.035-5.667-26.035s-9.1-9-15.936-9c-6.9 0-12.238 3-15.984 9s-5.62 14.68-5.62 26.035c0 11.292 1.89 19.938 5.667 25.94s9.1 9 15.936 9zm0-5.7c-2.842 0-5.2-.807-7.072-2.42s-3.374-3.76-4.505-6.436-1.937-5.775-2.422-9.29-.727-7.21-.727-11.082.242-7.565.727-11.082 1.292-6.63 2.422-9.34 2.632-4.872 4.505-6.485 4.23-2.42 7.072-2.42c2.777 0 5.102.807 6.975 2.42s3.39 3.775 4.553 6.485 1.986 5.823 2.47 9.34.727 7.21.727 11.082-.242 7.565-.727 11.082-1.308 6.614-2.47 9.29-2.68 4.823-4.553 6.436-4.198 2.42-6.975 2.42zm73.817 4.26v-5.517h-31.677v-.194c0-1.55.37-3.113 1.114-4.694s1.744-3.194 3.003-4.84 2.68-3.29 4.262-4.936 3.213-3.275 4.892-4.888l5.91-5.807c1.937-1.936 3.665-3.936 5.183-6s2.73-4.2 3.633-6.436 1.356-4.597 1.356-7.114c0-5.678-1.647-10.114-4.94-13.308s-8.202-4.79-14.725-4.79c-2.454 0-4.682.306-6.684.92s-3.762 1.34-5.28 2.178-2.777 1.694-3.778 2.565-1.695 1.532-2.083 1.984h0l3.294 4.355c.387-.387 1-.936 1.84-1.645s1.857-1.403 3.05-2.08 2.6-1.274 4.214-1.79 3.455-.774 5.522-.774c3.68 0 6.733.984 9.154 2.952s3.633 5.2 3.633 9.727c0 2.065-.323 3.968-.97 5.7s-1.518 3.388-2.616 4.936-2.373 3.05-3.826 4.5l-4.6 4.5-6.055 5.807a49.51 49.51 0 0 0-5.715 6.485 35.87 35.87 0 0 0-4.214 7.404c-1.098 2.613-1.647 5.436-1.647 8.47 0 .7.016 1.242.048 1.597s.048.597.048.726h38.652zm42.333 0V90.966h-4.456c-2.97 3.613-5.974 6.47-9.01 8.566s-6.5 3.823-10.365 5.178h0l1.84 4.84c1.55-.452 3.1-1.05 4.65-1.79s3.035-1.516 4.456-2.323 2.696-1.63 3.826-2.468 2.05-1.645 2.76-2.42h0v57.49h6.297z" class="U"/></g><g opacity=".92" class="P"><g transform="translate(558.879 78.625)"><g transform="translate(236.971)"><path d="M237.32 118.863V.134H118.917l.01 1.397c1.04 64.327 52.85 116.278 117 117.32l1.39.012z" fill="#2ac2ff"/><path d="M237.32 121.575v118.73H118.917l.01-1.397c1.04-64.327 52.85-116.278 117-117.32l1.39-.012z" fill="#00173a"/><path d="M118.916 240.305v-118.73H.513l.01 1.397c1.04 64.327 52.85 116.278 117 117.32l1.39.012z" class="L"/><ellipse fill="#005b11" cx="59.715" cy="59.498" rx="59.202" ry="59.364"/><ellipse cx="59.715" cy="300.088" rx="59.202" ry="59.364" class="U"/></g><path d="M121.71 359.845v-119.12H0l.012 1.4c1.07 64.54 54.326 116.663 120.27 117.71l1.43.012z" fill="#005b11"/><path d="M121.71 0v119.12H0l.012-1.4C1.08 53.18 54.338 1.058 120.28.012L121.71 0z" class="O"/><path d="M121.71 119.12V0h121.71l-.012 1.4c-1.07 64.54-54.326 116.663-120.27 117.71l-1.43.012z" fill="#00173a"/><path d="M121.71 121.603v119.12H0l.012-1.4c1.07-64.54 54.326-116.663 120.27-117.71l1.43-.012z" class="U"/><ellipse fill="#ff7800" transform="matrix(1 0 0 -1 0 600.569712)" cx="180.083" cy="300.285" rx="58.372" ry="59.561"/></g></g><path d="M-185.246 257.306c64.008 39.5 103.258 134.188 117.75 284.06l.432 4.558-355.2 6.702c.654-72.37 8.074-129.816 22.26-172.34 7.248-21.725 31.667-60.416 73.258-116.074l.8-1.067c54.45 2.883 101.513.475 140.53-5.8l.168-.03z" class="L P"/></g></g><g filter="url(#G)" transform="translate(957.75 443.5)" class="F"><path fill="#231d1e" d="M0 22.75h3.25V19.5h6.5v3.25H13V3.25h3.25V0h6.5v3.25H26V13h13v3.25h6.5v3.25h3.25v16.25H45.5v6.5h-3.25V52h-6.5v-3.25H32.5V52H16.25v-6.5H13v-3.25H9.75V39H6.5v-6.5H3.25v-3.25H0z"/><path d="M3.25 22.75h6.5V26H13v3.25h3.25v-26h6.5v19.5H26v-6.5h6.5v6.5h3.25v-6.5H39v6.5h3.25V19.5h3.25v16.25h-3.25v6.5H39v6.5h-3.25V45.5H32.5v3.25h-13V45.5h-3.25v-3.25H13V39H9.75v-6.5H6.5v-3.25H3.25z" class="E"/><g fill="#231d1e"><path d="M22.75 29.25H26v13h-3.25z"/><path d="M29.25 29.25h3.25v13h-3.25z"/><path d="M35.75 29.25H39v13h-3.25z"/></g></g></g></g></svg>