<svg xmlns="http://www.w3.org/2000/svg" xmlns:xlink="http://www.w3.org/1999/xlink" width="615" height="671" xmlns:v="https://vecta.io/nano"><style><![CDATA[.B{stroke-linejoin:round}.C{stroke-width:.6}.D{stroke-linecap:round}.E{fill:#f4f2ee}.F{fill-rule:nonzero}.G{fill:#fff}.H{stroke:#001d75}.I{fill:#ff9d00}.J{stroke:#212121}.K{fill:#f2f4f6}.L{fill:#06f}.M{fill:#ff0034}.N{fill:#001d75}.O{fill:#00c15a}.P{stroke:#f4f2ee}.Q{fill:#fb3640}.R{fill:#212121}.S{fill:#ff0025}.T{fill:#ff5fa7}.U{stroke:#ffc200}.V{mask:url(#Aj)}.W{stroke-width:1.053}.X{stroke-linecap:square}]]></style><defs><filter x="-17.5%" y="-6.3%" width="135.0%" height="117.3%" id="A"><feOffset dy="5" in="SourceAlpha"/><feGaussianBlur stdDeviation="5"/><feColorMatrix values="0 0 0 0 0 0 0 0 0 0.164542109 0 0 0 0 0.362271488 0 0 0 0.1 0" result="C"/><feMerge><feMergeNode in="C"/><feMergeNode in="SourceGraphic"/></feMerge></filter><filter x="-10.0%" y="-11.9%" width="120.1%" height="123.8%" id="B"><feOffset dy="5" in="SourceAlpha"/><feGaussianBlur stdDeviation="5"/><feColorMatrix values="0 0 0 0 0 0 0 0 0 0.164542109 0 0 0 0 0.362271488 0 0 0 0.1 0" result="C"/><feMerge><feMergeNode in="C"/><feMergeNode in="SourceGraphic"/></feMerge></filter><filter x="-11.8%" y="-24.1%" width="123.5%" height="147.7%" id="C"><feOffset dy="7" in="SourceAlpha"/><feGaussianBlur stdDeviation="7"/><feColorMatrix values="0 0 0 0 0 0 0 0 0 0.164542109 0 0 0 0 0.362271488 0 0 0 0.1 0" result="C"/><feMerge><feMergeNode in="C"/><feMergeNode in="SourceGraphic"/></feMerge></filter><path id="D" d="M0 .01h353v171.1H0z"/><filter x="-11.8%" y="-31.4%" width="123.5%" height="162.9%" id="E"><feOffset dy="7" in="SourceAlpha"/><feGaussianBlur stdDeviation="7"/><feColorMatrix values="0 0 0 0 0 0 0 0 0 0.164542109 0 0 0 0 0.362271488 0 0 0 0.1 0" result="C"/><feMerge><feMergeNode in="C"/><feMergeNode in="SourceGraphic"/></feMerge></filter><filter x="-11.8%" y="-13.9%" width="123.5%" height="127.5%" id="F"><feOffset dy="7" in="SourceAlpha"/><feGaussianBlur stdDeviation="7"/><feColorMatrix values="0 0 0 0 0 0 0 0 0 0.164542109 0 0 0 0 0.362271488 0 0 0 0.1 0" result="C"/><feMerge><feMergeNode in="C"/><feMergeNode in="SourceGraphic"/></feMerge></filter><filter x="-40.6%" y="-38.2%" width="181.2%" height="176.5%" id="G"><feOffset dy="1" in="SourceAlpha"/><feGaussianBlur stdDeviation="1"/><feColorMatrix values="0 0 0 0 0 0 0 0 0 0 0 0 0 0 0 0 0 0 0.3 0" result="C"/><feMerge><feMergeNode in="C"/><feMergeNode in="SourceGraphic"/></feMerge></filter><path id="H" d="M0 0h294v40.2H0z"/><path id="I" d="M11.973 0C5.36 0 0 5.36 0 11.973s5.36 11.973 11.973 11.973 11.973-5.36 11.973-11.973S18.585 0 11.973 0z"/><path id="J" d="M11.56 8.056c1.42 0 3.162-.09 5.23-.268l.536-2.633h-2.324l.18-3.838H2.308l-.08 2.128C.743 3.03 0 3.226 0 4.03s.665 1.283 1.996 1.438l.447 2.053 9.118.535z"/><path id="K" d="M.092.306C.027 1.426 1.024 1.71 1.3.68 1.5-.107.362-.182 0 .306"/><path id="L" d="M3.843.127c.02.238.005.482.058.715.23 1.012 1.495.03.825-.815"/><path id="M" d="M15.503 0c.276 0-.05 2.46-.223 2.952-.22.626-.737.49-1.296.49a4.1 4.1 0 0 1-.466-.021 7.61 7.61 0 0 0-.86-.882l-.25-.207.062.363-.08-.126c-.34.855-1.02 1.097-1.85 1.097C8.628 3.667 7.864 2.21 8.17 0h7.333zM11.7.997H9.114l-.001.013c-.033.53.027.942.17 1.236l.085.15c.226.333.627.506 1.263.506.433 0 .73-.278.92-.96l.05-.206.037-.2.036-.282.025-.244zm3.07 0h-1.915c.272 1.115.63 1.6 1.297 1.672l.188.01c.027 0 .04-.006.067-.03.054-.05.112-.152.167-.306.088-.25.15-.604.18-1.054l.016-.29z"/><path id="N" d="M12.706 2.87c.9.7 1.696 1.743 1.56 1.914-.18.223-.825.27-.983.178-.127-.073-.07.026-.07.858"/><path id="O" d="M10.742 5.122c1.053.78 2.22.88 3.375.643"/><path id="P" d="M11.87 7.126c.225.9.758 1.47 1.32 2.224"/><path id="Q" d="M12.8 7.028c.616 1.947.48 1.117.618 2.448"/><path id="R" d="M13.556 7.168c.184 1.893.162 1.106.162 2.357"/><path id="S" d="M14.94 7.238c-.05.918-.293 1.65-.752 2.44"/><path id="T" d="M15.566 7.147c-.084.895-.34 1.757-.942 2.456"/><path id="U" d="M15.9 8.108c-.744.997-.834 1.303-1.947 1.564"/><path id="V" d="M128.4 16.8H180a3.6 3.6 0 0 1 0 7.2h-51.6a3.6 3.6 0 0 1 0-7.2z"/><path id="W" d="M262.6 16.8h12.8a3.6 3.6 0 0 1 0 7.2h-12.8a3.6 3.6 0 0 1 0-7.2z"/><path id="X" d="M51.6 16.8h61.8a3.6 3.6 0 0 1 0 7.2H51.6a3.6 3.6 0 0 1 0-7.2z"/><path id="Y" d="M205.2 16.8H244a3.6 3.6 0 0 1 0 7.2h-38.8a3.6 3.6 0 0 1 0-7.2z"/><path id="Z" d="M128.4 16.8h61.8a3.6 3.6 0 0 1 0 7.2h-61.8a3.6 3.6 0 0 1 0-7.2z"/><path id="a" d="M51.6 16.8H87a3.6 3.6 0 0 1 0 7.2H51.6a3.6 3.6 0 0 1 0-7.2z"/><path id="b" d="M128.4 16.8h47.4a3.6 3.6 0 0 1 0 7.2h-47.4a3.6 3.6 0 0 1 0-7.2z"/><path id="c" d="M51.6 16.8h27.6a3.6 3.6 0 0 1 0 7.2H51.6a3.6 3.6 0 0 1 0-7.2z"/><path id="d" d="M3.312 15.856C1.595 10.19 7.555 2.885 11.865 1.57c6.544-1.995 8.258 9.423 7.964 9.535l-.6.215c-2.266.78-7.572 2.3-15.917 4.534z"/><path id="e" d="M10.276 3.03c.295 2.356-2.012 8.302-4.448 7.976-2.046-.274-3.238-2.012-3.87-3.873C1.852 6.818.27 7.64.054 6.176s1.508-.544 1.463-.813c-.15-.898-.14-1.66-.117-2.268.004-.096.52-.393 1.624-.57a11.89 11.89 0 0 1 1.842-.134c1.05-.001 2.223.102 3.208.227.283.036.024-2.604.27-2.566s1 2.753 1.194 2.79c.454.084.734.155.738.187z"/><path id="f" d="M2.438 0l1.595 2.346c.082.1.24.22.192.343-.044.113-1.078.2-1.17.016-.047-.095-.06-.425-.058-.317.02.663.077 1.08.174 1.254"/><path id="g" d="M2.437 3.872c.352.04.245.532.52.466.14-.033.255-.187.396-.162.214.038.51.23.9.572l-.745.34-.276.13c-.642.31-2.606-.79-3.06-1.2l1.6.516 1.122.15c1.06.122.148-.1-2.732-.666.62-.344 1.922-.186 2.275-.147z"/><path id="h" d="M15.38 8.903c2.756 1.72 4.692 5.286 5.808 10.7C18.992 22.288 15.656 24 11.92 24a11.95 11.95 0 0 1-9.379-4.53c.202-1.363.475-2.565.82-3.608.372-1.127 1.55-3.06 3.54-5.8l.607-.828c2.83.15 5.304.045 7.39-.256l.484-.075z"/><path id="i" d="M6.273 18.125c1.633.84 2.685-.234 3.786-1.404"/><path id="j" d="M11.897 16.91c.224.97.365 1.58.92 2.362.013.02-.045.01-.067.017"/><path id="k" d="M13.848 18.97c-1.113-.66-.444-.164-1.692-1.843"/><path id="l" d="M16.143 18.494c-1.513-.103-3.07-.652-4.22-1.658"/><path id="m" d="M16.277 17.548c-.797.114-2.422.926-4.322-.82"/><path id="n" d="M16.218 16.4c-2.082.42-.796.253-3.886.176"/><path id="o" d="M7.842 19.435c.93-.74 2.3-1.558 2.54-2.85"/><path id="p" d="M9.173 19.42c1.104-.73.327-.124 1.59-2.5"/><path id="q" d="M10.397 19.485c.837-1.63.56-.827.914-2.375"/><path id="r" d="M11.722 19.298c-.626-1.272-.396-.544-.547-2.224"/><path id="s" d="M12.974 19.237c-.962-1.3-.495-.53-1.28-2.383"/><path id="t" d="M7.266 15.692c.843.498 2.01 1.418 2.93.6"/><path id="u" d="M6.776 16.815c.537.143 3.246.946 3.196-.425"/><path id="v" d="M8.765 9.59c-.064.577-.064.94 0 1.084.405.92 1.037.614 1.3-.38"/><path id="w" d="M10.498 8.94c-1.228 5.31-1.138 7.964.27 7.964s1.896-.94 1.463-2.817l-.217-4.822c.65 2.275 1.264 2.384 1.842.325"/><path id="x" d="M6.164 14.014c-.313-.16-.493-.306-.542-.433-.257-.68.262-1.05 1.192-.542.036-.795.343-1.282.92-1.463s.686.307.325 1.463c.575-.085.936-.085 1.084 0 .493.286.264.985-.758 1.41.506.433.578.885.217 1.354s-.795.253-1.3-.65c-.722.867-1.282 1.084-1.68.65s-.217-1.03.542-1.788z"/><path id="y" d="M16.808 13.028c.298-.218.46-.397.5-.537.155-.745-.443-1.04-1.324-.364-.168-.815-.565-1.27-1.194-1.36s-.66.43-.097 1.565c-.6.006-.984.065-1.123.178-.464.377-.113 1.06 1.017 1.332-.453.53-.454 1-.003 1.436s.865.13 1.24-.885c.9.778 1.506.9 1.847.396s.056-1.1-.854-1.76z"/><path id="z" d="M15.77 9.036c2.23-.4 3.477-.688 3.738-.867l-.488-1.354-4.063.813C14.705 3.69 14 1.722 12.845 1.722c-.376 0-.81.542-1.3 1.625-.686-2.095-1.41-2.492-2.167-1.192S8.222 5.424 8.186 8.06L5.53 7.9c-.577-.062-1.028-.156-1.354-.282v1.246c-.058.06.343.145 1.203.256l2.6.232c1.047.08 3.648-.028 7.8-.325z"/><path id="AA" d="M12 0C5.373 0 0 5.373 0 12s5.373 12 12 12 12-5.373 12-12S18.627 0 12 0z"/><path id="AB" d="M8.036 1.396C7.752 7.73.854 10.08 5.263 14.21c1.054.987-5.777 1-5.19 0C3.2 8.87-.07 7.73.001 1.965.01 1.285.106.647.276.062 3.7-.035 6.226.053 7.823.328c.127.022.198.378.213 1.068z"/><path id="AC" d="M12.597.87c-.378 1.64-1.097 3.324-1.236 5-.1 1.222-.045 2.452-.068 3.678"/><path id="AD" d="M12.163.814c-.848 2.132-1.176 4.05-1.256 6.354-.063 1.8-.244 1.368.117 2.117"/><path id="AE" d="M11.023 2.118c-.796 3.283-.832 4.344-.275 7.7"/><path id="AF" d="M10.697 10.208C8.723 8.436 9.55 5.34 10.08 3.15"/><path id="AG" d="M6.87 1.575c.12.593.087 1-.098 1.192C5.788 3.84 5.405 4.25 4.298 5.778c-.015.02-.01.076.015.076.123.001.26-.003.36-.072.7-.486 1.26-1.225 2.045-1.575 1.058-.472-1.452 1.16-.844 1.476.248.13 4.588-.467 3.185-.187s-3.487.668-3.312.896c.73.952.913 1.388.73 2.24"/><path id="AH" d="M4.235 2.715c-.637 1.694-1.5 5.82-4 6.298C.204 9.02.187 8.97.163 8.95"/><path id="AI" d="M3.855 1.575c-.577 2.86-1.43 5.388-3.8 7.06"/><path id="AJ" d="M3.53.49C2.793 3.152 2.42 6.048.163 7.873"/><path id="AK" d="M2.77.597C2.088 3.454 2.014 5.333 0 7.33"/><path id="AL" d="M3.465.024c-.308 0 .185 1.9.378 2.337.163.37.613.56 1.35.567.815.025 1.382-.16 1.7-.558l.05-.063c.378.76 1.14.975 2.065.975 2.138 0 2.99-1.295 2.65-3.258h-8.2zM7.24.75l3.636-.05.001.013c.048.626-.06 1.09-.304 1.4l-.025.03c-.292.343-.837.523-1.66.523-.564 0-1.222-.22-1.506-.924l-.066-.2c-.032-.12-.03-.31-.047-.536L7.24.75zM4.04.8h2.638l-.004.388c-.02.873-.207 1.263-1.753 1.294l-.288.003c-.037 0-.057-.006-.092-.03-.074-.05-.155-.152-.23-.307-.12-.252-.206-.605-.25-1.056L4.04.8z"/><path id="AM" d="M6.42 1.43c.03.46-.42.58-.544.154-.095-.324.423-.355.586-.154"/><path id="AN" d="M2.504 15.566c-.348.5-1.81.378-1.028-.656s1.376.146 1.028.656z"/><path id="AO" d="M4.214 16.44c-.358.493-1.667.18-.86-.82s1.22.327.86.82z"/><path id="AP" d="M6.707 16.734c-.363.512-1.666.28-.85-.757s1.213.245.85.757z"/><path id="AQ" d="M9.31 16.416c-.37.503-1.623.24-1.087-.647s1.456.144 1.087.647z"/><path id="AR" d="M11.166 15.817c-.35.498-1.434.26-1.033-.64s1.383.142 1.033.64z"/><path id="AS" d="M11.68 0C5.23 0 0 5.23 0 11.68s5.23 11.68 11.68 11.68 11.68-5.23 11.68-11.68S18.132 0 11.68 0z"/><path id="AT" d="M8.758 1.656c-2.652 0-5.022.702-6.792 1.82-.717.452-1.286.95-1.614 1.403-.198.273-.318.54-.332.817-.024.47.28.857.742.954l.04.008c.302.057.746.08 1.783.106l.94.025 2.264.1.144.01.124.01c1.07.08 1.97.2 2.682.366l.05.012v4.15c.096.977 1.148 1.465 3.156 1.465s4.294-.566 6.857-1.7l-.356-3.076.025-.007c.366-.098.676-.235.93-.418a1.72 1.72 0 0 0 .742-1.439 1.33 1.33 0 0 0-1.034-1.362l-.025-.006c-.28-.07-.6-.076-.972-.028l-.043.006-.066-.573-.234-.186c-2.074-1.646-5.083-2.453-9.01-2.453z"/><path id="AU" d="M6.934 2.536c1.03.06.867.083 1.602-.633"/><path id="AV" d="M7.034 3.062c.81-.058.894-.367 1.45-1.047"/><path id="AW" d="M7.44.315c.964-.883 1.46.3 1.355 1.047-.125.914-.87 1.62-1.57 2.12-.01.007-.62.42-.8.26-.433-.383-.26-1.246-.08-1.76S6.994.726 7.44.315z"/><path id="AX" d="M8.717 2.23c.16-.488.266-1.106.7-1.453.936-.748 1.84-.5 1.582.787-.14.704-.728 1.537-1.242 2.027-.667.636-1.248-.233-1.148-.867.048-.307.165-.6.247-.9"/><path id="AY" d="M11.974 1.61c.22 1.286.342 2.27 1.202 3.287 1.26 1.5 4.058.866 5.227-.413"/><path id="AZ" d="M13.05 1.776c-.233 1.71-.092 3.642 2.07 3.934.15.02 1.147.074 1.515-.053.894-.308.93-.494 1.782-1.187"/><path id="Aa" d="M13.443 1.79c.755 1.564 2.77 5.198 4.787 2.834"/><path id="Ab" d="M14.444 1.976c.177.96.266 1.933.908 2.72.85 1.043 2.583.83 3.304-.187"/><path id="Ac" d="M14.938 2.15c.485 1.223 1.4 3.276 3.064 2.594"/><path id="Ad" d="M15.533 2.276c.402.636 1.233 2.252 2.063 2.42.323.065.66-.01.988-.013"/><path id="Ae" d="M8.456 7.723c.814-.286 1.47.303 2.303.153.403-.073.895-.51 1.188-.734"/><path id="Af" d="M8.457 16.068l3.436 1.903 5.39-1.903-.317 4.017-5.074-1.533-4.334 1.533z"/><path id="Ag" d="M49.763 76.47h250.9c2.236 0 4.05 2.242 4.05 5.007s-1.813 5.007-4.05 5.007h-250.9c-2.236 0-4.05-2.242-4.05-5.007s1.813-5.007 4.05-5.007z"/><path id="Ah" d="M18.668 112.886h77.596c1.768 0 3.202 2.24 3.202 5s-1.434 5-3.202 5H18.668c-1.768 0-3.202-2.24-3.202-5s1.434-5 3.202-5z"/><path id="Ai" d="M108.222 184c-2.48 0-4.777 1.256-6.222 3.12-1.445-1.864-3.743-3.12-6.222-3.12-4.29 0-7.778 3.364-7.778 7.5 0 8.237 12.637 15.948 13.176 16.272a1.6 1.6 0 0 0 1.649 0c.538-.324 13.176-8.035 13.176-16.272 0-4.136-3.49-7.5-7.778-7.5"/></defs><g transform="translate(44 31)" fill="none" fill-rule="evenodd"><g filter="url(#A)" transform="translate(0 113)"><g transform="translate(26 242.8)"><g transform="translate(0 .4)"/></g><use xlink:href="#H" class="G"/><g transform="translate(12 8.4)"><use xlink:href="#I" class="F L"/><g transform="translate(3.305 7.476)"><g transform="translate(0 .003)"><use xlink:href="#J" class="I"/><g transform="translate(9.638 .964)" class="R"><use xlink:href="#K"/><use xlink:href="#L"/></g><use xlink:href="#M" class="F S"/><g class="B C D J"><use xlink:href="#N"/><use xlink:href="#O"/></g><g class="H B C D"><use xlink:href="#P"/><use xlink:href="#Q"/><use xlink:href="#R"/><path d="M14.37 7.168l-.422 2.59"/><use xlink:href="#S"/><use xlink:href="#T"/><use xlink:href="#U"/></g><path d="M10.818 4.796c-.067.18-.2.36-.425.37" class="B C D J"/></g></g></g><use xlink:href="#V" class="E"/><use xlink:href="#W" class="M"/><use xlink:href="#X" class="E"/><use xlink:href="#Y" class="K"/><g transform="translate(0 131.4)"><use xlink:href="#H" class="G"/><use xlink:href="#Z" class="E"/><use xlink:href="#W" class="I"/><use xlink:href="#a" class="E"/><use xlink:href="#Y" class="K"/></g><g transform="translate(0 87.6)"><use xlink:href="#H" class="G"/><use xlink:href="#b" class="E"/><use xlink:href="#W" class="O"/><use xlink:href="#X" class="E"/><use xlink:href="#Y" class="K"/></g><g transform="translate(0 43.8)"><use xlink:href="#H" class="G"/><use xlink:href="#V" class="E"/><use xlink:href="#W" class="M"/><use xlink:href="#c" class="E"/><use xlink:href="#Y" class="K"/></g><g filter="url(#B)" transform="translate(0 219)"><g transform="translate(26 242.8)"><g transform="translate(0 .4)"/></g><use xlink:href="#H" class="G"/><g transform="translate(12 8.4)"><use xlink:href="#I" class="F L"/><g transform="translate(3.305 7.476)"><g transform="translate(0 .003)"><use xlink:href="#J" class="I"/><g transform="translate(9.638 .964)" class="R"><use xlink:href="#K"/><use xlink:href="#L"/></g><use xlink:href="#M" class="F S"/><g class="B C D J"><use xlink:href="#N"/><use xlink:href="#O"/></g><g class="H B C D"><use xlink:href="#P"/><use xlink:href="#Q"/><use xlink:href="#R"/><path d="M14.37 7.168l-.422 2.59"/><use xlink:href="#S"/><use xlink:href="#T"/><use xlink:href="#U"/></g><path d="M10.818 4.796c-.067.18-.2.36-.425.37" class="B C D J"/></g></g></g><use xlink:href="#V" class="E"/><use xlink:href="#W" class="M"/><use xlink:href="#X" class="E"/><use xlink:href="#Y" class="K"/><g transform="translate(0 131.4)"><use xlink:href="#H" class="G"/><use xlink:href="#Z" class="E"/><use xlink:href="#W" class="I"/><use xlink:href="#a" class="E"/><use xlink:href="#Y" class="K"/></g><g transform="translate(0 87.6)"><use xlink:href="#H" class="G"/><use xlink:href="#b" class="E"/><use xlink:href="#W" class="O"/><use xlink:href="#X" class="E"/><use xlink:href="#Y" class="K"/></g><g transform="translate(0 43.8)"><use xlink:href="#H" class="G"/><use xlink:href="#V" class="E"/><use xlink:href="#W" class="M"/><use xlink:href="#c" class="E"/><use xlink:href="#Y" class="K"/></g><g transform="translate(0 175.2)"><use xlink:href="#H" class="G"/><use xlink:href="#b" class="E"/><use xlink:href="#W" class="O"/><use xlink:href="#X" class="E"/><use xlink:href="#Y" class="K"/></g><g transform="translate(12.6 96)"><use xlink:href="#I" class="F L"/><g transform="translate(.758 2.546)"><use xlink:href="#d" class="N"/><g transform="translate(6.664 3.359)" fill="#f1f4f6"><use xlink:href="#e"/></g><g transform="translate(10.348 6.555)"><g transform="translate(2.98 .488)" class="B C D J"><path d="M.27 0c.133 1.284 1.084.862 1.084.004"/><path d="M.325.704L0 1.138"/><path d="M.813.867l-.217.704"/><path d="M1.084.758l.163.596"/></g><use xlink:href="#f" fill="#f3fff6" class="B C D H"/><g transform="translate(.163 .433)" class="B C D J"><path d="M.24.092c-.202.85 1 .958 1.223-.092"/><path d="M.38.704L0 .975"/><path d="M.783.758l-.037.488"/><path d="M1.138.704l.163.38"/></g><use xlink:href="#g" fill="#ff243a"/></g></g></g><g transform="translate(12.6 53.4)"><use xlink:href="#I" class="F L"/><use xlink:href="#h" class="I"/><g class="B C D H"><use xlink:href="#i"/><use xlink:href="#j"/><use xlink:href="#k"/><use xlink:href="#l"/><use xlink:href="#m"/><use xlink:href="#n"/><use xlink:href="#o"/><use xlink:href="#p"/><use xlink:href="#q"/><use xlink:href="#r"/><use xlink:href="#s"/><use xlink:href="#t"/><use xlink:href="#u"/><use xlink:href="#v"/><use xlink:href="#w" class="I"/></g><g stroke="#ff5fa7" class="T B C"><use xlink:href="#x"/><use xlink:href="#y"/></g><g fill="#d41c61"><circle cx="7.383" cy="13.987" r="1"/><circle cx="15.485" cy="13.11" r="1"/></g><use xlink:href="#z" class="N"/></g><g transform="translate(12.6 139.8)"><use xlink:href="#AA" fill="#cce4ff" class="F"/><g transform="translate(5.701 3.475)"><g transform="translate(3.638 .217)" class="T"><use xlink:href="#AB"/></g><g class="B C D U"><use xlink:href="#AC"/><use xlink:href="#AD"/><use xlink:href="#AE"/><use xlink:href="#AF"/></g><use xlink:href="#AG" class="B C D J"/><g class="U B C D"><use xlink:href="#AH"/><use xlink:href="#AI"/><use xlink:href="#AJ"/><use xlink:href="#AK"/></g><use xlink:href="#AL" fill="#00ffce" class="F"/><g class="R"><use xlink:href="#AM"/><use xlink:href="#AM" x="1.575"/></g><g class="S"><use xlink:href="#AN"/><use xlink:href="#AO"/><use xlink:href="#AP"/><use xlink:href="#AQ"/><use xlink:href="#AR"/></g></g></g><g transform="translate(13.2 183.6)"><use xlink:href="#AS" class="F L"/><g transform="translate(1.216 5.18)"><use xlink:href="#AT" class="F I"/><g class="B C D H"><use xlink:href="#AU"/><use xlink:href="#AV"/><path d="M8.837 1.976c.203.52.553.556 1.095.513"/><path d="M8.837 1.982c.12.91-.092.528.694 1.107"/></g><g stroke="#fff" class="B C"><use xlink:href="#AW"/><g class="D"><use xlink:href="#AX"/></g></g><g class="H B C D"><use xlink:href="#AY"/><use xlink:href="#AZ"/><use xlink:href="#Aa"/><use xlink:href="#Ab"/><use xlink:href="#Ac"/><use xlink:href="#Ad"/><use xlink:href="#Ae"/></g></g><use xlink:href="#Af" class="B C H N"/></g></g><g transform="translate(0 175.2)"><use xlink:href="#H" class="G"/><use xlink:href="#b" class="E"/><use xlink:href="#W" class="O"/><use xlink:href="#X" class="E"/><use xlink:href="#Y" class="K"/></g><g transform="translate(12.6 96)"><use xlink:href="#I" class="F L"/><g transform="translate(.758 2.546)"><use xlink:href="#d" class="N"/><g transform="translate(6.664 3.359)" fill="#f1f4f6"><use xlink:href="#e"/></g><g transform="translate(10.348 6.555)"><g transform="translate(2.98 .488)" class="B C D J"><path d="M.27 0c.133 1.284 1.084.862 1.084.004"/><path d="M.325.704L0 1.138"/><path d="M.813.867l-.217.704"/><path d="M1.084.758l.163.596"/></g><use xlink:href="#f" fill="#f3fff6" class="B C D H"/><g transform="translate(.163 .433)" class="B C D J"><path d="M.24.092c-.202.85 1 .958 1.223-.092"/><path d="M.38.704L0 .975"/><path d="M.783.758l-.037.488"/><path d="M1.138.704l.163.38"/></g><use xlink:href="#g" fill="#ff243a"/></g></g></g><g transform="translate(12.6 53.4)"><use xlink:href="#I" class="F L"/><use xlink:href="#h" class="I"/><g class="B C D H"><use xlink:href="#i"/><use xlink:href="#j"/><use xlink:href="#k"/><use xlink:href="#l"/><use xlink:href="#m"/><use xlink:href="#n"/><use xlink:href="#o"/><use xlink:href="#p"/><use xlink:href="#q"/><use xlink:href="#r"/><use xlink:href="#s"/><use xlink:href="#t"/><use xlink:href="#u"/><use xlink:href="#v"/><use xlink:href="#w" class="I"/></g><g stroke="#ff5fa7" class="T B C"><use xlink:href="#x"/><use xlink:href="#y"/></g><g fill="#d41c61"><circle cx="7.383" cy="13.987" r="1"/><circle cx="15.485" cy="13.11" r="1"/></g><use xlink:href="#z" class="N"/></g><g transform="translate(12.6 139.8)"><use xlink:href="#AA" fill="#cce4ff" class="F"/><g transform="translate(5.701 3.475)"><g transform="translate(3.638 .217)" class="T"><use xlink:href="#AB"/></g><g class="B C D U"><use xlink:href="#AC"/><use xlink:href="#AD"/><use xlink:href="#AE"/><use xlink:href="#AF"/></g><use xlink:href="#AG" class="B C D J"/><g class="U B C D"><use xlink:href="#AH"/><use xlink:href="#AI"/><use xlink:href="#AJ"/><use xlink:href="#AK"/></g><use xlink:href="#AL" fill="#00ffce" class="F"/><g class="R"><use xlink:href="#AM"/><use xlink:href="#AM" x="1.575"/></g><g class="S"><use xlink:href="#AN"/><use xlink:href="#AO"/><use xlink:href="#AP"/><use xlink:href="#AQ"/><use xlink:href="#AR"/></g></g></g><g transform="translate(13.2 183.6)"><use xlink:href="#AS" class="F L"/><g transform="translate(1.216 5.18)"><use xlink:href="#AT" class="F I"/><g class="B C D H"><use xlink:href="#AU"/><use xlink:href="#AV"/><path d="M8.837 1.976c.203.52.553.556 1.095.513"/><path d="M8.837 1.982c.12.91-.092.528.694 1.107"/></g><g stroke="#fff" class="B C"><use xlink:href="#AW"/><g class="D"><use xlink:href="#AX"/></g></g><g class="H B C D"><use xlink:href="#AY"/><use xlink:href="#AZ"/><use xlink:href="#Aa"/><use xlink:href="#Ab"/><use xlink:href="#Ac"/><use xlink:href="#Ad"/><use xlink:href="#Ae"/></g></g><use xlink:href="#Af" class="B C H N"/></g></g><g filter="url(#C)" transform="translate(187)"><mask id="Aj" class="G"><use xlink:href="#D"/></mask><use xlink:href="#D" class="G P"/><g class="F V"><path d="M45.55 85.436v-4.722H34.734V61.016H29.24v24.42h16.3zm11.414.493c1.386 0 2.636-.235 3.752-.705s2.073-1.133 2.87-1.99 1.41-1.89 1.832-3.1.634-2.543.634-4-.223-2.784-.67-3.982-1.07-2.22-1.867-3.066-1.755-1.503-2.87-1.973-2.343-.705-3.68-.705c-1.315 0-2.53.235-3.646.705s-2.078 1.128-2.89 1.973-1.444 1.868-1.902 3.066-.687 2.525-.687 3.982.223 2.8.67 4 1.07 2.243 1.867 3.1 1.755 1.52 2.87 1.99 2.354.705 3.716.705zm0-4.5c-1.198 0-2.125-.476-2.783-1.427s-.986-2.238-.986-3.858.33-2.895.986-3.823 1.585-1.392 2.783-1.392 2.12.464 2.765 1.392.97 2.202.97 3.823-.323 2.907-.97 3.858-1.568 1.427-2.765 1.427zm21.383 4.5c1.386 0 2.636-.235 3.752-.705s2.073-1.133 2.87-1.99 1.41-1.89 1.832-3.1.634-2.543.634-4-.223-2.784-.67-3.982-1.07-2.22-1.867-3.066-1.755-1.503-2.87-1.973-2.343-.705-3.68-.705c-1.315 0-2.53.235-3.646.705s-2.078 1.128-2.89 1.973-1.444 1.868-1.902 3.066-.687 2.525-.687 3.982.223 2.8.67 4 1.07 2.243 1.867 3.1 1.755 1.52 2.87 1.99 2.354.705 3.716.705zm0-4.5c-1.198 0-2.125-.476-2.783-1.427s-.986-2.238-.986-3.858.33-2.895.986-3.823 1.585-1.392 2.783-1.392 2.12.464 2.765 1.392.97 2.202.97 3.823-.323 2.907-.97 3.858-1.568 1.427-2.765 1.427zm18.39 4.017V77.33c.587.47 1.18 1.045 1.78 1.727l1.71 2.132 1.532 2.22 1.286 2.026h6.024l-1.48-2.572-1.937-2.82-2.184-2.73c-.752-.88-1.48-1.64-2.184-2.273l3.893-4.035 3.646-4.105h-6.235l-1.18 1.41-1.462 1.71-1.603 1.815-1.603 1.762V58.092l-5.25.846v26.498h5.25zm17.755-20.8a3.21 3.21 0 0 0 2.202-.828c.622-.552.934-1.3.934-2.273s-.31-1.72-.934-2.273a3.21 3.21 0 0 0-2.202-.828 3.21 3.21 0 0 0-2.202.828c-.622.552-.934 1.3-.934 2.273s.31 1.72.934 2.273a3.21 3.21 0 0 0 2.202.828zm2.642 20.8V66.9h-5.25v18.535h5.25zm10.18 0V71.13l1.127-.123 1.198-.053c1.22 0 2.055.352 2.5 1.057s.67 1.903.67 3.594h0v9.83h5.25V74.97c0-1.27-.13-2.42-.387-3.453s-.693-1.926-1.303-2.678-1.438-1.333-2.484-1.744-2.354-.617-3.928-.617a28.36 28.36 0 0 0-4.439.335l-3.452.722v17.9h5.25zm22.052 6.625c3.217 0 5.595-.734 7.134-2.202s2.307-3.718 2.307-6.748h0V67.535l-1.603-.405-1.885-.335-2-.23-1.955-.088c-1.48 0-2.806.217-3.98.652s-2.166 1.05-2.977 1.85a7.91 7.91 0 0 0-1.849 2.872c-.423 1.116-.634 2.355-.634 3.718 0 2.725.68 4.845 2.043 6.36s3.323 2.273 5.883 2.273c.705 0 1.356-.065 1.955-.194a8.45 8.45 0 0 0 1.744-.581h0v.67c0 1.034-.31 1.88-.934 2.537s-1.685.987-3.188.987c-1.15 0-2.178-.094-3.082-.282a15.38 15.38 0 0 1-2.589-.775h0l-.916 4.405c.963.33 2.008.593 3.135.793s2.255.3 3.382.3zm1.48-12.086c-2.372 0-3.558-1.468-3.558-4.405 0-1.41.34-2.572 1.022-3.488s1.714-1.374 3.1-1.374l1.233.053.916.123v8.386c-.33.188-.728.352-1.198.493s-.975.21-1.515.21zm-119.35 12.7a3.21 3.21 0 0 0 2.202-.828c.622-.552.934-1.3.934-2.273s-.31-1.72-.934-2.273a3.21 3.21 0 0 0-2.202-.828 3.21 3.21 0 0 0-2.202.828c-.622.552-.934 1.3-.934 2.273s.31 1.72.934 2.273a3.21 3.21 0 0 0 2.202.828zm2.642 20.8V94.93h-5.25v18.535h5.25zm10.18 0V99.16l1.127-.123 1.198-.053c1.22 0 2.055.352 2.5 1.057s.67 1.903.67 3.594h0v9.83h5.25V103c0-1.27-.13-2.42-.387-3.453s-.693-1.926-1.303-2.678-1.438-1.333-2.484-1.744-2.354-.617-3.928-.617a28.36 28.36 0 0 0-4.439.335l-3.452.722v17.9h5.25zm22.65.423c1.127 0 2.078-.094 2.853-.282a14.93 14.93 0 0 0 2.114-.67h0l-.74-4.088c-.493.188-1.04.335-1.638.44s-1.18.16-1.744.16c-1.174 0-1.955-.33-2.343-.987s-.58-1.54-.58-2.643h0V99.3h6.306v-4.37H64.89V89.47l-5.25.846v15.575c0 1.198.112 2.3.335 3.277s.616 1.826 1.18 2.52 1.315 1.233 2.255 1.62 2.125.58 3.558.58zm16.028.07c1.386 0 2.636-.235 3.752-.705s2.073-1.133 2.87-1.99 1.41-1.89 1.832-3.1.634-2.543.634-4-.223-2.784-.67-3.982-1.07-2.22-1.867-3.066-1.755-1.503-2.87-1.973-2.343-.705-3.68-.705c-1.315 0-2.53.235-3.646.705s-2.078 1.128-2.89 1.973-1.444 1.868-1.902 3.066-.687 2.525-.687 3.982.223 2.8.67 4 1.07 2.243 1.867 3.1 1.755 1.52 2.87 1.99 2.354.705 3.716.705zm0-4.5c-1.198 0-2.125-.476-2.783-1.427s-.986-2.238-.986-3.858.33-2.895.986-3.823 1.585-1.392 2.783-1.392 2.12.464 2.765 1.392.97 2.202.97 3.823-.323 2.907-.97 3.858-1.568 1.427-2.765 1.427zm28.745 4.44c1.127 0 2.078-.094 2.853-.282a14.93 14.93 0 0 0 2.114-.67h0l-.74-4.088c-.493.188-1.04.335-1.638.44s-1.18.16-1.744.16c-1.174 0-1.955-.33-2.343-.987s-.58-1.54-.58-2.643h0V99.3h6.306v-4.37h-6.306V89.47l-5.25.846v15.575c0 1.198.112 2.3.335 3.277s.616 1.826 1.18 2.52 1.315 1.233 2.255 1.62 2.125.58 3.558.58zm13.74-.423V99.37l1.1-.264a6.73 6.73 0 0 1 1.321-.123c1.174 0 1.98.352 2.413 1.057s.652 1.903.652 3.594h0v9.83h5.25V103c0-1.27-.123-2.42-.37-3.453s-.67-1.926-1.268-2.678-1.397-1.333-2.395-1.744-2.25-.617-3.752-.617c-.517 0-1.05.053-1.603.16s-1.004.217-1.356.335h0v-8.88l-5.25.846v26.498h5.25zm24.412.493a18.5 18.5 0 0 0 1.973-.106l1.85-.264c.575-.106 1.098-.23 1.568-.37s.845-.282 1.127-.423h0l-.705-4.264c-.587.258-1.345.476-2.272.652s-1.873.264-2.836.264c-1.503 0-2.7-.317-3.593-.95s-1.397-1.492-1.515-2.572h11.907l.07-.97.035-1.004c0-3.124-.763-5.49-2.3-7.1s-3.605-2.414-6.235-2.414c-1.127 0-2.225.21-3.294.634a8.28 8.28 0 0 0-2.836 1.868c-.822.822-1.485 1.85-2 3.083s-.757 2.672-.757 4.317c0 1.363.194 2.63.58 3.806s.986 2.19 1.797 3.048 1.832 1.533 3.065 2.026 2.683.74 4.35.74zm2.536-11.628h-6.94c.07-.446.182-.887.335-1.32s.37-.816.652-1.145a3.13 3.13 0 0 1 1.057-.793c.423-.2.928-.3 1.515-.3.61 0 1.12.106 1.532.317s.752.482 1.022.8.47.705.6 1.128a5.42 5.42 0 0 1 .229 1.304h0zM34.734 141.495v-10.078h9.652V126.8h-9.652v-5.11h10.85v-4.616H29.24v24.42h5.495zm21.594.423a28.36 28.36 0 0 0 4.439-.335l3.452-.722v-17.9h-5.25v14.306l-1.127.123-1.198.053c-1.22 0-2.055-.376-2.5-1.128s-.67-1.973-.67-3.665h0v-9.7h-5.25v10.325c0 1.27.13 2.43.387 3.488s.693 1.967 1.303 2.73 1.438 1.357 2.484 1.78 2.354.634 3.928.634zm19.974 0c1.127 0 2.078-.094 2.853-.282a14.93 14.93 0 0 0 2.114-.67h0l-.74-4.088c-.493.188-1.04.335-1.638.44s-1.18.16-1.744.16c-1.174 0-1.955-.33-2.343-.987s-.58-1.54-.58-2.643h0v-6.52h6.306v-4.37h-6.306v-5.462l-5.25.846v15.575c0 1.198.112 2.3.335 3.277s.616 1.826 1.18 2.52 1.315 1.233 2.255 1.62 2.125.58 3.558.58zm16.416 0a28.36 28.36 0 0 0 4.439-.335l3.452-.722v-17.9h-5.25v14.306l-1.127.123-1.198.053c-1.22 0-2.055-.376-2.5-1.128s-.67-1.973-.67-3.665h0v-9.7h-5.25v10.325c0 1.27.13 2.43.387 3.488s.693 1.967 1.303 2.73 1.438 1.357 2.484 1.78 2.354.634 3.928.634zm18.072-.423V127.33c.235-.07.58-.135 1.04-.194s.85-.088 1.18-.088c.728 0 1.41.065 2.043.194l1.656.37.88-4.334c-.282-.117-.622-.217-1.022-.3l-1.198-.21-1.198-.14-1.022-.053c-1.573 0-3 .147-4.28.44l-3.33.934v17.548h5.25zm18.177.493a18.5 18.5 0 0 0 1.973-.106l1.85-.264c.575-.106 1.098-.23 1.568-.37s.845-.282 1.127-.423h0l-.705-4.264c-.587.258-1.345.476-2.272.652s-1.873.264-2.836.264c-1.503 0-2.7-.317-3.593-.95s-1.397-1.492-1.515-2.572h11.907l.07-.97.035-1.004c0-3.124-.763-5.49-2.3-7.1s-3.605-2.414-6.235-2.414c-1.127 0-2.225.21-3.294.634a8.28 8.28 0 0 0-2.836 1.868c-.822.822-1.485 1.85-2 3.083s-.757 2.672-.757 4.317c0 1.363.194 2.63.58 3.806s.986 2.19 1.797 3.048 1.832 1.533 3.065 2.026 2.683.74 4.35.74zm2.536-11.628h-6.94c.07-.446.182-.887.335-1.32s.37-.816.652-1.145a3.13 3.13 0 0 1 1.057-.793c.423-.2.928-.3 1.515-.3.61 0 1.12.106 1.532.317s.752.482 1.022.8.47.705.6 1.128a5.42 5.42 0 0 1 .229 1.304h0z" fill="#000"/><path d="M41.408 51v-1.78h-10.2v-.062c0-.5.12-1.005.36-1.515s.562-1.03.968-1.562.864-1.062 1.374-1.593l1.577-1.577 1.905-1.874c.624-.625 1.18-1.27 1.67-1.936s.88-1.36 1.17-2.077.437-1.484.437-2.296c0-1.832-.53-3.264-1.592-4.295s-2.644-1.546-4.746-1.546c-.79 0-1.51.1-2.154.297s-1.213.432-1.702.703-.895.547-1.218.828l-.67.64 1.062 1.405c.125-.125.323-.302.593-.53s.598-.453.984-.672.838-.41 1.358-.578 1.114-.25 1.78-.25c1.187 0 2.17.318 2.95.953s1.17 1.68 1.17 3.14c0 .666-.104 1.28-.312 1.843a6.88 6.88 0 0 1-.843 1.593c-.354.5-.765.984-1.233 1.452L34.6 41.16l-1.952 1.874a15.97 15.97 0 0 0-1.842 2.093 11.58 11.58 0 0 0-1.358 2.389 6.99 6.99 0 0 0-.531 2.733l.016.515.016.234h12.458zm11.428.468c2.207 0 3.92-.968 5.136-2.905s1.827-4.727 1.827-8.37c0-3.665-.61-6.465-1.827-8.402s-2.93-2.905-5.136-2.905c-2.227 0-3.945.968-5.152 2.905s-1.81 4.737-1.81 8.402c0 3.644.61 6.434 1.827 8.37s2.93 2.905 5.136 2.905zm0-1.843c-.916 0-1.676-.26-2.28-.78s-1.088-1.213-1.452-2.077-.624-1.864-.78-2.998a26.24 26.24 0 0 1-.234-3.576 26.24 26.24 0 0 1 .234-3.576c.156-1.135.416-2.14.78-3.014s.848-1.572 1.452-2.093 1.363-.78 2.28-.78c.895 0 1.644.26 2.248.78s1.093 1.218 1.468 2.093.64 1.88.796 3.014a26.24 26.24 0 0 1 .234 3.576 26.24 26.24 0 0 1-.234 3.576c-.156 1.135-.422 2.134-.796 2.998s-.864 1.556-1.468 2.077-1.353.78-2.248.78zM76.63 51v-1.78h-10.2v-.062c0-.5.12-1.005.36-1.515s.562-1.03.968-1.562.864-1.062 1.374-1.593l1.577-1.577 1.905-1.874c.624-.625 1.18-1.27 1.67-1.936s.88-1.36 1.17-2.077.437-1.484.437-2.296c0-1.832-.53-3.264-1.592-4.295s-2.644-1.546-4.746-1.546c-.79 0-1.51.1-2.154.297s-1.213.432-1.702.703-.895.547-1.218.828l-.67.64 1.062 1.405c.125-.125.323-.302.593-.53s.598-.453.984-.672.838-.41 1.358-.578 1.114-.25 1.78-.25c1.187 0 2.17.318 2.95.953s1.17 1.68 1.17 3.14c0 .666-.104 1.28-.312 1.843a6.88 6.88 0 0 1-.843 1.593c-.354.5-.765.984-1.233 1.452l-1.483 1.452-1.952 1.874a15.97 15.97 0 0 0-1.842 2.093 11.58 11.58 0 0 0-1.358 2.389 6.99 6.99 0 0 0-.531 2.733l.016.515.016.234H76.63zm13.645 0V29.355h-1.436c-.958 1.166-1.925 2.087-2.904 2.764s-2.092 1.234-3.34 1.67h0l.593 1.562a9.85 9.85 0 0 0 1.499-.578l1.436-.75c.458-.26.87-.526 1.233-.796s.66-.53.9-.78h0V51h2.03z" class="M"/></g><g opacity=".92" class="V"><g transform="translate(180.139 25.372)"><g transform="translate(76.059)"><path d="M76.816 38.357V.043H38.652l.004.45c.335 20.758 17.035 37.523 37.712 37.86l.448.004z" fill="#2ac2ff"/><path d="M76.816 39.233v38.314H38.652l.004-.45c.335-20.758 17.035-37.523 37.712-37.86l.448-.004z" fill="#00173a"/><path d="M38.65 77.547V39.233H.488l.004.45c.335 20.758 17.035 37.523 37.712 37.86l.448.004z" class="I"/><ellipse fill="#005b11" cx="19.57" cy="19.2" rx="19.082" ry="19.157"/><ellipse cx="19.57" cy="96.839" rx="19.082" ry="19.157" class="M"/></g><path d="M39.23 116.123v-38.44H0l.004.452C.348 98.96 17.514 115.78 38.77 116.12l.46.004z" fill="#005b11"/><path d="M39.23 0v38.44H0l.004-.452C.348 17.162 17.514.34 38.77.004L39.23 0z" fill="#0064ff"/><path d="M39.23 38.44V0h39.23l-.004.452C78.112 21.28 60.946 38.1 39.69 38.437l-.46.004z" fill="#00173a"/><path d="M39.23 39.24v38.44H0l.004-.452c.345-20.827 17.51-37.647 38.766-37.985l.46-.004z" class="M"/><path d="M58.045 77.682c10.39 0 18.815 8.605 18.815 19.22s-8.424 19.22-18.815 19.22-18.815-8.605-18.815-19.22 8.424-19.22 18.815-19.22z" fill="#ff7800"/></g></g></g><g transform="translate(187 176)"><g filter="url(#E)"><path d="M0 0h353v132H0z" class="G P"/><g fill="#eaeaea"><use xlink:href="#Ag"/><path d="M50.123 60.993h273.182c2.435 0 4.41 2.242 4.41 5.007s-1.974 5.007-4.41 5.007H50.123c-2.435 0-4.41-2.242-4.41-5.007s1.974-5.007 4.41-5.007z"/><path d="M49.028 91.945H254.4c1.83 0 3.315 2.242 3.315 5.007s-1.484 5.007-3.315 5.007H49.028c-1.83 0-3.315-2.242-3.315-5.007s1.484-5.007 3.315-5.007z"/><path d="M49.28 107.42h220.87c1.97 0 3.565 2.242 3.565 5.007s-1.596 5.007-3.565 5.007H49.28c-1.97 0-3.565-2.242-3.565-5.007s1.596-5.007 3.565-5.007z"/><use xlink:href="#Ag" y="-30.953"/></g><g class="Q"><path d="M16.476 76.47h17.98c.558 0 1 2.242 1 5.007s-.452 5.007-1 5.007h-17.98c-.558 0-1-2.242-1-5.007s.452-5.007 1-5.007z"/><path d="M16.15 60.993h18.633c.378 0 .684 2.242.684 5.007s-.306 5.007-.684 5.007H16.15c-.378 0-.684-2.242-.684-5.007s.306-5.007.684-5.007z"/></g><path d="M15.954 91.945H34.98c.27 0 .487 2.242.487 5.007s-.218 5.007-.487 5.007H15.954c-.27 0-.487-2.242-.487-5.007s.218-5.007.487-5.007z" fill="#ff8100"/><g class="O"><path d="M21.94 107.42h7.05c3.576 0 6.475 2.242 6.475 5.007s-2.9 5.007-6.475 5.007h-7.05c-3.576 0-6.475-2.242-6.475-5.007s2.9-5.007 6.475-5.007z"/><path d="M18.026 45.517h14.88c1.414 0 2.56 2.242 2.56 5.007s-1.146 5.007-2.56 5.007h-14.88c-1.414 0-2.56-2.242-2.56-5.007s1.146-5.007 2.56-5.007z"/></g><path d="M20.473 11.834H228.8a5.01 5.01 0 0 1 5.007 5.007 5.01 5.01 0 0 1-5.007 5.007H20.473a5.01 5.01 0 0 1-5.007-5.007 5.01 5.01 0 0 1 5.007-5.007z" fill="#001d71"/><g transform="translate(80.062 81.931)"/><path d="M.717 33.683h351.565" class="B P W X"/></g><g filter="url(#F)" transform="translate(0 136)"><g class="G P"><path d="M0 0h353v96H0z"/><path d="M0 101h353v96H0z"/></g><g fill="#42be65"><g transform="translate(66 152)"><path d="M4.744 8.854v-4.4C4.744 3.656 4.035 3 3.163 3H0v2.927h1.58v2.927C1.58 10.79 2.95 12.416 4.83 13c-.052-.4-.085-.806-.085-1.22 0-.748.092-1.475.256-2.178-.15-.222-.256-.47-.256-.75"/><path d="M30 10.23c0-6.596-4.195-7.308-6-7.308-1.51 0-2.924.547-4.01 1.5-1.033-.678-2.214-1.153-3.49-1.365V0h-3v3.06c-2.682.443-4.963 2.034-6.282 4.25h15.564c-.175-.295-.375-.58-.584-.85.513-.38 1.133-.61 1.802-.61.82 0 3 0 3 4.385 0 2.157-1.722 3.3-3.36 3.87.228-.773.36-1.578.36-2.41 0-1.026-.19-2.007-.525-2.923H6.525C6.19 9.686 6 10.666 6 11.692c0 2.777 1.33 5.336 3.645 7.018.26.19.573.29.896.29h8.92c.323 0 .636-.1.896-.29a9.23 9.23 0 0 0 1.335-1.198c3.662-.256 8.3-2.545 8.3-7.28"/><path d="M24.363 30L20 25.31l1.566-1.684 2.72 2.926L32.362 17 34 18.6z"/><path d="M84.363 30L80 25.31l1.566-1.684 2.72 2.926L92.362 17 94 18.6z"/></g><g transform="translate(130 149)"><path d="M19.684 18h-2.73l-.527-6h3.258v6zM5.04 4.846c.485.09.97-.15 1.2-.595C6.87 3.11 8.023 2.4 9.263 2.4c1.35 0 2.587.828 3.152 2.112a1.18 1.18 0 0 0 .675.635 1.12 1.12 0 0 0 .908-.067c1.61-.858 3.37.432 3.37 2.12 0 1.378-1.13 2.4-2.316 2.4-.672 0-1.313-.316-1.76-.868-.185-.227-.606-.41-.815-.424-.17-.012-.337.025-.496.09-.785.325-.542.725-1.862 1.073a1.19 1.19 0 0 0-.857 1.327c0 .66-.52 1.2-1.158 1.2s-1.158-.54-1.16-1.153c-.001-.493.064-.823-.418-1.217-.207-.168-.46-.256-.716-.256-.28 0-.728.226-1.18.226-.69 0-1.4-.358-1.835-.953-.298-.403-.48-.9-.48-1.447 0-1.44 1.244-2.628 2.725-2.354h0zm5.38 9.554h2.316v6H10.42v-6zm-2.316 6H5.79v-4.8h2.316v4.8zm11.58-10.8h-.645c.4-.71.645-1.523.645-2.4 0-2.647-2.077-4.8-4.632-4.8a4.29 4.29 0 0 0-1.075.137C12.906.968 11.15 0 9.263 0c-1.817 0-3.52.902-4.607 2.4h-.024C2.077 2.4 0 4.553 0 7.2a4.85 4.85 0 0 0 2.166 4.054L1.257 21.6H0V24h18.526v-2.4H17.27l-.107-1.2h2.522C20.96 20.4 22 19.324 22 18v-6c0-1.325-1.04-2.4-2.316-2.4h0z"/></g></g><g transform="translate(15 152)" class="E"><path d="M19.158 9.846h-1.21V4.923h1.21c1.335 0 2.42 1.103 2.42 2.462s-1.086 2.462-2.42 2.462m0-7.385h-1.21V1.23c0-.68-.542-1.23-1.21-1.23H2.21C1.542 0 1 .55 1 1.23v9.846c0 1.83.57 3.527 1.53 4.923H16.4a8.65 8.65 0 0 0 1.45-3.692h1.307c2.67 0 4.842-2.208 4.842-4.923s-2.172-4.923-4.842-4.923"/><path d="M0 20h19v-3H0z"/></g><path d="M0 202h353v96H0z" class="G"/><path d="M222 276.253L219.747 274l-5.247 5.248-5.247-5.248-2.253 2.253 5.247 5.247-5.247 5.247 2.253 2.253 5.247-5.247 5.247 5.247 2.253-2.253-5.247-5.247z" class="Q"/><g transform="translate(72 251)" fill="#e0e0e0"><path d="M11 .163L1 10l20-4.92s-2.5-6.148-10-4.92"/><path d="M15.89 18.57c-1.35 0-2.444-1.152-2.444-2.57s1.095-2.57 2.444-2.57 2.444 1.152 2.444 2.57-1.095 2.57-2.444 2.57M11 14.714c-.675 0-1.222-.575-1.222-1.286s.548-1.286 1.222-1.286 1.222.577 1.222 1.286-.546 1.286-1.222 1.286M8.556 18.57c-.675 0-1.222-.575-1.222-1.286S7.88 16 8.556 16s1.222.577 1.222 1.286-.546 1.286-1.222 1.286M21.53 7.273a1.17 1.17 0 0 0-1.049-.234L.925 12.182C.38 12.326 0 12.84 0 13.43V16c0 .7.548 1.286 1.222 1.286h1.222c.673 0 1.222.577 1.222 1.286s-.55 1.286-1.222 1.286H1.222c-.675 0-1.222.576-1.222 1.286v2.57a1.31 1.31 0 0 0 .471 1.013 1.17 1.17 0 0 0 1.049.234l19.556-5.143c.543-.143.925-.657.925-1.247V8.286a1.31 1.31 0 0 0-.471-1.013"/></g><g transform="translate(15 254)" class="Q"><path d="M4.324 6l-2.57 2.42C-1.72 11.7.987 19.198 1.307 20.043c.13.342.414.61.776.73 3.643 1.225 9.598 2.17 12.346-.42l2.57-2.42L4.324 6z"/><path d="M23 1.75L21.25 0 18.58 2.67C16.607 1.02 14.367.12 12.17.12c-2.158 0-4.165.867-5.806 2.507a1.24 1.24 0 0 0-.001 1.749L8.115 6.13l2.626-2.627 1.75 1.75L9.866 7.88l1.75 1.75 4.378-4.38 1.75 1.75-4.378 4.38 1.752 1.75 2.626-2.627 1.75 1.75-2.626 2.627 1.75 1.752c.243.24.56.362.875.362s.634-.12.875-.363c3.403-3.404 3.338-8.196-.04-12.218L23 1.75z"/></g><g fill="#e0e0e0"><g transform="translate(309 250)"><path d="M11.5 10c1.89 0 2.746-.855 3.134-1.573C16.002 5.89 13.14 1.4 12.552.523c-.47-.697-1.635-.697-2.104 0-.588.876-3.45 5.368-2.082 7.904C8.754 9.145 9.61 10 11.5 10"/><path d="M17.86 18h0c3.364 0 4.765-5.697 5.114-7.442a1.3 1.3 0 0 0-1.533-1.533c-1.07.214-6.45 1.427-7.317 4.286-.245.81-.247 2.062 1.128 3.437.83.83 1.707 1.252 2.608 1.252"/><path d="M1.558 9.026a1.3 1.3 0 0 0-1.533 1.533C.374 12.304 1.776 18 5.14 18c.9 0 1.78-.422 2.61-1.252 1.375-1.375 1.372-2.628 1.128-3.437C8 10.453 2.628 9.24 1.558 9.026"/><path d="M22.62 19.38a1.3 1.3 0 0 0-1.176-.356c-1.07.214-6.452 1.426-7.318 4.285-.245.8-.247 2.063 1.128 3.437.83.83 1.708 1.252 2.61 1.252h0c3.364 0 4.764-5.696 5.113-7.443a1.3 1.3 0 0 0-.356-1.176"/><path d="M1.558 19.026a1.3 1.3 0 0 0-1.533 1.533C.375 22.304 1.776 28 5.14 28c.9 0 1.78-.422 2.608-1.252 1.376-1.375 1.373-2.628 1.128-3.437-.865-2.86-6.247-4.072-7.317-4.286"/><path d="M10 30h3V12h-3z"/></g><g transform="translate(250 253)"><path d="M9.334 15.385l-1.59 1.59c-.23.23-.36.544-.36.87v2.462c0 .678-.552 1.23-1.23 1.23a1.22 1.22 0 0 1-1.144-.807l.784-.784-1.74-1.74-.784.784c-.47-.174-.807-.617-.807-1.145 0-.678.552-1.23 1.23-1.23h2.46c.326 0 .64-.13.87-.36l1.59-1.59.72.72zM21.786 2.207c-2.944-2.946-7.414-2.94-10.352 0C8.262 5.38 6.85 9.3 7.51 12.284l-1.87 1.87H3.69C1.656 14.154 0 15.81 0 17.846 0 19.5 1.105 20.92 2.62 21.38 3.08 22.895 4.488 24 6.152 24c2.035 0 3.69-1.657 3.69-3.692v-1.952l1.87-1.87c3.557.798 7.475-1.324 10.072-3.922 2.952-2.95 2.952-7.404 0-10.356h0z"/></g><g transform="translate(129 253)"><path d="M11.413 16.663c-2.07 0-3.748-1.703-3.748-3.802s1.678-3.802 3.748-3.802 3.748 1.703 3.748 3.802-1.68 3.802-3.748 3.802m9.74-11.152C18.955 2.214 15.423 0 12.368 0c-1.66 0-3.16.632-4.336 1.825-1.765 1.79-3.327 2.568-4.582 3.193C.932 6.272-.544 7.355.187 11.802 1.536 20.016 8.387 23 12.662 23c7.152 0 7.437-3.413 9.905-9.67.898-2.28.382-5.13-1.414-7.82"/></g></g><g transform="translate(187 250)" class="Q"><path d="M2.212 11.93c.355 1.203 1.134 2.23 2.315 3.07.268-.436.813-1.13 1.806-1.797-.842-.498-1.575-1.154-1.833-2.012-.18-.596-.103-1.192.04-1.687.28.2.575.356.902.46.907.293 1.878.2 2.732-.282l3.168-1.788c.365-.206.604-.6.63-1.037s-.164-.86-.5-1.113L8.612 3.6l1.496-.9 1.82.965L13 1.4 10.608.134a1.14 1.14 0 0 0-1.125.03L4.796 2.98c-1.43.807-2.114 2.498-1.812 4.1-.398.656-1.424 2.64-.773 4.85"/><path d="M17.89 2.7l1.496.9-2.857 2.145c-.337.253-.527.676-.5 1.113s.266.83.63 1.037l3.168 1.788a3.38 3.38 0 0 0 2.732.282c.328-.105.624-.27.903-.462.14.5.22 1.08.043 1.673-.256.865-.992 1.527-1.838 2.027.993.666 1.538 1.36 1.806 1.797 1.182-.842 1.96-1.867 2.316-3.07.652-2.2-.374-4.195-.773-4.85.304-1.602-.378-3.3-1.786-4.084L18.516.165c-.346-.21-.768-.22-1.124-.032L15 1.4l1.07 2.265L17.89 2.7z"/><path d="M4.447 17L0 17.64.455 20 5 19.345c-.256-.827-.436-1.62-.553-2.345"/><path d="M5.01 21L1 22.645 1.92 25 6 23.326c-.388-.756-.714-1.54-.99-2.326"/><path d="M3 28.038L4.44 30 8 26.898c-.566-.56-1.068-1.2-1.512-1.898L3 28.038z"/><path d="M23.552 17c-.118.725-.296 1.517-.552 2.345l4.545.655.455-2.36-4.448-.64z"/><path d="M22 23.326L26.08 25l.92-2.356L22.99 21c-.276.785-.6 1.57-.99 2.326"/><path d="M20 26.9l3.56 3.1L25 28.04 21.514 25c-.444.698-.946 1.34-1.514 1.9"/><path d="M15.93 19.563c-.838 0-1.518-.7-1.518-1.562s.68-1.562 1.518-1.562 1.518.7 1.518 1.563-.68 1.563-1.518 1.563m-4.857 0c-.838 0-1.518-.7-1.518-1.562s.68-1.562 1.518-1.562 1.518.7 1.518 1.563-.68 1.563-1.518 1.563m10.8-3.37C21.713 15.865 20.13 13 13.5 13s-8.213 2.865-8.373 3.19c-.107.22-.148.47-.118.714C5.064 17.358 6.438 28 13.5 28s8.436-10.642 8.5-11.095c.03-.245-.01-.494-.118-.714"/></g><path d="M20.495 11.886h121.863a5.03 5.03 0 0 1 5.029 5.029 5.03 5.03 0 0 1-5.029 5.029H20.495a5.03 5.03 0 0 1-5.029-5.029 5.03 5.03 0 0 1 5.029-5.029z" fill="#001d71"/><use xlink:href="#Ah" fill="#42be65"/><use xlink:href="#Ah" y="101" class="Q"/><g transform="translate(80.062 82.286)"/><g class="B P W X"><path d="M.717 33.83h351.565"/><path d="M.717 134.83h351.565"/><path d="M.717 235.83h351.565"/></g></g><g class="M"><path d="M36.222 184c-2.48 0-4.777 1.256-6.222 3.12-1.445-1.864-3.743-3.12-6.222-3.12-4.29 0-7.778 3.364-7.778 7.5 0 8.237 12.637 15.948 13.176 16.272a1.6 1.6 0 0 0 1.649 0C31.363 207.448 44 199.737 44 191.5c0-4.136-3.49-7.5-7.778-7.5"/><use xlink:href="#Ai"/></g><g class="E"><use xlink:href="#Ai" x="73"/><use xlink:href="#Ai" x="146"/><use xlink:href="#Ai" x="219"/></g></g><g filter="url(#G)" transform="translate(213.159 580.106)" class="F"><path fill="#231d1e" d="M0 7.37h1.053V6.318H3.16V7.37h1.053V1.053h1.053V0H7.37v1.053h1.053v3.16h4.212v1.053h2.106v1.053h1.053v5.265h-1.053v2.106H13.69v3.16h-2.106v-1.053H10.53v1.053H5.265v-2.106H4.212V13.69H3.16v-1.053H2.106V10.53H1.053V9.477H0z"/><path d="M1.053 7.37H3.16v1.053h1.053v1.053h1.053V1.053H7.37V7.37h1.053V5.265h2.106V7.37h1.053V5.265h1.053V7.37h1.053V6.318h1.053v5.265H13.69v2.106h-1.053v2.106h-1.053v-1.053H10.53v1.053H6.318v-1.053H5.265V13.69H4.212v-1.053H3.16V10.53H2.106V9.477H1.053z" class="G"/><g fill="#231d1e"><path d="M7.37 9.477h1.053v4.212H7.37z"/><path d="M9.477 9.477h1.053v4.212H9.477z"/><path d="M11.583 9.477h1.053v4.212h-1.053z"/></g></g></g></svg>