<svg xmlns="http://www.w3.org/2000/svg" xmlns:xlink="http://www.w3.org/1999/xlink" width="901" height="991" xmlns:v="https://vecta.io/nano"><style><![CDATA[.B{stroke-linecap:round}.C{stroke-linejoin:round}.D{stroke-width:1.5}.E{fill:#fff}.F{fill:#ff0034}.G{fill-rule:nonzero}.H{mask:url(#u)}.I{mask:url(#w)}.J{fill:#0064ff}.K{fill:#000}.L{fill:#00173a}.M{mask:url(#s)}.N{fill:#005b11}.O{mask:url(#v)}.P{fill:#001d71}.Q{stroke:#f4f2ee}.R{fill:#ff9d00}.S{stroke:#212121}.T{fill:#ff7800}.U{mask:url(#t)}]]></style><defs><filter x="-28.1%" y="-20.9%" width="156.1%" height="141.9%" id="A"><feOffset dy="24" in="SourceAlpha"/><feGaussianBlur stdDeviation="16"/><feColorMatrix values="0 0 0 0 0 0 0 0 0 0.164542109 0 0 0 0 0.362271488 0 0 0 0.1 0" result="C"/><feMerge><feMergeNode in="C"/><feMergeNode in="SourceGraphic"/></feMerge></filter><path d="M371.18 0a12.68 12.68 0 0 1 12.68 12.672V503.1a12.68 12.68 0 0 1-12.68 12.672H13.61a12.68 12.68 0 0 1-12.68-12.672V12.672A12.68 12.68 0 0 1 13.611 0h357.57zM246 9.866H138.792a6.91 6.91 0 0 0-6.911 6.906 6.91 6.91 0 0 0 6.911 6.906H246a6.91 6.91 0 0 0 6.911-6.906 6.91 6.91 0 0 0-6.911-6.906z" id="B"/><filter x="-13.5%" y="-7.2%" width="127.0%" height="114.4%" id="C"><feOffset dy="8" in="SourceAlpha"/><feGaussianBlur stdDeviation="8"/><feColorMatrix values="0 0 0 0 0 0 0 0 0 0.164542109 0 0 0 0 0.362271488 0 0 0 0.1 0" result="C"/><feMerge><feMergeNode in="C"/><feMergeNode in="SourceGraphic"/></feMerge></filter><path d="M17.023 0H293.23c9.382 0 17 7.6 17 16.98l.632 571.5c.01 9.39-7.592 17.008-16.98 17.02H17.654c-9.382 0-17-7.6-17-16.98L.023 17.02C.012 7.63 7.615.01 17.004 0z" id="D"/><filter x="-7.6%" y="-4.7%" width="114.9%" height="109.4%" id="E"><feOffset dy="4" in="SourceAlpha"/><feGaussianBlur stdDeviation="3.5"/><feColorMatrix values="0 0 0 0 0 0 0 0 0 0.164542109 0 0 0 0 0.362271488 0 0 0 0.1 0" result="C"/><feMerge><feMergeNode in="C"/><feMergeNode in="SourceGraphic"/></feMerge></filter><path id="F" d="M0 .644h294.478v455H0z"/><path d="M27.444 613.593H283.44c19.405 0 35.137-15.72 35.137-35.1v-33.438H-7.693v33.438c0 19.39 15.73 35.1 35.137 35.1z" id="G"/><filter x="-4.3%" y="-14.6%" width="108.6%" height="140.8%" id="H"><feOffset dy="4" in="SourceAlpha"/><feGaussianBlur stdDeviation="4"/><feColorMatrix values="0 0 0 0 0 0 0 0 0 0.164542109 0 0 0 0 0.362271488 0 0 0 0.1 0"/></filter><filter x="-16.4%" y="-3566.1%" width="132.7%" height="7232.2%" id="I"><feGaussianBlur stdDeviation="10" in="SourceGraphic"/></filter><path id="J" d="M37.043 0h266.323c20.42 0 36.98 16.542 37 36.96l.592 563c.02 20.435-16.527 37.017-36.96 37.04h-.04H37.634c-20.42 0-36.98-16.542-37-36.96l-.592-563C.02 16.604 16.57.02 37.004 0h.04z"/><path id="K" d="M16.594 16.594H49.78V49.78H16.594V16.594zm-8.297 49.78h49.78a8.3 8.3 0 0 0 8.297-8.297V8.297C66.375 3.71 62.658 0 58.078 0H8.297C3.717 0 0 3.71 0 8.297v49.78a8.3 8.3 0 0 0 8.297 8.297h0z"/><path id="L" d="M158.563 36.875h-18.437V18.438h18.438v18.438zM167.78 0h-36.875a9.22 9.22 0 0 0-9.219 9.219v36.875c0 5.09 4.13 9.22 9.22 9.22h36.875c5.09 0 9.22-4.13 9.22-9.22V9.22A9.22 9.22 0 0 0 167.781 0h0z"/><path id="M" d="M36.875 158.563H18.438v-18.437h18.438v18.438zm9.22-36.875H9.22A9.22 9.22 0 0 0 0 130.906v36.875c0 5.09 4.13 9.22 9.22 9.22h36.875c5.09 0 9.22-4.13 9.22-9.22v-36.875a9.22 9.22 0 0 0-9.219-9.219h0z"/><path id="N" d="M110.625 0H77.438v22.125h33.188z"/><path id="O" d="M85.734 61.688h24.89V45.094H94.03V28.5H77.438v24.89c0 4.588 3.717 8.297 8.297 8.297"/><path id="P" d="M121.688 69.982v37.93c0 5.244 4.13 9.482 9.22 9.482h27.656v9.482H177V107.91c0-5.234-4.13-9.482-9.22-9.482h-27.656V79.464H177V60.5h-46.094c-5.09 0-9.22 4.248-9.22 9.482"/><path id="Q" d="M66.375 110.625v-24.89a8.3 8.3 0 0 0-8.297-8.297H0V94.03h16.594v16.594h16.594V94.03H49.78v16.594h16.594z"/><path id="R" d="M117.433 141.6v17.7H83.394v-8.85h-17.02v17.7c0 4.894 3.812 8.85 8.5 8.85h51.058c4.697 0 8.5-3.956 8.5-8.85v-17.7H177v-17.7h-51.058c-4.697 0-8.5 3.965-8.5 8.85"/><path id="S" d="M118.152 71.75a2.5 2.5 0 1 1 0-5 2.5 2.5 0 0 1 2.5 2.5c0 1.38-1.12 2.5-2.5 2.5m18.384 5.366l-13.75-13.75a1.25 1.25 0 0 0-.884-.366h-8.75a1.25 1.25 0 0 0-1.25 1.25V73a1.25 1.25 0 0 0 .366.884l13.75 13.75c.244.244.564.366.884.366s.64-.123.884-.366l8.75-8.75a1.25 1.25 0 0 0 0-1.768"/><path id="T" d="M40.065 0C17.938 0 0 17.924 0 40.035S17.938 80.07 40.065 80.07 80.13 62.146 80.13 40.035 62.193 0 40.065 0z"/><path id="U" d="M38.685 26.937c4.75 0 10.582-.298 17.5-.895l1.795-8.804H50.2L50.8 4.405H7.725L7.46 11.52C2.487 10.137 0 10.787 0 13.473s2.226 4.29 6.678 4.81l1.496 6.864c15.592 1.194 25.762 1.79 30.51 1.79z"/><path id="V" d="M.306 1.022c-.215 3.747 3.12 4.7 4.043 1.252C5.054-.358 1.212-.607 0 1.022"/><path id="W" d="M12.86.425c.065.797.017 1.612.195 2.392.774 3.383 5.002.1 2.76-2.726"/><path id="X" d="M51.878.002c.922 0-.17 8.222-.748 9.872-.734 2.093-2.467 1.64-4.337 1.64a13.73 13.73 0 0 1-1.558-.072 25.46 25.46 0 0 0-2.878-2.949l-.834-.692.207 1.213-.267-.422c-1.133 2.858-3.416 3.668-6.186 3.668-6.404 0-8.96-4.875-7.935-12.26h24.537zm-12.726 3.33H30.5l-.003.042c-.11 1.773.092 3.15.567 4.135l.285.5C32.103 9.12 33.446 9.7 35.575 9.7c1.45 0 2.447-.93 3.08-3.214l.17-.7.122-.703a26.8 26.8 0 0 0 .119-.944l.082-.817zm10.277 0h-6.41c.9 3.727 2.11 5.348 4.342 5.6l.628.032c.09 0 .138-.02.223-.1.18-.17.376-.507.557-1.023.295-.84.5-2.02.607-3.525l.053-.974z"/><path id="Y" d="M42.518 9.596c3.01 2.373 5.675 5.83 5.218 6.4-.598.746-2.762.9-3.3.597-.425-.243-.233.086-.233 2.868"/><path id="Z" d="M35.947 17.127c3.522 2.61 7.432 2.942 11.293 2.15"/><path id="a" d="M39.72 23.828c.755 3.014 2.535 4.914 4.42 7.437"/><path id="b" d="M42.8 23.5c2.06 6.51 1.602 3.734 2.07 8.187"/><path id="c" d="M45.363 23.968c.616 6.33.54 3.698.54 7.882"/><path id="d" d="M49.995 24.203c-.17 3.07-.98 5.516-2.516 8.163"/><path id="e" d="M52.088 23.898c-.28 2.993-1.135 5.876-3.15 8.21"/><path id="f" d="M53.24 27.112c-2.5 3.334-2.79 4.355-6.514 5.23"/><path id="g" d="M36.2 16.037c-.225.605-.674 1.202-1.422 1.236"/><path id="h" d="M9.492 33.14v-2.605H3.52V19.666H.486V33.14h9.006zm6.302.272c.765 0 1.456-.13 2.07-.39a4.55 4.55 0 0 0 1.585-1.098c.44-.473.778-1.043 1.01-1.71s.35-1.403.35-2.207-.123-1.536-.37-2.197a4.94 4.94 0 0 0-1.031-1.691c-.44-.467-.97-.83-1.585-1.09s-1.293-.39-2.033-.39c-.726 0-1.397.13-2.013.39s-1.148.622-1.595 1.09-.797 1.03-1.05 1.69-.38 1.393-.38 2.197.123 1.54.37 2.207.6 1.238 1.03 1.71a4.55 4.55 0 0 0 1.585 1.098c.616.26 1.3.39 2.052.39zm0-2.49c-.66 0-1.174-.262-1.537-.787s-.545-1.235-.545-2.13.182-1.597.545-2.11.875-.768 1.537-.768 1.17.256 1.527.768.535 1.215.535 2.11-.178 1.604-.535 2.13-.866.787-1.527.787zM27.6 33.41c.765 0 1.456-.13 2.07-.39a4.55 4.55 0 0 0 1.585-1.098c.44-.473.778-1.043 1.01-1.71s.35-1.403.35-2.207-.123-1.536-.37-2.197a4.94 4.94 0 0 0-1.031-1.691c-.44-.467-.97-.83-1.585-1.09s-1.293-.39-2.033-.39c-.726 0-1.397.13-2.013.39s-1.148.622-1.595 1.09-.797 1.03-1.05 1.69-.38 1.393-.38 2.197.123 1.54.37 2.207.6 1.238 1.03 1.71a4.55 4.55 0 0 0 1.585 1.098c.616.26 1.3.39 2.052.39zm0-2.49c-.66 0-1.174-.262-1.537-.787s-.545-1.235-.545-2.13.182-1.597.545-2.11.875-.768 1.537-.768 1.17.256 1.527.768.535 1.215.535 2.11-.178 1.604-.535 2.13-.866.787-1.527.787zm10.153 2.216v-4.472c.324.26.652.577.982.953l.943 1.176.846 1.225.7 1.118h3.326l-.817-1.42-1.07-1.555-1.206-1.507a13.32 13.32 0 0 0-1.206-1.254l2.15-2.226 2.013-2.265h-3.443l-.652.778-.807.943-.885 1-.885.972v-8.554l-2.898.467v14.62h2.898zm9.803-11.47c.467 0 .872-.152 1.216-.457s.515-.723.515-1.254-.172-.95-.515-1.254-.75-.457-1.216-.457-.872.152-1.216.457-.515.723-.515 1.254.172.95.515 1.254.75.457 1.216.457zm1.46 11.47V22.913h-2.898V33.14h2.898zm5.62 0v-7.893l.622-.068.66-.03c.674 0 1.135.194 1.38.583s.37 1.05.37 1.983h0v5.424h2.898v-5.774c0-.7-.07-1.335-.214-1.905s-.383-1.063-.72-1.478-.794-.736-1.37-.962-1.3-.34-2.17-.34a15.67 15.67 0 0 0-2.451.185l-1.906.4v9.876h2.898zm12.176 3.655c1.776 0 3.09-.405 3.94-1.215s1.274-2.05 1.274-3.723h0v-8.593l-.885-.224-1.04-.185-1.1-.126-1.08-.05c-.817 0-1.55.12-2.198.36s-1.196.58-1.644 1.02-.788.97-1.02 1.584-.35 1.3-.35 2.05c0 1.503.376 2.673 1.128 3.51s1.835 1.254 3.248 1.254c.39 0 .75-.036 1.08-.107s.652-.178.963-.32h0v.37c0 .57-.172 1.037-.515 1.4s-.93.544-1.76.544c-.635 0-1.203-.052-1.702-.156s-.976-.246-1.43-.428h0l-.506 2.43a11.64 11.64 0 0 0 1.731.437c.622.1 1.245.165 1.867.165zm.817-6.668c-1.3 0-1.965-.8-1.965-2.43 0-.778.188-1.42.564-1.925s.947-.758 1.712-.758l.68.03.506.068v4.627c-.182.104-.402.194-.66.272a2.9 2.9 0 0 1-.836.117zm-65.9 7.008c.467 0 .872-.152 1.216-.457s.515-.723.515-1.254-.172-.95-.515-1.254-.75-.457-1.216-.457-.872.152-1.216.457S0 34.89 0 35.422s.172.95.515 1.254.75.457 1.216.457zm1.46 11.47V38.378H.292v10.226H3.2zm5.62 0V40.71l.622-.068.66-.03c.674 0 1.135.194 1.38.583s.37 1.05.37 1.983h0v5.424h2.898V42.83c0-.7-.07-1.335-.214-1.905s-.383-1.063-.72-1.478-.794-.736-1.37-.962-1.3-.34-2.17-.34a15.67 15.67 0 0 0-2.451.185l-1.906.4v9.876H8.81zm12.507.233c.622 0 1.148-.052 1.575-.156a8.25 8.25 0 0 0 1.167-.369h0l-.408-2.255c-.272.104-.574.185-.904.243a5.54 5.54 0 0 1-.963.087c-.648 0-1.08-.18-1.293-.544s-.32-.85-.32-1.458h0v-3.597h3.482v-2.41H20.17v-3.013l-2.898.467v8.593c0 .66.062 1.264.185 1.808s.34 1.008.652 1.4.726.68 1.245.894 1.174.32 1.965.32zm8.85.04c.765 0 1.456-.13 2.07-.39a4.55 4.55 0 0 0 1.585-1.098c.44-.473.778-1.043 1.01-1.71s.35-1.403.35-2.207-.123-1.536-.37-2.197a4.94 4.94 0 0 0-1.031-1.691c-.44-.467-.97-.83-1.585-1.09s-1.293-.39-2.033-.39c-.726 0-1.397.13-2.013.39s-1.148.622-1.595 1.09-.797 1.03-1.05 1.69-.38 1.393-.38 2.197.123 1.54.37 2.207.6 1.238 1.03 1.71a4.55 4.55 0 0 0 1.585 1.098c.616.26 1.3.39 2.052.39zm0-2.49c-.66 0-1.174-.262-1.537-.787s-.545-1.235-.545-2.13.182-1.597.545-2.11.875-.768 1.537-.768 1.17.256 1.527.768.535 1.215.535 2.11-.178 1.604-.535 2.13-.866.787-1.527.787zm15.872 2.45c.622 0 1.148-.052 1.575-.156a8.25 8.25 0 0 0 1.167-.369h0l-.408-2.255c-.272.104-.574.185-.904.243a5.54 5.54 0 0 1-.963.087c-.648 0-1.08-.18-1.293-.544s-.32-.85-.32-1.458h0v-3.597h3.482v-2.41h-3.482v-3.013l-2.898.467v8.593c0 .66.062 1.264.185 1.808s.34 1.008.652 1.4.726.68 1.245.894 1.174.32 1.965.32zm7.586-.233v-7.777l.613-.146a3.72 3.72 0 0 1 .729-.068c.648 0 1.092.194 1.332.583s.36 1.05.36 1.983h0v5.424h2.898V42.83c0-.7-.068-1.335-.204-1.905a3.72 3.72 0 0 0-.7-1.478c-.33-.415-.772-.736-1.323-.962s-1.242-.34-2.07-.34c-.285 0-.58.03-.885.087a6.01 6.01 0 0 0-.749.185h0v-4.9l-2.898.467v14.62h2.898zm13.48.272a10.22 10.22 0 0 0 1.089-.058l1.02-.146c.318-.058.606-.126.866-.204s.467-.156.622-.233h0l-.39-2.352c-.324.143-.742.262-1.255.36a8.38 8.38 0 0 1-1.566.146c-.83 0-1.49-.175-1.984-.525s-.772-.823-.836-1.42h6.574l.04-.535.02-.554c0-1.724-.42-3.03-1.264-3.917s-2-1.332-3.443-1.332c-.622 0-1.23.117-1.82.35a4.57 4.57 0 0 0-1.566 1.03c-.454.454-.82 1.02-1.1 1.7s-.418 1.474-.418 2.382c0 .752.107 1.452.32 2.1s.545 1.21.992 1.682 1.01.846 1.692 1.118 1.48.408 2.402.408zm1.4-6.416h-3.832c.04-.246.1-.49.185-.73s.204-.45.36-.632a1.73 1.73 0 0 1 .584-.437c.233-.1.512-.165.836-.165.337 0 .62.058.846.175a1.76 1.76 0 0 1 .564.447c.15.18.26.39.33.622a2.99 2.99 0 0 1 .126.719h0zM3.52 64.07v-5.56h5.33v-2.547H3.52v-2.82h5.99v-2.547H.486V64.07H3.52zm11.923.233a15.67 15.67 0 0 0 2.451-.185l1.906-.4v-9.876h-2.898v7.893l-.622.068-.66.03c-.674 0-1.135-.207-1.38-.622s-.37-1.09-.37-2.022h0v-5.346H10.97v5.696a8.1 8.1 0 0 0 .214 1.925c.143.583.383 1.085.72 1.507s.794.748 1.37.982 1.3.35 2.17.35zm11.028 0c.622 0 1.148-.052 1.575-.156a8.25 8.25 0 0 0 1.167-.369h0l-.408-2.255c-.272.104-.574.185-.904.243a5.54 5.54 0 0 1-.963.087c-.648 0-1.08-.18-1.293-.544s-.32-.85-.32-1.458h0v-3.597h3.482v-2.41h-3.482V50.83l-2.898.467v8.593c0 .66.062 1.264.185 1.808s.34 1.008.652 1.4.726.68 1.245.894 1.174.32 1.965.32zm9.064 0a15.67 15.67 0 0 0 2.451-.185l1.906-.4v-9.876h-2.898v7.893l-.622.068-.66.03c-.674 0-1.135-.207-1.38-.622s-.37-1.09-.37-2.022h0v-5.346h-2.898v5.696a8.1 8.1 0 0 0 .214 1.925c.143.583.383 1.085.72 1.507s.794.748 1.37.982 1.3.35 2.17.35zm9.978-.233v-7.815c.13-.04.32-.075.574-.107s.47-.05.652-.05a5.65 5.65 0 0 1 1.128.107l.914.204.486-2.39c-.156-.065-.344-.12-.564-.165l-.66-.117-.66-.078-.564-.03c-.87 0-1.657.08-2.363.243l-1.838.515v9.682h2.898zm10.036.272a10.22 10.22 0 0 0 1.089-.058l1.02-.146c.318-.058.606-.126.866-.204s.467-.156.622-.233h0l-.39-2.352c-.324.143-.742.262-1.255.36a8.38 8.38 0 0 1-1.566.146c-.83 0-1.49-.175-1.984-.525s-.772-.823-.836-1.42h6.574l.04-.535.02-.554c0-1.724-.42-3.03-1.264-3.917s-2-1.332-3.443-1.332c-.622 0-1.23.117-1.82.35a4.57 4.57 0 0 0-1.566 1.03c-.454.454-.82 1.02-1.1 1.7s-.418 1.474-.418 2.382c0 .752.107 1.452.32 2.1s.545 1.21.992 1.682 1.01.846 1.692 1.118 1.48.408 2.402.408zm1.4-6.416H53.12c.04-.246.1-.49.185-.73s.204-.45.36-.632a1.73 1.73 0 0 1 .584-.437c.233-.1.512-.165.836-.165.337 0 .62.058.846.175a1.76 1.76 0 0 1 .564.447c.15.18.26.39.33.622a2.99 2.99 0 0 1 .126.719h0z"/><path id="i" d="M7.206 14.14v-.982H1.568v-.034c0-.276.066-.554.198-.836a4.76 4.76 0 0 1 .534-.862 10.33 10.33 0 0 1 .759-.879l.87-.87 1.052-1.034a9.29 9.29 0 0 0 .922-1.068c.27-.368.486-.75.647-1.146s.24-.82.24-1.267c0-1.01-.293-1.8-.88-2.37s-1.46-.853-2.62-.853c-.437 0-.833.055-1.2.164a4.92 4.92 0 0 0-.94.388c-.27.15-.494.302-.672.457L.12 3.3l.586.775c.07-.07.178-.167.328-.293s.33-.25.543-.37.463-.227.75-.32.615-.138.983-.138c.655 0 1.198.175 1.63.526s.647.928.647 1.732c0 .368-.057.707-.172 1.017s-.27.603-.465.88a6.22 6.22 0 0 1-.681.801l-.82.8L2.37 9.745c-.374.356-.713.74-1.017 1.155s-.555.853-.75 1.318-.293.968-.293 1.508l.01.284.01.13h6.88zm6.3.258c1.218 0 2.164-.534 2.836-1.603s1.01-2.608 1.01-4.618c0-2.022-.336-3.567-1.01-4.635S14.734 1.94 13.515 1.94c-1.23 0-2.178.534-2.845 1.603s-1 2.614-1 4.635c0 2 .336 3.55 1.01 4.618s1.618 1.603 2.836 1.603zm0-1.017c-.506 0-.925-.144-1.26-.43s-.6-.67-.802-1.146-.345-1.028-.43-1.654-.13-1.284-.13-1.973.043-1.347.13-1.973.23-1.18.43-1.663.468-.867.802-1.155.753-.43 1.26-.43c.494 0 .908.144 1.24.43s.603.672.8 1.155.353 1.037.44 1.663.13 1.284.13 1.973-.043 1.347-.13 1.973-.233 1.178-.44 1.654-.477.86-.8 1.146-.747.43-1.24.43zm13.137.758v-.982h-5.638v-.034c0-.276.066-.554.198-.836a4.76 4.76 0 0 1 .534-.862 10.33 10.33 0 0 1 .759-.879l.87-.87 1.052-1.034a9.29 9.29 0 0 0 .922-1.068c.27-.368.486-.75.647-1.146s.24-.82.24-1.267c0-1.01-.293-1.8-.88-2.37s-1.46-.853-2.62-.853c-.437 0-.833.055-1.2.164a4.92 4.92 0 0 0-.94.388c-.27.15-.494.302-.672.457l-.37.353.586.775c.07-.07.178-.167.328-.293s.33-.25.543-.37.463-.227.75-.32.615-.138.983-.138c.655 0 1.198.175 1.63.526s.647.928.647 1.732c0 .368-.057.707-.172 1.017s-.27.603-.465.88a6.22 6.22 0 0 1-.681.801l-.82.8-1.078 1.034c-.374.356-.713.74-1.017 1.155s-.555.853-.75 1.318-.293.968-.293 1.508l.01.284.01.13h6.88zm7.534 0V2.197h-.793c-.53.643-1.063 1.152-1.603 1.525s-1.155.68-1.845.922h0l.328.862a5.44 5.44 0 0 0 .828-.319l.793-.414a6.66 6.66 0 0 0 .681-.439c.2-.15.365-.293.49-.43h0V14.14h1.12z"/><path id="j" d="M42.414 21.163V.024H21.34l.002.25c.185 11.453 9.406 20.703 20.823 20.888l.247.002z"/><path id="k" d="M42.414 21.646v21.14H21.34l.002-.25c.185-11.453 9.406-20.703 20.823-20.888l.247-.002z"/><path id="l" d="M21.34 42.785v-21.14H.27v.25c.185 11.453 9.406 20.703 20.823 20.888l.247.002z"/><path id="m" d="M21.66 64.07V42.86H0l.002.25c.2 11.49 9.668 20.77 21.404 20.957l.254.002z"/><path id="n" d="M21.66 0v21.21H0l.002-.25C.192 9.47 9.67.188 21.406.002L21.66 0z"/><path id="o" d="M21.66 21.21V0h21.66l-.002.25c-.2 11.49-9.668 20.77-21.404 20.957l-.254.002z"/><path id="p" d="M21.66 21.65v21.21H0l.002-.25c.2-11.49 9.668-20.77 21.404-20.957l.254-.002z"/><path id="q" d="M32.05 42.86c5.737 0 10.388 4.748 10.388 10.604S37.787 64.07 32.05 64.07 21.66 59.32 21.66 53.464 26.312 42.86 32.05 42.86z"/><path id="r" d="M103.07 15.047a15.05 15.05 0 0 0 15.047 15.047h108.444a15.05 15.05 0 0 0 15.047-15.047h0-138.54z"/></defs><g transform="translate(80 34)" fill="none" fill-rule="evenodd"><g filter="url(#A)" transform="translate(0 361)"><g transform="translate(.604)"><mask id="s" class="E"><use xlink:href="#B"/></mask><use xlink:href="#B" class="E"/><path d="M49.852 182.406l-5.88.045v-489.102h507.22l-.027 3.1c-4.456 266.475-226.452 481.68-501.312 485.957h0z" class="L M"/><path d="M43.517-181.534l-.003 424.247-41.22.008c-101.4-19.17-177.946-105.975-177.946-210.16 0-117.063 96.64-212.183 216.59-214.074l2.578-.02z" class="J M"/><path d="M43.475 625.523v-221h-227.064l.022 2.6c1.995 119.737 101.35 216.438 224.374 218.38l2.667.022z" class="M N"/><path d="M152.175 515.027c59.72 0 108.133-49.474 108.133-110.504H44.043c0 61.03 48.413 110.504 108.133 110.504z" transform="matrix(1 0 0 -1 0 919.549618)" class="M T"/><path d="M43.475 183.523v221h-227.064l.022-2.6c1.995-119.737 101.35-216.438 224.374-218.38l2.667-.022z" class="F M"/></g><g class="G"><path d="M75.264 289.678c1.958 0 3.578-.257 4.86-.77s2.302-1.2 3.055-2.092 1.283-1.914 1.587-3.098.456-2.447.456-3.79h0v-18.154h-6.2v17.838c0 1.736-.33 2.973-.992 3.7s-1.746 1.105-3.254 1.105c-1.032 0-1.984-.17-2.857-.513a17.68 17.68 0 0 1-2.46-1.184h0l-2.063 4.775c.847.58 1.918 1.085 3.214 1.52s2.844.65 4.643.65zm24.8 0c1.56 0 2.97-.263 4.226-.79s2.335-1.27 3.234-2.23 1.587-2.118 2.063-3.473.714-2.848.714-4.48-.25-3.118-.754-4.46-1.204-2.486-2.103-3.434-1.977-1.684-3.234-2.2-2.64-.79-4.147-.79c-1.48 0-2.85.263-4.107.79s-2.34 1.263-3.254 2.2-1.627 2.092-2.143 3.434-.774 2.828-.774 4.46.25 3.124.754 4.48 1.204 2.513 2.103 3.473 1.977 1.704 3.234 2.23 2.652.79 4.186.79zm0-5.052c-1.35 0-2.394-.533-3.135-1.598s-1.11-2.506-1.11-4.32.37-3.243 1.11-4.282 1.786-1.56 3.135-1.56 2.388.52 3.115 1.56 1.09 2.467 1.09 4.282-.364 3.256-1.09 4.32-1.766 1.598-3.115 1.598zm20.754 5.052c2.83 0 5.02-.526 6.567-1.58s2.32-2.605 2.32-4.657c0-.868-.1-1.63-.298-2.29a4.65 4.65 0 0 0-1.032-1.796c-.49-.54-1.157-1.04-2.004-1.5s-1.918-.927-3.214-1.4l-1.567-.65c-.4-.197-.734-.382-.972-.553s-.397-.35-.476-.533-.12-.395-.12-.63c0-1.026.926-1.54 2.778-1.54 1.005 0 1.91.092 2.718.276a21.8 21.8 0 0 1 2.242.631h0l1.032-4.578c-.688-.263-1.614-.506-2.778-.73s-2.38-.335-3.65-.335c-2.54 0-4.537.566-5.992 1.697s-2.182 2.67-2.182 4.617c0 1 .145 1.855.436 2.565s.7 1.322 1.23 1.835 1.17.954 1.925 1.322 1.594.724 2.52 1.066c1.2.447 2.077.85 2.66 1.204s.873.77.873 1.243c0 .605-.225 1.013-.675 1.223s-1.217.316-2.302.316a15.13 15.13 0 0 1-3.135-.335c-1.058-.224-2.1-.533-3.095-.927h0l-.992 4.775c.476.2 1.33.474 2.56.79s2.77.474 4.623.474zm19.206-.553V273.34l1.25-.296c.463-.092.96-.138 1.488-.138 1.323 0 2.23.395 2.718 1.184s.734 2.13.734 4.025h0v11.01h5.913v-11.72c0-1.42-.14-2.7-.417-3.868s-.754-2.157-1.43-3-1.574-1.493-2.698-1.954-2.533-.69-4.226-.69c-.582 0-1.184.06-1.806.178a12.31 12.31 0 0 0-1.528.375h0V258.5l-5.913.947v29.678h5.913zm-51.467 31.573v-5.288H76.376v-22.06h-6.2v27.35h18.373zm12.857.553c1.56 0 2.97-.263 4.226-.79s2.335-1.27 3.234-2.23 1.587-2.118 2.063-3.473.714-2.848.714-4.48-.25-3.118-.754-4.46-1.204-2.486-2.103-3.434-1.977-1.684-3.234-2.2-2.64-.79-4.147-.79c-1.48 0-2.85.263-4.107.79s-2.34 1.263-3.254 2.2-1.627 2.092-2.143 3.434-.774 2.828-.774 4.46.25 3.124.754 4.48 1.204 2.513 2.103 3.473 1.977 1.704 3.234 2.23 2.652.79 4.186.79zm0-5.052c-1.35 0-2.394-.533-3.135-1.598s-1.11-2.506-1.11-4.32.37-3.243 1.11-4.282 1.786-1.56 3.135-1.56 2.388.52 3.115 1.56 1.09 2.467 1.09 4.282-.364 3.256-1.09 4.32-1.766 1.598-3.115 1.598zm20.714 4.5v-16.023l1.15-.138 1.15-.06c1.2 0 2.03.395 2.52 1.184s.734 2.13.734 4.025h0v11.01h5.913V309.37l-.08-2.15a8.92 8.92 0 0 0-.357-1.914c.37-.237.84-.434 1.41-.592s1.012-.237 1.33-.237c1.2 0 2.03.395 2.52 1.184s.734 2.13.734 4.025h0v11.01h5.913v-11.72c0-1.42-.12-2.7-.357-3.868s-.675-2.157-1.31-3-1.488-1.493-2.56-1.954-2.44-.69-4.107-.69c-.926 0-1.938.17-3.036.513s-2.07.816-2.917 1.42c-.608-.526-1.382-.98-2.32-1.362s-2.163-.572-3.67-.572l-2.34.1-2.32.276-2.143.395-1.766.414v20.05h5.913zm34.206 7.3v-7.814a11.12 11.12 0 0 0 2.063.671c.714.158 1.48.237 2.302.237 1.48 0 2.79-.263 3.928-.79s2.1-1.263 2.857-2.2 1.35-2.08 1.746-3.394.595-2.776.595-4.38c0-1.658-.245-3.157-.734-4.5s-1.197-2.48-2.123-3.414-2.063-1.658-3.413-2.17-2.884-.77-4.603-.77l-2.242.1-2.302.257-2.163.375-1.825.454V328h5.913zm3.254-11.88c-.608 0-1.2-.08-1.806-.237s-1.078-.355-1.448-.592h0v-10.616a12.67 12.67 0 0 1 1.111-.138l1.468-.06c1.614 0 2.83.546 3.65 1.638s1.23 2.546 1.23 4.36c0 3.762-1.402 5.644-4.206 5.644zm22.38 5.012c2.143 0 3.968-.125 5.476-.375l3.532-.65v-12.234c0-1.29-.145-2.46-.436-3.512s-.787-1.947-1.488-2.684-1.634-1.302-2.798-1.697-2.62-.592-4.365-.592l-2.044.1-1.925.237-1.686.316-1.3.335.754 4.736c.714-.263 1.56-.467 2.54-.612a20.32 20.32 0 0 1 2.976-.217c1.508 0 2.566.303 3.175.908s.913 1.408.913 2.407h0v.553c-.37-.105-.853-.19-1.448-.257a18.8 18.8 0 0 0-2.044-.099 15.89 15.89 0 0 0-3.294.335c-1.058.224-1.997.585-2.817 1.085s-1.475 1.17-1.964 2.013-.734 1.868-.734 3.078c0 1.263.212 2.328.635 3.197s1.032 1.572 1.825 2.11 1.74.927 2.837 1.164 2.32.355 3.67.355zm.397-4.54c-1.085 0-1.938-.178-2.56-.533s-.933-.993-.933-1.914c0-.474.106-.868.317-1.184a2.21 2.21 0 0 1 .873-.75c.37-.184.8-.31 1.3-.375a11.78 11.78 0 0 1 1.567-.099c.397 0 .833.026 1.31.08l1.07.158v4.46c-.317.053-.74.092-1.27.118l-1.667.04zm19.88 4.104v-15.865c.265-.08.655-.15 1.17-.217s.96-.1 1.33-.1c.82 0 1.587.072 2.302.217l1.865.414.992-4.854c-.317-.132-.7-.243-1.15-.335l-1.35-.237-1.35-.158-1.15-.06c-1.772 0-3.38.164-4.82.493l-3.75 1.046v19.654h5.913zm18.888.474c1.27 0 2.34-.105 3.214-.316s1.667-.46 2.38-.75h0l-.833-4.578c-.556.2-1.17.375-1.845.493s-1.33.178-1.964.178c-1.323 0-2.202-.368-2.64-1.105s-.655-1.723-.655-2.96h0v-7.3h7.103v-4.894h-7.103v-6.117l-5.913.947v17.444c0 1.342.126 2.565.377 3.67s.694 2.046 1.33 2.822 1.48 1.38 2.54 1.815 2.394.65 4.008.65zm-149.44 31.1v-13.675h-3.095v13.675h3.095zm3.928 3.65l6.627-19.1h-2.996l-6.667 19.1h3.036zm13.492-3.374c.966 0 1.868-.15 2.708-.454a5.91 5.91 0 0 0 2.173-1.352c.608-.6 1.088-1.342 1.438-2.23s.526-1.917.526-3.088-.18-2.2-.536-3.088-.847-1.635-1.468-2.24a6.05 6.05 0 0 0-2.182-1.362 7.73 7.73 0 0 0-2.659-.454 7.53 7.53 0 0 0-2.609.454c-.827.303-1.554.756-2.182 1.362s-1.128 1.352-1.498 2.24-.556 1.917-.556 3.088.18 2.2.536 3.088.847 1.63 1.468 2.23 1.35 1.05 2.182 1.352a7.73 7.73 0 0 0 2.659.454zm0-2.703c-.582 0-1.098-.105-1.548-.316a3.16 3.16 0 0 1-1.141-.898c-.31-.388-.55-.852-.714-1.39s-.248-1.145-.248-1.815a6.21 6.21 0 0 1 .248-1.806c.165-.546.403-1.013.714-1.4s.69-.69 1.14-.908.966-.326 1.548-.326c.57 0 1.08.105 1.538.316s.84.5 1.15.898.55.855.714 1.4.248 1.154.248 1.825-.083 1.276-.248 1.815-.403 1.003-.714 1.39-.694.687-1.15.898-.97.316-1.538.316zm17.936 2.703c1.812 0 3.168-.352 4.067-1.056s1.35-1.694 1.35-2.97c0-.658-.086-1.217-.258-1.677a3.25 3.25 0 0 0-.784-1.204c-.35-.342-.8-.64-1.32-.898a20.77 20.77 0 0 0-1.865-.779l-.942-.345a4.46 4.46 0 0 1-.754-.375c-.218-.138-.387-.293-.506-.464s-.18-.382-.18-.63c0-.42.162-.733.486-.937s.856-.306 1.597-.306c.66 0 1.227.076 1.696.227s.896.326 1.28.523h0l.893-2.427c-.436-.237-.992-.454-1.667-.65s-1.475-.296-2.4-.296c-.78 0-1.48.095-2.103.286s-1.15.464-1.587.82-.774.786-1.012 1.293-.357 1.075-.357 1.707.112 1.168.337 1.608.516.816.873 1.125.76.566 1.2.77l1.35.543c1.032.342 1.76.66 2.182.957s.635.668.635 1.115c0 .2-.033.4-.1.572s-.185.32-.357.444-.4.224-.685.296-.645.11-1.08.11c-.873 0-1.6-.09-2.212-.266s-1.108-.378-1.518-.602h0l-.873 2.447a7.4 7.4 0 0 0 .685.335c.27.118.595.23.972.335a10.68 10.68 0 0 0 1.3.266 11.33 11.33 0 0 0 1.647.109zm12.62 0a10.48 10.48 0 0 0 1.111-.059l1.042-.148.883-.207c.265-.08.476-.158.635-.237h0l-.397-2.388c-.33.145-.757.266-1.28.365a8.59 8.59 0 0 1-1.597.148c-.847 0-1.52-.178-2.024-.533a1.95 1.95 0 0 1-.853-1.44h6.706l.04-.543.02-.562c0-1.75-.43-3.075-1.3-3.976s-2.03-1.352-3.512-1.352c-.635 0-1.253.118-1.855.355s-1.134.585-1.597 1.046-.837 1.036-1.12 1.727-.427 1.496-.427 2.417c0 .763.11 1.473.327 2.13s.556 1.227 1.012 1.707 1.032.858 1.726 1.135 1.51.414 2.45.414zm1.43-6.512h-3.91a4.19 4.19 0 0 1 .188-.74c.086-.243.208-.457.367-.64s.357-.332.595-.444.522-.168.853-.168c.344 0 .632.06.863.178s.423.27.575.454a1.82 1.82 0 0 1 .337.631 3.02 3.02 0 0 1 .129.73h0zm8.095 6.236v-7.933a3.93 3.93 0 0 1 .585-.109 5.37 5.37 0 0 1 .665-.049c.4 0 .794.036 1.15.11l.933.207.496-2.427c-.16-.066-.35-.122-.575-.168l-.675-.118-.675-.08-.575-.03c-.886 0-1.7.082-2.41.247l-1.875.523v9.827h2.956zm11.33 0c.675-1.316 1.36-2.855 2.054-4.617l1.974-5.762h-3.055l-.466 1.667-.556 1.815-.585 1.786-.556 1.58-.565-1.58-.575-1.786-.556-1.815-.466-1.667h-3.135l1.974 5.762 2.054 4.617h2.46zm7.083-11.642c.476 0 .9-.155 1.24-.464s.526-.733.526-1.273-.175-.964-.526-1.273-.764-.464-1.24-.464-.9.155-1.24.464-.526.733-.526 1.273.175.964.526 1.273.764.464 1.24.464zm1.488 11.642v-10.38h-2.956v10.38h2.956zm7.718.276c.622 0 1.2-.053 1.706-.158s.946-.23 1.3-.375h0l-.417-2.407c-.344.145-.72.25-1.13.316a7.29 7.29 0 0 1-1.151.099c-1.005 0-1.7-.257-2.113-.77s-.605-1.237-.605-2.17c0-.88.215-1.592.645-2.13s1.08-.81 1.954-.81c.4 0 .78.04 1.11.118a7.48 7.48 0 0 1 .913.276h0l.615-2.348c-.436-.184-.886-.326-1.35-.424s-.972-.148-1.528-.148c-.847 0-1.6.145-2.262.434s-1.224.68-1.686 1.174-.817 1.072-1.06 1.736-.367 1.37-.367 2.12c0 .776.103 1.496.308 2.16s.53 1.24.972 1.727 1.01.872 1.696 1.154 1.508.424 2.46.424zm9.504 0a10.48 10.48 0 0 0 1.111-.059l1.042-.148c.324-.06.618-.128.883-.207s.476-.158.635-.237h0l-.397-2.388c-.33.145-.757.266-1.28.365a8.59 8.59 0 0 1-1.597.148c-.847 0-1.52-.178-2.024-.533a1.95 1.95 0 0 1-.853-1.44h6.706l.04-.543.02-.562c0-1.75-.43-3.075-1.3-3.976s-2.03-1.352-3.512-1.352c-.635 0-1.253.118-1.855.355s-1.134.585-1.597 1.046-.837 1.036-1.12 1.727-.427 1.496-.427 2.417c0 .763.11 1.473.327 2.13s.556 1.227 1.012 1.707 1.032.858 1.726 1.135 1.51.414 2.45.414zm1.43-6.512h-3.91a4.19 4.19 0 0 1 .188-.74c.086-.243.208-.457.367-.64s.357-.332.595-.444.522-.168.853-.168c.344 0 .632.06.863.178s.423.27.575.454a1.82 1.82 0 0 1 .337.631 3.02 3.02 0 0 1 .129.73h0zm8.115 6.512c1.415 0 2.5-.263 3.284-.79s1.16-1.302 1.16-2.328c0-.434-.05-.816-.15-1.145s-.27-.628-.516-.898-.58-.52-1.002-.75-.96-.464-1.607-.7l-.784-.326c-.205-.1-.367-.19-.486-.276s-.198-.174-.238-.266a.79.79 0 0 1-.06-.316c0-.513.463-.77 1.39-.77.503 0 .956.046 1.36.138a10.9 10.9 0 0 1 1.121.316h0l.516-2.29c-.344-.132-.807-.253-1.39-.365a9.66 9.66 0 0 0-1.825-.168c-1.27 0-2.268.283-2.996.85s-1.09 1.335-1.09 2.31c0 .5.073.927.218 1.283s.35.66.615.918.585.477.962.66.797.362 1.26.533c.595.224 1.038.424 1.33.602s.436.385.436.622c0 .303-.112.506-.337.612s-.608.158-1.15.158c-.516 0-1.038-.056-1.567-.168s-1.045-.266-1.548-.464h0l-.496 2.388c.238.105.665.237 1.28.395s1.386.237 2.31.237z" class="K"/><g class="E"><path d="M90.916 79.936v-5.05h-11.56v-21.07h-5.873v26.122h17.432zm12.2.528c1.48 0 2.817-.25 4-.754a8.81 8.81 0 0 0 3.068-2.13c.853-.917 1.506-2.023 1.958-3.317s.678-2.72.678-4.278-.238-2.978-.715-4.26-1.142-2.375-1.995-3.28-1.876-1.608-3.068-2.11-2.504-.754-3.934-.754c-1.406 0-2.705.25-3.897.754a9.13 9.13 0 0 0-3.087 2.111c-.866.905-1.544 1.998-2.033 3.28s-.734 2.7-.734 4.26.238 2.984.715 4.278 1.142 2.4 1.995 3.317a8.81 8.81 0 0 0 3.068 2.13c1.192.503 2.516.754 3.972.754zm0-4.825c-1.28 0-2.272-.51-2.974-1.527s-1.054-2.394-1.054-4.127.35-3.097 1.054-4.1 1.694-1.49 2.974-1.49 2.265.496 2.956 1.49 1.035 2.356 1.035 4.1-.345 3.1-1.035 4.127-1.675 1.527-2.956 1.527zm22.854 4.825c1.48 0 2.817-.25 4-.754a8.81 8.81 0 0 0 3.068-2.13c.853-.917 1.506-2.023 1.958-3.317s.678-2.72.678-4.278-.238-2.978-.715-4.26-1.142-2.375-1.995-3.28-1.876-1.608-3.068-2.11-2.504-.754-3.934-.754c-1.406 0-2.705.25-3.897.754a9.13 9.13 0 0 0-3.087 2.111c-.866.905-1.544 1.998-2.033 3.28s-.734 2.7-.734 4.26.238 2.984.715 4.278 1.142 2.4 1.995 3.317a8.81 8.81 0 0 0 3.068 2.13c1.192.503 2.516.754 3.972.754zm0-4.825c-1.28 0-2.272-.51-2.974-1.527s-1.054-2.394-1.054-4.127.35-3.097 1.054-4.1 1.694-1.49 2.974-1.49 2.265.496 2.956 1.49 1.035 2.356 1.035 4.1-.345 3.1-1.035 4.127-1.675 1.527-2.956 1.527zm19.653 4.297v-8.67c.628.503 1.26 1.118 1.9 1.847l1.826 2.28 1.638 2.375 1.374 2.167h6.438l-1.58-2.752-2.07-3.015-2.334-2.92c-.803-.942-1.58-1.753-2.334-2.43l4.16-4.316 3.897-4.39h-6.664l-1.26 1.508-1.562 1.828-1.713 1.94-1.713 1.885V50.686l-5.6.905v28.345h5.6zm18.976-22.24c.904 0 1.688-.295 2.353-.886s.998-1.4.998-2.43-.333-1.84-.998-2.43-1.45-.886-2.353-.886-1.688.295-2.353.886-.998 1.4-.998 2.43.333 1.84.998 2.43 1.45.886 2.353.886zm2.824 22.24V60.1h-5.6v19.827h5.6zm10.88 0V64.633l1.205-.132 1.28-.057c1.305 0 2.196.377 2.673 1.13s.715 2.035.715 3.845h0v10.516h5.6V68.74c0-1.357-.138-2.588-.414-3.694s-.74-2.06-1.393-2.865-1.537-1.426-2.654-1.866-2.516-.66-4.198-.66c-1.657 0-3.238.12-4.744.358l-3.7.773v19.148h5.6zm23.57 7.086c3.44 0 5.98-.785 7.624-2.356s2.466-3.977 2.466-7.218h0v-16.66l-1.713-.433-2.014-.358-2.127-.245-2.1-.094c-1.58 0-3 .232-4.254.697s-2.315 1.125-3.18 1.98-1.525 1.878-1.977 3.072-.678 2.52-.678 3.977c0 2.915.728 5.183 2.184 6.804s3.552 2.43 6.288 2.43a9.9 9.9 0 0 0 2.09-.207c.64-.138 1.26-.346 1.864-.622h0v.716c0 1.106-.333 2-.998 2.714s-1.8 1.055-3.407 1.055c-1.23 0-2.328-.1-3.294-.302s-1.89-.477-2.767-.83h0l-.98 4.712c1.03.352 2.146.635 3.35.848a20.67 20.67 0 0 0 3.614.32zm1.58-12.93c-2.535 0-3.803-1.57-3.803-4.712 0-1.508.364-2.752 1.092-3.732s1.832-1.47 3.313-1.47l1.318.057.98.132v8.97c-.35.2-.778.377-1.28.528s-1.042.226-1.62.226zM75.893 87.68c.904 0 1.688-.295 2.353-.886s.998-1.4.998-2.43-.333-1.84-.998-2.43-1.45-.886-2.353-.886-1.688.295-2.353.886-.998 1.4-.998 2.43.333 1.84.998 2.43 1.45.886 2.353.886zm2.824 22.24V90.093h-5.6v19.827h5.6zm10.88 0V94.616l1.205-.132 1.28-.057c1.305 0 2.196.377 2.673 1.13s.715 2.035.715 3.845h0v10.516h5.6V98.725c0-1.357-.138-2.588-.414-3.694s-.74-2.06-1.393-2.865-1.537-1.426-2.654-1.866-2.516-.66-4.198-.66c-1.657 0-3.238.12-4.744.358l-3.7.773v19.148h5.6zm24.21.452c1.205 0 2.22-.1 3.05-.302s1.58-.44 2.26-.716h0l-.79-4.372c-.527.2-1.11.358-1.75.47s-1.26.17-1.864.17c-1.255 0-2.1-.352-2.504-1.055s-.62-1.646-.62-2.827h0v-6.973h6.74v-4.674h-6.74V84.25l-5.6.905v16.66c0 1.282.12 2.45.358 3.505s.66 1.954 1.26 2.695 1.406 1.32 2.4 1.734 2.272.622 3.803.622zm17.13.075c1.48 0 2.817-.25 4-.754a8.81 8.81 0 0 0 3.068-2.13c.853-.917 1.506-2.023 1.958-3.317s.678-2.72.678-4.278-.238-2.978-.715-4.26-1.142-2.375-1.995-3.28-1.876-1.608-3.068-2.11-2.504-.754-3.934-.754c-1.406 0-2.705.25-3.897.754a9.13 9.13 0 0 0-3.087 2.111c-.866.905-1.544 1.998-2.033 3.28s-.734 2.7-.734 4.26.238 2.984.715 4.278 1.142 2.4 1.995 3.317a8.81 8.81 0 0 0 3.068 2.13c1.192.503 2.516.754 3.972.754zm0-4.825c-1.28 0-2.272-.51-2.974-1.527s-1.054-2.394-1.054-4.127.35-3.097 1.054-4.1 1.694-1.49 2.974-1.49 2.265.496 2.956 1.49 1.035 2.356 1.035 4.1-.345 3.1-1.035 4.127-1.675 1.527-2.956 1.527zm30.723 4.75c1.205 0 2.22-.1 3.05-.302s1.58-.44 2.26-.716h0l-.79-4.372c-.527.2-1.11.358-1.75.47s-1.26.17-1.864.17c-1.255 0-2.1-.352-2.504-1.055s-.62-1.646-.62-2.827h0v-6.973h6.74v-4.674h-6.74V84.25l-5.6.905v16.66c0 1.282.12 2.45.358 3.505s.66 1.954 1.26 2.695 1.406 1.32 2.4 1.734 2.272.622 3.803.622zm14.684-.452V94.842l1.186-.283c.44-.088.9-.132 1.412-.132 1.255 0 2.115.377 2.58 1.13s.697 2.035.697 3.845h0v10.516h5.6V98.725c0-1.357-.132-2.588-.395-3.694s-.715-2.06-1.355-2.865-1.493-1.426-2.56-1.866-2.403-.66-4-.66c-.552 0-1.123.057-1.713.17s-1.073.232-1.45.358h0v-9.5l-5.6.905v28.345h5.6zm26.092.528c.703 0 1.406-.038 2.108-.113l1.977-.283a15.75 15.75 0 0 0 1.675-.396c.502-.15.904-.302 1.205-.452h0l-.753-4.56c-.628.276-1.437.51-2.428.697s-2.002.283-3.03.283c-1.606 0-2.887-.34-3.84-1.018a3.73 3.73 0 0 1-1.619-2.752h12.726l.075-1.037.038-1.074c0-3.342-.816-5.874-2.447-7.595s-3.853-2.582-6.664-2.582a9.48 9.48 0 0 0-3.52.678 8.85 8.85 0 0 0-3.031 1.998c-.88.88-1.588 1.98-2.127 3.298s-.81 2.858-.81 4.617c0 1.457.207 2.814.62 4.07s1.054 2.343 1.92 3.26 1.958 1.64 3.276 2.167 2.868.792 4.65.792zm2.71-12.44h-7.417c.075-.477.195-.95.358-1.414s.395-.873.697-1.225.678-.635 1.13-.848.99-.32 1.62-.32c.653 0 1.2.113 1.638.34s.803.515 1.092.867.502.754.64 1.206.22.917.245 1.395h0zm-125.8 41.895v-10.78h10.316v-4.938H79.357v-5.466h11.596v-4.938h-17.47v26.122h5.873zm23.08.452c1.657 0 3.238-.12 4.744-.358l3.7-.773v-19.148h-5.6v15.304l-1.205.132-1.28.057c-1.305 0-2.196-.402-2.673-1.206s-.715-2.11-.715-3.92h0v-10.366h-5.6v11.044c0 1.357.138 2.6.414 3.732s.74 2.105 1.393 2.92 1.537 1.45 2.654 1.904 2.516.678 4.198.678zm21.348 0c1.205 0 2.22-.1 3.05-.302s1.58-.44 2.26-.716h0l-.79-4.372c-.527.2-1.11.358-1.75.47s-1.26.17-1.864.17c-1.255 0-2.1-.352-2.504-1.055s-.62-1.646-.62-2.827h0v-6.973h6.74v-4.674h-6.74v-5.842l-5.6.905v16.66c0 1.282.12 2.45.358 3.505s.66 1.954 1.26 2.695 1.406 1.32 2.4 1.734 2.272.622 3.803.622zm17.545 0c1.657 0 3.238-.12 4.744-.358l3.7-.773v-19.148h-5.6v15.304l-1.205.132-1.28.057c-1.305 0-2.196-.402-2.673-1.206s-.715-2.11-.715-3.92h0v-10.366h-5.6v11.044c0 1.357.138 2.6.414 3.732s.74 2.105 1.393 2.92 1.537 1.45 2.654 1.904 2.516.678 4.198.678zm19.315-.452V124.75c.25-.075.62-.144 1.11-.207a10.12 10.12 0 0 1 1.261-.094c.778 0 1.506.07 2.184.207l1.77.396.94-4.636c-.3-.126-.665-.232-1.092-.32l-1.28-.226-1.28-.15-1.092-.057c-1.682 0-3.207.157-4.575.47l-3.558 1v18.77h5.6zm19.428.528c.703 0 1.406-.038 2.108-.113l1.977-.283a15.75 15.75 0 0 0 1.675-.396c.502-.15.904-.302 1.205-.452h0l-.753-4.56c-.628.276-1.437.51-2.428.697s-2.002.283-3.03.283c-1.606 0-2.887-.34-3.84-1.018a3.73 3.73 0 0 1-1.619-2.752h12.726l.075-1.037.038-1.074c0-3.342-.816-5.874-2.447-7.595s-3.853-2.582-6.664-2.582a9.48 9.48 0 0 0-3.52.678 8.85 8.85 0 0 0-3.031 1.998c-.88.88-1.588 1.98-2.127 3.298s-.81 2.858-.81 4.617c0 1.457.207 2.814.62 4.07s1.054 2.343 1.92 3.26 1.958 1.64 3.276 2.167 2.868.792 4.65.792zm2.71-12.44h-7.417c.075-.477.195-.95.358-1.414s.395-.873.697-1.225.678-.635 1.13-.848.99-.32 1.62-.32c.653 0 1.2.113 1.638.34s.803.515 1.092.867.502.754.64 1.206.22.917.245 1.395h0z"/><g transform="translate(86.827 461.311)"><path d="M10.515 21.986c1.352 0 2.616-.212 3.792-.635s2.2-1.054 3.042-1.892 1.523-1.88 2.014-3.122.736-2.684.736-4.323-.25-3.08-.75-4.323-1.185-2.288-2.056-3.136a8.47 8.47 0 0 0-3.055-1.906c-1.167-.424-2.407-.635-3.722-.635-1.278 0-2.495.212-3.653.635a8.63 8.63 0 0 0-3.055 1.906c-.88.847-1.58 1.892-2.097 3.136s-.778 2.684-.778 4.323.25 3.08.75 4.323 1.185 2.284 2.056 3.122 1.89 1.47 3.055 1.892 2.407.635 3.722.635zm0-3.785c-.815 0-1.537-.147-2.167-.442a4.42 4.42 0 0 1-1.597-1.257c-.435-.543-.77-1.193-1-1.948s-.347-1.602-.347-2.542c0-.92.116-1.763.347-2.528s.565-1.418 1-1.96a4.56 4.56 0 0 1 1.597-1.271c.63-.304 1.352-.456 2.167-.456.796 0 1.514.147 2.153.442a4.39 4.39 0 0 1 1.611 1.257c.435.543.77 1.197 1 1.96s.347 1.616.347 2.555-.116 1.786-.347 2.542-.565 1.404-1 1.948a4.39 4.39 0 0 1-1.611 1.257c-.64.295-1.356.442-2.153.442zM27.57 21.6V10.493c.185-.055.458-.106.82-.152s.67-.07.93-.07a8.11 8.11 0 0 1 1.611.152l1.306.3.694-3.398c-.222-.092-.49-.17-.806-.235l-.944-.166-.944-.11-.806-.04c-1.24 0-2.366.115-3.375.345l-2.625.732V21.6h4.14zm12.472 5.194c2.537 0 4.412-.576 5.625-1.727s1.82-2.915 1.82-5.3h0V7.565l-1.264-.318-1.486-.262-1.57-.18-1.542-.07c-1.167 0-2.213.17-3.14.51s-1.708.824-2.347 1.45-1.125 1.377-1.458 2.252-.5 1.846-.5 2.915c0 2.136.537 3.8 1.61 4.986s2.62 1.782 4.64 1.782a7.35 7.35 0 0 0 1.542-.152 6.69 6.69 0 0 0 1.375-.456h0v.525c0 .8-.245 1.473-.736 1.99s-1.33.774-2.514.774c-.907 0-1.718-.074-2.43-.22a12.18 12.18 0 0 1-2.042-.608h0l-.722 3.453a16.69 16.69 0 0 0 2.472.622c.89.157 1.778.235 2.667.235zm1.167-9.476c-1.87 0-2.805-1.15-2.805-3.453 0-1.105.27-2.017.806-2.735s1.352-1.077 2.444-1.077l.972.04.722.097v6.575c-.26.147-.574.276-.944.387a4.16 4.16 0 0 1-1.194.166zm15.472 4.586c1.5 0 2.778-.087 3.833-.262l2.472-.456V12.62c0-.902-.102-1.722-.306-2.46s-.55-1.363-1.042-1.88-1.143-.912-1.958-1.188-1.833-.414-3.055-.414l-1.43.07-1.347.166-1.18.22-.903.235.528 3.315c.5-.184 1.093-.327 1.778-.428s1.38-.152 2.083-.152c1.056 0 1.796.212 2.222.635s.64.985.64 1.685h0v.387c-.26-.074-.597-.134-1.014-.18a13.16 13.16 0 0 0-1.431-.069c-.796 0-1.565.078-2.306.235s-1.398.4-1.972.76-1.032.82-1.375 1.41-.514 1.308-.514 2.155c0 .884.148 1.63.444 2.238s.722 1.1 1.278 1.478 1.218.65 1.986.815 1.625.25 2.57.25zm.278-3.177c-.76 0-1.356-.124-1.792-.373s-.653-.695-.653-1.34c0-.332.074-.608.222-.83s.352-.396.61-.525.56-.216.903-.262.708-.07 1.097-.07c.278 0 .583.018.917.055l.75.11v3.122a8.16 8.16 0 0 1-.889.083l-1.167.028zM70.874 21.6V10.383l.89-.097.944-.04c.963 0 1.62.276 1.972.83s.528 1.492.528 2.818h0V21.6h4.14v-8.205c0-.995-.102-1.897-.306-2.707s-.546-1.5-1.028-2.1-1.134-1.045-1.958-1.367-1.856-.483-3.097-.483a22.49 22.49 0 0 0-3.5.262l-2.722.566V21.6h4.14zM85.152 5.3a2.54 2.54 0 0 0 1.736-.649c.49-.433.736-1.027.736-1.782s-.245-1.35-.736-1.782a2.54 2.54 0 0 0-1.736-.649 2.54 2.54 0 0 0-1.736.649c-.49.433-.736 1.027-.736 1.782s.245 1.35.736 1.782a2.54 2.54 0 0 0 1.736.649zm2.083 16.3V7.068h-4.14V21.6h4.14zm15 0v-3.426H95.18l1.792-2.403 1.958-2.376 1.82-2.072 1.347-1.492V7.068h-11.61v3.426h6.222l-1.64 1.975-1.792 2.252-1.722 2.307-1.403 2.14v2.43h12.083zm9.39.387a14.67 14.67 0 0 0 1.556-.083l1.458-.207 1.236-.3c.37-.11.667-.22.89-.332h0l-.556-3.343c-.463.203-1.06.373-1.792.51s-1.477.207-2.236.207c-1.185 0-2.13-.25-2.833-.746a2.73 2.73 0 0 1-1.194-2.017h9.39l.056-.76.028-.787c0-2.45-.602-4.305-1.806-5.567S112.975 6.68 110.9 6.68c-.89 0-1.755.166-2.597.497a6.53 6.53 0 0 0-2.236 1.464c-.648.645-1.17 1.45-1.57 2.417s-.597 2.095-.597 3.384c0 1.068.153 2.063.458 2.984s.778 1.717 1.417 2.4 1.444 1.202 2.417 1.588 2.116.58 3.43.58zm2-9.117h-5.472c.056-.35.144-.695.264-1.036s.292-.64.514-.898.5-.465.833-.622.73-.235 1.194-.235c.48 0 .884.083 1.208.25s.593.378.806.635.37.553.472.884a4.23 4.23 0 0 1 .181 1.022h0zm11.333 8.73V10.493c.185-.055.458-.106.82-.152s.67-.07.93-.07a8.11 8.11 0 0 1 1.611.152l1.306.3.694-3.398c-.222-.092-.49-.17-.806-.235l-.944-.166-.944-.11-.806-.04c-1.24 0-2.366.115-3.375.345l-2.625.732V21.6h4.14z"/></g></g></g></g><g transform="translate(214)"><g filter="url(#C)"><use xlink:href="#J" class="E"/><g transform="translate(15.059 15.047)"><mask id="t" class="E"><use xlink:href="#D"/></mask><use fill="#fafafa" xlink:href="#D"/><path d="M-14.385-48.486H326.94V70.22H-14.385z" class="P U"/><g class="U"><g transform="translate(9.039 78.953)" filter="url(#E)"><mask id="u" class="E"><use xlink:href="#F"/></mask><use stroke-width=".5" xlink:href="#F" class="E Q"/><g class="H K"><g transform="translate(57.902 145)"><g transform="translate(.5 .5)"><use xlink:href="#K"/><use xlink:href="#L"/><use xlink:href="#M"/><use xlink:href="#N"/><use xlink:href="#O"/><use xlink:href="#P"/><use xlink:href="#Q"/><use xlink:href="#N" y="97.5"/><path d="M88.5 90.625h22.125V68.5H88.5z"/><use xlink:href="#R"/><path d="M110.625 126.5H88.5v22.125h22.125z"/><path d="M60.625 138.688h17v-17h-17z"/><path d="M60.5 78.5h17v-17h-17z"/><path d="M143.813 177H177v-22.125h-33.187z"/></g></g></g><use xlink:href="#S" fill="#ff8100" class="H"/><rect x="111.902" y="17" width="129" height="17" rx="4" class="H J"/><rect fill="#f4f2ee" x="111.902" y="39" width="87" height="17" rx="4" class="H"/><g class="H"><g transform="translate(19.902 11)"><use xlink:href="#T" class="G P"/><g transform="translate(11.059 24.999)"><g transform="translate(0 .011)"><use xlink:href="#U" class="R"/><g transform="translate(32.251 3.222)" fill="#212121"><use xlink:href="#V"/><use xlink:href="#W"/></g><use xlink:href="#X" fill="#ff0025" class="G"/><g class="B C D S"><use xlink:href="#Y"/><use xlink:href="#Z"/></g><g stroke="#001d75" class="B C D"><use xlink:href="#a"/><use xlink:href="#b"/><use xlink:href="#c"/><path d="M48.1 23.968l-1.41 8.657"/><use xlink:href="#d"/><use xlink:href="#e"/><use xlink:href="#f"/></g><use xlink:href="#g" class="B C D S"/></g></g></g><g transform="translate(59 338)"><g class="G"><use xlink:href="#h" class="K"/><use xlink:href="#i" class="F"/></g><g opacity=".92" transform="translate(90.629)"><g transform="translate(41.996)"><use xlink:href="#j" fill="#2ac2ff"/><use xlink:href="#k" class="L"/><use xlink:href="#l" class="R"/><ellipse cx="10.805" cy="10.593" rx="10.536" ry="10.569" class="N"/><ellipse cx="10.805" cy="53.429" rx="10.536" ry="10.569" class="F"/></g><use xlink:href="#m" class="N"/><use xlink:href="#n" class="J"/><use xlink:href="#o" class="L"/><use xlink:href="#p" class="F"/><use xlink:href="#q" class="T"/></g></g><path d="M0 103h296.15" class="B C Q"/></g></g><use filter="url(#H)" xlink:href="#G" class="K"/><use xlink:href="#G" class="E"/></g></g><use xlink:href="#r" fill="#efefef"/></g><g class="J"><path d="M124.46 579.013l-23.45 5.54a1.31 1.31 0 0 0-.998 1.116c-.067.544.214 1.074.704 1.323l6.66 3.395.68 6.8a1.3 1.3 0 0 0 2.371.604l.202-.207-1.347-5.2c-.057-.677.277-1.327.86-1.674l5.787-3.44-4.625 4.485c-.328.32-.465.788-.363 1.233l2.1 9.145c.122.535.568.935 1.1 1.002s1.07-.216 1.32-.707l11.016-21.598a1.29 1.29 0 0 0 .129-.255c.115-.303.044-.765-.088-1.083-.163-.392-.855-.557-2.078-.494zM56.192 591.9h4.85v-4.97h-4.85v4.97zm-7.277 0h4.85v-4.97h-4.85v4.97zm0 7.455h4.85v-4.97h-4.85v4.97zm-7.277-7.455h4.85v-4.97h-4.85v4.97zm0 7.455h4.85v-4.97h-4.85v4.97zm20.618-19.88H59.83V577h-2.426v6.213H54.98v-3.728h-7.277V577h-2.426v6.213H42.85v-3.728h-2.426C39.087 579.484 38 580.6 38 581.97v18.64c0 1.37 1.087 2.485 2.426 2.485h21.83c1.337 0 2.426-1.116 2.426-2.485v-18.64c0-1.37-1.088-2.486-2.426-2.485zm181.174 11.98c-.8 0-1.43-.648-1.43-1.446s.64-1.446 1.43-1.446 1.43.648 1.43 1.446-.64 1.446-1.43 1.446m-5.714 0c-.8 0-1.43-.648-1.43-1.446s.64-1.446 1.43-1.446 1.43.648 1.43 1.446-.64 1.446-1.43 1.446m-5.714 0c-.8 0-1.43-.648-1.43-1.446s.64-1.446 1.43-1.446 1.43.648 1.43 1.446-.64 1.446-1.43 1.446M237.714 577c-7.877 0-14.286 5.84-14.286 13.018 0 2.5.773 4.906 2.247 6.995L222 603.036h15.714c7.877 0 14.286-5.84 14.286-13.018S245.6 577 237.714 577M173.3 601.277l-10.562-10.432 6.205-6.128 4.055 4.005 6.495-7.056H163.7c-1.5 0-2.7 1.197-2.7 2.667v16c0 1.47 1.2 2.667 2.7 2.667h18.9c1.5 0 2.7-1.196 2.7-2.667V588.24l-12 13.036z"/><path d="M173.208 597.414l-6.65-6.568 2.387-2.357 4.15 4.097 12.3-13.373 2.497 2.24zM297 591a6.01 6.01 0 0 0 6-6 6.01 6.01 0 0 0-6-6 6.01 6.01 0 0 0-6 6 6.01 6.01 0 0 0 6 6m0 1.5c-7.065 0-12 3.7-12 9v1.5h24v-1.5c0-5.3-4.935-9-12-9"/></g></g><g transform="translate(446 139)"><g filter="url(#C)"><use xlink:href="#J" class="E"/><g transform="translate(15.059 15.047)"><mask id="v" class="E"><use xlink:href="#J" href="#D"/></mask><use fill="#fafafa" xlink:href="#J" href="#D"/><path d="M-14.385-48.486H326.94V70.22H-14.385z" class="O P"/><g class="O"><g transform="matrix(.994522 -.104528 .104528 .994522 -13.985445 105.619711)" filter="url(#E)"><mask id="w" class="E"><use xlink:href="#L" href="#F"/></mask><use stroke-width=".5" xlink:href="#L" class="E Q" href="#F"/><g class="I K"><g transform="translate(57.902 145)"><g transform="translate(.5 .5)"><use xlink:href="#K"/><use xlink:href="#L"/><use xlink:href="#M"/><use xlink:href="#N"/><use xlink:href="#O"/><use xlink:href="#P"/><use xlink:href="#Q"/><use xlink:href="#N" y="97.5"/><path d="M88.5 90.625h22.125V68.5H88.5z"/><use xlink:href="#R"/><path d="M110.625 126.5H88.5v22.125h22.125z"/><path d="M60.625 138.688h17v-17h-17z"/><path d="M60.5 78.5h17v-17h-17z"/><path d="M143.813 177H177v-22.125h-33.187z"/></g></g></g><use xlink:href="#S" fill="#ff8100" class="I"/><rect x="111.902" y="17" width="129" height="17" rx="4" class="I J"/><rect fill="#f4f2ee" x="111.902" y="39" width="87" height="17" rx="4" class="I"/><g class="I"><g transform="translate(19.902 11)"><use xlink:href="#T" class="G P"/><g transform="translate(11.059 24.999)"><g transform="translate(0 .011)"><use xlink:href="#U" class="R"/><g transform="translate(32.251 3.222)" fill="#212121"><use xlink:href="#V"/><use xlink:href="#W"/></g><use xlink:href="#X" fill="#ff0025" class="G"/><g class="B C D S"><use xlink:href="#Y"/><use xlink:href="#Z"/></g><g stroke="#001d75" class="B C D"><use xlink:href="#a"/><use xlink:href="#b"/><use xlink:href="#c"/><path d="M48.1 23.968l-1.41 8.657"/><use xlink:href="#d"/><use xlink:href="#e"/><use xlink:href="#f"/></g><use xlink:href="#g" class="B C D S"/></g></g></g><g transform="translate(59 338)"><g class="G"><use xlink:href="#h" class="K"/><use xlink:href="#i" class="F"/></g><g opacity=".92" transform="translate(90.629)"><g transform="translate(41.996)"><use xlink:href="#j" fill="#2ac2ff"/><use xlink:href="#k" class="L"/><use xlink:href="#l" class="R"/><ellipse cx="10.805" cy="10.593" rx="10.536" ry="10.569" class="N"/><ellipse cx="10.805" cy="53.429" rx="10.536" ry="10.569" class="F"/></g><use xlink:href="#m" class="N"/><use xlink:href="#n" class="J"/><use xlink:href="#o" class="L"/><use xlink:href="#p" class="F"/><use xlink:href="#q" class="T"/></g></g><path d="M0 103h296.15" class="B C Q"/></g></g><path d="M401.94-98.047v815h-490v-815h490zm-138 299h-221v221h221v-221z" fill-opacity=".622" fill="#001c6c"/><rect fill="#42be65" x="83.941" y="504.953" width="144" height="54" rx="12.2"/><path d="M152.29 542.953l-9.35-9.382 3.355-3.367 5.83 5.853 17.303-19.103 3.51 3.202z" class="E"/></g></g><use xlink:href="#r" fill="#efefef"/></g><g stroke="#0d62fe" class="C"><path d="M58 324h221" stroke-width="12.322" filter="url(#I)" class="B"/><path d="M58 324h221" stroke-width="8.322" style="mix-blend-mode:screen"/></g></g></g></svg>