<svg xmlns="http://www.w3.org/2000/svg" xmlns:xlink="http://www.w3.org/1999/xlink" width="855" height="838" xmlns:v="https://vecta.io/nano"><style><![CDATA[.B{stroke-linejoin:round}.C{stroke-linecap:round}.D{fill:#f4f2ee}.E{stroke-width:.5}.F{stroke-width:.6}.G{fill-rule:nonzero}.H{fill:#fff}.I{fill:#f2f4f6}.J{stroke:#212121}.K{fill:#ff9d00}.L{stroke:#001d75}.M{fill:#06f}.N{fill:#001d75}.O{fill:#0064ff}.P{fill:#212121}.Q{fill:#ff0025}.R{fill:#42be65}.S{fill:#00c15a}.T{fill:#ff5fa7}.U{fill:#ff0034}.V{fill:#f1f4f6}.W{fill:#f3fff6}.X{fill:#ff243a}.Y{stroke:#ff5fa7}.Z{fill:#d41c61}.a{fill:#001c6c}.b{stroke:#ffc200}.c{fill:#ff8100}.d{stroke:#f4f2ee}.e{fill:#001d71}]]></style><defs><filter x="-3.2%" y="-2.7%" width="106.3%" height="105.3%" id="A"><feOffset dy="1" in="SourceAlpha"/><feGaussianBlur stdDeviation="2"/><feColorMatrix values="0 0 0 0 0 0 0 0 0 0.160784314 0 0 0 0 0.349019608 0 0 0 0.1 0" result="C"/><feMerge><feMergeNode in="C"/><feMergeNode in="SourceGraphic"/></feMerge></filter><filter x="-3.5%" y="-5.6%" width="106.9%" height="110.7%" id="B"><feOffset dy="1" in="SourceAlpha"/><feGaussianBlur stdDeviation="2"/><feColorMatrix values="0 0 0 0 0 0 0 0 0 0.160784314 0 0 0 0 0.349019608 0 0 0 0.1 0" result="C"/><feMerge><feMergeNode in="C"/><feMergeNode in="SourceGraphic"/></feMerge></filter><path d="M66 .16c-36.45 0-66 29.55-66 66s29.55 66 66 66 66-29.55 66-66-29.55-66-66-66zm-.917 23.833c22.782 0 41.25 18.468 41.25 41.25s-18.468 41.25-41.25 41.25-41.25-18.468-41.25-41.25 18.468-41.25 41.25-41.25z" id="C"/><filter x="-2.9%" y="-2.4%" width="105.7%" height="104.8%" id="D"><feOffset dy="1" in="SourceAlpha"/><feGaussianBlur stdDeviation=".5"/><feColorMatrix values="0 0 0 0 0 0 0 0 0 0.160784314 0 0 0 0 0.349019608 0 0 0 0.1 0" result="C"/><feMerge><feMergeNode in="C"/><feMergeNode in="SourceGraphic"/></feMerge></filter><filter x="-3.6%" y="-5.8%" width="107.1%" height="110.5%" id="E"><feOffset dy="1" in="SourceAlpha"/><feGaussianBlur stdDeviation=".5"/><feColorMatrix values="0 0 0 0 0 0 0 0 0 0.160784314 0 0 0 0 0.349019608 0 0 0 0.1 0" result="C"/><feMerge><feMergeNode in="C"/><feMergeNode in="SourceGraphic"/></feMerge></filter><path d="M27.72.067C12.41.067 0 12.478 0 27.787s12.41 27.72 27.72 27.72 27.72-12.41 27.72-27.72S43.03.067 27.72.067zm-.385 10c9.568 0 17.325 7.757 17.325 17.325s-7.757 17.325-17.325 17.325S10 36.97 10 27.402s7.757-17.325 17.325-17.325z" id="F"/><filter x="-2.1%" y="-1.3%" width="104.2%" height="102.6%" id="G"><feOffset dy="1" in="SourceAlpha"/><feGaussianBlur stdDeviation="2"/><feColorMatrix values="0 0 0 0 0 0 0 0 0 0.160784314 0 0 0 0 0.349019608 0 0 0 0.1 0" result="C"/><feMerge><feMergeNode in="C"/><feMergeNode in="SourceGraphic"/></feMerge></filter><path id="H" d="M0 0h496.83v822H0z"/><path id="I" d="M145.433 19.26h58.445c2.252 0 4.078 1.848 4.078 4.127s-1.826 4.127-4.078 4.127h-58.445c-2.252 0-4.078-1.848-4.078-4.127s1.826-4.127 4.078-4.127z"/><path id="J" d="M297.435 19.26h14.498c2.252 0 4.078 1.848 4.078 4.127s-1.826 4.127-4.078 4.127h-14.498c-2.252 0-4.078-1.848-4.078-4.127s1.826-4.127 4.078-4.127z"/><path id="K" d="M58.445 19.26h69.998c2.252 0 4.078 1.848 4.078 4.127s-1.826 4.127-4.078 4.127H58.445c-2.252 0-4.078-1.848-4.078-4.127s1.826-4.127 4.078-4.127z"/><path id="L" d="M232.42 19.26h43.947c2.252 0 4.078 1.848 4.078 4.127s-1.826 4.127-4.078 4.127H232.42c-2.252 0-4.078-1.848-4.078-4.127s1.826-4.127 4.078-4.127z"/><path id="M" d="M145.433 118.26h53.688c2.252 0 4.078 1.848 4.078 4.127s-1.826 4.127-4.078 4.127h-53.688c-2.252 0-4.078-1.848-4.078-4.127s1.826-4.127 4.078-4.127z"/><path id="N" d="M27.153 257.518c-7.5 0-13.56 6.074-13.56 13.566s6.072 13.566 13.56 13.566 13.56-6.074 13.56-13.566-6.072-13.566-13.56-13.566z"/><path id="O" d="M145.433 267.035h58.445a4.08 4.08 0 0 1 4.078 4.079 4.08 4.08 0 0 1-4.078 4.079h-58.445a4.08 4.08 0 0 1-4.078-4.079 4.08 4.08 0 0 1 4.078-4.079z"/><path id="P" d="M297.435 267.035h14.498a4.08 4.08 0 0 1 4.078 4.079 4.08 4.08 0 0 1-4.078 4.079h-14.498a4.08 4.08 0 0 1-4.078-4.079 4.08 4.08 0 0 1 4.078-4.079z"/><path id="Q" d="M58.445 267.035h69.998a4.08 4.08 0 0 1 4.078 4.079 4.08 4.08 0 0 1-4.078 4.079H58.445a4.08 4.08 0 0 1-4.078-4.079 4.08 4.08 0 0 1 4.078-4.079z"/><path id="R" d="M232.42 267.035h43.947a4.08 4.08 0 0 1 4.078 4.079 4.08 4.08 0 0 1-4.078 4.079H232.42a4.08 4.08 0 0 1-4.078-4.079 4.08 4.08 0 0 1 4.078-4.079z"/><path id="S" d="M28.637 165.517c.033.52-.473.65-.613.173-.107-.365.475-.4.66-.173"/><path id="T" d="M61.082 8.09H85.63c.946 0 1.713.776 1.713 1.733s-.767 1.733-1.713 1.733H61.082c-.946 0-1.713-.776-1.713-1.733s.767-1.733 1.713-1.733z"/><path id="U" d="M124.923 8.09h6.09c.946 0 1.713.776 1.713 1.733s-.767 1.733-1.713 1.733h-6.09c-.946 0-1.713-.776-1.713-1.733s.767-1.733 1.713-1.733z"/><path id="V" d="M97.617 8.09h18.458c.946 0 1.713.776 1.713 1.733s-.767 1.733-1.713 1.733H97.617c-.946 0-1.713-.776-1.713-1.733s.767-1.733 1.713-1.733z"/><path id="W" d="M61.082 70.67h29.4c.946 0 1.713.776 1.713 1.733s-.767 1.733-1.713 1.733h-29.4c-.946 0-1.713-.776-1.713-1.733s.767-1.733 1.713-1.733z"/><path id="X" d="M61.082 49.67h22.55c.946 0 1.713.776 1.713 1.733s-.767 1.733-1.713 1.733h-22.55c-.946 0-1.713-.776-1.713-1.733s.767-1.733 1.713-1.733z"/><path id="Y" d="M11.404 108.157a5.7 5.7 0 0 0-5.696 5.698 5.7 5.7 0 0 0 5.696 5.698 5.7 5.7 0 0 0 5.696-5.698 5.7 5.7 0 0 0-5.696-5.698z"/><path id="Z" d="M124.923 112.155h6.09c.946 0 1.713.767 1.713 1.713s-.767 1.713-1.713 1.713h-6.09c-.946 0-1.713-.767-1.713-1.713s.767-1.713 1.713-1.713z"/><path id="a" d="M24.547 112.155h29.4c.946 0 1.713.767 1.713 1.713s-.767 1.713-1.713 1.713h-29.4c-.946 0-1.713-.767-1.713-1.713s.767-1.713 1.713-1.713z"/><path id="b" d="M97.617 112.155h18.458c.946 0 1.713.767 1.713 1.713s-.767 1.713-1.713 1.713H97.617c-.946 0-1.713-.767-1.713-1.713s.767-1.713 1.713-1.713z"/><path id="c" d="M12.027 69.517c.014.218-.198.274-.257.073-.045-.153.2-.168.277-.073"/></defs><g transform="translate(9 8)" fill="none" fill-rule="evenodd"><g transform="translate(0 1)"><g filter="url(#A)" transform="translate(0 424)"><path d="M0 0h333v46.083H0z" class="H"/><path d="M27.153 9.63c-7.5 0-13.56 6.145-13.56 13.725s6.072 13.725 13.56 13.725 13.56-6.145 13.56-13.725S34.643 9.63 27.153 9.63z" class="G M"/><path d="M30.43 27.438c1.607 0 3.582-.102 5.923-.307l.607-3.018h-2.632l.202-4.4H19.95l-.09 2.44c-1.684-.475-2.525-.252-2.525.67s.753 1.47 2.26 1.65l.506 2.353c5.277.41 8.72.614 10.327.614z" class="K"/><g class="P"><path d="M28.355 19.658c-.073 1.285 1.056 1.612 1.368.43.24-.902-1.062-.988-1.472-.43"/><path d="M32.604 19.454c.022.273.006.553.066.82.262 1.16 1.693.035.934-.935"/></g><path d="M34.894 18.204c.312 0-.057 2.82-.253 3.384-.25.717-.835.563-1.468.563a4.59 4.59 0 0 1-.527-.025c-.262-.323-.604-.684-.974-1.01l-.282-.237.07.416-.1-.145c-.384.98-1.156 1.258-2.094 1.258-2.168 0-3.033-1.67-2.686-4.203h8.305zm-4.307 1.142h-2.93l-.001.015c-.037.608.03 1.08.192 1.417l.097.17c.256.38.7.58 1.43.58.49 0 .828-.32 1.043-1.102l.058-.236.04-.24.04-.324.028-.28zm3.48 0h-2.17c.308 1.278.715 1.833 1.47 1.916l.212.01c.03 0 .047-.007.075-.034.06-.058.127-.174.19-.35.1-.288.17-.692.205-1.208l.018-.334z" class="G Q"/><g class="B C F J"><path d="M31.726 21.493c1.018.814 1.92 1.998 1.766 2.194-.202.256-.935.308-1.114.205-.144-.083-.08.03-.08.983"/><path d="M29.502 24.075c1.192.895 2.515 1.01 3.822.737"/></g><g class="L B C F"><path d="M30.78 26.372c.255 1.033.858 1.685 1.496 2.55"/><path d="M31.822 26.26c.697 2.232.542 1.28.7 2.807"/><path d="M32.69 26.42c.208 2.17.183 1.268.183 2.702"/><path d="M33.612 26.42l-.478 2.968"/><path d="M34.257 26.5c-.057 1.052-.33 1.89-.852 2.8"/><path d="M34.965 26.396c-.095 1.026-.384 2.015-1.067 2.815"/><path d="M35.355 27.498c-.843 1.143-.945 1.493-2.205 1.793"/></g><path d="M29.587 23.7c-.076.207-.228.412-.48.424" class="B C F J"/><use xlink:href="#I" class="D"/><use xlink:href="#J" class="R"/><use xlink:href="#K" class="D"/><use xlink:href="#L" class="I"/><path d="M0 150.49h333v46.083H0z" class="H"/><path d="M145.433 168.26h69.998c2.252 0 4.078 1.848 4.078 4.127s-1.826 4.127-4.078 4.127h-69.998c-2.252 0-4.078-1.848-4.078-4.127s1.826-4.127 4.078-4.127z" class="D"/><use xlink:href="#J" y="149" class="K"/><path d="M58.445 168.26H98.54c2.252 0 4.078 1.848 4.078 4.127s-1.826 4.127-4.078 4.127H58.445c-2.252 0-4.078-1.848-4.078-4.127s1.826-4.127 4.078-4.127z" class="D"/><use xlink:href="#L" y="149" class="I"/><path d="M0 100.326h333v46.083H0z" class="H"/><use xlink:href="#M" class="D"/><use xlink:href="#J" y="99" class="S"/><use xlink:href="#K" y="99" class="D"/><use xlink:href="#L" y="99" class="I"/><path d="M0 50.163h333v46.083H0z" class="H"/><use xlink:href="#I" y="50" class="D"/><use xlink:href="#J" y="50" class="U"/><path d="M58.445 69.26h31.26c2.252 0 4.078 1.848 4.078 4.127s-1.826 4.127-4.078 4.127h-31.26c-2.252 0-4.078-1.848-4.078-4.127s1.826-4.127 4.078-4.127z" class="D"/><use xlink:href="#L" y="50" class="I"/><path d="M0 250.815h333v45.55H0z" class="H"/><use xlink:href="#N" class="G M"/><path d="M30.43 275.12c1.607 0 3.582-.1 5.923-.303l.607-2.983h-2.632l.202-4.348H19.95l-.09 2.41c-1.684-.47-2.525-.25-2.525.66s.753 1.453 2.26 1.63l.506 2.326c5.277.405 8.72.607 10.327.607z" class="K"/><g class="P"><path d="M28.355 267.43c-.073 1.27 1.056 1.593 1.368.424.24-.892-1.062-.976-1.472-.424"/><path d="M32.604 267.228c.022.27.006.546.066.81.262 1.146 1.693.034.934-.924"/></g><path d="M34.894 265.993c.312 0-.057 2.786-.253 3.345-.25.71-.835.556-1.468.556-.202 0-.375-.007-.527-.024-.262-.32-.604-.676-.974-1l-.282-.235.07.41-.1-.143c-.384.97-1.156 1.243-2.094 1.243-2.168 0-3.033-1.652-2.686-4.154h8.305zm-4.307 1.13h-2.93l-.001.014c-.037.6.03 1.067.192 1.4l.097.17c.256.377.7.574 1.43.574.49 0 .828-.315 1.043-1.09l.058-.234.04-.238.04-.32.028-.277zm3.48 0h-2.17c.308 1.263.715 1.812 1.47 1.894l.212.01c.03 0 .047-.007.075-.034.06-.058.127-.172.19-.347.1-.285.17-.684.205-1.194l.018-.33z" class="G Q"/><g class="B C F J"><path d="M31.726 269.244c1.018.804 1.92 1.975 1.766 2.168-.202.253-.935.305-1.114.202-.144-.082-.08.03-.08.972"/><path d="M29.502 271.796c1.192.885 2.515.997 3.822.73"/></g><g class="L B C F"><path d="M30.78 274.067c.255 1.02.858 1.665 1.496 2.52"/><path d="M31.822 273.955c.697 2.206.542 1.265.7 2.774"/><path d="M32.69 274.114c.208 2.145.183 1.253.183 2.67"/><path d="M33.612 274.114l-.478 2.933"/><path d="M34.257 274.194c-.057 1.04-.33 1.87-.852 2.766"/><path d="M34.965 274.1c-.095 1.014-.384 1.99-1.067 2.782"/><path d="M35.355 275.18c-.843 1.13-.945 1.476-2.205 1.773"/></g><path d="M29.587 271.427c-.076.205-.228.407-.48.42" class="B C F J"/><use xlink:href="#O" class="D"/><use xlink:href="#P" class="U"/><use xlink:href="#Q" class="D"/><use xlink:href="#R" class="I"/><path d="M0 350.073h333v45.55H0z" class="H"/><path d="M145.433 366.292h53.688a4.08 4.08 0 0 1 4.078 4.079 4.08 4.08 0 0 1-4.078 4.079h-53.688a4.08 4.08 0 0 1-4.078-4.079 4.08 4.08 0 0 1 4.078-4.079z" class="D"/><use xlink:href="#P" y="99.257" class="S"/><use xlink:href="#Q" y="99.257" class="D"/><use xlink:href="#R" y="99.257" class="I"/><path d="M0 300.444h333v45.55H0z" class="H"/><use xlink:href="#O" y="49.629" class="D"/><use xlink:href="#P" y="49.629" class="R"/><path d="M58.445 316.664h31.26a4.08 4.08 0 0 1 4.078 4.079 4.08 4.08 0 0 1-4.078 4.079h-31.26a4.08 4.08 0 0 1-4.078-4.079 4.08 4.08 0 0 1 4.078-4.079z" class="D"/><use xlink:href="#R" y="49.629" class="I"/><use xlink:href="#N" x="0.68" y="99.256" class="G M"/><path d="M18.882 377.625c-1.945-6.418 4.806-14.697 9.687-16.185 7.412-2.26 9.353 10.676 9.02 10.804l-.678.244c-2.567.882-8.576 2.595-18.03 5.137z" class="N"/><path d="M34.317 366.898c.334 2.67-2.28 9.407-5.038 9.037-2.318-.31-3.668-2.28-4.383-4.388-.12-.356-1.91.573-2.157-1.084s1.708-.616 1.657-.92c-.17-1.017-.158-1.88-.132-2.57.004-.11.59-.445 1.84-.644a13.46 13.46 0 0 1 2.086-.151c1.19-.002 2.518.115 3.634.257.32.04.027-2.95.304-2.908s1.134 3.12 1.353 3.16c.515.095.832.176.836.212z" class="V"/><g class="B C F J"><path d="M30.533 367.64c.15 1.455 1.227.976 1.227.005"/><path d="M30.594 368.437l-.368.49"/><path d="M31.146 368.62l-.245.798"/><path d="M31.453 368.5l.184.675"/></g><path d="M29.612 367.087l1.807 2.658c.093.114.27.25.217.39-.05.13-1.22.226-1.324.018-.053-.108-.07-.482-.065-.36.022.75.088 1.225.197 1.42" class="B C F L W"/><g class="J B C F"><path d="M27.306 367.682c-.23.964 1.13 1.086 1.385-.104"/><path d="M27.464 368.376l-.43.307"/><path d="M27.922 368.437l-.042.552"/><path d="M28.323 368.376l.184.43"/></g><path d="M29.61 371.474c.4.044.278.603.59.528.157-.038.29-.212.45-.183.242.044.578.26 1.008.648l-.844.386-.312.148c-.727.35-2.952-.894-3.467-1.36l1.823.584 1.27.17c1.2.138.168-.113-3.095-.755.704-.4 2.177-.21 2.576-.167z" class="X"/><use xlink:href="#N" x="0.68" y="50.988" class="G M"/><path d="M31.692 318.594c3.122 1.948 5.315 6 6.58 12.125a13.53 13.53 0 0 1-10.499 4.98c-4.303 0-8.14-2.005-10.623-5.133.228-1.544.538-2.906.928-4.088.42-1.277 1.757-3.468 4.008-6.572l.687-.938c3.206.172 6.007.05 8.372-.3l.55-.084z" class="K"/><g class="F B"><g class="C L"><path d="M21.376 329.042c1.85.953 3.04-.265 4.29-1.6"/><path d="M27.746 327.667c.254 1.1.414 1.79 1.043 2.676.015.02-.05.013-.076.02"/><path d="M29.956 330c-1.26-.75-.503-.185-1.916-2.088"/><path d="M32.556 329.46c-1.713-.116-3.478-.738-4.78-1.88"/><path d="M32.707 328.388c-.903.13-2.744 1.05-4.895-.93"/><path d="M32.64 327.088c-2.358.475-.902.287-4.402.2"/><path d="M23.153 330.527c1.052-.837 2.604-1.765 2.878-3.23"/><path d="M24.662 330.5c1.25-.826.37-.14 1.802-2.822"/><path d="M26.048 330.584c.948-1.846.635-.937 1.035-2.69"/><path d="M27.548 330.372c-.71-1.442-.45-.617-.62-2.52"/><path d="M28.967 330.302c-1.1-1.474-.56-.6-1.45-2.7"/><path d="M22.5 326.286c.955.564 2.276 1.607 3.318.67"/><path d="M21.947 327.558c.608.163 3.677 1.07 3.62-.48"/><path d="M24.2 319.37c-.072.654-.072 1.063 0 1.228.458 1.044 1.175.696 1.473-.43"/><path d="M26.162 318.634c-1.39 6.016-1.29 9.024.307 9.024s2.148-1.064 1.657-3.192l-.245-5.463c.736 2.578 1.432 2.7 2.086.368" class="K"/></g><g class="T Y"><path d="M21.253 324.384c-.354-.183-.56-.346-.614-.49-.29-.77.297-1.19 1.35-.614.04-.9.39-1.453 1.043-1.657s.777.348.368 1.657c.65-.097 1.06-.097 1.227 0 .56.324.3 1.116-.86 1.596.573.49.655 1.003.245 1.535s-.9.286-1.473-.737c-.818.982-1.452 1.228-1.902.737s-.245-1.166.614-2.026z"/><path d="M33.31 323.267c.337-.247.522-.45.555-.608.176-.844-.502-1.18-1.5-.413-.2-.924-.64-1.438-1.352-1.542s-.748.487-.1 1.774c-.69.007-1.115.074-1.272.2-.526.427-.128 1.202 1.15 1.51-.513.602-.514 1.144-.003 1.627s.98.148 1.405-1.003c1.01.88 1.706 1.03 2.092.45s.063-1.246-.967-1.993z"/></g></g><g class="Z"><circle cx="22.634" cy="324.354" r="1"/><circle cx="31.811" cy="323.36" r="1"/></g><path d="M32.134 318.744c2.527-.453 3.938-.78 4.234-.982l-.552-1.535-4.602.92c-.286-4.46-1.084-6.69-2.393-6.69-.426 0-.917.614-1.473 1.842-.777-2.374-1.595-2.824-2.455-1.35s-1.31 3.704-1.35 6.69l-3.007-.17c-.653-.07-1.165-.177-1.534-.32v1.412c-.066.068.388.165 1.362.3l2.933.262c1.186.09 4.132-.032 8.836-.368z" class="N"/><path d="M0 200.652h333v46.083H0z" class="H"/><use xlink:href="#M" y="100" class="D"/><use xlink:href="#J" y="199" class="a"/><use xlink:href="#K" y="199" class="D"/><use xlink:href="#L" y="199" class="I"/><path d="M28.47 110C21.03 110 15 116.03 15 123.47s6.03 13.47 13.47 13.47 13.47-6.03 13.47-13.47S35.91 110 28.47 110z" class="G M"/><path d="M19.58 130.702c-1.932-6.372 4.774-14.592 9.62-16.07 7.362-2.244 9.3 10.6 8.96 10.727l-.674.242c-2.55.876-8.518 2.576-17.907 5.1z" class="N"/><path d="M34.9 120.052c.332 2.65-2.263 9.34-5.004 8.973-2.302-.31-3.643-2.264-4.353-4.357-.12-.354-1.898.57-2.142-1.076s1.697-.612 1.646-.914c-.17-1-.157-1.867-.13-2.55.004-.108.585-.442 1.827-.64.556-.088 1.244-.15 2.072-.15 1.18-.002 2.5.115 3.61.255.32.04.027-2.93.302-2.887s1.126 3.097 1.344 3.138c.51.094.826.174.83.2z" class="V"/><g class="B C F J"><path d="M31.15 120.788c.15 1.444 1.22.97 1.22.005"/><path d="M31.212 121.58l-.366.488"/><path d="M31.76 121.763l-.244.792"/><path d="M32.065 121.64l.183.67"/></g><path d="M30.237 120.24l1.795 2.64c.092.113.27.247.216.386-.05.128-1.213.224-1.315.018-.053-.107-.068-.478-.065-.357.022.746.087 1.216.196 1.41" class="B C F L W"/><g class="J B C F"><path d="M27.947 120.83c-.227.957 1.124 1.078 1.376-.103"/><path d="M28.104 121.52l-.427.305"/><path d="M28.558 121.58l-.042.55"/><path d="M28.957 121.52l.183.427"/></g><path d="M30.236 124.595c.396.044.276.598.585.524.156-.037.287-.2.446-.182.24.043.574.258 1 .643l-.838.383-.3.147c-.722.348-2.932-.888-3.443-1.35l1.81.58 1.263.17c1.19.137.167-.112-3.074-.75.7-.387 2.163-.21 2.56-.166z" class="X"/><path d="M28.47 60C21.03 60 15 66.03 15 73.47s6.03 13.47 13.47 13.47 13.47-6.03 13.47-13.47S35.91 60 28.47 60z" class="G M"/><path d="M32.303 70.016c3.1 1.934 5.28 5.947 6.534 12.04A13.44 13.44 0 0 1 28.409 87c-4.274 0-8.084-1.99-10.55-5.096.227-1.533.534-2.885.922-4.06.418-1.268 1.745-3.443 3.98-6.526l.683-.93c3.184.17 5.967.05 8.315-.288l.545-.084z" class="K"/><g class="F B"><g class="C L"><path d="M22.057 80.39c1.838.946 3.02-.264 4.26-1.58"/><path d="M28.384 79.025c.253 1.092.41 1.776 1.036 2.657.015.02-.05.013-.075.02"/><path d="M30.58 81.343c-1.252-.744-.5-.184-1.903-2.073"/><path d="M33.16 80.806c-1.702-.116-3.455-.733-4.75-1.866"/><path d="M33.31 79.74c-.897.128-2.725 1.042-4.862-.923"/><path d="M33.245 78.45c-2.342.472-.896.285-4.372.198"/><path d="M23.822 81.864c1.045-.832 2.586-1.752 2.858-3.207"/><path d="M25.32 81.848c1.242-.82.368-.14 1.8-2.802"/><path d="M26.697 81.92c.942-1.833.63-.93 1.028-2.672"/><path d="M28.187 81.71c-.704-1.43-.446-.612-.615-2.502"/><path d="M29.596 81.642c-1.082-1.464-.557-.596-1.44-2.68"/><path d="M23.174 77.654c.95.56 2.26 1.596 3.296.664"/><path d="M22.623 78.917c.604.16 3.652 1.064 3.596-.478"/><path d="M24.86 70.788c-.072.65-.072 1.056 0 1.22.455 1.036 1.167.69 1.463-.427"/><path d="M26.81 70.056c-1.38 5.973-1.28 8.96.305 8.96s2.133-1.056 1.646-3.17l-.244-5.424c.73 2.56 1.422 2.682 2.072.366" class="K"/></g><g class="T Y"><path d="M21.935 75.766c-.352-.18-.555-.344-.61-.488-.29-.765.295-1.18 1.34-.61.04-.894.386-1.442 1.036-1.646s.772.345.366 1.646c.647-.096 1.053-.096 1.22 0 .555.322.297 1.108-.853 1.585.57.488.65.995.244 1.524s-.894.284-1.463-.73c-.813.975-1.442 1.22-1.89.73s-.244-1.158.61-2.01z"/><path d="M33.91 74.657c.335-.245.52-.447.552-.604.175-.838-.5-1.172-1.49-.4-.188-.917-.636-1.428-1.343-1.53s-.743.484-.11 1.76c-.686.007-1.107.073-1.263.2-.522.424-.127 1.194 1.144 1.498-.5.597-.51 1.136-.003 1.615s.973.147 1.396-.996c1.002.875 1.694 1.023 2.078.446s.063-1.237-.96-1.98z"/></g></g><g class="Z"><circle cx="23.306" cy="75.735" r="1"/><circle cx="32.421" cy="74.749" r="1"/></g><path d="M32.742 70.165c2.5-.45 3.912-.774 4.205-.975l-.55-1.524-4.57.914c-.284-4.43-1.077-6.643-2.377-6.643-.423 0-.91.61-1.463 1.828-.772-2.357-1.585-2.804-2.438-1.34s-1.3 3.677-1.34 6.643l-2.986-.17c-.65-.07-1.157-.176-1.524-.318v1.402c-.065.068.386.164 1.353.288l2.913.26c1.178.1 4.104-.032 8.777-.366z" class="N"/><path d="M28.5 160c-7.456 0-13.5 6.044-13.5 13.5S21.044 187 28.5 187 42 180.956 42 173.5 35.956 160 28.5 160z" fill="#cce4ff" class="G"/><path d="M34.548 165.724c-.32 7.127-8.08 9.77-3.12 14.415 1.185 1.1-6.5 1.125-5.84 0 3.52-6.006-.16-7.287-.08-13.774.01-.765.118-1.483.3-2.14 3.863-.11 6.693-.01 8.5.3.143.025.223.425.24 1.2z" class="T"/><g class="B C F"><g class="b"><path d="M35.586 164.887c-.425 1.847-1.234 3.74-1.4 5.636-.113 1.375-.05 2.758-.076 4.137"/><path d="M35.097 164.826c-.953 2.398-1.323 4.556-1.413 7.148-.07 2.036-.274 1.54.132 2.38"/><path d="M33.814 166.292c-.895 3.694-.936 4.887-.3 8.674"/><path d="M33.448 175.394c-2.22-1.994-1.3-5.476-.695-7.94"/></g><path d="M29.144 165.68c.135.667.098 1.114-.1 1.34-1.108 1.206-1.54 1.67-2.784 3.388-.017.024-.012.085.017.085.138.001.292-.003.406-.08.8-.547 1.417-1.378 2.3-1.772 1.19-.53-1.633 1.304-.95 1.66.28.146 5.16-.526 3.583-.21s-3.922.752-3.726 1.008c.82 1.07 1.028 1.562.82 2.52" class="J"/><g class="b"><path d="M26.18 166.964c-.717 1.906-1.676 6.548-4.5 7.085-.036.007-.054-.048-.08-.073"/><path d="M25.75 165.68c-.65 3.218-1.61 6.06-4.276 7.94"/><path d="M25.385 164.46c-.83 2.996-1.248 6.255-3.787 8.308"/><path d="M24.53 164.58c-.766 3.214-.85 5.328-3.115 7.575"/></g></g><path d="M25.312 163.936c-.346 0 .208 2.136.426 2.63.184.417.7.63 1.518.637.917.028 1.555-.18 1.913-.628l.055-.07c.426.854 1.283 1.097 2.323 1.097 2.405 0 3.365-1.457 2.98-3.665h-9.214zm4.245.816l4.1-.057.001.015c.054.704-.068 1.227-.342 1.574l-.028.035c-.33.386-.942.588-1.868.588-.635 0-1.375-.248-1.694-1.04l-.075-.224c-.036-.134-.034-.348-.053-.603l-.03-.288zm-3.6.07h2.967l-.004.437c-.024.982-.233 1.42-1.972 1.456l-.324.003c-.042 0-.064-.006-.103-.034-.083-.057-.174-.17-.258-.345-.136-.283-.232-.68-.28-1.19l-.025-.33z" fill="#00ffce" class="G"/><g class="P"><use xlink:href="#S"/><use xlink:href="#S" x="1.771"/></g><g class="Q"><path d="M24.23 181.42c-.392.574-2.038.425-1.156-.738s1.548.164 1.156.738z"/><path d="M26.155 182.405c-.403.554-1.875.2-.97-.922s1.372.368.97.922z"/><path d="M28.96 182.735c-.408.575-1.874.315-.957-.85s1.365.276.957.85z"/><path d="M31.886 182.378c-.415.566-1.826.27-1.223-.728s1.638.162 1.223.728z"/><path d="M33.975 181.704c-.394.56-1.613.292-1.162-.72s1.555.16 1.162.72z"/></g><g class="G"><path d="M28.14 208C20.883 208 15 213.883 15 221.14s5.883 13.14 13.14 13.14 13.14-5.883 13.14-13.14S35.4 208 28.14 208z" class="M"/><path d="M26.22 215.7c-2.983 0-5.65.8-7.64 2.046-.806.51-1.446 1.068-1.816 1.578-.222.307-.358.606-.374.92a1.02 1.02 0 0 0 .835 1.073l.045.01c.34.064.84.09 2.006.12l1.058.028 2.547.112.16.01.14.01c1.205.1 2.215.224 3.017.41l.056.013v4.667c.108 1.1 1.29 1.648 3.55 1.648s4.83-.637 7.714-1.91l-.4-3.46.028-.007c.412-.1.76-.264 1.046-.47.542-.39.835-.956.835-1.62 0-.765-.43-1.34-1.163-1.533l-.03-.007c-.314-.077-.676-.086-1.094-.03l-.048.006-.075-.644-.263-.21c-2.333-1.852-5.718-2.76-10.138-2.76z" class="K"/></g><g class="F B"><g class="C L"><path d="M24.168 216.68c1.157.068.976.094 1.803-.713"/><path d="M24.28 217.273c.9-.065 1.006-.412 1.63-1.178"/><path d="M26.31 216.05c.23.586.622.626 1.232.578"/><path d="M26.31 216.057c.135 1.023-.104.595.78 1.245"/></g><g stroke="#fff"><path d="M24.74 214.182c1.084-.993 1.64.326 1.525 1.178-.14 1.028-.977 1.822-1.765 2.385-.01.008-.7.472-.9.293-.487-.43-.294-1.4-.1-1.98a5.38 5.38 0 0 1 1.232-1.875z"/><g class="C"><path d="M26.174 216.335c.18-.55.3-1.244.79-1.635 1.053-.84 2.07-.564 1.78.885-.16.792-.82 1.73-1.397 2.28-.75.716-1.404-.263-1.292-.975.055-.346.185-.675.278-1.013"/></g></g><g class="L"><path d="M29.84 215.637c.247 1.447.385 2.554 1.352 3.698 1.417 1.676 4.566.974 5.88-.465" class="C"/><path d="M31.048 215.825c-.263 1.923-.103 4.098 2.328 4.426.168.023 1.3.083 1.705-.06 1.005-.347 1.047-.556 2.005-1.335" class="C"/><path d="M31.49 215.84c.85 1.76 3.116 5.847 5.385 3.188" class="C"/><path d="M32.617 216.05c.2 1.08.3 2.175 1.022 3.06.956 1.173 2.906.933 3.718-.2" class="C"/><path d="M33.173 216.245c.545 1.376 1.576 3.685 3.447 2.918" class="C"/><path d="M33.842 216.387c.453.715 1.388 2.534 2.32 2.723.363.074.74-.01 1.112-.015" class="C"/><path d="M25.88 222.516c.916-.322 1.654.34 2.59.172.453-.082 1.006-.575 1.337-.825" class="C"/><path d="M24.514 226.076l3.865 2.14 6.065-2.14-.357 4.52-5.708-1.724-4.876 1.724z" class="N"/></g></g></g><g filter="url(#B)"><path d="M0 .164h333v204H0z" class="H d"/><path d="M178.333 89.016l-28.124 6.65a1.57 1.57 0 0 0-.353 2.928l7.987 4.075.817 8.177c.065.657.534 1.202 1.168 1.363a1.56 1.56 0 0 0 1.676-.638l.242-.248-1.615-6.24a2.13 2.13 0 0 1 1.032-2.01l6.94-4.13-5.547 5.383a1.58 1.58 0 0 0-.436 1.481l2.53 10.978c.146.642.682 1.122 1.332 1.203s1.282-.26 1.58-.848l13.212-25.927c.063-.096.115-.198.155-.306.138-.363.052-.918-.105-1.3-.195-.47-1.026-.668-2.492-.593z" fill="#ccd2e3"/><rect x="11.763" y="17.897" width="77.652" height="8.099" rx="3.159" class="e"/><rect x="13.113" y="35.444" width="77.652" height="8.099" rx="3.159" class="I"/><g transform="translate(100 39)"><mask id="d" class="H"><use xlink:href="#C"/></mask><use xlink:href="#C" class="G c"/><g mask="url(#d)"><g transform="translate(-6 -12.839)"><path d="M70.088 9v69.54L22 21.84c0-38.207 8.78-12.223 47.262-12.833L70.088 9z" fill="#fb3640"/><path d="M70.06 79.157v.47l26.525 63.296c-8.408 3.715-17.69 5.774-27.444 5.774-37.637 0-68.22-30.662-68.828-68.72l-.006-.818H70.06z" class="a"/><path d="M70.09 10.83l-.001 68.177 26.647 63.58c25.315-10.33 43.106-34.76 43.106-63.25 0-37.46-30.757-67.897-68.933-68.502l-.818-.007z" class="S"/></g></g></g><rect x="134" y="183" width="66" height="9" rx="3.159" class="O"/></g><g filter="url(#B)" transform="translate(0 212)"><path d="M0 .164h333v204H0z" class="H d"/><rect x="12" y="18" width="77.652" height="8.099" rx="3.159" class="e"/><rect x="12" y="35" width="77.652" height="8.099" rx="3.159" class="I"/><rect x="12" y="67" width="66" height="9" rx="3.159" class="O"/><g class="D"><rect x="101" y="67" width="54" height="9" rx="3.159"/><rect x="181" y="67" width="33" height="9" rx="3.159"/></g><rect x="283" y="67" width="33" height="9" rx="3.159" class="c"/><rect x="12" y="94" width="66" height="9" rx="3.159" class="O"/><g class="D"><rect x="101" y="94" width="49" height="9" rx="3.159"/><rect x="181" y="94" width="47" height="9" rx="3.159"/></g><rect x="283" y="94" width="33" height="9" rx="3.159" class="c"/><rect x="12" y="121" width="66" height="9" rx="3.159" class="O"/><g class="D"><rect x="101" y="121" width="57" height="9" rx="3.159"/><rect x="181" y="121" width="40" height="9" rx="3.159"/></g><rect x="283" y="121" width="33" height="9" rx="3.159" class="R"/><rect x="12" y="148" width="66" height="9" rx="3.159" class="O"/><g class="D"><rect x="101" y="148" width="40" height="9" rx="3.159"/><rect x="181" y="148" width="33" height="9" rx="3.159"/></g><rect fill="#011638" x="283" y="148" width="33" height="9" rx="3.159"/><rect x="12" y="175" width="66" height="9" rx="3.159" class="O"/><g class="D"><rect x="101" y="175" width="54" height="9" rx="3.159"/><rect x="181" y="175" width="47" height="9" rx="3.159"/></g><rect x="283" y="175" width="33" height="9" rx="3.159" class="R"/></g></g><g transform="translate(340)"><g filter="url(#D)" transform="translate(107.52 336)"><path d="M0 0h139.86v19.355H0z" class="H"/><path d="M11.404 4.044c-3.146 0-5.696 2.58-5.696 5.765s2.55 5.765 5.696 5.765S17.1 12.992 17.1 9.81s-2.55-5.765-5.696-5.765z" class="G M"/><path d="M12.78 11.524c.675 0 1.504-.043 2.488-.13l.255-1.268h-1.106l.085-1.848H8.38L8.34 9.304c-.707-.2-1.06-.106-1.06.28s.316.618.95.692l.213.988 4.337.258z" class="K"/><g class="P"><path d="M11.91 8.256c-.03.54.443.677.575.18.1-.38-.446-.415-.618-.18"/><path d="M13.694 8.17c.01.115.002.232.028.344.1.487.71.015.392-.393"/></g><path d="M14.656 7.646c.13 0-.024 1.184-.106 1.42-.104.3-.35.236-.617.236-.085 0-.158-.003-.222-.01-.1-.136-.254-.287-.41-.425l-.12-.1.03.175-.038-.06c-.16.412-.486.528-.88.528-.9 0-1.274-.702-1.128-1.765h3.488zm-1.81.48h-1.23v.006c-.016.255.013.453.08.595l.04.072c.107.16.298.244.6.244.206 0 .348-.134.438-.463l.024-.1.017-.1.017-.136.012-.118zm1.46 0h-.91c.13.537.3.77.617.805l.09.005c.013 0 .02-.003.032-.014.026-.025.053-.073.08-.147.042-.12.07-.29.086-.508l.008-.14z" class="G Q"/><g class="B C E J"><path d="M13.325 9.027c.428.342.807.84.742.92-.085.107-.393.13-.468.086-.06-.035-.033.012-.033.413"/><path d="M12.39 10.11c.5.376 1.056.424 1.605.3"/></g><g class="L B C E"><path d="M12.927 11.076c.107.434.36.708.628 1.07"/><path d="M13.365 11.03c.293.938.228.538.294 1.18"/><path d="M13.73 11.097c.113.91.1.532.1 1.135"/><path d="M14.117 11.097l-.2 1.246"/><path d="M14.388 11.13a2.51 2.51 0 0 1-.358 1.175"/><path d="M14.685 11.086c-.04.43-.16.846-.448 1.182"/><path d="M14.85 11.55c-.354.48-.397.627-.926.753"/></g><path d="M12.427 9.954c-.032.087-.096.173-.202.178" class="B C E J"/><use xlink:href="#T" class="D"/><use xlink:href="#U" class="R"/><path d="M24.547 8.09h29.4c.946 0 1.713.776 1.713 1.733s-.767 1.733-1.713 1.733h-29.4c-.946 0-1.713-.776-1.713-1.733S23.6 8.09 24.547 8.09z" class="D"/><use xlink:href="#V" class="I"/><path d="M0 63.205h139.86V82.56H0z" class="H"/><use xlink:href="#W" class="D"/><use xlink:href="#U" y="62.58" class="K"/><path d="M24.547 70.67h16.84c.946 0 1.713.776 1.713 1.733s-.767 1.733-1.713 1.733h-16.84c-.946 0-1.713-.776-1.713-1.733s.767-1.733 1.713-1.733z" class="D"/><use xlink:href="#V" y="62.58" class="I"/><path d="M0 42.137h139.86v19.355H0z" class="H"/><use xlink:href="#X" class="D"/><use xlink:href="#U" y="41.58" class="S"/><use xlink:href="#W" x="-36.535" y="-21" class="D"/><use xlink:href="#V" y="41.58" class="I"/><path d="M0 21.068h139.86v19.355H0z" class="H"/><use xlink:href="#T" y="21" class="D"/><use xlink:href="#U" y="21" class="U"/><path d="M24.547 29.09h13.13c.946 0 1.713.776 1.713 1.733s-.767 1.733-1.713 1.733h-13.13c-.946 0-1.713-.776-1.713-1.733s.767-1.733 1.713-1.733z" class="D"/><use xlink:href="#V" y="21" class="I"/><path d="M0 105.342h139.86v19.13H0z" class="H"/><use xlink:href="#Y" class="G M"/><path d="M12.78 115.55c.675 0 1.504-.042 2.488-.127l.255-1.253h-1.106l.085-1.826H8.38l-.037 1.013c-.707-.197-1.06-.104-1.06.278s.316.6.95.684l.213.977 4.337.255z" class="K"/><g class="P"><path d="M11.91 112.32c-.03.533.443.67.575.178.1-.374-.446-.4-.618-.178"/><path d="M13.694 112.236c.01.113.002.23.028.34.1.48.71.014.392-.388"/></g><path d="M14.656 111.717c.13 0-.024 1.17-.106 1.405-.104.298-.35.234-.617.234a1.95 1.95 0 0 1-.222-.01 3.62 3.62 0 0 0-.409-.42l-.12-.1.03.173-.038-.06c-.16.407-.486.522-.88.522-.9 0-1.274-.694-1.128-1.745h3.488zm-1.81.474h-1.23v.006c-.016.252.013.448.08.588l.04.07c.107.158.298.24.6.24.206 0 .348-.132.438-.457l.024-.098.017-.1.017-.134.012-.116zm1.46 0h-.91c.13.53.3.76.617.796l.09.005c.013 0 .02-.003.032-.014.026-.024.053-.072.08-.146a2.01 2.01 0 0 0 .086-.502l.008-.14z" class="G Q"/><g class="B C E J"><path d="M13.325 113.083c.428.338.807.83.742.91-.085.106-.393.128-.468.085-.06-.035-.033.012-.033.408"/><path d="M12.39 114.154c.5.372 1.056.42 1.605.306"/></g><g class="L B C E"><path d="M12.927 115.108c.107.43.36.7.628 1.058"/><path d="M13.365 115.06c.293.927.228.53.294 1.165"/><path d="M13.73 115.128c.113.9.1.526.1 1.122"/><path d="M14.117 115.128l-.2 1.232"/><path d="M14.388 115.16a2.46 2.46 0 0 1-.358 1.162"/><path d="M14.685 115.118c-.04.426-.16.836-.448 1.17"/><path d="M14.85 115.575c-.354.474-.397.62-.926.745"/></g><path d="M12.427 114c-.032.086-.096.17-.202.176" class="B C E J"/><path d="M61.082 112.155H85.63c.946 0 1.713.767 1.713 1.713s-.767 1.713-1.713 1.713H61.082c-.946 0-1.713-.767-1.713-1.713s.767-1.713 1.713-1.713z" class="D"/><use xlink:href="#Z" class="U"/><use xlink:href="#a" class="D"/><use xlink:href="#b" class="I"/><path d="M0 147.03h139.86v19.13H0z" class="H"/><path d="M61.082 153.843h22.55c.946 0 1.713.767 1.713 1.713s-.767 1.713-1.713 1.713h-22.55c-.946 0-1.713-.767-1.713-1.713s.767-1.713 1.713-1.713z" class="D"/><use xlink:href="#Z" y="41.688" class="S"/><use xlink:href="#a" y="41.688" class="D"/><use xlink:href="#b" y="41.688" class="I"/><path d="M0 126.186h139.86v19.13H0z" class="H"/><path d="M61.082 133H85.63c.946 0 1.713.767 1.713 1.713s-.767 1.713-1.713 1.713H61.082c-.946 0-1.713-.767-1.713-1.713S60.136 133 61.082 133z" class="D"/><use xlink:href="#Z" y="20.845" class="R"/><path d="M24.547 133h13.13c.946 0 1.713.767 1.713 1.713s-.767 1.713-1.713 1.713h-13.13c-.946 0-1.713-.767-1.713-1.713S23.6 133 24.547 133z" class="D"/><path d="M97.617 133h18.458c.946 0 1.713.767 1.713 1.713s-.767 1.713-1.713 1.713H97.617c-.946 0-1.713-.767-1.713-1.713S96.67 133 97.617 133z" class="I"/><use xlink:href="#Y" x="0.296" y="41.688" class="G M"/><path d="M7.93 158.602c-.817-2.696 2.02-6.173 4.068-6.798 3.113-.95 3.928 4.484 3.79 4.538l-.285.103c-1.078.37-3.602 1.1-7.572 2.158z" class="N"/><path d="M14.413 154.097c.14 1.12-.957 3.95-2.116 3.796-.973-.13-1.54-.958-1.84-1.843-.05-.15-.803.24-.906-.455s.717-.26.696-.387c-.072-.427-.067-.8-.056-1.08.002-.046.247-.187.773-.27.235-.037.526-.063.876-.064.5-.001 1.058.05 1.526.108.135.017.01-1.24.128-1.22s.476 1.3.568 1.327c.216.04.35.074.35.09z" class="V"/><g class="B C E J"><path d="M12.824 154.41c.063.61.515.4.515.002"/><path d="M12.85 154.744l-.155.206"/><path d="M13.08 154.82l-.103.335"/><path d="M13.2 154.77l.1.284"/></g><path d="M12.437 154.176l.76 1.117c.04.048.114.105.09.163s-.513.095-.556.007c-.022-.045-.03-.202-.027-.15.01.315.037.514.083.597" class="B C E L W"/><g class="J B C E"><path d="M11.47 154.426c-.096.405.475.456.582-.044"/><path d="M11.535 154.718l-.18.13"/><path d="M11.755 154.744l-.03.232"/><path d="M11.896 154.718l.1.18"/></g><path d="M12.436 156.02c.168.02.117.253.248.222.066-.016.12-.09.188-.077.102.018.243.11.423.272l-.354.162-.13.062c-.305.147-1.24-.376-1.456-.57l.766.245.534.07c.504.058.07-.048-1.3-.317.295-.164.915-.09 1.082-.07z" class="X"/><use xlink:href="#Y" x="0.296" y="21.415" class="G M"/><path d="M13.31 133.81c1.31.818 2.232 2.516 2.763 5.093-1.045 1.277-2.632 2.092-4.4 2.092-1.807 0-3.418-.842-4.462-2.156.096-.648.226-1.22.4-1.717.177-.536.738-1.456 1.683-2.76l.29-.394c1.346.072 2.523.02 3.516-.122l.23-.035z" class="K"/><g class="E B"><g class="C L"><path d="M8.978 138.198c.777.4 1.277-.11 1.8-.668"/><path d="M11.653 137.62c.107.462.174.75.438 1.124.006.01-.02.005-.032.008"/><path d="M12.582 138.6c-.53-.315-.21-.078-.805-.877"/><path d="M13.673 138.373c-.72-.05-1.46-.3-2.008-.79"/><path d="M13.737 137.923c-.38.054-1.152.44-2.056-.39"/><path d="M13.71 137.377c-1 .2-.38.12-1.85.084"/><path d="M9.724 138.82c.442-.352 1.094-.74 1.21-1.356"/><path d="M10.358 138.814c.525-.347.156-.06.757-1.185"/><path d="M10.94 138.845c.398-.775.267-.393.435-1.13"/><path d="M11.57 138.756c-.298-.605-.188-.26-.26-1.058"/><path d="M12.166 138.727c-.458-.62-.235-.252-.61-1.134"/><path d="M9.45 137.04c.4.237.956.675 1.394.28"/><path d="M9.218 137.574c.255.068 1.544.45 1.52-.202"/><path d="M10.163 134.136c-.03.275-.03.447 0 .516.193.438.493.292.62-.18"/><path d="M10.988 133.826c-.584 2.527-.54 3.8.13 3.8s.902-.447.696-1.34l-.103-2.295c.31 1.083.6 1.134.876.155" class="K"/></g><g class="T Y"><path d="M8.926 136.24c-.15-.077-.235-.145-.258-.206-.122-.324.125-.5.567-.258.017-.378.163-.6.438-.696s.326.146.155.696c.274-.04.445-.04.515 0 .235.136.126.47-.36.67.24.206.275.42.103.645s-.378.12-.62-.31c-.344.413-.6.516-.8.31s-.103-.5.258-.85z"/><path d="M14 135.772c.142-.104.22-.19.233-.256.074-.355-.21-.496-.63-.173-.08-.388-.27-.604-.568-.648s-.314.205-.046.745c-.3.003-.468.03-.534.085-.22.18-.054.505.484.634-.215.253-.216.48-.001.683s.41.062.6-.42c.424.37.716.433.88.19s.027-.523-.406-.837z"/></g></g><g class="Z"><circle cx="9.506" cy="136.229" r="1"/><circle cx="13.361" cy="135.811" r="1"/></g><path d="M13.496 133.872c1.06-.2 1.654-.328 1.778-.413l-.232-.645-1.933.387c-.12-1.873-.455-2.8-1.005-2.8-.18 0-.385.258-.62.773-.326-.997-.67-1.186-1.03-.567s-.55 1.555-.567 2.8l-1.263-.072c-.274-.03-.49-.074-.644-.134v.593c-.028.03.163.07.572.122l1.232.1c.498.038 1.735-.014 3.71-.155z" class="N"/><path d="M0 84.274h139.86v19.355H0z" class="H"/><use xlink:href="#X" y="42" class="D"/><use xlink:href="#U" y="83.58" class="a"/><use xlink:href="#W" x="-36.535" y="21" class="D"/><use xlink:href="#V" y="83.58" class="I"/><path d="M11.957 46.2A5.66 5.66 0 0 0 6.3 51.857a5.66 5.66 0 0 0 5.657 5.657 5.66 5.66 0 0 0 5.657-5.657 5.66 5.66 0 0 0-5.657-5.657z" class="G M"/><path d="M8.223 54.895c-.812-2.676 2.005-6.13 4.04-6.75 3.092-.943 3.902 4.452 3.763 4.505l-.283.102c-1.07.368-3.578 1.082-7.52 2.142z" class="N"/><path d="M14.662 50.422c.14 1.113-.95 3.923-2.102 3.768-.967-.13-1.53-.95-1.828-1.83-.05-.15-.797.24-.9-.452s.713-.257.69-.384c-.072-.424-.066-.784-.055-1.072.002-.045.246-.186.767-.27.233-.037.522-.063.87-.063.496-.001 1.05.048 1.516.107.134.017.01-1.23.127-1.212s.473 1.3.564 1.318c.215.04.347.073.35.088z" class="V"/><g class="B C E J"><path d="M13.084 50.73c.063.607.512.407.512.002"/><path d="M13.11 51.064l-.154.205"/><path d="M13.34 51.14l-.102.333"/><path d="M13.467 51.09l.1.282"/></g><path d="M12.7 50.5l.754 1.11c.04.047.113.104.09.162s-.51.094-.552.007c-.022-.045-.03-.2-.027-.15.01.313.037.51.082.593" class="B C E L W"/><g class="J B C E"><path d="M11.738 50.75c-.096.402.472.453.578-.043"/><path d="M11.804 51.038l-.18.128"/><path d="M12.023 51.064l-.03.23"/><path d="M12.162 51.038l.1.18"/></g><path d="M12.7 52.33c.166.018.116.25.246.22.066-.016.12-.088.187-.076.1.018.24.108.42.27l-.352.16-.13.062c-.303.146-1.23-.373-1.446-.567l.76.244.53.07c.5.058.07-.047-1.29-.315.293-.163.908-.088 1.075-.07z" class="X"/><path d="M11.957 25.2A5.66 5.66 0 0 0 6.3 30.857a5.66 5.66 0 0 0 5.657 5.657 5.66 5.66 0 0 0 5.657-5.657 5.66 5.66 0 0 0-5.657-5.657z" class="G M"/><path d="M13.567 29.407c1.302.812 2.217 2.498 2.744 5.056-1.038 1.268-2.614 2.077-4.38 2.077-1.795 0-3.395-.836-4.432-2.14.095-.644.224-1.212.387-1.705.176-.532.733-1.446 1.672-2.74l.287-.39c1.337.072 2.506.02 3.492-.12l.23-.035z" class="K"/><g class="E B"><g class="C L"><path d="M9.264 33.764c.772.397 1.27-.11 1.79-.663"/><path d="M11.92 33.19c.106.46.173.746.435 1.116.006.01-.02.005-.032.008"/><path d="M12.843 34.164c-.526-.313-.2-.077-.8-.87"/><path d="M13.927 33.938c-.715-.05-1.45-.308-1.994-.784"/><path d="M13.99 33.49c-.377.054-1.145.438-2.042-.388"/><path d="M13.963 32.95c-.984.198-.376.12-1.836.083"/><path d="M10.005 34.383c.44-.35 1.086-.736 1.2-1.347"/><path d="M10.634 34.376c.522-.345.155-.06.752-1.177"/><path d="M11.213 34.407c.395-.77.265-.39.432-1.122"/><path d="M11.838 34.318c-.296-.6-.187-.257-.258-1.05"/><path d="M12.43 34.29c-.455-.615-.234-.25-.605-1.126"/><path d="M9.733 32.614c.398.235.95.67 1.384.28"/><path d="M9.502 33.145c.254.068 1.534.447 1.5-.2"/><path d="M10.44 29.73c-.03.273-.03.443 0 .512.19.435.5.3.614-.18"/><path d="M11.26 29.424c-.58 2.51-.538 3.763.128 3.763s.896-.444.69-1.33l-.102-2.278c.307 1.075.597 1.126.87.154" class="K"/></g><g class="T Y"><path d="M9.213 31.822c-.148-.076-.233-.144-.256-.205-.122-.32.124-.496.563-.256.017-.375.162-.606.435-.69s.324.145.154.69c.272-.04.442-.04.512 0 .233.135.125.465-.358.666.24.205.273.418.102.64s-.375.12-.614-.307c-.34.4-.606.512-.794.307s-.102-.486.256-.845z"/><path d="M14.242 31.356c.14-.103.218-.188.232-.254.073-.352-.21-.492-.625-.172-.08-.385-.267-.6-.564-.643s-.312.203-.046.74c-.288.003-.465.03-.53.084-.22.178-.053.5.48.63-.214.25-.214.477-.001.678s.41.062.586-.418c.42.367.712.43.873.187s.026-.52-.404-.83z"/></g></g><g class="Z"><circle cx="9.789" cy="31.809" r="1"/><circle cx="13.617" cy="31.394" r="1"/></g><path d="M13.752 29.47c1.054-.19 1.643-.325 1.766-.4l-.23-.64-1.92.384c-.12-1.86-.452-2.8-.998-2.8-.178 0-.382.256-.614.768-.324-1-.666-1.178-1.024-.563s-.546 1.544-.563 2.8l-1.254-.07c-.272-.03-.486-.074-.64-.133v.59c-.027.028.162.07.568.12l1.224.11c.495.038 1.724-.013 3.686-.154z" class="N"/><path d="M11.97 67.2a5.67 5.67 0 0 0 0 11.34 5.67 5.67 0 0 0 0-11.34z" fill="#cce4ff" class="G"/><path d="M14.5 69.604c-.134 2.993-3.393 4.103-1.3 6.054.498.466-2.73.473-2.453 0 1.478-2.523-.067-3.06-.034-5.785a3.36 3.36 0 0 1 .13-.899c1.622-.046 2.81-.004 3.566.126.06.01.094.178.1.505z" class="T"/><g class="B C E"><g class="b"><path d="M14.946 69.252c-.18.776-.518 1.57-.584 2.367-.048.577-.02 1.158-.032 1.738"/><path d="M14.74 69.227c-.4 1.007-.556 1.914-.594 3.002-.03.855-.115.646.055 1"/><path d="M14.202 69.843c-.376 1.55-.393 2.053-.13 3.643"/><path d="M14.048 73.665c-.932-.837-.542-2.3-.292-3.335"/></g><path d="M12.24 69.586c.057.28.04.468-.046.563-.465.507-.646.702-1.17 1.423-.007.01-.005.036.007.036.058.001.123-.001.17-.034.336-.23.595-.58.966-.744.5-.223-.686.547-.4.698.117.06 2.168-.22 1.505-.088s-1.647.316-1.565.424c.345.45.432.656.345 1.06" class="J"/><g class="b"><path d="M10.995 70.125c-.3.8-.704 2.75-1.9 2.976-.015.003-.023-.02-.034-.03"/><path d="M10.815 69.586c-.273 1.35-.676 2.546-1.796 3.335"/><path d="M10.662 69.073c-.348 1.258-.524 2.627-1.59 3.49"/><path d="M10.302 69.124c-.322 1.35-.357 2.238-1.308 3.18"/></g></g><path d="M10.63 68.853c-.145 0 .087.897.18 1.104.077.175.3.264.638.268.385.012.653-.076.803-.264l.023-.03c.18.36.54.46.976.46 1 0 1.413-.612 1.252-1.54h-3.87zm1.783.343l1.718-.024v.006c.023.296-.028.515-.144.66l-.012.015c-.138.162-.395.247-.785.247-.267 0-.577-.104-.712-.437l-.03-.094c-.015-.056-.014-.146-.022-.253l-.012-.12zm-1.51.03h1.246l-.002.183c-.01.412-.098.597-.828.612h-.136c-.018 0-.027-.003-.043-.014-.035-.024-.073-.072-.108-.145a1.52 1.52 0 0 1-.118-.499l-.01-.138z" fill="#00ffce" class="G"/><g class="P"><use xlink:href="#c"/><use xlink:href="#c" x="0.743"/></g><g class="Q"><path d="M10.177 76.197c-.165.24-.856.18-.486-.3s.65.07.486.3z"/><path d="M10.985 76.6c-.17.233-.788.085-.407-.387s.576.154.407.387z"/><path d="M12.163 76.75c-.17.242-.787.132-.402-.358s.573.116.402.358z"/><path d="M13.392 76.6c-.174.238-.767.114-.514-.306s.688.068.514.306z"/><path d="M14.27 76.316c-.165.235-.678.122-.488-.302s.653.067.488.302z"/></g><g class="G"><path d="M11.82 87.36A5.52 5.52 0 0 0 6.3 92.879a5.52 5.52 0 0 0 5.519 5.519 5.52 5.52 0 0 0 5.519-5.519 5.52 5.52 0 0 0-5.519-5.519z" class="M"/><path d="M11.012 90.6c-1.253 0-2.373.332-3.21.86-.34.214-.607.45-.763.663-.093.13-.15.254-.157.386a.43.43 0 0 0 .351.451l.02.004c.143.027.353.037.843.05l.444.012 1.07.047.068.005.06.004c.506.038.93.094 1.267.173l.023.006v1.96c.045.46.542.692 1.49.692s2.03-.268 3.24-.803l-.168-1.453.012-.003c.173-.046.32-.11.44-.198.228-.164.35-.4.35-.68a.63.63 0 0 0-.488-.644l-.012-.003a1.25 1.25 0 0 0-.459-.013l-.02.003-.03-.27-.11-.088c-.98-.778-2.402-1.16-4.258-1.16z" class="K"/></g><g class="E B"><g class="C L"><path d="M10.15 91.006c.486.03.4.04.757-.3"/><path d="M10.198 91.254c.382-.027.422-.173.685-.495"/><path d="M11.05 90.74c.096.246.26.263.517.243"/><path d="M11.05 90.744c.057.43-.043.25.328.523"/></g><g stroke="#fff"><path d="M10.4 89.956c.455-.417.69.137.64.495-.06.432-.41.765-.74 1.002-.005.003-.294.198-.38.123-.204-.18-.123-.59-.038-.832a2.26 2.26 0 0 1 .517-.788z"/><g class="C"><path d="M10.993 90.86c.075-.23.125-.522.33-.687.442-.353.87-.237.748.372-.067.333-.344.726-.587.958-.315.3-.6-.1-.543-.4.023-.145.078-.284.117-.425"/></g></g><g class="L"><path d="M12.532 90.568c.104.608.162 1.073.568 1.553.595.704 1.918.41 2.47-.195" class="C"/><path d="M13.04 90.646c-.1.808-.043 1.72.978 1.86.07.01.542.035.716-.025.422-.146.44-.234.842-.56" class="C"/><path d="M13.226 90.653c.357.74 1.31 2.456 2.262 1.34" class="C"/><path d="M13.7 90.74c.084.454.126.913.43 1.285.402.493 1.22.392 1.56-.088" class="C"/><path d="M13.933 90.823c.23.578.662 1.548 1.448 1.225" class="C"/><path d="M14.214 90.883c.2.3.583 1.064.975 1.144.153.03.31-.004.467-.006" class="C"/><path d="M10.87 93.457c.385-.135.695.143 1.088.072.2-.034.423-.24.562-.347" class="C"/><path d="M10.296 94.952l1.623.9 2.547-.9-.15 1.898-2.397-.724-2.048.724z" class="N"/></g></g></g><g filter="url(#E)" transform="translate(107.52 246.96)"><path d="M0 .07h139.86v85.68H0z" class="E H d"/><path d="M74.9 37.387L63.088 40.18a.66.66 0 0 0-.148 1.23l3.355 1.712.343 3.434c.027.276.224.505.49.572s.55-.04.704-.268l.102-.104-.678-2.62c-.03-.34.14-.67.434-.844l2.915-1.734-2.33 2.26c-.165.16-.234.397-.183.622l1.062 4.61c.06.27.286.47.56.505s.54-.11.664-.356l5.55-10.89a.65.65 0 0 0 .065-.128c.058-.153.022-.386-.044-.546-.082-.198-.43-.28-1.047-.25z" fill="#ccd2e3"/><rect x="4.94" y="7.517" width="32.614" height="3.401" rx="1.327" class="e"/><rect x="5.508" y="14.886" width="32.614" height="3.401" rx="1.327" class="I"/><g transform="translate(42 16.38)"><mask id="e" class="H"><use xlink:href="#F"/></mask><use xlink:href="#F" class="G c"/><g mask="url(#e)"><g transform="translate(-2.52 -5.393)"><path d="M29.437 3.78v29.206L9.24 9.173c0-16.047 3.688-5.134 19.85-5.4l.347-.003z" fill="#fb3640"/><path d="M29.425 33.246v.197l11.14 26.584c-3.53 1.56-7.43 2.425-11.527 2.425C13.232 62.453.387 49.574.132 33.6l-.003-.344h29.296z" class="a"/><path d="M29.438 4.55l-.001 28.634L40.63 59.887c10.632-4.34 18.104-14.6 18.104-26.565 0-15.733-12.918-28.517-28.952-28.77h-.344z" class="S"/></g></g></g><rect x="56.28" y="76.86" width="27.72" height="3.78" rx="1.327" class="O"/></g><g filter="url(#G)"><g transform="translate(.072)"><mask id="f" class="H"><use xlink:href="#H"/></mask><use xlink:href="#H" class="H"/><path fill="#0d62fe" mask="url(#f)" d="M28.56 500.64H241.5v165.9H28.56z"/><path fill="#ffe156" mask="url(#f)" d="M255.288 500.64h212.94v165.9h-212.94z"/><g transform="translate(29.4 58.38)"><g transform="translate(.42)"><g fill="#000" class="G"><path d="M245.65 28.14V14.396a72.3 72.3 0 0 1 5.025 6.63l4.4 7.114h3.966V7.16h-4.692v12.382l-2.33-3.406-2.498-3.42-2.467-3.103-2.2-2.452h-3.845v20.98h4.662zm33.09 0v-3.966h-10.142v-5.056h8.386v-3.875h-8.386v-4.117h9.445V7.16h-14.168v20.98h14.864zm11.413 0l2.028-6.1 1.938-6.403 1.968 6.403 2.06 6.1h4.33a155.28 155.28 0 0 0 2.982-10.293c.918-3.613 1.73-7.175 2.437-10.687h0-4.904l-.65 3.71-.71 3.86a106.62 106.62 0 0 1-.772 3.754l-.802 3.36c-.323-.95-.656-1.978-1-3.088l-1.014-3.33-.938-3.224-.802-2.8h-4.026l-.742 2.755-.893 3.21-1 3.33c-.343 1.1-.696 2.16-1.06 3.148a74.61 74.61 0 0 1-.833-3.36l-.802-3.754-.757-3.86-.666-3.71h-5.116c.706 3.512 1.52 7.074 2.437 10.687a155.28 155.28 0 0 0 2.982 10.293h4.33zm26.49.424c2.765 0 4.834-.54 6.206-1.62s2.06-2.598 2.06-4.556c0-1.01-.13-1.867-.394-2.573a4.99 4.99 0 0 0-1.196-1.847c-.535-.525-1.206-.984-2.013-1.377s-1.756-.792-2.846-1.196c-.525-.182-1.004-.358-1.438-.53a6.79 6.79 0 0 1-1.15-.575c-.333-.212-.6-.45-.772-.71s-.272-.585-.272-.97c0-.646.247-1.125.742-1.438s1.307-.47 2.437-.47c1.01 0 1.872.116 2.588.348s1.367.5 1.953.802h0l1.362-3.724c-.666-.363-1.514-.696-2.543-1s-2.25-.454-3.663-.454c-1.19 0-2.26.146-3.21.44s-1.756.71-2.422 1.256a5.59 5.59 0 0 0-1.544 1.983c-.363.777-.545 1.65-.545 2.62s.172 1.79.515 2.467.787 1.25 1.332 1.726 1.16.868 1.847 1.18a25.11 25.11 0 0 0 2.059.833c1.574.525 2.684 1.014 3.33 1.468s.97 1.024.97 1.7c0 .323-.05.616-.15.878a1.52 1.52 0 0 1-.545.681c-.262.192-.61.343-1.044.454s-.984.167-1.65.167c-1.332 0-2.457-.136-3.376-.41s-1.7-.58-2.316-.923h0l-1.332 3.754c.283.16.63.333 1.044.515s.908.353 1.483.515 1.236.298 1.983.41 1.584.167 2.513.167zm25.914-.424v-4.057h-9.294V7.16h-4.723v20.98h14.017zm17.892 0v-3.966h-10.142v-5.056h8.386v-3.875h-8.386v-4.117h9.445V7.16h-14.168v20.98h14.864zm12.715 0V11.187h6.327V7.16H362.11v4.026h6.327V28.14h4.723zm18.588 0V11.187h6.327V7.16H380.7v4.026h6.327V28.14h4.723zm24.22 0v-3.966h-10.142v-5.056h8.386v-3.875h-8.386v-4.117h9.445V7.16h-14.168v20.98h14.864zm8.204 0v-7.66h2.33a20.5 20.5 0 0 1 1.211 1.62c.404.595.812 1.226 1.226 1.892s.817 1.352 1.21 2.06l1.166 2.09h5.298c-.363-.767-.757-1.55-1.18-2.346s-.863-1.564-1.317-2.3a51.36 51.36 0 0 0-1.377-2.119c-.464-.676-.908-1.277-1.332-1.8 1.27-.525 2.245-1.246 2.92-2.165s1.014-2.114 1.014-3.587c0-2.36-.838-4.102-2.513-5.222s-4.087-1.68-7.235-1.68c-.868 0-1.852.04-2.952.12s-2.165.222-3.194.424h0V28.14h4.723zm1.332-11.413h-1.332v-5.69l.772-.06c.272-.02.58-.03.923-.03 1.514 0 2.66.217 3.436.65s1.166 1.166 1.166 2.195c0 1.07-.383 1.827-1.15 2.27s-2.038.666-3.814.666h0z"/><path d="M338.83 62.16l.742-2.24.802-2.3h8.174l.802 2.3.742 2.24h5.056l-2.24-6.267-2.074-5.42-2.013-4.83-2.028-4.465h-4.51l-2.043 4.465-1.998 4.83-2.074 5.42-2.24 6.267h4.904zm8.598-8.295h-5.964l.954-2.604.863-2.27.696-1.816.454-1.24.484 1.24.71 1.816.863 2.27.938 2.604zm16.953 8.658a24.38 24.38 0 0 0 3.814-.288l2.967-.62v-15.38h-4.51v12.29l-.97.106-1.03.045c-1.05 0-1.766-.323-2.15-.97s-.575-1.695-.575-3.148h0v-8.325h-4.51v8.87c0 1.1.11 2.09.333 2.997s.595 1.7 1.12 2.346 1.236 1.166 2.134 1.53 2.023.545 3.376.545zm16.65 5.328c2.765 0 4.808-.63 6.13-1.892s1.983-3.194 1.983-5.797h0V46.78l-1.377-.348-1.62-.288-1.7-.197-1.68-.076c-1.27 0-2.412.187-3.42.56s-1.862.903-2.558 1.59-1.226 1.51-1.59 2.467-.545 2.023-.545 3.194c0 2.34.585 4.163 1.756 5.464s2.856 1.953 5.056 1.953a7.97 7.97 0 0 0 1.68-.167 7.26 7.26 0 0 0 1.499-.5h0V61c0 .888-.267 1.615-.802 2.18s-1.448.848-2.74.848c-.99 0-1.872-.08-2.65-.242a13.22 13.22 0 0 1-2.225-.666h0l-.787 3.784a18.11 18.11 0 0 0 2.694.681c.97.172 1.938.257 2.906.257zm1.27-10.384c-2.038 0-3.058-1.26-3.058-3.784 0-1.21.293-2.2.878-2.997s1.473-1.18 2.664-1.18l1.06.045.787.106v7.205c-.283.16-.626.303-1.03.424a4.51 4.51 0 0 1-1.302.182zm17.892 5.056a24.38 24.38 0 0 0 3.814-.288l2.967-.62v-15.38h-4.51v12.29l-.97.106-1.03.045c-1.05 0-1.766-.323-2.15-.97s-.575-1.695-.575-3.148h0v-8.325h-4.51v8.87c0 1.1.11 2.09.333 2.997s.595 1.7 1.12 2.346 1.236 1.166 2.134 1.53 2.023.545 3.376.545zm15.56.06c2.16 0 3.83-.404 5-1.21s1.77-1.998 1.77-3.572c0-.666-.076-1.25-.227-1.756a3.57 3.57 0 0 0-.787-1.377c-.373-.414-.883-.797-1.53-1.15s-1.463-.71-2.452-1.075l-1.196-.5c-.313-.15-.56-.293-.742-.424s-.303-.267-.363-.41a1.22 1.22 0 0 1-.091-.484c0-.787.706-1.18 2.12-1.18.767 0 1.458.07 2.074.212s1.186.303 1.7.484h0l.787-3.512c-.525-.202-1.23-.39-2.12-.56a14.66 14.66 0 0 0-2.785-.257c-1.938 0-3.46.434-4.57 1.302s-1.665 2.05-1.665 3.542c0 .767.11 1.423.333 1.968s.535 1.014.938 1.408a5.65 5.65 0 0 0 1.468 1.014c.575.283 1.216.555 1.922.817.908.343 1.584.65 2.028.923s.666.6.666.954c0 .464-.172.777-.515.938s-.928.242-1.756.242c-.787 0-1.584-.086-2.392-.257s-1.594-.41-2.36-.71h0l-.757 3.663c.363.16 1.014.363 1.953.605s2.114.363 3.527.363zm16.287-.06c.97 0 1.786-.08 2.452-.242s1.27-.353 1.816-.575h0l-.636-3.512c-.424.16-.893.288-1.408.378a8.62 8.62 0 0 1-1.499.136c-1.01 0-1.68-.283-2.013-.848s-.5-1.322-.5-2.27h0V50h5.42v-3.754h-5.42v-4.692l-4.51.727v13.38c0 1.03.096 1.968.288 2.815s.53 1.57 1.014 2.165 1.13 1.06 1.938 1.393 1.827.5 3.058.5z"/></g><g opacity=".92"><path d="M331.24 217.98V110.303H220.885l.01 1.266c.97 58.34 49.258 105.454 109.05 106.4l1.297.01z" fill="#005b11"/><path d="M211.68 608.58V442.26H41.16l.016 1.956c1.498 90.11 76.112 162.887 168.5 164.348l2.003.016z" fill="#28bafe"/><path d="M110.53 0v107.677H.173l.01-1.266C1.153 48.072 49.44.956 109.232.01L110.53 0z" class="O"/><path d="M110.004 107.677V0H220.36l-.01 1.266c-.97 58.34-49.258 105.454-109.05 106.4l-1.297.01z" fill="#00173a"/><path d="M110.53 110.303V217.98H.173l.01-1.266c.97-58.34 49.258-105.454 109.05-106.4l1.297-.01z" class="U"/><g fill="#ff7800"><ellipse transform="matrix(1 0 0 -1 0 328.283126)" cx="384.054" cy="164.142" rx="52.813" ry="53.838"/><ellipse transform="matrix(1 0 0 -1 0 1051.259982)" cx="333.299" cy="525.63" rx="81.37" ry="82.95"/></g></g></g><g class="D"><rect x=".42" y="348.18" width="412.317" height="14.085" rx="7.043"/><rect x=".42" y="326.34" width="426.402" height="14.085" rx="7.043"/><rect x=".42" y="641.76" width="122.22" height="14.085" rx="7.043"/><rect x="225.12" y="641.76" width="174.72" height="14.085" rx="7.043"/><rect x=".42" y="370.02" width="426.402" height="14.085" rx="7.043"/><rect x=".42" y="391.44" width="142.134" height="14.085" rx="7.043"/><rect x=".42" y="304.5" width="437.927" height="14.085" rx="7.043"/><rect x=".42" y="619.92" width="213.36" height="14.085" rx="7.043"/><rect x="225.048" y="619.92" width="213.36" height="14.085" rx="7.043"/><rect x=".348" y="250.74" width="437.927" height="26.89" rx="13.445"/></g></g><g class="O"><rect x="183.468" y="449.974" width="76.829" height="14.085" rx="7.043"/><rect x="188.343" y="769" width="120" height="22" rx="8.09"/><rect x="29.328" y="721.98" width="76.829" height="14.085" rx="7.043"/><rect x="254.52" y="721.98" width="76.829" height="14.085" rx="7.043"/></g><g transform="translate(113.523 460.484)"/></g></g></g></g></svg>