<svg xmlns="http://www.w3.org/2000/svg" width="1382" height="1125" xmlns:v="https://vecta.io/nano"><style><![CDATA[.B{stroke-linecap:round}.C{stroke-linejoin:round}.D{stroke-width:5.322}.E{stroke:#212121}.F{fill:#001c6c}.G{fill-rule:nonzero}.H{fill:#212121}.I{stroke-width:5.855}.J{fill:#ff8100}.K{fill:#fb3640}]]></style><g fill="none" fill-rule="evenodd"><path d="M891.235 461.54c-53.41-68.177-153.84-77.35-237.78-73.928s-112.31 23.87-154.35 89.913-32.665 117.52-8.726 166.282c11.98 24.402 33.467 45.198 60.71 61.768 14.46 8.795 36.127 20.065-24.956 38.236s107.548-4.275 126.015-.624c92.475 18.28 197.303 2.885 246.4-57.423 46.647-57.286 17.475-148.847 3.942-207.795l-11.263-16.43z" fill="#0d62fe"/><path fill="#fff" d="M688.873 644v-67.92H648L716.122 481v67.915H757z"/><path d="M482.14 292.668C450.436 188.112 560.46 53.248 640 29 760.786-7.823 792.426 202.926 787 205c-33.475 12.797-135.096 42.02-304.86 87.668z" fill="#001d71"/><path d="M733.674 117.927c5.45 43.488-37.133 153.25-82.104 147.217-37.77-5.066-59.773-37.147-71.42-71.482C578.18 187.856 549 203 545 176s27.836-10.042 27-15c-2.794-16.57-2.582-30.63-2.157-41.86.067-1.773 9.6-7.256 29.982-10.495 9.12-1.45 20.41-2.45 33.998-2.466 19.383-.025 41.04 1.88 59.218 4.186 5.228.663.444-48.057 4.96-47.365 4.596.705 18.476 50.82 22.047 51.48 8.388 1.547 13.553 2.862 13.626 3.447z" fill="#f2f4f6"/><path d="M672 130c2.464 23.7 20 15.905 20 .08M673 143l-6 8m15-5l-4 13m9-15l3 11" class="B C D E"/><path d="M657 121c16.21 24.68 26.026 39.117 29.444 43.308 1.508 1.85 4.41 4.057 3.536 6.337-.804 2.094-19.898 3.677-21.576.287-.868-1.753-1.12-7.846-1.06-5.857.358 12.237 1.43 19.953 3.217 23.148" stroke="#001d71" fill="#f5fff6" class="B C D"/><g class="B C D E"><path d="M619.42 130.7c-3.73 15.702 18.435 17.7 22.58-1.7m-20 13l-7 5"/><path d="M628.654 143l-.3 9M636 142l3 7"/></g><path d="M656.977 192.468c6.5.718 4.524 9.82 9.604 8.6 2.564-.615 4.7-3.453 7.312-2.985 3.948.7 9.424 4.23 16.427 10.556l-18.834 8.698c-11.845 5.708-48.1-14.568-56.495-22.15l29.712 9.52c46.29 6.64 36.387 3.466-29.712-9.52 11.465-6.353 35.485-3.436 41.986-2.72z" fill="#ff4445"/><path d="M275.382 496.843c.544 3.833 1.017 9.454 1.452 15.62-12.24.813-24.63.49-37.012-.4 6.96-23.214 10.734-44.6 14.878-73.652.808-5.662 1.337-11.37 1.8-17.09l5.352-.26a23.87 23.87 0 0 0 1.285-.094c3.378 25.386 8.65 50.502 12.247 75.862zM275 417.648c.707 3.076 1.37 6.19 1.987 9.333l.294 1.514.234.422.137.243 1.907 1.72c15.176 13.602 31.053 26.414 46.93 39.2l2.507 2.02c2.647 2.132 5.56 4.003 8.677 5.356 6.406 2.78 13.033 5.015 19.6 7.396-7.284 4.374-15.285 8.436-24.193 13.01-4.758 2.442-9.586 4.526-14.475 6.294-4.494-6.696-9.078-13.342-13.1-20.322-4.94-8.575-8.794-17.752-13.295-26.564l-.617-1.193.8 1.935c3.55 8.702 6.655 17.596 10.382 26.223l.945 2.15c2.486 5.556 5.347 10.973 8.677 16.07l2.082 3.115c-10.054 3.256-20.345 5.242-30.768 6.32.685-24.142-.85-50.372-4.97-75.213l-.262-1.557-.992-1.4-9.86-13.54.945-.248c2.715 3.082 5.56 6.043 8.597 8.797h0l.19.17-.058-.31-.018-.1-.635-1.146c-1.553-2.826-3.043-5.684-4.39-8.61.777-.284 1.56-.592 2.347-.92zM248.61 421.7c-.29 8.155-.818 16.077-2.846 25.65l-4.714 22.18-.307 1.672-6.2 33.29c-.526 2.798-1.012 5.116-1.46 7.05l-1.116-.098-.006.032 9.1-41.946.5-2.705c14.87-80.97-4.287 12.228-10.364 44.563l.003-.012c-8.925-.8-17.826-1.823-26.64-2.85 1.266-2.09 2.502-4.195 3.693-6.327 9.5-17.006 18.517-34.288 27.063-51.79 1.77-3.624 2.804-7.576 3.828-11.476 1.49-5.676 3.15-11.34 4.36-17.083l5.082-.147zm-11.847.124l-.267.796c-16.118 48.39-2.922 26.504-32.532 85.83l-10.02-1.154-7.992-5.99 19.48-33.295c3.36-5.75 6.645-11.564 9.446-17.606 4.463-9.626 8.216-19.57 12.413-29.315 3.15.417 6.29.64 9.472.73zm-19.176-2.666l-1.3 3.038-19.528 47.602c-3.5 7.934-7.528 15.635-11.742 23.215l-3.016 5.33-1.323-1c-3.618-.786-7.965-2.267-12.684-4.226 11.066-14.4 21.847-29.03 31.318-44.502 5.93-9.687 10.87-19.913 15.602-30.255a70.41 70.41 0 0 0 2.682.788zm-10.816-4.043l-.42.707-3.22 5.252c-4.82 7.67-10.594 14.717-15.317 22.446-7.03 11.505-12.728 23.797-19.913 35.206-2.36 3.745-4.79 7.442-7.267 11.1-9.918-4.728-20.588-10.906-29.224-16.842 16.427-10.98 31.546-23.952 44.152-37.893 7.82-8.647 15.158-17.707 22.452-26.808 2.485 2.696 5.378 5.014 8.757 6.82zm85.244-7.458c4.468 2.853 8.83 5.898 13.235 8.823 4.848 3.22 9.022 7.368 13.784 10.713 6.99 4.9 14.17 9.555 21.445 14.033 4.475 2.754 8.995 5.487 13.784 7.65 7.66 3.46 15.448 6.73 23.488 9.187l8.006 2.34a89.96 89.96 0 0 1-14.609 14.871c-21.676-17.153-44.202-33.24-65.9-50.374-5.863-4.63-11.52-9.52-17.067-14.526a93.63 93.63 0 0 0 3.225-2.267zm-14.66 21.237l.245 1.3.878 4.922.26.37c2.913 4.132 5.74 8.32 8.384 12.63 1.523 2.48 2.936 5.023 4.284 7.6l.185.358-.098-.236a182.65 182.65 0 0 0-2.839-6.45c-3.022-6.5-6.728-12.66-10.262-18.907l-.743-1.32-.295-.266zm-84.62-27.82l-1.513.995c-34.843 22.893-54.28 33.863-78.603 53.236-6.34-9.888-11.244-23.552-14.452-33.2 2.294-.902 4.603-1.763 6.935-2.56 11.467-3.923 23.742-5.392 34.972-9.95l47.796-19.433c1.298 3.833 2.9 7.523 4.865 10.914zm123.76-26.563c21.354 3.326 53.665 3.466 62.533 4.212 12.726 1.07 25.295 3.717 38.036 4.593.3.02 1.702.047 3.844.058-.357 5.722-1.056 11.08-2.312 14.995a142.03 142.03 0 0 1-1.764 5.151c-13.638-3.277-27.143-7.123-40.87-10.002-11.465-2.405-26.823-4.678-42.447-7.867l-.994-.204 1.37.576c26 10.922 52.307 21.72 79.935 25.14-5.916 14.032-13.836 27.78-21.852 40.32-6.695-4.046-13.1-8.594-19.84-12.552-11.698-6.86-23.828-12.974-35.488-19.9-3.674-2.182-7.14-4.716-10.467-7.398-6.817-5.496-13.203-11.528-19.897-17.17 3.697-4.317 6.652-8.8 8.435-13.187 5.795 1.558 11.764 2.922 17.708 4.15l.096.02-1.606-.675-15.208-6.33a22.3 22.3 0 0 0 .773-3.802zm-132.552-.6l-.242.09-.988.385c-28.317 11.248-56.33 23.26-84.25 35.46l-3.78 1.663c-2.87-8.925-5.123-18.823-6.615-29.054 9.843-.806 19.742-1 29.545-2.2 10.624-1.29 21.2-3.12 31.655-5.356 11.28-2.41 22.426-5.426 33.613-8.25.302 2.368.648 4.802 1.062 7.264zm2.793 12.612l-3.678 1.43c-56.093 21.84-92.686 36.25 3.504-1.778l.068-.026.106.373zm-81.38-42.238c19.804 5.005 39.87 8.987 59.992 12.502 5.544.968 11.112 1.805 16.696 2.525l.07.727.087.825.498 4.334c-4.606.49-9.202 1.062-13.777 1.79-27.4 4.365-54.003 10.576-80.938 14.893-2.068-14.473-2.61-29.585-1.208-43.538 6.1 2.252 12.274 4.347 18.578 5.94zm312.22-32.654c.987 3.52-.275 7.324 0 10.97.46 6.076 1.333 12.118 2.048 18.17l-1.28.192c-7.283 1.05-14.74.864-21.956 2.3-9.515 1.892-18.534 5.92-28.08 7.65-16.953 3.075-34.24 4.03-51.245 6.78-.06-2.465-.164-4.935-.29-7.402l.03-.012c34.268-14.592 47.357-20.677 48.38-21.832l.032-.078-5.2 1.955-43.45 16.226-.066-1.114c21.736-8.302 48.33-18.076 48.743-17.136l-.03.07 2.104-.8 49.472-18.67.786 2.723zm-238.04 22.317l2.32.964c-1.07-.184-2.675-.316-5.02-.577l6.898 2 .001-.016c.002-.286-.052-.512-.18-.697l.02.008 1.372.577-.198.422-1.015-.294-.003.096c-.027.5-.196 1.14-.427 2.026l-47.058-15.856-36.098-12.552 1.723.912c6.22 3.293 12.444 6.584 18.8 9.598 10.812 5.128 22.088 9.23 32.934 14.286 8.14 3.793 15.73 8.736 24 12.244l4.115 1.677c-.07 1.545-.085 3.272-.02 5.2a188.84 188.84 0 0 1-5.884-1.009c-14.077-2.65-28.117-5.668-41.864-9.692-26.668-7.806-38.874-12.41-45.734-15.252.515-2.818 1.12-5.564 1.822-8.22.797-3.017 2.565-7.042 4.896-11.574l5.215 1.832-.6-.323-4.232-2.228.988-1.868.02.006c8.943 2.2 7.225 1.23.6-1.12l1.556-2.817-.01-.005 81.085 32.25zm210.778-75.57l-.69.515-6.21 4.768-.228.183.26-.168 7.46-4.596c7.52 8.97 13.838 19.14 18.985 30.86-7.625 3.446-15.208 6.98-22.69 10.72-46.3 23.134-38.88 21.575-70.828 42.633l-.143-2.33c-.13-2.197-.627-6.882-1.535-11.796 9.95-9.265 20.574-17.812 30.378-27.235 11.147-10.713 21.175-22.558 32.423-33.164 1.58-1.5 3.223-2.912 4.903-4.288l.785-.638-1.187.765c-1.924 1.253-3.82 2.545-5.674 3.9l-1.38 1.03c-9.937 7.545-18.473 16.786-28.08 24.746-10.313 8.545-21.58 15.92-31.655 24.746l.505-.437-2.614 3.605-.302-1.015 2.4-2.153.505-.437 1.017-1.403 45.08-63.82-1.228 1.38-52.067 57.98c-2.01-2.857-4.116-5.41-6.312-7.684l11.982-30.66 2.378-5.652.694-1.58-.116.202c-6.31 10.912-13.168 21.508-20.58 31.668l-.43.588a51.34 51.34 0 0 0-4.977-3.375c2.892-7.516 5.677-15.08 8.008-22.78l.023-.082-.184.367c-1.45 2.863-2.94 5.714-4.127 8.68l-.347.893c-1.552 4.13-2.497 8.484-3.654 12.754-6.176-3.625-12.905-5.835-20.183-7.077.272-1.75.484-3.477.606-5.167 1.775-24.623 9.393-51.66 9.617-77.796 7.012-.078 14.1.014 21.275.244 3.964.127 7.7.856 11.27 1.97l-2.535 16.91 3.487-16.603c8.655 2.877 16.484 7.925 24.793 12.006l.852.42-3.5 8.13-.487 1.092.817-1.553 3.107-6.06.65-1.316c11.347 5.666 21.533 11.87 30.585 18.927l-9.42 13.17 2.412-2.71c2.644-2.98 5.39-5.905 7.656-9.182a20.48 20.48 0 0 0 .325-.486l.01-.018c6.653 5.282 12.683 11.04 18.1 17.405zm-267.128 4.264c17.925 15.85 30.333 25.566 49.823 46.18 5.45 5.764 10.747 11.667 15.985 17.624l-2.462 6.075-.07-.025-87.23-32.15c7.95-13.89 18.562-29.594 22.72-35.912a52.98 52.98 0 0 1 .873-1.285zm32.213-26.034c2.305 3.176 4.563 6.383 6.63 9.715 12.5 20.15 26.726 39.488 38.85 59.876-3.446 3.43-5.82 7.02-7.798 10.9-1.086-1.033-2.086-1.937-2.968-2.663-35.392-29.16-21.125-16.05 2.07 4.483l-.522 1.15.022.02-67.93-58.224c8.03-10.777 19.935-18.605 31.44-25.14zm31.556-14.817l.35 1.57c4.52 19.565 10.69 38.718 16.596 57.9 1.505 4.9 3.415 9.667 5.618 14.286.442.927.912 1.843 1.402 2.75a72.68 72.68 0 0 0-3.304 2.273l-.01-.012-9.75-12.325-.166-.306c-3.023-5.47-10.53-17.557-25.77-40.773l-2.23-3.393c-2.43-3.694-5.068-7.243-7.816-10.712a217.31 217.31 0 0 1 24.318-10.982zm33.05-9.59c4.37 22.752 9.544 50.068 10.7 67.798.203 3.118.516 6.26.877 9.418-5.442 1.26-10.633 3.246-15.558 5.876-.983-8.21-1.757-16.467-3.7-24.48-4.44-18.325-10.6-36.2-16.596-54.08l.597 1.78c7.392-2.4 14.847-4.395 22.377-6.033zm-22.642 75.428l.493.615.236.43c8.43 15.704-28.542-35.72-.73-1.046zm74.974-81.415l-.53 35.516-2.13 47.094c-6.405-1.008-13.228-1.294-20.464-1.155-.196-10.626-.432-23.356-2.936-44.666-2.265-19.28-2.647-28.68-3.385-34.587 9.422-1.15 18.972-1.845 28.667-2.177zm38.54 19.144l-.622 2.89c-2.903 13.4-6.003 26.775-9.6 40.01l-.98 3.468-.49 1.645.25-.492c1.582-3.153 3.076-6.337 4.028-9.72 3.338-11.86 5.4-24.375 7.28-36.89l.137-.915zm25.19 4.84l-13.457 25.564c-1.822 3.66-3.566 7.36-5.225 11.097l-.128.29.74-1.288c6.546-11.437 12.496-23.214 17.86-35.193l.21-.472z" fill="#54e375"/><g class="F"><g class="G"><path d="M267.663 295.394a2.66 2.66 0 1 1 2.011 4.928l-1.422.57-1.302.507-2.086.796.073.036c.715.38 1.29 1.054 1.433 1.96l.023.202.022.024c.51.59.936 1.322 1.266 2.205l.038.107.13-.023.605-.076.18-.01a3.07 3.07 0 0 1 .961.101c1.12.302 2.125 1.225 2.02 2.8a2.67 2.67 0 0 1-.516 1.422 2.94 2.94 0 0 1-.46.502c-.185.16-.376.294-.595.426l-2.087 1.272-2.902 1.785-.12.08-.224.14-.254.148-6.48 3.998-5.657 3.406-.193.104-.79.404c-2.245 1.116-3.55 1.435-9.803 2.602l-.375.07-.21.082c-1.146.427-2 .537-2.91.265l-.183-.06c-1.73-.61-2.284-2.274-1.86-3.8.105-.376.267-.753.49-1.15l.12-.21-.156-.116a2.71 2.71 0 0 1-1.016-1.964l-.006-.18c0-.412.08-.757.21-1.087.178-.457.44-.86.808-1.318l.108-.132-.06-.01c-1.906-.35-3.286-1.208-3.327-3.2l.001-.217c.04-1.507.852-2.387 2.27-3.36 1.362-.932 3.452-1.964 6.632-3.35l1.164-.503 5-2.124.937-.405 1.913-.87 1.427-.7c2.28-1.095 4.494-2 8.402-3.493l4.316-1.645 2.426-.962zm-7.217 13.744l-.796.274-1.046.344-2.03.64-.106.07c-.96.63-2.108 1.43-3.57 2.472l-.44.313.783-.16 2.036-1.173c1.98-1.13 3.543-1.978 4.87-2.634l.3-.148z"/><path d="M276.356 301.066l2.93-.103c4.024-.11 7.495.078 14.03.663l5.808.528 4.525.34a2.66 2.66 0 0 1 2.18 1.391l.083.166.3.058c.618.128 1.143.265 1.59.422l.216.08c.485.19.9.412 1.276.737.767.663 1.234 1.653 1.004 2.816-.42 2.13-1.8 2.642-5.86 3.45l-.356.067.093.1c.76.76 1.137 1.956.445 3.178l-.1.167a2.48 2.48 0 0 1-1.588 1.152c-.316.087-.594.117-.945.13-.758.03-2.097-.044-3.755-.198l-.336-.032c-4.888-.474-9.456-1.165-13.31-2.117l-.352-.09-3.894-.38c-.31-.03-.647.004-1.38.147l-1 .2c-.34.066-.584.106-.88.144a2.66 2.66 0 0 1-2.983-2.295c-.094-.72.11-1.41.514-1.946l.126-.155-.12-.115c-.507-.503-.9-1.035-1.17-1.598l-.085-.19c-.064-.15-.122-.3-.174-.445l-.086-.252-.97-.07c-.6-.05-1.047-.098-1.36-.15l-.083-.014c-.562-.102-.866-.19-1.357-.558-1.146-.86-1.558-2.604-.414-3.913a2.52 2.52 0 0 1 1.262-.818c.374-.12.783-.18 1.452-.238l.567-.045c.945-.068 2.318-.137 4.17-.2z"/><path d="M238.018 322.46c4.192-17.546 16.246-26.054 31.203-16.895.702.43 1.134 1.133 1.244 1.888l.007.065.103.115c.627.728 1.18 1.593 1.66 2.57l.142.296c1 2.133 1.65 4.763 1.875 6.96.77 7.522.104 18.674-2.367 26.925-3.72 12.417-11.335 18.577-22.766 14.77-10.795-3.595-14.935-20.645-11.1-36.694zm24.5-14.3c-9.207-3.364-16.12 2.655-19.215 15.122l-.098.404c-3.274 13.705.18 27.935 7.606 30.407 8.032 2.675 13.025-1.365 15.986-11.25 2.25-7.51 2.874-17.98 2.17-24.856-.388-3.795-2.048-7.41-3.536-7.58l-.11-.006c-1.24 0-2.284-.85-2.578-2l-.04-.173-.19-.07z"/><path d="M276.496 308.978c-2.766 3.457-4.237 7.382-6.13 15.064l-.495 2.047-.643 2.09a2.66 2.66 0 0 0-.041 1.419l.132.56c.168.742.3 1.498.493 2.612l.404 2.546c.76 4.713 1.365 6.97 2.838 9.614 4.664 8.377 12.19 10.842 19.42 7.378 6.32-3.028 11.076-10.076 11.486-17.326a113.82 113.82 0 0 0 .19-5.447c.036-3.103-.053-6.123-.308-8.95-.766-8.49-2.77-14.056-7.3-15.604-8.88-3.034-15.437-1.62-19.866 3.773l-.183.225zm18.328 1.04c1.67.57 3.143 4.66 3.72 11.045.237 2.627.32 5.473.287 8.41-.023 1.964-.084 3.473-.182 5.21-.3 5.306-3.895 10.634-8.47 12.826-4.676 2.24-9.165.77-12.47-5.167-1.083-1.945-1.577-3.8-2.242-7.93l-.456-2.86-.314-1.727-.164-.77.46-1.487.047-.17.36-1.503c1.807-7.425 3.124-10.993 5.398-13.76 2.926-3.563 7.135-4.47 14.033-2.114z"/><path d="M270.74 314.902a2.66 2.66 0 0 1 .247 5.317l-1.746.085c-17.43.896-22.147 2.618-33.29 12.34a2.66 2.66 0 1 1-3.499-4.01l.766-.665c12.003-10.34 17.955-12.158 37.523-13.068z"/><path d="M270.973 318.2c9.86-6.617 24.69-9.373 34.4-5.272a2.66 2.66 0 1 1-2.071 4.903c-7.87-3.324-20.876-.908-29.363 4.788a2.66 2.66 0 1 1-2.966-4.419z"/></g><path d="M252.154 322.256c1.694 4.205 11.05 20.542 17.534 9.725l1.76-14.685c-9.72 1.282-15.98 2.283-18.778 3.002-1.5.383-1.66 1.035-.515 1.957zm33.894-4.78c1.98 6.5 6.648 19.514 15.772 11.487l-.33-13.92-7.5-1.5-7.932 3.933zM232 366c4.516-16.253 18.092-8.133 42-11 18.778-2.252 30.154-9.716 47 11 1.05 1.292 21.455 16.142 12.442 22.147S282.65 377.222 274 379c-28.938 5.95-43.462 9.147-54.73 9.147-7.5 0-3.268-7.382 12.73-22.147zm16.392 29.732c16.842 18.854 25.438 37.22 36.054 7.145.7-1.985 5.07-12.345 3.004-12.76-5.136-1.033-19.26 5.15-24.46 5.783-4.275.52-8.614.056-12.92.085l-1.678-.252z"/></g><g transform="matrix(-1 0 0 1 1279 149.06)"><path d="M213.384 148.694c26.196 0 58.37-1.647 96.525-4.942l9.9-48.598h-42.9l3.3-70.838H42.61L41.157 63.6C13.72 55.956 0 59.548 0 74.375S12.278 98.05 36.834 100.92l8.25 37.9c86.004 6.6 142.104 9.884 168.3 9.884z" class="J"/><path d="M179.588 23.427c-1.184 20.685 17.203 25.95 22.3 6.9 3.9-14.526-17.308-15.904-24-6.9m70.935-3.295c.36 4.402.094 8.9 1.078 13.205 4.27 18.676 27.6.556 15.225-15.048" class="H"/><path d="M286.155.01c5.085 0-.932 45.388-4.125 54.497-4.05 11.553-13.61 9.06-23.925 9.06-3.278 0-6.092-.108-8.565-.393-5.37-6.5-12.733-13.962-20.5-20.102h0l1.152 6.71-.676-1.047-.804-1.3c-6.252 15.778-18.845 20.25-34.122 20.25-35.326 0-49.424-26.91-43.77-67.676h135.346zM215.96 18.395h-47.727l-.015.234c-.69 11.187.86 19.508 4.34 25.023l.185.288.176.264c4.164 6.142 11.568 9.345 23.312 9.345 8.66 0 14.394-6.03 17.832-21.05l.1-.5c.568-2.67 1.125-6.756 1.654-12.192l.102-1.07.03-.345zm56.69 0h-35.354l.017.07c5.334 21.873 12.52 30.59 26.47 30.954l.425.008.5.003c.5 0 .76-.106 1.23-.553 1-.94 2.075-2.8 3.073-5.646 1.896-5.4 3.123-13.368 3.596-23.762l.045-1.074z" class="G K"/><path d="M234.53 52.97c16.595 13.102 31.305 32.176 28.784 35.322-3.3 4.118-15.235 4.966-18.15 3.295-2.342-1.343-1.284.477-1.284 15.834m-45.595-12.88c19.428 14.4 40.993 16.243 62.292 11.87" class="B C E I"/><g stroke="#001d71" class="B C I"><path d="M219.092 131.53c4.162 16.64 13.984 27.125 24.384 41.052m-7.396-42.864c11.363 35.943 8.837 20.612 11.415 45.194m2.725-42.604c3.396 34.945 2.983 20.413 2.983 43.512m12.06-43.512l-7.782 47.785m18.3-46.49c-.934 16.94-5.402 30.446-13.88 45.063m25.423-46.75c-1.55 16.523-6.262 32.438-17.38 45.325"/><path d="M293.67 149.66c-13.737 18.403-15.397 24.042-35.93 28.878"/></g><path d="M199.674 88.525c-1.244 3.34-3.72 6.634-7.844 6.824" class="B C E I"/></g><path d="M1328.207 559.98l6.76 26.973c1.204 5.405 2.456 16.643 3.755 33.716 28.538-11.988 42.808-3.996 42.808 23.976s-14.27 37.462-42.808 28.47v107.142L1054.088 787V673.115c-31.042 7.492-45.31-1.998-42.808-28.47s16.773-34.465 42.808-23.976l5.257-60.69h268.862zm-231.312 35.964c-19.526 60.94-21.28 107.392-5.257 139.36 10.19 20.33 96.3 25.758 152.455 20.23 21.43-2.1 43.46-8.853 66.09-20.23 3.893-20.674 5.395-41.902 4.506-63.686s-4.143-43.512-9.763-65.184c-13.518-14.985-46.563-24.475-99.134-28.47s-88.87 1.998-108.897 17.982z" class="F"/><g class="G"><path d="M1182.93 688.797c.387.22.708.42.955.62a2.81 2.81 0 0 1 .48.483l.12.157c.12.17.17.303.393.926l.02.396c.013.298.014.524-.014.72l-.01.052.032.023.2.167c.56.506.96 1.2.97 2.106l-.005.207-.015.16.076.024c.98.313 1.77.903 2.2 1.67l.097.183.033.013a3.2 3.2 0 0 1 1.758 1.567l.096.2a2.66 2.66 0 0 1-.005 2.155l-.082.17-1.172 2.198-.012.115c-.162 1.25-1.08 2.307-2.57 2.464l-.207.016c-.542.026-.98-.047-1.632-.23l-.5-.148-1.104-.343-.495-.137-.103-.025-.123.263c-.673 1.444-1.16 2.173-2.307 2.815-20.968 11.73-45.426 17.912-64.77 14.484-2.253-.4-3.358-2.712-2.08-4.66.336-.5.795-.95 1.4-1.386l.103-.075-.102-.04c-.212-.1-.424-.218-.64-.392l-.163-.14c-1.194-1.088-1.1-2.474-.465-3.5.2-.326.424-.566.697-.806.526-.463 1.4-1.02 2.557-1.684a59.32 59.32 0 0 1 2.32-1.25l.7-.357-.408.088-1.37.285-1.506.3c-1.574.305-2.8.507-3.53.58-.343.034-.62.047-.9.03-.394-.027-.738-.095-1.17-.324-.14-.074-.272-.16-.394-.255l-.052-.044-.738.7-.548.533a2.661 2.661 0 1 1-3.722-3.804c8.435-8.253 18.043-15.354 26.883-19.418 10.904-5.013 20.382-5.362 27.3.225l.3.247a19.63 19.63 0 0 0 1.608 1.24l.23.15 2.376-.655c1.614-.445 2.924-.473 4.987-.165l.197.03.044-.005c2.057-.233 3.64-.1 6.132.415l.665.142.578-.185c1.42-.454 2.462-.595 3.886-.34.662.118 1.427.443 2.218.868l.298.164zm-5.546 14.156c-.538.042-.92.117-1.25.235l-.898.325c-4.02 1.467-5.744 2.3-9.782 4.598l-1.934 1.106-.746.415c-3.243 1.768-6.4 2.946-11.488 4.097l-1.497.328c-3.154.67-6.045 1.144-11.216 1.886l-4.28.6-7.623 1.2-.78.14.205.002c15.9.1 34.348-5.382 50.662-14.38l.485-.27.074-.136.072-.145zm-22.288-12.624l-.014-.01c-8.12-5.277-21.93-.378-36.22 10.84l-.24.188 1.945-.644c9.48-3.126 19.505-6.136 32.115-9.695l2.414-.68zm8.562 12.682l-4.788 1.38-4.455 1.3-10.877 3.232-4.126 1.213-2.008.583 2.88-.418c3.545-.528 5.878-.93 8.34-1.452l.943-.204 1.026-.232c4.147-.965 6.725-1.92 9.32-3.3l.312-.168.93-.52 1.763-1 .74-.42zm10.453-8.124c-1.067.173-2.064.168-3.257-.033l-.364-.066a11.43 11.43 0 0 0-2.58-.214l-.378.015c-.405.02-1.814.144-2.046.16-1.23.08-2.345.015-3.44-.254l-.177-.047-.416.1c-1.808.445-3.704.972-5.726 1.587l-1.614.5c-2.517.8-4.83 1.635-8.664 3.105l-6.425 2.476 1.807-.38 6.595-1.32 9.105-1.752 7.765-1.558 1.437-.304.223-.06 2.76-.746 1.756-.464a23.69 23.69 0 0 1 2.844-.56l.352-.044.688-.187-.247.044zm28.813-4.187l.2-.113.73-.424c1.87-1.063 2.843-1.423 4.152-1.13l1.094.24 5.943 1.08 2.266.36 2.28.156c4.746.335 8.286.665 11.545 1.116l.688.097 5.08-.008c2.062 0 3.636.022 5.225.08 7.2.262 13.45 1.318 20.9 3.797l.802.27a8.15 8.15 0 0 0 .621.178l.6.145 1.154.258c1.015.23 1.713.4 2.374.64 1.063.367 1.88.802 2.52 1.494 1.107 1.196 1.28 2.853.443 4.3-.92 1.6-2 2.365-3.785 2.82l-.092.022.146.072c.648.336 1.17.836 1.4 1.737l.046.215c.237 1.315-.356 2.196-1.173 2.763a3.71 3.71 0 0 1-.864.436c-.327.12-.73.233-1.25.354l-.27.06a46.87 46.87 0 0 1-1.278.263l-.364.07-.07.107c-.493.708-1.306 1.2-2.28 1.254l-.184.007c-1.042.014-2.052-.018-3.073-.1l-.795-.074 3.43.534.226.04.416.08a7.49 7.49 0 0 1 .345.077c.566.14.858.24 1.317.6 1.168.937 1.515 2.82.14 4.08a2.54 2.54 0 0 1-1.32.672c-.28.062-.57.1-.956.1l-1.534.063-.5.013-.012.107a2.83 2.83 0 0 1-.942 1.698l-.137.114c-.388.305-.793.485-1.255.62-11.6 3.363-23.027 2.477-34.648-2.06-9.286-3.625-18.18-9.254-28.907-17.678a2.66 2.66 0 0 1 3.146-4.289l.117.086.058-.132a2.8 2.8 0 0 1 .53-.763l.14-.133c.624-.56 1.193-.794 1.966-.822l.17-.003-.024-.106a2.64 2.64 0 0 1-.044-.334l-.003-.06-.068-.088-.113-.167a2.67 2.67 0 0 1-.417-1.23 2.69 2.69 0 0 1 .88-2.238c.54-.486 1.027-.66 1.547-.697l.114-.006.063-.036c.45-.25.954-.443 1.518-.6h.04zm8.677 18.038c4.284 2.608 8.392 4.68 12.547 6.303 6.918 2.7 13.7 3.975 20.46 3.7l.556-.028-1.314-.24-1.444-.25-3.862-.646c-5.772-.978-8.726-1.642-12.135-2.867l-1.12-.412c-3.4-1.27-8.227-3.246-12.817-5.23l-1.206-.524.333.205zm27.906-6.497l1.743.8c2.613 1.187 4.087 1.77 5.865 2.3l1.182.354a107.94 107.94 0 0 0 4.616 1.27l.3.075-.458-.226a26.15 26.15 0 0 0-2.049-.878l-.512-.187c-2.992-1.054-6.048-2.067-9.24-3.065l-1.456-.452z" class="H"/><path d="M1155.364 657.928c5.784-1.792 10.428-.738 18.07 2.9l3.558 1.73.207.098a2.661 2.661 0 1 1-2.278 4.81l-1.986-.963-.887-.435c-7.064-3.454-10.793-4.403-15.107-3.066-2.943.912-4.012 7.578-3.53 15.128.576 9 12.993 13.795 21.686 9.457a2.661 2.661 0 0 1 2.377 4.762c-11.768 5.874-28.524-.583-29.374-13.88-.215-3.37-.18-6.763.348-10.06.87-5.43 2.94-9.26 6.918-10.492zm55.854 11.272c5.702-5.14 10.86-7.563 15.26-7.206 4.315.35 7.38 3.328 8.563 7.7 2.27 8.406-2.493 19.053-11.575 23.05-2.658 1.17-5.3 1.746-8.203 1.878l-.547.02c-1.894.05-3.24-.03-6.505-.34l-2.406-.227-1.263-.103a2.661 2.661 0 0 1 .392-5.308l1.096.088 1.582.146 2.355.22c2.157.192 3.24.238 4.6.202 2.46-.065 4.6-.5 6.747-1.448 6.62-2.912 10.178-10.87 8.58-16.8l-.104-.358c-1.56-4.96-6.6-5.176-15.017 2.422a2.661 2.661 0 1 1-3.564-3.953z" class="F"/></g><path d="M1123.142 640.815c-1.5-26.347 21.8-33.052 28.26-8.8 4.928 18.502-21.933 20.257-30.4 8.8m89.998 3.86c.47-5.554.123-11.23 1.4-16.662 5.585-23.564 36.084-.702 19.9 18.988" class="H"/><path d="M1217.177 635.608l.028.474.04.853c.09 2.266.048 4.503-.103 7.435l-.27 4.767-.207 4.325-.59 8.803-.025.273c-1.204 12.898-3.956 22.342-9.685 29.81-8.506 11.085-18.467 11.007-25.59 1.742-5.9-7.686-8.72-20.408-6.528-30.2l.4-1.768c4.177-18.325 7.132-26.07 10.178-28.27l.107-.076-.045-.742-.468-6.61a2.66 2.66 0 1 1 5.31-.361l.488 6.905c.065 1.02.084 1.6.064 2.065l-.005.106c-.08 1.353-.63 2.456-1.998 2.984-.073.028-.172.06-.272.09l-.2.055-.13.16a5.95 5.95 0 0 0-.194.272l-.08.12c-.467.716-1.012 1.82-1.628 3.37l-.133.34c-1.737 4.473-3.792 11.79-6.196 22.523-1.85 8.252.606 19.36 5.553 25.793 5.006 6.5 10.787 6.556 17.15-1.737 4.897-6.383 7.392-14.745 8.542-26.376l.16-1.73c.2-2.3.334-4.38.507-7.84l.23-4.78.214-3.667c.188-3.45.23-5.85.097-8.35-.385-7.188 4.774-8.94 5.287-.76z" class="F G"/><path d="M1168.242 570c6.326 0 12.75.457 19.27 1.37l1.224.177a6 6 0 0 1 5.043 4.956c1.93 11.72 2.714 23.662 2.347 35.826 1.7 1.233 3.942.95 6.726-.845-.306-11.872.485-23.532 2.37-34.98a6 6 0 0 1 4.841-4.923l.203-.034 1.224-.177c6.52-.914 12.944-1.37 19.27-1.37l1.487.007c8.308.076 25.104.748 50.386 2.016a6.76 6.76 0 0 1 5.978 4.336l.074.204.25.73c3.775 11.237 5.663 23.79 5.663 37.66 0 13.235-1.76 24.757-5.276 34.567a9.01 9.01 0 0 1-8.164 5.957l-.235.005-3.62.03c-7.11.047-13.464.022-19.06-.074l-3.226-.057-39.548-.015c-4.3.025-8.006-2.982-8.875-7.162l-.044-.225-.206-1.15c-1.026-5.83-1.836-11.878-2.43-18.143-2.883-3.094-5.845-3.334-8.888-.72a201.03 201.03 0 0 1-3.786 22.485l-.29 1.263c-.922 3.95-4.382 6.796-8.445 6.945l-17.994.637-20.507.6-2.625.048-20.075.05-1.818-.016a9.01 9.01 0 0 1-8.388-5.929c-4.462-12.29-6.693-25.323-6.693-39.097 0-13.87 1.888-26.423 5.663-37.66l.25-.73c.9-2.604 3.294-4.402 6.052-4.54l8.527-.42 43.346-1.603zm-7.5 7.492l-1.183.044c-7.523.31-18.066 1.27-31.63 2.885l-2.206.265a3 3 0 0 0-2.628 2.69l-.172 1.835c-2.738 29.79-1.898 50.443 2.52 61.96 1.96 5.11 21.237 5.86 57.828 2.248l.33-2.79c1.95-16.72 2.822-28.986 2.61-36.797l-.01-.318c-.257-8.215-1.234-18.4-2.933-30.525-6.64-1.277-14.152-1.776-22.53-1.498zm69.093 0l-.812-.025c-7.87-.22-12.295.288-13.273 1.523l-.227 1.643c-1.56 11.414-2.46 21.04-2.705 28.883l-.02.758c-.18 8.206.743 20.256 2.768 36.15 38.093 2.114 58.12.616 60.08-4.495 4.5-11.727 4.636-31.272.41-58.634a3 3 0 0 0-2.695-2.528l-6.67-.6c-17.378-1.543-29.664-2.433-36.858-2.672z" class="K"/><path d="M1163.646 719.318a2.66 2.66 0 0 1 3.744-.381c5.064 4.13 12.075 5.885 21.21 5.84l.896-.01c3.883-.063 7.785-.413 13.372-1.107l5.223-.652c6.362-.778 7.662-.823 10.12-.58 3.32.33 3.47 4.453 1.58 6.177l-.062.053-3.292 3.28a2.66 2.66 0 0 1-.348.292l-.192.123c-2.753 1.602-5.46 2.7-8.185 3.168-1.472.258-2.836.165-4.974-.205l-1.498-.27-.322-.055.282.14c1.4.708 2.28 1.314 3.004 2.168l.143.174c2.627 3.32 2.667 6.663-.15 8.793-1.726 1.305-4.264 1.927-7.594 2.2-1.704.135-3.334.16-5.327.122l-1.884-.04a2.66 2.66 0 0 1-.294-5.314c.128-.007.264-.01.443-.008l1.253.028c2.11.05 3.74.036 5.4-.094 2.27-.18 3.964-.577 4.704-1.06l.07-.05c-.074-.224-.275-.598-.662-1.108l-.122-.157c-.208-.263-.887-.676-2.19-1.29l-1.64-.76-.138-.066c-1.325-.64-2.17-1.16-2.842-1.905-1.3-1.44-1.406-3.397-.13-4.988a5.99 5.99 0 0 1 2.821-1.971l.2-.067-.054.005c-2.53.218-4.8.335-7.086.36l-.493.004c-10.257.052-18.414-1.99-24.6-7.036a2.66 2.66 0 0 1-.381-3.744zm49.285 8.6l.115-.114-.92.094-2.045.232-7.27.9-1.95.23-1.467.163.14.01c.567.04 1.188.125 2.012.264l1.728.3c1.783.322 2.763.405 3.52.273 1.904-.334 3.895-1.105 5.98-2.27l.16-.092z" class="F G"/><g transform="matrix(.965926 -.258819 .258819 .965926 697.282927 864.276424)"><path d="M49.854 33.186C10.42 118.144-5.55 177.124 1.944 210.124 63.81 259.34 130.46 277.2 201.9 263.7c38.007-76.176 50.267-125.513 36.78-148.013 32.468 8.5 51.95 5 58.443-10.5s-19.48-33.25-77.924-53.25c-39.34-10.053-70.06-16.303-92.16-18.75s-47.826-2.447-77.175 0z" fill="#7ee081"/><g class="B C D"><path d="M58 49.232c2.18-14.72 20.998-38.77 34.377-44.428 3.522-1.49 7.2-2.63 10.954-3.404 2.408-.497 6.42-2.65 7.366-.378 6.942 16.672-25.69 43.698-38.152 47.263-1.1.312-.267-2.36.187-3.4 1.346-3.08 2.813-6.236 5.1-8.7 11.7-12.616 26.997-27.975 45.14-31.38 1.61-.302 4.3-1.516 4.912 0 4.93 12.003-6.625 31.57-17.565 37.242-4.803 2.5-10.968 10.696-14.733 6.808-3.622-3.74 5.23-9.14 8.878-12.856 6.948-7.08 14.53-13.605 22.664-19.282 4.253-2.97 9.212-4.9 14.168-6.43 4.322-1.333 8.903-2.477 13.408-2.078 1.234.11 1.377 2.167 1.51 3.4 1.897 17.377-17.6 34.2-31.732 40.27-1.33.573-.467-2.976 0-4.348.586-1.72 1.827-3.17 3.023-4.54 3.225-3.69 6.61-7.25 10.198-10.586 1.78-1.656 3.757-3.12 5.855-4.348 7.174-4.2 14.162-8.905 21.912-11.912 3.656-1.42 8.487-3.372 11.7-1.135 2.535 1.76 1.11 6.384 0 9.265-4.922 12.76-8.74 19.743-18.698 26.655-3.82 2.65-9.048 5.367-13.977 4.917-.618-.056.37-1.218.756-1.704 4.538-5.707 9.075-11.428 13.977-16.825 5.18-5.704 10.55-11.254 16.24-16.447 1.46-1.333 3.18-2.57 5.103-3.026 5.372-1.273 11.36-4.263 16.43-2.078 2.776 1.196.836 6.228-.19 9.074-2.275 6.302-10.99 18.593-16.618 23.064-12.653 10.053-12.427 1.75-6.8-4.348 7.067-7.66 14.063-15.528 22.286-21.93 2.766-2.153 6.56-2.602 10.01-3.213 2.666-.472 5.664-1.136 8.122 0 1.465.677 1.534 2.932 1.698 4.54.347 3.386 1.085 7.052-.187 10.208-4.502 11.17-17.492 24.318-29.843 25.142" stroke="#001c6c"/><path d="M193 67.942c2.33 4.16 4.2 8.62 6.988 12.478 7.165 9.88 22.087 6.3 23.797-5.86.763-5.43.504-10.965.378-16.447-.006-.252-.504 0-.756 0M201.28 160.865c17.15 16.082 32.735 2 48.92-8.32" stroke="#fff"/><path d="M243.334 177.478c8.336 3.503 6.58 1.255 10.763 12.478 1.672 4.486 3.27 9.067 3.97 13.803.636 4.3.752 8.76 0 13.043-1.385 7.882-18.685 11.894-23.045 5.104-6.8-10.588-8.516-16.252-9.63-28.924-.233-2.648-1.052-6 .756-7.94 1.5-1.616 5.014-1.52 6.6 0a33.11 33.11 0 0 1 8.874 14.747c1.88 6.682 1.624 13.87 1.134 20.795-.443 6.246-11.908 16.898-17.374 9.265-4.354-6.08-6.336-13.014-6.988-20.42-.597-6.78-1.635-13.727-.378-20.416 2.078-11.06 6.067 1.215 6.6 5.67.887 7.26 1.268 14.654.565 21.933-.568 5.887-2.55 11.568-4.343 17.203-.488 1.533-1.317 3.02-2.454 4.157s-2.582 2.127-4.156 2.46c-1.852.393-4.098.68-5.668-.378-1.564-1.056-2.238-3.228-2.454-5.104-1.497-13-2.832-26.063-2.645-39.136.016-1.1 2.998-1.633 3.214-.565 2.933 14.514-.74 22.925-7.18 35.92-1.263 2.55-6.5 8.84-10.767 6.617-6.914-3.612-2.398-34.7 4.912-38.945.6-.35 1.952-.872 2.076-.187 2.115 11.644-4.408 23.754-12.652 31.572-1.92 1.82-15.4 7.648-16.8 4.157-4.758-11.713-.52-33.305 10.198-40.646.735-.503 2.5-1.258 2.645-.378 2.782 16.72-4.573 18.166-18.32 29.872-2.237 1.905-5.948 6.994-7.557 4.535l-3.588.756c-6.15-9.4 17.274-26.34 17.755-40.455.045-1.328-1.153 2.45-2.08 3.4-4.012 4.118-8.435 7.814-12.652 11.72m89.165-85.96c3.64 1.55 2.872.555 4.698 5.518.73 1.984 1.427 4 1.733 6.104.278 1.902.328 3.875 0 5.768-.605 3.486-8.156 5.26-10.06 2.257-2.968-4.683-3.717-7.187-4.203-12.792-.102-1.17-.46-2.65.33-3.5.655-.715 2.2-.672 2.886 0a14.68 14.68 0 0 1 3.873 6.522c.82 2.955.7 6.134.495 9.196-.193 2.762-5.198 7.473-7.584 4.097-1.9-2.7-2.766-5.755-3.05-9.03-.26-3-.714-6.07-.165-9.03.907-4.9 2.648.537 2.886 2.507.387 3.2.553 6.48.247 9.7-.248 2.604-1.113 5.116-1.896 7.608-.213.678-.575 1.335-1.07 1.838s-1.127.94-1.814 1.088c-.8.174-1.8.3-2.474-.167s-.977-1.428-1.07-2.257c-.654-5.744-1.236-11.526-1.155-17.308.007-.48 1.3-.722 1.403-.25 1.28 6.42-.323 10.14-3.134 15.885-.55 1.127-2.842 3.9-4.7 2.926-3.018-1.597-1.047-15.346 2.144-17.224.262-.154.852-.385.906-.083.923 5.15-1.924 10.505-5.523 13.963-.838.805-6.718 3.382-7.337 1.838-2.077-5.18-.227-14.73 4.452-17.975.32-.223 1.1-.556 1.155-.167 1.214 7.394-1.996 8.034-7.997 13.2-.976.842-2.596 3.093-3.3 2.006l-1.566.335c-2.685-4.157 7.54-11.65 7.75-17.9.02-.587-.503 1.083-.908 1.504-1.75 1.82-3.682 3.456-5.523 5.184" stroke="#001c6c"/></g></g><g transform="matrix(-1 0 0 1 317 541)"><path d="M56.142 79.815c-1.5-26.347 21.8-33.052 28.26-8.8 4.928 18.502-21.933 20.257-30.4 8.8" class="H"/><path d="M90.432-.032c8.98 0 18.1.65 27.356 1.948l1.737.25c3.665.545 6.56 3.393 7.16 7.046 2.742 16.663 3.852 33.64 3.332 50.934 2.413 1.752 5.596 1.35 9.55-1.202-.434-16.88.688-33.456 3.366-49.732.585-3.557 3.344-6.35 6.872-7l.288-.048 1.737-.25c9.257-1.3 18.376-1.948 27.356-1.948l2.11.01c11.795.108 35.638 1.064 71.53 2.866 3.81.19 7.136 2.62 8.486 6.165l.105.3.353 1.04c5.36 15.976 8.04 33.823 8.04 53.543 0 18.816-2.497 35.197-7.5 49.145-1.767 4.937-6.367 8.284-11.6 8.47l-.334.008-5.137.042c-10.095.066-19.113.03-27.057-.106l-4.58-.08-56.143-.02c-6.104.035-11.366-4.24-12.6-10.182l-.062-.32-.292-1.634c-1.456-8.29-2.606-16.887-3.45-25.794-4.092-4.4-8.298-4.74-12.617-1.023-1.175 10.682-2.967 21.337-5.375 31.968l-.413 1.796c-1.31 5.617-6.22 9.662-11.99 9.874l-25.545.906-29.112.85-3.727.068-28.5.07-2.58-.023c-5.34-.05-10.088-3.41-11.907-8.43C2.975 101.993-.192 83.464-.192 63.88c0-19.72 2.68-37.567 8.04-53.543L8.2 9.3c1.276-3.703 4.677-6.258 8.59-6.455l12.105-.598L90.432-.032zm-10.78 10.106l-1.677.063c-10.665.44-25.613 1.814-44.842 4.12l-3.127.378a4.27 4.27 0 0 0-3.726 3.841l-.244 2.62c-3.882 42.53-2.7 72.016 3.575 88.46 2.78 7.297 30.108 8.367 81.984 3.21l.47-3.98c2.766-23.872 4-41.383 3.702-52.534l-.013-.455c-.364-11.728-1.75-26.255-4.157-43.58-9.416-1.823-20.063-2.536-31.942-2.14zm98.324 1l-1.15-.035c-11.15-.31-17.418.408-18.803 2.156l-.322 2.325c-2.208 16.158-3.486 29.787-3.833 40.887l-.028 1.073c-.255 11.617 1.052 28.675 3.922 51.174 53.966 2.993 82.338.87 85.116-6.364 6.374-16.6 6.568-44.27.582-83.005a4.25 4.25 0 0 0-3.818-3.579l-9.448-.85c-24.62-2.184-42.025-3.444-52.217-3.782z" class="J"/><path d="M105.375 12.52l194.25 13.53c1.9 7.445 2.96 45.128 3.182 113.05l-3.182 71.112c-66.5 9.52-152.25 9.52-257.25 0C38.9 144.727 59.457 79.486 104.017 14.49l1.358-1.97z" class="K"/><g class="E B C D"><path d="M196 189.7c20.95-9.986 31.325-8.537 51.252 2.516M45 162.516c20.95 9.986 31.325 8.537 51.252-2.516"/><path d="M116.935 16c-.215 12.262-7.018 58.715 6.237 76.594C155.716 136.492 239.12 190.524 289 144.33"/><path d="M122.38 117.306c3.16-8.323 5.434-15.533 15.343-20.922 5.495-2.99 12.626-1.964 18.752-.698 5.262 1.087 10.542 3.637 14.26 7.516 16.62 17.346 1.243 43.32-18.91 46.65-7.4 1.222-27.04 3.848-31.383-6.5" fill="#ff4445"/><path d="M169 20c15.666 46.232 31.98 83.602 75.24 106.822 14.95 8.025 49.843 26.862 64.76 8.18M234 12c10.944 51.387 25.84 109.575 80 119"/></g></g><g transform="matrix(-1 0 0 1 580 787)"><path d="M40.238 104.1C66.708 71.08 116.48 66.64 158.08 68.296c34.257 1.365 49.84 8.32 65.907 28.595C227.432 101.237 245 77 259 105s-16.43 20.69-14.117 27.158c8.11 22.668 3.248 41.837-5.982 60.21-27.8 55.335-158.91 72.377-202.3 20.32-14.782-17.74-14.2-42.266-10.107-65.1C27.744 140.657-8 158 2 122s31.537-5.182 32.656-9.945l5.582-7.956z" class="J"/><g class="B C D E"><path d="M108.675 105.07c.59 13.923-3.153 42.227 17.872 44.406 6.857.71 13.81.293 20.678-.296 6.626-.568 9.212-3.724 14.472-7.55"/><path d="M122.115 104.773c.697 17.196-2.197 35.032 11.52 47.8 8.233 7.67 29.54-.847 29.54-11.25"/><path d="M135.26 115.135c-.975 10.26 12.903 51.905 29.246 35.525"/></g><path d="M102.56 48.52c-5.434-10.502-8.098-23.752-1.126-34.737 10.458-16.477 32.684-20.134 41.287-.133 6.675 15.52-9.455 34.702-9.01 36.633 2.525 10.993 38.31-33.082 31.41-9.522-8.617 29.413-57.395 34.394-78.76 17.898s-1.23-16.295 11.784-10.183l4.418.044z" fill="#001d71"/></g></g></svg>