<?xml version="1.0" encoding="UTF-8"?>
<svg width="1378px" height="990px" viewBox="0 0 1378 990" version="1.1" xmlns="http://www.w3.org/2000/svg" xmlns:xlink="http://www.w3.org/1999/xlink">
    <title>glueup-survey-analytics</title>
    <defs>
        <filter x="-17.4%" y="-21.3%" width="134.9%" height="142.5%" filterUnits="objectBoundingBox" id="filter-1">
            <feOffset dx="0" dy="24" in="SourceAlpha" result="shadowOffsetOuter1"></feOffset>
            <feGaussianBlur stdDeviation="16" in="shadowOffsetOuter1" result="shadowBlurOuter1"></feGaussianBlur>
            <feColorMatrix values="0 0 0 0 0.3515625   0 0 0 0 0.3515625   0 0 0 0 0.3515625  0 0 0 0.1 0" type="matrix" in="shadowBlurOuter1" result="shadowMatrixOuter1"></feColorMatrix>
            <feMerge>
                <feMergeNode in="shadowMatrixOuter1"></feMergeNode>
                <feMergeNode in="SourceGraphic"></feMergeNode>
            </feMerge>
        </filter>
        <filter x="-17.1%" y="-21.5%" width="134.1%" height="143.0%" filterUnits="objectBoundingBox" id="filter-2">
            <feOffset dx="0" dy="24" in="SourceAlpha" result="shadowOffsetOuter1"></feOffset>
            <feGaussianBlur stdDeviation="16" in="shadowOffsetOuter1" result="shadowBlurOuter1"></feGaussianBlur>
            <feColorMatrix values="0 0 0 0 0.3515625   0 0 0 0 0.3515625   0 0 0 0 0.3515625  0 0 0 0.1 0" type="matrix" in="shadowBlurOuter1" result="shadowMatrixOuter1"></feColorMatrix>
            <feMerge>
                <feMergeNode in="shadowMatrixOuter1"></feMergeNode>
                <feMergeNode in="SourceGraphic"></feMergeNode>
            </feMerge>
        </filter>
        <path d="M121.02968,0.00535798339 C54.4969191,0.00535798339 0.561459728,53.9290648 0.561459728,120.447328 C0.561459728,186.965592 54.4969191,240.889298 121.02968,240.889298 C187.562441,240.889298 241.4979,186.965592 241.4979,120.447328 C241.4979,53.9290648 187.562441,0.00535798339 121.02968,0.00535798339 Z M119.35651,43.4982917 C160.939486,43.4982917 194.649148,77.2006084 194.649148,118.774523 C194.649148,160.348438 160.939486,194.050754 119.35651,194.050754 C77.7735347,194.050754 44.0638726,160.348438 44.0638726,118.774523 C44.0638726,77.2006084 77.7735347,43.4982917 119.35651,43.4982917 Z" id="path-3"></path>
        <path d="M121.02968,0.00535798339 C54.4969191,0.00535798339 0.561459728,53.9290648 0.561459728,120.447328 C0.561459728,186.965592 54.4969191,240.889298 121.02968,240.889298 C187.562441,240.889298 241.4979,186.965592 241.4979,120.447328 C241.4979,53.9290648 187.562441,0.00535798339 121.02968,0.00535798339 Z M119.35651,43.4982917 C160.939486,43.4982917 194.649148,77.2006084 194.649148,118.774523 C194.649148,160.348438 160.939486,194.050754 119.35651,194.050754 C77.7735347,194.050754 44.0638726,160.348438 44.0638726,118.774523 C44.0638726,77.2006084 77.7735347,43.4982917 119.35651,43.4982917 Z" id="path-5"></path>
    </defs>
    <g id="Features" stroke="none" stroke-width="1" fill="none" fill-rule="evenodd">
        <g id="Group-134" transform="translate(-0.000000, 81.000000)">
            <g id="Group-133" transform="translate(240.000000, 0.000000)">
                <g id="Group-29" filter="url(#filter-1)" transform="translate(432.000000, 273.000000)">
                    <g id="Group-20">
                        <rect id="Rectangle" stroke="#F4F2EE" fill="#FFFFFF" x="0" y="0.395774216" width="625" height="509.704951"></rect>
                        <path d="M117.620656,138.917548 L117.620656,131.972516 C121.098777,131.453954 123.596364,130.305708 125.113417,128.52778 C126.63047,126.749852 127.388996,124.638562 127.388996,122.193911 C127.388996,120.564144 127.102236,119.156617 126.528716,117.971332 C125.955196,116.786046 125.168919,115.758181 124.169884,114.887737 C123.170849,114.017293 121.996059,113.25797 120.645512,112.609767 C119.294965,111.961564 117.861165,111.341141 116.344112,110.748498 C115.271075,110.378097 114.309041,110.016955 113.458012,109.665073 C112.606982,109.313192 111.885457,108.94279 111.293436,108.553868 C110.701416,108.164947 110.2574,107.720465 109.96139,107.220422 C109.66538,106.72038 109.517375,106.099957 109.517375,105.359154 C109.517375,104.099788 110.016892,103.108963 111.015927,102.38668 C112.014961,101.664397 113.513514,101.303255 115.511583,101.303255 C117.398649,101.303255 119.072957,101.488456 120.534508,101.858858 C121.996059,102.229259 123.263353,102.618181 124.33639,103.025623 L124.33639,103.025623 L125.723938,97.5251577 C124.90991,97.1917962 123.799871,96.8491746 122.393822,96.497293 C120.987773,96.1454113 119.396718,95.8953902 117.620656,95.7472295 L117.620656,95.7472295 L117.620656,89.7467219 L111.848456,89.7467219 L111.848456,95.9694705 C108.703346,96.4880329 106.372265,97.6455382 104.855212,99.4419865 C103.33816,101.238435 102.579633,103.414545 102.579633,105.970316 C102.579633,107.526004 102.857143,108.84093 103.412162,109.915095 C103.967181,110.98926 104.697957,111.906004 105.604488,112.665327 C106.51102,113.424651 107.528555,114.063594 108.657095,114.582156 C109.785634,115.100718 110.923423,115.563721 112.070463,115.971162 C113.291506,116.415644 114.410795,116.841606 115.42833,117.249048 C116.445866,117.65649 117.324646,118.100972 118.064672,118.582494 C118.804698,119.064017 119.378218,119.619619 119.785232,120.249302 C120.192246,120.878985 120.395753,121.619788 120.395753,122.471712 C120.395753,123.731078 119.905486,124.740423 118.924952,125.499746 C117.944418,126.25907 116.177606,126.638731 113.624517,126.638731 C111.478443,126.638731 109.563626,126.39797 107.880068,125.916448 C106.196509,125.434926 104.762709,124.897843 103.578668,124.305201 L103.578668,124.305201 L101.691602,129.583425 C102.505631,130.027907 103.735923,130.518689 105.382481,131.055772 C107.029038,131.592854 109.184363,131.953996 111.848456,132.139197 L111.848456,132.139197 L111.848456,138.917548 L117.620656,138.917548 Z" id="$" fill="#F4F2EE" fill-rule="nonzero"></path>
                        <path d="M250.342664,177.56816 L250.342664,170.623128 C253.820785,170.104566 256.318372,168.956321 257.835425,167.178393 C259.352477,165.400464 260.111004,163.289175 260.111004,160.844523 C260.111004,159.214756 259.824244,157.807229 259.250724,156.621944 C258.677204,155.436659 257.890927,154.408794 256.891892,153.53835 C255.892857,152.667906 254.718066,151.908582 253.367519,151.260379 C252.016972,150.612176 250.583172,149.991754 249.06612,149.399111 C247.993082,149.028709 247.031049,148.667567 246.180019,148.315686 C245.32899,147.963804 244.607465,147.593403 244.015444,147.204481 C243.423423,146.815559 242.979408,146.371077 242.683398,145.871035 C242.387387,145.370992 242.239382,144.750569 242.239382,144.009766 C242.239382,142.7504 242.7389,141.759576 243.737934,141.037292 C244.736969,140.315009 246.235521,139.953867 248.233591,139.953867 C250.120656,139.953867 251.794965,140.139068 253.256515,140.50947 C254.718066,140.879872 255.98536,141.268793 257.058398,141.676235 L257.058398,141.676235 L258.445946,136.17577 C257.631918,135.842409 256.521879,135.499787 255.11583,135.147905 C253.709781,134.796024 252.118726,134.546003 250.342664,134.397842 L250.342664,134.397842 L250.342664,128.397334 L244.570463,128.397334 L244.570463,134.620083 C241.425354,135.138645 239.094273,136.296151 237.57722,138.092599 C236.060167,139.889047 235.301641,142.065157 235.301641,144.620929 C235.301641,146.176616 235.579151,147.491542 236.13417,148.565707 C236.689189,149.639872 237.419965,150.556616 238.326496,151.31594 C239.233028,152.075263 240.250563,152.714206 241.379102,153.232768 C242.507642,153.751331 243.645431,154.214333 244.792471,154.621775 C246.013514,155.066257 247.132802,155.492219 248.150338,155.899661 C249.167873,156.307103 250.046654,156.751585 250.78668,157.233107 C251.526705,157.714629 252.100225,158.270232 252.507239,158.899914 C252.914254,159.529597 253.117761,160.270401 253.117761,161.122325 C253.117761,162.38169 252.627494,163.391035 251.646959,164.150359 C250.666425,164.909682 248.899614,165.289344 246.346525,165.289344 C244.20045,165.289344 242.285634,165.048583 240.602075,164.567061 C238.918517,164.085538 237.484717,163.548456 236.300676,162.955813 L236.300676,162.955813 L234.41361,168.234037 C235.227638,168.678519 236.457931,169.169302 238.104488,169.706384 C239.751046,170.243467 241.906371,170.604608 244.570463,170.789809 L244.570463,170.789809 L244.570463,177.56816 L250.342664,177.56816 Z" id="$" fill="#F4F2EE" fill-rule="nonzero"></path>
                        <path d="M383.064672,160.658517 L383.064672,153.713485 C386.542793,153.194923 389.04038,152.046678 390.557432,150.26875 C392.074485,148.490821 392.833012,146.379532 392.833012,143.934881 C392.833012,142.305113 392.546252,140.897587 391.972732,139.712301 C391.399212,138.527016 390.612934,137.499151 389.6139,136.628707 C388.614865,135.758263 387.440074,134.998939 386.089527,134.350736 C384.73898,133.702533 383.30518,133.082111 381.788127,132.489468 C380.71509,132.119066 379.753057,131.757925 378.902027,131.406043 C378.050997,131.054161 377.329472,130.68376 376.737452,130.294838 C376.145431,129.905916 375.701416,129.461434 375.405405,128.961392 C375.109395,128.461349 374.96139,127.840927 374.96139,127.100123 C374.96139,125.840757 375.460907,124.849933 376.459942,124.127649 C377.458977,123.405366 378.957529,123.044225 380.955598,123.044225 C382.842664,123.044225 384.516972,123.229425 385.978523,123.599827 C387.440074,123.970229 388.707368,124.359151 389.780405,124.766592 L389.780405,124.766592 L391.167954,119.266127 C390.353925,118.932766 389.243887,118.590144 387.837838,118.238262 C386.431789,117.886381 384.840734,117.63636 383.064672,117.488199 L383.064672,117.488199 L383.064672,111.487691 L377.292471,111.487691 L377.292471,117.71044 C374.147362,118.229002 371.816281,119.386508 370.299228,121.182956 C368.782175,122.979404 368.023649,125.155514 368.023649,127.711286 C368.023649,129.266973 368.301158,130.581899 368.856178,131.656064 C369.411197,132.730229 370.141972,133.646973 371.048504,134.406297 C371.955035,135.16562 372.972571,135.804563 374.10111,136.323126 C375.229649,136.841688 376.367439,137.30469 377.514479,137.712132 C378.735521,138.156614 379.85481,138.582576 380.872346,138.990018 C381.889881,139.39746 382.768662,139.841942 383.508687,140.323464 C384.248713,140.804986 384.822233,141.360589 385.229247,141.990272 C385.636261,142.619954 385.839768,143.360758 385.839768,144.212682 C385.839768,145.472048 385.349501,146.481392 384.368967,147.240716 C383.388433,148.000039 381.621622,148.379701 379.068533,148.379701 C376.922458,148.379701 375.007642,148.13894 373.324083,147.657418 C371.640524,147.175895 370.206725,146.638813 369.022683,146.04617 L369.022683,146.04617 L367.135618,151.324394 C367.949646,151.768876 369.179939,152.259659 370.826496,152.796741 C372.473053,153.333824 374.628378,153.694965 377.292471,153.880166 L377.292471,153.880166 L377.292471,160.658517 L383.064672,160.658517 Z" id="$" fill="#F4F2EE" fill-rule="nonzero"></path>
                        <path d="M515.78668,153.411528 L515.78668,146.466496 C519.264801,145.947933 521.762387,144.799688 523.27944,143.02176 C524.796493,141.243832 525.555019,139.132542 525.555019,136.687891 C525.555019,135.058123 525.268259,133.650597 524.694739,132.465311 C524.121219,131.280026 523.334942,130.252161 522.335907,129.381717 C521.336873,128.511273 520.162082,127.75195 518.811535,127.103747 C517.460988,126.455544 516.027188,125.835121 514.510135,125.242478 C513.437098,124.872076 512.475064,124.510935 511.624035,124.159053 C510.773005,123.807171 510.05148,123.43677 509.459459,123.047848 C508.867439,122.658926 508.423423,122.214444 508.127413,121.714402 C507.831403,121.21436 507.683398,120.593937 507.683398,119.853133 C507.683398,118.593768 508.182915,117.602943 509.18195,116.88066 C510.180985,116.158376 511.679537,115.797235 513.677606,115.797235 C515.564672,115.797235 517.23898,115.982436 518.700531,116.352837 C520.162082,116.723239 521.429376,117.112161 522.502413,117.519603 L522.502413,117.519603 L523.889961,112.019137 C523.075933,111.685776 521.965894,111.343154 520.559846,110.991273 C519.153797,110.639391 517.562741,110.38937 515.78668,110.241209 L515.78668,110.241209 L515.78668,104.240702 L510.014479,104.240702 L510.014479,110.46345 C506.869369,110.982013 504.538288,112.139518 503.021236,113.935966 C501.504183,115.732414 500.745656,117.908524 500.745656,120.464296 C500.745656,122.019983 501.023166,123.334909 501.578185,124.409074 C502.133205,125.483239 502.86398,126.399983 503.770512,127.159307 C504.677043,127.91863 505.694579,128.557573 506.823118,129.076136 C507.951657,129.594698 509.089447,130.0577 510.236486,130.465142 C511.457529,130.909624 512.576818,131.335586 513.594353,131.743028 C514.611889,132.15047 515.490669,132.594952 516.230695,133.076474 C516.970721,133.557996 517.544241,134.113599 517.951255,134.743282 C518.358269,135.372965 518.561776,136.113768 518.561776,136.965692 C518.561776,138.225058 518.071509,139.234402 517.090975,139.993726 C516.110441,140.753049 514.343629,141.132711 511.790541,141.132711 C509.644466,141.132711 507.729649,140.89195 506.046091,140.410428 C504.362532,139.928906 502.928732,139.391823 501.744691,138.79918 L501.744691,138.79918 L499.857625,144.077405 C500.671654,144.521887 501.901947,145.012669 503.548504,145.549751 C505.195061,146.086834 507.350386,146.447976 510.014479,146.633176 L510.014479,146.633176 L510.014479,153.411528 L515.78668,153.411528 Z" id="$" fill="#F4F2EE" fill-rule="nonzero"></path>
                        <line x1="28.957529" y1="417.909746" x2="597.249035" y2="419.117578" id="Line" stroke="#F4F2EE" stroke-width="1.05300007" stroke-linecap="square" stroke-linejoin="round"></line>
                        <rect id="Rectangle" fill="#EAEAEA" x="79.6332046" y="429.988063" width="69.980695" height="14.4939796" rx="3"></rect>
                        <rect id="Rectangle" fill="#EAEAEA" x="212.355212" y="429.988063" width="69.980695" height="14.4939796" rx="3"></rect>
                        <rect id="Rectangle" fill="#EAEAEA" x="345.07722" y="429.988063" width="69.980695" height="14.4939796" rx="3"></rect>
                        <rect id="Rectangle" fill="#EAEAEA" x="477.799228" y="429.988063" width="69.980695" height="14.4939796" rx="3"></rect>
                        <g id="Group-9" transform="translate(69.980695, 157.018113)">
                            <rect id="Rectangle" fill="#00C15A" x="0" y="115.951837" width="89.2857143" height="142.524133"></rect>
                            <rect id="Rectangle" fill="#FF9D00" x="0" y="26.572296" width="89.2857143" height="89.3795411"></rect>
                            <rect id="Rectangle" fill="#FF0034" x="0" y="0" width="89.2857143" height="26.572296"></rect>
                        </g>
                        <g id="Group-9" transform="translate(202.702703, 200.500052)">
                            <rect id="Rectangle" fill="#00C15A" x="1.20024111e-12" y="99.0421942" width="89.2857143" height="115.951837"></rect>
                            <rect id="Rectangle" fill="#FF9D00" x="1.20024111e-12" y="21.7409695" width="89.2857143" height="77.3012248"></rect>
                            <rect id="Rectangle" fill="#FF0034" x="1.20024111e-12" y="0" width="89.2857143" height="21.7409695"></rect>
                        </g>
                        <g id="Group-9" transform="translate(335.424710, 186.006072)">
                            <rect id="Rectangle" fill="#00C15A" x="0" y="62.8072451" width="89.2857143" height="166.680766"></rect>
                            <rect id="Rectangle" fill="#FF9D00" x="0" y="24.1566327" width="89.2857143" height="70.0542349"></rect>
                            <rect id="Rectangle" fill="#FF0034" x="0" y="0" width="89.2857143" height="24.1566327"></rect>
                        </g>
                        <g id="Group-9" transform="translate(468.146718, 176.343419)">
                            <rect id="Rectangle" fill="#00C15A" x="0" y="147.35546" width="89.2857143" height="91.7952044"></rect>
                            <rect id="Rectangle" fill="#FF9D00" x="0" y="24.1566327" width="89.2857143" height="123.198827"></rect>
                            <polygon id="Rectangle" fill="#FF0034" points="0 0 43.4362934 0 89.2857143 0 89.2857143 24.1566327 0 24.1566327"></polygon>
                        </g>
                    </g>
                    <rect id="Rectangle" fill="#0064FF" x="445" y="472" width="159" height="21" rx="3.15900022"></rect>
                </g>
                <g id="Group-29" filter="url(#filter-2)">
                    <g id="Group-23">
                        <g id="Group-20">
                            <rect id="Rectangle" stroke="#F4F2EE" stroke-width="2.2" fill="#FFFFFF" x="0" y="0.406096482" width="641.774737" height="505.648"></rect>
                            <g id="campaigns-copy" transform="translate(432.591901, 238.104297)" fill="#F4F2EE">
                                <path d="M54.0365273,0.914051198 L2.44389819,12.9538523 C1.2727504,13.2217098 0.395192146,14.1963057 0.247979093,15.3793094 C0.100766039,16.562313 0.719189798,17.712386 1.79625537,18.2545301 L16.4486958,25.6326049 L17.9468035,40.4350733 C18.0655777,41.624883 18.9263648,42.6119881 20.0899037,42.9026825 C21.2555821,43.1978131 22.4878504,42.7330553 23.1637884,41.748369 L23.6085605,41.298567 L20.6450782,30.0009855 C20.5201712,28.5295282 21.2546409,27.1169449 22.53857,26.3627422 L35.270252,18.887038 L25.095391,28.632959 C24.3735711,29.3265112 24.0717833,30.3462713 24.2964798,31.3135621 L28.9363467,51.1875965 C29.2041936,52.3491943 30.1867812,53.2196336 31.3794759,53.3656631 C32.5744648,53.5073333 33.7316953,52.8961062 34.2804468,51.8300337 L58.5169445,4.89363283 C58.6331002,4.71968111 58.7272805,4.5343511 58.8016637,4.33988006 C59.0549478,3.6822044 58.8978577,2.67814865 58.6084311,1.9868791 C58.2508754,1.13459627 56.7269075,0.776986967 54.0365273,0.914051198 Z" id="campaigns"></path>
                            </g>
                            <rect id="Rectangle" fill="#001D71" x="29.1472996" y="44.3598773" width="192.414519" height="20.0736617" rx="6.94980047"></rect>
                            <rect id="Rectangle" fill="#F2F4F6" x="32.493639" y="87.852811" width="192.414519" height="20.0736617" rx="6.94980047"></rect>
                        </g>
                        <g id="Group-22" transform="translate(65.632381, 146.970056)">
                            <mask id="mask-4" fill="white">
                                <use xlink:href="#path-3"></use>
                            </mask>
                            <use id="Mask" fill="#0202D0" fill-rule="nonzero" xlink:href="#path-3"></use>
                            <g mask="url(#mask-4)" id="Path">
                                <g transform="translate(-10.039018, -7.817887)">
                                    <path d="M127.772381,0 L127.772381,127.133191 L0.611481921,127.133191 C0.611481921,57.2809497 56.1127671,1.12771385 126.266439,0.0116343592 L127.772381,0 Z" fill="#001D71"></path>
                                    <path d="M127.722186,128.264007 L127.722359,129.121939 L176.078836,244.841545 C160.750644,251.632587 143.83097,255.398406 126.047307,255.398406 C57.4335817,255.398406 1.68125381,199.34022 0.573068628,129.759291 L0.561459728,128.264007 L127.722186,128.264007 Z" fill="#0064FF"></path>
                                    <path d="M127.774704,3.34561028 L127.772381,127.989914 L176.350948,244.229551 C222.500351,225.341333 254.93328,180.681152 254.93328,128.595563 C254.93328,60.1110994 198.862687,4.46380377 129.266359,3.3577063 L127.774704,3.34561028 Z" fill="#00C15A"></path>
                                </g>
                            </g>
                        </g>
                        <path d="M175,251.7 C175,254.24265 173.5825,256.44375 171.5,257.6409 L171.5,231 L164.5,231 L164.5,257.6409 C162.4175,256.44375 161,254.24265 161,251.7 L161,231 L154,231 L154,251.7 C154,258.1101 158.48,263.46795 164.5,265.0101 L164.5,300 L171.5,300 L171.5,265.0101 C177.52,263.46795 182,258.1101 182,251.7 L182,231 L175,231 L175,251.7 Z" id="Fill-623" fill="#F4F2EE"></path>
                        <path d="M204,231 C196.279,231 190,237.1893 190,244.8 L190,251.7 C190,258.1101 194.48,263.46795 200.5,265.0101 L200.5,300 L207.5,300 L207.5,265.0101 C213.52,263.46795 218,258.1101 218,251.7 L218,244.8 C218,237.1893 211.721,231 204,231" id="Fill-624" fill="#F4F2EE"></path>
                        <g id="Group-22" transform="translate(343.378555, 146.970056)">
                            <mask id="mask-6" fill="white">
                                <use xlink:href="#path-5"></use>
                            </mask>
                            <use id="Mask" fill="#0202D0" fill-rule="nonzero" xlink:href="#path-5"></use>
                            <g mask="url(#mask-6)" id="Path">
                                <g transform="translate(-6.692679, -8.184380)">
                                    <path d="M127.772381,0.366492555 L127.772381,127.499683 L0.611481921,127.499683 C0.611481921,57.6474423 56.1127671,1.49420641 126.266439,0.378126914 L127.772381,0.366492555 Z" fill="#FF9D00"></path>
                                    <path d="M127.722186,128.6305 L127.722359,129.488431 L176.078836,245.208037 C160.750644,251.999079 143.83097,255.764899 126.047307,255.764899 C57.4335817,255.764899 1.68125381,199.706712 0.573068628,130.125784 L0.561459728,128.6305 L127.722186,128.6305 Z" fill="#0064FF"></path>
                                    <path d="M127.774722,3.8066898 L127.772381,130.845294 L37.4762288,299.938324 C540.48886,171.047657 199.418008,4.94636273 129.278029,3.81901817 L127.774722,3.8066898 Z" fill="#00C15A"></path>
                                </g>
                            </g>
                        </g>
                    </g>
                    <rect id="Rectangle" fill="#0064FF" x="455.932632" y="453.596" width="163.541053" height="22.308" rx="6.94980047"></rect>
                </g>
            </g>
            <g id="Group-71" transform="translate(275.000000, 800.000000) scale(-1, 1) translate(-275.000000, -800.000000) translate(118.000000, 691.000000)">
                <path d="M56.1422615,63.1847279 C54.6416741,89.53124 77.9418265,96.2369739 84.4012115,71.9859492 C89.3292252,53.4842831 62.4683871,51.7287299 54,63.1847279" id="Path-154" fill="#212121" transform="translate(69.500000, 71.500000) scale(1, -1) translate(-69.500000, -71.500000) "></path>
                <path d="M90.4319368,-0.0320122243 C99.41208,-0.0320122243 108.530649,0.617459637 117.787645,1.91640336 L119.524954,2.16756662 C123.1902,2.7129995 126.083592,5.56059245 126.684695,9.21397738 C129.426289,25.8768265 130.537029,42.8547697 130.016917,60.147807 C132.430136,61.9002352 135.613274,61.4993 139.565688,58.9462875 C139.131593,42.0671499 140.253522,25.4902421 142.93151,9.21397738 C143.516795,5.65673416 146.275309,2.86343084 149.803521,2.21538272 L150.091252,2.16756662 L151.82856,1.91640336 C161.085556,0.617459637 170.204125,-0.0320122243 179.184268,-0.0320122243 L181.295549,-0.0216569114 C193.09017,0.0864985788 216.933124,1.04187208 252.824413,2.84446358 C256.635744,3.03588254 259.960608,5.46353778 261.310498,9.00911465 L261.415592,9.29902157 L261.76892,10.338281 C267.128375,26.314273 269.808103,44.1617804 269.808103,63.8808034 C269.808103,82.6967035 267.311601,99.0783007 262.318597,113.025595 C260.551163,117.962688 255.951248,121.309605 250.728961,121.495104 L250.394799,121.502635 L245.257874,121.544238 C235.1633,121.610521 226.144393,121.575317 218.201154,121.438625 L213.620794,121.357196 C202.626479,121.192118 183.912025,121.185196 157.477433,121.336429 C151.373306,121.37135 146.111463,117.0964 144.877758,111.154054 L144.815538,110.834134 L144.523721,109.199777 C143.067551,100.910945 141.917671,92.3130405 141.07408,83.4060619 C136.9819,79.006725 132.775876,78.6665062 128.457064,82.383093 C127.282305,93.0649496 125.49001,103.720449 123.081828,114.350886 L122.669148,116.146475 C121.359783,121.763095 116.448396,125.808184 110.68028,126.020681 L85.1355822,126.926582 C72.4273805,127.3549 62.7232951,127.638675 56.023326,127.777906 L52.2966919,127.84631 C43.9567982,127.979545 34.4571939,128.003362 23.797879,127.917763 L21.217377,127.895115 C15.8763984,127.844337 11.1290274,124.483817 9.31005455,119.466283 C2.97541992,101.992552 -0.191897397,83.4640584 -0.191897397,63.8808034 C-0.191897397,44.1617804 2.48783029,26.314273 7.84728566,10.338281 L8.20061369,9.29902157 C9.4762307,5.59639587 12.8774521,3.04105603 16.7917922,2.84446358 L28.8969565,2.24644426 C60.2093017,0.72747327 80.7209618,-0.0320122243 90.4319368,-0.0320122243 Z M79.6522301,10.0743847 L77.9750779,10.1372027 C67.3100477,10.5780019 52.3625751,11.9508529 33.13266,14.2557557 L30.0052662,14.6342007 C28.0196205,14.8767256 26.4695407,16.4748554 26.2795924,18.4753644 L26.0355988,21.0955336 C22.1539067,63.6254396 23.3454668,93.1119862 29.6102792,109.555173 C32.3904136,116.852163 59.7182875,117.921849 111.593901,112.764231 L112.062462,108.782743 C114.828904,84.9105629 116.062925,67.3992589 115.764523,56.2488306 L115.751397,55.7941747 C115.387697,44.0662254 114.001865,29.5394193 111.593901,12.2137565 C102.178263,10.3906988 91.5310394,9.67757486 79.6522301,10.0743847 Z M177.976114,11.0734872 L176.825379,11.0383352 C165.67533,10.7275755 159.407615,11.4464012 158.022236,13.1948125 L157.700445,15.5202715 C155.492225,31.6780708 154.214656,45.3071841 153.867738,56.4076114 L153.839274,57.480736 C153.584477,69.0974359 154.89171,86.1553407 157.760976,108.654451 C211.727092,111.647236 240.099215,109.525911 242.877345,102.290475 C249.251679,85.6889856 249.445604,58.0207189 243.459118,19.2856749 C243.16157,17.3604143 241.587134,15.8845196 239.641263,15.7067717 L230.193115,14.8557911 C205.573703,12.6720865 188.168036,11.4113185 177.976114,11.0734872 Z" id="Shape" fill="#F3A712"></path>
                <g id="Group-34" transform="translate(42.000000, 12.000000)">
                    <path d="M63.375,0.521436009 L257.625,14.0516374 C259.525252,21.496514 260.586018,59.1795166 260.807297,127.100645 C260.121178,148.090135 259.060394,171.79469 257.625,198.212711 C191.125,207.733964 105.375,207.733964 0.375,198.212711 C-3.09,132.726537 17.45745,67.4859353 62.01735,2.49090715 L63.375,0.521436009 Z" id="Path" fill="#FB3640"></path>
                    <path d="M154,173.515687 C174.949297,183.501541 185.324811,182.052214 205.252028,171" id="Path-128" stroke="#212121" stroke-width="5.322292" stroke-linecap="round" stroke-linejoin="round" transform="translate(179.626014, 175.608493) scale(1, -1) translate(-179.626014, -175.608493) "></path>
                    <path d="M3,150.515687 C23.9492965,160.501541 34.3248108,159.052214 54.2520281,148" id="Path-128" stroke="#212121" stroke-width="5.322292" stroke-linecap="round" stroke-linejoin="round"></path>
                </g>
                <g id="Group-70" transform="translate(115.000000, 12.000000)" stroke="#212121" stroke-linecap="round" stroke-linejoin="round" stroke-width="5.322292">
                    <path d="M1.93460504,4 C1.7199761,16.2623317 -5.08292,62.7151384 8.17180612,80.5939149 C40.7163164,124.491919 124.119739,178.524163 174,132.32966" id="Path-110"></path>
                    <path d="M7.38037567,105.305672 C10.5414125,96.9827294 12.8144899,89.7731477 22.7233699,84.3832649 C28.2180986,81.3944363 35.3496764,82.4196737 41.4753964,83.6848596 C46.7373864,84.7716536 52.0173898,87.3217968 55.7347661,91.2013295 C72.3561355,108.547743 56.9778342,134.521905 36.8261465,137.850421 C29.426485,139.072646 9.78472954,141.698114 5.44331874,131.340845" id="Path-213" fill="#FF4445"></path>
                    <path d="M54,8 C69.665658,54.2321453 85.9810077,91.601985 129.239535,114.822281 C144.190356,122.847577 179.082355,141.684234 194,123.002831" id="Path-111"></path>
                    <path d="M119,0 C129.944267,51.3866881 144.839978,109.574769 199,119" id="Path-112"></path>
                </g>
            </g>
            <path d="M19.8468276,458.123227 C52.1991258,416.851259 113.03243,411.298209 163.876798,413.369603 C214.721167,415.440998 231.906404,427.81947 257.370285,467.799908 C282.834166,507.780347 277.156107,538.941891 262.656011,568.461291 C255.399765,583.233611 242.383955,595.822683 225.883215,605.853368 C217.124881,611.177499 199,614 199,653 C199,692 175.8551,626.412027 164.669413,628.621979 C108.655013,639.688722 45.1576443,630.368323 15.4121927,593.860203 C-12.8431079,559.181021 4.82703674,503.753469 13.0243124,468.06878 L19.8468276,458.123227 Z" id="Path-129" fill="#0D62FE"></path>
            <g id="Group-47" transform="translate(1209.500000, 214.000000) scale(-1, 1) translate(-1209.500000, -214.000000) translate(1078.000000, 92.000000)">
                <g id="Group-43" transform="translate(0.000000, 68.000000)">
                    <path d="M40.2383135,36.0985818 C66.7083757,3.08100701 116.481079,-1.36143283 158.081017,0.295682618 C192.337992,1.66029433 207.919762,8.6165333 223.987592,28.8907912 C227.431722,33.2365667 245,9 259,37 C273,65 242.569088,57.6908929 244.882532,64.1577872 C252.991844,86.8261842 248.130807,105.995234 238.900373,124.369033 C211.101813,179.703933 79.9889946,196.74632 36.6099759,144.688162 C21.8277844,126.948396 22.4087805,102.422032 26.5030945,79.5777982 C27.7435351,72.6567573 -8,90 2,54 C12,18 33.5372049,48.8182623 34.6562556,44.0550244 L40.2383135,36.0985818 Z" id="Path-129" fill="#FF8100"></path>
                    <g id="Group-33" transform="translate(108.000000, 36.000000)" stroke="#212121" stroke-linecap="round" stroke-linejoin="round" stroke-width="5.322292">
                        <path d="M0.675494737,1.06935743 C1.2641841,14.9924839 -2.47711753,43.2959629 18.5474458,45.4752771 C25.4040762,46.1860054 32.3568505,45.7682563 39.2249471,45.1791379 C45.8505598,44.6108188 48.4374021,41.4549329 53.6974071,37.6290846" id="Path-119"></path>
                        <path d="M14.1152736,0.773218251 C14.812273,17.9690519 11.9183497,35.8052499 25.6359368,48.5832428 C33.8689105,56.2522941 55.1747979,47.7359359 55.1747979,37.3329454" id="Path-120"></path>
                        <path d="M27.2595743,11.1350981 C26.2842796,21.3936657 40.1626788,63.039659 56.5059419,46.6598338" id="Path-121"></path>
                    </g>
                </g>
                <path d="M102.558991,48.5188125 C97.1249497,38.0165791 94.4608941,24.7667028 101.433145,13.7822771 C111.891449,-2.6942448 134.11747,-6.35173971 142.719988,13.6495419 C149.395383,29.1701669 133.26512,48.3510459 133.708846,50.2826763 C136.234179,61.2759855 172.019777,17.2010803 165.117838,40.7604844 C156.500985,70.1736545 107.72317,75.1542952 86.3567944,58.6583567 C64.9901271,42.1621928 85.1273532,42.3637302 98.1405285,48.4751613 L102.558991,48.5188125 Z" id="Path-134" fill="#001D71"></path>
            </g>
        </g>
    </g>
</svg>