<svg xmlns="http://www.w3.org/2000/svg" xmlns:xlink="http://www.w3.org/1999/xlink" width="1059" height="952" xmlns:v="https://vecta.io/nano"><style><![CDATA[.B{stroke-linejoin:round}.C{stroke-linecap:round}.D{fill:#fff}.E{stroke-width:.5}.F{stroke:#000}.G{fill-rule:nonzero}.H{fill:#b33f62}.I{stroke-width:.6}.J{fill:#06f}.K{fill:#fb3640}.L{fill:#f2f4f6}.M{stroke-width:.72}.N{fill:#f4f2ee}.O{fill:#ff9d00}.P{stroke-width:.834}.Q{fill:#42be65}.R{fill:#00173a}.S{stroke:#212121}.T{fill:#0d62fe}.U{fill:#0064ff}.V{mask:url(#j)}.W{fill:#14591d}.X{stroke-width:1.058}.Y{opacity:.92}.Z{fill:#001c6c}.a{mask:url(#u)}.b{stroke:#001d75}.c{fill:#ff0034}.d{fill:#001d71}.e{stroke-width:1.858}]]></style><defs><filter x="-4.8%" y="-1.7%" width="112.7%" height="103.4%" id="A"><feOffset dy="1" in="SourceAlpha"/><feGaussianBlur stdDeviation="2"/><feColorMatrix values="0 0 0 0 0 0 0 0 0 0.160784314 0 0 0 0 0.349019608 0 0 0 0.1 0" result="C"/><feMerge><feMergeNode in="C"/><feMergeNode in="SourceGraphic"/></feMerge></filter><filter x="-18.1%" y="-385.7%" width="136.2%" height="871.4%" id="B"><feOffset dy="24" in="SourceAlpha"/><feGaussianBlur stdDeviation="16"/><feColorMatrix values="0 0 0 0 0.3515625 0 0 0 0 0.3515625 0 0 0 0 0.3515625 0 0 0 0.1 0" result="C"/><feMerge><feMergeNode in="C"/><feMergeNode in="SourceGraphic"/></feMerge></filter><path d="M.745 6.558c-3.162 5.147 4.348 18.013 11.07 19.003S27.626 9.725 24.464 4.975s-9.35-5.432-14.23-4.75C7.032.67 1.998 4.52.745 6.558z" id="C"/><path d="M.135 1.04C.048 13.125 5.402 19.687 16.197 20.728 24.555 21.533 29 14.724 29.502.3L.135 1.04z" id="D"/><path d="M26.565 0C11.893 0 0 11.91 0 26.604s11.893 26.604 26.565 26.604S53.13 41.296 53.13 26.604 41.236 0 26.565 0z" id="E"/><path d="M.135 1.04C.048 13.125 5.402 19.687 16.197 20.728 24.555 21.533 29 14.724 29.502.3c-5.28 2.753-9.63 4.173-13.052 4.26S7.59 3.473.135 1.04z" id="F"/><path d="M12.006 29.137c2.722 0 6.39-.543 8.404-2.64 2.892-3.014 3.602-7.17 3.602-12.544 0-3.692.29-7.153-1.2-9.903C20.623.01 15.95.088 12.006.088 8.39.088 4.602-.75 2.4 2.73.567 5.628 0 9.81 0 13.953c0 5.202.866 9.52 3.602 12.544 2.058 2.276 5.558 2.64 8.404 2.64z" id="G"/><path id="H" d="M0 0h692v306H0z"/><filter x="-4.0%" y="-6.5%" width="108.1%" height="118.3%" id="I"><feOffset dy="8" in="SourceAlpha"/><feGaussianBlur stdDeviation="8"/><feColorMatrix values="0 0 0 0 0 0 0 0 0 0.160784314 0 0 0 0 0.349019608 0 0 0 0.1 0"/></filter><path id="J" d="M0 0h289.13v279H0z"/><path id="K" d="M0 0h91.568v87.63H0z"/><filter x="-24.6%" y="-21.8%" width="149.0%" height="143.5%" id="L"><feOffset dy="29" in="SourceAlpha"/><feGaussianBlur stdDeviation="19"/><feColorMatrix values="0 0 0 0 0.3515625 0 0 0 0 0.3515625 0 0 0 0 0.3515625 0 0 0 0.1 0" result="C"/><feMerge><feMergeNode in="C"/><feMergeNode in="SourceGraphic"/></feMerge></filter><filter x="-3.0%" y="-8.1%" width="106.0%" height="116.2%" id="M"><feOffset dy="1" in="SourceAlpha"/><feGaussianBlur stdDeviation="2.5"/><feColorMatrix values="0 0 0 0 0 0 0 0 0 0.160784314 0 0 0 0 0.349019608 0 0 0 0.1 0" result="C"/><feMerge><feMergeNode in="C"/><feMergeNode in="SourceGraphic"/></feMerge></filter><path d="M1.663 14.595c-7.054 11.453 9.7 40.087 24.688 42.29s35.27-35.24 28.215-45.813S33.713-1.018 22.824.498c-7.138.994-18.368 9.56-21.16 14.096z" id="N"/><path id="O" d="M0 .317h691v63.66H0z"/><path id="P" d="M112.726 165.827l-6.186 3.83-5.133-7.945c-.056-.086-.15-.127-.22-.196l1.424-1.47a.78.78 0 0 0 0-1.077l-1.912-1.974c-.287-.297-.758-.297-1.046 0l-1.912 1.974a.78.78 0 0 0 0 1.077l1.424 1.47c-.07.07-.163.1-.22.196l-5.134 7.945-6.185-3.83c-.513-.317-1.162-.285-1.643.082s-.698.997-.554 1.596l2.957 12.208c.165.678.757 1.156 1.436 1.156h20.705c.68 0 1.27-.478 1.435-1.156l2.958-12.208c.145-.598-.074-1.227-.554-1.596a1.44 1.44 0 0 0-1.643-.082z"/><path id="Q" d="M26.315 0C11.782 0 0 11.8 0 26.353s11.782 26.353 26.315 26.353 26.315-11.8 26.315-26.353S40.848 0 26.315 0z"/><path id="R" d="M1.836 3.563c-3.162 5.147.282 10.69 4.094 11.283s6.3.088 7.37-1.386c2.233-3.077 3.5-6.532 1.525-9.5S4.998-1.584 1.836 3.563z"/><path id="S" d="M2.614 1.024l.63-.464"/><path id="T" d="M7.358 1.024L7.99.56"/><path id="U" d="M5.22 1.024L5.85.56"/><path id="V" d="M21.01-1.895C20.23-.65 22.058-.752 22.41-.123c.15.266-.316.64-.16.9.488.823 1.728 1.335 2.096 2.61.074.256-.87.016-.757.257 1.716 3.68 1.087.1 1.92 2.738.053.17-.46-.162-.532 0l.548.79c-1.966 4.38-.24-5.81-.112.837.043 2.223-.136-1.38-.016.918.012.236-.703-.204-.71.032-.008.304.78.304.693.596-.417 1.42.105.14-.016.66-.077.33-.834-.238-1.015.048-.157.25.774.505.548.693-.36.298-1.14-.372-1.4.015-.217.32 1.006.4.87.773l-.918.273c-3.278 8.75 3.774-4.48-.546 2.72-.204.34-1.06-.05-1.144.337-.107.492.866.79.8 1.288-.054.353-.85-.018-1.03.29-.143.243.64.533.435.725-1.335 1.247-1.205.242-2.786.964-.24.11.215.584.05.79l-1.224-.065c-.27.332.566.96.26 1.256-.383.37-1.17-.286-1.595.03l.16.917c-.738.55-1.16-.704-2.6.11-.265.15.835.713.532.74-.566.052-1.016-.565-1.58-.645-1.71-.24-4.147 1.456-8.716.123"/><path id="W" d="M.632.633c.482 10.346 5.437 15.73 14.864 16.152 8.933.4 13.676-5.406 14.23-17.42L.632.633z"/><path id="X" d="M18.975 4.252L23.053 0l3.73 4.62 5.32-4.26 3.123 4.425 4.28-4.54 3.66 5.25 5.34-5.48"/><path id="Y" d="M13.915 9.32l4.08-4.252 3.73 4.62 5.32-4.26 3.123 4.425 4.28-4.54 3.66 5.25 5.34-5.48"/><path id="Z" d="M191.415 89.456V0h-89.248l.01 1.052c.784 48.467 39.836 87.6 88.19 88.395l1.048.01z"/><path id="a" d="M178.517 92.984v89.456H89.27l.01-1.052c.784-48.467 39.836-87.6 88.19-88.395l1.048-.01z"/><path id="b" d="M89.268 182.44V92.984H.02l.01 1.052c.784 48.467 39.836 87.6 88.19 88.395l1.048.01z"/><path id="c" d="M185.344 1.816v89.282H93.28l.01-1.05c.81-48.373 41.093-87.44 90.974-88.223l1.082-.01z"/><path id="d" d="M92.672 91.098V1.816h92.064l-.01 1.05c-.81 48.373-41.093 87.44-90.974 88.223l-1.082.01z"/><path id="e" d="M92.064 93.52V182.8H0l.01-1.05c.81-48.373 41.093-87.44 90.974-88.223l1.082-.01z"/><path id="f" d="M6.787 1.634c-.033.528.483.662.626.176.11-.37-.486-.406-.673-.176"/><path id="g" d="M13.76 0C6.16 0 0 6.162 0 13.764s6.16 13.764 13.76 13.764 13.76-6.162 13.76-13.764S21.36 0 13.76 0z"/><path id="h" d="M5.83 2.28l1.406-1.033"/><path id="i" d="M26.993 2.28L28.4 1.245"/></defs><g transform="translate(31 8)" fill="none" fill-rule="evenodd"><g transform="translate(0 320)" filter="url(#A)"><g transform="translate(0 342.046)"><use xlink:href="#O" class="D"/><g transform="translate(57.924 38.639)"/><g class="N"><rect x="279.879" y="26.92" width="92.977" height="11.402" rx="3.6"/><rect x="131.243" y="26.92" width="89.182" height="11.402" rx="3.6"/></g><g class="L"><rect x="438.002" y="26.92" width="66.412" height="11.402" rx="3.6"/><rect x="575.57" y="17.419" width="79.062" height="27.237" rx="3.6"/></g></g><g transform="translate(0 551.075)"><use xlink:href="#O" class="D"/><g class="N"><rect x="279.879" y="29.771" width="109.105" height="11.402" rx="3.6"/><rect x="131.243" y="29.771" width="67.361" height="11.402" rx="3.6"/></g><g class="L"><rect x="438.002" y="29.771" width="66.412" height="11.402" rx="3.6"/><rect x="575.57" y="19.003" width="79.062" height="27.237" rx="3.6"/></g></g><g transform="translate(0 481.398)"><use xlink:href="#O" class="D"/><g class="N"><rect x="280.195" y="26.92" width="86.335" height="11.402" rx="3.6"/><rect x="131.243" y="26.92" width="89.182" height="11.402" rx="3.6"/></g><g class="L"><rect x="438.635" y="26.92" width="66.412" height="11.402" rx="3.6"/><rect x="575.57" y="19.003" width="79.062" height="27.237" rx="3.6"/></g></g><g transform="translate(0 411.722)"><use xlink:href="#O" class="D"/><g class="N"><rect x="279.879" y="29.771" width="92.977" height="11.402" rx="3.6"/><rect x="131.243" y="29.771" width="67.361" height="11.402" rx="3.6"/></g><g class="L"><rect x="438.002" y="29.771" width="66.412" height="11.402" rx="3.6"/><rect x="575.57" y="19.003" width="79.062" height="27.237" rx="3.6"/></g></g><path d="M0 0h691v63.348H0z" class="D"/><path d="M112.726 27.922l-6.186 3.81-5.133-7.907c-.056-.086-.15-.126-.22-.195l1.424-1.464c.288-.294.288-.778 0-1.072l-1.912-1.964a.73.73 0 0 0-1.046 0l-1.912 1.964c-.288.294-.288.778 0 1.072l1.424 1.464c-.07.07-.163.11-.22.195l-5.134 7.907-6.185-3.81a1.45 1.45 0 0 0-1.643.082c-.48.367-.698.993-.554 1.588l2.957 12.148a1.49 1.49 0 0 0 1.436 1.15h20.705c.68 0 1.27-.476 1.435-1.15l2.958-12.148a1.54 1.54 0 0 0-.554-1.588 1.45 1.45 0 0 0-1.643-.082z" class="Q"/><g class="N"><rect x="279.879" y="26.474" width="109.105" height="11.346" rx="3.6"/><rect x="131.243" y="26.474" width="67.361" height="11.346" rx="3.6"/></g><g class="L"><rect x="438.002" y="26.474" width="66.412" height="11.346" rx="3.6"/><rect x="575.57" y="19.003" width="79.062" height="27.237" rx="3.6"/></g><g class="D"><use xlink:href="#O" y="135.868"/><use xlink:href="#O" y="203.961"/></g><g class="N"><rect x="280.195" y="163.105" width="86.335" height="11.402" rx="3.6"/><rect x="131.243" y="163.105" width="109.105" height="11.402" rx="3.6"/></g><g class="L"><rect x="438.635" y="163.105" width="66.412" height="11.402" rx="3.6"/><rect x="575.57" y="155.188" width="79.062" height="27.237" rx="3.6"/></g><use xlink:href="#O" y="67.776" class="D"/><g class="Q"><path d="M112.726 96.15l-6.186 3.83-5.133-7.945c-.056-.086-.15-.127-.22-.196l1.424-1.47a.78.78 0 0 0 0-1.077l-1.912-1.974c-.287-.297-.758-.297-1.046 0L97.74 89.29a.78.78 0 0 0 0 1.077l1.424 1.47c-.07.07-.163.1-.22.196l-5.134 7.945-6.185-3.83c-.513-.317-1.162-.285-1.643.082s-.698.997-.554 1.596l2.957 12.208c.165.678.757 1.156 1.436 1.156h20.705c.68 0 1.27-.478 1.435-1.156l2.958-12.208c.145-.598-.074-1.227-.554-1.596a1.44 1.44 0 0 0-1.643-.082z"/><use xlink:href="#P"/><use xlink:href="#P" y="66.509"/></g><use xlink:href="#P" y="136.185" class="O"/><g class="Q"><path d="M112.726 370.105l-6.186 3.83-5.133-7.945c-.056-.086-.15-.127-.22-.196l1.424-1.47a.78.78 0 0 0 0-1.077l-1.912-1.974c-.287-.297-.758-.297-1.046 0l-1.912 1.974a.78.78 0 0 0 0 1.077l1.424 1.47c-.07.07-.163.1-.22.196l-5.134 7.945-6.185-3.83c-.513-.317-1.162-.285-1.643.082s-.698.997-.554 1.596L88.388 384c.165.678.757 1.156 1.436 1.156h20.705c.68 0 1.27-.478 1.435-1.156l2.958-12.208c.145-.598-.074-1.227-.554-1.596a1.44 1.44 0 0 0-1.643-.082z"/><use xlink:href="#P" y="275.537"/></g><g class="O"><use xlink:href="#P" y="345.213"/><path d="M112.726 579.133l-6.186 3.83-5.133-7.945c-.056-.086-.15-.127-.22-.196l1.424-1.47a.78.78 0 0 0 0-1.077L100.7 570.3c-.287-.297-.758-.297-1.046 0l-1.912 1.974a.78.78 0 0 0 0 1.077l1.424 1.47c-.07.07-.163.1-.22.196l-5.134 7.945-6.185-3.83c-.513-.317-1.162-.285-1.643.082s-.698.997-.554 1.596l2.957 12.208c.165.678.757 1.156 1.436 1.156h20.705c.68 0 1.27-.478 1.435-1.156l2.958-12.208c.145-.598-.074-1.227-.554-1.596a1.44 1.44 0 0 0-1.643-.082z"/></g><g class="N"><rect x="280.195" y="93.429" width="92.977" height="11.402" rx="3.6"/><rect x="131.243" y="93.429" width="55.027" height="11.402" rx="3.6"/></g><g class="L"><rect x="438.635" y="93.429" width="66.412" height="11.402" rx="3.6"/><rect x="575.57" y="85.512" width="79.062" height="27.237" rx="3.6"/></g><g transform="translate(0 273.954)"><path d="M0 0h691v63.348H0z" class="D"/><path d="M112.726 29.182l-6.186 3.81-5.133-7.907c-.056-.086-.15-.126-.22-.195l1.424-1.464c.288-.294.288-.778 0-1.072l-1.912-1.964a.73.73 0 0 0-1.046 0l-1.912 1.964c-.288.294-.288.778 0 1.072l1.424 1.464c-.07.07-.163.11-.22.195l-5.134 7.907-6.185-3.81a1.45 1.45 0 0 0-1.643.082c-.48.367-.698.993-.554 1.588L88.388 43a1.49 1.49 0 0 0 1.436 1.15h20.705c.68 0 1.27-.476 1.435-1.15l2.958-12.148a1.54 1.54 0 0 0-.554-1.588 1.45 1.45 0 0 0-1.643-.082z" class="Q"/><g class="N"><rect x="279.879" y="26.474" width="86.335" height="11.346" rx="3.6"/><rect x="131.243" y="26.474" width="109.105" height="11.346" rx="3.6"/></g><g class="L"><rect x="438.002" y="26.474" width="66.412" height="11.346" rx="3.6"/><rect x="575.57" y="19.003" width="79.062" height="27.237" rx="3.6"/></g></g><g filter="url(#B)" transform="translate(57.924 223.28)"><g transform="translate(0 16.469)"/><g class="N"><rect x="221.954" y="7.601" width="92.977" height="11.402" rx="3.6"/><rect x="73.318" y="7.601" width="109.105" height="11.402" rx="3.6"/></g><g class="L"><rect x="380.078" y="7.601" width="66.412" height="11.402" rx="3.6"/><rect x="517.645" width="79.062" height="27.237" rx="3.6"/></g></g><g transform="translate(14.231 209.028)"><g transform="translate(.469 .454)"><use xlink:href="#Q" class="G J"/><g transform="translate(7.263 16.456)"><g transform="translate(0 .007)"><path d="M25.408 17.73c3.12 0 6.95-.196 11.493-.59l1.18-5.795h-5.108l.393-8.447H5.073L4.9 7.584C1.634 6.673 0 7.1 0 8.87s1.462 2.823 4.386 3.165l.982 4.518c10.24.786 16.92 1.18 20.04 1.18z" class="O"/><g transform="translate(21.182 2.121)" fill="#212121"><path d="M.2.673C.06 3.14 2.25 3.767 2.857 1.497 3.32-.236.796-.4 0 .673"/><path d="M8.446.28c.043.525.01 1.06.128 1.575.51 2.227 3.285.066 1.813-1.794"/></g><path d="M34.073.001c.606 0-.11 5.412-.49 6.498-.482 1.378-1.62 1.08-2.85 1.08-.392 0-.728-.013-1.024-.047a16.74 16.74 0 0 0-1.89-1.941l-.548-.456.136.798-.175-.278c-.744 1.88-2.244 2.415-4.063 2.415-4.206 0-5.885-3.21-5.212-8.07h16.116zm-8.358 2.192h-5.683l-.002.028c-.072 1.167.06 2.073.372 2.722l.188.328c.496.732 1.377 1.114 2.776 1.114.952 0 1.607-.613 2.024-2.116l.112-.454.08-.463.078-.622.054-.538zm6.75 0h-4.2c.597 2.454 1.387 3.52 2.852 3.68l.412.02c.06 0 .1-.013.146-.066.118-.112.247-.334.366-.673.194-.553.33-1.33.4-2.32l.035-.64z" fill="#ff0025" class="G"/><g class="B C P S"><path d="M27.926 6.317c1.976 1.562 3.728 3.837 3.427 4.212-.393.49-1.814.592-2.16.393-.28-.16-.153.057-.153 1.888"/><path d="M23.6 11.273c2.313 1.718 4.88 1.937 7.417 1.415"/></g><g class="b B C P"><path d="M26.087 15.684c.496 1.984 1.665 3.235 2.903 4.895"/><path d="M28.1 15.468c1.353 4.286 1.052 2.458 1.36 5.39"/><path d="M29.794 15.777c.404 4.167.355 2.434.355 5.19"/><path d="M31.585 15.777l-.927 5.698"/><path d="M32.836 15.932c-.11 2.02-.643 3.63-1.653 5.374"/><path d="M34.21 15.73c-.185 1.97-.746 3.868-2.07 5.405"/><path d="M34.968 17.846c-1.636 2.194-1.833 2.867-4.278 3.444"/></g><path d="M23.775 10.556c-.148.398-.443.79-.934.814" class="B C P S"/></g></g></g><use xlink:href="#Kk" class="G J" href="#E"/><g transform="translate(17.394 9.185)" class="B E F"><path d="M9.17 6.968c-4.427 0-5.376 4.117-5.376 7.918S0 18.37 0 24.07s4.11 7.918 10.752 6.968 10.12-7.918 8.222-10.45c-1.265-1.69-2.53-4.012-3.795-6.968-1.054-4.434-3.057-6.65-6.01-6.65z" class="Q"/><ellipse transform="matrix(.777146 -.62932 .62932 .777146 -13.18422 14.075852)" cx="13.282" cy="25.653" rx="1.582" ry="1" class="D"/><path d="M10.436 0C8.54 2.534 8.117 4.856 9.17 6.968" class="C"/></g></g><g transform="translate(14.231 140.936)"><g transform="translate(.153 .137)" class="G J"><use xlink:href="#Q"/></g><g transform="translate(12.65 11.718)" class="F B E"><g transform="translate(0 4.117)"><path d="M12.74 4.117c-4.217-5.5-8.012-5.5-11.385 0-5.06 8.234 5.376 19.953 9.487 17.42s3.48-2.534 5.376-1.267c.615.4 4.93 2.042 6.64-.317 3.573-4.924 6.64-15.835 2.214-18.052-2.45-1.226-4.73.174-9.17 2.217-.43.198-1.484.198-3.162 0z" class="K"/><ellipse transform="matrix(.913545 -.406737 .406737 .913545 -.70165 8.41725)" cx="19.449" cy="5.859" rx="2.056" ry="1" class="D"/></g><path d="M15.903 0c-2.32 2.745-3.057 5.5-2.214 8.234" class="C"/></g></g><g transform="translate(14.231 486.149)"><g transform="translate(.153 .137)" class="G J"><use xlink:href="#Q"/></g><g class="F B E"><g transform="translate(25.3 23.753)"><use xlink:href="#R" class="K"/><ellipse transform="matrix(.913545 -.406737 .406737 .913545 -.926526 4.94438)" cx="11.167" cy="4.652" rx="1.285" ry="1" class="D"/></g><g transform="translate(7.906 20.586)"><use xlink:href="#R" class="K"/><ellipse transform="matrix(.913545 -.406737 .406737 .913545 -.926526 4.94438)" cx="11.167" cy="4.652" rx="1.285" ry="1" class="D"/></g><g class="C"><path d="M17.394 22.17c7.906-7.918 9.487-9.5 11.07-12.668"/><path d="M32.806 25.875c-1.43-5.404-7.507-5.29-4.344-16.374"/></g></g></g><g transform="translate(14.231 555.825)"><g transform="translate(.153 .137)" class="G J"><use xlink:href="#Q"/></g><g transform="translate(14.231 6.334)"><g transform="translate(0 9.277)"><mask id="j" class="D"><use xlink:href="#C"/></mask><g class="F K B C E"><use xlink:href="#C"/><g class="V"><g transform="translate(0 17.643)"><use xlink:href="#S"/><use xlink:href="#S" x="9.488"/><use xlink:href="#T"/><use xlink:href="#S" x="14.232"/><use xlink:href="#S" x="-2.139"/><use xlink:href="#S" x="7.349"/><use xlink:href="#U"/><use xlink:href="#S" x="12.093"/></g><g transform="translate(4.744 19.227)"><use xlink:href="#S"/><use xlink:href="#S" x="9.488"/><use xlink:href="#T"/><use xlink:href="#S" x="14.232"/><use xlink:href="#S" x="-2.139"/><use xlink:href="#S" x="7.349"/><use xlink:href="#S" x="12.093"/></g><g transform="translate(3.162 20.81)"><use xlink:href="#S"/><use xlink:href="#S" x="9.488"/><use xlink:href="#T"/><use xlink:href="#S" x="14.232"/><use xlink:href="#S" x="-2.139"/><use xlink:href="#S" x="7.349"/><use xlink:href="#U"/><use xlink:href="#S" x="12.093"/></g><g transform="translate(4.744 22.394)"><use xlink:href="#S"/><use xlink:href="#S" x="9.488"/><use xlink:href="#S" x="14.232"/><use xlink:href="#S" x="-2.139"/><use xlink:href="#S" x="7.349"/><use xlink:href="#U"/><use xlink:href="#S" x="12.093"/></g></g></g></g><g class="F K B C E"><g transform="translate(4.744 23.69)"><use xlink:href="#S"/><use xlink:href="#S" x="9.488"/><use xlink:href="#T"/><use xlink:href="#S" x="14.232"/><use xlink:href="#S" x="-2.139"/><use xlink:href="#S" x="7.349"/><use xlink:href="#U"/><use xlink:href="#S" x="12.093"/></g><g transform="translate(1.581 22.17)"><use xlink:href="#S"/><use xlink:href="#S" x="9.488"/><use xlink:href="#T"/><use xlink:href="#S" x="14.232"/><use xlink:href="#S" x="-2.139"/><use xlink:href="#S" x="7.349"/><use xlink:href="#U"/><use xlink:href="#S" x="12.093"/></g><g transform="translate(4.744 20.586)"><use xlink:href="#S"/><use xlink:href="#S" x="9.488"/><use xlink:href="#T"/><use xlink:href="#S" x="14.232"/><use xlink:href="#S" x="-2.139"/><use xlink:href="#S" x="7.349"/><use xlink:href="#U"/><use xlink:href="#S" x="12.093"/></g><g transform="translate(1.581 19.003)"><use xlink:href="#S"/><use xlink:href="#S" x="9.488"/><use xlink:href="#T"/><use xlink:href="#S" x="14.232"/><use xlink:href="#S" x="-2.139"/><use xlink:href="#S" x="7.349"/><use xlink:href="#U"/><use xlink:href="#S" x="12.093"/></g><g transform="translate(4.744 17.419)"><use xlink:href="#S"/><use xlink:href="#S" x="9.488"/><use xlink:href="#T"/><use xlink:href="#S" x="14.232"/><use xlink:href="#S" x="-2.139"/><use xlink:href="#S" x="7.349"/><use xlink:href="#U"/><use xlink:href="#S" x="12.093"/></g><g transform="translate(0 15.835)"><use xlink:href="#S"/><use xlink:href="#S" x="9.488"/><use xlink:href="#T"/><use xlink:href="#S" x="14.232"/><use xlink:href="#S" x="-2.139"/><use xlink:href="#S" x="7.349"/><use xlink:href="#U"/><use xlink:href="#S" x="12.093"/></g><g transform="translate(3.162 14.252)"><use xlink:href="#S"/><use xlink:href="#S" x="9.488"/><use xlink:href="#T"/><use xlink:href="#S" x="14.232"/><use xlink:href="#S" x="-2.139"/><use xlink:href="#S" x="7.349"/><use xlink:href="#U"/><use xlink:href="#S" x="12.093"/></g><g transform="translate(3.162 25.337)"><use xlink:href="#S"/><use xlink:href="#S" x="9.488"/><use xlink:href="#T"/><use xlink:href="#S" x="14.232"/><use xlink:href="#S" x="-2.139"/><use xlink:href="#S" x="7.349"/><use xlink:href="#U"/><use xlink:href="#S" x="12.093"/></g></g><path d="M12.023 13.075L0 9.5l8.744 4.66L0 15.835C5.1 11.1 8.744 10.54 10.93 14.16c3.28 5.43 1.093-15.205 0-14.12S6.558 11.99 8.744 14.16c1.18 1.174 3.596-.417 7.65-5.43.63-.78 1.724-2.228 3.28-4.344-4.372.724-7.286 2.896-8.744 6.517s3.28 2.896 14.21-2.172c-6.558-2.172-10.2-2.534-10.93-1.086-.69 1.373-1.054 3.722-1.1 7.046l-.003.556C19.456 16.695 23 17.42 23.72 17.42c1.093 0-10.603-7.603-13.882-2.172s19.884-13.804 15.3-9.775S15.3 11.99 14.21 17.42s1.604 6.334.023 6.334h-1.58c0-6.334.527-9.5 1.58-9.5" transform="matrix(1 0 0 -1 0 23.753214)" class="B C E F W"/></g></g><g transform="translate(14.231 4.751)"><path d="M26.88 0C12.035 0 0 12.053 0 26.92s12.035 26.92 26.88 26.92 26.88-12.053 26.88-26.92S41.727 0 26.88 0z" class="G J"/><g transform="matrix(.390731 -.920505 .920505 .390731 14.51426 38.173921)"><g transform="translate(.106 .229)"><mask id="k" class="D"><use xlink:href="#D"/></mask><use xlink:href="#D" class="W"/><g class="E B"><use xlink:href="#V" stroke-opacity=".446" stroke="#42be65" mask="url(#k)" transform="matrix(.5 .866025 -.866025 .5 16.251938 -7.920964)" class="C"/><use xlink:href="#W" mask="url(#k)" class="F K"/></g></g><g transform="translate(10.309 2.563)" fill="#000" class="F B E"><ellipse transform="matrix(.62932 -.777146 .777146 .62932 -.722667 1.651993)" cx="1.37" cy="1.584" rx="1.372" ry="1"/><ellipse transform="matrix(-.62932 -.777146 -.777146 .62932 18.578001 8.861252)" cx="10.647" cy="1.584" rx="1.372" ry="1"/><ellipse transform="matrix(.017452 -.999848 .999848 .017452 3.053878 8.808421)" cx="6.009" cy="2.85" rx="1.372" ry="1"/></g></g></g><g transform="translate(14.231 416.473)"><use xlink:href="#Kk" class="G J" href="#E"/><g transform="translate(11.385 9.185)" class="B E F"><path d="M24.47 5.067c-2.32 13.302-7.8 20.375-16.445 21.22-2.827.276-7.598-.386-7.976.745-.13.387-.001 1.09.386 2.105 6.807 2.716 12.183 3.35 16.13 1.9C26.05 27.554 27.948 12.985 27.632 9.5c-.21-2.323-.738-3.8-1.58-4.434L24.786 0h-2.214l1.897 5.067z" fill="#fac748"/><path d="M2.846 27.87c10.542 1.267 17.394-1.267 20.556-7.6s3.7-11.507 1.58-15.52" class="C"/><circle cx="7.748" cy="29.771" r="1"/></g></g><g transform="translate(14.231 72.843)"><mask id="l" class="D"><use xlink:href="#E"/></mask><use xlink:href="#E" class="G J"/><g mask="url(#l)" class="B F"><g transform="translate(11.069 -3.167)"><g transform="translate(15.812 34.838)" class="E"><ellipse cx="4.744" cy="4.751" rx="4.744" ry="4.751" class="H"/><ellipse transform="matrix(.913545 -.406737 .406737 .913545 -2.426617 3.222044)" cx="6.366" cy="7.319" rx="1.582" ry="1" class="D"/></g><g transform="translate(17.394 26.92)" class="E"><ellipse cx="4.744" cy="4.751" rx="4.744" ry="4.751" class="H"/><ellipse transform="matrix(.913545 -.406737 .406737 .913545 -2.426617 3.222044)" cx="6.366" cy="7.319" rx="1.582" ry="1" class="D"/></g><g transform="translate(6.325 26.92)" class="E"><ellipse cx="4.744" cy="4.751" rx="4.744" ry="4.751" class="H"/><ellipse transform="matrix(.913545 -.406737 .406737 .913545 -2.426617 3.222044)" cx="6.366" cy="7.319" rx="1.582" ry="1" class="D"/></g><g transform="translate(11.069 41.172)" class="E"><ellipse cx="4.744" cy="4.751" rx="4.744" ry="4.751" class="H"/><ellipse transform="matrix(.913545 -.406737 .406737 .913545 -2.426617 3.222044)" cx="6.366" cy="7.319" rx="1.582" ry="1" class="D"/></g><g transform="translate(3.162 31.671)" class="E"><ellipse cx="4.744" cy="4.751" rx="4.744" ry="4.751" class="H"/><ellipse transform="matrix(.913545 -.406737 .406737 .913545 -2.426617 3.222044)" cx="6.366" cy="7.319" rx="1.582" ry="1" class="D"/></g><g transform="translate(7.906 34.838)" class="E"><ellipse cx="4.744" cy="4.751" rx="4.744" ry="4.751" class="H"/><ellipse transform="matrix(.913545 -.406737 .406737 .913545 -2.426617 3.222044)" cx="6.366" cy="7.319" rx="1.582" ry="1" class="D"/></g><g transform="translate(11.069 26.92)" class="E"><ellipse cx="4.744" cy="4.751" rx="4.744" ry="4.751" class="H"/><ellipse transform="matrix(.913545 -.406737 .406737 .913545 -2.426617 3.222044)" cx="6.366" cy="7.319" rx="1.582" ry="1" class="D"/></g><g transform="translate(20.556 20.586)" class="E"><ellipse cx="4.744" cy="4.751" rx="4.744" ry="4.751" class="H"/><ellipse transform="matrix(.913545 -.406737 .406737 .913545 -2.426617 3.222044)" cx="6.366" cy="7.319" rx="1.582" ry="1" class="D"/></g><g transform="translate(14.231 17.419)" class="E"><ellipse cx="4.744" cy="4.751" rx="4.744" ry="4.751" class="H"/><ellipse transform="matrix(.913545 -.406737 .406737 .913545 -2.426617 3.222044)" cx="6.366" cy="7.319" rx="1.582" ry="1" class="D"/></g><g transform="translate(0 25.337)" class="E"><ellipse cx="4.744" cy="4.751" rx="4.744" ry="4.751" class="H"/><ellipse transform="matrix(.913545 -.406737 .406737 .913545 -2.426617 3.222044)" cx="6.366" cy="7.319" rx="1.582" ry="1" class="D"/></g><g transform="translate(4.744 20.586)" class="E"><ellipse cx="4.744" cy="4.751" rx="4.744" ry="4.751" class="H"/><ellipse transform="matrix(.913545 -.406737 .406737 .913545 -2.426617 3.222044)" cx="6.366" cy="7.319" rx="1.582" ry="1" class="D"/></g><g transform="translate(11.069 22.17)" class="E"><ellipse cx="4.744" cy="4.751" rx="4.744" ry="4.751" class="H"/><ellipse transform="matrix(.913545 -.406737 .406737 .913545 -2.426617 3.222044)" cx="6.366" cy="7.319" rx="1.582" ry="1" class="D"/></g><g transform="translate(1.581 17.419)" class="E"><ellipse cx="4.744" cy="4.751" rx="4.744" ry="4.751" class="H"/><ellipse transform="matrix(.913545 -.406737 .406737 .913545 -2.426617 3.222044)" cx="6.366" cy="7.319" rx="1.582" ry="1" class="D"/></g><g stroke-width="1.5"><path d="M7.906 10.195C8.83 5.818 9.346 7.95 9.9 6.2c.663-2.096 1.04-4.023.857-6.2"/><path d="M7.9 17.943c.927-4.373 1.443-2.244 1.998-3.992 1.384-4.357-2.383.34 1.28-9.194" transform="matrix(.45399 -.891007 .891007 .45399 -4.904962 14.696382)"/></g><g transform="translate(7.906 14.252)" class="E"><ellipse cx="4.744" cy="4.751" rx="4.744" ry="4.751" class="H"/><ellipse transform="matrix(.913545 -.406737 .406737 .913545 -2.426617 3.222044)" cx="6.366" cy="7.319" rx="1.582" ry="1" class="D"/></g><g transform="translate(15.812 12.668)" class="E"><ellipse cx="4.744" cy="4.751" rx="4.744" ry="4.751" class="H"/><ellipse transform="matrix(.913545 -.406737 .406737 .913545 -2.426617 3.222044)" cx="6.366" cy="7.319" rx="1.582" ry="1" class="D"/></g></g></g></g><g transform="translate(14.231 278.704)"><mask id="m" class="D"><use xlink:href="#F" href="#E"/></mask><use xlink:href="#F" class="G J" href="#E"/><g mask="url(#m)"><g transform="matrix(.994522 -.104528 .104528 .994522 9.913829 19.136925)"><g transform="translate(.106 .229)"><mask id="n" class="D"><use xlink:href="#F"/></mask><use fill="#fac748" xlink:href="#F"/><g class="E B"><use xlink:href="#V" stroke-opacity=".29" stroke="#42be65" mask="url(#n)" transform="matrix(.5 .866025 -.866025 .5 16.251938 -7.920964)" class="C"/><use xlink:href="#W" fill="#ff8100" mask="url(#n)" class="F"/></g></g><g transform="translate(9.728 5.147)" class="F E B"><g fill="#000"><ellipse transform="matrix(.62932 -.777146 .777146 .62932 -.545981 1.670355)" cx="1.478" cy="1.408" rx="1.372" ry="1"/><ellipse transform="matrix(-.62932 -.777146 -.777146 .62932 18.616497 8.879614)" cx="10.755" cy="1.408" rx="1.372" ry="1"/><ellipse transform="matrix(.017452 -.999848 .999848 .017452 3.335598 8.743034)" cx="6.116" cy="2.674" rx="1.372" ry="1"/></g></g></g></g></g><g transform="translate(14.231 346.797)"><mask id="o" class="D"><use xlink:href="#H" href="#E"/></mask><use xlink:href="#H" class="G J" href="#E"/><g mask="url(#o)"><g transform="translate(11.069)"><g transform="translate(2.53 16.469)"><mask id="p" class="D"><use xlink:href="#G"/></mask><path d="M2.2 2.596c1.893-2.99 4.912-2.92 8.047-2.802l1.77.044c2.527-.001 5.054.004 7.2.804 1.557.582 2.9 1.58 3.835 3.288 1.298 2.395 1.278 5.32 1.242 8.473l-.012 1.55c0 5.455-.74 9.662-3.67 12.717-2.057 2.143-5.8 2.718-8.585 2.718-2.916 0-6.486-.397-8.6-2.723C.644 23.6-.25 19.23-.25 13.953c0-4.195.584-8.424 2.44-11.357z" class="E F"/><g mask="url(#p)" class="B C"><g transform="translate(-24.035 -15.202)"><g stroke="#f18805" class="e"><use xlink:href="#X"/><use xlink:href="#Y"/><use xlink:href="#Y" x="11.385" y="5.067"/><use xlink:href="#Y" x="6.325" y="8.867"/><use xlink:href="#Y" x="2.53" y="13.934"/><use xlink:href="#Y" x="-13.915" y="5.067"/></g><g transform="translate(2.53 1.267)" stroke="#093910" class="X"><use xlink:href="#X"/><use xlink:href="#Y"/><use xlink:href="#Y" x="11.385" y="5.067"/><use xlink:href="#Y" x="6.325" y="8.867"/><use xlink:href="#Y" x="2.53" y="13.934"/><use xlink:href="#Y" x="-13.915" y="5.067"/></g><g stroke="#fac748" class="X"><path d="M24.035 4.252L28.113 0l3.73 4.62 5.32-4.26 3.123 4.425 4.28-4.54 3.66 5.25 5.34-5.48"/><use xlink:href="#Y" x="5.06"/><use xlink:href="#Y" x="16.445" y="5.067"/><use xlink:href="#Y" x="11.385" y="8.867"/><use xlink:href="#Y" x="7.59" y="13.934"/><use xlink:href="#Y" x="-8.855" y="5.067"/></g><g transform="translate(0 18.419)"><g transform="translate(0 .584)" stroke="#f18805" class="e"><use xlink:href="#X"/><use xlink:href="#Y"/><use xlink:href="#Y" x="11.385" y="5.067"/><use xlink:href="#Y" x="6.325" y="8.867"/><use xlink:href="#Y" x="2.53" y="13.934"/><use xlink:href="#Y" x="-13.915" y="5.067"/></g><g transform="translate(2.53 .267)" stroke="#093910" class="X"><path d="M20.556 4.252L24.635 0l3.73 4.62 5.32-4.26 3.123 4.425 4.28-4.54 3.66 5.25 5.34-5.48"/><use xlink:href="#Y" x="12.965" y="5.067"/><use xlink:href="#Y" x="1.581"/><use xlink:href="#Y" x="7.905" y="8.867"/><use xlink:href="#Y" x="4.111" y="13.934"/><use xlink:href="#Y" x="-13.915" y="6.65"/></g><g stroke="#fac748" class="X"><use xlink:href="#Y" x="5.06" y="0.583"/><use xlink:href="#Y" x="16.445" y="5.65"/><path d="M24.035 4.835l4.08-4.252 3.73 4.62 5.32-4.26 3.123 4.425 4.28-4.54 3.66 5.25L53.566.6"/><use xlink:href="#Y" x="11.385" y="9.45"/><use xlink:href="#Y" x="7.59" y="14.518"/><use xlink:href="#Y" x="-8.855" y="5.65"/></g></g></g></g></g><path d="M13.915 15.25L2.53 7.65l7.6 8.868L0 13.984c5.903-2.534 10.12-1.69 12.65 2.534 3.795 6.334 1.265-17.736 0-16.47s-5.06 13.935-2.53 16.47c1.367 1.37 4.162-.487 8.855-6.334.73-.9 1.995-2.6 3.795-5.067-5.06.845-8.433 3.378-10.12 7.6s3.795 3.378 16.445-2.534c-7.6-2.534-11.807-2.956-12.65-1.267s-1.265 4.645-1.265 8.868c5.903-2.534 9.277-3.8 10.12-3.8 1.265 0-10.12-2.534-13.915 3.8s20.24-10.135 17.7-11.402-11.385 7.6-12.65 13.935" class="B C E F W"/></g></g></g></g><use fill="#000" filter="url(#I)" xlink:href="#H"/><use xlink:href="#H" class="D"/><g transform="translate(14 14)"><mask id="q" class="D"><use xlink:href="#J"/></mask><use xlink:href="#J" class="T"/><g mask="url(#q)" class="Y"><g transform="translate(-282.36 -6.752)"><g transform="translate(.367)"><path d="M758.048.154v284.21H475.953l.027-3.343C478.46 127.038 601.895 2.678 754.735.18l3.313-.028z" class="R"/><path d="M400.63 403.573V.154H.466L.505 4.9C4.02 223.47 179.12 400 395.93 403.534l4.7.04z" transform="matrix(-1 0 0 1 401.095162 0)" class="O"/></g></g></g></g><g transform="translate(312 14)"><mask id="r" class="D"><use xlink:href="#K"/></mask><use xlink:href="#K" class="T"/><g mask="url(#r)" class="Y"><g transform="translate(-24.544 -63.132)"><g transform="translate(179.571)"><use xlink:href="#Z" class="K"/><use xlink:href="#a" class="R"/><use xlink:href="#b" class="O"/><ellipse cx="44.645" cy="51.296" rx="44.624" ry="44.728" class="Z"/></g><use xlink:href="#c" class="U"/><use xlink:href="#d" class="R"/><use xlink:href="#e" class="c"/></g></g><g transform="translate(0 95.17)"><mask id="s" class="D"><use xlink:href="#N" href="#K"/></mask><use xlink:href="#N" class="T" href="#K"/><g mask="url(#s)" class="Y"><g transform="translate(-140.656 -3.769)"><g transform="translate(179.571)"><use xlink:href="#Z" class="K"/><use xlink:href="#a" class="R"/><use xlink:href="#b" class="O"/><ellipse cx="44.645" cy="51.296" rx="44.624" ry="44.728" class="Z"/></g><use xlink:href="#d" class="R"/><use xlink:href="#e" class="c"/></g></g></g><g transform="translate(0 190.339)"><mask id="t" class="D"><use xlink:href="#O" href="#K"/></mask><use xlink:href="#O" class="T" href="#K"/><g mask="url(#t)" class="Y"><g transform="translate(-250.16 -3.769)"><g transform="translate(179.571)"><use xlink:href="#Z" class="K"/><use xlink:href="#a" class="R"/><use xlink:href="#b" class="O"/><ellipse cx="57.629" cy="89.015" rx="44.624" ry="44.728" class="Z"/></g><use xlink:href="#c" class="U"/><use xlink:href="#d" class="R"/><use xlink:href="#e" class="c"/></g></g></g><g class="N"><rect x="101.008" width="252.992" height="14.051" rx="3.5"/><rect x="101.008" y="95.17" width="252.992" height="14.051" rx="3.5"/><rect x="101.008" y="190.339" width="252.992" height="14.051" rx="3.5"/><rect x="101.008" y="18.066" width="252.992" height="14.051" rx="3.5"/><rect x="101.008" y="113.235" width="252.992" height="14.051" rx="3.5"/><rect x="101.008" y="208.405" width="252.992" height="14.051" rx="3.5"/><rect x="101.008" y="36.132" width="149.152" height="14.051" rx="3.5"/><rect x="101.008" y="131.301" width="149.152" height="14.051" rx="3.5"/><rect x="101.008" y="226.471" width="149.152" height="14.051" rx="3.5"/></g><g class="K"><rect x="101.008" y="73.497" width="149.152" height="14.051" rx="3.5"/><rect x="101.008" y="168.667" width="149.152" height="14.051" rx="3.5"/><rect x="101.008" y="263.836" width="149.152" height="14.051" rx="3.5"/></g></g><rect x="40" y="247" width="174" height="32" rx="3.5" class="K"/><g filter="url(#L)" transform="translate(406 212)"><path stroke="#f4f2ee" stroke-width=".768" d="M0 0h526.05v592.05H0z" class="D"/><g transform="translate(60.771 358.646)" filter="url(#M)"><path d="M0 0h398.81v45.965H0z" class="D"/><path d="M70.44 20.26l-4.497 2.765-3.73-5.737c-.04-.062-.108-.09-.16-.14l1.035-1.062a.56.56 0 0 0 0-.778l-1.4-1.425a.53.53 0 0 0-.76 0l-1.4 1.425a.56.56 0 0 0 0 .778l1.035 1.062c-.052.05-.118.08-.16.14l-3.732 5.737-4.496-2.765c-.373-.23-.844-.206-1.194.06a1.12 1.12 0 0 0-.403 1.152l2.15 8.814c.12.5.55.835 1.044.835h15.05c.493 0 .924-.345 1.043-.835l2.15-8.814c.106-.432-.054-.886-.403-1.152s-.82-.288-1.194-.06z" class="Q"/><g transform="translate(14.481 9.605)"><path d="M13.792 0C6.175 0 0 6.143 0 13.72s6.175 13.72 13.792 13.72S27.583 21.3 27.583 13.72 21.41 0 13.792 0z" fill="#cce4ff" class="G"/><g transform="translate(6.553 3.973)"><g transform="translate(4.181 .248)" fill="#ff5fa7"><path d="M9.236 1.596C8.91 8.84.982 11.526 6.05 16.246c1.21 1.128-6.64 1.144-5.966 0 3.596-6.104-.163-7.407-.082-14C.01 1.47.122.74.318.07 4.264-.04 7.155.06 8.99.375c.146.025.228.432.245 1.22z"/></g><g stroke="#ffc200" class="B C M"><path d="M14.478.993c-.434 1.877-1.26 3.8-1.42 5.728-.116 1.397-.052 2.803-.078 4.205"/><path d="M13.98.93c-.974 2.438-1.352 4.63-1.444 7.265-.072 2.07-.28 1.564.135 2.42"/><path d="M12.668 2.42c-.914 3.754-.956 4.967-.316 8.816"/><path d="M12.294 11.672c-2.268-2.027-1.318-5.565-.7-8.07"/></g><path d="M7.897 1.8c.138.678.1 1.132-.113 1.363C6.653 4.39 6.212 4.86 4.94 6.607c-.017.024-.012.086.017.087.14.001.3-.003.415-.082.816-.556 1.447-1.4 2.35-1.8 1.216-.54-1.668 1.325-.97 1.688.285.15 5.273-.534 3.66-.214s-4.007.764-3.806 1.025c.84 1.09 1.05 1.587.84 2.562" class="B C M S"/><g stroke="#ffc200" class="B C M"><path d="M4.868 3.104C4.135 5.04 3.155 9.76.27 10.306c-.037.007-.056-.05-.083-.074"/><path d="M4.43 1.8C3.768 5.07 2.787 7.96.062 9.872"/><path d="M4.056.56C3.2 3.604 2.782 6.916.187 9.002"/><path d="M3.183.683C2.4 3.95 2.314 6.098 0 8.38"/></g><path d="M3.983.027c-.354 0 .213 2.17.435 2.672.188.424.705.64 1.55.648.937.03 1.588-.184 1.954-.638l.056-.072c.435.868 1.31 1.115 2.373 1.115 2.457 0 3.437-1.48 3.044-3.725H3.983zm4.337.83l4.178-.058.001.015c.056.715-.07 1.247-.35 1.6l-.03.035c-.336.393-.962.598-1.91.598-.648 0-1.405-.252-1.73-1.057l-.076-.228c-.037-.137-.035-.354-.054-.613L8.32.856zm-3.677.07h3.032l-.005.444c-.025.998-.238 1.444-2.015 1.48l-.33.003c-.043 0-.065-.007-.105-.034-.085-.058-.178-.174-.264-.35-.14-.288-.237-.692-.287-1.208L4.643.926z" fill="#00ffce" class="G"/><g fill="#212121"><use xlink:href="#f" transform="matrix(-1 0 0 1 14.166164 0)"/><use xlink:href="#f" x="1.81" transform="matrix(-1 0 0 1 17.785712 0)"/></g><g fill="#ff0025"><path d="M1.553 17.798c.4.584 2.082.432 1.18-.75s-1.582.167-1.18.75z" transform="matrix(-1 0 0 1 4.430826 0)"/><path d="M3.707 18.798c.412.563 1.916.205 1-.937s-1.402.374-1 .937z" transform="matrix(-1 0 0 1 8.549624 0)"/><path d="M6.583 19.134c.417.585 1.915.32.978-.865s-1.394.28-.978.865z" transform="matrix(-1 0 0 1 14.290976 0)"/><path d="M9.396 18.77c.424.575 1.865.276 1.25-.74s-1.673.164-1.25.74z" transform="matrix(-1 0 0 1 20.094734 0)"/><path d="M11.63 18.085c.402.57 1.648.296 1.187-.732s-1.59.163-1.187.732z" transform="matrix(-1 0 0 1 24.463156 0)"/></g></g></g><rect x="172.167" y="19.209" width="79.302" height="8.232" rx="4.116" class="U"/><rect x="83.9" y="19.209" width="48.961" height="8.232" rx="4.116" class="d"/><g class="L"><rect x="262.732" y="19.209" width="48.271" height="8.232" rx="4.116"/><rect x="331.001" y="13.464" width="48.271" height="19.763" rx="4.32"/></g><g transform="translate(0 100.704)"><path d="M0 0h398.81v46.2H0z" class="D"/><rect x="172.167" y="19.303" width="62.752" height="8.273" rx="4.136" class="U"/><rect x="83.9" y="19.303" width="79.302" height="8.273" rx="4.136" class="d"/><g class="L"><rect x="262.732" y="19.303" width="48.271" height="8.273" rx="4.136"/><rect x="331.001" y="13.558" width="48.271" height="19.763" rx="4.32"/></g></g><g transform="translate(0 50.352)"><path d="M0 0h398.81v46.2H0z" class="D"/><g class="Q"><path d="M70.44 20.59l-4.497 2.78-3.73-5.765c-.04-.063-.108-.092-.16-.142l1.035-1.067c.21-.215.21-.567 0-.782l-1.4-1.432a.53.53 0 0 0-.76 0l-1.4 1.432c-.21.215-.21.567 0 .782l1.035 1.067c-.052.05-.118.08-.16.142l-3.732 5.765-4.496-2.78a1.05 1.05 0 0 0-1.194.059c-.35.267-.508.724-.403 1.158l2.15 8.858c.12.492.55.84 1.044.84h15.05c.493 0 .924-.347 1.043-.84l2.15-8.858c.106-.434-.054-.89-.403-1.158a1.05 1.05 0 0 0-1.194-.059z"/><path d="M70.44 69.996l-4.497 2.78L62.213 67c-.04-.063-.108-.092-.16-.142L63.09 65.8c.21-.215.21-.567 0-.782l-1.4-1.432a.53.53 0 0 0-.76 0l-1.4 1.432c-.21.215-.21.567 0 .782l1.035 1.067c-.052.05-.118.08-.16.142l-3.732 5.765-4.496-2.78a1.05 1.05 0 0 0-1.194.059c-.35.267-.508.724-.403 1.158l2.15 8.858c.12.492.55.84 1.044.84h15.05c.493 0 .924-.347 1.043-.84l2.15-8.858c.106-.434-.054-.89-.403-1.158a1.05 1.05 0 0 0-1.194-.059z"/></g><rect x="172.167" y="19.303" width="67.579" height="8.273" rx="4.136" class="U"/><rect x="83.9" y="19.303" width="39.996" height="8.273" rx="4.136" class="d"/><g class="L"><rect x="262.732" y="19.303" width="48.271" height="8.273" rx="4.136"/><rect x="331.001" y="13.558" width="48.271" height="19.763" rx="4.32"/></g></g><g transform="translate(14.481 110.36)"><use xlink:href="#g" class="G J"/><g transform="translate(.872 2.927)"><path d="M1.547 15.542c.016-6.804 9.023-12.834 14.2-12.83 7.863.006 5.91 13.134 5.548 13.158-2.226.153-8.81.043-19.75-.328z" fill="#001d75" transform="matrix(.956305 -.292372 .292372 .956305 -2.216852 3.816564)"/><g transform="translate(7.659 3.861)" fill="#f1f4f6"><path d="M11.8 3.483c.34 2.708-2.312 9.544-5.112 9.17-2.352-.316-3.722-2.314-4.447-4.452-.123-.362-1.94.582-2.19-1.1s1.733-.625 1.68-.934c-.174-1.032-.16-1.908-.134-2.607.004-.1.598-.452 1.867-.654a13.66 13.66 0 0 1 2.117-.154c1.207-.002 2.555.117 3.687.26.326.04.028-2.993.31-2.95.286.044 1.15 3.165 1.373 3.206.522.096.844.178.848.215z"/></g><g transform="translate(11.576 7.536)"><g transform="translate(3.741 .561)" class="B C M S"><path d="M.31 0c.153 1.476 1.245.99 1.245.005"/><path d="M.374.8L0 1.308"/><path d="M.934.996l-.25.8"/><path d="M1.245.872l.2.685"/></g><path d="M3.118 0l1.833 2.697c.094.115.275.253.22.395-.05.13-1.24.23-1.343.018-.054-.11-.07-.49-.066-.365.022.762.09 1.243.2 1.442" fill="#f3fff6" class="B C M b"/><g transform="translate(.503 .498)" class="B C M S"><path d="M.275.105C.043 1.083 1.423 1.207 1.68 0"/><path d="M.436.8L0 1.12"/><path d="M.934.872l-.06.56"/><path d="M1.308.8l.2.436"/></g><path d="M2.91 4.18c.4-.098.448.652.728.438.14-.108.218-.378.38-.403.248-.038.638.104 1.17.428l-.963 1.117c-.6.72-3.13.01-3.767-.378l1.943.034c2.877-.58 2.23-.59-1.943-.034.567-.762 2.05-1.103 2.45-1.2z" fill="#ff243a" transform="matrix(.956305 .292372 -.292372 .956305 1.620016 -.601851)"/></g></g></g><g transform="translate(14.481 61.388)"><use xlink:href="#g" class="G J"/><path d="M17.677 10.235c3.168 1.977 5.393 6.077 6.675 12.302a13.73 13.73 0 0 1-10.654 5.053c-4.367 0-8.258-2.035-10.78-5.208.232-1.567.546-2.948.94-4.148.427-1.295 1.783-3.518 4.067-6.668l.697-.952c3.253.174 6.096.052 8.495-.294l.557-.086z" class="O"/><g class="B C M b"><path d="M7.21 20.836c1.877.966 3.086-.27 4.352-1.613"/><path d="M13.673 19.44c.258 1.116.42 1.815 1.06 2.715.015.022-.05.013-.077.02"/><path d="M15.916 21.81c-1.28-.76-.51-.188-1.944-2.118"/><path d="M18.553 21.26c-1.74-.118-3.53-.75-4.85-1.906"/><path d="M18.707 20.173c-.916.13-2.784 1.065-4.967-.944"/><path d="M18.64 18.853c-2.393.482-.915.29-4.466.202"/><path d="M9.013 22.342c1.067-.85 2.642-1.79 2.92-3.277"/><path d="M10.543 22.326c1.27-.838.376-.143 1.828-2.863"/><path d="M11.95 22.4c.962-1.873.644-.95 1.05-2.73"/><path d="M13.472 22.185c-.72-1.463-.455-.626-.63-2.557"/><path d="M14.91 22.115c-1.106-1.496-.57-.61-1.473-2.74"/><path d="M8.35 18.04c.97.572 2.3 1.63 3.367.68"/><path d="M7.788 19.33c.617.165 3.73 1.087 3.673-.488"/><path d="M10.073 11.024c-.073.664-.073 1.08 0 1.246.465 1.06 1.192.706 1.494-.436"/><path d="M12.066 10.276c-1.41 6.103-1.308 9.155.31 9.155s2.18-1.08 1.68-3.24l-.25-5.543c.747 2.616 1.453 2.74 2.117.374" class="O"/></g><g stroke="#ff5fa7" fill="#ff5fa7" class="B M"><path d="M7.085 16.1c-.36-.185-.567-.35-.623-.498-.296-.782.3-1.206 1.37-.623.042-.913.394-1.474 1.06-1.682s.79.353.374 1.682c.66-.098 1.076-.098 1.245 0 .567.33.304 1.132-.872 1.62.58.498.664 1.017.25 1.557s-.913.29-1.494-.747c-.83.996-1.474 1.246-1.93.747s-.25-1.183.623-2.055z"/><path d="M16.3 15.215c-.377-.194-.595-.368-.653-.522-.3-.818.316-1.262 1.437-.652.044-.956.414-1.543 1.1-1.76s.827.37.392 1.76c.693-.103 1.13-.103 1.307 0 .595.344.32 1.185-.914 1.695.6.52.697 1.065.26 1.63s-.958.304-1.568-.782c-.87 1.043-1.546 1.304-2.025.782s-.26-1.24.653-2.15z" transform="matrix(-.987688 .156434 .156434 .987688 33.037306 -2.600092)"/></g><g fill="#d41c61"><circle cx="8.486" cy="16.079" r="1"/><circle cx="17.797" cy="15.071" r="1"/></g><path d="M18.125 10.388c2.564-.46 3.996-.79 4.296-.996l-.56-1.557-4.67.934c-.29-4.526-1.1-6.79-2.428-6.79-.432 0-.93.623-1.494 1.868-.79-2.408-1.62-2.865-2.49-1.37s-1.328 3.758-1.37 6.79l-3.05-.174c-.663-.072-1.182-.18-1.557-.325V10.2c-.067.07.394.167 1.382.294l2.976.266c1.204.092 4.193-.033 8.966-.374z" fill="#001d75"/></g></g><g transform="translate(203.204 37.952)"><g transform="translate(.34 .305)" class="G J"><path d="M58.694 0C26.278 0 0 26.258 0 58.648s26.278 58.648 58.694 58.648 58.694-26.258 58.694-58.648S91.1 0 58.694 0z"/></g><g transform="translate(30.16 14.096)"><g transform="translate(1.583 20.646)"><mask id="u" class="D"><use xlink:href="#N"/></mask><g class="F K B C I"><use xlink:href="#N"/><g class="a"><g transform="translate(0 39.264)"><use xlink:href="#h"/><use xlink:href="#i"/><use xlink:href="#h" x="10.582"/><use xlink:href="#h" x="31.743"/><use xlink:href="#h" x="-4.77"/><use xlink:href="#h" x="16.392"/><use xlink:href="#h" x="5.81"/><use xlink:href="#h" x="26.972"/></g><g transform="translate(10.581 42.788)"><use xlink:href="#h"/><use xlink:href="#i"/><use xlink:href="#h" x="10.582"/><use xlink:href="#h" x="31.743"/><use xlink:href="#h" x="-4.77"/><use xlink:href="#h" x="16.392"/><use xlink:href="#h" x="26.972"/></g><g transform="translate(7.054 46.312)"><use xlink:href="#h"/><use xlink:href="#i"/><use xlink:href="#h" x="10.582"/><use xlink:href="#h" x="31.743"/><use xlink:href="#h" x="-4.77"/><use xlink:href="#h" x="16.392"/><use xlink:href="#h" x="5.81"/><use xlink:href="#h" x="26.972"/></g><g transform="translate(10.581 49.836)"><use xlink:href="#h"/><use xlink:href="#i"/><use xlink:href="#h" x="31.743"/><use xlink:href="#h" x="-4.77"/><use xlink:href="#h" x="16.392"/><use xlink:href="#h" x="5.81"/><use xlink:href="#h" x="26.972"/></g></g></g></g><g class="F K B C I"><g transform="translate(12.163 52.722)"><use xlink:href="#h"/><use xlink:href="#i"/><use xlink:href="#h" x="10.582"/><use xlink:href="#h" x="31.743"/><use xlink:href="#h" x="-4.77"/><use xlink:href="#h" x="16.392"/><use xlink:href="#h" x="5.81"/><use xlink:href="#h" x="26.972"/></g><g transform="translate(5.109 49.338)"><use xlink:href="#h"/><use xlink:href="#i"/><use xlink:href="#h" x="10.582"/><use xlink:href="#h" x="31.743"/><use xlink:href="#h" x="-4.77"/><use xlink:href="#h" x="16.392"/><use xlink:href="#h" x="5.81"/><use xlink:href="#h" x="26.972"/></g><g transform="translate(12.163 45.813)"><use xlink:href="#h"/><use xlink:href="#i"/><use xlink:href="#h" x="10.582"/><use xlink:href="#h" x="31.743"/><use xlink:href="#h" x="-4.77"/><use xlink:href="#h" x="16.392"/><use xlink:href="#h" x="5.81"/><use xlink:href="#h" x="26.972"/></g><g transform="translate(.362 42.289)"><use xlink:href="#h" x="4.75"/><use xlink:href="#h" x="25.91"/><use xlink:href="#h" x="15.33"/><use xlink:href="#h" x="36.49"/><use xlink:href="#h" x="-0.022"/><use xlink:href="#h" x="-4.272"/><use xlink:href="#h" x="21.14"/><use xlink:href="#h" x="10.56"/><use xlink:href="#h" x="31.72"/></g><g transform="translate(12.163 38.765)"><use xlink:href="#h"/><use xlink:href="#i"/><use xlink:href="#h" x="10.582"/><use xlink:href="#h" x="31.743"/><use xlink:href="#h" x="-4.77"/><use xlink:href="#h" x="16.392"/><use xlink:href="#h" x="5.81"/><use xlink:href="#h" x="26.972"/></g><g transform="translate(1.583 35.241)"><use xlink:href="#h"/><use xlink:href="#i"/><use xlink:href="#h" x="10.582"/><use xlink:href="#h" x="31.743"/><use xlink:href="#h" x="-4.77"/><use xlink:href="#h" x="16.392"/><use xlink:href="#h" x="5.81"/><use xlink:href="#h" x="26.972"/></g><g transform="translate(8.636 31.717)"><use xlink:href="#h"/><use xlink:href="#i"/><use xlink:href="#h" x="10.582"/><use xlink:href="#h" x="31.743"/><use xlink:href="#h" x="-4.77"/><use xlink:href="#h" x="16.392"/><use xlink:href="#h" x="5.81"/><use xlink:href="#h" x="26.972"/></g><g transform="translate(8.636 56.386)"><use xlink:href="#h"/><use xlink:href="#i"/><use xlink:href="#h" x="10.582"/><use xlink:href="#h" x="31.743"/><use xlink:href="#h" x="-4.77"/><use xlink:href="#h" x="16.392"/><use xlink:href="#h" x="5.81"/><use xlink:href="#h" x="26.972"/></g></g><path d="M28.4 29.097L1.583 21.145l19.503 10.37L1.583 35.24C12.96 24.7 21.085 23.457 25.96 31.514 33.274 43.6 28.4-2.325 25.96.092S16.2 26.68 21.085 31.514c2.635 2.613 8.02-.93 17.065-12.085 1.408-1.736 3.845-4.96 7.313-9.668-9.75 1.61-16.252 6.445-19.503 14.502s7.313 6.445 31.692-4.834c-14.627-4.834-22.753-5.64-24.378-2.417-1.54 3.055-2.35 8.282-2.43 15.68l-.007 1.238c14.14 3.223 22.024 4.834 23.65 4.834 2.438 0-23.65-16.92-30.963-4.834s44.35-30.72 34.13-21.753-21.94 14.502-24.378 26.588 3.577 14.096.05 14.096h-3.527c0-14.096 1.176-21.145 3.527-21.145" transform="matrix(1 0 0 -1 0 52.861716)" class="B C F I W"/></g></g><g transform="translate(60.391 208.218)" fill="#d4d4d4"><rect x="152.308" y=".518" width="97.234" height="13.359" rx="4.852"/><rect x=".38" y="34.675" width="400.71" height="13.359" rx="4.852"/><rect x=".38" y="53.651" width="400.71" height="13.359" rx="4.852"/><rect x=".38" y="72.627" width="400.71" height="13.359" rx="4.852"/><rect x=".38" y="91.603" width="400.71" height="13.359" rx="4.852"/><rect x=".38" y="110.579" width="400.71" height="13.359" rx="4.852"/></g><rect x="205.103" y="184.067" width="114.25" height="15.788" rx="4.852" class="Z"/><rect x="203.204" y="540.816" width="114.25" height="15.788" rx="4.852" class="T"/></g></g></svg>