<svg xmlns="http://www.w3.org/2000/svg" xmlns:xlink="http://www.w3.org/1999/xlink" width="634" height="766" xmlns:v="https://vecta.io/nano"><style><![CDATA[.B{stroke-linecap:round}.C{stroke-linejoin:round}.D{stroke-width:1.5}.E{fill:#0064ff}.F{mask:url(#w)}.G{mask:url(#y)}.H{fill:#fff}.I{fill:#000}.J{fill-rule:nonzero}.K{stroke:#f4f2ee}.L{stroke:#212121}.M{mask:url(#x)}.N{mask:url(#v)}]]></style><defs><filter x="-51.8%" y="-27.9%" width="203.6%" height="155.8%" id="A"><feOffset dy="24" in="SourceAlpha"/><feGaussianBlur stdDeviation="16"/><feColorMatrix values="0 0 0 0 0 0 0 0 0 0.160784314 0 0 0 0 0.349019608 0 0 0 0.1 0" result="C"/><feMerge><feMergeNode in="C"/><feMergeNode in="SourceGraphic"/></feMerge></filter><filter x="-22.5%" y="-12.1%" width="145.0%" height="124.2%" id="B"><feOffset dy="12" in="SourceAlpha"/><feGaussianBlur stdDeviation="12"/><feColorMatrix values="0 0 0 0 0 0 0 0 0 0.164542109 0 0 0 0 0.362271488 0 0 0 0.1 0" result="C"/><feMerge><feMergeNode in="C"/><feMergeNode in="SourceGraphic"/></feMerge></filter><path d="M24.927 0h230.1c13.244 0 23.985 10.73 24 23.973l.547 495.248c.015 13.255-10.72 24.012-23.973 24.026h-.027-230.1c-13.244 0-23.985-10.73-24-23.973L.927 24.027C.912 10.772 11.645.015 24.9 0h.027z" id="C"/><filter x="-8.5%" y="-5.2%" width="116.5%" height="110.7%" id="D"><feOffset dy="4" in="SourceAlpha"/><feGaussianBlur stdDeviation="3.5"/><feColorMatrix values="0 0 0 0 0 0 0 0 0 0.164542109 0 0 0 0 0.362271488 0 0 0 0.1 0" result="C"/><feMerge><feMergeNode in="C"/><feMergeNode in="SourceGraphic"/></feMerge></filter><path id="E" d="M0 .58h265.117v409.286H0z"/><filter x="-179.2%" y="-119.4%" width="458.3%" height="338.9%" id="F"><feOffset dy="4" in="SourceAlpha"/><feGaussianBlur stdDeviation="3.5"/><feColorMatrix values="0 0 0 0 0 0 0 0 0 0.164542109 0 0 0 0 0.362271488 0 0 0 0.1 0" result="C"/><feMerge><feMergeNode in="C"/><feMergeNode in="SourceGraphic"/></feMerge></filter><path d="M33.815 66h246.37C298.86 66 314 50.865 314 32.195V0H0v32.195C0 50.865 15.14 66 33.815 66z" id="G"/><filter x="-16.2%" y="-86.4%" width="132.5%" height="254.5%" id="H"><feOffset dy="-6" in="SourceAlpha"/><feGaussianBlur stdDeviation="16"/><feColorMatrix values="0 0 0 0 0 0 0 0 0 0.160784314 0 0 0 0 0.349019608 0 0 0 0.1 0"/></filter><filter x="-16.4%" y="-3566.1%" width="132.7%" height="7232.2%" id="I"><feGaussianBlur stdDeviation="10" in="SourceGraphic"/></filter><path id="J" d="M36.037 0h234.9c19.37 0 35.08 15.692 35.1 35.063l.526 499.8c.02 19.385-15.678 35.117-35.063 35.137h-.037-234.9c-19.37 0-35.08-15.692-35.1-35.063l-.526-499.8C.917 15.752 16.615.02 36 0h.037z"/><path id="K" d="M36.03 4.5h233.423c16.556 0 29.983 13.413 30 29.97l.515 501c.017 16.57-13.4 30.014-29.97 30.03h-.03H36.546c-16.556 0-29.983-13.413-30-29.97l-.515-501C6.014 17.962 19.43 4.517 36 4.5h.03z"/><path id="L" d="M14.94 14.927h29.878V44.78H14.94V14.927zm-7.47 44.78h44.818a7.47 7.47 0 0 0 7.47-7.463V7.463C59.757 3.336 56.41 0 52.287 0H7.47C3.346 0 0 3.336 0 7.463v44.78a7.47 7.47 0 0 0 7.47 7.463h0z"/><path id="M" d="M142.753 33.17h-16.6V16.585h16.6V33.17zm8.3-33.17h-33.198c-4.58 0-8.3 3.707-8.3 8.293v33.17a8.3 8.3 0 0 0 8.3 8.293h33.198a8.3 8.3 0 0 0 8.3-8.293V8.293c0-4.586-3.718-8.293-8.3-8.293h0z"/><path id="N" d="M33.198 142.632H16.6v-16.585h16.6v16.585zm8.3-33.17H8.3c-4.58 0-8.3 3.707-8.3 8.293v33.17a8.3 8.3 0 0 0 8.3 8.293h33.198a8.3 8.3 0 0 0 8.3-8.293v-33.17c0-4.586-3.718-8.293-8.3-8.293h0z"/><path id="O" d="M99.595 0H69.716v19.902h29.878z"/><path id="P" d="M77.186 55.5h22.41V40.563h-14.94V25.637h-14.94v22.4c0 4.127 3.346 7.463 7.47 7.463"/><path id="Q" d="M109.554 62.95V97.07c0 4.717 3.718 8.53 8.3 8.53h24.9v8.53h16.6V97.07c0-4.708-3.718-8.53-8.3-8.53h-24.9V71.48h33.198v-17.06h-41.498c-4.58 0-8.3 3.82-8.3 8.53"/><path id="R" d="M59.757 99.5v-22.4a7.47 7.47 0 0 0-7.47-7.463H0v14.927h14.94V99.5h14.94V84.584h14.94V99.5h14.94z"/><path id="S" d="M105.724 127.373v15.922H75.08v-7.96H59.757v15.922c0 4.402 3.432 7.96 7.66 7.96h45.967c4.23 0 7.66-3.558 7.66-7.96v-15.922h38.306v-15.922h-45.967c-4.23 0-7.66 3.566-7.66 7.96"/><path id="T" d="M129.473 159.217h29.878v-19.902h-29.878z"/><path id="U" d="M127.036 131.444c.798 0 1.554-.063 2.268-.19l1.596-.357-.315-1.974-1.565.262c-.623.09-1.284.137-1.984.137-1.12 0-2.125-.15-3.014-.452s-1.645-.745-2.268-1.334-1.102-1.32-1.438-2.194-.504-1.894-.504-3.056c0-1.12.17-2.128.514-3.024s.82-1.655 1.428-2.278 1.33-1.103 2.163-1.44 1.747-.504 2.74-.504c1.036 0 1.963.143 2.782.43s1.512.686 2.08 1.197 1 1.127 1.302 1.848.452 1.516.452 2.383-.05 1.585-.147 2.153-.224 1.015-.378 1.344-.34.556-.556.683-.437.19-.662.19c-.252 0-.444-.056-.577-.168s-.2-.33-.2-.65h0v-6.594c-.42-.154-.948-.305-1.585-.45s-1.37-.22-2.195-.22-1.565.133-2.216.4-1.2.626-1.648 1.08-.787.99-1.02 1.607-.346 1.28-.346 1.995c0 .84.115 1.58.346 2.216s.553 1.172.966 1.606a3.92 3.92 0 0 0 1.491.977c.58.217 1.22.326 1.92.326.938 0 1.715-.217 2.33-.65.266.252.602.427 1.008.525s.812.147 1.218.147c.714 0 1.358-.14 1.932-.42a4.18 4.18 0 0 0 1.481-1.218c.413-.532.728-1.194.945-1.984s.326-1.698.326-2.72c0-1.316-.23-2.48-.693-3.496s-1.096-1.865-1.9-2.55-1.76-1.208-2.866-1.565-2.303-.535-3.59-.535c-1.176 0-2.32.196-3.434.588a8.7 8.7 0 0 0-2.971 1.764c-.868.784-1.568 1.76-2.1 2.93s-.798 2.53-.798 4.084c0 1.6.252 2.993.756 4.148s1.194 2.103 2.07 2.846 1.9 1.288 3.077 1.638 2.436.525 3.78.525zm-.19-6.342c-.434 0-.798-.074-1.092-.22a1.84 1.84 0 0 1-.704-.599 2.38 2.38 0 0 1-.367-.892c-.07-.343-.105-.718-.105-1.124s.046-.78.136-1.123.235-.64.43-.892.455-.452.777-.6.714-.22 1.176-.22a4.49 4.49 0 0 1 .882.084h0v4.284l.02.62c.014.217.035.382.063.493-.112.056-.28.102-.504.136s-.462.053-.714.053z"/><path id="V" d="M63.036 159.888c.798 0 1.554-.063 2.268-.19l1.596-.357-.315-1.974-1.564.263c-.623.09-1.285.136-1.985.136-1.12 0-2.125-.15-3.014-.452s-1.645-.745-2.268-1.333-1.102-1.32-1.44-2.195-.504-1.893-.504-3.055c0-1.12.172-2.128.514-3.024s.82-1.655 1.428-2.28 1.33-1.102 2.163-1.44 1.747-.504 2.74-.504c1.036 0 1.964.144 2.782.43s1.512.686 2.08 1.197 1 1.127 1.302 1.848.452 1.516.452 2.383-.05 1.585-.147 2.153-.224 1.015-.378 1.344-.34.556-.556.683-.437.19-.662.19c-.252 0-.444-.056-.578-.168s-.2-.33-.2-.65h0V146.3c-.42-.154-.948-.304-1.585-.45s-1.368-.22-2.194-.22-1.565.133-2.215.4-1.2.627-1.648 1.082-.788 1-1.02 1.607-.346 1.28-.346 1.995c0 .84.115 1.578.346 2.215s.553 1.172.966 1.606a3.92 3.92 0 0 0 1.491.977c.58.217 1.22.326 1.922.326.938 0 1.715-.217 2.33-.65.266.252.602.427 1.008.525s.812.147 1.218.147c.714 0 1.358-.14 1.932-.42a4.18 4.18 0 0 0 1.48-1.218c.413-.532.728-1.194.945-1.984s.325-1.697.325-2.72c0-1.316-.23-2.482-.693-3.496s-1.096-1.866-1.9-2.552-1.76-1.208-2.867-1.565-2.303-.536-3.59-.536c-1.176 0-2.32.196-3.434.588a8.7 8.7 0 0 0-2.971 1.764c-.868.784-1.568 1.76-2.1 2.93s-.798 2.53-.798 4.084c0 1.6.252 2.993.756 4.148s1.194 2.103 2.07 2.845 1.9 1.288 3.077 1.638 2.436.525 3.78.525zm-.19-6.342c-.434 0-.798-.073-1.092-.22a1.84 1.84 0 0 1-.703-.599 2.38 2.38 0 0 1-.367-.893c-.07-.343-.105-.718-.105-1.123s.045-.78.136-1.124.234-.64.43-.893.455-.45.777-.6.714-.22 1.176-.22a4.49 4.49 0 0 1 .882.084h0v4.284l.02.62c.014.217.035.382.063.494-.112.056-.28.1-.504.137s-.462.052-.714.052z"/><path id="W" d="M63.036 184.888c.798 0 1.554-.063 2.268-.19l1.596-.357-.315-1.974-1.564.263c-.623.09-1.285.136-1.985.136-1.12 0-2.125-.15-3.014-.452s-1.645-.745-2.268-1.333-1.102-1.32-1.44-2.195-.504-1.893-.504-3.055c0-1.12.172-2.128.514-3.024s.82-1.655 1.428-2.28 1.33-1.102 2.163-1.44 1.747-.504 2.74-.504c1.036 0 1.964.144 2.782.43s1.512.686 2.08 1.197 1 1.127 1.302 1.848.452 1.516.452 2.383-.05 1.585-.147 2.153-.224 1.015-.378 1.344-.34.556-.556.683-.437.19-.662.19c-.252 0-.444-.056-.578-.168s-.2-.33-.2-.65h0V171.3c-.42-.154-.948-.304-1.585-.45s-1.368-.22-2.194-.22-1.565.133-2.215.4-1.2.627-1.648 1.082-.788 1-1.02 1.607-.346 1.28-.346 1.995c0 .84.115 1.578.346 2.215s.553 1.172.966 1.606a3.92 3.92 0 0 0 1.491.977c.58.217 1.22.326 1.922.326.938 0 1.715-.217 2.33-.65.266.252.602.427 1.008.525s.812.147 1.218.147c.714 0 1.358-.14 1.932-.42a4.18 4.18 0 0 0 1.48-1.218c.413-.532.728-1.194.945-1.984s.325-1.697.325-2.72c0-1.316-.23-2.482-.693-3.496s-1.096-1.866-1.9-2.552-1.76-1.208-2.867-1.565-2.303-.536-3.59-.536c-1.176 0-2.32.196-3.434.588a8.7 8.7 0 0 0-2.971 1.764c-.868.784-1.568 1.76-2.1 2.93s-.798 2.53-.798 4.084c0 1.6.252 2.993.756 4.148s1.194 2.103 2.07 2.845 1.9 1.288 3.077 1.638 2.436.525 3.78.525zm-.19-6.342c-.434 0-.798-.073-1.092-.22a1.84 1.84 0 0 1-.703-.599 2.38 2.38 0 0 1-.367-.893c-.07-.343-.105-.718-.105-1.123s.045-.78.136-1.124.234-.64.43-.893.455-.45.777-.6.714-.22 1.176-.22a4.49 4.49 0 0 1 .882.084h0v4.284l.02.62c.014.217.035.382.063.494-.112.056-.28.1-.504.137s-.462.052-.714.052z"/><path id="X" d="M36.07 0C16.15 0 0 16.124 0 36.013s16.15 36.013 36.07 36.013 36.07-16.124 36.07-36.013S55.992 0 36.07 0z"/><path id="Y" d="M34.828 24.23c4.276 0 9.527-.268 15.754-.805l1.616-7.92h-7.002l.54-11.543H6.954l-.237 6.4C2.24 9.118 0 9.704 0 12.12s2.004 3.858 6.012 4.326l1.347 6.174c14.037 1.074 23.194 1.61 27.47 1.61z"/><path id="Z" d="M.276.92c-.193 3.37 2.808 4.23 3.64 1.126C4.55-.322 1.09-.546 0 .92"/><path id="a" d="M11.578.382c.06.717.015 1.45.176 2.152.697 3.043 4.503.09 2.485-2.452"/><path id="b" d="M46.705.001c.83 0-.152 7.396-.673 8.88-.66 1.883-2.22 1.476-3.905 1.476a12.37 12.37 0 0 1-1.403-.065 22.91 22.91 0 0 0-2.591-2.652l-.75-.623.186 1.09-.24-.38c-1.02 2.57-3.076 3.3-5.57 3.3-5.766 0-8.067-4.385-7.144-11.028h22.09zM35.248 2.998h-7.8l-.002.038c-.098 1.595.083 2.833.5 3.72l.257.448c.68 1 1.888 1.523 3.805 1.523 1.305 0 2.203-.837 2.774-2.89l.154-.62.1-.632a24.09 24.09 0 0 0 .107-.85l.074-.735zm9.253 0h-5.77c.82 3.353 1.9 4.8 3.91 5.028l.565.03c.082 0 .124-.017.2-.1.162-.153.34-.456.502-.92.265-.756.45-1.816.546-3.17l.048-.877z"/><path id="c" d="M38.28 8.632c2.71 2.135 5.1 5.243 4.698 5.756-.54.67-2.487.81-2.962.537-.382-.22-.2.078-.2 2.58"/><path id="d" d="M32.363 15.406c3.17 2.348 6.69 2.647 10.167 1.934"/><path id="e" d="M35.76 21.434c.68 2.71 2.282 4.42 3.98 6.7"/><path id="f" d="M38.532 21.138c1.855 5.857 1.442 3.36 1.863 7.365"/><path id="g" d="M40.84 21.56c.554 5.694.487 3.326.487 7.1"/><path id="h" d="M45 21.77c-.153 2.76-.882 4.96-2.265 7.343"/><path id="i" d="M46.894 21.497c-.253 2.692-1.022 5.286-2.837 7.386"/><path id="j" d="M47.932 24.388c-2.242 3-2.513 3.918-5.864 4.706"/><path id="k" d="M32.6 14.426c-.203.544-.607 1.08-1.28 1.112"/><path id="l" d="M6.256 17.525v-.876H1.378v-.03c0-.246.057-.494.172-.745s.27-.507.462-.768a9.14 9.14 0 0 1 .656-.784l.753-.776.9-.922a8.22 8.22 0 0 0 .798-.953 4.77 4.77 0 0 0 .559-1.022c.14-.353.21-.73.21-1.13 0-.9-.254-1.606-.76-2.113s-1.263-.76-2.267-.76a3.41 3.41 0 0 0-1.029.146c-.308.097-.58.213-.813.346a3.37 3.37 0 0 0-.582.407l-.32.315.507.69a5.06 5.06 0 0 1 .283-.261c.13-.113.286-.223.47-.33s.4-.202.65-.284.532-.123.85-.123c.567 0 1.037.156 1.4.47s.56.827.56 1.544a2.66 2.66 0 0 1-.149.906 3.42 3.42 0 0 1-.403.784 5.51 5.51 0 0 1-.589.714l-.71.714-.932.922a7.79 7.79 0 0 0-.88 1.029c-.264.37-.48.76-.65 1.175s-.254.863-.254 1.344l.007.254.007.115h5.952zm5.323 0V6.878h-.686c-.457.574-.92 1.027-1.387 1.36a6.58 6.58 0 0 1-1.596.822h0l.283.768c.24-.072.477-.166.716-.284l.686-.37c.22-.128.415-.26.59-.392s.316-.26.425-.384h0v9.126h.97z"/><path id="m" d="M2.04 4.1l.072-1.627.11-1.437.133.254.208.418.245.51.25.53.22.474.152.35h.325l.152-.35.22-.474.25-.53.245-.51.208-.418.133-.254.11 1.437.072 1.627h.368l-.11-1.916L5.254.432H4.95l-.34.61-.36.72-.347.736-.296.654-.296-.654-.347-.736-.36-.72-.34-.61h-.32L1.79 2.183 1.682 4.1h.357zm5.134.058l.333-.013.296-.034.235-.04.155-.034V2.3a1.45 1.45 0 0 0-.053-.402.83.83 0 0 0-.171-.32.79.79 0 0 0-.307-.212 1.23 1.23 0 0 0-.461-.077 2.41 2.41 0 0 0-.456.037c-.126.025-.22.05-.28.08h0l.048.302a2.87 2.87 0 0 1 .219-.069 1.79 1.79 0 0 1 .453-.042c.142 0 .257.022.344.066s.155.102.203.175.08.153.093.243.02.183.02.278h0v.17a.41.41 0 0 0-.077-.024l-.133-.026-.16-.02-.157-.008c-.167 0-.322.016-.464.048a1.08 1.08 0 0 0-.368.151c-.103.07-.183.156-.24.262s-.085.233-.085.38c0 .155.026.287.077.394s.123.196.213.265.197.12.32.15.257.048.403.048zm.06-.307c-.1 0-.21-.01-.296-.03a.64.64 0 0 1-.224-.093.42.42 0 0 1-.144-.169c-.034-.07-.05-.157-.05-.26 0-.116.025-.2.075-.28a.53.53 0 0 1 .192-.167c.078-.04.164-.067.256-.08s.18-.02.267-.02c.15 0 .267.01.352.03a1.07 1.07 0 0 1 .187.056h0v.963a2.44 2.44 0 0 1-.259.034l-.355.013zm1.77 1.244c.156 0 .292-.018.408-.053s.217-.1.304-.164a1.19 1.19 0 0 0 .237-.283 3.04 3.04 0 0 0 .208-.41c.17-.402.33-.845.475-1.328l.39-1.492h-.347l-.152.65-.15.6-.168.58-.208.62-.3-.646-.253-.64-.205-.606-.15-.548h-.368l.203.7.26.714.304.706.34.672a1.91 1.91 0 0 1-.152.307.8.8 0 0 1-.173.198.58.58 0 0 1-.216.108c-.08.02-.17.032-.27.032a.72.72 0 0 1-.205-.029c-.066-.02-.106-.034-.12-.045h0l-.07.286c.018.01.063.026.136.048a.87.87 0 0 0 .243.032z"/><path id="n" d="M20.09.01L.828 4.443c-.437.1-.765.457-.82.893a1.04 1.04 0 0 0 .578 1.058L6.057 9.1l.56 5.45a1.05 1.05 0 0 0 .8.908c.435.11.895-.062 1.148-.425l.166-.166-1.106-4.16a1.41 1.41 0 0 1 .707-1.339l4.754-2.752-3.8 3.588c-.27.255-.382.63-.298.987l1.732 7.316c.1.428.467.748.912.802a1.08 1.08 0 0 0 1.083-.565l9.05-17.278a1.02 1.02 0 0 0 .106-.204c.095-.242.036-.612-.072-.866-.134-.314-.703-.445-1.707-.395z"/><path id="o" d="M63.5 26h4v-4h-4v4zm-6 0h4v-4h-4v4zm0 6h4v-4h-4v4zm-6-6h4v-4h-4v4zm0 6h4v-4h-4v4zm17-16h-2v-2h-2v5h-2v-3h-6v-2h-2v5h-2v-3h-2a2 2 0 0 0-2 2v15c0 1.102.897 2 2 2h18c1.103 0 2-.898 2-2V18c0-1.103-.897-2-2-2z"/><path id="p" d="M17.857 11.786c-.657 0-1.2-.528-1.2-1.18s.533-1.18 1.2-1.18 1.2.528 1.2 1.18-.533 1.18-1.2 1.18m-4.762 0c-.657 0-1.2-.528-1.2-1.18s.533-1.18 1.2-1.18 1.2.528 1.2 1.18-.533 1.18-1.2 1.18m-4.762 0c-.657 0-1.2-.528-1.2-1.18s.533-1.18 1.2-1.18 1.2.528 1.2 1.18-.533 1.18-1.2 1.18M13.095 0C6.53 0 1.2 4.76 1.2 10.607c0 2.045.644 3.998 1.873 5.7L0 21.214h13.095C19.66 21.214 25 16.455 25 10.607S19.66 0 13.095 0"/><path id="q" d="M10.023 17.822L1.417 9.476l5.056-4.902 3.304 3.204 5.292-5.645H2.2C.986 2.133 0 3.09 0 4.267v12.8C0 18.243.986 19.2 2.2 19.2h15.4c1.213 0 2.2-.957 2.2-2.133V7.393l-9.777 10.43z"/><path id="r" d="M9.947 14.73l-5.42-5.254L6.472 7.59l3.38 3.278L19.882.17l2.035 1.793z"/><path id="s" d="M10.08 9.6c2.78 0 5.04-2.153 5.04-4.8S12.86 0 10.08 0 5.04 2.153 5.04 4.8s2.26 4.8 5.04 4.8"/><path id="t" d="M10.08 10.8C4.145 10.8 0 13.76 0 18v1.2h20.16V18c0-4.24-4.145-7.2-10.08-7.2"/><path id="u" d="M93.3 13.5c0 7.456 6.044 13.5 13.5 13.5H204c7.456 0 13.5-6.044 13.5-13.5h0H93.3z"/></defs><g transform="translate(36 12)" fill="none" fill-rule="evenodd"><g filter="url(#A)"><g filter="url(#B)"><use xlink:href="#J" fill="#292929"/><use xlink:href="#K" class="I"/><g transform="translate(13.5 13.5)"><mask id="v" class="H"><use xlink:href="#C"/></mask><use fill="#fafafa" xlink:href="#C"/><g class="N"><g transform="translate(7.106 33.421)"><g transform="translate(.089 .634)" filter="url(#D)"><mask id="w" class="H"><use xlink:href="#E"/></mask><use stroke-width=".5" xlink:href="#E" class="H K"/><g class="F I"><g transform="translate(52.129 200.444)"><g transform="translate(.45 .45)"><use xlink:href="#L"/><use xlink:href="#M"/><use xlink:href="#N"/><use xlink:href="#O"/><use xlink:href="#P"/><use xlink:href="#Q"/><use xlink:href="#R"/><use xlink:href="#O" y="87.704"/><path d="M79.676 81.52h19.92V61.618h-19.92z"/><use xlink:href="#S"/><path d="M99.595 113.8h-19.92v19.902h19.92z"/><path d="M54.58 124.753h15.305V109.46H54.58z"/><path d="M54.468 70.613h15.305V55.32H54.468z"/><use xlink:href="#T"/></g></g></g><rect x="100.745" y="29.444" width="116.138" height="15.292" rx="4" class="E F"/><g fill="#f4f2ee" class="F"><rect x="100.745" y="49.234" width="78.326" height="15.292" rx="4"/><rect x="52.305" y="113.444" width="63" height="15.292" rx="4"/><rect x="76.305" y="142.444" width="126" height="15.292" rx="4"/><rect x="76.305" y="167.444" width="126" height="15.292" rx="4"/><rect x="151.305" y="113.444" width="62" height="15.292" rx="4"/></g><g fill="#0d62fe" class="J F"><use xlink:href="#U"/><use xlink:href="#V"/><use xlink:href="#W"/></g><g class="F"><g transform="translate(17.918 9.895)"><use xlink:href="#X" fill="#001d71" class="J"/><g transform="translate(9.956 22.488)"><g transform="translate(0 .01)"><use xlink:href="#Y" fill="#ff9d00"/><g transform="translate(29.036 2.898)" fill="#212121"><use xlink:href="#Z"/><use xlink:href="#a"/></g><use xlink:href="#b" fill="#ff0025" class="J"/><g class="B C D L"><use xlink:href="#c"/><use xlink:href="#d"/></g><g stroke="#001d75" class="B C D"><use xlink:href="#e"/><use xlink:href="#f"/><use xlink:href="#g"/><path d="M43.295 21.56l-1.27 7.787"/><use xlink:href="#h"/><use xlink:href="#i"/><use xlink:href="#j"/></g><use xlink:href="#k" class="B C D L"/></g></g></g><path d="M0 92.65h266.623" class="B C K"/></g></g></g></g><g filter="url(#F)" class="N E J"><g transform="translate(-36.5 230.5)"><use xlink:href="#l"/><use xlink:href="#m"/></g></g><g class="N"><g transform="translate(-17 485.5)"><use filter="url(#H)" xlink:href="#G" class="I"/><use xlink:href="#G" class="H"/><g transform="translate(98.5 16)" class="E"><use xlink:href="#n"/></g><use xlink:href="#o" class="E"/><g transform="translate(198.5 14)" class="E"><use xlink:href="#p"/></g><g transform="translate(149.5 16)" class="E"><use xlink:href="#q"/><use xlink:href="#r"/></g><g transform="translate(250.5 16)" class="E"><use xlink:href="#s"/><use xlink:href="#t"/></g></g></g></g><use xlink:href="#u" class="I"/></g></g><g transform="matrix(.992546 -.121869 .121869 .992546 205.411403 156.831291)" filter="url(#B)"><use xlink:href="#J" fill="#292929"/><use xlink:href="#K" class="I"/><g transform="translate(13.5 13.5)"><mask id="x" class="H"><use xlink:href="#J" href="#C"/></mask><use fill="#fafafa" xlink:href="#J" href="#C"/><g class="M"><g transform="matrix(.990268 -.139173 .139173 .990268 -20.194807 46.079521)"><g transform="translate(.089 .634)" filter="url(#D)"><mask id="y" class="H"><use xlink:href="#L" href="#E"/></mask><use stroke-width=".5" xlink:href="#L" class="H K" href="#E"/><g class="G I"><g transform="translate(52.129 200.444)"><g transform="translate(.45 .45)"><use xlink:href="#L"/><use xlink:href="#M"/><use xlink:href="#N"/><use xlink:href="#O"/><use xlink:href="#P"/><use xlink:href="#Q"/><use xlink:href="#R"/><use xlink:href="#O" y="87.704"/><path d="M79.676 81.52h19.92V61.618h-19.92z"/><use xlink:href="#S"/><path d="M99.595 113.8h-19.92v19.902h19.92z"/><path d="M54.58 124.753h15.305V109.46H54.58z"/><path d="M54.468 70.613h15.305V55.32H54.468z"/><use xlink:href="#T"/></g></g></g><rect x="100.745" y="29.444" width="116.138" height="15.292" rx="4" class="E G"/><g fill="#f4f2ee" class="G"><rect x="100.745" y="49.234" width="78.326" height="15.292" rx="4"/><rect x="52.305" y="113.444" width="63" height="15.292" rx="4"/><rect x="76.305" y="142.444" width="126" height="15.292" rx="4"/><rect x="76.305" y="167.444" width="126" height="15.292" rx="4"/><rect x="151.305" y="113.444" width="62" height="15.292" rx="4"/></g><g fill="#0d62fe" class="J G"><use xlink:href="#U"/><use xlink:href="#V"/><use xlink:href="#W"/></g><g class="G"><g transform="translate(17.918 9.895)"><use xlink:href="#X" fill="#001d71" class="J"/><g transform="translate(9.956 22.488)"><g transform="translate(0 .01)"><use xlink:href="#Y" fill="#ff9d00"/><g transform="translate(29.036 2.898)" fill="#212121"><use xlink:href="#Z"/><use xlink:href="#a"/></g><use xlink:href="#b" fill="#ff0025" class="J"/><g class="B C D L"><use xlink:href="#c"/><use xlink:href="#d"/></g><g stroke="#001d75" class="B C D"><use xlink:href="#e"/><use xlink:href="#f"/><use xlink:href="#g"/><path d="M43.295 21.56l-1.27 7.787"/><use xlink:href="#h"/><use xlink:href="#i"/><use xlink:href="#j"/></g><use xlink:href="#k" class="B C D L"/></g></g></g><path d="M0 92.65h266.623" class="B C K"/></g></g></g></g><g filter="url(#F)" class="M E J"><g transform="translate(-36.5 230.5)"><use xlink:href="#l"/><use xlink:href="#m"/></g></g><g class="M"><g transform="translate(-17 485.5)"><use filter="url(#H)" xlink:href="#N" class="I" href="#G"/><use xlink:href="#N" class="H" href="#G"/><g transform="translate(98.5 16)" class="E"><use xlink:href="#n"/></g><use xlink:href="#o" class="E"/><g transform="translate(198.5 14)" class="E"><use xlink:href="#p"/></g><g transform="translate(149.5 16)" class="E"><use xlink:href="#q"/><use xlink:href="#r"/></g><g transform="translate(250.5 16)" class="E"><use xlink:href="#s"/><use xlink:href="#t"/></g></g><g transform="translate(-103.5 -134.5)"><path d="M490 0v815H0V0h490zM352 299H131v221h221V299z" fill-opacity=".622" fill="#001c6c"/><rect fill="#42be65" x="172" y="603" width="144" height="54" rx="12.2"/><path d="M240.35 641l-9.35-9.382 3.355-3.367 5.83 5.853L257.49 615l3.51 3.202z" class="H"/><path d="M176.07 98.047a15.05 15.05 0 0 0 15.047 15.047h108.444a15.05 15.05 0 0 0 15.047-15.047h0-138.54z" fill="#efefef"/><g stroke="#0d62fe" class="C"><path d="M131 407h221" stroke-width="12.322" filter="url(#I)" class="B"/><path d="M131 407h221" stroke-width="8.322" style="mix-blend-mode:screen"/></g></g></g></g><use xlink:href="#u" class="I"/></g></g></svg>