<svg xmlns="http://www.w3.org/2000/svg" xmlns:xlink="http://www.w3.org/1999/xlink" width="1032" height="719" xmlns:v="https://vecta.io/nano"><style><![CDATA[.B{stroke-width:.6}.C{stroke-linejoin:round}.D{stroke-linecap:round}.E{fill-rule:nonzero}.F{fill:#f4f2ee}.G{fill:#fff}.H{fill:#f2f4f6}.I{stroke:#001d75}.J{fill:#ff9d00}.K{stroke:#212121}.L{fill:#00c15a}.M{fill:#06f}.N{fill:#001d75}.O{fill:#0064ff}.P{stroke:#f4f2ee}.Q{fill:#ff8100}.R{fill:#001d71}.S{fill:#212121}.T{fill:#ff0025}.U{fill:#ff5fa7}.V{stroke:#ffc200}.W{fill:#001c6c}.X{fill:#42be65}.Y{fill:#0202d0}.Z{fill:#ff0034}]]></style><defs><filter x="-1.7%" y="-4.2%" width="103.4%" height="108.4%" id="A"><feOffset dy="1" in="SourceAlpha"/><feGaussianBlur stdDeviation="2"/><feColorMatrix values="0 0 0 0 0 0 0 0 0 0.160784314 0 0 0 0 0.349019608 0 0 0 0.1 0" result="C"/><feMerge><feMergeNode in="C"/><feMergeNode in="SourceGraphic"/></feMerge></filter><path d="M91.868.03C41.334.03.368 40.996.368 91.53s40.966 91.5 91.5 91.5 91.5-40.966 91.5-91.5S142.402.03 91.868.03zm-.356 16.713c41.11 0 74.435 33.325 74.435 74.435s-33.325 74.435-74.435 74.435-74.435-33.325-74.435-74.435 33.325-74.435 74.435-74.435z" id="B"/><filter x="-32.7%" y="-53.2%" width="165.5%" height="205.9%" id="C"><feOffset dy="24" in="SourceAlpha"/><feGaussianBlur stdDeviation="16"/><feColorMatrix values="0 0 0 0 0.3515625 0 0 0 0 0.3515625 0 0 0 0 0.3515625 0 0 0 0.1 0" result="C"/><feMerge><feMergeNode in="C"/><feMergeNode in="SourceGraphic"/></feMerge></filter><filter id="D"><feColorMatrix in="SourceGraphic" values="0 0 0 0 0.000000 0 0 0 0 0.112693 0 0 0 0 0.441384 0 0 0 0.199984 0"/></filter><path d="M66 .16c-36.45 0-66 29.55-66 66s29.55 66 66 66 66-29.55 66-66-29.55-66-66-66zm-.917 23.833c22.782 0 41.25 18.468 41.25 41.25s-18.468 41.25-41.25 41.25-41.25-18.468-41.25-41.25 18.468-41.25 41.25-41.25z" id="E"/><filter x="-23.1%" y="-21.8%" width="146.2%" height="144.0%" id="F"><feOffset dy="1" in="SourceAlpha"/><feGaussianBlur stdDeviation="1"/><feColorMatrix values="0 0 0 0 0 0 0 0 0 0 0 0 0 0 0 0 0 0 0.3 0" result="C"/><feMerge><feMergeNode in="C"/><feMergeNode in="SourceGraphic"/></feMerge></filter><filter x="-3.5%" y="-5.6%" width="106.9%" height="111.3%" id="G"><feOffset dy="1" in="SourceAlpha"/><feGaussianBlur stdDeviation="2"/><feColorMatrix values="0 0 0 0 0 0 0 0 0 0.160784314 0 0 0 0 0.349019608 0 0 0 0.1 0" result="C"/><feMerge><feMergeNode in="C"/><feMergeNode in="SourceGraphic"/></feMerge></filter><filter x="-3.5%" y="-5.6%" width="106.9%" height="110.7%" id="H"><feOffset dy="1" in="SourceAlpha"/><feGaussianBlur stdDeviation="2"/><feColorMatrix values="0 0 0 0 0 0 0 0 0 0.160784314 0 0 0 0 0.349019608 0 0 0 0.1 0" result="C"/><feMerge><feMergeNode in="C"/><feMergeNode in="SourceGraphic"/></feMerge></filter><filter x="-3.2%" y="-1.6%" width="106.3%" height="103.3%" id="I"><feOffset dy="1" in="SourceAlpha"/><feGaussianBlur stdDeviation="2"/><feColorMatrix values="0 0 0 0 0 0 0 0 0 0.160784314 0 0 0 0 0.349019608 0 0 0 0.1 0" result="C"/><feMerge><feMergeNode in="C"/><feMergeNode in="SourceGraphic"/></feMerge></filter><path id="J" d="M70.088 0v69.54H.335C.335 31.33 30.78.617 69.262.006L70.088 0z"/><path id="K" d="M70.06 70.157v.47l26.525 63.296c-8.408 3.715-17.69 5.774-27.444 5.774-37.637 0-68.22-30.662-68.828-68.72l-.006-.818H70.06z"/><path id="L" d="M70.09 1.83l-.001 68.177 26.647 63.58c25.315-10.33 43.106-34.76 43.106-63.25 0-37.46-30.757-67.897-68.933-68.502l-.818-.007z"/><path id="M" d="M145.433 19.26h58.445c2.252 0 4.078 1.848 4.078 4.127s-1.826 4.127-4.078 4.127h-58.445c-2.252 0-4.078-1.848-4.078-4.127s1.826-4.127 4.078-4.127z"/><path id="N" d="M297.435 19.26h14.498c2.252 0 4.078 1.848 4.078 4.127s-1.826 4.127-4.078 4.127h-14.498c-2.252 0-4.078-1.848-4.078-4.127s1.826-4.127 4.078-4.127z"/><path id="O" d="M58.445 19.26h69.998c2.252 0 4.078 1.848 4.078 4.127s-1.826 4.127-4.078 4.127H58.445c-2.252 0-4.078-1.848-4.078-4.127s1.826-4.127 4.078-4.127z"/><path id="P" d="M232.42 19.26h43.947c2.252 0 4.078 1.848 4.078 4.127s-1.826 4.127-4.078 4.127H232.42c-2.252 0-4.078-1.848-4.078-4.127s1.826-4.127 4.078-4.127z"/><path id="Q" d="M145.433 18.26h53.688c2.252 0 4.078 1.848 4.078 4.127s-1.826 4.127-4.078 4.127h-53.688c-2.252 0-4.078-1.848-4.078-4.127s1.826-4.127 4.078-4.127z"/><path id="R" d="M13.56 0C6.072 0 0 6.074 0 13.566s6.072 13.566 13.56 13.566 13.56-6.074 13.56-13.566S21.05 0 13.56 0z"/><path id="S" d="M13.56 296C6.072 296 0 302.074 0 309.566s6.072 13.566 13.56 13.566 13.56-6.074 13.56-13.566S21.05 296 13.56 296z"/><path id="T" d="M17.56.001c.312 0-.057 2.786-.253 3.345-.25.71-.835.556-1.468.556a4.64 4.64 0 0 1-.527-.024c-.262-.32-.604-.676-.974-1l-.282-.235.07.41-.1-.143c-.384.97-1.156 1.243-2.094 1.243-2.168 0-3.033-1.652-2.686-4.154h8.305zm-4.307 1.13h-2.93l-.001.014c-.037.6.03 1.067.192 1.4l.097.17c.256.377.7.574 1.43.574.49 0 .828-.315 1.043-1.09l.058-.234.04-.238.04-.32.028-.277zm3.48 0h-2.17c.308 1.263.715 1.812 1.47 1.894l.212.01c.03 0 .047-.007.075-.034.06-.058.127-.172.19-.347.1-.285.17-.684.205-1.194l.018-.33z"/><path id="U" d="M14.39 3.252c1.018.804 1.92 1.975 1.766 2.168-.202.253-.935.305-1.114.202-.144-.082-.08.03-.08.972"/><path id="V" d="M17.63 8.098c-.095 1.014-.384 1.99-1.067 2.782"/><path id="W" d="M18.02 9.187c-.843 1.13-.945 1.476-2.205 1.773"/><path id="X" d="M145.433 267.035h58.445a4.08 4.08 0 0 1 4.078 4.079 4.08 4.08 0 0 1-4.078 4.079h-58.445a4.08 4.08 0 0 1-4.078-4.079 4.08 4.08 0 0 1 4.078-4.079z"/><path id="Y" d="M297.435 267.035h14.498a4.08 4.08 0 0 1 4.078 4.079 4.08 4.08 0 0 1-4.078 4.079h-14.498a4.08 4.08 0 0 1-4.078-4.079 4.08 4.08 0 0 1 4.078-4.079z"/><path id="Z" d="M58.445 267.035h69.998a4.08 4.08 0 0 1 4.078 4.079 4.08 4.08 0 0 1-4.078 4.079H58.445a4.08 4.08 0 0 1-4.078-4.079 4.08 4.08 0 0 1 4.078-4.079z"/><path id="a" d="M232.42 267.035h43.947a4.08 4.08 0 0 1 4.078 4.079 4.08 4.08 0 0 1-4.078 4.079H232.42a4.08 4.08 0 0 1-4.078-4.079 4.08 4.08 0 0 1 4.078-4.079z"/><path id="b" d="M145.433 366.292h53.688a4.08 4.08 0 0 1 4.078 4.079 4.08 4.08 0 0 1-4.078 4.079h-53.688a4.08 4.08 0 0 1-4.078-4.079 4.08 4.08 0 0 1 4.078-4.079z"/><path id="c" d="M58.445 316.664h31.26a4.08 4.08 0 0 1 4.078 4.079 4.08 4.08 0 0 1-4.078 4.079h-31.26a4.08 4.08 0 0 1-4.078-4.079 4.08 4.08 0 0 1 4.078-4.079z"/><path id="d" d="M17.42 10.088c3.122 1.948 5.315 6 6.58 12.125a13.53 13.53 0 0 1-10.499 4.98c-4.303 0-8.14-2.005-10.623-5.133.228-1.544.538-2.906.928-4.088.42-1.277 1.757-3.468 4.008-6.572l.687-.938c3.206.172 6.007.05 8.372-.3l.55-.084z"/><path id="e" d="M13.475 19.16c.254 1.1.414 1.79 1.043 2.676.015.02-.05.013-.076.02"/><path id="f" d="M15.685 21.496c-1.26-.75-.503-.185-1.916-2.088"/><path id="g" d="M18.284 20.955c-1.713-.116-3.478-.738-4.78-1.88"/><path id="h" d="M8.882 22.02c1.052-.837 2.604-1.765 2.878-3.23"/><path id="i" d="M9.927 10.865c-.072.654-.072 1.063 0 1.228.458 1.044 1.175.696 1.473-.43"/><path id="j" d="M11.89 10.13c-1.39 6.016-1.29 9.024.307 9.024s2.148-1.064 1.657-3.192l-.245-5.463c.736 2.578 1.432 2.7 2.086.368"/><path id="k" d="M6.982 15.88c-.354-.183-.56-.346-.614-.49-.29-.77.297-1.19 1.35-.614.04-.9.39-1.453 1.043-1.657s.777.348.368 1.657c.65-.097 1.06-.097 1.227 0 .56.324.3 1.116-.86 1.596.573.49.655 1.003.245 1.535s-.9.286-1.473-.737c-.818.982-1.452 1.228-1.902.737s-.245-1.166.614-2.026z"/><path id="l" d="M19.038 14.762c.337-.247.522-.45.555-.608.176-.844-.502-1.18-1.5-.413-.2-.924-.64-1.438-1.352-1.542s-.748.487-.1 1.774c-.69.007-1.115.074-1.272.2-.526.427-.128 1.202 1.15 1.51-.513.602-.514 1.144-.003 1.627s.98.148 1.405-1.003c1.01.88 1.706 1.03 2.092.45s.063-1.246-.967-1.993z"/><path id="m" d="M7.272 1.62c.033.523-.476.656-.617.175-.108-.367.48-.402.663-.175"/><path id="n" d="M13.47 0C6.03 0 0 6.03 0 13.47s6.03 13.47 13.47 13.47 13.47-6.03 13.47-13.47S20.91 0 13.47 0z"/><path id="o" d="M7.223 1.608c.033.52-.473.65-.613.173-.107-.365.475-.4.66-.173"/><path id="p" d="M26.22 215.7c-2.983 0-5.65.8-7.64 2.046-.806.51-1.446 1.068-1.816 1.578-.222.307-.358.606-.374.92a1.02 1.02 0 0 0 .835 1.073l.045.01c.34.064.84.09 2.006.12l1.058.028 2.547.112.16.01.14.01c1.205.1 2.215.224 3.017.41l.056.013v4.667c.108 1.1 1.29 1.648 3.55 1.648s4.83-.637 7.714-1.91l-.4-3.46.028-.007c.412-.1.76-.264 1.046-.47.542-.39.835-.956.835-1.62 0-.765-.43-1.34-1.163-1.533l-.03-.007c-.314-.077-.676-.086-1.094-.03l-.048.006-.075-.644-.263-.21c-2.333-1.852-5.718-2.76-10.138-2.76z"/><path id="q" d="M24.74 214.182c1.084-.993 1.64.326 1.525 1.178-.14 1.028-.977 1.822-1.765 2.385-.01.008-.7.472-.9.293-.487-.43-.294-1.4-.1-1.98a5.38 5.38 0 0 1 1.232-1.875z"/><path id="r" d="M26.174 216.335c.18-.55.3-1.244.79-1.635 1.053-.84 2.07-.564 1.78.885-.16.792-.82 1.73-1.397 2.28-.75.716-1.404-.263-1.292-.975.055-.346.185-.675.278-1.013"/><path id="s" d="M29.84 215.637c.247 1.447.385 2.554 1.352 3.698 1.417 1.676 4.566.974 5.88-.465"/><path id="t" d="M31.048 215.825c-.263 1.923-.103 4.098 2.328 4.426.168.023 1.3.083 1.705-.06 1.005-.347 1.047-.556 2.005-1.335"/><path id="u" d="M32.617 216.05c.2 1.08.3 2.175 1.022 3.06.956 1.173 2.906.933 3.718-.2"/><path id="v" d="M33.173 216.245c.545 1.376 1.576 3.685 3.447 2.918"/><path id="w" d="M33.842 216.387c.453.715 1.388 2.534 2.32 2.723.363.074.74-.01 1.112-.015"/><path id="x" d="M25.88 222.516c.916-.322 1.654.34 2.59.172.453-.082 1.006-.575 1.337-.825"/><path id="y" d="M24.514 226.076l3.865 2.14 6.065-2.14-.357 4.52-5.708-1.724-4.876 1.724z"/></defs><g transform="translate(9 9)" fill="none" fill-rule="evenodd"><g filter="url(#A)"><path d="M0 0h677v273H0z" class="G P"/><g transform="translate(28 44)"><g transform="translate(0 30)"><g class="E W"><path d="M98.887 29.074c5.303-.025 9.238-1.32 11.803-3.885s3.848-6.34 3.848-11.322c0-3.527-.77-6.26-2.312-8.195s-3.817-2.904-6.826-2.904c-1.455 0-2.713.265-3.774.796s-1.936 1.215-2.627 2.053-1.196 1.758-1.517 2.757-.48 1.98-.48 2.94c0 1.1.16 2.146.48 3.108s.82 1.807 1.5 2.534 1.554 1.295 2.627 1.702 2.374.6 3.904.6c.666 0 1.357-.074 2.072-.222s1.37-.358 1.96-.63c-.32 1.283-.79 2.362-1.406 3.238s-1.375 1.585-2.275 2.128-1.95.937-3.145 1.184-2.534.37-4.014.37h0l.185 3.737zm7.14-13.357c-1.554 0-2.695-.382-3.422-1.147s-1.092-1.9-1.092-3.404c0-.518.074-1.048.222-1.59s.382-1.048.703-1.517.734-.85 1.24-1.147 1.116-.444 1.832-.444c.863 0 1.585.19 2.164.574a3.99 3.99 0 0 1 1.369 1.554c.333.654.567 1.418.703 2.294s.204 1.807.204 2.794h0v.518c0 .197-.012.432-.037.703-.493.27-1.085.475-1.776.61s-1.394.204-2.11.204zm21.35 13.838c1.455 0 2.713-.265 3.774-.796s1.942-1.21 2.645-2.035 1.22-1.745 1.554-2.756.5-1.998.5-2.96c0-1.06-.154-2.078-.463-3.052s-.795-1.832-1.462-2.572-1.535-1.326-2.608-1.758-2.374-.648-3.903-.648c-1.43 0-2.75.284-3.96.85.345-1.258.845-2.32 1.5-3.182a8.15 8.15 0 0 1 2.349-2.109c.913-.543 1.95-.943 3.108-1.202s2.405-.4 3.737-.426h0l-.26-3.7c-2.393.025-4.545.376-6.457 1.055s-3.54 1.67-4.884 2.978-2.38 2.917-3.108 4.83-1.09 4.1-1.09 6.568c0 3.404.77 6.074 2.313 8.01s3.78 2.904 6.715 2.904zm-.037-3.737c-.863 0-1.585-.19-2.165-.574a3.99 3.99 0 0 1-1.369-1.554c-.333-.654-.567-1.418-.703-2.294s-.203-1.807-.203-2.793a13.03 13.03 0 0 1 .018-.684 9.1 9.1 0 0 1 .056-.648 7.8 7.8 0 0 1 1.813-.555 11.36 11.36 0 0 1 2.072-.185c1.554 0 2.69.39 3.404 1.166s1.073 1.906 1.073 3.386c0 .518-.074 1.055-.222 1.6s-.382 1.067-.703 1.535-.734.85-1.24 1.147-1.116.444-1.832.444zm20.61 3.737c2.787 0 4.97-1.153 6.55-3.46s2.368-5.618 2.368-9.934-.79-7.628-2.368-9.935-3.762-3.46-6.55-3.46c-1.38 0-2.62.296-3.72.888s-2.035 1.455-2.812 2.6-1.37 2.535-1.776 4.2-.61 3.57-.61 5.717c0 4.317.79 7.628 2.368 9.935s3.762 3.46 6.55 3.46zm0-3.885c-.814 0-1.5-.247-2.054-.74s-1-1.165-1.332-2.017-.567-1.856-.703-3.015-.203-2.405-.203-3.737.068-2.578.203-3.737.37-2.165.703-3.015.777-1.523 1.332-2.016 1.24-.74 2.054-.74 1.492.247 2.035.74.98 1.165 1.314 2.016.573 1.856.72 3.015.222 2.405.222 3.737-.074 2.578-.222 3.737-.388 2.165-.72 3.015-.77 1.523-1.314 2.017-1.22.74-2.035.74zm14.097 10.175L174.478.03h-4.514l-12.506 35.816h4.588zM188.464 29V3.36h-3.145c-1.1 1.21-2.386 2.257-3.83 3.145a27.78 27.78 0 0 1-4.31 2.183h0l1.37 3.404a25.57 25.57 0 0 0 2.923-1.221c1.01-.493 1.85-1 2.516-1.517h0V29h4.477zm25.012 0v-3.774H202.08c.025-.32.197-.72.518-1.203a15.72 15.72 0 0 1 1.147-1.498 40.02 40.02 0 0 1 1.406-1.554 33.75 33.75 0 0 1 1.332-1.332l2.22-2.2c.74-.752 1.4-1.53 1.98-2.33a13.24 13.24 0 0 0 1.424-2.479c.37-.85.555-1.72.555-2.608 0-2.245-.648-4.014-1.942-5.31s-3.312-1.943-6.05-1.943c-1.603 0-3.102.302-4.495.907s-2.608 1.4-3.644 2.386h0l2.22 3.145c.173-.173.432-.4.777-.684a9.72 9.72 0 0 1 1.203-.833c.456-.27.98-.506 1.572-.703s1.233-.296 1.924-.296c1.06 0 1.96.27 2.7.814s1.1 1.455 1.1 2.738c0 .592-.123 1.165-.37 1.72s-.573 1.098-.98 1.628-.882 1.067-1.424 1.6l-1.702 1.665-2.294 2.257c-.765.765-1.455 1.58-2.072 2.442a12.43 12.43 0 0 0-1.498 2.794c-.382 1-.573 2.1-.573 3.274h0v.648c0 .284.012.524.037.72h16.317zm12.913.555c2.787 0 4.97-1.153 6.55-3.46s2.368-5.618 2.368-9.934-.79-7.628-2.368-9.935-3.762-3.46-6.55-3.46c-1.38 0-2.62.296-3.72.888s-2.035 1.455-2.812 2.6-1.37 2.535-1.776 4.2-.61 3.57-.61 5.717c0 4.317.79 7.628 2.368 9.935s3.762 3.46 6.55 3.46zm0-3.885c-.814 0-1.5-.247-2.054-.74s-1-1.165-1.332-2.017-.567-1.856-.703-3.015-.203-2.405-.203-3.737.068-2.578.203-3.737.37-2.165.703-3.015.777-1.523 1.332-2.016 1.24-.74 2.054-.74 1.492.247 2.035.74.98 1.165 1.314 2.016.573 1.856.72 3.015.222 2.405.222 3.737-.074 2.578-.222 3.737-.388 2.165-.72 3.015-.77 1.523-1.314 2.017-1.22.74-2.035.74zM251.512 29V3.36h-3.145c-1.1 1.21-2.386 2.257-3.83 3.145a27.78 27.78 0 0 1-4.31 2.183h0l1.37 3.404a25.57 25.57 0 0 0 2.923-1.221c1.01-.493 1.85-1 2.516-1.517h0V29h4.477z"/><path d="M206.372 81.555c1.307 0 2.436-.247 3.385-.74s1.74-1.13 2.368-1.906a7.71 7.71 0 0 0 1.388-2.608c.296-.962.444-1.924.444-2.886 0-1.036-.136-2.023-.407-2.96s-.703-1.764-1.295-2.48-1.37-1.29-2.33-1.72-2.134-.647-3.515-.647c-1.06 0-2.06.13-2.997.388s-1.74.56-2.405.907c.247-1.727.703-3.182 1.37-4.366s1.492-2.152 2.48-2.904 2.115-1.307 3.386-1.665 2.658-.586 4.162-.684h0l-.148-2.035c-4.588.197-8.084 1.59-10.49 4.18s-3.608 6.39-3.608 11.396c0 3.38.697 6.013 2.09 7.9s3.435 2.83 6.124 2.83zm-.037-2.11c-1.1 0-2.023-.228-2.738-.684s-1.29-1.08-1.72-1.868-.728-1.702-.888-2.738-.24-2.134-.24-3.293h0v-.87c0-.234.025-.56.074-.98a18.1 18.1 0 0 1 2.386-.906c.85-.26 1.844-.39 2.98-.39 1.702 0 2.99.47 3.867 1.406s1.313 2.393 1.313 4.366a8.98 8.98 0 0 1-.278 2.257c-.185.715-.475 1.344-.87 1.887a4.38 4.38 0 0 1-1.554 1.314c-.64.333-1.418.5-2.33.5zm18.463 2.11c1.554 0 2.91-.19 4.07-.574s2.115-.913 2.868-1.59a6.63 6.63 0 0 0 1.702-2.386c.382-.913.573-1.912.573-2.997 0-1.06-.16-1.986-.48-2.775s-.74-1.462-1.258-2.016-1.104-1.01-1.757-1.37a8.47 8.47 0 0 0-2.017-.796c1.258-.42 2.288-1.104 3.1-2.053s1.202-2.177 1.202-3.68c0-.937-.148-1.807-.444-2.608s-.752-1.492-1.37-2.072-1.388-1.03-2.312-1.35-2.03-.48-3.31-.48a9.74 9.74 0 0 0-2.054.203c-.63.136-1.202.302-1.72.5s-.968.407-1.35.63-.697.42-.944.592h0l1.036 1.887c.47-.32 1.073-.666 1.813-1.036s1.776-.555 3.108-.555a7.4 7.4 0 0 1 1.906.24 4.53 4.53 0 0 1 1.591.759c.456.345.82.808 1.092 1.387s.407 1.276.407 2.1c0 .962-.19 1.75-.573 2.368a4.6 4.6 0 0 1-1.443 1.48c-.58.37-1.22.623-1.924.758s-1.388.204-2.054.204h0-.85v1.998h.37a14.98 14.98 0 0 1 2.941.278c.925.185 1.74.493 2.442.925s1.258 1.005 1.665 1.72.61 1.616.61 2.7c0 1.653-.506 2.966-1.517 3.94s-2.69 1.46-5.032 1.46c-.715 0-1.375-.05-1.98-.148a14.84 14.84 0 0 1-1.628-.352c-.48-.136-.894-.277-1.24-.425s-.592-.27-.74-.37h0l-.63 2.146c.173.1.438.222.796.37s.796.296 1.313.444 1.116.278 1.795.388 1.424.167 2.238.167zm20.868 0c1.554 0 2.91-.19 4.07-.574s2.115-.913 2.868-1.59a6.63 6.63 0 0 0 1.702-2.386c.382-.913.573-1.912.573-2.997 0-1.06-.16-1.986-.48-2.775s-.74-1.462-1.258-2.016-1.104-1.01-1.757-1.37a8.47 8.47 0 0 0-2.016-.796c1.258-.42 2.288-1.104 3.09-2.053s1.202-2.177 1.202-3.68c0-.937-.148-1.807-.444-2.608s-.752-1.492-1.37-2.072-1.387-1.03-2.312-1.35-2.03-.48-3.31-.48a9.74 9.74 0 0 0-2.054.203c-.63.136-1.202.302-1.72.5s-.968.407-1.35.63-.697.42-.944.592h0l1.036 1.887c.47-.32 1.073-.666 1.813-1.036s1.776-.555 3.108-.555a7.4 7.4 0 0 1 1.905.24 4.53 4.53 0 0 1 1.591.759c.456.345.82.808 1.09 1.387s.407 1.276.407 2.1c0 .962-.19 1.75-.573 2.368a4.6 4.6 0 0 1-1.443 1.48c-.58.37-1.22.623-1.924.758s-1.388.204-2.054.204h0-.85v1.998h.37a14.98 14.98 0 0 1 2.941.278c.925.185 1.74.493 2.442.925s1.258 1.005 1.665 1.72.6 1.616.6 2.7c0 1.653-.506 2.966-1.517 3.94s-2.69 1.46-5.032 1.46c-.715 0-1.375-.05-1.98-.148a14.84 14.84 0 0 1-1.628-.352c-.48-.136-.894-.277-1.24-.425s-.592-.27-.74-.37h0l-.63 2.146c.173.1.438.222.796.37s.796.296 1.314.444 1.116.278 1.794.388 1.424.167 2.238.167z"/><path d="M203.93 133.555c1.554 0 2.91-.19 4.07-.573s2.115-.913 2.868-1.59a6.63 6.63 0 0 0 1.702-2.387c.382-.913.573-1.912.573-2.997 0-1.06-.16-1.986-.48-2.775s-.74-1.462-1.258-2.016-1.104-1.01-1.757-1.37a8.47 8.47 0 0 0-2.017-.796c1.258-.42 2.288-1.104 3.1-2.053s1.202-2.177 1.202-3.68c0-.937-.148-1.807-.444-2.61s-.752-1.492-1.37-2.072-1.388-1.03-2.312-1.35-2.03-.48-3.31-.48a9.74 9.74 0 0 0-2.054.203c-.63.136-1.202.302-1.72.5s-.968.407-1.35.63l-.944.592 1.036 1.887c.47-.32 1.073-.666 1.813-1.036s1.776-.555 3.108-.555a7.4 7.4 0 0 1 1.906.24 4.53 4.53 0 0 1 1.591.758c.456.345.82.808 1.09 1.388s.407 1.276.407 2.09c0 .962-.19 1.75-.573 2.368a4.6 4.6 0 0 1-1.443 1.48c-.58.37-1.22.623-1.924.758s-1.388.204-2.054.204h0-.85v1.998h.37a14.98 14.98 0 0 1 2.941.278c.925.185 1.74.493 2.442.925s1.258 1.005 1.665 1.72.61 1.616.61 2.7c0 1.653-.506 2.966-1.517 3.94s-2.69 1.462-5.032 1.462c-.715 0-1.375-.05-1.98-.148a14.84 14.84 0 0 1-1.628-.352c-.48-.136-.894-.278-1.24-.425s-.592-.27-.74-.37h0l-.63 2.146c.173.1.438.222.795.37s.796.296 1.314.444 1.116.278 1.794.388 1.425.167 2.24.167zm30.007-.555v-2.11h-12.1v-.074c0-.592.142-1.2.425-1.794s.666-1.22 1.147-1.85 1.024-1.258 1.628-1.887l1.87-1.868 2.257-2.22c.74-.74 1.4-1.505 1.98-2.294s1.042-1.6 1.388-2.46.518-1.757.518-2.72c0-2.17-.63-3.867-1.887-5.088s-3.133-1.83-5.624-1.83c-.937 0-1.788.117-2.553.352s-1.437.512-2.017.832-1.06.647-1.443.98l-.796.758 1.258 1.665a12.42 12.42 0 0 1 .703-.629 7.65 7.65 0 0 1 1.166-.796c.456-.26.993-.487 1.61-.684s1.32-.296 2.11-.296c1.406 0 2.572.376 3.496 1.13s1.388 1.992 1.388 3.72c0 .79-.123 1.517-.37 2.183a8.15 8.15 0 0 1-.999 1.887c-.42.592-.906 1.166-1.462 1.72l-1.757 1.72-2.312 2.22a18.92 18.92 0 0 0-2.183 2.479c-.654.888-1.2 1.832-1.61 2.83s-.63 2.078-.63 3.237l.018.61.02.278h14.763zm12.136 0a34.68 34.68 0 0 1 1.202-7.03 55.01 55.01 0 0 1 2.313-6.716c.888-2.11 1.832-4.008 2.83-5.698s1.918-3.04 2.757-4.052h0v-2.146h-15.577v2.22h13.098c-.962 1.085-1.955 2.528-2.978 4.33s-1.973 3.774-2.85 5.92-1.616 4.366-2.22 6.66-.98 4.465-1.13 6.512h2.553z"/></g><path d="M6.25 63.75a2.5 2.5 0 1 1 0-5 2.5 2.5 0 0 1 2.5 2.5c0 1.38-1.12 2.5-2.5 2.5m18.384 5.366l-13.75-13.75A1.25 1.25 0 0 0 10 55H1.25A1.25 1.25 0 0 0 0 56.25V65a1.25 1.25 0 0 0 .366.884l13.75 13.75c.244.244.564.366.884.366s.64-.123.884-.366l8.75-8.75a1.25 1.25 0 0 0 0-1.768" class="Q"/><g class="X"><path d="M6.25 116.75a2.5 2.5 0 1 1 0-5 2.5 2.5 0 0 1 2.5 2.5c0 1.38-1.12 2.5-2.5 2.5m18.384 5.366l-13.75-13.75A1.25 1.25 0 0 0 10 108H1.25A1.25 1.25 0 0 0 0 109.25V118a1.25 1.25 0 0 0 .366.884l13.75 13.75c.244.244.564.366.884.366s.64-.123.884-.366l8.75-8.75a1.25 1.25 0 0 0 0-1.768"/><g transform="translate(0 3)"><path d="M12.8 12.8a6.41 6.41 0 0 0 6.4-6.4A6.41 6.41 0 0 0 12.8 0a6.41 6.41 0 0 0-6.4 6.4 6.41 6.41 0 0 0 6.4 6.4"/><path d="M12.8 14.4C5.264 14.4 0 18.347 0 24v1.6h25.6V24c0-5.653-5.264-9.6-12.8-9.6"/></g></g></g><g transform="translate(352)"><mask id="z" class="G"><use xlink:href="#B"/></mask><use xlink:href="#B" class="E Y"/><g mask="url(#z)"><g transform="translate(-105.632 -10.97)"><path d="M197.074 5.28v96.62h-96.61c0-53.088 42.167-95.764 95.465-96.612l1.144-.01z" class="Q"/><path d="M197.036 102.76v.652l36.738 87.947c-11.645 5.16-24.5 8.023-38.01 8.023-52.13 0-94.486-42.604-95.328-95.486l-.01-1.136h96.61z" class="O"/><path d="M197.076 7.893l-.002 96.55L.632 232.97c132.933-34.074 291.425-28.547 325-63 38.625-39.635 11.54-124.754-36-159-29.935-21.564-77.987-2.852-91.415-3.068l-1.142-.01z" class="L"/></g></g></g></g><g class="W"><path d="M437.75 154.2c1.933 0 3.642-.25 5.125-.75s2.725-1.2 3.725-2.1 1.75-1.967 2.25-3.2.75-2.567.75-4c0-1.9-.475-3.55-1.425-4.95s-2.408-2.633-4.375-3.7c1.3-.833 2.45-1.958 3.45-3.375s1.5-3.042 1.5-4.875c0-1.033-.2-2.1-.6-3.2s-1.042-2.1-1.925-3-2.017-1.633-3.4-2.2-3.058-.85-5.025-.85c-1.667 0-3.183.267-4.55.8s-2.533 1.25-3.5 2.15a9.34 9.34 0 0 0-2.225 3.125 9.21 9.21 0 0 0-.775 3.725c0 1.8.375 3.325 1.125 4.575s1.892 2.408 3.425 3.475c-.7.467-1.367 1-2 1.6a12.81 12.81 0 0 0-1.7 1.975c-.5.717-.892 1.5-1.175 2.35S426 143.55 426 144.55s.192 2.058.575 3.175 1.025 2.158 1.925 3.125 2.1 1.767 3.6 2.4 3.383.95 5.65.95zm1.15-20.45c-2.233-.667-3.825-1.567-4.775-2.7s-1.425-2.333-1.425-3.6c0-.5.1-1.008.3-1.525a4.77 4.77 0 0 1 .9-1.45c.4-.45.925-.817 1.575-1.1s1.425-.425 2.325-.425 1.667.15 2.3.45 1.158.667 1.575 1.1a3.96 3.96 0 0 1 .9 1.425c.183.517.275.992.275 1.425 0 1.533-.35 2.792-1.05 3.775s-1.667 1.858-2.9 2.625zm-1.1 15.5c-1.1 0-2.017-.158-2.75-.475s-1.333-.708-1.8-1.175-.8-.983-1-1.55-.3-1.1-.3-1.6c0-1.5.367-2.792 1.1-3.875s1.7-2.008 2.9-2.775c1.133.3 2.167.642 3.1 1.025s1.742.833 2.425 1.35 1.208 1.125 1.575 1.825.55 1.517.55 2.45c0 .6-.117 1.192-.35 1.775a4.41 4.41 0 0 1-1.05 1.55c-.467.45-1.067.808-1.8 1.075s-1.6.4-2.6.4zm26.4 4.95c3.767 0 6.717-1.558 8.85-4.675s3.2-7.592 3.2-13.425-1.067-10.308-3.2-13.425S467.967 118 464.2 118c-1.867 0-3.542.4-5.025 1.2s-2.75 1.967-3.8 3.5-1.85 3.425-2.4 5.675-.825 4.825-.825 7.725c0 5.833 1.067 10.308 3.2 13.425s5.083 4.675 8.85 4.675zm0-5.25c-1.1 0-2.025-.333-2.775-1s-1.35-1.575-1.8-2.725-.767-2.508-.95-4.075-.275-3.25-.275-5.05.092-3.483.275-5.05.5-2.925.95-4.075 1.05-2.058 1.8-2.725 1.675-1 2.775-1 2.017.333 2.75 1 1.325 1.575 1.775 2.725.775 2.508.975 4.075.3 3.25.3 5.05-.1 3.483-.3 5.05-.525 2.925-.975 4.075-1.042 2.058-1.775 2.725-1.65 1-2.75 1zm22.95-12c2.5 0 4.525-.817 6.075-2.45s2.325-3.967 2.325-7c0-3.067-.775-5.408-2.325-7.025s-3.575-2.425-6.075-2.425-4.525.808-6.075 2.425-2.325 3.958-2.325 7.025c0 1.5.208 2.842.625 4.025s.992 2.175 1.725 2.975 1.617 1.408 2.65 1.825 2.167.625 3.4.625zm4.75 16.5l19.55-34.65h-5.75l-19.55 34.65h5.75zm-4.75-20.65c-1.133 0-2.017-.442-2.65-1.325s-.95-2.208-.95-3.975.317-3.092.95-3.975 1.517-1.325 2.65-1.325 2.025.442 2.675 1.325.975 2.208.975 3.975-.325 3.092-.975 3.975-1.542 1.325-2.675 1.325zm23.35 21.45c2.5 0 4.525-.817 6.075-2.45s2.325-3.967 2.325-7c0-3.067-.775-5.408-2.325-7.025S513 135.35 510.5 135.35s-4.525.808-6.075 2.425-2.325 3.958-2.325 7.025c0 1.5.208 2.842.625 4.025s.992 2.175 1.725 2.975 1.617 1.408 2.65 1.825 2.167.625 3.4.625zm0-4.15c-1.133 0-2.017-.442-2.65-1.325s-.95-2.208-.95-3.975.317-3.092.95-3.975 1.517-1.325 2.65-1.325 2.025.442 2.675 1.325.975 2.208.975 3.975-.325 3.092-.975 3.975-1.542 1.325-2.675 1.325z" class="E"/><rect x="28" y="24" width="192.415" height="20.074" rx="6.95"/></g></g><g transform="translate(337 242)"><path d="M13 41h323a5 5 0 0 1 5 5v194a5 5 0 0 1-5 5H13a5 5 0 0 1-5-5V46a5 5 0 0 1 5-5z" stroke="#0d62fe" stroke-dasharray="4"/><g filter="url(#C)"><path d="M0 .164h333v204H0z" class="G P"/><g filter="url(#D)"><g transform="translate(148.146 87.592)"><path d="M22.854 17.568h6v-6h-6v6zm-9 0h6v-6h-6v6zm0 9h6v-6h-6v6zm-9-9h6v-6h-6v6zm0 9h6v-6h-6v6zm25.09-23.142h-2.91V.568h-2.91V7.71h-2.91V3.426H12.5V.568H9.58V7.71h-2.91V3.426h-2.91C2.158 3.425.854 4.707.854 6.283v21.43c0 1.574 1.304 2.857 2.91 2.857h26.182c1.604 0 2.91-1.283 2.91-2.857V6.283c0-1.576-1.305-2.858-2.91-2.857z" fill="#0b0"/></g></g><rect x="11.763" y="17.897" width="77.652" height="8.099" rx="3.159" class="R"/><rect x="13.113" y="35.444" width="77.652" height="8.099" rx="3.159" class="H"/><g transform="translate(100 39)"><mask id="AA" class="G"><use xlink:href="#E"/></mask><use xlink:href="#E" class="E Y"/><g mask="url(#AA)"><g transform="translate(-6 -3.839)"><use xlink:href="#J" fill="#0d62fe"/><use xlink:href="#K" class="Q"/><path d="M70.09 1.83l-.001 68.177L21 146.84c16.1-6.567 75.98.545 111-18 20.077-10.632 26-45.62 26-56 0-37.46-48.916-70.398-87.092-71.003l-.818-.007z" class="L"/></g></g></g><rect x="134" y="183" width="66" height="9" rx="3.159" class="O"/></g><g filter="url(#F)" transform="translate(269.55 69.7)" class="E"><path fill="#231d1e" d="M0 12.95h1.85V11.1h3.7v1.85H7.4V1.85h1.85V0h3.7v1.85h1.85V7.4h7.4v1.85h3.7v1.85h1.85v9.25H25.9v3.7h-1.85v5.55h-3.7v-1.85H18.5v1.85H9.25v-3.7H7.4v-1.85H5.55V22.2H3.7v-3.7H1.85v-1.85H0z"/><path d="M1.85 12.95h3.7v1.85H7.4v1.85h1.85V1.85h3.7v11.1h1.85v-3.7h3.7v3.7h1.85v-3.7h1.85v3.7h1.85V11.1h1.85v9.25h-1.85v3.7H22.2v3.7h-1.85V25.9H18.5v1.85h-7.4V25.9H9.25v-1.85H7.4V22.2H5.55v-3.7H3.7v-1.85H1.85z" class="G"/><g fill="#231d1e"><path d="M12.95 16.65h1.85v7.4h-1.85z"/><path d="M16.65 16.65h1.85v7.4h-1.85z"/><path d="M20.35 16.65h1.85v7.4h-1.85z"/></g></g></g><g filter="url(#G)" transform="translate(0 283)"><path d="M0 0h333v204H0z" class="G P"/><g transform="translate(153 88)" fill="#ccd2e3"><path d="M14 14a7.01 7.01 0 0 0 7-7 7.01 7.01 0 0 0-7-7 7.01 7.01 0 0 0-7 7 7.01 7.01 0 0 0 7 7"/><path d="M14 16C5.758 16 0 20.23 0 26.286V28h28v-1.714C28 20.23 22.243 16 14 16"/></g><rect x="11.763" y="17.897" width="77.652" height="8.099" rx="3.159" class="R"/><rect x="13.113" y="35.444" width="77.652" height="8.099" rx="3.159" class="H"/><g transform="translate(100 39)"><mask id="AB" class="G"><use xlink:href="#H" href="#E"/></mask><use xlink:href="#H" class="E Y" href="#E"/><g mask="url(#AB)"><g transform="translate(-6 -3.839)"><use xlink:href="#J" class="R"/><use xlink:href="#K" class="O"/><use xlink:href="#L" class="L"/></g></g></g><rect x="134" y="183" width="66" height="9" rx="3.159" class="O"/></g><g filter="url(#H)" transform="translate(0 497)"><path d="M0 .164h333v204H0z" class="G P"/><path d="M178.333 89.016l-28.124 6.65a1.57 1.57 0 0 0-.353 2.928l7.987 4.075.817 8.177c.065.657.534 1.202 1.168 1.363a1.56 1.56 0 0 0 1.676-.638l.242-.248-1.615-6.24a2.13 2.13 0 0 1 1.032-2.01l6.94-4.13-5.547 5.383a1.58 1.58 0 0 0-.436 1.481l2.53 10.978c.146.642.682 1.122 1.332 1.203s1.282-.26 1.58-.848l13.212-25.927c.063-.096.115-.198.155-.306.138-.363.052-.918-.105-1.3-.195-.47-1.026-.668-2.492-.593z" fill="#ccd2e3"/><rect x="11.763" y="17.897" width="77.652" height="8.099" rx="3.159" class="R"/><rect x="13.113" y="35.444" width="77.652" height="8.099" rx="3.159" class="H"/><g transform="translate(100 39)"><mask id="AC" class="G"><use xlink:href="#J" href="#E"/></mask><use xlink:href="#J" class="E Q" href="#E"/><g mask="url(#AC)"><g transform="translate(-6 -12.839)"><path d="M70.088 9v69.54L22 21.84c0-38.207 8.78-12.223 47.262-12.833L70.088 9z" fill="#fb3640"/><use xlink:href="#K" y="9" class="W"/><use xlink:href="#L" y="9" class="L"/></g></g></g><rect x="134" y="183" width="66" height="9" rx="3.159" class="O"/></g><g filter="url(#I)" transform="translate(682)"><g transform="translate(30 275)"><g transform="translate(0 .48)"/></g><path d="M0 0h333v46.083H0z" class="G"/><g transform="translate(13.592 9.629)"><path d="M13.56 0C6.072 0 0 6.145 0 13.725S6.072 27.45 13.56 27.45s13.56-6.145 13.56-13.725S21.05 0 13.56 0z" class="E M"/><g transform="translate(3.743 8.57)"><g transform="translate(0 .004)"><path d="M13.094 9.235c1.607 0 3.582-.102 5.923-.307l.607-3.018h-2.632l.202-4.4H2.615l-.09 2.44C.842 3.475 0 3.698 0 4.62s.753 1.47 2.26 1.65l.506 2.353c5.277.41 8.72.614 10.327.614z" class="J"/><g transform="translate(10.916 1.105)" class="S"><path d="M.104.35C.03 1.635 1.16 1.962 1.472.78 1.71-.123.4-.208 0 .35"/><path d="M4.353.146c.022.273.006.553.066.82.262 1.16 1.693.035.934-.935"/></g><path d="M17.56.001c.312 0-.057 2.82-.253 3.384-.25.717-.835.563-1.468.563a4.59 4.59 0 0 1-.527-.025c-.262-.323-.604-.684-.974-1.01l-.282-.237.07.416-.1-.145c-.384.98-1.156 1.258-2.094 1.258-2.168 0-3.033-1.67-2.686-4.203h8.305zm-4.307 1.142h-2.93l-.001.015c-.037.608.03 1.08.192 1.417l.097.17c.256.38.7.58 1.43.58.49 0 .828-.32 1.043-1.102l.058-.236.04-.24.04-.324.028-.28zm3.48 0h-2.17c.308 1.278.715 1.833 1.47 1.916l.212.01c.03 0 .047-.007.075-.034.06-.058.127-.174.19-.35.1-.288.17-.692.205-1.208l.018-.334z" class="E T"/><g class="B C D K"><path d="M14.39 3.3c1.018.814 1.92 1.998 1.766 2.194-.202.256-.935.308-1.114.205-.144-.083-.08.03-.08.983"/><path d="M12.167 5.87c1.192.895 2.515 1.01 3.822.737"/></g><g class="I B C D"><path d="M13.444 8.17c.255 1.033.858 1.685 1.496 2.55"/><path d="M14.487 8.056c.697 2.232.542 1.28.7 2.807"/><path d="M15.354 8.217c.208 2.17.183 1.268.183 2.702"/><path d="M16.277 8.217l-.478 2.968"/><path d="M16.922 8.297c-.057 1.052-.33 1.89-.852 2.8"/><path d="M17.63 8.193c-.095 1.026-.384 2.015-1.067 2.815"/><path d="M18.02 9.295c-.843 1.143-.945 1.493-2.205 1.793"/></g><path d="M12.253 5.498c-.076.207-.228.412-.48.424" class="B C D K"/></g></g></g><use xlink:href="#M" class="F"/><use xlink:href="#N" class="X"/><use xlink:href="#O" class="F"/><use xlink:href="#P" class="H"/><g transform="translate(0 150)"><path d="M0 .49h333v46.083H0z" class="G"/><path d="M145.433 18.26h69.998c2.252 0 4.078 1.848 4.078 4.127s-1.826 4.127-4.078 4.127h-69.998c-2.252 0-4.078-1.848-4.078-4.127s1.826-4.127 4.078-4.127z" class="F"/><use xlink:href="#N" y="-1" class="J"/><path d="M58.445 18.26H98.54c2.252 0 4.078 1.848 4.078 4.127s-1.826 4.127-4.078 4.127H58.445c-2.252 0-4.078-1.848-4.078-4.127s1.826-4.127 4.078-4.127z" class="F"/><use xlink:href="#P" y="-1" class="H"/></g><g transform="translate(0 100)"><path d="M0 .326h333V46.41H0z" class="G"/><use xlink:href="#Q" class="F"/><use xlink:href="#N" y="-1" class="L"/><use xlink:href="#O" y="-1" class="F"/><use xlink:href="#P" y="-1" class="H"/></g><g transform="translate(0 50)"><path d="M0 .163h333v46.083H0z" class="G"/><use xlink:href="#M" class="F"/><use xlink:href="#N" class="Z"/><path d="M58.445 19.26h31.26c2.252 0 4.078 1.848 4.078 4.127s-1.826 4.127-4.078 4.127h-31.26c-2.252 0-4.078-1.848-4.078-4.127s1.826-4.127 4.078-4.127z" class="F"/><use xlink:href="#P" class="H"/></g><g transform="translate(30.423 523.108)"><g transform="translate(0 .453)"/></g><g class="G"><path d="M0 250.815h333v45.55H0z"/><path d="M0 549.123h333v45.55H0z"/></g><g transform="translate(13.592 257.518)"><g class="E M"><use xlink:href="#R"/><use xlink:href="#S"/></g><g transform="translate(3.743 8.471)"><g transform="translate(0 .004)"><g class="J"><path d="M13.094 9.128c1.607 0 3.582-.1 5.923-.303l.607-2.983h-2.632l.202-4.348H2.615l-.09 2.41C.842 3.435 0 3.655 0 4.565s.753 1.453 2.26 1.63l.506 2.326c5.277.405 8.72.607 10.327.607z"/><path d="M13.094 305.128c1.607 0 3.582-.1 5.923-.303l.607-2.983h-2.632l.202-4.348H2.615l-.09 2.41c-1.684-.47-2.525-.25-2.525.66s.753 1.453 2.26 1.63l.506 2.326c5.277.405 8.72.607 10.327.607z"/></g><g transform="translate(10.916 1.092)" class="S"><path d="M.104.346C.03 1.616 1.16 1.94 1.472.77 1.71-.12.4-.206 0 .346"/><path d="M.104 296.346c-.073 1.27 1.056 1.593 1.368.424.24-.892-1.062-.976-1.472-.424"/><path d="M4.353.144c.022.27.006.546.066.81C4.68 2.1 6.112.99 5.353.03"/><path d="M4.353 296.144c.022.27.006.546.066.81.262 1.146 1.693.034.934-.924"/></g><g class="E T"><use xlink:href="#T"/><use xlink:href="#T" y="295.999"/></g><g class="B C D K"><use xlink:href="#U"/><use xlink:href="#U" y="296"/><path d="M12.167 5.803c1.192.885 2.515.997 3.822.73"/><path d="M12.167 301.803c1.192.885 2.515.997 3.822.73"/></g><g class="I B C D"><path d="M13.444 8.074c.255 1.02.858 1.665 1.496 2.52"/><path d="M13.444 304.074c.255 1.02.858 1.665 1.496 2.52"/><path d="M14.487 7.963c.697 2.206.542 1.265.7 2.774"/><path d="M14.487 303.963c.697 2.206.542 1.265.7 2.774"/><path d="M15.354 8.122c.208 2.145.183 1.253.183 2.67"/><path d="M15.354 304.122c.208 2.145.183 1.253.183 2.67"/><path d="M16.277 8.122l-.478 2.933"/><path d="M16.277 304.122l-.478 2.933"/><path d="M16.922 8.2c-.057 1.04-.33 1.87-.852 2.766"/><path d="M16.922 304.2c-.057 1.04-.33 1.87-.852 2.766"/><use xlink:href="#V"/><use xlink:href="#V" y="296"/><use xlink:href="#W"/><use xlink:href="#W" y="296"/></g><g class="K B C D"><path d="M12.253 5.434c-.076.205-.228.407-.48.42"/><path d="M12.253 301.434c-.076.205-.228.407-.48.42"/></g></g></g></g><g class="F"><use xlink:href="#X"/><use xlink:href="#X" y="296"/></g><g class="Z"><use xlink:href="#Y"/><use xlink:href="#Y" y="296"/></g><g class="F"><use xlink:href="#Z"/><use xlink:href="#Z" y="296"/></g><g class="H"><use xlink:href="#a"/><use xlink:href="#a" y="296"/></g><path d="M0 399.702h333v45.55H0z" class="G"/><path d="M145.433 415.92h69.998a4.08 4.08 0 0 1 4.078 4.079 4.08 4.08 0 0 1-4.078 4.079h-69.998a4.08 4.08 0 0 1-4.078-4.079 4.08 4.08 0 0 1 4.078-4.079z" class="F"/><use xlink:href="#Y" y="148.885" class="J"/><path d="M58.445 415.92H98.54a4.08 4.08 0 0 1 4.078 4.079 4.08 4.08 0 0 1-4.078 4.079H58.445a4.08 4.08 0 0 1-4.078-4.079 4.08 4.08 0 0 1 4.078-4.079z" class="F"/><use xlink:href="#a" y="148.885" class="H"/><path d="M0 350.073h333v45.55H0z" class="G"/><use xlink:href="#b" class="F"/><use xlink:href="#Y" y="99.257" class="L"/><use xlink:href="#Z" y="99.257" class="F"/><use xlink:href="#a" y="99.257" class="H"/><g class="G"><path d="M0 300.444h333v45.55H0z"/><path d="M0 598.753h333v45.55H0z"/></g><g class="F"><use xlink:href="#X" y="49.629"/><use xlink:href="#X" y="345.629"/></g><use xlink:href="#Y" y="49.629" class="X"/><use xlink:href="#Y" y="345.629" class="Z"/><g class="F"><use xlink:href="#c"/><use xlink:href="#c" y="296"/></g><g class="H"><use xlink:href="#a" y="49.629"/><use xlink:href="#a" y="345.629"/></g><path d="M0 449.33h333v45.55H0z" class="G"/><use xlink:href="#b" y="99.256" class="F"/><use xlink:href="#Y" y="198.513" class="L"/><use xlink:href="#Z" y="198.513" class="F"/><use xlink:href="#a" y="198.513" class="H"/><g transform="translate(14.271 356.774)"><use xlink:href="#R" class="E M"/><g transform="translate(3.78 3.861)"><path d="M.83 17C-1.115 10.572 5.637 2.293 10.517.804c7.412-2.26 9.353 10.676 9.02 10.804l-.678.244C16.293 12.735 10.283 14.447.83 17z" class="N"/><g transform="translate(4.627 2.83)" fill="#f1f4f6"><path d="M11.64 3.433c.334 2.67-2.28 9.407-5.038 9.037-2.318-.31-3.668-2.28-4.383-4.388-.12-.356-1.91.573-2.157-1.084s1.708-.616 1.657-.92c-.17-1.017-.158-1.88-.132-2.57.004-.11.59-.445 1.84-.644a13.46 13.46 0 0 1 2.086-.151c1.19-.002 2.518.115 3.634.257.32.04.027-2.95.304-2.908s1.134 3.12 1.353 3.16c.515.095.832.176.836.212z"/></g><g transform="translate(8.799 6.452)"><g transform="translate(3.375 .552)" class="B C D K"><path d="M.307 0c.15 1.455 1.227.976 1.227.005"/><path d="M.368.798L0 1.29"/><path d="M.92.982l-.245.798"/><path d="M1.227.86l.184.675"/></g><path d="M2.76 0l1.807 2.658c.093.114.27.25.217.39-.05.13-1.22.226-1.324.018-.053-.108-.07-.482-.065-.36.022.75.088 1.225.197 1.42" fill="#f3fff6" class="B C D I"/><g transform="translate(.184 .491)" class="B C D K"><path d="M.27.104C.042 1.068 1.402 1.2 1.657 0"/><path d="M.43.798L0 1.105"/><path d="M.887.86l-.042.552"/><path d="M1.29.798l.184.43"/></g><path d="M2.76 4.387c.4.044.278.603.59.528.157-.038.29-.212.45-.183.242.044.578.26 1.008.648l-.844.386-.312.148C2.923 6.264.7 5.02.184 4.554l1.823.584 1.27.17c1.2.138.168-.113-3.095-.755.704-.4 2.177-.21 2.576-.167z" fill="#ff243a"/></g></g></g><g transform="translate(14.271 308.506)"><g class="E M"><use xlink:href="#R"/><use xlink:href="#S"/></g><g class="J"><use xlink:href="#d"/><use xlink:href="#d" y="296"/></g><g class="B C D I"><path d="M7.105 20.537c1.85.953 3.04-.265 4.29-1.6"/><path d="M7.105 316.537c1.85.953 3.04-.265 4.29-1.6"/><use xlink:href="#e"/><use xlink:href="#e" y="296"/><use xlink:href="#f"/><use xlink:href="#f" y="296"/><use xlink:href="#g"/><use xlink:href="#g" y="296"/><path d="M18.436 19.883c-.903.13-2.744 1.05-4.895-.93"/><path d="M18.436 315.883c-.903.13-2.744 1.05-4.895-.93"/><path d="M18.37 18.582c-2.358.475-.902.287-4.402.2"/><path d="M18.37 314.582c-2.358.475-.902.287-4.402.2"/><use xlink:href="#h"/><use xlink:href="#h" y="296"/><path d="M10.4 22.005c1.25-.826.37-.14 1.802-2.822"/><path d="M10.4 318.005c1.25-.826.37-.14 1.802-2.822"/><path d="M11.776 22.078c.948-1.846.635-.937 1.035-2.69"/><path d="M11.776 318.078c.948-1.846.635-.937 1.035-2.69"/><path d="M13.277 21.866c-.71-1.442-.45-.617-.62-2.52"/><path d="M13.277 317.866c-.71-1.442-.45-.617-.62-2.52"/><path d="M14.695 21.797c-1.1-1.474-.56-.6-1.45-2.7"/><path d="M14.695 317.797c-1.1-1.474-.56-.6-1.45-2.7"/><path d="M8.23 17.78c.955.564 2.276 1.607 3.318.67"/><path d="M8.23 313.78c.955.564 2.276 1.607 3.318.67"/><path d="M7.675 19.052c.608.163 3.677 1.07 3.62-.48"/><path d="M7.675 315.052c.608.163 3.677 1.07 3.62-.48"/><use xlink:href="#i"/><use xlink:href="#i" y="296"/><g class="J"><use xlink:href="#j"/><use xlink:href="#j" y="296"/></g></g><g stroke="#ff5fa7" class="U B C"><use xlink:href="#k"/><use xlink:href="#k" y="296"/><use xlink:href="#l"/><use xlink:href="#l" y="296"/></g><g fill="#d41c61"><circle cx="8.363" cy="15.848" r="1"/><circle cx="8.363" cy="311.848" r="1"/><circle cx="17.539" cy="14.854" r="1"/><circle cx="17.539" cy="310.854" r="1"/></g><g class="N"><path d="M17.863 10.238c2.527-.453 3.938-.78 4.234-.982l-.552-1.535-4.602.92c-.286-4.46-1.084-6.69-2.393-6.69-.426 0-.917.614-1.473 1.842C12.3 1.42 11.48.97 10.622 2.442s-1.31 3.704-1.35 6.69l-3.007-.17c-.653-.07-1.165-.177-1.534-.32v1.412c-.066.068.388.165 1.362.3l2.933.262c1.186.09 4.132-.032 8.836-.368z"/><path d="M17.863 306.238c2.527-.453 3.938-.78 4.234-.982l-.552-1.535-4.602.92c-.286-4.46-1.084-6.69-2.393-6.69-.426 0-.917.614-1.473 1.842-.777-2.374-1.595-2.824-2.455-1.35s-1.31 3.704-1.35 6.69l-3.007-.17c-.653-.07-1.165-.177-1.534-.32v1.412c-.066.068.388.165 1.362.3l2.933.262c1.186.09 4.132-.032 8.836-.368z"/></g></g><g transform="translate(14.271 406.402)"><path d="M13.592 0C6.085 0 0 6.087 0 13.597s6.085 13.597 13.592 13.597 13.592-6.087 13.592-13.597S21.098 0 13.592 0z" fill="#cce4ff" class="E"/><g transform="translate(6.458 3.938)"><g transform="translate(4.121 .246)" class="U"><path d="M9.102 1.58C8.78 8.76.968 11.42 5.96 16.1c1.193 1.118-6.543 1.134-5.88 0 3.544-6.05-.16-7.34-.08-13.873C.01 1.456.12.733.313.07 4.202-.04 7.05.06 8.86.372c.144.025.224.428.242 1.2z"/></g><g class="B C D V"><path d="M14.268.984c-.428 1.86-1.242 3.766-1.4 5.677-.114 1.384-.05 2.778-.077 4.167"/><path d="M13.776.923c-.96 2.416-1.332 4.59-1.423 7.2-.07 2.05-.276 1.55.133 2.398"/><path d="M12.485 2.4c-.9 3.72-.943 4.922-.312 8.736"/><path d="M12.116 11.566c-2.235-2.008-1.3-5.515-.7-7.998"/></g><path d="M7.782 1.784c.136.672.1 1.122-.11 1.35-1.115 1.215-1.55 1.683-2.803 3.413-.017.024-.012.086.017.086.14.001.294-.003.41-.082C6.1 6 6.72 5.164 7.612 4.767c1.2-.535-1.644 1.313-.956 1.673.28.147 5.196-.53 3.607-.212s-3.95.757-3.75 1.016c.826 1.08 1.035 1.573.826 2.54" class="B C D K"/><g class="V B C D"><path d="M4.797 3.076C4.075 4.995 3.11 9.67.267 10.212c-.036.007-.055-.05-.082-.073"/><path d="M4.367 1.784C3.713 5.025 2.747 7.89.062 9.782"/><path d="M3.998.554C3.163 3.572 2.74 6.853.185 8.92"/><path d="M3.137.677C2.365 3.913 2.28 6.043 0 8.306"/></g><path d="M3.925.027c-.35 0 .2 2.15.428 2.648.185.42.695.634 1.53.642.923.028 1.565-.182 1.926-.632l.055-.07c.43.86 1.292 1.105 2.34 1.105 2.42 0 3.388-1.468 3-3.69H3.925zM8.2.848L12.317.8l.001.015c.055.71-.068 1.236-.345 1.586l-.03.035c-.33.39-.948.592-1.88.592-.64 0-1.384-.25-1.706-1.047l-.075-.226c-.036-.135-.034-.35-.053-.607l-.03-.3zm-3.623.07h2.988l-.004.44c-.024.99-.234 1.43-1.985 1.467l-.327.003c-.042 0-.064-.007-.104-.034-.084-.058-.175-.172-.26-.347C4.746 2.16 4.65 1.76 4.6 1.25l-.025-.33z" fill="#00ffce" class="E"/><g class="S"><use xlink:href="#m"/><use xlink:href="#m" x="1.783"/></g><g class="T"><path d="M2.836 17.637c-.395.578-2.05.43-1.164-.744s1.56.165 1.164.744z"/><path d="M4.773 18.628c-.406.558-1.888.203-.975-.93s1.38.37.975.93z"/><path d="M7.597 18.96c-.41.58-1.887.317-.964-.857s1.374.278.964.857z"/><path d="M10.544 18.6c-.418.57-1.838.273-1.23-.733s1.65.163 1.23.733z"/><path d="M12.647 17.922c-.397.564-1.624.294-1.17-.725s1.566.16 1.17.725z"/></g></g></g><g transform="translate(14.951 456.031)"><path d="M13.23 0C5.923 0 0 5.926 0 13.235S5.923 26.47 13.23 26.47s13.23-5.926 13.23-13.235S20.537 0 13.23 0z" class="E M"/><g transform="translate(1.377 5.869)"><path d="M9.92 1.877c-3.004 0-5.688.795-7.693 2.06C1.414 4.45.77 5.013.398 5.527c-.224.31-.36.6-.376.926-.027.534.317.97.84 1.08l.045.01c.342.065.845.09 2.02.12l1.065.028 2.565.112.163.01.14.01c1.214.09 2.23.226 3.038.414l.056.013v4.7c.108 1.107 1.3 1.66 3.575 1.66s4.864-.642 7.767-1.925l-.403-3.485.028-.007c.414-.11.765-.266 1.053-.474a1.95 1.95 0 0 0 .841-1.631c0-.77-.432-1.35-1.17-1.544l-.03-.007c-.316-.078-.68-.086-1.1-.03l-.048.007-.075-.65-.265-.2c-2.35-1.865-5.757-2.78-10.207-2.78z" class="E J"/><g class="B C D I"><path d="M7.854 2.873c1.165.068.982.094 1.815-.718"/><path d="M7.967 3.47c.916-.065 1.013-.415 1.64-1.186"/><path d="M10.01 2.24c.23.6.626.63 1.24.582"/><path d="M10.01 2.246c.136 1.03-.104.6.786 1.254"/></g><g stroke="#fff" class="B C"><path d="M8.43.357c1.092-1 1.652.33 1.535 1.186C9.822 2.58 8.98 3.38 8.187 3.946c-.01.008-.704.475-.907.295-.5-.435-.296-1.41-.09-1.994A5.42 5.42 0 0 1 8.429.357z"/><g class="D"><path d="M9.873 2.526c.18-.553.3-1.253.794-1.647 1.06-.848 2.084-.568 1.792.89-.16.798-.824 1.74-1.406 2.297-.756.72-1.414-.264-1.3-.982.055-.348.187-.68.28-1.02"/></g></g><g class="I B C D"><path d="M13.563 1.823c.25 1.457.387 2.573 1.36 3.724 1.427 1.688 4.597.98 5.92-.468"/><path d="M14.78 2.012c-.264 1.937-.104 4.127 2.344 4.457.17.023 1.3.084 1.716-.06 1.012-.35 1.054-.56 2.02-1.345"/><path d="M15.226 2.027c.856 1.772 3.137 5.89 5.42 3.21"/><path d="M16.36 2.24c.2 1.09.302 2.2 1.028 3.082.963 1.18 2.925.94 3.743-.212"/><path d="M16.92 2.435c.55 1.386 1.587 3.712 3.47 2.94"/><path d="M17.593 2.58C18.05 3.3 19 5.13 19.93 5.32c.366.074.746-.01 1.12-.015"/><path d="M9.578 8.75c.922-.324 1.666.344 2.61.174.456-.082 1.013-.58 1.346-.83"/></g></g><path d="M9.58 18.206l3.89 2.156 6.106-2.156-.36 4.55-5.747-1.737-4.91 1.737z" class="B C I N"/></g><g class="G"><path d="M0 200.652h333v46.083H0z"/><path d="M0 498.96h333v46.083H0z"/></g><g class="F"><use xlink:href="#Q" y="200"/><use xlink:href="#Q" y="496"/></g><g class="L"><use xlink:href="#N" y="199"/><use xlink:href="#N" y="495"/></g><g class="F"><use xlink:href="#O" y="199"/><use xlink:href="#O" y="495"/></g><g class="H"><use xlink:href="#P" y="199"/><use xlink:href="#P" y="495"/></g><g transform="translate(15 110)"><use xlink:href="#n" class="E M"/><g transform="translate(3.746 3.829)"><path d="M.833 16.873C-1.1 10.5 5.607 2.28 10.455.803c7.362-2.244 9.3 10.6 8.96 10.727l-.674.242c-2.55.876-8.518 2.576-17.907 5.1z" class="N"/><g transform="translate(4.604 2.814)" fill="#f1f4f6"><path d="M11.56 3.41c.332 2.65-2.263 9.34-5.004 8.973-2.302-.31-3.643-2.264-4.353-4.357-.12-.354-1.898.57-2.142-1.076s1.697-.612 1.646-.914c-.17-1-.157-1.867-.13-2.55.004-.108.585-.442 1.827-.64.556-.088 1.244-.15 2.072-.15 1.18-.002 2.5.115 3.61.255.32.04.027-2.93.302-2.887S10.512 3.158 10.73 3.2c.51.094.826.174.83.2z"/></g><g transform="translate(8.748 6.41)"><g transform="translate(3.352 .549)" class="B C D K"><path d="M.305 0c.15 1.444 1.22.97 1.22.005"/><path d="M.366.792L0 1.28"/><path d="M.914.975l-.244.792"/><path d="M1.22.853l.183.67"/></g><path d="M2.743 0l1.795 2.64c.092.113.27.247.216.386-.05.128-1.213.224-1.315.018-.053-.107-.068-.478-.065-.357.022.746.087 1.216.196 1.41" fill="#f3fff6" class="B C D I"/><g transform="translate(.183 .488)" class="B C D K"><path d="M.27.103C.042 1.06 1.393 1.18 1.646 0"/><path d="M.427.792L0 1.097"/><path d="M.88.853l-.042.55"/><path d="M1.28.792l.183.427"/></g><path d="M2.74 4.356c.396.044.276.598.585.524.156-.037.287-.2.446-.182.24.043.574.258 1 .643l-.838.383-.3.147C2.904 6.22.694 4.984.182 4.522l1.81.58 1.263.17c1.19.137.167-.112-3.074-.75.7-.387 2.163-.21 2.56-.166z" fill="#ff243a"/></g></g></g><g transform="translate(15 60)"><use xlink:href="#n" class="E M"/><path d="M17.303 10.016c3.1 1.934 5.28 5.947 6.534 12.04A13.44 13.44 0 0 1 13.409 27c-4.274 0-8.084-1.99-10.55-5.096.227-1.533.534-2.885.922-4.06.418-1.268 1.745-3.443 3.98-6.526l.683-.93c3.184.17 5.967.05 8.315-.288l.545-.084z" class="J"/><g class="B C D I"><path d="M7.057 20.39c1.838.946 3.02-.264 4.26-1.58"/><path d="M13.384 19.025c.253 1.092.41 1.776 1.036 2.657.015.02-.05.013-.075.02"/><path d="M15.58 21.343c-1.252-.744-.5-.184-1.903-2.073"/><path d="M18.16 20.806c-1.702-.116-3.455-.733-4.75-1.866"/><path d="M18.31 19.74c-.897.128-2.725 1.042-4.862-.923"/><path d="M18.245 18.45c-2.342.472-.896.285-4.372.198"/><path d="M8.822 21.864c1.045-.832 2.586-1.752 2.858-3.207"/><path d="M10.32 21.848c1.242-.82.368-.14 1.8-2.802"/><path d="M11.697 21.92c.942-1.833.63-.93 1.028-2.672"/><path d="M13.187 21.71c-.704-1.43-.446-.612-.615-2.502"/><path d="M14.596 21.642c-1.082-1.464-.557-.596-1.44-2.68"/><path d="M8.174 17.654c.95.56 2.26 1.596 3.296.664"/><path d="M7.623 18.917c.604.16 3.652 1.064 3.596-.478"/><path d="M9.86 10.788c-.072.65-.072 1.056 0 1.22.455 1.036 1.167.69 1.463-.427"/><path d="M11.81 10.056c-1.38 5.973-1.28 8.96.305 8.96s2.133-1.056 1.646-3.17l-.244-5.424c.73 2.56 1.422 2.682 2.072.366" class="J"/></g><g stroke="#ff5fa7" class="U B C"><path d="M6.935 15.766c-.352-.18-.555-.344-.61-.488-.29-.765.295-1.18 1.34-.61.04-.894.386-1.442 1.036-1.646s.772.345.366 1.646c.647-.096 1.053-.096 1.22 0 .555.322.297 1.108-.853 1.585.57.488.65.995.244 1.524s-.894.284-1.463-.73c-.813.975-1.442 1.22-1.89.73s-.244-1.158.61-2.01z"/><path d="M18.91 14.657c.335-.245.52-.447.552-.604.175-.838-.5-1.172-1.49-.4-.188-.917-.636-1.428-1.343-1.53s-.743.484-.11 1.76c-.686.007-1.107.073-1.263.2-.522.424-.127 1.194 1.144 1.498-.5.597-.51 1.136-.003 1.615s.973.147 1.396-.996c1.002.875 1.694 1.023 2.078.446s.063-1.237-.96-1.98z"/></g><g fill="#d41c61"><circle cx="8.306" cy="15.735" r="1"/><circle cx="17.421" cy="14.749" r="1"/></g><path d="M17.742 10.165c2.5-.45 3.912-.774 4.205-.975l-.55-1.524-4.57.914c-.284-4.43-1.077-6.643-2.377-6.643-.423 0-.91.61-1.463 1.828-.772-2.357-1.585-2.804-2.438-1.34s-1.3 3.677-1.34 6.643l-2.986-.17c-.65-.07-1.157-.176-1.524-.318v1.402c-.065.068.386.164 1.353.288l2.913.26c1.178.1 4.104-.032 8.777-.366z" class="N"/></g><g transform="translate(15 160)"><path d="M13.5 0C6.044 0 0 6.044 0 13.5S6.044 27 13.5 27 27 20.956 27 13.5 20.956 0 13.5 0z" fill="#cce4ff" class="E"/><g transform="translate(6.414 3.91)"><g transform="translate(4.093 .244)" class="U"><path d="M9.04 1.57C8.72 8.697.96 11.34 5.92 15.985c1.185 1.1-6.5 1.125-5.84 0C3.6 9.98-.08 8.697.001 2.21.01 1.446.12.728.31.07c3.863-.11 6.693-.01 8.5.3.143.025.223.425.24 1.2z"/></g><g class="B C D V"><path d="M14.172.977c-.425 1.847-1.234 3.74-1.4 5.636-.113 1.375-.05 2.758-.076 4.137"/><path d="M13.683.916c-.953 2.398-1.323 4.556-1.413 7.148-.07 2.036-.274 1.54.132 2.38"/><path d="M12.4 2.382c-.895 3.694-.936 4.887-.3 8.674"/><path d="M12.034 11.484c-2.22-1.994-1.3-5.476-.695-7.94"/></g><path d="M7.73 1.77c.135.667.098 1.114-.1 1.34C6.512 4.32 6.08 4.783 4.836 6.5c-.017.024-.012.085.017.085.138.001.292-.003.406-.08.8-.547 1.417-1.378 2.3-1.772 1.19-.53-1.633 1.304-.95 1.66.28.146 5.16-.526 3.583-.21s-3.922.752-3.726 1.008c.82 1.07 1.028 1.562.82 2.52" class="B C D K"/><g class="V B C D"><path d="M4.765 3.054C4.048 4.96 3.088 9.603.265 10.14c-.036.007-.054-.048-.08-.073"/><path d="M4.337 1.77C3.688 4.99 2.73 7.833.06 9.713"/><path d="M3.97.55C3.142 3.546 2.723 6.804.183 8.857"/><path d="M3.115.672C2.35 3.885 2.265 6 0 8.247"/></g><path d="M3.898.027c-.346 0 .208 2.136.426 2.63.184.417.7.63 1.518.637.917.028 1.555-.18 1.913-.628l.055-.07c.426.854 1.283 1.097 2.323 1.097 2.405 0 3.365-1.457 2.98-3.665H3.898zm4.245.816l4.1-.057.001.015c.054.704-.068 1.227-.342 1.574l-.028.035c-.33.386-.942.588-1.868.588-.635 0-1.375-.248-1.694-1.04l-.075-.224c-.036-.134-.034-.348-.053-.603l-.03-.288zm-3.6.07h2.967l-.004.437c-.024.982-.233 1.42-1.972 1.456l-.324.003c-.042 0-.064-.006-.103-.034-.083-.057-.174-.17-.258-.345-.136-.283-.232-.68-.28-1.19L4.545.91z" fill="#00ffce" class="E"/><g class="S"><use xlink:href="#o"/><use xlink:href="#o" x="1.771"/></g><g class="T"><path d="M2.817 17.51c-.392.574-2.038.425-1.156-.738s1.548.164 1.156.738z"/><path d="M4.74 18.495c-.403.554-1.875.2-.97-.922s1.372.368.97.922z"/><path d="M7.545 18.826c-.408.575-1.874.315-.957-.85s1.365.276.957.85z"/><path d="M10.472 18.468c-.415.566-1.826.27-1.223-.728s1.638.162 1.223.728z"/><path d="M12.56 17.794c-.394.56-1.613.292-1.162-.72s1.555.16 1.162.72z"/></g></g></g><g class="E M"><path d="M28.14 208C20.883 208 15 213.883 15 221.14s5.883 13.14 13.14 13.14 13.14-5.883 13.14-13.14S35.4 208 28.14 208z"/><path d="M28.14 504C20.883 504 15 509.883 15 517.14s5.883 13.14 13.14 13.14 13.14-5.883 13.14-13.14S35.4 504 28.14 504z"/></g><g class="J E"><use xlink:href="#p"/><use xlink:href="#p" y="296"/></g><g class="B C D I"><path d="M24.168 216.68c1.157.068.976.094 1.803-.713"/><path d="M24.168 512.68c1.157.068.976.094 1.803-.713"/><path d="M24.28 217.273c.9-.065 1.006-.412 1.63-1.178"/><path d="M24.28 513.273c.9-.065 1.006-.412 1.63-1.178"/><path d="M26.31 216.05c.23.586.622.626 1.232.578"/><path d="M26.31 512.05c.23.586.622.626 1.232.578"/><path d="M26.31 216.057c.135 1.023-.104.595.78 1.245"/><path d="M26.31 512.057c.135 1.023-.104.595.78 1.245"/></g><g stroke="#fff" class="B C"><use xlink:href="#q"/><use xlink:href="#q" y="296"/><g class="D"><use xlink:href="#r"/><use xlink:href="#r" y="296"/></g></g><g class="I B C"><use xlink:href="#s" class="D"/><use xlink:href="#s" y="296" class="D"/><use xlink:href="#t" class="D"/><use xlink:href="#t" y="296" class="D"/><path d="M31.49 215.84c.85 1.76 3.116 5.847 5.385 3.188" class="D"/><path d="M31.49 511.84c.85 1.76 3.116 5.847 5.385 3.188" class="D"/><use xlink:href="#u" class="D"/><use xlink:href="#u" y="296" class="D"/><use xlink:href="#v" class="D"/><use xlink:href="#v" y="296" class="D"/><use xlink:href="#w" class="D"/><use xlink:href="#w" y="296" class="D"/><use xlink:href="#x" class="D"/><use xlink:href="#x" y="296" class="D"/><g class="N"><use xlink:href="#y"/><use xlink:href="#y" y="296"/></g></g></g></g></svg>