<svg xmlns="http://www.w3.org/2000/svg" xmlns:xlink="http://www.w3.org/1999/xlink" width="620" height="779" xmlns:v="https://vecta.io/nano"><style><![CDATA[.B{stroke-width:.5}.C{stroke-linejoin:round}.D{stroke-linecap:round}.E{fill:#fff}.F{fill-rule:nonzero}.G{fill:#0d62fe}.H{fill:#011638}.I{fill:#0064ff}.J{stroke:#f4f2ee}.K{mask:url(#b)}.L{fill:#000}.M{stroke:#001d75}.N{mask:url(#a)}.O{fill:#f4f2ee}.P{fill:#ff9d00}.Q{fill:#001d71}.R{stroke:#212121}.S{fill:#212121}.T{fill:#00c15a}.U{filter:url(#E)}.V{fill:#42be65}.W{fill:#001d75}.X{stroke-width:1.322}.Y{stroke-linecap:square}]]></style><defs><filter x="-51.8%" y="-27.9%" width="203.6%" height="155.8%" id="A"><feOffset dy="24" in="SourceAlpha"/><feGaussianBlur stdDeviation="16"/><feColorMatrix values="0 0 0 0 0 0 0 0 0 0.160784314 0 0 0 0 0.349019608 0 0 0 0.1 0" result="C"/><feMerge><feMergeNode in="C"/><feMergeNode in="SourceGraphic"/></feMerge></filter><filter x="-22.5%" y="-12.1%" width="145.0%" height="124.2%" id="B"><feOffset dy="12" in="SourceAlpha"/><feGaussianBlur stdDeviation="12"/><feColorMatrix values="0 0 0 0 0 0 0 0 0 0.164542109 0 0 0 0 0.362271488 0 0 0 0.1 0" result="C"/><feMerge><feMergeNode in="C"/><feMergeNode in="SourceGraphic"/></feMerge></filter><path d="M24.927 0h230.1c13.244 0 23.985 10.73 24 23.973l.547 495.248c.015 13.255-10.72 24.012-23.973 24.026h-.027-230.1c-13.244 0-23.985-10.73-24-23.973L.927 24.027C.912 10.772 11.645.015 24.9 0h.027z" id="C"/><path id="D" d="M-25-26h307V81H-25z"/><filter x="-9.1%" y="-18.7%" width="118.2%" height="152.3%" id="E"><feOffset dy="8" in="SourceAlpha"/><feGaussianBlur stdDeviation="8"/><feColorMatrix values="0 0 0 0 0 0 0 0 0 0.160784314 0 0 0 0 0.349019608 0 0 0 0.1 0"/></filter><filter x="-18.0%" y="-23.6%" width="136.0%" height="147.2%" id="F"><feOffset dy="8" in="SourceAlpha"/><feGaussianBlur stdDeviation="8"/><feColorMatrix values="0 0 0 0 0 0 0 0 0 0.160784314 0 0 0 0 0.349019608 0 0 0 0.1 0" result="C"/><feMerge><feMergeNode in="C"/><feMergeNode in="SourceGraphic"/></feMerge></filter><filter x="-18.0%" y="-90.4%" width="135.6%" height="280.8%" id="G"><feOffset dy="8" in="SourceAlpha"/><feGaussianBlur stdDeviation="8"/><feColorMatrix values="0 0 0 0 0 0 0 0 0 0.160784314 0 0 0 0 0.349019608 0 0 0 0.1 0" result="C"/><feMerge><feMergeNode in="C"/><feMergeNode in="SourceGraphic"/></feMerge></filter><filter x="-179.2%" y="-119.4%" width="458.3%" height="338.9%" id="H"><feOffset dy="4" in="SourceAlpha"/><feGaussianBlur stdDeviation="3.5"/><feColorMatrix values="0 0 0 0 0 0 0 0 0 0.164542109 0 0 0 0 0.362271488 0 0 0 0.1 0" result="C"/><feMerge><feMergeNode in="C"/><feMergeNode in="SourceGraphic"/></feMerge></filter><path d="M33.815 66h246.37C298.86 66 314 50.865 314 32.195V0H0v32.195C0 50.865 15.14 66 33.815 66z" id="I"/><filter x="-16.2%" y="-86.4%" width="132.5%" height="254.5%" id="J"><feOffset dy="-6" in="SourceAlpha"/><feGaussianBlur stdDeviation="16"/><feColorMatrix values="0 0 0 0 0 0 0 0 0 0.160784314 0 0 0 0 0.349019608 0 0 0 0.1 0"/></filter><filter x="-2.2%" y="-1.9%" width="104.4%" height="103.9%" id="K"><feOffset dy="1" in="SourceAlpha"/><feGaussianBlur stdDeviation="2"/><feColorMatrix values="0 0 0 0 0 0 0 0 0 0.160784314 0 0 0 0 0.349019608 0 0 0 0.1 0" result="C"/><feMerge><feMergeNode in="C"/><feMergeNode in="SourceGraphic"/></feMerge></filter><path d="M88.082 0C39.436 0 0 39.51 0 88.246s39.436 88.246 88.082 88.246 88.082-39.51 88.082-88.246S136.73 0 88.082 0zm.753 15.085c40.747 0 73.778 33.093 73.778 73.915s-33.032 73.915-73.778 73.915S15.057 129.822 15.057 89 48.09 15.085 88.835 15.085z" id="L"/><filter x="-4.3%" y="-5.5%" width="108.7%" height="110.5%" id="M"><feOffset dy="1" in="SourceAlpha"/><feGaussianBlur stdDeviation="2"/><feColorMatrix values="0 0 0 0 0 0 0 0 0 0.160784314 0 0 0 0 0.349019608 0 0 0 0.1 0" result="C"/><feMerge><feMergeNode in="C"/><feMergeNode in="SourceGraphic"/></feMerge></filter><path d="M49.975.47C22.503.47.232 22.804.232 50.355s22.27 49.886 49.743 49.886S99.72 77.906 99.72 50.355 77.448.47 49.975.47zm-.69 18.014c17.17 0 31.1 13.96 31.1 31.18s-13.92 31.18-31.1 31.18-31.1-13.96-31.1-31.18 13.92-31.18 31.1-31.18z" id="N"/><path id="O" d="M0 0h307v107H0z"/><path id="P" d="M36.037 0h234.9c19.37 0 35.08 15.692 35.1 35.063l.526 499.8c.02 19.385-15.678 35.117-35.063 35.137h-.037-234.9c-19.37 0-35.08-15.692-35.1-35.063l-.526-499.8C.917 15.752 16.615.02 36 0h.037z"/><path id="Q" d="M36.03 4.5h233.423c16.556 0 29.983 13.413 30 29.97l.515 501c.017 16.57-13.4 30.014-29.97 30.03h-.03H36.546c-16.556 0-29.983-13.413-30-29.97l-.515-501C6.014 17.962 19.43 4.517 36 4.5h.03z"/><path id="R" d="M4 0h252.3a4 4 0 0 1 4 4v190a4 4 0 0 1-4 4H4a4 4 0 0 1-4-4V4a4 4 0 0 1 4-4z"/><path id="S" d="M4 0h252.3a4 4 0 0 1 4 4v44a4 4 0 0 1-4 4H4a4 4 0 0 1-4-4V4a4 4 0 0 1 4-4z"/><path id="T" d="M44.106 23.892l-5.23 3.338-4.338-6.924c-.047-.075-.126-.1-.185-.17l1.203-1.282c.243-.258.243-.68 0-.94l-1.616-1.72a.6.6 0 0 0-.884 0l-1.616 1.72c-.243.258-.243.68 0 .94l1.203 1.282c-.06.06-.138.096-.185.17l-4.34 6.924-5.228-3.338a1.19 1.19 0 0 0-1.388.071c-.405.32-.6.87-.468 1.39l2.5 10.64c.14.59.64 1.007 1.214 1.007h17.5c.574 0 1.074-.417 1.213-1.007l2.5-10.64c.123-.52-.063-1.07-.468-1.39a1.19 1.19 0 0 0-1.388-.071z"/><path id="U" d="M10.93 0C4.893 0 0 4.885 0 10.91s4.893 10.91 10.93 10.91 10.93-4.885 10.93-10.91S16.966 0 10.93 0z"/><path id="V" d="M5.39 1.302c-.026.42.383.528.497.14.087-.295-.386-.323-.535-.14"/><path id="W" d="M6.256 17.525v-.876H1.378v-.03c0-.246.057-.494.172-.745s.27-.507.462-.768a9.14 9.14 0 0 1 .656-.784l.753-.776.9-.922a8.22 8.22 0 0 0 .798-.953 4.77 4.77 0 0 0 .559-1.022c.14-.353.21-.73.21-1.13 0-.9-.254-1.606-.76-2.113s-1.263-.76-2.267-.76a3.41 3.41 0 0 0-1.029.146c-.308.097-.58.213-.813.346a3.37 3.37 0 0 0-.582.407l-.32.315.507.69a5.06 5.06 0 0 1 .283-.261c.13-.113.286-.223.47-.33s.4-.202.65-.284.532-.123.85-.123c.567 0 1.037.156 1.4.47s.56.827.56 1.544a2.66 2.66 0 0 1-.149.906 3.42 3.42 0 0 1-.403.784 5.51 5.51 0 0 1-.589.714l-.71.714-.932.922a7.79 7.79 0 0 0-.88 1.029c-.264.37-.48.76-.65 1.175s-.254.863-.254 1.344l.007.254.007.115h5.952zm5.323 0V6.878h-.686c-.457.574-.92 1.027-1.387 1.36a6.58 6.58 0 0 1-1.596.822h0l.283.768c.24-.072.477-.166.716-.284l.686-.37c.22-.128.415-.26.59-.392s.316-.26.425-.384h0v9.126h.97z"/><path id="X" d="M2.04 4.1l.072-1.627.11-1.437.133.254.208.418.245.51.25.53.22.474.152.35h.325l.152-.35.22-.474.25-.53.245-.51.208-.418.133-.254.11 1.437.072 1.627h.368l-.11-1.916L5.254.432H4.95l-.34.61-.36.72-.347.736-.296.654-.296-.654-.347-.736-.36-.72-.34-.61h-.32L1.79 2.183 1.682 4.1h.357zm5.134.058l.333-.013.296-.034.235-.04.155-.034V2.3a1.45 1.45 0 0 0-.053-.402.83.83 0 0 0-.171-.32.79.79 0 0 0-.307-.212 1.23 1.23 0 0 0-.461-.077 2.41 2.41 0 0 0-.456.037c-.126.025-.22.05-.28.08h0l.048.302a2.87 2.87 0 0 1 .219-.069 1.79 1.79 0 0 1 .453-.042c.142 0 .257.022.344.066s.155.102.203.175.08.153.093.243.02.183.02.278h0v.17a.41.41 0 0 0-.077-.024l-.133-.026-.16-.02-.157-.008c-.167 0-.322.016-.464.048a1.08 1.08 0 0 0-.368.151c-.103.07-.183.156-.24.262s-.085.233-.085.38c0 .155.026.287.077.394s.123.196.213.265.197.12.32.15.257.048.403.048zm.06-.307c-.1 0-.21-.01-.296-.03a.64.64 0 0 1-.224-.093.42.42 0 0 1-.144-.169c-.034-.07-.05-.157-.05-.26 0-.116.025-.2.075-.28a.53.53 0 0 1 .192-.167c.078-.04.164-.067.256-.08s.18-.02.267-.02c.15 0 .267.01.352.03a1.07 1.07 0 0 1 .187.056h0v.963a2.44 2.44 0 0 1-.259.034l-.355.013zm1.77 1.244c.156 0 .292-.018.408-.053s.217-.1.304-.164a1.19 1.19 0 0 0 .237-.283 3.04 3.04 0 0 0 .208-.41c.17-.402.33-.845.475-1.328l.39-1.492h-.347l-.152.65-.15.6-.168.58-.208.62-.3-.646-.253-.64-.205-.606-.15-.548h-.368l.203.7.26.714.304.706.34.672a1.91 1.91 0 0 1-.152.307.8.8 0 0 1-.173.198.58.58 0 0 1-.216.108c-.08.02-.17.032-.27.032a.72.72 0 0 1-.205-.029c-.066-.02-.106-.034-.12-.045h0l-.07.286c.018.01.063.026.136.048a.87.87 0 0 0 .243.032z"/><path id="Y" d="M93.3 13.5c0 7.456 6.044 13.5 13.5 13.5H204c7.456 0 13.5-6.044 13.5-13.5h0H93.3z"/><path id="Z" d="M52.74 53.126v.355l19.967 47.93a50.73 50.73 0 0 1-20.659 4.373c-28.332 0-51.353-23.22-51.81-52.038l-.005-.62H52.74z"/></defs><g transform="translate(36 12)" fill="none" fill-rule="evenodd"><g filter="url(#A)"><g filter="url(#B)"><use xlink:href="#P" fill="#292929"/><use xlink:href="#Q" class="L"/><g transform="translate(13.5 13.5)"><mask id="a" class="E"><use xlink:href="#C"/></mask><use fill="#fafafa" xlink:href="#C"/><g class="N"><use xlink:href="#D" class="L U"/><use xlink:href="#D" class="H"/><g transform="translate(9.5 71)"><g filter="url(#F)" transform="translate(0 .5)"><use xlink:href="#R" class="B E J"/><g transform="translate(24 16)"><rect y="18" width="27" height="19" rx="9.5" class="H"/><rect y="52" width="84" height="11" rx="5.5" class="O"/><rect y="68" width="48" height="11" rx="5.5" class="V"/><rect width="48" height="11" rx="5.5" class="G"/></g><g transform="translate(24 125)"><rect y="18" width="27" height="19" rx="9.5" class="H"/><rect width="48" height="11" rx="5.5" class="G"/></g><g transform="translate(145 16)"><rect y="18" width="27" height="19" rx="9.5" class="H"/><rect y="52" width="84" height="11" rx="5.5" class="O"/><rect y="68" width="48" height="11" rx="5.5" class="V"/><rect width="48" height="11" rx="5.5" class="G"/></g><g transform="translate(145 125)"><rect y="18" width="27" height="19" rx="9.5" class="H"/><rect width="48" height="11" rx="5.5" class="G"/></g><g class="C J X Y"><path d="M130.5.5v198"/><path transform="matrix(0 -1 1 0 25.25 235.25)" d="M130.25-25.25v260.5"/></g></g><g transform="translate(0 204.5)" filter="url(#G)"><use xlink:href="#S" class="B E J"/><rect fill="#f3a712" x="12" y="5" width="42" height="42" rx="6"/><use xlink:href="#T" class="E"/><g transform="translate(150 15)"><path d="M10.663 0C4.774 0 0 4.766 0 10.644S4.774 21.29 10.663 21.29s10.663-4.766 10.663-10.644S16.552 0 10.663 0z" fill="#06f" class="F"/><g transform="translate(1.11 4.72)"><path d="M7.995 1.51c-2.42 0-4.585.64-6.2 1.657C1.14 3.58.62 4.032.32 4.445c-.18.25-.3.49-.303.744-.022.43.255.78.678.87l.036.007c.276.052.68.072 1.628.097l.858.023 2.067.1.13.01.114.008c.978.073 1.798.182 2.448.333l.045.01v3.78c.087.9 1.048 1.335 2.88 1.335s3.92-.516 6.26-1.548L16.84 7.4l.023-.006c.334-.09.617-.214.85-.38.44-.317.678-.774.678-1.31 0-.62-.348-1.086-.943-1.242l-.023-.006c-.255-.063-.55-.07-.888-.025l-.04.005-.06-.522-.214-.17c-1.893-1.5-4.64-2.235-8.226-2.235z" class="F P"/><g class="B C D M"><path d="M6.33 2.31c.94.055.792.076 1.463-.577"/><path d="M6.42 2.79c.74-.053.816-.334 1.323-.954"/><path d="M8.067 1.8c.186.474.504.507 1 .468"/><path d="M8.067 1.806c.11.828-.084.482.634 1.01"/></g><g stroke="#fff" class="B C"><path d="M6.793.287c.88-.805 1.332.264 1.237.954-.114.833-.793 1.476-1.432 1.932-.01.006-.567.382-.73.237-.395-.35-.238-1.135-.073-1.604A4.36 4.36 0 0 1 6.793.287z"/><g class="D"><path d="M7.957 2.03c.145-.445.242-1.007.64-1.324.854-.682 1.68-.457 1.444.717-.13.642-.664 1.4-1.133 1.847-.61.58-1.14-.213-1.048-.8.044-.28.15-.547.225-.82"/></g></g><g class="M B C D"><path d="M10.93 1.466c.2 1.172.312 2.07 1.097 2.995 1.15 1.358 3.705.79 4.772-.377"/><path d="M11.912 1.618c-.213 1.558-.084 3.32 1.89 3.585.137.018 1.047.067 1.383-.05.816-.28.85-.45 1.627-1.08"/><path d="M12.272 1.63c.7 1.425 2.528 4.736 4.37 2.582"/><path d="M13.186 1.8c.162.876.243 1.762.83 2.48.776.95 2.358.755 3.017-.17"/><path d="M13.637 1.958c.442 1.115 1.28 2.985 2.797 2.363"/><path d="M14.18 2.074c.367.58 1.126 2.053 1.883 2.206.295.06.6-.008.902-.012"/><path d="M7.72 7.038c.743-.26 1.342.276 2.102.14.368-.066.817-.466 1.085-.668"/></g></g><path d="M7.72 14.642l3.136 1.734 4.92-1.734-.29 3.66-4.632-1.397L6.9 18.303z" class="B C M W"/></g><g transform="translate(166 15)"><use xlink:href="#U" class="F Q"/><g transform="translate(3.017 6.813)"><g transform="translate(0 .003)"><path d="M10.553 7.34c1.296 0 2.887-.08 4.774-.244l.5-2.4h-2.122l.163-3.497H2.107l-.072 1.94C.678 2.763 0 2.94 0 3.672s.607 1.17 1.822 1.31l.408 1.87 8.323.488z" class="P"/><g transform="translate(8.798 .878)" class="S"><path d="M.084.278c-.06 1.02.85 1.28 1.103.34C1.38-.098.33-.166 0 .278"/><path d="M3.508.116c.018.217.005.44.053.652.21.922 1.365.027.753-.743"/></g><path d="M14.152 0c.252 0-.046 2.24-.204 2.7-.2.57-.673.447-1.183.447a3.75 3.75 0 0 1-.425-.02 6.94 6.94 0 0 0-.785-.804l-.228-.19.057.33-.073-.115c-.31.78-.932 1-1.688 1-1.747 0-2.444-1.328-2.165-3.34h6.694zM10.68.908H8.32V.92c-.03.483.025.858.155 1.127l.078.136c.206.303.572.46 1.153.46.395 0 .667-.254.84-.876l.047-.188.033-.192.033-.257.022-.223zm2.804 0h-1.748c.248 1.016.576 1.457 1.184 1.523l.17.01c.025 0 .038-.005.06-.027.05-.046.103-.138.152-.28.08-.23.136-.55.166-.96l.014-.266z" fill="#ff0025" class="F"/><g class="B C D R"><path d="M11.6 2.615c.82.647 1.548 1.588 1.424 1.744-.163.203-.753.245-.898.163-.116-.066-.064.024-.064.782"/><path d="M9.806 4.667c.96.71 2.027.802 3.08.586"/></g><g class="M B C D"><path d="M10.835 6.494c.206.82.692 1.34 1.206 2.027"/><path d="M11.676 6.404c.562 1.774.437 1.018.565 2.23"/><path d="M12.375 6.532c.168 1.725.148 1.008.148 2.148"/><path d="M13.12 6.532l-.385 2.36"/><path d="M13.64 6.596c-.046.836-.267 1.503-.686 2.225"/><path d="M14.2 6.513c-.077.816-.3 1.6-.86 2.238"/><path d="M14.524 7.39c-.68.91-.76 1.187-1.777 1.426"/></g><path d="M9.875 4.37c-.062.165-.184.328-.388.337" class="B C D R"/></g></g></g><g transform="translate(183 15)"><use xlink:href="#U" fill="#06f" class="F"/><g transform="translate(.692 2.32)"><path d="M1.234 12.316c.01-5.395 7.16-10.17 11.272-10.166 6.244.008 4.7 10.415 4.412 10.435-1.768.12-6.996.03-15.684-.27z" transform="matrix(.956305 -.292372 .292372 .956305 -1.756857 3.031606)" class="W"/><g transform="translate(6.083 3.061)" fill="#f1f4f6"><path d="M9.38 2.76c.27 2.147-1.836 7.566-4.06 7.268-1.868-.25-2.956-1.834-3.532-3.53C1.7 6.213.247 6.96.05 5.628s1.377-.496 1.335-.74c-.138-.818-.128-1.512-.107-2.067.003-.088.475-.358 1.483-.518.45-.072 1.01-.12 1.68-.122.96-.001 2.03.093 2.93.207.26.033.022-2.373.245-2.338s.914 2.51 1.1 2.542c.415.076.67.14.674.17z"/></g><g transform="translate(9.446 5.974)"><g transform="translate(2.72 .444)" class="B C D R"><path d="M.247 0c.122 1.17.99.785.99.004"/><path d="M.297.642L0 1.037"/><path d="M.742.8l-.198.642"/><path d="M.99.69l.148.543"/></g><path d="M2.226 0l1.456 2.138c.075.09.218.2.175.313-.04.103-.984.182-1.067.014-.043-.087-.055-.387-.052-.29.018.604.07.985.16 1.143" fill="#f3fff6" class="B C D M"/><g transform="translate(.148 .395)" class="B C D R"><path d="M.22.083C.034.86 1.13.957 1.335 0"/><path d="M.346.642L0 .89"/><path d="M.733.69L.7 1.135"/><path d="M1.04.642l.148.346"/></g><path d="M2.06 4.058h1.046l-1.45.001c2.285-.001 1.77-.001-1.543.001l1.946-.001z" fill="#ff243a" transform="matrix(.956305 .292372 -.292372 .956305 1.273384 -.404895)"/></g></g></g><g transform="translate(199 15)"><path d="M10.955 0C4.905 0 0 4.896 0 10.935S4.905 21.87 10.955 21.87 21.91 16.975 21.91 10.935 17.005 0 10.955 0z" fill="#cce4ff" class="F"/><g transform="translate(5.205 3.167)"><g transform="translate(3.321 .198)" fill="#ff5fa7"><path d="M7.336 1.272C7.076 7.045.78 9.186 4.805 12.948c.962.9-5.274.912-4.74 0C2.922 8.083-.064 7.045.001 1.79.01 1.17.097.6.252.056 3.387-.032 5.683.05 7.14.3c.116.02.18.344.195.973z"/></g><g stroke="#ffc200" class="B C D"><path d="M11.5.792c-.345 1.496-1 3.03-1.128 4.565-.092 1.113-.04 2.234-.062 3.35"/><path d="M11.103.742c-.774 1.943-1.074 3.69-1.147 5.8-.057 1.65-.223 1.247.107 1.93"/><path d="M10.062 1.93c-.726 2.992-.76 3.96-.25 7.026"/><path d="M9.765 9.302C7.963 7.687 8.718 4.867 9.2 2.87"/></g><path d="M6.272 1.435c.1.54.08.902-.09 1.086-.9.977-1.25 1.353-2.26 2.745-.014.02-.01.07.014.07.112.001.237-.003.33-.066.648-.443 1.15-1.116 1.867-1.435C7.1 3.404 4.8 4.9 5.364 5.18c.227.118 4.188-.426 2.907-.17s-3.183.61-3.023.817c.666.868.834 1.265.666 2.042" class="B C D R"/><g stroke="#ffc200" class="B C D"><path d="M3.866 2.474c-.582 1.544-1.36 5.304-3.65 5.74-.03.006-.044-.04-.066-.06"/><path d="M3.52 1.435C2.993 4.04 2.214 6.345.05 7.867"/><path d="M3.222.445C2.55 2.872 2.21 5.512.15 7.175"/><path d="M2.528.544C1.906 3.147 1.838 4.86 0 6.68"/></g><path d="M3.163.022c-.28 0 .17 1.73.345 2.13.15.338.56.5 1.232.516.744.023 1.26-.147 1.552-.51l.044-.057c.345.692 1.04.888 1.885.888 1.95 0 2.73-1.18 2.418-2.97H3.163zm3.445.66l3.32-.046.001.012c.044.57-.055.994-.278 1.275l-.023.028c-.267.313-.764.476-1.516.476-.515 0-1.116-.2-1.375-.842l-.06-.18c-.03-.11-.028-.282-.043-.49L6.608.682zm-2.92.056h2.408l-.004.354c-.02.795-.19 1.15-1.6 1.18l-.263.003c-.034 0-.052-.005-.084-.027-.067-.047-.14-.14-.21-.28-.11-.23-.188-.552-.228-.963l-.02-.266z" fill="#00ffce" class="F"/><g class="S"><use xlink:href="#V" transform="matrix(-1 0 0 1 11.251954 0)"/><use xlink:href="#V" x="1.44" transform="matrix(-1 0 0 1 14.126902 0)"/></g><g fill="#ff0025"><path d="M1.233 14.185c.318.465 1.653.345.938-.598s-1.256.133-.938.598z" transform="matrix(-1 0 0 1 3.519334 0)"/><path d="M2.944 14.982c.327.45 1.522.163.786-.747s-1.113.298-.786.747z" transform="matrix(-1 0 0 1 6.790826 0)"/><path d="M5.228 15.25c.33.466 1.52.255.777-.7s-1.108.223-.777.7z" transform="matrix(-1 0 0 1 11.35109 0)"/><path d="M7.463 14.96c.336.46 1.48.22.992-.6s-1.33.13-.992.6z" transform="matrix(-1 0 0 1 15.96092 0)"/><path d="M9.238 14.414c.32.454 1.31.236.943-.583s-1.262.13-.943.583z" transform="matrix(-1 0 0 1 19.430686 0)"/></g></g></g><g transform="translate(216 15)"><use xlink:href="#U" fill="#06f" class="F"/><path d="M14.04 8.113c2.516 1.567 4.283 4.817 5.302 9.752-2.005 2.446-5.05 4.005-8.462 4.005-3.468 0-6.56-1.613-8.562-4.128.184-1.242.433-2.337.748-3.288.34-1.027 1.416-2.79 3.23-5.286l.554-.754c2.584.138 4.842.04 6.748-.233l.442-.068z" class="P"/><g class="B C D M"><path d="M5.726 16.517c1.49.766 2.45-.213 3.456-1.28"/><path d="M10.86 15.41c.205.885.333 1.44.84 2.152.012.017-.04.01-.06.015"/><path d="M12.642 17.288c-1.016-.603-.406-.15-1.544-1.68"/><path d="M14.736 16.853c-1.38-.094-2.803-.594-3.853-1.51"/><path d="M14.86 15.99c-.728.104-2.21.844-3.945-.748"/><path d="M14.805 14.945c-1.9.382-.727.23-3.547.16"/><path d="M7.16 17.71c.848-.674 2.098-1.42 2.32-2.597"/><path d="M8.374 17.697c1.008-.665.3-.113 1.452-2.27"/><path d="M9.49 17.757c.764-1.484.512-.753.835-2.165"/><path d="M10.7 17.586c-.57-1.16-.362-.496-.5-2.027"/><path d="M11.844 17.53c-.878-1.185-.452-.483-1.17-2.17"/><path d="M6.633 14.3c.77.454 1.834 1.293 2.674.538"/><path d="M6.186 15.323c.5.13 2.963.862 2.918-.387"/><path d="M8 8.738c-.058.526-.058.855 0 .987.37.84.947.56 1.187-.346"/><path d="M9.584 8.146c-1.12 4.838-1.04 7.257.247 7.257s1.73-.856 1.335-2.567l-.198-4.394c.593 2.074 1.154 2.172 1.682.296" class="P"/></g><g stroke="#ff5fa7" fill="#ff5fa7" class="B C"><path d="M5.627 12.77c-.286-.147-.45-.28-.495-.395-.235-.62.24-.956 1.088-.494.033-.724.313-1.168.84-1.333s.626.28.297 1.333c.525-.078.855-.078.99 0 .45.26.24.897-.692 1.284.462.395.528.806.198 1.234s-.725.23-1.187-.592c-.66.8-1.17.987-1.533.592s-.198-.938.495-1.63z"/><path d="M12.947 12.06c-.3-.154-.472-.29-.52-.413-.246-.648.25-1 1.142-.517.035-.758.33-1.223.882-1.395s.657.293.31 1.395c.55-.082.897-.082 1.038 0 .472.273.253.94-.727 1.344.484.413.553.844.207 1.292s-.76.24-1.245-.62c-.692.827-1.228 1.034-1.61.62s-.207-.982.52-1.705z" transform="matrix(-.987688 .156434 .156434 .987688 26.245017 -2.065528)"/></g><g fill="#d41c61"><circle cx="6.74" cy="12.746" r="1"/><circle cx="14.136" cy="11.947" r="1"/></g><path d="M14.397 8.234c2.037-.364 3.174-.627 3.412-.8L17.364 6.2l-3.71.74c-.23-3.587-.874-5.38-1.93-5.38-.343 0-.74.494-1.187 1.48C9.913 1.14 9.253.78 8.56 1.964s-1.055 2.98-1.088 5.38L5.05 7.208c-.526-.057-.94-.143-1.236-.257v1.135c-.053.055.313.133 1.098.233l2.364.21c.956.073 3.33-.026 7.122-.296z" class="W"/></g></g><g transform="translate(0 261.5)" filter="url(#G)"><use xlink:href="#S" class="B E J"/><rect x="12" y="5" width="42" height="42" rx="6" class="G"/><path d="M37 28h4v-4h-4v4zm-6 0h4v-4h-4v4zm0 6h4v-4h-4v4zm-6-6h4v-4h-4v4zm0 6h4v-4h-4v4zm17-16h-2v-2h-2v5h-2v-3h-6v-2h-2v5h-2v-3h-2a2 2 0 0 0-2 2v15c0 1.102.897 2 2 2h18c1.103 0 2-.898 2-2V20c0-1.103-.897-2-2-2z" class="E"/></g><g filter="url(#F)" transform="translate(0 318.5)"><use xlink:href="#R" class="B E J"/><g transform="translate(24 15)"><rect width="27" height="19" rx="9.5" class="H"/><rect y="34" width="84" height="11" rx="5.5" class="O"/><rect y="50" width="48" height="11" rx="5.5" class="V"/></g><g transform="translate(24 125)"><rect y="18" width="27" height="19" rx="9.5" class="H"/><rect width="48" height="11" rx="5.5" class="G"/></g><g transform="translate(145 15)"><rect width="27" height="19" rx="9.5" class="H"/><rect y="34" width="84" height="11" rx="5.5" class="O"/><rect fill="#fb3640" y="50" width="48" height="11" rx="5.5"/></g><g transform="translate(145 125)"><rect y="18" width="27" height="19" rx="9.5" class="H"/><rect width="48" height="11" rx="5.5" class="G"/></g><g class="C J X Y"><path d="M130.5.5v198"/><path transform="matrix(0 -1 1 0 25.25 235.25)" d="M130.25-25.25v260.5"/></g></g></g><rect x="80.5" y="36.5" width="120" height="15" rx="7.5" class="G"/></g><g filter="url(#H)" class="N F I"><g transform="translate(-36.5 230.5)"><use xlink:href="#W"/><use xlink:href="#X"/></g></g><g class="N"><g transform="translate(-17 485.5)"><use filter="url(#J)" xlink:href="#I" class="L"/><use xlink:href="#I" class="E"/><g transform="translate(125.5 16)" class="I"><path d="M20.09.01L.828 4.443c-.437.1-.765.457-.82.893a1.04 1.04 0 0 0 .578 1.058L6.057 9.1l.56 5.45a1.05 1.05 0 0 0 .8.908c.435.11.895-.062 1.148-.425l.166-.166-1.106-4.16a1.41 1.41 0 0 1 .707-1.339l4.754-2.752-3.8 3.588c-.27.255-.382.63-.298.987l1.732 7.316c.1.428.467.748.912.802a1.08 1.08 0 0 0 1.083-.565l9.05-17.278a1.02 1.02 0 0 0 .106-.204c.095-.242.036-.612-.072-.866-.134-.314-.703-.445-1.707-.395z"/></g><path d="M51.5 26h4v-4h-4v4zm-6 0h4v-4h-4v4zm0 6h4v-4h-4v4zm-6-6h4v-4h-4v4zm0 6h4v-4h-4v4zm17-16h-2v-2h-2v5h-2v-3h-6v-2h-2v5h-2v-3h-2a2 2 0 0 0-2 2v15c0 1.102.897 2 2 2h18c1.103 0 2-.898 2-2V18c0-1.103-.897-2-2-2z" class="I"/><g transform="translate(211.5 14)" class="I"><path d="M17.857 11.786c-.657 0-1.2-.528-1.2-1.18s.533-1.18 1.2-1.18 1.2.528 1.2 1.18-.533 1.18-1.2 1.18m-4.762 0c-.657 0-1.2-.528-1.2-1.18s.533-1.18 1.2-1.18 1.2.528 1.2 1.18-.533 1.18-1.2 1.18m-4.762 0c-.657 0-1.2-.528-1.2-1.18s.533-1.18 1.2-1.18 1.2.528 1.2 1.18-.533 1.18-1.2 1.18M13.095 0C6.53 0 1.2 4.76 1.2 10.607c0 2.045.644 3.998 1.873 5.7L0 21.214h13.095C19.66 21.214 25 16.455 25 10.607S19.66 0 13.095 0"/></g><use xlink:href="#T" x="58.5" y="-2" class="G"/><g transform="translate(168.5 16)" class="I"><path d="M10.023 17.822L1.417 9.476l5.056-4.902 3.304 3.204 5.292-5.645H2.2C.986 2.133 0 3.09 0 4.267v12.8C0 18.243.986 19.2 2.2 19.2h15.4c1.213 0 2.2-.957 2.2-2.133V7.393l-9.777 10.43z"/><path d="M9.947 14.73l-5.42-5.254L6.472 7.59l3.38 3.278L19.882.17l2.035 1.793z"/></g><g transform="translate(257.5 16)" class="I"><path d="M10.08 9.6c2.78 0 5.04-2.153 5.04-4.8S12.86 0 10.08 0 5.04 2.153 5.04 4.8s2.26 4.8 5.04 4.8"/><path d="M10.08 10.8C4.145 10.8 0 13.76 0 18v1.2h20.16V18c0-4.24-4.145-7.2-10.08-7.2"/></g></g></g></g><use xlink:href="#Y" class="S"/></g></g><g filter="url(#A)" transform="translate(240 124)"><g filter="url(#B)"><use xlink:href="#P" fill="#292929"/><use xlink:href="#Q" class="L"/><g transform="translate(13.5 13.5)"><mask id="b" class="E"><use xlink:href="#O" href="#C"/></mask><use fill="#fafafa" xlink:href="#O" href="#C"/><g class="K"><use xlink:href="#P" class="L U" href="#D"/><use xlink:href="#P" class="H" href="#D"/></g><g filter="url(#K)" class="K"><g transform="translate(-118.5 -6.5)"><path stroke-width=".68" d="M0 0h517v590H0z" class="J T"/><g class="Q"><path d="M278.015 246l3-51 3 51c.058 2.622-.965 3.996-3.07 4.123s-3.08-1.248-2.93-4.123z" stroke="#001d71" stroke-width="2.322" transform="matrix(.258819 .965926 -.965926 .258819 423.259833 -106.472456)" class="C"/><path d="M141.268 90.345h72.987c1.785 0 3.232 1.45 3.232 3.238v1.825c0 1.788-1.447 3.238-3.232 3.238h-72.987c-1.785 0-3.232-1.45-3.232-3.238v-1.825c0-1.788 1.447-3.238 3.232-3.238z"/></g><path d="M142.65 108.332h72.987c1.785 0 3.232 1.45 3.232 3.238v1.825c0 1.788-1.447 3.238-3.232 3.238H142.65c-1.785 0-3.232-1.45-3.232-3.238v-1.825c0-1.788 1.447-3.238 3.232-3.238z" fill="#f2f4f6"/><g transform="translate(169.665 136.864)"><mask id="c" class="E"><use xlink:href="#L"/></mask><use fill="#f5fff6" opacity=".22" xlink:href="#L" class="F"/><g mask="url(#c)"><g transform="translate(-34.631 -22.627)"><path d="M120.525 110.728v.63l115.867 9.32c-5.55 2.467-13.177 41.828-39.148 61.847-26.507 20.433-71.374 21.508-77.944 21.508-50.188 0-90.968-41.142-91.78-92.208l-.008-1.097h93.012z" class="T"/><path d="M0 119.17l120.562-8.643 118.842-27.56c33.756-13.862-25.83 66.23-25.83 28.005C213.574 60.7 196.958.812 146.05 0 98.238 14.193 67.623 26.763 54.205 37.712 35.167 53.245 17.1 80.398 0 119.17z" class="E"/></g></g></g></g></g><g filter="url(#M)" class="K"><g transform="translate(7.5 339.5)"><path stroke-width=".68" d="M0 .168h265v209.434H0z" class="E J"/><path d="M15.268 18.373h72.987a3.24 3.24 0 0 1 3.232 3.243v1.828a3.24 3.24 0 0 1-3.232 3.243H15.268a3.24 3.24 0 0 1-3.232-3.243v-1.828a3.24 3.24 0 0 1 3.232-3.243z" class="Q"/><path d="M16.65 36.388h72.987a3.24 3.24 0 0 1 3.232 3.243v1.828a3.24 3.24 0 0 1-3.232 3.243H16.65a3.24 3.24 0 0 1-3.232-3.243V39.63a3.24 3.24 0 0 1 3.232-3.243z" fill="#f2f4f6"/><g transform="translate(27.101 60.407)"><mask id="d" class="E"><use xlink:href="#N"/></mask><use fill="#0202d0" xlink:href="#N" class="F"/><g mask="url(#d)"><g transform="translate(-4.145 -2.771)"><path d="M52.76 0v52.657H.252C.252 23.725 23.17.467 52.138.005L52.76 0z" class="Q"/><use xlink:href="#Z" class="I"/><path d="M52.76 1.386v51.626l20.06 48.145c19.056-7.823 32.448-26.32 32.448-47.894 0-28.366-23.153-51.414-51.9-51.872l-.616-.005z" class="T"/></g></g></g><g transform="translate(141.787 60.407)"><mask id="e" class="E"><use xlink:href="#V" href="#N"/></mask><use fill="#0202d0" xlink:href="#V" class="F" href="#N"/><g mask="url(#e)"><g transform="translate(-2.764 -2.923)"><path d="M52.76.152V52.81H.252C.252 23.877 23.17.62 52.138.157l.622-.005z" class="P"/><use xlink:href="#Z" y="0.151" class="I"/><path d="M52.76 1.577v52.618L15.475 124.23C223.177 70.846 82.343 2.05 53.38 1.582l-.62-.005z" class="T"/></g></g></g><path d="M191.255 188h61.49c1.798 0 3.255 1.414 3.255 3.16v2.682c0 1.745-1.457 3.16-3.255 3.16h-61.49c-1.798 0-3.255-1.414-3.255-3.16v-2.682c0-1.745 1.457-3.16 3.255-3.16z" class="I"/></g></g><g class="Q K"><rect x="37.5" y="296.5" width="74" height="15" rx="4"/><rect x="170.5" y="296.5" width="74" height="15" rx="4"/></g><rect x="80.5" y="36.5" width="120" height="15" rx="7.5" class="G K"/><g filter="url(#H)" class="K F I"><g transform="translate(-36.5 230.5)"><use xlink:href="#W"/><use xlink:href="#X"/></g></g><g class="K"><g transform="translate(-408 -25.5)"><use xlink:href="#O" class="L U"/><use xlink:href="#O" class="E"/><rect x="115" y="53.5" width="120" height="15" rx="7.5" class="G"/><rect x="115" y="73" width="120" height="15" rx="7.5" class="O"/></g></g></g><use xlink:href="#Y" class="S"/></g></g></g></svg>