<svg xmlns="http://www.w3.org/2000/svg" xmlns:xlink="http://www.w3.org/1999/xlink" width="1714" height="1625" xmlns:v="https://vecta.io/nano"><defs><filter x="-3.4%" y="-1.4%" width="106.7%" height="102.7%" id="A"><feOffset dy="1" in="SourceAlpha"/><feGaussianBlur stdDeviation="2"/><feColorMatrix values="0 0 0 0 0 0 0 0 0 0.160784314 0 0 0 0 0.349019608 0 0 0 0.1 0" result="C"/><feMerge><feMergeNode in="C"/><feMergeNode in="SourceGraphic"/></feMerge></filter><filter x="-10.6%" y="-20.9%" width="121.1%" height="141.8%" id="B"><feOffset dy="21" in="SourceAlpha"/><feGaussianBlur stdDeviation="21.5"/><feColorMatrix values="0 0 0 0 0 0 0 0 0 0.164542109 0 0 0 0 0.362271488 0 0 0 0.1 0" result="C"/><feMerge><feMergeNode in="C"/><feMergeNode in="SourceGraphic"/></feMerge></filter><filter x="-3.7%" y="-7.6%" width="107.4%" height="115.3%" id="C"><feOffset dy="7" in="SourceAlpha"/><feGaussianBlur stdDeviation="7"/><feColorMatrix values="0 0 0 0 0 0 0 0 0 0.164542109 0 0 0 0 0.362271488 0 0 0 0.1 0" result="C"/><feMerge><feMergeNode in="C"/><feMergeNode in="SourceGraphic"/></feMerge></filter><path id="D" d="M0 .033h1097.115v530.18H0z"/><filter x="-13.2%" y="-12.4%" width="126.3%" height="124.8%" id="E"><feOffset dy="1" in="SourceAlpha"/><feGaussianBlur stdDeviation="1"/><feColorMatrix values="0 0 0 0 0 0 0 0 0 0 0 0 0 0 0 0 0 0 0.3 0" result="C"/><feMerge><feMergeNode in="C"/><feMergeNode in="SourceGraphic"/></feMerge></filter><path id="F" d="M0 17.977h35.944v-3.594H0z"/></defs><g transform="translate(9 30)" fill="none" fill-rule="evenodd"><g transform="translate(0 238)"><g filter="url(#A)"><g stroke="#f4f2ee" stroke-width="1.2" fill="#fff"><rect width="103" height="103" rx="3.6"/><rect y="113" width="103" height="103" rx="3.6"/><rect x="120" y="113" width="103" height="103" rx="3.6"/><rect y="225" width="103" height="103" rx="3.6"/><rect x="120" y="225" width="103" height="103" rx="3.6"/><rect y="338" width="103" height="103" rx="3.6"/><rect x="120" y="338" width="103" height="103" rx="3.6"/><rect y="451" width="103" height="103" rx="3.6"/><rect x="120" y="451" width="103" height="103" rx="3.6"/><rect y="613" width="103" height="103" rx="3.6"/><rect x="120" y="613" width="103" height="103" rx="3.6"/><rect y="738" width="103" height="103" rx="3.6"/><rect x="120" y="738" width="103" height="103" rx="3.6"/><rect x="238" y="113" width="103" height="103" rx="3.6"/><rect x="238" y="225" width="103" height="103" rx="3.6"/><rect x="238" y="338" width="103" height="103" rx="3.6"/><rect x="238" y="451" width="103" height="103" rx="3.6"/><rect x="238" y="613" width="103" height="103" rx="3.6"/><rect x="238" width="103" height="103" rx="3.6"/></g><g transform="translate(120)"><rect stroke="#f4f2ee" stroke-width="1.2" fill="#001c6c" width="103" height="103" rx="3.6"/><path d="M55.948 42.136v-9.364l9.364 9.364h-9.364zM39.093 66.482l5.618-7.49 3.745 3.745 7.49-9.364 5.618 13.11H39.093zm4.682-20.6c2.582 0 4.682 2.096 4.682 4.682s-2.1 4.682-4.682 4.682a4.68 4.68 0 1 1 0-9.364h0zM58.596 30.9H37.22a3.75 3.75 0 0 0-3.745 3.745v33.71A3.75 3.75 0 0 0 37.22 72.1H63.44a3.75 3.75 0 0 0 3.745-3.745V39.488L58.596 30.9z" fill="#fff"/></g><g fill="#0064ff"><path d="M272 31h35v6.333h-13.746V72h-7.57V37.333H272z"/><path d="M74 162H28v5h46z"/><g transform="translate(31 256)"><path d="M34.762 12.384H6.518V6.192h28.244v6.192zm0 10.32H21.726v-4.128h13.036v4.128zm0 6.192H21.726v-4.128h13.036v4.128zm0 6.192H21.726V30.96h13.036v4.128zM19.554 22.704H6.518v-4.128h13.036v4.128zm0 6.192H6.518v-4.128h13.036v4.128zm0 6.192H6.518V30.96h13.036v4.128zM2.173 0C.973 0 0 .925 0 2.064v37.152c0 1.14.973 2.064 2.173 2.064h36.935c1.2 0 2.173-.925 2.173-2.064V2.064C41.28.925 40.307 0 39.107 0H2.173z"/></g><path d="M182.662 296.654l-11.162-7.458-11.162 7.458c-.713.477-1.65.46-2.345-.05s-1-1.397-.763-2.225l3.768-13.22-9.397-9.418c-.586-.586-.763-1.47-.445-2.237a2.05 2.05 0 0 1 1.894-1.27h11.033l5.582-11.192c.695-1.39 2.974-1.39 3.67 0l5.582 11.192h11.033a2.05 2.05 0 0 1 1.894 1.27c.318.766.14 1.652-.445 2.237l-9.397 9.418 3.768 13.22c.238.828-.068 1.718-.763 2.225a2.04 2.04 0 0 1-1.207.394c-.396 0-.79-.115-1.138-.345z"/><g transform="translate(28 369)"><path d="M11.417 9.537L8.45 7.003c3.702-4.45 9.115-7.004 14.855-7.004 5.722 0 11.126 2.542 14.83 6.972L35.17 9.51c-2.964-3.544-7.29-5.58-11.866-5.58-4.59 0-8.925 2.044-11.887 5.606"/><path d="M29.52 14.944c-1.483-2-3.748-3.15-6.215-3.15a7.67 7.67 0 0 0-6.211 3.147l-3.106-2.363c2.2-2.954 5.672-4.716 9.317-4.716 3.702 0 7.1 1.722 9.32 4.722l-3.106 2.36z"/><path d="M7.764 37.35a11.83 11.83 0 0 1 .679-3.931H6.472C2.898 33.417 0 35.695 0 39.314v1.966h7.764v-3.93z"/><path d="M14.736 26.554c.002-2.732-2.172-4.932-4.853-4.932s-4.85 2.2-4.85 4.914c0 2.538 1.904 4.6 4.338 4.863 1.238-2.135 3.114-3.84 5.365-4.845"/><path d="M11.647 41.28H34.94v-3.93c0-3.766-2.62-6.906-6.11-7.674-1.572 1.113-3.478 1.777-5.538 1.777s-3.966-.664-5.538-1.777c-3.5.77-6.11 3.908-6.11 7.674v3.93z"/><path d="M29.116 21.623c0 3.257-2.607 5.897-5.823 5.897s-5.823-2.64-5.823-5.897 2.607-5.897 5.823-5.897 5.823 2.64 5.823 5.897"/><path d="M38.496 21.854c-2.656 0-4.8 2.178-4.8 4.865 0 .068.017.132.02.2 2.08 1.016 3.807 2.64 4.966 4.647 2.576-.095 4.64-2.22 4.64-4.848 0-2.688-2.156-4.865-4.814-4.865"/><path d="M40.746 33.995h-2.248a9.14 9.14 0 0 1 .774 3.642v3.642h8.85v-1.82c0-3.353-3.303-5.464-7.377-5.464"/></g><g transform="translate(269 256)"><path d="M33.024 24.768c-2.477 0-4.677 1.12-6.192 2.852l-10.508-5.255a8.2 8.2 0 0 0 .188-1.726 8.2 8.2 0 0 0-.188-1.726l10.508-5.255c1.515 1.734 3.715 2.852 6.192 2.852 4.553 0 8.256-3.703 8.256-8.256S37.577 0 33.024 0s-8.256 3.703-8.256 8.256a8.2 8.2 0 0 0 .188 1.726l-10.508 5.255c-1.515-1.734-3.715-2.852-6.192-2.852C3.703 12.384 0 16.087 0 20.64s3.703 8.256 8.256 8.256c2.477 0 4.677-1.12 6.192-2.852l10.508 5.255a8.2 8.2 0 0 0-.188 1.726c0 4.553 3.703 8.256 8.256 8.256s8.256-3.703 8.256-8.256-3.703-8.256-8.256-8.256"/></g><path d="M21.19 644c-.658 0-1.19.535-1.19 1.195v36.65c0 1.74 1.366 3.154 3.05 3.154h54.9c1.687 0 3.05-1.413 3.05-3.154v-36.65A1.19 1.19 0 0 0 79.809 644H21.19z"/><path d="M168.45 644v41h-24.4c-1.684 0-3.05-1.413-3.05-3.154h0v-36.65c0-.66.536-1.195 1.197-1.195h26.253zm32.353 0c.66 0 1.197.535 1.197 1.195h0v36.65c0 1.74-1.366 3.154-3.05 3.154h0-24.4v-41z"/><path d="M299.95 644v41h-18.9v-41h18.9zm-25.2 0v41h-12.6c-1.74 0-3.15-1.413-3.15-3.154h0v-36.65c0-.66.542-1.195 1.2-1.195h14.54zm46.04 0c.668 0 1.2.535 1.2 1.195h0v36.65c0 1.74-1.41 3.154-3.15 3.154h0-12.6v-41z"/><path d="M36.75 769v41h-12.6c-1.74 0-3.15-1.413-3.15-3.154h0v-36.65c0-.66.542-1.195 1.2-1.195h14.54zm46.047 0c.67 0 1.203.535 1.203 1.195h0v36.65c0 1.74-1.41 3.154-3.15 3.154h0-37.8v-41z"/><path d="M178.8 769v41h-34.65c-1.74 0-3.15-1.413-3.15-3.154h0v-36.65c0-.66.534-1.195 1.194-1.195H178.8zm24.003 0c.65 0 1.197.535 1.197 1.195h0v36.65c0 1.74-1.41 3.154-3.15 3.154h0-15.75v-41z"/><g transform="translate(31 31)"><path d="M0 4.368h43.308V.007H0z"/><path d="M0 13.1h43.308V8.73H0z"/><path d="M0 21.813h43.308v-4.36H0z"/><path d="M0 30.535h43.308v-4.36H0z"/><path d="M0 39.258h30.316v-4.36H0z"/></g><g transform="translate(156 143)"><path d="M27.147 24.808l-8.632-1.732v-8.63c0-1.137-.922-2.064-2.057-2.064h-4.114c-1.136 0-2.057.927-2.057 2.064v10.32H6.172c-.714 0-1.376.372-1.75.98a2.07 2.07 0 0 0-.091 2.008l6.17 12.384c.35.7 1.06 1.14 1.84 1.14h14.4a2.06 2.06 0 0 0 2.057-2.064V26.83c0-.982-.693-1.83-1.654-2.023"/><path d="M6.17 16.512H0v-4.128h6.17z"/><path d="M7.127 10.07L2.764 5.692l2.91-2.92 4.363 4.378z"/><path d="M12.343 0h4.114v6.192h-4.114z"/><path d="M18.763 7.15l4.365-4.378 2.91 2.918-4.365 4.38z"/><path d="M22.63 12.384h6.17v4.128h-6.17z"/></g><path d="M298.317 167.428h7.818v-7.8h-7.818v7.8zm-11.727 0h7.818v-7.8h-7.818v7.8zm0 11.714h7.818v-7.8h-7.818v7.8zm-11.727-11.714h7.818v-7.8h-7.818v7.8zm0 11.714h7.818v-7.8h-7.818v7.8zm33.227-31.237h-3.91V144h-3.91v9.762h-3.91v-5.857h-11.727V144h-3.91v9.762h-3.91v-5.857h-3.91A3.91 3.91 0 0 0 269 151.81v29.286c0 2.15 1.753 3.905 3.91 3.905h35.182c2.155 0 3.91-1.754 3.91-3.905V151.8a3.91 3.91 0 0 0-3.909-3.905z"/><g transform="translate(146 369)"><path d="M39.168 14.57h-9.792V12.14h9.792v2.428zm4.896 7.285H29.376v-2.428h14.688v2.428zm0 7.285H29.376V26.71h14.688v2.428zm-24.48-14.57H9.792V12.14h9.792v2.428zm0 7.285h-14.7v-2.428h14.7v2.428zm0 7.285h-14.7V26.71h14.7v2.428zM46.512 0H29.376c-.65 0-1.27.255-1.73.71L24.48 3.85 21.315.71c-.46-.457-1.082-.71-1.73-.71H2.448A2.44 2.44 0 0 0 0 2.428v31.567a2.44 2.44 0 0 0 2.448 2.428H18.57l4.18 4.145a2.45 2.45 0 0 0 3.461 0l4.18-4.145h16.123a2.44 2.44 0 0 0 2.448-2.428V2.428A2.44 2.44 0 0 0 46.512 0h0z"/></g><g transform="translate(269 369)"><path d="M4.128 10.32h33.024v6.192H4.128V10.32zm33.024-4.128h-4.128V0h-4.128v6.192H12.384V0H8.256v6.192H4.128C1.85 6.192 0 8.045 0 10.32v26.832c0 2.277 1.85 4.128 4.128 4.128h33.024c2.277 0 4.128-1.85 4.128-4.128V10.32c0-2.275-1.85-4.128-4.128-4.128h0z"/></g><path d="M175.387 498.595l1.943 5.857-5.83-3.905-5.83 3.905 1.943-5.857-3.887-3.905h5.83l1.943-5.857 1.943 5.857h5.83l-3.887 3.905zm-3.018 16.802a1.93 1.93 0 0 0-1.737 0l-4.413 2.216.884-5.777c1.263.882 2.78 1.4 4.398 1.402h.002c1.617 0 3.133-.515 4.396-1.398l.884 5.773-4.413-2.216zm12.57-17.78c1.386-2.382 1.432-5.353.023-7.807-1.374-2.392-3.945-3.88-6.7-3.88h-.03c-1.362-2.4-3.9-3.93-6.72-3.93s-5.36 1.53-6.72 3.932h-.03a7.76 7.76 0 0 0-6.716 3.877c-1.41 2.454-1.36 5.426.027 7.81-1.388 2.388-1.436 5.36-.027 7.81a7.76 7.76 0 0 0 5.538 3.782l-1.766 11.54c-.11.722.188 1.445.775 1.874s1.366.496 2.013.17l6.904-3.47 6.904 3.47c.274.137.57.205.87.205.404 0 .806-.127 1.145-.375.587-.43.886-1.152.775-1.874l-1.766-11.54c2.3-.357 4.36-1.734 5.534-3.782 1.413-2.452 1.364-5.424-.023-7.81h0z"/><path d="M40.842 491.897v9.94c0 6.222 4.772 11.266 10.658 11.266s10.658-5.044 10.658-11.266l-.001-9.94H65V502.5c0 6.696-4.926 12.248-11.37 13.265v4.407h4.706a2.4 2.4 0 0 1 2.4 2.4V523H42.263v-.428a2.4 2.4 0 0 1 2.4-2.4h4.705l.001-4.407C42.926 514.748 38 509.196 38 502.5v-10.603h2.842zm18.474 1.414v9.2c0 4.294-3.5 7.776-7.816 7.776s-7.816-3.48-7.816-7.776v-9.2h15.632zM51.5 482c4.317 0 7.816 3.48 7.816 7.776v2.12H43.684v-2.12c0-4.294 3.5-7.776 7.816-7.776z" fill-rule="nonzero"/><g transform="translate(269 482)"><path d="M4.587 4.587h4.587V5.93L6.88 8.224 4.587 5.93V4.587zM36.693 5.93L34.4 8.224 32.107 5.93V4.587h4.587V5.93zM25.227 8.224L22.933 5.93V4.587h4.587V5.93l-2.293 2.293zm-9.173 0L13.76 5.93V4.587h4.587V5.93l-2.293 2.293zM4.587 20.612h4.587v-8.196l2.293-2.293 2.965 2.965a2.29 2.29 0 0 0 3.243 0l2.965-2.965 2.965 2.965a2.29 2.29 0 0 0 3.243 0l2.965-2.965 2.293 2.293v8.196h4.587v-8.196L40.608 8.5c.43-.43.672-1.01.672-1.62V2.293C41.28 1.027 40.253 0 38.987 0H2.293C1.027 0 0 1.027 0 2.293V6.88c0 .6.243 1.193.672 1.62l3.915 3.915v8.196z"/><path d="M0 22.933v4.587h4.587v11.456c0 1.266 1.027 2.293 2.293 2.293H34.4c1.266 0 2.293-1.027 2.293-2.293V27.52h4.587v-4.587H0z"/></g></g></g><g transform="translate(428 666)"><g filter="url(#B)" transform="translate(.171)"><path stroke="#f4f2ee" stroke-width="3.049" fill="#fff" d="M0 0h1182.927v597.56H0z"/><g transform="translate(51.829 36.585)" fill="#000"><g transform="translate(674.383)"><path d="M34.146.005H1.797V3.6h32.35z"/><path d="M30.552 7.194H5.392v3.594h25.16z"/><use xlink:href="#F"/><path d="M5.392 25.166h25.16v-3.594H5.392z"/><path d="M1.797 32.355h32.35V28.76H1.797z"/></g><g transform="translate(823.759)"><path d="M0 3.6h35.944V.005H0z"/><path d="M0 10.788h35.944V7.194H0z"/><use xlink:href="#F"/><use xlink:href="#F" y="7.189"/><path d="M0 32.355h25.16V28.76H0z"/></g><g transform="translate(949.695)"><path d="M2.807 23.633L6.1 20.34l-.548-.548c-.2-.2-.228-.43-.228-.55s.03-.35.228-.548l13.17-13.17c.197-.197.428-.227.548-.227s.352.03.55.227l.55.55L23.66 2.78l-.548-.548C21.058.178 17.48.18 15.43 2.23L2.26 15.4C1.232 16.425.667 17.8.667 19.24a5.4 5.4 0 0 0 1.592 3.843l.548.55z"/><path d="M31.342 10.462l-3.292 3.292.55.55a.78.78 0 0 1 0 1.096l-13.17 13.17a.77.77 0 0 1-1.097 0l-.55-.548-3.292 3.294.55.548c1.026 1.026 2.4 1.59 3.84 1.59a5.4 5.4 0 0 0 3.841-1.591l13.17-13.17a5.44 5.44 0 0 0 0-7.681l-.55-.55z"/><path d="M20.916 16.5l-3.292-3.294L28.598 2.23l3.292 3.294z"/><path d="M5.55 31.864L2.26 28.572l10.975-10.975 3.292 3.292z"/></g><g transform="translate(599.695)"><path d="M32.35.005H0V3.6h32.35z"/><path d="M25.16 7.194H0v3.594h25.16z"/><use xlink:href="#F"/><path d="M25.16 21.572H0v3.594h25.16z"/><path d="M0 32.355h32.35V28.76H0z"/></g><g transform="translate(749.071)"><path d="M3.594 3.6h32.35V.005H3.594z"/><path d="M10.783 10.788h25.16V7.194h-25.16z"/><use xlink:href="#F"/><path d="M10.783 25.166h25.16v-3.594h-25.16z"/><path d="M3.594 32.355h32.35V28.76H3.594z"/></g><path d="M7.684 13.82h7.782c1.37 0 2.496-.32 3.377-.956s1.32-1.674 1.32-3.11c0-.797-.147-1.45-.44-1.96s-.685-.91-1.175-1.196-1.052-.486-1.69-.598a11.46 11.46 0 0 0-1.982-.167H7.684v7.987zM0 0h16.445c1.664 0 3.18.143 4.552.43s2.545.757 3.524 1.41 1.737 1.522 2.276 2.606.808 2.423.808 4.017c0 1.722-.4 3.156-1.2 4.304s-1.982 2.088-3.548 2.822c2.154.606 3.76 1.666 4.82 3.18s1.59 3.34 1.59 5.476c0 1.722-.343 3.212-1.028 4.472a8.78 8.78 0 0 1-2.765 3.085c-1.158.797-2.48 1.387-3.964 1.77s-3 .574-4.576.574H0V0zm7.684 28.312h8.223c.75 0 1.468-.072 2.154-.215s1.29-.383 1.81-.717a3.64 3.64 0 0 0 1.248-1.363c.3-.574.465-1.307.465-2.2 0-1.754-.506-3.005-1.517-3.754s-2.35-1.124-4.013-1.124h-8.37v9.374z"/><path d="M152.598 36.28l4.268 4.268 4.268-4.268h3.2v6.402H130.19V36.28h22.41zM150.567 0l13.77 34.146h-6.71l-3.355-9.04h-14.27l-3.355 9.04h-6.46L143.908 0h6.66zm-3.2 5.69h-.157l-5.64 15.176h11.382L147.367 5.69z"/><path d="M67.534 34.146v-4.878h6.114l5.204-24.4h-6.44V0h19.512v4.878H84.95l-5.204 24.4h7.3v4.878H67.534z"/><g transform="translate(471.497)"><path d="M5.762 0A5.77 5.77 0 0 0 0 5.762a5.77 5.77 0 0 0 5.762 5.762 5.77 5.77 0 0 0 5.762-5.762A5.77 5.77 0 0 0 5.762 0"/><path d="M5.762 13.445A5.77 5.77 0 0 0 0 19.207a5.77 5.77 0 0 0 5.762 5.762 5.77 5.77 0 0 0 5.762-5.762 5.77 5.77 0 0 0-5.762-5.762"/><path d="M5.762 26.9A5.77 5.77 0 0 0 0 32.652a5.77 5.77 0 0 0 5.762 5.762 5.77 5.77 0 0 0 5.762-5.762 5.77 5.77 0 0 0-5.762-5.762"/><path d="M15.366 7.683h23.05V3.84h-23.05z"/><path d="M15.366 21.128h23.05v-3.84h-23.05z"/><path d="M15.366 34.573h23.05v-3.84h-23.05z"/></g><g transform="translate(394.817)"><path d="M9.604 7.683h26.9V3.84h-26.9z"/><path d="M9.604 21.128h26.9v-3.84h-26.9z"/><path d="M9.604 34.573h26.9v-3.84h-26.9z"/><path d="M2.536 3.6v6.917h2.1V1.053c0-.424-.257-.81-.65-.972S3.143.008 2.843.3L.001 3.152 1.485 4.64l1.05-1.05z"/><path d="M2.88 13.445c-1.588 0-2.88 1.293-2.88 2.88v.96h1.92v-.96a.96.96 0 0 1 .96-.96c.53 0 .962.43.962.96 0 .94-1.85 3.37-3.563 5.082-.273.275-.355.688-.207 1.047a.96.96 0 0 0 .887.594h4.802v-1.92H3.146c1.197-1.4 2.616-3.384 2.616-4.802 0-1.588-1.29-2.88-2.88-2.88"/><path d="M2.88 27.74L0 27.742l.002 1.92 2.88-.002a.96.96 0 0 1 .96.96.96.96 0 0 1-.96.958h0-.96v1.92h.96V33.5c.528 0 .96.432.96.96a.96.96 0 0 1-.96.96L0 35.423l.002 1.92 2.88-.002c1.588 0 2.88-1.293 2.88-2.88a2.87 2.87 0 0 0-.736-1.921 2.86 2.86 0 0 0 .736-1.919c0-1.588-1.293-2.88-2.88-2.88"/></g></g><g fill="#f4f2ee"><rect x="51.829" y="378.049" width="981.707" height="33.537" rx="16.768"/><rect x="51.829" y="326.22" width="1015.244" height="33.537" rx="16.768"/><rect x="51.829" y="429.878" width="1015.244" height="33.537" rx="16.768"/><rect x="51.829" y="481.707" width="338.415" height="33.537" rx="16.768"/></g><rect fill="#0064ff" x="408.537" y="481.707" width="182.927" height="33.537" rx="16.768"/><rect fill="#f4f2ee" x="51.829" y="274.39" width="1042.683" height="33.537" rx="16.768"/><g transform="translate(270.293 275.39)"/><path stroke="#f4f2ee" stroke-width="3.21" stroke-linecap="square" stroke-linejoin="round" d="M2.404 112.805h1178.118"/></g><rect fill="#f4f2ee" x="52" y="146.341" width="1042.683" height="64.024" rx="32.012"/></g><path d="M445 268h1152c6.627 0 12 5.373 12 12v342c0 6.627-5.373 12-12 12H445c-6.627 0-12-5.373-12-12V280c0-6.627 5.373-12 12-12z" stroke="#0d62fe" stroke-width="2.322" fill-opacity=".618" fill="#fff" stroke-linecap="round" stroke-linejoin="round" stroke-dasharray="11"/><path d="M1032.752 420h-32.974c-3.186 0-5.778 2.57-5.778 5.727v51.545c0 3.16 2.59 5.727 5.778 5.727h40.444c3.186 0 5.778-2.57 5.778-5.727v-44.14L1032.752 420z" fill="#0064ff"/><path d="M1029 437v-14l14 14zm-27 37l8.75-11.43 5.833 5.714L1028.25 454l8.75 20zm8-31c3.86 0 7 3.133 7 7s-3.14 7-7 7c-3.87 0-7-3.13-7-7a7 7 0 0 1 7-7h0z" fill="#fff"/><rect fill="#00c15a" x="1434" y="166" width="175" height="70" rx="12"/><path d="M1544.75 180.024l-44.823 10.1c-1.017.224-1.78 1.04-1.908 2.033s.41 1.955 1.345 2.4l12.73 6.183 1.302 12.406c.103.997.85 1.824 1.862 2.068s2.083-.142 2.67-.967l.386-.377-2.575-9.468c-.11-1.233.53-2.417 1.645-3.05l11.06-6.265-8.84 8.168a2.32 2.32 0 0 0-.694 2.247l4.03 16.656c.233.974 1.086 1.703 2.123 1.825s2.044-.394 2.52-1.287l21.056-39.337c.1-.146.183-.3.247-.464.22-.55.084-1.393-.168-1.972-.31-.714-1.635-1.014-3.972-.9z" fill="#fff"/></g><g transform="translate(300)"><g filter="url(#C)"><g transform="translate(.5)"><mask id="G" fill="#fff"><use xlink:href="#D"/></mask><use fill="#0d62fe" xlink:href="#D"/><g opacity=".92" mask="url(#G)"><g transform="translate(-1370.5)"><g transform="translate(1233)"><path d="M1234.734 619.17V.698H617.566l.06 7.275c5.422 335.085 275.476 605.705 609.86 611.138l7.25.06z" fill="#2ac2ff"/><path d="M1234.734 633.3v618.473H617.566l.06-7.275c5.422-335.085 275.476-605.705 609.86-611.138l7.25-.06z" fill="#00173a"/><path d="M617.56 1251.777V633.304H.392l.06 7.275c5.422 335.085 275.476 605.705 609.86 611.138l7.25.06z" fill="#ff9d00"/><ellipse fill="#005b11" cx="308.982" cy="309.933" rx="308.587" ry="309.234"/><ellipse fill="#ff0034" cx="308.982" cy="1563.193" rx="308.587" ry="309.234"/></g><path d="M634 622V2h633l-.06 7.3c-5.56 335.913-282.542 607.203-625.502 612.65L634 622z" fill="#00173a"/><ellipse fill="#ff7800" transform="matrix(1 0 0 -1 0 3126)" cx="937.5" cy="1563" rx="304.5" ry="310"/></g></g><path d="M-185.246 257.306c64.008 39.5 103.258 134.188 117.75 284.06l.432 4.558-355.2 6.702c.654-72.37 8.074-129.816 22.26-172.34 7.248-21.725 31.667-60.416 73.258-116.074l.8-1.067c54.45 2.883 101.513.475 140.53-5.8l.168-.03z" fill="#ff9d00" mask="url(#G)"/></g></g><g filter="url(#E)" transform="translate(957.75 443.5)" fill-rule="nonzero"><path fill="#231d1e" d="M0 22.75h3.25V19.5h6.5v3.25H13V3.25h3.25V0h6.5v3.25H26V13h13v3.25h6.5v3.25h3.25v16.25H45.5v6.5h-3.25V52h-6.5v-3.25H32.5V52H16.25v-6.5H13v-3.25H9.75V39H6.5v-6.5H3.25v-3.25H0z"/><path fill="#fff" d="M3.25 22.75h6.5V26H13v3.25h3.25v-26h6.5v19.5H26v-6.5h6.5v6.5h3.25v-6.5H39v6.5h3.25V19.5h3.25v16.25h-3.25v6.5H39v6.5h-3.25V45.5H32.5v3.25h-13V45.5h-3.25v-3.25H13V39H9.75v-6.5H6.5v-3.25H3.25z"/><g fill="#231d1e"><path d="M22.75 29.25H26v13h-3.25z"/><path d="M29.25 29.25h3.25v13h-3.25z"/><path d="M35.75 29.25H39v13h-3.25z"/></g></g></g></g></svg>