<svg xmlns="http://www.w3.org/2000/svg" xmlns:xlink="http://www.w3.org/1999/xlink" width="1241" height="1041" xmlns:v="https://vecta.io/nano"><style><![CDATA[.B{fill:#00173a}.C{fill:#fff}.D{fill:#fb3640}.E{opacity:.92}.F{fill:#001c6c}.G{fill:#0d62fe}.H{fill:#ff9d00}.I{fill:#ff0034}.J{fill:#0064ff}.K{mask:url(#c)}.L{fill:#ff8100}.M{mask:url(#m)}.N{fill:#f4f2ee}.O{stroke-linejoin:round}.P{fill-rule:nonzero}]]></style><defs><filter x="-4.9%" y="-4.7%" width="109.8%" height="109.5%" id="A"><feOffset dy="8" in="SourceAlpha"/><feGaussianBlur stdDeviation="8"/><feColorMatrix values="0 0 0 0 0 0 0 0 0 0.164542109 0 0 0 0 0.362271488 0 0 0 0.1 0" result="C"/><feMerge><feMergeNode in="C"/><feMergeNode in="SourceGraphic"/></feMerge></filter><path id="B" d="M0 0h941.337v926H0z"/><path id="C" d="M0 0h942v354.046H0z"/><path id="D" d="M0 0h733v324H0z"/><filter x="-3.8%" y="-6.2%" width="107.6%" height="117.3%" id="E"><feOffset dy="8" in="SourceAlpha"/><feGaussianBlur stdDeviation="8"/><feColorMatrix values="0 0 0 0 0 0 0 0 0 0.160784314 0 0 0 0 0.349019608 0 0 0 0.1 0"/></filter><path id="F" d="M0 0h307.075v296H0z"/><path id="G" d="M.925.407h227v219h-227z"/><path id="H" d="M0 0h97v93H0z"/><filter x="-51.8%" y="-27.9%" width="203.6%" height="155.8%" id="I"><feOffset dy="24" in="SourceAlpha"/><feGaussianBlur stdDeviation="16"/><feColorMatrix values="0 0 0 0 0 0 0 0 0 0.160784314 0 0 0 0 0.349019608 0 0 0 0.1 0" result="C"/><feMerge><feMergeNode in="C"/><feMergeNode in="SourceGraphic"/></feMerge></filter><filter x="-22.5%" y="-12.1%" width="145.0%" height="124.2%" id="J"><feOffset dy="12" in="SourceAlpha"/><feGaussianBlur stdDeviation="12"/><feColorMatrix values="0 0 0 0 0 0 0 0 0 0.164542109 0 0 0 0 0.362271488 0 0 0 0.1 0" result="C"/><feMerge><feMergeNode in="C"/><feMergeNode in="SourceGraphic"/></feMerge></filter><path d="M24.927 0h230.1c13.244 0 23.985 10.73 24 23.973l.547 495.248c.015 13.255-10.72 24.012-23.973 24.026h-.027-230.1c-13.244 0-23.985-10.73-24-23.973L.927 24.027C.912 10.772 11.645.015 24.9 0h.027z" id="K"/><path d="M25.027 0h230.1c13.244 0 23.985 10.73 24 23.973l.546 484.5c.015 13.255-10.718 24.012-23.973 24.027h-.027-230.1c-13.244 0-23.985-10.73-24-23.973l-.546-484.5C1.012 10.772 11.745.015 25 0h.027z" id="L"/><path id="M" d="M0 0h280v151H0z"/><path id="N" d="M0 0h79v76H0z"/><path d="M25.5 553.5H255c17.397 0 31.5-16.74 31.5-37.4v-35.6H-6v35.6c0 20.65 14.103 37.4 31.5 37.4z" id="O"/><filter x="-7.2%" y="-20.5%" width="114.4%" height="157.5%" id="P"><feOffset dy="6" in="SourceAlpha"/><feGaussianBlur stdDeviation="6"/><feColorMatrix values="0 0 0 0 0 0 0 0 0 0.164542109 0 0 0 0 0.362271488 0 0 0 0.1 0"/></filter><path id="Q" d="M202.77 94.937V0h-94.542l.01 1.117c.83 51.436 42.2 92.977 93.423 93.81l1.1.01z"/><path id="R" d="M189.107 98.68v94.937H94.564l.01-1.117c.83-51.436 42.2-92.977 93.423-93.81l1.1-.01z"/><path id="S" d="M94.563 193.618V98.68H.02l.01 1.117c.83 51.436 42.2 92.977 93.423 93.81l1.1.01z"/><path id="T" d="M196.34 1.927V96.68H98.813l.01-1.114c.857-51.336 43.53-92.796 96.37-93.628l1.146-.01z"/><path id="U" d="M98.17 96.68V1.927h97.526l-.01 1.114c-.857 51.336-43.53 92.796-96.37 93.628l-1.146.01z"/><path id="V" d="M97.526 99.248V194H0l.01-1.114C.866 141.55 43.54 100.1 96.38 99.258l1.146-.01z"/><path id="W" d="M165.143 77.583V0H88.144l.007.913c.676 42.034 34.37 75.98 76.087 76.663l.904.008z"/><path id="X" d="M154.015 80.642v77.583H77.016l.007-.913c.676-42.034 34.37-75.98 76.087-76.663l.904-.008z"/><path id="Y" d="M77.016 158.225V80.643H.017l.007.913c.676 42.034 34.37 75.98 76.087 76.663l.904.008z"/><path id="Z" d="M159.905 1.575v77.43H80.477l.008-.9c.698-41.952 35.453-75.833 78.487-76.513l.933-.008z"/><path id="a" d="M79.953 79.006V1.575h79.428l-.008.9C158.675 44.437 123.92 78.32 80.886 79l-.933.008z"/><path id="b" d="M79.428 81.106v77.43H0l.008-.9c.698-41.952 35.453-75.833 78.487-76.513l.933-.008z"/></defs><g transform="translate(34 34)" fill="none" fill-rule="evenodd"><g filter="url(#A)"><rect fill="#e6e7e7" width="942" height="971" rx="14"/><g stroke="#848484" class="O"><ellipse cx="30.903" cy="24.498" rx="11.722" ry="11.717"/><ellipse cx="62.871" cy="24.498" rx="11.722" ry="11.717"/><ellipse cx="94.839" cy="24.498" rx="11.722" ry="11.717"/></g><g transform="translate(0 46.866)"><mask id="c" class="C"><use xlink:href="#B"/></mask><use xlink:href="#B" class="C"/><g class="K"><g transform="translate(0 10.651)"><g transform="translate(0 44.482)"><mask id="d" class="C"><use xlink:href="#C"/></mask><use xlink:href="#C" class="G"/><g mask="url(#d)" class="E"><g transform="translate(-1172.172 -8.521)"><g transform="translate(876.842)"><path d="M1398.926 551.234V0H851.58l.053 6.484c4.808 298.655 244.31 539.854 540.866 544.696l6.43.053z" class="D"/><path d="M1319.82 572.97v551.234H772.474l.053-6.484c4.808-298.655 244.31-539.854 540.866-544.696l6.43-.053z" class="B"/><path d="M772.47 1124.207V572.973H225.122l.053 6.484c4.808 298.655 244.31 539.854 540.866 544.696l6.43.053z" class="H"/><ellipse cx="274.006" cy="399.136" rx="273.676" ry="275.615" class="F"/></g></g></g></g><g class="D"><ellipse cx="205.663" cy="13.847" rx="13.853" ry="13.847"/><rect x="641.498" y="2.482" width="98.036" height="21.912" rx="3.5"/></g><g class="C"><rect x="421.982" y="314.482" width="87.38" height="31.954" rx="3.5"/><path d="M244.477 232.482c2.85-7.813 5.575-16.013 8.18-24.6l7.813-25.82 7.935 25.82a559.52 559.52 0 0 0 8.301 24.599h17.457c4.313-13.103 8.322-26.94 12.025-41.507s6.98-28.933 9.827-43.094h0-19.777l-2.625 14.955-2.87 15.565a429.95 429.95 0 0 1-3.113 15.138l-3.235 13.55c-1.302-3.825-2.645-7.976-4.03-12.452l-4.1-13.43-3.784-13.002-3.235-11.292h-16.237l-2.99 11.11-3.6 12.94-4.03 13.43c-1.384 4.476-2.808 8.708-4.273 12.696-1.14-4.15-2.258-8.668-3.357-13.55l-3.235-15.138-3.052-15.565-2.686-14.955h-20.632c2.85 14.16 6.124 28.526 9.827 43.094s7.71 28.404 12.025 41.507h17.457zm113.412 1.71c2.28 0 4.558-.122 6.836-.366s4.415-.55 6.41-.916 3.805-.794 5.433-1.282 2.93-.977 3.907-1.465h0l-2.442-14.772c-2.035.895-4.66 1.648-7.874 2.258s-6.49.916-9.827.916c-5.21 0-9.36-1.1-12.452-3.296s-4.843-5.168-5.25-8.912h41.263l.244-3.357c.08-1.26.122-2.42.122-3.48 0-10.824-2.645-19.024-7.935-24.6s-12.493-8.362-21.608-8.362c-3.907 0-7.71.732-11.414 2.197s-6.98 3.622-9.827 6.47-5.148 6.41-6.898 10.682-2.625 9.258-2.625 14.955c0 4.72.67 9.115 2.014 13.185s3.418 7.59 6.226 10.56 6.348 5.3 10.62 7.02 9.298 2.564 15.077 2.564zm8.8-40.286h-24.05c.244-1.546.63-3.072 1.16-4.578s1.282-2.828 2.258-3.968 2.197-2.055 3.662-2.747 3.215-1.038 5.25-1.038c2.116 0 3.886.366 5.3 1.1s2.604 1.668 3.54 2.808 1.628 2.442 2.075 3.907.712 2.97.794 4.517h0zm57.256 39.798l2.564-15.016c-2.197-.163-3.947-.53-5.25-1.1s-2.3-1.302-2.99-2.197-1.16-1.994-1.404-3.296-.366-2.767-.366-4.395h0v-69.952l-18.2 2.93v70.684c0 3.418.346 6.49 1.038 9.217s1.994 5.046 3.907 6.96 4.517 3.398 7.813 4.456 7.59 1.628 12.88 1.71h0zm43.338.488c3.825 0 7.325-.326 10.5-.977s5.82-1.424 7.935-2.32h0l-2.564-14.894c-2.116.895-4.436 1.546-6.96 1.953s-4.883.6-7.08.6c-6.185 0-10.52-1.587-13.002-4.76s-3.723-7.65-3.723-13.43c0-5.453 1.323-9.848 3.968-13.185s6.653-5.005 12.025-5.005c2.523 0 4.802.244 6.836.732s3.907 1.058 5.616 1.71h0l3.784-14.528c-2.686-1.14-5.453-2.014-8.3-2.625s-5.982-.916-9.4-.916c-5.21 0-9.848.895-13.917 2.686s-7.528 4.212-10.377 7.264-5.026 6.633-6.53 10.743-2.258 8.485-2.258 13.124c0 4.802.63 9.258 1.892 13.368s3.255 7.67 5.982 10.682 6.206 5.392 10.438 7.142 9.278 2.625 15.138 2.625zm59.21 0c4.802 0 9.136-.814 13.002-2.442s7.182-3.927 9.95-6.898 4.883-6.552 6.348-10.743 2.197-8.8 2.197-13.856-.773-9.644-2.32-13.795-3.703-7.69-6.47-10.62-6.084-5.21-9.95-6.836-8.118-2.442-12.757-2.442c-4.558 0-8.77.814-12.635 2.442s-7.203 3.907-10.01 6.836-5.005 6.47-6.592 10.62-2.38 8.75-2.38 13.795.773 9.665 2.32 13.856 3.703 7.772 6.47 10.743 6.084 5.27 9.95 6.898 8.16 2.442 12.88 2.442zm0-15.626c-4.15 0-7.365-1.648-9.644-4.944s-3.418-7.752-3.418-13.368 1.14-10.03 3.418-13.246 5.494-4.822 9.644-4.822 7.345 1.607 9.583 4.822 3.357 7.63 3.357 13.246-1.12 10.072-3.357 13.368-5.433 4.944-9.583 4.944zm63.726 13.917v-49.564a84.51 84.51 0 0 1 3.54-.427c1.22-.122 2.4-.183 3.54-.183 3.662 0 6.246 1.22 7.752 3.662s2.258 6.592 2.258 12.452h0v34.06h18.2v-35.037c0-2.36-.08-4.578-.244-6.653s-.53-4.05-1.1-5.92c1.14-.732 2.584-1.343 4.334-1.83s3.113-.732 4.1-.732c3.662 0 6.246 1.22 7.752 3.662s2.258 6.592 2.258 12.452h0v34.06h18.2v-36.258c0-4.395-.366-8.383-1.1-11.964s-2.075-6.674-4.03-9.278-4.578-4.62-7.874-6.043-7.508-2.136-12.635-2.136c-2.85 0-5.962.53-9.34 1.587s-6.37 2.523-8.973 4.395c-1.872-1.628-4.252-3.032-7.142-4.212s-6.653-1.77-11.292-1.77a86.72 86.72 0 0 0-7.203.305c-2.442.203-4.822.488-7.142.855s-4.517.773-6.592 1.22a126.22 126.22 0 0 0-5.433 1.282h0v62.017h18.2zm117.93 1.71c2.28 0 4.558-.122 6.836-.366s4.415-.55 6.41-.916 3.805-.794 5.433-1.282 2.93-.977 3.907-1.465h0l-2.442-14.772c-2.035.895-4.66 1.648-7.874 2.258s-6.49.916-9.827.916c-5.21 0-9.36-1.1-12.452-3.296s-4.843-5.168-5.25-8.912h41.263l.244-3.357c.08-1.26.122-2.42.122-3.48 0-10.824-2.645-19.024-7.935-24.6s-12.493-8.362-21.608-8.362c-3.907 0-7.71.732-11.414 2.197s-6.98 3.622-9.827 6.47-5.148 6.41-6.898 10.682-2.625 9.258-2.625 14.955c0 4.72.67 9.115 2.014 13.185s3.418 7.59 6.226 10.56 6.348 5.3 10.62 7.02 9.298 2.564 15.077 2.564zm8.8-40.286h-24.05c.244-1.546.63-3.072 1.16-4.578s1.282-2.828 2.258-3.968 2.197-2.055 3.662-2.747 3.215-1.038 5.25-1.038c2.116 0 3.886.366 5.3 1.1s2.604 1.668 3.54 2.808 1.628 2.442 2.075 3.907.712 2.97.794 4.517h0z" class="P"/></g></g><g transform="translate(104 376.134)"><use fill="#000" filter="url(#E)" xlink:href="#D"/><use xlink:href="#D" class="C"/><g transform="translate(14 14)"><mask id="e" class="C"><use xlink:href="#F"/></mask><use xlink:href="#F" class="G"/><g mask="url(#e)" class="E"><g transform="translate(-786.313 -320.163)"><g transform="translate(486.818)"><path d="M758.578 301.53V0H458.974l.03 3.547C461.634 166.913 592.732 298.85 755.06 301.5l3.52.03z" class="D"/><path d="M715.278 313.42v301.53H415.674l.03-3.547c2.632-163.366 133.73-295.304 296.056-297.953l3.52-.03z" class="B"/><path d="M425.495 741.163v-428h-425l.04 5.035c3.733 231.888 189.7 419.164 419.967 422.924l4.992.042z" transform="matrix(-1 0 0 1 425.990724 0)" class="H"/><ellipse cx="265.872" cy="172.904" rx="149.803" ry="150.763" class="F"/></g></g></g></g><g transform="translate(482 366)"><mask id="f" class="C"><use xlink:href="#G"/></mask><use fill="#011638" xlink:href="#G"/><g mask="url(#f)" class="E"><g transform="translate(-580.075 -236.593)"><g transform="translate(445.431)"><path d="M474.8 222.66V0H253.428l.02 2.62c1.945 120.636 98.815 218.065 218.76 220.02l2.6.022z" class="D"/><path d="M442.815 231.44v222.66H221.433l.02-2.62c1.945-120.636 98.815-218.065 218.76-220.02l2.6-.022z" class="L"/><path d="M221.43 454.104v-222.66H.05l.02 2.62c1.945 120.636 98.815 218.065 218.76 220.02l2.6.022z" transform="matrix(-1 0 0 1 221.4808 0)" class="G"/><ellipse cx="110.743" cy="127.679" rx="110.692" ry="111.33" class="F"/></g><path d="M459.75 4.52v222.227H231.383l.022-2.613C233.41 103.732 333.338 6.494 457.068 4.54l2.683-.022z" class="J"/><path d="M229.876 226.747V4.52h228.368l-.022 2.613c-2.006 120.402-101.933 217.64-225.663 219.592l-2.683.022z" class="B"/><path d="M228.368 232.773V455H0l.022-2.613c2.006-120.402 101.933-217.64 225.663-219.592l2.683-.022z" class="I"/></g></g></g><g transform="translate(331 14)"><mask id="g" class="C"><use xlink:href="#H"/></mask><use xlink:href="#H" class="G"/><g mask="url(#g)" class="E"><g transform="translate(-26 -67)"><g transform="translate(190.224)"><use xlink:href="#Q" class="D"/><use xlink:href="#R" class="B"/><use xlink:href="#S" class="H"/><ellipse cx="47.293" cy="54.439" rx="47.272" ry="47.468" class="F"/></g><use xlink:href="#T" class="J"/><use xlink:href="#U" class="B"/><use xlink:href="#V" class="I"/></g></g><g transform="translate(0 101)"><mask id="h" class="C"><use xlink:href="#I" href="#H"/></mask><use xlink:href="#I" class="G" href="#H"/><g mask="url(#h)" class="E"><g transform="translate(-149 -4)"><g transform="translate(190.224)"><use xlink:href="#Q" class="D"/><use xlink:href="#R" class="B"/><use xlink:href="#S" class="H"/><ellipse cx="47.293" cy="54.439" rx="47.272" ry="47.468" class="F"/></g><use xlink:href="#U" class="B"/><use xlink:href="#V" class="I"/></g></g></g><g transform="translate(0 202)"><mask id="i" class="C"><use xlink:href="#J" href="#H"/></mask><use xlink:href="#J" class="G" href="#H"/><g mask="url(#i)" class="E"><g transform="translate(-265 -4)"><g transform="translate(190.224)"><use xlink:href="#Q" class="D"/><use xlink:href="#R" class="B"/><use xlink:href="#S" class="H"/><ellipse cx="47.293" cy="54.439" rx="47.272" ry="47.468" class="F"/></g><use xlink:href="#T" class="J"/><use xlink:href="#U" class="B"/><use xlink:href="#V" class="I"/></g></g></g><g class="N"><rect x="107" width="268" height="14.912" rx="3.5"/><rect x="107" y="101" width="268" height="14.912" rx="3.5"/><rect x="107" y="202" width="268" height="14.912" rx="3.5"/><rect x="107" y="19.173" width="268" height="14.912" rx="3.5"/><rect x="107" y="120.173" width="268" height="14.912" rx="3.5"/><rect x="107" y="221.173" width="268" height="14.912" rx="3.5"/><rect x="107" y="38.345" width="158" height="14.912" rx="3.5"/><rect x="107" y="139.345" width="158" height="14.912" rx="3.5"/><rect x="107" y="240.345" width="158" height="14.912" rx="3.5"/></g><g class="D"><rect x="107" y="78" width="158" height="14.912" rx="3.5"/><rect x="107" y="179" width="158" height="14.912" rx="3.5"/><rect x="107" y="280" width="158" height="14.912" rx="3.5"/></g></g><g transform="translate(14 368)"><mask id="j" class="C"><use xlink:href="#K" href="#H"/></mask><use xlink:href="#K" class="L" href="#H"/><g mask="url(#j)" class="E"><g transform="translate(-26 -67)"><g transform="translate(190.224)"><use xlink:href="#Q" class="D"/><use xlink:href="#R" class="B"/><use xlink:href="#S" class="H"/><ellipse cx="47.293" cy="54.439" rx="47.272" ry="47.468" class="F"/></g><use xlink:href="#T" class="J"/><use xlink:href="#U" class="B"/><use xlink:href="#V" class="I"/></g></g></g><g transform="translate(14 469)"><mask id="k" class="C"><use xlink:href="#L" href="#H"/></mask><use fill="#14591d" xlink:href="#L" href="#H"/><g mask="url(#k)" class="E"><g transform="translate(-149 -4)"><g transform="translate(190.224)"><use xlink:href="#Q" class="D"/><use xlink:href="#R" class="B"/><use xlink:href="#S" class="H"/><ellipse cx="47.293" cy="54.439" rx="47.272" ry="47.468" class="L"/></g><use xlink:href="#U" class="L"/><use xlink:href="#V" class="I"/></g></g></g><g transform="translate(14 570)"><mask id="l" class="C"><use xlink:href="#M" href="#H"/></mask><use xlink:href="#M" class="L" href="#H"/><g mask="url(#l)" class="E"><g transform="translate(-265 -4)"><g transform="translate(190.224)"><use xlink:href="#Q" class="D"/><ellipse cx="47.293" cy="54.439" rx="47.272" ry="47.468" class="F"/></g><use xlink:href="#T" class="J"/><use xlink:href="#U" class="B"/></g></g></g><rect x="43" y="262" width="184" height="34" rx="3.5" class="D"/><g class="N"><rect x="121" y="368" width="268" height="14.912" rx="3.5"/><rect x="121" y="469" width="268" height="14.912" rx="3.5"/><rect x="121" y="570" width="268" height="14.912" rx="3.5"/><rect x="121" y="387.173" width="268" height="14.912" rx="3.5"/><rect x="121" y="488.173" width="268" height="14.912" rx="3.5"/><rect x="121" y="406.345" width="158" height="14.912" rx="3.5"/><rect x="121" y="507.345" width="158" height="14.912" rx="3.5"/></g><rect x="121" y="446" width="158" height="14.912" rx="3.5" class="D"/><rect x="121" y="547" width="158" height="14.912" rx="3.5" class="G"/></g></g><g fill="#011638" class="K"><rect x="251.484" y="17.042" width="98.036" height="14.912" rx="3.5"/><rect x="381.489" y="17.042" width="98.036" height="14.912" rx="3.5"/><rect x="511.493" y="17.042" width="98.036" height="14.912" rx="3.5"/></g></g><g transform="translate(899.376 12.782)" stroke="#848484" stroke-linecap="round" class="O"><path d="M0 1.065h21.312"/><path d="M0 11.717h21.312"/><path d="M0 22.368h21.312"/></g></g><g filter="url(#I)" transform="translate(769 264)"><g filter="url(#J)"><path d="M36.037 0h234.9c19.37 0 35.08 15.692 35.1 35.063l.526 499.8c.02 19.385-15.678 35.117-35.063 35.137h-.037-234.9c-19.37 0-35.08-15.692-35.1-35.063l-.526-499.8C.917 15.752 16.615.02 36 0h.037z" fill="#292929"/><path d="M36.03 4.5h233.423c16.556 0 29.983 13.413 30 29.97l.515 501c.017 16.57-13.4 30.014-29.97 30.03h-.03H36.546c-16.556 0-29.983-13.413-30-29.97l-.515-501C6.014 17.962 19.43 4.517 36 4.5h.03z" fill="#000"/><g transform="translate(13.5 13.5)"><use fill="#fafafa" xlink:href="#K"/><mask id="m" class="C"><use xlink:href="#L"/></mask><use fill="#fafafa" xlink:href="#L"/><g class="M"><g transform="translate(0 17.5)"><g transform="translate(.5 .5)"><g transform="translate(0 51.5)"><mask id="n" class="C"><use xlink:href="#M"/></mask><use xlink:href="#M" class="G"/><g mask="url(#n)" class="E"><g transform="translate(-348.416 -2.535)"><g transform="translate(260.632)"><path d="M415.817 163.992V0H253.123l.016 1.93c1.43 88.85 72.62 160.607 160.767 162.047l1.91.016z" class="D"/><path d="M392.304 170.458V334.45H229.6l.016-1.93c1.43-88.85 72.62-160.607 160.767-162.047l1.91-.016z" class="B"/><path d="M229.61 334.452V170.46H66.915l.016 1.93c1.43 88.85 72.62 160.607 160.767 162.047l1.91.016z" class="H"/><ellipse cx="81.446" cy="118.743" rx="81.347" ry="81.995" class="F"/></g><path d="M337.647 2.535V166.68H169.774l.016-1.93C171.265 75.816 244.72 3.993 335.675 2.55l1.972-.016z" class="J"/><path d="M168.507 166.68V2.535H336.38l-.016 1.93c-1.475 88.932-74.93 160.756-165.885 162.197l-1.972.016z" class="B"/><path d="M167.873 171.115v164.144H0l.016-1.93C1.49 244.396 74.947 172.573 165.9 171.13l1.972-.016z" class="I"/></g></g></g><g class="D"><circle cx="42" cy="19.5" r="19"/><rect x="223" y="28.5" width="29.14" height="6.519" rx="3.259"/><rect x="223" y="16.5" width="29.14" height="6.519" rx="3.259"/><rect x="223" y="4.5" width="29.14" height="6.519" rx="3.259"/></g><path d="M72.668 140.683l2.43-7.318 2.322-7.68 2.36 7.68 2.468 7.318h5.19c1.282-3.898 2.474-8.014 3.574-12.348s2.074-8.608 2.92-12.82h0-5.88l-.78 4.45-.853 4.63c-.3 1.55-.6 3.05-.925 4.504l-.962 4.03a138.02 138.02 0 0 1-1.197-3.705l-1.216-3.995-1.125-3.868-.962-3.36h-4.826l-.89 3.305-1.07 3.85-1.197 3.995c-.41 1.332-.835 2.59-1.27 3.777-.34-1.235-.67-2.58-.998-4.03l-.962-4.504-.907-4.63-.798-4.45h-6.133c.847 4.213 1.82 8.486 2.92 12.82s2.292 8.45 3.574 12.348h5.19zm33.71.508c.677 0 1.355-.036 2.032-.11s1.312-.163 1.905-.272 1.13-.236 1.615-.38.87-.29 1.16-.436h0l-.726-4.395c-.605.266-1.385.5-2.34.672a15.61 15.61 0 0 1-2.921.272c-1.548 0-2.782-.327-3.7-.98s-1.44-1.537-1.56-2.65h12.265l.073-1c.024-.375.036-.72.036-1.035 0-3.22-.786-5.66-2.36-7.318s-3.713-2.488-6.423-2.488a9.14 9.14 0 0 0-3.393.654 8.53 8.53 0 0 0-2.921 1.925c-.847.847-1.53 1.907-2.05 3.178s-.78 2.754-.78 4.45c0 1.404.2 2.712.6 3.922a8.29 8.29 0 0 0 1.851 3.142c.835.884 1.887 1.58 3.157 2.088s2.764.763 4.48.763zm2.613-11.985h-7.15a7.75 7.75 0 0 1 .345-1.362c.157-.448.38-.84.67-1.18s.653-.61 1.09-.817.956-.31 1.56-.31c.63 0 1.155.11 1.578.327s.774.496 1.052.835.484.726.617 1.162a5.59 5.59 0 0 1 .236 1.344h0zm17.02 11.84l.762-4.467c-.653-.048-1.173-.157-1.56-.327s-.683-.387-.89-.654-.345-.593-.417-.98-.11-.823-.11-1.307h0V112.5l-5.407.872v21.03c0 1.017.103 1.93.308 2.742s.593 1.5 1.16 2.07 1.343 1.01 2.322 1.326 2.256.484 3.828.508h0zm12.882.145c1.137 0 2.177-.097 3.12-.29s1.73-.424 2.36-.7h0l-.762-4.43c-.63.266-1.318.46-2.068.58s-1.45.182-2.105.182c-1.84 0-3.127-.472-3.865-1.416s-1.107-2.276-1.107-3.995c0-1.622.393-2.93 1.18-3.922s1.978-1.49 3.574-1.49c.75 0 1.427.073 2.032.218s1.16.315 1.67.508h0l1.125-4.322a13.59 13.59 0 0 0-2.468-.781c-.847-.182-1.778-.272-2.794-.272-1.548 0-2.927.266-4.137.8s-2.238 1.253-3.084 2.16-1.494 1.973-1.94 3.196-.67 2.524-.67 3.904c0 1.43.187 2.754.562 3.977s.968 2.282 1.778 3.178 1.845 1.604 3.103 2.125 2.758.78 4.5.78zm17.6 0c1.427 0 2.715-.242 3.865-.726s2.135-1.168 2.957-2.052 1.45-1.95 1.887-3.196.653-2.62.653-4.122-.23-2.87-.69-4.104-1.1-2.288-1.923-3.16a8.61 8.61 0 0 0-2.957-2.034c-1.15-.484-2.413-.726-3.792-.726-1.355 0-2.607.242-3.756.726a8.8 8.8 0 0 0-2.976 2.034c-.835.872-1.488 1.925-1.96 3.16s-.708 2.603-.708 4.104.23 2.875.69 4.122 1.1 2.312 1.923 3.196 1.808 1.568 2.957 2.052 2.425.726 3.828.726zm0-4.65c-1.234 0-2.19-.5-2.867-1.47s-1.016-2.306-1.016-3.977.34-2.984 1.016-3.94 1.633-1.435 2.867-1.435 2.183.478 2.85 1.435.998 2.27.998 3.94-.333 2.996-.998 3.977-1.615 1.47-2.85 1.47zm18.942 4.14v-14.745a25.1 25.1 0 0 1 1.052-.127 10.57 10.57 0 0 1 1.052-.054c1.09 0 1.857.363 2.304 1.1s.67 1.96.67 3.705h0v10.133h5.407V130.26a25.4 25.4 0 0 0-.073-1.979c-.048-.617-.157-1.205-.327-1.76.34-.218.768-.4 1.288-.545s.925-.218 1.216-.218c1.09 0 1.857.363 2.304 1.1s.67 1.96.67 3.705h0v10.133h5.407v-10.787c0-1.307-.11-2.494-.327-3.56s-.617-1.985-1.197-2.76-1.36-1.374-2.34-1.798-2.232-.636-3.756-.636c-.847 0-1.772.157-2.776.472s-1.893.75-2.667 1.307c-.556-.484-1.264-.902-2.123-1.253s-1.978-.527-3.357-.527c-.702 0-1.415.03-2.14.09s-1.433.145-2.123.254a35.73 35.73 0 0 0-1.959.363 37.49 37.49 0 0 0-1.615.381h0v18.45h5.407zm35.053.508c.677 0 1.355-.036 2.032-.11s1.312-.163 1.905-.272 1.13-.236 1.615-.38.87-.29 1.16-.436h0l-.726-4.395c-.605.266-1.385.5-2.34.672a15.61 15.61 0 0 1-2.921.272c-1.548 0-2.782-.327-3.7-.98s-1.44-1.537-1.56-2.65h12.265l.073-1c.024-.375.036-.72.036-1.035 0-3.22-.786-5.66-2.36-7.318s-3.713-2.488-6.423-2.488a9.14 9.14 0 0 0-3.393.654 8.53 8.53 0 0 0-2.921 1.925c-.847.847-1.53 1.907-2.05 3.178s-.78 2.754-.78 4.45c0 1.404.2 2.712.6 3.922a8.29 8.29 0 0 0 1.851 3.142c.835.884 1.887 1.58 3.157 2.088s2.764.763 4.48.763zm2.613-11.985h-7.15a7.75 7.75 0 0 1 .345-1.362c.157-.448.38-.84.67-1.18s.653-.61 1.09-.817.956-.31 1.56-.31c.63 0 1.155.11 1.578.327s.774.496 1.052.835.484.726.617 1.162a5.59 5.59 0 0 1 .236 1.344h0z" class="C P"/></g></g><g transform="translate(10.5 239.5)"><mask id="o" class="C"><use xlink:href="#N"/></mask><use xlink:href="#N" class="G"/><g mask="url(#o)" class="E"><g transform="translate(-21.175 -54.753)"><g transform="translate(154.924)"><use xlink:href="#W" class="D"/><use xlink:href="#X" class="B"/><use xlink:href="#Y" class="H"/><ellipse cx="38.517" cy="44.488" rx="38.5" ry="38.791" class="F"/></g><use xlink:href="#Z" class="J"/><use xlink:href="#a" class="B"/><use xlink:href="#b" class="I"/></g></g><g transform="translate(0 83)"><mask id="p" class="C"><use xlink:href="#T" href="#N"/></mask><use xlink:href="#T" class="G" href="#N"/><g mask="url(#p)" class="E"><g transform="translate(-121.351 -3.269)"><g transform="translate(154.924)"><use xlink:href="#W" class="D"/><use xlink:href="#X" class="B"/><use xlink:href="#Y" class="H"/><ellipse cx="38.517" cy="44.488" rx="38.5" ry="38.791" class="F"/></g><use xlink:href="#a" class="B"/><use xlink:href="#b" class="I"/></g></g></g><g transform="translate(0 165)"><mask id="q" class="C"><use xlink:href="#U" href="#N"/></mask><use xlink:href="#U" class="G" href="#N"/><g mask="url(#q)" class="E"><g transform="translate(-215.825 -3.269)"><g transform="translate(154.924)"><use xlink:href="#W" class="D"/><use xlink:href="#X" class="B"/><use xlink:href="#Y" class="H"/><ellipse cx="38.517" cy="44.488" rx="38.5" ry="38.791" class="F"/></g><use xlink:href="#Z" class="J"/><use xlink:href="#a" class="B"/><use xlink:href="#b" class="I"/></g></g></g><g class="N"><rect x="87" width="219" height="12" rx="3.5"/><rect x="87" y="83" width="219" height="12" rx="3.5"/><rect x="87" y="165" width="219" height="12" rx="3.5"/><rect x="87" y="16" width="219" height="12" rx="3.5"/><rect x="87" y="98" width="219" height="12" rx="3.5"/><rect x="87" y="181" width="219" height="12" rx="3.5"/><rect x="87" y="31" width="129" height="12" rx="3.5"/><rect x="87" y="114" width="129" height="12" rx="3.5"/><rect x="87" y="196" width="129" height="12" rx="3.5"/></g><g class="D"><rect x="87" y="64" width="129" height="12" rx="3.5"/><rect x="87" y="146" width="129" height="12" rx="3.5"/><rect x="87" y="229" width="129" height="12" rx="3.5"/></g></g><use fill="#000" filter="url(#P)" xlink:href="#O"/><use xlink:href="#O" class="C"/><rect x="59.5" y="492.5" width="161" height="38" rx="3.5" class="D"/></g></g><path d="M93.3 13.5c0 7.456 6.044 13.5 13.5 13.5H204c7.456 0 13.5-6.044 13.5-13.5h0H93.3z" fill="#efefef"/></g></g></g></svg>