<svg xmlns="http://www.w3.org/2000/svg" xmlns:xlink="http://www.w3.org/1999/xlink" width="860" height="1033" xmlns:v="https://vecta.io/nano"><style><![CDATA[.B{stroke-linejoin:round}.C{stroke-linecap:round}.D{stroke-width:4.17}.E{fill:#0064ff}.F{stroke:#212121}.G{fill-rule:nonzero}.H{fill:#001d71}.I{filter:url(#B)}.J{stroke-width:5.855}.K{stroke-width:5.322}.L{stroke:#f4f2ee}.M{fill:#ff9d00}.N{fill:#00c15a}]]></style><defs><filter x="-23.1%" y="-19.9%" width="146.0%" height="139.5%" id="A"><feOffset dy="24" in="SourceAlpha"/><feGaussianBlur stdDeviation="16"/><feColorMatrix values="0 0 0 0 0.3515625 0 0 0 0 0.3515625 0 0 0 0 0.3515625 0 0 0 0.1 0" result="C"/><feMerge><feMergeNode in="C"/><feMergeNode in="SourceGraphic"/></feMerge></filter><filter id="B"><feColorMatrix in="SourceGraphic" values="0 0 0 0 0.000000 0 0 0 0 0.112693 0 0 0 0 0.441384 0 0 0 0.434495 0"/></filter><filter x="-46.2%" y="-42.5%" width="195.0%" height="185.0%" id="C"><feOffset dy="2" in="SourceAlpha"/><feGaussianBlur stdDeviation="2.5"/><feColorMatrix values="0 0 0 0 0 0 0 0 0 0 0 0 0 0 0 0 0 0 0.3 0" result="C"/><feMerge><feMergeNode in="C"/><feMergeNode in="SourceGraphic"/></feMerge></filter><filter x="-23.1%" y="-29.0%" width="146.0%" height="158.0%" id="D"><feOffset dy="24" in="SourceAlpha"/><feGaussianBlur stdDeviation="16"/><feColorMatrix values="0 0 0 0 0.3515625 0 0 0 0 0.3515625 0 0 0 0 0.3515625 0 0 0 0.1 0" result="C"/><feMerge><feMergeNode in="C"/><feMergeNode in="SourceGraphic"/></feMerge></filter><filter id="E"><feColorMatrix in="SourceGraphic" values="0 0 0 0 0.000000 0 0 0 0 0.112693 0 0 0 0 0.441384 0 0 0 0.199984 0"/></filter><path d="M89.735.004c-49.33 0-89.32 40-89.32 89.344s40 89.344 89.32 89.344 89.32-40 89.32-89.344-40-89.344-89.32-89.344zm-1.24 32.263c30.83 0 55.824 25 55.824 55.84s-24.993 55.84-55.824 55.84-55.824-25-55.824-55.84 24.993-55.84 55.824-55.84z" id="F"/><path id="G" d="M94.697 95.146v.636l35.853 85.84a91.29 91.29 0 0 1-37.095 7.831c-50.872 0-92.21-41.584-93.03-93.2l-.01-1.11h94.28z"/></defs><g transform="translate(0 9)" fill="none" fill-rule="evenodd"><path d="M323.6 43.4C175.538 49.442 125.493 85.546 51.34 202.158s-57.618 207.5-15.393 293.6c21.13 43.087 59.034 79.805 107.086 109.062 25.505 15.53 149.186 60.656 178.26 66.4 163.12 32.28 348.03 5.094 434.65-101.4 82.282-101.15 64.68-264.166 6.954-366.898S471.665 37.358 323.6 43.4z" fill="#0d62fe"/><g transform="matrix(-1 0 0 1 891 684)"><path d="M398.2 20.112C383.88 1.717 356.936-.76 334.416.165s-30.132 6.44-41.4 24.26-8.764 31.7-2.34 44.866c3.214 6.584 8.98 12.195 16.287 16.666 3.88 2.373 22.7 9.27 27.113 10.148 24.8 4.933 52.934.778 66.1-15.494 12.515-15.457 4.688-40.162 1.058-56.067l-3.022-4.433zM307 128.304c-6.815-8.64-19.63-9.803-30.34-9.37s-14.33 3.025-19.695 11.395-4.168 14.894-1.113 21.074c1.53 3.093 4.27 5.728 7.746 7.828 1.845 1.115 10.792 4.354 12.895 4.767 11.8 2.317 25.176.366 31.442-7.277 5.952-7.26 2.23-18.864.503-26.335l-1.437-2.082z" fill="#0d62fe"/><path d="M36.392 279.314c-23.546-77.67 42.676-141.7 101.75-159.714 89.707-27.354 119.15 155.202 115.12 156.743-24.862 9.507-97.152 10.497-216.87 2.97z" class="H"/><path d="M207.714 185.66c4.048 32.305-27.58 113.842-60.978 109.36-28.052-3.763-44.393-27.595-53.045-53.1-1.463-4.314-23.134 6.936-26.105-13.12s20.674-7.46 20.053-11.143c-2.075-12.3-1.918-22.754-1.602-31.096.05-1.317 7.13-5.4 22.268-7.796 6.773-1.076 15.16-1.82 25.25-1.832 14.395-.02 30.48 1.397 43.98 3.11 3.883.492.33-35.7 3.684-35.186 3.414.523 13.722 37.753 16.375 38.242 6.23 1.15 10.066 2.126 10.12 2.56z" fill="#f2f4f6"/><path d="M169.336 193.885c1.83 17.605 14.854 11.815 14.854.06m-14.854 11.825l-4.456 5.943m11.883-5.943l-2.97 9.657m6.684-11.142l2.228 8.17" class="B C F K"/><path d="M152.682 186.053c8.32 20.295 13.43 32.213 15.33 35.754.837 1.562 2.64 3.584 1.68 5.122-.883 1.413-15.028-.14-15.77-2.85-.384-1.4.296-5.88.056-4.422-1.473 8.974-1.785 14.752-.935 17.336" stroke="#001d71" fill="#f5fff6" class="B C K"/><g class="B C F K"><path d="M122.86 195.14c-2.77 11.665 13.69 13.14 16.77-1.255"/><path d="M124.774 203.542l-5.2 3.714m10.142-2.97l-.23 6.686m5.686-7.43l2.228 5.2"/></g><path d="M151.862 241.804c4.828.533 3.36 7.294 7.133 6.39 1.904-.457 3.498-2.565 5.43-2.217 1.838.33 5.475 4.46 9.424 5.93 1.567.583 4.042.583 7.427 0-4.587 3.84-8.548 6.564-11.883 8.17-5.614 2.706-20.478 8.37-34.433.033-7.914-4.728-20.767-21.733-23.024-23.77l34.5 16.536c28.092 4.03 26.15 5.266-7.02-4.65-4.95-1.48-14.1-5.442-27.48-11.886 4.593-2.545 17.634 1.797 27.48 4.457 8.408 2.272 10.222.76 12.446 1.006z" fill="#ff4445"/></g><g transform="translate(87)"><g filter="url(#A)"><path stroke-width="2.2" fill="#fff" d="M0 0h475.833v553.455H0z" class="L"/><path d="M207.8 147.983l-7.188 4.447-5.964-9.226c-.065-.1-.173-.147-.254-.227l1.654-1.708c.334-.344.334-.907 0-1.25l-2.22-2.292c-.333-.345-.88-.345-1.216 0l-2.22 2.292c-.334.344-.334.907 0 1.25l1.654 1.708c-.083.08-.19.127-.254.227l-5.965 9.226-7.187-4.447a1.68 1.68 0 0 0-1.908.095c-.557.428-.812 1.158-.644 1.853l3.436 14.175c.192.787.88 1.342 1.67 1.342h24.057c.79 0 1.477-.555 1.667-1.342l3.437-14.175c.17-.695-.086-1.425-.644-1.853s-1.313-.464-1.908-.095z" class="M"/><g class="I"><g transform="translate(32.888 214.915)" fill="#004d95"><path d="M17.95 5.48L3.965 19.667l9.29 9.423 13.987-14.185z"/><path d="M29.55 12.564l1.175-1.2c2.56-2.6 2.56-6.825-.002-9.426s-6.73-2.597-9.293 0L20.26 3.14l9.29 9.424z"/><path d="M10.447 30.924L2.03 33.058a1.62 1.62 0 0 1-1.549-.437c-.406-.41-.568-1.007-.43-1.57l2.102-8.535 8.292 8.4z"/></g><g transform="translate(121.878 212.979)" fill="#000"><path d="M19.223 21.58L7.53 23.92l2.34-11.706 8.895-8.903H3.307c-1.824 0-3.308 1.487-3.308 3.31v23.176c0 1.824 1.484 3.31 3.308 3.31h23.157c1.824 0 3.308-1.487 3.308-3.31V11.02l-10.55 10.56z"/><path d="M12.914 13.847l4.678 4.682-5.847 1.17z"/><path d="M30.458 5.652c1.292-1.293 1.292-3.39 0-4.682s-3.386-1.293-4.678 0L15.254 11.505l4.678 4.682L30.458 5.652z"/></g><g transform="translate(208.933 212.979)" fill="#000"><path d="M16.746 30.732L2.367 16.34l8.447-8.454 5.52 5.525 8.842-9.734h-21.5C1.648 3.68 0 5.33 0 7.357V29.43a3.68 3.68 0 0 0 3.676 3.679h25.73a3.68 3.68 0 0 0 3.676-3.679V12.75L16.746 30.732z"/><path d="M16.62 25.403l-9.055-9.06 3.25-3.252 5.648 5.652L33.22.293l3.4 3.092z"/></g></g><g transform="translate(301.792 214.915)" class="E"><path d="M17.643 16.554h-5.146c-.406 0-.735.337-.735.752s.33.752.735.752h1.47c2.026 0 3.676 1.687 3.676 3.762 0 1.816-1.264 3.336-2.94 3.686v1.582h-2.94v-1.505h-2.94v-3h5.146c.406 0 .735-.34.735-.752s-.33-.752-.735-.752h-1.47c-2.026 0-3.676-1.69-3.676-3.762 0-1.818 1.264-3.336 2.94-3.686V12.04h2.94v1.505h2.94v3zm2-8.83L24.07 5.91l-1.094-2.795-4.583 1.877L20.3 2.408c.373-.5.393-1.205.05-1.735s-.976-.783-1.58-.628l-5.525 1.41L7.707.045C7.103-.1 6.47.143 6.127.673s-.325 1.225.05 1.735L8.07 4.993 3.487 3.117 2.394 5.91 6.82 7.725C2.758 10.038 0 14.476 0 19.564 0 27.032 5.937 33.11 13.232 33.11s13.232-6.077 13.232-13.544c0-5.088-2.758-9.526-6.82-11.84h0z"/></g><g transform="translate(303.727 236.213)" class="G"><g filter="url(#C)" transform="translate(5.804 3.872)"><path fill="#231d1e" d="M0 13.553h1.935v-1.936h3.87v1.936h1.935V1.936h1.935V0h3.87v1.936h1.935v5.81h7.738V9.68h3.87v1.936h1.935v9.68h-1.935v3.872H25.15v5.81h-3.87v-1.936h-1.935v1.936H9.673v-3.872H7.738V25.17H5.804v-1.936H3.87v-3.872H1.935v-1.936H0z"/><path fill="#fff" d="M1.935 13.553h3.87v1.936h1.935v1.936h1.935V1.936h3.87v11.617h1.935V9.68h3.87v3.872h1.935V9.68h1.935v3.872h1.935v-1.936h1.935v9.68H25.15v3.872h-1.935v3.872H21.28v-1.936h-1.935v1.936h-7.738v-1.936H9.673V25.17H7.738v-1.936H5.804v-3.872H3.87v-1.936H1.935z"/><g fill="#231d1e"><path d="M13.542 17.426h1.935v7.745h-1.935z"/><path d="M17.41 17.426h1.935v7.745H17.41z"/><path d="M21.28 17.426h1.935v7.745H21.28z"/></g></g></g><g class="I"><g transform="translate(384.978 214.915)" fill="#000"><ellipse cx="4.353" cy="4.356" rx="4.353" ry="4.356"/><ellipse cx="4.353" cy="16.554" rx="4.353" ry="4.356"/><ellipse cx="4.353" cy="28.752" rx="4.353" ry="4.356"/></g></g><g transform="translate(21.28 27.106)"><path d="M69.487 0C31.1 0 0 31.136 0 69.545S31.1 139.1 69.487 139.1s69.487-31.136 69.487-69.545S107.864 0 69.487 0z" fill="#06f" class="G"/><g transform="translate(19.18 43.426)"><g transform="translate(0 .019)"><path d="M67.092 46.79c8.237 0 18.353-.518 30.35-1.555l3.113-15.293h-13.49l1.038-22.29H13.397l-.457 12.362C4.314 17.61 0 18.74 0 23.404s3.86 7.45 11.58 8.353l2.594 11.923c27.042 2.074 44.68 3.1 52.917 3.1z" class="M"/><g transform="translate(55.935 5.597)" fill="#212121"><path d="M.532 1.775C.16 8.284 5.94 9.94 7.543 3.95 8.766-.622 2.1-1.055 0 1.775"/><path d="M22.304.738c.113 1.385.03 2.8.34 4.156 1.343 5.877 8.675.175 4.787-4.735"/></g><path d="M89.973.003c1.6 0-.293 14.283-1.297 17.15-1.273 3.636-4.28 2.85-7.523 2.85-1.035 0-1.923-.034-2.703-.125-1.344-1.64-3.094-3.467-4.992-5.122l-1.447-1.203.36 2.107-.462-.734c-1.966 4.965-5.925 6.372-10.73 6.372-11.107 0-15.54-8.468-13.763-21.296h42.556zM67.902 5.79H52.896l-.005.074c-.2 3.08.16 5.47.983 7.182l.495.866c1.31 1.933 3.637 2.94 7.33 2.94 2.514 0 4.243-1.617 5.344-5.583l.297-1.198.212-1.22c.07-.477.14-1.025.207-1.64l.143-1.42zm17.824 0H74.6c1.578 6.475 3.662 9.29 7.53 9.7l1.088.056c.157 0 .24-.033.387-.174.31-.296.653-.88.966-1.777.51-1.46.868-3.508 1.052-6.123l.092-1.693z" fill="#ff0025" class="G"/><g class="B C D F"><path d="M73.74 16.67c5.218 4.123 9.843 10.125 9.05 11.115-1.038 1.296-4.8 1.563-5.707 1.037-.736-.422-.404.15-.404 4.983"/><path d="M62.345 29.75c6.11 4.535 12.89 5.11 19.586 3.735"/></g><g stroke="#001d75" class="B C D"><path d="M68.887 41.39c1.31 5.236 4.397 8.536 7.667 12.918"/><path d="M74.23 40.82c3.573 11.31 2.78 6.486 3.59 14.222"/><path d="M78.674 41.635c1.068 10.997.938 6.424.938 13.692"/><path d="M83.405 41.635l-2.447 15.037"/><path d="M86.71 42.043c-.294 5.33-1.698 9.58-4.364 14.18"/><path d="M90.338 41.512c-.487 5.2-1.97 10.208-5.465 14.263"/><path d="M92.337 47.096c-4.32 5.79-4.84 7.566-11.297 9.087"/></g><path d="M62.782 27.857c-.39 1.05-1.17 2.088-2.466 2.147" class="B C D F"/></g></g></g><rect x="174.111" y="91" width="195.391" height="23.234" rx="11.617" class="E"/><g fill="#eaeaea"><rect x="21.28" y="333.022" width="195.391" height="23.234" rx="11.617"/><rect x="21.28" y="406.597" width="195.391" height="23.234" rx="11.617"/></g><rect x="23.215" y="499.533" width="143.158" height="17.426" rx="8.713" class="E"/><rect x="222.475" y="143.277" width="63.841" height="23.234" rx="11.617" class="N"/><rect fill="#ffa300" x="292.119" y="143.277" width="63.841" height="23.234" rx="11.617"/><rect x="174.111" y="54.213" width="228.279" height="23.234" rx="11.617" class="H"/><g fill="#eaeaea"><rect x="21.28" y="296.235" width="228.279" height="23.234" rx="11.617"/><rect x="21.28" y="369.809" width="228.279" height="23.234" rx="11.617"/></g><rect x="21.28" y="472.426" width="170.242" height="17.426" rx="8.713" class="E"/><g stroke-width="2.317" stroke-linecap="square" class="B L"><path d="M.967 192.65h473.968"/><path d="M.967 267.192h473.968"/></g></g><g filter="url(#D)" transform="translate(238 324.908)"><path stroke-width="2.2" fill="#fff" d="M0 .3h475.833V375.4H0z" class="L"/><g filter="url(#E)"><g transform="translate(320.738 176.626)" fill="#0b0"><path d="M40.064.678L1.812 9.61a2.12 2.12 0 0 0-1.628 1.799 2.1 2.1 0 0 0 1.148 2.133l10.864 5.473 1.11 10.98c.088.883.726 1.615 1.59 1.83s1.778-.126 2.28-.856l.33-.334-2.197-8.38a2.85 2.85 0 0 1 1.404-2.699L26.15 14l-7.544 7.23a2.1 2.1 0 0 0-.592 1.988l3.44 14.743a2.12 2.12 0 0 0 1.811 1.616c.886.105 1.744-.348 2.15-1.14L43.386 3.63c.086-.13.156-.267.21-.41.188-.488.07-1.233-.143-1.745-.265-.632-1.395-.897-3.4-.796z"/></g></g><g filter="url(#E)"><g transform="translate(116.011 173.924)"><path d="M29.674 23.74h7.913v-7.914h-7.913v7.914zm-11.87 0h7.913v-7.914h-7.913v7.914zm0 11.87h7.913v-7.914h-7.913v7.914zM5.936 23.74h7.913v-7.914H5.936v7.914zm0 11.87h7.913v-7.914H5.936v7.914zM39.567 3.957H35.6V0h-3.957v9.892h-3.957V3.957h-11.87V0H11.87v9.892H7.913V3.957H3.957A3.96 3.96 0 0 0 0 7.914V37.59c0 2.18 1.774 3.957 3.957 3.957h35.6c2.18 0 3.957-1.777 3.957-3.957V7.914a3.96 3.96 0 0 0-3.957-3.957z" fill="#0b0"/></g></g><rect x="21.611" y="32.906" width="142.662" height="14.891" rx="6.95" class="H"/><rect fill="#f2f4f6" x="24.092" y="65.169" width="142.662" height="14.891" rx="6.95"/><g transform="translate(48.662 109.022)"><mask id="H" fill="#fff"><use xlink:href="#F"/></mask><use fill="#0202d0" xlink:href="#F" class="G"/><g mask="url(#H)"><g transform="translate(-7.443 -5.799)"><path d="M94.735 0v94.307H.453C.453 42.49 41.604.837 93.618.01L94.735 0z" class="H"/><use xlink:href="#G" class="E"/><path d="M94.736 2.482l-.002 92.46 36.018 86.226c34.217-14.01 58.264-47.14 58.264-85.777 0-50.802-41.573-92.08-93.174-92.9l-1.106-.01z" class="N"/></g></g></g><g transform="translate(254.592 109.022)"><mask id="I" fill="#fff"><use xlink:href="#K" href="#F"/></mask><use fill="#0202d0" xlink:href="#K" class="G" href="#F"/><g mask="url(#I)"><g transform="translate(-4.962 -6.071)"><path d="M94.735.272V94.58H.453c0-51.816 41.15-93.47 93.165-94.3l1.117-.01z" class="M"/><use xlink:href="#G" y="0.272" class="E"/><path d="M94.736 2.824l-.002 94.237-66.95 125.433C400.736 126.883 147.855 3.67 95.85 2.833l-1.115-.01z" class="N"/></g></g></g><rect x="338.044" y="336.477" width="121.255" height="16.548" rx="6.95" class="E"/></g></g><g transform="matrix(-1 0 0 1 441 782)"><g transform="matrix(-1 0 0 1 441 105.229185)"><path d="M158.155 110.144c19.416 0 43.263-1.22 71.542-3.66l7.338-36h-31.796l2.446-52.473H31.58l-1.076 29.1C10.168 41.45 0 44.1 0 55.092S9.1 72.63 27.3 74.755l6.115 28.067c63.744 4.88 105.324 7.322 124.74 7.322z" fill="#ffa300"/><path d="M133.106 17.353c-.878 15.322 12.75 19.222 16.53 5.118 2.882-10.76-12.83-11.78-17.782-5.118m52.576-2.44c.266 3.26.07 6.592.8 9.782 3.165 13.834 20.45.412 11.284-11.147" fill="#212121"/><path d="M212.092.007c3.77 0-.69 33.62-3.057 40.368-3.002 8.558-10.086 6.712-17.733 6.712-2.43 0-4.516-.08-6.35-.29-3.98-4.822-9.436-10.342-15.2-14.9h0l.854 4.97-.502-.776-.596-.962c-4.634 11.687-13.967 15-25.3 15-26.183 0-36.632-19.933-32.442-50.13h100.315zm-52.028 13.62H124.7l-.01.173c-.51 8.287.637 14.45 3.216 18.535l.137.213.13.196c3.086 4.55 8.574 6.922 17.28 6.922 6.42 0 10.67-4.467 13.216-15.592l.082-.37c.42-1.978.834-5.005 1.226-9.03l.076-.792.023-.256zm42.017 0h-26.203l.013.052c3.953 16.202 9.28 22.66 19.62 22.93l.315.006.37.003c.37 0 .563-.078.91-.41.733-.697 1.538-2.074 2.278-4.182 1.406-4.007 2.315-9.902 2.665-17.602l.033-.796z" fill="#fb3640" class="G"/><path d="M173.828 39.238c12.3 9.705 23.203 23.834 21.334 26.164-2.446 3.05-11.292 3.68-13.452 2.44-1.736-.995-.952.353-.952 11.73m-33.794-9.542c14.4 10.675 30.383 12.032 46.17 8.792" class="B C F J"/><g stroke="#001d71" class="B C J"><path d="M162.386 97.43c3.085 12.325 10.365 20.093 18.073 30.4m-5.48-31.753c8.422 26.624 6.55 15.268 8.46 33.477m2.02-31.558c2.517 25.885 2.2 15.12 2.2 32.23m8.94-32.23l-5.768 35.396m13.556-34.436c-.693 12.548-4.003 22.553-10.286 33.38m18.84-34.63c-1.15 12.24-4.642 24.028-12.882 33.574"/><path d="M217.662 110.86c-10.18 13.632-11.412 17.81-26.63 21.39"/></g><path d="M147.994 65.574c-.922 2.474-2.756 4.914-5.814 5.055" class="B C F J"/></g><path d="M14.7 33.425C38.69 2.853 83.777-1.26 121.462.274s50.422 10.704 69.295 40.32 14.665 52.698 3.918 74.564c-5.378 10.942-15.025 20.268-27.255 27.698-6.49 3.944-16.22 8.998 11.204 17.146s-48.284-1.917-56.574-.28c-41.517 8.198-88.58 1.294-110.626-25.75-20.942-25.688-7.845-66.746-1.77-93.18l5.057-7.367z" fill="#001c6c"/></g></g></svg>