<svg xmlns="http://www.w3.org/2000/svg" xmlns:xlink="http://www.w3.org/1999/xlink" width="1311" height="779" xmlns:v="https://vecta.io/nano"><style><![CDATA[.B{stroke-linejoin:round}.C{stroke-linecap:round}.D{fill-rule:nonzero}.E{stroke-width:1.118}.F{fill:#001d71}.G{stroke:#212121}.H{mask:url(#E)}.I{stroke:#ffc415}.J{stroke:#001d71}.K{stroke-width:8.516}.L{fill:#001c6c}.M{fill:#212121}]]></style><defs><path d="M24.4.488l998.655 60.894c12.136.74 21.6 10.798 21.6 22.957V603.66c0 12.16-9.464 22.217-21.6 22.957L24.4 687.512c-12.68.773-23.584-8.88-24.357-21.558a23 23 0 0 1-.043-1.4v-641.1c0-12.703 10.297-23 23-23a23 23 0 0 1 1.4.043z" id="A"/><path id="B" d="M144.016 42.108c-.852 13.598 12.377 17.06 16.044 4.543 2.798-9.55-12.452-10.455-17.26-4.543"/><path id="C" d="M42.903 1.034C19.753 3.814.986 22.34.986 42.4s18.767 38.596 41.917 41.376S84.82 68.042 84.82 42.4 66.053-1.746 42.903 1.034z"/><path id="D" d="M22.84 5.527c-.112 1.785 1.624 2.24 2.106.596.367-1.253-1.634-1.372-2.265-.596"/></defs><g fill="none" fill-rule="evenodd"><mask id="E" fill="#fff"><use xlink:href="#A"/></mask><use fill="#0064ff" xlink:href="#A"/><g class="H"><g transform="matrix(-1 0 0 1 708 187)"><g fill="#f06aa6"><path d="M344 47.525c-8.38 186.682-211.623 255.9-81.716 377.56 31.044 29.073-170.23 29.478-152.955 0 92.192-157.316-4.19-190.877-2.095-360.78.247-20.036 3.082-38.833 8.108-56.09 101.18-2.86 175.304-.246 222.373 7.846 3.744.644 5.84 11.13 6.286 31.463z"/></g><g class="B C I K"><path d="M371.2 25.6c-11.134 48.366-32.314 97.95-36.4 147.63-2.97 36.005-1.327 72.247-2 108.37M358.4 24c-24.973 62.823-34.658 119.34-37.016 187.228-1.852 53.337-7.186 40.314 3.45 62.372M324.8 62.4c-23.444 96.75-24.52 128.013-8.1 227.2m-1.5 11.2c-58.15-52.225-33.788-143.426-18.2-208"/></g><path d="M202.466 46.4c3.538 17.463 2.576 29.17-2.887 35.12-29.012 31.6-40.304 43.756-72.924 88.748-.446.616-.313 2.228.448 2.235 3.618.036 7.66-.082 10.643-2.125 20.928-14.324 37.104-36.088 60.274-46.415 31.187-13.9-42.775 34.143-24.872 43.506 3.3 1.726 27.674 5.2 52.452-5.87 30.156-13.46 59.997-40.797 41.6-22.4-9.6 9.6-24.82 31.168-38.4 36.8-32.12 13.32-63.02 7.64-59.397 12.368 21.502 28.063 26.916 40.904 21.502 66.032" class="B C G K"/><g class="I B C K"><path d="M124.8 80C106.023 129.9 80.894 251.515 6.935 265.585c-.937.178-1.423-1.268-2.135-1.902M113.6 46.4c-17 84.282-42.133 158.758-112 208M104 14.4C82.288 92.883 71.314 178.226 4.8 232M81.6 17.6C61.535 101.77 59.333 157.156 0 216"/></g><path d="M342.692.695c9.068 0-5.453 55.95-11.146 68.87-4.814 10.925-18.07 16.49-39.77 16.696-24.02.74-40.717-4.743-50.095-16.448l-1.433-1.843c-11.148 22.38-33.603 28.726-60.842 28.726-63 0-88.13-38.17-78.048-96h241.336zM231.495 22.058l-107.128-1.5-.03.385c-1.425 18.435 1.777 32.147 8.968 41.236l.382.474.364.436c8.606 10.12 24.662 15.4 48.933 15.4 17.9 0 39.01-7.53 46.113-32.28l.227-.822c1.174-4.4.803-12.04 1.896-20.997l.21-1.76.065-.57zm94.26 1.8h-77.723l.038.11c-.038 35.06-.038 49.544 58.192 49.525l.934.014 1.097.005c1.098 0 1.67-.17 2.703-.884 2.176-1.506 4.563-4.48 6.757-9.034 4.17-8.655 6.867-21.388 7.905-38.02l.1-1.718z" transform="matrix(-1 0 0 1 444.8 0)" class="D L"/><g class="M"><use xlink:href="#B" transform="matrix(-1 0 0 1 303.2 0)"/><use xlink:href="#B" x="98.2" transform="matrix(-1 0 0 1 499.6 0)"/></g><g fill="#ff0034"><path d="M39.8 458.67c10.268 15.042 53.37 11.144 30.284-19.34s-40.55 4.298-30.284 19.34z" transform="matrix(-1 0 0 1 113.6 0)"/><path d="M95.03 484.443c10.56 14.516 49.12 5.27 25.374-24.147s-35.935 9.63-25.374 24.147z" transform="matrix(-1 0 0 1 219.2 0)"/><path d="M168.768 493.092c10.682 15.072 49.088 8.247 25.07-22.298s-35.752 7.226-25.07 22.298z" transform="matrix(-1 0 0 1 366.4 0)"/><path d="M240.9 483.732c10.862 14.83 47.82 7.1 32.036-19.068s-42.898 4.237-32.036 19.068z" transform="matrix(-1 0 0 1 515.2 0)"/><path d="M298.185 466.075c10.315 14.67 42.254 7.636 30.425-18.86s-40.74 4.19-30.425 18.86z" transform="matrix(-1 0 0 1 627.2 0)"/></g></g><g transform="translate(23 30)"><g transform="matrix(-1 0 0 1 87.099998 205.099997)"><use xlink:href="#C" class="D F"/><g transform="translate(14.05 9.44)"><g fill="#f06aa6"><path d="M45.15 6.238c-1.1 24.502-27.776 33.587-10.725 49.555 4.075 3.816-22.343 3.87-20.075 0 12.1-20.648-.55-25.053-.275-47.352.032-2.63.405-5.097 1.064-7.362 13.28-.376 23.01-.032 29.186 1.03.49.084.766 1.46.825 4.13z"/></g><g class="B C E I"><path d="M48.72 3.36c-1.46 6.348-4.24 12.856-4.78 19.376-.4 4.726-.174 9.482-.26 14.224m3.36-33.8c-3.278 8.246-4.55 15.663-4.858 24.574-.243 7-.943 5.3.453 8.186M42.63 8.2c-3.077 12.688-3.218 16.792-1.064 29.8m-.196 1.48c-7.632-6.855-4.435-18.825-2.4-27.3"/></g><path d="M26.574 6.1c.464 2.292.338 3.83-.38 4.61-3.808 4.147-5.3 5.743-9.57 11.648-.06.08-.04.292.06.293.475.005 1.005-.01 1.397-.28 2.747-1.88 4.87-4.737 7.91-6.092 4.093-1.825-5.614 4.48-3.264 5.7.96.502 17.744-1.807 12.316-.724s-13.484 2.584-12.808 3.467c2.822 3.683 3.533 5.37 2.822 8.667" class="B C E G"/><g class="I B C E"><path d="M16.38 10.5C13.916 17.05 10.617 33 .9 34.858c-.123.023-.187-.166-.28-.25M14.9 6.1C12.68 17.152 9.38 26.927.2 33.4M13.65 1.9C10.8 12.2 9.36 23.392.63 30.45M10.7 2.3C8.076 13.357 7.787 20.627 0 28.35"/></g><path d="M13.402.09c-1.2 0 .716 7.343 1.463 9.04.608 1.38 2.244 2.11 4.908 2.185l.312.006c3.152.097 5.344-.623 6.575-2.16l.188-.242c1.463 2.937 4.4 3.77 7.986 3.77 8.267 0 11.567-5 10.244-12.6H13.402zm14.595 2.804l14.06-.197.004.05c.187 2.42-.233 4.22-1.177 5.412l-.098.12c-1.13 1.328-3.237 2.02-6.422 2.02-2.35 0-5.12-.988-6.052-4.237l-.03-.108c-.14-.53-.112-1.416-.217-2.466l-.068-.596zm-12.372.238h10.2l-.005.015-.005 1.206c-.054 3.604-.653 5.188-6.95 5.29l-.95.008a.52.52 0 0 1-.355-.116c-.286-.198-.6-.588-.887-1.186-.547-1.136-.9-2.807-1.037-5l-.013-.226z" class="D F"/><g class="M"><use xlink:href="#D" transform="matrix(-1 0 0 1 47.670002 0)"/><use xlink:href="#D" x="6.09" transform="matrix(-1 0 0 1 59.850002 0)"/></g><g fill="#ff0034"><path d="M5.225 60.2c1.348 1.974 7.005 1.463 3.975-2.538s-5.322.564-3.975 2.538z" transform="matrix(-1 0 0 1 14.91 0)"/><path d="M12.473 63.583c1.386 1.905 6.447.692 3.33-3.17s-4.716 1.264-3.33 3.17z" transform="matrix(-1 0 0 1 28.77 0)"/><path d="M22.15 64.718c1.402 1.978 6.443 1.082 3.3-2.927s-4.692.948-3.3 2.927z" transform="matrix(-1 0 0 1 48.090002 0)"/><path d="M31.618 63.5c1.426 1.947 6.276.933 4.205-2.503s-5.63.556-4.205 2.503z" transform="matrix(-1 0 0 1 67.620002 0)"/><path d="M39.137 61.172c1.354 1.925 5.546 1.002 3.993-2.475s-5.347.55-3.993 2.475z" transform="matrix(-1 0 0 1 82.320002 0)"/></g></g></g><g transform="matrix(-1 0 0 1 87.099998 0)"><use xlink:href="#C" fill="#d0e4ff" class="D"/><g transform="matrix(-1 0 0 1 86.94 7.87)"><path d="M5.22 52.404C5.273 29.46 35.65 9.132 53.11 9.146c26.517.02 19.932 44.287 18.715 44.37-7.508.515-29.7.144-66.606-1.112z" transform="matrix(.956305 -.292372 .292372 .956305 -7.474683 12.872101)" class="F"/><g fill="#f2f4f6"><path d="M65.66 24.765c1.145 9.132-7.798 32.182-17.242 30.916-7.932-1.064-12.552-7.8-14.998-15.01-.414-1.22-6.54 1.96-7.38-3.71s5.846-2.11 5.67-3.15c-.587-3.48-.542-6.432-.453-8.79.014-.372 2.016-1.524 6.296-2.204 1.915-.304 4.286-.514 7.14-.518 4.07-.005 8.618.395 12.436.88 1.098.14.093-10.092 1.042-9.947.965.148 3.88 10.672 4.63 10.81 1.76.325 2.846.6 2.86.724z"/></g><g transform="translate(40.11 25.41)"><g class="B C E G"><path d="M12.6 1.9c.517 4.977 4.2 3.34 4.2.017m-4 2.703L11.55 6.3"/><path d="M14.7 5.25l-.84 2.73m1.9-3.15l.63 2.3"/></g><path d="M9.45 0c3.404 5.183 5.465 8.215 6.183 9.095.317.388.926.852.743 1.33-.17.44-4.18.772-4.53.06-.182-.368-.235-1.648-.223-1.23.075 2.57.3 4.2.675 4.86" fill="#f5fff6" class="B C E J"/><g class="B C E G"><path d="M1.558 2.035C.775 5.332 5.43 5.75 6.3 1.68"/><path d="M2.1 4.4L.63 5.46m2.867-.84l-.065 1.9M5.04 4.4l.63 1.47"/></g><path d="M8.743 14.817c1.35-.255 1.51 1.694 2.457 1.138.477-.28.734-.983 1.285-1.048.837-.1 2.152.27 3.947 1.11l-3.248 2.903c-2.028 1.873-10.554.028-12.706-.98l6.552.088c9.704-1.51 7.52-1.538-6.552-.088 1.912-1.98 6.915-2.87 8.265-3.124z" fill="#ff4445" transform="matrix(.956305 .292372 -.292372 .956305 5.415917 -1.717927)"/></g></g></g><g transform="matrix(-1 0 0 1 91.099998 102.199998)"><path d="M46.903 1.034C23.753 3.814 4.986 22.34 4.986 42.4s18.767 38.596 41.917 41.376S88.82 68.042 88.82 42.4 70.053-1.746 46.903 1.034z" class="D F"/><g transform="translate(.83 16.58)"><path d="M34.796 6.58C24.26 6.58 14.84 9.37 7.81 13.807 4.96 15.604 2.7 17.58 1.397 19.38.612 20.466.133 21.52.076 22.626c-.095 1.872 1.11 3.406 2.95 3.79l.16.03c1.2.227 2.965.314 7.086.42l3.735.1c4.4.122 6.182.2 8.996.394l.57.04.494.036c4.257.32 7.824.792 10.655 1.452l.197.047V45.42c.38 3.88 4.56 5.82 12.54 5.82S64.522 49 74.705 44.49L73.3 32.27l.1-.026c1.454-.388 2.684-.934 3.693-1.66 1.915-1.38 2.95-3.375 2.95-5.718 0-2.7-1.515-4.735-4.106-5.413l-.1-.026c-1.1-.273-2.388-.302-3.863-.1l-.17.023-.263-2.275-.93-.738c-8.24-6.54-20.195-9.745-35.803-9.745z" fill="#ffa300" class="D"/><g class="B C E J"><path d="M27.55 10.075c4.088.24 3.446.33 6.366-2.517m-5.968 4.6c3.215-.23 3.552-1.457 5.756-4.16M35.1 7.85c.808 2.068 2.196 2.2 4.35 2.04M35.1 7.876c.475 3.612-.366 2.1 2.76 4.398"/></g><g stroke="#fff" stroke-width="1.748" class="B"><path d="M29.566 1.253c3.83-3.508 5.796 1.153 5.385 4.16-.497 3.63-3.452 6.436-6.234 8.424-.038.027-2.468 1.666-3.183 1.033-1.72-1.524-1.038-4.95-.318-6.994s2.572-4.993 4.35-6.623z"/><g class="C"><path d="M34.632 8.856c.632-1.94 1.055-4.392 2.785-5.775 3.72-2.972 7.31-1.99 6.286 3.126-.56 2.8-2.892 6.106-4.933 8.053-2.65 2.528-4.96-.927-4.562-3.444.192-1.22.654-2.384.98-3.576"/></g></g><g class="E J B C"><path d="M47.576 6.392c.872 5.1 1.36 9.02 4.774 13.06 5.005 5.92 16.124 3.44 20.768-1.642"/><path d="M51.846 7.055c-.928 6.792-.365 14.472 8.223 15.63.594.08 4.555.294 6.02-.212 3.55-1.225 3.696-1.964 7.082-4.715"/><path d="M53.41 7.108c3 6.215 11.003 20.65 19.018 11.26"/><path d="M57.4 7.85c.704 3.818 1.058 7.68 3.608 10.808 3.377 4.142 10.262 3.294 13.13-.742"/><path d="M59.352 8.54c1.925 4.86 5.566 13.015 12.175 10.305m-9.814-9.803c1.598 2.526 4.9 8.95 8.196 9.616 1.283.26 2.617-.035 3.926-.053m-40.237 12.08c3.234-1.136 5.843 1.206 9.15.6 1.6-.3 3.554-2.03 4.722-2.914"/></g></g><path stroke="#0064ff" fill="#0064ff" d="M29.6 59.84l13.65 7.56 21.42-7.56L63.4 75.8l-20.16-6.1-17.22 6.1z" class="B E"/></g><g transform="matrix(-1 0 0 1 87.099998 307.299995)"><use xlink:href="#C" class="D F"/><g transform="translate(9.64 17.84)"><path d="M13.31 3.68L54.1 6.52c.6 2.345.887 6.937.865 13.776l.1-.064c.534-.33.97-.54 1.868-.735l.122-.026c1.167-.238 3.684-.536 4.655-.285 2.65.685 3.884 4.052 2.357 6.3-1.93 2.853-5.94 4.75-9.268 3.757l-.032 1.007-.668 14.934c-13.965 2-31.973 2-54.023 0C-.65 31.443 3.666 17.742 13.024 4.093l.285-.414z" fill="#54e375"/><g class="F"><g class="D"><path d="M10.634.32a.56.56 0 0 1 .548.569l-.002.07-.017.272-.045.574-.018.252-.04 1.284c.016.904.155 1.563.408 1.888 1.072 1.37 2.905 2.755 4.713 3.482 2.084.837 3.91.753 5.2-.387a.56.56 0 0 1 .789.052.56.56 0 0 1-.052.789c-1.664 1.46-3.925 1.563-6.363.584-1.992-.8-3.984-2.307-5.177-3.83-.445-.57-.626-1.427-.646-2.557-.008-.467.01-.93.053-1.506l.05-.65.017-.253.003-.082a.56.56 0 0 1 .569-.548z"/><path d="M13.813.633a.56.56 0 0 1 .716.335c1.252 3.45 2.33 5.038 4.626 6.188l.312.155.484.227c.433.193.83.34 1.198.433.74.187 1.248.134 1.522-.152l.027-.03a.56.56 0 0 1 .788-.061.56.56 0 0 1 .061.788c-.608.71-1.54.825-2.672.538-.394-.1-.8-.245-1.234-.432l-.145-.064-.77-.368-.073-.037c-2.608-1.307-3.835-3.11-5.176-6.806a.56.56 0 0 1 .335-.716z"/><path d="M18.1.085a.56.56 0 0 1 .668.422l.06.27c.457 1.978.84 3.166 1.438 4.216.782 1.373 1.824 2.183 3.287 2.423a.56.56 0 0 1 .461.642.56.56 0 0 1-.642.461c-1.82-.298-3.14-1.323-4.078-2.973-.695-1.22-1.1-2.547-1.618-4.79a.56.56 0 0 1 .422-.668z"/><path d="M21.997 1.838l.177-.955a.56.56 0 0 1 .631-.432.56.56 0 0 1 .471.603l-.005.038-.264 1.458-.11.704-.023.167c-.117.864-.156 1.522-.1 1.838.588 3.352 3.803 5.485 7.177 4.742 1.112-.245 1.835-.63 2.708-1.364l.136-.118 1.377-1.224a.56.56 0 0 1 .788.058.56.56 0 0 1-.058.788l-.09.08-1.432 1.27c-1.004.845-1.887 1.314-3.188 1.6-3.993.88-7.82-1.66-8.518-5.64-.082-.468-.04-1.203.094-2.18l.107-.717.03-.187.092-.527z"/><path d="M25.356 1.408a.56.56 0 0 1 .559.559l.002.613c.007.48.03.553.125.762l.02.04 1.318 2.37.113.21c1.737 3.25 3.65 3.58 6.653 1.397a.56.56 0 0 1 .781.123.56.56 0 0 1-.123.781c-3.495 2.54-6.172 2.108-8.234-1.66l-.265-.488-1.275-2.3-.034-.075c-.19-.433-.2-.586-.2-1.774a.56.56 0 0 1 .559-.559z"/><path d="M28.51 1.402a.56.56 0 0 1 .699.368c1.017 3.284 2.533 5.033 5.27 5.684a.56.56 0 0 1 .414.673.56.56 0 0 1-.673.414c-3.174-.754-4.957-2.81-6.08-6.44a.56.56 0 0 1 .368-.699z"/><path d="M33.598 1.066a.56.56 0 0 1 .567.55l.001.144-.014.666-.046.98c-.044 1.032-.023 1.546.107 2.14.558 2.55 2.39 3.967 4.97 4.172 2.378.19 5.04-.723 6.69-2.283a.56.56 0 0 1 .79.022.56.56 0 0 1-.022.79c-1.883 1.78-4.858 2.8-7.548 2.585-3.047-.243-5.305-1.99-5.974-5.047-.16-.73-.18-1.324-.13-2.507l.042-.886.012-.76a.56.56 0 0 1 .55-.567z"/><path d="M37.244.9a.56.56 0 0 1 .55.567l-.002.08a4.84 4.84 0 0 1-.057.542l-.02.128c-.087.576-.1.8 0 1.006.6 1.346 1.598 2.913 2.687 4.026 1.353 1.383 2.706 1.98 3.97 1.628.29-.08.52-.22.992-.578l.28-.215.5-.354a.56.56 0 0 1 .771.175.56.56 0 0 1-.175.771l-.087.056-.3.216-.33.252c-.578.438-.89.624-1.354.754-1.735.484-3.462-.28-5.07-1.923-1.2-1.217-2.27-2.896-2.91-4.36-.198-.452-.2-.808-.094-1.54l.042-.29.036-.395a.56.56 0 0 1 .567-.55z"/><path d="M40.69 1.108a.56.56 0 0 1 .659.436l.24 1.16.052.237.042.187c.686 3.013 1.426 3.675 4.727 4a.56.56 0 0 1 .501.611.56.56 0 0 1-.611.501l-.23-.024c-3.6-.394-4.694-1.44-5.473-4.822l-.116-.527-.227-1.103a.56.56 0 0 1 .436-.659z"/><path d="M45.896 1.346a.56.56 0 0 1 .582.535l.01.27.007.606-.002 1.137.042 1.787.004.064c.19 3.084 1.078 4.71 3.192 4.93 1.204.125 2.4.094 4.237-.063a2.92 2.92 0 0 0 1.551-.567l.07-.05 1.137-.864a.56.56 0 0 1 .781.123.56.56 0 0 1-.123.781l-.18.135-.94.717-.025.018a4.06 4.06 0 0 1-2.174.82l-.327.027c-1.713.138-2.906.16-4.12.034-1.52-.158-2.607-.9-3.287-2.157-.522-.957-.8-2.156-.895-3.666l-.01-.147-.048-1.727.001-1.447-.015-.712a.56.56 0 0 1 .535-.582z"/><path d="M48.72 1.284a.56.56 0 0 1 .581.536l.008.206.017.782.01 1.55c.015 1.78.078 2.645.294 3.64.306 1.41.9 2.532 1.914 3.475 1.35 1.257 5.186-.217 5.262-1.903l.001-.05a.56.56 0 0 1 .559-.559.56.56 0 0 1 .559.559c0 2.712-5.085 4.688-7.143 2.77-1.19-1.107-1.892-2.434-2.244-4.055l-.03-.135c-.223-1.076-.28-2.026-.292-3.952l-.005-1.08-.004-.362-.022-.84a.56.56 0 0 1 .536-.581z"/><path d="M50.946 3.965a.56.56 0 0 1 .609-.503.56.56 0 0 1 .506.574l-.002.035c-.1 1.06.64 3.714 1.64 5.502 1.2 2.128 2.36 2.704 3.55 1.5a.56.56 0 0 1 .79-.001.56.56 0 0 1 .001.79c-.973.975-2.048 1.202-3.078.695-.827-.406-1.576-1.262-2.24-2.45-1.1-1.97-1.9-4.84-1.776-6.153zm-24.624 7.133l.092-.045c.252-.118.426-.15.665-.037.27.126.374.386.347.638a1.04 1.04 0 0 1-.109.347c-.14.288-.433.6-.827.936l-.093.075.026.018a.56.56 0 0 1 .235.527l-.006.037a.64.64 0 0 1-.036.125l-.003.007.045-.005a.3.3 0 0 1 .044 0l.106.01.056.016c.143.043.162.068.34.3l.033.15c.022.108.022.146.004.2l-.007.022.03.01c.117.046.22.13.285.248l.017.033a.56.56 0 0 1-.231.728l-1.57.765-2.8 1.302-.893.394-.217.094c-1.62.696-2.958 1.196-3.942 1.45-.603.156-1.077.222-1.44.18-.584-.067-.976-.457-.892-1.052a2.06 2.06 0 0 1 1.171-1.623l.078-.038h.003a.6.6 0 0 1 .02-.074l.035-.098.05-.074a.39.39 0 0 1 .104-.113l.06-.04a.31.31 0 0 1 .059-.032l.052-.02c.043-.015.083-.023.2-.04l.194-.03.728-.085.192-.017.062-.01.34-.052.237-.038-.08.004c-1.17.056-2.166-.073-2.635-.47l-.035-.03c-.35-.326-.5-.707-.23-1.096.173-.24.42-.33.78-.372l.06-.007c.4-.04.806-.03 1.842.033l.682.04c.807.044 1.254.048 1.57.003.464-.066 1.063-.256 1.7-.513l.06-.025-.164.018-2.266.154-1.418.06-1.316.08a.56.56 0 0 1-.601-.514.56.56 0 0 1 .514-.601l.283-.02.845-.05 1.615-.07c1.692-.077 2.542-.155 3.554-.347.183-.035.5-.2.94-.453l.13-.08.255-.16.553-.354.118-.074.4-.235zm-6.267 6.443l-.3.012c-2.023.1-2.8.308-3.016.963l-.003.01h.008a4.18 4.18 0 0 0 .814-.137l.075-.02c.582-.15 1.315-.4 2.176-.735l.238-.094z"/></g><path d="M20.398 18.815c2.6 1.58 1.387 3.097.392 6.385-1.116 3.69-2.402-.85-2.568-2.1-.47-3.56.254-4.987 2.176-4.284z"/><g class="D"><path d="M29.963 12.538l.545.046 2.274.182.176.016c.32.032.453.064.627.148l.028.014.08.04c.218.107.343.16.655.265l.184.06c.764.25 1.965.58 3.732 1.014l.127.03c.293.072.783.134 1.55.205l1.28.115.272.028a3.91 3.91 0 0 1 .647.107.7.7 0 0 1 .272.141c.246.21.3.585.052.84-.135.146-.264.2-.523.244-1.315.275-3.58.296-5.696.1l-.106-.01.004.003 1.148.716.146.08c.13.068.415.154.814.245l.13.03.926.19.075.016.063.015.028.007a.64.64 0 0 1 .226.093l.062.045c.07.054.082.08.186.317l-.01.13c-.02.228-.036.274-.144.377l-.062.057-.007.005.37.09.21.058.012.004c.068.025.126.05.18.082.138.08.24.173.293.364.023.083.03.16.023.23l-.004.03.015.013.035.036a.6.6 0 0 1-.118.919c-2.026 1.338-4.323 1.458-6.84.6-1.86-.634-3.624-1.684-5.864-3.32a.56.56 0 0 1-.122-.781.56.56 0 0 1 .781-.122l.29.21c2.018 1.453 3.626 2.39 5.275 2.953 1.696.58 3.234.654 4.628.15l.083-.03-.12-.025-.988-.216-.14-.033-.065-.006c-1.16-.1-1.98-.23-2.793-.433l-.094-.024c-1.204-.31-2.26-.684-3.213-1.16-.265-.133-.457-.27-.754-.525l-.14-.124-.13-.052-1.783-.74-.232-.1c-.05-.022-.094-.043-.136-.07-.135-.085-.228-.176-.27-.38s.03-.4.17-.53a.56.56 0 0 1 .235-.131c.067-.02.124-.025.188-.026.117-.002.285.02.488.054l.602.133.03.008-.002-.004a1.93 1.93 0 0 1-.149-.554l-.005-.053a.62.62 0 0 1 .312-.622l.01-.006-.024-.025-.03-.037c-.127-.162-.187-.382-.088-.594l.006-.012-.02-.002a.56.56 0 0 1-.476-.565l.002-.035a.56.56 0 0 1 .605-.509zm1.523 3.253l.025.018c.575.412 1.475.824 2.652 1.216l.057.02-.13-.056-.224-.098-.25-.112-2.13-.987zm1.242-1.908l.02.008c.46.204.91.462 1.392.785l.08.055.12.023 2.084.275.096.008-.54-.143-1.594-.458-.203-.065-.153-.05-.547-.203-.048-.02-.157-.07-.067-.033-.117-.06a.79.79 0 0 0-.248-.041l-.12-.01z"/><path d="M28.56 17.924a.56.56 0 0 1 .788.06.56.56 0 0 1-.032.762l-.028.026c-.117.1-.2.332-.243.633-.118 1.05-.13 2.06-.03 3.02.33 3.128 2.97 5.686 5.65 4.93.648-.183 1.736-1.463 2.8-3.265a22.79 22.79 0 0 0 1.132-2.17l.063-.143c.27-.615.428-1.1.436-1.254v-.015a.56.56 0 0 1 .545-.572.56.56 0 0 1 .572.545c.016.65-.743 2.395-1.734 4.088l-.052.1c-1.216 2.06-2.423 3.48-3.46 3.773-3.45.973-6.67-2.146-7.065-5.9-.1-1.042-.096-2.133.03-3.26.062-.555.254-1.037.626-1.356zm-9.012-2.15c.444-.233.9-.044 1.262.295a.56.56 0 0 1 .026.79.56.56 0 0 1-.762.05l-.096-.08-.013.013a1.24 1.24 0 0 0-.257.431l-.02.053c-.35.997-.6 1.98-.707 2.934-.215 1.757.4 3.746 1.566 4.94a.56.56 0 0 1-.009.79.56.56 0 0 1-.79-.009c-1.4-1.444-2.13-3.772-1.876-5.856a15.11 15.11 0 0 1 .762-3.17c.185-.527.48-.953.914-1.18z"/><path d="M26.644 14.92a.56.56 0 0 1 .737-.285.56.56 0 0 1 .285.737l-.08.176c-.88 1.946-1.847 3.396-4.033 6.28l-.572.753c-1.69 2.236-2.508 3.428-3.265 4.88l-.97 1.883-.315.626-.44.933c-.394.873-.662 1.598-.78 2.146-.06.28-.078.5-.058.644a.37.37 0 0 0 .02.086l.002.004.065.036c2.575 1.357 7.507-.775 9.342-3.666l.055-.09c.517-.847 1.325-.943 2.163-.475.277.155.55.36.867.638l.105.094.7.646c2.56 2.07 3.87 4.678 4.083 7.777.18 2.604-.405 5.482-1.647 8.8a.56.56 0 0 1-.719.327.56.56 0 0 1-.327-.719c2.544-6.798 2.234-11.725-1.963-15.21l-.128-.105c-.145-.117-.736-.668-.778-.706-.293-.262-.532-.446-.746-.566-.35-.195-.5-.187-.645.052l-.018.03c-.93 1.524-2.8 3.02-4.84 3.907-2.273.984-4.497 1.124-6.14.196-.597-.338-.692-1.02-.494-1.937.14-.642.43-1.43.854-2.37.116-.256.24-.52.375-.798l.16-.322 1.136-2.218c.845-1.65 1.713-2.913 3.628-5.436l.578-.762c2.067-2.736 2.965-4.11 3.795-5.987z"/><path d="M23.432 33.26a.56.56 0 0 1 .643.459c.372 2.234.4 4.355.173 6.735l-.356 2.697-.06.384-.103.625-.53 3.086-.176 1.074a.56.56 0 0 1-.64.464.56.56 0 0 1-.464-.64l.073-.452.105-.632.152-.89.312-1.805.14-.84.028-.172.408-3.014c.228-2.288.192-4.3-.163-6.44a.56.56 0 0 1 .459-.643z"/><path d="M33.49 38.127a.56.56 0 0 1 .76.218.56.56 0 0 1-.218.76l-.268.147c-4.332 2.356-6.678 2.46-11.007.397a.56.56 0 0 1-.264-.745.56.56 0 0 1 .745-.264l.242.114c3.916 1.824 5.893 1.656 10.01-.627z"/></g><path d="M28.922 18.184c2.6 1.58 4.18 4.212 3.186 7.5-1.116 3.69-3.778-1.333-3.944-2.584-.706-5.338.556-1.623.556-4.257"/></g></g></g></g><path d="M692.847 122.123C725.2 80.85 786.032 75.298 836.877 77.37s68.03 14.45 93.493 54.43 19.786 71.142 5.286 100.66c-7.256 14.772-20.272 27.36-36.773 37.392C890.125 275.177 877 282 914 293s-65.145-2.588-76.33-.378c-56.014 11.067-119.512 1.746-149.257-34.762-28.255-34.68-10.585-90.107-2.388-125.79l6.823-9.946z" fill="#fff" transform="matrix(-1 0 0 1 1621 0)"/><g transform="translate(761 95)"><path d="M34.287 61.392c-8.74 43.33-13.04 81.58-12.905 114.747.02 4.938 24.067-12.724 34.023-18.734 4.195-2.532 32.354 7.795 38.222 12.588 1.852 1.513-3.58-65.79-7.72-87.524-1.283-6.737-4.726-29.047-12.097-34.78-9.805-7.627-44.118 3.18-52.81 5.28l13.287 8.425z" stroke="#001c6c" stroke-width="2.322" class="L"/><g stroke-width="5.322" class="B"><path d="M39.703-.735l20.403 23.46C64.628 17.358 69.163 12.33 73.71 7.64h0l7.296 26.44c8.847-2.5 17.394-4.533 25.64-6.094h0L99.95 47.15 124 55.03l-23.97 13.228L121 96.346l-41.847-4.698L68.402 127l-13.76-19.924-20.563 16.19.054-28.647c-11.236-.242-21.345-.613-30.326-1.113h0l13.717-21.983L0 58.022l19.326-8.202L2.97 22.805l34.753 8.555 1.98-32.095z" stroke="#0d62fe" fill="#0d62fe"/><circle fill="#ffa300" cx="58.5" cy="63.5" r="31.5" class="J"/></g></g></g><path d="M931.497 529.4c-33.854 26.727-63.863 65.638-58.72 72.056 6.732 8.402 31.08 10.13 37.026 6.72C914.58 605.44 913 636.072 913 667.4l64.8-49.2" fill="#ff8100"/><g transform="matrix(-1 0 0 1 1310.200019 408.121576)"><path d="M469.99 37.42c10.374 0-1.9 92.592-8.415 111.173-8.262 23.568-27.76 18.484-48.807 18.484-6.686 0-12.426-.22-17.472-.802-10.954-13.28-25.976-28.482-41.842-41.008h0l2.35 13.684-1.378-2.134-1.64-2.65c-12.754 32.186-38.444 41.31-69.608 41.31-72.065 0-100.826-54.895-89.293-138.06H469.99zm-143.2 37.508h-97.363l-.03.477c-1.406 22.82 1.754 39.796 8.852 51.047l.377.587.36.54c8.495 12.53 23.6 19.064 47.557 19.064 17.668 0 29.364-12.302 36.376-42.94l.224-1.018c1.16-5.447 2.296-13.783 3.375-24.87l.208-2.18.064-.704zm115.646 0h-72.122l.035.142c10.88 44.62 25.54 62.407 53.998 63.147l.867.017 1.018.007c1.02 0 1.55-.216 2.508-1.128 2.02-1.92 4.234-5.71 6.27-11.52 3.87-11.036 6.372-27.27 7.335-48.475l.09-2.19z" fill="#fb3640" class="D"/><path d="M238.65 93.185c-2.416 42.197 35.095 52.937 45.494 14.096 7.934-29.633-35.3-32.444-48.942-14.096m144.698-6.72c.733 8.98.2 18.156 2.2 26.94 8.712 38.098 56.286 1.134 31.058-30.7" class="M"/><path d="M420 340.878c0-68.4-36.638-232.76-49.2-272.4-8.374-26.426-27.974-49.226-58.8-68.4H40.8v70.267c-55.973-15.592-50.094 70.278 0 76.133l-15.6 190.8c81.037 21.278 137.037 32.078 168 32.4 119.587 1.245 188.31-28.8 226.8-28.8z" fill="#ff8100"/><path d="M264.125 222.35c39.633 29.4 83.627 33.135 127.075 24.212m-124.243-36.484c-2.537 6.812-7.586 13.534-16 13.92" stroke-width="11.943" class="B C G"/></g><path d="M1196.652 449c4.002 0 5.24 9.2 3.717 27.6l-364.17-.167c.316-11.79 1.332-20.935 3.05-27.433h357.403z" fill="#fb3640" class="D"/><path d="M922.6 359c5.027 26.73-1.72 91.167 56.182 67.222 10.377-4.29 9.663-38.233 2.007-47.657-1.934-2.38-7.424-7.52-8.02-4.51l-8.536-.507c-1.498 7.582-5.957 38.182 5.525 49.664 15.358 15.358 50.295 19.85 60.197-3.01 6.182-14.273 12.24-59.74-19.06-50.16-2.733.836-2.832 5.176-3.01 8.03-.67 10.682-1.787 21.65.497 32.106 2.35 10.758 19.172 20.02 29.095 21.066 9.154.964 19.595 5.557 27.594 1.004 5.127-2.918 11.543-40.013.497-42.142-17.153-3.305-14.962 18.7-12.54 31.61.54 2.876 4.622 4.203 7.532 4.51 8.485.9 17.233.777 25.577-1.004 4.545-.97 8.3-4.27 12.043-7.025 5.157-3.794 10.285-7.764 14.547-12.54 5.5-6.163 11.34-12.45 14.547-20.062 2.345-5.57 3.306-12.295 1.5-18.065-2.436-7.827-25.876-3.644-26.094-3.508-13.256 8.322-18.28 59.672 5.018 61.2 17.178 1.127 30.418 3.138 39.13-13.037 3.616-6.712 11.062-21.134 9.033-30.605-.313-1.463-2.52-1.934-4.014-2.007-33.246-1.622-44.56 44.077-8.526 50.668 8.722 1.595 17.715 1.148 26.58 1.004 1.428-.023 2.912-.592 4.014-1.5 4.658-3.836 9.322-7.802 13.047-12.55 3.047-3.884 5.068-8.505 7.025-13.037 1.24-2.868 2.24-5.92 2.504-9.033.578-6.832 1.03-13.79 0-20.57-.216-1.42-2.084-2.312-3.508-2.504-31.632-4.267-40.063 45.735-23.58 54.175 43.094 22.067 58.542-5.148 55.686-42.142-.04-.528-1.21-.933-1.5-.497h-4.51c-7.51 10.858-14.972 44.6 4.014 47.16 6.132.827 12.375 0 18.562 0" stroke="#f4f2ee" stroke-width="13.219" class="B C"/><path d="M1147.7 447.8c-7.2-48-30-66.4-68.4-55.2-57.6 16.8 4.8-33.6 45.6-33.6s85.2 50.4 85.2 103.2" fill="#192bc2"/><path d="M1101.065 580.666c-30.8-70.184-14.373-112.5 49.278-126.95 95.477-21.674 133.976 35.608 120.116 85.15-3.903 13.953 1.54 55.734-84.697 77.408-15.547 3.907-43.78-7.962-84.697-35.608z" class="L"/></g></svg>