<svg xmlns="http://www.w3.org/2000/svg" xmlns:xlink="http://www.w3.org/1999/xlink" width="1581" height="1001" xmlns:v="https://vecta.io/nano"><style><![CDATA[.B{stroke-linejoin:round}.C{stroke-width:.6}.D{stroke-linecap:round}.E{fill-rule:nonzero}.F{stroke-width:.653}.G{stroke:#212121}.H{stroke:#001d75}.I{fill:#fff}.J{stroke:#ffc200}.K{fill:#06f}.L{fill:#001d75}.M{fill:#ff9d00}.N{opacity:.44}.O{fill:#212121}.P{fill:#ff5fa7}.Q{fill:#ff0025}.R{fill:#0d62fe}.S{stroke:#f4f2ee}.T{fill:#cce4ff}.U{fill:#00ffce}.V{fill:#42be65}.W{stroke-width:.819}.X{stroke-width:2.322}.Y{fill:#0064ff}.Z{mask:url(#Aj)}.a{fill:#ff243a}.b{stroke-width:9.953}.c{stroke:#000}.d{stroke:#ff5fa7}.e{fill:#d41c61}.f{fill:#001d71}.g{opacity:.414}.h{fill:#fb3640}.i{stroke-linecap:square}]]></style><defs><rect id="A" x="901" y="893" width="382" height="83" rx="3.6"/><filter x="-0.3%" y="-1.2%" width="100.5%" height="102.4%" id="B"><feGaussianBlur stdDeviation=".5" in="SourceAlpha"/><feOffset dy="1"/><feComposite in2="SourceAlpha" operator="arithmetic" k2="-1" k3="1"/><feColorMatrix values="0 0 0 0 0.880942166 0 0 0 0 0.881090164 0 0 0 0 0.880922616 0 0 0 0.5 0"/></filter><path d="M964.5 786H1283v25H964.5c-6.904 0-12.5-5.596-12.5-12.5s5.596-12.5 12.5-12.5z" id="C"/><path d="M1046 815h237v26h-237c-7.18 0-13-5.82-13-13s5.82-13 13-13z" id="D"/><path d="M1238.5 755h32c6.904 0 12.5 5.596 12.5 12.5V780h-44.5c-6.904 0-12.5-5.596-12.5-12.5s5.596-12.5 12.5-12.5z" id="E"/><path d="M1086.5 845H1283v12.5c0 6.904-5.596 12.5-12.5 12.5h-184c-6.904 0-12.5-5.596-12.5-12.5s5.596-12.5 12.5-12.5z" id="F"/><filter x="-7.3%" y="-70.0%" width="114.7%" height="240.0%" id="G"><feOffset dy="1" in="SourceAlpha"/><feGaussianBlur stdDeviation="2"/><feColorMatrix values="0 0 0 0 0 0 0 0 0 0.160784314 0 0 0 0 0.349019608 0 0 0 0.1 0" result="C"/><feMerge><feMergeNode in="C"/><feMergeNode in="SourceGraphic"/></feMerge></filter><filter x="-35.5%" y="-4.4%" width="171.1%" height="108.7%" id="H"><feOffset dy="5" in="SourceAlpha"/><feGaussianBlur stdDeviation="5"/><feColorMatrix values="0 0 0 0 0 0 0 0 0 0.164542109 0 0 0 0 0.362271488 0 0 0 0.1 0" result="C"/><feMerge><feMergeNode in="C"/><feMergeNode in="SourceGraphic"/></feMerge></filter><path id="I" d="M543 0h503v260H543z"/><filter x="-0.7%" y="-1.0%" width="101.4%" height="102.7%" id="J"><feOffset dy="1" in="SourceAlpha"/><feGaussianBlur stdDeviation="1"/><feColorMatrix values="0 0 0 0 0 0 0 0 0 0.164542109 0 0 0 0 0.362271488 0 0 0 0.1 0"/></filter><path id="K" d="M1 0h503v260H1z"/><path d="M24.4.445h998.655c12.136.74 21.6 10.84 21.6 23v642.5c0 12.16-9.464 20.817-21.6 21.558H24.4c-12.68.773-23.584-8.88-24.357-21.558-.028-.466-.043.467-.043 0v-642.5c0-12.703 10.297-23 23-23 .467 0 .934-.028 1.4 0z" id="L"/><path d="M.167 1.27C.06 16.034 6.71 24.05 20.12 25.322c10.382.984 15.89-7.334 16.527-24.953L.167 1.27z" id="M"/><path id="N" d="M995 478h116.5c6.904 0 12.5 5.596 12.5 12.5s-5.596 12.5-12.5 12.5H970c0-13.807 11.193-25 25-25z"/><path id="O" d="M970 427h103c7.18 0 13 5.82 13 13s-5.82 13-13 13h-77c-14.36 0-26-11.64-26-26h0z"/><path id="P" d="M930 398c-16.016 0-29 12.76-29 28.5s12.984 28.5 29 28.5 29-12.76 29-28.5-12.984-28.5-29-28.5z"/><path id="Q" d="M943.736 408.9c-.7 15.28-17.678 20.945-6.826 30.902 2.593 2.38-14.22 2.413-12.777 0 7.7-12.876-.35-15.623-.175-29.53.02-1.64.257-3.178.677-4.59 8.452-.234 14.644-.02 18.576.642.313.053.488.91.525 2.575z"/><path id="R" d="M946.01 407.095c-.93 3.96-2.7 8.017-3.042 12.083-.248 2.947-.11 5.913-.166 8.87"/><path id="S" d="M944.94 406.964c-2.086 5.142-2.895 9.768-3.092 15.324-.155 4.366-.6 3.3.288 5.105"/><path id="T" d="M942.133 410.107c-1.958 7.92-2.048 10.478-.678 18.596"/><path id="U" d="M941.33 429.62c-4.858-4.274-2.823-11.74-1.52-17.024"/><path id="V" d="M931.913 408.798c.296 1.43.215 2.387-.24 2.874-2.424 2.586-3.367 3.58-6.092 7.264-.037.05-.026.182.037.183.302.003.64-.007.89-.174 1.748-1.172 3.1-2.954 5.035-3.8 2.605-1.138-3.573 2.795-2.078 3.56.61.313 11.293-1.127 7.84-.45s-8.582 1.61-8.152 2.162c1.796 2.297 2.248 3.348 1.796 5.405"/><path id="W" d="M925.425 411.548c-1.57 4.085-3.668 14.038-9.846 15.2-.078.015-.12-.104-.178-.156"/><path id="X" d="M924.5 408.798c-1.42 6.898-3.52 12.994-9.356 17.024"/><path id="Y" d="M923.688 406.18c-1.814 6.424-2.73 13.41-8.287 17.8"/><path id="Z" d="M921.817 406.44c-1.676 6.89-1.86 11.422-6.817 16.238"/><path id="a" d="M923.53 405.057c-.757 0 .456 4.58.93 5.637.402.894 1.5 1.35 3.322 1.366 2.006.06 3.4-.388 4.185-1.346l.12-.15c.93 1.832 2.807 2.35 5.083 2.35 5.262 0 7.362-3.124 6.52-7.857h-20.16zm9.29 1.748l8.95-.123.003.032c.12 1.51-.148 2.63-.75 3.375l-.062.074c-.72.828-2.06 1.26-4.088 1.26-1.388 0-3.008-.53-3.708-2.23l-.164-.48c-.078-.288-.074-.746-.116-1.293l-.065-.616zm-7.874.148h6.493l-.01.936c-.053 2.105-.51 3.045-4.315 3.122l-.7.007c-.092 0-.14-.014-.226-.072-.182-.123-.38-.367-.564-.74-.3-.607-.507-1.46-.615-2.548l-.054-.704z"/><path id="b" d="M930.804 408.446c.07 1.113-1.034 1.396-1.34.372-.234-.782 1.04-.856 1.442-.372"/><path id="c" d="M921.164 442.54c-.858 1.23-4.458.912-2.53-1.583s3.388.352 2.53 1.583z"/><path id="d" d="M925.373 444.65c-.882 1.188-4.103.43-2.12-1.976s3.002.788 2.12 1.976z"/><path id="e" d="M931.51 445.358c-.892 1.234-4.1.675-2.094-1.825s2.987.59 2.094 1.825z"/><path id="f" d="M937.914 444.592c-.907 1.214-3.995.582-2.676-1.56s3.584.347 2.676 1.56z"/><path id="g" d="M942.485 443.147c-.862 1.2-3.53.625-2.542-1.544s3.403.343 2.542 1.544z"/><path id="h" d="M28.26 0C12.652 0 0 12.528 0 27.98s12.652 27.98 28.26 27.98 28.26-12.528 28.26-27.98S43.867 0 28.26 0z"/><path id="i" d="M36.302 20.807c6.505 4.018 11.075 12.355 13.71 25.01-5.183 6.272-13.06 10.272-21.88 10.272A28.31 28.31 0 0 1 5.995 45.502c.476-3.185 1.12-5.994 1.933-8.432.878-2.633 3.662-7.152 8.352-13.556l1.432-1.934c6.68.354 12.52.105 17.446-.598l1.143-.174z"/><path id="j" d="M14.805 42.36c3.855 1.965 6.338-.548 8.937-3.28"/><path id="k" d="M28.08 39.522c.53 2.268.862 3.69 2.174 5.52.03.044-.105.026-.158.04"/><path id="l" d="M32.686 44.337c-2.627-1.546-1.05-.382-3.993-4.306"/><path id="m" d="M38.102 43.22c-3.57-.24-7.248-1.523-9.963-3.875"/><path id="n" d="M38.418 41c-1.88.266-5.717 2.165-10.2-1.918"/><path id="o" d="M38.28 38.328c-4.914.98-1.88.592-9.172.41"/><path id="p" d="M18.51 45.42c2.192-1.727 5.426-3.64 5.997-6.66"/><path id="q" d="M21.652 45.387c2.607-1.705.772-.3 3.755-5.82"/><path id="r" d="M24.54 45.538c1.976-3.807 1.324-1.932 2.158-5.55"/><path id="s" d="M27.667 45.1c-1.477-2.973-.935-1.272-1.29-5.198"/><path id="t" d="M30.623 44.958c-2.27-3.04-1.168-1.238-3.024-5.568"/><path id="u" d="M17.15 36.673c1.99 1.164 4.743 3.315 6.915 1.38"/><path id="v" d="M15.995 39.297c1.266.335 7.662 2.2 7.544-.993"/><path id="w" d="M20.687 22.4c-.15 1.35-.15 2.193 0 2.532.955 2.153 2.448 1.435 3.07-.886"/><path id="x" d="M24.78 20.89c-2.898 12.408-2.685 18.612.64 18.612s4.476-2.195 3.453-6.584l-.51-11.268c1.534 5.318 2.984 5.57 4.348.76"/><path id="y" d="M14.55 32.75c-.738-.377-1.165-.714-1.28-1.013-.607-1.59.618-2.45 2.813-1.266.085-1.857.8-2.996 2.174-3.42s1.62.717.767 3.42c1.357-.2 2.2-.2 2.557 0 1.164.67.624 2.3-1.8 3.292 1.193 1.013 1.364 2.068.51 3.165s-1.875.59-3.07-1.52c-1.705 2.026-3.026 2.532-3.964 1.52s-.51-2.406 1.28-4.178z"/><path id="z" d="M33.48 30.935c-.774-.393-1.22-.746-1.34-1.058-.634-1.662.653-2.567 2.953-1.33.092-1.944.854-3.138 2.286-3.582s1.698.75.8 3.578c1.424-.21 2.318-.213 2.682-.004 1.22.698.65 2.408-1.883 3.45 1.25 1.058 1.427 2.163.53 3.313s-1.968.622-3.217-1.586c-1.792 2.124-3.178 2.656-4.16 1.597s-.533-2.518 1.348-4.376z"/><path id="AA" d="M37.224 21.117c5.266-.934 8.207-1.61 8.823-2.026l-1.15-3.165-9.6 1.9c-.597-9.2-2.26-13.8-4.987-13.8-.887 0-1.9 1.266-3.07 3.798C25.63 2.927 23.925 2 22.135 5.038s-2.728 7.64-2.813 13.8c-2.816-.1-4.905-.207-6.266-.353s-2.427-.366-3.197-.66v2.912c-.137.14.81.34 2.84.598a80.11 80.11 0 0 0 6.112.541c2.472.187 8.6-.066 18.414-.76z"/><path id="AB" d="M930.008 478.494c-15.318 0-27.736 12.418-27.736 27.736s12.418 27.736 27.736 27.736 27.736-12.418 27.736-27.736-12.418-27.736-27.736-27.736z"/><path id="AC" d="M925.232 495.427c-6.294 0-11.92 1.644-16.12 4.26-1.7 1.06-3.05 2.224-3.83 3.287-.47.64-.755 1.262-.79 1.914-.057 1.104.664 2.008 1.762 2.234l.095.02c.717.134 1.77.185 4.232.248l2.23.06c2.63.072 3.693.12 5.374.232l.34.023.295.02c2.543.188 4.673.467 6.365.856l.118.028v9.72c.227 2.288 2.724 3.432 7.49 3.432s10.19-1.326 16.274-3.98l-.845-7.206.06-.015c.868-.23 1.603-.55 2.206-.98 1.144-.814 1.762-2 1.762-3.372 0-1.592-.905-2.792-2.453-3.192l-.06-.015c-.663-.16-1.427-.178-2.308-.065l-.1.013-.157-1.34-.555-.435c-4.922-3.856-12.063-5.746-21.386-5.746z"/><path id="AD" d="M920.904 497.488c2.442.14 2.06.195 3.803-1.484"/><path id="AE" d="M921.14 498.722c1.92-.135 2.122-.86 3.438-2.452"/><path id="AF" d="M925.42 496.175c.483 1.22 1.312 1.304 2.598 1.203"/><path id="AG" d="M925.42 496.19c.284 2.13-.218 1.238 1.648 2.593"/><path id="AH" d="M922.108 492.286c2.287-2.07 3.462.68 3.216 2.452-.297 2.14-2.062 3.795-3.724 4.967-.023.016-1.474.983-1.9.61-1.027-.898-.62-2.918-.2-4.124s1.536-2.944 2.598-3.905z"/><path id="AI" d="M925.134 496.77c.378-1.144.63-2.6 1.664-3.405 2.22-1.752 4.367-1.174 3.755 1.843-.335 1.65-1.727 3.6-2.947 4.748-1.583 1.49-2.962-.547-2.725-2.03.115-.72.39-1.406.586-2.11"/><path id="AJ" d="M932.866 495.316c.52 3.013.812 5.32 2.852 7.7 3 3.5 9.632 2.028 12.406-.968"/><path id="AK" d="M935.416 495.707c-.554 4.005-.218 8.533 4.912 9.216.355.047 2.72.173 3.596-.125 2.12-.722 2.208-1.158 4.23-2.78"/><path id="AL" d="M936.35 495.738c1.793 3.664 6.573 12.176 11.36 6.64"/><path id="AM" d="M938.728 496.175c.42 2.25.632 4.53 2.155 6.373 2.017 2.443 6.13 1.942 7.843-.437"/><path id="AN" d="M939.9 496.582c1.15 2.866 3.325 7.674 7.272 6.076"/><path id="AO" d="M941.3 496.878c.955 1.49 2.927 5.277 4.896 5.67.766.153 1.563-.02 2.345-.03"/><path id="AP" d="M924.516 509.64c1.932-.67 3.5.71 5.466.36.956-.17 2.123-1.197 2.82-1.718"/><path id="AQ" d="M922.873 517.65l8.07 4.122 12.662-4.122-.745 8.702-11.917-3.32-10.18 3.32z"/><path id="AR" d="M930 237c-16.016 0-29 12.984-29 29s12.984 29 29 29 29-12.984 29-29-12.984-29-29-29z"/><path id="AS" d="M930.804 694.53c.07 1.14-1.034 1.43-1.34.38-.234-.8 1.04-.877 1.442-.38"/><path id="AT" d="M20.703 0C9.27 0 0 9.178 0 20.5s9.27 20.5 20.703 20.5 20.703-9.178 20.703-20.5S32.137 0 20.703 0z"/><path id="AU" d="M20 13.792c2.454 0 5.468-.153 9.042-.458l.927-4.508h-4.02l.31-6.57H3.992L3.856 5.9C1.285 5.2 0 5.523 0 6.9S1.15 9.095 3.45 9.36l.773 3.515c8.057.61 13.312.917 15.766.917z"/><path id="AV" d="M.158.523c-.11 1.92 1.612 2.407 2.09.64C2.612-.183.626-.31 0 .523"/><path id="AW" d="M6.645.218c.034.408.01.826.1 1.225.4 1.732 2.585.052 1.426-1.396"/><path id="AX" d="M26.807.001c.476 0-.087 4.2-.386 5.055-.38 1.072-1.275.84-2.24.84a7.16 7.16 0 0 1-.805-.037 13.09 13.09 0 0 0-1.487-1.51l-.43-.355.107.62-.138-.216c-.586 1.463-1.765 1.878-3.196 1.878-3.31 0-4.63-2.496-4.1-6.277h12.68zM20.23 1.706h-4.47v.022c-.057.908.048 1.612.293 2.117l.148.255c.4.57 1.084.867 2.184.867.75 0 1.264-.477 1.592-1.646l.088-.353.063-.36.062-.484.043-.42zm5.31 0H22.23c.47 1.91 1.09 2.738 2.244 2.862l.324.017c.047 0 .07-.01.115-.05.093-.087.194-.26.288-.524.152-.43.258-1.034.314-1.805l.027-.5z"/><path id="AY" d="M21.97 4.913c1.555 1.215 2.933 2.984 2.697 3.276-.31.382-1.427.46-1.7.306-.22-.125-.12.044-.12 1.47"/><path id="AZ" d="M18.575 8.77c1.82 1.337 3.84 1.507 5.835 1.1"/><path id="Aa" d="M20.524 12.2c.4 1.543 1.3 2.516 2.284 3.808"/><path id="Ab" d="M22.116 12.032c1.064 3.334.828 1.912 1.07 4.192"/><path id="Ac" d="M23.44 12.272c.318 3.24.28 1.893.28 4.036"/><path id="Ad" d="M25.834 12.393c-.088 1.57-.506 2.824-1.3 4.18"/><path id="Ae" d="M26.916 12.236c-.145 1.533-.587 3.01-1.628 4.204"/><path id="Af" d="M27.51 13.882c-1.287 1.707-1.442 2.23-3.366 2.68"/><path id="Ag" d="M10.212 2.447c-.05.8.726.99.94.264.164-.555-.73-.607-1.013-.264"/><path id="Ah" d="M20.198 0C9.043 0 0 8.954 0 20s9.043 20 20.198 20 20.198-8.954 20.198-20S31.353 0 20.198 0z"/><path id="Ai" d="M3.172 7.12c-.12-.784.02-1.324.42-1.62.73-.54 1.7.386 1.81 1.072.117.81-.525 2.072-1.14 1.87-.6-.195-.953-.635-1.088-1.32z"/></defs><g transform="translate(1 22)" fill="none" fill-rule="evenodd"><g transform="translate(180)"><path stroke="#0064ff" opacity=".232" d="M901.5 27.5h381" class="B D"/><use xlink:href="#A" class="I"/><use fill-opacity=".054" xlink:href="#A" class="Y"/><use fill="#000" filter="url(#B)" xlink:href="#A"/><rect x="1214" y="909" width="50" height="51" rx="11" class="Y"/><path d="M1252.333 923.015l-28.124 6.42c-.638.143-1.117.663-1.197 1.294s.257 1.244.844 1.533l7.987 3.935.817 7.895c.065.635.534 1.16 1.168 1.316s1.307-.1 1.676-.616l.242-.24-1.615-6.025c-.068-.785.332-1.538 1.032-1.94l6.94-3.987-5.547 5.198a1.49 1.49 0 0 0-.436 1.43l2.53 10.6c.146.62.682 1.084 1.332 1.162s1.282-.25 1.58-.82l13.212-25.033c.063-.093.115-.192.155-.295.138-.35.052-.886-.105-1.255-.195-.455-1.026-.645-2.492-.572z" class="I"/><g class="S V"><path d="M995 684h238.5c6.904 0 12.5 5.596 12.5 12.5s-5.596 12.5-12.5 12.5H970c0-13.807 11.193-25 25-25z" class="N"/><use xlink:href="#N" class="N"/><use xlink:href="#N" y="-80" class="N"/><use xlink:href="#O" class="N"/></g><use xlink:href="#P" class="E T"/><use xlink:href="#Q" class="P"/><g class="B D C"><g class="J"><use xlink:href="#R"/><use xlink:href="#S"/><use xlink:href="#T"/><use xlink:href="#U"/></g><use xlink:href="#V" class="G"/><g class="J"><use xlink:href="#W"/><use xlink:href="#X"/><use xlink:href="#Y"/><use xlink:href="#Z"/></g></g><use xlink:href="#a" class="E U"/><g class="O"><use xlink:href="#b"/><use xlink:href="#b" x="3.876"/></g><g class="Q"><use xlink:href="#c"/><use xlink:href="#d"/><use xlink:href="#e"/><use xlink:href="#f"/><use xlink:href="#g"/></g><g transform="translate(902 399)"><use xlink:href="#h" class="E K"/><use xlink:href="#i" class="M"/><g class="B D H W"><use xlink:href="#j"/><use xlink:href="#k"/><use xlink:href="#l"/><use xlink:href="#m"/><use xlink:href="#n"/><use xlink:href="#o"/><use xlink:href="#p"/><use xlink:href="#q"/><use xlink:href="#r"/><use xlink:href="#s"/><use xlink:href="#t"/><use xlink:href="#u"/><use xlink:href="#v"/><use xlink:href="#w"/><use xlink:href="#x" class="M"/></g><g class="P d B W"><use xlink:href="#y"/><use xlink:href="#z" transform="matrix(-.987688 .156434 .156434 .987688 67.900437 -5.34388)"/></g><g class="e"><ellipse cx="17.427" cy="32.688" rx="1.598" ry="1.583"/><ellipse cx="36.55" cy="30.638" rx="1.598" ry="1.583"/></g><use xlink:href="#AA" class="L"/></g><g class="E"><use xlink:href="#AB" class="K"/><use xlink:href="#AC" class="M"/></g><g class="B D F H"><use xlink:href="#AD"/><use xlink:href="#AE"/><use xlink:href="#AF"/><use xlink:href="#AG"/></g><g stroke="#fff" class="B F"><use xlink:href="#AH"/><use xlink:href="#AI" class="D"/></g><g class="H B F"><use xlink:href="#AJ" class="D"/><use xlink:href="#AK" class="D"/><use xlink:href="#AL" class="D"/><use xlink:href="#AM" class="D"/><use xlink:href="#AN" class="D"/><use xlink:href="#AO" class="D"/><use xlink:href="#AP" class="D"/><use xlink:href="#AQ" class="L"/></g><g class="S V"><use xlink:href="#N" y="-160" class="N"/><use xlink:href="#O" y="-80" class="N"/></g><use xlink:href="#P" y="-80" class="E T"/><use xlink:href="#Q" y="-80" class="P"/><g class="B D C"><g class="J"><use xlink:href="#R" y="-80"/><use xlink:href="#S" y="-80"/><use xlink:href="#T" y="-80"/><use xlink:href="#U" y="-80"/></g><use xlink:href="#V" y="-80" class="G"/><g class="J"><use xlink:href="#W" y="-80"/><use xlink:href="#X" y="-80"/><use xlink:href="#Y" y="-80"/><use xlink:href="#Z" y="-80"/></g></g><use xlink:href="#a" y="-80" class="E U"/><g class="O"><use xlink:href="#b" y="-80"/><use xlink:href="#b" x="3.876" y="-80"/></g><g class="Q"><use xlink:href="#c" y="-80"/><use xlink:href="#d" y="-80"/><use xlink:href="#e" y="-80"/><use xlink:href="#f" y="-80"/><use xlink:href="#g" y="-80"/></g><g class="S V"><use xlink:href="#N" y="-240" class="N"/><use xlink:href="#O" y="-160" class="N"/></g><use xlink:href="#P" y="-160" class="E T"/><use xlink:href="#Q" y="-160" class="P"/><g class="B D C"><g class="J"><use xlink:href="#R" y="-160"/><use xlink:href="#S" y="-160"/><use xlink:href="#T" y="-160"/><use xlink:href="#U" y="-160"/></g><use xlink:href="#V" y="-160" class="G"/><g class="J"><use xlink:href="#W" y="-160"/><use xlink:href="#X" y="-160"/><use xlink:href="#Y" y="-160"/><use xlink:href="#Z" y="-160"/></g></g><use xlink:href="#a" y="-160" class="E U"/><g class="O"><use xlink:href="#b" y="-160"/><use xlink:href="#b" x="3.876" y="-160"/></g><g class="Q"><use xlink:href="#c" y="-160"/><use xlink:href="#d" y="-160"/><use xlink:href="#e" y="-160"/><use xlink:href="#f" y="-160"/><use xlink:href="#g" y="-160"/></g><use xlink:href="#AR" class="E K"/><path d="M911.044 281.24c-4.17-13.66 10.305-31.283 20.77-34.45 15.892-4.81 20.055 22.725 19.34 22.996-4.404 1.672-17.775 5.5-40.11 11.455z" class="L"/><path d="M944.138 258.408c.717 5.682-4.886 20.023-10.802 19.235-4.97-.662-7.864-4.854-9.397-9.34-.26-.76-4.098 1.22-4.625-2.308s3.662-1.312 3.552-1.96c-.368-2.165-.34-4.002-.284-5.47.01-.232 1.263-.948 3.945-1.37 1.2-.19 2.685-.32 4.473-.322 2.55-.003 5.4.246 7.79.547.688.087.058-6.28.653-6.19.605.092 2.43 6.64 2.9 6.726 1.104.202 1.783.374 1.793.45z" fill="#f1f4f6"/><g class="B C D G"><path d="M936.024 259.986c.324 3.096 2.63 2.078 2.63.01"/><path d="M936.155 261.685l-.8 1.045m1.975-.653l-.526 1.7m1.183-1.962l.395 1.437"/></g><path d="M934.05 258.8l3.874 5.66c.198.242.58.53.465.828-.106.274-2.618.48-2.84.038-.114-.23-.147-1.025-.14-.765.047 1.6.188 2.607.423 3.024" fill="#f3fff6" class="B C D H"/><g class="B C D G"><path d="M929.107 260.076c-.49 2.052 2.425 2.31 2.97-.22"/><path d="M929.446 261.554l-.92.653m1.9-.523l-.1 1.176m.962-1.306l.395.915"/></g><path d="M934.048 268.148c.855.094.595 1.283 1.264 1.124.337-.08.62-.45.962-.4.52.093 1.24.553 2.16 1.38l-2.478 1.136c-1.558.746-6.33-1.903-7.433-2.894l3.91 1.244c6.09.867 4.787.453-3.91-1.244 1.508-.83 4.67-.45 5.524-.355z" class="a"/><g class="S V"><use xlink:href="#N" y="-320" class="N"/><use xlink:href="#O" y="-240" class="N"/></g><use xlink:href="#P" y="-240" class="E T"/><use xlink:href="#Q" y="-240" class="P"/><g class="B D C"><g class="J"><use xlink:href="#R" y="-240"/><use xlink:href="#S" y="-240"/><use xlink:href="#T" y="-240"/><use xlink:href="#U" y="-240"/></g><use xlink:href="#V" y="-240" class="G"/><g class="J"><use xlink:href="#W" y="-240"/><use xlink:href="#X" y="-240"/><use xlink:href="#Y" y="-240"/><use xlink:href="#Z" y="-240"/></g></g><use xlink:href="#a" y="-240" class="E U"/><g class="O"><use xlink:href="#b" y="-240"/><use xlink:href="#b" x="3.876" y="-240"/></g><g class="Q"><use xlink:href="#c" y="-240"/><use xlink:href="#d" y="-240"/><use xlink:href="#e" y="-240"/><use xlink:href="#f" y="-240"/><use xlink:href="#g" y="-240"/></g><path d="M930.5 157c-16.292 0-29.5 12.984-29.5 29s13.208 29 29.5 29 29.5-12.984 29.5-29-13.208-29-29.5-29z" class="E K"/><path d="M937.26 194.342c3.47 0 7.73-.214 12.783-.643l1.31-6.32h-5.68l.437-9.21h-31.465l-.192 5.108c-3.634-.994-5.45-.527-5.45 1.4s1.626 3.078 4.878 3.45l1.093 4.927c11.4.857 18.82 1.285 22.288 1.285z" class="M"/><path d="M932.783 178.054c-.157 2.7 2.278 3.374 2.953.898.515-1.9-2.292-2.068-3.177-.898m9.394-.428c.048.572.012 1.157.143 1.717.566 2.428 3.654.072 2.016-1.957" class="O"/><path d="M946.896 175.01c.673 0-.123 5.9-.546 7.086-.536 1.502-1.802 1.178-3.168 1.178-.436 0-.8-.014-1.138-.052-.566-.677-1.303-1.433-2.103-2.116l-.6-.497.15.87-.195-.303c-.828 2.05-2.496 2.633-4.52 2.633-4.678 0-6.545-3.5-5.797-8.8h17.924zm-9.296 2.39h-6.32l-.002.03c-.08 1.273.067 2.26.414 2.968l.21.358c.55.8 1.532 1.215 3.087 1.215 1.06 0 1.787-.668 2.25-2.307l.125-.495.09-.504c.03-.197.06-.423.087-.678l.06-.587zm7.507 0h-4.682c.665 2.675 1.542 3.838 3.172 4.012l.458.023c.066 0 .1-.014.163-.072.13-.122.275-.364.407-.734.215-.603.365-1.45.443-2.53l.04-.7z" class="E Q"/><g class="B C D"><path d="M940.06 181.895c2.198 1.703 4.146 4.184 3.812 4.593-.437.535-2.018.646-2.404.428-.3-.175-.17.062-.17 2.06m-6.038-1.676c2.573 1.874 5.43 2.112 8.25 1.543" class="G"/><g class="H"><path d="M938.014 192.1c.55 2.163 1.852 3.527 3.23 5.338m-.98-5.564c1.505 4.673 1.17 2.68 1.512 5.876m.36-5.54c.45 4.544.395 2.654.395 5.657m1.598-5.657l-1.03 6.213m2.42-6.043c-.124 2.202-.715 3.96-1.838 5.86m3.368-6.08c-.205 2.148-.83 4.218-2.302 5.893"/><path d="M947.89 194.467c-1.82 2.393-2.04 3.126-4.758 3.755"/></g><path d="M935.443 186.518c-.165.434-.492.863-1.04.887" class="G"/></g><use xlink:href="#C" class="I"/><use xlink:href="#C" class="R"/><rect x="971" y="609" width="312" height="25" rx="12.5" class="Y"/><path d="M970 715h166.5c6.904 0 12.5 5.596 12.5 12.5s-5.596 12.5-12.5 12.5H995c-13.807 0-25-11.193-25-25h0zm0-208h103c7.18 0 13 5.82 13 13s-5.82 13-13 13H970v-26zm0 31h299.5c6.904 0 12.5 5.596 12.5 12.5s-5.596 12.5-12.5 12.5H970v-25zm0 29h151c7.18 0 13 5.82 13 13s-5.82 13-13 13H996c-14.36 0-26-11.64-26-26h0z" class="N S V"/><use xlink:href="#D" class="I"/><use xlink:href="#D" class="R"/><use xlink:href="#E" class="I"/><use xlink:href="#E" class="R"/><use xlink:href="#F" class="I"/><use xlink:href="#F" class="R"/><g filter="url(#G)" transform="translate(0 730)" class="f"><rect width="142.892" height="14.531" rx="7.266"/></g><use xlink:href="#AR" y="447" class="E T"/><path d="M943.736 694.985c-.7 15.652-17.678 21.456-6.826 31.656 2.593 2.438-14.22 2.472-12.777 0 7.7-13.2-.35-16.004-.175-30.25.02-1.68.257-3.256.677-4.703 8.452-.24 14.644-.02 18.576.658.313.054.488.933.525 2.638z" class="P"/><g class="B D C"><path d="M946 693.146c-.93 4.055-2.7 8.212-3.042 12.378-.248 3.02-.1 6.057-.166 9.086m2.138-21.598c-2.086 5.267-2.895 10.006-3.092 15.698-.155 4.472-.6 3.38.288 5.23m-.003-17.708c-1.958 8.112-2.048 10.733-.678 19.05m-.125.938c-4.858-4.38-2.823-12.025-1.52-17.44" class="J"/><path d="M931.913 694.9c.296 1.464.215 2.446-.24 2.945-2.424 2.65-3.367 3.67-6.092 7.44-.037.052-.026.187.037.187.302.003.64-.007.89-.178 1.748-1.2 3.1-3.026 5.035-3.892 2.605-1.166-3.573 2.863-2.078 3.648.61.32 11.293-1.154 7.84-.462s-8.582 1.65-8.152 2.215c1.796 2.353 2.248 3.43 1.796 5.536" class="G"/><path d="M925.425 697.707c-1.57 4.185-3.668 14.38-9.846 15.56-.078.015-.12-.106-.178-.16m9.1-18.207c-1.42 7.066-3.52 13.3-9.356 17.44m8.544-20.133c-1.814 6.58-2.73 13.736-8.287 18.244m6.416-17.975c-1.676 7.057-1.86 11.7-6.817 16.635" class="J"/></g><path d="M923.53 691.058c-.757 0 .456 4.69.93 5.774.402.916 1.5 1.383 3.322 1.4 2.006.062 3.4-.398 4.185-1.38l.12-.154c.93 1.876 2.807 2.408 5.083 2.408 5.262 0 7.362-3.2 6.52-8.05h-20.16zm9.29 1.79l8.95-.126.003.032c.12 1.546-.148 2.695-.75 3.457l-.062.076c-.72.85-2.06 1.29-4.088 1.29-1.388 0-3.008-.544-3.708-2.284l-.164-.492c-.078-.295-.074-.764-.116-1.324l-.065-.63zm-7.874.152h6.493l-.01.96c-.053 2.156-.51 3.12-4.315 3.198l-.7.007a.33.33 0 0 1-.226-.074c-.182-.126-.38-.376-.564-.757-.3-.622-.507-1.495-.615-2.6l-.054-.722z" class="E U"/><g class="O"><use xlink:href="#AS"/><use xlink:href="#AS" x="3.876"/></g><path d="M921.164 729.456c-.858 1.26-4.458.934-2.53-1.622s3.388.36 2.53 1.622zm4.21 2.16c-.882 1.217-4.103.442-2.12-2.025s3.002.807 2.12 2.025zm6.137.726c-.892 1.264-4.1.7-2.094-1.87s2.987.606 2.094 1.87zm6.404-.785c-.907 1.243-3.995.596-2.676-1.6s3.584.355 2.676 1.6zm4.57-1.48c-.862 1.23-3.53.64-2.542-1.58s3.403.35 2.542 1.58z" class="Q"/><use xlink:href="#P" y="80" class="E T"/><use xlink:href="#Q" y="80" class="P"/><g class="B D C"><g class="J"><use xlink:href="#R" y="80"/><use xlink:href="#S" y="80"/><use xlink:href="#T" y="80"/><use xlink:href="#U" y="80"/></g><use xlink:href="#V" y="80" class="G"/><g class="J"><use xlink:href="#W" y="80"/><use xlink:href="#X" y="80"/><use xlink:href="#Y" y="80"/><use xlink:href="#Z" y="80"/></g></g><use xlink:href="#a" y="80" class="E U"/><g class="O"><use xlink:href="#b" y="80"/><use xlink:href="#b" x="3.876" y="80"/></g><g class="Q"><use xlink:href="#c" y="80"/><use xlink:href="#d" y="80"/><use xlink:href="#e" y="80"/><use xlink:href="#f" y="80"/><use xlink:href="#g" y="80"/></g><g transform="translate(902 399)"><use xlink:href="#h" class="E K"/><use xlink:href="#i" class="M"/><g class="B D H W"><use xlink:href="#j"/><use xlink:href="#k"/><use xlink:href="#l"/><use xlink:href="#m"/><use xlink:href="#n"/><use xlink:href="#o"/><use xlink:href="#p"/><use xlink:href="#q"/><use xlink:href="#r"/><use xlink:href="#s"/><use xlink:href="#t"/><use xlink:href="#u"/><use xlink:href="#v"/><use xlink:href="#w"/><use xlink:href="#x" class="M"/></g><g class="P d B W"><use xlink:href="#y"/><use xlink:href="#z" transform="matrix(-.987688 .156434 .156434 .987688 67.900437 -5.34388)"/></g><g class="e"><ellipse cx="17.427" cy="32.688" rx="1.598" ry="1.583"/><ellipse cx="36.55" cy="30.638" rx="1.598" ry="1.583"/></g><use xlink:href="#AA" class="L"/></g><g class="E"><use xlink:href="#AB" class="K"/><use xlink:href="#AC" class="M"/></g><g class="B D F H"><use xlink:href="#AD"/><use xlink:href="#AE"/><use xlink:href="#AF"/><use xlink:href="#AG"/></g><g stroke="#fff" class="B F"><use xlink:href="#AH"/><use xlink:href="#AI" class="D"/></g><g class="H B F"><use xlink:href="#AJ" class="D"/><use xlink:href="#AK" class="D"/><use xlink:href="#AL" class="D"/><use xlink:href="#AM" class="D"/><use xlink:href="#AN" class="D"/><use xlink:href="#AO" class="D"/><use xlink:href="#AP" class="D"/><use xlink:href="#AQ" class="L"/></g><g transform="translate(1295)"><g filter="url(#H)"><g transform="translate(20.75 393.445)"><g transform="translate(0 .685)"><use xlink:href="#AT" class="E K"/><g transform="translate(5.714 12.8)"><g transform="translate(0 .006)"><use xlink:href="#AU" class="M"/><g transform="translate(16.665 1.65)" class="O"><use xlink:href="#AV"/><use xlink:href="#AW"/></g><use xlink:href="#AX" class="E Q"/><g class="B C D G"><use xlink:href="#AY"/><use xlink:href="#AZ"/></g><g class="H B C D"><use xlink:href="#Aa"/><use xlink:href="#Ab"/><use xlink:href="#Ac"/><path d="M24.85 12.272l-.73 4.432"/><use xlink:href="#Ad"/><use xlink:href="#Ae"/><use xlink:href="#Af"/></g><path d="M18.705 8.21c-.117.3-.348.615-.735.633" class="B C D G"/></g></g></g></g><path d="M0 0h83v676H0z" class="I"/><g transform="translate(20.75 16.094)"><use xlink:href="#AT" class="E K"/><g transform="translate(5.714 12.8)"><g transform="translate(0 .006)"><use xlink:href="#AU" class="M"/><g transform="translate(16.665 1.65)" class="O"><use xlink:href="#AV"/><use xlink:href="#AW"/></g><use xlink:href="#AX" class="E Q"/><g class="B C D G"><use xlink:href="#AY"/><use xlink:href="#AZ"/></g><g class="H B C D"><use xlink:href="#Aa"/><use xlink:href="#Ab"/><use xlink:href="#Ac"/><path d="M24.85 12.272l-.73 4.432"/><use xlink:href="#Ad"/><use xlink:href="#Ae"/><use xlink:href="#Af"/></g><path d="M18.705 8.21c-.117.3-.348.615-.735.633" class="B C D G"/></g></g></g><g transform="translate(21.787 166.076)"><use xlink:href="#AT" class="E K"/><g transform="translate(1.312 4.36)"><path d="M2.373 23.106C2.37 12.964 15.883 4.014 23.666 4.042c11.82.042 8.94 19.603 8.396 19.638-3.346.218-13.242.027-29.69-.573z" transform="matrix(.956305 -.292372 .292372 .956305 -3.29765 5.74383)" class="L"/><g transform="translate(11.523 5.751)" fill="#f1f4f6"><path d="M17.77 5.188c.51 4.034-3.48 14.215-7.69 13.655-3.538-.47-5.6-3.446-6.69-6.63-.185-.54-2.918.866-3.293-1.638s2.608-.93 2.53-1.39C2.36 7.646 2.38 6.342 2.42 5.3c.006-.164.9-.673 2.81-.973.854-.134 1.912-.227 3.185-.23 1.816-.002 3.845.174 5.547.388.5.06.042-4.458.465-4.393.43.065 1.73 4.714 2.065 4.775.786.144 1.27.265 1.276.32z"/></g><g transform="translate(17.893 11.223)"><g transform="translate(5.152 .835)" class="B C D G"><path d="M.468 0C.7 2.198 2.342 1.475 2.342.007"/><path d="M.562 1.206L0 1.948"/><path d="M1.405 1.484L1.03 2.7"/><path d="M1.874 1.3l.28 1.02"/></g><path d="M4.216 0l2.758 4.017c.14.172.413.376.33.588-.075.194-1.864.34-2.02.027-.08-.163-.105-.728-.1-.543.034 1.135.134 1.85.3 2.147" fill="#f3fff6" class="B C D H"/><g transform="translate(.281 .742)" class="B C D G"><path d="M.414.157C.065 1.613 2.14 1.797 2.53 0"/><path d="M.656 1.206L0 1.67"/><path d="M1.354 1.3l-.064.835"/><path d="M1.967 1.206l.28.65"/></g><path d="M3.904 6.544c.602-.114.672.747 1.094.5.213-.125.328-.435.574-.465.373-.045.96.117 1.758.486l-1.45 1.287c-.906.83-4.704.025-5.662-.418l2.92.03c4.327-.68 3.354-.69-2.92-.03.855-.878 3.086-1.277 3.688-1.39z" transform="matrix(.956305 .292372 -.292372 .956305 2.393551 -.769907)" class="a"/></g></g></g><g transform="translate(21.787 91.085)"><use xlink:href="#AT" class="E K"/><path d="M26.595 15.244c4.766 2.944 8.114 9.05 10.043 18.322-3.797 4.595-9.567 7.526-16.03 7.526a20.74 20.74 0 0 1-16.218-7.756c.35-2.333.82-4.39 1.416-6.177.643-1.93 2.683-5.24 6.12-9.93l1.05-1.417c4.894.26 9.17.077 12.78-.438l.837-.128z" class="M"/><g class="B C D H"><path d="M10.846 31.032c2.824 1.44 4.643-.4 6.547-2.403"/><path d="M20.57 28.954c.388 1.662.632 2.703 1.593 4.043.023.032-.077.02-.116.03"/><path d="M23.946 32.48c-1.925-1.132-.768-.28-2.925-3.155"/><path d="M27.914 31.664c-2.616-.176-5.3-1.116-7.3-2.84"/><path d="M28.145 30.044c-1.378.195-4.19 1.586-7.473-1.405"/><path d="M28.044 28.08c-3.6.718-1.377.433-6.72.3"/><path d="M13.56 33.275c1.606-1.266 3.975-2.667 4.394-4.88"/><path d="M15.862 33.25c1.9-1.25.566-.213 2.75-4.264"/><path d="M17.978 33.36c1.447-2.79.97-1.416 1.58-4.067"/><path d="M20.27 33.04c-1.082-2.178-.685-.932-.946-3.808"/><path d="M22.434 32.936c-1.664-2.227-.855-.907-2.215-4.08"/><path d="M12.564 26.867c1.458.852 3.475 2.43 5.066 1.01"/><path d="M11.718 28.79c.928.246 5.613 1.62 5.526-.727"/><path d="M15.156 16.418c-.1.988-.1 1.607 0 1.855.7 1.577 1.794 1.052 2.248-.65"/><path d="M18.153 15.305c-2.123 9.1-1.967 13.635.468 13.635s3.28-1.608 2.53-4.823l-.375-8.255c1.124 3.896 2.186 4.08 3.185.557" class="M"/></g><g class="P d B C"><path d="M10.66 23.994c-.54-.276-.853-.523-.937-.742-.445-1.164.453-1.796 2.06-.928.062-1.36.593-2.195 1.593-2.504s1.187.526.562 2.504c.994-.146 1.62-.146 1.874 0 .853.5.457 1.686-1.312 2.412.874.742 1 1.515.375 2.32s-1.374.433-2.248-1.113c-1.25 1.484-2.217 1.855-2.904 1.113s-.375-1.762.937-3.06z"/><path d="M24.527 22.663c-.567-.288-.894-.547-.98-.775-.465-1.218.478-1.88 2.163-.974.068-1.424.626-2.3 1.674-2.624s1.244.548.586 2.62c1.043-.155 1.698-.156 1.965-.003.894.512.477 1.764-1.38 2.527.916.775 1.046 1.584.39 2.427s-1.442.455-2.356-1.162c-1.313 1.556-2.328 1.946-3.048 1.17s-.4-1.844.988-3.206z" transform="matrix(-.987688 .156434 .156434 .987688 49.74391 -3.914931)"/></g><g class="e"><ellipse cx="12.767" cy="23.947" rx="1.171" ry="1.159"/><ellipse cx="26.776" cy="22.446" rx="1.171" ry="1.159"/></g><path d="M27.27 15.47c3.858-.684 6.012-1.18 6.464-1.484l-.843-2.32-7.026 1.39c-.437-6.74-1.655-10.1-3.653-10.1-.65 0-1.4.928-2.248 2.783-1.187-3.587-2.436-4.267-3.747-2.04s-1.998 5.596-2.06 10.1c-2.063-.066-3.593-.152-4.6-.26s-1.778-.268-2.342-.484v2.133c-.1.103.593.25 2.08.438a58.69 58.69 0 0 0 4.478.396c1.81.137 6.308-.05 13.5-.557z" class="L"/></g><g transform="translate(21.787 241.067)"><path d="M20.75 0C9.3 0 0 9.2 0 20.545S9.3 41.09 20.75 41.09s20.75-9.2 20.75-20.545S32.2 0 20.75 0z" class="E T"/><g transform="translate(9.859 5.95)"><g transform="translate(6.291 .372)" class="P"><path d="M13.896 2.4C13.404 13.236 1.477 17.258 9.1 24.327c1.822 1.69-9.99 1.713-8.976 0 5.4-9.14-.246-11.09-.123-20.963C.016 2.2.183 1.108.478.106 6.415-.06 10.765.09 13.527.56c.22.037.343.647.37 1.828z"/></g><g class="B C D J"><path d="M21.783 1.487c-.653 2.8-1.896 5.69-2.137 8.578-.174 2.092-.078 4.198-.117 6.297"/><path d="M21.032 1.394c-1.465 3.65-2.034 6.934-2.172 10.88-.11 3.1-.422 2.342.202 3.624"/><path d="M19.06 3.626c-1.376 5.622-1.44 7.438-.476 13.2"/><path d="M18.497 17.478c-3.412-3.034-1.983-8.334-1.07-12.086"/></g><path d="M11.88 2.696c.208 1.015.15 1.695-.17 2.04-1.702 1.836-2.365 2.542-4.28 5.157-.026.036-.018.13.026.13.212.002.45-.005.625-.123 1.228-.832 2.177-2.097 3.537-2.697 1.83-.808-2.5 1.984-1.46 2.528.43.222 7.933-.8 5.507-.32s-6.03 1.144-5.726 1.535c1.262 1.63 1.58 2.377 1.262 3.837" class="B C D G"/><g class="J B C D"><path d="M7.324 4.648C6.222 7.548 4.747 14.614.407 15.43c-.055.01-.084-.074-.125-.11"/><path d="M6.666 2.696C5.67 7.593 4.194 11.92.094 14.782"/><path d="M6.103.837C4.83 5.397 4.185 10.356.282 13.48"/><path d="M4.788 1.023C3.61 5.913 3.482 9.13 0 12.55"/></g><path d="M5.992.04c-.532 0 .32 3.25.654 4.002.283.635 1.06.958 2.334.97 1.41.043 2.39-.276 2.94-.956l.084-.107c.654 1.3 1.972 1.67 3.57 1.67 3.696 0 5.172-2.218 4.58-5.578H5.992zm6.525 1.24l6.287-.087.002.022c.084 1.07-.104 1.868-.526 2.396l-.044.053c-.505.588-1.447.895-2.87.895-.975 0-2.113-.377-2.604-1.583l-.115-.34c-.055-.205-.052-.53-.082-.918l-.046-.438zm-5.53.105h4.56l-.007.664c-.037 1.494-.358 2.162-3.03 2.216l-.5.005c-.064 0-.098-.01-.16-.05-.128-.087-.268-.26-.396-.525-.2-.43-.356-1.036-.432-1.81l-.038-.5z" class="E U"/><g class="O"><use xlink:href="#Ag" transform="matrix(-1 0 0 1 21.313348 0)"/><use xlink:href="#Ag" x="2.722" transform="matrix(-1 0 0 1 26.759048 0)"/></g><g class="Q"><path d="M2.336 26.65c.603.874 3.132.648 1.777-1.124s-2.38.25-1.777 1.124z" transform="matrix(-1 0 0 1 6.66629 0)"/><path d="M5.577 28.148c.62.843 2.882.306 1.49-1.403s-2.11.56-1.49 1.403z" transform="matrix(-1 0 0 1 12.863122 0)"/><path d="M9.904 28.65c.627.876 2.88.48 1.47-1.296s-2.098.42-1.47 1.296z" transform="matrix(-1 0 0 1 21.50113 0)"/><path d="M14.136 28.107c.637.862 2.806.413 1.88-1.108s-2.517.246-1.88 1.108z" transform="matrix(-1 0 0 1 30.23303 0)"/><path d="M17.498 27.08c.605.852 2.48.444 1.785-1.096s-2.39.244-1.785 1.096z" transform="matrix(-1 0 0 1 36.805428 0)"/></g></g></g><g transform="translate(22.825 316.058)"><use xlink:href="#Ah" class="E K"/><g transform="translate(2.102 8.868)"><path d="M15.143 2.836c-4.585 0-8.684 1.202-11.745 3.114-1.24.774-2.223 1.625-2.8 2.402-.342.467-.55.922-.575 1.398-.042.807.484 1.468 1.284 1.633l.07.014c.522.098 1.3.135 3.084.18l1.626.043 3.915.17.248.017.215.016c1.853.137 3.405.34 4.637.626l.086.02v7.103c.166 1.672 1.985 2.508 5.458 2.508s7.425-.97 11.857-2.908l-.616-5.266.043-.01c.633-.167 1.168-.402 1.607-.716.834-.595 1.284-1.454 1.284-2.464 0-1.164-.66-2.04-1.787-2.333L33 8.37c-.483-.118-1.04-.13-1.68-.048l-.074.01-.115-.98-.405-.318c-3.586-2.818-8.79-4.2-15.582-4.2z" class="E M"/><g class="B C D H"><path d="M12 4.342c1.78.103 1.5.142 2.77-1.084"/><path d="M12.163 5.243c1.4-.1 1.546-.628 2.505-1.792"/><path d="M15.28 3.383c.352.89.956.953 1.893.88"/><path d="M15.28 3.394c.207 1.556-.16.905 1.2 1.895"/></g><g stroke="#fff" class="B C"><path d="M12.867.54c1.667-1.512 2.523.497 2.343 1.792-.216 1.564-1.502 2.773-2.713 3.63-.017.012-1.074.718-1.385.445-.748-.657-.452-2.132-.14-3.014s1.12-2.152 1.893-2.854z"/><g class="D"><path d="M15.072 3.816c.275-.836.46-1.893 1.212-2.488 1.62-1.28 3.182-.858 2.736 1.347-.244 1.206-1.26 2.63-2.147 3.47-1.154 1.09-2.158-.4-1.986-1.484.084-.526.285-1.027.427-1.54"/></g></g><g class="H B C D"><path d="M20.706 2.755c.38 2.202.592 3.888 2.078 5.628 2.178 2.55 7.017 1.482 9.04-.708"/><path d="M22.564 3.04c-.404 2.927-.16 6.236 3.58 6.735.26.035 1.983.126 2.62-.09 1.545-.528 1.61-.846 3.082-2.032"/><path d="M23.245 3.063c1.306 2.678 4.79 8.9 8.277 4.852"/><path d="M24.977 3.383c.306 1.645.46 3.3 1.57 4.658 1.47 1.785 4.466 1.42 5.714-.32"/><path d="M25.83 3.68c.838 2.095 2.423 5.61 5.3 4.44"/><path d="M26.858 3.896c.696 1.088 2.133 3.856 3.567 4.144.558.112 1.14-.015 1.708-.023"/><path d="M14.622 13.223c1.408-.5 2.543.52 3.982.263.697-.124 1.547-.875 2.055-1.256"/></g></g><path d="M14.623 27.5l5.94 3.258 9.322-3.258-.548 6.878-8.774-2.624-7.494 2.624z" class="B C H L"/></g><g transform="translate(22.825 391.048)"><use xlink:href="#Ah" class="E L"/><g transform="translate(4.661 4.253)"><g transform="translate(0 5.249)"><path d="M9.705 9.502H.022C-.297 3.167 2.8 0 9.345 0H26.48l.305 7.347c2.22-.328 3.328.12 3.328 1.34s-1.02 1.95-3.06 2.187l.593 11.32-17.94.34V16.55c3.58.015 5.89-.434 6.93-1.347s1.406-2.814 1.097-5.7H9.705z" stroke="#ff243a" stroke-width="1.444" class="a"/><g transform="translate(5.941 9.23)" stroke="#06f" class="B C D"><path d="M2.117.05C2.202 1.876 1.753 4.09 0 5.083"/><path d="M2.88.05C2.46 1.916 1.814 3.43.466 4.87"/><path d="M3.562.05C3.11 2.08 2.07 4.033.208 5.124"/><path d="M4.375.05c-.442 1.61-2.12 4.917-4.36 5.205"/><path d="M5.14.05C4.556 2.137 3.058 5.186.514 5.186"/><path d="M9.327 5.7c-.632.167-2.44-1.497-3.085-2.443-.43-.63-.68-1.694-.754-3.2"/><path d="M6.106.05c.313 1.843.15 4.178 1.803 5.308"/><path d="M6.698 0C6.36.92 8.02 4.982 8.96 5.115"/><path d="M7.127.05c.695 1.71 1.072 3.495 2.386 4.812"/><path d="M7.774.05c.816 1.9.986 3.727 2.61 4.97"/><path d="M5.647.05c.985 2.952 1.54 4.2 4.485 4.757"/></g></g><g transform="translate(7.837)" class="B C"><g class="H"><path d="M2.33 5.064c1.023-.4 2-.94 3.068-1.196.15-.036.163.267.194.417.08.374.155.758.133 1.14-.064 1.124-.383 2.54-1.176 3.42-1.04 1.152-2.083.17-2.356-1.043-.278-1.236-.15-1.346.065-2.468l.072-.267z"/><path d="M9.692 3.95c.39.217.75.504 1.172.652.66.23 1.55-.018 2.046.47.387.38.11 1.078.08 1.617-.047.84-.348 2.63-1.277 3.006-1.51.613-2.504-1.02-2.564-2.286-.025-.51-.04-1.028.032-1.535.082-.56.288-1.097.432-1.645l.08-.278z"/><g class="L"><use xlink:href="#Ai"/><use xlink:href="#Ai" x="7.678" y="0.454"/></g></g><g stroke="#06f" class="D"><path d="M10.35 3.768c1.092-.925 2.1-2.323 3.277-2.774.965-.37-3.544 3.164-2.622 2.523l-.53.745c4.352-3.025 3.568-3.745-.007.743-.728.913 1.52-1.645 2.315-2.35.462-.41 1.872-1.494 1.442-.98-1.08 1.295-2.264 2.277-3.416 3.344-.375.347-1.563 1.115-1.16.898a18.71 18.71 0 0 0 2.409-1.572c.824-.626 2.6-3.687 2.42-2.096-.123 1.095-3.977 3.27-4.54 3.678-.167.12-.63.625-.464.503l3.298-2.578c.394-.28 1.6-.958 1.22-.622l-.315.387c-3.195 2.82-5.422 4.378.18.183" transform="matrix(.615661 .788011 -.788011 .615661 7.52113 -8.002001)"/><path d="M1.228 1.067c1.08.482 4.078 1.747 4.053 2.6-.056 1.957-2.5-2.022-3.622-1.834-.046.008.006.156.048.18l.632.482 1.84.95c.308.177 1.186.847.895.62-.866-.677-3.326-2.948-2.623-1.97L.962 1.68C1.714 2.728 2.8 3.2 3.732 3.89 7.1 6.356 1.497 1.725.962 2.442c-.09.12.17.262.28.344l2.333 1.608c.387.246 1.58.883 1.193.635-.708-.455-2.754-1.956-2.158-1.255L1.157 3.48c.5.6 3.358 1.604 4.078 1.88" transform="matrix(.71934 -.694658 .694658 .71934 -1.358622 3.064102)"/></g></g></g></g><g style="mix-blend-mode:luminosity" transform="translate(22.825 466.039)" class="g"><use xlink:href="#Ah" class="E T"/><g transform="translate(3.199 8.778)"><path d="M4.418 1.898H28.99l.476 1.844.142.597.06.32c.09.557.186 1.468.283 2.732 2.608-1.085 3.912-.362 3.912 2.17s-1.304 3.4-3.912 2.576v9.696l-26.014.6V12.137c-2.837.678-4.14-.18-3.912-2.576S1.56 6.44 3.938 7.4l.48-5.492zM7.85 5.153c-1.785 5.515-1.945 9.718-.48 12.61.93 1.84 8.8 2.33 13.934 1.83 1.96-.19 3.972-.8 6.04-1.83.356-1.87.493-3.792.412-5.763a27.73 27.73 0 0 0-.892-5.899c-1.235-1.356-4.256-2.215-9.06-2.576s-8.122.18-9.953 1.627z" class="L"/><g class="G B C D"><path d="M16.5 4.464l-4.1.43c.964.18 1.834-.14 2.773-.26.272-.035.652-.24.82-.03.137.173-.42.176-.586.324-.396.35-.695.8-1.087 1.153-.252.228-.557.39-.836.584" transform="matrix(.882948 .469472 -.469472 .882948 4.304229 -6.132341)"/><g transform="translate(8.493 9.897)"><path d="M.862 5.706C1.44 3.92 2.664 1.703 4.17 2.018c.7.144.663-.16 1.177-.318.413-.127.38-.452.87-.528.074-.012-.153-.022-.224.001-.18.058-.206.177-.366.275-.266.164-.64.172-.868.386L1.25 5.31c-.323.348.77-.562 1.11-.894.6-.588 1.106-1.266 1.7-1.86.337-.337.693-.662 1.086-.93.3-.198.58-.212.91-.34.114-.044-.36.02-.26.088.172.12.773-.138.634.02C5.39 2.587 3.423 3.826 2.257 5.07c-.186.198-.632.87-.426.694l3.784-3.587c.14-.13.303-.238.474-.323.23-.115.75-.53.722-.275-.037.323-.54.38-.76.62-.9.974-.633 1.122-1.576 1.922l-2.21 1.702c-.124.1-.37.497-.214.445C3.876 5.673 5.53 3.976 6.534 2.43c.07-.11-.02-.284.064-.383.1-.117.544-.093.423-.187l.002-.296c-.068-.053-.158.075-.237.112" transform="matrix(.882948 .469472 -.469472 .882948 2.206945 -1.420416)"/><path d="M8.647 2.193c1.094 1.676 2.48 3.353 4.718 3.47.203.01-.292-.285-.462-.396-.597-.4-1.28-.656-1.834-1.104-.687-.555-2.635-2.31-1.862-1.88 1.24.686 2.14 1.858 3.296 2.675.4.29.89.482 1.372.62.27.078-.5-.265-.724-.434L10.83 3.286c-.54-.47-.956-.788-1.393-1.352-.237-.306.456.35.78.56.463.302.985.51 1.435.83.436.3.777.74 1.21 1.052.38.273.777.548 1.223.695.106.035-.024-.23-.088-.32-.166-.234-.36-.453-.587-.63l-2.26-1.61c-.254-.168-1.092-.54-.81-.422l1.97.907c.595.34 1.134.77 1.685 1.178.125.093.25.194.338.322.024.034-.1.01-.125-.013l-.898-.52-1.535-1.127c-.578-.37-1.21-.646-1.796-1.005-.093-.057-.633.115-.542.057.245-.158 1.216.4 1.383.476 1.492.682 2.354.647 3.75 1.728.17.13.61.32.45.458-.256.22-.76-.182-1.02.033-.273.225 1.52.654-.06.382-.2-.036-.436-.067-.61-.187-4.573-3.153-1.54-1.588-3.93-2.764" transform="matrix(.945519 -.325568 .325568 .945519 -.571879 4.061496)"/></g></g><g class="B C D"><g class="H"><path d="M15.085 10.035c-.55-.258-1.153-.62-1.82-.416-.56.172-.513 1.3-.493 1.614.07 1.094 1.493 1.47 2.333 1.056"/><path d="M18.462 10.588c2.033-1.815 2.427 1.05.86 1.732-.555.242-1.04.133-1.614.09"/><path d="M16.092 6.52c.14 2.03.04-.85-.935 3.46-.376 1.663 1.013 4.3 2.505 2.376.79-1.02.85-2.483.91-3.755.033-.712.218-2.188-.66-2.622-.713-1.59-.886-2.092-.52-1.505"/></g><path d="M18.397 5l3.314-.042c.867-.06-1.753-.015-2.63-.005-.31.004-.85-.098-.922.046s.484.204.76.282l1.883.464" transform="matrix(.984808 -.173648 .173648 .984808 -.621829 3.557298)" class="G"/></g><path d="M14.37 0c.578 0 1.165.04 1.76.124l.112.016c.236.035.422.216.46.45.177 1.06.248 2.14.215 3.242.155.112.36.086.615-.076a16.61 16.61 0 0 1 .217-3.166c.038-.226.215-.404.442-.445l.02-.003.112-.016C18.92.04 19.507 0 20.085 0l.136.001 4.605.182c.245.012.46.167.546.392l.007.018.023.066c.345 1.017.518 2.153.518 3.408 0 1.198-.16 2.24-.482 3.128-.114.314-.4.527-.746.54h-.022l-.33.003a74.91 74.91 0 0 1-1.742-.007l-.295-.005-3.614-.001a.82.82 0 0 1-.811-.648l-.004-.02-.02-.104-.222-1.642c-.263-.28-.534-.302-.812-.065a18.03 18.03 0 0 1-.346 2.035l-.027.114a.82.82 0 0 1-.772.629l-1.645.058-1.874.054-.24.004-1.835.005-.166-.001c-.344-.003-.65-.217-.767-.537-.408-1.112-.612-2.292-.612-3.538 0-1.255.173-2.39.518-3.408l.023-.066c.082-.236.3-.398.553-.41l.78-.038L14.37 0zm-.686.678l-.108.004-2.89.26-.202.024c-.128.015-.228.117-.24.243l-.016.166c-.25 2.696-.173 4.565.23 5.607.18.463 1.94.53 5.285.203l.03-.252.24-3.33-.001-.03c-.023-.743-.113-1.664-.268-2.762-.607-.116-1.293-.16-2.06-.136zm6.315 0l-.074-.002c-.72-.02-1.124.026-1.213.138l-.02.15-.247 2.614-.002.07c-.016.743.068 1.833.253 3.27 3.48.19 5.312.056 5.49-.407.41-1.06.424-2.83.038-5.306-.02-.123-.12-.217-.246-.23l-.6-.054L20 .678z" class="a"/><path d="M14.14 15.097c1.373 1.108 3.85.278 4.774.37.05.005.042.12 0 .145l-.3.306c-.206.12-.432.217-.668.258-.36.062-.864-.233-1.092.048-.17.21.466.303.635.515.588.735-1.046.604-1.2.61" class="B C D H"/></g></g><g style="mix-blend-mode:luminosity" transform="translate(22.825 541.03)" class="g"><use xlink:href="#Ah" class="E K"/><g transform="translate(10.602 8.054)"><g transform="translate(0 6.154)"><path d="M1.484 3.267C3.903.28 8.452-.123 12.254.027s5.087 1.046 6.99 3.94 1.48 5.15.395 7.287c-2.54 5.007-14.524 6.55-18.488 1.84C-.96 10.583.36 6.57.974 3.987l.5-.72z" fill="#ff7800"/><g class="B C D J"><path d="M10.213 1.593c.7 1.69 2.67.56 1.89-.64"/><path d="M8.423.136c1.372.69 2.26 1.904 3.402 2.957L13.66 4.9c.17.186.497.41.4.638-.09.21-2.244.37-2.433.03-.098-.177-.126-.8-.12-.6.06 1.85.816 3.78.37 5.28-.24.802-3.59.253-3.452.73.3 1.013 1.464 1.092 3.522.237.203.4.084.91.06 1.364l-.3 3.065"/><path d="M6.772 2.282c-.147 1.146 1.44 1.87 2.47 1.026.693-.567.32-1.304.307-2.083"/></g></g><path d="M7.18 4.39c-.497-.95-.74-2.15-.103-3.143.956-1.49 2.987-1.822 3.773-.012.6 1.405-.864 3.14-.824 3.315.23.995 3.5-2.994 2.87-.862C12.1 6.35 7.652 6.8 5.7 5.308s-.112-1.475 1.077-.922l.404.004z" class="L"/></g></g><g style="mix-blend-mode:luminosity" transform="translate(22.825 616.021)" class="g"><use xlink:href="#Ah" class="E f"/><g transform="translate(7.677 9.411)"><path d="M5.792 1.586L23.546 2.8c.26 1.01.386 2.99.377 5.937l.044-.027c.232-.143.422-.232.813-.317l.053-.01c.508-.103 1.603-.23 2.026-.123 1.154.295 1.7 1.746 1.026 2.72-.84 1.23-2.585 2.047-4.033 1.62l-.014.434-.29 6.435c-6.078.862-13.915.862-23.51 0-.317-5.926 1.56-11.83 5.634-17.712l.124-.178z" class="U"/><g class="L"><g class="E"><g transform="translate(4.295)"><path d="M.333.138c.134.002.24.112.24.245L.57.413.564.53.544.778.536.886.518 1.44c.007.4.067.674.178.813.466.6 1.264 1.187 2.05 1.5.907.36 1.7.325 2.267-.167.1-.088.255-.078.343.022a.24.24 0 0 1-.022.34c-.724.63-1.708.674-2.77.25C1.7 3.855.832 3.206.313 2.55.12 2.305.04 1.935.032 1.448c-.004-.2.005-.4.023-.65L.077.52.084.4.085.374C.088.24.2.135.333.138z"/><path d="M1.717.273c.126-.045.266.02.312.144.545 1.487 1.015 2.17 2.013 2.666l.136.067.21.098c.19.083.362.146.52.186.322.08.543.058.662-.065l.012-.013c.087-.1.24-.113.343-.026a.24.24 0 0 1 .027.34c-.265.307-.67.356-1.163.232-.17-.043-.35-.106-.537-.186L4.2 3.688l-.335-.158-.032-.016C2.69 2.95 2.155 2.173 1.57.58a.24.24 0 0 1 .146-.309z"/><path d="M3.582.037c.13-.03.26.052.29.182L3.9.334c.2.853.366 1.365.626 1.817.34.592.794.94 1.43 1.044.133.02.222.145.2.277s-.147.22-.28.2c-.792-.128-1.366-.57-1.775-1.28C3.8 1.863 3.62 1.292 3.4.325a.24.24 0 0 1 .184-.288z"/><path d="M5.28.792L5.356.38c.027-.123.147-.206.275-.186s.217.134.205.26L5.833.47l-.115.628-.048.303-.01.072c-.05.372-.068.656-.044.792C5.873 3.7 7.272 4.63 8.74 4.31a2.5 2.5 0 0 0 1.179-.588l.06-.05.6-.528c.102-.087.255-.076.343.025a.24.24 0 0 1-.025.34l-.04.035-.623.548a2.98 2.98 0 0 1-1.387.69c-1.738.38-3.403-.715-3.707-2.43-.036-.202-.017-.518.04-.94l.047-.31.013-.08.04-.227z"/><path d="M6.74.607c.134 0 .243.108.243.24l.001.264c.003.207.014.238.055.328l.01.017.573 1.02.05.1c.756 1.4 1.59 1.543 2.896.602.11-.078.26-.054.34.053a.24.24 0 0 1-.054.336c-1.52 1.095-2.686.91-3.584-.715l-.115-.2-.555-.99-.015-.032c-.083-.186-.087-.253-.087-.764 0-.133.11-.24.243-.24z"/><path d="M8.113.604c.128-.04.265.032.304.16.443 1.415 1.102 2.17 2.294 2.45a.24.24 0 0 1 .18.29c-.03.13-.162.21-.293.18-1.38-.325-2.157-1.21-2.646-2.775a.24.24 0 0 1 .16-.301z"/><path d="M10.327.46c.134-.002.245.104.247.237l.001.062-.006.287-.02.422c-.02.445-.01.666.047.922.243 1.1 1.04 1.71 2.164 1.798 1.035.082 2.194-.312 2.912-.984.098-.09.252-.087.344.01a.24.24 0 0 1-.01.34c-.82.767-2.114 1.206-3.285 1.114-1.326-.105-2.31-.857-2.6-2.175-.07-.315-.08-.57-.056-1.08l.018-.382.005-.327c-.002-.133.105-.242.24-.245z"/><path d="M11.914.392c.134.002.242.112.24.245l-.001.034c-.003.067-.01.13-.025.234L12.12.96c-.038.248-.04.345 0 .434a6.23 6.23 0 0 0 1.169 1.735c.59.596 1.178.854 1.728.702.126-.035.226-.094.432-.25l.122-.093.218-.152c.114-.07.264-.037.335.075a.24.24 0 0 1-.076.332l-.038.024-.13.093-.143.11c-.25.19-.388.27-.59.325-.755.208-1.507-.12-2.207-.83-.518-.524-.988-1.248-1.267-1.878-.086-.195-.087-.348-.04-.663L11.652.8l.016-.17c.002-.133.113-.24.247-.237z"/><path d="M13.415.478c.132-.026.26.058.287.188l.104.5.022.102.018.08c.298 1.298.62 1.583 2.057 1.724.134.013.23.13.218.263s-.132.23-.266.216l-.1-.01c-1.57-.17-2.043-.62-2.382-2.078l-.05-.227-.1-.475a.24.24 0 0 1 .19-.284z"/><path d="M15.68.58c.134-.006.248.098.253.23l.004.116.003.26v.5l.018.77.002.028c.083 1.33.47 2.03 1.39 2.124.524.054 1.05.04 1.844-.027a1.28 1.28 0 0 0 .675-.244l.03-.02.495-.372c.11-.078.26-.054.34.053a.24.24 0 0 1-.054.336l-.078.058-.41.31-.01.008c-.302.213-.57.32-.946.353l-.143.012c-.746.06-1.265.07-1.793.015-.662-.068-1.134-.392-1.43-.93-.227-.413-.344-.93-.4-1.58l-.004-.063-.02-.744v-.624L15.447.83c-.006-.133.1-.245.233-.25z"/><path d="M16.91.553c.134-.005.247.098.253.23l.003.09.007.337.004.668c.007.766.034 1.14.128 1.57.133.607.392 1.09.833 1.497.587.542 2.257-.093 2.3-.82l.001-.022c0-.133.11-.24.243-.24s.243.108.243.24c0 1.17-2.213 2.02-3.11 1.194-.517-.477-.823-1.05-.977-1.748l-.012-.058c-.097-.464-.122-.873-.127-1.703l-.002-.466-.002-.156-.01-.362c-.005-.133.1-.245.233-.25z"/><path d="M17.878 1.71c.013-.132.13-.23.265-.217.13.012.224.12.22.247l-.001.015c-.044.457.278 1.6.713 2.37.518.917 1.027 1.165 1.546.65.095-.094.25-.094.344 0a.24.24 0 0 1 0 .341c-.423.42-.89.518-1.34.3-.36-.175-.686-.544-.975-1.056-.48-.85-.827-2.085-.773-2.652z"/></g><path d="M11.455 4.782l.04-.02c.1-.05.185-.064.29-.016.118.054.163.166.15.275-.005.05-.022.097-.048.15-.06.124-.19.263-.36.403l-.04.033.01.008a.24.24 0 0 1 .102.227l-.002.016c-.004.02-.01.038-.016.054l-.001.003.02-.002.065.005.024.007c.062.02.07.03.148.13l.014.065c.01.046.01.063.002.09l-.003.01.013.004c.05.02.096.056.124.107l.007.014a.24.24 0 0 1-.101.314l-.684.33-1.215.56-.39.17-.094.04c-.705.3-1.287.516-1.716.625-.263.067-.47.096-.626.078-.254-.03-.425-.197-.388-.453a.89.89 0 0 1 .51-.699l.034-.016v-.01c.002-.01.005-.02.01-.032l.015-.042.02-.032c.02-.027.024-.03.045-.048l.026-.017c.012-.008.017-.01.026-.014l.022-.01a.46.46 0 0 1 .082-.017l.085-.013.317-.037.084-.007L8.1 7l.148-.022.103-.016-.035.002c-.5.024-.942-.03-1.147-.203l-.015-.013c-.153-.14-.222-.305-.1-.472.075-.103.183-.142.34-.16l.027-.003c.174-.018.35-.013.802.014l.297.018c.35.02.546.02.684.001.202-.028.463-.1.735-.22l.027-.01-.07.008-.986.066-.617.026-.573.034c-.134.01-.25-.09-.26-.22s.1-.248.224-.26l.123-.01.368-.02.703-.03c.737-.033 1.106-.067 1.547-.15.08-.015.218-.08.41-.195l.056-.034.11-.07.24-.152.05-.032.178-.1zM8.728 7.56l-.127.005c-.88.04-1.218.133-1.312.415l-.001.005h.004c.084-.003.204-.022.354-.06l.033-.008c.253-.065.572-.172.947-.317l.103-.04z"/></g><path d="M8.877 8.108c1.13.68.604 1.335.17 2.75-.486 1.6-1.045-.366-1.118-.905-.205-1.533.11-2.15.947-1.846z"/><g class="E"><path d="M13.04 5.403l.237.02 1 .078.077.007c.14.014.197.027.273.064l.012.006.035.017c.095.046.15.07.285.114l.08.026c.332.108.855.25 1.624.437l.055.013c.128.03.34.058.675.088l.557.05.118.012c.135.015.222.028.282.046.045.013.08.03.12.06.107.1.126.252.023.362-.06.063-.115.082-.228.105-.572.12-1.558.128-2.48.043l-.046-.004.002.001.5.308.063.034c.056.03.18.067.354.106l.056.012.403.08.033.007.027.006.012.003a.28.28 0 0 1 .098.04l.027.02c.03.023.036.035.08.137l-.004.056c-.008.098-.016.118-.063.163l-.027.025-.003.002.16.04.092.025.005.002c.03.01.055.022.078.035.06.034.104.075.128.157.01.036.013.07.01.1v.013l.007.006.015.016c.113.122.088.305-.05.396-.882.576-1.88.628-2.976.258-.81-.273-1.577-.726-2.552-1.43a.24.24 0 0 1-.053-.336c.08-.107.23-.13.34-.053l.127.09c.878.626 1.578 1.03 2.296 1.272.738.25 1.407.282 2.014.064l.036-.013-.053-.01-.43-.093-.06-.014-.028-.003c-.504-.047-.862-.1-1.215-.186l-.04-.01c-.524-.133-.984-.295-1.398-.5a1.47 1.47 0 0 1-.328-.226l-.06-.053-.057-.022-.776-.32-.1-.043c-.022-.01-.04-.02-.06-.03-.06-.037-.1-.076-.117-.163s.013-.173.074-.23c.033-.03.067-.047.102-.057a.3.3 0 0 1 .082-.011c.05-.001.124.008.212.023l.262.057.013.003v-.002c-.034-.076-.055-.156-.065-.24l-.002-.023c-.01-.13.048-.216.136-.268l.004-.002-.01-.01-.014-.016c-.055-.07-.082-.165-.038-.256l.003-.005-.01-.001c-.12-.018-.2-.122-.207-.244l.001-.015c.01-.133.13-.23.263-.22zm.663 1.402l.01.008c.25.177.642.355 1.154.524l.025.008-.056-.024-.097-.042-.11-.048-.927-.425zm.54-.822l.008.004c.2.088.396.2.606.338l.035.024.053.01.907.12.042.004-.235-.06-.694-.197-.088-.028-.066-.022-.238-.088-.02-.01-.068-.03-.03-.014-.05-.025c-.017-.008-.035-.01-.108-.018l-.052-.005z"/><path d="M12.43 7.724c.102-.087.255-.075.343.026a.24.24 0 0 1-.014.328l-.012.01c-.05.043-.09.143-.106.273a5.96 5.96 0 0 0-.013 1.301c.143 1.348 1.292 2.45 2.46 2.124.282-.08.755-.63 1.22-1.407.187-.314.36-.645.493-.935l.028-.062c.117-.265.186-.474.2-.54v-.007c-.003-.133.103-.243.237-.247s.246.102.25.235c.007.28-.323 1.032-.755 1.762l-.023.038c-.53.887-1.055 1.5-1.505 1.626-1.502.42-2.903-.925-3.075-2.537-.048-.45-.042-.92.014-1.405.027-.24.11-.447.272-.584z"/><path d="M8.508 6.797c.193-.1.392-.02.55.127a.24.24 0 0 1 .011.34c-.088.093-.234.1-.332.022l-.042-.034a.44.44 0 0 0-.083.116l-.042.098c-.153.43-.257.853-.308 1.264-.093.757.174 1.614.682 2.128a.24.24 0 0 1-.004.341c-.096.093-.25.09-.344-.004-.614-.622-.927-1.625-.817-2.523a6.44 6.44 0 0 1 .332-1.366c.08-.227.21-.41.398-.51z"/><path d="M11.596 6.43c.054-.122.198-.177.32-.123a.24.24 0 0 1 .124.318l-.034.076c-.383.84-.804 1.463-1.755 2.706l-.25.325c-.736.964-1.09 1.477-1.42 2.103l-.422.812-.137.27-.192.402c-.172.376-.288.69-.34.925-.026.12-.034.215-.025.278.002.017.006.03.01.037v.002l.028.015c1.12.585 3.267-.334 4.066-1.58l.024-.038c.225-.365.577-.406.94-.205.12.067.24.156.377.275l.046.04.31.28c1.114.892 1.684 2.016 1.777 3.35.078 1.122-.176 2.362-.717 3.792-.047.125-.187.188-.313.14a.24.24 0 0 1-.143-.31c1.107-2.93.972-5.053-.855-6.555l-.056-.045c-.063-.05-.32-.288-.34-.304-.128-.113-.232-.192-.325-.244-.152-.084-.213-.08-.28.022l-.008.012c-.405.657-1.214 1.3-2.107 1.684-.99.424-1.957.484-2.672.084-.26-.145-.3-.44-.215-.835.06-.277.187-.617.372-1.02l.163-.344.07-.14.494-.956c.368-.71.746-1.255 1.58-2.342l.252-.328c.9-1.18 1.3-1.77 1.652-2.58z"/><path d="M10.198 14.332c.132-.022.258.067.28.198.162.963.178 1.876.075 2.902l-.155 1.162-.027.166-.045.27-.23 1.33-.077.463c-.02.13-.146.22-.278.2s-.223-.144-.202-.276l.032-.195.046-.272.066-.383.136-.778.06-.36.012-.074.178-1.3c.1-.986.083-1.857-.07-2.776-.022-.13.067-.255.2-.277z"/><path d="M14.576 16.43c.117-.065.266-.023.33.094a.24.24 0 0 1-.095.327l-.117.063c-1.885 1.015-2.906 1.06-4.8.17a.24.24 0 0 1-.115-.321c.058-.12.203-.17.324-.114l.105.05c1.704.786 2.565.714 4.356-.27z"/></g><path d="M12.587 7.836c1.13.68 1.82 1.815 1.386 3.23-.486 1.6-1.644-.574-1.716-1.113-.307-2.3.242-.7.242-1.834"/></g></g></g></g><g fill="#ff0034"><ellipse cx="60" cy="19.5" rx="8" ry="7.5"/><ellipse cx="60" cy="96.5" rx="8" ry="7.5"/><ellipse cx="60" cy="247.5" rx="8" ry="7.5"/></g></g><rect opacity=".232" x="1073" y="45" width="71" height="16" rx="5.5" class="Y"/></g><g transform="translate(0 716)"><use fill="#000" filter="url(#J)" xlink:href="#I"/><use xlink:href="#I" class="I"/><path d="M543.5 54.5h503" class="B S X i"/><path d="M589.856 24.4a5.61 5.61 0 0 0 5.6-5.6 5.61 5.61 0 0 0-5.6-5.6 5.61 5.61 0 0 0-5.6 5.6 5.61 5.61 0 0 0 5.6 5.6m-.656 2.877c-6.594 0-11.2 3.454-11.2 8.4v1.4h22.4v-1.4c0-4.946-4.606-8.4-11.2-8.4m108.858-.913h-5.6v-5.6h5.6v5.6zm-8.823 0h-5.6v-5.6h5.6v5.6zm0 8.823h-5.6v-5.6h5.6v5.6zm-8.823-8.823h-5.6v-5.6h5.6v5.6zm0 8.823h-5.6v-5.6h5.6v5.6zM698.4 11.8h-2.8V9h-2.8v7H690v-4.2h-8.4V9h-2.8v7H676v-4.2h-2.8c-1.544 0-2.8 1.257-2.8 2.8v21c0 1.544 1.256 2.8 2.8 2.8h25.2c1.544 0 2.8-1.256 2.8-2.8v-21c0-1.543-1.256-2.8-2.8-2.8h0zm98-1.4v7.65l-2.8 1.866-2.8-1.866V10.4H788v7.65l-2.8 1.866-2.8-1.866V10.4h-2.8v7.65l-2.8 1.866-2.8-1.866V10.4h-2.8v23.8a1.4 1.4 0 0 0 .623 1.165l4.2 2.8a1.4 1.4 0 0 0 1.554 0L781 35.883l3.423 2.282a1.4 1.4 0 0 0 1.554 0l3.423-2.282 3.423 2.282a1.4 1.4 0 0 0 1.554 0l4.2-2.8a1.4 1.4 0 0 0 .623-1.165V10.4h-2.8zm-9.8 1.4h-2.8v5.6h2.8zm-8.4 0h-2.8v5.6h2.8zm16.8 0h-2.8v5.6h2.8z" class="R"/><g class="S"><rect fill="#011638" x="578" y="98" width="116" height="26" rx="13"/><g fill="#f4f2ee"><rect x="578" y="154" width="312" height="25" rx="12.5"/><rect x="578" y="183" width="164" height="26" rx="13"/></g></g><use fill="#000" filter="url(#J)" xlink:href="#K"/><use xlink:href="#K" class="I"/><path d="M59.85 23.166l1.675 5-5.026-3.333-5.026 3.333 1.675-5-3.35-3.333h5.026l1.675-5 1.675 5H63.2l-3.35 3.333zM57.25 37.51a1.68 1.68 0 0 0-1.498 0L51.947 39.4l.762-4.932c1.09.753 2.396 1.195 3.79 1.197h.002c1.394 0 2.7-.44 3.79-1.193l.762 4.928-3.804-1.892zM68.085 22.33c1.194-2.033 1.235-4.57.02-6.665a6.7 6.7 0 0 0-5.785-3.312h-.027C61.12 10.305 58.93 9 56.5 9a6.66 6.66 0 0 0-5.793 3.357h-.025c-2.387 0-4.605 1.268-5.8 3.3-1.215 2.095-1.173 4.632.023 6.667-1.196 2.038-1.238 4.575-.023 6.667 1.015 1.748 2.788 2.923 4.774 3.228l-1.523 9.85a1.66 1.66 0 0 0 .668 1.6 1.68 1.68 0 0 0 1.736.145l5.952-2.962 5.952 2.962a1.69 1.69 0 0 0 .749.175 1.68 1.68 0 0 0 .987-.32 1.66 1.66 0 0 0 .668-1.6l-1.523-9.85c1.983-.305 3.758-1.48 4.77-3.228 1.218-2.093 1.176-4.63-.02-6.668h0z" class="R"/><path d="M1 54.5h503" class="B S X i"/><g class="f"><rect x="123" y="98" width="122" height="25" rx="12.5"/><rect x="123" y="185" width="122" height="25" rx="12.5"/><rect x="339" y="185" width="122" height="25" rx="12.5"/></g></g><g transform="matrix(-1 0 0 1 1046 0)"><mask id="Aj" class="I"><use xlink:href="#L"/></mask><use xlink:href="#L" class="Y"/><g class="Z"><g transform="translate(414.917 608.583)"><circle cx="27.5" cy="27.5" r="27.5" class="I"/><path d="M41.176 19.947c-1.007 0-1.824.802-1.824 1.79v7.158H37.53V14.58c0-.988-.817-1.79-1.824-1.79h-1.824c-1.007 0-1.824.802-1.824 1.79v12.526h-1.824V12.79c0-.988-.817-1.79-1.824-1.79h-1.824c-1.007 0-1.824.802-1.824 1.79v14.316H22.94V14.58c0-.988-.817-1.79-1.824-1.79h-1.824c-1.007 0-1.824.802-1.824 1.79v14.316h-1.824v-5.368c0-.988-.817-1.79-1.824-1.79S12 22.54 12 23.526v10.737c0 .408.14.8.4 1.118l7.294 8.947a1.84 1.84 0 0 0 1.424.671h14.588c.574 0 1.114-.265 1.46-.716l5.47-7.158c.237-.3.365-.687.365-1.074V21.737c0-.988-.817-1.79-1.824-1.79" class="R"/></g><g transform="translate(494.458 608.583)"><circle cx="27.5" cy="27.5" r="27.5" class="I"/><g transform="translate(9 10)" class="R"><path d="M30.095 0H20.6c-3.525 0-6.654 2.395-7.6 5.826l3.043.87C16.617 4.637 18.495 3.2 20.6 3.2h9.486c2.615 0 4.743 2.154 4.743 4.8v3.2c0 2.646-2.128 4.8-4.743 4.8a1.57 1.57 0 0 0-.949.32l-3.794 2.88v-1.6c0-.883-.708-1.6-1.58-1.6H20.6v3.2h1.58v3.2c0 .606.338 1.162.874 1.432a1.58 1.58 0 0 0 .707.168c.335 0 .67-.1.95-.32l5.93-4.5c4.1-.287 7.35-3.756 7.35-7.98V8c0-4.4-3.546-8-7.905-8M12.5 22a6.51 6.51 0 0 0 6.5-6.5A6.51 6.51 0 0 0 12.5 9 6.51 6.51 0 0 0 6 15.5a6.51 6.51 0 0 0 6.5 6.5m0 2C5.14 24 0 27.877 0 33.43V35h25v-1.57C25 27.877 19.86 24 12.5 24"/></g></g><g transform="translate(574 608)"><circle cx="27.958" cy="28.083" r="27.5" class="I"/><path d="M19.356 19.247v8.284c0 5.185 3.956 9.388 8.836 9.388s8.836-4.203 8.836-9.388l-.001-8.284h2.357v8.836c0 5.58-4.084 10.207-9.425 11.054V42.8h3.892a2 2 0 0 1 2 2v.356H20.534V44.8a2 2 0 0 1 2-2h3.89v-3.673C21.084 38.3 17 33.664 17 28.083v-8.836h2.356zm15.316 1.178v7.658a6.48 6.48 0 0 1-12.96 0v-7.658h12.96zM28.193 11a6.48 6.48 0 0 1 6.48 6.48v1.767h-12.96V17.48a6.48 6.48 0 0 1 6.48-6.48z" class="E R"/></g><path d="M141.847 103.123C174.2 61.85 235.032 56.298 285.877 58.37s68.03 14.45 93.493 54.43 19.786 71.142 5.286 100.66c-7.256 14.772-20.272 27.36-36.773 37.392C339.125 256.177 326 263 363 274s-65.145-2.588-76.33-.378c-56.014 11.067-119.512 1.746-149.257-34.762-28.255-34.68-10.585-90.107-2.388-125.79l6.823-9.946z" class="I"/><g transform="matrix(-1 0 0 1 869 256)"><g transform="translate(0 .101)"><path d="M362.753 252.78c44.533 0 99.23-2.8 164.093-8.402l16.83-82.617h-72.93l5.6-120.424H72.435l-2.47 66.782C23.322 95.126 0 101.232 0 126.437s20.873 40.247 62.618 45.127l14.025 64.413c146.207 11.202 241.577 16.803 286.1 16.803z" fill="#ffa300"/><g class="O"><path d="M314.3 34.825c-2.013 35.164 29.246 44.114 37.9 11.747 6.6-24.694-29.424-27.037-40.785-11.747m120.59-5.6c.6 7.483.16 15.13 1.833 22.45 7.26 31.75 46.905.945 25.882-25.582"/></g><path d="M486.464.016c8.645 0-1.584 77.16-7.012 92.644-6.885 19.64-23.134 15.403-40.673 15.403-5.572 0-10.356-.184-14.56-.668C415.1 96.328 402.572 83.66 389.35 73.22h0l1.958 11.405-1.15-1.78-1.366-2.208c-10.628 26.822-32.037 34.426-58.007 34.426-60.054 0-84.022-45.746-74.41-115.05h230.088zM367.13 31.272h-81.136l-.025.398c-1.172 19.018 1.462 33.163 7.377 42.54l.314.49.3.45c7.08 10.44 19.666 15.887 39.63 15.887 14.723 0 24.47-10.25 30.314-35.785l.187-.848c.965-4.54 1.913-11.486 2.812-20.726l.173-1.817.053-.586zm96.37 0h-60.1l.03.118c9.068 37.184 21.283 52.005 44.998 52.622l.722.014.85.006c.85 0 1.29-.18 2.1-.94 1.682-1.6 3.528-4.76 5.225-9.6 3.224-9.196 5.3-22.726 6.112-40.396l.076-1.826z" class="E h"/><g class="B D G b"><path d="M398.7 90.05c28.2 22.273 53.22 54.698 48.934 60.047-5.6 7-25.9 8.443-30.855 5.6-3.98-2.282-2.184.8-2.184 26.918m-77.5-21.895c33.027 24.5 69.7 27.613 105.896 20.177"/></g><g stroke="#001d71" class="B D b"><path d="M372.456 223.603c7.075 28.287 23.773 46.113 41.452 69.788m-12.57-72.87c19.317 61.103 15.023 35.04 19.405 76.83m4.63-72.426c5.773 59.406 5.07 34.702 5.07 73.97m20.507-73.97l-13.23 81.235m31.093-79.033c-1.588 28.797-9.183 51.76-23.594 76.608m43.217-79.474c-2.636 28.1-10.636 55.145-29.536 77.054"/><path d="M499.24 254.424c-23.353 31.285-26.175 40.872-61.08 49.092"/></g><path d="M339.446 150.492c-2.114 5.677-6.322 11.278-13.334 11.6" class="B D G b"/></g></g></g></g><path d="M75.5 880C57.55 880 43 894.55 43 912.5S57.55 945 75.5 945s32.5-14.55 32.5-32.5S93.45 880 75.5 880z" class="E K"/><g class="B X c"><path d="M75.226 899.444c-5.42 0-6.58 5-6.58 9.596S64 913.263 64 920.172s5.032 9.596 13.16 8.444 12.387-9.596 10.065-12.667c-1.548-2.047-3.097-4.862-4.645-8.444-1.3-5.374-3.742-8.06-7.355-8.06z" class="V"/><ellipse transform="matrix(.777146 -.62932 .62932 .777146 48.057032 908.160266)" cx="16.258" cy="31.091" rx="1.929" ry="1" class="I"/><path d="M76.774 891c-2.323 3.07-2.84 5.886-1.548 8.444" class="D"/></g><path d="M296.89 880c-17.612 0-31.89 14.5-31.89 32.387s14.277 32.387 31.89 32.387 31.89-14.5 31.89-32.387S314.5 880 296.89 880z" class="E K"/><g class="B X c"><path d="M295.28 904.338c-5.057-6.892-9.61-6.892-13.655 0-6.07 10.337 6.448 25.048 11.38 21.867s4.172-3.18 6.448-1.6c.737.515 5.913 2.563 7.966-.398 4.285-6.18 7.966-19.88 2.655-22.663-2.937-1.54-5.672.22-11 2.783-.515.248-1.78.248-3.793 0z" class="h"/><ellipse transform="matrix(.913545 -.406737 .406737 .913545 279.025056 909.293094)" cx="23.328" cy="7.355" rx="2.485" ry="1" class="I"/><path d="M299.074 894c-2.782 3.446-3.667 6.892-2.655 10.337" class="D"/></g><g transform="translate(43 791)"><path d="M33 0C14.775 0 0 14.55 0 32.5S14.775 65 33 65s33-14.55 33-32.5S51.225 0 33 0z" class="E K"/><g transform="matrix(.390731 -.920505 .920505 .390731 18.23368 46.921018)"><g transform="translate(.132 .28)"><mask id="Ak" class="I"><use xlink:href="#M"/></mask><use fill="#14591d" xlink:href="#M"/><g class="B X"><path d="M26.13-2.587c-.965 1.547 1.277 1.405 1.705 2.18.18.328-.393.793-.205 1.116.59 1.014 2.108 1.636 2.548 3.21.088.316-1.067.027-.93.325 2.072 4.536 1.332.127 2.33 3.37.064.208-.562-.196-.652.004l.665.97c-2.45 5.436-.243-7.184-.145 1.036.033 2.75-.155-1.706-.027 1.135.013.292-.86-.247-.87.046-.012.377.953.37.845.73-.525 1.76.128.174-.025.816-.097.408-1.02-.287-1.245.068-.195.31.946.618.666.852-.443.372-1.396-.45-1.72.03-.27.4 1.23.5 1.06.95l-1.13.346c-4.1 10.854 4.67-5.574-.694 3.37-.254.423-1.3-.054-1.406.427-.136.61 1.056.97.958 1.586-.07.437-1.043-.015-1.267.367-.177.302.782.653.528.893-1.65 1.555-1.48.3-3.427 1.218-.295.138.258.72.053.976l-1.502-.07c-.333.413.686 1.182.306 1.55-.473.46-1.43-.343-1.957.053l.2 1.134c-.9.685-1.415-.86-3.202.16-.326.186 1.018.875.646.912-.695.07-1.242-.7-1.932-.784-2.097-.283-5.1 1.838-10.693.23" stroke-opacity=".446" stroke="#42be65" mask="url(#Ak)" transform="matrix(.5 .866025 -.866025 .5 19.970308 -9.944361)" class="D"/><path d="M.786.774C1.385 13.413 7.54 20 19.25 20.506c11.096.49 16.99-6.604 17.68-21.28L.786.774z" mask="url(#Ak)" class="c h"/></g></g><g fill="#000" class="B X c"><ellipse transform="matrix(.62932 -.777146 .777146 .62932 11.93463 5.171087)" cx="1.702" cy="1.935" rx="1.687" ry="1"/><ellipse transform="matrix(-.62932 -.777146 -.777146 .62932 35.860109 14.126769)" cx="13.226" cy="1.935" rx="1.687" ry="1"/><ellipse transform="matrix(.017452 -.999848 .999848 .017452 16.659404 14.01552)" cx="7.464" cy="3.482" rx="1.677" ry="1"/></g></g></g></g></svg>