<svg xmlns="http://www.w3.org/2000/svg" xmlns:xlink="http://www.w3.org/1999/xlink" width="1184" height="892" xmlns:v="https://vecta.io/nano"><style><![CDATA[.B{stroke-linejoin:round}.C{stroke-width:5.322}.D{stroke-linecap:round}.E{stroke:#212121}.F{fill:#212121}.G{fill:#fb3640}.H{stroke:#044917}.I{stroke:#f5b700}.J{stroke-width:27.322}.K{stroke-width:4.322}]]></style><g fill="none" fill-rule="evenodd"><g transform="matrix(-1 0 0 1 287 58)"><path d="M172.294 37.18l6.742 27.03c1.2 5.416 2.45 13.426 3.746 24.028 13.983-2.002 22.473 4.005 25.47 18.02s-4.245 22.025-21.724 24.028l6.742 91.6-164.054 9-1.498-82.588C9.24 145.305 0 136.795 0 122.78s9.177-20.918 27.53-20.707c.978-11.946 3.537-32.826 7.677-62.64" stroke="#0d62fe" style="mix-blend-mode:multiply" class="J"/><g class="I B D"><path d="M53.184 55.028c-3.882-8.594-3-4.708-3.1-17.574-.04-5.78-.312-11.603.3-17.34 3.613-33.32 18.566 29.013 7.415 33.488-2.846 1.142-3.265-4.972-3.296-5.817-.32-8.688-1.522-39.7 10.71-41.683.675-.11 1.298.997 1.338 1.78.655 12.925 1.138 25.894.72 38.832-.068 2.11-.34 6-2.162 5.82-1.842-.18-1.32-4.048-1.442-6.175-.652-11.283-1.362-38.413 8.857-46.197.654-.5 1.874.23 2.162 1.07 4.905 14.305 7.123 31.5 3.296 47.145-.405 1.654-1.072 5.686-2.162 4.514-5.57-5.987-3.52-48.472 8.24-50.116 1.306-.183 2.8-.234 3.912.593 7.638 5.726 7.62 39.553.104 46.435-1.118 1.024-3.316 3.8-3.8 2.256-3.14-9.805 2.93-44.12 11.12-47.858 2.248-1.026 5.123-3.256 7.107-1.663 2.213 1.778 1.91 5.92 2.058 9.026.474 10.04.7 20.163-.206 30.164-.674 7.43-2.676 8.733-7.517 10.45-.362.13-.92.242-1.132-.12-7.555-12.886 6.723-39.395 17.197-45.602 1.072-.636 2.986-1.55 3.604-.355 4.975 9.6 2.433 37.537-4.016 46.077-.68.902-2.184 3.127-2.574 2.018C104.3 38.224 119.13 12.53 129.7 5.865c.575-.363 1.523-.806 1.956-.238 5.55 7.284-3.616 45.528-9.063 50.35-.974.862-1.46-2.4-1.646-3.8-.377-2.857-.725-5.904 0-8.67 2.302-8.79 5.652-17.18 8.96-25.532.862-2.177 2.024-4.256 3.5-5.937 1.33-1.513 3.03-2.575 4.738-3.444.69-.352 1.765-.774 2.264-.12 4.823 6.33-1.848 30.746-3.294 35.033-1.243 3.684-2.428 11.58-5.56 9.976-3.388-1.736-.927-8.686 0-12.825 7.618-34.03 4.54-13.638 13.593-32.184.81-1.658 1.057-7.313 1.44-5.462 1.713 8.265.365 43.737-5.56 49.64-.3.29-1.034.2-1.132-.238-3.552-15.425 7.305-32.012 15.755-42.633.565-.7 1.75-1.597 2.368-.95 1.434 1.498.898 10.696.824 11.282-1.607 12.682-3.684 30.474-11.327 40.495" class="C"/><path d="M0 5.556C3.043 18.37 7.926 31.903 21.088 37.383c2.976 1.24 9.852 6.02 9.242 2.85-1.065-5.536-7.895-8.1-11.138-12.705C13.126 18.9 6.994 10.215 2.488.687c-1.34-2.837 5 3.88 7 6.295 6.677 8.068 12.638 16.705 18.958 25.057M11.018.094C23.2 10.82 33.154 17.27 36.5 33.226" transform="matrix(.731354 -.681998 .681998 .731354 103.282739 162.258542)" class="K"/><path d="M93.876 151.987c-12.69-2.025-24.13 3.743-34.7 10.4-2.25 1.417-8.185 4.187-5.84 5.435 3.67 1.954 8.297-.908 12.31-1.99 6.472-1.745 12.527-4.893 19.043-6.465 3.803-.917 15.145-2.798 11.695-.95-11.95 6.398-25.91 8.447-37.81 14.935-4.65 2.535 10.547-1.338 15.623-2.838 7.778-2.298 15.112-5.913 22.794-8.515.7-.234 2.833-.274 2.183.055-7.308 3.703-14.66 7.408-22.37 10.173-3.995 1.433-10.18 2.935-18.555 4.506 7.624.525 13.263.34 16.917-.552 16.992-4.154 17.404-5.012 25.893-11.79" class="K"/></g><path d="M72.87 123.8c-3.85 5.64-20.014 4.18-11.356-7.253S76.72 118.16 72.87 123.8zm53.57.44c-4.305 5.932-20.02 2.154-10.343-9.868s14.647 3.936 10.343 9.868z" class="F"/><g class="D H"><path d="M54.685 98.104c12.735-33.8 39.186-5.554 38.83-3.486-1.152 6.712-3.18 13.25-4.384 19.952-1.167 6.5-2.133 13.025-2.725 19.592-.36 3.982-.44 8-.12 11.994.878 10.963 27.6 16.546 30.45.713m38.33-55.523c-11.237-19.522-35.957-11.263-38.204-2.666" stroke-width="9.322"/><path d="M77.907 176.945c14.982 12.272 42.01 3.08 52.107 4.085.53.053.46 1.334 0 1.603l-3.382 3.386c-2.253 1.317-4.72 2.4-7.288 2.853-3.916.7-9.432-2.58-11.916.533-1.87 2.34 5.082 3.353 6.936 5.706 6.414 8.144-11.417 6.685-12.984 6.772" class="B C"/></g></g><path d="M1097.207 63.98l6.76 26.973c1.204 5.405 2.456 16.643 3.755 33.716 28.538-11.988 42.808-3.996 42.808 23.976s-14.27 37.462-42.808 28.47v107.142L823.088 291V177.115c-31.042 7.492-45.31-1.998-42.808-28.47s16.773-34.465 42.808-23.976l5.257-60.69h268.862zM865.896 99.943c-19.526 60.94-21.28 107.392-5.257 139.36 10.19 20.33 96.3 25.758 152.455 20.23 21.43-2.1 43.46-8.853 66.09-20.23 3.893-20.674 5.395-41.902 4.506-63.686s-4.143-43.512-9.763-65.184c-13.518-14.985-46.563-24.475-99.134-28.47s-88.87 1.998-108.897 17.982z" fill="#001c6c"/><path d="M876.093 212c14.752-14.434 37.968-29.7 50.907-18.813 5.923 4.984 7.226 1.876 13 3 4.64.904 5.998-2.433 11.116-.64.772.27-1.362-1.006-2.168-1.15-2.022-.36-2.898.658-4.948.8-3.4.22-7.07-1.645-10.366-.736-17.38 4.793-34.74 9.744-51.76 15.686-4.9 1.715 10.34-1.48 15.325-2.965 8.82-2.626 17.2-6.6 25.978-9.332 4.987-1.545 10.1-2.862 15.278-3.45 3.818-.433 6.706.945 10.52 1.4 1.327.162-3.583-1.682-2.98-.492 1.05 2.065 8.176 2.66 6.013 3.498-16.158 6.255-41.513 8.145-59.164 14.222-2.816.97-10.585 5.22-7.68 4.557 18.553-4.24 36.577-10.536 54.985-15.364 2.024-.53 4.148-.746 6.24-.694 2.82.07 9.974-1.267 8.392 1.06-2.012 2.96-7.173.898-10.546 2.1-13.605 4.883-11.873 7.663-25.095 10.573-9.935 2.187-20.198 2.743-30.082 5.15-1.758.428-6.132 2.922-4.35 3.238 20.675 3.664 45.367-4.32 63.005-14.186 1.245-.696 1.262-2.877 2.588-3.404 1.57-.623 5.733 1.9 5.054.367l1.536-2.88c-.384-.873-1.9-.1-2.863-.133m9.915.818c17.3 13.578 37.6 26.1 61.17 19.275 2.135-.62-4.037-1.927-6.2-2.476-7.57-1.928-15.573-2.252-22.906-4.936-9.083-3.325-35.484-14.646-25.96-12.954 15.265 2.7 28.756 11.72 43.63 16.092 5.27 1.55 10.918 1.837 16.404 1.558 3.076-.156-6.108-.974-9.034-1.932-10.32-3.38-20.6-6.954-30.64-11.057-7.26-2.963-12.696-4.792-19.232-9.117-3.538-2.342 5.957 2 10.072 3.055 5.863 1.488 12.006 1.797 17.803 3.526 5.617 1.675 10.67 4.94 16.28 6.637 4.9 1.485 9.992 2.93 15.123 2.862 1.224-.016-1.068-2.318-2.06-3.035-2.55-1.846-5.35-3.43-8.32-4.477-9.552-3.364-19.3-6.142-29.1-8.705-3.226-.844-13.22-1.713-9.892-1.495 7.895.515 15.843.908 23.613 2.4 7.37 1.407 14.477 3.96 21.623 6.244 1.623.518 3.272 1.13 4.637 2.146.366.273-.893.436-1.334.316l-11.15-2.215c-6.7-1.83-13.145-4.603-19.9-6.257-7.294-1.786-14.836-2.395-22.163-4.04-1.16-.26-6.136 3.483-5.408 2.545 1.97-2.536 14.004-.197 16 0 17.862 1.762 26.654-1.705 44.937 4.565 2.22.76 7.456 1.138 6.283 3.165-1.864 3.223-8.508.836-10.44 4.02-2.022 3.333 18.048 1.368.733 4.2-2.3.377-4.743.87-6.985.24-58.537-16.5-21.58-11.058-50.515-14.732" class="B C D E"/><path d="M945.058 169.07c-6.028-2.856-12.613-6.86-19.907-4.6-6.13 1.9-5.613 14.48-5.398 17.84.773 12.092 16.334 16.258 25.53 11.668m36.717-18.8c22.242-20.05 26.554 11.6 9.395 19.14-6.078 2.674-11.372 1.473-17.657 1" class="B C D H"/><path d="M920.142 151.815c-1.5-26.347 21.8-33.052 28.26-8.8 4.928 18.502-21.933 20.257-30.4 8.8m89.998 3.86c.47-5.554.123-11.23 1.4-16.662 5.585-23.564 36.084-.702 19.9 18.988" class="F"/><path d="M956.07 130.24c1.524 22.424.436-9.38-10.23 38.227-4.116 18.374 11.087 47.533 27.41 26.258 8.657-11.283 9.297-27.435 9.95-41.494.366-7.87 2.385-24.177-7.225-28.976-7.798-17.58-9.695-23.122-5.69-16.63" class="B C D H"/><path d="M937.242 75c6.326 0 12.75.457 19.27 1.37l1.224.177a6 6 0 0 1 5.043 4.956c1.93 11.72 2.714 23.662 2.347 35.826 1.7 1.233 3.942.95 6.726-.845-.306-11.872.485-23.532 2.37-34.98a6 6 0 0 1 4.841-4.923l.203-.034 1.224-.177c6.52-.914 12.944-1.37 19.27-1.37l1.487.007c8.308.076 25.104.748 50.386 2.016a6.76 6.76 0 0 1 5.978 4.336l.074.204.25.73c3.775 11.237 5.663 23.79 5.663 37.66 0 13.235-1.76 24.757-5.276 34.567a9.01 9.01 0 0 1-8.164 5.957l-.235.005-3.62.03c-7.11.047-13.464.022-19.06-.074l-3.226-.057-39.548-.015c-4.3.025-8.006-2.982-8.875-7.162l-.044-.225-.206-1.15c-1.026-5.83-1.836-11.878-2.43-18.143-2.883-3.094-5.845-3.334-8.888-.72a201.03 201.03 0 0 1-3.786 22.485l-.29 1.263c-.922 3.95-4.382 6.796-8.445 6.945l-17.994.637-20.507.6-2.625.048-20.075.05-1.818-.016a9.01 9.01 0 0 1-8.388-5.929c-4.462-12.29-6.693-25.323-6.693-39.097 0-13.87 1.888-26.423 5.663-37.66l.25-.73c.9-2.604 3.294-4.402 6.052-4.54l8.527-.42L937.242 75zm-7.5 7.492l-1.183.044c-7.523.31-18.066 1.27-31.63 2.885l-2.206.265a3 3 0 0 0-2.628 2.69l-.172 1.835c-2.738 29.79-1.898 50.443 2.52 61.96 1.96 5.11 21.237 5.86 57.828 2.248l.33-2.79c1.95-16.72 2.822-28.986 2.61-36.797l-.01-.318c-.257-8.215-1.234-18.4-2.933-30.525-6.64-1.277-14.152-1.776-22.53-1.498zm69.093 0l-.812-.025c-7.87-.22-12.295.288-13.273 1.523l-.227 1.643c-1.56 11.414-2.46 21.04-2.705 28.883l-.02.758c-.18 8.206.743 20.256 2.768 36.15 38.093 2.114 58.12.616 60.08-4.495 4.5-11.727 4.636-31.272.41-58.634a3 3 0 0 0-2.695-2.528l-6.67-.6c-17.378-1.543-29.664-2.433-36.858-2.672z" class="G"/><path d="M934.71 225c15.02 12.246 42.116 3.073 52.24 4.076.532.053.462 1.33 0 1.6l-3.4 3.38c-2.258 1.314-4.73 2.395-7.306 2.847-3.926.69-9.456-2.573-11.947.532-1.873 2.336 5.095 3.345 6.953 5.693 6.43 8.126-11.446 6.67-13.017 6.757" class="B C D H"/><path d="M273.14 292.668C241.436 188.112 351.46 53.248 431 29 551.786-7.823 583.426 202.926 578 205c-33.475 12.797-135.096 42.02-304.86 87.668z" fill="#011638"/><path d="M524.674 117.927c5.45 43.488-37.133 153.25-82.104 147.217-37.77-5.066-59.773-37.147-71.42-71.482C369.18 187.856 340 203 336 176s27.836-10.042 27-15c-2.794-16.57-2.582-30.63-2.157-41.86.067-1.773 9.6-7.256 29.982-10.495 9.12-1.45 20.41-2.45 33.998-2.466 19.383-.025 41.04 1.88 59.218 4.186 5.228.663.444-48.057 4.96-47.365 4.596.705 18.476 50.82 22.047 51.48 8.388 1.547 13.553 2.862 13.626 3.447z" fill="#fff"/><g class="E B C D"><path d="M466 141c2.464 23.7 20 15.905 20 .08M467 154l-6 8m15-5l-4 13m9-15l3 11"/><path d="M444 136c16.21 24.68 26.026 39.117 29.444 43.308 1.508 1.85 4.41 4.057 3.536 6.337-.804 2.094-19.898 3.677-21.576.287-.868-1.753-1.12-7.846-1.06-5.857.358 12.237 1.43 19.953 3.217 23.148" fill="#fff"/><path d="M413.42 141.7c-3.73 15.702 18.435 17.7 22.58-1.7m-20 13l-7 5"/><path d="M422.654 154l-.3 9M430 153l3 7"/></g><path d="M440.698 204.02c6.5.718 4.524 9.82 9.604 8.6 2.564-.615 4.7-3.453 7.312-2.985 3.948.7 9.424 4.23 16.427 10.556l-18.834 8.698c-11.845 5.708-48.1-14.568-56.495-22.15l29.712 9.52c46.29 6.64 36.387 3.466-29.712-9.52 11.465-6.353 35.485-3.436 41.986-2.72z" class="G"/><path d="M731.985 259.23c23.814 0 53.064-1.498 87.75-4.493l9-44.18h-39l3-64.398h-216l-1.32 35.712C550.472 174.923 538 178.19 538 191.667s11.162 21.523 33.485 24.132l7.5 34.445c78.186 5.99 129.186 8.986 153 8.986z" fill="#ffa300"/><path d="M705.537 177.998c-1.077-18.804 15.64-23.6 20.273-6.282 3.535 13.205-15.735 14.458-21.8 6.282m64.478 2.678c.327-4.002.085-8.1.98-12.005 3.883-16.978 25.083-.505 13.84 13.68" class="F"/><path d="M803.14 131.062c4.623 0-.847 41.262-3.75 49.542-3.682 10.503-12.37 8.237-21.75 8.237-2.98 0-5.538-.098-7.787-.358-4.88-5.918-11.575-12.692-18.645-18.274h0l1.047 6.1-.615-.952-.73-1.18c-5.684 14.343-17.132 18.4-31.02 18.4-32.115 0-44.93-24.463-39.792-61.524H803.14zm-63.814 16.715h-43.388l-.013.213c-.627 10.17.782 17.734 3.945 22.748l.168.262.16.24c3.785 5.583 10.517 8.496 21.193 8.496 7.873 0 13.086-5.482 16.21-19.136l.1-.454c.516-2.427 1.023-6.142 1.504-11.083l.093-.972.028-.314zm51.535 0h-32.14l.016.063c4.85 19.885 11.38 27.8 24.063 28.14l.386.008.454.003c.454 0 .7-.096 1.118-.503.9-.855 1.887-2.545 2.794-5.133 1.724-4.918 2.84-12.153 3.27-21.602l.04-.976z" fill-rule="nonzero" class="G"/><g class="B C D E"><path d="M751.2 172.2c15.086 11.9 28.46 29.25 26.168 32.1-3 3.744-13.85 4.515-16.5 2.995-2.13-1.22-1.168.434-1.168 14.395M718.26 210c17.662 13.1 37.267 14.766 56.63 10.8m-37.716 22.828c3.784 15.127 12.713 24.66 22.167 37.32m-6.72-38.968c10.33 32.675 8.034 18.738 10.377 41.086m2.475-38.732c3.087 31.768 2.712 18.557 2.712 39.556m10.966-39.556l-7.074 43.44m16.626-42.262c-.85 15.4-4.9 27.68-12.617 40.967m23.11-42.5c-1.4 15.02-5.693 29.5-15.8 41.205"/><path d="M804.974 260.1c-12.488 16.73-13.998 21.857-32.663 26.253m-52.79-81.823c-1.13 3.036-3.38 6.03-7.13 6.204"/></g><path d="M70 291.5h1060M70 606.5h1060" stroke="#0d62fe" stroke-width="20.322" class="D"/><path d="M59.787 325.6c2.958.148 5.293 2.785 7.84 4.747 8.434 6.5 13.9 15.106 16.6 30.266.2 1.17-.058 2.434 0 3.646.158 3.286.55 6.542.65 9.834.073 2.397.405 11.25-.433 15.345-1.288 6.298-3.56 12.592-5.84 18.14-3.165 7.704-6.956 10.637-12.273 14.92-9.2 7.412-19.66 4.9-29.467 3.137l-2.8-3.305c-3.585-1.222-10.55-7.5-13.14-11.446-2.508-3.823-4.233-13.175-4.92-16.36-1.994-9.237-2.703-21.9-1.135-31.2.737-4.376 5.393-15.14 6.76-18.397 1.78-4.244 4.7-7.17 7.46-9.58 9.663-8.466 19.72-10.3 30.7-9.748zm7.333 31.345c-4.55-11.387-10.864-12.95-18.88-12.314-4.016.32-7.6 2.834-10.717 6.954s-3.6 8.662-5.324 14.823h0l-.283-.133.001.015c-.017.977-.896 3.455-.452 10.558l.026.392c.6 8.856 1.772 21.164 7.807 24.97 4.813 3.036 9.03 2.328 14.337 1.94 5.27-.385 14.582-11.895 15.2-20.754.34-4.987.116-10.043-.07-15.05-.075-2.023-.58-8.764-1.634-11.4zM30 365.373l1.917.892.001-.037c-.01-.622-.427-.6-1.918-.856zm991.787-50.773c2.958.148 5.293 2.785 7.84 4.747 8.434 6.5 13.9 15.106 16.6 30.266.2 1.17-.058 2.434 0 3.646.158 3.286.55 6.542.65 9.834.073 2.397.405 11.25-.433 15.345-1.288 6.298-3.56 12.592-5.84 18.14-3.165 7.704-6.956 10.637-12.273 14.92-9.2 7.412-19.66 4.9-29.467 3.137l-2.8-3.305c-3.585-1.222-10.55-7.5-13.14-11.446-2.508-3.823-4.233-13.175-4.92-16.36-1.994-9.237-2.703-21.9-1.135-31.2.737-4.376 5.393-15.14 6.76-18.397 1.78-4.244 4.7-7.17 7.46-9.58 9.663-8.466 19.72-10.3 30.7-9.748zm7.333 31.345c-4.55-11.387-10.864-12.95-18.88-12.314-4.016.32-7.6 2.834-10.717 6.954s-3.6 8.662-5.324 14.823h0l-.283-.133.001.015c-.017.977-.896 3.455-.452 10.558l.026.392c.6 8.856 1.772 21.164 7.807 24.97 4.813 3.036 9.03 2.328 14.337 1.94 5.27-.385 14.582-11.895 15.2-20.754.34-4.987.116-10.043-.07-15.05-.075-2.023-.58-8.764-1.634-11.4zM992 354.373l1.917.892.001-.037c-.01-.622-.427-.6-1.918-.856zm73.787 90.227c2.958.148 5.293 2.785 7.84 4.747 8.434 6.5 13.9 15.106 16.6 30.266.2 1.17-.058 2.434 0 3.646.158 3.286.55 6.542.65 9.834.073 2.397.405 11.25-.433 15.345-1.288 6.298-3.56 12.592-5.84 18.14-3.165 7.704-6.956 10.637-12.273 14.92-9.2 7.412-19.66 4.9-29.468 3.137l-2.8-3.305c-3.585-1.222-10.55-7.5-13.14-11.446-2.508-3.823-4.233-13.175-4.92-16.36-1.994-9.237-2.703-21.9-1.135-31.2.737-4.376 5.393-15.14 6.76-18.397 1.78-4.244 4.7-7.17 7.46-9.58 9.663-8.466 19.72-10.3 30.7-9.748zm7.333 31.345c-4.55-11.387-10.864-12.95-18.88-12.314-4.016.32-7.6 2.834-10.717 6.954s-3.6 8.662-5.324 14.823h0l-.283-.133.001.015c-.017.977-.896 3.455-.452 10.558l.026.392c.6 8.856 1.772 21.164 7.807 24.97 4.813 3.036 9.03 2.328 14.337 1.94 5.27-.385 14.582-11.895 15.2-20.754.34-4.987.116-10.043-.07-15.05-.075-2.023-.58-8.764-1.634-11.4zm-37.12 8.438l1.917.892.001-.037c-.01-.622-.427-.6-1.918-.856zM169.787 444.6c2.958.148 5.293 2.785 7.84 4.747 8.434 6.5 13.9 15.106 16.6 30.266.2 1.17-.058 2.434 0 3.646.158 3.286.55 6.542.65 9.834.073 2.397.405 11.25-.433 15.345-1.288 6.298-3.56 12.592-5.84 18.14-3.165 7.704-6.956 10.637-12.273 14.92-9.2 7.412-19.66 4.9-29.467 3.137l-2.8-3.305c-3.585-1.222-10.55-7.5-13.14-11.446-2.508-3.823-4.233-13.175-4.92-16.36-1.994-9.237-2.703-21.9-1.135-31.2.737-4.376 5.393-15.14 6.76-18.397 1.78-4.244 4.7-7.17 7.46-9.58 9.663-8.466 19.72-10.3 30.7-9.748zm7.333 31.345c-4.55-11.387-10.864-12.95-18.88-12.314-4.016.32-7.6 2.834-10.717 6.954s-3.6 8.662-5.324 14.823h0l-.283-.133.001.015c-.017.977-.896 3.455-.452 10.558l.026.392c.6 8.856 1.772 21.164 7.807 24.97 4.813 3.036 9.03 2.328 14.337 1.94 5.27-.385 14.582-11.895 15.2-20.754.34-4.987.116-10.043-.07-15.05-.075-2.023-.58-8.764-1.634-11.4zM140 484.373l1.917.892.001-.037c-.01-.622-.427-.6-1.918-.856zM544.787 331.6c2.958.148 5.293 2.785 7.84 4.747 8.434 6.5 13.9 15.106 16.6 30.266.2 1.17-.058 2.434 0 3.646.158 3.286.55 6.542.65 9.834.073 2.397.405 11.25-.433 15.345-1.288 6.298-3.56 12.592-5.84 18.14-3.165 7.704-6.956 10.637-12.273 14.92-9.2 7.412-19.66 4.9-29.467 3.137l-2.8-3.305c-3.585-1.222-10.55-7.5-13.14-11.446-2.508-3.823-4.233-13.175-4.92-16.36-1.994-9.237-2.703-21.9-1.135-31.2.737-4.376 5.393-15.14 6.76-18.397 1.78-4.244 4.7-7.17 7.46-9.58 9.663-8.466 19.72-10.3 30.7-9.748zm7.333 31.345c-4.55-11.387-10.864-12.95-18.88-12.314-4.016.32-7.6 2.834-10.717 6.954s-3.6 8.662-5.324 14.823h0l-.283-.133.001.015c-.017.977-.896 3.455-.452 10.558l.026.392c.6 8.856 1.772 21.164 7.807 24.97 4.813 3.036 9.03 2.328 14.337 1.94 5.27-.385 14.582-11.895 15.2-20.754.34-4.987.116-10.043-.07-15.05-.075-2.023-.58-8.764-1.634-11.4zM515 371.373l1.917.892.001-.037c-.01-.622-.427-.6-1.918-.856zM633.787 444.6c2.958.148 5.293 2.785 7.84 4.747 8.434 6.5 13.9 15.106 16.6 30.266.2 1.17-.058 2.434 0 3.646.158 3.286.55 6.542.65 9.834.073 2.397.405 11.25-.433 15.345-1.288 6.298-3.56 12.592-5.84 18.14-3.165 7.704-6.956 10.637-12.273 14.92-9.2 7.412-19.66 4.9-29.467 3.137l-2.8-3.305c-3.585-1.222-10.55-7.5-13.14-11.446-2.508-3.823-4.233-13.175-4.92-16.36-1.994-9.237-2.703-21.9-1.135-31.2.737-4.376 5.393-15.14 6.76-18.397 1.78-4.244 4.7-7.17 7.46-9.58 9.663-8.466 19.72-10.3 30.7-9.748zm7.333 31.345c-4.55-11.387-10.864-12.95-18.88-12.314-4.016.32-7.6 2.834-10.717 6.954s-3.6 8.662-5.324 14.823h0l-.283-.133.001.015c-.017.977-.896 3.455-.452 10.558l.026.392c.6 8.856 1.772 21.164 7.807 24.97 4.813 3.036 9.03 2.328 14.337 1.94 5.27-.385 14.582-11.895 15.2-20.754.34-4.987.116-10.043-.07-15.05-.075-2.023-.58-8.764-1.634-11.4zM604 484.373l1.917.892.001-.037c-.01-.622-.427-.6-1.918-.856zM509.787 444.6c2.958.148 5.293 2.785 7.84 4.747 8.434 6.5 13.9 15.106 16.6 30.266.2 1.17-.058 2.434 0 3.646.158 3.286.55 6.542.65 9.834.073 2.397.405 11.25-.433 15.345-1.288 6.298-3.56 12.592-5.84 18.14-3.165 7.704-6.956 10.637-12.273 14.92-9.2 7.412-19.66 4.9-29.467 3.137l-2.8-3.305c-3.585-1.222-10.55-7.5-13.14-11.446-2.508-3.823-4.233-13.175-4.92-16.36-1.994-9.237-2.703-21.9-1.135-31.2.737-4.376 5.393-15.14 6.76-18.397 1.78-4.244 4.7-7.17 7.46-9.58 9.663-8.466 19.72-10.3 30.7-9.748zm7.333 31.345c-4.55-11.387-10.864-12.95-18.88-12.314-4.016.32-7.6 2.834-10.717 6.954s-3.6 8.662-5.324 14.823h0l-.283-.133.001.015c-.017.977-.896 3.455-.452 10.558l.026.392c.6 8.856 1.772 21.164 7.807 24.97 4.813 3.036 9.03 2.328 14.337 1.94 5.27-.385 14.582-11.895 15.2-20.754.34-4.987.116-10.043-.07-15.05-.075-2.023-.58-8.764-1.634-11.4zM480 484.373l1.917.892.001-.037c-.01-.622-.427-.6-1.918-.856zM711.787 382.6c2.958.148 5.293 2.785 7.84 4.747 8.434 6.5 13.9 15.106 16.6 30.266.2 1.17-.058 2.434 0 3.646.158 3.286.55 6.542.65 9.834.073 2.397.405 11.25-.433 15.345-1.288 6.298-3.56 12.592-5.84 18.14-3.165 7.704-6.956 10.637-12.273 14.92-9.2 7.412-19.66 4.9-29.467 3.137l-2.8-3.305c-3.585-1.222-10.55-7.5-13.14-11.446-2.508-3.823-4.233-13.175-4.92-16.36-1.994-9.237-2.703-21.9-1.135-31.2.737-4.376 5.393-15.14 6.76-18.397 1.78-4.244 4.7-7.17 7.46-9.58 9.663-8.466 19.72-10.3 30.7-9.748zm7.333 31.345c-4.55-11.387-10.864-12.95-18.88-12.314-4.016.32-7.6 2.834-10.717 6.954s-3.6 8.662-5.324 14.823h0l-.283-.133.001.015c-.017.977-.896 3.455-.452 10.558l.026.392c.6 8.856 1.772 21.164 7.807 24.97 4.813 3.036 9.03 2.328 14.337 1.94 5.27-.385 14.582-11.895 15.2-20.754.34-4.987.116-10.043-.07-15.05-.075-2.023-.58-8.764-1.634-11.4zM682 422.373l1.917.892.001-.037c-.01-.622-.427-.6-1.918-.856z" fill="#bdc2bf"/><g stroke="#bdc2bf" stroke-width="17.322" class="B D"><use xlink:href="#B"/><use xlink:href="#B" x="-38.297" y="120.286"/><use xlink:href="#B" x="69.703"/><use xlink:href="#B" x="347.703"/><path d="M1079.954 325.5c4.613 26.678 3.74 50.418-.954 77.006m34.954 57.994c4.613 26.678 3.74 50.418-.954 77.006M986.954 460.5c4.613 26.678 3.74 50.418-.954 77.006"/><use xlink:href="#B" x="437.703" y="120.286"/><use xlink:href="#B" x="514.703"/></g><path d="M237.307 683H343.25c3.5-70-30.5-105-102-105H53.75l-2.335 86.19C26.472 657.23 14 660.5 14 674s11.162 21.557 33.485 24.17L41 823.25 237.307 827V683z" stroke="#fb3640" fill="#fff" class="J"/><g class="E B C"><g class="D"><path d="M208.16 680.56c.933 20.17-3.974 44.646-23.16 55.613m31.524-55.613c-4.6 20.6-11.678 37.356-26.43 53.255m33.88-53.255c-4.938 22.42-16.323 44.006-36.695 56.068m45.592-56.068c-4.835 17.803-23.2 54.333-47.692 57.514m56.057-57.514c-6.386 23.052-22.773 56.753-50.6 56.753M287.052 743c-6.914 1.844-26.7-16.538-33.75-27-4.706-6.975-7.456-18.725-8.25-35.25"/><path d="M251.805 680.56c3.427 20.362 1.648 46.168 19.726 58.654M258.3 680c-3.695 10.16 14.46 55.056 24.743 56.525m-20.06-55.965c7.6 18.9 11.725 38.625 26.112 53.18m-19.04-53.18c8.93 20.995 10.786 41.18 28.544 54.928"/><path d="M246.787 680.56c10.78 32.623 16.85 46.52 49.075 52.57"/></g><path d="M118.5 602.04c11.2 4.407 21.878 10.4 33.57 13.222 1.643.397 1.78-2.95 2.125-4.604.86-4.137 1.693-8.374 1.456-12.593-.696-12.422-4.2-28.067-12.87-37.78-11.38-12.733-22.794-1.882-25.776 11.53-3.038 13.66-1.655 14.877.7 27.27l.786 2.952zm80.553 12.32c4.276-2.4 8.203-5.574 12.83-7.202 7.228-2.544 16.95.2 22.392-5.195 4.234-4.198 1.194-11.913.866-17.866-.512-9.283-3.8-29.052-13.97-33.213-16.535-6.773-27.395 11.267-28.06 25.264-.268 5.65-.454 11.364.355 16.96.895 6.197 3.148 12.12 4.722 18.18l.866 3.07z" fill="#e3e7d3"/><g class="F"><use xlink:href="#C"/><use xlink:href="#C" x="84" y="-5"/></g><g class="D"><path d="M113.137 41.58c11.977-10.096 23.006-25.407 35.932-30.29 10.603-4.004-38.855 34.563-28.732 27.57l-5.81 8.157c47.754-32.99 39.086-40.946-.035 8.158-7.962 9.993 16.655-18 25.358-25.673 5.062-4.47 20.527-16.314 15.827-10.687-11.827 14.16-24.803 24.883-37.427 36.55-4.108 3.796-17.152 12.167-12.73 9.8 8.975-4.803 17.797-10.61 26.436-17.136 9.042-6.832 28.416-40.362 26.54-22.9-1.29 12.024-43.61 35.717-49.776 40.153-1.832 1.318-6.908 6.833-5.08 5.5 12.176-8.864 23.945-19.526 36.175-28.138 4.32-3.042 17.563-10.434 13.392-6.766l-3.444 4.236c-35.03 30.804-59.458 47.792 1.982 2.024" transform="matrix(.615661 -.788011 -.788011 -.615661 175.632385 745.421497)"/><path d="M13.445 12c11.85 5.246 44.74 18.99 44.42 28.48-.725 21.523-27.37-22.103-39.723-19.97-.502.087.054 1.713.522 1.983l6.922 5.27c6.622 3.817 13.544 6.563 20.175 10.348 3.377 1.928 12.993 9.25 9.81 6.77-9.49-7.396-36.405-32.238-28.732-21.518L10.488 18.77c8.216 11.48 20.02 16.597 30.33 24.13C77.723 69.85 16.37 19.225 10.453 27.135c-.983 1.314 1.86 2.877 3.06 3.772 8.378 6.24 16.916 12.076 25.566 17.553 4.245 2.687 17.315 9.626 13.078 6.914-7.757-4.966-30.167-21.36-23.653-13.684L12.54 38.546C18.11 45.11 49.37 56 57.273 59" transform="matrix(.71934 .694658 .694658 -.71934 77.898354 624.377885)"/></g></g><path d="M893.142 642.815c-1.5-26.347 21.8-33.052 28.26-8.8 4.928 18.502-21.933 20.257-30.4 8.8" class="F"/><path d="M927.432 569.968c8.98 0 18.1.65 27.356 1.948l1.737.25c3.665.545 6.56 3.393 7.16 7.046 2.742 16.663 3.852 33.64 3.332 50.934 2.413 1.752 5.596 1.35 9.55-1.202-.434-16.88.688-33.456 3.366-49.732.585-3.557 3.344-6.35 6.872-7l.288-.048 1.737-.25c9.257-1.3 18.376-1.948 27.356-1.948l2.11.01c11.795.108 35.638 1.064 71.53 2.866 3.81.19 7.136 2.62 8.486 6.165l.105.3.353 1.04c5.36 15.976 8.04 33.823 8.04 53.543 0 18.816-2.497 35.197-7.5 49.145-1.767 4.937-6.367 8.284-11.6 8.47l-.334.008-5.137.042c-10.095.066-19.113.03-27.057-.106l-4.58-.08-56.143-.02c-6.104.035-11.366-4.24-12.6-10.182l-.062-.32-.292-1.634c-1.456-8.29-2.606-16.887-3.45-25.794-4.092-4.4-8.298-4.74-12.617-1.023-1.175 10.682-2.967 21.337-5.375 31.968l-.413 1.796c-1.31 5.617-6.22 9.662-11.99 9.874l-25.545.906-29.112.85-3.727.068-28.5.07-2.58-.023c-5.34-.05-10.088-3.41-11.907-8.43-6.335-17.474-9.502-36.002-9.502-55.585 0-19.72 2.68-37.567 8.04-53.543l.353-1.04c1.276-3.703 4.677-6.258 8.59-6.455l12.105-.598 61.535-2.278zm-10.78 10.106l-1.677.063c-10.665.44-25.613 1.814-44.842 4.12l-3.127.378a4.27 4.27 0 0 0-3.726 3.841l-.244 2.62c-3.882 42.53-2.7 72.016 3.575 88.46 2.78 7.297 30.108 8.367 81.984 3.21l.47-3.98c2.766-23.872 4-41.383 3.702-52.534l-.013-.455c-.364-11.728-1.75-26.255-4.157-43.58-9.416-1.823-20.063-2.536-31.942-2.14zm98.324 1l-1.15-.035c-11.15-.31-17.418.408-18.803 2.156l-.322 2.325c-2.208 16.158-3.486 29.787-3.833 40.887l-.028 1.073c-.255 11.617 1.052 28.675 3.922 51.174 53.966 2.993 82.338.87 85.116-6.364 6.374-16.6 6.568-44.27.582-83.005a4.25 4.25 0 0 0-3.818-3.579l-9.448-.85c-24.62-2.184-42.025-3.444-52.217-3.782z" fill="#f5b700"/><path d="M942.375 575.52l194.25 13.53c1.9 7.445 2.96 45.128 3.182 113.05l-3.182 71.112c-66.5 9.52-152.25 9.52-257.25 0-3.465-65.486 17.082-130.727 61.642-195.722l1.358-1.97z" class="G"/><g class="E B C D"><path d="M1033 752.7c20.95-9.986 31.325-8.537 51.252 2.516M882 725.516c20.95 9.986 31.325 8.537 51.252-2.516"/><path d="M953.935 579c-.215 12.262-7.018 58.715 6.237 76.594 32.545 43.898 115.948 97.93 165.828 51.736"/><path d="M959.38 680.306c3.16-8.323 5.434-15.533 15.343-20.922 5.495-2.99 12.626-1.964 18.752-.698 5.262 1.087 10.542 3.637 14.26 7.516 16.62 17.346 1.243 43.32-18.91 46.65-7.4 1.222-27.04 3.848-31.383-6.5" class="G"/><path d="M1006 583c15.666 46.232 31.98 83.602 75.24 106.822 14.95 8.025 49.843 26.862 64.76 8.18M1071 575c10.944 51.387 25.84 109.575 80 119"/></g><path d="M639.238 686.1c26.47-33.018 76.243-37.46 117.843-35.803 34.257 1.365 49.84 8.32 65.907 28.595C826.432 683.237 844 659 858 687s-16.43 20.69-14.117 27.158c8.11 22.668 3.248 41.837-5.982 60.21-27.8 55.335-158.91 72.377-202.3 20.32-14.782-17.74-14.2-42.266-10.107-65.1C626.744 722.657 591 740 601 704s31.537-5.182 32.656-9.945l5.582-7.956z" fill="#ff8100"/><g class="B C D E"><path d="M707.675 687.07c.59 13.923-3.153 42.227 17.872 44.406 6.857.71 13.81.293 20.678-.296 6.626-.568 9.212-3.724 14.472-7.55"/><path d="M721.115 686.773c.697 17.196-2.197 35.032 11.52 47.8 8.233 7.67 29.54-.847 29.54-11.25"/><path d="M734.26 697.135c-.975 10.26 12.903 51.905 29.246 35.525"/></g><path d="M701.56 630.52c-5.434-10.502-8.098-23.752-1.126-34.737 10.458-16.477 32.684-20.134 41.287-.133 6.675 15.52-9.455 34.702-9.01 36.633 2.525 10.993 38.31-33.082 31.41-9.522-8.617 29.413-57.395 34.394-78.76 17.898s-1.23-16.295 11.784-10.183l4.418.044z" fill="#001c6c"/><g transform="matrix(.965926 -.258819 .258819 .965926 274.282927 631.345259)"><path d="M49.854 33.186C10.42 118.144-5.55 177.124 1.944 210.124 63.81 259.34 130.46 277.2 201.9 263.7c38.007-76.176 50.267-125.513 36.78-148.013 32.468 8.5 51.95 5 58.443-10.5s-19.48-33.25-77.924-53.25c-39.34-10.053-70.06-16.303-92.16-18.75s-47.826-2.447-77.175 0z" fill="#044917"/><g class="B C D"><path d="M58 49.232c2.18-14.72 20.998-38.77 34.377-44.428 3.522-1.49 7.2-2.63 10.954-3.404 2.408-.497 6.42-2.65 7.366-.378 6.942 16.672-25.69 43.698-38.152 47.263-1.1.312-.267-2.36.187-3.4 1.346-3.08 2.813-6.236 5.1-8.7 11.7-12.616 26.997-27.975 45.14-31.38 1.61-.302 4.3-1.516 4.912 0 4.93 12.003-6.625 31.57-17.565 37.242-4.803 2.5-10.968 10.696-14.733 6.808-3.622-3.74 5.23-9.14 8.878-12.856 6.948-7.08 14.53-13.605 22.664-19.282 4.253-2.97 9.212-4.9 14.168-6.43 4.322-1.333 8.903-2.477 13.408-2.078 1.234.11 1.377 2.167 1.51 3.4 1.897 17.377-17.6 34.2-31.732 40.27-1.33.573-.467-2.976 0-4.348.586-1.72 1.827-3.17 3.023-4.54 3.225-3.69 6.61-7.25 10.198-10.586 1.78-1.656 3.757-3.12 5.855-4.348 7.174-4.2 14.162-8.905 21.912-11.912 3.656-1.42 8.487-3.372 11.7-1.135 2.535 1.76 1.11 6.384 0 9.265-4.922 12.76-8.74 19.743-18.698 26.655-3.82 2.65-9.048 5.367-13.977 4.917-.618-.056.37-1.218.756-1.704 4.538-5.707 9.075-11.428 13.977-16.825 5.18-5.704 10.55-11.254 16.24-16.447 1.46-1.333 3.18-2.57 5.103-3.026 5.372-1.273 11.36-4.263 16.43-2.078 2.776 1.196.836 6.228-.19 9.074-2.275 6.302-10.99 18.593-16.618 23.064-12.653 10.053-12.427 1.75-6.8-4.348 7.067-7.66 14.063-15.528 22.286-21.93 2.766-2.153 6.56-2.602 10.01-3.213 2.666-.472 5.664-1.136 8.122 0 1.465.677 1.534 2.932 1.698 4.54.347 3.386 1.085 7.052-.187 10.208-4.502 11.17-17.492 24.318-29.843 25.142" class="I"/><path d="M193 67.942c2.33 4.16 4.2 8.62 6.988 12.478 7.165 9.88 22.087 6.3 23.797-5.86.763-5.43.504-10.965.378-16.447-.006-.252-.504 0-.756 0M201.28 160.865c17.15 16.082 32.735 2 48.92-8.32" stroke="#e3e7d3"/><path d="M243.334 177.478c8.336 3.503 6.58 1.255 10.763 12.478 1.672 4.486 3.27 9.067 3.97 13.803.636 4.3.752 8.76 0 13.043-1.385 7.882-18.685 11.894-23.045 5.104-6.8-10.588-8.516-16.252-9.63-28.924-.233-2.648-1.052-6 .756-7.94 1.5-1.616 5.014-1.52 6.6 0a33.11 33.11 0 0 1 8.874 14.747c1.88 6.682 1.624 13.87 1.134 20.795-.443 6.246-11.908 16.898-17.374 9.265-4.354-6.08-6.336-13.014-6.988-20.42-.597-6.78-1.635-13.727-.378-20.416 2.078-11.06 6.067 1.215 6.6 5.67.887 7.26 1.268 14.654.565 21.933-.568 5.887-2.55 11.568-4.343 17.203-.488 1.533-1.317 3.02-2.454 4.157s-2.582 2.127-4.156 2.46c-1.852.393-4.098.68-5.668-.378-1.564-1.056-2.238-3.228-2.454-5.104-1.497-13-2.832-26.063-2.645-39.136.016-1.1 2.998-1.633 3.214-.565 2.933 14.514-.74 22.925-7.18 35.92-1.263 2.55-6.5 8.84-10.767 6.617-6.914-3.612-2.398-34.7 4.912-38.945.6-.35 1.952-.872 2.076-.187 2.115 11.644-4.408 23.754-12.652 31.572-1.92 1.82-15.4 7.648-16.8 4.157-4.758-11.713-.52-33.305 10.198-40.646.735-.503 2.5-1.258 2.645-.378 2.782 16.72-4.573 18.166-18.32 29.872-2.237 1.905-5.948 6.994-7.557 4.535l-3.588.756c-6.15-9.4 17.274-26.34 17.755-40.455.045-1.328-1.153 2.45-2.08 3.4-4.012 4.118-8.435 7.814-12.652 11.72m89.165-85.96c3.64 1.55 2.872.555 4.698 5.518.73 1.984 1.427 4 1.733 6.104.278 1.902.328 3.875 0 5.768-.605 3.486-8.156 5.26-10.06 2.257-2.968-4.683-3.717-7.187-4.203-12.792-.102-1.17-.46-2.65.33-3.5.655-.715 2.2-.672 2.886 0a14.68 14.68 0 0 1 3.873 6.522c.82 2.955.7 6.134.495 9.196-.193 2.762-5.198 7.473-7.584 4.097-1.9-2.7-2.766-5.755-3.05-9.03-.26-3-.714-6.07-.165-9.03.907-4.9 2.648.537 2.886 2.507.387 3.2.553 6.48.247 9.7-.248 2.604-1.113 5.116-1.896 7.608-.213.678-.575 1.335-1.07 1.838s-1.127.94-1.814 1.088c-.8.174-1.8.3-2.474-.167s-.977-1.428-1.07-2.257c-.654-5.744-1.236-11.526-1.155-17.308.007-.48 1.3-.722 1.403-.25 1.28 6.42-.323 10.14-3.134 15.885-.55 1.127-2.842 3.9-4.7 2.926-3.018-1.597-1.047-15.346 2.144-17.224.262-.154.852-.385.906-.083.923 5.15-1.924 10.505-5.523 13.963-.838.805-6.718 3.382-7.337 1.838-2.077-5.18-.227-14.73 4.452-17.975.32-.223 1.1-.556 1.155-.167 1.214 7.394-1.996 8.034-7.997 13.2-.976.842-2.596 3.093-3.3 2.006l-1.566.335c-2.685-4.157 7.54-11.65 7.75-17.9.02-.587-.503 1.083-.908 1.504-1.75 1.82-3.682 3.456-5.523 5.184" class="I"/></g></g><path d="M887 443h-28v-14h28v14zm0 24h-28v-14h28v14zm-4 28h-73v-14h73v14zm-76-47.8h22.167c1.742 0 3.167-1.478 3.167-3.3 0-1.815-1.425-3.3-3.167-3.3h-6.333c-8.734 0-15.833-7.405-15.833-16.5 0-7.966 5.447-14.632 12.667-16.163V401h12.667v6.6H845v13.2h-22.167c-1.748 0-3.167 1.485-3.167 3.3 0 1.822 1.42 3.3 3.167 3.3h6.333c8.727 0 15.833 7.405 15.833 16.5 0 7.966-5.453 14.64-12.667 16.17V467h-12.667v-6.6H807v-13.2zm95.08-32.266l-32.778-33a6.52 6.52 0 0 0-4.635-1.934h-72.1c-3.62 0-6.556 2.957-6.556 6.6v118.8c0 3.65 2.937 6.6 6.556 6.6h104.9c3.62 0 6.556-2.95 6.556-6.6v-85.8c0-1.75-.688-3.432-1.92-4.666h0zm-525.922 21.642L366.733 446 339 418.267l9.424-9.424c2.457-2.457 6.427-2.457 8.884 0l18.85 18.85c2.457 2.457 2.457 6.427 0 8.884h0zm-44.97 45.483c-1.292 1.292-2.988 1.94-4.684 1.94s-3.392-.65-4.684-1.94l-19.876-19.876a6.62 6.62 0 0 1 0-9.368L331.756 423 361 452.244l-29.813 29.814zm71.95-64.392a6.78 6.78 0 0 0 0-9.332l-25.4-26.4a6.17 6.17 0 0 0-8.979 0c-3.632 3.775-12.8 3.775-16.42 0a6.17 6.17 0 0 0-8.979 0l-63.498 65.998a6.78 6.78 0 0 0 0 9.332c3.835 3.986 3.835 13.08 0 17.067a6.78 6.78 0 0 0 0 9.332l25.4 26.4a6.17 6.17 0 0 0 8.979 0c3.632-3.775 12.8-3.775 16.42 0 1.238 1.287 2.864 1.934 4.5 1.934s3.25-.647 4.5-1.934l63.498-65.998a6.78 6.78 0 0 0 0-9.332c-3.835-3.986-3.835-13.08 0-17.067h0z" fill="#0d62fe"/></g><defs ><path id="B" d="M128.343 337.214c-4.613 26.678-3.74 50.418.954 77.006"/><path id="C" d="M127.708 579.308c-1.32 8.66.214 14.627 4.604 17.905 7.978 5.958 18.712-4.265 19.795-11.845 1.28-8.965-5.74-22.9-12.5-20.65-6.453 2.15-10.423 7.015-11.91 14.6z"/></defs></svg>