<svg xmlns="http://www.w3.org/2000/svg" xmlns:xlink="http://www.w3.org/1999/xlink" width="649" height="587" xmlns:v="https://vecta.io/nano"><style><![CDATA[.B{stroke-linejoin:round}.C{stroke-linecap:round}.D{stroke-width:.5}.E{fill:#fff}.F{stroke:#000}.G{fill-rule:nonzero}.H{fill:#b33f62}.I{stroke-width:.6}.J{fill:#06f}.K{fill:#f2f4f6}.L{stroke-width:.72}.M{fill:#f4f2ee}.N{stroke-width:.834}.O{fill:#fb3640}.P{fill:#42be65}.Q{fill:#ff9d00}.R{stroke:#212121}.S{mask:url(#b)}.T{fill:#14591d}.U{stroke-width:1.058}.V{mask:url(#i)}.W{stroke:#001d75}.X{fill:#0064ff}.Y{fill:#001d71}.Z{stroke-width:1.858}]]></style><defs><filter x="-12.5%" y="-2.7%" width="127.9%" height="105.4%" id="A"><feOffset dy="1" in="SourceAlpha"/><feGaussianBlur stdDeviation="2"/><feColorMatrix values="0 0 0 0 0 0 0 0 0 0.160784314 0 0 0 0 0.349019608 0 0 0 0.1 0" result="C"/><feMerge><feMergeNode in="C"/><feMergeNode in="SourceGraphic"/></feMerge></filter><filter x="-28.6%" y="-600.0%" width="157.1%" height="1300.0%" id="B"><feOffset dy="24" in="SourceAlpha"/><feGaussianBlur stdDeviation="16"/><feColorMatrix values="0 0 0 0 0.3515625 0 0 0 0 0.3515625 0 0 0 0 0.3515625 0 0 0 0.1 0" result="C"/><feMerge><feMergeNode in="C"/><feMergeNode in="SourceGraphic"/></feMerge></filter><path d="M.47 4.14c-2 3.25 2.75 11.375 7 12s10-10 8-13-5.913-3.43-9-3c-2.024.282-5.208 2.713-6 4z" id="C"/><path d="M.085.657C.03 8.288 3.416 12.432 10.243 13.09c5.286.51 8.1-3.79 8.414-12.9L.085.657z" id="D"/><path d="M16.8 0C7.522 0 0 7.522 0 16.8s7.522 16.8 16.8 16.8 16.8-7.522 16.8-16.8S26.078 0 16.8 0z" id="E"/><path d="M.085.657C.03 8.288 3.416 12.432 10.243 13.09c5.286.51 8.1-3.79 8.414-12.9-3.34 1.74-6.1 2.635-8.254 2.69S4.8 2.193.085.657z" id="F"/><path d="M7.593 18.4c1.72 0 4.04-.343 5.315-1.668 1.83-1.903 2.278-4.528 2.278-7.92 0-2.332.183-4.517-.76-6.254-1.384-2.55-4.34-2.5-6.834-2.5-2.287 0-4.682-.53-6.074 1.668C.36 3.554 0 6.195 0 8.81c0 3.285.548 6.01 2.278 7.92C3.58 18.17 5.793 18.4 7.593 18.4z" id="G"/><filter x="-38.9%" y="-34.5%" width="177.5%" height="168.8%" id="H"><feOffset dy="29" in="SourceAlpha"/><feGaussianBlur stdDeviation="19"/><feColorMatrix values="0 0 0 0 0.3515625 0 0 0 0 0.3515625 0 0 0 0 0.3515625 0 0 0 0.1 0" result="C"/><feMerge><feMergeNode in="C"/><feMergeNode in="SourceGraphic"/></feMerge></filter><filter x="-4.8%" y="-12.8%" width="109.5%" height="125.5%" id="I"><feOffset dy="1" in="SourceAlpha"/><feGaussianBlur stdDeviation="2.5"/><feColorMatrix values="0 0 0 0 0 0 0 0 0 0.160784314 0 0 0 0 0.349019608 0 0 0 0.1 0" result="C"/><feMerge><feMergeNode in="C"/><feMergeNode in="SourceGraphic"/></feMerge></filter><path d="M1.05 9.23c-4.457 7.243 6.13 25.35 15.6 26.743S38.936 13.687 34.48 7 21.302-.644 14.422.315C9.912.944 2.815 6.362 1.05 9.23z" id="J"/><path id="K" d="M71.3 60.72l-3.912 2.42-3.246-5.017c-.035-.054-.094-.08-.138-.124l.9-.93a.49.49 0 0 0 0-.68l-1.21-1.246a.46.46 0 0 0-.662 0l-1.21 1.246a.49.49 0 0 0 0 .68l.9.93c-.045.044-.103.07-.138.124l-3.247 5.017-3.912-2.42c-.324-.2-.735-.18-1.04.052a.98.98 0 0 0-.35 1.008l1.87 7.71c.104.428.48.73.908.73H69.9c.43 0 .804-.302.908-.73l1.87-7.71a.98.98 0 0 0-.35-1.008c-.305-.233-.714-.252-1.04-.052z"/><path id="L" d="M16.642 0C7.45 0 0 7.45 0 16.642s7.45 16.642 16.642 16.642 16.642-7.45 16.642-16.642S25.833 0 16.642 0z"/><path id="M" d="M1.16 2.25C-.84 5.5 1.34 9 3.75 9.375s3.985.056 4.66-.875c1.412-1.943 2.214-4.125.964-6S3.16-1 1.16 2.25z"/><path id="N" d="M1.653.647l.4-.293"/><path id="O" d="M.3.647L.7.353"/><path id="P" d="M13.29-1.208c-.492.787.662.722.885 1.12.094.168-.2.404-.102.57.308.52 1.09.843 1.323 1.65.047.162-.55.01-.478.163 1.082 2.325.687.07 1.21 1.73.034.107-.3-.102-.336 0l.346.5c-1.244 2.77-.15-3.672-.07.53.026 1.405-.086-.872-.01.58.008.15-.444-.13-.448.02-.005.192.492.192.438.377-.264.898.066.09-.01.417-.05.208-.527-.15-.64.03-.1.157.49.32.346.438-.227.188-.72-.235-.885.01-.137.203.636.26.55.488l-.58.173c-2.074 5.533 2.386-2.833-.346 1.72-.13.215-.67-.032-.723.214-.068.31.547.5.5.814-.034.223-.537-.01-.65.183-.1.154.405.336.275.458-.844.79-.76.153-1.76.61-.15.07.136.37.03.5l-.773-.04c-.17.2.357.606.163.794-.242.233-.738-.18-1.008.02l.102.58c-.466.347-.732-.444-1.65.07-.167.094.527.45.336.468-.358.033-.642-.357-.997-.407-1.08-.152-2.62.922-5.506.08"/><path id="Q" d="M.4.4c.305 6.533 3.438 9.933 9.4 10.2 5.65.253 8.65-3.414 9-11L.4.4z"/><path id="R" d="M12 2.685L14.58 0l2.36 2.918 3.364-2.7 1.975 2.794L24.984.156 27.3 3.47 30.676.01"/><path id="S" d="M8.8 5.885L11.38 3.2l2.36 2.918 3.364-2.7 1.975 2.794 2.706-2.866L24.1 6.67l3.378-3.46"/><path id="T" d="M16 9.085L18.58 6.4l2.36 2.918 3.364-2.7 1.975 2.794 2.706-2.866L31.3 9.87l3.378-3.46"/><path id="U" d="M12.8 11.485L15.38 8.8l2.36 2.918 3.364-2.7 1.975 2.794 2.706-2.866L28.1 12.27l3.378-3.46"/><path id="V" d="M10.4 14.685L12.98 12l2.36 2.918 3.364-2.7 1.975 2.794 2.706-2.866L25.7 15.47l3.378-3.46"/><path id="W" d="M0 9.085L2.58 6.4l2.36 2.918 3.364-2.7 1.975 2.794 2.706-2.866L15.3 9.87l3.378-3.46"/><path id="X" d="M4.29 1.033c-.02.334.305.42.395.11.07-.234-.307-.257-.425-.11"/><path id="Y" d="M44.5 13.02l-2.84 1.757-2.357-3.646c-.026-.04-.068-.058-.1-.1l.654-.675c.132-.136.132-.36 0-.494l-.878-.906c-.132-.136-.348-.136-.48 0l-.878.906c-.132.136-.132.36 0 .494l.654.675c-.033.032-.075.05-.1.1l-2.358 3.646-2.84-1.757c-.236-.146-.534-.13-.754.038s-.32.458-.254.732l1.358 5.6c.076.31.348.53.66.53h9.51c.312 0 .584-.22.66-.53l1.36-5.6c.067-.275-.034-.563-.254-.732s-.52-.183-.754-.038z"/><path id="Z" d="M8.695 0A8.7 8.7 0 0 0 0 8.704a8.7 8.7 0 0 0 8.695 8.704 8.7 8.7 0 0 0 8.695-8.704A8.7 8.7 0 0 0 8.695 0z"/><path id="a" d="M3.685 1.44l.89-.653"/></defs><g transform="translate(52 8)" fill="none" fill-rule="evenodd"><g filter="url(#A)"><g transform="translate(0 216)"><path d="M0 .2h437v40.2H0z" class="E"/><g transform="translate(36 24.4)"/><g class="M"><rect x="177" y="17" width="58.8" height="7.2" rx="3.6"/><rect x="83" y="17" width="56.4" height="7.2" rx="3.6"/></g><g class="K"><rect x="277" y="17" width="42" height="7.2" rx="3.6"/><rect x="364" y="11" width="50" height="17.2" rx="3.6"/></g></g><g transform="translate(0 348)"><path d="M0 .2h437v40.2H0z" class="E"/><g class="M"><rect x="177" y="18.8" width="69" height="7.2" rx="3.6"/><rect x="83" y="18.8" width="42.6" height="7.2" rx="3.6"/></g><g class="K"><rect x="277" y="18.8" width="42" height="7.2" rx="3.6"/><rect x="364" y="12" width="50" height="17.2" rx="3.6"/></g></g><g transform="translate(0 304)"><path d="M0 .2h437v40.2H0z" class="E"/><g class="M"><rect x="177.2" y="17" width="54.6" height="7.2" rx="3.6"/><rect x="83" y="17" width="56.4" height="7.2" rx="3.6"/></g><g class="K"><rect x="277.4" y="17" width="42" height="7.2" rx="3.6"/><rect x="364" y="12" width="50" height="17.2" rx="3.6"/></g></g><g transform="translate(0 260)"><path d="M0 .2h437v40.2H0z" class="E"/><g class="M"><rect x="177" y="18.8" width="58.8" height="7.2" rx="3.6"/><rect x="83" y="18.8" width="42.6" height="7.2" rx="3.6"/></g><g class="K"><rect x="277" y="18.8" width="42" height="7.2" rx="3.6"/><rect x="364" y="12" width="50" height="17.2" rx="3.6"/></g></g><path d="M0 0h437v40.004H0z" class="E"/><path d="M71.3 17.632l-3.912 2.407-3.246-4.993c-.035-.054-.094-.08-.138-.123l.9-.924a.49.49 0 0 0 0-.677l-1.21-1.24a.46.46 0 0 0-.662 0l-1.21 1.24a.49.49 0 0 0 0 .677l.9.924c-.045.043-.103.07-.138.123L59.33 20.04l-3.912-2.407a.92.92 0 0 0-1.039.052c-.303.23-.442.627-.35 1.003l1.87 7.67c.104.426.48.726.908.726H69.9a.94.94 0 0 0 .908-.726l1.87-7.67c.092-.376-.047-.77-.35-1.003s-.714-.25-1.04-.052z" class="P"/><g class="M"><rect x="177" y="16.718" width="69" height="7.165" rx="3.582"/><rect x="83" y="16.718" width="42.6" height="7.165" rx="3.582"/></g><g class="K"><rect x="277" y="16.718" width="42" height="7.165" rx="3.582"/><rect x="364" y="12" width="50" height="17.2" rx="3.6"/></g><g class="E"><path d="M0 86h437v40.2H0z"/><path d="M0 129h437v40.2H0z"/></g><g class="M"><rect x="177.2" y="103" width="54.6" height="7.2" rx="3.6"/><rect x="83" y="103" width="69" height="7.2" rx="3.6"/></g><g class="K"><rect x="277.4" y="103" width="42" height="7.2" rx="3.6"/><rect x="364" y="98" width="50" height="17.2" rx="3.6"/></g><path d="M0 43h437v40.2H0z" class="E"/><g class="P"><use xlink:href="#K"/><use xlink:href="#K" y="44"/><use xlink:href="#K" y="86"/></g><use xlink:href="#K" y="130" class="Q"/><g class="P"><use xlink:href="#K" y="173"/><use xlink:href="#K" y="218"/></g><g class="Q"><use xlink:href="#K" y="262"/><use xlink:href="#K" y="305"/></g><g class="M"><rect x="177.2" y="59" width="58.8" height="7.2" rx="3.6"/><rect x="83" y="59" width="34.8" height="7.2" rx="3.6"/></g><g class="K"><rect x="277.4" y="59" width="42" height="7.2" rx="3.6"/><rect x="364" y="54" width="50" height="17.2" rx="3.6"/></g><g transform="translate(0 173)"><path d="M0 0h437v40.004H0z" class="E"/><path d="M71.3 18.428l-3.912 2.407-3.246-4.993c-.035-.054-.094-.08-.138-.123l.9-.924a.49.49 0 0 0 0-.677l-1.21-1.24a.46.46 0 0 0-.662 0l-1.21 1.24a.49.49 0 0 0 0 .677l.9.924c-.045.043-.103.07-.138.123l-3.247 4.993-3.912-2.407a.92.92 0 0 0-1.039.052c-.303.23-.442.627-.35 1.003l1.87 7.67c.104.426.48.726.908.726H69.9a.94.94 0 0 0 .908-.726l1.87-7.67c.092-.376-.047-.77-.35-1.003s-.714-.25-1.04-.052z" class="P"/><g class="M"><rect x="177" y="16.718" width="54.6" height="7.165" rx="3.582"/><rect x="83" y="16.718" width="69" height="7.165" rx="3.582"/></g><g class="K"><rect x="277" y="16.718" width="42" height="7.165" rx="3.582"/><rect x="364" y="12" width="50" height="17.2" rx="3.6"/></g></g><g filter="url(#B)" transform="translate(36 141)"><g transform="translate(0 10.4)"/><g class="M"><rect x="141" y="4.8" width="58.8" height="7.2" rx="3.6"/><rect x="47" y="4.8" width="69" height="7.2" rx="3.6"/></g><g class="K"><rect x="241" y="4.8" width="42" height="7.2" rx="3.6"/><rect x="328" width="50" height="17.2" rx="3.6"/></g></g><g transform="translate(9 132)"><g transform="translate(.297 .286)"><use xlink:href="#L" class="G J"/><g transform="translate(4.593 10.392)"><g transform="translate(0 .004)"><path d="M16.068 11.197c1.973 0 4.395-.124 7.27-.372l.745-3.66h-3.23L21.1 1.83H3.21L3.1 4.79C1.033 4.214 0 4.484 0 5.6s.925 1.783 2.774 2l.62 2.853c6.476.496 10.7.744 12.673.744z" class="Q"/><g transform="translate(13.396 1.339)" fill="#212121"><path d="M.127.425c-.09 1.558 1.295 1.954 1.68.52C2.1-.15.503-.253 0 .425"/><path d="M5.342.177c.027.33.007.67.08.994C5.744 2.577 7.5 1.213 6.57.038"/></g><path d="M21.548.001c.383 0-.07 3.418-.31 4.104-.305.87-1.025.682-1.802.682a5.7 5.7 0 0 1-.647-.03 10.58 10.58 0 0 0-1.196-1.226l-.347-.288.086.504-.11-.176c-.47 1.188-1.42 1.525-2.57 1.525-2.66 0-3.722-2.026-3.296-5.096h10.192zm-5.286 1.385h-3.594l-.001.018c-.045.737.038 1.31.235 1.72l.12.207c.314.462.87.704 1.755.704.602 0 1.016-.387 1.28-1.336l.07-.287.05-.292.05-.393.034-.34zm4.27 0H17.87c.378 1.55.877 2.223 1.803 2.324l.26.013c.038 0 .057-.008.093-.042.075-.07.156-.21.23-.425.122-.35.208-.84.252-1.465l.022-.405z" fill="#ff0025" class="G"/><g class="B C N R"><path d="M17.66 3.99c1.25.987 2.357 2.423 2.168 2.66-.248.3-1.147.374-1.367.248-.176-.1-.097.036-.097 1.192"/><path d="M14.93 7.12c1.463 1.085 3.087 1.223 4.69.894"/></g><g class="W B C N"><path d="M16.498 9.905c.313 1.253 1.053 2.043 1.836 3.09"/><path d="M17.778 9.768c.856 2.707.665 1.552.86 3.403"/><path d="M18.842 9.963c.256 2.63.225 1.537.225 3.277"/><path d="M19.975 9.963l-.586 3.598"/><path d="M20.766 10.06c-.07 1.276-.407 2.293-1.045 3.393"/><path d="M21.636 9.934c-.117 1.244-.472 2.443-1.31 3.413"/><path d="M22.114 11.27c-1.034 1.386-1.16 1.8-2.706 2.175"/></g><path d="M15.036 6.666c-.094.25-.28.5-.59.514" class="B C N R"/></g></g></g><use xlink:href="#Jb" class="G J" href="#E"/><g transform="translate(11 5.8)" class="B D F"><path d="M5.8 4.4C3 4.4 2.4 7 2.4 9.4S0 11.6 0 15.2s2.6 5 6.8 4.4 6.4-5 5.2-6.6c-.8-1.067-1.6-2.533-2.4-4.4-.667-2.8-1.933-4.2-3.8-4.2z" class="P"/><circle transform="matrix(.777146 -.62932 .62932 .777146 -8.323016 8.896527)" cx="8.4" cy="16.2" r="1" class="E"/><path d="M6.6 0c-1.2 1.6-1.467 3.067-.8 4.4" class="C"/></g></g><g transform="translate(9 89)"><g transform="translate(.097 .086)" class="G J"><use xlink:href="#L"/></g><g transform="translate(8 7.4)" class="F B D"><g transform="translate(0 2.6)"><path d="M8.057 2.6C5.39-.867 2.99-.867.857 2.6c-3.2 5.2 3.4 12.6 6 11s2.2-1.6 3.4-.8c.39.26 3.118 1.29 4.2-.2 2.26-3.11 4.2-10 1.4-11.4-1.55-.774-2.99.1-5.8 1.4-.272.125-.938.125-2 0z" class="O"/><ellipse transform="matrix(.913545 -.406737 .406737 .913545 -.441535 5.322743)" cx="12.3" cy="3.7" rx="1.3" ry="1" class="E"/></g><path d="M10.057 0c-1.467 1.733-1.933 3.467-1.4 5.2" class="C"/></g></g><g transform="translate(9 307)"><g transform="translate(.097 .086)" class="G J"><use xlink:href="#L"/></g><g class="F B D"><g transform="translate(16 15)"><use xlink:href="#M" class="O"/><circle transform="matrix(.913545 -.406737 .406737 .913545 -.584204 3.126538)" cx="7.063" cy="2.938" r="1" class="E"/></g><g transform="translate(5 13)"><use xlink:href="#M" class="O"/><circle transform="matrix(.913545 -.406737 .406737 .913545 -.584204 3.126538)" cx="7.063" cy="2.938" r="1" class="E"/></g><g class="C"><path d="M11 14c5-5 6-6 7-8"/><path d="M20.747 16.34C19.842 12.927 16 13 18 6"/></g></g></g><g transform="translate(9 351)"><g transform="translate(.097 .086)" class="G J"><use xlink:href="#L"/></g><g transform="translate(9 4)"><g transform="translate(0 5.859)"><mask id="b" class="E"><use xlink:href="#C"/></mask><g class="F O B C D"><use xlink:href="#C"/><g class="S"><g transform="translate(0 11.141)"><use xlink:href="#N"/><use xlink:href="#N" x="6"/><use xlink:href="#N" x="3"/><use xlink:href="#N" x="9"/><use xlink:href="#O"/><use xlink:href="#N" x="4.647"/><use xlink:href="#N" x="1.647"/><use xlink:href="#N" x="7.647"/></g><g transform="translate(3 12.141)"><use xlink:href="#N"/><use xlink:href="#N" x="6"/><use xlink:href="#N" x="3"/><use xlink:href="#N" x="9"/><use xlink:href="#O"/><use xlink:href="#N" x="4.647"/><use xlink:href="#N" x="7.647"/></g><g transform="translate(2 13.141)"><use xlink:href="#N"/><use xlink:href="#N" x="6"/><use xlink:href="#N" x="3"/><use xlink:href="#N" x="9"/><use xlink:href="#O"/><use xlink:href="#N" x="4.647"/><use xlink:href="#N" x="1.647"/><use xlink:href="#N" x="7.647"/></g><g transform="translate(3 14.141)"><use xlink:href="#N"/><use xlink:href="#N" x="6"/><use xlink:href="#N" x="9"/><use xlink:href="#O"/><use xlink:href="#N" x="4.647"/><use xlink:href="#N" x="1.647"/><use xlink:href="#N" x="7.647"/></g></g></g></g><g class="F O B C D"><g transform="translate(3 14.96)"><use xlink:href="#N"/><use xlink:href="#N" x="6"/><use xlink:href="#N" x="3"/><use xlink:href="#N" x="9"/><use xlink:href="#O"/><use xlink:href="#N" x="4.647"/><use xlink:href="#N" x="1.647"/><use xlink:href="#N" x="7.647"/></g><g transform="translate(1 14)"><use xlink:href="#N"/><use xlink:href="#N" x="6"/><use xlink:href="#N" x="3"/><use xlink:href="#N" x="9"/><use xlink:href="#O"/><use xlink:href="#N" x="4.647"/><use xlink:href="#N" x="1.647"/><use xlink:href="#N" x="7.647"/></g><g transform="translate(3 13)"><use xlink:href="#N"/><use xlink:href="#N" x="6"/><use xlink:href="#N" x="3"/><use xlink:href="#N" x="9"/><use xlink:href="#O"/><use xlink:href="#N" x="4.647"/><use xlink:href="#N" x="1.647"/><use xlink:href="#N" x="7.647"/></g><g transform="translate(1 12)"><use xlink:href="#N"/><use xlink:href="#N" x="6"/><use xlink:href="#N" x="3"/><use xlink:href="#N" x="9"/><use xlink:href="#O"/><use xlink:href="#N" x="4.647"/><use xlink:href="#N" x="1.647"/><use xlink:href="#N" x="7.647"/></g><g transform="translate(3 11)"><use xlink:href="#N"/><use xlink:href="#N" x="6"/><use xlink:href="#N" x="3"/><use xlink:href="#N" x="9"/><use xlink:href="#O"/><use xlink:href="#N" x="4.647"/><use xlink:href="#N" x="1.647"/><use xlink:href="#N" x="7.647"/></g><g transform="translate(0 10)"><use xlink:href="#N"/><use xlink:href="#N" x="6"/><use xlink:href="#N" x="3"/><use xlink:href="#N" x="9"/><use xlink:href="#O"/><use xlink:href="#N" x="4.647"/><use xlink:href="#N" x="1.647"/><use xlink:href="#N" x="7.647"/></g><g transform="translate(2 9)"><use xlink:href="#N"/><use xlink:href="#N" x="6"/><use xlink:href="#N" x="3"/><use xlink:href="#N" x="9"/><use xlink:href="#O"/><use xlink:href="#N" x="4.647"/><use xlink:href="#N" x="1.647"/><use xlink:href="#N" x="7.647"/></g><g transform="translate(2 16)"><use xlink:href="#N"/><use xlink:href="#N" x="6"/><use xlink:href="#N" x="3"/><use xlink:href="#N" x="9"/><use xlink:href="#O"/><use xlink:href="#N" x="4.647"/><use xlink:href="#N" x="1.647"/><use xlink:href="#N" x="7.647"/></g></g><path d="M7.603 8.257L0 6l5.53 2.942L0 10c3.226-2.99 5.53-3.344 6.912-1.058 2.074 3.43.69-9.602 0-8.916S4.147 7.57 5.53 8.942c.747.74 2.274-.264 4.838-3.43l2.074-2.743c-2.765.457-4.608 1.83-5.53 4.115s2.074 1.83 8.986-1.372c-4.147-1.372-6.45-1.6-6.912-.686-.437.867-.667 2.35-.69 4.45l-.002.35L15 11c.69 0-6.706-4.8-8.78-1.372S18.796.91 15.898 3.456 9.677 7.57 8.986 11 10 15 9 15H8c0-4 .333-6 1-6" transform="matrix(1 0 0 -1 0 15)" class="B C D F T"/></g></g><g transform="translate(9 3)"><path d="M17 0C7.61 0 0 7.61 0 17s7.61 17 17 17 17-7.61 17-17S26.39 0 17 0z" class="G J"/><g transform="matrix(.390731 -.920505 .920505 .390731 9.189155 24.120021)"><g transform="translate(.067 .145)"><mask id="c" class="E"><use xlink:href="#D"/></mask><use xlink:href="#D" class="T"/><g class="D B"><use xlink:href="#P" stroke-opacity=".446" stroke="#42be65" mask="url(#c)" transform="matrix(.5 .866025 -.866025 .5 10.268204 -5.015161)" class="C"/><use xlink:href="#Q" mask="url(#c)" class="F O"/></g></g><g transform="translate(6.52 1.619)" fill="#000" class="F B D"><circle transform="matrix(.62932 -.777146 .777146 .62932 -.45589 1.044206)" cx=".867" cy="1" r="1"/><circle transform="matrix(-.62932 -.777146 -.777146 .62932 11.747903 5.603462)" cx="6.733" cy="1" r="1"/><circle transform="matrix(.017452 -.999848 .999848 .017452 1.933955 5.568007)" cx="3.8" cy="1.8" r="1"/></g></g></g><g transform="translate(9 263)"><use xlink:href="#Jb" class="G J" href="#E"/><g transform="translate(7.2 5.8)" class="B D F"><path d="M15.475 3.2c-1.467 8.4-4.933 12.867-10.4 13.4-1.788.174-4.805-.244-5.044.47-.082.244 0 .687.244 1.33 4.305 1.715 7.705 2.115 10.2 1.2 6-2.2 7.2-11.4 7-13.6-.133-1.467-.467-2.4-1-2.8l-.8-3.2h-1.4l1.2 3.2z" fill="#fac748"/><path d="M1.8 17.6c6.667.8 11-.8 13-4.8s2.333-7.267 1-9.8" class="C"/><circle cx="4.9" cy="18.8" r="1"/></g></g><g transform="translate(9 46)"><mask id="d" class="E"><use xlink:href="#E"/></mask><use xlink:href="#E" class="G J"/><g mask="url(#d)" class="B F"><g transform="translate(7 -2)"><g transform="translate(10 22)" class="D"><circle cx="3" cy="3" r="3" class="H"/><circle transform="matrix(.913545 -.406737 .406737 .913545 -1.531885 2.03709)" cx="4.026" cy="4.622" r="1" class="E"/></g><g transform="translate(11 17)" class="D"><circle cx="3" cy="3" r="3" class="H"/><circle transform="matrix(.913545 -.406737 .406737 .913545 -1.531885 2.03709)" cx="4.026" cy="4.622" r="1" class="E"/></g><g transform="translate(4 17)" class="D"><circle cx="3" cy="3" r="3" class="H"/><circle transform="matrix(.913545 -.406737 .406737 .913545 -1.531885 2.03709)" cx="4.026" cy="4.622" r="1" class="E"/></g><g transform="translate(7 26)" class="D"><circle cx="3" cy="3" r="3" class="H"/><circle transform="matrix(.913545 -.406737 .406737 .913545 -1.531885 2.03709)" cx="4.026" cy="4.622" r="1" class="E"/></g><g transform="translate(2 20)" class="D"><circle cx="3" cy="3" r="3" class="H"/><circle transform="matrix(.913545 -.406737 .406737 .913545 -1.531885 2.03709)" cx="4.026" cy="4.622" r="1" class="E"/></g><g transform="translate(5 22)" class="D"><circle cx="3" cy="3" r="3" class="H"/><circle transform="matrix(.913545 -.406737 .406737 .913545 -1.531885 2.03709)" cx="4.026" cy="4.622" r="1" class="E"/></g><g transform="translate(7 17)" class="D"><circle cx="3" cy="3" r="3" class="H"/><circle transform="matrix(.913545 -.406737 .406737 .913545 -1.531885 2.03709)" cx="4.026" cy="4.622" r="1" class="E"/></g><g transform="translate(13 13)" class="D"><circle cx="3" cy="3" r="3" class="H"/><circle transform="matrix(.913545 -.406737 .406737 .913545 -1.531885 2.03709)" cx="4.026" cy="4.622" r="1" class="E"/></g><g transform="translate(9 11)" class="D"><circle cx="3" cy="3" r="3" class="H"/><circle transform="matrix(.913545 -.406737 .406737 .913545 -1.531885 2.03709)" cx="4.026" cy="4.622" r="1" class="E"/></g><g transform="translate(0 16)" class="D"><circle cx="3" cy="3" r="3" class="H"/><circle transform="matrix(.913545 -.406737 .406737 .913545 -1.531885 2.03709)" cx="4.026" cy="4.622" r="1" class="E"/></g><g transform="translate(3 13)" class="D"><circle cx="3" cy="3" r="3" class="H"/><circle transform="matrix(.913545 -.406737 .406737 .913545 -1.531885 2.03709)" cx="4.026" cy="4.622" r="1" class="E"/></g><g transform="translate(7 14)" class="D"><circle cx="3" cy="3" r="3" class="H"/><circle transform="matrix(.913545 -.406737 .406737 .913545 -1.531885 2.03709)" cx="4.026" cy="4.622" r="1" class="E"/></g><g transform="translate(1 11)" class="D"><circle cx="3" cy="3" r="3" class="H"/><circle transform="matrix(.913545 -.406737 .406737 .913545 -1.531885 2.03709)" cx="4.026" cy="4.622" r="1" class="E"/></g><g stroke-width="1.5"><path d="M5 6.438c.584-2.764.91-1.418 1.26-2.523.42-1.323.657-2.54.542-3.915"/><path d="M5 11.335c.584-2.764.91-1.418 1.26-2.523.873-2.754-1.505.214.804-5.812" transform="matrix(.45399 -.891007 .891007 .45399 -3.092643 9.288516)"/></g><g transform="translate(5 9)" class="D"><circle cx="3" cy="3" r="3" class="H"/><circle transform="matrix(.913545 -.406737 .406737 .913545 -1.531885 2.03709)" cx="4.026" cy="4.622" r="1" class="E"/></g><g transform="translate(10 8)" class="D"><circle cx="3" cy="3" r="3" class="H"/><circle transform="matrix(.913545 -.406737 .406737 .913545 -1.531885 2.03709)" cx="4.026" cy="4.622" r="1" class="E"/></g></g></g></g><g transform="translate(9 176)"><mask id="e" class="E"><use xlink:href="#F" href="#E"/></mask><use xlink:href="#F" class="G J" href="#E"/><g mask="url(#e)"><g transform="matrix(.994522 -.104528 .104528 .994522 6.270818 12.08637)"><g transform="translate(.067 .145)"><mask id="f" class="E"><use xlink:href="#F"/></mask><use fill="#fac748" xlink:href="#F"/><g class="D B"><use xlink:href="#P" stroke-opacity=".29" stroke="#42be65" mask="url(#f)" transform="matrix(.5 .866025 -.866025 .5 10.268204 -5.015161)" class="C"/><use xlink:href="#Q" fill="#ff8100" mask="url(#f)" class="F"/></g></g><g transform="translate(5.52 2.619)" class="F D B"><g fill="#000"><circle transform="matrix(.62932 -.777146 .777146 .62932 -.600616 1.781441)" cx="1.567" cy="1.52" r="1"/><circle transform="matrix(-.62932 -.777146 -.777146 .62932 13.293548 6.340697)" cx="7.434" cy="1.52" r="1"/><circle transform="matrix(.017452 -.999848 .999848 .017452 2.10194 6.779607)" cx="4.5" cy="2.32" r="1"/></g></g></g></g></g><g transform="translate(9 219)"><mask id="g" class="E"><use xlink:href="#H" href="#E"/></mask><use xlink:href="#H" class="G J" href="#E"/><g mask="url(#g)"><g transform="translate(7)"><g transform="translate(1.6 10.4)"><mask id="h" class="E"><use xlink:href="#G"/></mask><path d="M1.307 1.6C2.524-.33 4.458-.298 6.478-.222l1.115.028c1.6-.001 3.22.005 4.58.513 1.004.375 1.877 1.02 2.474 2.12.828 1.525.82 3.387.797 5.395l-.007.977c0 3.474-.478 6.15-2.348 8.095-1.317 1.37-3.71 1.744-5.495 1.744-1.87 0-4.153-.263-5.5-1.75C.326 14.95-.25 12.17-.25 8.81c0-2.668.376-5.357 1.557-7.22z" class="D F"/><g mask="url(#h)" class="B C"><g transform="translate(-15.2 -9.6)"><g stroke="#f18805" class="Z"><use xlink:href="#R"/><use xlink:href="#S"/><use xlink:href="#T"/><use xlink:href="#U"/><use xlink:href="#V"/><use xlink:href="#W"/></g><g transform="translate(1.6 .8)" stroke="#093910" class="U"><use xlink:href="#R"/><use xlink:href="#S"/><use xlink:href="#T"/><use xlink:href="#U"/><use xlink:href="#V"/><use xlink:href="#W"/></g><g stroke="#fac748" class="U"><path d="M15.2 2.685L17.78 0l2.36 2.918 3.364-2.7 1.975 2.794L28.184.156 30.5 3.47 33.876.01"/><path d="M12 5.885L14.58 3.2l2.36 2.918 3.364-2.7 1.975 2.794 2.706-2.866L27.3 6.67l3.378-3.46"/><path d="M19.2 9.085L21.78 6.4l2.36 2.918 3.364-2.7 1.975 2.794 2.706-2.866L34.5 9.87l3.378-3.46"/><path d="M16 11.485L18.58 8.8l2.36 2.918 3.364-2.7 1.975 2.794 2.706-2.866L31.3 12.27l3.378-3.46"/><path d="M13.6 14.685L16.18 12l2.36 2.918 3.364-2.7 1.975 2.794 2.706-2.866L28.9 15.47l3.378-3.46"/><path d="M3.2 9.085L5.78 6.4l2.36 2.918 3.364-2.7 1.975 2.794 2.706-2.866L18.5 9.87l3.378-3.46"/></g><g transform="translate(0 11)"><g transform="translate(0 1)" stroke="#f18805" class="Z"><use xlink:href="#R"/><use xlink:href="#S"/><use xlink:href="#T"/><use xlink:href="#U"/><use xlink:href="#V"/><use xlink:href="#W"/></g><g transform="translate(1.6 .8)" stroke="#093910" class="U"><path d="M13 2.685L15.58 0l2.36 2.918 3.364-2.7 1.975 2.794L25.984.156 28.3 3.47 31.676.01"/><path d="M17 9.085L19.58 6.4l2.36 2.918 3.364-2.7 1.975 2.794 2.706-2.866L32.3 9.87l3.378-3.46"/><path d="M9.8 5.885L12.38 3.2l2.36 2.918 3.364-2.7 1.975 2.794 2.706-2.866L25.1 6.67l3.378-3.46"/><path d="M13.8 11.485L16.38 8.8l2.36 2.918 3.364-2.7 1.975 2.794 2.706-2.866L29.1 12.27l3.378-3.46"/><path d="M11.4 14.685L13.98 12l2.36 2.918 3.364-2.7 1.975 2.794 2.706-2.866L26.7 15.47l3.378-3.46"/><path d="M0 10.085L2.58 7.4l2.36 2.918 3.364-2.7 1.975 2.794 2.706-2.866L15.3 10.87l3.378-3.46"/></g><g stroke="#fac748" class="U"><path d="M12 6.885L14.58 4.2l2.36 2.918 3.364-2.7 1.975 2.794 2.706-2.866L27.3 7.67l3.378-3.46"/><path d="M19.2 10.085L21.78 7.4l2.36 2.918 3.364-2.7 1.975 2.794 2.706-2.866L34.5 10.87l3.378-3.46"/><path d="M15.2 3.685L17.78 1l2.36 2.918 3.364-2.7 1.975 2.794 2.706-2.866L30.5 4.47l3.378-3.46"/><path d="M16 12.485L18.58 9.8l2.36 2.918 3.364-2.7 1.975 2.794 2.706-2.866L31.3 13.27l3.378-3.46"/><path d="M13.6 15.685L16.18 13l2.36 2.918 3.364-2.7 1.975 2.794 2.706-2.866L28.9 16.47l3.378-3.46"/><path d="M3.2 10.085L5.78 7.4l2.36 2.918 3.364-2.7 1.975 2.794 2.706-2.866L18.5 10.87l3.378-3.46"/></g></g></g></g></g><path d="M8.8 9.63l-7.2-4.8 4.8 5.6L0 8.83c3.733-1.6 6.4-1.067 8 1.6 2.4 4 .8-11.2 0-10.4s-3.2 8.8-1.6 10.4c.865.865 2.632-.307 5.6-4 .462-.575 1.262-1.64 2.4-3.2-3.2.533-5.333 2.133-6.4 4.8s2.4 2.133 10.4-1.6c-4.8-1.6-7.467-1.867-8-.8s-.8 2.933-.8 5.6c3.733-1.6 5.867-2.4 6.4-2.4.8 0-6.4-1.6-8.8 2.4s12.8-6.4 11.2-7.2-7.2 4.8-8 8.8" class="B C D F T"/></g></g></g></g><g filter="url(#H)" transform="translate(169 109)"><path stroke="#f4f2ee" stroke-width=".768" d="M0 0h332.4v374.4H0z" class="E"/><g transform="translate(38.4 226.8)" filter="url(#I)"><path d="M0 0h252v29.067H0z" class="E"/><path d="M44.5 12.812l-2.84 1.75-2.357-3.628c-.026-.04-.068-.058-.1-.09l.654-.672c.132-.135.132-.357 0-.492l-.878-.9c-.132-.136-.348-.136-.48 0l-.878.9c-.132.135-.132.357 0 .492l.654.672c-.033.032-.075.05-.1.09l-2.358 3.628-2.84-1.75c-.236-.145-.534-.13-.754.037s-.32.455-.254.73l1.358 5.574c.076.3.348.528.66.528h9.51c.312 0 .584-.218.66-.528l1.36-5.574c.067-.273-.034-.56-.254-.73s-.52-.182-.754-.037z" class="P"/><g transform="translate(9.15 6.074)"><path d="M8.715 0C3.902 0 0 3.885 0 8.677s3.902 8.677 8.715 8.677 8.715-3.885 8.715-8.677S13.528 0 8.715 0z" fill="#cce4ff" class="G"/><g transform="translate(4.14 2.513)"><g transform="translate(2.642 .157)" fill="#ff5fa7"><path d="M5.836 1.01C5.63 5.6.62 7.29 3.822 10.274c.765.713-4.195.723-3.77 0C2.325 6.414-.05 5.6.001 1.42.007.93.077.468.2.045 2.694-.026 4.52.04 5.68.237c.092.016.144.273.155.772z"/></g><g stroke="#ffc200" class="B C L"><path d="M9.148.628c-.274 1.187-.796 2.404-.897 3.623-.073.884-.033 1.773-.05 2.66"/><path d="M8.833.59C8.218 2.13 7.98 3.517 7.92 5.183c-.046 1.31-.177.99.085 1.53"/><path d="M8.005 1.53c-.578 2.374-.604 3.14-.2 5.575"/><path d="M7.768 7.38c-1.433-1.282-.833-3.52-.45-5.104"/></g><path d="M5 1.14c.087.43.063.716-.07.862-.715.775-.993 1.074-1.797 2.178-.01.015-.008.055.01.055.09.001.19-.002.262-.052.516-.35.914-.886 1.485-1.14.77-.34-1.054.838-.613 1.068.18.094 3.332-.338 2.313-.135s-2.532.483-2.405.648c.53.69.663 1.004.53 1.62" class="B C L R"/><g stroke="#ffc200" class="B C L"><path d="M3.076 1.963C2.613 3.188 1.994 6.172.17 6.517.148 6.52.136 6.486.118 6.47"/><path d="M2.8 1.14C2.38 3.207 1.76 5.034.04 6.243"/><path d="M2.563.353c-.535 1.926-.806 4.02-2.445 5.34"/><path d="M2.01.432C1.517 2.497 1.462 3.856 0 5.3"/></g><path d="M2.517.017c-.223 0 .134 1.373.275 1.7.12.268.445.405.98.4.592.018 1.003-.116 1.235-.404l.035-.045c.275.55.828.705 1.5.705 1.552 0 2.172-.937 1.924-2.356H2.517zm2.74.524l2.64-.037.001.01c.035.452-.044.79-.22 1.012l-.018.022c-.212.248-.608.378-1.206.378-.4 0-.887-.16-1.094-.668l-.048-.144C5.287 1.027 5.29.9 5.276.726L5.257.54zM2.934.586H4.85l-.003.28c-.016.63-.15.913-1.273.936l-.21.002c-.027 0-.04-.004-.067-.022-.054-.037-.112-.1-.167-.222-.088-.182-.15-.438-.18-.764l-.016-.21z" fill="#00ffce" class="G"/><g fill="#212121"><use xlink:href="#X" transform="matrix(-1 0 0 1 8.951296 0)"/><use xlink:href="#X" x="1.142" transform="matrix(-1 0 0 1 11.23841 0)"/></g><g fill="#ff0025"><path d="M.98 11.255c.253.37 1.315.273.746-.475s-1 .105-.746.475z" transform="matrix(-1 0 0 1 2.799744 0)"/><path d="M2.342 11.887c.26.356 1.21.13.625-.593s-.886.236-.625.593z" transform="matrix(-1 0 0 1 5.402324 0)"/><path d="M4.16 12.1c.263.37 1.2.202.618-.547s-.88.177-.618.547z" transform="matrix(-1 0 0 1 9.030162 0)"/><path d="M5.937 11.87c.268.364 1.18.174.8-.468s-1.057.104-.8.468z" transform="matrix(-1 0 0 1 12.697432 0)"/><path d="M7.35 11.437c.254.36 1.04.187.75-.463s-1.004.103-.75.463z" transform="matrix(-1 0 0 1 15.457744 0)"/></g></g></g><rect x="108.788" y="12.147" width="50.11" height="5.206" rx="2.603" class="X"/><rect x="53.014" y="12.147" width="30.937" height="5.206" rx="2.603" class="Y"/><g class="K"><rect x="166.015" y="12.147" width="30.501" height="5.206" rx="2.603"/><rect x="209.153" y="8.514" width="30.501" height="12.498" rx="4.32"/></g><g transform="translate(0 63.683)"><path d="M0 0h252v29.2H0z" class="E"/><rect x="108.788" y="12.207" width="39.652" height="5.232" rx="2.616" class="X"/><rect x="53.014" y="12.207" width="50.11" height="5.232" rx="2.616" class="Y"/><g class="K"><rect x="166.015" y="12.207" width="30.501" height="5.232" rx="2.616"/><rect x="209.153" y="8.574" width="30.501" height="12.498" rx="4.32"/></g></g><g transform="translate(0 31.841)"><path d="M0 0h252v29.2H0z" class="E"/><g class="P"><use xlink:href="#Y"/><use xlink:href="#Y" y="31.244"/></g><rect x="108.788" y="12.207" width="42.702" height="5.232" rx="2.616" class="X"/><rect x="53.014" y="12.207" width="25.273" height="5.232" rx="2.616" class="Y"/><g class="K"><rect x="166.015" y="12.207" width="30.501" height="5.232" rx="2.616"/><rect x="209.153" y="8.574" width="30.501" height="12.498" rx="4.32"/></g></g><g transform="translate(9.15 69.789)"><use xlink:href="#Z" class="G J"/><g transform="translate(.551 1.851)"><path d="M.976 9.83c.01-4.303 5.704-8.116 8.976-8.115 4.97.003 3.732 8.304 3.504 8.32-1.407.097-5.567.03-12.48-.205z" fill="#001d75" transform="matrix(.956305 -.292372 .292372 .956305 -1.402021 2.411551)"/><g transform="translate(4.839 2.442)" fill="#f1f4f6"><path d="M7.463 2.203C7.677 3.915 6.002 8.238 4.232 8c-1.486-.2-2.352-1.463-2.8-2.815C1.345 4.957.197 5.553.04 4.5s1.095-.395 1.062-.59c-.1-.653-.102-1.206-.085-1.65.003-.07.378-.286 1.18-.413.36-.057.803-.096 1.338-.097.763-.001 1.615.074 2.33.165C6.07 1.93 5.88.012 6.06.04s.727 2.002.867 2.028c.33.06.533.113.536.136z"/></g><g transform="translate(7.315 4.766)"><g transform="translate(2.364 .354)" class="B C L R"><path d="M.197 0c.097.933.787.626.787.003"/><path d="M.236.512L0 .827"/><path d="M.6.63l-.157.512"/><path d="M.787.55l.12.433"/></g><path d="M1.97 0L3.13 1.706c.06.073.174.16.14.25-.032.082-.783.145-.85.01-.034-.07-.044-.31-.042-.23.014.482.056.786.127.912" fill="#f3fff6" class="B C L W"/><g transform="translate(.318 .315)" class="B C L R"><path d="M.174.067C.027.685.9.763 1.062 0"/><path d="M.275.512L0 .71"/><path d="M.6.55L.553.906"/><path d="M.826.512l.12.276"/></g><path d="M1.838 2.78c.253-.048.283.318.46.213.09-.053.137-.184.24-.197.157-.02.403.05.74.21l-.608.544C2.3 3.9.693 3.553.3 3.364l1.228.017C3.335 3.1 2.926 3.093.3 3.364c.358-.37 1.296-.538 1.548-.585z" fill="#ff243a" transform="matrix(.956305 .292372 -.292372 .956305 1.024409 -.380176)"/></g></g></g><g transform="translate(9.15 38.82)"><use xlink:href="#Z" class="G J"/><path d="M11.17 6.472c2.002 1.25 3.408 3.843 4.218 7.78-1.595 1.95-4.018 3.195-6.732 3.195-2.76 0-5.218-1.287-6.81-3.293.146-.99.345-1.864.595-2.623.27-.82 1.127-2.225 2.57-4.217l.44-.602c2.055.1 3.852.033 5.368-.186l.352-.054z" class="Q"/><g class="B C L W"><path d="M4.555 13.176c1.186.61 1.95-.17 2.75-1.02"/><path d="M8.64 12.294c.163.706.265 1.148.67 1.717.01.014-.032.008-.05.012"/><path d="M10.057 13.792c-.808-.48-.323-.12-1.23-1.34"/><path d="M11.723 13.445c-1.1-.075-2.23-.474-3.065-1.206"/><path d="M11.82 12.757c-.58.083-1.76.673-3.14-.597"/><path d="M11.778 11.923c-1.512.305-.578.184-2.822.128"/><path d="M5.695 14.13c.674-.537 1.67-1.132 1.845-2.072"/><path d="M6.662 14.118c.802-.53.238-.1 1.155-1.8"/><path d="M7.55 14.165c.608-1.184.407-.6.664-1.727"/><path d="M8.513 14.03c-.454-.925-.288-.396-.397-1.617"/><path d="M9.422 13.985c-.7-.946-.36-.385-.93-1.732"/><path d="M5.277 11.408c.612.362 1.46 1.03 2.128.43"/><path d="M4.92 12.224c.4.104 2.358.687 2.32-.31"/><path d="M6.365 6.97c-.046.42-.046.682 0 .788.294.67.753.447.944-.276"/><path d="M7.624 6.498c-.892 3.86-.826 5.8.197 5.8s1.377-.683 1.062-2.048l-.157-3.505c.472 1.654.918 1.733 1.338.236" class="Q"/></g><g stroke="#ff5fa7" fill="#ff5fa7" class="B L"><path d="M4.477 10.188c-.227-.117-.358-.222-.393-.315-.187-.494.2-.763.866-.394.026-.578.25-.932.67-1.063s.498.223.236 1.063c.418-.062.68-.062.787 0 .358.208.192.716-.55 1.024.367.315.42.643.157.985s-.577.184-.944-.473c-.525.63-.93.788-1.22.473s-.157-.748.393-1.3z"/><path d="M10.3 9.62c-.238-.123-.376-.233-.413-.33-.196-.517.2-.798.908-.412.027-.605.26-.976.702-1.113s.523.234.248 1.113c.438-.065.713-.065.826 0 .376.218.2.75-.578 1.072.385.33.44.673.165 1.03s-.605.192-.99-.495c-.55.66-.977.824-1.28.494s-.165-.783.413-1.36z" transform="matrix(-.987688 .156434 .156434 .987688 20.874301 -1.642843)"/></g><g fill="#d41c61"><circle cx="5.362" cy="10.168" r="1"/><circle cx="11.246" cy="9.531" r="1"/></g><path d="M11.453 6.57c1.62-.3 2.525-.5 2.715-.63l-.354-.985-2.95.59c-.184-2.862-.695-4.293-1.534-4.293-.273 0-.588.394-.944 1.182C7.886.91 7.36.622 6.81 1.567s-.84 2.376-.866 4.293l-1.928-.1c-.42-.045-.747-.114-.984-.205v.906c-.042.044.25.106.873.186l1.88.168c.76.058 2.65-.02 5.666-.236z" fill="#001d75"/></g></g><g transform="translate(128.4 24)"><g transform="translate(.215 .193)" class="G J"><path d="M37.088 0C16.605 0 0 16.605 0 37.088s16.605 37.088 37.088 37.088S74.175 57.57 74.175 37.088 57.57 0 37.088 0z"/></g><g transform="translate(19.057 8.914)"><g transform="translate(1 13.056)"><mask id="i" class="E"><use xlink:href="#J"/></mask><g class="F O B C I"><use xlink:href="#J"/><g class="V"><g transform="translate(0 24.829)"><use xlink:href="#a"/><use xlink:href="#a" x="13.371"/><use xlink:href="#a" x="6.685"/><use xlink:href="#a" x="20.057"/><use xlink:href="#a" x="-3.015"/><use xlink:href="#a" x="10.355"/><use xlink:href="#a" x="3.671"/><use xlink:href="#a" x="17.042"/></g><g transform="translate(6.686 27.058)"><use xlink:href="#a"/><use xlink:href="#a" x="13.371"/><use xlink:href="#a" x="6.685"/><use xlink:href="#a" x="20.057"/><use xlink:href="#a" x="-3.015"/><use xlink:href="#a" x="10.355"/><use xlink:href="#a" x="17.042"/></g><g transform="translate(4.457 29.287)"><use xlink:href="#a"/><use xlink:href="#a" x="13.371"/><use xlink:href="#a" x="6.685"/><use xlink:href="#a" x="20.057"/><use xlink:href="#a" x="-3.015"/><use xlink:href="#a" x="10.355"/><use xlink:href="#a" x="3.671"/><use xlink:href="#a" x="17.042"/></g><g transform="translate(6.686 31.515)"><use xlink:href="#a"/><use xlink:href="#a" x="13.371"/><use xlink:href="#a" x="20.057"/><use xlink:href="#a" x="-3.015"/><use xlink:href="#a" x="10.355"/><use xlink:href="#a" x="3.671"/><use xlink:href="#a" x="17.042"/></g></g></g></g><g class="F O B C I"><g transform="translate(7.686 33.34)"><use xlink:href="#a"/><use xlink:href="#a" x="13.371"/><use xlink:href="#a" x="6.685"/><use xlink:href="#a" x="20.057"/><use xlink:href="#a" x="-3.015"/><use xlink:href="#a" x="10.355"/><use xlink:href="#a" x="3.671"/><use xlink:href="#a" x="17.042"/></g><g transform="translate(3.229 31.2)"><use xlink:href="#a"/><use xlink:href="#a" x="13.371"/><use xlink:href="#a" x="6.685"/><use xlink:href="#a" x="20.057"/><use xlink:href="#a" x="-3.015"/><use xlink:href="#a" x="10.355"/><use xlink:href="#a" x="3.671"/><use xlink:href="#a" x="17.042"/></g><g transform="translate(7.686 28.971)"><use xlink:href="#a"/><use xlink:href="#a" x="13.371"/><use xlink:href="#a" x="6.685"/><use xlink:href="#a" x="20.057"/><use xlink:href="#a" x="-3.015"/><use xlink:href="#a" x="10.355"/><use xlink:href="#a" x="3.671"/><use xlink:href="#a" x="17.042"/></g><g transform="translate(.229 26.743)"><use xlink:href="#a" x="3"/><use xlink:href="#a" x="16.371"/><use xlink:href="#a" x="9.685"/><use xlink:href="#a" x="23.057"/><use xlink:href="#a" x="-0.015"/><use xlink:href="#a" x="-2.701"/><use xlink:href="#a" x="13.355"/><use xlink:href="#a" x="6.671"/><use xlink:href="#a" x="20.042"/></g><g transform="translate(7.686 24.514)"><use xlink:href="#a"/><use xlink:href="#a" x="13.371"/><use xlink:href="#a" x="6.685"/><use xlink:href="#a" x="20.057"/><use xlink:href="#a" x="-3.015"/><use xlink:href="#a" x="10.355"/><use xlink:href="#a" x="3.671"/><use xlink:href="#a" x="17.042"/></g><g transform="translate(1 22.286)"><use xlink:href="#a"/><use xlink:href="#a" x="13.371"/><use xlink:href="#a" x="6.685"/><use xlink:href="#a" x="20.057"/><use xlink:href="#a" x="-3.015"/><use xlink:href="#a" x="10.355"/><use xlink:href="#a" x="3.671"/><use xlink:href="#a" x="17.042"/></g><g transform="translate(5.457 20.057)"><use xlink:href="#a"/><use xlink:href="#a" x="13.371"/><use xlink:href="#a" x="6.685"/><use xlink:href="#a" x="20.057"/><use xlink:href="#a" x="-3.015"/><use xlink:href="#a" x="10.355"/><use xlink:href="#a" x="3.671"/><use xlink:href="#a" x="17.042"/></g><g transform="translate(5.457 35.657)"><use xlink:href="#a"/><use xlink:href="#a" x="13.371"/><use xlink:href="#a" x="6.685"/><use xlink:href="#a" x="20.057"/><use xlink:href="#a" x="-3.015"/><use xlink:href="#a" x="10.355"/><use xlink:href="#a" x="3.671"/><use xlink:href="#a" x="17.042"/></g></g><path d="M17.944 18.4L1 13.37l12.323 6.557L1 22.286c7.19-6.666 12.323-7.452 15.404-2.357 4.62 7.642 1.54-21.4 0-19.87s-6.162 16.813-3.08 19.87c1.665 1.652 5.068-.587 10.783-7.642.89-1.098 2.43-3.136 4.62-6.114-6.162 1.02-10.27 4.076-12.323 9.17s4.62 4.076 20.025-3.057C27.187 9.23 22.052 8.72 21.025 10.758c-.973 1.932-1.486 5.237-1.536 9.916l-.004.783c8.936 2.038 13.917 3.057 14.944 3.057 1.54 0-14.944-10.7-19.565-3.057S42.887 2.03 36.43 7.7s-13.864 9.17-15.404 16.813 2.26 8.914.032 8.914h-2.23c0-8.914.743-13.37 2.23-13.37" transform="matrix(1 0 0 -1 0 33.428572)" class="B C F I T"/></g></g><g transform="translate(38.16 131.04)" fill="#d4d4d4"><rect x="96.24" y=".96" width="61.44" height="8.448" rx="4.224"/><rect x=".24" y="22.56" width="253.2" height="8.448" rx="4.224"/><rect x=".24" y="34.56" width="253.2" height="8.448" rx="4.224"/><rect x=".24" y="46.56" width="253.2" height="8.448" rx="4.224"/><rect x=".24" y="58.56" width="253.2" height="8.448" rx="4.224"/><rect x=".24" y="70.56" width="253.2" height="8.448" rx="4.224"/></g><rect fill="#001c6c" x="129.6" y="116.4" width="72.192" height="9.984" rx="4.852"/><rect fill="#0d62fe" x="128.4" y="342" width="72.192" height="9.984" rx="4.852"/></g></g></svg>