<svg xmlns="http://www.w3.org/2000/svg" xmlns:xlink="http://www.w3.org/1999/xlink" width="616" height="739" xmlns:v="https://vecta.io/nano"><style><![CDATA[.B{stroke-width:.5}.C{stroke-linejoin:round}.D{stroke-linecap:round}.E{fill:#fff}.F{fill-rule:nonzero}.G{fill:#0064ff}.H{fill:#0d62fe}.I{stroke:#001d75}.J{fill:#000}.K{fill:#f4f2ee}.L{stroke:#212121}.M{fill:#ff9d00}.N{stroke:#f4f2ee}.O{fill:#42be65}.P{fill:#06f}.Q{fill:#001d75}.R{mask:url(#BB)}.S{fill:#011638}.T{fill:#212121}.U{filter:url(#W)}.V{fill:#ff0025}.W{fill:#ff5fa7}.X{stroke:#ffc200}.Y{mask:url(#BI)}.Z{stroke-width:1.322}.a{stroke-linecap:square}]]></style><defs><filter x="-51.8%" y="-27.9%" width="203.6%" height="155.8%" id="A"><feOffset dy="24" in="SourceAlpha"/><feGaussianBlur stdDeviation="16"/><feColorMatrix values="0 0 0 0 0 0 0 0 0 0.160784314 0 0 0 0 0.349019608 0 0 0 0.1 0" result="C"/><feMerge><feMergeNode in="C"/><feMergeNode in="SourceGraphic"/></feMerge></filter><filter x="-22.5%" y="-12.1%" width="145.0%" height="124.2%" id="B"><feOffset dy="12" in="SourceAlpha"/><feGaussianBlur stdDeviation="12"/><feColorMatrix values="0 0 0 0 0 0 0 0 0 0.164542109 0 0 0 0 0.362271488 0 0 0 0.1 0" result="C"/><feMerge><feMergeNode in="C"/><feMergeNode in="SourceGraphic"/></feMerge></filter><path d="M24.927 0h230.1c13.244 0 23.985 10.73 24 23.973l.547 495.248c.015 13.255-10.72 24.012-23.973 24.026h-.027-230.1c-13.244 0-23.985-10.73-24-23.973L.927 24.027C.912 10.772 11.645.015 24.9 0h.027z" id="C"/><path id="D" d="M-25-26h307V81H-25z"/><filter x="-9.1%" y="-18.7%" width="118.2%" height="152.3%" id="E"><feOffset dy="8" in="SourceAlpha"/><feGaussianBlur stdDeviation="8"/><feColorMatrix values="0 0 0 0 0 0 0 0 0 0.160784314 0 0 0 0 0.349019608 0 0 0 0.1 0"/></filter><filter x="-18.0%" y="-23.6%" width="136.0%" height="147.2%" id="F"><feOffset dy="8" in="SourceAlpha"/><feGaussianBlur stdDeviation="8"/><feColorMatrix values="0 0 0 0 0 0 0 0 0 0.160784314 0 0 0 0 0.349019608 0 0 0 0.1 0" result="C"/><feMerge><feMergeNode in="C"/><feMergeNode in="SourceGraphic"/></feMerge></filter><rect id="G" width="92" height="19" rx="9.5"/><rect id="H" width="95" height="19" rx="9.5"/><filter x="-18.0%" y="-90.4%" width="135.6%" height="280.8%" id="I"><feOffset dy="8" in="SourceAlpha"/><feGaussianBlur stdDeviation="8"/><feColorMatrix values="0 0 0 0 0 0 0 0 0 0.160784314 0 0 0 0 0.349019608 0 0 0 0.1 0" result="C"/><feMerge><feMergeNode in="C"/><feMergeNode in="SourceGraphic"/></feMerge></filter><filter x="-18.0%" y="-23.7%" width="136.0%" height="147.5%" id="J"><feOffset dy="8" in="SourceAlpha"/><feGaussianBlur stdDeviation="8"/><feColorMatrix values="0 0 0 0 0 0 0 0 0 0.160784314 0 0 0 0 0.349019608 0 0 0 0.1 0" result="C"/><feMerge><feMergeNode in="C"/><feMergeNode in="SourceGraphic"/></feMerge></filter><rect id="K" width="73" height="11" rx="5.5"/><rect id="L" width="73" height="11" rx="5.5"/><rect id="M" width="73" height="11" rx="5.5"/><rect id="N" width="73" height="11" rx="5.5"/><filter x="-179.2%" y="-119.4%" width="458.3%" height="338.9%" id="O"><feOffset dy="4" in="SourceAlpha"/><feGaussianBlur stdDeviation="3.5"/><feColorMatrix values="0 0 0 0 0 0 0 0 0 0.164542109 0 0 0 0 0.362271488 0 0 0 0.1 0" result="C"/><feMerge><feMergeNode in="C"/><feMergeNode in="SourceGraphic"/></feMerge></filter><path d="M33.815 66h246.37C298.86 66 314 50.865 314 32.195V0H0v32.195C0 50.865 15.14 66 33.815 66z" id="P"/><filter x="-16.2%" y="-86.4%" width="132.5%" height="254.5%" id="Q"><feOffset dy="-6" in="SourceAlpha"/><feGaussianBlur stdDeviation="16"/><feColorMatrix values="0 0 0 0 0 0 0 0 0 0.160784314 0 0 0 0 0.349019608 0 0 0 0.1 0"/></filter><filter x="-35.2%" y="-18.9%" width="170.4%" height="137.9%" id="R"><feOffset dy="24" in="SourceAlpha"/><feGaussianBlur stdDeviation="16"/><feColorMatrix values="0 0 0 0 0 0 0 0 0 0.160784314 0 0 0 0 0.349019608 0 0 0 0.1 0" result="C"/><feMerge><feMergeNode in="C"/><feMergeNode in="SourceGraphic"/></feMerge></filter><path id="S" d="M.15.5h294v178H.15z"/><filter x="-18.0%" y="-51.6%" width="135.6%" height="203.3%" id="T"><feOffset dy="8" in="SourceAlpha"/><feGaussianBlur stdDeviation="8"/><feColorMatrix values="0 0 0 0 0 0 0 0 0 0.160784314 0 0 0 0 0.349019608 0 0 0 0.1 0" result="C"/><feMerge><feMergeNode in="C"/><feMergeNode in="SourceGraphic"/></feMerge></filter><filter x="-18.0%" y="-15.7%" width="137.9%" height="131.4%" id="U"><feOffset dy="8" in="SourceAlpha"/><feGaussianBlur stdDeviation="8"/><feColorMatrix values="0 0 0 0 0 0 0 0 0 0.160784314 0 0 0 0 0.349019608 0 0 0 0.1 0" result="C"/><feMerge><feMergeNode in="C"/><feMergeNode in="SourceGraphic"/></feMerge></filter><circle id="V" cx="81.5" cy="15.5" r="15.5"/><filter x="-141.9%" y="-90.3%" width="383.9%" height="383.9%" id="W"><feOffset dy="16" in="SourceAlpha"/><feGaussianBlur stdDeviation="12"/><feColorMatrix values="0 0 0 0 0 0 0 0 0 0.160784314 0 0 0 0 0.349019608 0 0 0 0.1 0"/></filter><circle id="X" cx="15.5" cy="15.5" r="15.5"/><circle id="Y" cx="15.5" cy="97.5" r="15.5"/><circle id="Z" cx="81.5" cy="15.5" r="15.5"/><circle id="a" cx="81.5" cy="15.5" r="15.5"/><path id="b" d="M36.037 0h234.9c19.37 0 35.08 15.692 35.1 35.063l.526 499.8c.02 19.385-15.678 35.117-35.063 35.137h-.037-234.9c-19.37 0-35.08-15.692-35.1-35.063l-.526-499.8C.917 15.752 16.615.02 36 0h.037z"/><path id="c" d="M36.03 4.5h233.423c16.556 0 29.983 13.413 30 29.97l.515 501c.017 16.57-13.4 30.014-29.97 30.03h-.03H36.546c-16.556 0-29.983-13.413-30-29.97l-.515-501C6.014 17.962 19.43 4.517 36 4.5h.03z"/><path id="d" d="M4 0h252.3a4 4 0 0 1 4 4v190a4 4 0 0 1-4 4H4a4 4 0 0 1-4-4V4a4 4 0 0 1 4-4z"/><path id="e" d="M4 0h252.3a4 4 0 0 1 4 4v44a4 4 0 0 1-4 4H4a4 4 0 0 1-4-4V4a4 4 0 0 1 4-4z"/><path id="f" d="M10.663 0C4.774 0 0 4.766 0 10.644S4.774 21.29 10.663 21.29s10.663-4.766 10.663-10.644S16.552 0 10.663 0z"/><path id="g" d="M7.995 1.51c-2.42 0-4.585.64-6.2 1.657C1.14 3.58.62 4.032.32 4.445c-.18.25-.3.49-.303.744-.022.43.255.78.678.87l.036.007c.276.052.68.072 1.628.097l.858.023 2.067.1.13.01.114.008c.978.073 1.798.182 2.448.333l.045.01v3.78c.087.9 1.048 1.335 2.88 1.335s3.92-.516 6.26-1.548L16.84 7.4l.023-.006c.334-.09.617-.214.85-.38.44-.317.678-.774.678-1.31 0-.62-.348-1.086-.943-1.242l-.023-.006c-.255-.063-.55-.07-.888-.025l-.04.005-.06-.522-.214-.17c-1.893-1.5-4.64-2.235-8.226-2.235z"/><path id="h" d="M6.42 2.79c.74-.053.816-.334 1.323-.954"/><path id="i" d="M6.793.287c.88-.805 1.332.264 1.237.954-.114.833-.793 1.476-1.432 1.932-.01.006-.567.382-.73.237-.395-.35-.238-1.135-.073-1.604A4.36 4.36 0 0 1 6.793.287z"/><path id="j" d="M7.957 2.03c.145-.445.242-1.007.64-1.324.854-.682 1.68-.457 1.444.717-.13.642-.664 1.4-1.133 1.847-.61.58-1.14-.213-1.048-.8.044-.28.15-.547.225-.82"/><path id="k" d="M10.93 1.466c.2 1.172.312 2.07 1.097 2.995 1.15 1.358 3.705.79 4.772-.377"/><path id="l" d="M11.912 1.618c-.213 1.558-.084 3.32 1.89 3.585.137.018 1.047.067 1.383-.05.816-.28.85-.45 1.627-1.08"/><path id="m" d="M12.272 1.63c.7 1.425 2.528 4.736 4.37 2.582"/><path id="n" d="M13.186 1.8c.162.876.243 1.762.83 2.48.776.95 2.358.755 3.017-.17"/><path id="o" d="M13.637 1.958c.442 1.115 1.28 2.985 2.797 2.363"/><path id="p" d="M14.18 2.074c.367.58 1.126 2.053 1.883 2.206.295.06.6-.008.902-.012"/><path id="q" d="M7.72 7.038c.743-.26 1.342.276 2.102.14.368-.066.817-.466 1.085-.668"/><path id="r" d="M7.72 14.642l3.136 1.734 4.92-1.734-.29 3.66-4.632-1.397L6.9 18.303z"/><path id="s" d="M10.93 0C4.893 0 0 4.885 0 10.91s4.893 10.91 10.93 10.91 10.93-4.885 10.93-10.91S16.966 0 10.93 0z"/><path id="t" d="M10.553 7.34c1.296 0 2.887-.08 4.774-.244l.5-2.4h-2.122l.163-3.497H2.107l-.072 1.94C.678 2.763 0 2.94 0 3.672s.607 1.17 1.822 1.31l.408 1.87 8.323.488z"/><path id="u" d="M.084.278c-.06 1.02.85 1.28 1.103.34C1.38-.098.33-.166 0 .278"/><path id="v" d="M3.508.116c.018.217.005.44.053.652.21.922 1.365.027.753-.743"/><path id="w" d="M14.152 0c.252 0-.046 2.24-.204 2.7-.2.57-.673.447-1.183.447a3.75 3.75 0 0 1-.425-.02 6.94 6.94 0 0 0-.785-.804l-.228-.19.057.33-.073-.115c-.31.78-.932 1-1.688 1-1.747 0-2.444-1.328-2.165-3.34h6.694zM10.68.908H8.32V.92c-.03.483.025.858.155 1.127l.078.136c.206.303.572.46 1.153.46.395 0 .667-.254.84-.876l.047-.188.033-.192.033-.257.022-.223zm2.804 0h-1.748c.248 1.016.576 1.457 1.184 1.523l.17.01c.025 0 .038-.005.06-.027.05-.046.103-.138.152-.28.08-.23.136-.55.166-.96l.014-.266z"/><path id="x" d="M11.6 2.615c.82.647 1.548 1.588 1.424 1.744-.163.203-.753.245-.898.163-.116-.066-.064.024-.064.782"/><path id="y" d="M10.835 6.494c.206.82.692 1.34 1.206 2.027"/><path id="z" d="M11.676 6.404c.562 1.774.437 1.018.565 2.23"/><path id="AA" d="M12.375 6.532c.168 1.725.148 1.008.148 2.148"/><path id="AB" d="M13.64 6.596c-.046.836-.267 1.503-.686 2.225"/><path id="AC" d="M14.524 7.39c-.68.91-.76 1.187-1.777 1.426"/><path id="AD" d="M9.875 4.37c-.062.165-.184.328-.388.337"/><path id="AE" d="M1.234 12.316c.01-5.395 7.16-10.17 11.272-10.166 6.244.008 4.7 10.415 4.412 10.435-1.768.12-6.996.03-15.684-.27z"/><path id="AF" d="M9.38 2.76c.27 2.147-1.836 7.566-4.06 7.268-1.868-.25-2.956-1.834-3.532-3.53C1.7 6.213.247 6.96.05 5.628s1.377-.496 1.335-.74c-.138-.818-.128-1.512-.107-2.067.003-.088.475-.358 1.483-.518.45-.072 1.01-.12 1.68-.122.96-.001 2.03.093 2.93.207.26.033.022-2.373.245-2.338s.914 2.51 1.1 2.542c.415.076.67.14.674.17z"/><path id="AG" d="M2.226 0l1.456 2.138c.075.09.218.2.175.313-.04.103-.984.182-1.067.014-.043-.087-.055-.387-.052-.29.018.604.07.985.16 1.143"/><path id="AH" d="M2.06 4.058h1.046l-1.45.001c2.285-.001 1.77-.001-1.543.001l1.946-.001z"/><path id="AI" d="M10.955 0C4.905 0 0 4.896 0 10.935S4.905 21.87 10.955 21.87 21.91 16.975 21.91 10.935 17.005 0 10.955 0z"/><path id="AJ" d="M7.336 1.272C7.076 7.045.78 9.186 4.805 12.948c.962.9-5.274.912-4.74 0C2.922 8.083-.064 7.045.001 1.79.01 1.17.097.6.252.056 3.387-.032 5.683.05 7.14.3c.116.02.18.344.195.973z"/><path id="AK" d="M11.5.792c-.345 1.496-1 3.03-1.128 4.565-.092 1.113-.04 2.234-.062 3.35"/><path id="AL" d="M11.103.742c-.774 1.943-1.074 3.69-1.147 5.8-.057 1.65-.223 1.247.107 1.93"/><path id="AM" d="M10.062 1.93c-.726 2.992-.76 3.96-.25 7.026"/><path id="AN" d="M9.765 9.302C7.963 7.687 8.718 4.867 9.2 2.87"/><path id="AO" d="M6.272 1.435c.1.54.08.902-.09 1.086-.9.977-1.25 1.353-2.26 2.745-.014.02-.01.07.014.07.112.001.237-.003.33-.066.648-.443 1.15-1.116 1.867-1.435C7.1 3.404 4.8 4.9 5.364 5.18c.227.118 4.188-.426 2.907-.17s-3.183.61-3.023.817c.666.868.834 1.265.666 2.042"/><path id="AP" d="M3.866 2.474c-.582 1.544-1.36 5.304-3.65 5.74-.03.006-.044-.04-.066-.06"/><path id="AQ" d="M3.52 1.435C2.993 4.04 2.214 6.345.05 7.867"/><path id="AR" d="M3.222.445C2.55 2.872 2.21 5.512.15 7.175"/><path id="AS" d="M2.528.544C1.906 3.147 1.838 4.86 0 6.68"/><path id="AT" d="M3.163.022c-.28 0 .17 1.73.345 2.13.15.338.56.5 1.232.516.744.023 1.26-.147 1.552-.51l.044-.057c.345.692 1.04.888 1.885.888 1.95 0 2.73-1.18 2.418-2.97H3.163zm3.445.66l3.32-.046.001.012c.044.57-.055.994-.278 1.275l-.023.028c-.267.313-.764.476-1.516.476-.515 0-1.116-.2-1.375-.842l-.06-.18c-.03-.11-.028-.282-.043-.49L6.608.682zm-2.92.056h2.408l-.004.354c-.02.795-.19 1.15-1.6 1.18l-.263.003c-.034 0-.052-.005-.084-.027-.067-.047-.14-.14-.21-.28-.11-.23-.188-.552-.228-.963l-.02-.266z"/><path id="AU" d="M5.39 1.302c-.026.42.383.528.497.14.087-.295-.386-.323-.535-.14"/><path id="AV" d="M1.233 14.185c.318.465 1.653.345.938-.598s-1.256.133-.938.598z"/><path id="AW" d="M2.944 14.982c.327.45 1.522.163.786-.747s-1.113.298-.786.747z"/><path id="AX" d="M5.228 15.25c.33.466 1.52.255.777-.7s-1.108.223-.777.7z"/><path id="AY" d="M7.463 14.96c.336.46 1.48.22.992-.6s-1.33.13-.992.6z"/><path id="AZ" d="M9.238 14.414c.32.454 1.31.236.943-.583s-1.262.13-.943.583z"/><path id="Aa" d="M14.04 8.113c2.516 1.567 4.283 4.817 5.302 9.752-2.005 2.446-5.05 4.005-8.462 4.005-3.468 0-6.56-1.613-8.562-4.128.184-1.242.433-2.337.748-3.288.34-1.027 1.416-2.79 3.23-5.286l.554-.754c2.584.138 4.842.04 6.748-.233l.442-.068z"/><path id="Ab" d="M5.726 16.517c1.49.766 2.45-.213 3.456-1.28"/><path id="Ac" d="M10.86 15.41c.205.885.333 1.44.84 2.152.012.017-.04.01-.06.015"/><path id="Ad" d="M12.642 17.288c-1.016-.603-.406-.15-1.544-1.68"/><path id="Ae" d="M14.736 16.853c-1.38-.094-2.803-.594-3.853-1.51"/><path id="Af" d="M14.86 15.99c-.728.104-2.21.844-3.945-.748"/><path id="Ag" d="M14.805 14.945c-1.9.382-.727.23-3.547.16"/><path id="Ah" d="M7.16 17.71c.848-.674 2.098-1.42 2.32-2.597"/><path id="Ai" d="M8.374 17.697c1.008-.665.3-.113 1.452-2.27"/><path id="Aj" d="M9.49 17.757c.764-1.484.512-.753.835-2.165"/><path id="Ak" d="M10.7 17.586c-.57-1.16-.362-.496-.5-2.027"/><path id="Al" d="M11.844 17.53c-.878-1.185-.452-.483-1.17-2.17"/><path id="Am" d="M6.633 14.3c.77.454 1.834 1.293 2.674.538"/><path id="An" d="M6.186 15.323c.5.13 2.963.862 2.918-.387"/><path id="Ao" d="M8 8.738c-.058.526-.058.855 0 .987.37.84.947.56 1.187-.346"/><path id="Ap" d="M9.584 8.146c-1.12 4.838-1.04 7.257.247 7.257s1.73-.856 1.335-2.567l-.198-4.394c.593 2.074 1.154 2.172 1.682.296"/><path id="Aq" d="M5.627 12.77c-.286-.147-.45-.28-.495-.395-.235-.62.24-.956 1.088-.494.033-.724.313-1.168.84-1.333s.626.28.297 1.333c.525-.078.855-.078.99 0 .45.26.24.897-.692 1.284.462.395.528.806.198 1.234s-.725.23-1.187-.592c-.66.8-1.17.987-1.533.592s-.198-.938.495-1.63z"/><path id="Ar" d="M12.947 12.06c-.3-.154-.472-.29-.52-.413-.246-.648.25-1 1.142-.517.035-.758.33-1.223.882-1.395s.657.293.31 1.395c.55-.082.897-.082 1.038 0 .472.273.253.94-.727 1.344.484.413.553.844.207 1.292s-.76.24-1.245-.62c-.692.827-1.228 1.034-1.61.62s-.207-.982.52-1.705z"/><path id="As" d="M14.397 8.234c2.037-.364 3.174-.627 3.412-.8L17.364 6.2l-3.71.74c-.23-3.587-.874-5.38-1.93-5.38-.343 0-.74.494-1.187 1.48C9.913 1.14 9.253.78 8.56 1.964s-1.055 2.98-1.088 5.38L5.05 7.208c-.526-.057-.94-.143-1.236-.257v1.135c-.053.055.313.133 1.098.233l2.364.21c.956.073 3.33-.026 7.122-.296z"/><path id="At" d="M20.09.01L.828 4.443c-.437.1-.765.457-.82.893a1.04 1.04 0 0 0 .578 1.058L6.057 9.1l.56 5.45a1.05 1.05 0 0 0 .8.908c.435.11.895-.062 1.148-.425l.166-.166-1.106-4.16a1.41 1.41 0 0 1 .707-1.339l4.754-2.752-3.8 3.588c-.27.255-.382.63-.298.987l1.732 7.316c.1.428.467.748.912.802a1.08 1.08 0 0 0 1.083-.565l9.05-17.278a1.02 1.02 0 0 0 .106-.204c.095-.242.036-.612-.072-.866-.134-.314-.703-.445-1.707-.395z"/><path id="Au" d="M51.5 26h4v-4h-4v4zm-6 0h4v-4h-4v4zm0 6h4v-4h-4v4zm-6-6h4v-4h-4v4zm0 6h4v-4h-4v4zm17-16h-2v-2h-2v5h-2v-3h-6v-2h-2v5h-2v-3h-2a2 2 0 0 0-2 2v15c0 1.102.897 2 2 2h18c1.103 0 2-.898 2-2V18c0-1.103-.897-2-2-2z"/><path id="Av" d="M17.857 11.786c-.657 0-1.2-.528-1.2-1.18s.533-1.18 1.2-1.18 1.2.528 1.2 1.18-.533 1.18-1.2 1.18m-4.762 0c-.657 0-1.2-.528-1.2-1.18s.533-1.18 1.2-1.18 1.2.528 1.2 1.18-.533 1.18-1.2 1.18m-4.762 0c-.657 0-1.2-.528-1.2-1.18s.533-1.18 1.2-1.18 1.2.528 1.2 1.18-.533 1.18-1.2 1.18M13.095 0C6.53 0 1.2 4.76 1.2 10.607c0 2.045.644 3.998 1.873 5.7L0 21.214h13.095C19.66 21.214 25 16.455 25 10.607S19.66 0 13.095 0"/><path id="Aw" d="M10.023 17.822L1.417 9.476l5.056-4.902 3.304 3.204 5.292-5.645H2.2C.986 2.133 0 3.09 0 4.267v12.8C0 18.243.986 19.2 2.2 19.2h15.4c1.213 0 2.2-.957 2.2-2.133V7.393l-9.777 10.43z"/><path id="Ax" d="M9.947 14.73l-5.42-5.254L6.472 7.59l3.38 3.278L19.882.17l2.035 1.793z"/><path id="Ay" d="M10.08 9.6c2.78 0 5.04-2.153 5.04-4.8S12.86 0 10.08 0 5.04 2.153 5.04 4.8s2.26 4.8 5.04 4.8"/><path id="Az" d="M10.08 10.8C4.145 10.8 0 13.76 0 18v1.2h20.16V18c0-4.24-4.145-7.2-10.08-7.2"/><path id="BA" d="M93.3 13.5c0 7.456 6.044 13.5 13.5 13.5H204c7.456 0 13.5-6.044 13.5-13.5h0H93.3z"/></defs><g transform="translate(36 8)" fill="none" fill-rule="evenodd"><g filter="url(#A)" transform="translate(0 88)"><g filter="url(#B)"><use xlink:href="#b" fill="#292929"/><use xlink:href="#c" class="J"/><g transform="translate(13.5 13.5)"><mask id="BB" class="E"><use xlink:href="#C"/></mask><use fill="#fafafa" xlink:href="#C"/><g class="R"><use filter="url(#E)" xlink:href="#D" class="J"/><use xlink:href="#D" class="S"/><g transform="translate(9.5 71)"><g filter="url(#F)" transform="translate(0 .5)"><use xlink:href="#d" class="B E N"/><g transform="translate(24 16)"><g transform="translate(0 18)"><mask id="BC" class="E"><use xlink:href="#G"/></mask><use xlink:href="#G" class="K"/><rect mask="url(#BC)" x="-17" width="71" height="19" rx="9.5" class="O"/></g><g transform="translate(120 18)"><mask id="BD" class="E"><use xlink:href="#H"/></mask><use xlink:href="#H" class="K"/><rect mask="url(#BD)" x="-17" width="84" height="19" rx="9.5" class="O"/></g><rect y="52" width="84" height="11" rx="5.5" class="K"/><rect y="68" width="48" height="11" rx="5.5" class="O"/><rect width="48" height="11" rx="5.5" class="H"/></g><g transform="translate(24 125)"><rect y="18" width="27" height="19" rx="9.5" class="S"/><rect width="48" height="11" rx="5.5" class="H"/></g><g transform="translate(145 16)"><rect y="52" width="84" height="11" rx="5.5" class="K"/><rect y="68" width="48" height="11" rx="5.5" class="O"/><rect width="48" height="11" rx="5.5" class="H"/></g><g transform="translate(145 125)"><rect y="18" width="27" height="19" rx="9.5" class="S"/><rect width="48" height="11" rx="5.5" class="H"/></g><g class="C N Z a"><path d="M130.5.5v198"/><path transform="matrix(0 -1 1 0 25.25 235.25)" d="M130.25-25.25v260.5"/></g></g><g transform="translate(0 205.5)" filter="url(#I)"><use xlink:href="#e" class="B E N"/><rect x="12" y="5" width="42" height="42" rx="6" class="H"/><path d="M37 28h4v-4h-4v4zm-6 0h4v-4h-4v4zm0 6h4v-4h-4v4zm-6-6h4v-4h-4v4zm0 6h4v-4h-4v4zm17-16h-2v-2h-2v5h-2v-3h-6v-2h-2v5h-2v-3h-2a2 2 0 0 0-2 2v15c0 1.102.897 2 2 2h18c1.103 0 2-.898 2-2V20c0-1.103-.897-2-2-2z" class="E"/><g transform="translate(150 15)"><use xlink:href="#f" class="F P"/><g transform="translate(1.11 4.72)"><use xlink:href="#g" class="F M"/><g class="B C D I"><path d="M6.33 2.31c.94.055.792.076 1.463-.577"/><use xlink:href="#h"/><path d="M8.067 1.8c.186.474.504.507 1 .468"/><path d="M8.067 1.806c.11.828-.084.482.634 1.01"/></g><g stroke="#fff" class="B C"><use xlink:href="#i"/><g class="D"><use xlink:href="#j"/></g></g><g class="I B C D"><use xlink:href="#k"/><use xlink:href="#l"/><use xlink:href="#m"/><use xlink:href="#n"/><use xlink:href="#o"/><use xlink:href="#p"/><use xlink:href="#q"/></g></g><use xlink:href="#r" class="B C I Q"/></g><g transform="translate(166.432 15)"><use xlink:href="#s" fill="#001d71" class="F"/><g transform="translate(3.017 6.813)"><g transform="translate(0 .003)"><use xlink:href="#t" class="M"/><g transform="translate(8.798 .878)" class="T"><use xlink:href="#u"/><use xlink:href="#v"/></g><use xlink:href="#w" class="F V"/><g class="B C D L"><use xlink:href="#x"/><path d="M9.806 4.667c.96.71 2.027.802 3.08.586"/></g><g class="I B C D"><use xlink:href="#y"/><use xlink:href="#z"/><use xlink:href="#AA"/><path d="M13.12 6.532l-.385 2.36"/><use xlink:href="#AB"/><path d="M14.2 6.513c-.077.816-.3 1.6-.86 2.238"/><use xlink:href="#AC"/></g><use xlink:href="#AD" class="B C D L"/></g></g></g><g transform="translate(182.864 15)"><use xlink:href="#s" class="F P"/><g transform="translate(.692 2.32)"><use xlink:href="#AE" transform="matrix(.956305 -.292372 .292372 .956305 -1.756857 3.031606)" class="Q"/><g transform="translate(6.083 3.061)" fill="#f1f4f6"><use xlink:href="#AF"/></g><g transform="translate(9.446 5.974)"><g transform="translate(2.72 .444)" class="B C D L"><path d="M.247 0c.122 1.17.99.785.99.004"/><path d="M.297.642L0 1.037"/><path d="M.742.8l-.198.642"/><path d="M.99.69l.148.543"/></g><use xlink:href="#AG" fill="#f3fff6" class="B C D I"/><g transform="translate(.148 .395)" class="B C D L"><path d="M.22.083C.034.86 1.13.957 1.335 0"/><path d="M.346.642L0 .89"/><path d="M.733.69L.7 1.135"/><path d="M1.04.642l.148.346"/></g><use xlink:href="#AH" fill="#ff243a" transform="matrix(.956305 .292372 -.292372 .956305 1.273384 -.404895)"/></g></g></g><g transform="translate(199.295 15)"><use xlink:href="#AI" fill="#cce4ff" class="F"/><g transform="translate(5.205 3.167)"><g transform="translate(3.321 .198)" class="W"><use xlink:href="#AJ"/></g><g class="B C D X"><use xlink:href="#AK"/><use xlink:href="#AL"/><use xlink:href="#AM"/><use xlink:href="#AN"/></g><use xlink:href="#AO" class="B C D L"/><g class="X B C D"><use xlink:href="#AP"/><use xlink:href="#AQ"/><use xlink:href="#AR"/><use xlink:href="#AS"/></g><use xlink:href="#AT" fill="#00ffce" class="F"/><g class="T"><use xlink:href="#AU" transform="matrix(-1 0 0 1 11.251954 0)"/><use xlink:href="#AU" x="1.44" transform="matrix(-1 0 0 1 14.126902 0)"/></g><g class="V"><use xlink:href="#AV" transform="matrix(-1 0 0 1 3.519334 0)"/><use xlink:href="#AW" transform="matrix(-1 0 0 1 6.790826 0)"/><use xlink:href="#AX" transform="matrix(-1 0 0 1 11.35109 0)"/><use xlink:href="#AY" transform="matrix(-1 0 0 1 15.96092 0)"/><use xlink:href="#AZ" transform="matrix(-1 0 0 1 19.430686 0)"/></g></g></g><g transform="translate(215.727 15)"><use xlink:href="#s" class="F P"/><use xlink:href="#Aa" class="M"/><g class="B C D I"><use xlink:href="#Ab"/><use xlink:href="#Ac"/><use xlink:href="#Ad"/><use xlink:href="#Ae"/><use xlink:href="#Af"/><use xlink:href="#Ag"/><use xlink:href="#Ah"/><use xlink:href="#Ai"/><use xlink:href="#Aj"/><use xlink:href="#Ak"/><use xlink:href="#Al"/><use xlink:href="#Am"/><use xlink:href="#An"/><use xlink:href="#Ao"/><use xlink:href="#Ap" class="M"/></g><g stroke="#ff5fa7" class="W B C"><use xlink:href="#Aq"/><use xlink:href="#Ar" transform="matrix(-.987688 .156434 .156434 .987688 26.245017 -2.065528)"/></g><g fill="#d41c61"><circle cx="6.74" cy="12.746" r="1"/><circle cx="14.136" cy="11.947" r="1"/></g><use xlink:href="#As" class="Q"/></g></g><g filter="url(#J)" transform="translate(0 263.5)"><use xlink:href="#d" class="B E N"/><g transform="translate(24 13)"><g class="S"><rect y="32" width="27" height="19" rx="9.5"/><rect y="94" width="27" height="19" rx="9.5"/></g><g class="K"><rect y="55" width="127" height="11" rx="5.5"/><rect y="117" width="127" height="11" rx="5.5"/></g><g transform="translate(155 40)"><mask id="BE" class="E"><use xlink:href="#K"/></mask><use xlink:href="#K" class="K"/><rect mask="url(#BE)" x="-20" width="73" height="11" rx="5.5" class="O"/></g><g transform="translate(155 55)"><mask id="BF" class="E"><use xlink:href="#L"/></mask><use xlink:href="#L" class="K"/><rect fill="#ff8100" mask="url(#BF)" x="-37" width="73" height="11" rx="5.5"/></g><g transform="translate(155 102)"><mask id="BG" class="E"><use xlink:href="#M"/></mask><use xlink:href="#M" class="K"/><rect mask="url(#BG)" x="-13" width="73" height="11" rx="5.5" class="O"/></g><g transform="translate(155 117)"><mask id="BH" class="E"><use xlink:href="#N"/></mask><use xlink:href="#N" class="K"/><rect fill="#ff8100" mask="url(#BH)" x="-37" width="73" height="11" rx="5.5"/></g><rect width="48" height="11" rx="5.5" class="H"/></g><g class="N Z a C"><path transform="matrix(0 -1 1 0 36 224.5)" d="M130.25-36v260.5"/><path transform="matrix(0 -1 1 0 -26 286.5)" d="M130.25 26v260.5"/><path transform="matrix(0 -1 1 0 96 164.5)" d="M130.25-96v260.5"/></g></g></g><rect x="80.5" y="36.5" width="120" height="15" rx="7.5" class="H"/></g><g filter="url(#O)" class="R F G"><g transform="translate(-36.5 230.5)"><path d="M6.256 17.525v-.876H1.378v-.03c0-.246.057-.494.172-.745s.27-.507.462-.768a9.14 9.14 0 0 1 .656-.784l.753-.776.9-.922a8.22 8.22 0 0 0 .798-.953 4.77 4.77 0 0 0 .559-1.022c.14-.353.21-.73.21-1.13 0-.9-.254-1.606-.76-2.113s-1.263-.76-2.267-.76a3.41 3.41 0 0 0-1.029.146c-.308.097-.58.213-.813.346a3.37 3.37 0 0 0-.582.407l-.32.315.507.69a5.06 5.06 0 0 1 .283-.261c.13-.113.286-.223.47-.33s.4-.202.65-.284.532-.123.85-.123c.567 0 1.037.156 1.4.47s.56.827.56 1.544a2.66 2.66 0 0 1-.149.906 3.42 3.42 0 0 1-.403.784 5.51 5.51 0 0 1-.589.714l-.71.714-.932.922a7.79 7.79 0 0 0-.88 1.029c-.264.37-.48.76-.65 1.175s-.254.863-.254 1.344l.007.254.007.115h5.952zm5.323 0V6.878h-.686c-.457.574-.92 1.027-1.387 1.36a6.58 6.58 0 0 1-1.596.822h0l.283.768c.24-.072.477-.166.716-.284l.686-.37c.22-.128.415-.26.59-.392s.316-.26.425-.384h0v9.126h.97z"/><path d="M2.04 4.1l.072-1.627.11-1.437.133.254.208.418.245.51.25.53.22.474.152.35h.325l.152-.35.22-.474.25-.53.245-.51.208-.418.133-.254.11 1.437.072 1.627h.368l-.11-1.916L5.254.432H4.95l-.34.61-.36.72-.347.736-.296.654-.296-.654-.347-.736-.36-.72-.34-.61h-.32L1.79 2.183 1.682 4.1h.357zm5.134.058l.333-.013.296-.034.235-.04.155-.034V2.3a1.45 1.45 0 0 0-.053-.402.83.83 0 0 0-.171-.32.79.79 0 0 0-.307-.212 1.23 1.23 0 0 0-.461-.077 2.41 2.41 0 0 0-.456.037c-.126.025-.22.05-.28.08h0l.048.302a2.87 2.87 0 0 1 .219-.069 1.79 1.79 0 0 1 .453-.042c.142 0 .257.022.344.066s.155.102.203.175.08.153.093.243.02.183.02.278h0v.17a.41.41 0 0 0-.077-.024l-.133-.026-.16-.02-.157-.008c-.167 0-.322.016-.464.048a1.08 1.08 0 0 0-.368.151c-.103.07-.183.156-.24.262s-.085.233-.085.38c0 .155.026.287.077.394s.123.196.213.265.197.12.32.15.257.048.403.048zm.06-.307c-.1 0-.21-.01-.296-.03a.64.64 0 0 1-.224-.093.42.42 0 0 1-.144-.169c-.034-.07-.05-.157-.05-.26 0-.116.025-.2.075-.28a.53.53 0 0 1 .192-.167c.078-.04.164-.067.256-.08s.18-.02.267-.02c.15 0 .267.01.352.03a1.07 1.07 0 0 1 .187.056h0v.963a2.44 2.44 0 0 1-.259.034l-.355.013zm1.77 1.244c.156 0 .292-.018.408-.053s.217-.1.304-.164a1.19 1.19 0 0 0 .237-.283 3.04 3.04 0 0 0 .208-.41c.17-.402.33-.845.475-1.328l.39-1.492h-.347l-.152.65-.15.6-.168.58-.208.62-.3-.646-.253-.64-.205-.606-.15-.548h-.368l.203.7.26.714.304.706.34.672a1.91 1.91 0 0 1-.152.307.8.8 0 0 1-.173.198.58.58 0 0 1-.216.108c-.08.02-.17.032-.27.032a.72.72 0 0 1-.205-.029c-.066-.02-.106-.034-.12-.045h0l-.07.286c.018.01.063.026.136.048a.87.87 0 0 0 .243.032z"/></g></g><g class="R"><g transform="translate(-17 485.5)"><use filter="url(#Q)" xlink:href="#P" class="J"/><use xlink:href="#P" class="E"/><g transform="translate(125.5 16)" class="G"><use xlink:href="#At"/></g><use xlink:href="#Au" class="G"/><g transform="translate(211.5 14)" class="G"><use xlink:href="#Av"/></g><path d="M102.606 21.892l-5.23 3.338-4.338-6.924c-.047-.075-.126-.1-.185-.17l1.203-1.282c.243-.258.243-.68 0-.94l-1.616-1.72a.6.6 0 0 0-.884 0l-1.616 1.72c-.243.258-.243.68 0 .94l1.203 1.282c-.06.06-.138.096-.185.17l-4.34 6.924-5.228-3.338a1.19 1.19 0 0 0-1.388.071c-.405.32-.6.87-.468 1.39l2.5 10.64c.14.59.64 1.007 1.214 1.007h17.5c.574 0 1.074-.417 1.213-1.007l2.5-10.64c.123-.52-.063-1.07-.468-1.39a1.19 1.19 0 0 0-1.388-.071z" class="H"/><g transform="translate(168.5 16)" class="G"><use xlink:href="#Aw"/><use xlink:href="#Ax"/></g><g transform="translate(257.5 16)" class="G"><use xlink:href="#Ay"/><use xlink:href="#Az"/></g></g></g></g><use xlink:href="#BA" class="T"/></g></g><g filter="url(#R)" transform="translate(242)"><use xlink:href="#b" fill="#292929"/><use xlink:href="#c" class="J"/><g transform="translate(13.5 13.5)"><mask id="BI" class="E"><use xlink:href="#S" href="#C"/></mask><use fill="#fafafa" xlink:href="#S" href="#C"/><g class="Y"><g transform="translate(-8 -21)"><mask id="BJ" class="E"><use xlink:href="#S"/></mask><use xlink:href="#S" class="B E N"/><rect mask="url(#BJ)" x="178.209" y="188.294" width="87.26" height="23.62" rx="2.85" class="G"/><g opacity=".92" mask="url(#BJ)"><g transform="translate(-22.5 -26.5)"><g transform="translate(176 27)"><path d="M150.482 75.062V.085H75.72l.007.882c.657 40.622 33.37 73.43 73.878 74.088l.878.007z" fill="#2ac2ff"/><path d="M150.482 76.774v74.977H75.72l.007-.882c.657-40.622 33.37-73.43 73.878-74.088l.878-.007z" fill="#00173a"/><path d="M75.718 151.752V76.775H.955l.007.882c.657 40.622 33.37 73.43 73.878 74.088l.878.007z" class="M"/><ellipse fill="#005b11" cx="38.337" cy="37.573" rx="37.382" ry="37.488"/><ellipse fill="#ff0034" cx="38.337" cy="189.504" rx="37.382" ry="37.488"/></g><path d="M104 255v-76H27l.007.894c.676 41.176 34.37 74.43 76.088 75.1L104 255z" fill="#005b11"/><path d="M104 0v103H0l.01-1.21C.924 45.984 46.43.915 102.778.01L104 0z" class="G"/><path d="M104 103V27h77l-.007.894c-.676 41.176-34.37 74.43-76.088 75.1L104 103z" fill="#00173a"/><path d="M104 104v76H27l.007-.894c.676-41.176 34.37-74.43 76.088-75.1L104 104z" fill="#ff0034"/><path d="M141 179c20.435 0 37 17.013 37 38s-16.565 38-37 38-37-17.013-37-38 16.565-38 37-38z" fill="#ff7800"/></g></g></g><g transform="translate(9.5 104)"><g filter="url(#T)" transform="translate(0 .5)"><path d="M4 0h252.3a4 4 0 0 1 4 4v83a4 4 0 0 1-4 4H4a4 4 0 0 1-4-4V4a4 4 0 0 1 4-4z" class="B E N"/><rect x="71" y="16" width="119" height="19" rx="9.5" class="S"/><rect x="71" y="40" width="119" height="11" rx="5.5" class="K"/><g class="O"><rect x="71" y="60" width="48" height="11" rx="5.5"/><rect x="142" y="60" width="48" height="11" rx="5.5"/></g></g><g transform="translate(0 95.5)" filter="url(#U)"><g class="B E N"><use xlink:href="#e"/><path d="M4 56h252.3a4 4 0 0 1 4 4v235a4 4 0 0 1-4 4H4a4 4 0 0 1-4-4V60a4 4 0 0 1 4-4z"/></g><g transform="translate(22 73)" class="H"><path d="M4.578 4l.001 5.8c0 3.624 2.65 6.563 5.92 6.563s5.92-2.938 5.92-6.563V4H18v6.176c0 3.785-2.576 6.942-6 7.667V21h3a1 1 0 0 1 .993.883L16 22H6a1 1 0 0 1 1-1h2v-3.156c-3.423-.725-6-3.882-6-7.667V4h1.578zM15 6v4.875C15 13.153 12.985 15 10.5 15S6 13.153 6 10.875V6h9zm-4.5-6C12.985 0 15 1.76 15 3.93V5H6V3.93C6 1.76 8.015 0 10.5 0z" class="F"/><g transform="translate(1 121)"><path d="M12.57 6.333V1.056l5.357 5.278H12.57zM14.086 0H6.143C4.96 0 4 .948 4 2.11V16.89C4 18.053 4.96 19 6.143 19h10.714C18.04 19 19 18.053 19 16.89V4.84L14.086 0z"/><path d="M2.143 4H0v16.89C0 22.053.96 23 2.143 23H15v-2.11H2.143V4z"/></g><path d="M10.5 88a3.5 3.5 0 1 1 0-7 3.5 3.5 0 1 1 0 7m0-13C5.253 75 1 79.23 1 84.45 1 91.2 10.5 102 10.5 102S20 91.2 20 84.45c0-5.22-4.253-9.45-9.5-9.45"/><g transform="translate(0 163)"><g transform="translate(1)"><path d="M18.984 0h-7.11c-.56 0-1.016.426-1.016.95v.95h7.11v1.9h-7.11v1.9h6.095v1.9h-6.095v1.9h5.08v1.9h-5.08v6.65c0 .525.455.95 1.016.95h2.032v-2.85h3.048V19h2.032c.56 0 1.016-.425 1.016-.95V.95c0-.524-.455-.95-1.016-.95"/><path d="M8.127 5.43h-7.11c-.56 0-1.016.434-1.016.97v.97h6.095v1.94H0v1.94h4.063v1.94H0v4.847c0 .536.455.97 1.016.97h2.032v-2.908h3.048V19h2.032c.56 0 1.016-.433 1.016-.97V6.398c0-.535-.455-.97-1.016-.97"/></g></g><g transform="translate(0 38)"><path d="M16.492 9.142l-1.575 1.575-4.635-4.635 1.575-1.575a1.05 1.05 0 0 1 1.485 0l3.15 3.15a1.05 1.05 0 0 1 0 1.485h0zm-7.35 7.35c-.205.205-.474.308-.742.308s-.538-.103-.742-.308l-3.15-3.15a1.05 1.05 0 0 1 0-1.485l4.725-4.725 4.635 4.635-4.725 4.725zm11.55-10.5a1.05 1.05 0 0 0 0-1.485l-4.2-4.2a1.05 1.05 0 0 0-1.485 0c-.6.6-2.115.6-2.715 0a1.05 1.05 0 0 0-1.485 0l-10.5 10.5a1.05 1.05 0 0 0 0 1.485c.634.634.634 2.08 0 2.715a1.05 1.05 0 0 0 0 1.485l4.2 4.2a1.05 1.05 0 0 0 1.485 0c.6-.6 2.115-.6 2.715 0 .205.205.474.308.742.308s.538-.103.742-.308l10.5-10.5a1.05 1.05 0 0 0 0-1.485c-.634-.634-.634-2.08 0-2.715h0z"/></g></g><g transform="translate(139 68)"><g transform="translate(7)"><rect y="6" width="92" height="19" rx="9.5" class="H"/><use xlink:href="#V" class="J U"/><use xlink:href="#V" class="E"/></g><g transform="translate(0 40)"><g class="K"><rect x="7" y="6" width="92" height="19" rx="9.5"/><rect x="7" y="88" width="92" height="19" rx="9.5"/></g><use xlink:href="#X" class="J U"/><use xlink:href="#X" class="E"/><use xlink:href="#Y" class="J U"/><use xlink:href="#Y" class="E"/></g><g transform="translate(7 80)"><rect y="6" width="92" height="19" rx="9.5" class="H"/><use xlink:href="#Z" class="J U"/><use xlink:href="#Z" class="E"/></g><g transform="translate(7 160)"><rect y="6" width="92" height="19" rx="9.5" class="H"/><use xlink:href="#a" class="J U"/><use xlink:href="#a" class="E"/></g></g><path d="M37 27h4v-4h-4v4zm-6 0h4v-4h-4v4zm0 6h4v-4h-4v4zm-6-6h4v-4h-4v4zm0 6h4v-4h-4v4zm17-16h-2v-2h-2v5h-2v-3h-6v-2h-2v5h-2v-3h-2a2 2 0 0 0-2 2v15c0 1.102.897 2 2 2h18c1.103 0 2-.898 2-2V19c0-1.103-.897-2-2-2z" class="G"/><g transform="translate(150 15)"><use xlink:href="#f" class="F P"/><g transform="translate(1.11 4.72)"><use xlink:href="#g" class="F M"/><g class="B C D I"><path d="M6.33 2.31c.94.055.792.076 1.463-.577"/><use xlink:href="#h"/><path d="M8.067 1.8c.186.474.504.507 1 .468"/><path d="M8.067 1.806c.11.828-.084.482.634 1.01"/></g><g stroke="#fff" class="B C"><use xlink:href="#i"/><g class="D"><use xlink:href="#j"/></g></g><g class="I B C D"><use xlink:href="#k"/><use xlink:href="#l"/><use xlink:href="#m"/><use xlink:href="#n"/><use xlink:href="#o"/><use xlink:href="#p"/><use xlink:href="#q"/></g></g><use xlink:href="#r" class="B C I Q"/></g><g transform="translate(166.432 15)"><use xlink:href="#s" fill="#001d71" class="F"/><g transform="translate(3.017 6.813)"><g transform="translate(0 .003)"><use xlink:href="#t" class="M"/><g transform="translate(8.798 .878)" class="T"><use xlink:href="#u"/><use xlink:href="#v"/></g><use xlink:href="#w" class="F V"/><g class="B C D L"><use xlink:href="#x"/><path d="M9.806 4.667c.96.71 2.027.802 3.08.586"/></g><g class="I B C D"><use xlink:href="#y"/><use xlink:href="#z"/><use xlink:href="#AA"/><path d="M13.12 6.532l-.385 2.36"/><use xlink:href="#AB"/><path d="M14.2 6.513c-.077.816-.3 1.6-.86 2.238"/><use xlink:href="#AC"/></g><use xlink:href="#AD" class="B C D L"/></g></g></g><g transform="translate(182.864 15)"><use xlink:href="#s" class="F P"/><g transform="translate(.692 2.32)"><use xlink:href="#AE" transform="matrix(.956305 -.292372 .292372 .956305 -1.756857 3.031606)" class="Q"/><g transform="translate(6.083 3.061)" fill="#f1f4f6"><use xlink:href="#AF"/></g><g transform="translate(9.446 5.974)"><g transform="translate(2.72 .444)" class="B C D L"><path d="M.247 0c.122 1.17.99.785.99.004"/><path d="M.297.642L0 1.037"/><path d="M.742.8l-.198.642"/><path d="M.99.69l.148.543"/></g><use xlink:href="#AG" fill="#f3fff6" class="B C D I"/><g transform="translate(.148 .395)" class="B C D L"><path d="M.22.083C.034.86 1.13.957 1.335 0"/><path d="M.346.642L0 .89"/><path d="M.733.69L.7 1.135"/><path d="M1.04.642l.148.346"/></g><use xlink:href="#AH" fill="#ff243a" transform="matrix(.956305 .292372 -.292372 .956305 1.273384 -.404895)"/></g></g></g><g transform="translate(199.295 15)"><use xlink:href="#AI" fill="#cce4ff" class="F"/><g transform="translate(5.205 3.167)"><g transform="translate(3.321 .198)" class="W"><use xlink:href="#AJ"/></g><g class="B C D X"><use xlink:href="#AK"/><use xlink:href="#AL"/><use xlink:href="#AM"/><use xlink:href="#AN"/></g><use xlink:href="#AO" class="B C D L"/><g class="X B C D"><use xlink:href="#AP"/><use xlink:href="#AQ"/><use xlink:href="#AR"/><use xlink:href="#AS"/></g><use xlink:href="#AT" fill="#00ffce" class="F"/><g class="T"><use xlink:href="#AU" transform="matrix(-1 0 0 1 11.251954 0)"/><use xlink:href="#AU" x="1.44" transform="matrix(-1 0 0 1 14.126902 0)"/></g><g class="V"><use xlink:href="#AV" transform="matrix(-1 0 0 1 3.519334 0)"/><use xlink:href="#AW" transform="matrix(-1 0 0 1 6.790826 0)"/><use xlink:href="#AX" transform="matrix(-1 0 0 1 11.35109 0)"/><use xlink:href="#AY" transform="matrix(-1 0 0 1 15.96092 0)"/><use xlink:href="#AZ" transform="matrix(-1 0 0 1 19.430686 0)"/></g></g></g><g transform="translate(215.727 15)"><use xlink:href="#s" class="F P"/><use xlink:href="#Aa" class="M"/><g class="B C D I"><use xlink:href="#Ab"/><use xlink:href="#Ac"/><use xlink:href="#Ad"/><use xlink:href="#Ae"/><use xlink:href="#Af"/><use xlink:href="#Ag"/><use xlink:href="#Ah"/><use xlink:href="#Ai"/><use xlink:href="#Aj"/><use xlink:href="#Ak"/><use xlink:href="#Al"/><use xlink:href="#Am"/><use xlink:href="#An"/><use xlink:href="#Ao"/><use xlink:href="#Ap" class="M"/></g><g stroke="#ff5fa7" class="W B C"><use xlink:href="#Aq"/><use xlink:href="#Ar" transform="matrix(-.987688 .156434 .156434 .987688 26.245017 -2.065528)"/></g><g fill="#d41c61"><circle cx="6.74" cy="12.746" r="1"/><circle cx="14.136" cy="11.947" r="1"/></g><use xlink:href="#As" class="Q"/></g></g></g><g transform="translate(-17 485.5)"><use filter="url(#Q)" xlink:href="#g" class="J" href="#P"/><use xlink:href="#g" class="E" href="#P"/><g transform="translate(98.5 16)" class="G"><use xlink:href="#At"/></g><use xlink:href="#Au" x="12" class="G"/><g transform="translate(198.5 14)" class="G"><use xlink:href="#Av"/></g><g transform="translate(149.5 16)" class="G"><use xlink:href="#Aw"/><use xlink:href="#Ax"/></g><g transform="translate(250.5 16)" class="G"><use xlink:href="#Ay"/><use xlink:href="#Az"/></g></g></g></g><use xlink:href="#BA" class="J"/></g></g></svg>