<svg xmlns="http://www.w3.org/2000/svg" xmlns:xlink="http://www.w3.org/1999/xlink" width="380" height="655" xmlns:v="https://vecta.io/nano"><style><![CDATA[.B{stroke-linecap:round}.C{stroke-linejoin:round}.D{stroke-width:1.5}.E{fill:#0064ff}.F{mask:url(#J)}.G{fill-rule:nonzero}.H{mask:url(#I)}.I{fill:#ff0034}]]></style><defs><filter x="-51.8%" y="-27.9%" width="203.6%" height="155.8%" id="A"><feOffset dy="24" in="SourceAlpha"/><feGaussianBlur stdDeviation="16"/><feColorMatrix values="0 0 0 0 0 0 0 0 0 0.160784314 0 0 0 0 0.349019608 0 0 0 0.1 0" result="C"/><feMerge><feMergeNode in="C"/><feMergeNode in="SourceGraphic"/></feMerge></filter><filter x="-22.5%" y="-12.1%" width="145.0%" height="124.2%" id="B"><feOffset dy="12" in="SourceAlpha"/><feGaussianBlur stdDeviation="12"/><feColorMatrix values="0 0 0 0 0 0 0 0 0 0.164542109 0 0 0 0 0.362271488 0 0 0 0.1 0" result="C"/><feMerge><feMergeNode in="C"/><feMergeNode in="SourceGraphic"/></feMerge></filter><path d="M24.927 0h230.1c13.244 0 23.985 10.73 24 23.973l.547 495.248c.015 13.255-10.72 24.012-23.973 24.026h-.027-230.1c-13.244 0-23.985-10.73-24-23.973L.927 24.027C.912 10.772 11.645.015 24.9 0h.027z" id="C"/><filter x="-8.5%" y="-5.2%" width="116.5%" height="110.7%" id="D"><feOffset dy="4" in="SourceAlpha"/><feGaussianBlur stdDeviation="3.5"/><feColorMatrix values="0 0 0 0 0 0 0 0 0 0.164542109 0 0 0 0 0.362271488 0 0 0 0.1 0" result="C"/><feMerge><feMergeNode in="C"/><feMergeNode in="SourceGraphic"/></feMerge></filter><path id="E" d="M0 .58h265.117v409.286H0z"/><filter x="-179.2%" y="-119.4%" width="458.3%" height="338.9%" id="F"><feOffset dy="4" in="SourceAlpha"/><feGaussianBlur stdDeviation="3.5"/><feColorMatrix values="0 0 0 0 0 0 0 0 0 0.164542109 0 0 0 0 0.362271488 0 0 0 0.1 0" result="C"/><feMerge><feMergeNode in="C"/><feMergeNode in="SourceGraphic"/></feMerge></filter><path d="M33.815 66h246.37C298.86 66 314 50.865 314 32.195V0H0v32.195C0 50.865 15.14 66 33.815 66z" id="G"/><filter x="-16.2%" y="-86.4%" width="132.5%" height="254.5%" id="H"><feOffset dy="-6" in="SourceAlpha"/><feGaussianBlur stdDeviation="16"/><feColorMatrix values="0 0 0 0 0 0 0 0 0 0.160784314 0 0 0 0 0.349019608 0 0 0 0.1 0"/></filter></defs><g filter="url(#A)" transform="translate(36 12)" fill="none" fill-rule="evenodd"><g filter="url(#B)"><path d="M36.037 0h234.9c19.37 0 35.08 15.692 35.1 35.063l.526 499.8c.02 19.385-15.678 35.117-35.063 35.137h-.037-234.9c-19.37 0-35.08-15.692-35.1-35.063l-.526-499.8C.917 15.752 16.615.02 36 0h.037z" fill="#292929"/><path d="M36.03 4.5h233.423c16.556 0 29.983 13.413 30 29.97l.515 501c.017 16.57-13.4 30.014-29.97 30.03h-.03H36.546c-16.556 0-29.983-13.413-30-29.97l-.515-501C6.014 17.962 19.43 4.517 36 4.5h.03z" fill="#000"/><g transform="translate(13.5 13.5)"><mask id="I" fill="#fff"><use xlink:href="#C"/></mask><use fill="#fafafa" xlink:href="#C"/><g class="H"><g transform="translate(7.106 33.421)"><g transform="translate(.089 .634)" filter="url(#D)"><mask id="J" fill="#fff"><use xlink:href="#E"/></mask><use stroke="#f4f2ee" stroke-width=".5" fill="#fff" xlink:href="#E"/><g class="F"><g transform="translate(52.129 130.432)"><g transform="translate(.45 .45)" fill="#000"><path d="M14.94 14.927h29.878V44.78H14.94V14.927zm-7.47 44.78h44.818a7.47 7.47 0 0 0 7.47-7.463V7.463C59.757 3.336 56.41 0 52.287 0H7.47C3.346 0 0 3.336 0 7.463v44.78a7.47 7.47 0 0 0 7.47 7.463h0z"/><path d="M142.753 33.17h-16.6V16.585h16.6V33.17zm8.3-33.17h-33.198c-4.58 0-8.3 3.707-8.3 8.293v33.17a8.3 8.3 0 0 0 8.3 8.293h33.198a8.3 8.3 0 0 0 8.3-8.293V8.293c0-4.586-3.718-8.293-8.3-8.293h0z"/><path d="M33.198 142.632H16.6v-16.585h16.6v16.585zm8.3-33.17H8.3c-4.58 0-8.3 3.707-8.3 8.293v33.17a8.3 8.3 0 0 0 8.3 8.293h33.198a8.3 8.3 0 0 0 8.3-8.293v-33.17c0-4.586-3.718-8.293-8.3-8.293h0z"/><path d="M99.595 0H69.716v19.902h29.878z"/><path d="M77.186 55.5h22.41V40.563h-14.94V25.637h-14.94v22.4c0 4.127 3.346 7.463 7.47 7.463"/><path d="M109.554 62.95V97.07c0 4.717 3.718 8.53 8.3 8.53h24.9v8.53h16.6V97.07c0-4.708-3.718-8.53-8.3-8.53h-24.9V71.48h33.198v-17.06h-41.498c-4.58 0-8.3 3.82-8.3 8.53"/><path d="M59.757 99.5v-22.4a7.47 7.47 0 0 0-7.47-7.463H0v14.927h14.94V99.5h14.94V84.584h14.94V99.5h14.94z"/><path d="M99.595 87.704H69.716v19.902h29.878z"/><path d="M79.676 81.52h19.92V61.618h-19.92z"/><path d="M105.724 127.373v15.922H75.08v-7.96H59.757v15.922c0 4.402 3.432 7.96 7.66 7.96h45.967c4.23 0 7.66-3.558 7.66-7.96v-15.922h38.306v-15.922h-45.967c-4.23 0-7.66 3.566-7.66 7.96"/><path d="M99.595 113.8h-19.92v19.902h19.92z"/><path d="M54.58 124.753h15.305V109.46H54.58z"/><path d="M54.468 70.613h15.305V55.32H54.468z"/><path d="M129.473 159.217h29.878v-19.902h-29.878z"/></g></g><path d="M106.372 64.54a2.25 2.25 0 0 1-2.251-2.249 2.25 2.25 0 1 1 4.501 0 2.25 2.25 0 0 1-2.251 2.249m16.55 4.827L110.543 57c-.212-.21-.497-.33-.796-.33h-7.877c-.62 0-1.125.504-1.125 1.124v7.87c0 .298.12.585.33.795l12.38 12.37c.22.22.508.33.796.33s.576-.1.796-.33l7.877-7.87c.44-.44.44-1.15 0-1.6" fill="#ff8100"/><rect x="100.745" y="15.292" width="116.138" height="15.292" rx="4" class="E"/><rect fill="#f4f2ee" x="100.745" y="35.082" width="78.326" height="15.292" rx="4"/><g transform="translate(17.918 9.895)"><path d="M36.07 0C16.15 0 0 16.124 0 36.013s16.15 36.013 36.07 36.013 36.07-16.124 36.07-36.013S55.992 0 36.07 0z" fill="#001d71" class="G"/><g transform="translate(9.956 22.488)"><g transform="translate(0 .01)"><path d="M34.828 24.23c4.276 0 9.527-.268 15.754-.805l1.616-7.92h-7.002l.54-11.543H6.954l-.237 6.4C2.24 9.118 0 9.704 0 12.12s2.004 3.858 6.012 4.326l1.347 6.174c14.037 1.074 23.194 1.61 27.47 1.61z" fill="#ff9d00"/><g transform="translate(29.036 2.898)" fill="#212121"><path d="M.276.92c-.193 3.37 2.808 4.23 3.64 1.126C4.55-.322 1.09-.546 0 .92"/><path d="M11.578.382c.06.717.015 1.45.176 2.152.697 3.043 4.503.09 2.485-2.452"/></g><path d="M46.705.001c.83 0-.152 7.396-.673 8.88-.66 1.883-2.22 1.476-3.905 1.476a12.37 12.37 0 0 1-1.403-.065 22.91 22.91 0 0 0-2.591-2.652l-.75-.623.186 1.09-.24-.38c-1.02 2.57-3.076 3.3-5.57 3.3-5.766 0-8.067-4.385-7.144-11.028h22.09zM35.248 2.998h-7.8l-.002.038c-.098 1.595.083 2.833.5 3.72l.257.448c.68 1 1.888 1.523 3.805 1.523 1.305 0 2.203-.837 2.774-2.89l.154-.62.1-.632a24.09 24.09 0 0 0 .107-.85l.074-.735zm9.253 0h-5.77c.82 3.353 1.9 4.8 3.91 5.028l.565.03c.082 0 .124-.017.2-.1.162-.153.34-.456.502-.92.265-.756.45-1.816.546-3.17l.048-.877z" fill="#ff0025" class="G"/><g stroke="#212121" class="B C D"><path d="M38.28 8.632c2.71 2.135 5.1 5.243 4.698 5.756-.54.67-2.487.81-2.962.537-.382-.22-.2.078-.2 2.58"/><path d="M32.363 15.406c3.17 2.348 6.69 2.647 10.167 1.934"/></g><g stroke="#001d75" class="B C D"><path d="M35.76 21.434c.68 2.71 2.282 4.42 3.98 6.7"/><path d="M38.532 21.138c1.855 5.857 1.442 3.36 1.863 7.365"/><path d="M40.84 21.56c.554 5.694.487 3.326.487 7.1"/><path d="M43.295 21.56l-1.27 7.787"/><path d="M45 21.77c-.153 2.76-.882 4.96-2.265 7.343"/><path d="M46.894 21.497c-.253 2.692-1.022 5.286-2.837 7.386"/><path d="M47.932 24.388c-2.242 3-2.513 3.918-5.864 4.706"/></g><path d="M32.6 14.426c-.203.544-.607 1.08-1.28 1.112" stroke="#212121" class="B C D"/></g></g></g><g transform="translate(53.117 304.041)"><g class="G"><path d="M8.545 29.81v-2.343H3.17V17.7H.438v12.12h8.108zm5.674.245c.69 0 1.3-.117 1.865-.35s1.03-.563 1.427-.988.7-.94.91-1.54.315-1.262.315-1.985-.11-1.382-.333-1.976-.53-1.102-.928-1.52-.873-.746-1.427-.98-1.164-.35-1.83-.35c-.654 0-1.258.117-1.812.35s-1.033.56-1.436.98a4.48 4.48 0 0 0-.946 1.521c-.228.595-.34 1.253-.34 1.976s.11 1.384.333 1.985.53 1.113.928 1.54.873.755 1.427.988 1.17.35 1.847.35zm0-2.238c-.595 0-1.057-.236-1.383-.708s-.5-1.11-.5-1.915.163-1.437.5-1.897.788-.69 1.383-.69 1.054.23 1.375.69.482 1.093.482 1.897-.16 1.443-.482 1.915-.78.708-1.375.708zm10.63 2.238c.69 0 1.3-.117 1.865-.35s1.03-.563 1.427-.988.7-.94.91-1.54.315-1.262.315-1.985-.11-1.382-.333-1.976-.53-1.102-.928-1.52-.873-.746-1.427-.98-1.164-.35-1.83-.35c-.654 0-1.258.117-1.812.35s-1.033.56-1.436.98a4.48 4.48 0 0 0-.946 1.521c-.228.595-.34 1.253-.34 1.976s.11 1.384.333 1.985.53 1.113.928 1.54.873.755 1.427.988 1.17.35 1.847.35zm0-2.238c-.595 0-1.057-.236-1.383-.708s-.5-1.11-.5-1.915.163-1.437.5-1.897.788-.69 1.383-.69 1.054.23 1.375.69.482 1.093.482 1.897-.16 1.443-.482 1.915-.78.708-1.375.708zm9.14 1.994v-4.022c.292.233.587.52.884.857l.85 1.058.762 1.102.64 1.006h2.994l-.735-1.277-.963-1.4-1.086-1.355c-.374-.437-.735-.813-1.086-1.128l1.935-2.002 1.812-2.037h-3.1l-.587.7-.727.848-.797.9-.797.874V16.24l-2.61.42v13.15h2.61zm8.826-10.318c.42 0 .785-.137 1.094-.41s.464-.65.464-1.128-.155-.854-.464-1.128-.674-.41-1.094-.41-.785.137-1.094.41-.464.65-.464 1.128.155.854.464 1.128.674.41 1.094.41zm1.313 10.318v-9.2h-2.61v9.2h2.61zm5.06 0v-7.1l.56-.06.595-.026c.607 0 1.02.175 1.243.525s.333.944.333 1.784h0v4.88h2.61v-5.194c0-.63-.064-1.2-.193-1.714a3.37 3.37 0 0 0-.648-1.329c-.304-.373-.715-.662-1.235-.866s-1.17-.306-1.953-.306a14.12 14.12 0 0 0-2.206.166l-1.716.36v8.884h2.61zm10.962 3.288c1.6 0 2.78-.364 3.546-1.093s1.147-1.845 1.147-3.35h0v-7.73l-.797-.2-.937-.166-.99-.114-.972-.044c-.735 0-1.395.108-1.98.324s-1.077.522-1.48.918-.71.87-.92 1.425-.315 1.17-.315 1.845c0 1.352.34 2.405 1.016 3.157s1.652 1.128 2.924 1.128c.35 0 .674-.032.972-.096s.587-.16.867-.29h0v.332c0 .513-.155.933-.464 1.26s-.838.5-1.585.5c-.572 0-1.083-.047-1.532-.14s-.878-.222-1.287-.385h0l-.455 2.186c.48.163.998.294 1.558.393s1.12.15 1.68.15zm.735-5.998c-1.18 0-1.77-.73-1.77-2.186 0-.7.17-1.277.508-1.73s.852-.682 1.54-.682l.613.026.455.06v4.162c-.163.093-.362.175-.595.245a2.61 2.61 0 0 1-.753.105zM1.558 33.402c.42 0 .785-.137 1.094-.41s.464-.65.464-1.128-.155-.854-.464-1.128-.674-.41-1.094-.41-.785.137-1.094.41S0 31.386 0 31.864s.155.854.464 1.128.674.41 1.094.41zM2.872 43.72v-9.2H.263v9.2h2.61zm5.06 0v-7.1l.56-.06.595-.026c.607 0 1.02.175 1.243.525s.333.944.333 1.784h0v4.88h2.61v-5.194c0-.63-.064-1.2-.193-1.714a3.37 3.37 0 0 0-.648-1.329c-.304-.373-.715-.662-1.235-.866s-1.17-.306-1.953-.306a14.12 14.12 0 0 0-2.206.166l-1.716.36v8.884h2.61zm11.26.2c.56 0 1.033-.047 1.418-.14a7.43 7.43 0 0 0 1.051-.332h0l-.368-2.03c-.245.093-.517.166-.814.22a4.99 4.99 0 0 1-.867.079c-.584 0-.972-.163-1.164-.5s-.29-.764-.29-1.312h0V36.7h3.135v-2.17H18.16v-2.71l-2.61.42v7.73c0 .595.055 1.137.166 1.626s.306.906.587 1.25.654.612 1.12.804 1.057.29 1.77.29zm7.968.035c.69 0 1.3-.117 1.865-.35s1.03-.563 1.427-.988.7-.94.91-1.54.315-1.262.315-1.985-.11-1.382-.333-1.976-.53-1.102-.928-1.52-.873-.746-1.427-.98-1.164-.35-1.83-.35c-.654 0-1.258.117-1.812.35s-1.033.56-1.436.98a4.48 4.48 0 0 0-.946 1.521c-.228.595-.34 1.253-.34 1.976s.11 1.384.333 1.985.53 1.113.928 1.54.873.755 1.427.988 1.17.35 1.847.35zm0-2.238c-.595 0-1.057-.236-1.383-.708s-.5-1.11-.5-1.915.163-1.437.5-1.897.788-.69 1.383-.69 1.054.23 1.375.69.482 1.093.482 1.897-.16 1.443-.482 1.915-.78.708-1.375.708zm14.29 2.204c.56 0 1.033-.047 1.418-.14a7.43 7.43 0 0 0 1.051-.332h0l-.368-2.03c-.245.093-.517.166-.814.22a4.99 4.99 0 0 1-.867.079c-.584 0-.972-.163-1.164-.5s-.29-.764-.29-1.312h0V36.7h3.135v-2.17h-3.135v-2.71l-2.61.42v7.73c0 .595.055 1.137.166 1.626s.306.906.587 1.25.654.612 1.12.804 1.057.29 1.77.29zm6.83-.2v-6.995l.552-.13a3.35 3.35 0 0 1 .657-.061c.584 0 .984.175 1.2.525s.324.944.324 1.784h0v4.88h2.61v-5.194c0-.63-.06-1.2-.184-1.714s-.333-.956-.63-1.33-.695-.662-1.19-.866-1.118-.306-1.865-.306a4.24 4.24 0 0 0-.797.079c-.274.052-.5.108-.674.166h0V30.15l-2.61.42v13.15h2.61zm12.135.245a9.21 9.21 0 0 0 .981-.052l.92-.13a7.34 7.34 0 0 0 .779-.184c.233-.07.42-.14.56-.2h0l-.35-2.116c-.292.128-.668.236-1.13.324a7.55 7.55 0 0 1-1.41.131c-.747 0-1.343-.157-1.786-.472a1.73 1.73 0 0 1-.753-1.277h5.92l.035-.48.018-.498c0-1.55-.38-2.725-1.138-3.524s-1.792-1.198-3.1-1.198a4.42 4.42 0 0 0-1.637.315c-.53.2-1 .52-1.4.927s-.738.918-.99 1.53-.376 1.326-.376 2.142c0 .676.096 1.306.29 1.89a3.99 3.99 0 0 0 .893 1.513c.403.426.91.76 1.523 1.006s1.334.367 2.163.367zm1.26-5.77h-3.45c.035-.222.1-.44.166-.656a1.76 1.76 0 0 1 .324-.568c.14-.163.315-.294.525-.393s.46-.15.753-.15c.304 0 .557.052.762.157s.374.24.508.402.233.35.298.56.102.426.114.647h0zM3.17 57.632V52.63h4.798v-2.29H3.17v-2.536h5.393v-2.29H.438v12.12H3.17zm10.734.2a14.12 14.12 0 0 0 2.206-.166l1.716-.36v-8.884h-2.61v7.1l-.56.06-.595.026c-.607 0-1.02-.187-1.243-.56s-.333-.98-.333-1.82h0v-4.81h-2.61v5.124a7.28 7.28 0 0 0 .193 1.731c.128.525.344.976.648 1.355s.715.673 1.235.883 1.17.315 1.953.315zm9.93 0c.56 0 1.033-.047 1.418-.14a7.43 7.43 0 0 0 1.051-.332h0l-.368-2.03c-.245.093-.517.166-.814.22a4.99 4.99 0 0 1-.867.079c-.584 0-.972-.163-1.164-.5s-.29-.764-.29-1.312h0V50.6h3.135v-2.17H22.8v-2.71l-2.61.42v7.73c0 .595.055 1.137.166 1.626s.306.906.587 1.25.654.612 1.12.804 1.057.29 1.77.29zm8.16 0a14.12 14.12 0 0 0 2.206-.166l1.716-.36v-8.884h-2.61v7.1l-.56.06-.595.026c-.607 0-1.02-.187-1.243-.56s-.333-.98-.333-1.82h0v-4.81h-2.61v5.124a7.28 7.28 0 0 0 .193 1.731c.128.525.344.976.648 1.355s.715.673 1.235.883 1.17.315 1.953.315zm8.983-.2V50.6c.117-.035.29-.067.517-.096a4.72 4.72 0 0 1 .587-.044c.362 0 .7.032 1.016.096l.823.184.438-2.15c-.14-.058-.31-.108-.508-.15l-.595-.105-.595-.07-.508-.026c-.782 0-1.49.073-2.128.22l-1.655.463v8.71h2.61zm9.036.245a9.21 9.21 0 0 0 .981-.052l.92-.13a7.34 7.34 0 0 0 .779-.184c.233-.07.42-.14.56-.2h0l-.35-2.116c-.292.128-.668.236-1.13.324a7.55 7.55 0 0 1-1.41.131c-.747 0-1.343-.157-1.786-.472a1.73 1.73 0 0 1-.753-1.277h5.92l.035-.48.018-.498c0-1.55-.38-2.725-1.138-3.524s-1.792-1.198-3.1-1.198a4.42 4.42 0 0 0-1.637.315c-.53.2-1 .52-1.4.927s-.738.918-.99 1.53-.376 1.326-.376 2.142c0 .676.096 1.306.29 1.89a3.99 3.99 0 0 0 .893 1.513c.403.426.91.76 1.523 1.006s1.334.367 2.163.367zm1.26-5.77h-3.45c.035-.222.1-.44.166-.656a1.76 1.76 0 0 1 .324-.568c.14-.163.315-.294.525-.393s.46-.15.753-.15c.304 0 .557.052.762.157s.374.24.508.402.233.35.298.56.102.426.114.647h0z" fill="#000"/><path d="M6.487 12.72v-.884H1.412v-.03c0-.248.06-.5.178-.752a4.28 4.28 0 0 1 .481-.775c.202-.264.43-.527.683-.79l.784-.783.947-.93a8.36 8.36 0 0 0 .83-.961 4.77 4.77 0 0 0 .582-1.031c.145-.357.217-.736.217-1.14 0-.91-.264-1.62-.792-2.13s-1.314-.767-2.36-.767a3.65 3.65 0 0 0-1.071.147 4.43 4.43 0 0 0-.846.349c-.243.134-.445.27-.605.41l-.334.318.528.698c.062-.062.16-.15.295-.264a3.21 3.21 0 0 1 .489-.333 3.58 3.58 0 0 1 .675-.287c.26-.083.554-.124.885-.124.6 0 1.08.158 1.467.473s.582.834.582 1.558a2.61 2.61 0 0 1-.155.915c-.103.28-.243.543-.42.79a5.6 5.6 0 0 1-.613.721l-.737.72-.97.93a7.93 7.93 0 0 0-.916 1.039c-.274.372-.5.767-.675 1.186s-.264.87-.264 1.356l.008.256.008.116h6.193zm5.68.233c1.097 0 1.948-.48 2.553-1.442s.908-2.346.908-4.154c0-1.82-.303-3.21-.908-4.17s-1.456-1.442-2.553-1.442c-1.107 0-1.96.48-2.56 1.442s-.9 2.35-.9 4.17c0 1.808.303 3.193.908 4.154s1.456 1.442 2.553 1.442zm0-.915c-.455 0-.833-.13-1.133-.388s-.54-.602-.722-1.03-.3-.925-.388-1.488-.116-1.155-.116-1.775.04-1.212.116-1.775.207-1.062.388-1.496.422-.78.722-1.04.678-.388 1.133-.388c.445 0 .817.13 1.118.388s.543.605.73 1.04.318.933.396 1.496.116 1.155.116 1.775-.04 1.212-.116 1.775-.2 1.06-.396 1.488-.43.772-.73 1.03-.673.388-1.118.388zm11.827.682v-.884H18.92v-.03c0-.248.06-.5.178-.752a4.28 4.28 0 0 1 .481-.775c.202-.264.43-.527.683-.79l.784-.783.947-.93a8.36 8.36 0 0 0 .83-.961 4.77 4.77 0 0 0 .582-1.031c.145-.357.217-.736.217-1.14 0-.91-.264-1.62-.792-2.13s-1.314-.767-2.36-.767a3.65 3.65 0 0 0-1.071.147 4.43 4.43 0 0 0-.846.349c-.243.134-.445.27-.605.41l-.334.318.528.698c.062-.062.16-.15.295-.264a3.21 3.21 0 0 1 .489-.333 3.58 3.58 0 0 1 .675-.287c.26-.083.554-.124.885-.124.6 0 1.08.158 1.467.473s.582.834.582 1.558a2.61 2.61 0 0 1-.155.915c-.103.28-.243.543-.42.79a5.6 5.6 0 0 1-.613.721l-.737.72-.97.93a7.93 7.93 0 0 0-.916 1.039c-.274.372-.5.767-.675 1.186s-.264.87-.264 1.356l.008.256.008.116h6.193zm6.783 0V1.977h-.714c-.476.58-.957 1.036-1.443 1.372s-1.04.612-1.66.83h0l.295.775A4.9 4.9 0 0 0 28 4.666l.714-.372c.228-.13.432-.26.613-.395s.33-.264.442-.388h0v9.208h1.01z" class="I"/></g><g opacity=".92" transform="translate(81.593)"><g transform="translate(37.808)"><path d="M38.185 19.037V.02h-18.97l.002.224c.167 10.302 8.468 18.623 18.746 18.8l.223.002z" fill="#2ac2ff"/><path d="M38.185 19.47v19.015h-18.97l.002-.224c.167-10.302 8.468-18.623 18.746-18.8l.223-.002z" fill="#00173a"/><path d="M19.213 38.486V19.47H.242l.002.224c.167 10.302 8.468 18.623 18.746 18.8l.223.002z" fill="#ff9d00"/><ellipse fill="#005b11" cx="9.728" cy="9.529" rx="9.486" ry="9.508"/><ellipse cx="9.728" cy="48.061" rx="9.486" ry="9.508" class="I"/></g><path d="M19.5 57.632V38.554H0l.002.224c.17 10.336 8.704 18.684 19.27 18.852l.23.002z" fill="#005b11"/><path d="M19.5 0v19.078H0l.002-.224C.173 8.517 8.706.17 19.272.002L19.5 0z" class="E"/><path d="M19.5 19.078V0h19.5L39 .224c-.17 10.336-8.704 18.684-19.27 18.852l-.23.002z" fill="#00173a"/><path d="M19.5 19.476v19.078H0l.002-.224c.17-10.336 8.704-18.684 19.27-18.852l.23-.002z" class="I"/><path d="M28.854 38.554c5.165 0 9.353 4.27 9.353 9.54s-4.187 9.54-9.353 9.54-9.353-4.27-9.353-9.54 4.187-9.54 9.353-9.54z" fill="#ff7800"/></g></g><path stroke="#f4f2ee" d="M0 92.65h266.623" class="B C"/></g></g></g></g><g filter="url(#F)" class="H E G"><g transform="translate(-36.5 230.5)"><path d="M6.256 17.525v-.876H1.378v-.03c0-.246.057-.494.172-.745s.27-.507.462-.768a9.14 9.14 0 0 1 .656-.784l.753-.776.9-.922a8.22 8.22 0 0 0 .798-.953 4.77 4.77 0 0 0 .559-1.022c.14-.353.21-.73.21-1.13 0-.9-.254-1.606-.76-2.113s-1.263-.76-2.267-.76a3.41 3.41 0 0 0-1.029.146c-.308.097-.58.213-.813.346a3.37 3.37 0 0 0-.582.407l-.32.315.507.69a5.06 5.06 0 0 1 .283-.261c.13-.113.286-.223.47-.33s.4-.202.65-.284.532-.123.85-.123c.567 0 1.037.156 1.4.47s.56.827.56 1.544a2.66 2.66 0 0 1-.149.906 3.42 3.42 0 0 1-.403.784 5.51 5.51 0 0 1-.589.714l-.71.714-.932.922a7.79 7.79 0 0 0-.88 1.029c-.264.37-.48.76-.65 1.175s-.254.863-.254 1.344l.007.254.007.115h5.952zm5.323 0V6.878h-.686c-.457.574-.92 1.027-1.387 1.36a6.58 6.58 0 0 1-1.596.822h0l.283.768c.24-.072.477-.166.716-.284l.686-.37c.22-.128.415-.26.59-.392s.316-.26.425-.384h0v9.126h.97z"/><path d="M2.04 4.1l.072-1.627.11-1.437.133.254.208.418.245.51.25.53.22.474.152.35h.325l.152-.35.22-.474.25-.53.245-.51.208-.418.133-.254.11 1.437.072 1.627h.368l-.11-1.916L5.254.432H4.95l-.34.61-.36.72-.347.736-.296.654-.296-.654-.347-.736-.36-.72-.34-.61h-.32L1.79 2.183 1.682 4.1h.357zm5.134.058l.333-.013.296-.034.235-.04.155-.034V2.3a1.45 1.45 0 0 0-.053-.402.83.83 0 0 0-.171-.32.79.79 0 0 0-.307-.212 1.23 1.23 0 0 0-.461-.077 2.41 2.41 0 0 0-.456.037c-.126.025-.22.05-.28.08h0l.048.302a2.87 2.87 0 0 1 .219-.069 1.79 1.79 0 0 1 .453-.042c.142 0 .257.022.344.066s.155.102.203.175.08.153.093.243.02.183.02.278h0v.17a.41.41 0 0 0-.077-.024l-.133-.026-.16-.02-.157-.008c-.167 0-.322.016-.464.048a1.08 1.08 0 0 0-.368.151c-.103.07-.183.156-.24.262s-.085.233-.085.38c0 .155.026.287.077.394s.123.196.213.265.197.12.32.15.257.048.403.048zm.06-.307c-.1 0-.21-.01-.296-.03a.64.64 0 0 1-.224-.093.42.42 0 0 1-.144-.169c-.034-.07-.05-.157-.05-.26 0-.116.025-.2.075-.28a.53.53 0 0 1 .192-.167c.078-.04.164-.067.256-.08s.18-.02.267-.02c.15 0 .267.01.352.03a1.07 1.07 0 0 1 .187.056h0v.963a2.44 2.44 0 0 1-.259.034l-.355.013zm1.77 1.244c.156 0 .292-.018.408-.053s.217-.1.304-.164a1.19 1.19 0 0 0 .237-.283 3.04 3.04 0 0 0 .208-.41c.17-.402.33-.845.475-1.328l.39-1.492h-.347l-.152.65-.15.6-.168.58-.208.62-.3-.646-.253-.64-.205-.606-.15-.548h-.368l.203.7.26.714.304.706.34.672a1.91 1.91 0 0 1-.152.307.8.8 0 0 1-.173.198.58.58 0 0 1-.216.108c-.08.02-.17.032-.27.032a.72.72 0 0 1-.205-.029c-.066-.02-.106-.034-.12-.045h0l-.07.286c.018.01.063.026.136.048a.87.87 0 0 0 .243.032z"/></g></g><g class="H"><g transform="translate(-17 485.5)"><use fill="#000" filter="url(#H)" xlink:href="#G"/><use fill="#fff" xlink:href="#G"/><g transform="translate(98.5 16)" class="E"><path d="M20.09.01L.828 4.443c-.437.1-.765.457-.82.893a1.04 1.04 0 0 0 .578 1.058L6.057 9.1l.56 5.45a1.05 1.05 0 0 0 .8.908c.435.11.895-.062 1.148-.425l.166-.166-1.106-4.16a1.41 1.41 0 0 1 .707-1.339l4.754-2.752-3.8 3.588c-.27.255-.382.63-.298.987l1.732 7.316c.1.428.467.748.912.802a1.08 1.08 0 0 0 1.083-.565l9.05-17.278a1.02 1.02 0 0 0 .106-.204c.095-.242.036-.612-.072-.866-.134-.314-.703-.445-1.707-.395z"/></g><path d="M63.5 26h4v-4h-4v4zm-6 0h4v-4h-4v4zm0 6h4v-4h-4v4zm-6-6h4v-4h-4v4zm0 6h4v-4h-4v4zm17-16h-2v-2h-2v5h-2v-3h-6v-2h-2v5h-2v-3h-2a2 2 0 0 0-2 2v15c0 1.102.897 2 2 2h18c1.103 0 2-.898 2-2V18c0-1.103-.897-2-2-2z" class="E"/><g transform="translate(198.5 14)" class="E"><path d="M17.857 11.786c-.657 0-1.2-.528-1.2-1.18s.533-1.18 1.2-1.18 1.2.528 1.2 1.18-.533 1.18-1.2 1.18m-4.762 0c-.657 0-1.2-.528-1.2-1.18s.533-1.18 1.2-1.18 1.2.528 1.2 1.18-.533 1.18-1.2 1.18m-4.762 0c-.657 0-1.2-.528-1.2-1.18s.533-1.18 1.2-1.18 1.2.528 1.2 1.18-.533 1.18-1.2 1.18M13.095 0C6.53 0 1.2 4.76 1.2 10.607c0 2.045.644 3.998 1.873 5.7L0 21.214h13.095C19.66 21.214 25 16.455 25 10.607S19.66 0 13.095 0"/></g><g transform="translate(149.5 16)" class="E"><path d="M10.023 17.822L1.417 9.476l5.056-4.902 3.304 3.204 5.292-5.645H2.2C.986 2.133 0 3.09 0 4.267v12.8C0 18.243.986 19.2 2.2 19.2h15.4c1.213 0 2.2-.957 2.2-2.133V7.393l-9.777 10.43z"/><path d="M9.947 14.73l-5.42-5.254L6.472 7.59l3.38 3.278L19.882.17l2.035 1.793z"/></g><g transform="translate(250.5 16)" class="E"><path d="M10.08 9.6c2.78 0 5.04-2.153 5.04-4.8S12.86 0 10.08 0 5.04 2.153 5.04 4.8s2.26 4.8 5.04 4.8"/><path d="M10.08 10.8C4.145 10.8 0 13.76 0 18v1.2h20.16V18c0-4.24-4.145-7.2-10.08-7.2"/></g></g></g></g><path d="M93.3 13.5c0 7.456 6.044 13.5 13.5 13.5H204c7.456 0 13.5-6.044 13.5-13.5h0H93.3z" fill="#011638"/></g></g></svg>