<svg xmlns="http://www.w3.org/2000/svg" xmlns:xlink="http://www.w3.org/1999/xlink" width="798" height="747" xmlns:v="https://vecta.io/nano"><style><![CDATA[.B{stroke-linejoin:round}.C{stroke-linecap:round}.D{fill:#0d62fe}.E{stroke-width:1.668}.F{fill-opacity:.035}.G{stroke-width:1.895}.H{fill:#fff}.I{stroke:#e7e7e7}.J{stroke-width:.783}.K{fill:#d4d4d4}.L{fill-rule:nonzero}.M{fill:#0064ff}.N{stroke:#f4f2ee}.O{fill:#ff9d00}.P{stroke:#212121}.Q{fill:#00c15a}.R{filter:url(#F)}.S{fill:#001d71}.T{stroke-linecap:square}]]></style><defs><filter x="-8.5%" y="-6.6%" width="117.1%" height="113.2%" id="A"><feOffset dy="8" in="SourceAlpha"/><feGaussianBlur stdDeviation="8"/><feColorMatrix values="0 0 0 0 0 0 0 0 0 0.160784314 0 0 0 0 0.349019608 0 0 0 0.1 0" result="C"/><feMerge><feMergeNode in="C"/><feMergeNode in="SourceGraphic"/></feMerge></filter><path id="B" d="M376.592 478.253h133.12v133.14h-133.12z"/><filter x="-4.9%" y="-4.1%" width="109.8%" height="109.8%" id="C"><feOffset dy="1" in="SourceAlpha"/><feGaussianBlur stdDeviation="2"/><feColorMatrix values="0 0 0 0 0 0 0 0 0 0.160784314 0 0 0 0 0.349019608 0 0 0 0.1 0"/></filter><filter x="-23.2%" y="-21.8%" width="146.4%" height="144.4%" id="D"><feOffset dy="1" in="SourceAlpha"/><feGaussianBlur stdDeviation="1"/><feColorMatrix values="0 0 0 0 0 0 0 0 0 0 0 0 0 0 0 0 0 0 0.3 0" result="C"/><feMerge><feMergeNode in="C"/><feMergeNode in="SourceGraphic"/></feMerge></filter><filter x="-41.9%" y="-36.2%" width="183.5%" height="172.4%" id="E"><feOffset dy="24" in="SourceAlpha"/><feGaussianBlur stdDeviation="16"/><feColorMatrix values="0 0 0 0 0.3515625 0 0 0 0 0.3515625 0 0 0 0 0.3515625 0 0 0 0.1 0" result="C"/><feMerge><feMergeNode in="C"/><feMergeNode in="SourceGraphic"/></feMerge></filter><filter id="F"><feColorMatrix in="SourceGraphic" values="0 0 0 0 0.000000 0 0 0 0 0.112693 0 0 0 0 0.441384 0 0 0 0.434495 0"/></filter><filter x="-42.1%" y="-53.2%" width="184.2%" height="205.9%" id="G"><feOffset dy="24" in="SourceAlpha"/><feGaussianBlur stdDeviation="16"/><feColorMatrix values="0 0 0 0 0.3515625 0 0 0 0 0.3515625 0 0 0 0 0.3515625 0 0 0 0.1 0" result="C"/><feMerge><feMergeNode in="C"/><feMergeNode in="SourceGraphic"/></feMerge></filter><filter id="H"><feColorMatrix in="SourceGraphic" values="0 0 0 0 0.000000 0 0 0 0 0.112693 0 0 0 0 0.441384 0 0 0 0.199984 0"/></filter><path d="M48.844.457C21.993.457.227 22.212.227 49.048s21.767 48.59 48.617 48.59S97.46 75.884 97.46 49.048 75.694.457 48.844.457zm-.675 17.547c16.782 0 30.386 13.597 30.386 30.37S64.95 78.743 48.17 78.743s-30.386-13.597-30.386-30.37 13.604-30.37 30.386-30.37z" id="I"/><path id="J" d="M133.6 513.112l-13.188 8.075-10.942-16.75c-.12-.182-.317-.267-.466-.413l3.035-3.102a1.63 1.63 0 0 0 0-2.271l-4.076-4.16a1.56 1.56 0 0 0-2.23 0l-4.076 4.16a1.63 1.63 0 0 0 0 2.271l3.035 3.102c-.152.146-.348.23-.466.413l-10.944 16.75-13.186-8.075c-1.093-.67-2.477-.6-3.502.173s-1.49 2.103-1.18 3.364l6.304 25.737c.352 1.43 1.614 2.437 3.062 2.437h44.14c1.447 0 2.7-1.008 3.06-2.437l6.306-25.737c.3-1.26-.158-2.588-1.18-3.364s-2.408-.842-3.502-.173z"/></defs><g transform="translate(17 9)" fill="none" fill-rule="evenodd"><g filter="url(#A)"><path stroke-width=".64" d="M0 0h550v713H0z" class="H N"/><use fill="#000" filter="url(#C)" xlink:href="#B"/><use xlink:href="#B" class="H"/><use xlink:href="#J" fill="#837764"/><g fill="#c2c2c2" class="L"><path d="M99.103 586.867v-4.206c2.134-.314 3.666-1 4.597-2.086s1.396-2.356 1.396-3.836c0-.987-.176-1.84-.528-2.557a5.82 5.82 0 0 0-1.447-1.868c-.613-.527-1.334-.987-2.162-1.38l-2.64-1.127-1.77-.656c-.522-.213-.965-.437-1.328-.673s-.636-.505-.817-.808-.272-.68-.272-1.127a2.09 2.09 0 0 1 .919-1.8c.613-.437 1.532-.656 2.758-.656 1.158 0 2.185.112 3.08.337l2.332.707.85-3.33c-.5-.202-1.18-.41-2.043-.623s-1.84-.365-2.928-.454h0v-3.634h-3.54v3.77c-1.93.314-3.36 1.015-4.3 2.103s-1.396 2.406-1.396 3.954c0 .942.17 1.74.51 2.39s.79 1.206 1.345 1.666 1.18.847 1.873 1.16l2.094.84 2.06.774c.624.247 1.163.516 1.617.808s.806.628 1.055 1 .375.83.375 1.346a2.19 2.19 0 0 1-.902 1.834c-.602.46-1.685.7-3.252.7-1.317 0-2.49-.146-3.524-.437s-1.912-.617-2.64-.976h0l-1.158 3.197c.5.27 1.254.566 2.264.892s2.332.544 3.967.656h0v4.105h3.54zm17.516 0v-4.206c2.134-.314 3.666-1 4.597-2.086s1.396-2.356 1.396-3.836c0-.987-.176-1.84-.528-2.557a5.82 5.82 0 0 0-1.447-1.868c-.613-.527-1.334-.987-2.162-1.38l-2.64-1.127-1.77-.656c-.522-.213-.965-.437-1.328-.673s-.636-.505-.817-.808-.272-.68-.272-1.127a2.09 2.09 0 0 1 .919-1.8c.613-.437 1.532-.656 2.758-.656 1.158 0 2.185.112 3.08.337l2.332.707.85-3.33c-.5-.202-1.18-.41-2.043-.623s-1.84-.365-2.928-.454h0v-3.634h-3.54v3.77c-1.93.314-3.36 1.015-4.3 2.103s-1.396 2.406-1.396 3.954c0 .942.17 1.74.51 2.39s.79 1.206 1.345 1.666 1.18.847 1.873 1.16l2.094.84 2.06.774c.624.247 1.163.516 1.617.808s.806.628 1.055 1 .375.83.375 1.346a2.19 2.19 0 0 1-.902 1.834c-.602.46-1.685.7-3.252.7-1.317 0-2.49-.146-3.524-.437s-1.912-.617-2.64-.976h0l-1.158 3.197c.5.27 1.254.566 2.264.892s2.332.544 3.967.656h0v4.105h3.54z"/><path d="M258.498 586.867v-4.206c2.134-.314 3.666-1 4.597-2.086s1.396-2.356 1.396-3.836c0-.987-.176-1.84-.528-2.557a5.82 5.82 0 0 0-1.447-1.868c-.613-.527-1.334-.987-2.162-1.38l-2.64-1.127-1.77-.656c-.522-.213-.965-.437-1.328-.673s-.636-.505-.817-.808-.272-.68-.272-1.127a2.09 2.09 0 0 1 .919-1.8c.613-.437 1.532-.656 2.758-.656 1.158 0 2.185.112 3.08.337l2.332.707.85-3.33c-.5-.202-1.18-.41-2.043-.623s-1.84-.365-2.928-.454h0v-3.634h-3.54v3.77c-1.93.314-3.36 1.015-4.3 2.103s-1.396 2.406-1.396 3.954c0 .942.17 1.74.51 2.39s.79 1.206 1.345 1.666 1.18.847 1.873 1.16l2.094.84 2.06.774c.624.247 1.163.516 1.617.808s.806.628 1.055 1 .375.83.375 1.346a2.19 2.19 0 0 1-.902 1.834c-.602.46-1.685.7-3.252.7-1.317 0-2.49-.146-3.524-.437s-1.912-.617-2.64-.976h0l-1.158 3.197c.5.27 1.254.566 2.264.892s2.332.544 3.967.656h0v4.105h3.54zm17.516 0v-4.206c2.134-.314 3.666-1 4.597-2.086s1.396-2.356 1.396-3.836c0-.987-.176-1.84-.528-2.557a5.82 5.82 0 0 0-1.447-1.868c-.613-.527-1.334-.987-2.162-1.38l-2.64-1.127-1.77-.656c-.522-.213-.965-.437-1.328-.673s-.636-.505-.817-.808-.272-.68-.272-1.127a2.09 2.09 0 0 1 .919-1.8c.613-.437 1.532-.656 2.758-.656 1.158 0 2.185.112 3.08.337l2.332.707.85-3.33c-.5-.202-1.18-.41-2.043-.623s-1.84-.365-2.928-.454h0v-3.634h-3.54v3.77c-1.93.314-3.36 1.015-4.3 2.103s-1.396 2.406-1.396 3.954c0 .942.17 1.74.51 2.39s.79 1.206 1.345 1.666 1.18.847 1.873 1.16l2.094.84 2.06.774c.624.247 1.163.516 1.617.808s.806.628 1.055 1 .375.83.375 1.346a2.19 2.19 0 0 1-.902 1.834c-.602.46-1.685.7-3.252.7-1.317 0-2.49-.146-3.524-.437s-1.912-.617-2.64-.976h0l-1.158 3.197c.5.27 1.254.566 2.264.892s2.332.544 3.967.656h0v4.105h3.54zm17.516 0v-4.206c2.134-.314 3.666-1 4.597-2.086s1.396-2.356 1.396-3.836c0-.987-.176-1.84-.528-2.557a5.82 5.82 0 0 0-1.447-1.868c-.613-.527-1.334-.987-2.162-1.38l-2.64-1.127-1.77-.656c-.522-.213-.965-.437-1.328-.673s-.636-.505-.817-.808-.272-.68-.272-1.127a2.09 2.09 0 0 1 .919-1.8c.613-.437 1.532-.656 2.758-.656 1.158 0 2.185.112 3.08.337l2.332.707.85-3.33c-.5-.202-1.18-.41-2.043-.623s-1.84-.365-2.928-.454h0v-3.634h-3.54v3.77c-1.93.314-3.36 1.015-4.3 2.103s-1.396 2.406-1.396 3.954c0 .942.17 1.74.51 2.39s.79 1.206 1.345 1.666 1.18.847 1.873 1.16l2.094.84 2.06.774c.624.247 1.163.516 1.617.808s.806.628 1.055 1 .375.83.375 1.346a2.19 2.19 0 0 1-.902 1.834c-.602.46-1.685.7-3.252.7-1.317 0-2.49-.146-3.524-.437s-1.912-.617-2.64-.976h0l-1.158 3.197c.5.27 1.254.566 2.264.892s2.332.544 3.967.656h0v4.105h3.54z"/><path d="M417.893 586.867v-4.206c2.134-.314 3.666-1 4.597-2.086s1.396-2.356 1.396-3.836c0-.987-.176-1.84-.528-2.557a5.82 5.82 0 0 0-1.447-1.868c-.613-.527-1.334-.987-2.162-1.38l-2.64-1.127-1.77-.656c-.522-.213-.965-.437-1.328-.673s-.636-.505-.817-.808-.272-.68-.272-1.127a2.09 2.09 0 0 1 .919-1.8c.613-.437 1.532-.656 2.758-.656 1.158 0 2.185.112 3.08.337l2.332.707.85-3.33c-.5-.202-1.18-.41-2.043-.623s-1.84-.365-2.928-.454h0v-3.634h-3.54v3.77c-1.93.314-3.36 1.015-4.3 2.103s-1.396 2.406-1.396 3.954c0 .942.17 1.74.51 2.39s.79 1.206 1.345 1.666 1.18.847 1.873 1.16l2.094.84 2.06.774c.624.247 1.163.516 1.617.808s.806.628 1.055 1 .375.83.375 1.346a2.19 2.19 0 0 1-.902 1.834c-.602.46-1.685.7-3.252.7-1.317 0-2.49-.146-3.524-.437s-1.912-.617-2.64-.976h0l-1.158 3.197c.5.27 1.254.566 2.264.892s2.332.544 3.967.656h0v4.105h3.54zm17.516 0v-4.206c2.134-.314 3.666-1 4.597-2.086s1.396-2.356 1.396-3.836c0-.987-.176-1.84-.528-2.557a5.82 5.82 0 0 0-1.447-1.868c-.613-.527-1.334-.987-2.162-1.38l-2.64-1.127-1.77-.656c-.522-.213-.965-.437-1.328-.673s-.636-.505-.817-.808-.272-.68-.272-1.127a2.09 2.09 0 0 1 .919-1.8c.613-.437 1.532-.656 2.758-.656 1.158 0 2.185.112 3.08.337l2.332.707.85-3.33c-.5-.202-1.18-.41-2.043-.623s-1.84-.365-2.928-.454h0v-3.634h-3.54v3.77c-1.93.314-3.36 1.015-4.3 2.103s-1.396 2.406-1.396 3.954c0 .942.17 1.74.51 2.39s.79 1.206 1.345 1.666 1.18.847 1.873 1.16l2.094.84 2.06.774c.624.247 1.163.516 1.617.808s.806.628 1.055 1 .375.83.375 1.346a2.19 2.19 0 0 1-.902 1.834c-.602.46-1.685.7-3.252.7-1.317 0-2.49-.146-3.524-.437s-1.912-.617-2.64-.976h0l-1.158 3.197c.5.27 1.254.566 2.264.892s2.332.544 3.967.656h0v4.105h3.54zm17.516 0v-4.206c2.134-.314 3.666-1 4.597-2.086s1.396-2.356 1.396-3.836c0-.987-.176-1.84-.528-2.557a5.82 5.82 0 0 0-1.447-1.868c-.613-.527-1.334-.987-2.162-1.38l-2.64-1.127-1.77-.656c-.522-.213-.965-.437-1.328-.673s-.636-.505-.817-.808-.272-.68-.272-1.127a2.09 2.09 0 0 1 .919-1.8c.613-.437 1.532-.656 2.758-.656 1.158 0 2.185.112 3.08.337l2.332.707.85-3.33c-.5-.202-1.18-.41-2.043-.623s-1.84-.365-2.928-.454h0v-3.634h-3.54v3.77c-1.93.314-3.36 1.015-4.3 2.103s-1.396 2.406-1.396 3.954c0 .942.17 1.74.51 2.39s.79 1.206 1.345 1.666 1.18.847 1.873 1.16l2.094.84 2.06.774c.624.247 1.163.516 1.617.808s.806.628 1.055 1 .375.83.375 1.346a2.19 2.19 0 0 1-.902 1.834c-.602.46-1.685.7-3.252.7-1.317 0-2.49-.146-3.524-.437s-1.912-.617-2.64-.976h0l-1.158 3.197c.5.27 1.254.566 2.264.892s2.332.544 3.967.656h0v4.105h3.54zm17.516 0v-4.206c2.134-.314 3.666-1 4.597-2.086s1.396-2.356 1.396-3.836c0-.987-.176-1.84-.528-2.557a5.82 5.82 0 0 0-1.447-1.868c-.613-.527-1.334-.987-2.162-1.38l-2.64-1.127-1.77-.656c-.522-.213-.965-.437-1.328-.673s-.636-.505-.817-.808-.272-.68-.272-1.127a2.09 2.09 0 0 1 .919-1.8c.613-.437 1.532-.656 2.758-.656 1.158 0 2.185.112 3.08.337l2.332.707.85-3.33c-.5-.202-1.18-.41-2.043-.623s-1.84-.365-2.928-.454h0v-3.634h-3.54v3.77c-1.93.314-3.36 1.015-4.3 2.103s-1.396 2.406-1.396 3.954c0 .942.17 1.74.51 2.39s.79 1.206 1.345 1.666 1.18.847 1.873 1.16l2.094.84 2.06.774c.624.247 1.163.516 1.617.808s.806.628 1.055 1 .375.83.375 1.346a2.19 2.19 0 0 1-.902 1.834c-.602.46-1.685.7-3.252.7-1.317 0-2.49-.146-3.524-.437s-1.912-.617-2.64-.976h0l-1.158 3.197c.5.27 1.254.566 2.264.892s2.332.544 3.967.656h0v4.105h3.54z"/></g><use xlink:href="#J" x="168.152" fill="#bebebe"/><use xlink:href="#J" x="336.304" fill="#ffe156"/><g transform="translate(221.401 57.46)"><path d="M0 0h103.694v103.71H0z" class="D"/><g opacity="1" transform="translate(11.21 29.431)"><path d="M56.3 39.228c6.9 0 15.398-.435 25.463-1.304l2.612-12.822H73.048l.87-18.7H11.24l-.383 10.364C3.62 14.76 0 15.71 0 19.62s3.24 6.246 9.717 7.004l2.176 9.997C34.58 38.36 49.38 39.228 56.3 39.228z" class="O"/><g fill="#212121"><path d="M47.375 6.178c-.312 5.457 4.538 6.846 5.883 1.823 1.026-3.832-4.566-4.196-6.33-1.823"/><path d="M65.642 5.31c.095 1.16.025 2.348.284 3.484 1.127 4.927 7.278.147 4.016-3.97"/></g><path d="M75.487 0c1.342 0-.246 11.975-1.088 14.378-1.068 3.048-3.6 2.39-6.31 2.39-.868 0-1.613-.03-2.268-.105-1.128-1.374-2.596-2.907-4.188-4.294l-1.214-1.008.3 1.766-.388-.615c-1.65 4.163-4.97 5.343-9 5.343-9.32 0-13.038-7.1-11.547-17.855h35.704zM56.97 4.85h-12.6l-.004.062c-.16 2.583.134 4.586.825 6.022l.415.726c1.098 1.62 3.052 2.466 6.15 2.466 2.11 0 3.56-1.356 4.484-4.68l.25-1.004.178-1.024c.06-.4.117-.86.174-1.375l.12-1.19zm14.955 0h-9.326c1.324 5.43 3.072 7.788 6.318 8.14l.913.047c.132 0 .2-.028.324-.146.26-.248.547-.74.81-1.5.43-1.223.728-2.94.883-5.134l.077-1.42z" fill="#ff0025" class="L"/><g class="B C E P"><path d="M61.87 13.973c4.378 3.457 8.258 8.49 7.593 9.32-.87 1.087-4.02 1.3-4.788.87-.618-.354-.34.126-.34 4.178"/><path d="M52.307 24.94c5.125 3.802 10.814 4.285 16.432 3.13"/></g><g stroke="#001d75" class="B C E"><path d="M57.796 34.7c1.098 4.4 3.69 7.157 6.432 10.83"/><path d="M62.278 34.222c2.997 9.483 2.33 5.438 3.01 11.924"/><path d="M66.008 34.905c.896 9.22.787 5.386.787 11.48"/><path d="M69.976 34.905l-2.053 12.607"/><path d="M72.748 35.247c-.246 4.47-1.425 8.033-3.66 11.89"/><path d="M75.793 34.802c-.41 4.36-1.652 8.558-4.585 11.958"/><path d="M77.47 39.484c-3.624 4.855-4.062 6.343-9.478 7.62"/></g><path d="M52.674 23.354c-.328.88-.98 1.75-2.07 1.8" class="B C E P"/></g></g><g transform="translate(22.42 329.786)"><rect y="16.939" width="242.42" height="23.545" rx="1.28" class="B D F I J"/><rect y=".121" width="89.682" height="12.333" rx="4.044" class="K"/></g><g transform="translate(22.42 174.783)"><rect y="16.939" width="242.42" height="23.545" rx="1.28" class="B D F I J"/><rect y=".121" width="89.682" height="12.333" rx="4.044" class="K"/><rect x="7.006" y="21.424" width="105.096" height="12.333" rx="4.044" class="D"/><g transform="translate(255.873)"><rect x="1.401" y="17.219" width="243.822" height="23.545" rx="1.28" class="B D F I J"/><rect x=".561" y=".121" width="89.682" height="12.333" rx="4.044" class="K"/><rect x="7.217" y="21.424" width="105.096" height="12.333" rx="4.044" class="D"/></g></g><g transform="translate(22.42 233.364)"><rect y="16.939" width="137.325" height="23.545" rx="1.28" class="B D F I J"/><rect y=".121" width="89.682" height="12.333" rx="4.044" class="K"/><g class="D"><rect x="7.006" y="21.424" width="105.096" height="12.333" rx="4.044"/><rect x="7.006" y="118.756" width="105.096" height="12.333" rx="4.044"/></g></g><g transform="translate(168.153 233.364)"><rect y="16.939" width="137.325" height="23.545" rx="1.28" class="B D F I J"/><rect y=".121" width="89.682" height="12.333" rx="4.044" class="K"/><rect x="5.255" y="21.424" width="105.096" height="12.333" rx="4.044" class="D"/></g><g transform="translate(311.083 250.584)"><rect x="96.688" width="116.306" height="23.545" rx="1.28" class="B D F I J"/><rect y="5.326" width="89.682" height="12.333" rx="4.044" class="K"/></g><g transform="translate(25.924 330.187)"><g class="D"><rect x="255.732" y="16.818" width="242.42" height="23.545" rx="1.28" class="B F I J"/><rect x="259.586" y="21.933" width="105.096" height="12.333" rx="4.044"/><rect x=".701" y="75.61" width="117.357" height="12.333" rx="4.044"/><rect x="259.586" y="74.488" width="129.618" height="12.333" rx="4.044"/></g><rect x="255.732" width="89.682" height="12.333" rx="4.044" class="K"/></g><g transform="translate(22.42 382.883)"><g class="B D I J F"><rect x="259.236" y="16.818" width="242.42" height="23.545" rx="1.28"/><rect x=".35" y="17.589" width="242.42" height="23.545" rx="1.28"/></g><g class="K"><rect x="259.236" width="89.682" height="12.333" rx="4.044"/><rect x=".35" y=".771" width="89.682" height="12.333" rx="4.044"/></g></g><g fill="#001c6c"><rect x="22.42" y="15.697" width="105.376" height="14.575" rx="4.044"/><rect x="22.42" y="297.393" width="105.376" height="14.575" rx="4.044"/><rect x="22.42" y="451.975" width="105.376" height="14.575" rx="4.044"/></g><path stroke-width=".674" d="M2.005 42.605l546.594.14" class="B N T"/><g transform="translate(217.548 527.254)"><rect y="108.665" width="115.605" height="35.037" rx="4" class="Q"/><path d="M52.834 136.695l-7.643-7.586 2.742-2.723 4.767 4.732 14.143-15.446 2.87 2.59z" class="H"/><g transform="translate(201.083 .051)" class="L"><g filter="url(#D)" transform="translate(5.533 3.689)"><path fill="#231d1e" d="M0 12.913h1.844v-1.845h3.69v1.845h1.844V1.845h1.844V0h3.69v1.845h1.844V7.38h7.378v1.845h3.69v1.845h1.844v9.223h-1.844v3.69h-1.844v5.534h-3.69V27.67h-1.844v1.845H9.222v-3.69H7.378V23.98H5.533v-1.845H3.69v-3.69H1.844v-1.845H0z"/><path d="M1.844 12.913h3.69v1.845h1.844v1.845h1.844V1.845h3.69v11.068h1.844v-3.69h3.69v3.69h1.844v-3.69h1.844v3.69h1.844v-1.845h1.844v9.223h-1.844v3.69h-1.844v3.69H20.29v-1.845h-1.844v1.845h-7.378v-1.845H9.222V23.98H7.378v-1.845H5.533v-3.69H3.69v-1.845H1.844z" class="H"/><g fill="#231d1e"><path d="M12.91 16.602h1.844v7.38H12.91z"/><path d="M16.6 16.602h1.844v7.38H16.6z"/><path d="M20.29 16.602h1.844v7.38H20.29z"/></g></g></g></g></g><g transform="translate(490 90)"><g filter="url(#E)"><path d="M0 0h259v301H0z" class="H N"/><path d="M113.113 80.482L109.2 82.9l-3.246-5.017c-.035-.054-.094-.08-.138-.124l.9-.93a.49.49 0 0 0 0-.68l-1.21-1.246a.46.46 0 0 0-.662 0l-1.21 1.246a.49.49 0 0 0 0 .68l.9.93c-.045.044-.103.07-.138.124l-3.247 5.017-3.912-2.42c-.324-.2-.735-.18-1.04.052a.98.98 0 0 0-.35 1.008l1.87 7.71c.104.428.48.73.908.73h13.094c.43 0 .804-.302.908-.73l1.87-7.71a.98.98 0 0 0-.35-1.008c-.305-.233-.714-.252-1.04-.052z" class="O"/><g class="R"><g transform="translate(17.901 116.883)" fill="#004d95"><path d="M9.77 2.98l-7.612 7.716 5.057 5.125 7.613-7.715z"/><path d="M16.084 6.833l.64-.647c1.394-1.413 1.394-3.712-.001-5.126a3.55 3.55 0 0 0-5.058 0l-.638.648 5.057 5.125z"/><path d="M5.687 16.818l-4.58 1.16c-.303.076-.623-.014-.843-.238s-.31-.547-.234-.854l1.144-4.642 4.513 4.574z"/></g><g transform="translate(66.339 115.83)" fill="#000"><path d="M10.463 11.736L4.098 13.01 5.37 6.643 10.213 1.8H1.8C.807 1.8 0 2.61 0 3.6v12.604c0 .992.808 1.8 1.8 1.8h12.604c.993 0 1.8-.808 1.8-1.8V5.993l-5.742 5.743z"/><path d="M7.03 7.53l2.546 2.546-3.183.637z"/><path d="M16.578 3.074a1.8 1.8 0 0 0 0-2.546 1.8 1.8 0 0 0-2.546 0l-5.73 5.73 2.546 2.546 5.73-5.73z"/></g><g transform="translate(113.724 115.83)" fill="#000"><path d="M9.115 16.714L1.288 8.887 5.886 4.3 8.89 7.295 13.704 2H2C.897 2 0 2.9 0 4v12.004c0 1.103.897 2 2 2h14.005c1.103 0 2-.897 2-2V6.933l-8.89 9.78z"/><path d="M9.046 13.815l-4.93-4.928 1.77-1.77 3.074 3.074L18.08.16l1.85 1.682z"/></g></g><g transform="translate(164.268 116.883)" fill="#909dc2"><path d="M9.603 9.003h-2.8c-.22 0-.4.183-.4.41s.18.41.4.41h.8c1.103 0 2 .918 2 2.046 0 .988-.688 1.815-1.6 2.004v.86h-1.6v-.818h-1.6v-1.637h2.8c.22 0 .4-.184.4-.41s-.18-.41-.4-.41h-.8c-1.103 0-2-.918-2-2.046 0-.99.688-1.815 1.6-2.004v-.86h1.6v.818h1.6v1.637zm1.09-4.802l2.4-.986-.595-1.52-2.494 1.02L11.044 1.3c.203-.277.214-.656.026-.944a.79.79 0 0 0-.86-.341L7.203.79 4.195.025a.79.79 0 0 0-.86.341c-.187.288-.177.666.026.944l1.032 1.406-2.494-1.02-.595 1.52 2.4.986C1.5 5.46 0 7.873 0 10.64c0 4.06 3.232 7.366 7.203 7.366s7.203-3.305 7.203-7.366c0-2.767-1.5-5.18-3.712-6.44h0z"/></g><g class="R"><g transform="translate(209.547 116.883)" fill="#000"><circle cx="2.369" cy="2.369" r="2.369"/><circle cx="2.369" cy="9.003" r="2.369"/><circle cx="2.369" cy="15.637" r="2.369"/></g></g><g transform="translate(11.583 14.742)"><path d="M37.822 0C16.934 0 0 16.934 0 37.822s16.934 37.822 37.822 37.822S75.645 58.71 75.645 37.822 58.71 0 37.822 0z" fill="#06f" class="L"/><g transform="translate(10.44 23.618)"><g transform="translate(0 .01)"><path d="M36.52 25.448c4.483 0 10-.282 16.52-.846l1.694-8.317H47.39l.565-12.123H7.292l-.25 6.723C2.348 9.576 0 10.19 0 12.73s2.1 4.052 6.304 4.543l1.412 6.485c14.72 1.128 24.32 1.692 28.803 1.692z" class="O"/><g transform="translate(30.446 3.044)" fill="#212121"><path d="M.29.965c-.203 3.54 2.944 4.44 3.817 1.183C4.77-.338 1.144-.574 0 .965"/><path d="M12.14.4c.062.753.016 1.523.185 2.26.73 3.196 4.722.095 2.606-2.575"/></g><path d="M48.973.002c.87 0-.16 7.768-.706 9.327-.693 1.977-2.33 1.55-4.095 1.55-.563 0-1.047-.02-1.47-.068-.732-.89-1.684-1.886-2.717-2.786l-.788-.654.196 1.146-.252-.4c-1.07 2.7-3.225 3.466-5.84 3.466-6.046 0-8.46-4.605-7.49-11.582h23.163zM36.96 3.148h-8.168l-.002.04c-.103 1.675.087 2.975.535 3.906l.27.47c.713 1.05 1.98 1.6 4 1.6 1.368 0 2.3-.88 2.91-3.036l.162-.652.116-.664c.038-.26.076-.557.113-.892l.078-.772zm9.702 0h-6.05c.86 3.52 1.993 5.052 4.1 5.28l.592.03c.085 0 .13-.018.2-.095.17-.16.355-.48.526-.966.278-.794.472-1.908.573-3.33l.05-.92z" fill="#ff0025" class="L"/><g class="B C G P"><path d="M40.138 9.066c2.84 2.242 5.358 5.507 4.926 6.045-.565.705-2.607.85-3.106.564-.4-.23-.22.082-.22 2.7"/><path d="M33.935 16.18c3.325 2.466 7.016 2.78 10.66 2.03"/></g><g stroke="#001d75" class="B C G"><path d="M37.496 22.51c.712 2.848 2.393 4.642 4.173 7.026"/><path d="M40.403 22.2c1.945 6.15 1.512 3.528 1.954 7.735"/><path d="M42.823 22.644c.58 5.98.5 3.493.5 7.447"/><path d="M45.398 22.644l-1.332 8.178"/><path d="M47.196 22.865c-.16 2.9-.924 5.21-2.375 7.712"/><path d="M49.172 22.577c-.265 2.828-1.072 5.55-2.974 7.757"/><path d="M50.26 25.613c-2.35 3.15-2.635 4.115-6.15 4.942"/></g><path d="M34.173 15.15c-.213.57-.636 1.135-1.342 1.168" class="B C G P"/></g></g></g><rect x="94.77" y="49.491" width="106.353" height="12.636" rx="6.318" class="M"/><g fill="#eaeaea"><rect x="11.583" y="181.116" width="106.353" height="12.636" rx="6.318"/><rect x="11.583" y="221.13" width="106.353" height="12.636" rx="6.318"/></g><rect x="12.636" y="271.674" width="77.922" height="9.477" rx="4.739" class="M"/><rect x="121.095" y="77.922" width="34.749" height="12.636" rx="6.318" class="Q"/><rect fill="#ffa300" x="159.003" y="77.922" width="34.749" height="12.636" rx="6.318"/><rect x="94.77" y="29.484" width="124.254" height="12.636" rx="6.318" class="S"/><g fill="#eaeaea"><rect x="11.583" y="161.109" width="124.254" height="12.636" rx="6.318"/><rect x="11.583" y="201.123" width="124.254" height="12.636" rx="6.318"/></g><rect x="11.583" y="256.932" width="92.664" height="9.477" rx="4.739" class="M"/><g stroke-width="1.053" class="B N T"><path d="M.527 104.774h257.985"/><path d="M.527 145.314h257.985"/></g></g><g filter="url(#G)" transform="translate(0 307)"><path d="M0 .164h259v204H0z" class="H N"/><g filter="url(#H)"><g transform="translate(174.58 95.607)" fill="#0b0"><path d="M21.807.823L.986 5.68c-.473.108-.827.5-.886.98s.2.94.625 1.16l5.913 2.977.605 5.972c.048.48.395.878.865.996s.968-.068 1.24-.466l.18-.18-1.196-4.558a1.55 1.55 0 0 1 .764-1.468l5.138-3.016-4.106 3.932a1.14 1.14 0 0 0-.322 1.081l1.873 8.018c.108.47.505.82.986.88a1.16 1.16 0 0 0 1.171-.62l9.78-18.936c.047-.07.085-.145.115-.223.102-.265.04-.67-.078-.95-.144-.344-.76-.488-1.845-.433z"/></g></g><g filter="url(#H)"><g transform="translate(63.146 94.592)"><path d="M16.152 12.912h4.307V8.608h-4.307v4.304zm-6.46 0H14V8.608H9.69v4.304zm0 6.456H14v-4.304H9.69v4.304zm-6.46-6.456h4.307V8.608H3.23v4.304zm0 6.456h4.307v-4.304H3.23v4.304zM21.537 2.152h-2.154V0H17.23v5.38h-2.154V2.152h-6.46V0H6.46v5.38H4.307V2.152H2.154C.966 2.15 0 3.117 0 4.304v16.14c0 1.185.966 2.152 2.154 2.152h19.383c1.187 0 2.154-.967 2.154-2.152V4.304c0-1.187-.966-2.153-2.154-2.152z" fill="#0b0"/></g></g><rect x="11.763" y="17.897" width="77.652" height="8.099" rx="3.159" class="S"/><rect fill="#f2f4f6" x="13.113" y="35.444" width="77.652" height="8.099" rx="3.159"/><g transform="translate(26.487 58.839)"><mask id="K" class="H"><use xlink:href="#I"/></mask><use fill="#0202d0" xlink:href="#I" class="L"/><g mask="url(#K)"><g transform="translate(-4.051 -2.7)"><path d="M51.565 0v51.29H.247c0-28.18 22.4-50.836 50.7-51.286L51.565 0z" class="S"/><path d="M51.545 51.747v.346L71.06 98.78c-6.186 2.74-13.014 4.26-20.19 4.26-27.7 0-50.2-22.616-50.637-50.688l-.005-.603h51.318z" class="M"/><path d="M51.566 1.35l-.001 50.287L71.17 98.533c18.624-7.62 31.713-25.638 31.713-46.652 0-27.63-22.628-50.08-50.715-50.526l-.602-.005z" class="Q"/></g></g></g><g transform="translate(138.577 58.839)"><mask id="L" class="H"><use xlink:href="#N" href="#I"/></mask><use fill="#0202d0" xlink:href="#N" class="L" href="#I"/><g mask="url(#L)"><g transform="translate(-2.701 -2.847)"><path d="M51.565.148v51.29H.247c0-28.18 22.4-50.836 50.7-51.286l.608-.005z" class="O"/><path d="M51.545 51.895v.346L71.06 98.927c-6.186 2.74-13.014 4.26-20.19 4.26-27.7 0-50.2-22.616-50.637-50.688l-.005-.603h51.318z" class="M"/><path d="M51.566 1.536l-.001 51.253-36.44 68.22c203-52 65.355-119.012 37.048-119.467l-.607-.005z" class="Q"/></g></g></g><rect x="184" y="183" width="66" height="9" rx="3.159" class="M"/></g></g></g></svg>