<svg xmlns="http://www.w3.org/2000/svg" xmlns:xlink="http://www.w3.org/1999/xlink" width="1169" height="1277" xmlns:v="https://vecta.io/nano"><style><![CDATA[.B{stroke-linejoin:round}.C{stroke-width:1.2}.D{stroke-linecap:round}.E{fill:#fff}.F{fill-rule:nonzero}.G{fill:#f2f4f6}.H{mask:url(#h)}.I{fill:#42be65}.J{fill:#ff9d00}.K{stroke:#212121}.L{stroke:#001d75}.M{fill:#f4f2ee}.N{fill:#0064ff}.O{fill:#001d71}.P{fill:#00c15a}.Q{stroke:#f4f2ee}.R{fill:#0202d0}.S{fill:#212121}.T{fill:#ff0025}.U{fill:#001d75}.V{stroke:#42be65}.W{stroke-width:2.787}]]></style><defs><filter x="-11.1%" y="-34.2%" width="122.3%" height="168.3%" id="A"><feOffset dy="24" in="SourceAlpha"/><feGaussianBlur stdDeviation="16"/><feColorMatrix values="0 0 0 0 0.3515625 0 0 0 0 0.3515625 0 0 0 0 0.3515625 0 0 0 0.1 0" result="C"/><feMerge><feMergeNode in="C"/><feMergeNode in="SourceGraphic"/></feMerge></filter><path d="M91.868.72C41.334.72.368 41.687.368 92.22s40.966 91.5 91.5 91.5 91.5-40.966 91.5-91.5S142.402.72 91.868.72zm-.356 16.713c41.11 0 74.435 33.325 74.435 74.435s-33.325 74.435-74.435 74.435S17.077 132.98 17.077 91.87s33.325-74.435 74.435-74.435z" id="B"/><filter x="-11.5%" y="-11.1%" width="117.4%" height="122.2%" id="C"><feOffset dy="10" in="SourceAlpha"/><feGaussianBlur stdDeviation="10"/><feColorMatrix values="0 0 0 0 0 0 0 0 0 0.164542109 0 0 0 0 0.362271488 0 0 0 0.1 0" result="C"/><feMerge><feMergeNode in="C"/><feMergeNode in="SourceGraphic"/></feMerge></filter><filter x="-225.0%" y="-220.4%" width="550.0%" height="540.8%" id="D"><feOffset dy="24" in="SourceAlpha"/><feGaussianBlur stdDeviation="16"/><feColorMatrix values="0 0 0 0 0.3515625 0 0 0 0 0.3515625 0 0 0 0 0.3515625 0 0 0 0.1 0" result="C"/><feMerge><feMergeNode in="C"/><feMergeNode in="SourceGraphic"/></feMerge></filter><path id="E" d="M0 0h988v97H0z"/><filter x="-3.3%" y="-24.3%" width="106.6%" height="167.2%" id="F"><feMorphology radius="1.1" operator="dilate" in="SourceAlpha"/><feOffset dy="9"/><feGaussianBlur stdDeviation="9"/><feComposite in2="SourceAlpha" operator="out"/><feColorMatrix values="0 0 0 0 0 0 0 0 0 0.164542109 0 0 0 0 0.362271488 0 0 0 0.1 0"/></filter><filter x="-13.4%" y="-7.2%" width="126.8%" height="114.4%" id="G"><feOffset dy="8" in="SourceAlpha"/><feGaussianBlur stdDeviation="8"/><feColorMatrix values="0 0 0 0 0 0 0 0 0 0.164542109 0 0 0 0 0.362271488 0 0 0 0.1 0" result="C"/><feMerge><feMergeNode in="C"/><feMergeNode in="SourceGraphic"/></feMerge></filter><path d="M26.412 0h259.336c14.348 0 25.984 11.623 26 25.97l.614 554.46c.016 14.36-11.612 26.013-25.97 26.03h-.03H27.026c-14.348 0-25.984-11.623-26-25.97L.412 26.03C.396 11.67 12.023.016 26.383 0h.03z" id="H"/><filter x="-3.9%" y="-3.9%" width="107.4%" height="107.8%" id="I"><feOffset dy="1" in="SourceAlpha"/><feGaussianBlur stdDeviation="2"/><feColorMatrix values="0 0 0 0 0 0 0 0 0 0.160784314 0 0 0 0 0.349019608 0 0 0 0.1 0" result="C"/><feMerge><feMergeNode in="C"/><feMergeNode in="SourceGraphic"/></feMerge></filter><path d="M98.237 0C43.982 0 0 43.858 0 97.96s43.982 97.96 98.237 97.96 98.237-43.858 98.237-97.96S152.492 0 98.237 0zm.84 16.745c45.444 0 82.284 36.736 82.284 82.052s-36.84 82.052-82.284 82.052-82.284-36.736-82.284-82.052 36.84-82.052 82.284-82.052z" id="J"/><filter x="-3.9%" y="-4.9%" width="107.4%" height="109.4%" id="K"><feOffset dy="1" in="SourceAlpha"/><feGaussianBlur stdDeviation="2"/><feColorMatrix values="0 0 0 0 0 0 0 0 0 0.160784314 0 0 0 0 0.349019608 0 0 0 0.1 0" result="C"/><feMerge><feMergeNode in="C"/><feMergeNode in="SourceGraphic"/></feMerge></filter><path d="M55.737.52C25.097.52.26 25.275.26 55.812s24.838 55.293 55.478 55.293 55.478-24.755 55.478-55.293S86.376.52 55.737.52zm-.77 19.967c19.15 0 34.674 15.472 34.674 34.558S74.116 89.602 54.966 89.602 20.292 74.13 20.292 55.045s15.524-34.558 34.674-34.558z" id="L"/><path d="M31.28 614.556h250.21c21.33 0 38.623-18.918 38.623-40.19V545.9H-7.342v28.467c0 21.27 17.292 40.19 38.623 40.19z" id="M"/><filter x="-4.3%" y="-14.6%" width="108.6%" height="140.8%" id="N"><feOffset dy="4" in="SourceAlpha"/><feGaussianBlur stdDeviation="4"/><feColorMatrix values="0 0 0 0 0 0 0 0 0 0.164542109 0 0 0 0 0.362271488 0 0 0 0.1 0"/></filter><path id="O" d="M12.8 13.492a6.41 6.41 0 0 0 6.4-6.4 6.41 6.41 0 0 0-6.4-6.4 6.41 6.41 0 0 0-6.4 6.4 6.41 6.41 0 0 0 6.4 6.4"/><path id="P" d="M0 0h988v80.4H0z"/><path id="Q" d="M23.946 0A23.95 23.95 0 0 0 0 23.946a23.95 23.95 0 0 0 23.946 23.946 23.95 23.95 0 0 0 23.946-23.946A23.95 23.95 0 0 0 23.946 0z"/><path id="R" d="M23.12 16.11c2.838 0 6.325-.178 10.46-.535l1.073-5.266h-4.648l.358-7.675H4.617L4.46 6.89C1.486 6.063 0 6.452 0 8.06s1.33 2.565 3.99 2.876l.894 4.105c9.32.714 15.397 1.07 18.236 1.07z"/><path id="S" d="M.183.61c-.128 2.24 1.864 2.812 2.416.75C3.02-.214.724-.363 0 .61"/><path id="T" d="M7.686.254c.04.477.01.964.117 1.43.463 2.024 3 .06 1.65-1.63"/><path id="U" d="M31.006.001c.55 0-.1 4.918-.447 5.905-.44 1.252-1.475.982-2.592.982a8.2 8.2 0 0 1-.931-.043 15.22 15.22 0 0 0-1.72-1.764l-.5-.414.124.725-.16-.253c-.677 1.7-2.042 2.194-3.697 2.194-3.828 0-5.355-2.916-4.743-7.333h14.665zM23.4 1.993h-5.17l-.002.025c-.065 1.06.055 1.883.34 2.473l.17.298c.45.665 1.253 1.013 2.526 1.013.866 0 1.462-.557 1.842-1.922l.102-.412.073-.42.07-.565.05-.49zm6.142 0h-3.83c.544 2.23 1.262 3.2 2.595 3.343l.375.02c.054 0 .082-.01.133-.06.107-.102.225-.303.333-.612.176-.502.3-1.208.363-2.108l.032-.583z"/><path id="V" d="M25.412 5.74c1.798 1.42 3.392 3.486 3.12 3.827-.358.446-1.65.538-1.967.357-.254-.145-.14.052-.14 1.716"/><path id="W" d="M21.485 10.244c2.105 1.562 4.442 1.76 6.75 1.286"/><path id="X" d="M23.74 14.252c.45 1.803 1.515 2.94 2.642 4.448"/><path id="Y" d="M25.58 14.055c1.23 3.894.958 2.233 1.237 4.897"/><path id="Z" d="M27.112 14.336c.368 3.786.323 2.212.323 4.715"/><path id="a" d="M29.88 14.476c-.1 1.835-.585 3.3-1.504 4.883"/><path id="b" d="M31.13 14.294c-.168 1.8-.68 3.515-1.883 4.91"/><path id="c" d="M31.82 16.216c-1.488 1.994-1.668 2.605-3.893 3.13"/><path id="d" d="M11.81 2.858c-.058.923.84 1.158 1.09.308.2-.648-.845-.7-1.17-.308"/><path id="e" d="M17.028 20.365h81.4a3.6 3.6 0 0 1 3.605 3.595v2.026a3.6 3.6 0 0 1-3.605 3.595h-81.4a3.6 3.6 0 0 1-3.605-3.595V23.96a3.6 3.6 0 0 1 3.605-3.595z"/><path id="f" d="M18.57 40.332h81.4a3.6 3.6 0 0 1 3.605 3.595v2.026a3.6 3.6 0 0 1-3.605 3.595h-81.4a3.6 3.6 0 0 1-3.605-3.595v-2.026a3.6 3.6 0 0 1 3.605-3.595z"/></defs><g transform="translate(99 82)" fill="none" fill-rule="evenodd"><g filter="url(#A)"><path stroke-width="2.2" d="M0 0h988v322H0z" class="E Q"/><g transform="translate(93 84)" fill="#000" class="F"><path d="M26.667 43.06v-7.316H9.89V5.223H1.366V43.06h25.3zm17.705.764c2.15 0 4.09-.364 5.82-1.092s3.215-1.756 4.454-3.085 2.186-2.93 2.842-4.805.984-3.94.984-6.197-.346-4.313-1.038-6.17-1.658-3.44-2.896-4.75-2.723-2.33-4.454-3.057-3.634-1.092-5.71-1.092c-2.04 0-3.925.364-5.656 1.092s-3.224 1.747-4.48 3.057-2.24 2.894-2.95 4.75-1.066 3.913-1.066 6.17.346 4.322 1.038 6.197 1.658 3.476 2.896 4.805 2.723 2.357 4.454 3.085 3.652 1.092 5.765 1.092zm0-6.988c-1.858 0-3.297-.737-4.317-2.21s-1.53-3.467-1.53-5.978.5-4.486 1.53-5.924 2.46-2.157 4.317-2.157 3.288.72 4.3 2.157 1.503 3.412 1.503 5.924-.5 4.504-1.503 5.978-2.432 2.21-4.3 2.21zm33.17 6.988c2.15 0 4.09-.364 5.82-1.092s3.215-1.756 4.454-3.085 2.186-2.93 2.842-4.805.984-3.94.984-6.197-.346-4.313-1.038-6.17-1.658-3.44-2.896-4.75-2.723-2.33-4.454-3.057-3.634-1.092-5.71-1.092c-2.04 0-3.925.364-5.656 1.092s-3.224 1.747-4.48 3.057-2.24 2.894-2.95 4.75-1.066 3.913-1.066 6.17.346 4.322 1.038 6.197 1.658 3.476 2.896 4.805 2.723 2.357 4.454 3.085 3.652 1.092 5.765 1.092zm0-6.988c-1.858 0-3.297-.737-4.317-2.21s-1.53-3.467-1.53-5.978.5-4.486 1.53-5.924 2.46-2.157 4.317-2.157 3.288.72 4.3 2.157 1.503 3.412 1.503 5.924-.5 4.504-1.503 5.978-2.432 2.21-4.3 2.21zm28.525 6.224V30.502c.91.728 1.83 1.62 2.76 2.675l2.65 3.303 2.377 3.44 1.995 3.14h9.344l-2.295-3.986-3.006-4.368-3.388-4.23c-1.166-1.365-2.295-2.54-3.388-3.522l6.038-6.25 5.656-6.36h-9.672l-1.83 2.184-2.268 2.648-2.486 2.812-2.486 2.73V.692l-8.142 1.3V43.06h8.142zm27.542-32.212a4.98 4.98 0 0 0 3.415-1.283c.965-.855 1.448-2.03 1.448-3.522S138 3.376 137.025 2.52a4.98 4.98 0 0 0-3.415-1.283 4.98 4.98 0 0 0-3.415 1.283c-.965.855-1.448 2.03-1.448 3.522s.483 2.666 1.448 3.522a4.98 4.98 0 0 0 3.415 1.283zm4.098 32.212V14.34h-8.142V43.06h8.142zm15.793 0V20.893l1.75-.19 1.858-.082c1.894 0 3.188.546 3.88 1.638s1.038 2.948 1.038 5.57h0V43.06h8.142V26.844c0-1.966-.2-3.75-.6-5.35s-1.075-2.985-2.022-4.15-2.23-2.066-3.853-2.703-3.652-.955-6.093-.955c-2.404 0-4.7.173-6.885.52l-5.355 1.12V43.06h8.142zm34.208 10.264c4.99 0 8.68-1.137 11.066-3.412s3.58-5.76 3.58-10.455h0V15.324c-.73-.218-1.557-.428-2.486-.628a42.18 42.18 0 0 0-2.924-.519c-1.02-.146-2.05-.264-3.087-.355s-2.05-.136-3.033-.136c-2.295 0-4.353.337-6.175 1s-3.36 1.63-4.618 2.866-2.213 2.72-2.87 4.45-.984 3.65-.984 5.76c0 4.222 1.056 7.507 3.17 9.855s5.155 3.522 9.126 3.522c1.093 0 2.104-.1 3.033-.3s1.83-.5 2.705-.9h0v1.037c0 1.602-.483 2.912-1.448 3.93s-2.614 1.53-4.945 1.53c-1.785 0-3.38-.146-4.782-.437a23.88 23.88 0 0 1-4.016-1.201h0l-1.42 6.825c1.494.5 3.115.92 4.863 1.228s3.497.464 5.246.464zm2.295-18.727c-3.68 0-5.52-2.275-5.52-6.825 0-2.184.528-3.986 1.585-5.405s2.66-2.13 4.81-2.13a19.51 19.51 0 0 1 1.913.082c.546.055 1.02.118 1.42.19h0v12.994c-.5.29-1.13.546-1.858.764s-1.512.328-2.35.328zM4.863 54.276a4.98 4.98 0 0 0 3.415-1.283c.965-.855 1.448-2.03 1.448-3.522s-.483-2.666-1.448-3.522a4.98 4.98 0 0 0-3.415-1.283 4.98 4.98 0 0 0-3.415 1.283C.483 46.806 0 47.98 0 49.472s.483 2.666 1.448 3.522a4.98 4.98 0 0 0 3.415 1.283zM8.962 86.49V57.77H.82V86.49h8.142zm15.793 0V64.322a30.3 30.3 0 0 1 1.749-.191c.656-.055 1.275-.082 1.858-.082 1.894 0 3.188.546 3.88 1.638s1.038 2.948 1.038 5.57h0V86.49h8.142V70.273c0-1.966-.2-3.75-.6-5.35s-1.075-2.985-2.022-4.15-2.23-2.066-3.853-2.703-3.652-.955-6.093-.955c-2.404 0-4.7.173-6.885.52s-3.97.72-5.355 1.12h0V86.49h8.142zm35.137.655c1.75 0 3.224-.146 4.426-.437s2.295-.637 3.28-1.037h0l-1.148-6.333c-.765.29-1.612.52-2.54.682a15.57 15.57 0 0 1-2.705.246c-1.822 0-3.033-.5-3.634-1.53s-.902-2.384-.902-4.095h0v-10.1h9.782v-6.77h-9.782v-8.463l-8.142 1.3V74.75c0 1.856.173 3.55.52 5.078s.956 2.83 1.83 3.904 2.04 1.91 3.497 2.51 3.297.9 5.52.9zm24.864.11c2.15 0 4.09-.364 5.82-1.092s3.215-1.756 4.454-3.085 2.186-2.93 2.842-4.805.984-3.94.984-6.197-.346-4.313-1.038-6.17-1.658-3.44-2.896-4.75-2.723-2.33-4.454-3.057-3.634-1.092-5.71-1.092c-2.04 0-3.925.364-5.656 1.092s-3.224 1.747-4.48 3.057-2.24 2.894-2.95 4.75-1.066 3.913-1.066 6.17.346 4.322 1.038 6.197 1.658 3.476 2.896 4.805 2.723 2.357 4.454 3.085 3.652 1.092 5.765 1.092zm0-6.988c-1.858 0-3.297-.737-4.317-2.21s-1.53-3.467-1.53-5.978.5-4.486 1.53-5.924 2.46-2.157 4.317-2.157 3.288.72 4.3 2.157 1.503 3.412 1.503 5.924-.5 4.504-1.503 5.978-2.432 2.21-4.3 2.21zm44.59 6.88c1.75 0 3.224-.146 4.426-.437s2.295-.637 3.28-1.037h0l-1.148-6.333c-.765.29-1.612.52-2.54.682a15.57 15.57 0 0 1-2.705.246c-1.822 0-3.033-.5-3.634-1.53s-.902-2.384-.902-4.095h0v-10.1h9.782v-6.77h-9.782v-8.463l-8.142 1.3V74.75c0 1.856.173 3.55.52 5.078s.956 2.83 1.83 3.904 2.04 1.91 3.497 2.51 3.297.9 5.52.9zm21.312-.655V64.65c.5-.146 1.084-.282 1.72-.41s1.32-.19 2.05-.19c1.822 0 3.07.546 3.743 1.638s1.01 2.948 1.01 5.57h0V86.49h8.142V70.273c0-1.966-.19-3.75-.574-5.35s-1.038-2.985-1.967-4.15-2.168-2.066-3.716-2.703-3.488-.955-5.82-.955c-.8 0-1.63.082-2.486.246s-1.557.337-2.104.52h0V44.12l-8.142 1.3V86.49h8.142zm37.87.764a28.73 28.73 0 0 0 3.06-.164c1.02-.11 1.976-.246 2.87-.41s1.703-.355 2.432-.573 1.312-.437 1.75-.655h0l-1.093-6.606c-.91.4-2.086.737-3.525 1a23.55 23.55 0 0 1-4.399.409c-2.332 0-4.2-.49-5.574-1.474s-2.168-2.31-2.35-3.986h18.47l.11-1.5c.036-.564.055-1.083.055-1.556 0-4.84-1.184-8.508-3.552-11s-5.592-3.74-9.672-3.74c-1.75 0-3.452.328-5.11.983s-3.124 1.62-4.4 2.894-2.304 2.866-3.087 4.777-1.175 4.14-1.175 6.688c0 2.11.3 4.077.902 5.897s1.53 3.394 2.787 4.723 2.842 2.375 4.754 3.14 4.162 1.147 6.75 1.147zm3.935-18.017h-10.765c.11-.692.282-1.374.52-2.047s.574-1.265 1.01-1.774.984-.92 1.64-1.228 1.44-.464 2.35-.464c.947 0 1.74.164 2.377.49s1.166.746 1.585 1.256.73 1.092.93 1.747a8.39 8.39 0 0 1 .355 2.02h0zM9.89 129.918v-15.615h14.973v-7.152H9.89v-7.917h16.83v-7.152H1.366v37.836H9.89zm33.498.655c2.404 0 4.7-.173 6.885-.52s3.97-.72 5.355-1.12h0V101.2h-8.142v22.166a30.3 30.3 0 0 1-1.749.191c-.656.055-1.275.082-1.858.082-1.894 0-3.188-.582-3.88-1.747s-1.038-3.057-1.038-5.678h0V101.2H30.82v15.997c0 1.966.2 3.767.6 5.405s1.075 3.048 2.022 4.23 2.23 2.102 3.853 2.757 3.652.983 6.093.983zm30.984 0c1.75 0 3.224-.146 4.426-.437s2.295-.637 3.28-1.037h0l-1.148-6.333c-.765.29-1.612.52-2.54.682a15.57 15.57 0 0 1-2.705.246c-1.822 0-3.033-.5-3.634-1.53s-.902-2.384-.902-4.095h0v-10.1h9.782v-6.77H71.15v-8.463l-8.142 1.3v24.132c0 1.856.173 3.55.52 5.078s.956 2.83 1.83 3.904 2.04 1.91 3.497 2.51 3.297.9 5.52.9zm25.465 0c2.404 0 4.7-.173 6.885-.52s3.97-.72 5.355-1.12h0V101.2h-8.142v22.166a30.3 30.3 0 0 1-1.749.191c-.656.055-1.275.082-1.858.082-1.894 0-3.188-.582-3.88-1.747s-1.038-3.057-1.038-5.678h0V101.2H87.27v15.997c0 1.966.2 3.767.6 5.405s1.075 3.048 2.022 4.23 2.23 2.102 3.853 2.757 3.652.983 6.093.983zm28.033-.655V107.97c.364-.11.902-.21 1.612-.3s1.32-.136 1.83-.136c1.13 0 2.186.1 3.17.3a60.77 60.77 0 0 1 2.568.573h0l1.366-6.715c-.437-.182-.965-.337-1.585-.464s-1.24-.237-1.858-.328a32.28 32.28 0 0 0-1.858-.218c-.62-.055-1.148-.082-1.585-.082-2.44 0-4.654.227-6.64.682s-3.707.937-5.164 1.447h0v27.19h8.142zm28.197.764a28.73 28.73 0 0 0 3.06-.164c1.02-.11 1.976-.246 2.87-.41s1.703-.355 2.432-.573 1.312-.437 1.75-.655h0l-1.093-6.606c-.91.4-2.086.737-3.525 1a23.55 23.55 0 0 1-4.399.409c-2.332 0-4.2-.49-5.574-1.474s-2.168-2.31-2.35-3.986h18.47l.11-1.5c.036-.564.055-1.083.055-1.556 0-4.84-1.184-8.508-3.552-11s-5.592-3.74-9.672-3.74c-1.75 0-3.452.328-5.11.983s-3.124 1.62-4.4 2.894-2.304 2.866-3.087 4.777-1.175 4.14-1.175 6.688c0 2.11.3 4.077.902 5.897s1.53 3.394 2.787 4.723 2.842 2.375 4.754 3.14 4.162 1.147 6.75 1.147zm3.935-18.017h-10.765c.11-.692.282-1.374.52-2.047s.574-1.265 1.01-1.774.984-.92 1.64-1.228 1.44-.464 2.35-.464c.947 0 1.74.164 2.377.49s1.166.746 1.585 1.256.73 1.092.93 1.747a8.39 8.39 0 0 1 .355 2.02h0z"/></g><g transform="translate(391 57)"><g transform="translate(0 30)"><g fill="#001c6c" class="F"><path d="M54.974 29.766c5.303-.025 9.238-1.32 11.803-3.885s3.848-6.34 3.848-11.322c0-3.527-.77-6.26-2.312-8.196S64.495 3.46 61.486 3.46c-1.455 0-2.713.265-3.774.795s-1.936 1.215-2.627 2.054-1.196 1.757-1.517 2.757-.48 1.98-.48 2.942c0 1.1.16 2.146.48 3.108s.82 1.807 1.5 2.534 1.554 1.295 2.627 1.702 2.374.6 3.904.6c.666 0 1.357-.074 2.072-.222s1.37-.358 1.96-.63c-.32 1.283-.79 2.362-1.406 3.238s-1.375 1.585-2.276 2.127-1.95.937-3.145 1.184-2.535.37-4.014.37h0l.185 3.737zm7.14-13.357c-1.554 0-2.695-.382-3.422-1.147s-1.092-1.9-1.092-3.404c0-.518.074-1.048.222-1.59s.382-1.048.703-1.517.734-.85 1.24-1.147 1.116-.444 1.83-.444c.863 0 1.585.19 2.164.573a3.99 3.99 0 0 1 1.369 1.554c.333.654.567 1.418.703 2.294s.204 1.807.204 2.794h0v.518c0 .197-.012.432-.037.703-.493.27-1.085.475-1.776.6s-1.394.204-2.11.204zm21.35 13.838c1.455 0 2.713-.265 3.774-.796s1.942-1.21 2.645-2.035 1.22-1.745 1.554-2.756.5-1.998.5-2.96c0-1.06-.154-2.078-.462-3.053s-.796-1.83-1.462-2.572-1.535-1.326-2.61-1.757-2.374-.647-3.903-.647c-1.43 0-2.75.284-3.96.85.345-1.258.845-2.32 1.498-3.182a8.15 8.15 0 0 1 2.35-2.109c.913-.543 1.95-.944 3.108-1.202s2.405-.4 3.737-.426h0l-.26-3.7c-2.393.025-4.545.376-6.457 1.055s-3.54 1.67-4.884 2.978-2.38 2.917-3.108 4.83-1.09 4.1-1.09 6.567c0 3.404.77 6.074 2.313 8.01s3.78 2.905 6.715 2.905zm-.037-3.737c-.863 0-1.585-.19-2.165-.573a3.99 3.99 0 0 1-1.369-1.554c-.333-.654-.567-1.418-.703-2.294s-.204-1.807-.204-2.794a13.03 13.03 0 0 1 .019-.684 9.1 9.1 0 0 1 .056-.648 7.8 7.8 0 0 1 1.813-.555 11.36 11.36 0 0 1 2.072-.185c1.554 0 2.69.39 3.404 1.165s1.073 1.906 1.073 3.386c0 .518-.074 1.055-.222 1.6s-.382 1.067-.703 1.535-.734.85-1.24 1.147-1.116.444-1.83.444zm20.61 3.737c2.787 0 4.97-1.153 6.55-3.46s2.368-5.618 2.368-9.934-.79-7.628-2.368-9.935-3.762-3.46-6.55-3.46c-1.38 0-2.62.296-3.72.888s-2.035 1.455-2.812 2.6-1.37 2.535-1.776 4.2-.61 3.57-.61 5.717c0 4.317.79 7.628 2.368 9.935s3.762 3.46 6.55 3.46zm0-3.885c-.814 0-1.5-.247-2.053-.74s-1-1.166-1.332-2.017-.567-1.856-.703-3.015-.204-2.405-.204-3.737.068-2.578.204-3.737.37-2.164.703-3.015.777-1.523 1.332-2.017 1.24-.74 2.053-.74 1.492.247 2.035.74.98 1.166 1.314 2.017.573 1.856.72 3.015.222 2.405.222 3.737-.074 2.578-.222 3.737-.388 2.165-.72 3.015-.77 1.523-1.314 2.017-1.22.74-2.035.74zm14.097 10.175L130.565.72h-4.514l-12.506 35.816h4.588zm26.418-6.845V4.05h-3.145c-1.1 1.21-2.387 2.257-3.83 3.145a27.78 27.78 0 0 1-4.311 2.183h0l1.37 3.404a25.57 25.57 0 0 0 2.923-1.221c1.01-.493 1.85-1 2.516-1.517h0v19.647h4.477zm25.012 0v-3.774h-11.396c.025-.32.197-.72.518-1.203a15.72 15.72 0 0 1 1.147-1.498 40.02 40.02 0 0 1 1.406-1.554 33.75 33.75 0 0 1 1.332-1.332l2.22-2.2c.74-.752 1.4-1.53 1.98-2.33a13.24 13.24 0 0 0 1.424-2.479c.37-.85.555-1.72.555-2.608 0-2.245-.648-4.015-1.942-5.3s-3.31-1.942-6.05-1.942c-1.603 0-3.102.302-4.495.906s-2.61 1.4-3.645 2.387h0l2.22 3.145c.173-.173.432-.4.777-.684a9.72 9.72 0 0 1 1.202-.832c.456-.27.98-.506 1.573-.703s1.233-.296 1.924-.296c1.06 0 1.96.27 2.7.814s1.1 1.455 1.1 2.738c0 .592-.123 1.165-.37 1.72s-.573 1.098-.98 1.628-.882 1.067-1.425 1.61l-1.702 1.665-2.294 2.257c-.765.765-1.455 1.58-2.072 2.442a12.43 12.43 0 0 0-1.499 2.793c-.382 1-.573 2.09-.573 3.275h0v.647c0 .284.012.524.037.722h16.317zm12.913.555c2.787 0 4.97-1.153 6.55-3.46s2.368-5.618 2.368-9.934-.79-7.628-2.368-9.935-3.762-3.46-6.55-3.46c-1.38 0-2.62.296-3.72.888s-2.035 1.455-2.812 2.6-1.37 2.535-1.776 4.2-.61 3.57-.61 5.717c0 4.317.79 7.628 2.368 9.935s3.762 3.46 6.55 3.46zm0-3.885c-.814 0-1.5-.247-2.053-.74s-1-1.166-1.332-2.017-.567-1.856-.703-3.015-.203-2.405-.203-3.737.068-2.578.203-3.737.37-2.164.703-3.015.777-1.523 1.332-2.017 1.24-.74 2.053-.74 1.492.247 2.035.74.98 1.166 1.314 2.017.573 1.856.72 3.015.222 2.405.222 3.737-.074 2.578-.222 3.737-.388 2.165-.72 3.015-.77 1.523-1.314 2.017-1.22.74-2.035.74zm25.123 3.33V4.05h-3.145c-1.1 1.21-2.387 2.257-3.83 3.145a27.78 27.78 0 0 1-4.311 2.183h0l1.37 3.404a25.57 25.57 0 0 0 2.923-1.221c1.01-.493 1.85-1 2.516-1.517h0v19.647h4.477z"/><path d="M162.46 82.247c1.307 0 2.436-.247 3.386-.74s1.74-1.13 2.368-1.906a7.71 7.71 0 0 0 1.387-2.608c.296-.962.444-1.924.444-2.886 0-1.036-.136-2.023-.407-2.96s-.703-1.764-1.295-2.48-1.37-1.29-2.33-1.72-2.134-.647-3.515-.647c-1.06 0-2.06.13-2.997.388s-1.74.56-2.405.906c.247-1.727.703-3.182 1.37-4.366s1.492-2.152 2.48-2.904 2.115-1.307 3.385-1.665 2.658-.586 4.163-.684h0l-.148-2.035c-4.588.197-8.085 1.59-10.5 4.18s-3.607 6.39-3.607 11.396c0 3.38.697 6.012 2.1 7.9s3.435 2.83 6.124 2.83zm-.037-2.11c-1.1 0-2.023-.228-2.738-.684s-1.29-1.08-1.72-1.868-.728-1.702-.888-2.738-.24-2.134-.24-3.293h0v-.87c0-.234.025-.56.074-.98a18.1 18.1 0 0 1 2.387-.907c.85-.26 1.844-.388 2.978-.388 1.702 0 2.99.47 3.867 1.406s1.314 2.393 1.314 4.366a8.98 8.98 0 0 1-.278 2.257c-.185.715-.475 1.344-.87 1.887a4.38 4.38 0 0 1-1.554 1.314c-.64.333-1.418.5-2.33.5zm18.463 2.11c1.554 0 2.91-.19 4.07-.573s2.115-.913 2.867-1.59a6.63 6.63 0 0 0 1.702-2.386c.382-.913.574-1.912.574-2.997 0-1.06-.16-1.986-.48-2.775s-.74-1.462-1.258-2.017-1.104-1.01-1.758-1.37a8.47 8.47 0 0 0-2.016-.795c1.258-.42 2.288-1.104 3.09-2.053s1.203-2.177 1.203-3.682c0-.937-.148-1.807-.444-2.608s-.752-1.492-1.37-2.072-1.387-1.03-2.312-1.35-2.03-.48-3.31-.48a9.74 9.74 0 0 0-2.053.204c-.63.136-1.203.302-1.72.5s-.968.407-1.35.63-.697.42-.943.592h0l1.036 1.887c.47-.32 1.073-.666 1.813-1.036s1.776-.555 3.108-.555a7.4 7.4 0 0 1 1.905.24 4.53 4.53 0 0 1 1.591.758c.456.345.82.808 1.09 1.388s.407 1.276.407 2.1c0 .962-.19 1.75-.574 2.368a4.6 4.6 0 0 1-1.443 1.48c-.58.37-1.22.623-1.924.758s-1.387.203-2.053.203h0-.85V69h.37a14.98 14.98 0 0 1 2.942.278c.925.185 1.74.493 2.442.925s1.258 1.005 1.665 1.72.61 1.616.61 2.7c0 1.653-.506 2.966-1.517 3.94s-2.69 1.462-5.032 1.462c-.715 0-1.375-.05-1.98-.148a14.84 14.84 0 0 1-1.628-.352c-.48-.136-.894-.278-1.24-.425s-.592-.27-.74-.37h0l-.63 2.146c.173.1.438.222.796.37s.796.296 1.314.444 1.116.278 1.794.388 1.424.166 2.238.166zm20.868 0c1.554 0 2.91-.19 4.07-.573s2.115-.913 2.867-1.59a6.63 6.63 0 0 0 1.702-2.386c.382-.913.573-1.912.573-2.997 0-1.06-.16-1.986-.48-2.775s-.74-1.462-1.258-2.017-1.104-1.01-1.757-1.37a8.47 8.47 0 0 0-2.017-.795c1.258-.42 2.288-1.104 3.09-2.053s1.203-2.177 1.203-3.682c0-.937-.148-1.807-.444-2.608s-.752-1.492-1.37-2.072-1.387-1.03-2.312-1.35-2.03-.48-3.31-.48a9.74 9.74 0 0 0-2.053.204c-.63.136-1.203.302-1.72.5s-.968.407-1.35.63-.697.42-.944.592h0l1.036 1.887c.47-.32 1.073-.666 1.813-1.036s1.776-.555 3.108-.555a7.4 7.4 0 0 1 1.905.24 4.53 4.53 0 0 1 1.591.758c.456.345.82.808 1.09 1.388s.407 1.276.407 2.1c0 .962-.19 1.75-.573 2.368a4.6 4.6 0 0 1-1.443 1.48c-.58.37-1.22.623-1.924.758s-1.387.203-2.053.203h0-.85V69h.37a14.98 14.98 0 0 1 2.941.278c.925.185 1.74.493 2.442.925s1.258 1.005 1.665 1.72.61 1.616.61 2.7c0 1.653-.506 2.966-1.517 3.94s-2.69 1.462-5.032 1.462c-.715 0-1.375-.05-1.98-.148a14.84 14.84 0 0 1-1.628-.352c-.48-.136-.894-.278-1.24-.425s-.592-.27-.74-.37h0l-.63 2.146c.173.1.438.222.796.37s.796.296 1.314.444 1.116.278 1.794.388 1.424.166 2.238.166z"/><path d="M160.017 134.247c1.554 0 2.91-.19 4.07-.573s2.115-.913 2.868-1.59a6.63 6.63 0 0 0 1.702-2.386c.382-.913.573-1.912.573-2.997 0-1.06-.16-1.986-.48-2.775s-.74-1.462-1.258-2.017-1.104-1.01-1.758-1.37a8.47 8.47 0 0 0-2.016-.796c1.258-.42 2.288-1.104 3.09-2.053s1.202-2.177 1.202-3.68c0-.937-.148-1.807-.444-2.608s-.752-1.492-1.37-2.072-1.387-1.03-2.312-1.35-2.03-.48-3.31-.48a9.74 9.74 0 0 0-2.054.204c-.63.136-1.202.302-1.72.5s-.968.407-1.35.63l-.944.592 1.036 1.887c.47-.32 1.073-.666 1.813-1.036s1.776-.555 3.108-.555a7.4 7.4 0 0 1 1.905.24 4.53 4.53 0 0 1 1.591.758c.456.345.82.808 1.09 1.388s.407 1.276.407 2.1c0 .962-.19 1.75-.573 2.368a4.6 4.6 0 0 1-1.443 1.48c-.58.37-1.22.623-1.924.758s-1.388.204-2.054.204h0-.85V121h.37a14.98 14.98 0 0 1 2.942.278c.925.185 1.74.493 2.442.925s1.258 1.005 1.665 1.72.6 1.616.6 2.7c0 1.653-.506 2.966-1.517 3.94s-2.69 1.462-5.032 1.462c-.715 0-1.375-.05-1.98-.148a14.84 14.84 0 0 1-1.628-.352c-.48-.136-.894-.277-1.24-.425s-.592-.27-.74-.37h0l-.63 2.146c.173.1.438.222.796.37s.796.296 1.314.444 1.116.278 1.794.39 1.424.166 2.238.166zm30.007-.555v-2.11h-12.1v-.074c0-.592.142-1.2.425-1.794s.666-1.22 1.147-1.85 1.024-1.258 1.628-1.887l1.87-1.87 2.257-2.22c.74-.74 1.4-1.505 1.98-2.294s1.042-1.61 1.387-2.46.518-1.758.518-2.72c0-2.17-.63-3.867-1.887-5.088s-3.133-1.832-5.624-1.832c-.937 0-1.788.117-2.553.352s-1.437.512-2.017.833-1.06.647-1.443.98l-.796.758 1.258 1.665a12.42 12.42 0 0 1 .703-.629 7.65 7.65 0 0 1 1.166-.796c.456-.26.993-.487 1.61-.684s1.32-.296 2.11-.296c1.406 0 2.57.376 3.496 1.13s1.387 1.992 1.387 3.718c0 .79-.123 1.517-.37 2.183a8.15 8.15 0 0 1-.999 1.887c-.42.592-.906 1.165-1.462 1.72l-1.757 1.72-2.312 2.22a18.92 18.92 0 0 0-2.183 2.479c-.654.888-1.2 1.832-1.61 2.83s-.63 2.078-.63 3.237l.02.61.018.278h14.763zm12.136 0a34.68 34.68 0 0 1 1.203-7.03 55.01 55.01 0 0 1 2.313-6.716c.888-2.11 1.83-4.008 2.83-5.698s1.918-3.04 2.756-4.052h0v-2.146h-15.577v2.22h13.098c-.962 1.085-1.955 2.528-2.978 4.33s-1.973 3.774-2.85 5.92-1.616 4.366-2.22 6.66-.98 4.465-1.13 6.512h2.553z"/></g><path d="M6.25 64.442a2.5 2.5 0 1 1 0-5 2.5 2.5 0 0 1 2.5 2.5c0 1.38-1.12 2.5-2.5 2.5m18.384 5.366l-13.75-13.75a1.25 1.25 0 0 0-.884-.366H1.25A1.25 1.25 0 0 0 0 56.942v8.75a1.25 1.25 0 0 0 .366.884l13.75 13.75c.244.244.564.366.884.366s.64-.123.884-.366l8.75-8.75a1.25 1.25 0 0 0 0-1.767" fill="#ff8100"/><g class="I"><path d="M6.25 117.442a2.5 2.5 0 1 1 0-5 2.5 2.5 0 0 1 2.5 2.5c0 1.38-1.12 2.5-2.5 2.5m18.384 5.366l-13.75-13.75a1.25 1.25 0 0 0-.884-.366H1.25a1.25 1.25 0 0 0-1.25 1.25v8.75a1.25 1.25 0 0 0 .366.884l13.75 13.75c.244.244.564.366.884.366s.64-.123.884-.366l8.75-8.75a1.25 1.25 0 0 0 0-1.767"/><g transform="translate(0 3)"><use xlink:href="#O"/><path d="M12.8 15.092c-7.536 0-12.8 3.947-12.8 9.6v1.6h25.6v-1.6c0-5.653-5.264-9.6-12.8-9.6"/></g></g></g><g transform="translate(311)"><mask id="g" class="E"><use xlink:href="#B"/></mask><use xlink:href="#B" class="F R"/><g mask="url(#g)"><g transform="translate(-105.632 -16.97)"><path d="M197.074 11.97v96.62h-96.61c0-53.088 42.167-95.764 95.465-96.612l1.144-.01z" class="J"/><path d="M197.036 109.45v.652l36.738 87.947c-11.645 5.16-24.5 8.023-38.01 8.023-52.13 0-94.486-42.604-95.328-95.486l-.01-1.136h96.61z" class="N"/><path d="M197.076 8.287l-.002 96.55L.632 233.364c132.933-34.074 291.425-28.547 325-63 38.625-39.635 11.54-124.754-36-159-29.935-21.564-77.987-2.852-91.415-3.068l-1.142-.01z" class="P"/></g></g></g></g><path d="M757.5 169.442c1.933 0 3.642-.25 5.125-.75s2.725-1.2 3.725-2.1 1.75-1.967 2.25-3.2.75-2.567.75-4c0-1.9-.475-3.55-1.425-4.95s-2.408-2.633-4.375-3.7c1.3-.833 2.45-1.958 3.45-3.375s1.5-3.042 1.5-4.875c0-1.033-.2-2.1-.6-3.2s-1.042-2.1-1.925-3-2.017-1.633-3.4-2.2-3.058-.85-5.025-.85c-1.667 0-3.183.267-4.55.8s-2.533 1.25-3.5 2.15a9.34 9.34 0 0 0-2.225 3.125 9.21 9.21 0 0 0-.775 3.725c0 1.8.375 3.325 1.125 4.575s1.892 2.408 3.425 3.475c-.7.467-1.367 1-2 1.6a12.81 12.81 0 0 0-1.7 1.975c-.5.717-.892 1.5-1.175 2.35s-.425 1.775-.425 2.775.192 2.058.575 3.175 1.025 2.158 1.925 3.125 2.1 1.767 3.6 2.4 3.383.95 5.65.95zm1.15-20.45c-2.233-.667-3.825-1.567-4.775-2.7s-1.425-2.333-1.425-3.6c0-.5.1-1.008.3-1.525a4.77 4.77 0 0 1 .9-1.45c.4-.45.925-.817 1.575-1.1s1.425-.425 2.325-.425 1.667.15 2.3.45 1.158.667 1.575 1.1a3.96 3.96 0 0 1 .9 1.425c.183.517.275.992.275 1.425 0 1.533-.35 2.792-1.05 3.775s-1.667 1.858-2.9 2.625zm-1.1 15.5c-1.1 0-2.017-.158-2.75-.475s-1.333-.708-1.8-1.175-.8-.983-1-1.55-.3-1.1-.3-1.6c0-1.5.367-2.792 1.1-3.875s1.7-2.008 2.9-2.775c1.133.3 2.167.642 3.1 1.025s1.742.833 2.425 1.35 1.208 1.125 1.575 1.825.55 1.517.55 2.45c0 .6-.117 1.192-.35 1.775a4.41 4.41 0 0 1-1.05 1.55c-.467.45-1.067.808-1.8 1.075s-1.6.4-2.6.4zm26.4 4.95c3.767 0 6.717-1.558 8.85-4.675s3.2-7.592 3.2-13.425-1.067-10.308-3.2-13.425-5.083-4.675-8.85-4.675c-1.867 0-3.542.4-5.025 1.2s-2.75 1.967-3.8 3.5-1.85 3.425-2.4 5.675-.825 4.825-.825 7.725c0 5.833 1.067 10.308 3.2 13.425s5.083 4.675 8.85 4.675zm0-5.25c-1.1 0-2.025-.333-2.775-1s-1.35-1.575-1.8-2.725-.767-2.508-.95-4.075-.275-3.25-.275-5.05.092-3.483.275-5.05.5-2.925.95-4.075 1.05-2.058 1.8-2.725 1.675-1 2.775-1 2.017.333 2.75 1 1.325 1.575 1.775 2.725.775 2.508.975 4.075.3 3.25.3 5.05-.1 3.483-.3 5.05-.525 2.925-.975 4.075-1.042 2.058-1.775 2.725-1.65 1-2.75 1zm22.95-12c2.5 0 4.525-.817 6.075-2.45s2.325-3.967 2.325-7c0-3.067-.775-5.408-2.325-7.025s-3.575-2.425-6.075-2.425-4.525.808-6.075 2.425-2.325 3.958-2.325 7.025c0 1.5.208 2.842.625 4.025s.992 2.175 1.725 2.975 1.617 1.408 2.65 1.825 2.167.625 3.4.625zm4.75 16.5l19.55-34.65h-5.75l-19.55 34.65h5.75zm-4.75-20.65c-1.133 0-2.017-.442-2.65-1.325s-.95-2.208-.95-3.975.317-3.092.95-3.975 1.517-1.325 2.65-1.325 2.025.442 2.675 1.325.975 2.208.975 3.975-.325 3.092-.975 3.975-1.542 1.325-2.675 1.325zm23.35 21.45c2.5 0 4.525-.817 6.075-2.45s2.325-3.967 2.325-7c0-3.067-.775-5.408-2.325-7.025s-3.575-2.425-6.075-2.425-4.525.808-6.075 2.425-2.325 3.958-2.325 7.025c0 1.5.208 2.842.625 4.025s.992 2.175 1.725 2.975 1.617 1.408 2.65 1.825 2.167.625 3.4.625zm0-4.15c-1.133 0-2.017-.442-2.65-1.325s-.95-2.208-.95-3.975.317-3.092.95-3.975 1.517-1.325 2.65-1.325 2.025.442 2.675 1.325.975 2.208.975 3.975-.325 3.092-.975 3.975-1.542 1.325-2.675 1.325z" fill="#001c6c" class="F"/><rect x="391" y="241.692" width="192.415" height="20.074" rx="6.95" class="G"/></g><g transform="translate(0 450)"><g filter="url(#C)"><g transform="translate(0 441.6)"><use xlink:href="#P" class="E"/><g transform="translate(24 16.8)"><use xlink:href="#Q" fill="#06f" class="F"/><g transform="translate(6.609 14.953)"><g transform="translate(0 .006)"><use xlink:href="#R" class="J"/><g transform="translate(19.276 1.927)" class="S"><use xlink:href="#S"/><use xlink:href="#T"/></g><use xlink:href="#U" class="F T"/><g class="B C D K"><use xlink:href="#V"/><use xlink:href="#W"/></g><g class="L B C D"><use xlink:href="#X"/><use xlink:href="#Y"/><use xlink:href="#Z"/><path d="M28.742 14.336l-.843 5.178"/><use xlink:href="#a"/><use xlink:href="#b"/><use xlink:href="#c"/></g><path d="M21.635 9.592c-.135.362-.403.72-.85.74" class="B C D K"/></g></g></g></g><use xlink:href="#P" class="E"/><g transform="translate(25.2 16.8)"><path d="M24 0C10.745 0 0 10.745 0 24s10.745 24 24 24 24-10.745 24-24S37.255 0 24 0z" fill="#cce4ff" class="F"/><g transform="translate(11.403 6.95)"><g transform="translate(7.276 .434)" fill="#ff5fa7"><path d="M16.072 2.79c-.57 12.67-14.364 17.37-5.546 25.626 2.107 1.973-11.554 2-10.382 0C6.402 17.74-.14 15.462.002 3.93.02 2.57.21 1.294.553.123 7.42-.07 12.45.107 15.646.656c.254.044.396.756.427 2.136z"/></g><g stroke="#ffc200" class="B C D"><path d="M25.195 1.738C24.44 5.02 23 8.386 22.723 11.758c-.2 2.444-.1 4.904-.135 7.356"/><path d="M24.326 1.63c-1.695 4.264-2.352 8.1-2.512 12.708-.126 3.62-.488 2.736.234 4.233"/><path d="M22.045 4.235c-1.59 6.567-1.664 8.69-.55 15.42"/><path d="M21.394 20.416C17.447 16.872 19.1 10.682 20.158 6.3"/></g><path d="M13.742 3.15c.24 1.185.175 1.98-.196 2.384-1.97 2.145-2.736 2.97-4.95 6.024-.03.042-.02.15.03.152.246.002.52-.006.722-.144 1.42-.972 2.518-2.45 4.09-3.15 2.117-.944-2.903 2.317-1.688 2.953.497.26 9.176-.934 6.37-.374s-6.973 1.336-6.623 1.793c1.46 1.905 1.827 2.776 1.46 4.482" class="B C D K"/><g stroke="#ffc200" class="B C D"><path d="M8.47 5.43c-1.274 3.388-2.98 11.64-8 12.596-.064.012-.097-.086-.145-.13"/><path d="M7.7 3.15C6.556 8.87 4.85 13.925.11 17.267"/><path d="M7.06.977C5.585 6.304 4.84 12.097.326 15.747"/><path d="M5.538 1.195C4.177 6.907 4.027 10.667 0 14.66"/></g><path d="M6.93.047c-.615 0 .37 3.797.757 4.674.327.742 1.227 1.12 2.7 1.133 1.63.05 2.764-.322 3.4-1.116l.097-.125c.757 1.52 2.28 1.95 4.13 1.95 4.275 0 5.982-2.59 5.297-6.516H6.93zm7.547 1.45l7.27-.102v.026c.097 1.25-.12 2.182-.61 2.8l-.05.062c-.584.687-1.674 1.045-3.32 1.045-1.128 0-2.444-.44-3.012-1.85l-.133-.398c-.064-.24-.06-.62-.094-1.072l-.053-.51zM8.08 1.62h5.275l-.008.776c-.043 1.746-.414 2.525-3.506 2.59L9.265 5a.27.27 0 0 1-.183-.06c-.148-.102-.3-.304-.46-.613-.243-.504-.412-1.2-.5-2.113L8.08 1.62z" fill="#00ffce" class="F"/><g class="S"><use xlink:href="#d" transform="matrix(-1 0 0 1 24.651582 0)"/><use xlink:href="#d" x="3.15" transform="matrix(-1 0 0 1 30.950224 0)"/></g><g class="T"><path d="M2.702 31.13c.697 1.02 3.622.756 2.055-1.313s-2.752.292-2.055 1.313z" transform="matrix(-1 0 0 1 7.710406 0)"/><path d="M6.45 32.88c.717.985 3.334.358 1.722-1.64s-2.44.654-1.722 1.64z" transform="matrix(-1 0 0 1 14.877828 0)"/><path d="M11.455 33.468c.725 1.023 3.332.56 1.702-1.513s-2.427.5-1.702 1.513z" transform="matrix(-1 0 0 1 24.868776 0)"/><path d="M16.35 32.833c.737 1.007 3.246.483 2.174-1.294s-2.912.288-2.174 1.294z" transform="matrix(-1 0 0 1 34.968324 0)"/><path d="M20.24 31.634c.7.996 2.868.518 2.065-1.28s-2.765.284-2.065 1.28z" transform="matrix(-1 0 0 1 42.570134 0)"/></g></g></g><g transform="translate(0 175.2)" class="E"><use xlink:href="#P"/></g><g transform="translate(0 87.6)"><use xlink:href="#P" class="E"/><g transform="translate(0 174.4)"><use xlink:href="#P" class="E"/><g filter="url(#D)" transform="translate(24 16)"><g transform="translate(0 .8)"><use xlink:href="#Q" fill="#06f" class="F"/><g transform="translate(6.609 14.953)"><g transform="translate(0 .006)"><use xlink:href="#R" class="J"/><g transform="translate(19.276 1.927)" class="S"><use xlink:href="#S"/><use xlink:href="#T"/></g><use xlink:href="#U" class="F T"/><g class="B C D K"><use xlink:href="#V"/><use xlink:href="#W"/></g><g class="L B C D"><use xlink:href="#X"/><use xlink:href="#Y"/><use xlink:href="#Z"/><path d="M28.742 14.336l-.843 5.178"/><use xlink:href="#a"/><use xlink:href="#b"/><use xlink:href="#c"/></g><path d="M21.635 9.592c-.135.362-.403.72-.85.74" class="B C D K"/></g></g></g></g></g></g><g transform="translate(0 350.4)" class="E"><use xlink:href="#P"/></g><g transform="translate(25.2 192)"><use xlink:href="#Q" fill="#06f" class="F"/><g transform="translate(1.517 5.093)"><path d="M2.694 27.04c.027-11.838 15.7-22.327 24.7-22.32 13.682.01 10.284 22.85 9.656 22.894-3.874.266-15.33.074-34.366-.574z" transform="matrix(.956305 -.292372 .292372 .956305 -3.856656 6.641522)" class="U"/><g transform="translate(13.327 6.718)" fill="#f1f4f6"><path d="M20.552 6.06c.59 4.712-4.023 16.605-8.896 15.95-4.093-.55-6.477-4.025-7.74-7.745-.213-.63-3.375 1.012-3.808-1.914s3.016-1.088 2.926-1.625C2.73 8.93 2.754 7.408 2.8 6.19 2.807 6 3.84 5.405 6.05 5.054c.988-.157 2.212-.265 3.684-.267 2.1-.003 4.447.204 6.416.454.566.072.048-5.207.537-5.132.498.076 2.002 5.507 2.39 5.578.91.168 1.468.3 1.476.374z"/></g><g transform="translate(20.695 13.111)"><g transform="translate(5.959 .975)" class="B C D K"><path d="M.542 0C.81 2.568 2.71 1.723 2.71.01"/><path d="M.65 1.41L0 2.275"/><path d="M1.625 1.734l-.433 1.41"/><path d="M2.167 1.517l.325 1.192"/></g><path d="M4.876 0l3.2 4.692c.163.2.478.44.383.687-.087.227-2.156.398-2.338.03-.094-.2-.12-.85-.115-.635.04 1.326.155 2.162.35 2.508" fill="#f3fff6" class="B C D L"/><g transform="translate(.325 .867)" class="B C D K"><path d="M.48.183C.075 1.884 2.476 2.1 2.926 0"/><path d="M.758 1.41L0 1.95"/><path d="M1.566 1.517l-.074.975"/><path d="M2.275 1.41l.325.758"/></g><path d="M4.51 7.645c.696-.132.78.874 1.268.587.246-.145.38-.507.663-.54.432-.05 1.1.14 2.037.573L6.803 9.762c-1.047.967-5.446.014-6.556-.506l3.38.045c5.007-.78 3.88-.794-3.38-.045.987-1.02 3.568-1.48 4.264-1.612z" fill="#ff243a" transform="matrix(.956305 .292372 -.292372 .956305 2.79441 -.886386)"/></g></g></g><g transform="translate(25.2 106.8)"><use xlink:href="#Q" fill="#06f" class="F"/><path d="M30.76 17.807c5.512 3.44 9.384 10.573 11.616 21.402C37.985 44.576 31.31 48 23.837 48c-7.6 0-14.37-3.54-18.758-9.06.403-2.725.95-5.13 1.638-7.216.744-2.254 3.103-6.12 7.077-11.6l1.214-1.655c5.66.303 10.608.1 14.783-.512l.97-.15z" class="J"/><g class="B C D L"><path d="M12.545 36.25c3.267 1.68 5.37-.47 7.573-2.807"/><path d="M23.793 33.822c.45 1.94.73 3.157 1.842 4.723.027.038-.09.022-.134.034"/><path d="M27.696 37.943c-2.226-1.323-.89-.327-3.384-3.685"/><path d="M32.286 36.988c-3.025-.206-6.14-1.303-8.442-3.317"/><path d="M32.554 35.095c-1.594.227-4.845 1.853-8.643-1.642"/><path d="M32.436 32.8c-4.164.84-1.592.506-7.772.352"/><path d="M15.684 38.87c1.857-1.478 4.597-3.116 5.082-5.7"/><path d="M18.347 38.84c2.21-1.46.654-.248 3.18-4.98"/><path d="M20.794 38.97c1.674-3.258 1.12-1.654 1.828-4.75"/><path d="M23.443 38.597c-1.25-2.545-.792-1.088-1.094-4.448"/><path d="M25.948 38.474c-1.924-2.602-.99-1.06-2.562-4.765"/><path d="M14.532 31.384c1.687.996 4.02 2.837 5.86 1.18"/><path d="M13.553 33.63c1.073.287 6.493 1.89 6.392-.85"/><path d="M17.53 19.178c-.127 1.155-.127 1.877 0 2.167.8 1.842 2.075 1.228 2.6-.758"/><path d="M20.997 17.878c-2.456 10.62-2.275 15.928.542 15.928s3.792-1.878 2.926-5.634l-.433-9.643c1.3 4.55 2.528 4.767 3.684.65" class="J"/></g><g stroke="#ff5fa7" fill="#ff5fa7" class="B C"><path d="M12.328 28.028c-.626-.322-.987-.61-1.084-.867-.514-1.36.524-2.098 2.384-1.084.072-1.59.686-2.564 1.842-2.926s1.372.614.65 2.926c1.15-.17 1.872-.17 2.167 0 .987.572.528 1.97-1.517 2.817 1.01.867 1.156 1.77.433 2.71s-1.59.506-2.6-1.3c-1.445 1.734-2.564 2.167-3.36 1.3s-.433-2.06 1.084-3.576z"/><path d="M28.365 26.47c-.656-.337-1.035-.64-1.137-.907-.54-1.423.55-2.196 2.5-1.134.076-1.663.72-2.684 1.933-3.062s1.44.643.682 3.062c1.207-.18 1.964-.18 2.274 0 1.035.6.554 2.06-1.59 2.95 1.06.907 1.213 1.852.455 2.835s-1.667.53-2.728-1.36c-1.516 1.814-2.7 2.268-3.524 1.36s-.455-2.155 1.137-3.742z" transform="matrix(-.987688 .156434 .156434 .987688 57.491696 -4.524695)"/></g><g fill="#d41c61"><circle cx="14.766" cy="27.974" r="1.354"/><circle cx="30.97" cy="26.22" r="1.354"/></g><path d="M31.542 18.072c4.462-.8 6.954-1.377 7.476-1.734l-.975-2.71-8.126 1.625c-.506-7.874-1.914-11.8-4.226-11.8-.752 0-1.62 1.084-2.6 3.25-1.372-4.2-2.817-4.984-4.334-2.384s-2.312 6.537-2.384 11.8c-2.386-.077-4.156-.177-5.31-.302s-2.056-.313-2.71-.565v2.492c-.116.12.686.29 2.405.512a67.23 67.23 0 0 0 5.179.463c2.095.16 7.296-.057 15.603-.65z" class="U"/></g><g transform="translate(26.4 367.2)"><path d="M23.362 0C10.46 0 0 10.46 0 23.362s10.46 23.362 23.362 23.362 23.362-10.46 23.362-23.362S36.264 0 23.362 0z" fill="#06f" class="F"/><g transform="translate(2.431 10.36)"><path d="M17.515 3.312C12.212 3.312 7.47 4.716 3.93 6.95c-1.434.905-2.57 1.9-3.228 2.806-.395.546-.636 1.077-.665 1.634-.048.942.56 1.715 1.485 1.907l.08.016c.604.114 1.492.158 3.567.212l1.88.05c2.215.062 3.112.1 4.53.198l.287.02.25.018c2.143.16 3.938.398 5.364.73l.1.024v8.298c.192 1.953 2.296 2.93 6.313 2.93s8.588-1.132 13.714-3.397l-.712-6.152.05-.013c.732-.195 1.35-.47 1.86-.836a3.44 3.44 0 0 0 1.485-2.878c0-1.36-.762-2.383-2.067-2.725l-.05-.013c-.56-.137-1.202-.152-1.945-.056l-.085.012-.132-1.145-.468-.37C31.4 4.926 25.372 3.312 17.515 3.312z" class="F J"/><g class="B C D L"><path d="M13.868 5.072c2.058.12 1.735.166 3.205-1.267"/><path d="M14.068 6.125c1.618-.115 1.788-.733 2.897-2.094"/><path d="M17.673 3.95c.407 1.04 1.105 1.113 2.2 1.027"/><path d="M17.673 3.965c.24 1.818-.184 1.057 1.39 2.214"/></g><g stroke="#fff" class="B C"><path d="M14.883.63c1.928-1.766 2.918.58 2.71 2.094-.25 1.827-1.738 3.24-3.138 4.24-.02.014-1.242.84-1.602.52-.865-.767-.522-2.49-.16-3.52s1.295-2.514 2.2-3.334z"/><g class="D"><path d="M17.433 4.458c.318-.977.53-2.21 1.402-2.907C20.707.055 22.515.55 22 3.125c-.282 1.41-1.456 3.074-2.483 4.054-1.334 1.273-2.496-.467-2.297-1.734.097-.615.33-1.2.494-1.8"/></g></g><g class="L B C D"><path d="M23.95 3.218c.44 2.572.684 4.54 2.403 6.574 2.52 2.98 8.117 1.73 10.454-.827"/><path d="M26.098 3.55c-.467 3.42-.184 7.285 4.14 7.868.3.04 2.293.148 3.03-.107 1.787-.617 1.86-.99 3.565-2.374"/><path d="M26.886 3.578c1.51 3.128 5.54 10.395 9.573 5.667"/><path d="M28.89 3.95c.354 1.922.533 3.866 1.816 5.44 1.7 2.085 5.166 1.658 6.61-.373"/><path d="M29.877 4.298c.97 2.447 2.802 6.552 6.128 5.187"/><path d="M31.065 4.55c.804 1.272 2.467 4.505 4.126 4.84.646.13 1.317-.018 1.976-.027"/><path d="M16.912 15.446c1.628-.572 2.94.607 4.606.307.806-.145 1.79-1.022 2.377-1.467"/></g></g><path d="M16.914 32.136l6.87 3.806 10.782-3.806-.634 8.034-10.148-3.066-8.668 3.066z" class="B C L U"/></g></g><g class="M"><rect x="381" y="469.2" width="218" height="24.4" rx="12.2"/><rect x="96" y="469.2" width="129" height="24.4" rx="12.2"/></g><rect x="673" y="469.2" width="156" height="24.4" rx="12.2" class="G"/><rect x="865" y="465.6" width="86" height="32.4" rx="12.2" class="I"/><rect x="381" y="27.6" width="256" height="24.4" rx="12.2" class="M"/><path d="M296.25 36.75a2.5 2.5 0 1 1 0-5 2.5 2.5 0 0 1 2.5 2.5c0 1.38-1.12 2.5-2.5 2.5m18.384 5.366l-13.75-13.75A1.25 1.25 0 0 0 300 28h-8.75a1.25 1.25 0 0 0-1.25 1.25V38a1.25 1.25 0 0 0 .366.884l13.75 13.75c.244.244.564.366.884.366s.64-.123.884-.366l8.75-8.75a1.25 1.25 0 0 0 0-1.767" fill="#ff8100"/><path d="M296.25 124.75a2.5 2.5 0 1 1 2.5-2.5 2.5 2.5 0 0 1-2.5 2.5m18.384 5.366l-13.75-13.75A1.25 1.25 0 0 0 300 116h-8.75a1.25 1.25 0 0 0-1.25 1.25V126a1.25 1.25 0 0 0 .366.884l13.75 13.75c.244.244.564.366.884.366a1.25 1.25 0 0 0 .884-.366l8.75-8.75a1.25 1.25 0 0 0 0-1.767M296.25 212.75a2.5 2.5 0 1 1 2.5-2.5 2.5 2.5 0 0 1-2.5 2.5m18.384 5.366l-13.75-13.75A1.25 1.25 0 0 0 300 204h-8.75a1.25 1.25 0 0 0-1.25 1.25V214a1.25 1.25 0 0 0 .366.884l13.75 13.75c.244.244.564.366.884.366a1.25 1.25 0 0 0 .884-.366l8.75-8.75a1.25 1.25 0 0 0 0-1.767" class="I"/><path d="M296.25 300.75a2.5 2.5 0 1 1 2.5-2.5 2.5 2.5 0 0 1-2.5 2.5m18.384 5.366l-13.75-13.75A1.25 1.25 0 0 0 300 292h-8.75a1.25 1.25 0 0 0-1.25 1.25V302a1.25 1.25 0 0 0 .366.884l13.75 13.75c.244.244.564.366.884.366a1.25 1.25 0 0 0 .884-.366l8.75-8.75a1.25 1.25 0 0 0 0-1.768M296.25 388.75a2.5 2.5 0 1 1 2.5-2.5 2.5 2.5 0 0 1-2.5 2.5m18.384 5.366l-13.75-13.75A1.25 1.25 0 0 0 300 380h-8.75a1.25 1.25 0 0 0-1.25 1.25V390a1.25 1.25 0 0 0 .366.884l13.75 13.75c.244.244.564.366.884.366a1.25 1.25 0 0 0 .884-.366l8.75-8.75a1.25 1.25 0 0 0 0-1.768M296.25 476.75a2.5 2.5 0 1 1 2.5-2.5 2.5 2.5 0 0 1-2.5 2.5m18.384 5.366l-13.75-13.75A1.25 1.25 0 0 0 300 468h-8.75a1.25 1.25 0 0 0-1.25 1.25V478a1.25 1.25 0 0 0 .366.884l13.75 13.75c.244.244.564.366.884.366a1.25 1.25 0 0 0 .884-.366l8.75-8.75a1.25 1.25 0 0 0 0-1.768" class="G"/><rect x="96" y="27.6" width="158" height="24.4" rx="12.2" class="M"/><rect x="673" y="27.6" width="156" height="24.4" rx="12.2" class="G"/><rect x="865" y="24" width="86" height="32.4" rx="12.2" class="B V W"/><g class="M"><rect x="381" y="202.8" width="202" height="24.4" rx="12.2"/><rect x="96" y="202.8" width="158" height="24.4" rx="12.2"/></g><rect x="673" y="202.8" width="156" height="24.4" rx="12.2" class="G"/><rect x="865" y="199.2" width="86" height="32.4" rx="12.2" class="B V W"/><g class="M"><rect x="381" y="289.6" width="218" height="24.4" rx="12.2"/><rect x="96" y="289.6" width="102" height="24.4" rx="12.2"/></g><rect x="673" y="289.6" width="156" height="24.4" rx="12.2" class="G"/><rect x="865" y="286" width="86" height="32.4" rx="12.2" class="I"/><g class="M"><rect x="381" y="115.2" width="218" height="24.4" rx="12.2"/><rect x="96" y="115.2" width="129" height="24.4" rx="12.2"/></g><rect x="673" y="115.2" width="156" height="24.4" rx="12.2" class="G"/><rect x="865" y="111.6" width="86" height="32.4" rx="12.2" class="B V W"/><g class="M"><rect x="381" y="378" width="202" height="24.4" rx="12.2"/><rect x="96" y="378" width="158" height="24.4" rx="12.2"/></g><rect x="673" y="378" width="156" height="24.4" rx="12.2" class="G"/><rect x="865" y="374.4" width="86" height="32.4" rx="12.2" class="I"/><path d="M905.7 48l-5.7-5.774 2.045-2.072 3.554 3.602L916.146 32l2.14 1.97zm0 87l-5.7-5.774 2.045-2.072 3.554 3.602L916.146 119l2.14 1.97zm0 87l-5.7-5.774 2.045-2.072 3.554 3.602L916.146 206l2.14 1.97zm0 87l-5.7-5.774 2.045-2.072 3.554 3.602L916.146 293l2.14 1.97z" fill="#00b832"/></g><g transform="translate(0 338)"><use fill="#000" filter="url(#F)" xlink:href="#E"/><use stroke-width="2.2" xlink:href="#E" class="G Q"/><rect x="865" y="25" width="86" height="48" rx="12.2" class="I"/><g class="E"><rect x="25" y="25" width="721" height="48" rx="12.2"/><use xlink:href="#O" x="892" y="36.708"/><path d="M904.8 51.8c-7.536 0-12.8 3.947-12.8 9.6V63h25.6v-1.6c0-5.653-5.264-9.6-12.8-9.6m22.4-16h-4.8V31h-3.2v4.8h-4.8V39h4.8v4.8h3.2V39h4.8z"/></g></g><path d="M716.67 389.6c0-2.854 1.797-4.65 4.65-4.65s4.65 1.796 4.65 4.65h-9.3zm4.65-12.4a3.1 3.1 0 1 1 0 6.2 3.1 3.1 0 1 1 0-6.2h0zm17.772 19.508l-7.017-7.017a12.32 12.32 0 0 0 1.725-6.291c0-3.312-1.29-6.426-3.633-8.767a12.32 12.32 0 0 0-17.534-.002A12.31 12.31 0 0 0 709 383.4c0 3.312 1.3 6.426 3.633 8.767s5.455 3.633 8.767 3.633c2.25 0 4.404-.61 6.3-1.725l7.02 7.017a3.08 3.08 0 0 0 4.384 0c1.21-1.207 1.21-3.174 0-4.383h0z" class="I"/><g transform="translate(469 523)"><g filter="url(#G)"><path d="M37.422 0h267.563c20.42 0 36.978 16.542 37 36.96l.594 564c.022 20.435-16.526 37.017-36.96 37.04h-.04H38.016c-20.42 0-36.978-16.542-37-36.96l-.594-564C.4 16.604 16.948.022 37.383 0h.04z" fill="#ededed"/><g transform="translate(15.113 15.071)"><mask id="h" class="E"><use xlink:href="#H"/></mask><use fill="#fafafa" xlink:href="#H"/><g filter="url(#I)" class="H"><g transform="translate(9.451 90.425)"><path stroke-width=".68" d="M0 .186h295.55v294.72H0z" class="P Q"/><use xlink:href="#e" class="O"/><use xlink:href="#f" class="G"/><g transform="translate(48.699 72.005)"><mask id="i" class="E"><use xlink:href="#J"/></mask><use fill="#f5fff6" opacity=".22" xlink:href="#J" class="F"/><g mask="url(#i)"><g transform="translate(-38.623 -25.118)"><path d="M134.42 122.918v.7l129.225 10.346c-6.188 2.738-14.696 46.432-43.66 68.656-29.563 22.683-79.602 23.876-86.93 23.876-55.974 0-101.455-45.67-102.36-102.36l-.01-1.218H134.42z" class="P"/><path d="M0 132.29l134.46-9.594L267.003 92.1c37.648-15.388-28.807 73.523-28.807 31.088C238.196 67.393 219.664.9 162.89 0 109.564 15.755 75.42 29.7 60.454 41.864 39.22 59.107 19.07 89.25 0 132.29z" class="E"/></g></g></g></g></g><g filter="url(#K)" class="H"><g transform="translate(9.451 395.192)"><path stroke-width=".68" d="M0 .186h295.55V232.32H0z" class="E Q"/><use xlink:href="#e" class="O"/><use xlink:href="#f" class="G"/><g transform="translate(30.225 66.954)"><mask id="j" class="E"><use xlink:href="#L"/></mask><use xlink:href="#L" class="F R"/><g mask="url(#j)"><g transform="translate(-4.623 -3.072)"><path d="M58.842 0v58.365H.282C.282 26.297 25.84.518 58.148.005L58.842 0z" class="O"/><path d="M58.82 58.884v.394l22.27 53.125c-7.06 3.118-14.85 4.846-23.04 4.846C26.45 117.25.774 91.514.264 59.57l-.005-.686h58.56z" class="N"/><path d="M58.843 1.536l-.001 57.222 22.37 53.364c21.253-8.67 36.19-29.174 36.19-53.086 0-31.44-25.822-56.987-57.872-57.494l-.687-.006z" class="P"/></g></g></g><g transform="translate(158.133 66.954)"><mask id="k" class="E"><use xlink:href="#M" href="#L"/></mask><use xlink:href="#M" class="F R" href="#L"/><g mask="url(#k)"><g transform="translate(-3.082 -3.24)"><path d="M58.842.168v58.365H.282C.282 26.465 25.84.686 58.148.174l.694-.005z" class="J"/><path d="M58.82 59.052v.394l22.27 53.125c-7.06 3.118-14.85 4.846-23.04 4.846-31.598 0-57.273-25.735-57.784-57.68l-.005-.686h58.56z" class="N"/><path d="M58.843 1.748l-.001 58.32-41.583 77.628C248.907 78.525 91.836 2.27 59.535 1.753l-.692-.006z" class="P"/></g></g></g><path d="M213.57 208.238h68.104a3.6 3.6 0 0 1 3.605 3.595v3.052a3.6 3.6 0 0 1-3.605 3.595H213.57a3.6 3.6 0 0 1-3.605-3.595v-3.052a3.6 3.6 0 0 1 3.605-3.595z" class="N"/></g></g><path d="M-14.06-48.562h342.57V70.33H-14.06z" class="H O"/><rect x="81.659" y="33.491" width="152.813" height="20.094" rx="4" class="H N"/><g class="O H"><rect x="43.036" y="346.63" width="82.284" height="16.745" rx="4"/><rect x="190.812" y="346.63" width="82.284" height="16.745" rx="4"/></g><rect x="130.358" y="282.997" width="53.737" height="31.816" rx="4" class="E H"/><g class="H"><use fill="#000" filter="url(#N)" xlink:href="#M"/><use xlink:href="#M" class="E"/><path d="M191.894 291.45l5.085-85.63 4.964 85.623c.094 4.402-1.62 6.71-5.146 6.925s-5.16-2.09-4.904-6.918z" stroke="#001d71" stroke-width="2.322" transform="matrix(.258819 .965926 -.965926 .258819 389.454496 -3.345972)" class="B O"/></g></g><path d="M103.826 15.07c0 8.323 6.747 15.07 15.07 15.07h108.902c8.323 0 15.07-6.747 15.07-15.07h0-139.043z" fill="#efefef"/></g><g class="N"><path d="M124.657 580.013l-23.64 5.455a1.3 1.3 0 0 0-1.006 1.099 1.28 1.28 0 0 0 .709 1.303l6.714 3.343.686 6.707c.054.54.45.986.982 1.118s1.1-.077 1.4-.523l.204-.204-1.358-5.12c-.057-.667.28-1.307.868-1.648l5.834-3.387-4.662 4.416c-.33.314-.47.776-.366 1.214l2.126 9.004c.123.526.573.92 1.12.987a1.32 1.32 0 0 0 1.33-.696l11.106-21.265a1.32 1.32 0 0 0 .13-.25c.116-.298.044-.753-.1-1.066-.164-.386-.862-.548-2.095-.486zM56.34 592.7h4.9v-4.9h-4.9v4.9zm-7.336 0h4.9v-4.9h-4.9v4.9zm0 7.35h4.9v-4.9h-4.9v4.9zm-7.336-7.35h4.9v-4.9h-4.9v4.9zm0 7.35h4.9v-4.9h-4.9v4.9zm20.785-19.6h-2.445V578h-2.445v6.125h-2.445v-3.675H47.78V578h-2.445v6.125H42.9v-3.675h-2.445A2.45 2.45 0 0 0 38 582.9v18.376a2.45 2.45 0 0 0 2.445 2.45h22.008a2.45 2.45 0 0 0 2.445-2.45V582.9a2.45 2.45 0 0 0-2.445-2.45zm181.977 11.8a1.43 1.43 0 0 1-1.429-1.426 1.43 1.43 0 0 1 1.429-1.426 1.43 1.43 0 0 1 1.429 1.426 1.43 1.43 0 0 1-1.429 1.426m-5.714 0a1.43 1.43 0 0 1-1.429-1.426 1.43 1.43 0 0 1 1.429-1.426 1.43 1.43 0 0 1 1.429 1.426 1.43 1.43 0 0 1-1.429 1.426m-5.714 0a1.43 1.43 0 0 1-1.429-1.426 1.43 1.43 0 0 1 1.429-1.426 1.43 1.43 0 0 1 1.429 1.426A1.43 1.43 0 0 1 233 592.26m5.714-14.26c-7.877 0-14.286 5.758-14.286 12.834 0 2.474.773 4.837 2.247 6.896L223 603.668h15.714c7.877 0 14.286-5.758 14.286-12.834S246.6 578 238.714 578M174.3 601.935l-10.562-10.272 6.205-6.034 4.055 3.944 6.495-6.947H164.7c-1.5 0-2.7 1.18-2.7 2.626v15.754c0 1.448 1.2 2.626 2.7 2.626h18.9c1.5 0 2.7-1.178 2.7-2.626V589.1l-12 12.835z"/><path d="M174.208 598.13l-6.65-6.467 2.387-2.32 4.15 4.034 12.3-13.168 2.497 2.207zm124.607-6.315c3.258 0 5.908-2.65 5.908-5.908s-2.65-5.908-5.908-5.908-5.908 2.65-5.908 5.908 2.65 5.908 5.908 5.908m0 1.477c-6.956 0-11.815 3.644-11.815 8.862v1.477h23.63v-1.477c0-5.218-4.86-8.862-11.815-8.862"/></g></g></g></svg>