<svg xmlns="http://www.w3.org/2000/svg" xmlns:xlink="http://www.w3.org/1999/xlink" width="1000" height="973" xmlns:v="https://vecta.io/nano"><style><![CDATA[.B{fill:#fff}.C{fill:#00173a}.D{opacity:.92}.E{fill:#ff9d00}.F{fill:#fb3640}.G{fill:#ff0034}.H{fill:#0d62fe}.I{fill:#001c6c}.J{fill:#0064ff}.K{stroke-width:2.322}.L{stroke-linejoin:round}.M{stroke:#0d62fe}.N{stroke-linecap:round}.O{stroke-dasharray:10}]]></style><defs><path id="A" d="M.925.407h227v219h-227z"/><path id="B" d="M0 0h97v93H0z"/><filter x="-6.5%" y="-39.0%" width="113.1%" height="178.0%" id="C"><feOffset dy="8" in="SourceAlpha"/><feGaussianBlur stdDeviation="8"/><feColorMatrix values="0 0 0 0 0 0 0 0 0 0.160784314 0 0 0 0 0.349019608 0 0 0 0.1 0" result="C"/><feMerge><feMergeNode in="C"/><feMergeNode in="SourceGraphic"/></feMerge></filter><path id="D" d="M0 0h93v89H0z"/><path id="E" d="M98 65h733v324H98z"/><filter x="-3.8%" y="-6.2%" width="107.6%" height="117.3%" id="F"><feOffset dy="8" in="SourceAlpha"/><feGaussianBlur stdDeviation="8"/><feColorMatrix values="0 0 0 0 0 0 0 0 0 0.160784314 0 0 0 0 0.349019608 0 0 0 0.1 0"/></filter><path d="M11 0h284.078c6.075 0 11 4.925 11 11v273c0 6.075-4.925 11-11 11H11c-6.075 0-11-4.925-11-11V11C0 4.925 4.925 0 11 0z" id="G"/><filter x="-35.2%" y="-36.6%" width="170.4%" height="173.2%" id="H"><feOffset dy="24" in="SourceAlpha"/><feGaussianBlur stdDeviation="16"/><feColorMatrix values="0 0 0 0 0 0 0 0 0 0.160784314 0 0 0 0 0.349019608 0 0 0 0.1 0" result="C"/><feMerge><feMergeNode in="C"/><feMergeNode in="SourceGraphic"/></feMerge></filter><path id="I" d="M0 0h306.078v295H0z"/><filter x="-19.0%" y="-17.9%" width="138.0%" height="135.8%" id="J"><feOffset dy="1" in="SourceAlpha"/><feGaussianBlur stdDeviation="1"/><feColorMatrix values="0 0 0 0 0 0 0 0 0 0 0 0 0 0 0 0 0 0 0.3 0" result="C"/><feMerge><feMergeNode in="C"/><feMergeNode in="SourceGraphic"/></feMerge></filter><path id="K" d="M0 0h97v92.657H0z"/><path id="L" d="M189.107.68v94.937H94.564l.01-1.117c.83-51.436 42.2-92.977 93.423-93.81l1.1-.01z"/><path id="M" d="M94.563 95.618V.68H.02l.01 1.117c.83 51.436 42.2 92.977 93.423 93.81l1.1.01z"/><path id="N" d="M194.408 90.854V0h-90.644l.01 1.07c.796 49.224 40.46 88.978 89.57 89.776l1.065.01z"/><path id="O" d="M181.308 94.436V185.3H90.665l.01-1.07c.796-49.224 40.46-88.978 89.57-89.776l1.065-.01z"/><path id="P" d="M90.664 185.3V94.437H.02l.01 1.07c.796 49.224 40.46 88.978 89.57 89.776l1.065.01z"/><path id="Q" d="M188.243 1.844V92.52H94.738l.01-1.066c.82-49.128 41.736-88.805 92.397-89.6l1.1-.01z"/><path id="R" d="M94.12 92.52V1.844h93.504l-.01 1.066c-.82 49.128-41.736 88.805-92.397 89.6l-1.1.01z"/><path id="S" d="M93.504 94.98v90.676H0l.01-1.066c.82-49.128 41.736-88.805 92.397-89.6l1.1-.01z"/><path id="T" d="M202.77 94.587V0h-94.542l.01 1.113c.83 51.246 42.2 92.634 93.423 93.465l1.1.01z"/><path id="U" d="M189.107 98.316v94.587H94.564l.01-1.113c.83-51.246 42.2-92.634 93.423-93.465l1.1-.01z"/><path id="V" d="M94.563 192.903V98.317H.02l.01 1.113c.83 51.246 42.2 92.634 93.423 93.465l1.1.01z"/><path id="W" d="M196.34 1.92v94.402H98.813l.01-1.1c.857-51.147 43.53-92.454 96.37-93.283l1.146-.01z"/><path id="X" d="M98.17 96.322V1.92h97.526l-.01 1.1c-.857 51.147-43.53 92.454-96.37 93.283l-1.146.01z"/><path id="Y" d="M97.526 98.882v94.402H0l.01-1.1C.866 141.027 43.54 99.72 96.38 98.89l1.146-.01z"/></defs><g transform="translate(36 80)" fill="none" fill-rule="evenodd"><g transform="translate(0 407)"><g transform="translate(229 1)"><g transform="translate(468)"><mask id="Z" class="B"><use xlink:href="#A"/></mask><use xlink:href="#A" class="B K L M N O"/><g mask="url(#Z)" class="D G"><path d="M-351.707-3.82v222.227h-228.368l.022-2.613C-578.047 95.392-478.12-1.846-354.4-3.798l2.683-.022z"/></g></g><g transform="translate(0 2)"><mask id="a" class="B"><use xlink:href="#B"/></mask><use xlink:href="#B" class="B K L M N O"/><g mask="url(#a)" class="D"><g transform="translate(164 31)"><g transform="translate(.224)"><use xlink:href="#L" class="C"/><use xlink:href="#M" class="E"/></g></g></g></g><g transform="translate(0 103)"><mask id="b" class="B"><use xlink:href="#C" href="#B"/></mask><use xlink:href="#C" class="B K L M N O" href="#B"/><g mask="url(#b)" class="D"><g transform="translate(-149 -4)"><g transform="translate(190.224)"><path d="M202.77 94.937V0h-94.542l.01 1.117c.83 51.436 42.2 92.977 93.423 93.81l1.1.01z" class="F"/><use xlink:href="#L" y="98" class="C"/><path d="M94.563 193.618V98.68H.02l.01 1.117c.83 51.436 42.2 92.977 93.423 93.81l1.1.01z" class="E"/></g><path d="M97.526 99.248V194H0l.01-1.114C.866 141.55 43.54 100.1 96.38 99.258l1.146-.01z" class="G"/></g></g></g><g transform="translate(0 204)"><mask id="c" class="B"><use xlink:href="#D" href="#B"/></mask><use xlink:href="#D" class="B K L M N O" href="#B"/><g mask="url(#c)" class="D"><g transform="translate(-265 -3)"><g transform="translate(190.224 97)"><use xlink:href="#L" class="C"/><use xlink:href="#M" class="E"/></g><path d="M196.34.927V95.68H98.813l.01-1.114C99.68 43.23 142.354 1.77 195.193.936l1.146-.01z" class="J"/><path d="M98.17 95.68V.927h97.526l-.01 1.114c-.857 51.336-43.53 92.796-96.37 93.628l-1.146.01z" class="C"/><path d="M97.526 98.248V193H0l.01-1.114C.866 140.55 43.54 99.1 96.38 98.258l1.146-.01z" class="G"/></g></g></g><g fill="#f4f2ee"><rect x="107" y="2" width="268" height="14.912" rx="3.5"/><rect x="107" y="103" width="268" height="14.912" rx="3.5"/><rect x="107" y="204" width="268" height="14.912" rx="3.5"/><rect x="107" y="21.173" width="268" height="14.912" rx="3.5"/><rect x="107" y="122.173" width="268" height="14.912" rx="3.5"/><rect x="107" y="223.173" width="268" height="14.912" rx="3.5"/><rect x="107" y="40.345" width="158" height="14.912" rx="3.5"/><rect x="107" y="141.345" width="158" height="14.912" rx="3.5"/><rect x="107" y="242.345" width="158" height="14.912" rx="3.5"/></g><rect x="107" y="80" width="158" height="14.912" rx="3.5" class="F"/><g class="H"><rect x="107" y="181" width="158" height="14.912" rx="3.5"/><rect x="107" y="282" width="158" height="14.912" rx="3.5"/></g></g><g filter="url(#C)" transform="translate(0 327)"><path stroke="#f4f2ee" d="M0 0h123v123H0z" class="B K L"/><g transform="translate(15 17)"><mask id="d" class="B"><use xlink:href="#D"/></mask><use xlink:href="#D" class="H"/><g mask="url(#d)" class="D"><g transform="translate(-24.928 -64.118)"><g transform="translate(182.379)"><use xlink:href="#N" class="F"/><use xlink:href="#O" class="C"/><use xlink:href="#P" class="E"/><ellipse cx="45.343" cy="52.098" rx="45.322" ry="45.426" class="I"/></g><use xlink:href="#Q" class="J"/><use xlink:href="#R" class="C"/><use xlink:href="#S" class="G"/></g></g></g><g stroke="#f4f2ee" class="B K L"><path d="M122 0h123v123H122z"/><path d="M244 0h123v123H244z"/><path d="M366 0h123v123H366z"/><path d="M488 0h123v123H488z"/><path d="M610 0h123v123H610z"/></g><g transform="translate(137 17)"><mask id="e" class="B"><use xlink:href="#G" href="#D"/></mask><use xlink:href="#G" class="H" href="#D"/><g mask="url(#e)" class="D"><g transform="translate(-246.402 -126.323)"><g transform="translate(154.361)"><path d="M231.758 108.18V0H123.7v1.273c.95 58.612 48.232 105.948 106.778 106.898l1.27.01z" class="F"/><path d="M216.14 112.447v108.18H108.083l.01-1.273c.95-58.612 48.232-105.948 106.778-106.898l1.27-.01z" class="C"/><path d="M108.082 220.63v-108.18H.024l.01 1.273c.95 58.612 48.232 105.948 106.778 106.898l1.27.01z" class="E"/><ellipse cx="54.054" cy="62.034" rx="54.029" ry="54.09" class="I"/></g><path d="M161.072 1.914v108.14H49.856l.01-1.272c.977-58.6 49.642-105.908 109.9-106.858l1.307-.01z" class="J"/><path d="M50.814 134.935v-47.85h49.856l-.005.563c-.438 25.925-22.253 46.862-49.265 47.282l-.586.005z" class="C"/></g></g></g><g transform="translate(259 17)"><mask id="f" class="B"><use xlink:href="#H" href="#D"/></mask><use xlink:href="#H" class="H" href="#D"/><g mask="url(#f)" class="D"><g transform="translate(-284.753)"><g transform="translate(182.379)"><use xlink:href="#N" class="F"/><use xlink:href="#O" class="C"/><use xlink:href="#P" class="E"/><ellipse cx="45.343" cy="52.098" rx="45.322" ry="45.426" class="I"/></g><use xlink:href="#Q" class="J"/><use xlink:href="#R" class="C"/><use xlink:href="#S" class="G"/></g></g></g><g transform="translate(380 17)"><mask id="g" class="B"><use xlink:href="#I" href="#D"/></mask><use xlink:href="#I" class="H" href="#D"/><g mask="url(#g)" class="D"><g transform="translate(-176.412 -32.538)"><g transform="translate(181.421)"><use xlink:href="#N" x="0.959" class="F"/><path d="M182.267 94.436V185.3H91.623l.01-1.07c.796-49.224 40.46-88.978 89.57-89.776l1.065-.01z" class="C"/><path d="M91.388 185.3V94.437H.744l.01 1.07c.796 49.224 40.46 88.978 89.57 89.776l1.065.01z" class="E"/><ellipse cx="46.067" cy="45.426" rx="45.322" ry="45.426" class="I"/></g><use xlink:href="#R" class="C"/><use xlink:href="#S" class="G"/></g></g></g><g transform="translate(501 17)"><mask id="h" class="B"><use xlink:href="#J" href="#D"/></mask><use xlink:href="#J" class="H" href="#D"/><g mask="url(#h)" class="D"><g transform="matrix(-1 0 0 1 366.247423 -47.849462)"><g transform="translate(182.379)"><use xlink:href="#N" class="F"/><path d="M194.414 94.436V185.3H103.77l.01-1.07c.796-49.224 40.46-88.978 89.57-89.776l1.065-.01z" class="C"/><use xlink:href="#P" class="E"/><ellipse cx="45.343" cy="52.098" rx="45.322" ry="45.426" class="I"/></g><use xlink:href="#Q" class="J"/><use xlink:href="#R" class="C"/><use xlink:href="#S" class="G"/></g></g></g><g transform="translate(622 17)"><mask id="i" class="B"><use xlink:href="#K" href="#D"/></mask><use xlink:href="#K" class="H" href="#D"/><g mask="url(#i)" class="D"><g transform="translate(-24.928 -64.118)"><g transform="translate(182.379)"><use xlink:href="#N" class="F"/><use xlink:href="#O" class="C"/><use xlink:href="#P" class="E"/><ellipse cx="45.343" cy="52.098" rx="45.322" ry="45.426" class="I"/></g><use xlink:href="#Q" class="J"/><use xlink:href="#R" class="C"/><use xlink:href="#S" class="G"/></g></g></g></g></g><g transform="translate(117)"><use fill="#000" filter="url(#F)" xlink:href="#E"/><use xlink:href="#E" class="B"/><use xlink:href="#G" transform="translate(112 80)" class="B K L M N O"/><g filter="url(#H)"><mask id="j" class="B"><use xlink:href="#I"/></mask><use xlink:href="#I" class="H"/><g mask="url(#j)" class="D"><g transform="translate(-298.912 -7.139)"><g transform="translate(.389)"><path d="M802.485.163v300.5h-298.63l.03-3.535C506.506 134.324 637.178 2.832 798.978.192l3.508-.03z" class="C"/><path d="M424.114 426.717V.163H.494l.04 5.018c3.72 231.104 189.085 417.748 418.604 421.495l4.976.04z" transform="matrix(-1 0 0 1 424.607636 0)" class="E"/></g></g></g></g><g filter="url(#J)" transform="translate(249.75 268.5)" fill-rule="nonzero"><path fill="#231d1e" d="M0 15.75h2.25V13.5h4.5v2.25H9V2.25h2.25V0h4.5v2.25H18V9h9v2.25h4.5v2.25h2.25v11.25H31.5v4.5h-2.25V36h-4.5v-2.25H22.5V36H11.25v-4.5H9v-2.25H6.75V27H4.5v-4.5H2.25v-2.25H0z"/><path d="M2.25 15.75h4.5V18H9v2.25h2.25v-18h4.5v13.5H18v-4.5h4.5v4.5h2.25v-4.5H27v4.5h2.25V13.5h2.25v11.25h-2.25v4.5H27v4.5h-2.25V31.5H22.5v2.25h-9V31.5h-2.25v-2.25H9V27H6.75v-4.5H4.5v-2.25H2.25z" class="B"/><g fill="#231d1e"><path d="M15.75 20.25H18v9h-2.25z"/><path d="M20.25 20.25h2.25v9h-2.25z"/><path d="M24.75 20.25H27v9h-2.25z"/></g></g><g transform="translate(428 80)"><mask id="k" class="B"><use xlink:href="#K"/></mask><use xlink:href="#K" class="H"/><g mask="url(#k)" class="D"><g transform="translate(-26 -66.753)"><g transform="translate(190.224)"><use xlink:href="#T" class="F"/><use xlink:href="#U" class="C"/><use xlink:href="#V" class="E"/><ellipse cx="47.293" cy="54.238" rx="47.272" ry="47.293" class="I"/></g><use xlink:href="#W" class="J"/><use xlink:href="#X" class="C"/><use xlink:href="#Y" class="G"/></g></g><g transform="translate(0 100.627)"><mask id="l" class="B"><use xlink:href="#S" href="#K"/></mask><use xlink:href="#S" class="H" href="#K"/><g mask="url(#l)" class="D"><g transform="translate(-149 -3.985)"><g transform="translate(190.224)"><use xlink:href="#T" class="F"/><use xlink:href="#U" class="C"/><use xlink:href="#V" class="E"/><ellipse cx="47.293" cy="54.238" rx="47.272" ry="47.293" class="I"/></g><use xlink:href="#X" class="C"/><use xlink:href="#Y" class="G"/></g></g></g><g transform="translate(0 201.255)"><mask id="m" class="B"><use xlink:href="#T" href="#K"/></mask><use xlink:href="#T" class="H" href="#K"/><g mask="url(#m)" class="D"><g transform="translate(-265 -3.985)"><g transform="translate(190.224)"><use xlink:href="#T" class="F"/><use xlink:href="#U" class="C"/><use xlink:href="#V" class="E"/><ellipse cx="61.048" cy="94.12" rx="47.272" ry="47.293" class="I"/></g><use xlink:href="#W" class="J"/><use xlink:href="#X" class="C"/><use xlink:href="#Y" class="G"/></g></g></g><g fill="#f4f2ee"><rect x="107" width="268" height="14.857" rx="3.5"/><rect x="107" y="100.627" width="268" height="14.857" rx="3.5"/><rect x="107" y="201.255" width="268" height="14.857" rx="3.5"/><rect x="107" y="19.102" width="268" height="14.857" rx="3.5"/><rect x="107" y="119.729" width="268" height="14.857" rx="3.5"/><rect x="107" y="220.356" width="268" height="14.857" rx="3.5"/><rect x="107" y="38.204" width="158" height="14.857" rx="3.5"/><rect x="107" y="138.831" width="158" height="14.857" rx="3.5"/><rect x="107" y="239.458" width="158" height="14.857" rx="3.5"/></g><g class="F"><rect x="107" y="77.712" width="158" height="14.857" rx="3.5"/><rect x="107" y="178.339" width="158" height="14.857" rx="3.5"/><rect x="107" y="278.967" width="158" height="14.857" rx="3.5"/></g></g></g></g></svg>