<svg xmlns="http://www.w3.org/2000/svg" xmlns:xlink="http://www.w3.org/1999/xlink" width="1445" height="999" xmlns:v="https://vecta.io/nano"><style><![CDATA[.B{stroke-linecap:round}.C{stroke-linejoin:round}.D{fill:#00c15a}.E{fill:#ff9d00}.F{fill:#ff0034}.G{stroke:#011638}.H{stroke-width:8.322}.I{stroke:#ffa300}.J{stroke-width:27.322}.K{stroke-width:5.322}]]></style><defs><filter x="-10.6%" y="-12.9%" width="121.2%" height="125.9%" id="A"><feOffset dy="24" in="SourceAlpha"/><feGaussianBlur stdDeviation="16"/><feColorMatrix values="0 0 0 0 0.3515625 0 0 0 0 0.3515625 0 0 0 0 0.3515625 0 0 0 0.1 0" result="C"/><feMerge><feMergeNode in="C"/><feMergeNode in="SourceGraphic"/></feMerge></filter><path id="B" d="M411.363 291.65v-11.407c5.715-.852 9.82-2.738 12.312-5.658s3.74-6.388 3.74-10.403c0-2.677-.47-4.99-1.414-6.935s-2.234-3.635-3.876-5.065-3.572-2.677-5.79-3.74a102.75 102.75 0 0 0-7.068-3.057c-1.763-.608-3.344-1.202-4.742-1.78s-2.584-1.186-3.557-1.825-1.702-1.37-2.19-2.2-.73-1.84-.73-3.057c0-2.068.82-3.696 2.462-4.882s4.104-1.78 7.387-1.78c3.1 0 5.852.304 8.254.913s4.484 1.247 6.247 1.916h0l2.28-9.034c-1.338-.548-3.162-1.1-5.472-1.688s-4.925-.99-7.843-1.232h0v-9.856h-9.485v10.22c-5.168.852-8.998 2.753-11.49 5.703s-3.74 6.525-3.74 10.723c0 2.555.456 4.715 1.368 6.48a14.52 14.52 0 0 0 3.602 4.517c1.5 1.247 3.162 2.297 5.016 3.148s3.724 1.612 5.61 2.28l5.518 2.1c1.672.67 3.116 1.4 4.332 2.2s2.158 1.703 2.827 2.738 1.003 2.25 1.003 3.65c0 2.068-.806 3.726-2.417 4.973s-4.514 1.87-8.7 1.87c-3.526 0-6.673-.395-9.44-1.186s-5.122-1.673-7.068-2.646h0l-3.1 8.67c1.338.73 3.36 1.536 6.065 2.418s6.247 1.475 10.625 1.78h0v11.133h9.485z"/><path id="C" d="M166 299.29c-11.527-12.39-20.194-18.724-26-19-26.092-1.24-40 29 13 55"/></defs><g transform="translate(14 80)" fill="none" fill-rule="evenodd"><g filter="url(#A)" transform="translate(323)"><path stroke="#f4f2ee" fill="#fff" d="M0 .65h1027v837.174H0z"/><g fill="#f4f2ee" fill-rule="nonzero"><path d="M193.274 228.168V216.76c5.715-.852 9.82-2.738 12.312-5.658s3.74-6.388 3.74-10.403c0-2.677-.47-4.99-1.414-6.935s-2.234-3.635-3.876-5.065-3.572-2.677-5.79-3.74a102.75 102.75 0 0 0-7.068-3.057c-1.763-.608-3.344-1.202-4.742-1.78s-2.584-1.186-3.557-1.825-1.702-1.37-2.19-2.2-.73-1.84-.73-3.057c0-2.068.82-3.696 2.462-4.882s4.104-1.78 7.387-1.78c3.1 0 5.852.304 8.254.913s4.484 1.247 6.247 1.916h0l2.28-9.034c-1.338-.548-3.162-1.1-5.472-1.688s-4.925-.99-7.843-1.232h0v-9.856h-9.485v10.22c-5.168.852-8.998 2.753-11.49 5.703s-3.74 6.525-3.74 10.723c0 2.555.456 4.715 1.368 6.48a14.52 14.52 0 0 0 3.602 4.517c1.5 1.247 3.162 2.297 5.016 3.148s3.724 1.612 5.61 2.28l5.518 2.1c1.672.67 3.116 1.4 4.332 2.2s2.158 1.703 2.827 2.738 1.003 2.25 1.003 3.65c0 2.068-.806 3.726-2.417 4.973s-4.514 1.87-8.7 1.87c-3.526 0-6.673-.395-9.44-1.186s-5.122-1.673-7.068-2.646h0l-3.1 8.67c1.338.73 3.36 1.536 6.065 2.418s6.247 1.475 10.625 1.78h0v11.133h9.485z"/><use xlink:href="#B"/><path d="M629.452 263.877V252.47c5.715-.852 9.82-2.738 12.312-5.658s3.74-6.388 3.74-10.403c0-2.677-.47-4.99-1.414-6.935s-2.234-3.635-3.876-5.065-3.572-2.677-5.79-3.74a102.75 102.75 0 0 0-7.068-3.057c-1.763-.608-3.344-1.202-4.742-1.78s-2.584-1.186-3.557-1.825-1.702-1.37-2.19-2.2-.73-1.84-.73-3.057c0-2.068.82-3.696 2.462-4.882s4.104-1.78 7.387-1.78c3.1 0 5.852.304 8.254.913s4.484 1.247 6.247 1.916h0l2.28-9.034c-1.338-.548-3.162-1.1-5.472-1.688s-4.925-.99-7.843-1.232h0v-9.856h-9.485v10.22c-5.168.852-8.998 2.753-11.49 5.703s-3.74 6.525-3.74 10.723c0 2.555.456 4.715 1.368 6.48a14.52 14.52 0 0 0 3.602 4.517c1.5 1.247 3.162 2.297 5.016 3.148s3.724 1.612 5.61 2.28l5.518 2.1c1.672.67 3.116 1.4 4.332 2.2s2.158 1.703 2.827 2.738 1.003 2.25 1.003 3.65c0 2.068-.806 3.726-2.417 4.973s-4.514 1.87-8.7 1.87c-3.526 0-6.673-.395-9.44-1.186s-5.122-1.673-7.068-2.646h0l-3.1 8.67c1.338.73 3.36 1.536 6.065 2.418s6.247 1.475 10.625 1.78h0v11.133h9.485z"/><use xlink:href="#B" x="436.177" y="-39.676"/></g><path stroke="#f4f2ee" stroke-width="1.053" stroke-linecap="square" d="M47.583 686.403l933.817 1.984" class="C"/><g fill="#eaeaea"><rect x="130.853" y="706.242" width="114.992" height="23.806" rx="3"/><rect x="348.942" y="706.242" width="114.992" height="23.806" rx="3"/><rect x="567.031" y="706.242" width="114.992" height="23.806" rx="3"/><rect x="785.12" y="706.242" width="114.992" height="23.806" rx="3"/></g><g transform="translate(114.992 257.897)"><path d="M0 190.447h146.714v234.09H0z" class="D"/><path d="M0 43.644h146.714v146.803H0z" class="E"/><path d="M0 0h146.714v43.644H0z" class="F"/></g><g transform="translate(333.081 329.315)"><path d="M0 162.674h146.714V353.12H0z" class="D"/><path d="M0 35.71h146.714v126.965H0z" class="E"/><path d="M0 0h146.714v35.71H0z" class="F"/></g><g transform="translate(551.17 305.509)"><path d="M0 103.16h146.714v273.768H0z" class="D"/><path d="M0 39.677h146.714v115.062H0z" class="E"/><path d="M0 0h146.714v39.677H0z" class="F"/></g><g transform="translate(769.259 289.638)"><path d="M0 242.027h146.714v150.77H0z" class="D"/><path d="M0 39.677h146.714v202.35H0z" class="E"/><path d="M0 0h146.714v39.677H0z" class="F"/></g><rect fill="#001d71" x="46.643" y="71.008" width="307.911" height="32.132" rx="16.066"/><rect fill="#0064ff" x="731" y="776" width="262" height="35" rx="17.5"/></g><g transform="matrix(-1 0 0 1 727 15)"><g transform="matrix(-.819152 -.573576 -.573576 .819152 614.985241 239.058924)"><path d="M61.728 335.712C50.062 307.036 26.5 268.442.97 253.394" class="I J"/><g transform="matrix(.891007 .45399 -.45399 .891007 202.727052 .675551)" class="C H"><g transform="matrix(.970296 .241922 -.241922 .970296 102.314274 .441709)"><g class="G"><path d="M67.37 1.423c16.9-2.87 40.853 1.635 54.735 20.402s26.41 79.672 7.445 124.167c-12.358 28.993-39.235 73.68-68.203 68.276-3.475-.648-21.715.44-24.867-3.887 15.467 14.08 35.067.096 58.803-41.95 35.603-63.067 22.892-117.034 9.13-142.736C95.237 8.56 82.89.47 67.37 1.423z" fill="#e3e7d3"/><path d="M49.344 213.426l6.468-1.672c43.8-26.716 67.9-95.052 60.062-150.2C112.056 34.738 97.3 9.85 75.368 2.426M68.823.484c-4.194 1.3-8.732 3.128-13.815 5.622-23.864 11.7-48.165 40.9-51.645 71.106-4.484 38.923-5.904 94.63 20.88 124.3 3.667 4.064 8.045 6.927 12.8 8.96" class="B"/></g><path d="M90.77 24.082c-58.447-12.716-69.807 39.064-71 85.046m.138 44.557c0 18.06 3.682 24.53 14 40" stroke="#e3e7d3" class="B"/></g><g class="G"><path d="M72.265 244.1L23.5 333.12c-7.583 14.82-14.308 30.13-19.82 45.84-1.838 5.237-5.958 12.57-2.06 16.523 7.842 7.955 20.292 9.517 30.97 12.8 5.564 1.712 13.062 6.008 17.34 2.06 21.572-19.896 10.897-24.248 16.106-41.29 10.805-35.35 37.925-75.967 42.884-112.733L72.265 244.1z" fill="#011638"/><path d="M82.968 221.212c-3.23 2.948-22.252 21.563-7.018 26.02 7.153 2.093 15.098-.273 22.298 1.652 4.95 1.324 8.66 5.504 13.22 7.844.61.314 1.883.664 2.06 0 17.9-66.545-33.744 90.957 7.844-31.386" class="B"/></g></g><g class="I J"><g fill="#fff"><use xlink:href="#C" class="B"/><path d="M21.947 217.944c14.85 9.148 27.854 22.53 39.012 40.15a11.61 11.61 0 0 0 16.015 3.595c1.565-.99 2.87-2.342 3.806-3.94l2.805-4.79c5.155-8.805 16.47-11.763 25.276-6.61 5.66 3.314 9.14 9.382 9.14 15.942 0 16.55-11.268 32.576-33.804 48.073"/><g class="B"><use xlink:href="#C" x="-24.84" y="29.036"/><use xlink:href="#C" x="-59.84" y="55.036"/></g></g><path d="M158.64 290.6c14.543 16.212 21.566 27.523 21.07 33.935-.586 7.562-9.4 6.985-12.604 10.31-19.27 20.07-35.933 48.407-64.465 56.44" class="B"/></g></g><path d="M538.943 263.393c-49.5-15.73-144.75-11.236-162.75-14.982s41.25-67.417 148.5-67.417c71.5 0 125.5 14.482 162 43.446l2.335 20.164c24.943-6.95 37.415-3.685 37.415 9.8s-11.162 21.53-33.485 24.14l6.485 56.01-160.5 3.745v-74.908z" class="I J"/><path d="M440.736 202.976c19.465 1.142 16.4 1.573 30.314-11.984m-28.42 21.948c15.307-1.092 16.915-6.937 27.4-19.805m6.702-.755c3.85 9.848 10.455 10.528 20.715 9.713m-20.715-9.59c2.264 17.2-1.74 10 13.137 20.942" class="B C G K"/><g stroke="#212121" class="H C"><path d="M450.335 160.968c18.235-16.707 27.6 5.488 25.64 19.805-2.366 17.288-16.44 30.648-29.684 40.115-.182.13-11.754 7.935-15.156 4.92-8.187-7.255-4.94-23.565-1.516-33.303s12.247-23.778 20.715-31.536z"/><path d="M474.46 197.172c3.01-9.242 5.025-20.916 13.262-27.498 17.71-14.152 34.813-9.48 29.934 14.885-2.67 13.327-13.77 29.076-23.492 38.348-12.623 12.038-23.615-4.415-21.726-16.4.917-5.814 3.116-11.353 4.673-17.03" class="B"/></g><g class="B C G K"><path d="M585.552 166.44c4.15 24.335 6.472 42.96 22.734 62.19 23.833 28.186 76.782 16.378 98.896-7.82"/><path d="M605.887 169.594c-4.417 32.342-1.738 68.915 39.156 74.427 2.83.382 21.692 1.398 28.67-1.01 16.908-5.832 17.6-9.352 33.722-22.454"/><path d="M613.34 169.846c14.29 29.593 52.396 98.337 90.56 53.613"/><path d="M632.284 173.38c3.35 18.18 5.038 36.575 17.18 51.47 16.08 19.726 48.867 15.684 62.52-3.533"/><path d="M641.63 176.66c9.167 23.148 26.507 61.977 57.974 49.07m-46.73-46.674c7.6 12.028 23.336 42.615 39.028 45.792 6.108 1.236 12.462-.168 18.694-.252M519 282.12c15.4-5.4 27.822 5.74 43.574 2.9 7.623-1.374 16.926-9.668 22.484-13.878"/></g><path d="M581 401c-10.312 15.052-22.415 39.802-36.307 74.25L529 627l130-171-50-29 80-39 38-50c-56.228-17.997-104.895 3.003-146 63zm-53 41l3.352 33.003L519.64 588.62 452 450l61.213-35.462-55.778-38.663L522 339c-4.127-3.605-2.127 30.728 6 103z" fill="#044917"/><path d="M544.947 381.238c-5.073 20.288 12.42 3.012 1.248-.445m1.467 23.652c-5.073 20.288 12.42 3.012 1.248-.445" stroke="#212121" stroke-width="2.322" fill="#212121" class="B C"/><path d="M507.068 387.983c4.277-2 6.89-6.526 10.686-9.34 8.694-6.447 18.153-21.476 29.863-22.153 4.097-.237 10.012 4.118 14.143 7.3 5.57 4.304 10.642 9.254 15.575 14.29 1.675 1.7 2.362 4.293 4.165 5.865s5.077 5.332 6.338 3.295c2.734-4.413 3.246-10.314 4.095-15.45 1.63-9.852 2.052-19.528 3.33-29.433.906-7.025 3.2-14.775.362-21.252-1.224-2.792-6.223.37-8.874 1.83-14.57 8.02-22.024 18.62-36.972 25.892-2.8 1.362-6.522.254-9.233-1.28-11.644-6.594-27.5-14.654-38.546-22.226 1.87 42.473 3.558 63.358 5.068 62.656z" fill="#212121"/></g></g></svg>