<svg xmlns="http://www.w3.org/2000/svg" xmlns:xlink="http://www.w3.org/1999/xlink" width="1370" height="1208" xmlns:v="https://vecta.io/nano"><style><![CDATA[.B{stroke-opacity:.668}.C{stroke-linejoin:round}.D{stroke:#fff}.E{fill:#fff}.F{fill:#ff0034}.G{mask:url(#c)}.H{fill:#00173a}.I{fill:#005b11}.J{fill:#ff9d00}.K{stroke-width:2.322}.L{fill-rule:nonzero}.M{opacity:.92}.N{mask:url(#a)}.O{fill:#0064ff}.P{stroke-linecap:round}.Q{fill:#e6e7e7}.R{fill:#0d62fe}.S{mask:url(#e)}.T{fill:#2ac2ff}.U{fill:#ff7800}.V{mask:url(#f)}.W{mask:url(#g)}.X{mask:url(#h)}.Y{mask:url(#X)}.Z{filter:url(#D)}.a{mask:url(#Y)}.b{fill:#fb3640}]]></style><defs><filter x="-6.9%" y="-10.7%" width="113.8%" height="121.4%" id="A"><feOffset dy="8" in="SourceAlpha"/><feGaussianBlur stdDeviation="8"/><feColorMatrix values="0 0 0 0 0 0 0 0 0 0.164542109 0 0 0 0 0.362271488 0 0 0 0.1 0" result="C"/><feMerge><feMergeNode in="C"/><feMergeNode in="SourceGraphic"/></feMerge></filter><path id="B" d="M0 0h665.966v393.906H0z"/><filter x="-15.3%" y="-14.4%" width="130.6%" height="128.8%" id="C"><feOffset dy="1" in="SourceAlpha"/><feGaussianBlur stdDeviation="1"/><feColorMatrix values="0 0 0 0 0 0 0 0 0 0 0 0 0 0 0 0 0 0 0.3 0" result="C"/><feMerge><feMergeNode in="C"/><feMergeNode in="SourceGraphic"/></feMerge></filter><filter x="-22.2%" y="-34.6%" width="144.4%" height="169.2%" id="D"><feOffset dy="8" in="SourceAlpha"/><feGaussianBlur stdDeviation="8"/><feColorMatrix values="0 0 0 0 0 0 0 0 0 0.164542109 0 0 0 0 0.362271488 0 0 0 0.1 0" result="C"/><feMerge><feMergeNode in="C"/><feMergeNode in="SourceGraphic"/></feMerge></filter><path id="E" d="M0 0h206.854v122.707H0z"/><path id="F" d="M0 0h207v128.164H0z"/><path id="G" d="M0 0h207v113.14H0z"/><path id="H" d="M0 0h213v83H0z"/><filter x="-5.9%" y="-9.1%" width="111.7%" height="118.3%" id="I"><feOffset dy="8" in="SourceAlpha"/><feGaussianBlur stdDeviation="8"/><feColorMatrix values="0 0 0 0 0 0 0 0 0 0.164542109 0 0 0 0 0.362271488 0 0 0 0.1 0" result="C"/><feMerge><feMergeNode in="C"/><feMergeNode in="SourceGraphic"/></feMerge></filter><path id="J" d="M0 0h782.61v462.77H0z"/><filter x="-18.2%" y="-10.5%" width="136.5%" height="121.1%" id="K"><feOffset dy="7" in="SourceAlpha"/><feGaussianBlur stdDeviation="7"/><feColorMatrix values="0 0 0 0 0 0 0 0 0 0.164542109 0 0 0 0 0.362271488 0 0 0 0.1 0" result="C"/><feMerge><feMergeNode in="C"/><feMergeNode in="SourceGraphic"/></feMerge></filter><path d="M197.304.01l-.001.124c0 13.467 10.78 24.415 24.18 24.673v334.854c-12.707.245-23.06 10.106-24.094 22.613H25.062C24.016 369.61 13.41 359.66.484 359.66l-.484.005V24.81l.484.005c13.62 0 24.663-11.05 24.663-24.678V.01h172.157z" id="L"/><path id="M" d="M122.615 348.045v-4.92c2.487-.367 4.273-1.18 5.358-2.44s1.627-2.756 1.627-4.488c0-1.155-.205-2.152-.615-2.992s-.972-1.568-1.687-2.185-1.555-1.155-2.52-1.614l-3.076-1.32-2.064-.768c-.61-.25-1.125-.512-1.548-.787s-.74-.6-.953-.945-.318-.794-.318-1.32c0-.892.357-1.594 1.072-2.106s1.786-.768 3.215-.768c1.35 0 2.547.13 3.592.394l2.72.827.992-3.897c-.582-.236-1.376-.48-2.38-.728s-2.143-.426-3.413-.53h0v-4.252h-4.128v4.41c-2.25.367-3.916 1.188-5 2.46s-1.627 2.815-1.627 4.626c0 1.102.198 2.034.595 2.795s.92 1.41 1.568 1.95 1.376.99 2.183 1.358l2.44.984 2.4.905c.728.29 1.356.604 1.885.945s.94.735 1.23 1.18.437.97.437 1.575c0 .892-.35 1.607-1.052 2.145s-1.965.807-3.8.807c-1.535 0-2.904-.17-4.108-.512s-2.23-.722-3.076-1.142h0l-1.35 3.74c.582.315 1.462.663 2.64 1.043s2.72.636 4.624.768h0v4.803h4.128zm21.278 0v-4.92c2.487-.367 4.273-1.18 5.358-2.44s1.627-2.756 1.627-4.488c0-1.155-.205-2.152-.615-2.992s-.972-1.568-1.687-2.185-1.555-1.155-2.52-1.614l-3.076-1.32-2.064-.768c-.61-.25-1.125-.512-1.548-.787s-.74-.6-.953-.945-.318-.794-.318-1.32c0-.892.357-1.594 1.072-2.106s1.786-.768 3.215-.768c1.35 0 2.547.13 3.592.394l2.72.827.992-3.897c-.582-.236-1.376-.48-2.38-.728s-2.143-.426-3.413-.53h0v-4.252h-4.128v4.41c-2.25.367-3.916 1.188-5 2.46s-1.627 2.815-1.627 4.626c0 1.102.198 2.034.595 2.795s.92 1.41 1.568 1.95 1.376.99 2.183 1.358l2.44.984 2.4.905c.728.29 1.356.604 1.885.945s.94.735 1.23 1.18.437.97.437 1.575c0 .892-.35 1.607-1.052 2.145s-1.965.807-3.8.807c-1.535 0-2.904-.17-4.108-.512s-2.23-.722-3.076-1.142h0l-1.35 3.74c.582.315 1.462.663 2.64 1.043s2.72.636 4.624.768h0v4.803h4.128zm20.31 0v-4.92c2.487-.367 4.273-1.18 5.358-2.44s1.627-2.756 1.627-4.488c0-1.155-.205-2.152-.615-2.992s-.972-1.568-1.687-2.185-1.555-1.155-2.52-1.614l-3.076-1.32-2.064-.768c-.61-.25-1.125-.512-1.548-.787s-.74-.6-.953-.945-.318-.794-.318-1.32c0-.892.357-1.594 1.072-2.106s1.786-.768 3.215-.768c1.35 0 2.547.13 3.592.394l2.72.827.992-3.897c-.582-.236-1.376-.48-2.38-.728s-2.143-.426-3.413-.53h0v-4.252h-4.128v4.41c-2.25.367-3.916 1.188-5 2.46s-1.627 2.815-1.627 4.626c0 1.102.198 2.034.595 2.795s.92 1.41 1.568 1.95 1.376.99 2.183 1.358l2.44.984 2.4.905c.728.29 1.356.604 1.885.945s.94.735 1.23 1.18.437.97.437 1.575c0 .892-.35 1.607-1.052 2.145s-1.965.807-3.8.807c-1.535 0-2.904-.17-4.108-.512s-2.23-.722-3.076-1.142h0l-1.35 3.74c.582.315 1.462.663 2.64 1.043s2.72.636 4.624.768h0v4.803h4.128zm20.31 0v-4.92c2.487-.367 4.273-1.18 5.358-2.44s1.627-2.756 1.627-4.488c0-1.155-.205-2.152-.615-2.992s-.972-1.568-1.687-2.185-1.555-1.155-2.52-1.614l-3.076-1.32-2.064-.768c-.61-.25-1.125-.512-1.548-.787s-.74-.6-.953-.945-.318-.794-.318-1.32c0-.892.357-1.594 1.072-2.106s1.786-.768 3.215-.768c1.35 0 2.547.13 3.592.394l2.72.827.992-3.897c-.582-.236-1.376-.48-2.38-.728s-2.143-.426-3.413-.53h0v-4.252h-4.128v4.41c-2.25.367-3.916 1.188-5 2.46s-1.627 2.815-1.627 4.626c0 1.102.198 2.034.595 2.795s.92 1.41 1.568 1.95 1.376.99 2.183 1.358l2.44.984 2.4.905c.728.29 1.356.604 1.885.945s.94.735 1.23 1.18.437.97.437 1.575c0 .892-.35 1.607-1.052 2.145s-1.965.807-3.8.807c-1.535 0-2.904-.17-4.108-.512s-2.23-.722-3.076-1.142h0l-1.35 3.74c.582.315 1.462.663 2.64 1.043s2.72.636 4.624.768h0v4.803h4.128z"/><path id="N" d="M48.257 91.015v-5.02H36.76V65.047h-5.842v25.968h17.34zm12.133.525c1.473 0 2.802-.25 3.988-.75s2.203-1.205 3.052-2.117 1.498-2.01 1.947-3.298.674-2.704.674-4.253-.237-2.96-.712-4.234-1.136-2.36-1.985-3.26-1.866-1.6-3.052-2.098-2.5-.75-3.913-.75c-1.398 0-2.7.25-3.876.75s-2.21 1.2-3.07 2.098-1.535 1.986-2.022 3.26-.73 2.685-.73 4.234.237 2.967.712 4.253 1.136 2.386 1.985 3.298S55.254 90.3 56.44 90.8s2.503.75 3.95.75zm0-4.796c-1.273 0-2.26-.506-2.958-1.518s-1.05-2.38-1.05-4.103.35-3.08 1.05-4.066 1.685-1.48 2.958-1.48 2.253.493 2.94 1.48 1.03 2.342 1.03 4.066-.343 3.09-1.03 4.103-1.666 1.518-2.94 1.518zm22.73 4.796c1.473 0 2.802-.25 3.988-.75s2.203-1.205 3.052-2.117 1.498-2.01 1.947-3.298.674-2.704.674-4.253-.237-2.96-.712-4.234-1.136-2.36-1.985-3.26-1.866-1.6-3.052-2.098-2.5-.75-3.913-.75c-1.398 0-2.7.25-3.876.75s-2.21 1.2-3.07 2.098-1.535 1.986-2.022 3.26-.73 2.685-.73 4.234.237 2.967.712 4.253 1.136 2.386 1.985 3.298S77.985 90.3 79.17 90.8s2.503.75 3.95.75zm0-4.796c-1.273 0-2.26-.506-2.958-1.518s-1.05-2.38-1.05-4.103.35-3.08 1.05-4.066 1.685-1.48 2.958-1.48 2.253.493 2.94 1.48 1.03 2.342 1.03 4.066-.343 3.09-1.03 4.103-1.666 1.518-2.94 1.518zm19.548 4.272v-8.618a15.17 15.17 0 0 1 1.891 1.836l1.816 2.267 1.63 2.36 1.367 2.155h6.404l-1.573-2.735-2.06-2.998-2.322-2.904c-.8-.937-1.573-1.742-2.322-2.417l4.138-4.29 3.876-4.365h-6.628l-1.255 1.5-1.554 1.817-1.704 1.93-1.704 1.874V61.937l-5.58.9v28.18h5.58zm18.874-22.108a3.41 3.41 0 0 0 2.341-.881c.662-.587.992-1.393.992-2.417s-.33-1.83-.992-2.417a3.41 3.41 0 0 0-2.341-.881 3.41 3.41 0 0 0-2.341.881c-.662.587-.992 1.393-.992 2.417s.33 1.83.992 2.417a3.41 3.41 0 0 0 2.341.881zm2.81 22.108v-19.7h-5.58v19.7h5.58zm10.823 0V75.8l1.198-.13 1.273-.056c1.298 0 2.185.375 2.66 1.124s.712 2.023.712 3.822h0v10.455h5.58v-11.13c0-1.35-.137-2.573-.412-3.672s-.736-2.048-1.386-2.848-1.53-1.418-2.64-1.855-2.503-.656-4.176-.656a30.14 30.14 0 0 0-4.719.356l-3.67.768v19.036h5.58zm23.443 7.045c3.42 0 5.948-.78 7.583-2.342s2.453-3.953 2.453-7.176h0V71.98l-1.704-.43-2.004-.356-2.116-.244-2.078-.094c-1.573 0-2.983.23-4.232.693s-2.303 1.118-3.164 1.967-1.517 1.867-1.966 3.054-.674 2.504-.674 3.953c0 2.898.724 5.152 2.172 6.764s3.533 2.417 6.254 2.417c.75 0 1.442-.07 2.078-.206a8.98 8.98 0 0 0 1.854-.618h0v.712c0 1.1-.33 1.998-.992 2.698s-1.79 1.05-3.39 1.05c-1.223 0-2.316-.1-3.277-.3s-1.88-.475-2.752-.824h0l-.974 4.684c1.024.35 2.135.63 3.333.843a20.57 20.57 0 0 0 3.595.319zm1.573-12.853c-2.522 0-3.782-1.56-3.782-4.684 0-1.5.362-2.735 1.086-3.7s1.823-1.46 3.295-1.46l1.31.056.974.13v8.918c-.35.2-.774.375-1.273.525s-1.036.225-1.6.225zM33.315 98.713a3.41 3.41 0 0 0 2.341-.881c.662-.587.992-1.393.992-2.417s-.33-1.83-.992-2.417a3.41 3.41 0 0 0-2.341-.881 3.41 3.41 0 0 0-2.341.881c-.662.587-.992 1.393-.992 2.417s.33 1.83.992 2.417a3.41 3.41 0 0 0 2.341.881zm2.81 22.108v-19.7h-5.58v19.7h5.58zm10.823 0v-15.214l1.198-.13 1.273-.056c1.298 0 2.185.375 2.66 1.124s.712 2.023.712 3.822h0v10.455h5.58v-11.13c0-1.35-.137-2.573-.412-3.672s-.736-2.048-1.386-2.848-1.53-1.418-2.64-1.855-2.503-.656-4.176-.656a30.14 30.14 0 0 0-4.719.356l-3.67.768v19.036h5.58zm24.08.45c1.198 0 2.21-.1 3.033-.3s1.573-.437 2.247-.712h0l-.786-4.347a9.55 9.55 0 0 1-1.741.468c-.637.112-1.255.17-1.854.17-1.248 0-2.078-.35-2.5-1.05s-.618-1.636-.618-2.8h0v-6.932h6.703v-4.646h-6.703v-5.808l-5.58.9v16.562c0 1.274.12 2.436.356 3.485s.655 1.942 1.255 2.68 1.398 1.312 2.397 1.724 2.26.618 3.782.618zm17.04.075c1.473 0 2.802-.25 3.988-.75s2.203-1.205 3.052-2.117 1.498-2.01 1.947-3.298.674-2.704.674-4.253-.237-2.96-.712-4.234-1.136-2.36-1.985-3.26-1.866-1.6-3.052-2.098-2.5-.75-3.913-.75c-1.398 0-2.7.25-3.876.75s-2.21 1.2-3.07 2.098-1.535 1.986-2.022 3.26-.73 2.685-.73 4.234.237 2.967.712 4.253 1.136 2.386 1.985 3.298 1.866 1.618 3.052 2.117 2.503.75 3.95.75zm0-4.796c-1.273 0-2.26-.506-2.958-1.518s-1.05-2.38-1.05-4.103.35-3.08 1.05-4.066 1.685-1.48 2.958-1.48 2.253.493 2.94 1.48 1.03 2.342 1.03 4.066-.343 3.09-1.03 4.103-1.666 1.518-2.94 1.518zm30.558 4.72c1.198 0 2.21-.1 3.033-.3s1.573-.437 2.247-.712h0l-.786-4.347a9.55 9.55 0 0 1-1.741.468c-.637.112-1.255.17-1.854.17-1.248 0-2.078-.35-2.5-1.05s-.618-1.636-.618-2.8h0v-6.932h6.703v-4.646h-6.703v-5.808l-5.58.9v16.562c0 1.274.12 2.436.356 3.485s.655 1.942 1.255 2.68 1.398 1.312 2.397 1.724 2.26.618 3.782.618zm14.605-.45v-14.99l1.18-.28c.437-.087.905-.13 1.404-.13 1.248 0 2.103.375 2.565 1.124s.693 2.023.693 3.822h0v10.455h5.58v-11.13c0-1.35-.13-2.573-.393-3.672s-.712-2.048-1.348-2.848-1.485-1.418-2.547-1.855-2.4-.656-3.988-.656a9.05 9.05 0 0 0-1.704.169c-.587.112-1.067.23-1.442.356h0v-9.443l-5.58.9v28.18h5.58zm25.952.525a19.66 19.66 0 0 0 2.097-.112l1.966-.28c.612-.112 1.167-.244 1.666-.393s.9-.3 1.198-.45h0l-.75-4.534c-.624.275-1.43.506-2.415.693s-1.99.28-3.015.28c-1.598 0-2.87-.337-3.82-1.012s-1.485-1.586-1.6-2.735h12.658l.075-1.03.037-1.068c0-3.322-.81-5.84-2.434-7.55s-3.832-2.567-6.628-2.567c-1.198 0-2.366.225-3.5.674a8.8 8.8 0 0 0-3.015 1.986c-.874.874-1.58 1.967-2.116 3.28s-.805 2.842-.805 4.6c0 1.45.206 2.798.618 4.047s1.05 2.33 1.9 3.24 1.947 1.63 3.258 2.155 2.852.787 4.625.787zm2.696-12.366H154.5c.075-.475.193-.943.356-1.405s.393-.868.693-1.218.674-.63 1.123-.843.986-.32 1.6-.32c.65 0 1.192.112 1.63.337a3.39 3.39 0 0 1 1.086.862c.287.35.5.75.637 1.2s.218.912.243 1.386h0zM36.76 150.63v-10.717h10.26v-4.91H36.76v-5.433h11.534v-4.91H30.918v25.968h5.842zm22.956.45a30.14 30.14 0 0 0 4.719-.356l3.67-.768V130.92h-5.58v15.214l-1.198.13-1.273.056c-1.298 0-2.185-.4-2.66-1.2s-.712-2.098-.712-3.897h0V130.92h-5.58v10.98c0 1.35.137 2.586.412 3.7s.736 2.092 1.386 2.904 1.53 1.443 2.64 1.892 2.503.674 4.176.674zm21.233 0c1.198 0 2.21-.1 3.033-.3s1.573-.437 2.247-.712h0l-.786-4.347a9.55 9.55 0 0 1-1.741.468c-.637.112-1.255.17-1.854.17-1.248 0-2.078-.35-2.5-1.05s-.618-1.636-.618-2.8h0v-6.932h6.703v-4.646H78.74v-5.808l-5.58.9v16.562c0 1.274.12 2.436.356 3.485s.655 1.942 1.255 2.68 1.398 1.312 2.397 1.724 2.26.618 3.782.618zm17.45 0a30.14 30.14 0 0 0 4.719-.356l3.67-.768V130.92h-5.58v15.214l-1.198.13-1.273.056c-1.298 0-2.185-.4-2.66-1.2s-.712-2.098-.712-3.897h0V130.92h-5.58v10.98c0 1.35.137 2.586.412 3.7s.736 2.092 1.386 2.904 1.53 1.443 2.64 1.892 2.503.674 4.176.674zm19.21-.45v-15.064c.25-.075.618-.144 1.105-.206s.905-.094 1.255-.094a10.87 10.87 0 0 1 2.172.206l1.76.393.936-4.61c-.3-.125-.662-.23-1.086-.32l-1.273-.225-1.273-.15-1.086-.056c-1.673 0-3.19.156-4.55.468l-3.54.993v18.66h5.58zm19.324.525a19.66 19.66 0 0 0 2.097-.112l1.966-.28c.612-.112 1.167-.244 1.666-.393s.9-.3 1.198-.45h0l-.75-4.534c-.624.275-1.43.506-2.415.693s-1.99.28-3.015.28c-1.598 0-2.87-.337-3.82-1.012s-1.485-1.586-1.6-2.735h12.658l.075-1.03.037-1.068c0-3.322-.81-5.84-2.434-7.55s-3.832-2.567-6.628-2.567c-1.198 0-2.366.225-3.5.674a8.8 8.8 0 0 0-3.015 1.986c-.874.874-1.58 1.967-2.116 3.28s-.805 2.842-.805 4.6c0 1.45.206 2.798.618 4.047s1.05 2.33 1.9 3.24 1.947 1.63 3.258 2.155 2.852.787 4.625.787zm2.696-12.366h-7.377c.075-.475.193-.943.356-1.405s.393-.868.693-1.218.674-.63 1.123-.843.986-.32 1.6-.32c.65 0 1.192.112 1.63.337a3.39 3.39 0 0 1 1.086.862c.287.35.5.75.637 1.2s.218.912.243 1.386h0z"/><path id="O" d="M44.02 54.233V52.34H33.165v-.066a3.77 3.77 0 0 1 .382-1.611c.254-.542.597-1.096 1.03-1.66s.918-1.13 1.46-1.694l1.676-1.677 2.025-1.993a17.9 17.9 0 0 0 1.776-2.059c.52-.71.935-1.445 1.245-2.21s.465-1.578.465-2.44c0-1.95-.564-3.47-1.693-4.567s-2.8-1.644-5.045-1.644c-.84 0-1.604.105-2.3.316s-1.29.46-1.81.747-.952.58-1.295.88l-.714.68 1.13 1.495c.133-.133.343-.32.63-.565s.636-.482 1.046-.714.89-.437 1.444-.614 1.184-.266 1.892-.266c1.26 0 2.307.338 3.137 1.013S40.9 35.48 40.9 37.03c0 .71-.11 1.362-.332 1.96a7.32 7.32 0 0 1-.896 1.694 11.99 11.99 0 0 1-1.311 1.544l-1.577 1.544-2.075 1.993a16.98 16.98 0 0 0-1.958 2.225c-.586.797-1.068 1.644-1.444 2.54s-.564 1.865-.564 2.906l.017.548.017.25H44.02zm12.15.498c2.346 0 4.166-1.03 5.46-3.09s1.942-5.026 1.942-8.9c0-3.897-.647-6.875-1.942-8.934s-3.115-3.09-5.46-3.09c-2.368 0-4.193 1.03-5.477 3.09s-1.925 5.037-1.925 8.934c0 3.875.647 6.842 1.942 8.9s3.115 3.09 5.46 3.09zm0-1.96c-.974 0-1.78-.277-2.423-.83s-1.156-1.3-1.543-2.21-.664-1.982-.83-3.188-.25-2.474-.25-3.803.083-2.596.25-3.803.443-2.275.83-3.205.902-1.672 1.543-2.225 1.45-.83 2.423-.83c.952 0 1.748.277 2.4.83s1.162 1.295 1.56 2.225.68 1.998.846 3.205.25 2.474.25 3.803-.083 2.596-.25 3.803-.448 2.27-.846 3.188-.918 1.655-1.56 2.21-1.438.83-2.4.83zm25.293 1.46V52.34H70.607v-.066a3.77 3.77 0 0 1 .382-1.611c.254-.542.597-1.096 1.03-1.66s.918-1.13 1.46-1.694l1.676-1.677 2.025-1.993a17.9 17.9 0 0 0 1.776-2.059c.52-.71.935-1.445 1.245-2.21s.465-1.578.465-2.44c0-1.95-.564-3.47-1.693-4.567s-2.8-1.644-5.045-1.644c-.84 0-1.604.105-2.3.316s-1.29.46-1.81.747-.952.58-1.295.88l-.714.68 1.13 1.495c.133-.133.343-.32.63-.565s.636-.482 1.046-.714.89-.437 1.444-.614 1.184-.266 1.892-.266c1.26 0 2.307.338 3.137 1.013s1.245 1.788 1.245 3.338c0 .71-.11 1.362-.332 1.96a7.32 7.32 0 0 1-.896 1.694 11.99 11.99 0 0 1-1.311 1.544l-1.577 1.544-2.075 1.993a16.98 16.98 0 0 0-1.958 2.225c-.586.797-1.068 1.644-1.444 2.54s-.564 1.865-.564 2.906l.017.548.017.25H81.46zm14.505 0V31.216H94.44c-1.018 1.24-2.047 2.22-3.087 2.94s-2.224 1.312-3.552 1.777h0l.63 1.66a10.47 10.47 0 0 0 1.593-.614l1.527-.797c.487-.277.924-.56 1.31-.847s.703-.565.946-.83h0v19.73h2.158z"/><path id="P" d="M81.66 40.8V.046H41.09l.004.48c.356 22.075 18.11 39.903 40.1 40.26l.477.004z"/><path id="Q" d="M81.66 41.72v40.744H41.09l.004-.48c.356-22.075 18.11-39.903 40.1-40.26l.477-.004z"/><path id="R" d="M41.09 82.464V41.72H.518l.004.48c.356 22.075 18.11 39.903 40.1 40.26l.477.004z"/><path id="S" d="M41.704 123.486V82.608H0l.004.48c.366 22.148 18.615 40.034 41.2 40.394l.5.004z"/><path id="T" d="M41.704 0v40.878H0l.004-.48C.37 18.25 18.62.363 41.214.004l.5-.004z"/><path id="U" d="M41.704 40.878V0H83.41l-.004.48c-.366 22.148-18.615 40.034-41.2 40.394l-.5.004z"/><path id="V" d="M41.704 41.73v40.878H0l.004-.48C.37 59.98 18.62 42.093 41.214 41.734l.5-.004z"/><path id="W" d="M-63.474 88.298c21.932 13.555 35.38 46.05 40.347 97.48l.148 1.564-121.71 2.3c.224-24.835 2.766-44.548 7.628-59.14 2.483-7.455 10.85-20.733 25.102-39.832l.274-.366c18.658.99 34.783.163 48.153-1.994l.058-.01z"/></defs><g transform="translate(34)" fill="none" fill-rule="evenodd"><g filter="url(#A)" transform="translate(.565 301)"><rect width="666.435" height="428.007" rx="4.546" class="Q"/><g class="C D B"><ellipse cx="21.863" cy="17.331" rx="8.293" ry="8.289"/><ellipse cx="44.479" cy="17.331" rx="8.293" ry="8.289"/><ellipse cx="67.096" cy="17.331" rx="8.293" ry="8.289"/></g><g transform="translate(0 33.155)"><mask id="X" class="E"><use xlink:href="#B"/></mask><use xlink:href="#B" class="E"/><g class="L Y"><path d="M82.77 173.38v-7.82H64.847v-32.62H55.74v40.438h27.03zm18.915.817c2.296 0 4.37-.39 6.218-1.167s3.435-1.877 4.758-3.297 2.335-3.132 3.036-5.135 1.05-4.21 1.05-6.623-.37-4.6-1.11-6.594-1.77-3.676-3.094-5.077-2.91-2.5-4.758-3.268-3.882-1.167-6.1-1.167c-2.18 0-4.194.39-6.042 1.167s-3.444 1.867-4.787 3.268-2.394 3.093-3.153 5.077-1.138 4.182-1.138 6.594.37 4.62 1.11 6.623 1.77 3.715 3.094 5.135 2.91 2.52 4.758 3.297 3.902 1.167 6.16 1.167zm0-7.47c-1.985 0-3.522-.788-4.612-2.363s-1.635-3.705-1.635-6.4.545-4.795 1.635-6.33 2.627-2.305 4.612-2.305 3.513.768 4.583 2.305 1.605 3.647 1.605 6.33-.535 4.814-1.605 6.4-2.598 2.363-4.583 2.363zm35.437 7.47c2.296 0 4.37-.39 6.218-1.167s3.435-1.877 4.758-3.297 2.335-3.132 3.036-5.135 1.05-4.21 1.05-6.623-.37-4.6-1.11-6.594-1.77-3.676-3.094-5.077-2.91-2.5-4.758-3.268-3.882-1.167-6.1-1.167c-2.18 0-4.194.39-6.042 1.167s-3.444 1.867-4.787 3.268-2.394 3.093-3.153 5.077-1.138 4.182-1.138 6.594.37 4.62 1.11 6.623 1.77 3.715 3.094 5.135 2.91 2.52 4.758 3.297 3.902 1.167 6.16 1.167zm0-7.47c-1.985 0-3.522-.788-4.612-2.363s-1.635-3.705-1.635-6.4.545-4.795 1.635-6.33 2.627-2.305 4.612-2.305 3.513.768 4.583 2.305 1.605 3.647 1.605 6.33-.535 4.814-1.605 6.4-2.598 2.363-4.583 2.363zm30.475 6.652v-13.42c.973.778 1.956 1.73 2.948 2.86l2.83 3.53 2.54 3.676 2.13 3.355h9.983l-2.452-4.26-3.21-4.668-3.62-4.522c-1.245-1.46-2.452-2.713-3.62-3.764l6.45-6.68 6.042-6.798h-10.333l-1.956 2.334-2.423 2.83-2.656 3.005-2.656 2.918V128.1l-8.7 1.4v43.88h8.7zm29.424-34.428a5.32 5.32 0 0 0 3.649-1.371c1.03-.914 1.547-2.17 1.547-3.764s-.516-2.85-1.547-3.764a5.32 5.32 0 0 0-3.649-1.371 5.32 5.32 0 0 0-3.649 1.371c-1.03.914-1.547 2.17-1.547 3.764s.516 2.85 1.547 3.764a5.32 5.32 0 0 0 3.649 1.371zm4.38 34.428v-30.694h-8.7v30.694h8.7zm16.872 0v-23.69l1.868-.204 1.985-.088c2.024 0 3.406.584 4.145 1.75s1.11 3.15 1.11 5.952h0v16.28h8.7v-17.33c0-2.1-.214-4.007-.642-5.72s-1.148-3.2-2.16-4.435-2.384-2.208-4.116-2.888-3.902-1.02-6.51-1.02c-2.57 0-5.02.185-7.356.554l-5.72 1.196v29.643h8.7zm36.546 10.97c5.332 0 9.273-1.216 11.822-3.647s3.824-6.156 3.824-11.175h0v-25.792c-.778-.233-1.664-.457-2.656-.67s-2.034-.4-3.123-.554a61.06 61.06 0 0 0-3.299-.379c-1.11-.097-2.19-.146-3.24-.146-2.452 0-4.65.36-6.597 1.08s-3.6 1.74-4.933 3.064-2.364 2.908-3.065 4.756-1.05 3.9-1.05 6.156c0 4.513 1.13 8.023 3.386 10.533s5.507 3.764 9.75 3.764c1.168 0 2.248-.107 3.24-.32s1.956-.535 2.9-.963h0v1.11c0 1.712-.516 3.112-1.547 4.2s-2.793 1.634-5.283 1.634c-1.907 0-3.6-.156-5.108-.467s-2.93-.74-4.29-1.284h0l-1.518 7.294c1.596.545 3.328.982 5.196 1.313a32.1 32.1 0 0 0 5.605.496zm2.452-20.015c-3.93 0-5.896-2.43-5.896-7.294 0-2.334.564-4.26 1.693-5.777s2.84-2.276 5.138-2.276c.778 0 1.46.03 2.043.088a19.43 19.43 0 0 1 1.518.204h0v13.888c-.545.31-1.207.584-1.985.817a8.7 8.7 0 0 1-2.51.35zM59.476 185.37a5.32 5.32 0 0 0 3.649-1.371c1.03-.914 1.547-2.17 1.547-3.764s-.516-2.85-1.547-3.764a5.32 5.32 0 0 0-3.649-1.371 5.32 5.32 0 0 0-3.649 1.371c-1.03.914-1.547 2.17-1.547 3.764s.516 2.85 1.547 3.764a5.32 5.32 0 0 0 3.649 1.371zm4.38 34.428v-30.694h-8.7v30.694h8.7zm16.872 0v-23.69a32.36 32.36 0 0 1 1.868-.204 23.97 23.97 0 0 1 1.985-.088c2.024 0 3.406.584 4.145 1.75s1.11 3.15 1.11 5.952h0v16.28h8.7v-17.33c0-2.1-.214-4.007-.642-5.72s-1.148-3.2-2.16-4.435-2.384-2.208-4.116-2.888-3.902-1.02-6.51-1.02c-2.57 0-5.02.185-7.356.554s-4.242.768-5.72 1.196h0v29.643h8.7zm37.54.7c1.868 0 3.444-.156 4.73-.467s2.452-.68 3.503-1.11h0l-1.226-6.77a14.9 14.9 0 0 1-2.715.729c-.992.175-1.956.263-2.9.263-1.946 0-3.24-.545-3.882-1.634s-.963-2.548-.963-4.376h0V196.34h10.45v-7.236h-10.45v-9.045l-8.7 1.4v25.792c0 1.984.185 3.793.555 5.427s1.022 3.025 1.956 4.172 2.18 2.042 3.736 2.684 3.522.963 5.896.963zm26.563.117c2.296 0 4.37-.39 6.218-1.167s3.435-1.877 4.758-3.297 2.335-3.132 3.036-5.135 1.05-4.21 1.05-6.623-.37-4.6-1.11-6.594-1.77-3.676-3.094-5.077-2.91-2.5-4.758-3.268-3.882-1.167-6.1-1.167c-2.18 0-4.194.39-6.042 1.167s-3.444 1.867-4.787 3.268-2.394 3.093-3.153 5.077-1.138 4.182-1.138 6.594.37 4.62 1.11 6.623 1.77 3.715 3.094 5.135 2.91 2.52 4.758 3.297 3.902 1.167 6.16 1.167zm0-7.47c-1.985 0-3.522-.788-4.612-2.363s-1.635-3.705-1.635-6.4.545-4.795 1.635-6.33 2.627-2.305 4.612-2.305 3.513.768 4.583 2.305 1.605 3.647 1.605 6.33-.535 4.814-1.605 6.4-2.598 2.363-4.583 2.363zm47.64 7.352c1.868 0 3.444-.156 4.73-.467s2.452-.68 3.503-1.11h0l-1.226-6.77a14.9 14.9 0 0 1-2.715.729c-.992.175-1.956.263-2.9.263-1.946 0-3.24-.545-3.882-1.634s-.963-2.548-.963-4.376h0V196.34h10.45v-7.236h-10.45v-9.045l-8.7 1.4v25.792c0 1.984.185 3.793.555 5.427s1.022 3.025 1.956 4.172 2.18 2.042 3.736 2.684 3.522.963 5.896.963zm22.77-.7v-23.34c.545-.156 1.158-.3 1.84-.438s1.41-.204 2.19-.204c1.946 0 3.28.584 4 1.75s1.08 3.15 1.08 5.952h0v16.28h8.7v-17.33c0-2.1-.204-4.007-.613-5.72s-1.11-3.2-2.102-4.435-2.316-2.208-3.97-2.888-3.727-1.02-6.218-1.02c-.856 0-1.742.088-2.656.263s-1.664.36-2.248.554h0v-14.705l-8.7 1.4v43.88h8.7zm40.458.817a30.68 30.68 0 0 0 3.269-.175 41.46 41.46 0 0 0 3.065-.438c.954-.175 1.82-.38 2.598-.613s1.4-.467 1.868-.7h0l-1.168-7.06c-.973.428-2.228.788-3.766 1.08a25.15 25.15 0 0 1-4.7.438c-2.49 0-4.476-.525-5.955-1.576s-2.316-2.47-2.5-4.26h19.733l.117-1.605a25.97 25.97 0 0 0 .058-1.663c0-5.174-1.265-9.093-3.795-11.758s-5.974-3.997-10.333-3.997a14.72 14.72 0 0 0-5.459 1.05c-1.77.7-3.337 1.73-4.7 3.093s-2.462 3.064-3.3 5.106-1.255 4.425-1.255 7.148c0 2.256.32 4.357.963 6.302s1.635 3.628 2.977 5.048 3.036 2.538 5.08 3.355 4.447 1.225 7.2 1.225zm4.203-19.256h-11.5a12.44 12.44 0 0 1 .555-2.188c.253-.72.613-1.352 1.08-1.896s1.05-.982 1.75-1.313 1.537-.496 2.5-.496c1.012 0 1.858.175 2.54.525s1.245.797 1.693 1.342a5.39 5.39 0 0 1 .992 1.867 8.97 8.97 0 0 1 .379 2.159h0zm-195.05 64.856v-16.69h15.996v-7.644H64.847v-8.46h17.98v-7.644H55.74v40.438h9.107zm35.788.7c2.57 0 5.02-.185 7.356-.554s4.242-.768 5.72-1.196h0V235.52h-8.7v23.69a32.36 32.36 0 0 1-1.868.204 23.97 23.97 0 0 1-1.985.088c-2.024 0-3.406-.622-4.145-1.867s-1.11-3.268-1.11-6.07h0V235.52h-8.7v17.097c0 2.1.214 4.026.642 5.777s1.148 3.258 2.16 4.522 2.384 2.247 4.116 2.947 3.902 1.05 6.51 1.05zm33.102 0c1.868 0 3.444-.156 4.73-.467s2.452-.68 3.503-1.11h0l-1.226-6.77a14.9 14.9 0 0 1-2.715.729c-.992.175-1.956.263-2.9.263-1.946 0-3.24-.545-3.882-1.634s-.963-2.548-.963-4.376h0v-10.795h10.45v-7.236h-10.45v-9.045l-8.7 1.4v25.792c0 1.984.185 3.793.555 5.427s1.022 3.025 1.956 4.172 2.18 2.042 3.736 2.684 3.522.963 5.896.963zm27.206 0c2.57 0 5.02-.185 7.356-.554s4.242-.768 5.72-1.196h0V235.52h-8.7v23.69a32.36 32.36 0 0 1-1.868.204 23.97 23.97 0 0 1-1.985.088c-2.024 0-3.406-.622-4.145-1.867s-1.11-3.268-1.11-6.07h0V235.52h-8.7v17.097c0 2.1.214 4.026.642 5.777s1.148 3.258 2.16 4.522 2.384 2.247 4.116 2.947 3.902 1.05 6.51 1.05zm29.95-.7v-23.458c.39-.117.963-.224 1.722-.32s1.41-.146 1.956-.146c1.207 0 2.335.107 3.386.32s1.965.418 2.744.613h0l1.46-7.177c-.467-.195-1.03-.36-1.693-.496s-1.323-.253-1.985-.35a34.47 34.47 0 0 0-1.985-.233c-.662-.058-1.226-.088-1.693-.088-2.608 0-4.972.243-7.093.73s-3.96 1.002-5.517 1.546h0v29.06h8.7zm30.125.817a30.68 30.68 0 0 0 3.269-.175 41.46 41.46 0 0 0 3.065-.438c.954-.175 1.82-.38 2.598-.613s1.4-.467 1.868-.7h0l-1.168-7.06c-.973.428-2.228.788-3.766 1.08a25.15 25.15 0 0 1-4.7.438c-2.49 0-4.476-.525-5.955-1.576s-2.316-2.47-2.5-4.26h19.733l.117-1.605c.04-.603.058-1.157.058-1.663 0-5.174-1.265-9.093-3.795-11.758s-5.974-3.997-10.333-3.997a14.72 14.72 0 0 0-5.459 1.05c-1.77.7-3.337 1.73-4.7 3.093s-2.462 3.064-3.3 5.106-1.255 4.425-1.255 7.148c0 2.256.32 4.357.963 6.302s1.635 3.628 2.977 5.048 3.036 2.538 5.08 3.355 4.447 1.225 7.2 1.225zm4.203-19.256h-11.5a12.44 12.44 0 0 1 .555-2.188c.253-.72.613-1.352 1.08-1.896s1.05-.982 1.75-1.313 1.537-.496 2.5-.496c1.012 0 1.858.175 2.54.525s1.245.797 1.693 1.342a5.39 5.39 0 0 1 .992 1.867 8.97 8.97 0 0 1 .379 2.159h0z" fill="#000"/><g class="F"><path d="M77.982 103.986v-3.35h-19.23v-.118c0-.94.225-1.89.676-2.85s1.058-1.94 1.823-2.94a35.23 35.23 0 0 1 2.587-2.998l2.97-2.968 3.587-3.526c1.176-1.175 2.225-2.4 3.146-3.644s1.656-2.557 2.205-3.91.823-2.792.823-4.32c0-3.448-1-6.142-3-8.082s-4.98-2.91-8.938-2.91c-1.5 0-2.842.186-4.057.558s-2.284.813-3.205 1.322-1.686 1.03-2.293 1.558l-1.264 1.205 2 2.645c.235-.235.608-.568 1.117-1s1.127-.852 1.852-1.264 1.578-.774 2.558-1.087 2.097-.47 3.352-.47c2.235 0 4.087.598 5.557 1.793s2.205 3.164 2.205 5.907c0 1.254-.196 2.4-.588 3.468s-.92 2.057-1.588 2.998a21.22 21.22 0 0 1-2.323 2.733l-2.793 2.733-3.675 3.526a30.06 30.06 0 0 0-3.469 3.938c-1.04 1.41-1.892 2.91-2.558 4.496s-1 3.3-1 5.143l.03.97.03.44h23.462zm21.522.882c4.155 0 7.38-1.822 9.673-5.466s3.44-8.895 3.44-15.752c0-6.896-1.147-12.166-3.44-15.8s-5.518-5.466-9.673-5.466c-4.195 0-7.43 1.822-9.703 5.466s-3.41 8.914-3.41 15.8c0 6.857 1.147 12.108 3.44 15.752s5.518 5.466 9.673 5.466zm0-3.468c-1.725 0-3.156-.5-4.293-1.47s-2.048-2.282-2.734-3.91-1.176-3.507-1.47-5.642-.44-4.38-.44-6.73.147-4.594.44-6.73.784-4.026 1.47-5.672 1.597-2.958 2.734-3.938 2.568-1.47 4.293-1.47c1.686 0 3.097.5 4.234 1.47s2.058 2.292 2.764 3.938 1.205 3.536 1.5 5.672.44 4.38.44 6.73-.147 4.594-.44 6.73-.794 4.016-1.5 5.642-1.627 2.93-2.764 3.91-2.548 1.47-4.234 1.47zm44.808 2.586v-3.35h-19.23v-.118c0-.94.225-1.89.676-2.85s1.058-1.94 1.823-2.94a35.23 35.23 0 0 1 2.587-2.998 106.02 106.02 0 0 1 2.97-2.968l3.587-3.526c1.176-1.175 2.225-2.4 3.146-3.644s1.656-2.557 2.205-3.91.823-2.792.823-4.32c0-3.448-1-6.142-3-8.082s-4.98-2.91-8.938-2.91c-1.5 0-2.842.186-4.057.558s-2.284.813-3.205 1.322-1.686 1.03-2.293 1.558-1.03.93-1.264 1.205h0l2 2.645c.235-.235.608-.568 1.117-1s1.127-.852 1.852-1.264 1.578-.774 2.558-1.087 2.097-.47 3.352-.47c2.235 0 4.087.598 5.557 1.793s2.205 3.164 2.205 5.907c0 1.254-.196 2.4-.588 3.468s-.92 2.057-1.588 2.998a21.22 21.22 0 0 1-2.323 2.733l-2.793 2.733-3.675 3.526a30.06 30.06 0 0 0-3.469 3.938c-1.04 1.41-1.89 2.91-2.558 4.496s-1 3.3-1 5.143c0 .43.01.754.03.97s.03.362.03.44h23.462zm25.697 0v-40.73h-2.705c-1.803 2.194-3.626 3.928-5.47 5.202s-3.94 2.322-6.292 3.144h0l1.117 2.94a18.56 18.56 0 0 0 2.823-1.087 43.7 43.7 0 0 0 2.705-1.411 22.71 22.71 0 0 0 2.323-1.499c.686-.51 1.245-1 1.676-1.47h0v34.912h3.822z"/></g></g><rect x="284.969" y="319.493" width="94.99" height="21.099" rx="2" class="F Y"/><g class="M Y"><g transform="translate(339.249 55.761)"><g transform="translate(143.238)"><path d="M144.664 72.18V.08H72.79l.007.848c.63 39.063 32.08 70.61 71.02 71.245l.844.007z" class="T"/><path d="M144.664 73.828v72.1H72.79l.007-.848c.63-39.063 32.08-70.61 71.02-71.245l.844-.007z" class="H"/><path d="M72.79 145.93v-72.1H.918l.007.848c.63 39.063 32.08 70.61 71.02 71.245l.844.007z" class="J"/><ellipse cx="36.855" cy="36.131" rx="35.937" ry="36.05" class="I"/><ellipse cx="36.855" cy="182.233" rx="35.937" ry="36.05" class="F"/></g><path d="M73.88 218.52v-72.338H0l.007.85c.65 39.192 32.977 70.845 73.006 71.48l.868.007z" class="I"/><path d="M73.88 0v72.338H0l.007-.85C.656 32.295 32.984.642 73.013.007L73.88 0z" class="O"/><path d="M73.88 72.338V0h73.88l-.007.85c-.65 39.192-32.977 70.845-73.006 71.48l-.868.007z" class="H"/><path d="M73.88 73.845v72.338H0l.007-.85c.65-39.192 32.977-70.845 73.006-71.48l.868-.007z" class="F"/><ellipse transform="matrix(1 0 0 -1 0 364.704226)" cx="109.313" cy="182.352" rx="35.433" ry="36.169" class="U"/></g></g></g><g transform="translate(636.28 9.042)" class="C D P B"><path d="M0 .754h15.078"/><path d="M0 8.29h15.078"/><path d="M0 15.824h15.078"/></g></g><g class="R"><rect y="761" width="158" height="68" rx="11"/><rect x="176" y="761" width="158" height="68" rx="11"/></g><g filter="url(#C)" transform="translate(280.4 793.6)" class="L"><path fill="#231d1e" d="M0 19.6h2.8v-2.8h5.6v2.8h2.8V2.8H14V0h5.6v2.8h2.8v8.4h11.2V14h5.6v2.8H42v14h-2.8v5.6h-2.8v8.4h-5.6V42H28v2.8H14v-5.6h-2.8v-2.8H8.4v-2.8H5.6V28H2.8v-2.8H0z"/><path d="M2.8 19.6h5.6v2.8h2.8v2.8H14V2.8h5.6v16.8h2.8V14H28v5.6h2.8V14h2.8v5.6h2.8v-2.8h2.8v14h-2.8v5.6h-2.8V42h-2.8v-2.8H28V42H16.8v-2.8H14v-2.8h-2.8v-2.8H8.4V28H5.6v-2.8H2.8z" class="E"/><g fill="#231d1e"><path d="M19.6 25.2h2.8v11.2h-2.8z"/><path d="M25.2 25.2H28v11.2h-2.8z"/><path d="M30.8 25.2h2.8v11.2h-2.8z"/></g></g><path d="M80.893 782.76L65.32 798.335l10.345 10.345 15.575-15.573zm12.687 7.92l1.298-1.296a7.27 7.27 0 0 0-.002-10.263 7.27 7.27 0 0 0-10.263 0l-1.294 1.298 10.26 10.26zm-21.06 19.947l-9.284 2.32c-.614.15-1.262-.03-1.7-.475s-.627-1.095-.474-1.7l2.32-9.283 9.147 9.147zm187.844-24.445v-9.318l9.318 9.318h-9.318zM263 775h-13.817c-2.056 0-3.727 1.674-3.727 3.727v26.1a3.73 3.73 0 0 0 3.727 3.727h18.636a3.73 3.73 0 0 0 3.727-3.727v-21.272L263 775zm-21.273 7.455H238v29.818a3.73 3.73 0 0 0 3.727 3.727h22.364v-3.727h-22.364v-29.818z" class="E"/><g transform="translate(479 105)" class="Z"><rect width="207" height="133" rx="4.546" class="Q"/><g class="C D B"><circle cx="6.5" cy="5.5" r="2.5"/><circle cx="13.5" cy="5.5" r="2.5"/><circle cx="20.5" cy="5.5" r="2.5"/></g><g transform="translate(0 10)"><mask id="Y" class="E"><use xlink:href="#E"/></mask><use xlink:href="#E" class="E"/><g class="a"><mask id="Z" class="E"><use xlink:href="#F"/></mask><use xlink:href="#F" class="R"/><g style="mix-blend-mode:luminosity" mask="url(#Z)" class="M"><g transform="translate(-140.498 -32.393)"><g transform="translate(173.983)" class="C D K"><path d="M173.182 87.327V.1H86.774l.008 1.026c.76 47.26 38.568 85.427 85.384 86.194l1.015.008z"/><path d="M173.182 89.32v87.228H86.774l.008-1.026c.76-47.26 38.568-85.427 85.384-86.194l1.015-.008z"/><path d="M86.774 176.548V89.32H.367l.008 1.026c.76 47.26 38.568 85.427 85.384 86.194l1.015.008z"/><ellipse cx="43.571" cy="43.712" rx="43.204" ry="43.614"/></g><path d="M89.684 87.32V0h89.45l-.01 1.027c-.786 47.3-39.926 85.518-88.39 86.285l-1.05.008z" class="C D K"/><path d="M89.684 89.668v87.32H.234l.01-1.027c.786-47.3 39.926-85.518 88.39-86.285l1.05-.008z" class="F"/></g></g><g class="D"><path d="M75.622 54.276v-2.768h-6.326V39.96H66.08v14.315h9.54zm6.676.29c.81 0 1.542-.138 2.195-.413s1.212-.664 1.68-1.167.824-1.11 1.072-1.818.37-1.49.37-2.345-.13-1.632-.392-2.334-.625-1.3-1.092-1.797a4.89 4.89 0 0 0-1.679-1.157c-.653-.275-1.37-.413-2.153-.413-.77 0-1.48.138-2.133.413s-1.216.66-1.7 1.157-.845 1.095-1.113 1.797-.402 1.48-.402 2.334.13 1.635.392 2.345.625 1.315 1.092 1.818 1.027.892 1.68 1.167 1.377.413 2.174.413zm0-2.644a1.86 1.86 0 0 1-1.628-.837c-.385-.558-.577-1.312-.577-2.262s.192-1.697.577-2.24.927-.816 1.628-.816 1.24.272 1.618.816.567 1.29.567 2.24-.19 1.704-.567 2.262-.917.837-1.618.837zm12.508 2.644c.81 0 1.542-.138 2.195-.413s1.212-.664 1.68-1.167.824-1.11 1.072-1.818.37-1.49.37-2.345-.13-1.632-.392-2.334-.625-1.3-1.092-1.797a4.89 4.89 0 0 0-1.679-1.157c-.653-.275-1.37-.413-2.153-.413-.77 0-1.48.138-2.133.413s-1.216.66-1.7 1.157-.845 1.095-1.113 1.797-.402 1.48-.402 2.334.13 1.635.392 2.345.625 1.315 1.092 1.818 1.027.892 1.68 1.167 1.377.413 2.174.413zm0-2.644a1.86 1.86 0 0 1-1.628-.837c-.385-.558-.577-1.312-.577-2.262s.192-1.697.577-2.24.927-.816 1.628-.816 1.24.272 1.618.816.567 1.29.567 2.24-.19 1.704-.567 2.262-.917.837-1.618.837zm10.757 2.355v-4.75c.343.275.7.613 1.04 1.012l1 1.25.896 1.3.752 1.188h3.524l-.865-1.508-1.133-1.653-1.278-1.6c-.44-.516-.865-.96-1.278-1.332l2.277-2.365 2.133-2.406h-3.647l-.7.826-.855 1.002-.938 1.064-.938 1.033v-9.09l-3.07.496v15.534h3.07zm10.386-12.187c.495 0 .924-.162 1.288-.485s.546-.768.546-1.332-.182-1.01-.546-1.332-.793-.485-1.288-.485-.924.162-1.288.485-.546.768-.546 1.332.182 1.01.546 1.332.793.485 1.288.485zm1.545 12.187V43.41h-3.07v10.865h3.07zm5.955 0V45.89l.66-.072.7-.03c.714 0 1.202.207 1.463.62s.392 1.115.392 2.107h0v5.763h3.07V48.14c0-.744-.076-1.418-.227-2.024s-.405-1.13-.762-1.57-.84-.782-1.453-1.022-1.377-.36-2.298-.36c-.907 0-1.772.065-2.596.196l-2.02.423v10.493h3.07zm12.9 3.883c1.882 0 3.273-.43 4.173-1.29s1.35-2.18 1.35-3.956h0v-9.13l-.938-.238-1.102-.196-1.164-.134-1.144-.052c-.865 0-1.642.127-2.33.382s-1.267.616-1.74 1.084-.835 1.03-1.082 1.684-.37 1.38-.37 2.18c0 1.597.398 2.84 1.195 3.728s1.944 1.332 3.44 1.332c.412 0 .793-.038 1.144-.114s.7-.19 1.02-.34h0v.392c0 .606-.182 1.102-.546 1.487s-.986.578-1.865.578c-.673 0-1.274-.055-1.803-.165s-1.034-.262-1.515-.454h0l-.536 2.582c.563.193 1.175.348 1.834.465s1.32.176 1.978.176zm.865-7.085c-1.387 0-2.08-.86-2.08-2.582 0-.826.2-1.508.598-2.045s1.003-.806 1.813-.806l.72.03.536.072v4.916c-.192.1-.426.207-.7.29s-.57.124-.886.124zM67.4 58.52c.495 0 .924-.162 1.288-.485s.546-.768.546-1.332-.182-1.01-.546-1.332-.793-.485-1.288-.485-.924.162-1.288.485-.546.768-.546 1.332.182 1.01.546 1.332.793.485 1.288.485zm1.545 12.187V59.842h-3.07v10.865h3.07zm5.955 0V62.32l.66-.072.7-.03c.714 0 1.202.207 1.463.62s.392 1.115.392 2.107h0v5.763h3.07v-6.135c0-.744-.076-1.418-.227-2.024s-.405-1.13-.762-1.57-.84-.782-1.453-1.022-1.377-.36-2.298-.36c-.907 0-1.772.065-2.596.196l-2.02.423v10.493h3.07zm13.25.248c.66 0 1.216-.055 1.67-.165a8.72 8.72 0 0 0 1.236-.392h0L90.623 68c-.288.1-.608.196-.958.258s-.7.093-1.02.093c-.687 0-1.144-.193-1.37-.578s-.34-.902-.34-1.55h0v-3.82h3.69v-2.56h-3.69V56.64l-3.07.496v9.13a8.74 8.74 0 0 0 .196 1.921c.13.578.36 1.07.7 1.477s.77.723 1.32.95 1.243.34 2.08.34zm9.376.04c.81 0 1.542-.138 2.195-.413s1.212-.664 1.68-1.167.824-1.11 1.072-1.818.37-1.49.37-2.345-.13-1.632-.392-2.334-.625-1.3-1.092-1.797a4.89 4.89 0 0 0-1.679-1.157c-.653-.275-1.37-.413-2.153-.413-.77 0-1.48.138-2.133.413s-1.216.66-1.7 1.157-.845 1.095-1.113 1.797-.402 1.48-.402 2.334.13 1.635.392 2.345.625 1.315 1.092 1.818 1.027.892 1.68 1.167 1.377.413 2.174.413zm0-2.644a1.86 1.86 0 0 1-1.628-.837c-.385-.558-.577-1.312-.577-2.262s.192-1.697.577-2.24.927-.816 1.628-.816 1.24.272 1.618.816.567 1.29.567 2.24-.19 1.704-.567 2.262-.917.837-1.618.837zm16.815 2.603c.66 0 1.216-.055 1.67-.165a8.72 8.72 0 0 0 1.236-.392h0L116.814 68c-.288.1-.608.196-.958.258s-.7.093-1.02.093c-.687 0-1.144-.193-1.37-.578s-.34-.902-.34-1.55h0v-3.82h3.69v-2.56h-3.69V56.64l-3.07.496v9.13a8.74 8.74 0 0 0 .196 1.921c.13.578.36 1.07.7 1.477s.77.723 1.32.95 1.243.34 2.08.34zm8.036-.248v-8.263l.65-.155a3.93 3.93 0 0 1 .773-.072c.687 0 1.157.207 1.412.62s.38 1.115.38 2.107h0v5.763h3.07v-6.135c0-.744-.072-1.418-.216-2.024s-.392-1.13-.742-1.57-.817-.782-1.4-1.022-1.315-.36-2.195-.36a4.97 4.97 0 0 0-.938.093 6.35 6.35 0 0 0-.793.196h0v-5.205l-3.07.496v15.534h3.07zm14.28.29a10.8 10.8 0 0 0 1.154-.062l1.082-.155a8.61 8.61 0 0 0 .917-.217c.275-.083.495-.165.66-.248h0l-.412-2.5c-.343.15-.786.28-1.33.382a8.85 8.85 0 0 1-1.659.155c-.88 0-1.58-.186-2.102-.558s-.817-.874-.886-1.508h6.965l.04-.568.02-.59c0-1.832-.446-3.22-1.34-4.162s-2.11-1.415-3.647-1.415c-.66 0-1.302.124-1.927.372a4.84 4.84 0 0 0-1.659 1.095c-.48.482-.87 1.084-1.164 1.807s-.443 1.566-.443 2.53c0 .8.113 1.542.34 2.23s.577 1.284 1.05 1.787 1.072.9 1.793 1.188 1.57.434 2.545.434zm1.484-6.817h-4.06c.04-.262.106-.52.196-.775a2.08 2.08 0 0 1 .381-.671 1.83 1.83 0 0 1 .618-.465c.247-.117.543-.176.886-.176.357 0 .656.062.896.186s.44.282.598.475a1.91 1.91 0 0 1 .35.661c.076.248.12.503.134.764h0zm-68.846 22.96V81.23h5.646v-2.706h-5.646V75.53h6.347v-2.706h-9.56v14.315h3.215zm12.632.248c.907 0 1.772-.065 2.596-.196l2.02-.423V76.273h-3.07v8.387l-.66.072-.7.03c-.714 0-1.202-.22-1.463-.66s-.392-1.157-.392-2.148h0v-5.68h-3.07v6.052a8.63 8.63 0 0 0 .227 2.045c.15.62.405 1.153.762 1.6s.84.795 1.453 1.043 1.377.372 2.298.372zm11.684 0c.66 0 1.216-.055 1.67-.165a8.72 8.72 0 0 0 1.236-.392h0l-.433-2.396c-.288.1-.608.196-.958.258s-.7.093-1.02.093c-.687 0-1.144-.193-1.37-.578s-.34-.902-.34-1.55h0v-3.82h3.69v-2.56h-3.69V73.07l-3.07.496v9.13a8.74 8.74 0 0 0 .196 1.921c.13.578.36 1.07.7 1.477s.77.723 1.32.95 1.243.34 2.08.34zm9.603 0c.907 0 1.772-.065 2.596-.196l2.02-.423V76.273h-3.07v8.387l-.66.072-.7.03c-.714 0-1.202-.22-1.463-.66s-.392-1.157-.392-2.148h0v-5.68h-3.07v6.052a8.63 8.63 0 0 0 .227 2.045c.15.62.405 1.153.762 1.6s.84.795 1.453 1.043 1.377.372 2.298.372zm10.57-.248v-8.304c.137-.04.34-.08.608-.114s.498-.052.7-.052a5.97 5.97 0 0 1 1.195.114l.968.217.515-2.54a3.29 3.29 0 0 0-.598-.176l-.7-.124-.7-.083-.598-.03c-.92 0-1.755.086-2.504.258l-1.947.547v10.287h3.07zm10.633.29a10.8 10.8 0 0 0 1.154-.062l1.082-.155a8.61 8.61 0 0 0 .917-.217c.275-.083.495-.165.66-.248h0l-.412-2.5c-.343.15-.786.28-1.33.382a8.85 8.85 0 0 1-1.659.155c-.88 0-1.58-.186-2.102-.558s-.817-.874-.886-1.508h6.965l.04-.568.02-.59c0-1.832-.446-3.22-1.34-4.162s-2.11-1.415-3.647-1.415c-.66 0-1.302.124-1.927.372a4.84 4.84 0 0 0-1.659 1.095c-.48.482-.87 1.084-1.164 1.807s-.443 1.566-.443 2.53c0 .8.113 1.542.34 2.23s.577 1.284 1.05 1.787 1.072.9 1.793 1.188 1.57.434 2.545.434zm1.484-6.817h-4.06c.04-.262.106-.52.196-.775a2.08 2.08 0 0 1 .381-.671 1.83 1.83 0 0 1 .618-.465c.247-.117.543-.176.886-.176.357 0 .656.062.896.186s.44.282.598.475a1.91 1.91 0 0 1 .35.661c.076.248.12.503.134.764h0z"/><path d="M73.1 34.09v-1.044h-5.973v-.037a2.08 2.08 0 0 1 .21-.888 5.06 5.06 0 0 1 .566-.915c.237-.31.505-.623.804-.934l.922-.925 1.114-1.1c.365-.366.69-.745.977-1.135a5.64 5.64 0 0 0 .685-1.218 3.55 3.55 0 0 0 .256-1.346c0-1.074-.31-1.913-.93-2.518s-1.546-.906-2.776-.906a4.28 4.28 0 0 0-1.26.174c-.377.116-.71.253-.995.412s-.524.32-.712.485l-.393.375.62.824c.073-.073.19-.177.347-.31s.35-.265.575-.394.5-.24.795-.34.65-.146 1.04-.146c.694 0 1.27.186 1.726.558s.685.986.685 1.84c0 .39-.06.75-.183 1.08s-.286.64-.493.934-.447.577-.72.85l-.868.85-1.142 1.1c-.396.378-.755.787-1.078 1.227a6.79 6.79 0 0 0-.795 1.401c-.207.494-.3 1.028-.3 1.602l.01.302.01.137H73.1zm6.685.275c1.29 0 2.292-.568 3.005-1.703s1.068-2.77 1.068-4.907c0-2.148-.356-3.8-1.068-4.925s-1.714-1.703-3.005-1.703c-1.303 0-2.307.568-3.014 1.703s-1.06 2.777-1.06 4.925c0 2.136.356 3.772 1.068 4.907s1.714 1.703 3.005 1.703zm0-1.08c-.536 0-.98-.153-1.333-.458s-.636-.71-.85-1.218-.365-1.092-.457-1.758-.137-1.364-.137-2.096.046-1.43.137-2.096.244-1.254.457-1.767.496-.922.85-1.227.798-.458 1.333-.458c.524 0 .962.153 1.315.458s.64.714.858 1.227.374 1.102.466 1.767.137 1.364.137 2.096-.046 1.43-.137 2.096-.247 1.25-.466 1.758-.505.912-.858 1.218-.79.458-1.315.458zm13.918.806v-1.044H87.74v-.037a2.08 2.08 0 0 1 .21-.888 5.06 5.06 0 0 1 .566-.915c.237-.31.505-.623.804-.934l.922-.925 1.114-1.1c.365-.366.69-.745.977-1.135a5.64 5.64 0 0 0 .685-1.218 3.55 3.55 0 0 0 .256-1.346c0-1.074-.31-1.913-.93-2.518s-1.546-.906-2.776-.906a4.28 4.28 0 0 0-1.26.174c-.377.116-.71.253-.995.412s-.524.32-.712.485l-.393.375.62.824c.073-.073.19-.177.347-.31s.35-.265.575-.394.5-.24.795-.34.65-.146 1.04-.146c.694 0 1.27.186 1.726.558s.685.986.685 1.84c0 .39-.06.75-.183 1.08s-.286.64-.493.934-.447.577-.72.85l-.868.85-1.142 1.1c-.396.378-.755.787-1.078 1.227a6.79 6.79 0 0 0-.795 1.401c-.207.494-.3 1.028-.3 1.602l.01.302.01.137h7.288zm7.982 0V21.4h-.84c-.56.684-1.126 1.224-1.7 1.62a8.14 8.14 0 0 1-1.954.98h0l.347.915c.292-.085.584-.198.877-.34l.84-.44a7.05 7.05 0 0 0 .721-.467c.213-.16.387-.31.52-.458h0V34.09h1.187z"/><rect x="88.514" y="103.752" width="29.505" height="6.573" rx="2" class="C K"/></g></g></g><g transform="translate(197 3)" class="C D P B"><path d="M0 .227h5"/><path d="M0 2.5h5"/><path d="M0 4.773h5"/></g></g><g transform="translate(0 105)" class="Z"><rect width="207" height="133" rx="4.546" class="Q"/><g class="C D B"><circle cx="6.5" cy="5.5" r="2.5"/><circle cx="13.5" cy="5.5" r="2.5"/><circle cx="20.5" cy="5.5" r="2.5"/></g><g transform="translate(0 10)"><mask id="a" class="E"><use xlink:href="#H" href="#E"/></mask><use xlink:href="#H" class="E" href="#E"/><ellipse cx="9.601" cy="5.399" rx="3.044" ry="3.052" class="N b"/><g fill="#14591d" class="N"><rect x="19.67" y="3.756" width="21.543" height="3.286" rx="1.643"/><rect x="48.238" y="3.756" width="21.543" height="3.286" rx="1.643"/><rect x="76.805" y="3.756" width="21.543" height="3.286" rx="1.643"/><rect x="105.373" y="3.756" width="21.543" height="3.286" rx="1.643"/></g><rect x="180.305" y="1.408" width="21.543" height="7.981" rx="3.5" class="N b"/><g class="N"><g transform="translate(0 10.328)"><mask id="b" class="E"><use xlink:href="#G"/></mask><use fill="#ffe156" xlink:href="#G"/><g mask="url(#b)" class="M"><g transform="translate(-257.579 -63.847)"><g transform="translate(191.077)"><g fill="#ff8100"><path d="M312.3 121.48V0H192.014l.012 1.43c1.057 65.817 53.686 118.972 118.853 120.04l1.413.012z"/><path d="M120.277 218.19V96.7H0l.012 1.43c1.057 65.817 53.686 118.972 118.853 120.04l1.413.012z" transform="matrix(-1 0 0 -1 120.276902 314.899208)"/></g><path d="M291.63 177.91V299.4H171.352l.012-1.43C172.42 232.144 225.05 179 290.217 177.922l1.413-.012z" class="H"/><path d="M171.35 299.39V177.91H51.074l.012 1.43c1.057 65.817 53.686 118.972 118.853 120.04l1.413.012z" class="J"/><ellipse cx="170.196" cy="121.3" rx="60.139" ry="60.739" class="I"/><g class="E"><rect x="135.346" y="96.71" width="71.654" height="18.779" rx="9.389"/><rect x="135.346" y="119.244" width="71.654" height="18.779" rx="9.389"/></g></g><path d="M249.618 53.52V175.11H125.51l.012-1.43c1.1-65.878 55.395-119.082 122.636-120.15l1.458-.012z" class="O"/><path d="M124.575 175.11V53.52H248.68l-.012 1.43c-1.1 65.878-55.395 119.082-122.636 120.15l-1.458.012z" class="H"/></g></g></g><rect fill="#ff8100" x="88.982" y="104.691" width="29.505" height="6.573" rx="2"/></g></g><g transform="translate(197 3)" class="C D P B"><path d="M0 .227h5"/><path d="M0 2.5h5"/><path d="M0 4.773h5"/></g></g><g transform="translate(697 105)" class="Z"><rect width="207" height="133" rx="4.546" class="Q"/><g class="C D B"><circle cx="6.5" cy="5.5" r="2.5"/><circle cx="13.5" cy="5.5" r="2.5"/><circle cx="20.5" cy="5.5" r="2.5"/></g><g transform="translate(0 10)"><mask id="c" class="E"><use xlink:href="#K" href="#E"/></mask><use xlink:href="#K" class="R" href="#E"/><g class="G"><g transform="translate(-3 -3)"><mask id="d" class="E"><use xlink:href="#H"/></mask><use xlink:href="#H" class="C D K P"/><g mask="url(#d)" class="M"><g transform="translate(-269 -144)"><g transform="translate(248.812)"><path d="M265.09 125.712V0h-123.6l.012 1.48c1.086 68.1 55.17 123.117 122.135 124.22l1.452.012z" class="b"/><g class="C D K"><path d="M247.226 130.67V256.38h-123.6l.012-1.48c1.086-68.1 55.17-123.117 122.135-124.22l1.452-.012z"/><path d="M123.626 256.38V130.67H.028l.012 1.48c1.086 68.1 55.17 123.117 122.135 124.22l1.452.012z"/></g><ellipse fill="#b33f62" cx="61.828" cy="72.086" rx="61.8" ry="62.856"/></g><path d="M256.512 1.943V127.77H128.978l.012-1.48C130.1 58.12 185.915 3.06 255.013 1.956l1.498-.012z" class="O"/><path d="M128.015 127.77V1.943H255.55l-.012 1.48c-1.12 68.173-56.925 123.23-126.023 124.336l-1.498.012z" class="H"/><path d="M127.534 131.172V257H0l.012-1.48c1.12-68.173 56.925-123.23 126.023-124.336l1.498-.012z" class="F"/></g></g></g><g class="C D K"><ellipse cx="45.193" cy="5.399" rx="3.044" ry="3.052"/><rect x="55.262" y="3.756" width="21.543" height="3.286" rx="1.643"/><rect x="33.251" y="105.63" width="21.543" height="3.286" rx="1.643"/><rect x="83.83" y="3.756" width="21.543" height="3.286" rx="1.643"/><rect x="33.251" y="114.08" width="69.312" height="3.286" rx="1.643"/><rect x="33.251" y="118.305" width="69.312" height="3.286" rx="1.643"/><rect x="112.398" y="3.756" width="21.543" height="3.286" rx="1.643"/><rect x="107.715" y="114.08" width="69.312" height="3.286" rx="1.643"/><rect x="107.715" y="118.305" width="69.312" height="3.286" rx="1.643"/></g></g><g fill="#f4f2ee" class="G"><rect x="33.251" y="122.531" width="69.312" height="3.286" rx="1.643"/><rect x="107.715" y="122.531" width="69.312" height="3.286" rx="1.643"/><rect x="33.251" y="126.756" width="69.312" height="3.286" rx="1.643"/><rect x="107.715" y="126.756" width="69.312" height="3.286" rx="1.643"/><rect x="33.251" y="123.469" width="69.312" height="3.286" rx="1.643"/><rect x="107.715" y="123.469" width="69.312" height="3.286" rx="1.643"/></g><rect x="140.966" y="3.756" width="21.543" height="3.286" rx="1.643" class="C D G K"/><g class="G D"><g transform="translate(25.29 19.718)"><path d="M6.68 23.05v-1.938H2.25V13.03H0v10.02h6.68zm4.674.202c.567 0 1.08-.096 1.536-.29s.85-.465 1.176-.817.577-.776.75-1.272.26-1.043.26-1.64-.09-1.142-.274-1.634-.438-.91-.764-1.258-.72-.617-1.176-.8-.96-.29-1.507-.29a3.8 3.8 0 0 0-1.493.289c-.457.193-.85.463-1.183.8s-.59.766-.78 1.258-.28 1.036-.28 1.634a4.72 4.72 0 0 0 .274 1.641c.183.496.438.92.764 1.272s.72.624 1.176.817.964.29 1.522.29zm0-1.85c-.5 0-.87-.195-1.14-.586s-.404-.918-.404-1.583.135-1.188.404-1.57.65-.57 1.14-.57.868.2 1.132.57.397.904.397 1.57-.132 1.193-.397 1.583-.642.586-1.132.586zm8.756 1.85c.567 0 1.08-.096 1.536-.29s.85-.465 1.176-.817.577-.776.75-1.272.26-1.043.26-1.64-.09-1.142-.274-1.634-.438-.91-.764-1.258-.72-.617-1.176-.8-.96-.29-1.507-.29a3.8 3.8 0 0 0-1.493.289c-.457.193-.85.463-1.183.8s-.59.766-.78 1.258-.28 1.036-.28 1.634a4.72 4.72 0 0 0 .274 1.641c.183.496.438.92.764 1.272s.72.624 1.176.817.964.29 1.522.29zm0-1.85c-.5 0-.87-.195-1.14-.586s-.404-.918-.404-1.583.135-1.188.404-1.57.65-.57 1.14-.57.868.2 1.132.57.397.904.397 1.57-.132 1.193-.397 1.583-.642.586-1.132.586zm7.53 1.648v-3.326c.24.193.483.43.728.71l.7.875.627.91.526.83h2.467l-.606-1.056-.793-1.157-.894-1.12c-.308-.36-.606-.672-.894-.933l1.594-1.656 1.493-1.685h-2.553l-.483.578-.6.7-.656.745-.656.723V11.83l-2.15.347V23.05h2.15zm7.27-8.53a1.31 1.31 0 0 0 .902-.34c.255-.227.382-.537.382-.933s-.127-.706-.382-.933a1.31 1.31 0 0 0-.902-.34 1.31 1.31 0 0 0-.902.34c-.255.227-.382.537-.382.933s.127.706.382.933a1.31 1.31 0 0 0 .902.34zm1.082 8.53v-7.606h-2.15v7.606h2.15zm4.17 0v-5.87l.462-.05.5-.022c.5 0 .84.145 1.024.434s.274.78.274 1.475h0v4.034h2.15v-4.294a5.86 5.86 0 0 0-.159-1.417c-.106-.424-.284-.8-.534-1.1s-.59-.547-1.017-.716-.964-.253-1.608-.253a11.59 11.59 0 0 0-1.817.137l-1.414.296v7.345h2.15zm9.03 2.718c1.317 0 2.29-.3 2.92-.904s.945-1.525.945-2.77h0v-6.39l-.656-.166-.772-.137-.815-.094-.8-.036c-.606 0-1.15.09-1.63.268s-.887.43-1.22.76-.584.72-.757 1.178-.26.966-.26 1.525c0 1.118.28 1.988.837 2.6s1.36.933 2.41.933a3.79 3.79 0 0 0 .801-.08c.245-.053.483-.133.714-.24h0v.275c0 .424-.127.77-.382 1.04s-.7.405-1.305.405c-.47 0-.892-.04-1.262-.116a6.29 6.29 0 0 1-1.06-.318h0l-.375 1.807a8.61 8.61 0 0 0 1.284.325 7.91 7.91 0 0 0 1.385.123zm.606-4.96c-.97 0-1.457-.602-1.457-1.807 0-.578.14-1.056.418-1.43s.702-.564 1.27-.564l.505.022.375.05v3.44c-.135.077-.298.145-.5.202s-.4.087-.62.087zm8.266-6.528a1.31 1.31 0 0 0 .902-.34c.255-.227.382-.537.382-.933s-.127-.706-.382-.933a1.31 1.31 0 0 0-.902-.34 1.31 1.31 0 0 0-.902.34c-.255.227-.382.537-.382.933s.127.706.382.933a1.31 1.31 0 0 0 .902.34zm1.082 8.53v-7.606h-2.15v7.606h2.15zm4.17 0v-5.87l.462-.05.5-.022c.5 0 .84.145 1.024.434s.274.78.274 1.475h0v4.034h2.15v-4.294a5.86 5.86 0 0 0-.159-1.417c-.106-.424-.284-.8-.534-1.1s-.59-.547-1.017-.716-.964-.253-1.608-.253a11.59 11.59 0 0 0-1.817.137l-1.414.296v7.345h2.15zm9.275.174c.462 0 .85-.04 1.168-.116s.606-.17.865-.275h0l-.303-1.677c-.202.077-.426.137-.67.18s-.483.065-.714.065c-.48 0-.8-.135-.96-.405s-.238-.63-.238-1.084h0V17h2.582v-1.793h-2.582v-2.24l-2.15.347v6.39c0 .492.046.94.137 1.345s.252.75.483 1.034.54.506.923.665.87.24 1.457.24zm6.563.03c.567 0 1.08-.096 1.536-.29s.85-.465 1.176-.817.577-.776.75-1.272.26-1.043.26-1.64-.09-1.142-.274-1.634-.438-.91-.764-1.258-.72-.617-1.176-.8-.96-.29-1.507-.29a3.8 3.8 0 0 0-1.493.289c-.457.193-.85.463-1.183.8s-.59.766-.78 1.258-.28 1.036-.28 1.634a4.72 4.72 0 0 0 .274 1.641c.183.496.438.92.764 1.272s.72.624 1.176.817.964.29 1.522.29zm0-1.85c-.5 0-.87-.195-1.14-.586s-.404-.918-.404-1.583.135-1.188.404-1.57.65-.57 1.14-.57.868.2 1.132.57.397.904.397 1.57-.132 1.193-.397 1.583-.642.586-1.132.586zm10.6 1.966c.462 0 .85-.04 1.168-.116s.606-.17.865-.275h0l-.303-1.677c-.202.077-.426.137-.67.18s-.483.065-.714.065c-.48 0-.8-.135-.96-.405s-.238-.63-.238-1.084h0v-2.675h2.582v-1.793h-2.582V13.1l-2.15.347v6.39c0 .492.046.94.137 1.345s.252.75.483 1.034.54.506.923.665.87.24 1.457.24zm5.626-.174v-5.784l.454-.108a2.75 2.75 0 0 1 .541-.051c.48 0 .8.145.988.434s.267.78.267 1.475h0v4.034h2.15v-4.294c0-.52-.05-.993-.15-1.417a2.77 2.77 0 0 0-.519-1.099c-.245-.308-.572-.547-.98-.716s-.92-.253-1.536-.253a3.48 3.48 0 0 0-.656.065c-.226.043-.41.09-.555.137h0v-3.644l-2.15.347v10.874h2.15zm9.996.202a7.56 7.56 0 0 0 .808-.043l.757-.108c.236-.043.45-.094.642-.152s.346-.116.462-.174h0l-.288-1.75c-.24.106-.55.195-.93.268s-.767.108-1.16.108c-.615 0-1.106-.13-1.47-.4a1.43 1.43 0 0 1-.62-1.056h4.875l.03-.398.014-.412c0-1.282-.313-2.253-.938-2.914s-1.476-1-2.553-1a3.63 3.63 0 0 0-1.349.26 3.39 3.39 0 0 0-1.161.766c-.337.337-.608.76-.815 1.265s-.3 1.097-.3 1.77c0 .56.08 1.08.238 1.562a3.3 3.3 0 0 0 .736 1.251c.332.352.75.63 1.255.83s1.1.304 1.78.304zm1.04-4.772h-2.842a3.09 3.09 0 0 1 .137-.542c.063-.178.15-.335.267-.47a1.28 1.28 0 0 1 .433-.325c.173-.082.38-.123.62-.123a1.36 1.36 0 0 1 .627.13c.168.087.308.198.418.333s.192.29.245.463a2.23 2.23 0 0 1 .094.535h0zm8.348 4.308V18.56h3.952v-1.894h-3.952V14.57h4.443v-1.894h-6.693v10.02h2.25zm8.842.174a11.59 11.59 0 0 0 1.817-.137l1.414-.296V15.1h-2.15v5.87l-.462.05-.5.022c-.5 0-.84-.154-1.024-.463s-.274-.8-.274-1.504h0V15.1h-2.15v4.237a6.04 6.04 0 0 0 .159 1.431c.106.434.284.807.534 1.12s.59.557 1.017.73.964.26 1.608.26zm8.18 0c.462 0 .85-.04 1.168-.116s.606-.17.865-.275h0l-.303-1.677c-.202.077-.426.137-.67.18s-.483.065-.714.065c-.48 0-.8-.135-.96-.405s-.238-.63-.238-1.084h0v-2.675h2.582V15.1h-2.582v-2.24l-2.15.347v6.39c0 .492.046.94.137 1.345s.252.75.483 1.034.54.506.923.665.87.24 1.457.24zm6.722 0a11.59 11.59 0 0 0 1.817-.137l1.414-.296V15.1h-2.15v5.87l-.462.05-.5.022c-.5 0-.84-.154-1.024-.463s-.274-.8-.274-1.504h0V15.1h-2.15v4.237a6.04 6.04 0 0 0 .159 1.431c.106.434.284.807.534 1.12s.59.557 1.017.73.964.26 1.608.26zm7.4-.174v-5.813c.096-.03.238-.055.426-.08s.35-.036.483-.036a4.18 4.18 0 0 1 .837.08l.678.152.36-1.78c-.115-.048-.255-.09-.418-.123l-.5-.087-.5-.058-.418-.022c-.644 0-1.228.06-1.753.18l-1.363.383v7.2h2.15zm7.443.202a7.56 7.56 0 0 0 .808-.043l.757-.108c.236-.043.45-.094.642-.152s.346-.116.462-.174h0l-.288-1.75c-.24.106-.55.195-.93.268s-.767.108-1.16.108c-.615 0-1.106-.13-1.47-.4a1.43 1.43 0 0 1-.62-1.056h4.875l.03-.398.014-.412c0-1.282-.313-2.253-.938-2.914s-1.476-1-2.553-1a3.63 3.63 0 0 0-1.349.26 3.39 3.39 0 0 0-1.161.766c-.337.337-.608.76-.815 1.265s-.3 1.097-.3 1.77c0 .56.08 1.08.238 1.562a3.3 3.3 0 0 0 .736 1.251c.332.352.75.63 1.255.83s1.1.304 1.78.304zm1.04-4.772h-2.842a3.09 3.09 0 0 1 .137-.542c.063-.178.15-.335.267-.47a1.28 1.28 0 0 1 .433-.325c.173-.082.38-.123.62-.123a1.36 1.36 0 0 1 .627.13c.168.087.308.198.418.333s.192.29.245.463a2.23 2.23 0 0 1 .094.535h0z"/></g></g></g><g class="D"><g transform="translate(62 69)"><rect width="39.859" height="36" rx="6" class="C K R"/><g transform="translate(11.254 5.143)"><path d="M3.706 6.4v-.516H.757v-.018a1.03 1.03 0 0 1 .104-.439 2.5 2.5 0 0 1 .28-.453 5.42 5.42 0 0 1 .397-.462l.455-.457.55-.543c.18-.18.34-.368.482-.56a2.79 2.79 0 0 0 .338-.602 1.76 1.76 0 0 0 .126-.665c0-.53-.153-.946-.46-1.245S2.266 0 1.66 0a2.11 2.11 0 0 0-.622.086C.85.143.687.21.546.3S.287.448.194.53L0 .715l.307.407A3.03 3.03 0 0 1 .478.969C.556.902.65.837.762.774s.242-.12.392-.167a1.68 1.68 0 0 1 .514-.072c.343 0 .627.092.852.276s.338.487.338.9a1.53 1.53 0 0 1-.09.534c-.06.163-.14.317-.243.462s-.22.285-.356.42l-.428.42-.564.543c-.195.187-.373.39-.532.607a3.36 3.36 0 0 0-.392.693C.15 5.645.1 5.91.1 6.192l.005.15.005.068h3.598zm3.3.136c.637 0 1.132-.28 1.483-.842s.528-1.37.528-2.426c0-1.062-.176-1.874-.528-2.435S7.644 0 7.007 0c-.643 0-1.14.28-1.488.842s-.523 1.373-.523 2.435c0 1.056.176 1.865.528 2.426s.846.842 1.483.842zm0-.534a.97.97 0 0 1-.658-.226c-.174-.15-.314-.352-.42-.602s-.18-.54-.225-.87-.068-.674-.068-1.037.023-.708.068-1.037.12-.62.225-.874.245-.456.42-.607a.97.97 0 0 1 .658-.226c.26 0 .475.075.65.226s.316.353.424.607.185.545.23.874.068.674.068 1.037-.023.708-.068 1.037a3.33 3.33 0 0 1-.23.869 1.64 1.64 0 0 1-.424.602c-.174.15-.39.226-.65.226zm6.872.398v-.516h-2.95v-.018a1.03 1.03 0 0 1 .104-.439 2.5 2.5 0 0 1 .28-.453 5.42 5.42 0 0 1 .397-.462l.455-.457.55-.543c.18-.18.34-.368.482-.56a2.79 2.79 0 0 0 .338-.602 1.76 1.76 0 0 0 .126-.665c0-.53-.153-.946-.46-1.245S12.44 0 11.83 0a2.11 2.11 0 0 0-.622.086c-.186.057-.35.125-.49.204s-.26.158-.352.24l-.194.186.307.407a3.03 3.03 0 0 1 .171-.154c.078-.066.173-.13.284-.195s.242-.12.392-.167a1.68 1.68 0 0 1 .514-.072c.343 0 .627.092.852.276s.338.487.338.9a1.53 1.53 0 0 1-.09.534c-.06.163-.14.317-.243.462s-.22.285-.356.42l-.428.42-.564.543c-.195.187-.373.39-.532.607a3.36 3.36 0 0 0-.392.693c-.102.244-.153.508-.153.792l.005.15.005.068h3.598zm3.94 0V.136h-.415c-.277.338-.556.605-.84.8s-.604.358-.965.484h0l.17.453a2.84 2.84 0 0 0 .433-.167l.415-.217a3.48 3.48 0 0 0 .356-.231 1.83 1.83 0 0 0 .257-.226h0V6.4h.586z"/><path d="M8.44 25.247v-1.204H1.725V24c0-.338.08-.68.236-1.025s.37-.697.637-1.057a12.57 12.57 0 0 1 .904-1.078l1.037-1.067 1.253-1.268c.41-.423.777-.86 1.1-1.3s.578-.92.77-1.405.288-1.004.288-1.553c0-1.24-.35-2.208-1.047-2.906s-1.74-1.046-3.122-1.046c-.52 0-.993.067-1.417.2s-.798.292-1.12.475-.59.37-.8.56L0 11.955l.698.95c.082-.085.212-.204.4-.36s.394-.306.647-.454.55-.278.893-.39.732-.17 1.17-.17c.78 0 1.427.215 1.94.645s.77 1.138.77 2.124c0 .45-.068.866-.205 1.247s-.322.74-.554 1.078-.503.666-.81.983l-.976.983-1.284 1.268c-.445.437-.85.91-1.212 1.416S.808 22.32.575 22.89s-.35 1.187-.35 1.85l.01.35.01.158H8.44zm9.38 0V10.753h-.965c-.643.78-1.293 1.398-1.95 1.85s-1.405.826-2.244 1.12h0l.398 1.046c.335-.098.67-.227 1.006-.387l.965-.502a8.1 8.1 0 0 0 .828-.533c.245-.18.444-.356.598-.523h0v12.423h1.363z"/></g><g transform="translate(43.141)" class="C K"><rect width="39.859" height="36" rx="6" class="R"/><rect x="3.282" y="6.545" width="32.825" height="3.273" rx="1.636"/><rect x="3.282" y="10.753" width="32.825" height="3.273" rx="1.636"/><rect x="3.282" y="14.961" width="32.825" height="3.273" rx="1.636"/><rect x="3.282" y="25.247" width="32.825" height="5.61" rx="2"/></g></g><g transform="translate(197 3)" class="C P B"><path d="M0 .227h5"/><path d="M0 2.5h5"/><path d="M0 4.773h5"/></g></g></g><g transform="translate(218 105)" class="Z"><rect width="207" height="133" rx="4.546" class="Q"/><g class="C D B"><circle cx="6.5" cy="5.5" r="2.5"/><circle cx="13.5" cy="5.5" r="2.5"/><circle cx="20.5" cy="5.5" r="2.5"/></g><g transform="translate(0 10)"><mask id="e" class="E"><use xlink:href="#N" href="#E"/></mask><use xlink:href="#N" class="E" href="#E"/><g fill="#000" class="S"><rect x="16.86" y="43.191" width="71.654" height="18.779" rx="9.389"/><rect x="16.86" y="65.725" width="71.654" height="18.779" rx="9.389"/></g><g class="F S"><path d="M24.222 32.393V31.35H18.25v-.037a2.08 2.08 0 0 1 .21-.888 5.06 5.06 0 0 1 .566-.915c.237-.31.505-.623.804-.934l.922-.925 1.114-1.1c.365-.366.69-.745.977-1.135a5.64 5.64 0 0 0 .685-1.218 3.55 3.55 0 0 0 .256-1.346c0-1.074-.3-1.913-.93-2.518s-1.546-.906-2.776-.906a4.28 4.28 0 0 0-1.26.174c-.377.116-.71.253-.995.412s-.524.32-.712.485l-.393.375.62.824c.073-.073.19-.177.347-.31s.35-.265.575-.394.5-.24.795-.34.65-.146 1.04-.146c.694 0 1.27.186 1.726.558s.685.986.685 1.84c0 .39-.06.75-.183 1.08s-.286.64-.493.934-.447.577-.72.85l-.868.85-1.142 1.1c-.396.378-.755.787-1.078 1.227a6.79 6.79 0 0 0-.795 1.401c-.207.494-.31 1.028-.31 1.602l.01.302.01.137h7.288zm6.685.275c1.29 0 2.292-.568 3.005-1.703s1.068-2.77 1.068-4.907c0-2.148-.356-3.8-1.068-4.925s-1.714-1.703-3.005-1.703c-1.303 0-2.307.568-3.014 1.703s-1.06 2.777-1.06 4.925c0 2.136.356 3.772 1.068 4.907s1.714 1.703 3.005 1.703zm0-1.08c-.536 0-.98-.153-1.333-.458s-.636-.71-.85-1.218-.365-1.092-.457-1.758-.137-1.364-.137-2.096.046-1.43.137-2.096.244-1.254.457-1.767.496-.922.85-1.227.798-.458 1.333-.458c.524 0 .962.153 1.315.458s.64.714.858 1.227.374 1.102.466 1.767.137 1.364.137 2.096-.046 1.43-.137 2.096-.247 1.25-.466 1.758-.505.912-.858 1.218-.79.458-1.315.458zm13.918.806V31.35h-5.973v-.037a2.08 2.08 0 0 1 .21-.888 5.06 5.06 0 0 1 .566-.915c.237-.31.505-.623.804-.934l.922-.925 1.114-1.1c.365-.366.69-.745.977-1.135a5.64 5.64 0 0 0 .685-1.218 3.55 3.55 0 0 0 .256-1.346c0-1.074-.3-1.913-.93-2.518s-1.546-.906-2.776-.906a4.28 4.28 0 0 0-1.26.174c-.377.116-.71.253-.995.412s-.524.32-.712.485l-.393.375.62.824c.073-.073.19-.177.347-.31s.35-.265.575-.394.5-.24.795-.34.65-.146 1.04-.146c.694 0 1.27.186 1.726.558s.685.986.685 1.84c0 .39-.06.75-.183 1.08s-.286.64-.493.934-.447.577-.72.85l-.868.85-1.142 1.1c-.396.378-.755.787-1.078 1.227a6.79 6.79 0 0 0-.795 1.401c-.207.494-.3 1.028-.3 1.602l.01.302.01.137h7.288zm7.982 0V19.705h-.84c-.56.684-1.126 1.224-1.7 1.62a8.14 8.14 0 0 1-1.954.98h0l.347.915c.292-.085.584-.198.877-.34l.84-.44a7.05 7.05 0 0 0 .721-.467c.213-.16.387-.31.52-.458h0v10.876h1.187z" class="L"/><rect x="88.514" y="99.527" width="29.505" height="6.573" rx="2"/></g><g class="M S"><g transform="translate(105.373 17.37)"><g transform="translate(44.491)"><path d="M44.934 22.486V.025H22.6l.002.264c.196 12.17 9.964 21.997 22.06 22.194l.262.002z" class="T"/><path d="M44.934 23v22.46H22.6l.002-.264c.196-12.17 9.964-21.997 22.06-22.194h.262z" class="H"/><path d="M22.61 45.46V23H.285l.002.264c.196 12.17 9.964 21.997 22.06 22.194l.262.002z" class="J"/><ellipse cx="11.448" cy="11.255" rx="11.162" ry="11.23" class="I"/><ellipse cx="11.448" cy="56.768" rx="11.162" ry="11.23" class="F"/></g><path d="M22.948 68.073V45.538H0l.002.265c.202 12.21 10.243 22.07 22.676 22.267l.27.002z" class="I"/><path d="M22.948 0v22.534H0l.002-.265C.204 10.06 10.245.2 22.678.002l.27-.002z" class="O"/><path d="M22.948 22.534V0h22.948l-.002.265c-.202 12.21-10.243 22.07-22.676 22.267l-.27.002z" class="H"/><path d="M22.948 23.004v22.534H0l.002-.265c.202-12.21 10.243-22.07 22.676-22.267l.27-.002z" class="F"/><ellipse transform="matrix(1 0 0 -1 0 113.610688)" cx="33.954" cy="56.805" rx="11.006" ry="11.267" class="U"/></g></g><path d="M-34.927 57.744c12.068 7.472 19.47 25.385 22.2 53.736l.08.862-66.97 1.268c.123-13.7 1.522-24.558 4.197-32.602 1.367-4.1 5.97-11.43 13.812-21.958l.15-.202c10.266.545 19.14.1 26.496-1.1l.032-.006z" class="J S"/></g><g transform="translate(197 3)" class="C D P B"><path d="M0 .227h5"/><path d="M0 2.5h5"/><path d="M0 4.773h5"/></g></g><path d="M492 41l-13 10.683v8.115a3.2 3.2 0 0 0 1.716 2.824c1.053.558 2.337.494 3.338-.157L492 57.24V41zm37.526-10.866v4.517H523.2v-6.3a3.15 3.15 0 0 1 1.532-2.703L539 17.116V3.152a3.15 3.15 0 0 0-1.667-2.778 3.16 3.16 0 0 0-3.243.157l-17.024 11.32L503.08.692c-1.074-.857-2.58-.923-3.726-.16l-18.947 12.6a3.14 3.14 0 0 0-1.405 2.62V27.8l16.892-14.442c1.25-1.07 3.12-1 4.288.167l12.632 12.6a3.15 3.15 0 0 1 .925 2.227v6.3h-6.316v-4.996l-9.638-9.617L479 36.1v7.575l13.768-11.447a3.17 3.17 0 0 1 3.36-.432 3.15 3.15 0 0 1 1.819 2.854v18.484l2.987-1.988 6.486 5.178V40.95h6.316v20.4c1.083.863 1.806 1.638 3.158 1.638 1.522 0 4.844-2.586 6.316-3.566V40.95h6.316v14.285l8.068-5.364a3.15 3.15 0 0 0 1.406-2.62V24.464l-9.474 5.67zM0 52.4C0 57.693 4.23 62 9.43 62H22V46H0v6.4zM69.647 1.355a4.64 4.64 0 0 0-6.553 0L62 2.45 68.553 9l1.094-1.093a4.64 4.64 0 0 0 0-6.55M44.26 20.825L41 31l9.782-3.393L66 11.782 59.476 5zM63 43.25V22.678L55.52 30.1l-14.893 4.925c-2.463.816-4.804-1.5-3.985-3.95L41.6 16.297 45.933 12H9.45C4.24 12 0 16.206 0 21.375V24.5h25.2v9.375h-3.15v-6.25H0V43.25h25.2V62h9.45V43.25h3.15V62h15.75c5.2 0 9.45-4.206 9.45-9.375v-6.25H47.25V43.25H63z" class="R"/><g transform="translate(437 510)"><g filter="url(#I)" transform="translate(.664)"><rect width="783.16" height="502.833" rx="4.546" class="Q"/><g class="C D B"><ellipse cx="25.692" cy="20.361" rx="9.745" ry="9.738"/><ellipse cx="52.27" cy="20.361" rx="9.745" ry="9.738"/><ellipse cx="78.848" cy="20.361" rx="9.745" ry="9.738"/></g><g transform="translate(0 38.951)"><mask id="f" class="E"><use xlink:href="#J"/></mask><use xlink:href="#J" class="E"/><g class="L V"><path d="M97.267 203.692v-9.186H76.205v-38.322H65.502v47.508h31.765zm22.228.96c2.7 0 5.134-.457 7.307-1.37s4.036-2.205 5.59-3.873 2.744-3.68 3.568-6.033 1.235-4.947 1.235-7.78-.435-5.416-1.304-7.747-2.08-4.32-3.636-5.964-3.42-2.925-5.59-3.84-4.562-1.37-7.17-1.37c-2.56 0-4.928.457-7.1 1.37s-4.048 2.194-5.626 3.84-2.813 3.633-3.705 5.964-1.338 4.913-1.338 7.747.435 5.427 1.304 7.78 2.08 4.365 3.636 6.033 3.42 2.96 5.59 3.873 4.585 1.37 7.238 1.37zm0-8.775c-2.333 0-4.14-.925-5.42-2.776s-1.92-4.353-1.92-7.507.64-5.633 1.92-7.438 3.087-2.708 5.42-2.708 4.128.903 5.386 2.708 1.887 4.285 1.887 7.438-.63 5.656-1.887 7.507-3.053 2.776-5.386 2.776zm41.644 8.775c2.7 0 5.134-.457 7.307-1.37s4.036-2.205 5.59-3.873 2.744-3.68 3.568-6.033 1.235-4.947 1.235-7.78-.435-5.416-1.304-7.747-2.08-4.32-3.636-5.964-3.42-2.925-5.59-3.84-4.562-1.37-7.17-1.37c-2.56 0-4.928.457-7.1 1.37s-4.048 2.194-5.626 3.84-2.813 3.633-3.705 5.964-1.338 4.913-1.338 7.747.435 5.427 1.304 7.78 2.08 4.365 3.636 6.033 3.42 2.96 5.59 3.873 4.585 1.37 7.238 1.37zm0-8.775c-2.333 0-4.14-.925-5.42-2.776s-1.92-4.353-1.92-7.507.64-5.633 1.92-7.438 3.087-2.708 5.42-2.708 4.128.903 5.386 2.708 1.887 4.285 1.887 7.438-.63 5.656-1.887 7.507-3.053 2.776-5.386 2.776zm35.812 7.815v-15.767c1.143.914 2.298 2.034 3.465 3.36l3.327 4.148 2.984 4.32 2.504 3.942h11.732l-2.88-5.004-3.773-5.484-4.254-5.313c-1.464-1.714-2.88-3.188-4.254-4.422 2.744-2.696 5.27-5.313 7.58-7.85l7.1-7.987H208.34l-2.298 2.742-2.847 3.325-3.122 3.53-3.122 3.428v-30.164l-10.222 1.645v51.553h10.222zm34.578-40.447c1.647 0 3.076-.537 4.288-1.61s1.818-2.548 1.818-4.422-.606-3.348-1.818-4.422-2.64-1.61-4.288-1.61-3.076.537-4.288 1.61-1.818 2.548-1.818 4.422.606 3.348 1.818 4.422 2.64 1.61 4.288 1.61zm5.145 40.447v-36.06h-10.222v36.06h10.222zm19.827 0V175.86c.64-.09 1.372-.17 2.195-.24a28.18 28.18 0 0 1 2.333-.103c2.378 0 4.002.686 4.87 2.057s1.304 3.702 1.304 6.993h0v19.127h10.222v-20.36c0-2.468-.252-4.707-.755-6.718s-1.35-3.748-2.538-5.2-2.8-2.594-4.837-3.393-4.585-1.2-7.65-1.2c-3.02 0-5.9.217-8.644.65s-4.985.903-6.723 1.405h0v34.826h10.222zm42.947 12.888c6.266 0 10.897-1.428 13.893-4.285s4.494-7.232 4.494-13.128h0v-30.3c-.915-.274-1.955-.537-3.122-.788s-2.4-.468-3.67-.65a71.77 71.77 0 0 0-3.876-.446c-1.304-.114-2.573-.17-3.808-.17-2.88 0-5.466.423-7.753 1.268s-4.22 2.045-5.797 3.6-2.78 3.416-3.602 5.587-1.235 4.582-1.235 7.232c0 5.302 1.326 9.426 3.98 12.374s6.472 4.422 11.457 4.422c1.372 0 2.64-.126 3.808-.377s2.298-.628 3.396-1.13h0v1.303c0 2.01-.606 3.656-1.818 4.936s-3.282 1.92-6.21 1.92c-2.24 0-4.242-.183-6.003-.548s-3.442-.868-5.043-1.508h0l-1.784 8.57c1.875.64 3.91 1.154 6.106 1.542a37.73 37.73 0 0 0 6.586.583zm2.88-23.514c-4.62 0-6.93-2.856-6.93-8.57 0-2.742.663-5.004 2-6.787s3.34-2.674 6.037-2.674c.915 0 1.715.034 2.4.103a22.84 22.84 0 0 1 1.784.24h0v16.316c-.64.366-1.418.686-2.333.96s-1.898.41-2.95.41zm-232.438 24.71c1.647 0 3.076-.537 4.288-1.61S76 213.617 76 211.744s-.606-3.348-1.818-4.422-2.64-1.61-4.288-1.61-3.076.537-4.288 1.61-1.818 2.548-1.818 4.422.606 3.348 1.818 4.422 2.64 1.61 4.288 1.61zm5.145 40.447v-36.06H64.816v36.06h10.222zm19.827 0V230.4c.64-.09 1.372-.17 2.195-.24a28.18 28.18 0 0 1 2.333-.103c2.378 0 4.002.686 4.87 2.057s1.304 3.702 1.304 6.993h0v19.127H115.8v-20.36c0-2.468-.252-4.707-.755-6.718s-1.35-3.748-2.538-5.2-2.8-2.594-4.837-3.393-4.585-1.2-7.65-1.2c-3.02 0-5.9.217-8.644.65s-4.985.903-6.723 1.405h0v34.826h10.222zm44.114.823c2.195 0 4.048-.183 5.557-.548a29.1 29.1 0 0 0 4.116-1.303h0l-1.44-7.952c-.96.366-2.024.65-3.2.857s-2.298.308-3.396.308c-2.287 0-3.808-.64-4.562-1.92s-1.132-2.994-1.132-5.142h0v-12.683h12.28v-8.5h-12.28v-10.626l-10.222 1.645v30.3c0 2.33.217 4.456.652 6.376s1.2 3.553 2.298 4.902 2.56 2.4 4.39 3.153 4.14 1.13 6.93 1.13zm31.216.137c2.7 0 5.134-.457 7.307-1.37s4.036-2.205 5.59-3.873 2.744-3.68 3.568-6.033 1.235-4.947 1.235-7.78-.435-5.416-1.304-7.747-2.08-4.32-3.636-5.964-3.42-2.925-5.59-3.84-4.562-1.37-7.17-1.37c-2.56 0-4.928.457-7.1 1.37s-4.048 2.194-5.626 3.84-2.813 3.633-3.705 5.964-1.338 4.913-1.338 7.747.435 5.427 1.304 7.78 2.08 4.365 3.636 6.033 3.42 2.96 5.59 3.873 4.585 1.37 7.238 1.37zm0-8.775c-2.333 0-4.14-.925-5.42-2.776s-1.92-4.353-1.92-7.507.64-5.633 1.92-7.438 3.087-2.708 5.42-2.708 4.128.903 5.386 2.708 1.887 4.285 1.887 7.438-.63 5.656-1.887 7.507-3.053 2.776-5.386 2.776zm55.983 8.638c2.195 0 4.048-.183 5.557-.548a29.1 29.1 0 0 0 4.116-1.303h0l-1.44-7.952c-.96.366-2.024.65-3.2.857s-2.298.308-3.396.308c-2.287 0-3.808-.64-4.562-1.92s-1.132-2.994-1.132-5.142h0v-12.683h12.28v-8.5h-12.28v-10.626l-10.222 1.645v30.3c0 2.33.217 4.456.652 6.376s1.2 3.553 2.298 4.902 2.56 2.4 4.39 3.153 4.14 1.13 6.93 1.13zm26.756-.823v-27.422c.64-.183 1.36-.354 2.16-.514a13.12 13.12 0 0 1 2.573-.24c2.287 0 3.853.686 4.7 2.057s1.27 3.702 1.27 6.993h0v19.127h10.222v-20.36c0-2.468-.24-4.707-.72-6.718s-1.304-3.748-2.47-5.2-2.72-2.594-4.665-3.393-4.38-1.2-7.307-1.2a16.6 16.6 0 0 0-3.122.308c-1.075.206-1.955.423-2.64.65h0v-17.276l-10.222 1.645v51.553h10.222zm47.544.96c1.28 0 2.56-.07 3.842-.206s2.48-.308 3.602-.514 2.138-.446 3.053-.72 1.647-.548 2.195-.823h0l-1.372-8.295c-1.143.503-2.618.925-4.425 1.268s-3.648.514-5.523.514c-2.927 0-5.26-.617-6.998-1.85s-2.72-2.902-2.95-5.004h23.19l.137-1.885a30.5 30.5 0 0 0 .069-1.954c0-6.078-1.486-10.683-4.46-13.814s-7.02-4.696-12.143-4.696c-2.195 0-4.334.41-6.415 1.234s-3.922 2.034-5.523 3.633-2.893 3.6-3.876 5.998-1.475 5.2-1.475 8.398c0 2.65.377 5.12 1.132 7.404s1.92 4.262 3.5 5.93 3.568 2.982 5.97 3.942 5.226 1.44 8.473 1.44zm4.94-22.623h-13.515a14.61 14.61 0 0 1 .652-2.571 6.9 6.9 0 0 1 1.269-2.228c.55-.64 1.235-1.154 2.058-1.542s1.807-.583 2.95-.583c1.19 0 2.184.206 2.984.617s1.464.937 2 1.577a6.33 6.33 0 0 1 1.166 2.194c.252.823.4 1.668.446 2.537h0zM76.205 312.755v-19.606h18.798v-8.98H76.205v-9.94h21.13v-8.98H65.502v47.508h10.703zm42.056.823c3.02 0 5.9-.217 8.644-.65s4.985-.903 6.723-1.405h0v-34.826h-10.222v27.833c-.64.09-1.372.17-2.195.24a28.18 28.18 0 0 1-2.333.103c-2.378 0-4.002-.73-4.87-2.194s-1.304-3.84-1.304-7.13h0v-18.852H102.48v20.086c0 2.468.252 4.73.755 6.787s1.35 3.828 2.538 5.313 2.8 2.64 4.837 3.462 4.585 1.234 7.65 1.234zm38.9 0c2.195 0 4.048-.183 5.557-.548a29.1 29.1 0 0 0 4.116-1.303h0l-1.44-7.952c-.96.366-2.024.65-3.2.857s-2.298.308-3.396.308c-2.287 0-3.808-.64-4.562-1.92s-1.132-2.994-1.132-5.142h0v-12.683h12.28v-8.5h-12.28V266.07l-10.222 1.645v30.3c0 2.33.217 4.456.652 6.376s1.2 3.553 2.298 4.902 2.56 2.4 4.39 3.153 4.14 1.13 6.93 1.13zm31.97 0c3.02 0 5.9-.217 8.644-.65s4.985-.903 6.723-1.405h0v-34.826h-10.222v27.833c-.64.09-1.372.17-2.195.24a28.18 28.18 0 0 1-2.333.103c-2.378 0-4.002-.73-4.87-2.194s-1.304-3.84-1.304-7.13h0v-18.852H173.35v20.086c0 2.468.252 4.73.755 6.787s1.35 3.828 2.538 5.313 2.8 2.64 4.837 3.462 4.585 1.234 7.65 1.234zm35.195-.823v-27.56c.457-.137 1.132-.263 2.024-.377s1.658-.17 2.298-.17a19.94 19.94 0 0 1 3.979.377 76.29 76.29 0 0 1 3.224.72h0l1.715-8.432c-.55-.23-1.212-.423-2-.583a41.56 41.56 0 0 0-2.333-.411 40.52 40.52 0 0 0-2.333-.274c-.778-.07-1.44-.103-2-.103-3.064 0-5.843.286-8.336.857s-4.654 1.177-6.483 1.817h0v34.14h10.222zm35.4.96c1.28 0 2.56-.07 3.842-.206s2.48-.308 3.602-.514 2.138-.446 3.053-.72 1.647-.548 2.195-.823h0l-1.372-8.295c-1.143.503-2.618.925-4.425 1.268s-3.648.514-5.523.514c-2.927 0-5.26-.617-6.998-1.85s-2.72-2.902-2.95-5.004h23.19l.137-1.885a30.5 30.5 0 0 0 .069-1.954c0-6.078-1.486-10.683-4.46-13.814s-7.02-4.696-12.143-4.696c-2.195 0-4.334.41-6.415 1.234s-3.922 2.034-5.523 3.633-2.893 3.6-3.876 5.998-1.475 5.2-1.475 8.398c0 2.65.377 5.12 1.132 7.404s1.92 4.262 3.5 5.93 3.568 2.982 5.97 3.942 5.226 1.44 8.473 1.44zm4.94-22.623H251.15a14.61 14.61 0 0 1 .652-2.571 6.9 6.9 0 0 1 1.269-2.228c.55-.64 1.235-1.154 2.058-1.542s1.807-.583 2.95-.583c1.19 0 2.184.206 2.984.617s1.464.937 2 1.577a6.33 6.33 0 0 1 1.166 2.194c.252.823.4 1.668.446 2.537h0z" fill="#000"/><g class="F"><path d="M91.64 122.165v-3.936H69.044v-.138c0-1.105.265-2.22.795-3.35s1.244-2.28 2.142-3.452 1.912-2.348 3.04-3.522l3.5-3.487 4.215-4.143a37.23 37.23 0 0 0 3.697-4.281c1.083-1.473 1.946-3.004 2.59-4.592s.967-3.28.967-5.075c0-4.05-1.175-7.216-3.524-9.494s-5.85-3.418-10.504-3.418c-1.75 0-3.34.22-4.768.656s-2.683.955-3.766 1.554-1.98 1.208-2.695 1.83-1.21 1.093-1.486 1.416h0l2.35 3.107c.276-.276.714-.667 1.313-1.174s1.324-1 2.177-1.485 1.854-.91 3.006-1.277 2.465-.552 3.94-.552c2.626 0 4.803.702 6.53 2.106s2.59 3.717 2.59 6.94c0 1.473-.23 2.83-.69 4.074s-1.083 2.417-1.866 3.522-1.693 2.175-2.73 3.21l-3.282 3.21-4.32 4.143a35.32 35.32 0 0 0-4.077 4.626 25.59 25.59 0 0 0-3.006 5.282C64.39 116.33 64 118.345 64 120.508c0 .506.012.886.035 1.14s.035.426.035.518H91.64zm25.29 1.036c4.883 0 8.672-2.14 11.367-6.422s4.042-10.45 4.042-18.505c0-8.102-1.347-14.293-4.042-18.574s-6.484-6.422-11.367-6.422c-4.93 0-8.73 2.14-11.402 6.422s-4.008 10.473-4.008 18.574c0 8.056 1.347 14.224 4.042 18.505s6.484 6.422 11.367 6.422zm0-4.074c-2.027 0-3.708-.575-5.044-1.726s-2.407-2.68-3.213-4.592-1.382-4.12-1.728-6.63-.518-5.144-.518-7.906.173-5.397.518-7.906.92-4.73 1.728-6.663 1.877-3.476 3.213-4.626 3.017-1.726 5.044-1.726c1.98 0 3.64.575 4.975 1.726s2.42 2.693 3.248 4.626 1.417 4.155 1.762 6.663.518 5.144.518 7.906-.173 5.397-.518 7.906-.933 4.718-1.762 6.63-1.912 3.44-3.248 4.592-2.994 1.726-4.975 1.726zm52.656 3.038v-3.936H146.99v-.138c0-1.105.265-2.22.795-3.35s1.244-2.28 2.142-3.452 1.912-2.348 3.04-3.522 2.292-2.336 3.5-3.487l4.215-4.143a37.23 37.23 0 0 0 3.697-4.281c1.083-1.473 1.946-3.004 2.59-4.592s.967-3.28.967-5.075c0-4.05-1.175-7.216-3.524-9.494s-5.85-3.418-10.504-3.418c-1.75 0-3.34.22-4.768.656s-2.683.955-3.766 1.554-1.98 1.208-2.695 1.83-1.21 1.093-1.486 1.416h0l2.35 3.107c.276-.276.714-.667 1.313-1.174s1.324-1 2.177-1.485 1.854-.91 3.006-1.277 2.465-.552 3.94-.552c2.626 0 4.803.702 6.53 2.106s2.59 3.717 2.59 6.94c0 1.473-.23 2.83-.69 4.074s-1.083 2.417-1.866 3.522-1.693 2.175-2.73 3.21l-3.282 3.21-4.32 4.143a35.32 35.32 0 0 0-4.077 4.626 25.59 25.59 0 0 0-3.006 5.282c-.783 1.864-1.175 3.878-1.175 6.042 0 .506.012.886.035 1.14s.035.426.035.518h27.572zm30.198 0V74.314h-3.18c-2.12 2.578-4.26 4.615-6.427 6.11s-4.63 2.727-7.394 3.694h0l1.313 3.452c1.106-.322 2.21-.748 3.317-1.277a51.36 51.36 0 0 0 3.179-1.657c1.014-.575 1.923-1.162 2.73-1.76s1.463-1.174 1.97-1.726h0v41.016h4.492z"/></g></g><rect x="334.881" y="375.348" width="111.627" height="24.787" rx="2" class="F V"/><g class="M V"><g transform="translate(398.667 65.509)"><g transform="translate(169.326)"><path d="M169 84.8V.096H84.54l.008.996c.742 45.893 37.7 82.956 83.46 83.7l.992.008z" class="T"/><path d="M169 86.735v84.705H84.54l.008-.996c.742-45.893 37.7-82.956 83.46-83.7l.992-.008z" class="H"/><path d="M84.54 171.44V86.736H.08l.008.996c.742 45.893 37.7 82.956 83.46 83.7l.992.008z" class="J"/><ellipse cx="42.31" cy="42.448" rx="42.231" ry="42.352" class="I"/><ellipse cx="42.31" cy="214.092" rx="42.231" ry="42.352" class="F"/></g><path d="M86.82 256.724V171.74H0l.008 1C.77 218.783 38.76 255.97 85.8 256.716l1.02.008z" class="I"/><path d="M86.82 0v84.985H0l.008-1C.77 37.94 38.76.755 85.8.008L86.82 0z" class="O"/><path d="M86.82 84.985V0h86.82l-.008 1c-.763 46.044-38.753 83.23-85.792 83.977l-1.02.008z" class="H"/><path d="M86.82 86.755v84.985H0l.008-1C.77 124.696 38.76 87.5 85.8 86.763l1.02-.008z" class="F"/><ellipse transform="matrix(1 0 0 -1 0 428.463706)" cx="128.459" cy="214.232" rx="41.639" ry="42.492" class="U"/></g></g><path d="M-132.142 217.773c45.66 28.18 73.657 95.734 83.994 202.657l.308 3.252-253.375 4.78c.466-51.63 5.76-92.615 15.88-122.952 5.17-15.5 22.59-43.103 52.258-82.81l.57-.76c38.842 2.057 72.413.34 100.245-4.145l.12-.022z" class="J V"/></g><g transform="translate(747.723 10.623)" class="C D P B"><path d="M0 .885h17.72"/><path d="M0 9.738h17.72"/><path d="M0 18.6h17.72"/></g></g><g transform="translate(572 252)"><g transform="translate(0 31.869)" filter="url(#K)"><g transform="translate(0 .348)"><mask id="g" class="E"><use xlink:href="#L"/></mask><use fill="#ffe156" xlink:href="#L"/><g fill="#000" class="L W"><use xlink:href="#M"/><use xlink:href="#N"/></g><use xlink:href="#O" class="F L W"/><g class="M W"><g transform="translate(29.982 166.455)"><g transform="translate(80.855)"><use xlink:href="#P" class="T"/><use xlink:href="#Q" class="H"/><use xlink:href="#R" class="J"/><ellipse cx="20.804" cy="20.418" rx="20.286" ry="20.372" class="I"/><ellipse cx="20.804" cy="102.98" rx="20.286" ry="20.372" class="F"/></g><use xlink:href="#S" class="I"/><use xlink:href="#T" class="O"/><use xlink:href="#U" class="H"/><use xlink:href="#V" class="F"/><ellipse transform="matrix(1 0 0 -1 0 206.094272)" cx="61.705" cy="103.047" rx="20.001" ry="20.439" class="U"/></g></g><use xlink:href="#W" class="J W"/></g></g><g transform="translate(74.418)" filter="url(#K)"><g transform="translate(0 .348)"><mask id="h" class="E"><use xlink:href="#T" href="#L"/></mask><use fill="#ffa300" xlink:href="#T" href="#L"/><g fill="#000" class="L X"><use xlink:href="#M"/><use xlink:href="#N"/></g><use xlink:href="#O" class="F L X"/><g class="M X"><g transform="translate(29.982 166.455)"><g transform="translate(80.855)"><use xlink:href="#P" class="T"/><use xlink:href="#Q" class="H"/><use xlink:href="#R" class="J"/><ellipse cx="20.804" cy="20.418" rx="20.286" ry="20.372" class="I"/><ellipse cx="20.804" cy="102.98" rx="20.286" ry="20.372" class="F"/></g><use xlink:href="#S" class="I"/><use xlink:href="#T" class="O"/><use xlink:href="#U" class="H"/><use xlink:href="#V" class="F"/><ellipse transform="matrix(1 0 0 -1 0 206.094272)" cx="61.705" cy="103.047" rx="20.001" ry="20.439" class="U"/></g></g><use xlink:href="#W" class="J X"/></g></g></g></g></g></svg>