<svg xmlns="http://www.w3.org/2000/svg" xmlns:xlink="http://www.w3.org/1999/xlink" width="699" height="646" xmlns:v="https://vecta.io/nano"><style><![CDATA[.B{stroke-width:.6}.C{stroke-linejoin:round}.D{stroke-linecap:round}.E{fill:#f4f2ee}.F{fill:#fff}.G{fill-rule:nonzero}.H{stroke:#001d75}.I{stroke:#212121}.J{fill:#001d75}.K{fill:#06f}.L{fill:#42be65}.M{fill:#ff9d00}.N{fill:#fb3640}.O{fill:#0d62fe}.P{fill:#212121}.Q{fill:#ff0025}.R{fill:#ff8100}.S{stroke:#ffc200}.T{fill:#ff243a}]]></style><defs><filter x="-5.7%" y="-6.8%" width="111.3%" height="113.5%" id="A"><feOffset dy="5" in="SourceAlpha"/><feGaussianBlur stdDeviation="5"/><feColorMatrix values="0 0 0 0 0 0 0 0 0 0.164542109 0 0 0 0 0.362271488 0 0 0 0.1 0" result="C"/><feMerge><feMergeNode in="C"/><feMergeNode in="SourceGraphic"/></feMerge></filter><filter x="-27.6%" y="-432.0%" width="155.1%" height="964.0%" id="B"><feOffset dy="24" in="SourceAlpha"/><feGaussianBlur stdDeviation="16"/><feColorMatrix values="0 0 0 0 0.3515625 0 0 0 0 0.3515625 0 0 0 0 0.3515625 0 0 0 0.1 0" result="C"/><feMerge><feMergeNode in="C"/><feMergeNode in="SourceGraphic"/></feMerge></filter><filter x="-32.9%" y="-64.2%" width="165.9%" height="229.5%" id="C"><feOffset dy="24" in="SourceAlpha"/><feGaussianBlur stdDeviation="16"/><feColorMatrix values="0 0 0 0 0.3515625 0 0 0 0 0.3515625 0 0 0 0 0.3515625 0 0 0 0.1 0" result="C"/><feMerge><feMergeNode in="C"/><feMergeNode in="SourceGraphic"/></feMerge></filter><path id="D" d="M0 0h340v173H0z"/><filter x="-1.9%" y="-3.2%" width="103.8%" height="107.5%" id="E"><feOffset dy="1" in="SourceAlpha"/><feGaussianBlur stdDeviation="2"/><feColorMatrix values="0 0 0 0 0 0 0 0 0 0.160784314 0 0 0 0 0.349019608 0 0 0 0.1 0"/></filter><filter x="-24.4%" y="-23.0%" width="150.4%" height="146.0%" id="F"><feOffset dy="1" in="SourceAlpha"/><feGaussianBlur stdDeviation="1"/><feColorMatrix values="0 0 0 0 0 0 0 0 0 0 0 0 0 0 0 0 0 0 0.3 0" result="C"/><feMerge><feMergeNode in="C"/><feMergeNode in="SourceGraphic"/></feMerge></filter><path id="G" d="M11.973 0C5.36 0 0 5.36 0 11.973s5.36 11.973 11.973 11.973 11.973-5.36 11.973-11.973S18.585 0 11.973 0z"/><path id="H" d="M11.56 8.056c1.42 0 3.162-.09 5.23-.268l.536-2.633h-2.324l.18-3.838H2.308l-.08 2.128C.743 3.03 0 3.226 0 4.03s.665 1.283 1.996 1.438l.447 2.053 9.118.535z"/><path id="I" d="M.092.306C.027 1.426 1.024 1.71 1.3.68 1.5-.107.362-.182 0 .306"/><path id="J" d="M3.843.127c.02.238.005.482.058.715.23 1.012 1.495.03.825-.815"/><path id="K" d="M15.503 0c.276 0-.05 2.46-.223 2.952-.22.626-.737.49-1.296.49a4.1 4.1 0 0 1-.466-.021 7.61 7.61 0 0 0-.86-.882l-.25-.207.062.363-.08-.126c-.34.855-1.02 1.097-1.85 1.097C8.628 3.667 7.864 2.21 8.17 0h7.333zM11.7.997H9.114l-.001.013c-.033.53.027.942.17 1.236l.085.15c.226.333.627.506 1.263.506.433 0 .73-.278.92-.96l.05-.206.037-.2.036-.282.025-.244zm3.07 0h-1.915c.272 1.115.63 1.6 1.297 1.672l.188.01c.027 0 .04-.006.067-.03.054-.05.112-.152.167-.306.088-.25.15-.604.18-1.054l.016-.29z"/><path id="L" d="M12.706 2.87c.9.7 1.696 1.743 1.56 1.914-.18.223-.825.27-.983.178-.127-.073-.07.026-.07.858"/><path id="M" d="M10.742 5.122c1.053.78 2.22.88 3.375.643"/><path id="N" d="M11.87 7.126c.225.9.758 1.47 1.32 2.224"/><path id="O" d="M12.8 7.028c.616 1.947.48 1.117.618 2.448"/><path id="P" d="M13.556 7.168c.184 1.893.162 1.106.162 2.357"/><path id="Q" d="M14.94 7.238c-.05.918-.293 1.65-.752 2.44"/><path id="R" d="M15.566 7.147c-.084.895-.34 1.757-.942 2.456"/><path id="S" d="M15.9 8.108c-.744.997-.834 1.303-1.947 1.564"/><path id="T" d="M5.906 1.422c-.03.46.42.576.544.153.095-.322-.423-.353-.586-.153"/><path id="U" d="M11.973 0A11.98 11.98 0 0 0 0 11.979a11.98 11.98 0 0 0 11.973 11.979 11.98 11.98 0 0 0 11.973-11.979A11.98 11.98 0 0 0 11.973 0z"/><path id="V" d="M11.68 0C5.23 0 0 5.232 0 11.687s5.23 11.687 11.68 11.687 11.68-5.232 11.68-11.687S18.132 0 11.68 0z"/><path id="W" d="M1.834 4.16c-.07-.458.01-.773.243-.947.422-.315.99.226 1.046.626.068.474-.303 1.21-.66 1.092-.34-.114-.55-.37-.63-.772z"/><path id="X" d="M492.5 151l10.5-6.69c-.336-.192-.718-.31-1.13-.31h-18.74c-.412 0-.794.12-1.13.31l10.5 6.69z"/><path id="Y" d="M500.25 111h-6.585l-2-2 2-2h6.585v4zm-5.482-11.73l.864 1.73h-5.188l4.324-1.73zm6.482 5.73h-1v-2c0-1.103-.897-2-2-2h-.382l-1.724-3.447c-.233-.465-.78-.673-1.266-.483l-9.822 3.93h-.806c-1.103 0-2 .897-2 2v12c0 1.103.897 2 2 2h14c1.103 0 2-.897 2-2v-2h1a1 1 0 0 0 1-1v-6a1 1 0 0 0-1-1z"/><path id="Z" d="M493.75 109.25a1.25 1.25 0 1 0-2.5 0 1.25 1.25 0 1 0 2.5 0z"/></defs><g transform="translate(32 22)" fill="none" fill-rule="evenodd"><g filter="url(#A)"><g transform="translate(0 218.911)"><path d="M0 .2h521v40.2H0z" class="F"/><path d="M498 19h-4v-2h4v2zm0 4h-4v-2h4v2zm0 4h-11v-2h11v2zm-12-7h3.5a.5.5 0 1 0 0-1h-1c-1.38 0-2.5-1.122-2.5-2.5 0-1.207.86-2.217 2-2.45V13h2v1h2v2h-3.5a.5.5 0 1 0 0 1h1c1.378 0 2.5 1.122 2.5 2.5 0 1.207-.86 2.218-2 2.45V23h-2v-1h-2v-2zm14.707-4.707l-5-5c-.187-.188-.442-.293-.707-.293h-11a1 1 0 0 0-1 1v18a1 1 0 0 0 1 1h16a1 1 0 0 0 1-1V16c0-.265-.105-.52-.293-.707h0z" class="O"/><g transform="translate(190 10.4)"><use xlink:href="#G" class="G K"/><g transform="translate(3.305 7.476)"><g transform="translate(0 .003)"><use xlink:href="#H" class="M"/><g transform="translate(9.638 .964)" class="P"><use xlink:href="#I"/><use xlink:href="#J"/></g><use xlink:href="#K" class="G Q"/><g class="B C D I"><use xlink:href="#L"/><use xlink:href="#M"/></g><g class="H B C D"><use xlink:href="#N"/><use xlink:href="#O"/><use xlink:href="#P"/><path d="M14.37 7.168l-.422 2.59"/><use xlink:href="#Q"/><use xlink:href="#R"/><use xlink:href="#S"/></g><path d="M10.818 4.796c-.067.18-.2.36-.425.37" class="B C D I"/></g></g></g><g class="E"><rect x="307.8" y="17.8" width="58.8" height="7.2" rx="3.6"/><rect x="231" y="17.8" width="56.4" height="7.2" rx="3.6"/><rect x="48" y="17.8" width="56.4" height="7.2" rx="3.6"/></g><g class="R"><rect x="138" y="18" width="7" height="7.2" rx="3.5"/><rect x="147" y="18" width="7" height="7.2" rx="3.5"/></g><g class="E"><rect x="156" y="18" width="7" height="7.2" rx="3.5"/><rect x="386.6" y="17.8" width="53" height="7.2" rx="3.6"/></g></g><g transform="translate(0 350.377)"><path d="M0 .2h521v40.2H0z" class="F"/><g class="E"><rect x="307.8" y="17.8" width="69" height="7.2" rx="3.6"/><rect x="231" y="17.8" width="42.6" height="7.2" rx="3.6"/><rect x="48" y="17.8" width="42.6" height="7.2" rx="3.6"/></g><g class="R"><rect x="138" y="18" width="7" height="7.2" rx="3.5"/><rect x="147" y="18" width="7" height="7.2" rx="3.5"/></g><g class="E"><rect x="156" y="18" width="7" height="7.2" rx="3.5"/><rect x="386.6" y="17.8" width="53" height="7.2" rx="3.6"/></g></g><g transform="translate(0 306.555)"><path d="M0 .2h521v40.2H0z" class="F"/><g class="E"><rect x="307.8" y="17.8" width="54.6" height="7.2" rx="3.6"/><rect x="231" y="17.8" width="56.4" height="7.2" rx="3.6"/><rect x="48" y="17.8" width="56.4" height="7.2" rx="3.6"/></g><rect x="138" y="18" width="7" height="7.2" rx="3.5" class="L"/><g class="E"><rect x="147" y="18" width="7" height="7.2" rx="3.5"/><rect x="156" y="18" width="7" height="7.2" rx="3.5"/><rect x="386.6" y="17.8" width="53" height="7.2" rx="3.6"/></g></g><g transform="translate(0 262.733)"><path d="M0 .2h521v40.2H0z" class="F"/><g class="E"><rect x="307.8" y="17.8" width="58.8" height="7.2" rx="3.6"/><rect x="231" y="17.8" width="42.6" height="7.2" rx="3.6"/><rect x="48" y="17.8" width="42.6" height="7.2" rx="3.6"/></g><g class="N"><rect x="138" y="18" width="7" height="7.2" rx="3.5"/><rect x="147" y="18" width="7" height="7.2" rx="3.5"/><rect x="156" y="18" width="7" height="7.2" rx="3.5"/></g><rect x="386.6" y="17.8" width="53" height="7.2" rx="3.6" class="E"/></g><g transform="translate(0 394.199)"><path d="M0 .2h521v40.2H0z" class="F"/><g class="E"><rect x="307.8" y="17.8" width="54.6" height="7.2" rx="3.6"/><rect x="231" y="17.8" width="56.4" height="7.2" rx="3.6"/><rect x="48" y="17.8" width="56.4" height="7.2" rx="3.6"/></g><rect x="138" y="18" width="7" height="7.2" rx="3.5" class="L"/><g class="E"><rect x="147" y="18" width="7" height="7.2" rx="3.5"/><rect x="156" y="18" width="7" height="7.2" rx="3.5"/><rect x="386.6" y="17.8" width="53" height="7.2" rx="3.6"/></g></g><path d="M0 0h521v40.004H0z" class="F"/><g transform="translate(190.6 8.359)"><path d="M12 0C5.373 0 0 5.346 0 11.94s5.373 11.94 12 11.94 12-5.346 12-11.94S18.627 0 12 0z" fill="#cce4ff" class="G"/><g transform="translate(5.701 3.458)"><g transform="translate(3.638 .216)" fill="#ff5fa7"><path d="M8.036 1.39C7.752 7.693.854 10.03 5.263 14.14c1.054.982-5.777.996-5.19 0C3.2 8.827-.07 7.693.001 1.956.01 1.28.106.644.276.06 3.7-.035 6.226.053 7.823.326c.127.022.198.376.213 1.063z"/></g><g class="B C D S"><path d="M12.597.865C12.22 2.498 11.5 4.172 11.362 5.85c-.1 1.216-.045 2.44-.068 3.66"/><path d="M12.163.81c-.848 2.122-1.176 4.03-1.256 6.323-.063 1.8-.244 1.36.117 2.106"/><path d="M11.023 2.107c-.796 3.267-.832 4.323-.275 7.673"/><path d="M10.697 10.158C8.723 8.395 9.55 5.315 10.08 3.134"/></g><path d="M6.87 1.567c.12.6.087.985-.098 1.186C5.788 3.82 5.405 4.23 4.298 5.75c-.015.02-.01.075.015.075.123.001.26-.003.36-.072.7-.484 1.26-1.22 2.045-1.567 1.058-.47-1.452 1.153-.844 1.47.248.13 4.588-.465 3.185-.186s-3.487.665-3.312.892c.73.948.913 1.38.73 2.23" class="B C D I"/><g class="S B C D"><path d="M4.235 2.702c-.637 1.686-1.5 5.792-4 6.267-.032.006-.048-.043-.072-.064"/><path d="M3.855 1.567c-.577 2.846-1.43 5.36-3.8 7.024"/><path d="M3.53.486C2.793 3.137 2.42 6.02.163 7.835"/><path d="M2.77.594c-.68 2.843-.756 4.713-2.77 6.7"/></g><path d="M3.465.023c-.308 0 .185 1.89.378 2.326.163.37.613.557 1.35.564.815.025 1.382-.16 1.7-.555l.05-.062c.378.756 1.14.97 2.065.97 2.138 0 2.99-1.29 2.65-3.242h-8.2zm3.774.72l3.636-.05.001.013c.048.623-.06 1.086-.304 1.393l-.025.03c-.292.342-.837.52-1.66.52-.564 0-1.222-.22-1.506-.92l-.066-.198c-.032-.12-.03-.308-.047-.533L7.24.745zm-3.2.06h2.638l-.004.386c-.02.87-.207 1.256-1.753 1.288l-.288.003c-.037 0-.057-.006-.092-.03-.074-.05-.155-.15-.23-.305-.12-.25-.206-.602-.25-1.05L4.04.806z" fill="#00ffce" class="G"/><g class="P"><use xlink:href="#T" transform="matrix(-1 0 0 1 12.325792 0)"/><use xlink:href="#T" x="1.574" transform="matrix(-1 0 0 1 15.475112 0)"/></g><g class="Q"><path d="M1.35 15.5c.348.508 1.81.376 1.028-.653s-1.376.145-1.028.653z" transform="matrix(-1 0 0 1 3.855204 0)"/><path d="M3.225 16.36c.358.5 1.667.178.86-.815s-1.22.325-.86.815z" transform="matrix(-1 0 0 1 7.438914 0)"/><path d="M5.727 16.652c.363.51 1.666.28.85-.753s-1.213.244-.85.753z" transform="matrix(-1 0 0 1 12.434388 0)"/><path d="M8.175 16.336c.37.5 1.623.24 1.087-.644s-1.456.143-1.087.644z" transform="matrix(-1 0 0 1 17.484162 0)"/><path d="M10.12 15.74c.35.495 1.434.258 1.033-.637s-1.383.142-1.033.637z" transform="matrix(-1 0 0 1 21.285066 0)"/></g></g></g><g class="E"><rect x="307.8" y="15.718" width="69" height="7.165" rx="3.582"/><rect x="231" y="15.718" width="42.6" height="7.165" rx="3.582"/><rect x="48" y="15.718" width="42.6" height="7.165" rx="3.582"/></g><g class="N"><rect x="138" y="16" width="7" height="7.165" rx="3.5"/><rect x="147" y="16" width="7" height="7.165" rx="3.5"/><rect x="156" y="16" width="7" height="7.165" rx="3.5"/></g><rect x="386.6" y="15.718" width="53" height="7.165" rx="3.582" class="E"/><g transform="translate(0 87.644)"><g class="F"><path d="M0 0h521v40.2H0z"/><path d="M0 43.8h521V84H0z"/></g><g class="E"><rect x="307.8" y="15.8" width="54.6" height="7.2" rx="3.6"/><rect x="231" y="15.8" width="69" height="7.2" rx="3.6"/><rect x="48" y="15.8" width="69" height="7.2" rx="3.6"/></g><g class="N"><rect x="138" y="16" width="7" height="7.2" rx="3.5"/><rect x="147" y="16" width="7" height="7.2" rx="3.5"/><rect x="156" y="16" width="7" height="7.2" rx="3.5"/></g><rect x="386.6" y="15.8" width="53" height="7.2" rx="3.6" class="E"/></g><g transform="translate(0 43.822)"><path d="M0 0h521v40.2H0z" class="F"/><g class="E"><rect x="307.8" y="15.8" width="58.8" height="7.2" rx="3.6"/><rect x="231" y="15.8" width="34.8" height="7.2" rx="3.6"/><rect x="48" y="15.8" width="34.8" height="7.2" rx="3.6"/></g><g class="R"><rect x="138" y="16" width="7" height="7.2" rx="3.5"/><rect x="147" y="16" width="7" height="7.2" rx="3.5"/></g><g class="E"><rect x="156" y="16" width="7" height="7.2" rx="3.5"/><rect x="386.6" y="15.8" width="53" height="7.2" rx="3.6"/></g></g><g transform="translate(0 175.289)"><path d="M0 0h521v40.004H0z" class="F"/><g class="E"><rect x="307.8" y="15.718" width="54.6" height="7.165" rx="3.582"/><rect x="231" y="15.718" width="69" height="7.165" rx="3.582"/><rect x="48" y="15.718" width="69" height="7.165" rx="3.582"/></g><rect x="138" y="16" width="7" height="7.165" rx="3.5" class="L"/><g class="E"><rect x="147" y="16" width="7" height="7.165" rx="3.5"/><rect x="156" y="16" width="7" height="7.165" rx="3.5"/><rect x="386.6" y="15.718" width="53" height="7.165" rx="3.582"/></g></g><g transform="translate(190.6 96.048)"><use xlink:href="#U" class="G K"/><g transform="translate(.758 2.548)"><path d="M1.346 13.527C1.36 7.606 9.197 2.358 13.703 2.36c6.84.004 5.14 11.43 4.827 11.45-1.937.133-7.665.038-17.184-.285z" transform="matrix(.956305 -.292372 .292372 .956305 -1.929427 3.320716)" class="J"/><g transform="translate(6.664 3.361)" fill="#f1f4f6"><path d="M10.276 3.03c.295 2.357-2.012 8.307-4.448 7.98-2.046-.275-3.238-2.014-3.87-3.875C1.852 6.822.27 7.643.054 6.18s1.508-.544 1.463-.813c-.15-.898-.14-1.66-.117-2.27.004-.096.52-.393 1.624-.57.494-.08 1.106-.133 1.842-.134a26.43 26.43 0 0 1 3.208.227c.283.036.024-2.605.27-2.567s1 2.755 1.194 2.8c.454.084.734.155.738.187z"/></g><g transform="translate(10.348 6.559)"><g transform="translate(2.98 .488)" class="B C D I"><path d="M.27 0c.133 1.285 1.084.862 1.084.004"/><path d="M.325.705L0 1.138"/><path d="M.813.867l-.217.705"/><path d="M1.084.76l.163.596"/></g><path d="M2.438 0l1.595 2.347c.082.1.24.22.192.343-.044.113-1.078.2-1.17.016-.047-.095-.06-.425-.058-.317.02.663.077 1.082.174 1.255" fill="#f3fff6" class="B C D H"/><g transform="translate(.163 .434)" class="B C D I"><path d="M.24.092c-.202.85 1 .96 1.223-.092"/><path d="M.38.705L0 .976"/><path d="M.783.76l-.037.488"/><path d="M1.138.705l.163.38"/></g><path d="M2.256 3.825c.348-.066.4.437.634.294.123-.072.19-.254.332-.27.216-.026.555.07 1.018.287l-.838.75C2.878 5.367.678 4.89.123 4.63l1.7.023c2.504-.39 1.94-.397-1.7-.023.493-.51 1.784-.74 2.132-.806z" transform="matrix(.956305 .292372 -.292372 .956305 1.397871 -.443087)" class="T"/></g></g></g><g transform="translate(190.6 53.427)"><use xlink:href="#U" class="G K"/><path d="M15.38 8.908c2.756 1.72 4.692 5.29 5.808 10.707-2.196 2.685-5.533 4.398-9.27 4.398-3.8 0-7.186-1.77-9.38-4.532.202-1.363.475-2.566.82-3.6.372-1.127 1.55-3.062 3.54-5.804l.607-.828c2.83.152 5.304.045 7.39-.256l.484-.075z" class="M"/><g class="B C D H"><path d="M6.273 18.134c1.633.84 2.685-.234 3.786-1.404"/><path d="M11.897 16.92c.224.97.365 1.58.92 2.363.013.02-.045.01-.067.017"/><path d="M13.848 18.98c-1.113-.662-.444-.164-1.692-1.844"/><path d="M16.143 18.503c-1.513-.103-3.07-.652-4.22-1.66"/><path d="M16.277 17.557c-.797.114-2.422.927-4.322-.82"/><path d="M16.218 16.408c-2.082.42-.796.253-3.886.176"/><path d="M7.842 19.445c.93-.74 2.3-1.56 2.54-2.852"/><path d="M9.173 19.43c1.104-.73.327-.124 1.59-2.492"/><path d="M10.397 19.495c.837-1.63.56-.827.914-2.377"/><path d="M11.722 19.308c-.626-1.273-.396-.544-.547-2.225"/><path d="M12.974 19.247c-.962-1.302-.495-.53-1.28-2.384"/><path d="M7.266 15.7c.843.498 2.01 1.42 2.93.59"/><path d="M6.776 16.823c.537.144 3.246.946 3.196-.425"/><path d="M8.765 9.594c-.064.578-.064.94 0 1.084.405.922 1.037.615 1.3-.38"/><path d="M10.498 8.944c-1.228 5.312-1.138 7.968.27 7.968s1.896-.94 1.463-2.82l-.217-4.824c.65 2.277 1.264 2.385 1.842.325" class="M"/></g><g stroke="#ff5fa7" fill="#ff5fa7" class="B C"><path d="M6.164 14.02c-.313-.16-.493-.306-.542-.434-.257-.68.262-1.05 1.192-.542.036-.795.343-1.283.92-1.463s.686.307.325 1.463c.575-.086.936-.086 1.084 0 .493.286.264.985-.758 1.41.506.434.578.885.217 1.355s-.795.253-1.3-.65c-.722.867-1.282 1.084-1.68.65s-.217-1.03.542-1.79z"/><path d="M14.183 13.24c-.328-.17-.518-.32-.568-.454-.27-.712.275-1.098 1.25-.567.038-.832.36-1.343.966-1.532s.72.322.34 1.532c.603-.09.982-.09 1.137 0 .518.3.277 1.03-.796 1.475.53.454.606.927.227 1.418s-.834.265-1.364-.68c-.758.908-1.345 1.135-1.762.68s-.227-1.078.568-1.872z" transform="matrix(-.987688 .156434 .156434 .987688 28.744736 -2.26226)"/></g><g fill="#d41c61"><circle cx="7.383" cy="13.994" r="1"/><circle cx="15.485" cy="13.117" r="1"/></g><path d="M15.77 9.04c2.23-.4 3.477-.69 3.738-.867l-.488-1.355-4.063.813c-.253-3.94-.957-5.908-2.113-5.908-.376 0-.81.542-1.3 1.626-.686-2.096-1.41-2.493-2.167-1.192s-1.156 3.27-1.192 5.908l-2.655-.15c-.577-.062-1.028-.157-1.354-.283v1.247c-.058.06.343.146 1.203.256l2.6.232c1.047.08 3.648-.028 7.8-.325z" class="J"/></g><g transform="translate(191.2 183.693)"><use xlink:href="#V" class="G K"/><g transform="translate(1.216 5.182)"><path d="M8.758 1.657c-2.652 0-5.022.702-6.792 1.82C1.25 3.93.68 4.427.352 4.88c-.198.273-.318.54-.332.817-.024.47.28.858.742.954l.04.008c.302.057.746.08 1.783.106l.94.025 2.264.1h.144l.124.01c1.07.08 1.97.2 2.682.366l.05.012v4.15c.096.977 1.148 1.466 3.156 1.466s4.294-.566 6.857-1.7l-.356-3.077.025-.007a2.81 2.81 0 0 0 .93-.418 1.72 1.72 0 0 0 .742-1.44 1.33 1.33 0 0 0-1.034-1.363l-.025-.006c-.28-.07-.6-.076-.972-.028l-.043.006-.066-.573-.234-.186c-2.074-1.647-5.083-2.454-9.01-2.454z" class="G M"/><g class="B C D H"><path d="M6.934 2.537c1.03.06.867.083 1.602-.634"/><path d="M7.034 3.064c.81-.058.894-.367 1.45-1.047"/><path d="M8.837 1.977c.203.52.553.557 1.095.514"/><path d="M8.837 1.983c.12.9-.092.53.694 1.107"/></g><g stroke="#fff" class="B C"><path d="M7.44.316c.964-.883 1.46.3 1.355 1.047-.125.914-.87 1.62-1.57 2.12-.01.007-.62.42-.8.26-.433-.384-.26-1.246-.08-1.76S6.994.726 7.44.316z"/><g class="D"><path d="M8.717 2.23c.16-.49.266-1.106.7-1.454.936-.748 1.84-.5 1.582.787-.14.705-.728 1.538-1.242 2.028-.667.637-1.248-.233-1.148-.867.048-.307.165-.6.247-.9"/></g></g><g class="H B C D"><path d="M11.974 1.6c.22 1.287.342 2.272 1.202 3.29 1.26 1.49 4.058.866 5.227-.414"/><path d="M13.05 1.776c-.233 1.7-.092 3.644 2.07 3.936.15.02 1.147.074 1.515-.053.894-.308.93-.495 1.782-1.187"/><path d="M13.443 1.8c.755 1.565 2.77 5.2 4.787 2.835"/><path d="M14.444 1.977c.177.96.266 1.934.908 2.722.85 1.043 2.583.83 3.304-.187"/><path d="M14.938 2.15c.485 1.224 1.4 3.277 3.064 2.595"/><path d="M15.533 2.277c.402.636 1.233 2.254 2.063 2.422.323.065.66-.01.988-.013"/><path d="M8.456 7.727c.814-.286 1.47.304 2.303.153.403-.073.895-.51 1.188-.734"/></g></g><path d="M8.457 16.076l3.436 1.904 5.39-1.904-.317 4.02-5.074-1.534-4.334 1.534z" class="B C H J"/></g><g transform="translate(191.2 273.738)"><use xlink:href="#V" class="G J"/><g transform="translate(2.696 2.485)"><g transform="translate(0 3.067)"><path d="M5.613 5.553h-5.6C-.172 1.85 1.625 0 5.404 0h9.9l.176 4.293c1.283-.192 1.925.07 1.925.783s-.6 1.14-1.77 1.278l.343 6.614-10.376.198V9.67c2.07.01 3.405-.253 4.007-.787s.813-1.644.634-3.332h-4.64z" stroke="#ff243a" stroke-width="1.444" class="T"/><g transform="translate(3.436 5.394)" stroke="#06f" class="B C D"><path d="M1.224.03c.05 1.067-.2 2.36-1.224 2.94"/><path d="M1.666.03C1.423 1.12 1.05 2.005.27 2.846"/><path d="M2.06.03C1.8 1.215 1.197 2.357.12 2.995"/><path d="M2.53.03C2.275.97 1.304 2.903.01 3.07"/><path d="M2.972.03c-.338 1.22-1.204 3-2.675 3"/><path d="M5.394 3.332c-.365.098-1.41-.875-1.784-1.428-.25-.37-.394-1-.436-1.864"/><path d="M3.53.03c.18 1.077.087 2.44 1.043 3.102"/><path d="M3.874 0c-.195.537.764 2.91 1.308 2.99"/><path d="M4.122.03c.402 1 .62 2.043 1.38 2.812"/><path d="M4.496.03c.472 1.1.57 2.178 1.51 2.905"/><path d="M3.266.03c.57 1.725.89 2.46 2.594 2.78"/></g></g><g transform="translate(4.532)" class="B C"><g class="H"><path d="M1.347 2.96c.59-.233 1.156-.55 1.774-.7.087-.02.094.156.112.243.046.22.09.443.077.666-.037.657-.22 1.484-.68 1.998-.6.673-1.205.1-1.362-.6-.16-.722-.087-.787.037-1.442l.042-.156z"/><path d="M5.605 2.308c.226.127.434.295.678.38.382.135.896-.01 1.184.275.224.222.063.63.046.945-.027.49-.2 1.536-.738 1.756-.874.358-1.448-.596-1.483-1.336-.014-.3-.024-.6.02-.897.047-.328.166-.64.25-.96l.046-.162z"/><g class="J"><use xlink:href="#W"/><use xlink:href="#W" x="4.44" y="0.266"/></g></g><g stroke="#06f" class="D"><path d="M5.98 2.2c.633-.534 1.216-1.343 1.9-1.6.56-.212-2.054 1.827-1.52 1.457l-.307.43C8.578.743 8.12.322 6.05 2.917c-.42.528.88-.95 1.34-1.357.268-.236 1.085-.862.837-.565-.625.748-1.31 1.315-1.978 1.932-.217.2-.907.643-.673.518.474-.254.94-.56 1.397-.906.478-.36 1.502-2.133 1.403-1.2-.068.636-2.305 1.888-2.63 2.122-.097.07-.365.36-.268.29L7.4 2.256c.228-.16.928-.55.708-.358l-.182.224c-1.852 1.628-3.143 2.526.105.107" transform="matrix(.615661 .788011 -.788011 .615661 4.36843 -4.620277)"/><path d="M.71.635C1.337.912 3.076 1.64 3.06 2.14 3.02 3.278 1.612.972.96 1.085c-.027.005.003.09.028.105l.366.28 1.066.547c.178.102.687.49.518.358-.502-.39-1.924-1.704-1.52-1.137L.554.993c.434.607 1.058.877 1.603 1.275C4.108 3.693.865 1.017.552 1.435c-.052.07.098.152.162.2l1.35.928c.224.142.915.51.69.365-.4-.262-1.595-1.13-1.25-.723L.662 2.04c.294.347 1.947.922 2.365 1.08" transform="matrix(.71934 -.694658 .694658 .71934 -.798833 1.777347)"/></g></g></g></g><g transform="translate(191.2 318.161)"><use xlink:href="#V" fill="#cce4ff" class="G"/><g transform="translate(1.85 5.129)"><path d="M16.766 1.11l.357 1.426c.064.286.13.88.198 1.783 1.508-.634 2.263-.21 2.263 1.268s-.754 1.98-2.263 1.506v5.666l-15.044.357V7.092C.637 7.488-.118 6.987.015 5.587S.9 3.764 2.277 4.32l.278-3.21h14.21zM4.54 3.01c-1.032 3.223-1.125 5.68-.278 7.37.54 1.075 5.1 1.362 8.058 1.07 1.133-.112 2.297-.468 3.493-1.07.206-1.093.285-2.216.238-3.368a16.36 16.36 0 0 0-.516-3.447c-.715-.792-2.46-1.294-5.24-1.506s-4.697.106-5.756.95z" class="J"/><g class="I B C D"><path d="M9.542 2.614l-2.375.24c.56.107 1.062-.076 1.607-.145.157-.02.377-.14.476-.015.08.1-.242.102-.34.187-.23.203-.4.464-.627.67-.146.132-.322.226-.483.34" transform="matrix(.882948 .469472 -.469472 .882948 2.504776 -3.541231)"/><g transform="translate(4.912 5.784)"><path d="M.5 3.324c.33-1.04 1.035-2.33 1.91-2.142.4.086.384-.092.68-.183.24-.073.22-.262.503-.306.043-.007-.09-.013-.13 0-.103.033-.12.103-.21.16-.154.095-.37.1-.502.223L.723 3.093c-.187.202.446-.326.642-.52.346-.34.638-.735.98-1.08a4.43 4.43 0 0 1 .627-.54C3.14.84 3.31.832 3.498.76c.066-.025-.21.01-.15.05.1.07.448-.08.367.014-.6.693-1.735 1.4-2.408 2.132-.107.115-.364.506-.245.403l2.185-2.082a1.19 1.19 0 0 1 .274-.187c.133-.067.434-.307.418-.16-.02.188-.312.22-.44.36-.514.566-.364.652-.91 1.116l-1.276.987c-.07.064-.214.29-.123.26 1.056-.342 2-1.327 2.588-2.226.04-.063-.013-.166.036-.223.058-.068.315-.053.245-.108V.924c-.04-.03-.09.043-.137.065" transform="matrix(.882948 .469472 -.469472 .882948 1.287046 -.818782)"/><path d="M5.002 1.288c.63.976 1.43 1.952 2.725 2.016.117.006-.17-.166-.267-.23-.345-.227-.74-.38-1.06-.64C6.004 2.11 4.88 1.1 5.326 1.34c.716.398 1.235 1.08 1.903 1.555.237.168.514.28.793.36.156.045-.288-.154-.418-.252l-1.34-1.08c-.312-.273-.552-.458-.804-.787-.137-.178.263.203.45.326.267.175.57.296.83.483.252.18.448.43.7.612.22.16.45.318.706.403.06.02-.013-.134-.05-.187a1.75 1.75 0 0 0-.339-.367L6.45 1.47c-.147-.098-.63-.313-.47-.245l1.14.526c.344.197.655.447.973.684.072.054.144.113.195.187.014.02-.052.006-.072-.007l-.52-.303-.887-.655c-.334-.215-.7-.375-1.038-.583-.054-.033-.367.07-.314.034.142-.093.703.23.8.275.862.395 1.36.373 2.167 1.002.098.076.353.185.26.266-.15.13-.44-.105-.59.02-.158.132.878.38-.036.223-.12-.02-.252-.038-.353-.108-2.642-1.832-.888-.924-2.27-1.606" transform="matrix(.945519 -.325568 .325568 .945519 -.338087 2.350328)"/></g></g><g class="B C D"><g class="H"><path d="M8.724 5.864c-.32-.15-.667-.363-1.052-.243-.324.1-.297.766-.285.943.04.64.863.86 1.35.617"/><path d="M10.677 6.187c1.176-1.06 1.403.613.497 1.012-.32.14-.6.078-.933.053"/><path d="M9.306 3.81c.08 1.186.023-.496-.54 2.022-.218.972.586 2.514 1.45 1.39.458-.597.49-1.45.526-2.194.02-.416.126-1.278-.382-1.532-.412-.93-.512-1.223-.3-.88"/></g><path d="M10.64 2.717c.64-.02 1.284.035 1.917-.057.502-.073-1.014-.015-1.52 0-.18.005-.492-.116-.533.057-.042.18.28.245.44.338.352.205.726.37 1.09.554" transform="matrix(.984808 -.173648 .173648 .984808 -.365268 2.057806)" class="I"/></g><path d="M8.31 0a7.33 7.33 0 0 1 1.018.072l.065.01c.136.02.244.126.267.262.102.62.143 1.25.124 1.895.1.065.208.05.356-.045-.016-.628.026-1.244.125-1.85.022-.132.124-.236.256-.26l.01-.002.065-.01A7.33 7.33 0 0 1 11.615 0h.08l2.663.107c.142.007.266.097.316.23l.004.01.013.04c.2.594.3 1.258.3 1.992 0 .7-.093 1.31-.28 1.828-.066.184-.237.308-.432.315h-.012l-.19.002c-.376.002-.712.001-1.007-.004l-.17-.003-2.1-.001c-.227.001-.423-.158-.47-.38l-.002-.012-.01-.06-.128-.96c-.152-.164-.31-.176-.47-.038-.044.397-.1.794-.2 1.19l-.015.067c-.05.21-.232.36-.446.367l-.95.034-1.084.032-.14.003-1.06.003-.096-.001c-.2-.002-.376-.127-.443-.314-.236-.65-.354-1.34-.354-2.068 0-.733.1-1.397.3-1.992l.013-.04c.047-.138.174-.233.32-.24l.45-.022L8.31 0zm-.397.396L7.85.4 6.18.55l-.117.014c-.074.01-.132.068-.14.142l-.01.097c-.145 1.575-.1 2.667.133 3.277.104.27 1.122.3 3.056.12l.017-.147.138-1.946V2.1c-.014-.434-.065-.972-.155-1.614-.35-.068-.748-.094-1.19-.08zm3.652 0l-.043-.001c-.416-.012-.65.015-.702.08l-.012.087-.143 1.527-.001.04c-.01.434.04 1.07.146 1.912 2.013.112 3.072.033 3.176-.238.238-.62.245-1.654.022-3.1-.01-.072-.07-.127-.142-.134l-.352-.032-1.948-.14z" class="T"/><path d="M8.177 8.822c.794.648 2.226.162 2.76.216.028.003.024.07 0 .085l-.18.18c-.12.07-.25.127-.386.15-.208.036-.5-.136-.63.028-.1.124.27.177.368.3.34.43-.605.353-.688.357" class="B C D H"/></g></g><g transform="translate(191.2 362.583)"><use xlink:href="#V" class="G K"/><g transform="translate(6.131 4.706)"><g transform="translate(0 3.596)"><path d="M.858 1.91c1.4-1.746 4.03-1.98 6.23-1.893s2.942.61 4.043 2.303.856 3 .23 4.258C9.89 9.503 2.96 10.404.666 7.65-.555 6.184.21 3.84.563 2.33l.295-.42z" fill="#ff7800"/><g class="B C D S"><path d="M5.906.93C6.31 1.92 7.45 1.257 7 .557"/><path d="M4.87.08c.794.403 1.306 1.113 1.968 1.728L7.9 2.864c.098.11.288.24.23.373-.052.123-1.298.216-1.407.017-.057-.103-.073-.462-.07-.345.035 1.08.472 2.21.213 3.085-.14.47-2.076.148-1.996.427.168.592.847.638 2.037.14.118.24.05.53.035.797l-.173 1.79"/><path d="M3.916 1.333c-.085.67.833 1.093 1.43.6.4-.332.184-.762.178-1.217"/></g></g><path d="M4.152 2.566C3.865 2 3.724 1.3 4.093.73 4.645-.142 5.82-.336 6.275.722c.353.82-.5 1.835-.476 1.937.133.58 2.025-1.75 1.66-.504-.455 1.555-3.034 1.82-4.163.946s-.065-.862.623-.54l.234.002z" class="J"/></g></g><g transform="translate(191.2 404.604)"><use xlink:href="#V" fill="#001d71" class="G"/><g transform="translate(4.44 5.5)"><path d="M3.35.927l10.267.715c.15.59.223 1.747.218 3.47l.026-.016a1.3 1.3 0 0 1 .47-.185l.03-.006c.294-.06.927-.135 1.172-.072.667.173.978 1.02.593 1.59-.486.718-1.495 1.196-2.333.946l-.008.254-.168 3.76c-3.515.503-8.047.503-13.597 0-.183-3.463.903-6.913 3.258-10.35L3.35.927z" fill="#00ffce"/><g class="J"><g class="G"><g transform="translate(2.484)"><path d="M.193.08C.27.082.332.146.33.224V.24L.326.3.315.455.3.518V.84c.004.228.04.394.103.475.27.345.73.694 1.186.877.524.21.984.2 1.31-.097a.14.14 0 0 1 .198.013c.05.058.045.147-.013.2-.42.367-.988.394-1.602.147C.983 2.253.48 1.873.18 1.5.07 1.347.023 1.13.018.846.016.73.02.612.032.467L.044.303.05.24V.22C.05.14.115.08.193.08z"/><path d="M.993.16a.14.14 0 0 1 .18.084c.315.87.587 1.27 1.164 1.558l.08.04.122.057c.11.05.21.086.302.11.186.047.314.034.383-.038l.007-.007a.14.14 0 0 1 .198-.015c.06.05.066.14.015.198-.153.18-.388.208-.673.136a2.08 2.08 0 0 1-.31-.109l-.037-.016-.194-.093-.018-.01C1.555 1.724 1.246 1.27.91.34.882.267.92.186.993.16z"/><path d="M2.072.02a.14.14 0 0 1 .168.106l.015.068c.115.498.212.797.362 1.062.197.346.46.55.827.6.077.013.13.085.116.162s-.085.13-.162.116c-.458-.075-.8-.333-1.026-.75-.175-.307-.28-.64-.407-1.206-.017-.076.03-.15.106-.168z"/><path d="M3.053.463l.045-.24c.016-.072.085-.12.16-.11s.125.078.12.152l-.001.01-.066.367L3.28.82 3.274.86c-.03.218-.04.383-.025.463.148.844.957 1.38 1.806 1.194a1.44 1.44 0 0 0 .682-.343l.034-.03.346-.308a.14.14 0 0 1 .198.015c.05.06.044.148-.015.198l-.023.02-.36.32c-.253.213-.475.33-.802.403-1.005.22-1.968-.418-2.144-1.42-.02-.118-.01-.303.024-.55l.027-.18.008-.047.023-.133z"/><path d="M3.898.355c.078 0 .14.063.14.14V.65c.002.12.008.14.032.192l.005.01.332.597.028.053c.437.818.92.902 1.675.352a.14.14 0 0 1 .196.031c.046.063.032.15-.03.197-.88.64-1.553.53-2.072-.418l-.067-.123-.32-.58-.008-.02c-.048-.11-.05-.148-.05-.447 0-.078.063-.14.14-.14z"/><path d="M4.692.353a.14.14 0 0 1 .176.093c.256.827.637 1.267 1.327 1.43.076.018.122.094.104.17a.14.14 0 0 1-.169.104c-.8-.2-1.248-.708-1.53-1.622-.023-.074.02-.153.093-.176z"/><path d="M5.973.268c.078-.001.142.06.143.14v.036L6.112.61 6.1.858c-.01.26-.006.39.027.54.14.642.602 1 1.25 1.05.6.048 1.27-.182 1.684-.575a.14.14 0 0 1 .199.006c.053.056.05.146-.006.2-.474.448-1.223.705-1.9.65-.767-.06-1.335-.5-1.504-1.27-.04-.184-.046-.333-.032-.63l.01-.223.003-.19c-.001-.078.06-.142.138-.143z"/><path d="M6.9.23c.078.001.14.065.138.143l-.001.02a1.22 1.22 0 0 1-.014.136L7.01.56c-.022.145-.023.202 0 .253.15.34.402.733.676 1.014.34.348.68.5 1 .4.073-.02.13-.055.25-.145l.07-.054.126-.09a.14.14 0 0 1 .194.044c.04.066.022.153-.044.194l-.022.014-.076.054-.083.063c-.145.1-.224.157-.34.2-.437.122-.87-.07-1.276-.484A3.92 3.92 0 0 1 6.752.927C6.702.814 6.7.724 6.728.54l.01-.073.01-.1C6.75.3 6.813.228 6.9.23z"/><path d="M7.758.28a.14.14 0 0 1 .166.11l.06.292.013.06.01.047c.173.76.36.925 1.2 1.008.077.008.134.077.126.154s-.077.134-.154.126l-.058-.006c-.91-.1-1.182-.362-1.377-1.214l-.03-.133-.057-.278c-.015-.076.034-.15.1-.166z"/><path d="M9.068.34c.078-.003.143.057.146.135l.002.068.002.153V.98l.01.45v.016c.048.777.27 1.186.803 1.24.303.03.607.024 1.066-.016.156-.013.262-.055.4-.143l.018-.012.286-.218a.14.14 0 0 1 .196.031c.046.063.032.15-.03.197l-.045.034-.237.18-.006.005a1.02 1.02 0 0 1-.547.206l-.082.007c-.43.035-.73.04-1.037.01-.383-.04-.656-.23-.827-.543-.13-.24-.2-.543-.225-.923v-.037l-.012-.435V.665l-.004-.18C8.93.408 9 .342 9.068.34z"/><path d="M9.78.323c.078-.003.143.057.146.135L9.927.5l.004.197.002.39c.004.448.02.666.074.917.077.355.227.638.482.875.34.316 1.305-.055 1.324-.48v-.013c0-.078.063-.14.14-.14s.14.063.14.14c0 .683-1.28 1.18-1.798.698-.3-.28-.476-.613-.565-1.02l-.007-.034c-.056-.27-.07-.5-.074-.995L9.65.773V.68L9.644.47C9.64.392 9.7.326 9.78.323z"/><path d="M10.34 1c.007-.077.076-.134.153-.127s.13.07.127.145v.01c-.025.267.16.935.412 1.386.3.536.594.68.894.38a.14.14 0 0 1 .199 0c.055.055.055.144 0 .2-.245.246-.515.303-.775.175-.208-.102-.397-.318-.564-.617-.277-.496-.478-1.218-.447-1.55z"/></g><path d="M6.625 2.795l.023-.01c.063-.03.107-.038.167-.01.068.032.094.097.087.16-.003.03-.013.057-.028.087a.79.79 0 0 1-.208.236l-.023.02.007.004a.14.14 0 0 1 .059.133l-.001.01c-.002.012-.005.022-.01.03v.002-.001l.038.003.014.004c.036.01.04.017.086.075l.008.038c.006.027.006.037.001.053l-.002.005.007.003a.14.14 0 0 1 .072.062l.004.008c.032.067.006.147-.058.183l-.395.193-.702.328-.225.1-.055.024c-.408.175-.744.3-.992.365-.152.04-.27.056-.362.045-.147-.017-.246-.115-.224-.265a.52.52 0 0 1 .295-.409l.02-.01.001-.005.014-.043.012-.02c.01-.016.014-.018.026-.028l.015-.01.028-.013c.01-.004.02-.006.048-.01l.05-.008.183-.02.048-.004.016-.002.086-.013.06-.01-.02.001c-.295.014-.545-.018-.663-.118l-.01-.008c-.088-.082-.13-.178-.058-.276.044-.06.106-.083.196-.094l.015-.002c.1-.01.203-.007.464.008l.172.01c.203.01.315.012.395.001a1.91 1.91 0 0 0 .425-.129l.015-.006-.04.005-.57.04-.357.015-.33.02c-.077.006-.145-.052-.15-.13s.052-.145.13-.15l.07-.005.213-.012.407-.018c.426-.02.64-.04.894-.088.046-.01.126-.048.236-.114l.033-.02.064-.04.14-.09.03-.02.103-.06zM5.048 4.417l-.073.003c-.51.023-.705.078-.76.243l-.001.003h.002a1.05 1.05 0 0 0 .205-.035l.02-.005a5.1 5.1 0 0 0 .548-.185l.06-.024z"/></g><path d="M5.134 4.738c.654.398.35.78.1 1.608-.28.93-.605-.214-.646-.53-.12-.896.064-1.256.548-1.08z"/><g class="G"><path d="M7.54 3.157l.137.012.572.046.044.004c.08.008.114.016.158.037l.007.003.02.01c.055.027.086.04.165.067l.046.015c.192.063.495.146.94.255l.032.008c.074.018.197.034.4.052l.322.03.068.007c.078.01.128.017.163.027.026.008.047.017.07.035.062.053.073.147.013.212-.034.037-.067.048-.132.06-.33.07-.9.075-1.434.025l-.027-.003h.001l.29.18.037.02a1.02 1.02 0 0 0 .205.062l.032.007.233.048.02.004.023.006c.025.007.04.01.057.024l.016.01c.018.014.02.02.047.08l-.002.033c-.005.057-.01.07-.036.095L10 4.644l-.002.001.093.023.053.015.003.001a.29.29 0 0 1 .045.021c.035.02.06.044.074.092.006.02.008.04.006.058v.007l.004.003.01.01c.065.07.05.178-.03.23-.5.337-1.088.367-1.72.15-.468-.16-.912-.424-1.476-.836-.063-.046-.076-.134-.03-.197a.14.14 0 0 1 .197-.031l.073.053c.508.366.913.602 1.328.744.427.146.814.165 1.165.038l.02-.008-.03-.006-.25-.054-.035-.008h-.016a4.61 4.61 0 0 1-.703-.109l-.024-.006c-.303-.078-.57-.172-.81-.292a.85.85 0 0 1-.19-.132l-.036-.03-.033-.013-.45-.186-.058-.025a.24.24 0 0 1-.034-.018c-.034-.02-.057-.044-.068-.096s.007-.1.043-.134c.02-.018.04-.027.06-.033s.03-.006.047-.006a.72.72 0 0 1 .123.014l.152.033.007.002h0c-.02-.045-.032-.09-.038-.14l-.001-.013c-.007-.075.028-.126.078-.157l.002-.001-.006-.006h-.008c-.032-.04-.047-.096-.022-.15l.002-.003h-.005c-.07-.01-.12-.072-.12-.142v-.01c.007-.077.075-.135.152-.128zm.383.82l.006.005c.145.104.37.207.668.306l.014.005-.033-.014-.056-.025-.063-.028-.536-.25zm.313-.48l.005.002c.116.05.23.116.35.198l.02.014.03.006.525.07.024.002-.136-.036-.4-.115-.05-.016-.038-.013-.138-.05-.012-.005-.04-.018-.017-.008-.03-.015c-.01-.004-.02-.006-.062-.01l-.03-.003z"/><path d="M7.188 4.514a.14.14 0 0 1 .198.015c.048.057.044.14-.008.192l-.007.007c-.03.025-.053.084-.06.16a3.52 3.52 0 0 0-.008.76c.083.788.747 1.432 1.422 1.24.163-.046.437-.368.705-.822a5.74 5.74 0 0 0 .285-.546l.016-.036c.068-.155.108-.277.1-.316v-.004c-.002-.078.06-.142.137-.144s.142.06.144.137c.004.164-.187.603-.436 1.03l-.013.022c-.306.518-.6.876-.87.95-.87.245-1.68-.54-1.778-1.483-.028-.262-.024-.537.008-.82a.51.51 0 0 1 .157-.341z"/><path d="M4.635 4.015c.096-.082.218-.062.326.001.067.04.1.125.05.192a.14.14 0 0 1-.184.055L4.82 4.26l-.02-.01-.003.004c-.018.028-.03.07-.04.12l-.002.014c-.03.264-.033.52-.007.76.047.443.3.897.664 1.123.065.042.084.13.043.194a.14.14 0 0 1-.194.043c-.428-.274-.736-.805-.792-1.33-.028-.262-.024-.537.007-.82a.51.51 0 0 1 .157-.341z" transform="matrix(.97437 .224951 -.224951 .97437 1.30715 -.982409)"/><path d="M6.706 3.757a.14.14 0 0 1 .186-.072c.07.03.103.115.072.186l-.02.044c-.22.5-.465.855-1.015 1.58l-.144.2c-.426.563-.63.863-.822 1.23l-.244.474-.08.158-.11.235c-.1.22-.167.402-.196.54-.015.07-.02.126-.015.162.001.01.003.017.005.022v.001l.016.01c.648.342 1.89-.195 2.35-.923l.014-.022c.13-.213.333-.237.544-.12.07.04.14.09.218.16l.026.024.18.163c.644.52.974 1.178 1.028 1.958.045.656-.102 1.38-.414 2.216a.14.14 0 0 1-.181.082c-.073-.027-.1-.108-.082-.18.64-1.712.562-2.953-.494-3.83l-.032-.026C7.46 7.988 7.3 7.85 7.3 7.84c-.074-.066-.134-.112-.188-.142-.088-.05-.123-.047-.162.013l-.005.007c-.234.384-.702.76-1.218.984-.572.248-1.132.283-1.545.05-.15-.085-.174-.257-.124-.488.035-.162.108-.36.215-.597l.094-.2.04-.08.265-.517.02-.04c.213-.415.43-.734.913-1.37l.146-.192c.52-.69.746-1.035.955-1.508z"/><path d="M5.898 8.375c.077-.013.15.04.162.116.094.563.103 1.097.043 1.696l-.09.68-.015.097-.026.157-.133.777-.044.27c-.012.077-.084.13-.16.117s-.13-.084-.117-.16L5.535 12l.026-.16.038-.224.08-.455.035-.21.007-.043.103-.76c.057-.576.048-1.085-.04-1.622-.013-.077.04-.15.116-.162z"/><path d="M8.43 9.6a.14.14 0 0 1 .191.055c.038.068.013.154-.055.19l-.067.037c-1.1.593-1.68.62-2.77.1-.07-.033-.1-.117-.066-.188a.14.14 0 0 1 .187-.066l.06.03c.986.46 1.483.417 2.52-.158z"/></g><path d="M7.28 4.58c.654.398 1.052 1.06.802 1.888-.28.93-.95-.336-.993-.65-.178-1.344.14-.41.14-1.072"/></g></g></g></g><g filter="url(#B)" transform="translate(48 139.47)"><g transform="translate(142 .4)"><use xlink:href="#G" class="G K"/><g transform="translate(3.305 7.476)"><g transform="translate(0 .003)"><use xlink:href="#H" class="M"/><g transform="translate(9.638 .964)" class="P"><use xlink:href="#I"/><use xlink:href="#J"/></g><use xlink:href="#K" class="G Q"/><g class="B C D I"><use xlink:href="#L"/><use xlink:href="#M"/></g><g class="H B C D"><use xlink:href="#N"/><use xlink:href="#O"/><use xlink:href="#P"/><path d="M14.37 7.168l-.422 2.59"/><use xlink:href="#Q"/><use xlink:href="#R"/><use xlink:href="#S"/></g><path d="M10.818 4.796c-.067.18-.2.36-.425.37" class="B C D I"/></g></g></g><g class="E"><rect x="259.8" y="7.8" width="58.8" height="7.2" rx="3.6"/><rect x="183" y="7.8" width="69" height="7.2" rx="3.6"/><rect y="7.8" width="69" height="7.2" rx="3.6"/></g><rect x="90" y="8" width="7" height="7.2" rx="3.5" class="L"/><g class="E"><rect x="99" y="8" width="7" height="7.2" rx="3.5"/><rect x="108" y="8" width="7" height="7.2" rx="3.5"/><rect x="338.6" y="7.8" width="53" height="7.2" rx="3.6"/></g></g><g filter="url(#C)" transform="translate(243 366)"><use fill="#000" filter="url(#E)" xlink:href="#D"/><use xlink:href="#D" class="F"/><g transform="translate(27.41 14.56)" class="O"><path d="M29.786 21.73v-9.878C29.786 5.306 24.453 0 17.872 0S5.957 5.306 5.957 11.853v9.878c0 3.273-2.67 5.927-5.957 5.927v1.976h35.744v-1.976c-3.288 0-5.957-2.653-5.957-5.927"/><path d="M11.333 31.376c1.315 2.593 3.737 4.358 6.538 4.358s5.222-1.765 6.54-4.358H11.333z"/></g><g class="E"><rect x="77.103" y="82.088" width="230.154" height="14.642" rx="3.6"/><rect x="77.103" y="100.495" width="230.154" height="14.642" rx="3.6"/><rect x="77.103" y="119.321" width="174.359" height="14.642" rx="3.6"/><rect x="99.944" y="24.774" width="72.812" height="15.061" rx="3.6"/></g><g class="N"><rect x="254.077" y="25.193" width="14.646" height="15.061" rx="3.6"/><rect x="272.908" y="25.193" width="14.646" height="15.061" rx="3.6"/><rect x="291.738" y="25.193" width="14.646" height="15.061" rx="3.6"/></g><ellipse cx="45.544" cy="102.587" rx="20.923" ry="20.917" class="E"/><path d="M45.544 87.945c3.463 0 6.645 1.202 9.152 3.2L44.052 103.74l-5.694-6.12-3.276 3.522 9.13 9.813 13.705-16.206a14.57 14.57 0 0 1 2.274 7.839c0 8.087-6.557 14.642-14.646 14.642s-14.646-6.556-14.646-14.642 6.557-14.642 14.646-14.642z" class="F"/><g transform="translate(37 106)" class="G"><g filter="url(#F)" transform="translate(5.25 3.5)"><path fill="#231d1e" d="M0 12.25h1.75V10.5h3.5v1.75H7V1.75h1.75V0h3.5v1.75H14V7h7v1.75h3.5v1.75h1.75v8.75H24.5v3.5h-1.75V28h-3.5v-1.75H17.5V28H8.75v-3.5H7v-1.75H5.25V21H3.5v-3.5H1.75v-1.75H0z"/><path d="M1.75 12.25h3.5V14H7v1.75h1.75v-14h3.5v10.5H14v-3.5h3.5v3.5h1.75v-3.5H21v3.5h1.75V10.5h1.75v8.75h-1.75v3.5H21v3.5h-1.75V24.5H17.5v1.75h-7V24.5H8.75v-1.75H7V21H5.25v-3.5H3.5v-1.75H1.75z" class="F"/><g fill="#231d1e"><path d="M12.25 15.75H14v7h-1.75z"/><path d="M15.75 15.75h1.75v7h-1.75z"/><path d="M19.25 15.75H21v7h-1.75z"/></g></g></g></g><circle cx="22" cy="20" r="10" class="E"/><path d="M22 13a6.97 6.97 0 0 1 4.374 1.535l-5.087 6.017-2.72-2.926L17 19.31 21.363 24l6.55-7.748C28.6 17.336 29 18.62 29 20a7 7 0 1 1-14 0 7 7 0 0 1 7-7z" class="L"/><circle cx="22" cy="64" r="10" class="E"/><path d="M22 57a6.97 6.97 0 0 1 4.374 1.535l-5.087 6.017-2.72-2.926L17 63.31 21.363 68l6.55-7.748C28.6 61.336 29 62.62 29 64a7 7 0 1 1-14 0 7 7 0 0 1 7-7z" class="F"/><circle cx="22" cy="108" r="10" class="E"/><path d="M22 101a6.97 6.97 0 0 1 4.374 1.535l-5.087 6.017-2.72-2.926L17 107.31l4.363 4.69 6.55-7.748C28.6 105.336 29 106.62 29 108a7 7 0 1 1-14 0 7 7 0 0 1 7-7z" class="F"/><circle cx="22" cy="152" r="10" class="E"/><path d="M22 145a6.97 6.97 0 0 1 4.374 1.535l-5.087 6.017-2.72-2.926L17 151.31l4.363 4.69 6.55-7.748C28.6 149.336 29 150.62 29 152a7 7 0 1 1-14 0 7 7 0 0 1 7-7z" class="L"/><circle cx="22" cy="196" r="10" class="E"/><path d="M22 189a6.97 6.97 0 0 1 4.374 1.535l-5.087 6.017-2.72-2.926L17 195.31l4.363 4.69 6.55-7.748C28.6 193.336 29 194.62 29 196a7 7 0 1 1-14 0 7 7 0 0 1 7-7z" class="F"/><circle cx="22" cy="240" r="10" class="E"/><path d="M22 233a6.97 6.97 0 0 1 4.374 1.535l-5.087 6.017-2.72-2.926L17 239.31l4.363 4.69 6.55-7.748C28.6 237.336 29 238.62 29 240a7 7 0 1 1-14 0 7 7 0 0 1 7-7z" class="F"/><circle cx="22" cy="284" r="10" class="E"/><path d="M22 277a6.97 6.97 0 0 1 4.374 1.535l-5.087 6.017-2.72-2.926L17 283.31l4.363 4.69 6.55-7.748C28.6 281.336 29 282.62 29 284a7 7 0 1 1-14 0 7 7 0 0 1 7-7z" class="F"/><circle cx="22" cy="328" r="10" class="E"/><path d="M22 321a6.97 6.97 0 0 1 4.374 1.535l-5.087 6.017-2.72-2.926L17 327.31l4.363 4.69 6.55-7.748C28.6 325.336 29 326.62 29 328a7 7 0 1 1-14 0 7 7 0 0 1 7-7z" class="F"/><circle cx="22" cy="372" r="10" class="E"/><path d="M22 365a6.97 6.97 0 0 1 4.374 1.535l-5.087 6.017-2.72-2.926L17 371.31l4.363 4.69 6.55-7.748C28.6 369.336 29 370.62 29 372a7 7 0 1 1-14 0 7 7 0 0 1 7-7z" class="F"/><circle cx="22" cy="416" r="10" class="E"/><path d="M22 409a6.97 6.97 0 0 1 4.374 1.535l-5.087 6.017-2.72-2.926L17 415.31l4.363 4.69 6.55-7.748C28.6 413.336 29 414.62 29 416a7 7 0 1 1-14 0 7 7 0 0 1 7-7z" class="F"/><g class="O"><path d="M492 20a6.01 6.01 0 0 0 6-6 6.01 6.01 0 0 0-6-6 6.01 6.01 0 0 0-6 6 6.01 6.01 0 0 0 6 6m.5 1c-6.77 0-11.5 3.524-11.5 8.57V31h23v-1.43c0-5.047-4.73-8.57-11.5-8.57m0 41l10.5-6.7c-.336-.192-.718-.3-1.13-.3h-18.74c-.412 0-.794.12-1.13.3l10.5 6.7zm.132 2.462c-.194.127-.413.2-.632.2a1.09 1.09 0 0 1-.634-.2L480.004 57c0 .013-.004.024-.004.034V68.46c0 1.4 1.076 2.54 2.4 2.54h19.2c1.324 0 2.4-1.14 2.4-2.54V57.034c0-.01-.004-.022-.004-.034l-11.364 7.462z"/><use xlink:href="#X"/><path d="M492.632 153.462c-.194.127-.413.2-.632.2s-.44-.063-.634-.2L480.004 146c0 .013-.004.024-.004.034v11.426c0 1.4 1.076 2.54 2.4 2.54h19.2c1.324 0 2.4-1.14 2.4-2.54v-11.426c0-.01-.004-.022-.004-.034l-11.364 7.462z"/><use xlink:href="#X" y="174"/><path d="M492.632 327.462c-.194.127-.413.2-.632.2s-.44-.063-.634-.2L480.004 320c0 .013-.004.024-.004.034v11.426c0 1.4 1.076 2.54 2.4 2.54h19.2c1.324 0 2.4-1.14 2.4-2.54v-11.426c0-.01-.004-.022-.004-.034l-11.364 7.462z"/><use xlink:href="#Y"/><use xlink:href="#Z"/><path d="M501.274 409.54l-4.644 2.87-3.853-5.956c-.042-.065-.112-.095-.164-.147l1.07-1.103c.216-.222.216-.586 0-.808l-1.435-1.48c-.215-.223-.57-.223-.785 0l-1.435 1.48c-.216.222-.216.586 0 .808l1.07 1.103c-.053.052-.122.082-.164.147l-3.854 5.956-4.644-2.87c-.385-.238-.872-.214-1.233.06s-.524.748-.416 1.196l2.22 9.15a1.12 1.12 0 0 0 1.078.867h15.544c.5 0 .954-.358 1.077-.867l2.22-9.15c.1-.448-.056-.92-.416-1.196a1.08 1.08 0 0 0-1.233-.06zm-18.524 15.497h17.765v-2.287H482.75z"/><use xlink:href="#Y" y="263"/><use xlink:href="#Z" y="263"/><path d="M496.34 284.273h4.1v-4.1h-4.1v4.1zm-6.136 0h4.1v-4.1h-4.1v4.1zm0 6.136h4.1v-4.1h-4.1v4.1zm-6.136-6.136h4.1v-4.1h-4.1v4.1zm0 6.136h4.1v-4.1h-4.1v4.1zm17.386-16.363h-2.045V272h-2.045v5.114h-2.045v-3.068h-6.136V272h-2.045v5.114h-2.045v-3.068h-2.045c-1.128-.001-2.045.917-2.045 2.045v15.34a2.05 2.05 0 0 0 2.045 2.045h18.4a2.05 2.05 0 0 0 2.045-2.045v-15.34a2.05 2.05 0 0 0-2.045-2.045zm-5.114-77.773h4.1v-4.1h-4.1v4.1zm-6.136 0h4.1v-4.1h-4.1v4.1zm0 6.136h4.1v-4.1h-4.1v4.1zm-6.136-6.136h4.1v-4.1h-4.1v4.1zm0 6.136h4.1v-4.1h-4.1v4.1zm17.386-16.363h-2.045V184h-2.045v5.114h-2.045v-3.068h-6.136V184h-2.045v5.114h-2.045v-3.068h-2.045c-1.128-.001-2.045.917-2.045 2.045v15.34a2.05 2.05 0 0 0 2.045 2.045h18.4a2.05 2.05 0 0 0 2.045-2.045v-15.34a2.05 2.05 0 0 0-2.045-2.045z"/></g></g></svg>