<svg xmlns="http://www.w3.org/2000/svg" xmlns:xlink="http://www.w3.org/1999/xlink" width="369" height="634" xmlns:v="https://vecta.io/nano"><style><![CDATA[.B{stroke-linecap:round}.C{stroke-linejoin:round}.D{stroke-width:.5}.E{stroke-width:.6}.F{fill:#0064ff}.G{fill-rule:nonzero}.H{fill:#fff}.I{stroke:#212121}.J{stroke:#001d75}.K{fill:#ff9d00}.L{stroke:#f4f2ee}.M{fill:#f4f2ee}.N{fill:#212121}.O{fill:#ff0025}.P{stroke:#ffc200}.Q{mask:url(#L)}.R{fill:#ff0034}.S{fill:#001d75}.T{fill:#001d71}.U{fill:#ff5fa7}]]></style><defs><filter x="-35.2%" y="-18.9%" width="170.4%" height="137.9%" id="A"><feOffset dy="24" in="SourceAlpha"/><feGaussianBlur stdDeviation="16"/><feColorMatrix values="0 0 0 0 0 0 0 0 0 0.160784314 0 0 0 0 0.349019608 0 0 0 0.1 0" result="C"/><feMerge><feMergeNode in="C"/><feMergeNode in="SourceGraphic"/></feMerge></filter><path d="M24.927 0h230.1c13.244 0 23.985 10.73 24 23.973l.547 495.248c.015 13.255-10.72 24.012-23.973 24.026h-.027-230.1c-13.244 0-23.985-10.73-24-23.973L.927 24.027C.912 10.772 11.645.015 24.9 0h.027z" id="B"/><path id="C" d="M.15.5h294v178H.15z"/><filter x="-18.0%" y="-51.6%" width="135.6%" height="203.3%" id="D"><feOffset dy="8" in="SourceAlpha"/><feGaussianBlur stdDeviation="8"/><feColorMatrix values="0 0 0 0 0 0 0 0 0 0.160784314 0 0 0 0 0.349019608 0 0 0 0.1 0" result="C"/><feMerge><feMergeNode in="C"/><feMergeNode in="SourceGraphic"/></feMerge></filter><filter x="-18.0%" y="-90.4%" width="135.6%" height="280.8%" id="E"><feOffset dy="8" in="SourceAlpha"/><feGaussianBlur stdDeviation="8"/><feColorMatrix values="0 0 0 0 0 0 0 0 0 0.160784314 0 0 0 0 0.349019608 0 0 0 0.1 0" result="C"/><feMerge><feMergeNode in="C"/><feMergeNode in="SourceGraphic"/></feMerge></filter><filter x="-17.5%" y="-10.8%" width="135.0%" height="121.5%" id="F"><feOffset dy="8" in="SourceAlpha"/><feGaussianBlur stdDeviation="8"/><feColorMatrix values="0 0 0 0 0 0 0 0 0 0.160784314 0 0 0 0 0.349019608 0 0 0 0.1 0" result="C"/><feMerge><feMergeNode in="C"/><feMergeNode in="SourceGraphic"/></feMerge></filter><path d="M33.815 66h246.37C298.86 66 314 50.865 314 32.195V0H0v32.195C0 50.865 15.14 66 33.815 66z" id="G"/><filter x="-16.2%" y="-86.4%" width="132.5%" height="254.5%" id="H"><feOffset dy="-6" in="SourceAlpha"/><feGaussianBlur stdDeviation="16"/><feColorMatrix values="0 0 0 0 0 0 0 0 0 0.160784314 0 0 0 0 0.349019608 0 0 0 0.1 0"/></filter><path id="I" d="M10.93 0C4.893 0 0 4.885 0 10.91s4.893 10.91 10.93 10.91 10.93-4.885 10.93-10.91S16.966 0 10.93 0z"/><path id="J" d="M5.39 1.302c-.026.42.383.528.497.14.087-.295-.386-.323-.535-.14"/><path id="K" d="M5.167 1.25c-.025.404.368.507.476.135.083-.284-.37-.3-.513-.135"/></defs><g filter="url(#A)" transform="translate(31 8)" fill="none" fill-rule="evenodd"><path d="M36.037 0h234.9c19.37 0 35.08 15.692 35.1 35.063l.526 499.8c.02 19.385-15.678 35.117-35.063 35.137h-.037-234.9c-19.37 0-35.08-15.692-35.1-35.063l-.526-499.8C.917 15.752 16.615.02 36 0h.037z" fill="#292929"/><path d="M36.03 4.5h233.423c16.556 0 29.983 13.413 30 29.97l.515 501c.017 16.57-13.4 30.014-29.97 30.03h-.03H36.546c-16.556 0-29.983-13.413-30-29.97l-.515-501C6.014 17.962 19.43 4.517 36 4.5h.03z" fill="#000"/><g transform="translate(13.5 13.5)"><mask id="L" class="H"><use xlink:href="#B"/></mask><use fill="#fafafa" xlink:href="#B"/><g class="Q"><g transform="translate(-8 -21)"><mask id="M" class="H"><use xlink:href="#C"/></mask><use xlink:href="#C" class="D H L"/><rect mask="url(#M)" x="178.209" y="188.294" width="87.26" height="23.62" rx="2.85" class="F"/><g opacity=".92" mask="url(#M)"><g transform="translate(-22.5 -26.5)"><g transform="translate(176 27)"><path d="M150.482 75.062V.085H75.72l.007.882c.657 40.622 33.37 73.43 73.878 74.088l.878.007z" fill="#2ac2ff"/><path d="M150.482 76.774v74.977H75.72l.007-.882c.657-40.622 33.37-73.43 73.878-74.088l.878-.007z" fill="#00173a"/><path d="M75.718 151.752V76.775H.955l.007.882c.657 40.622 33.37 73.43 73.878 74.088l.878.007z" class="K"/><ellipse fill="#005b11" cx="38.337" cy="37.573" rx="37.382" ry="37.488"/><ellipse cx="38.337" cy="189.504" rx="37.382" ry="37.488" class="R"/></g><path d="M104 255v-76H27l.007.894c.676 41.176 34.37 74.43 76.088 75.1L104 255z" fill="#005b11"/><path d="M104 0v103H0l.01-1.21C.924 45.984 46.43.915 102.778.01L104 0z" class="F"/><path d="M104 103V27h77l-.007.894c-.676 41.176-34.37 74.43-76.088 75.1L104 103z" fill="#00173a"/><path d="M104 104v76H27l.007-.894c.676-41.176 34.37-74.43 76.088-75.1L104 104z" class="R"/><path d="M141 179c20.435 0 37 17.013 37 38s-16.565 38-37 38-37-17.013-37-38 16.565-38 37-38z" fill="#ff7800"/></g></g></g><g transform="translate(8.5 104)"><g filter="url(#D)" transform="translate(1 .5)"><path d="M0 0h260.3v91H0z" class="D H L"/><rect fill="#011638" x="71" y="16" width="119" height="19" rx="9.5"/><rect x="71" y="40" width="119" height="11" rx="5.5" class="M"/><g fill="#42be65"><rect x="71" y="60" width="48" height="11" rx="5.5"/><rect x="142" y="60" width="48" height="11" rx="5.5"/></g></g><g transform="translate(0 95.5)"><g filter="url(#E)" transform="translate(1)"><path d="M0 0h260.3v52H0z" class="D H L"/><path d="M37 27h4v-4h-4v4zm-6 0h4v-4h-4v4zm0 6h4v-4h-4v4zm-6-6h4v-4h-4v4zm0 6h4v-4h-4v4zm17-16h-2v-2h-2v5h-2v-3h-6v-2h-2v5h-2v-3h-2a2 2 0 0 0-2 2v15c0 1.102.897 2 2 2h18c1.103 0 2-.898 2-2V19c0-1.103-.897-2-2-2z" class="F"/><g transform="translate(150 15)"><path d="M10.663 0C4.774 0 0 4.766 0 10.644S4.774 21.29 10.663 21.29s10.663-4.766 10.663-10.644S16.552 0 10.663 0z" fill="#06f" class="G"/><g transform="translate(1.11 4.72)"><path d="M7.995 1.51c-2.42 0-4.585.64-6.2 1.657C1.14 3.58.62 4.032.32 4.445c-.18.25-.3.49-.303.744-.022.43.255.78.678.87l.036.007c.276.052.68.072 1.628.097l.858.023 2.067.1.13.01.114.008c.978.073 1.798.182 2.448.333l.045.01v3.78c.087.9 1.048 1.335 2.88 1.335s3.92-.516 6.26-1.548L16.84 7.4l.023-.006c.334-.09.617-.214.85-.38.44-.317.678-.774.678-1.31 0-.62-.348-1.086-.943-1.242l-.023-.006c-.255-.063-.55-.07-.888-.025l-.04.005-.06-.522-.214-.17c-1.893-1.5-4.64-2.235-8.226-2.235z" class="G K"/><g class="B C D J"><path d="M6.33 2.31c.94.055.792.076 1.463-.577"/><path d="M6.42 2.79c.74-.053.816-.334 1.323-.954"/><path d="M8.067 1.8c.186.474.504.507 1 .468"/><path d="M8.067 1.806c.11.828-.084.482.634 1.01"/></g><g stroke="#fff" class="C D"><path d="M6.793.287c.88-.805 1.332.264 1.237.954-.114.833-.793 1.476-1.432 1.932-.01.006-.567.382-.73.237-.395-.35-.238-1.135-.073-1.604A4.36 4.36 0 0 1 6.793.287z"/><g class="B"><path d="M7.957 2.03c.145-.445.242-1.007.64-1.324.854-.682 1.68-.457 1.444.717-.13.642-.664 1.4-1.133 1.847-.61.58-1.14-.213-1.048-.8.044-.28.15-.547.225-.82"/></g></g><g class="J B C D"><path d="M10.93 1.466c.2 1.172.312 2.07 1.097 2.995 1.15 1.358 3.705.79 4.772-.377"/><path d="M11.912 1.618c-.213 1.558-.084 3.32 1.89 3.585.137.018 1.047.067 1.383-.05.816-.28.85-.45 1.627-1.08"/><path d="M12.272 1.63c.7 1.425 2.528 4.736 4.37 2.582"/><path d="M13.186 1.8c.162.876.243 1.762.83 2.48.776.95 2.358.755 3.017-.17"/><path d="M13.637 1.958c.442 1.115 1.28 2.985 2.797 2.363"/><path d="M14.18 2.074c.367.58 1.126 2.053 1.883 2.206.295.06.6-.008.902-.012"/><path d="M7.72 7.038c.743-.26 1.342.276 2.102.14.368-.066.817-.466 1.085-.668"/></g></g><path d="M7.72 14.642l3.136 1.734 4.92-1.734-.29 3.66-4.632-1.397L6.9 18.303z" class="C D J S"/></g><g transform="translate(166.432 15)"><use xlink:href="#I" class="G T"/><g transform="translate(3.017 6.813)"><g transform="translate(0 .003)"><path d="M10.553 7.34c1.296 0 2.887-.08 4.774-.244l.5-2.4h-2.122l.163-3.497H2.107l-.072 1.94C.678 2.763 0 2.94 0 3.672s.607 1.17 1.822 1.31l.408 1.87 8.323.488z" class="K"/><g transform="translate(8.798 .878)" class="N"><path d="M.084.278c-.06 1.02.85 1.28 1.103.34C1.38-.098.33-.166 0 .278"/><path d="M3.508.116c.018.217.005.44.053.652.21.922 1.365.027.753-.743"/></g><path d="M14.152 0c.252 0-.046 2.24-.204 2.7-.2.57-.673.447-1.183.447a3.75 3.75 0 0 1-.425-.02 6.94 6.94 0 0 0-.785-.804l-.228-.19.057.33-.073-.115c-.31.78-.932 1-1.688 1-1.747 0-2.444-1.328-2.165-3.34h6.694zM10.68.908H8.32V.92c-.03.483.025.858.155 1.127l.078.136c.206.303.572.46 1.153.46.395 0 .667-.254.84-.876l.047-.188.033-.192.033-.257.022-.223zm2.804 0h-1.748c.248 1.016.576 1.457 1.184 1.523l.17.01c.025 0 .038-.005.06-.027.05-.046.103-.138.152-.28.08-.23.136-.55.166-.96l.014-.266z" class="G O"/><g class="B C D I"><path d="M11.6 2.615c.82.647 1.548 1.588 1.424 1.744-.163.203-.753.245-.898.163-.116-.066-.064.024-.064.782"/><path d="M9.806 4.667c.96.71 2.027.802 3.08.586"/></g><g class="J B C D"><path d="M10.835 6.494c.206.82.692 1.34 1.206 2.027"/><path d="M11.676 6.404c.562 1.774.437 1.018.565 2.23"/><path d="M12.375 6.532c.168 1.725.148 1.008.148 2.148"/><path d="M13.12 6.532l-.385 2.36"/><path d="M13.64 6.596c-.046.836-.267 1.503-.686 2.225"/><path d="M14.2 6.513c-.077.816-.3 1.6-.86 2.238"/><path d="M14.524 7.39c-.68.91-.76 1.187-1.777 1.426"/></g><path d="M9.875 4.37c-.062.165-.184.328-.388.337" class="B C D I"/></g></g></g><g transform="translate(182.864 15)"><use xlink:href="#I" fill="#06f" class="G"/><g transform="translate(.692 2.32)"><path d="M1.234 12.316c.01-5.395 7.16-10.17 11.272-10.166 6.244.008 4.7 10.415 4.412 10.435-1.768.12-6.996.03-15.684-.27z" transform="matrix(.956305 -.292372 .292372 .956305 -1.756857 3.031606)" class="S"/><g transform="translate(6.083 3.061)" fill="#f1f4f6"><path d="M9.38 2.76c.27 2.147-1.836 7.566-4.06 7.268-1.868-.25-2.956-1.834-3.532-3.53C1.7 6.213.247 6.96.05 5.628s1.377-.496 1.335-.74c-.138-.818-.128-1.512-.107-2.067.003-.088.475-.358 1.483-.518.45-.072 1.01-.12 1.68-.122.96-.001 2.03.093 2.93.207.26.033.022-2.373.245-2.338s.914 2.51 1.1 2.542c.415.076.67.14.674.17z"/></g><g transform="translate(9.446 5.974)"><g transform="translate(2.72 .444)" class="B C D I"><path d="M.247 0c.122 1.17.99.785.99.004"/><path d="M.297.642L0 1.037"/><path d="M.742.8l-.198.642"/><path d="M.99.69l.148.543"/></g><path d="M2.226 0l1.456 2.138c.075.09.218.2.175.313-.04.103-.984.182-1.067.014-.043-.087-.055-.387-.052-.29.018.604.07.985.16 1.143" fill="#f3fff6" class="B C D J"/><g transform="translate(.148 .395)" class="B C D I"><path d="M.22.083C.034.86 1.13.957 1.335 0"/><path d="M.346.642L0 .89"/><path d="M.733.69L.7 1.135"/><path d="M1.04.642l.148.346"/></g><path d="M2.06 4.058h1.046l-1.45.001c2.285-.001 1.77-.001-1.543.001l1.946-.001z" fill="#ff243a" transform="matrix(.956305 .292372 -.292372 .956305 1.273384 -.404895)"/></g></g></g><g transform="translate(199.295 15)"><path d="M10.955 0C4.905 0 0 4.896 0 10.935S4.905 21.87 10.955 21.87 21.91 16.975 21.91 10.935 17.005 0 10.955 0z" fill="#cce4ff" class="G"/><g transform="translate(5.205 3.167)"><g transform="translate(3.321 .198)" class="U"><path d="M7.336 1.272C7.076 7.045.78 9.186 4.805 12.948c.962.9-5.274.912-4.74 0C2.922 8.083-.064 7.045.001 1.79.01 1.17.097.6.252.056 3.387-.032 5.683.05 7.14.3c.116.02.18.344.195.973z"/></g><g class="B C D P"><path d="M11.5.792c-.345 1.496-1 3.03-1.128 4.565-.092 1.113-.04 2.234-.062 3.35"/><path d="M11.103.742c-.774 1.943-1.074 3.69-1.147 5.8-.057 1.65-.223 1.247.107 1.93"/><path d="M10.062 1.93c-.726 2.992-.76 3.96-.25 7.026"/><path d="M9.765 9.302C7.963 7.687 8.718 4.867 9.2 2.87"/></g><path d="M6.272 1.435c.1.54.08.902-.09 1.086-.9.977-1.25 1.353-2.26 2.745-.014.02-.01.07.014.07.112.001.237-.003.33-.066.648-.443 1.15-1.116 1.867-1.435C7.1 3.404 4.8 4.9 5.364 5.18c.227.118 4.188-.426 2.907-.17s-3.183.61-3.023.817c.666.868.834 1.265.666 2.042" class="B C D I"/><g class="P B C D"><path d="M3.866 2.474c-.582 1.544-1.36 5.304-3.65 5.74-.03.006-.044-.04-.066-.06"/><path d="M3.52 1.435C2.993 4.04 2.214 6.345.05 7.867"/><path d="M3.222.445C2.55 2.872 2.21 5.512.15 7.175"/><path d="M2.528.544C1.906 3.147 1.838 4.86 0 6.68"/></g><path d="M3.163.022c-.28 0 .17 1.73.345 2.13.15.338.56.5 1.232.516.744.023 1.26-.147 1.552-.51l.044-.057c.345.692 1.04.888 1.885.888 1.95 0 2.73-1.18 2.418-2.97H3.163zm3.445.66l3.32-.046.001.012c.044.57-.055.994-.278 1.275l-.023.028c-.267.313-.764.476-1.516.476-.515 0-1.116-.2-1.375-.842l-.06-.18c-.03-.11-.028-.282-.043-.49L6.608.682zm-2.92.056h2.408l-.004.354c-.02.795-.19 1.15-1.6 1.18l-.263.003c-.034 0-.052-.005-.084-.027-.067-.047-.14-.14-.21-.28-.11-.23-.188-.552-.228-.963l-.02-.266z" fill="#00ffce" class="G"/><g class="N"><use xlink:href="#J" transform="matrix(-1 0 0 1 11.251954 0)"/><use xlink:href="#J" x="1.44" transform="matrix(-1 0 0 1 14.126902 0)"/></g><g class="O"><path d="M1.233 14.185c.318.465 1.653.345.938-.598s-1.256.133-.938.598z" transform="matrix(-1 0 0 1 3.519334 0)"/><path d="M2.944 14.982c.327.45 1.522.163.786-.747s-1.113.298-.786.747z" transform="matrix(-1 0 0 1 6.790826 0)"/><path d="M5.228 15.25c.33.466 1.52.255.777-.7s-1.108.223-.777.7z" transform="matrix(-1 0 0 1 11.35109 0)"/><path d="M7.463 14.96c.336.46 1.48.22.992-.6s-1.33.13-.992.6z" transform="matrix(-1 0 0 1 15.96092 0)"/><path d="M9.238 14.414c.32.454 1.31.236.943-.583s-1.262.13-.943.583z" transform="matrix(-1 0 0 1 19.430686 0)"/></g></g></g><g transform="translate(215.727 15)"><use xlink:href="#I" fill="#06f" class="G"/><path d="M14.04 8.113c2.516 1.567 4.283 4.817 5.302 9.752-2.005 2.446-5.05 4.005-8.462 4.005-3.468 0-6.56-1.613-8.562-4.128.184-1.242.433-2.337.748-3.288.34-1.027 1.416-2.79 3.23-5.286l.554-.754c2.584.138 4.842.04 6.748-.233l.442-.068z" class="K"/><g class="B C D J"><path d="M5.726 16.517c1.49.766 2.45-.213 3.456-1.28"/><path d="M10.86 15.41c.205.885.333 1.44.84 2.152.012.017-.04.01-.06.015"/><path d="M12.642 17.288c-1.016-.603-.406-.15-1.544-1.68"/><path d="M14.736 16.853c-1.38-.094-2.803-.594-3.853-1.51"/><path d="M14.86 15.99c-.728.104-2.21.844-3.945-.748"/><path d="M14.805 14.945c-1.9.382-.727.23-3.547.16"/><path d="M7.16 17.71c.848-.674 2.098-1.42 2.32-2.597"/><path d="M8.374 17.697c1.008-.665.3-.113 1.452-2.27"/><path d="M9.49 17.757c.764-1.484.512-.753.835-2.165"/><path d="M10.7 17.586c-.57-1.16-.362-.496-.5-2.027"/><path d="M11.844 17.53c-.878-1.185-.452-.483-1.17-2.17"/><path d="M6.633 14.3c.77.454 1.834 1.293 2.674.538"/><path d="M6.186 15.323c.5.13 2.963.862 2.918-.387"/><path d="M8 8.738c-.058.526-.058.855 0 .987.37.84.947.56 1.187-.346"/><path d="M9.584 8.146c-1.12 4.838-1.04 7.257.247 7.257s1.73-.856 1.335-2.567l-.198-4.394c.593 2.074 1.154 2.172 1.682.296" class="K"/></g><g stroke="#ff5fa7" class="U C D"><path d="M5.627 12.77c-.286-.147-.45-.28-.495-.395-.235-.62.24-.956 1.088-.494.033-.724.313-1.168.84-1.333s.626.28.297 1.333c.525-.078.855-.078.99 0 .45.26.24.897-.692 1.284.462.395.528.806.198 1.234s-.725.23-1.187-.592c-.66.8-1.17.987-1.533.592s-.198-.938.495-1.63z"/><path d="M12.947 12.06c-.3-.154-.472-.29-.52-.413-.246-.648.25-1 1.142-.517.035-.758.33-1.223.882-1.395s.657.293.31 1.395c.55-.082.897-.082 1.038 0 .472.273.253.94-.727 1.344.484.413.553.844.207 1.292s-.76.24-1.245-.62c-.692.827-1.228 1.034-1.61.62s-.207-.982.52-1.705z" transform="matrix(-.987688 .156434 .156434 .987688 26.245017 -2.065528)"/></g><g fill="#d41c61"><circle cx="6.74" cy="12.746" r="1"/><circle cx="14.136" cy="11.947" r="1"/></g><path d="M14.397 8.234c2.037-.364 3.174-.627 3.412-.8L17.364 6.2l-3.71.74c-.23-3.587-.874-5.38-1.93-5.38-.343 0-.74.494-1.187 1.48C9.913 1.14 9.253.78 8.56 1.964s-1.055 2.98-1.088 5.38L5.05 7.208c-.526-.057-.94-.143-1.236-.257v1.135c-.053.055.313.133 1.098.233l2.364.21c.956.073 3.33-.026 7.122-.296z" class="S"/></g></g><g filter="url(#F)" transform="translate(0 56)"><path d="M1 0h261v437H1z" class="H L"/><g transform="translate(12 7)"><path d="M10.5 0C4.7 0 0 4.7 0 10.5S4.7 21 10.5 21 21 16.3 21 10.5 16.3 0 10.5 0z" fill="#cce4ff" class="G"/><g transform="translate(4.989 3.041)"><g transform="translate(3.183 .19)" class="U"><path d="M7.032 1.22c-.25 5.543-6.284 7.6-2.427 11.21.922.863-5.055.875-4.542 0C2.8 7.76-.06 6.765.001 1.72.008 1.125.093.566.242.054 3.246-.03 5.447.047 6.845.287c.11.02.173.33.187.934z"/></g><g class="B C E P"><path d="M11.023.76c-.33 1.436-.96 2.91-1.08 4.384-.088 1.07-.04 2.145-.06 3.218"/><path d="M10.643.713c-.742 1.865-1.03 3.544-1.1 5.56-.055 1.584-.213 1.197.102 1.852"/><path d="M9.645 1.853c-.696 2.873-.728 3.8-.24 6.747"/><path d="M9.36 8.932c-1.727-1.55-1.003-4.26-.54-6.176"/></g><path d="M6.012 1.378c.105.52.076.866-.086 1.043-.86.938-1.197 1.3-2.165 2.635-.013.018-.01.066.013.066.107.001.227-.002.316-.063.62-.425 1.102-1.072 1.8-1.378.926-.413-1.27 1.014-.74 1.292.217.114 4.014-.41 2.787-.164s-3.05.585-2.898.784c.638.833.8 1.215.638 1.96" class="B C E I"/><g class="P B C E"><path d="M3.706 2.376c-.558 1.482-1.304 5.093-3.5 5.51-.028.005-.042-.038-.063-.056"/><path d="M3.373 1.378C2.868 3.88 2.122 6.092.048 7.554"/><path d="M3.088.428c-.645 2.33-.97 4.865-2.946 6.462"/><path d="M2.423.523c-.596 2.5-.66 4.144-2.423 5.89"/></g><path d="M3.032.02c-.27 0 .162 1.66.33 2.045.143.324.537.5 1.18.496.713.022 1.21-.14 1.488-.488l.043-.055c.33.665.998.853 1.807.853 1.87 0 2.617-1.133 2.318-2.85H3.032zm3.302.634L9.515.6l.001.01c.042.547-.053.955-.266 1.224l-.022.027c-.256.3-.732.457-1.453.457-.494 0-1.07-.193-1.318-.81l-.058-.174c-.028-.105-.026-.27-.04-.47L6.334.655zm-2.8.054h2.308l-.003.34c-.02.764-.18 1.105-1.534 1.133l-.252.002c-.033 0-.05-.005-.08-.026-.065-.045-.135-.133-.2-.268-.106-.22-.18-.53-.22-.924L3.535.71z" fill="#00ffce" class="G"/><g class="N"><use xlink:href="#K" transform="matrix(-1 0 0 1 10.785068 0)"/><use xlink:href="#K" x="1.378" transform="matrix(-1 0 0 1 13.540724 0)"/></g><g class="O"><path d="M1.182 13.62c.305.447 1.585.33.9-.574s-1.204.128-.9.574z" transform="matrix(-1 0 0 1 3.373302 0)"/><path d="M2.822 14.385c.314.43 1.46.157.753-.717s-1.067.286-.753.717z" transform="matrix(-1 0 0 1 6.50905 0)"/><path d="M5.01 14.642c.317.448 1.458.245.744-.662s-1.062.215-.744.662z" transform="matrix(-1 0 0 1 10.88009 0)"/><path d="M7.153 14.364c.323.44 1.42.21.95-.566s-1.274.126-.95.566z" transform="matrix(-1 0 0 1 15.298642 0)"/><path d="M8.854 13.84c.306.436 1.255.227.903-.56s-1.2.124-.903.56z" transform="matrix(-1 0 0 1 18.624434 0)"/></g></g></g><g transform="translate(0 7)"><g stroke-width="1.053" stroke-linecap="square" class="C L"><path d="M.7 79.518l261.667.444"/><path d="M.7 40.158l261.667.444"/><path d="M.7 187.124l261.667.444"/><path d="M.7 207.003l261.667.444"/><path d="M.7 310.616l261.667.444"/></g><path d="M22 50.586c-5.875 0-10.638 4.757-10.638 10.626S16.126 71.837 22 71.837 32.64 67.08 32.64 61.212 27.876 50.586 22 50.586z" fill="#65a9ff" class="G"/><path d="M24.57 64.373c1.26 0 2.8-.08 4.646-.238l.477-2.337H27.63l.16-3.406H16.35l-.07 1.89c-1.32-.367-1.98-.195-1.98.518s.59 1.138 1.773 1.276l.397 1.822 8.1.475z" class="K"/><g class="N"><path d="M22.944 58.35c-.057.995.828 1.248 1.073.332.187-.698-.833-.765-1.155-.332"/><path d="M26.277 58.192c.017.212.005.428.052.635.206.898 1.328.027.733-.724"/></g><path d="M28.074 57.224c.245 0-.045 2.182-.2 2.62-.195.555-.655.436-1.152.436-.158 0-.294-.005-.414-.02a6.76 6.76 0 0 0-.764-.783l-.222-.184.055.322-.07-.112c-.3.76-.907.974-1.642.974-1.7 0-2.38-1.294-2.107-3.254h6.515zm-3.38.884h-2.297v.01c-.03.47.024.836.15 1.097l.076.132c.2.295.557.45 1.122.45.385 0 .65-.247.818-.853l.045-.183.033-.187.032-.25.022-.217zm2.73 0h-1.702c.242.99.56 1.42 1.153 1.484l.167.01c.024 0 .037-.005.06-.027.048-.045.1-.135.148-.27.078-.223.133-.536.16-.936l.014-.26z" class="G O"/><g class="C B E"><g class="I"><path d="M25.59 59.77c.8.63 1.507 1.547 1.386 1.698-.16.198-.733.24-.874.158-.113-.065-.062.023-.062.76"/><path d="M23.844 61.77c.935.693 1.973.78 2.998.57"/></g><g class="J"><path d="M24.845 63.548c.2.8.673 1.304 1.174 1.974"/><path d="M25.663 63.46c.547 1.728.425.99.55 2.173"/><path d="M26.344 63.585c.163 1.68.144.98.144 2.092"/><path d="M27.068 63.585l-.375 2.297"/><path d="M27.574 63.648c-.045.814-.26 1.464-.668 2.167"/><path d="M28.13 63.566c-.075.794-.3 1.56-.837 2.18"/><path d="M28.435 64.42c-.66.885-.74 1.156-1.73 1.388"/></g><path d="M23.91 61.48c-.06.16-.18.32-.378.328" class="I"/></g><g class="F"><rect x="43.349" y="61.768" width="52.245" height="6.39" rx="3.195"/><rect x="43.349" y="331.693" width="52.245" height="6.39" rx="3.195"/></g><g class="M"><rect x="12.251" y="96.38" width="234.568" height="6.39" rx="3.195"/><rect x="12.251" y="114.129" width="234.568" height="6.39" rx="3.195"/></g><g class="T"><rect x="43.349" y="52.893" width="61.307" height="6.39" rx="3.195"/><rect x="43.349" y="322.818" width="61.307" height="6.39" rx="3.195"/></g><g class="M"><rect x="12.251" y="87.505" width="234.568" height="6.39" rx="3.195"/><rect x="12.251" y="105.254" width="234.568" height="6.39" rx="3.195"/><rect x="12.251" y="131.879" width="199.916" height="6.39" rx="3.195"/><rect x="12.251" y="159.39" width="199.916" height="6.39" rx="3.195"/><rect x="43.537" y="343.23" width="199.916" height="6.39" rx="3.195"/></g><rect x="43.349" y="227.859" width="52.245" height="6.39" rx="3.195" class="F"/><rect x="43.349" y="218.984" width="61.307" height="6.39" rx="3.195" class="T"/><g class="M"><rect x="43.537" y="239.396" width="199.916" height="6.39" rx="3.195"/><rect x="43.537" y="257.145" width="199.916" height="6.39" rx="3.195"/><rect x="43.537" y="274.895" width="199.916" height="6.39" rx="3.195"/><rect x="43.537" y="248.271" width="191.919" height="6.39" rx="3.195"/><rect x="43.537" y="266.02" width="191.919" height="6.39" rx="3.195"/><rect x="43.537" y="283.77" width="191.919" height="6.39" rx="3.195"/></g><rect fill-opacity=".054" x="43.537" width="172" height="31.949" rx="3.6" class="F"/><g transform="translate(222.348)"><rect x=".652" width="30" height="30" rx="11" class="F"/><path d="M23.985 8.01l-17.578 3.9c-.4.087-.698.402-.748.785s.16.755.528.93l4.992 2.39.5 4.793c.04.385.334.705.73.8s.817-.055 1.047-.374l.152-.146-1-3.658c-.043-.476.208-.934.645-1.178l4.338-2.42-3.467 3.156c-.246.225-.35.555-.272.868l1.58 6.435c.09.376.426.658.832.705s.8-.152.988-.497l8.257-15.198c.04-.056.072-.116.097-.18.086-.213.033-.538-.066-.762-.122-.276-.64-.392-1.558-.347z" class="H"/></g><rect x="12.251" y="123.004" width="225.682" height="6.39" rx="3.195" class="M"/><path d="M19.952 193.114a3.07 3.07 0 0 0-2.369 1.154 3.07 3.07 0 0 0-2.369-1.154c-1.633 0-2.962 1.244-2.962 2.773 0 3.046 4.812 5.897 5.017 6.017.096.056.205.084.314.084s.218-.028.314-.084c.205-.12 5.017-2.97 5.017-6.017 0-1.53-1.33-2.773-2.962-2.773" class="R"/><g transform="translate(30.91 193.114)" class="F"><path d="M7.616 4.93a.5.5 0 0 1-.508-.493.5.5 0 0 1 .508-.493.5.5 0 0 1 .508.493.5.5 0 0 1-.508.493m-2.03 0a.5.5 0 0 1-.508-.493.5.5 0 0 1 .508-.493.5.5 0 0 1 .508.493.5.5 0 0 1-.508.493m-2.03 0a.5.5 0 0 1-.508-.493.5.5 0 0 1 .508-.493.5.5 0 0 1 .508.493.5.5 0 0 1-.508.493M5.585 0C2.785 0 .508 1.99.508 4.437c0 .855.275 1.672.8 2.384L0 8.875h5.585c2.8 0 5.077-1.99 5.077-4.437S8.385 0 5.585 0"/></g></g></g></g></g><g transform="translate(-17 485.5)"><use fill="#000" filter="url(#H)" xlink:href="#G"/><use xlink:href="#G" class="H"/><g transform="translate(98.5 16)" class="F"><path d="M20.09.01L.828 4.443c-.437.1-.765.457-.82.893a1.04 1.04 0 0 0 .578 1.058L6.057 9.1l.56 5.45a1.05 1.05 0 0 0 .8.908c.435.11.895-.062 1.148-.425l.166-.166-1.106-4.16a1.41 1.41 0 0 1 .707-1.339l4.754-2.752-3.8 3.588c-.27.255-.382.63-.298.987l1.732 7.316c.1.428.467.748.912.802a1.08 1.08 0 0 0 1.083-.565l9.05-17.278a1.02 1.02 0 0 0 .106-.204c.095-.242.036-.612-.072-.866-.134-.314-.703-.445-1.707-.395z"/></g><path d="M63.5 26h4v-4h-4v4zm-6 0h4v-4h-4v4zm0 6h4v-4h-4v4zm-6-6h4v-4h-4v4zm0 6h4v-4h-4v4zm17-16h-2v-2h-2v5h-2v-3h-6v-2h-2v5h-2v-3h-2a2 2 0 0 0-2 2v15c0 1.102.897 2 2 2h18c1.103 0 2-.898 2-2V18c0-1.103-.897-2-2-2z" class="F"/><g transform="translate(198.5 14)" class="F"><path d="M17.857 11.786c-.657 0-1.2-.528-1.2-1.18s.533-1.18 1.2-1.18 1.2.528 1.2 1.18-.533 1.18-1.2 1.18m-4.762 0c-.657 0-1.2-.528-1.2-1.18s.533-1.18 1.2-1.18 1.2.528 1.2 1.18-.533 1.18-1.2 1.18m-4.762 0c-.657 0-1.2-.528-1.2-1.18s.533-1.18 1.2-1.18 1.2.528 1.2 1.18-.533 1.18-1.2 1.18M13.095 0C6.53 0 1.2 4.76 1.2 10.607c0 2.045.644 3.998 1.873 5.7L0 21.214h13.095C19.66 21.214 25 16.455 25 10.607S19.66 0 13.095 0"/></g><g transform="translate(149.5 16)" class="F"><path d="M10.023 17.822L1.417 9.476l5.056-4.902 3.304 3.204 5.292-5.645H2.2C.986 2.133 0 3.09 0 4.267v12.8C0 18.243.986 19.2 2.2 19.2h15.4c1.213 0 2.2-.957 2.2-2.133V7.393l-9.777 10.43z"/><path d="M9.947 14.73l-5.42-5.254L6.472 7.59l3.38 3.278L19.882.17l2.035 1.793z"/></g><g transform="translate(250.5 16)" class="F"><path d="M10.08 9.6c2.78 0 5.04-2.153 5.04-4.8S12.86 0 10.08 0 5.04 2.153 5.04 4.8s2.26 4.8 5.04 4.8"/><path d="M10.08 10.8C4.145 10.8 0 13.76 0 18v1.2h20.16V18c0-4.24-4.145-7.2-10.08-7.2"/></g></g></g></g><path d="M93.3 13.5c0 7.456 6.044 13.5 13.5 13.5H204c7.456 0 13.5-6.044 13.5-13.5h0H93.3z" fill="#011638"/></g></svg>