<?xml version="1.0" encoding="UTF-8"?>
<svg width="1154px" height="929px" viewBox="0 0 1154 929" version="1.1" xmlns="http://www.w3.org/2000/svg" xmlns:xlink="http://www.w3.org/1999/xlink">
    <title>glueup-ask-faster</title>
    <g id="Features" stroke="none" stroke-width="1" fill="none" fill-rule="evenodd">
        <g id="glueup-ask-faster">
            <path d="M74.9314514,111.194977 C154.694572,9.49046991 304.676318,-4.193641 430.030797,0.910795392 C555.385277,6.01523179 597.754699,36.5189002 660.534739,135.040752 C723.314779,233.562605 709.315783,310.352486 673.566457,383.095709 C655.676511,419.498419 623.586623,450.521058 582.9048,475.239189 C561.311524,488.359186 516.625455,495.314537 516.625455,591.420343 C516.625455,687.526149 459.562755,525.900892 431.984952,531.346769 C293.883996,558.618006 137.334119,535.650201 63.9980606,445.685013 C-5.66409876,360.226789 37.9008397,223.639365 58.1108501,135.703321 L74.9314514,111.194977 Z" id="Path-129" fill="#011638" transform="translate(365.000000, 311.000000) scale(-1, 1) translate(-365.000000, -311.000000) "></path>
            <polygon id="Fill-1226" fill="#0D62FE" points="326.939684 355 250 432 293.52579 432 364.108985 361.376875 364.108985 432 394.891015 432 394.891015 361.376875 465.47421 432 509 432 432.060316 355"></polygon>
            <path d="M504,208.102779 L437.995125,273.519018 C434.997,276.506339 431.061,278 427.125,278 C423.189,278 419.253,276.506339 416.254875,273.519018 L396.375,253.827084 L376.495125,273.519018 C370.4835,279.493661 360.7665,279.493661 354.754875,273.519018 L319.5,238.585649 L299.620125,258.277583 C296.745,261.142973 292.824375,262.758565 288.75,262.758565 L258,262.758565 L258,232.275695 L282.38475,232.275695 L308.629875,206.243323 C314.6415,200.299164 324.3585,200.299164 330.370125,206.243323 L365.625,241.191934 L385.504875,221.484759 C391.5165,215.540599 401.2335,215.540599 407.245125,221.484759 L427.125,241.191934 L504,165 L504,208.102779 Z M503.3,125 L257.7,125 C240.76895,125 227,138.696 227,155.571429 L227,308.428571 C227,325.273429 240.76895,339 257.7,339 L503.3,339 C520.23105,339 534,325.273429 534,308.428571 L534,155.571429 C534,138.696 520.23105,125 503.3,125 L503.3,125 Z" id="Fill-1227" fill="#0D62FE"></path>
            <g id="Group-27" transform="translate(448.000000, 593.000000)">
                <path d="M317.207354,0.978851964 C320.50955,13.5560288 322.762586,22.5469653 323.966463,27.9516616 C325.17034,33.3563579 326.422027,44.5950286 327.721524,61.6676737 C356.259985,49.6797583 370.529216,57.6717019 370.529216,85.6435045 C370.529216,113.615307 356.259985,123.10574 327.721524,114.114804 L327.721524,221.256798 L43.0879207,228 C43.2582885,165.407386 43.2582885,127.445653 43.0879207,114.114804 C12.0460854,121.607251 -2.22314541,112.116818 0.280228413,85.6435045 C2.78360223,59.1701913 17.052833,51.1782477 43.0879207,61.6676737 C44.0686971,49.747513 45.8210588,29.5179058 48.3450057,0.978851964 L317.207354,0.978851964 Z M85.895613,36.9425982 C66.3692972,97.8811682 64.6169356,144.33434 80.638528,176.302115 C90.8276072,196.632315 176.938558,202.059878 233.093994,196.531722 C254.523952,194.422075 276.553642,187.678873 299.183062,176.302115 C303.075742,155.628469 304.577767,134.399869 303.689135,112.616314 C302.800504,90.8327592 299.546118,69.1046625 293.925977,47.4320242 C280.407759,32.4471299 247.363224,22.9566969 194.792374,18.9607251 C142.221524,14.9647533 105.922604,20.958711 85.895613,36.9425982 Z" id="Combined-Shape" fill="#001D71"></path>
                <g id="Group-19" transform="translate(88.927940, 100.546100)" fill="#212121" fill-rule="nonzero">
                    <path d="M71.3933659,14.3146209 C71.8379877,14.3256779 72.2163345,14.3539875 72.5279436,14.4138179 C72.7432914,14.4551656 72.9378308,14.5078298 73.1783247,14.6144863 L73.3578988,14.69673 C73.5437939,14.7893823 73.6489343,14.8847217 74.1395897,15.3296388 L74.3430458,15.670016 C74.4944374,15.9275454 74.6010965,16.1259162 74.66794,16.3111583 L74.684,16.361 L74.7229242,16.3667696 L74.9772709,16.4202085 C75.7097528,16.6036302 76.3838082,17.0209388 76.8220577,17.8248629 L76.9152,18.0103366 L76.977,18.158 L77.0555294,18.1431869 C78.0669551,17.9600165 79.0426988,18.1094146 79.7906592,18.5803199 L79.962,18.696 L79.996888,18.6916646 C80.7696962,18.5892007 81.5637428,18.748825 82.2850241,19.2496709 L82.4637741,19.382037 C83.0555708,19.8483452 83.4196181,20.5415395 83.4714962,21.2874067 L83.4779133,21.47487 L83.475,23.966 L83.5184658,24.0729827 C83.9620595,25.251841 83.6486774,26.6160607 82.4056328,27.4556515 L82.2303481,27.5668226 C81.763966,27.8444324 81.3425054,27.9860278 80.6808113,28.1296805 L80.1701702,28.2330933 C80.0017169,28.2647448 79.2556305,28.4035541 79.0339407,28.4487118 C78.8447925,28.487241 78.6781251,28.5244113 78.5323628,28.5605852 L78.43,28.587 L78.4447754,28.8771303 C78.5285021,30.4678432 78.4414348,31.3401914 77.7291826,32.446313 C64.7222552,52.6459603 46.0292639,69.5882088 27.3416099,75.6419298 C25.1652764,76.3469362 23.1036478,74.8240542 23.3183546,72.5037008 C23.3747196,71.8945595 23.5745946,71.2912857 23.8937003,70.6275029 L23.95,70.513 L23.8419049,70.5263396 C23.6117912,70.5461067 23.3650927,70.533438 23.0927285,70.4808363 L22.8835011,70.4337806 C21.3190374,70.0339298 20.7594084,68.7615424 20.8352169,67.571543 C20.859536,67.1897957 20.9439773,66.8730875 21.0724135,66.5323181 C21.3197416,65.8761025 21.8206865,64.9805529 22.539102,63.8448124 C22.9897593,63.1323698 23.4918498,62.3809666 24.0016852,61.6525472 L24.462,61.003 L24.1434138,61.2720198 L23.0676201,62.1670645 L21.87837,63.13928 C20.6314469,64.1472149 19.6525976,64.8973772 19.0339372,65.3100161 C18.7468318,65.5015118 18.5079183,65.6434667 18.2514865,65.7584297 C17.891066,65.9200126 17.555383,66.0211137 17.0653947,66.0220169 C16.9066793,66.0223094 16.7502492,66.0087011 16.5975186,65.9822017 L16.531,65.968 L16.2119806,66.9403473 L15.9784762,67.6683131 C15.533531,69.069053 14.0373076,69.8438778 12.6365677,69.3989326 C11.2358278,68.9539875 10.4610031,67.4577641 10.9059482,66.0570241 C14.4786013,54.8098903 19.6284004,44.0300631 25.5255993,36.2913545 C32.799423,26.7461445 41.0042721,21.988653 49.7350847,23.673424 L50.1150154,23.7507394 C50.8924327,23.9171255 51.5473081,24.0302793 52.1174809,24.0908388 L52.39,24.115 L54.180245,22.4213846 C55.3966091,21.2704529 56.5395848,20.6313082 58.5057805,19.934361 L58.694,19.868 L58.7302358,19.8431685 C60.4367995,18.6714291 61.896591,18.0451241 64.3393411,17.3311665 L64.993,17.144 L65.4163514,16.7098532 C66.4571537,15.6426245 67.3109216,15.0285095 68.6875506,14.5842569 C69.3271891,14.3778388 70.1553912,14.3051416 71.0535211,14.3093068 L71.3933659,14.3146209 Z M73.142,29.417 C72.6866206,29.7067033 72.3847593,29.9516072 72.1482154,30.2119586 L71.5076684,30.9205649 C68.647185,34.1035159 67.5155763,35.6478578 65.0288109,39.5725427 L63.8402951,41.4566292 C63.6788889,41.7096545 63.5272932,41.9436867 63.3759162,42.1731938 C61.342158,45.2566342 59.0982645,47.7846024 55.1556149,51.1840032 L53.9874319,52.1763539 C51.5168621,54.2474173 49.1867051,56.0246536 44.9697796,59.1070617 L41.4764168,61.6538309 C38.8975188,63.5397249 36.958203,64.9874198 35.3037778,66.2823108 L34.681,66.773 L34.8628168,66.6791437 C48.9535307,59.2876905 62.6639779,45.8018731 72.8436015,30.1985987 L73.145,29.733 L73.146475,29.5786238 L73.142,29.417 Z M47.536,28.734 L47.5191856,28.7321014 C37.8714915,27.8850149 27.9792474,38.6934561 20.627791,55.3091912 L20.505,55.587 L21.9196628,54.1049342 C28.8213803,46.8947988 36.2612554,39.5304476 45.7236034,30.4675823 L47.536,28.734 Z M61.05,35.912 L57.4707232,39.3797335 C56.4536859,40.3716115 55.3573102,41.4454429 54.1527094,42.6287814 L46.0663039,50.588567 C44.9857625,51.6490989 43.9642409,52.648916 42.9926658,53.596396 L41.494,55.054 L43.8399725,53.3330457 C46.7223331,51.2027321 48.5926253,49.7514637 50.5226716,48.1357263 L51.2600577,47.5130399 L52.0571044,46.8263029 C55.2652507,44.0270958 57.0941891,41.9751358 58.736726,39.5372405 L58.9330121,39.2427681 C59.1150227,38.9668164 59.3001287,38.6793226 59.5093776,38.3483566 L60.5927625,36.6298638 L61.05,35.912 Z M66.4656653,23.8319604 C65.6051455,24.4859895 64.7221422,24.9490425 63.5744257,25.3314148 L63.2219271,25.4438163 C62.3339754,25.7149362 61.601304,26.0366826 60.8439787,26.4663597 L60.5173767,26.6572821 C60.1695892,26.8663435 58.9832962,27.6357086 58.7858584,27.7579755 C57.7368824,28.4075732 56.722128,28.8717645 55.6296417,29.1482159 L55.451,29.19 L55.1313332,29.4749135 C53.7432792,30.7164938 52.3174623,32.0722737 50.8203557,33.5646479 L49.6309325,34.7646619 C47.7841405,36.653462 46.1344066,38.4752045 43.4385607,41.5737529 L38.928,46.776 L40.3456064,45.5928854 C41.9165578,44.2874914 43.638833,42.8783894 45.548853,41.3315177 L52.7661701,35.5102635 C55.0827443,33.6333908 57.1029921,31.9793542 58.8903753,30.4892343 L60.016,29.546 L60.1843515,29.3879539 C60.8807581,28.7310188 61.5702705,28.0853361 62.271354,27.4332969 L63.603954,26.1989754 C64.307621,25.5497291 65.0597604,24.9387662 65.8527555,24.3694344 L66.143,24.165 L66.663,23.677 L66.4656653,23.8319604 Z" id="Path-87" transform="translate(47.244820, 45.062269) rotate(28.000000) translate(-47.244820, -45.062269) "></path>
                    <path d="M109.274,21.94 L109.491361,21.895052 L110.319918,21.7322962 C112.433605,21.3353896 113.471284,21.3128872 114.612963,22.0167236 L115.569899,22.5991634 C117.074,23.502166 118.578517,24.3442274 120.837202,25.5561119 L122.862,26.635 L124.966277,27.5247262 C129.344803,29.3869476 132.584545,30.8514096 135.518454,32.3385364 L136.137,32.654 L140.941659,34.2999428 C142.891035,34.9712378 144.371992,35.5044366 145.855919,36.0766581 C152.569214,38.6653917 158.145239,41.7024007 164.371575,46.4674789 L165.041252,46.9846938 C165.169402,47.0845607 165.342742,47.2059181 165.570147,47.3547567 L166.100753,47.6910072 L167.107644,48.3110092 C167.992431,48.8579601 168.593391,49.2574233 169.144575,49.6885265 C170.0302,50.3812099 170.661145,51.0587859 171.041551,51.921729 C171.699042,53.4132352 171.323447,55.0357318 170.059903,56.1322036 C168.671742,57.3368139 167.409562,57.7203765 165.563035,57.5662003 L165.469,57.557 L165.583876,57.6726522 C166.086778,58.2013817 166.417579,58.8435598 166.333308,59.767558 L166.306382,59.9858677 C166.102346,61.3068717 165.254533,61.9466716 164.297392,62.2167229 C163.973009,62.3082455 163.673716,62.3407748 163.338131,62.3473509 C162.99002,62.3541725 162.570811,62.3294428 162.040109,62.2750415 L161.76528,62.245377 C161.396959,62.203793 160.967801,62.1483331 160.471476,62.0780588 L160.105,62.025 L160.004453,62.1034774 C159.307582,62.6120719 158.382317,62.8019723 157.440064,62.5470773 L157.263245,62.4940412 C156.2739,62.1679605 155.328823,61.8087047 154.390426,61.3989133 L153.663,61.07 L156.731435,62.6908104 L156.932314,62.800767 L157.299547,63.0109719 C157.410253,63.0763253 157.509931,63.1374584 157.600608,63.1958543 C158.090725,63.5114881 158.333442,63.701649 158.648141,64.2002127 C159.447326,65.4663257 159.162911,67.3589345 157.452133,68.1025862 C156.87571,68.353149 156.475583,68.3652442 155.98505,68.3083847 C155.699647,68.2753026 155.417476,68.2085773 155.04569,68.1013137 C154.54926,67.9580893 154.059107,67.8115861 153.575165,67.6616538 L153.107,67.514 L153.061238,67.611461 C152.745016,68.216581 152.223626,68.6597874 151.61804,68.9099487 L151.450884,68.9733649 C150.984642,69.1349262 150.543462,69.1735176 150.062823,69.1497621 C138.000518,68.5535841 127.484208,63.9948113 117.972739,55.9220272 C110.373007,49.4718147 103.796283,41.2532074 96.3963327,29.7960481 C95.5989368,28.5614598 95.9533513,26.9142111 97.1879397,26.1168152 C98.3731445,25.3513152 99.938657,25.6473236 100.767487,26.7645138 L100.85,26.884 L100.947938,26.7778779 C101.161288,26.5584449 101.412953,26.3720138 101.697173,26.2289687 L101.871566,26.1484311 C102.643825,25.8227028 103.257756,25.7857018 103.998153,26.0110937 L104.161,26.064 L104.172686,25.9557696 C104.187859,25.8453516 104.210126,25.7351418 104.239702,25.6257664 L104.257,25.567 L104.221133,25.4612699 L104.168795,25.2663575 C104.075641,24.8700735 104.054326,24.4507364 104.174707,23.9675206 C104.375335,23.1621866 104.939611,22.4761551 105.735451,22.1378424 C106.402984,21.8540727 106.921535,21.8484775 107.425083,21.9824688 L107.535,22.014 L107.605914,22.0008513 C108.111473,21.9119754 108.652283,21.8925209 109.233744,21.9367049 L109.274,21.94 Z M111.605411,41.8202274 C114.807244,45.6807201 118.01604,48.9779207 121.416749,51.8642459 C127.078921,56.6699699 133.067242,60.0797561 139.560819,62.0141167 L140.096,62.169 L138.932003,61.5143331 C138.533312,61.292615 138.107469,61.0580407 137.647991,60.8067407 L134.206923,58.9387267 C129.067568,56.1348183 126.490657,54.5449853 123.666618,52.2770363 L122.743128,51.5230296 C119.950805,49.21724 116.021407,45.7756433 112.326984,42.4064756 L111.357,41.518 L111.605411,41.8202274 Z M140.106,44.762 L141.493323,46.0871527 C143.577645,48.0597351 144.781152,49.0923859 146.286819,50.1794932 L147.289533,50.8990537 C148.755042,51.9437009 150.051575,52.834445 151.240563,53.6012206 L151.509,53.773 L151.149191,53.4104284 C150.61052,52.8795269 150.059984,52.3800346 149.497972,51.9134771 L149.074318,51.5697581 C146.588421,49.5993694 144.028907,47.6465016 141.335727,45.6632077 L140.106,44.762 Z" id="Path-88" transform="translate(133.665258, 45.305996) rotate(-19.000000) translate(-133.665258, -45.305996) "></path>
                </g>
                <path d="M144.363601,98.9281752 C150.148017,97.1361622 154.791548,98.1896938 162.432515,101.837443 L165.990314,103.567324 C166.060166,103.600639 166.129025,103.63337 166.197314,103.665719 C167.525538,104.294902 168.092222,105.881694 167.463039,107.209917 C166.833856,108.53814 165.247065,109.104824 163.918841,108.475641 L161.932425,107.513108 L161.045546,107.078393 C153.98112,103.624205 150.252794,102.67555 145.938598,104.012089 C142.995841,104.923755 141.926413,111.589819 142.409054,119.140251 C142.985045,128.151043 155.401789,132.935636 164.094687,128.596981 C165.409707,127.94065 167.007803,128.474623 167.664134,129.789643 C168.320465,131.104663 167.786492,132.702759 166.471472,133.35909 C154.70316,139.232694 137.94754,132.776185 137.097603,119.479771 C136.882202,116.110051 136.916644,112.716347 137.44537,109.420641 C138.316473,103.990787 140.386803,100.160188 144.363601,98.9281752 Z" id="Path-102" fill="#001C6C" fill-rule="nonzero"></path>
                <path d="M200.218122,110.200661 C205.920476,105.059845 211.079201,102.637723 215.479173,102.994425 C219.794105,103.344233 222.859477,106.322537 224.04189,110.702981 C226.310851,119.108722 221.549353,129.755932 212.466405,133.751733 C209.808386,134.921058 207.165545,135.49726 204.263211,135.629352 L203.715915,135.648951 C201.821875,135.69873 200.474654,135.618987 197.210872,135.30919 L194.804592,135.081899 C194.350395,135.041579 193.955378,135.009351 193.541707,134.978777 C192.075995,134.870447 190.975618,133.594434 191.083947,132.128722 C191.192277,130.663009 192.46829,129.562633 193.934002,129.670962 L195.029825,129.758925 C195.486132,129.79838 195.986482,129.844805 196.611769,129.904841 L198.967237,130.12632 C201.12436,130.31784 202.207877,130.364456 203.576082,130.328496 C206.035578,130.263855 208.165729,129.829155 210.323225,128.880022 C216.943072,125.967797 220.501627,118.010494 218.903504,112.089985 L218.799045,111.732133 C217.237616,106.773545 212.20919,106.556255 203.781878,114.15369 C202.690279,115.137794 201.007589,115.050652 200.023485,113.959053 C199.039382,112.867454 199.126523,111.184764 200.218122,110.200661 Z" id="Path-103" fill="#001C6C" fill-rule="nonzero"></path>
                <g id="Group-66" transform="translate(110.000000, 28.000000)" fill="#212121">
                    <path d="M2.14226153,7.18472795 C0.641674111,33.53124 23.9418265,40.2369739 30.4012115,15.9859492 C35.3292252,-2.51571689 8.46838711,-4.27127013 0,7.18472795" id="Path-154" transform="translate(15.500000, 15.500000) scale(1, -1) translate(-15.500000, -15.500000) "></path>
                    <path d="M90,3.32548412 C90.470096,8.8795023 90.1226043,14.5548957 91.4102879,19.9875387 C96.9956454,43.551754 127.493903,20.6891281 111.320952,1" id="Path-155" transform="translate(103.000000, 15.500000) scale(1, -1) translate(-103.000000, -15.500000) "></path>
                </g>
                <path d="M206.176864,76.607521 L206.204442,77.0820041 L206.244123,77.9347836 C206.333438,80.2012823 206.291687,82.4374123 206.141249,85.3696686 L205.869799,90.1367675 L205.663028,94.4616721 C205.467912,98.3634889 205.321837,100.552446 205.072287,103.264476 L205.046982,103.537505 C203.843126,116.435551 201.091215,125.879154 195.361913,133.346234 C186.856371,144.431627 176.894928,144.352839 169.770736,135.088086 C163.860317,127.401802 161.049368,114.680339 163.243154,104.887093 L163.642597,103.119211 C167.819889,84.7940029 170.774326,77.0482993 173.820446,74.8486496 L173.927,74.773 L173.882174,74.0311101 L173.413984,67.4217893 C173.314321,65.955462 174.422221,64.6859756 175.888548,64.586312 C177.354875,64.4866484 178.624362,65.5945482 178.724025,67.0608755 L179.211622,73.9662528 C179.276677,74.9872744 179.295991,75.5656136 179.275355,76.0315233 L179.269886,76.1371955 C179.189555,77.4903512 178.639755,78.5930213 177.272243,79.1207138 C177.199586,79.1487504 177.100002,79.1802165 177.000229,79.2094304 L176.799,79.264 L176.668423,79.4249164 C176.615815,79.4939737 176.551169,79.5833324 176.47459,79.6966023 L176.394038,79.8179763 C175.927061,80.5340644 175.381909,81.6392828 174.765572,83.1888346 L174.632413,83.5277026 C172.895638,88.0003095 170.840799,95.3185522 168.436733,106.050507 C166.588112,114.302907 169.04225,125.409553 173.989871,131.843755 C178.995612,138.353538 184.776421,138.39926 191.139349,130.106366 C196.036536,123.723793 198.531676,115.361778 199.681622,103.730845 L199.842019,102.001592 C200.043263,99.7027363 200.176129,97.6223565 200.349087,94.1610933 L200.579484,89.3819298 L200.793146,85.7152807 C200.981437,82.2652121 201.023667,79.8661804 200.889771,77.3667112 C200.504712,70.1787626 205.66357,68.4261405 206.176864,76.607521 Z" id="Path-86" fill="#001C6C" fill-rule="nonzero"></path>
                <path d="M157.241767,11 C163.567509,11 169.990761,11.4568223 176.511523,12.370467 L177.735308,12.547129 C180.31716,12.9307729 182.355307,14.9336988 182.778733,17.5033988 C184.709951,29.2236319 185.492373,41.1654944 185.125998,53.3289861 C186.825905,54.5616004 189.068153,54.2795926 191.85229,52.4838672 C191.546508,40.6115022 192.336811,28.9517181 194.223224,17.5033988 C194.635507,15.0013225 196.578645,13.0365825 199.063968,12.5807616 L199.266649,12.547129 L200.490435,12.370467 C207.011196,11.4568223 213.434448,11 219.76019,11 L221.247407,11.0072837 C229.555708,11.0833575 246.351029,11.7553435 271.633371,13.0232414 C274.318128,13.1578808 276.66021,14.865433 277.611092,17.3593035 L277.685121,17.5632168 L277.934011,18.294206 C281.709288,29.5313209 283.596927,42.0848131 283.596927,55.9546828 C283.596927,69.1893183 281.838355,80.7117258 278.321211,90.5219054 C277.076205,93.9945333 273.835959,96.3486715 270.157304,96.4791468 L269.921916,96.4844444 L266.303392,96.513707 C259.192628,96.5603287 252.83958,96.5355667 247.244247,96.4394209 L244.017776,96.3821459 C236.273222,96.2660344 223.09049,96.2611653 204.469582,96.3675387 C200.169747,96.3921018 196.463229,93.3852081 195.594189,89.2055103 L195.550361,88.9804865 L195.3448,87.83092 C194.319054,82.0007625 193.509061,75.9532103 192.914824,69.6882634 C190.032233,66.5938794 187.069449,66.3545779 184.027215,68.9687325 C183.199698,76.4820844 181.93718,83.9768971 180.240821,91.4540821 L179.950124,92.7170548 C179.027788,96.6676449 175.568136,99.5128603 171.504992,99.662325 L153.510938,100.299513 C144.559098,100.600781 137.7234,100.800381 133.003845,100.898313 L130.37875,100.946427 C124.504008,101.040141 117.81235,101.056894 110.303775,100.996685 L108.486032,100.980756 C104.723769,100.945039 101.379653,98.5813332 100.098342,95.052125 C95.636134,82.7615374 93.4050299,69.7290566 93.4050299,55.9546828 C93.4050299,42.0848131 95.2926688,29.5313209 99.0679465,18.294206 L99.3168359,17.5632168 C100.215399,14.9588821 102.611268,13.1615197 105.368586,13.0232414 L113.895639,12.6026095 C135.952506,11.5342032 150.401216,11 157.241767,11 Z M149.731645,18.4924471 L148.54865,18.536447 C141.025969,18.8451979 130.482625,19.8067899 116.91862,21.4212229 L114.712682,21.6862987 C113.312088,21.8561715 112.218724,22.9755565 112.084743,24.3767816 L111.912639,26.212038 C109.174651,56.0014437 110.015129,76.6548328 114.434075,88.1722054 C116.395069,93.2832673 135.671047,94.0325121 172.26201,90.4199396 L172.592514,87.6311685 C174.543851,70.9102745 175.414279,58.6447562 175.203798,50.8346136 L175.19454,50.516157 C174.938,42.3014989 173.96049,32.1264254 172.26201,19.9909366 C165.620599,18.7140044 158.110478,18.2145079 149.731645,18.4924471 Z M218.824763,18.4924471 L218.012496,18.467616 C210.142026,18.2480975 205.717843,18.755871 204.739947,19.9909366 L204.512805,21.6336246 C202.954092,33.0473816 202.052296,42.6748924 201.807418,50.516157 L201.787326,51.2742048 C201.607472,59.4801608 202.530208,71.5297461 204.555532,87.4229607 C242.648519,89.5370438 262.675509,88.0385543 264.636504,82.9274924 C269.135946,71.200316 269.272831,51.655645 265.047159,24.2934794 C264.837129,22.9334887 263.725784,21.8909269 262.352255,21.765367 L255.683104,21.1642403 C238.305034,19.6216865 226.018921,18.7310888 218.824763,18.4924471 Z" id="Shape" fill="#F3A712"></path>
                <path d="M152.64595,160.31846 C153.574638,159.179344 155.250925,159.008759 156.390042,159.937448 C161.454486,164.066343 168.464734,165.822762 177.600969,165.776184 L178.497375,165.766584 C182.38003,165.703093 186.282354,165.353546 191.869142,164.659348 L197.091772,164.007624 C203.453595,163.230009 204.753863,163.184511 207.210665,163.428107 C210.53038,163.757262 210.680937,167.881591 208.789959,169.605005 L208.728,169.658 L205.436421,172.939235 C205.328783,173.046506 205.212254,173.14426 205.088154,173.231484 L204.896492,173.354293 C202.143637,174.956423 199.435035,176.044119 196.711549,176.522048 C195.239118,176.780437 193.875772,176.687386 191.737108,176.317188 L190.238625,176.047419 L189.917,175.992 L190.198685,176.13281 C191.597876,176.840456 192.479887,177.446867 193.202529,178.300717 L193.345038,178.474889 C195.97182,181.794473 196.01168,185.137774 193.194192,187.268057 C191.468634,188.572738 188.929708,189.194602 185.599923,189.457727 C183.89576,189.592393 182.265582,189.617568 180.272494,189.580083 L178.388312,189.540487 C176.920838,189.621548 175.665504,188.497638 175.584443,187.030165 C175.503382,185.562692 176.627292,184.307357 178.094765,184.226297 C178.222544,184.219238 178.358418,184.217126 178.537705,184.218587 L179.790601,184.246237 C181.899543,184.296716 183.529847,184.282424 185.180653,184.151975 C187.451774,183.972507 189.14458,183.575013 189.885027,183.092209 L189.955,183.043 C189.881259,182.818939 189.680223,182.444542 189.293136,181.934554 L189.17137,181.777507 C188.963173,181.514399 188.28462,181.101191 186.980086,180.486753 L185.339808,179.726265 L185.201455,179.659894 C183.876729,179.020484 183.031508,178.499116 182.359474,177.755366 C181.059188,176.316317 180.953114,174.358557 182.229075,172.767818 C183.000055,171.806639 183.952027,171.165478 185.049989,170.79692 L185.26,170.73 L185.206356,170.735131 C182.677337,170.953079 180.41629,171.06969 178.120662,171.094494 L177.628102,171.098407 C167.37136,171.150697 159.21436,169.106959 153.026962,164.062552 C151.887846,163.133864 151.717261,161.457577 152.64595,160.31846 Z M201.931,168.918 L202.046,168.804 L201.124939,168.897988 C200.525474,168.96196 199.84999,169.038763 199.080326,169.129805 L191.810666,170.029094 C191.138474,170.111182 190.489502,170.188272 189.860774,170.260459 L188.394,170.423 L188.532981,170.432266 C189.100236,170.47226 189.720599,170.556943 190.54513,170.696711 L192.273121,171.007058 C194.056206,171.329228 195.036612,171.412353 195.791628,171.27986 C197.695801,170.945707 199.686385,170.175048 201.771175,169.009995 L201.931,168.918 Z" id="Path-104" fill="#001C6C" fill-rule="nonzero"></path>
            </g>
            <g id="Group-46" transform="translate(986.500000, 775.500000) scale(-1, 1) translate(-986.500000, -775.500000) translate(819.000000, 622.000000)">
                <path d="M189.382342,290.842555 C189.925937,294.675172 190.399798,300.296476 190.83483,306.463905 C178.595008,307.277231 166.203863,306.954581 153.822644,306.073497 C160.783303,282.859883 164.556725,261.473785 168.700456,232.421986 C169.508047,226.759939 170.037658,221.051709 170.499041,215.333378 C172.250038,215.245915 174.032567,215.156794 175.850641,215.074191 C176.271796,215.055056 176.700132,215.023632 177.135147,214.980256 C180.51292,240.366219 185.785322,265.481757 189.382342,290.842555 Z M188.99935,211.648241 C189.705868,214.723761 190.367984,217.837276 190.986474,220.981364 L191.28,222.495 L191.514133,222.91743 L191.514133,222.91743 L191.651,223.16 L193.557598,224.879188 C208.733656,238.481637 224.611052,251.29323 240.486695,264.078238 L242.993259,266.096814 C245.640331,268.228733 248.551995,270.100136 251.670468,271.453236 C258.076325,274.232727 264.703463,276.468093 271.271805,278.849065 C263.988233,283.223222 255.987189,287.285002 247.079079,291.858161 C242.321525,294.300548 237.492741,296.384483 232.604573,298.152255 C228.110363,291.455772 223.527051,284.810331 219.50495,277.83042 C214.56365,269.255339 210.711391,260.078839 206.209636,251.266395 L205.593,250.073 L206.392436,252.008151 C209.941518,260.710038 213.047182,269.604374 216.774568,278.231402 L217.719983,280.382324 C220.205961,285.938779 223.067117,291.355361 226.397192,296.451589 C227.080486,297.497276 227.775305,298.535034 228.47954,299.566319 C218.425372,302.8223 208.135022,304.80874 197.711627,305.885115 C198.396354,281.742749 196.860375,255.51344 192.740814,230.672376 L192.479,229.115 L191.486937,227.716153 C188.24677,223.172324 184.917188,218.687049 181.625443,214.176018 C181.937535,214.098661 182.252868,214.015679 182.570253,213.928054 C185.284982,217.010372 188.129923,219.971478 191.167309,222.724749 L191.167309,222.724749 L191.356,222.894 L191.297576,222.584596 L191.297576,222.584596 L191.28,222.495 L190.644755,221.349188 C189.091684,218.522703 187.602143,215.665147 186.253914,212.738211 C187.030922,212.453907 187.812931,212.146602 188.601286,211.817175 Z M162.610961,215.700679 C162.319689,223.855928 161.792519,231.777726 159.765303,241.351074 C158.315972,248.195408 156.980749,254.482373 155.752973,260.245194 L155.051,263.53 L154.744128,265.201911 C153.349227,272.763215 151.691652,281.668199 149.740571,292.070688 L148.534455,298.493113 C148.00828,301.291542 147.522287,303.608979 147.074061,305.542363 C146.702275,305.509224 146.330154,305.476777 145.958073,305.443935 L145.951767,305.475724 C147.706141,297.677813 150.478253,284.950797 154.560766,265.834531 L155.051,263.53 L155.549795,260.825139 C170.419752,179.856635 151.262725,273.052639 145.185529,305.387774 L145.188497,305.375445 C136.263122,304.574633 127.362444,303.552705 118.547063,302.525991 C119.813321,300.437183 121.048734,298.331118 122.239725,296.198976 C131.738868,279.193368 140.756818,261.911396 149.303126,244.408204 C151.072534,240.784385 152.106783,236.832497 153.131003,232.932367 C154.62172,227.255869 156.281872,221.591418 157.492237,215.849082 C159.165714,215.82084 160.858367,215.768473 162.57444,215.701877 Z M150.76441,215.824349 L150.49739,216.62078 C134.379324,265.009371 147.575276,243.125081 117.965057,302.452005 C114.608752,302.067074 111.268692,301.676394 107.944512,301.29763 L99.9520307,295.309057 C106.52022,284.255049 112.949275,273.115709 119.433303,262.013767 C122.792121,256.262804 126.078113,250.450107 128.879183,244.408204 C133.342,234.781915 137.095675,224.837476 141.292497,215.093127 C144.441163,215.509706 147.583816,215.731727 150.76441,215.824349 Z M131.588782,213.158259 L130.278471,216.195854 C123.553447,231.97006 117.672356,248.106333 110.750934,263.797523 C107.251285,271.731393 103.222727,279.432619 99.0093594,287.01212 C98.0173927,288.796587 97.0109152,290.572828 95.9936331,292.342942 L94.6707546,291.352936 C91.052803,290.566958 86.7055697,289.085763 81.9867854,287.126535 C93.0530769,272.716752 103.834102,258.097318 113.304572,242.624449 C119.23393,232.937053 124.174047,222.711337 128.906801,212.369759 C129.805108,212.653317 130.698735,212.915694 131.588782,213.158259 Z M120.772996,209.114994 L120.352064,209.822468 C119.295844,211.583406 118.224874,213.335345 117.132449,215.074191 C112.313881,222.744054 106.538774,229.791636 101.815781,237.52064 C94.7855114,249.02542 89.0876221,261.317727 81.9025658,272.726611 C79.543934,276.471794 77.1114286,280.168504 74.635758,283.836944 C64.7180311,279.108969 54.0477859,272.930854 45.4115675,266.995324 C61.8384761,256.015841 76.9574407,243.043774 89.5634791,229.101933 C97.3823603,220.454521 104.721903,211.3946 112.015971,202.294432 C114.500562,204.990533 117.394321,207.308231 120.772996,209.114994 Z M206.016751,201.657419 C210.485057,204.5101 214.847487,207.555328 219.252166,210.480763 C224.099927,213.700479 228.274547,217.848669 233.036651,221.193607 C240.02719,226.103815 247.206635,230.748597 254.482049,235.226503 C258.957265,237.98093 263.47721,240.713558 268.266534,242.877061 C275.927886,246.33796 283.7142,249.608257 291.754843,252.063918 C294.413966,252.87603 297.083351,253.653491 299.760941,254.402508 C295.215718,260.238261 290.380467,265.045769 285.152032,269.273018 C263.475923,252.119632 240.949822,236.031731 219.252166,218.89947 C213.389048,214.270009 207.732487,209.379131 202.184858,204.373279 C203.269739,203.644865 204.34612,202.887881 205.410304,202.106376 Z M191.356,222.894 L191.601163,224.192892 C191.901,225.803649 192.189598,227.421676 192.467061,229.045996 L192.479,229.115 L192.740409,229.483769 C195.653402,233.615928 198.47946,237.80512 201.123917,242.114068 C202.646502,244.595008 204.059823,247.136918 205.408112,249.715233 L205.593,250.073 L205.495312,249.836955 C204.587717,247.6703 203.64686,245.518068 202.6561,243.387442 C199.633743,236.887878 195.927891,230.726021 192.393629,224.480734 L191.651,223.16 L191.356,222.894 Z M106.737071,195.074074 L105.22431,196.068614 C70.3810847,218.961487 50.943188,229.931824 26.6213187,249.304181 C20.2825113,239.416551 15.376826,225.752507 12.1689348,216.104087 C14.4628409,215.202154 16.7718503,214.340879 19.1037121,213.543049 C30.5707946,209.619663 42.8460343,208.151191 54.0756524,203.593199 C71.7060469,196.437193 87.6064096,189.971966 101.902565,184.147524 L101.871929,184.159793 C103.170158,187.993227 104.761911,191.683223 106.737071,195.074074 Z M230.495755,168.510643 C251.849834,171.836766 284.160327,171.976296 293.029082,172.722888 C305.755021,173.794186 318.324498,176.440278 331.065388,177.316316 C331.375782,177.337658 332.767761,177.363163 334.909428,177.374719 C334.552146,183.096495 333.853335,188.45547 332.59757,192.369974 C332.046573,194.08756 331.4574,195.805067 330.833484,197.520831 C317.195399,194.243609 303.690359,190.397962 289.964717,187.518778 C278.500043,185.113871 263.141278,182.840498 247.517889,179.65205 L246.524,179.448 L247.893113,180.023993 C273.893818,190.946061 300.20003,201.743953 327.828025,205.163341 C321.912295,219.195383 313.991734,232.944397 305.975949,245.484271 C299.280486,241.438464 292.886036,236.890725 286.13684,232.932367 C274.438407,226.071315 262.308998,219.95877 250.649013,213.032668 C246.975445,210.850546 243.507714,208.316316 240.181678,205.634722 C233.364631,200.138526 226.97855,194.107161 220.284411,188.464355 C223.981499,184.147356 226.936782,179.654777 228.719666,175.277034 C234.514184,176.835161 240.483867,178.199522 246.427501,179.428102 L246.524,179.448 L244.917542,178.773374 C239.840624,176.639142 234.773892,174.510741 229.709762,172.442314 C230.08495,171.156302 230.345911,169.886344 230.483013,168.639841 Z M97.9434187,167.911296 L97.7013483,168.002517 L97.7013483,168.002517 L96.7136648,168.387228 C68.3965937,179.63557 40.3851286,191.648425 12.464254,203.845812 C11.2028376,204.396868 9.94295466,204.951341 8.68443694,205.508856 C5.81577024,196.584267 3.56125737,186.685687 2.06911821,176.454589 C11.912117,175.648735 21.8107955,175.444921 31.6139578,174.25403 C42.237547,172.963475 52.8036303,171.134336 63.2687484,168.897609 C74.5487021,166.486725 85.694782,163.471678 96.8817519,160.64733 C97.1834372,163.01526 97.5301773,165.449366 97.9434187,167.911296 Z M100.736456,180.522988 L97.0584166,181.953976 C40.9654702,203.794775 4.37260998,218.205296 100.562411,180.176318 L100.630088,180.149859 C100.665278,180.274327 100.700732,180.398705 100.736456,180.522988 Z M19.3564965,138.285066 C39.1606392,143.29012 59.2264102,147.271687 79.348928,150.78682 C84.8925234,151.755212 90.4609464,152.591616 96.0451947,153.312242 C96.0676593,153.550752 96.0913684,153.793989 96.1162144,154.039695 L96.2029373,154.864712 C96.3565897,156.273496 96.5206171,157.721341 96.7005702,159.198631 C92.0941829,159.687363 87.4989404,160.260452 82.9240209,160.989283 C55.5235159,165.354456 28.9206242,171.565055 1.98638721,175.88262 C-0.0814651777,161.409709 -0.622113862,146.29776 0.778743072,132.345089 C6.88893483,134.596855 13.0523025,136.691822 19.3564965,138.285066 Z M331.576115,105.630999 C332.563493,109.152236 331.300634,112.955117 331.576115,116.601611 C332.035131,122.677505 332.908731,128.719226 333.623672,134.772691 L332.344786,134.965012 C325.061412,136.015092 317.605941,135.829115 310.38866,137.264304 C300.873667,139.156404 291.854563,143.18355 282.308962,144.914862 C265.356234,147.989626 248.06894,148.943471 231.064058,151.693512 C231.00516,149.228316 230.900012,146.758963 230.772592,144.291263 L230.80233,144.279117 C265.069978,129.687162 278.159149,123.602119 279.182115,122.446653 L279.214,122.369 L274.015203,124.324015 C255.515331,131.273886 241.265024,136.591047 230.539906,140.55988 L230.565241,140.550302 C230.543541,140.178923 230.521599,139.807613 230.499495,139.436382 C252.235367,131.134203 278.828262,121.360698 279.24296,122.300232 L279.214,122.369 L281.317894,121.578801 C293.841135,116.868128 308.137414,111.475926 324.395742,105.327993 L330.790358,102.908413 C331.057505,103.808072 331.319421,104.715565 331.576115,105.630999 Z M93.5370412,127.947884 L95.8581563,128.912047 C94.7896369,128.728515 93.1829107,128.595616 90.8377185,128.335216 L97.7360012,130.335281 L97.7367289,130.318979 C97.7390386,130.033303 97.6850438,129.806623 97.5560133,129.622279 L97.5771237,129.630159 C98.0435844,129.82577 98.5010774,130.018162 98.9492862,130.207218 L98.7514162,130.629353 L97.7360012,130.335281 L97.7331167,130.43156 C97.7064262,130.921191 97.5371325,131.572525 97.3058244,132.457247 C87.4231566,129.292487 72.1799002,124.170761 50.2477752,116.601611 C36.4390367,111.83598 24.4746992,107.67414 14.1584507,104.053917 L14.15,104.05 L15.8728873,104.961882 C22.0937504,108.255246 28.3167492,111.545472 34.6731642,114.560087 C45.484976,119.687734 56.7609476,123.791436 67.6073531,128.845597 C75.7477781,132.638837 83.3388323,137.581661 91.6063893,141.089583 C92.9687176,141.667619 94.3405573,142.227352 95.7212758,142.766407 C95.6521298,144.311738 95.6365913,146.038119 95.699831,147.965715 C93.7340683,147.659492 91.7724306,147.324788 89.8162634,146.956386 C75.7397374,144.305376 61.6987937,141.288216 47.9520806,137.264304 C21.2842199,129.458139 9.07777822,124.853247 2.2179714,122.012009 C2.73291356,119.193859 3.338068,116.447705 4.03982875,113.791938 C4.83702671,110.774996 6.60531211,106.749453 8.93545746,102.217922 C8.99905519,102.240158 9.06786661,102.264392 9.13675831,102.288653 L14.15,104.05 L13.5399073,103.727256 C12.1304196,102.982033 10.7201995,102.238397 9.30772115,101.499515 C9.62724207,100.88554 9.95716986,100.262339 10.2958272,99.6317269 L10.3160107,99.638075 C19.2586639,101.848148 17.5412022,100.868712 10.9063494,98.5185262 C11.4044586,97.591018 11.9263517,96.6516775 12.4623461,95.7019609 L12.4520293,95.6967703 C38.7518878,106.02079 72.7704844,119.35501 93.5370412,127.947884 Z M304.314852,52.3772171 L303.623538,52.8917687 C301.529966,54.4527353 299.446716,56.0278826 297.412655,57.6599079 L297.185,57.843 L297.446031,57.6754812 C299.907296,56.1066345 302.406033,54.59126 304.907511,53.0792895 C312.426508,62.0502004 318.745104,72.2188496 323.892217,83.9404725 C316.266894,87.3866329 308.684249,90.9211645 301.200723,94.6603879 C254.901846,117.794114 262.319894,116.235102 230.372773,137.293589 L230.230229,134.965012 C230.098917,132.767812 229.603535,128.083117 228.694981,123.168837 C238.645389,113.903411 249.268576,105.356458 259.073438,95.9337625 C270.220773,85.2209208 280.248052,73.3756609 291.4969,62.7693152 C293.077582,61.2789163 294.719414,59.8576669 296.399903,58.480858 L297.185,57.843 L295.997887,58.6080827 C294.073536,59.860848 292.176626,61.1528336 290.324084,62.5084447 L288.943262,63.5374642 C279.006533,71.0822188 270.470654,80.3234957 260.863564,88.2832045 C250.55054,96.8277964 239.282529,104.203904 229.208773,113.028945 L229.714,112.592 L227.378783,115.814575 C227.286013,115.942077 227.193223,116.069565 227.100412,116.197038 C227.00153,115.853069 226.901297,115.514585 226.798631,115.181739 C227.594838,114.455949 228.398492,113.738786 229.208773,113.028945 L229.714,112.592 L230.731216,111.189327 C245.223306,91.1209987 259.276383,70.7328318 273.575505,50.5227293 L275.811,47.368 L274.583382,48.7487743 C257.285866,68.1272101 239.586189,87.1524088 222.516447,106.728787 C220.505197,103.871462 218.400178,101.319646 216.204832,99.0443286 C220.133605,88.7987218 224.052185,78.547323 228.187318,68.383505 C228.957522,66.4904078 229.750453,64.6061187 230.56516,62.7310752 L231.259,61.15 L231.143197,61.352246 C224.832181,72.2639551 217.975083,82.8598686 210.562581,93.0198773 L210.13127,93.6074975 C208.514583,92.3677725 206.855516,91.2460204 205.154191,90.2327932 C208.046537,82.7165335 210.83111,75.1525461 213.161755,67.4535493 L213.185,67.372 L213.000686,67.7391687 C211.550937,70.6022001 210.061908,73.4531482 208.873914,76.4191978 L208.526887,77.3125929 C206.974421,81.4414338 206.02982,85.7970637 204.872812,90.0668539 C198.697181,86.4416684 191.967635,84.2322234 184.690231,82.9899802 C184.962129,81.2388637 185.174688,79.512825 185.296522,77.8229738 C187.071755,53.2002332 194.689443,26.1630758 194.913226,0.0271916881 C201.925051,-0.0507714289 209.014219,0.041493244 216.1878,0.270854881 C220.151515,0.397587143 223.877884,1.12704121 227.457188,2.24190822 C226.609583,7.58480368 225.827829,12.9865818 225.022183,18.3945351 L224.878,19.357 L224.922438,19.1528029 C226.107299,13.6229239 227.262612,8.08662736 228.409379,2.54989141 C237.064067,5.42659507 244.893719,10.4751096 253.202651,14.5563645 L254.055033,14.9774812 C252.918331,17.6959083 251.752098,20.4059712 250.556212,23.1061049 L250.069,24.198 L250.886434,22.6454655 C251.937547,20.6337215 252.975763,18.615471 253.993413,16.5868338 L254.644789,15.2705892 C265.991686,20.936889 276.178189,27.13997 285.23025,34.1976067 C282.431434,38.0743629 279.650134,41.9642685 276.879982,45.862247 L275.811,47.368 L278.223142,44.6585265 L278.223142,44.6585265 C280.867402,41.6772689 283.61213,38.7539071 285.878896,35.4768258 C285.979128,35.3319199 286.088022,35.1687759 286.203923,34.9904162 L286.21542,34.9726595 C292.86872,40.2543683 298.898333,46.0126543 304.314852,52.3772171 Z M37.1871359,56.6415599 C55.112518,72.492397 67.5197484,82.20793 87.0098413,102.821327 C92.4593475,108.584913 97.7564586,114.488515 102.995167,120.445341 C102.214852,122.39051 101.414108,124.411696 100.533521,126.520035 L100.462978,126.49493 C61.292262,112.012333 32.9456196,101.565777 13.2100324,94.3372515 L13.2332177,94.3457319 C21.1831442,80.4546766 31.7953483,64.7513749 35.9525626,58.4336553 C36.2374374,58.0007309 36.528548,57.572369 36.8256505,57.148475 Z M69.4005925,30.6079665 C71.7052782,33.784464 73.9634955,36.9914426 76.0317783,40.3228666 C88.5422236,60.4736874 102.757908,79.8112167 114.882444,100.198996 C111.436187,103.629695 109.061282,107.219812 107.084499,111.098474 C105.998911,110.06578 104.998306,109.161969 104.116635,108.435517 C68.7250441,79.2746179 82.9920652,92.3867065 106.185966,112.918288 C106.013192,113.302082 105.83758,113.683612 105.664062,114.06806 L105.685843,114.087384 C87.001073,98.0837115 62.8582047,77.3895227 32.1246853,51.03571 L37.7548723,55.8629962 C45.7845482,45.0856114 57.6897654,37.2583168 69.194417,30.7241199 Z M100.956437,15.7910208 C101.068294,16.3150985 101.184389,16.8384053 101.305054,17.3608818 C105.823564,36.9259935 111.9957,56.0784622 117.90112,75.2710694 C119.40586,80.1614725 121.315655,84.9382969 123.519123,89.556579 C123.961435,90.4836267 124.430962,91.3998881 124.920921,92.3079755 C123.804,93.0310922 122.703008,93.7893097 121.617263,94.5805 L121.606975,94.5682003 C118.102973,90.0985031 115.133632,86.3440772 112.633507,83.2139151 L111.857,82.243 L111.690947,81.9372523 C108.667824,76.4673892 101.160102,64.3805466 85.9224361,41.1638358 L83.6926916,37.7709621 C81.2617027,34.0765446 78.6245079,30.5276363 75.8768792,27.0591237 C83.9174216,22.8174332 92.0194028,19.1802926 100.195352,16.0768263 Z M134.005888,6.19957149 C138.375385,28.9513921 143.550094,56.2679986 144.706578,73.9976948 C144.90996,77.1156816 145.222388,80.258733 145.583149,83.4157727 C140.140932,84.6745273 134.950022,86.6615508 130.024987,89.2917412 C129.041743,81.0825411 128.267724,72.8247963 126.325545,64.8108387 C121.88438,46.4853838 115.715613,28.6122017 109.729479,10.7310855 L110.326113,12.5121879 C117.717762,10.1114138 125.17355,8.1171807 132.703522,6.47936814 Z M111.364071,81.6279086 L111.857,82.243 L112.092665,82.6741351 C120.522649,98.3785987 83.5508376,46.9555824 111.364071,81.6279086 Z M186.338329,0.213052236 C186.202883,12.0524168 186.29298,23.9016514 185.807249,35.7294386 C185.162704,51.4244283 184.753897,67.1530704 183.675914,82.8236444 C177.270568,81.8153459 170.448331,81.5300543 163.211814,81.6683895 C163.015536,71.0421436 162.779826,58.3124329 160.27603,37.0028131 C158.010638,17.7222322 157.628683,8.32175468 156.891019,2.41570057 C166.312871,1.26598145 175.862594,0.571031673 185.557809,0.238615089 Z M224.878,19.357 L224.255846,22.2481066 C221.352721,35.6578469 218.252611,49.0232461 214.655618,62.2589343 C214.340557,63.4182477 214.013648,64.5741117 213.676042,65.7268191 L213.185,67.372 L213.434092,66.8797696 C215.016432,63.7263777 216.510066,60.5429758 217.46204,57.1602807 C220.799849,45.2998752 222.861946,32.7855405 224.741485,20.2715494 L224.878,19.357 Z M250.069,24.198 L249.301049,25.6586867 C245.052676,33.6835171 240.6593,41.6352865 236.611744,49.7623354 C234.789416,53.4213696 233.045333,57.1214672 231.387092,60.8591297 L231.259,61.15 L232.000407,59.8623395 C238.546408,48.4248894 244.49602,36.6482495 249.859897,24.6696631 L250.069,24.198 Z" id="Combined-Shape" fill="#54E375"></path>
                <path d="M181.662936,89.3939454 C183.023723,88.8386907 184.576982,89.4917035 185.132236,90.8524903 C185.687491,92.2132771 185.034478,93.7665357 183.673691,94.3217903 L182.251916,94.8928569 C181.849515,95.0517704 181.427045,95.2163707 180.949884,95.4002828 L178.86426,96.1961656 L178.937692,96.2319748 C179.652421,96.6120172 180.228672,97.2857155 180.37058,98.1931779 L180.39326,98.3951656 L180.415629,98.4193258 C180.924601,99.0082963 181.351212,99.7412421 181.681382,100.623999 L181.71926,100.731166 L181.848331,100.708352 C182.068301,100.671803 182.269063,100.646165 182.453358,100.632074 L182.632266,100.621856 C182.951293,100.61024 183.244917,100.629221 183.593438,100.723244 C184.713062,101.025291 185.718293,101.948141 185.61254,103.523888 C185.573709,104.102468 185.37543,104.559535 185.096777,104.945934 C184.952864,105.145493 184.801167,105.304738 184.637202,105.448168 C184.452641,105.609615 184.261606,105.742377 184.042516,105.874492 L181.955181,107.146014 L179.05326,108.931166 L178.934695,109.011135 L178.710286,109.15167 L178.45626,109.300166 L171.977324,113.298255 C169.384923,114.89169 167.206748,116.215486 166.320299,116.704099 L166.127667,116.807714 L165.336485,117.21151 C163.091641,118.327574 161.787005,118.646626 155.533073,119.813363 L155.15826,119.882166 L154.946891,119.964431 C153.800701,120.391482 152.946464,120.501181 152.037885,120.229669 L151.855342,120.170265 C150.123989,119.56137 149.571696,117.895853 149.995146,116.37998 C150.100296,116.003562 150.262486,115.627405 150.484026,115.22854 L150.60426,115.019166 L150.448682,114.903026 C149.800122,114.380542 149.478566,113.663118 149.432437,112.939082 L149.426612,112.758044 C149.426281,112.346521 149.507251,112.000666 149.635685,111.670602 C149.813527,111.213565 150.074829,110.811313 150.443384,110.352405 L150.55126,110.220166 L150.492338,110.210842 C148.586161,109.860933 147.20601,109.003307 147.164848,107.020759 L147.165599,106.80401 C147.206137,105.297085 148.01719,104.416936 149.436752,103.444967 C150.798612,102.512507 152.888437,101.480909 156.068628,100.093761 L157.232151,99.5910106 L162.24215,97.4674651 L163.179061,97.0622551 C163.954338,96.7234364 164.580547,96.4394655 165.092531,96.1932736 L166.519474,95.494091 C168.800206,94.3995276 171.013765,93.4930525 174.921255,92.0010783 L179.236879,90.3564394 C180.155819,90.0011849 180.868779,89.717993 181.662936,89.3939454 Z M174.44626,103.138166 L173.650451,103.412282 C173.321614,103.522887 172.974121,103.637026 172.604506,103.756218 L170.57426,104.396166 L170.467872,104.466537 C169.508809,105.097397 168.360053,105.896468 166.89821,106.939024 L166.45826,107.252166 L167.24126,107.093166 L169.277056,105.920141 C171.257224,104.790727 172.819883,103.942116 174.146757,103.285874 L174.44626,103.138166 Z" id="Path-92" fill="#001C6C" fill-rule="nonzero"></path>
                <path d="M190.355718,95.0660391 L193.286973,94.962786 C197.311455,94.8538322 200.782162,95.0412043 207.315786,95.6260699 L213.123909,96.154208 C214.932249,96.3118401 216.199536,96.4070031 217.648732,96.4953959 C218.600861,96.5534703 219.405428,97.1053705 219.828431,97.8866939 L219.91126,98.0531656 L220.200935,98.1113011 C220.818886,98.2389271 221.344209,98.3764781 221.790044,98.5330986 L222.006398,98.6130403 C222.491319,98.8016355 222.905909,99.0250279 223.281984,99.3503533 C224.048956,100.013826 224.515669,101.003348 224.286463,102.166004 C223.866379,104.296901 222.476355,104.808154 218.4269,105.617277 L218.07126,105.684166 L218.164711,105.774129 C218.925624,106.534827 219.302185,107.730422 218.609698,108.952365 L218.508577,109.119118 C218.041743,109.841121 217.539256,110.100529 216.920083,110.271245 C216.604091,110.358369 216.326324,110.387889 215.9747,110.401162 C215.216494,110.429781 213.877933,110.357285 212.219397,110.203286 L211.8835,110.171405 C206.995469,109.697627 202.427551,109.00592 198.574327,108.054204 L198.22226,107.965166 L194.328443,107.584818 C194.017513,107.555071 193.68184,107.588802 192.947634,107.731942 L191.946946,107.933398 C191.607565,107.99903 191.363187,108.039174 191.067263,108.077764 C189.609891,108.26781 188.274396,107.24044 188.084349,105.783069 C187.990544,105.063726 188.19334,104.374075 188.598045,103.837205 L188.72426,103.682166 L188.604659,103.566782 C188.097242,103.064261 187.703216,102.531945 187.434376,101.968578 L187.349415,101.779637 C187.285667,101.628711 187.227577,101.480199 187.175007,101.33414 L187.08926,101.082166 L186.118628,101.012323 C185.509037,100.963044 185.071671,100.914647 184.757578,100.862576 L184.674272,100.84816 C184.112148,100.746513 183.808039,100.658902 183.316815,100.290032 C182.171057,99.4296584 181.759144,97.6859159 182.903121,96.3769633 C183.324044,95.8953383 183.696429,95.7088656 184.165437,95.5590694 C184.539363,95.4396411 184.948907,95.3796079 185.61731,95.3210906 L186.184342,95.2760999 C187.129162,95.2080692 188.502193,95.1388725 190.355718,95.0660391 Z" id="Path-93" fill="#001C6C" fill-rule="nonzero"></path>
                <path d="M152.017683,116.459114 C156.209743,98.91262 168.263277,90.4049299 183.220506,99.5641557 C183.922399,99.9939674 184.354748,100.696844 184.46454,101.452277 L184.47126,101.517166 L184.574252,101.632432 C185.201461,102.360798 185.75397,103.225902 186.235241,104.201565 L186.377489,104.497554 C187.376064,106.630243 188.027428,109.260754 188.25208,111.457245 C189.021369,118.978828 188.356346,130.131088 185.884652,138.381901 C182.164949,150.798718 174.549201,156.959156 163.118806,153.152776 C152.323643,149.557931 148.183573,132.507354 152.017683,116.459114 Z M176.507568,102.169401 C167.300919,98.8049828 160.386645,104.82451 157.292764,117.291471 L157.194288,117.695864 C153.920082,131.400545 157.375277,145.630515 164.800371,148.103109 C172.831928,150.777659 177.825293,146.738487 180.786218,136.854564 C183.036296,129.343532 183.660601,118.8741 182.957409,111.998771 C182.56926,108.203719 180.909361,104.587998 179.421648,104.417972 L179.31312,104.411728 C178.072088,104.411728 177.029472,103.56221 176.735067,102.412968 L176.69626,102.240166 L176.507568,102.169401 Z" id="Path-94" fill="#001C6C" fill-rule="nonzero"></path>
                <path d="M190.496167,102.977645 C187.729688,106.434374 186.258682,110.359814 184.36712,118.041387 L183.87226,120.088166 L183.229442,122.177226 C183.087517,122.63781 183.073339,123.128291 183.188421,123.596305 L183.320614,124.154882 C183.488849,124.896393 183.630631,125.653317 183.813509,126.76705 L184.217772,129.31328 C184.978106,134.025869 185.58311,136.283657 187.0554,138.927697 C191.719896,147.304523 199.244521,149.770193 206.475966,146.3056 C212.796,143.277665 217.551808,136.229689 217.961644,128.979945 C218.063875,127.171534 218.12811,125.590462 218.15209,123.532571 C218.188244,120.429847 218.098654,117.409641 217.843654,114.583422 C217.077562,106.092673 215.073588,100.527192 210.544867,98.9799144 C201.663615,95.9455559 195.10825,97.3594945 190.678694,102.752532 L190.496167,102.977645 Z M208.824119,104.016364 C210.494194,104.586959 211.966799,108.676711 212.542894,115.061692 C212.77993,117.688814 212.864364,120.535162 212.830159,123.470557 C212.807271,125.434703 212.745965,126.943715 212.647836,128.67955 C212.347896,133.985314 208.752778,139.313179 204.176352,141.505749 C199.500081,143.746155 195.011214,142.275243 191.705395,136.338424 C190.622119,134.393001 190.128577,132.539623 189.463003,128.40851 L189.006798,125.549971 C188.895613,124.886454 188.795864,124.335559 188.692531,123.822925 L188.52826,123.053166 L188.987114,121.565717 L189.03371,121.394382 L189.393982,119.89167 C191.20134,112.466955 192.518344,108.898235 194.791533,106.130601 C197.717826,102.567804 201.927031,101.659912 208.824119,104.016364 Z" id="Path-95" fill="#001C6C" fill-rule="nonzero"></path>
                <path d="M184.391003,117.452873 C185.859127,117.384611 187.104615,118.519423 187.172877,119.987547 C187.24114,121.455671 186.106328,122.701159 184.638203,122.769422 L182.891777,122.854708 C165.46082,123.750906 160.744631,125.472768 149.60119,135.195898 C148.493772,136.162167 146.812718,136.047744 145.846449,134.940327 C144.88018,133.83291 144.994603,132.151855 146.10202,131.185586 L146.868355,130.52106 C158.871681,120.179967 164.822957,118.362718 184.391003,117.452873 Z" id="Path-96" fill="#001C6C" fill-rule="nonzero"></path>
                <path d="M184.625277,120.751256 C194.484704,114.134026 209.316527,111.378043 219.025736,115.479228 C220.379619,116.051111 221.013556,117.612252 220.441674,118.966135 C219.869792,120.320018 218.30865,120.953955 216.954767,120.382072 C209.084434,117.057631 196.078274,119.474378 187.591279,125.170489 C186.370941,125.989528 184.7177,125.664211 183.898661,124.443874 C183.079622,123.223536 183.404939,121.570295 184.625277,120.751256 Z" id="Path-97" fill="#001C6C" fill-rule="nonzero"></path>
                <path d="M165.805878,124.805909 C167.500121,129.011048 176.85608,145.347787 183.339692,134.530892 L185.098655,119.846131 C175.378685,121.128269 169.119343,122.129084 166.320628,122.848576 C164.832059,123.231257 164.660475,123.883701 165.805878,124.805909 Z" id="Path-98" fill="#001C6C"></path>
                <path d="M199.70029,120.026435 C201.67896,126.516782 206.348221,139.54067 215.472585,131.513437 L215.143498,117.594298 L207.632287,116.093075 L199.70029,120.026435 Z" id="Path-99" fill="#001C6C"></path>
                <path d="M119,173.13953 C123.516385,156.886713 164.946589,155.739999 188.85426,152.873026 C207.632287,150.621192 235.853712,144.917874 252.699552,165.633417 C253.750596,166.9259 256.455157,176.141975 247.441704,182.146865 C238.428251,188.151755 197.503953,163.855054 188.85426,165.633417 C159.916442,171.582987 144.538117,182.146865 133.2713,182.146865 C125.76009,182.146865 121.00299,179.14442 119,173.13953 Z" id="Path-100" fill="#001C6C"></path>
                <path d="M171.578475,191.515652 C188.420728,210.369874 197.016933,228.73484 207.632287,198.660312 C208.332913,196.675357 212.701622,186.315177 210.636771,185.899921 C205.501114,184.867105 191.377827,191.051123 186.177554,191.683383 C181.90211,192.2032 177.563798,191.739858 173.25692,191.768095 L171.578475,191.515652 Z" id="Path-101" fill="#001C6C"></path>
            </g>
            <g id="Group-41" transform="translate(0.000000, 667.000000)">
                <path d="M44.9786177,25.0918255 C4.99287258,99.6972752 -8,165.666667 6,223 C61.912517,258.236763 125.584033,269.105144 197.014548,255.605144 C235.021693,179.429598 247.281825,130.091826 233.794944,107.591826 C266.26336,116.091826 285.74441,112.591826 292.238093,97.0918255 C298.731776,81.5918255 272.757043,63.8418255 214.313895,43.8418255 C174.974237,33.7889576 144.254121,27.5389576 122.153545,25.0918255 C100.052969,22.6446934 74.3279935,22.6446934 44.9786177,25.0918255 Z" id="Path-105" fill="#14591D"></path>
                <g id="Group-40" transform="translate(48.771430, 0.000000)" stroke-linecap="round" stroke-linejoin="round" stroke-width="5.322292">
                    <path d="M0.22857027,49.2320408 C2.40782086,34.5132986 21.226429,10.4621679 34.6057438,4.80425855 C38.1275831,3.31492614 41.8152969,2.17329437 45.5597228,1.40025528 C47.9676896,0.903129004 51.9801267,-1.24960355 52.9259873,1.02203269 C59.8678141,17.6939444 27.2351059,44.7202463 14.7740803,48.2845741 C13.683718,48.5964593 14.5067227,45.9243992 14.9610994,44.8843913 C16.3068778,41.8040836 17.7741266,38.6482945 20.0602339,36.1852718 C31.7701575,23.5691501 47.0572111,8.21051911 65.2005505,4.80425855 C66.8098604,4.50212404 69.4900593,3.28840519 70.1126658,4.80425855 C75.0425639,16.8070288 63.4878835,36.3750019 52.5481323,42.0458117 C47.7450671,44.5355638 41.579687,52.7419154 37.8156032,48.8538182 C34.1939067,45.1127996 43.0460971,39.7141904 46.6932878,35.9980708 C53.6415156,28.9185271 61.2246661,22.3934115 69.3569557,16.7163598 C73.6100735,13.7473104 78.5693848,11.8154371 83.5246107,10.2865758 C87.8466001,8.95309022 92.4277067,7.80911691 96.9327389,8.20826181 C98.1672301,8.31763747 98.3095624,10.3752592 98.444159,11.6084447 C100.34082,28.9858109 80.83453,45.7988106 66.7119706,51.8795989 C65.3819883,52.4522529 66.2453045,48.9038194 66.7119706,47.5319494 C67.2974758,45.8107247 68.538661,44.3616858 69.7348107,42.9932784 C72.9596929,39.3039804 76.345769,35.744108 79.9330796,32.4068664 C81.7130515,30.7509752 83.6904715,29.2874563 85.7879241,28.0592169 C92.9620692,23.8581361 99.950041,19.1543611 107.699699,16.1471157 C111.356034,14.728279 116.187148,12.7752913 119.409388,15.0124479 C121.944451,16.7725072 120.520651,21.3960967 119.409388,24.276991 C114.487287,37.0372904 110.670844,44.020016 100.711289,50.9321322 C96.8914143,53.5831963 91.6633063,56.2991857 86.73447,55.8490258 C86.1162168,55.7925596 87.1035786,54.6313422 87.4901801,54.145114 C92.0279092,48.4380168 96.5654034,42.7171257 101.466999,37.3199396 C106.647009,31.6161893 112.015788,26.065584 117.707132,20.8729878 C119.168273,19.5398902 120.886258,18.3032032 122.810083,17.8472071 C128.182072,16.573907 134.170081,13.5846443 139.241051,15.7688931 C142.017168,16.9646661 140.077306,21.997291 139.050215,24.8424147 C136.77519,31.144414 128.058884,43.4358485 122.432228,47.9063516 C109.778853,57.9597379 110.005211,49.6561355 115.630837,43.558702 C122.698277,35.8985335 129.693744,28.0307076 137.91665,21.6294329 C140.682956,19.4759506 144.477132,19.0278844 147.9279,18.4164512 C150.59378,17.9440904 153.591901,17.2804571 156.049875,18.4164512 C157.515198,19.0936751 157.5836,21.3480132 157.748314,22.9551222 C158.0953,26.3406546 158.83346,30.0072206 157.561295,33.1633116 C153.058823,44.3334137 140.06912,57.4813789 127.718381,58.3055624" id="Path-106" stroke="#FF8100"></path>
                    <path d="M135.22857,67.9420031 C137.55804,72.1011781 139.418384,76.5609861 142.21698,80.419528 C149.382112,90.2983978 164.304011,86.7284104 166.014213,74.5589881 C166.777348,69.1286853 166.518019,63.5943536 166.392068,58.1120363 C166.386276,57.8599546 165.888261,58.1120363 165.636358,58.1120363" id="Path-107" stroke="#FFFFFF"></path>
                    <path d="M143.508751,160.865114 C160.657935,176.947277 176.243968,162.876357 192.427618,152.544217" id="Path-108" stroke="#FFFFFF"></path>
                    <path d="M185.562748,177.477989 C193.899006,180.9811 192.14325,178.732756 196.325891,189.955514 C197.997756,194.441421 199.594982,199.022425 200.295277,203.758728 C200.931179,208.05953 201.047661,212.519753 200.295277,216.801676 C198.910332,224.683584 181.609823,228.695321 177.249937,221.905771 C170.450574,211.317281 168.733882,205.653792 167.620359,192.981294 C167.387677,190.333247 166.568789,186.990203 168.376069,185.042441 C169.875634,183.426312 173.390224,183.522082 174.986624,185.042441 C179.139965,188.997948 182.3053,194.266029 183.860492,199.789301 C185.741817,206.470838 185.484701,213.659452 184.994057,220.583902 C184.551513,226.829509 173.085863,237.481404 167.620359,229.848445 C163.266504,223.767982 161.284612,216.834635 160.63195,209.428246 C160.034459,202.647945 158.997217,195.701214 160.254095,189.011868 C162.33222,177.951681 166.320611,190.227074 166.864649,194.681386 C167.751294,201.940794 168.132349,209.334932 167.429523,216.614475 C166.861114,222.501801 164.879602,228.182146 163.086099,233.817872 C162.598082,235.351369 161.768876,236.836468 160.63195,237.9745 C159.493791,239.113766 158.050234,240.10112 156.475544,240.434857 C154.623143,240.827453 152.377597,241.116299 150.807719,240.056635 C149.243763,239.000968 148.569764,236.828259 148.35357,234.95254 C146.85645,221.963388 145.521313,208.890022 145.708585,195.816054 C145.724178,194.72746 148.706582,194.183544 148.922261,195.25063 C151.855727,209.764158 148.183367,218.17577 141.743015,231.170314 C140.479614,233.719448 135.232428,240.011152 130.976055,237.787299 C124.062389,234.175074 128.577835,203.087289 135.888171,198.841834 C136.489233,198.492769 137.840135,197.970281 137.964465,198.654633 C140.079938,210.298916 133.556191,222.40906 125.312047,230.226668 C123.392997,232.046429 109.921488,237.874644 108.503223,234.383296 C103.745339,222.670793 107.983113,201.078501 118.701492,193.73774 C119.436521,193.234336 121.200149,192.480153 121.346477,193.359517 C124.128629,210.078902 116.773537,211.525236 103.026234,223.23146 C100.789179,225.136377 97.0784901,230.225538 95.4691335,227.766311 L91.8814191,228.522756 C85.730225,219.123235 109.15534,202.181499 109.636788,188.068221 C109.682099,186.73998 108.483678,190.516943 107.556677,191.468404 C103.544538,195.586408 99.121732,199.282457 94.9042593,203.189484" id="Path-109" stroke="#FF8100"></path>
                    <path d="M184.069081,117.230944 C187.707911,118.780189 186.941512,117.785863 188.767261,122.749106 C189.497041,124.73299 190.194241,126.758931 190.499924,128.853552 C190.777499,130.755573 190.828344,132.728099 190.499924,134.621771 C189.895387,138.10753 182.343605,139.881713 180.440487,136.879048 C177.472522,132.196308 176.723174,129.69164 176.237115,124.087252 C176.135547,122.916158 175.778097,121.437703 176.566987,120.576309 C177.221557,119.861579 178.755697,119.903933 179.452536,120.576309 C181.265496,122.325625 182.647185,124.655424 183.326036,127.09808 C184.147246,130.052978 184.035013,133.232128 183.820844,136.294454 C183.627671,139.056561 178.622842,143.767342 176.237115,140.39168 C174.336629,137.702607 173.471521,134.636347 173.186629,131.360886 C172.925821,128.36231 172.473058,125.290132 173.021693,122.331781 C173.928808,117.440434 175.669766,122.869203 175.907242,124.839114 C176.294268,128.049574 176.460601,131.319618 176.153814,134.538982 C175.905699,137.142641 175.040757,139.654763 174.257881,142.147152 C174.044859,142.825338 173.682905,143.48212 173.186629,143.985413 C172.689816,144.489251 172.059694,144.925906 171.372332,145.073501 C170.563747,145.247126 169.583552,145.374868 168.89829,144.906233 C168.215614,144.439366 167.921409,143.47849 167.827039,142.648957 C167.173537,136.904529 166.590741,131.122857 166.672486,125.340919 C166.679292,124.859491 167.981131,124.618945 168.075276,125.090862 C169.355753,131.509442 167.752744,135.229462 164.94149,140.976274 C164.390007,142.103624 162.099577,144.886118 160.241643,143.902624 C157.223784,142.305124 159.194805,128.556609 162.385813,126.679065 C162.648181,126.524691 163.237858,126.293622 163.292129,126.596276 C164.215546,131.745938 161.367889,137.101626 157.769268,140.558949 C156.93159,141.363735 151.051191,143.941252 150.43211,142.39721 C148.355263,137.217377 150.205078,127.668227 154.883719,124.421789 C155.204564,124.199159 155.974398,123.865623 156.038271,124.25452 C157.252698,131.648637 154.042154,132.288275 148.041369,137.465331 C147.06488,138.307777 145.445141,140.558449 144.742647,139.47086 L143.176586,139.805397 C140.491551,135.648476 150.716763,128.156025 150.926918,121.914455 C150.946696,121.327043 150.423578,122.997398 150.018936,123.418179 C148.267612,125.239359 146.337029,126.87393 144.496075,128.601805" id="Path-109" stroke="#FF8100"></path>
                </g>
            </g>
        </g>
    </g>
</svg>