<svg xmlns="http://www.w3.org/2000/svg" xmlns:xlink="http://www.w3.org/1999/xlink" width="2002" height="1989" xmlns:v="https://vecta.io/nano"><style><![CDATA[.B{stroke-opacity:.668}.C{fill:#fff}.D{stroke-linejoin:round}.E{fill:#0d62fe}.F{stroke:#fff}.G{stroke-linecap:round}.H{fill:#005b11}.I{fill:#0064ff}.J{fill:#00173a}.K{fill:#ff0034}.L{fill-rule:nonzero}.M{stroke-width:2.322}]]></style><defs><filter x="-6.9%" y="-7.2%" width="113.8%" height="114.3%" id="A"><feOffset dy="8" in="SourceAlpha"/><feGaussianBlur stdDeviation="8"/><feColorMatrix values="0 0 0 0 0 0 0 0 0 0.164542109 0 0 0 0 0.362271488 0 0 0 0.1 0" result="C"/><feMerge><feMergeNode in="C"/><feMergeNode in="SourceGraphic"/></feMerge></filter><path id="B" d="M0 0h665.966v624H0z"/><filter x="-15.3%" y="-14.4%" width="130.6%" height="128.8%" id="C"><feOffset dy="1" in="SourceAlpha"/><feGaussianBlur stdDeviation="1"/><feColorMatrix values="0 0 0 0 0 0 0 0 0 0 0 0 0 0 0 0 0 0 0.3 0" result="C"/><feMerge><feMergeNode in="C"/><feMergeNode in="SourceGraphic"/></feMerge></filter><filter x="-9.1%" y="-5.9%" width="118.2%" height="111.8%" id="D"><feOffset dy="24" in="SourceAlpha"/><feGaussianBlur stdDeviation="16"/><feColorMatrix values="0 0 0 0 0.3515625 0 0 0 0 0.3515625 0 0 0 0 0.3515625 0 0 0 0.1 0" result="C"/><feMerge><feMergeNode in="C"/><feMergeNode in="SourceGraphic"/></feMerge></filter><path id="E" d="M0 0h1182.927v1829H0z"/><path id="F" d="M116.893 687.76l-15.573 15.575 10.345 10.345 15.575-15.573z"/><path id="G" d="M129.58 695.68l1.298-1.296a7.27 7.27 0 0 0-.002-10.263 7.27 7.27 0 0 0-10.263 0l-1.294 1.298 10.26 10.26z"/><path id="H" d="M108.52 715.627l-9.284 2.32c-.614.15-1.262-.03-1.71-.475s-.627-1.095-.474-1.71l2.32-9.283 9.147 9.147z"/><path id="I" d="M277.727 687.455H274v29.818a3.73 3.73 0 0 0 3.727 3.727h22.364v-3.727h-22.364v-29.818z"/></defs><g transform="translate(34 80)" fill="none" fill-rule="evenodd"><g transform="translate(0 162)"><g filter="url(#A)" transform="translate(.565 128)"><rect fill="#e6e7e7" x="26.475" y="25.007" width="613.485" height="394" rx="4.546"/><g class="D F B"><ellipse cx="21.863" cy="8.331" rx="8.293" ry="8.289"/><ellipse cx="44.479" cy="8.331" rx="8.293" ry="8.289"/><ellipse cx="67.096" cy="8.331" rx="8.293" ry="8.289"/></g><g transform="translate(0 24.155)"><mask id="J" class="C"><use xlink:href="#B"/></mask><use xlink:href="#B" class="C"/><g opacity=".92" mask="url(#J)"><g transform="translate(186.435 90.845)"><path d="M221.88 146.423V74.085H148l.007.85c.65 39.192 32.977 70.845 73.006 71.48l.868.007z" class="H"/><path d="M73.88 0v72.338H0l.007-.85C.656 32.295 32.984.642 73.013.007L73.88 0z" class="I"/><path d="M73.88 72.338V0h73.88l-.007.85c-.65 39.192-32.977 70.845-73.006 71.48l-.868.007z" class="J"/><path d="M73.88 73.845v72.338H0l.007-.85c.65-39.192 32.977-70.845 73.006-71.48l.868-.007z" class="K"/><ellipse fill="#ff7800" transform="matrix(1 0 0 -1 0 220.507042)" cx="257.313" cy="110.254" rx="35.433" ry="36.169"/></g></g></g><g transform="translate(636.28 .042)" class="D F G B"><path d="M0 .754h15.078"/><path d="M0 8.29h15.078"/><path d="M0 15.824h15.078"/></g></g><g class="E"><rect x="36" y="666" width="158" height="68" rx="11"/><rect x="212" y="666" width="158" height="68" rx="11"/></g><g filter="url(#C)" transform="translate(322.4 705.6)" class="L"><path fill="#231d1e" d="M0 19.6h2.8v-2.8h5.6v2.8h2.8V2.8H14V0h5.6v2.8h2.8v8.4h11.2V14h5.6v2.8H42v14h-2.8v5.6h-2.8v8.4h-5.6V42H28v2.8H14v-5.6h-2.8v-2.8H8.4v-2.8H5.6V28H2.8v-2.8H0z"/><path d="M2.8 19.6h5.6v2.8h2.8v2.8H14V2.8h5.6v16.8h2.8V14H28v5.6h2.8V14h2.8v5.6h2.8v-2.8h2.8v14h-2.8v5.6h-2.8V42h-2.8v-2.8H28V42H16.8v-2.8H14v-2.8h-2.8v-2.8H8.4V28H5.6v-2.8H2.8z" class="C"/><g fill="#231d1e"><path d="M19.6 25.2h2.8v11.2h-2.8z"/><path d="M25.2 25.2H28v11.2h-2.8z"/><path d="M30.8 25.2h2.8v11.2h-2.8z"/></g></g><g class="C"><use xlink:href="#F"/><use xlink:href="#G"/><use xlink:href="#H"/><path d="M296.364 691.182v-9.318l9.318 9.318h-9.318zM299 680h-13.817c-2.056 0-3.727 1.674-3.727 3.727v26.09a3.73 3.73 0 0 0 3.727 3.727h18.636a3.73 3.73 0 0 0 3.727-3.727v-21.272L299 680z"/><use xlink:href="#I"/></g><path d="M0 52.4C0 57.693 4.23 62 9.43 62H22V46H0v6.4zM69.647 1.355a4.64 4.64 0 0 0-6.553 0L62 2.45 68.553 9l1.094-1.093a4.64 4.64 0 0 0 0-6.55M44.26 20.825L41 31l9.782-3.393L66 11.782 59.476 5zM63 43.25V22.678L55.52 30.1l-14.893 4.925c-2.463.816-4.804-1.5-3.985-3.95L41.6 16.297 45.933 12H9.45C4.24 12 0 16.206 0 21.375V24.5h25.2v9.375h-3.15v-6.25H0V43.25h25.2V62h9.45V43.25h3.15V62h15.75c5.2 0 9.45-4.206 9.45-9.375v-6.25H47.25V43.25H63z" class="E"/><path stroke="#f4f2ee" d="M0 632h667" class="D G M"/></g><g transform="translate(0 972)"><g filter="url(#A)" transform="translate(.565)"><rect fill="#e6e7e7" x="26.475" y="25.007" width="613.485" height="394" rx="4.546"/><g class="D F B"><ellipse cx="21.863" cy="8.331" rx="8.293" ry="8.289"/><ellipse cx="44.479" cy="8.331" rx="8.293" ry="8.289"/><ellipse cx="67.096" cy="8.331" rx="8.293" ry="8.289"/></g><g transform="translate(0 24.155)"><mask id="K" class="C"><use xlink:href="#E" href="#B"/></mask><use xlink:href="#E" class="C" href="#B"/><g mask="url(#K)"><g transform="translate(224.435 88.845)"><path d="M216.664 72.18V.08H144.79l.007.848c.63 39.063 32.08 70.61 71.02 71.245l.844.007z" fill="#2ac2ff"/><path d="M72.634 72.18V.08H.762L.77.93C1.4 39.993 32.85 71.54 71.8 72.174l.844.007z" transform="matrix(-1 0 0 -1 73.395792 72.262764)" class="E"/><path d="M216.664 73.828v72.1H144.79l.007-.848c.63-39.063 32.08-70.61 71.02-71.245l.844-.007z" class="J"/><path d="M144.79 145.93v-72.1H72.918l.007.848c.63 39.063 32.08 70.61 71.02 71.245l.844.007z" fill="#ff9d00"/><ellipse cx="108.855" cy="36.131" rx="35.937" ry="36.05" class="H"/><ellipse cx="36.698" cy="110.134" rx="35.937" ry="36.05" class="K"/></g></g></g><g transform="translate(636.28 .042)" class="D F G B"><path d="M0 .754h15.078"/><path d="M0 8.29h15.078"/><path d="M0 15.824h15.078"/></g></g><g class="E"><rect x="36" y="538" width="158" height="68" rx="11"/><rect x="212" y="538" width="158" height="68" rx="11"/></g><g class="C"><use xlink:href="#F" y="-128"/><use xlink:href="#G" y="-128"/><use xlink:href="#H" y="-128"/><path d="M296.364 563.182v-9.318l9.318 9.318h-9.318zM299 552h-13.817c-2.056 0-3.727 1.674-3.727 3.727v26.09a3.73 3.73 0 0 0 3.727 3.727h18.636a3.73 3.73 0 0 0 3.727-3.727v-21.272L299 552z"/><use xlink:href="#I" y="-128"/></g><path stroke="#f4f2ee" d="M0 504h667" class="D G M"/></g><path d="M144.842 704v-28.184c3.642 4.263 7.077 8.795 10.305 13.596s6.23 9.664 9.002 14.6h8.132v-43.02h-9.622v25.4l-4.78-6.984a219.95 219.95 0 0 0-5.122-7.015 185.31 185.31 0 0 0-5.06-6.363c-1.655-1.987-3.166-3.663-4.532-5.028h0-7.884V704h9.56zm67.853 0v-8.132H191.9V685.5h17.196v-7.946H191.9v-8.443h19.37v-8.132h-29.053V704h30.48zm23.404 0a239.45 239.45 0 0 0 4.159-12.509l3.973-13.13 4.035 13.13c1.366 4.366 2.773 8.536 4.22 12.5h8.877c2.193-6.663 4.232-13.7 6.115-21.107a445.92 445.92 0 0 0 4.997-21.914h0-10.057l-1.335 7.605-1.46 7.915c-.497 2.65-1.024 5.215-1.583 7.698l-1.645 6.9a241.57 241.57 0 0 1-2.05-6.332l-2.08-6.83-1.924-6.612-1.645-5.742h-8.257l-1.52 5.65-1.83 6.58-2.05 6.83c-.704 2.276-1.428 4.428-2.173 6.456-.58-2.1-1.148-4.408-1.707-6.9l-1.645-7.698-1.552-7.915-1.366-7.605H216.1a445.92 445.92 0 0 0 4.997 21.914c1.883 7.408 3.92 14.444 6.115 21.107h8.877zm54.32.87c5.67 0 9.912-1.107 12.726-3.32s4.22-5.33 4.22-9.343c0-2.07-.27-3.828-.807-5.277a10.23 10.23 0 0 0-2.452-3.787c-1.097-1.076-2.473-2.018-4.128-2.825s-3.6-1.624-5.836-2.452c-1.076-.372-2.06-.735-2.95-1.086s-1.676-.745-2.36-1.18-1.2-.92-1.583-1.46-.56-1.2-.56-1.987c0-1.324.507-2.307 1.52-2.95s2.68-.962 4.997-.962c2.07 0 3.84.238 5.308.714s2.804 1.024 4.004 1.645h0l2.794-7.636c-1.366-.745-3.104-1.428-5.215-2.05s-4.615-.93-7.512-.93c-2.442 0-4.635.3-6.58.9s-3.6 1.46-4.966 2.576a11.46 11.46 0 0 0-3.166 4.066c-.746 1.593-1.117 3.383-1.117 5.37s.352 3.673 1.055 5.06 1.614 2.566 2.732 3.54a15.56 15.56 0 0 0 3.787 2.421 51.49 51.49 0 0 0 4.221 1.707c3.228 1.076 5.504 2.08 6.83 3s1.987 2.1 1.987 3.508a4.98 4.98 0 0 1-.31 1.8c-.207.538-.58 1.004-1.117 1.397s-1.252.704-2.142.93-2.018.34-3.383.34c-2.732 0-5.04-.28-6.922-.838s-3.466-1.2-4.75-1.893h0l-2.732 7.698a23.27 23.27 0 0 0 2.142 1.055c.85.372 1.862.724 3.042 1.055s2.535.6 4.066.838 3.25.34 5.153.34zm53.14-.87v-8.32H324.5v-34.7h-9.684V704h28.743zm36.7 0v-8.132h-20.797V685.5h17.196v-7.946h-17.196v-8.443h19.37v-8.132H349.77V704h30.48zm26.074 0v-34.765h12.975v-8.257h-35.634v8.257h12.975V704h9.684zm38.117 0v-34.765h12.975v-8.257H421.78v8.257h12.975V704h9.684zm49.664 0v-8.132h-20.797V685.5h17.196v-7.946h-17.196v-8.443h19.37v-8.132h-29.053V704h30.48zm16.824 0v-15.706h4.78a42.12 42.12 0 0 1 2.483 3.32c.828 1.22 1.666 2.514 2.514 3.88a102.99 102.99 0 0 1 2.483 4.221l2.4 4.284h10.864a116.49 116.49 0 0 0-2.421-4.811 85.26 85.26 0 0 0-2.7-4.718 105.32 105.32 0 0 0-2.825-4.346c-.952-1.386-1.862-2.618-2.732-3.694 2.607-1.076 4.604-2.556 6-4.44s2.08-4.335 2.08-7.356c0-4.842-1.718-8.412-5.153-10.7s-8.38-3.445-14.837-3.445c-1.78 0-3.797.083-6.053.248s-4.44.455-6.55.87h0V704h9.684zm2.732-23.404h-2.732v-11.67l1.583-.124a25.87 25.87 0 0 1 1.893-.062c3.104 0 5.453.445 7.046 1.335s2.4 2.4 2.4 4.5c0 2.193-.786 3.745-2.36 4.656s-4.18 1.366-7.822 1.366h0zM94.464 1386a239.45 239.45 0 0 0 4.159-12.509l3.973-13.13 4.035 13.13c1.366 4.366 2.773 8.536 4.22 12.5h8.877c2.193-6.663 4.232-13.7 6.115-21.107a445.92 445.92 0 0 0 4.997-21.914h0-10.057l-1.335 7.605-1.46 7.915c-.497 2.65-1.024 5.215-1.583 7.698l-1.645 6.9a235.76 235.76 0 0 1-2.049-6.332l-2.08-6.83-1.924-6.612-1.645-5.742H98.8l-1.52 5.65-1.83 6.58-2.05 6.83c-.704 2.276-1.428 4.428-2.173 6.456-.58-2.1-1.148-4.408-1.707-6.9l-1.645-7.698-1.552-7.915-1.366-7.605H74.475a445.92 445.92 0 0 0 4.997 21.914c1.883 7.408 3.92 14.444 6.115 21.107h8.877zm73.068 0v-8.132h-20.797V1367.5h17.196v-7.946h-17.196v-8.443h19.37v-8.132H137.05V1386h30.48zm35.882 0v-8.32h-19.06v-34.703h-9.684V1386h28.743zm25.825.87c3.27 0 6.146-.33 8.63-.993s4.408-1.407 5.773-2.235h0l-2.67-7.76-1.8.807c-.662.3-1.428.548-2.297.776s-1.862.424-2.98.6-2.38.248-3.787.248c-2.235 0-4.14-.362-5.7-1.086s-2.845-1.707-3.818-2.95-1.676-2.72-2.1-4.44-.652-3.57-.652-5.556c0-2.483.33-4.594.993-6.332s1.542-3.156 2.638-4.252 2.36-1.893 3.787-2.4a12.97 12.97 0 0 1 4.377-.745c2.235 0 4.232.248 6 .745s3.3 1.097 4.625 1.8h0l2.794-7.822c-.33-.207-.87-.497-1.614-.87s-1.676-.735-2.794-1.086-2.42-.662-3.9-.93-3.145-.404-4.966-.404c-3.145 0-6.063.497-8.753 1.5s-5.008 2.452-6.953 4.377-3.476 4.284-4.594 7.077-1.676 5.97-1.676 9.53c0 7.16 1.83 12.685 5.494 16.575s9 5.836 15.986 5.836zm40.166 0c3.02 0 5.846-.476 8.474-1.428s4.894-2.37 6.798-4.252 3.404-4.22 4.5-7.015 1.645-6.032 1.645-9.716-.56-6.922-1.676-9.716-2.65-5.142-4.594-7.046-4.22-3.332-6.83-4.284-5.38-1.428-8.32-1.428c-2.856 0-5.577.476-8.164 1.428s-4.863 2.38-6.83 4.284-3.528 4.252-4.687 7.046-1.738 6.032-1.738 9.716.56 6.922 1.676 9.716 2.65 5.132 4.594 7.015a19.1 19.1 0 0 0 6.83 4.252c2.6.952 5.38 1.428 8.32 1.428zm0-8.505c-1.82 0-3.435-.33-4.842-.993a9.89 9.89 0 0 1-3.57-2.825c-.973-1.22-1.718-2.68-2.235-4.377s-.776-3.6-.776-5.7c0-2.07.26-3.963.776-5.68s1.262-3.187 2.235-4.408a10.2 10.2 0 0 1 3.57-2.856c1.407-.683 3.02-1.024 4.842-1.024 1.78 0 3.383.33 4.8.993a9.83 9.83 0 0 1 3.6 2.825c.972 1.22 1.718 2.7 2.235 4.408s.776 3.632.776 5.742-.26 4.015-.776 5.7-1.262 3.156-2.235 4.377a9.84 9.84 0 0 1-3.6 2.825c-1.427.663-3.032.993-4.8.993zm37.683 7.636l.497-13.658a368.93 368.93 0 0 1 .931-14.899l2.483 5.773 7.388 17.32h6.767l2.1-4.935 5.277-12.385 2.483-5.773a368.93 368.93 0 0 1 .931 14.899l.497 13.658h9.436l-.6-10.864-.745-11.516-.93-11.05c-.352-3.54-.735-6.736-1.148-9.6h0-8.815c-.745 1.366-1.604 3.052-2.576 5.06l-3.042 6.518-3.135 7.17-2.918 6.9-2.918-6.9-3.135-7.17-3.042-6.518c-.973-2.007-1.83-3.694-2.576-5.06h0-9.25a216.14 216.14 0 0 0-1.148 9.59l-.93 11.05-.745 11.516-.6 10.864h9.436zm77.972 0v-8.132h-20.797v-10.37h17.196v-7.946h-17.196v-8.443h19.37v-8.132H354.58V1386h30.48zm52.52 0v-8.132h-20.797v-10.37h17.196v-7.946h-17.196v-8.443h19.37v-8.132H407.1V1386h30.48zm15.334 0l.497-13.658a368.93 368.93 0 0 1 .931-14.899l2.483 5.773 7.388 17.32h6.767l2.1-4.935 5.277-12.385 2.483-5.773a368.93 368.93 0 0 1 .931 14.899l.497 13.658h9.436l-.6-10.864-.745-11.516-.93-11.05c-.352-3.54-.735-6.736-1.148-9.6h0-8.815c-.745 1.366-1.604 3.052-2.576 5.06l-3.042 6.518-3.135 7.17-2.918 6.9-2.918-6.9-3.135-7.17-3.042-6.518c-.973-2.007-1.83-3.694-2.576-5.06h0-9.25a216.14 216.14 0 0 0-1.148 9.59l-.93 11.05-.745 11.516-.6 10.864h9.436zm53.203 0a108.08 108.08 0 0 1 1.521-4.594l1.645-4.718h16.762l1.645 4.718a108.08 108.08 0 0 1 1.521 4.594h10.367l-4.594-12.85-4.252-11.112a329.77 329.77 0 0 0-4.128-9.902l-4.16-9.157h-9.25c-1.45 2.98-2.845 6.032-4.2 9.157l-4.097 9.902-4.252 11.112-4.594 12.85h10.057zm17.63-17h-12.23l1.956-5.34 1.77-4.656 1.428-3.725c.414-1.076.724-1.924.93-2.545l.993 2.545 1.46 3.725 1.77 4.656 1.924 5.34zm31.102 17v-43.02h-9.684V1386h9.684zm38.676 0v-8.32h-19.06v-34.703h-9.684V1386h28.743z" fill="#000" class="L"/><g filter="url(#D)" transform="translate(704)"><g transform="translate(.171)"><mask id="L" class="C"><use xlink:href="#E"/></mask><use xlink:href="#E" class="C"/><path mask="url(#L)" d="M68 1192h507v395H68z" class="E"/><path fill="#ffe156" mask="url(#L)" d="M607.83 1192h507v395h-507z"/><g transform="translate(70 139)"><g transform="translate(1)"><g fill="#000" class="L"><path d="M584.878 67V34.276c4.23 4.95 8.217 10.21 11.965 15.786s7.232 11.22 10.452 16.94h9.442V17.05h-11.172v29.48l-5.55-8.11c-1.97-2.81-3.952-5.526-5.947-8.145a215.16 215.16 0 0 0-5.875-7.388c-1.922-2.307-3.676-4.253-5.262-5.838h0-9.154V67h11.1zm78.783 0v-9.442h-24.147V45.52h19.966v-9.226h-19.966V26.49h22.49V17.05H628.27V67h35.39zm27.174 0a278.02 278.02 0 0 0 4.829-14.524l4.613-15.245 4.685 15.245c1.586 5.07 3.22 9.91 4.9 14.524h10.307c2.547-7.737 4.913-15.906 7.1-24.507s4.12-17.083 5.802-25.444h0-11.677l-1.55 8.83-1.694 9.2c-.577 3.075-1.19 6.055-1.838 8.938l-1.9 8a273.75 273.75 0 0 1-2.379-7.352l-2.415-7.93-2.234-7.677-1.9-6.667h-9.587l-1.766 6.56-2.126 7.64-2.38 7.93c-.817 2.643-1.658 5.142-2.523 7.496-.673-2.45-1.333-5.118-1.982-8l-1.9-8.938-1.802-9.2-1.586-8.83h-12.182c1.682 8.36 3.616 16.843 5.802 25.444s4.553 16.77 7.1 24.507h10.307zm63.07 1.01c6.583 0 11.51-1.285 14.776-3.856s4.9-6.187 4.9-10.848c0-2.403-.312-4.445-.937-6.127s-1.574-3.147-2.847-4.397-2.87-2.343-4.793-3.28-4.18-1.886-6.776-2.847a84.85 84.85 0 0 1-3.424-1.261 16.17 16.17 0 0 1-2.739-1.37c-.793-.505-1.406-1.07-1.838-1.694s-.65-1.394-.65-2.307c0-1.538.59-2.68 1.766-3.424s3.11-1.117 5.802-1.117c2.403 0 4.457.276 6.163.83s3.256 1.19 4.65 1.9h0l3.244-8.866c-1.586-.865-3.604-1.658-6.055-2.38s-5.358-1.08-8.722-1.08c-2.835 0-5.382.348-7.64 1.045s-4.18 1.694-5.766 2.99a13.31 13.31 0 0 0-3.676 4.721c-.865 1.85-1.297 3.928-1.297 6.235s.408 4.265 1.225 5.875 1.874 2.98 3.172 4.11 2.763 2.066 4.397 2.81 3.268 1.406 4.9 1.982c3.748 1.25 6.39 2.415 7.93 3.496s2.307 2.44 2.307 4.073c0 .77-.12 1.466-.36 2.1s-.673 1.165-1.297 1.622-1.454.817-2.487 1.08-2.343.396-3.928.396c-3.172 0-5.85-.324-8.037-.973s-4.024-1.382-5.514-2.198h0l-3.172 8.938c.673.384 1.502.793 2.487 1.225s2.162.84 3.532 1.225 2.943.71 4.72.973 3.772.396 5.983.396zm61.7-1.01v-9.66h-22.13V17.05h-11.244V67h33.373zm42.6 0v-9.442h-24.147V45.52h19.966v-9.226h-19.966V26.49h22.49V17.05h-33.733V67h35.39zm30.274 0V26.635h15.065V17.05H862.17v9.587h15.065V67h11.244zm44.257 0V26.635H947.8V17.05h-41.374v9.587h15.065V67h11.244zm57.664 0v-9.442h-24.147V45.52h19.966v-9.226h-19.966V26.49h22.49V17.05H955.01V67h35.39zm19.534 0V48.764h5.55c.96 1.153 1.922 2.44 2.883 3.856s1.934 2.92 2.92 4.505 1.946 3.22 2.883 4.9l2.775 4.974h12.614a135.25 135.25 0 0 0-2.811-5.586c-1.01-1.898-2.054-3.724-3.135-5.478s-2.174-3.436-3.28-5.046-2.162-3.04-3.172-4.29c3.027-1.25 5.346-2.967 6.956-5.154s2.415-5.034 2.415-8.54c0-5.622-1.994-9.767-5.983-12.434s-9.73-4-17.227-4c-2.066 0-4.41.096-7.028.288s-5.154.53-7.604 1.01h0V67h11.244zm3.172-27.174h-3.172v-13.55l1.838-.144c.65-.048 1.382-.072 2.198-.072 3.604 0 6.33.517 8.18 1.55s2.775 2.775 2.775 5.226c0 2.547-.913 4.35-2.74 5.406s-4.853 1.586-9.082 1.586h0z"/><path d="M806.74 148l1.766-5.334 1.9-5.478h19.462l1.9 5.478 1.766 5.334h12.037l-5.334-14.92-4.937-12.902c-1.6-4.036-3.208-7.87-4.793-11.497l-4.83-10.632h-10.74a254.28 254.28 0 0 0-4.865 10.632l-4.757 11.497-4.937 12.902-5.334 14.92h11.677zm20.47-19.75h-14.2l2.27-6.2 2.054-5.406 1.658-4.325c.48-1.25.84-2.234 1.08-2.955l1.153 2.955 1.694 4.325 2.054 5.406 2.234 6.2zm40.365 20.615c3.172 0 6.2-.228 9.082-.685s5.238-.95 7.064-1.478h0v-36.617h-10.74v29.264c-.673.096-1.442.18-2.307.252s-1.682.108-2.45.108c-2.5 0-4.205-.77-5.118-2.307s-1.37-4.036-1.37-7.496h0v-19.822h-10.74v21.12c0 2.595.264 4.974.793 7.136s1.418 4.024 2.667 5.586 2.943 2.775 5.082 3.64 4.817 1.297 8.037 1.297zm39.644 12.686c6.583 0 11.45-1.502 14.596-4.505s4.72-7.604 4.72-13.803h0v-31.86a43.2 43.2 0 0 0-3.28-.829 55.59 55.59 0 0 0-3.856-.685 75.35 75.35 0 0 0-4.073-.469 45.79 45.79 0 0 0-4-.18c-3.027 0-5.742.444-8.145 1.333s-4.433 2.15-6.09 3.784-2.92 3.592-3.784 5.875-1.297 4.817-1.297 7.604c0 5.574 1.394 9.91 4.18 13s6.8 4.65 12.037 4.65c1.442 0 2.775-.132 4-.396a17.29 17.29 0 0 0 3.568-1.189h0v1.37c0 2.114-.637 3.844-1.9 5.2s-3.448 2.018-6.523 2.018c-2.355 0-4.457-.192-6.307-.577s-3.616-.913-5.298-1.586h0l-1.874 9c1.97.673 4.11 1.213 6.415 1.622a39.61 39.61 0 0 0 6.92.613zm3.027-24.723c-4.853 0-7.28-3.003-7.28-9 0-2.883.697-5.262 2.1-7.136s3.508-2.81 6.343-2.81c.96 0 1.802.036 2.523.108s1.345.156 1.874.252h0v17.155c-.673.384-1.5.72-2.45 1.01s-1.994.432-3.1.432zm42.6 12.037c3.172 0 6.2-.228 9.082-.685s5.238-.95 7.064-1.478h0v-36.617h-10.74v29.264c-.673.096-1.442.18-2.307.252s-1.682.108-2.45.108c-2.5 0-4.205-.77-5.118-2.307s-1.37-4.036-1.37-7.496h0v-19.822h-10.74v21.12c0 2.595.264 4.974.793 7.136s1.418 4.024 2.667 5.586 2.943 2.775 5.082 3.64 4.817 1.297 8.037 1.297zm37.05.144c5.142 0 9.118-.96 11.93-2.883s4.217-4.757 4.217-8.505c0-1.586-.18-2.98-.54-4.18s-.985-2.295-1.874-3.28-2.102-1.898-3.64-2.74-3.484-1.694-5.838-2.56c-1.153-.432-2.102-.83-2.847-1.19s-1.333-.697-1.766-1.01-.72-.637-.865-.973-.216-.72-.216-1.153c0-1.874 1.682-2.81 5.046-2.81 1.826 0 3.472.168 4.937.505s2.823.72 4.073 1.153h0l1.874-8.36c-1.25-.48-2.93-.925-5.046-1.333s-4.325-.613-6.63-.613c-4.613 0-8.24 1.033-10.884 3.1s-3.964 4.877-3.964 8.433c0 1.826.264 3.388.793 4.685s1.273 2.415 2.234 3.352 2.126 1.742 3.496 2.415 2.895 1.32 4.577 1.946c2.162.817 3.772 1.55 4.83 2.198s1.586 1.406 1.586 2.27c0 1.105-.408 1.85-1.225 2.234s-2.2.577-4.18.577a27.34 27.34 0 0 1-5.694-.613 35.23 35.23 0 0 1-5.622-1.694h0l-1.802 8.722c.865.384 2.415.865 4.65 1.442s5.034.865 8.397.865zm38.78-.144c2.307 0 4.253-.192 5.838-.577s3.027-.84 4.325-1.37h0l-1.514-8.36c-1.01.384-2.126.685-3.352.9a20.52 20.52 0 0 1-3.568.324c-2.403 0-4-.673-4.793-2.018s-1.19-3.147-1.19-5.406h0v-13.335h12.902v-8.938h-12.902V98.914l-10.74 1.73v31.86c0 2.45.228 4.685.685 6.703s1.26 3.736 2.415 5.154 2.69 2.523 4.613 3.316 4.35 1.19 7.28 1.19z"/></g><g opacity=".92"><path d="M788.67 519V262.627H525.917l.025 3.015c2.308 138.902 117.28 251.082 259.64 253.334l3.087.025z" class="H"/><path d="M504 1449v-396H98l.04 4.656c3.567 214.55 181.22 387.826 401.19 391.305l4.77.038z" fill="#28bafe"/><path d="M263.164 0v256.373H.412l.025-3.015C2.745 114.457 117.718 2.277 260.077.025L263.164 0z" class="I"/><path d="M261.913 256.373V0h262.752l-.025 3.015C522.332 141.917 407.36 254.097 265 256.35l-3.087.025z" class="J"/><path d="M263.164 262.627V519H.412l.025-3.015c2.308-138.902 117.28-251.082 259.64-253.334l3.087-.025z" class="K"/><g fill="#ff7800"><ellipse transform="matrix(1 0 0 -1 0 781.626506)" cx="914.415" cy="390.813" rx="125.746" ry="128.187"/><ellipse transform="matrix(1 0 0 -1 0 2503)" cx="793.568" cy="1251.5" rx="193.739" ry="197.5"/></g></g></g><g fill="#f4f2ee"><rect x="1" y="829" width="981.707" height="33.537" rx="16.768"/><rect x="1" y="777" width="1015.244" height="33.537" rx="16.768"/><rect x="1" y="1528" width="291" height="33.537" rx="16.768"/><rect x="536" y="1528" width="416" height="33.537" rx="16.768"/><rect x="1" y="881" width="1015.244" height="33.537" rx="16.768"/><rect x="1" y="932" width="338.415" height="33.537" rx="16.768"/><rect x="1" y="725" width="1042.683" height="33.537" rx="16.768"/><rect x="1" y="1476" width="508" height="33.537" rx="16.768"/><rect x="535.829" y="1476" width="508" height="33.537" rx="16.768"/><rect x=".829" y="597" width="1042.683" height="64.024" rx="32.012"/></g></g><g class="I"><rect x="436.829" y="1071.366" width="182.927" height="33.537" rx="16.768"/><rect x="69.829" y="1719" width="182.927" height="33.537" rx="16.768"/><rect x="606" y="1719" width="182.927" height="33.537" rx="16.768"/></g><g transform="translate(270.293 1096.39)"/></g></g></g></svg>