<svg xmlns="http://www.w3.org/2000/svg" xmlns:xlink="http://www.w3.org/1999/xlink" width="380" height="655" xmlns:v="https://vecta.io/nano"><style><![CDATA[.B{stroke-linejoin:round}.C{fill-rule:nonzero}.D{fill:#0064ff}.E{stroke-linecap:round}.F{mask:url(#K)}.G{fill:#fff}.H{fill:#0d62fe}.I{stroke-width:.9}.J{mask:url(#J)}.K{fill:#011638}.L{fill:#ff9d00}.M{stroke-width:.905}]]></style><defs><filter x="-51.8%" y="-27.9%" width="203.6%" height="155.8%" id="A"><feOffset dy="24" in="SourceAlpha"/><feGaussianBlur stdDeviation="16"/><feColorMatrix values="0 0 0 0 0 0 0 0 0 0.160784314 0 0 0 0 0.349019608 0 0 0 0.1 0" result="C"/><feMerge><feMergeNode in="C"/><feMergeNode in="SourceGraphic"/></feMerge></filter><filter x="-22.5%" y="-12.1%" width="145.0%" height="124.2%" id="B"><feOffset dy="12" in="SourceAlpha"/><feGaussianBlur stdDeviation="12"/><feColorMatrix values="0 0 0 0 0 0 0 0 0 0.164542109 0 0 0 0 0.362271488 0 0 0 0.1 0" result="C"/><feMerge><feMergeNode in="C"/><feMergeNode in="SourceGraphic"/></feMerge></filter><path d="M24.927 0h230.1c13.244 0 23.985 10.73 24 23.973l.547 495.248c.015 13.255-10.72 24.012-23.973 24.026h-.027-230.1c-13.244 0-23.985-10.73-24-23.973L.927 24.027C.912 10.772 11.645.015 24.9 0h.027z" id="C"/><filter x="-8.2%" y="-5.9%" width="116.4%" height="112.0%" id="D"><feOffset dy="4" in="SourceAlpha"/><feGaussianBlur stdDeviation="3.5"/><feColorMatrix values="0 0 0 0 0 0 0 0 0 0.164542109 0 0 0 0 0.362271488 0 0 0 0.1 0" result="C"/><feMerge><feMergeNode in="C"/><feMergeNode in="SourceGraphic"/></feMerge></filter><path d="M33.815 561h246.37C298.86 561 314 545.865 314 527.195V495H0v32.195C0 545.865 15.14 561 33.815 561z" id="E"/><filter x="-16.2%" y="-86.4%" width="132.5%" height="254.5%" id="F"><feOffset dy="-6" in="SourceAlpha"/><feGaussianBlur stdDeviation="16"/><feColorMatrix values="0 0 0 0 0 0 0 0 0 0.160784314 0 0 0 0 0.349019608 0 0 0 0.1 0"/></filter><filter x="-7.8%" y="-13.0%" width="115.7%" height="125.9%" id="G"><feOffset dy="4" in="SourceAlpha"/><feGaussianBlur stdDeviation="3.5"/><feColorMatrix values="0 0 0 0 0 0 0 0 0 0.164542109 0 0 0 0 0.362271488 0 0 0 0.1 0" result="C"/><feMerge><feMergeNode in="C"/><feMergeNode in="SourceGraphic"/></feMerge></filter><path id="H" d="M0 0h274v166H0z"/><path id="I" d="M11.033 2.665c-.054.86.785 1.08 1.017.287.177-.604-.79-.662-1.094-.287"/></defs><g filter="url(#A)" transform="translate(36 12)" fill="none" fill-rule="evenodd"><g filter="url(#B)"><path d="M36.037 0h234.9c19.37 0 35.08 15.692 35.1 35.063l.526 499.8c.02 19.385-15.678 35.117-35.063 35.137h-.037-234.9c-19.37 0-35.08-15.692-35.1-35.063l-.526-499.8C.917 15.752 16.615.02 36 0h.037z" fill="#292929"/><path d="M36.03 4.5h233.423c16.556 0 29.983 13.413 30 29.97l.515 501c.017 16.57-13.4 30.014-29.97 30.03h-.03H36.546c-16.556 0-29.983-13.413-30-29.97l-.515-501C6.014 17.962 19.43 4.517 36 4.5h.03z" fill="#000"/><g transform="translate(13.5 13.5)"><mask id="J" class="G"><use xlink:href="#C"/></mask><use fill="#fafafa" xlink:href="#C"/><g filter="url(#D)" class="J"><g transform="translate(-53.5 168.5)"><g stroke="#f4f2ee" stroke-width=".5" class="G"><path d="M0 187h274v179H0z"/><path d="M0 .855h274v300H0z"/></g><path d="M147.105 25v7.445c0 4.66 3.535 8.438 7.895 8.438s7.895-3.778 7.895-8.437L162.894 25H165v7.94c0 5.215-3.946 9.504-9 10.01V46h4a2 2 0 0 1 1.995 1.851L162 48h-14a2 2 0 0 1 2-2h3v-3.2c-4.564-.932-8-4.99-8-9.858V25h2.105zM161 26v6.5c0 3.038-2.686 5.5-6 5.5s-6-2.462-6-5.5V26h12zm-6-9c3.314 0 6 2.462 6 5.5V24h-12v-1.5c0-3.038 2.686-5.5 6-5.5z" class="C H"/><g transform="translate(89 67)"><path d="M22.418 0C10.037 0 0 10.02 0 22.377s10.037 22.377 22.418 22.377 22.418-10.02 22.418-22.377S34.8 0 22.418 0z" fill="#cce4ff" class="C"/><g transform="translate(10.651 6.48)"><g transform="translate(6.796 .405)" fill="#ff5fa7"><path d="M15.013 2.603c-.53 11.814-13.417 16.194-5.18 23.893 1.968 1.84-10.793 1.865-9.697 0C5.98 16.54-.13 14.416.002 3.664.018 2.396.198 1.207.516.115 6.93-.066 11.63.1 14.615.61c.237.04.37.704.4 1.99z"/></g><g stroke="#ffc200" class="B E I"><path d="M23.534 1.62c-.706 3.06-2.05 6.2-2.308 9.342-.188 2.28-.084 4.572-.126 6.858"/><path d="M22.723 1.52c-1.583 3.976-2.197 7.552-2.347 11.848-.117 3.375-.456 2.55.22 3.947"/><path d="M20.592 3.95c-1.486 6.123-1.555 8.1-.514 14.378"/><path d="M19.984 19.036C16.297 15.73 17.84 9.96 18.83 5.873"/></g><path d="M12.836 2.936c.224 1.105.163 1.846-.183 2.222-1.84 2-2.555 2.77-4.623 5.616-.028.04-.02.14.028.14.23.002.486-.005.675-.134 1.327-.906 2.352-2.284 3.82-2.937 1.977-.88-2.712 2.16-1.577 2.753.464.242 8.57-.87 5.95-.35s-6.514 1.246-6.187 1.67c1.363 1.776 1.706 2.59 1.363 4.18" stroke="#212121" class="B E I"/><g stroke="#ffc200" class="B E I"><path d="M7.912 5.063C6.722 8.22 5.13 15.917.44 16.807c-.06.01-.1-.08-.135-.12"/><path d="M7.202 2.936C6.124 8.27 4.53 12.983.1 16.1"/><path d="M6.594.91C5.217 5.878 4.52 11.28.304 14.682"/><path d="M5.173 1.114C3.9 6.44 3.762 9.945 0 13.67"/></g><path d="M6.474.044c-.575 0 .346 3.54.707 4.358.305.69 1.146 1.044 2.52 1.057 1.523.047 2.58-.3 3.176-1.04l.09-.117c.707 1.416 2.13 1.818 3.857 1.818 3.994 0 5.587-2.416 4.948-6.075h-15.3zm7.05 1.352l6.792-.095.002.024c.1 1.167-.113 2.034-.57 2.6l-.047.058c-.546.64-1.564.975-3.102.975-1.054 0-2.283-.41-2.814-1.724l-.124-.37c-.06-.223-.056-.577-.088-1l-.05-.477zM7.547 1.5h4.928l-.007.724c-.04 1.627-.387 2.354-3.275 2.414l-.54.005c-.07 0-.106-.01-.17-.056-.138-.095-.29-.283-.428-.572-.227-.47-.385-1.13-.467-1.97l-.04-.545z" fill="#00ffce" class="C"/><g fill="#212121"><use xlink:href="#I" transform="matrix(-1 0 0 1 23.02682 0)"/><use xlink:href="#I" x="2.941" transform="matrix(-1 0 0 1 28.910324 0)"/></g><g fill="#ff0025"><path d="M2.524 29.026c.65.952 3.384.705 1.92-1.224s-2.57.272-1.92 1.224z" transform="matrix(-1 0 0 1 7.202222 0)"/><path d="M6.025 30.657c.67.92 3.114.334 1.61-1.528s-2.278.61-1.61 1.528z" transform="matrix(-1 0 0 1 13.897244 0)"/><path d="M10.7 31.204c.677.954 3.112.522 1.59-1.41s-2.267.457-1.59 1.41z" transform="matrix(-1 0 0 1 23.2297 0)"/><path d="M15.273 30.612c.69.94 3.032.45 2.03-1.207s-2.72.268-2.03 1.207z" transform="matrix(-1 0 0 1 32.663594 0)"/><path d="M18.905 29.495c.654.928 2.68.483 1.93-1.194s-2.583.265-1.93 1.194z" transform="matrix(-1 0 0 1 39.764376 0)"/></g></g></g><g fill="#f4f2ee"><rect x="157" y="120" width="77" height="10" rx="5"/><rect x="78" y="120" width="66" height="10" rx="5"/><rect x="157" y="138" width="77" height="10" rx="5"/><rect x="98" y="187" width="77" height="10" rx="5"/><rect x="98" y="216" width="160" height="10" rx="5"/><rect x="98" y="234" width="160" height="10" rx="5"/><rect x="98" y="252" width="160" height="10" rx="5"/><rect x="78" y="138" width="66" height="10" rx="5"/></g><g class="K"><rect x="19" y="187" width="66" height="10" rx="5"/><rect x="19" y="216" width="66" height="10" rx="5"/></g><g transform="translate(173 67)"><path d="M22.5 0C10.074 0 0 10.074 0 22.5S10.074 45 22.5 45 45 34.926 45 22.5 34.926 0 22.5 0z" fill="#06f" class="C"/><path d="M28.63 17.143c5.226 3.173 8.896 9.755 11.012 19.746C35.48 41.84 29.153 45 22.068 45c-7.204 0-13.624-3.266-17.782-8.36.382-2.515.9-4.732 1.553-6.658.705-2.08 2.942-5.647 6.71-10.704l1.15-1.527c5.366.28 10.056.083 14.014-.472l.918-.138z" class="L"/><g stroke="#001d75" class="B E M"><path d="M11.786 33.72c3.235 1.586 5.32-.442 7.5-2.65"/><path d="M22.5 32.143c.52 1.75.848 2.845 2.138 4.256.03.034-.104.02-.156.03"/><path d="M25.714 35.357c-2.115-1.154-.844-.285-3.214-3.214"/><path d="M30 34.286c-2.688-.2-5.456-1.263-7.5-3.214"/><path d="M31.07 32.66c-1.58.22-4.804 1.79-8.57-1.587"/><path d="M31.07 31.07c-4.018.786-1.536.475-7.5.33"/><path d="M15 36.43c1.566-1.39 3.877-2.928 4.286-5.357"/><path d="M17.143 36.43c2.232-1.255.66-.214 3.214-4.286"/><path d="M19.286 36.43c1.962-2.94 1.314-1.492 2.143-4.286"/><path d="M22.5 36.43c-1.225-2.452-.776-1.05-1.07-4.286"/><path d="M24.643 36.43c-1.61-2.34-.827-.953-2.143-4.286"/><path d="M13.93 28.93c1.542 1.156 3.674 3.295 5.357 1.37"/><path d="M12.857 31.65c1.08.195 6.528 1.285 6.427-.577"/><path d="M16.147 18.214c-.1 1.135-.1 1.846 0 2.13.643 1.812 1.65 1.208 2.067-.746"/><path d="M19.74 17.143c-2.184 10-2.023 15 .482 15s3.372-1.77 2.602-5.306l-.385-9.082c1.156 4.286 2.248 4.5 3.276.612" class="L"/></g><g stroke="#ff5fa7" fill="#ff5fa7" class="B M"><path d="M12.123 26.14c-.6-.307-.93-.582-1.022-.825-.485-1.294.494-1.997 2.248-1.03.068-1.512.647-2.44 1.737-2.784s1.294.584.613 2.784c1.085-.163 1.766-.163 2.044 0 .93.545.498 1.874-1.43 2.68.954.825 1.1 1.684.41 2.578s-1.5.48-2.453-1.237c-1.363 1.65-2.418 2.062-3.168 1.237s-.41-1.96 1.022-3.403z"/><path d="M27.123 25.068c-.6-.307-.93-.582-1.022-.825-.485-1.294.495-1.997 2.248-1.032.07-1.512.648-2.44 1.738-2.785s1.294.584.612 2.784c1.085-.163 1.766-.163 2.044-.001.93.545.498 1.874-1.43 2.682.953.825 1.09 1.684.408 2.578s-1.5.482-2.452-1.237c-1.363 1.65-2.42 2.063-3.168 1.238s-.408-1.96 1.023-3.403z" transform="matrix(-.987688 .156434 .156434 .987688 54.710826 -4.305835)"/></g><g fill="#d41c61"><circle cx="13.929" cy="25.714" r="1.071"/><circle cx="28.929" cy="24.643" r="1.071"/></g><path d="M29.378 16.484c4.208-.75 6.558-1.294 7.05-1.63l-.92-2.547-7.664 1.528C27.368 6.433 26.04 2.732 23.86 2.732c-.71 0-1.527 1.02-2.452 3.056-1.294-3.94-2.657-4.686-4.087-2.24s-2.18 6.146-2.248 11.103c-2.25-.072-3.92-.167-5.007-.284s-1.94-.294-2.555-.53v2.343c-.1.113.647.273 2.268.48s3.25.353 4.885.435c1.976.15 6.88-.053 14.715-.61z" fill="#001d75"/></g><g class="C D"><path d="M23.256 79.525v-.876h-4.878v-.03c0-.246.057-.494.172-.745s.27-.507.462-.768a9.14 9.14 0 0 1 .656-.784l.753-.776.9-.922a8.22 8.22 0 0 0 .798-.953 4.77 4.77 0 0 0 .559-1.022c.14-.353.21-.73.21-1.13 0-.9-.254-1.606-.76-2.113s-1.263-.76-2.267-.76a3.41 3.41 0 0 0-1.029.146c-.308.097-.58.213-.813.346a3.37 3.37 0 0 0-.582.407l-.32.315.507.69a5.06 5.06 0 0 1 .283-.261c.13-.113.286-.223.47-.33s.4-.202.65-.284.532-.123.85-.123c.567 0 1.037.156 1.4.47s.56.827.56 1.544a2.66 2.66 0 0 1-.149.906 3.42 3.42 0 0 1-.403.784 5.51 5.51 0 0 1-.589.714l-.71.714-.932.922a7.79 7.79 0 0 0-.88 1.029c-.264.37-.48.76-.65 1.175s-.254.863-.254 1.344l.007.254.007.115h5.952zm5.323 0V68.878h-.686c-.457.574-.92 1.027-1.387 1.36a6.58 6.58 0 0 1-1.596.822h0l.283.768c.24-.072.477-.166.716-.284l.686-.37c.22-.128.415-.26.59-.392s.316-.26.425-.384h0v9.126h.97z"/><path d="M19.04 66.1l.072-1.627.11-1.437.133.254.208.418.245.51.25.53.22.474.152.35h.325l.152-.35.22-.474.25-.53.245-.51.208-.418.133-.254.11 1.437.072 1.627h.368l-.11-1.916-.152-1.752h-.304l-.34.61-.36.72-.347.736-.296.654-.296-.654-.347-.736-.36-.72-.34-.61h-.32l-.152 1.752-.11 1.916h.357zm5.134.058l.333-.013.296-.034.235-.04.155-.034V64.3a1.45 1.45 0 0 0-.053-.402.83.83 0 0 0-.171-.32.79.79 0 0 0-.307-.212 1.23 1.23 0 0 0-.461-.077 2.41 2.41 0 0 0-.456.037c-.126.025-.22.05-.28.08h0l.048.302a2.87 2.87 0 0 1 .219-.069 1.79 1.79 0 0 1 .453-.042c.142 0 .257.022.344.066s.155.102.203.175.08.153.093.243.02.183.02.278h0v.17a.41.41 0 0 0-.077-.024l-.133-.026-.16-.02-.157-.008c-.167 0-.322.016-.464.048a1.08 1.08 0 0 0-.368.151c-.103.07-.183.156-.24.262s-.085.233-.085.38c0 .155.026.287.077.394s.123.196.213.265.197.12.32.15.257.048.403.048zm.06-.307c-.1 0-.21-.01-.296-.03a.64.64 0 0 1-.224-.093.42.42 0 0 1-.144-.169c-.034-.07-.05-.157-.05-.26 0-.116.025-.2.075-.28a.53.53 0 0 1 .192-.167c.078-.04.164-.067.256-.08s.18-.02.267-.02c.15 0 .267.01.352.03a1.07 1.07 0 0 1 .187.056h0v.963a2.44 2.44 0 0 1-.259.034l-.355.013zm1.77 1.244c.156 0 .292-.018.408-.053s.217-.1.304-.164a1.19 1.19 0 0 0 .237-.283 3.04 3.04 0 0 0 .208-.41c.17-.402.33-.845.475-1.328l.39-1.492h-.347l-.152.65-.15.6-.168.58-.208.62-.3-.646-.253-.64-.205-.606-.15-.548h-.368l.203.7.26.714.304.706.34.672a1.91 1.91 0 0 1-.152.307.8.8 0 0 1-.173.198.58.58 0 0 1-.216.108c-.08.02-.17.032-.27.032a.72.72 0 0 1-.205-.029c-.066-.02-.106-.034-.12-.045h0l-.07.286c.018.01.063.026.136.048a.87.87 0 0 0 .243.032z"/></g></g></g><g class="J"><g transform="translate(-17 -9.5)"><path fill="#001d71" d="M240.5.5h61v576h-61z"/><path d="M241 148h57v51h-57z" class="K"/><g transform="translate(256 285)" class="H"><path d="M18.57 9.667V1.61l7.857 8.056H18.57zM20.793 0H9.143C7.4 0 6 1.447 6 3.222v22.556C6 27.555 7.4 29 9.143 29h15.714C26.6 29 28 27.555 28 25.778V7.39L20.793 0z"/><path d="M3.143 6H0v25.778C0 33.555 1.4 35 3.143 35H22v-3.222H3.143V6z"/></g><g transform="translate(253 49)" class="H"><path d="M0 0h33v4H0z"/><path d="M0 8h33v4H0z"/><path d="M0 16h33v4H0z"/></g><path d="M261.315 164.774l.001 8.165c0 5.11 3.888 9.254 8.684 9.254s8.684-4.143 8.684-9.254v-8.165H281v8.7c0 5.72-4.34 10.424-9.9 10.978v3.344h4.406c1.16 0 2.108.9 2.188 2.037l.006.157h-15.4c0-1.21.982-2.194 2.194-2.194h3.306v-3.51a11.03 11.03 0 0 1-8.8-10.812v-8.7h2.315zm15.285 1.097V173c0 3.332-2.955 6.032-6.6 6.032s-6.6-2.7-6.6-6.032v-7.13h13.2zM270 156c3.645 0 6.6 2.7 6.6 6.032v1.645h-13.2v-1.645c0-3.332 2.955-6.032 6.6-6.032z" class="C G"/><g transform="translate(256 218)" class="H"><path d="M13.5 18.525c-2.66 0-4.82-2.182-4.82-4.875s2.16-4.875 4.82-4.875 4.82 2.182 4.82 4.875-2.158 4.875-4.82 4.875M13.5 0C6.044 0 0 6.11 0 13.65 0 23.4 13.5 39 13.5 39S27 23.4 27 13.65C27 6.11 20.956 0 13.5 0"/></g><g transform="translate(253 97)" class="H"><path d="M28.5 17.714h-6V11.8h6v5.905zm-9 0h-6V11.8h6v5.905zm0 8.857h-6v-5.905h6v5.905zm-9-8.857h-6V11.8h6v5.905zm0 8.857h-6v-5.905h6v5.905zM30 2.952h-3V0h-3v7.38h-3v-4.43h-9V0H9v7.38H6v-4.43H3c-1.654 0-3 1.326-3 2.952v22.143C0 29.676 1.346 31 3 31h27c1.654 0 3-1.324 3-2.952V5.905c0-1.627-1.346-2.952-3-2.952h0z"/></g><g transform="translate(254 348)" class="H"><g transform="translate(.5)"><path d="M28.476 0H17.8c-.84 0-1.524.65-1.524 1.45V2.9h10.667v2.9H16.286v2.9h9.143v2.9h-9.143v2.9h7.62v2.9h-7.62v10.15c0 .802.683 1.45 1.524 1.45h3.048v-4.35h4.57V29h3.048c.84 0 1.524-.648 1.524-1.45V1.45C30 .65 29.317 0 28.476 0"/><path d="M12.2 8.286H1.524C.683 8.286 0 8.95 0 9.765v1.48h9.143v2.96H0v2.96h6.095v2.96H0v7.398C0 28.34.683 29 1.524 29H4.57v-4.44h4.57V29H12.2c.84 0 1.524-.66 1.524-1.48V9.765c0-.817-.683-1.48-1.524-1.48"/></g></g><use fill="#000" filter="url(#F)" xlink:href="#E"/><use xlink:href="#E" class="G"/><g transform="translate(98.5 511)" class="D"><path d="M20.09.01L.828 4.443c-.437.1-.765.457-.82.893a1.04 1.04 0 0 0 .578 1.058L6.057 9.1l.56 5.45a1.05 1.05 0 0 0 .8.908c.435.11.895-.062 1.148-.425l.166-.166-1.106-4.16a1.41 1.41 0 0 1 .707-1.339l4.754-2.752-3.8 3.588c-.27.255-.382.63-.298.987l1.732 7.316c.1.428.467.748.912.802a1.08 1.08 0 0 0 1.083-.565l9.05-17.278a1.02 1.02 0 0 0 .106-.204c.095-.242.036-.612-.072-.866-.134-.314-.703-.445-1.707-.395z"/></g><path d="M63.5 521h4v-4h-4v4zm-6 0h4v-4h-4v4zm0 6h4v-4h-4v4zm-6-6h4v-4h-4v4zm0 6h4v-4h-4v4zm17-16h-2v-2h-2v5h-2v-3h-6v-2h-2v5h-2v-3h-2a2 2 0 0 0-2 2v15c0 1.102.897 2 2 2h18c1.103 0 2-.898 2-2v-15c0-1.103-.897-2-2-2z" class="D"/><g transform="translate(198.5 509)" class="D"><path d="M17.857 11.786c-.657 0-1.2-.528-1.2-1.18s.533-1.18 1.2-1.18 1.2.528 1.2 1.18-.533 1.18-1.2 1.18m-4.762 0c-.657 0-1.2-.528-1.2-1.18s.533-1.18 1.2-1.18 1.2.528 1.2 1.18-.533 1.18-1.2 1.18m-4.762 0c-.657 0-1.2-.528-1.2-1.18s.533-1.18 1.2-1.18 1.2.528 1.2 1.18-.533 1.18-1.2 1.18M13.095 0C6.53 0 1.2 4.76 1.2 10.607c0 2.045.644 3.998 1.873 5.7L0 21.214h13.095C19.66 21.214 25 16.455 25 10.607S19.66 0 13.095 0"/></g><g transform="translate(149.5 511)" class="D"><path d="M10.023 17.822L1.417 9.476l5.056-4.902 3.304 3.204 5.292-5.645H2.2C.986 2.133 0 3.09 0 4.267v12.8C0 18.243.986 19.2 2.2 19.2h15.4c1.213 0 2.2-.957 2.2-2.133V7.393l-9.777 10.43z"/><path d="M9.947 14.73l-5.42-5.254L6.472 7.59l3.38 3.278L19.882.17l2.035 1.793z"/></g><g transform="translate(250.5 511)" class="D"><path d="M10.08 9.6c2.78 0 5.04-2.153 5.04-4.8S12.86 0 10.08 0 5.04 2.153 5.04 4.8s2.26 4.8 5.04 4.8"/><path d="M10.08 10.8C4.145 10.8 0 13.76 0 18v1.2h20.16V18c0-4.24-4.145-7.2-10.08-7.2"/></g></g><g transform="translate(-50.5 -.5)"><g filter="url(#G)"><mask id="K" class="G"><use xlink:href="#H"/></mask><use xlink:href="#H" class="G"/><path d="M-10-1h285v166H-10z" class="F H"/><rect x="166.693" y="176.151" width="91.852" height="24.863" rx="3" class="D F"/><g class="C G F"><path d="M22.836 73.668V70h-8.418V54.695H10.14v18.973h12.696zm8.884.383c1.08 0 2.052-.183 2.92-.548s1.613-.88 2.235-1.547 1.097-1.47 1.426-2.41.494-1.976.494-3.107-.174-2.163-.52-3.094-.832-1.725-1.453-2.382-1.366-1.168-2.235-1.533-1.824-.548-2.866-.548c-1.024 0-1.97.183-2.838.548a6.65 6.65 0 0 0-2.249 1.533c-.63.657-1.124 1.45-1.48 2.382s-.535 1.962-.535 3.094.174 2.167.52 3.107.832 1.743 1.453 2.41 1.366 1.182 2.235 1.547 1.833.548 2.893.548zm0-3.504c-.932 0-1.654-.37-2.166-1.11s-.768-1.74-.768-2.998.256-2.25.768-2.97 1.234-1.08 2.166-1.08 1.65.36 2.153 1.08.754 1.71.754 2.97-.25 2.26-.754 2.998-1.22 1.11-2.153 1.11zm16.645 3.504c1.08 0 2.052-.183 2.92-.548s1.613-.88 2.235-1.547 1.097-1.47 1.426-2.41.494-1.976.494-3.107-.174-2.163-.52-3.094-.832-1.725-1.453-2.382-1.366-1.168-2.235-1.533-1.824-.548-2.866-.548c-1.024 0-1.97.183-2.838.548a6.65 6.65 0 0 0-2.249 1.533c-.63.657-1.124 1.45-1.48 2.382s-.535 1.962-.535 3.094.174 2.167.52 3.107.832 1.743 1.453 2.41 1.366 1.182 2.235 1.547 1.833.548 2.893.548zm0-3.504c-.932 0-1.654-.37-2.166-1.11s-.768-1.74-.768-2.998.256-2.25.768-2.97 1.234-1.08 2.166-1.08 1.65.36 2.153 1.08.754 1.71.754 2.97-.25 2.26-.754 2.998-1.22 1.11-2.153 1.11zm14.314 3.12V67.37c.457.365.92.812 1.385 1.342l1.33 1.656 1.193 1.725 1 1.574h4.69l-1.152-2-1.508-2.2-1.7-2.122c-.585-.684-1.152-1.273-1.7-1.766l3.03-3.135 2.838-3.2H67.23l-.92 1.095-1.138 1.328-1.248 1.4-1.248 1.37V52.422l-4.086.657v20.59h4.086zM76.5 57.515a2.5 2.5 0 0 0 1.714-.643c.484-.43.727-1.018.727-1.766s-.242-1.337-.727-1.766a2.5 2.5 0 0 0-1.714-.643 2.5 2.5 0 0 0-1.714.643c-.484.43-.727 1.018-.727 1.766s.242 1.337.727 1.766a2.5 2.5 0 0 0 1.714.643zm2.057 16.153v-14.4H74.47v14.4h4.086zm7.925 0V62.552l.877-.096.932-.04c.95 0 1.6.274 1.947.82s.52 1.478.52 2.793h0v7.64h4.086v-8.13c0-.986-.1-1.88-.302-2.683s-.54-1.497-1.015-2.08-1.12-1.036-1.933-1.355-1.833-.48-3.057-.48c-1.207 0-2.358.087-3.455.26l-2.687.56v13.908h4.086zm17.166 5.147c2.504 0 4.355-.57 5.553-1.71s1.796-2.888 1.796-5.243h0v-12.1l-1.248-.315-1.467-.26-1.55-.178-1.522-.068c-1.152 0-2.185.17-3.1.507s-1.686.817-2.317 1.437-1.11 1.364-1.44 2.23-.494 1.83-.494 2.888c0 2.117.53 3.765 1.6 4.942s2.587 1.766 4.58 1.766a7.23 7.23 0 0 0 1.522-.151c.466-.1.92-.25 1.357-.452h0v.52c0 .803-.242 1.46-.727 1.97s-1.312.767-2.482.767c-.896 0-1.696-.073-2.4-.22a11.99 11.99 0 0 1-2.015-.602h0l-.713 3.422c.75.256 1.563.46 2.44.616a15.09 15.09 0 0 0 2.632.233zm1.152-9.39c-1.846 0-2.77-1.14-2.77-3.422 0-1.095.265-2 .795-2.7s1.334-1.068 2.413-1.068l.96.04.713.096v6.516c-.256.146-.567.274-.932.383a4.09 4.09 0 0 1-1.179.164zm-92.903 9.87a2.5 2.5 0 0 0 1.714-.643c.484-.43.727-1.018.727-1.766s-.242-1.337-.727-1.766a2.5 2.5 0 0 0-1.714-.643 2.5 2.5 0 0 0-1.714.643c-.484.43-.727 1.018-.727 1.766s.242 1.337.727 1.766a2.5 2.5 0 0 0 1.714.643zm2.057 16.153v-14.4H9.866v14.4h4.086zm7.925 0V84.33l.877-.096.932-.04c.95 0 1.6.274 1.947.82s.52 1.478.52 2.793h0v7.64h4.086v-8.13c0-.986-.1-1.88-.302-2.683s-.54-1.497-1.015-2.08-1.12-1.036-1.933-1.355-1.833-.48-3.057-.48c-1.207 0-2.358.087-3.455.26l-2.687.56v13.908h4.086zm17.632.33c.877 0 1.618-.073 2.22-.22s1.152-.32 1.645-.52h0L42.8 91.86c-.384.146-.81.26-1.275.342a7.82 7.82 0 0 1-1.357.123c-.914 0-1.522-.256-1.824-.767s-.452-1.196-.452-2.053h0V84.44H42.8v-3.395H37.9v-4.244l-4.086.657v12.1c0 .93.087 1.78.26 2.546s.48 1.42.92 1.958 1.024.958 1.755 1.26 1.654.452 2.77.452zm12.477.055c1.08 0 2.052-.183 2.92-.548s1.613-.88 2.235-1.547 1.097-1.47 1.426-2.41.494-1.976.494-3.107-.174-2.163-.52-3.094-.832-1.725-1.453-2.382-1.366-1.168-2.235-1.533-1.824-.548-2.866-.548c-1.024 0-1.97.183-2.838.548a6.65 6.65 0 0 0-2.249 1.533c-.63.657-1.124 1.45-1.48 2.382s-.535 1.962-.535 3.094.174 2.167.52 3.107.832 1.743 1.453 2.41 1.366 1.182 2.235 1.547 1.833.548 2.893.548zm0-3.504c-.932 0-1.654-.37-2.166-1.11s-.768-1.74-.768-2.998.256-2.25.768-2.97 1.234-1.08 2.166-1.08 1.65.36 2.153 1.08.754 1.71.754 2.97-.25 2.26-.754 2.998-1.22 1.11-2.153 1.11zm22.376 3.45c.877 0 1.618-.073 2.22-.22s1.152-.32 1.645-.52h0l-.576-3.176c-.384.146-.81.26-1.275.342a7.82 7.82 0 0 1-1.357.123c-.914 0-1.522-.256-1.824-.767s-.452-1.196-.452-2.053h0V84.44h4.908v-3.395h-4.908v-4.244l-4.086.657v12.1c0 .93.087 1.78.26 2.546s.48 1.42.92 1.958 1.024.958 1.755 1.26 1.654.452 2.77.452zm10.694-.33v-10.95l.864-.205a5.25 5.25 0 0 1 1.028-.096c.914 0 1.54.274 1.878.82s.507 1.478.507 2.793h0v7.64h4.086v-8.13c0-.986-.096-1.88-.288-2.683s-.52-1.497-.987-2.08-1.088-1.036-1.865-1.355-1.75-.48-2.92-.48a6.64 6.64 0 0 0-1.248.123 8.48 8.48 0 0 0-1.056.26h0v-6.9l-4.086.657v20.59h4.086zm19.003.383c.512 0 1.024-.027 1.536-.082l1.44-.205c.448-.082.855-.178 1.22-.287s.658-.22.877-.33h0l-.548-3.313c-.457.2-1.047.37-1.77.507s-1.458.205-2.207.205c-1.17 0-2.102-.246-2.797-.74s-1.088-1.16-1.18-2h9.268l.055-.753.027-.78c0-2.428-.594-4.266-1.782-5.517s-2.806-1.875-4.854-1.875a6.92 6.92 0 0 0-2.564.493c-.832.33-1.568.812-2.207 1.45s-1.156 1.437-1.55 2.396-.6 2.076-.6 3.354c0 1.06.15 2.044.452 2.957s.768 1.702 1.398 2.368 1.426 1.19 2.386 1.574 2.09.575 3.387.575zm1.974-9.035h-5.402a5.83 5.83 0 0 1 .261-1.027c.12-.338.288-.634.507-.9s.494-.46.823-.616.722-.233 1.18-.233c.475 0 .873.082 1.193.246a2.48 2.48 0 0 1 .795.63 2.53 2.53 0 0 1 .466.876c.1.33.16.666.178 1.013h0zm-91.614 30.43v-7.83h7.513v-3.587h-7.513v-3.97h8.446v-3.587H10.14v18.973h4.278zm16.81.33c1.207 0 2.358-.087 3.455-.26l2.687-.56v-13.908h-4.086v11.116l-.877.096-.932.04c-.95 0-1.6-.292-1.947-.876s-.52-1.533-.52-2.847h0v-7.53H24.92v8.022c0 .986.1 1.89.302 2.7s.54 1.53 1.015 2.122 1.12 1.054 1.933 1.383 1.833.493 3.057.493zm15.548 0c.877 0 1.618-.073 2.22-.22s1.152-.32 1.645-.52h0l-.576-3.176c-.384.146-.81.26-1.275.342a7.82 7.82 0 0 1-1.357.123c-.914 0-1.522-.256-1.824-.767s-.452-1.196-.452-2.053h0v-5.065h4.908v-3.395h-4.908V98.58l-4.086.657v12.1c0 .93.087 1.78.26 2.546s.48 1.42.92 1.958 1.024.958 1.755 1.26 1.654.452 2.77.452zm12.778 0c1.207 0 2.358-.087 3.455-.26l2.687-.56v-13.908H61.6v11.116l-.877.096-.932.04c-.95 0-1.6-.292-1.947-.876s-.52-1.533-.52-2.847h0v-7.53h-4.086v8.022c0 .986.1 1.89.302 2.7s.54 1.53 1.015 2.122 1.12 1.054 1.933 1.383 1.833.493 3.057.493zm14.067-.33V106.22c.183-.055.452-.105.81-.15a7.39 7.39 0 0 1 .919-.068c.567 0 1.097.05 1.6.15l1.29.287.686-3.368c-.22-.09-.484-.17-.795-.233l-.932-.164-.932-.1-.795-.04c-1.225 0-2.335.114-3.332.342l-2.59.726v13.635h4.086zm14.15.383c.512 0 1.024-.027 1.536-.082l1.44-.205c.448-.082.855-.178 1.22-.287s.658-.22.877-.33h0l-.548-3.313c-.457.2-1.047.37-1.77.507s-1.458.205-2.207.205c-1.17 0-2.102-.246-2.797-.74s-1.088-1.16-1.18-2H93.6l.055-.753.027-.78c0-2.428-.594-4.266-1.782-5.517s-2.806-1.875-4.854-1.875a6.92 6.92 0 0 0-2.564.493c-.832.33-1.568.812-2.207 1.45s-1.156 1.437-1.55 2.396-.6 2.076-.6 3.354c0 1.06.15 2.044.452 2.957s.768 1.702 1.398 2.368 1.426 1.19 2.386 1.574 2.09.575 3.387.575zm1.974-9.035h-5.402a5.83 5.83 0 0 1 .261-1.027c.12-.338.288-.634.507-.9s.494-.46.823-.616.722-.233 1.18-.233c.475 0 .873.082 1.193.246a2.48 2.48 0 0 1 .795.63 2.53 2.53 0 0 1 .466.876c.1.33.16.666.178 1.013h0z"/><path d="M19.613 46.912v-1.383h-7.948v-.05a2.75 2.75 0 0 1 .28-1.177 6.7 6.7 0 0 1 .753-1.213 14.55 14.55 0 0 1 1.069-1.238l1.227-1.226 1.483-1.456c.486-.485.92-.987 1.3-1.505s.685-1.056.91-1.614a4.69 4.69 0 0 0 .34-1.784c0-1.424-.413-2.536-1.24-3.337s-2.058-1.2-3.694-1.2c-.616 0-1.175.077-1.677.23s-.944.336-1.325.546-.697.425-.948.643l-.523.497.826 1.092c.097-.097.25-.235.462-.413s.466-.352.766-.522a5.61 5.61 0 0 1 1.057-.449c.405-.13.867-.194 1.385-.194.924 0 1.69.247 2.297.74s.91 1.306.91 2.44c0 .518-.08.995-.243 1.432s-.38.85-.656 1.238-.595.764-.96 1.128l-1.154 1.128-1.52 1.456c-.527.502-1.005 1.043-1.434 1.626a8.99 8.99 0 0 0-1.057 1.856c-.275.655-.413 1.363-.413 2.123l.012.4.012.182h9.698zm8.896.364c1.718 0 3.05-.752 3.998-2.257s1.422-3.672 1.422-6.504c0-2.847-.474-5.023-1.422-6.528s-2.28-2.257-3.998-2.257c-1.734 0-3.07.752-4 2.257s-1.4 3.68-1.4 6.528c0 2.83.474 5 1.422 6.504s2.28 2.257 3.998 2.257zm0-1.432c-.713 0-1.304-.202-1.774-.607s-.847-.942-1.13-1.614-.486-1.448-.608-2.33a20.35 20.35 0 0 1-.182-2.779 20.35 20.35 0 0 1 .182-2.779c.122-.882.324-1.662.608-2.342s.66-1.22 1.13-1.626 1.06-.607 1.774-.607c.697 0 1.28.202 1.75.607s.85.946 1.142 1.626.498 1.46.62 2.342a20.35 20.35 0 0 1 .182 2.779 20.35 20.35 0 0 1-.182 2.779c-.122.882-.328 1.658-.62 2.33s-.672 1.21-1.142 1.614-1.053.607-1.75.607zm18.52 1.068v-1.383H39.08v-.05a2.75 2.75 0 0 1 .28-1.177 6.7 6.7 0 0 1 .753-1.213 14.55 14.55 0 0 1 1.069-1.238l1.227-1.226 1.483-1.456c.486-.485.92-.987 1.3-1.505s.685-1.056.91-1.614a4.69 4.69 0 0 0 .34-1.784c0-1.424-.413-2.536-1.24-3.337s-2.058-1.2-3.694-1.2c-.616 0-1.175.077-1.677.23s-.944.336-1.325.546-.697.425-.948.643l-.523.497.826 1.092c.097-.097.25-.235.462-.413s.466-.352.766-.522a5.61 5.61 0 0 1 1.057-.449c.405-.13.867-.194 1.385-.194.924 0 1.69.247 2.297.74s.91 1.306.91 2.44c0 .518-.08.995-.243 1.432s-.38.85-.656 1.238-.595.764-.96 1.128l-1.154 1.128-1.52 1.456c-.527.502-1.005 1.043-1.434 1.626a8.99 8.99 0 0 0-1.057 1.856c-.275.655-.413 1.363-.413 2.123l.012.4.012.182h9.698zm10.62 0V30.094h-1.118c-.745.906-1.5 1.622-2.26 2.148a10.85 10.85 0 0 1-2.601 1.298h0l.462 1.213c.39-.113.778-.263 1.167-.45l1.118-.582c.356-.202.676-.41.96-.62s.514-.413.693-.607h0v14.415h1.58z"/></g><g class="D C F"><path d="M20.256 28.525v-.876h-4.878v-.03c0-.246.057-.494.172-.745s.27-.507.462-.768a9.14 9.14 0 0 1 .656-.784l.753-.776.9-.922a8.22 8.22 0 0 0 .798-.953 4.77 4.77 0 0 0 .559-1.022c.14-.353.21-.73.21-1.13 0-.9-.254-1.606-.76-2.113s-1.263-.76-2.267-.76a3.41 3.41 0 0 0-1.029.146c-.308.097-.58.213-.813.346a3.37 3.37 0 0 0-.582.407l-.32.315.507.69a5.06 5.06 0 0 1 .283-.261c.13-.113.286-.223.47-.33s.4-.202.65-.284.532-.123.85-.123c.567 0 1.037.156 1.4.47s.56.827.56 1.544a2.66 2.66 0 0 1-.149.906 3.42 3.42 0 0 1-.403.784 5.51 5.51 0 0 1-.589.714l-.71.714-.932.922a7.79 7.79 0 0 0-.88 1.029c-.264.37-.48.76-.65 1.175s-.254.863-.254 1.344l.007.254.007.115h5.952zm5.323 0V17.878h-.686c-.457.574-.92 1.027-1.387 1.36a6.58 6.58 0 0 1-1.596.822h0l.283.768c.24-.072.477-.166.716-.284l.686-.37c.22-.128.415-.26.59-.392s.316-.26.425-.384h0v9.126h.97z"/><path d="M16.04 15.1l.072-1.627.11-1.437.133.254.208.418.245.51.25.53.22.474.152.35h.325l.152-.35.22-.474.25-.53.245-.51.208-.418.133-.254.11 1.437.072 1.627h.368l-.11-1.916-.152-1.752h-.304l-.34.61-.36.72-.347.736-.296.654-.296-.654-.347-.736-.36-.72-.34-.61h-.32l-.152 1.752-.11 1.916h.357zm5.134.058l.333-.013.296-.034.235-.04.155-.034V13.3a1.45 1.45 0 0 0-.053-.402.83.83 0 0 0-.171-.32.79.79 0 0 0-.307-.212 1.23 1.23 0 0 0-.461-.077 2.41 2.41 0 0 0-.456.037c-.126.025-.22.05-.28.08h0l.048.302a2.87 2.87 0 0 1 .219-.069 1.79 1.79 0 0 1 .453-.042c.142 0 .257.022.344.066s.155.102.203.175.08.153.093.243.02.183.02.278h0v.17a.41.41 0 0 0-.077-.024l-.133-.026-.16-.02-.157-.008c-.167 0-.322.016-.464.048a1.08 1.08 0 0 0-.368.151c-.103.07-.183.156-.24.262s-.085.233-.085.38c0 .155.026.287.077.394s.123.196.213.265.197.12.32.15.257.048.403.048zm.06-.307c-.1 0-.21-.01-.296-.03a.64.64 0 0 1-.224-.093.42.42 0 0 1-.144-.169c-.034-.07-.05-.157-.05-.26 0-.116.025-.2.075-.28a.53.53 0 0 1 .192-.167c.078-.04.164-.067.256-.08s.18-.02.267-.02c.15 0 .267.01.352.03a1.07 1.07 0 0 1 .187.056h0v.963a2.44 2.44 0 0 1-.259.034l-.355.013zm1.77 1.244c.156 0 .292-.018.408-.053s.217-.1.304-.164a1.19 1.19 0 0 0 .237-.283 3.04 3.04 0 0 0 .208-.41c.17-.402.33-.845.475-1.328l.39-1.492h-.347l-.152.65-.15.6-.168.58-.208.62-.3-.646-.253-.64-.205-.606-.15-.548h-.368l.203.7.26.714.304.706.34.672a1.91 1.91 0 0 1-.152.307.8.8 0 0 1-.173.198.58.58 0 0 1-.216.108c-.08.02-.17.032-.27.032a.72.72 0 0 1-.205-.029c-.066-.02-.106-.034-.12-.045h0l-.07.286c.018.01.063.026.136.048a.87.87 0 0 0 .243.032z"/></g><g opacity=".92" style="mix-blend-mode:luminosity" class="F"><g transform="translate(137.222 27)"><g transform="translate(59.205)"><path d="M59.794 29.803V.034H30.087l.003.35c.26 16.13 13.26 29.155 29.355 29.416l.35.003z" fill="#2ac2ff"/><path d="M59.794 30.483v29.77H30.087l.003-.35c.26-16.13 13.26-29.155 29.355-29.416l.35-.003z" fill="#00173a"/><path d="M30.087 60.252v-29.77H.38l.003.35c.26 16.13 13.26 29.155 29.355 29.416l.35.003z" class="L"/><ellipse fill="#005b11" cx="15.233" cy="14.918" rx="14.854" ry="14.885"/><ellipse fill="#ff0034" cx="15.233" cy="75.242" rx="14.854" ry="14.885"/></g><path d="M30.537 90.225V60.357H0l.003.35C.27 76.89 13.633 89.96 30.178 90.222l.36.003z" fill="#005b11"/><path d="M30.537 0v29.868H0l.003-.35C.27 13.334 13.633.265 30.178.003l.36-.003z" class="D"/><path d="M30.537 29.868V0h30.537l-.003.35c-.268 16.182-13.63 29.25-30.176 29.513l-.36.003z" fill="#00173a"/><path d="M30.537 30.5v29.868H0l.003-.35c.268-16.182 13.63-29.25 30.176-29.513l.36-.003z" fill="#ff0034"/><path d="M45.183 60.357c8.088 0 14.645 6.686 14.645 14.934S53.27 90.225 45.183 90.225 30.537 83.54 30.537 75.29s6.557-14.934 14.645-14.934z" fill="#ff7800"/></g></g><path stroke="#f4f2ee" d="M-3 165.273h275.557" class="B E F"/></g><rect stroke="#0064ff" stroke-width=".5" x="8" y="7" width="25" height="26" rx="3" class="B"/></g></g></g><path d="M93.3 13.5c0 7.456 6.044 13.5 13.5 13.5H204c7.456 0 13.5-6.044 13.5-13.5h0H93.3z" class="K"/></g></g></svg>