<svg xmlns="http://www.w3.org/2000/svg" xmlns:xlink="http://www.w3.org/1999/xlink" width="829" height="773" xmlns:v="https://vecta.io/nano"><style><![CDATA[.B{stroke-width:.6}.C{stroke-linejoin:round}.D{stroke-linecap:round}.E{fill:#f4f2ee}.F{fill-rule:nonzero}.G{fill:#fff}.H{fill:#f2f4f6}.I{stroke:#001d75}.J{fill:#ff9d00}.K{stroke:#212121}.L{fill:#06f}.M{fill:#42be65}.N{fill:#00c15a}.O{fill:#001d75}.P{fill:#0d62fe}.Q{fill:#ff8100}.R{fill:#001d71}.S{fill:#0064ff}.T{fill:#212121}.U{fill:#ff0025}.V{fill:#ff5fa7}.W{stroke:#ffc200}.X{stroke:#f4f2ee}.Y{fill:#ff0034}]]></style><defs><filter x="-32.7%" y="-53.2%" width="165.5%" height="205.9%" id="A"><feOffset dy="24" in="SourceAlpha"/><feGaussianBlur stdDeviation="16"/><feColorMatrix values="0 0 0 0 0.3515625 0 0 0 0 0.3515625 0 0 0 0 0.3515625 0 0 0 0.1 0" result="C"/><feMerge><feMergeNode in="C"/><feMergeNode in="SourceGraphic"/></feMerge></filter><path d="M66 .16c-36.45 0-66 29.55-66 66s29.55 66 66 66 66-29.55 66-66-29.55-66-66-66zm-.917 23.833c22.782 0 41.25 18.468 41.25 41.25s-18.468 41.25-41.25 41.25-41.25-18.468-41.25-41.25 18.468-41.25 41.25-41.25z" id="B"/><filter x="-23.1%" y="-21.8%" width="146.2%" height="144.0%" id="C"><feOffset dy="1" in="SourceAlpha"/><feGaussianBlur stdDeviation="1"/><feColorMatrix values="0 0 0 0 0 0 0 0 0 0 0 0 0 0 0 0 0 0 0.3 0" result="C"/><feMerge><feMergeNode in="C"/><feMergeNode in="SourceGraphic"/></feMerge></filter><filter x="-3.5%" y="-5.6%" width="106.9%" height="111.3%" id="D"><feOffset dy="1" in="SourceAlpha"/><feGaussianBlur stdDeviation="2"/><feColorMatrix values="0 0 0 0 0 0 0 0 0 0.160784314 0 0 0 0 0.349019608 0 0 0 0.1 0" result="C"/><feMerge><feMergeNode in="C"/><feMergeNode in="SourceGraphic"/></feMerge></filter><filter x="-2.7%" y="-1.6%" width="105.4%" height="103.3%" id="E"><feOffset dy="1" in="SourceAlpha"/><feGaussianBlur stdDeviation="2"/><feColorMatrix values="0 0 0 0 0 0 0 0 0 0.160784314 0 0 0 0 0.349019608 0 0 0 0.1 0" result="C"/><feMerge><feMergeNode in="C"/><feMergeNode in="SourceGraphic"/></feMerge></filter><filter x="-3.5%" y="-5.6%" width="106.9%" height="110.7%" id="F"><feOffset dy="1" in="SourceAlpha"/><feGaussianBlur stdDeviation="2"/><feColorMatrix values="0 0 0 0 0 0 0 0 0 0.160784314 0 0 0 0 0.349019608 0 0 0 0.1 0" result="C"/><feMerge><feMergeNode in="C"/><feMergeNode in="SourceGraphic"/></feMerge></filter><path id="G" d="M29.632 15.385H27.79V7.692h1.842c2.032 0 3.684 1.723 3.684 3.846s-1.652 3.846-3.684 3.846m0-11.538H27.79V1.923C27.79.862 26.964 0 25.947 0H3.842C2.825 0 2 .862 2 1.923v15.385A13.76 13.76 0 0 0 4.33 25h21.105c1.13-1.687 1.914-3.642 2.207-5.77h1.99c4.064 0 7.368-3.45 7.368-7.692s-3.305-7.692-7.368-7.692"/><path id="H" d="M10.5 10.5c0 1.3-.71 2.406-1.75 3.014V0h-3.5v13.514C4.21 12.906 3.5 11.8 3.5 10.5V0H0v10.5c0 3.252 2.24 5.97 5.25 6.752V35h3.5V17.252c3-.782 5.25-3.5 5.25-6.75V0h-3.5v10.5z"/><path id="I" d="M25 0a7.01 7.01 0 0 0-7 7v3.5c0 3.252 2.24 5.97 5.25 6.752V35h3.5V17.252c3-.782 5.25-3.5 5.25-6.75V7a7.01 7.01 0 0 0-7-7"/><path id="J" d="M77.09 15.83l-.001 68.177 26.647 63.58c25.315-10.33 43.106-34.76 43.106-63.25 0-37.46-30.757-67.897-68.933-68.502l-.818-.007z"/><path id="K" d="M145.433 19.26h58.445c2.252 0 4.078 1.848 4.078 4.127s-1.826 4.127-4.078 4.127h-58.445c-2.252 0-4.078-1.848-4.078-4.127s1.826-4.127 4.078-4.127z"/><path id="L" d="M297.435 19.26h14.498c2.252 0 4.078 1.848 4.078 4.127s-1.826 4.127-4.078 4.127h-14.498c-2.252 0-4.078-1.848-4.078-4.127s1.826-4.127 4.078-4.127z"/><path id="M" d="M58.445 19.26h69.998c2.252 0 4.078 1.848 4.078 4.127s-1.826 4.127-4.078 4.127H58.445c-2.252 0-4.078-1.848-4.078-4.127s1.826-4.127 4.078-4.127z"/><path id="N" d="M232.42 19.26h43.947c2.252 0 4.078 1.848 4.078 4.127s-1.826 4.127-4.078 4.127H232.42c-2.252 0-4.078-1.848-4.078-4.127s1.826-4.127 4.078-4.127z"/><path id="O" d="M145.433 18.26h53.688c2.252 0 4.078 1.848 4.078 4.127s-1.826 4.127-4.078 4.127h-53.688c-2.252 0-4.078-1.848-4.078-4.127s1.826-4.127 4.078-4.127z"/><path id="P" d="M13.56 0C6.072 0 0 6.074 0 13.566s6.072 13.566 13.56 13.566 13.56-6.074 13.56-13.566S21.05 0 13.56 0z"/><path id="Q" d="M13.56 296C6.072 296 0 302.074 0 309.566s6.072 13.566 13.56 13.566 13.56-6.074 13.56-13.566S21.05 296 13.56 296z"/><path id="R" d="M17.56.001c.312 0-.057 2.786-.253 3.345-.25.71-.835.556-1.468.556a4.64 4.64 0 0 1-.527-.024c-.262-.32-.604-.676-.974-1l-.282-.235.07.41-.1-.143c-.384.97-1.156 1.243-2.094 1.243-2.168 0-3.033-1.652-2.686-4.154h8.305zm-4.307 1.13h-2.93l-.001.014c-.037.6.03 1.067.192 1.4l.097.17c.256.377.7.574 1.43.574.49 0 .828-.315 1.043-1.09l.058-.234.04-.238.04-.32.028-.277zm3.48 0h-2.17c.308 1.263.715 1.812 1.47 1.894l.212.01c.03 0 .047-.007.075-.034.06-.058.127-.172.19-.347.1-.285.17-.684.205-1.194l.018-.33z"/><path id="S" d="M14.39 3.252c1.018.804 1.92 1.975 1.766 2.168-.202.253-.935.305-1.114.202-.144-.082-.08.03-.08.972"/><path id="T" d="M17.63 8.098c-.095 1.014-.384 1.99-1.067 2.782"/><path id="U" d="M18.02 9.187c-.843 1.13-.945 1.476-2.205 1.773"/><path id="V" d="M145.433 267.035h58.445a4.08 4.08 0 0 1 4.078 4.079 4.08 4.08 0 0 1-4.078 4.079h-58.445a4.08 4.08 0 0 1-4.078-4.079 4.08 4.08 0 0 1 4.078-4.079z"/><path id="W" d="M297.435 267.035h14.498a4.08 4.08 0 0 1 4.078 4.079 4.08 4.08 0 0 1-4.078 4.079h-14.498a4.08 4.08 0 0 1-4.078-4.079 4.08 4.08 0 0 1 4.078-4.079z"/><path id="X" d="M58.445 267.035h69.998a4.08 4.08 0 0 1 4.078 4.079 4.08 4.08 0 0 1-4.078 4.079H58.445a4.08 4.08 0 0 1-4.078-4.079 4.08 4.08 0 0 1 4.078-4.079z"/><path id="Y" d="M232.42 267.035h43.947a4.08 4.08 0 0 1 4.078 4.079 4.08 4.08 0 0 1-4.078 4.079H232.42a4.08 4.08 0 0 1-4.078-4.079 4.08 4.08 0 0 1 4.078-4.079z"/><path id="Z" d="M145.433 366.292h53.688a4.08 4.08 0 0 1 4.078 4.079 4.08 4.08 0 0 1-4.078 4.079h-53.688a4.08 4.08 0 0 1-4.078-4.079 4.08 4.08 0 0 1 4.078-4.079z"/><path id="a" d="M360.5 321a1.5 1.5 0 1 1 0-3 1.5 1.5 0 1 1 0 3m5.298-5.848c-.08-.483-.46-.862-.943-.942-1.947-.335-8.02-.698-11.334 2.616-3.835 3.833-4.683 7.683-4.873 9.255l-4.014 2.006c-.33.166-.56.48-.62.844s.06.735.32.995l5.74 5.74c.25.25.61.382.995.32a1.15 1.15 0 0 0 .844-.62l2.007-4.013c1.573-.19 5.424-1.038 9.258-4.87 3.82-3.816 2.668-11.024 2.617-11.33"/><path id="b" d="M58.445 316.664h31.26a4.08 4.08 0 0 1 4.078 4.079 4.08 4.08 0 0 1-4.078 4.079h-31.26a4.08 4.08 0 0 1-4.078-4.079 4.08 4.08 0 0 1 4.078-4.079z"/><path id="c" d="M17.42 10.088c3.122 1.948 5.315 6 6.58 12.125a13.53 13.53 0 0 1-10.499 4.98c-4.303 0-8.14-2.005-10.623-5.133.228-1.544.538-2.906.928-4.088.42-1.277 1.757-3.468 4.008-6.572l.687-.938c3.206.172 6.007.05 8.372-.3l.55-.084z"/><path id="d" d="M13.475 19.16c.254 1.1.414 1.79 1.043 2.676.015.02-.05.013-.076.02"/><path id="e" d="M15.685 21.496c-1.26-.75-.503-.185-1.916-2.088"/><path id="f" d="M18.284 20.955c-1.713-.116-3.478-.738-4.78-1.88"/><path id="g" d="M8.882 22.02c1.052-.837 2.604-1.765 2.878-3.23"/><path id="h" d="M9.927 10.865c-.072.654-.072 1.063 0 1.228.458 1.044 1.175.696 1.473-.43"/><path id="i" d="M11.89 10.13c-1.39 6.016-1.29 9.024.307 9.024s2.148-1.064 1.657-3.192l-.245-5.463c.736 2.578 1.432 2.7 2.086.368"/><path id="j" d="M6.982 15.88c-.354-.183-.56-.346-.614-.49-.29-.77.297-1.19 1.35-.614.04-.9.39-1.453 1.043-1.657s.777.348.368 1.657c.65-.097 1.06-.097 1.227 0 .56.324.3 1.116-.86 1.596.573.49.655 1.003.245 1.535s-.9.286-1.473-.737c-.818.982-1.452 1.228-1.902.737s-.245-1.166.614-2.026z"/><path id="k" d="M19.038 14.762c.337-.247.522-.45.555-.608.176-.844-.502-1.18-1.5-.413-.2-.924-.64-1.438-1.352-1.542s-.748.487-.1 1.774c-.69.007-1.115.074-1.272.2-.526.427-.128 1.202 1.15 1.51-.513.602-.514 1.144-.003 1.627s.98.148 1.405-1.003c1.01.88 1.706 1.03 2.092.45s.063-1.246-.967-1.993z"/><path id="l" d="M7.272 1.62c.033.523-.476.656-.617.175-.108-.367.48-.402.663-.175"/><path id="m" d="M353 229.63l-1.39 1.39c-.2.2-.315.475-.315.76v2.148c0 .592-.482 1.074-1.074 1.074-.46 0-.847-.294-1-.705l.684-.684-1.52-1.52-.684.684c-.41-.15-.705-.538-.705-1 0-.592.482-1.074 1.074-1.074h2.148a1.07 1.07 0 0 0 .759-.315l1.39-1.39.63.63zm10.97-11.698a6.79 6.79 0 0 0-9.49 0c-2.908 2.776-4.2 6.198-3.596 8.818l-1.713 1.636h-1.79c-1.865 0-3.384 1.45-3.384 3.23 0 1.456 1.013 2.69 2.4 3.092.422 1.326 1.713 2.293 3.238 2.293 1.865 0 3.384-1.45 3.384-3.23v-1.708l1.715-1.637c3.26.698 6.852-1.16 9.233-3.432 2.706-2.582 2.706-6.48 0-9.06h0z"/><path id="n" d="M13.47 0C6.03 0 0 6.03 0 13.47s6.03 13.47 13.47 13.47 13.47-6.03 13.47-13.47S20.91 0 13.47 0z"/><path id="o" d="M7.223 1.608c.033.52-.473.65-.613.173-.107-.365.475-.4.66-.173"/><path id="p" d="M26.22 215.7c-2.983 0-5.65.8-7.64 2.046-.806.51-1.446 1.068-1.816 1.578-.222.307-.358.606-.374.92a1.02 1.02 0 0 0 .835 1.073l.045.01c.34.064.84.09 2.006.12l1.058.028 2.547.112.16.01.14.01c1.205.1 2.215.224 3.017.41l.056.013v4.667c.108 1.1 1.29 1.648 3.55 1.648s4.83-.637 7.714-1.91l-.4-3.46.028-.007c.412-.1.76-.264 1.046-.47.542-.39.835-.956.835-1.62 0-.765-.43-1.34-1.163-1.533l-.03-.007c-.314-.077-.676-.086-1.094-.03l-.048.006-.075-.644-.263-.21c-2.333-1.852-5.718-2.76-10.138-2.76z"/><path id="q" d="M24.74 214.182c1.084-.993 1.64.326 1.525 1.178-.14 1.028-.977 1.822-1.765 2.385-.01.008-.7.472-.9.293-.487-.43-.294-1.4-.1-1.98a5.38 5.38 0 0 1 1.232-1.875z"/><path id="r" d="M26.174 216.335c.18-.55.3-1.244.79-1.635 1.053-.84 2.07-.564 1.78.885-.16.792-.82 1.73-1.397 2.28-.75.716-1.404-.263-1.292-.975.055-.346.185-.675.278-1.013"/><path id="s" d="M29.84 215.637c.247 1.447.385 2.554 1.352 3.698 1.417 1.676 4.566.974 5.88-.465"/><path id="t" d="M31.048 215.825c-.263 1.923-.103 4.098 2.328 4.426.168.023 1.3.083 1.705-.06 1.005-.347 1.047-.556 2.005-1.335"/><path id="u" d="M32.617 216.05c.2 1.08.3 2.175 1.022 3.06.956 1.173 2.906.933 3.718-.2"/><path id="v" d="M33.173 216.245c.545 1.376 1.576 3.685 3.447 2.918"/><path id="w" d="M33.842 216.387c.453.715 1.388 2.534 2.32 2.723.363.074.74-.01 1.112-.015"/><path id="x" d="M25.88 222.516c.916-.322 1.654.34 2.59.172.453-.082 1.006-.575 1.337-.825"/><path id="y" d="M24.514 226.076l3.865 2.14 6.065-2.14-.357 4.52-5.708-1.724-4.876 1.724z"/><path id="z" d="M11 .163L2 10l18-4.92s-2.25-6.148-9-4.92"/></defs><g transform="translate(81 81)" fill="none" fill-rule="evenodd"><path d="M13 41h323a5 5 0 0 1 5 5v194a5 5 0 0 1-5 5H13a5 5 0 0 1-5-5V46a5 5 0 0 1 5-5z" stroke="#0d62fe" stroke-dasharray="4"/><g filter="url(#A)"><path d="M0 .164h333v204H0z" class="G X"/><g transform="translate(259 118)" class="Q"><use xlink:href="#G"/><path d="M0 31h29v-5H0z"/></g><g transform="translate(150 90)" class="E"><use xlink:href="#G"/><path d="M0 31h29v-5H0z"/></g><g transform="translate(254 66)" class="M"><path d="M6.64 12.196V6.05C6.64 4.918 5.65 4 4.428 4H0v4.098h2.214v4.098c0 2.71 1.915 4.987 4.547 5.804a13.17 13.17 0 0 1-.12-1.707A13.35 13.35 0 0 1 7 13.245c-.208-.31-.36-.658-.36-1.05"/><path d="M42 14.538c0-9.373-5.944-10.385-8.5-10.385-2.138 0-4.142.777-5.68 2.133-1.464-.964-3.136-1.64-4.945-1.94V0h-4.25v4.347c-3.8.63-7.032 2.89-8.9 6.038h22.05c-.25-.42-.53-.822-.827-1.21.727-.54 1.604-.868 2.552-.868 1.162 0 4.25 0 4.25 6.23 0 3.066-2.44 4.688-4.76 5.5.323-1.1.5-2.243.5-3.423a12.11 12.11 0 0 0-.744-4.154H8.744A12.11 12.11 0 0 0 8 16.615c0 3.946 1.883 7.583 5.164 9.973.368.268.812.41 1.27.41h12.635c.457 0 .9-.143 1.27-.41a13.09 13.09 0 0 0 1.891-1.703C35.415 24.522 42 21.27 42 14.538"/></g><rect x="11.763" y="17.897" width="77.652" height="8.099" rx="3.159" class="R"/><rect x="13.113" y="35.444" width="77.652" height="8.099" rx="3.159" class="H"/><g transform="translate(100 39)"><mask id="AA" class="G"><use xlink:href="#B"/></mask><use fill="#0202d0" xlink:href="#B" class="F"/><g mask="url(#AA)"><g transform="translate(-34 -15.839)"><path d="M98.088 12v69.54H28.335c0-38.207 30.445-68.922 68.927-69.532l.826-.006z" class="P"/><path d="M98.06 82.157v.47l26.525 63.296c-8.408 3.715-17.69 5.774-27.444 5.774C59.505 151.697.608 96.898 0 58.84l98-58 .06 81.318z" class="Q"/><path d="M98.09 13.83l-.001 68.177L49 158.84c16.1-6.567 75.98.545 111-18 20.077-10.632 26-45.62 26-56 0-37.46-48.916-70.398-87.092-71.003l-.818-.007z" class="N"/></g></g></g><rect x="134" y="183" width="66" height="9" rx="3.159" class="S"/></g><g filter="url(#C)" transform="translate(242.55 179.7)" class="F"><path fill="#231d1e" d="M0 12.95h1.85V11.1h3.7v1.85H7.4V1.85h1.85V0h3.7v1.85h1.85V7.4h7.4v1.85h3.7v1.85h1.85v9.25H25.9v3.7h-1.85v5.55h-3.7v-1.85H18.5v1.85H9.25v-3.7H7.4v-1.85H5.55V22.2H3.7v-3.7H1.85v-1.85H0z"/><path d="M1.85 12.95h3.7v1.85H7.4v1.85h1.85V1.85h3.7v11.1h1.85v-3.7h3.7v3.7h1.85v-3.7h1.85v3.7h1.85V11.1h1.85v9.25h-1.85v3.7H22.2v3.7h-1.85V25.9H18.5v1.85h-7.4V25.9H9.25v-1.85H7.4V22.2H5.55v-3.7H3.7v-1.85H1.85z" class="G"/><g fill="#231d1e"><path d="M12.95 16.65h1.85v7.4h-1.85z"/><path d="M16.65 16.65h1.85v7.4h-1.85z"/><path d="M20.35 16.65h1.85v7.4h-1.85z"/></g></g><g filter="url(#D)" transform="translate(8 252)"><path d="M0 0h333v204H0z" class="G X"/><g transform="translate(150 85)" class="E"><use xlink:href="#H"/><use xlink:href="#I"/></g><g transform="translate(256 112)" class="P"><path d="M29.462 18.936C26.89 21.594 24.29 23.294 22 24.39l.576 2.38a1.6 1.6 0 0 0 1.021 1.142A1.5 1.5 0 0 0 24.1 28a1.53 1.53 0 0 0 .98-.355c5.246-4.334 6.098-8.17 5.893-10.645-.44.682-.93 1.335-1.51 1.936"/><path d="M3.283 11.19l3.383.81c1.052-2.754 2.966-6.176 6.492-9.557C13.73 1.894 14.355 1.428 15 1 12.247.974 7.866 2.276 2.394 8.574c-.374.43-.49 1.012-.3 1.543a1.67 1.67 0 0 0 1.199 1.072"/><path d="M23.38 8.628a1.67 1.67 0 0 1-1.67-1.669 1.67 1.67 0 0 1 3.34 0 1.67 1.67 0 0 1-1.67 1.669m8.326-6.953C31.59.972 31.038.42 30.335.304 27.503-.183 18.67-.71 13.85 4.11 8.272 9.685 7.037 15.284 6.762 17.57L.924 20.5a1.67 1.67 0 0 0-.902 1.227 1.66 1.66 0 0 0 .468 1.447l8.35 8.347c.362.362.888.556 1.448.467.53-.085.985-.422 1.227-.9l2.92-5.836c2.288-.275 7.89-1.51 13.467-7.085 5.554-5.55 3.88-16.035 3.806-16.48"/></g><path d="M270 82.05l-2.315 2.315c-.335.335-.525.79-.525 1.266v3.58c0 .986-.804 1.8-1.8 1.8-.768 0-1.412-.49-1.665-1.174l1.14-1.14-2.53-2.53-1.14 1.14c-.682-.252-1.174-.897-1.174-1.665 0-.986.804-1.8 1.8-1.8h3.58c.474 0 .93-.188 1.266-.525L268.95 81l1.05 1.05zm17.772-18.83c-4.294-4.297-10.812-4.286-15.097 0-4.626 4.627-6.684 10.33-5.72 14.696l-2.726 2.726h-2.846A5.39 5.39 0 0 0 256 86.026c0 2.427 1.61 4.482 3.82 5.153.67 2.21 2.726 3.82 5.15 3.82a5.39 5.39 0 0 0 5.383-5.385V86.77l2.73-2.728c5.187 1.163 10.9-1.93 14.688-5.72 4.305-4.304 4.305-10.798 0-15.102h0z" class="M"/><rect x="11.763" y="17.897" width="77.652" height="8.099" rx="3.159" class="R"/><rect x="13.113" y="35.444" width="77.652" height="8.099" rx="3.159" class="H"/><g transform="translate(100 39)"><mask id="AB" class="G"><use xlink:href="#E" href="#B"/></mask><use fill="#0202d0" xlink:href="#E" class="F" href="#B"/><g mask="url(#AB)"><g transform="translate(-13 -17.839)"><path d="M77.088 14v69.54H7.335c0-38.207 30.445-68.922 68.927-69.532l.826-.006z" class="R"/><path d="M77.06 84.157v.47l26.525 63.296c-8.408 3.715-17.69 5.774-27.444 5.774-37.637 0-68.22-30.662-68.828-68.72C-1.515 68.578-2.286 56.532 5 48.84c10.422-11.004 37.755-27.004 82-48l-9.94 83.318z" class="S"/><use xlink:href="#J" class="N"/></g></g></g><rect x="133" y="183" width="66" height="9" rx="3.159" class="S"/></g><g transform="translate(354 39)" filter="url(#E)"><g transform="translate(30 275)"><g transform="translate(0 .48)"/></g><path d="M0 0h386v46.083H0z" class="G"/><g transform="translate(13.592 9.629)"><path d="M13.56 0C6.072 0 0 6.145 0 13.725S6.072 27.45 13.56 27.45s13.56-6.145 13.56-13.725S21.05 0 13.56 0z" class="F L"/><g transform="translate(3.743 8.57)"><g transform="translate(0 .004)"><path d="M13.094 9.235c1.607 0 3.582-.102 5.923-.307l.607-3.018h-2.632l.202-4.4H2.615l-.09 2.44C.842 3.475 0 3.698 0 4.62s.753 1.47 2.26 1.65l.506 2.353c5.277.41 8.72.614 10.327.614z" class="J"/><g transform="translate(10.916 1.105)" class="T"><path d="M.104.35C.03 1.635 1.16 1.962 1.472.78 1.71-.123.4-.208 0 .35"/><path d="M4.353.146c.022.273.006.553.066.82.262 1.16 1.693.035.934-.935"/></g><path d="M17.56.001c.312 0-.057 2.82-.253 3.384-.25.717-.835.563-1.468.563a4.59 4.59 0 0 1-.527-.025c-.262-.323-.604-.684-.974-1.01l-.282-.237.07.416-.1-.145c-.384.98-1.156 1.258-2.094 1.258-2.168 0-3.033-1.67-2.686-4.203h8.305zm-4.307 1.142h-2.93l-.001.015c-.037.608.03 1.08.192 1.417l.097.17c.256.38.7.58 1.43.58.49 0 .828-.32 1.043-1.102l.058-.236.04-.24.04-.324.028-.28zm3.48 0h-2.17c.308 1.278.715 1.833 1.47 1.916l.212.01c.03 0 .047-.007.075-.034.06-.058.127-.174.19-.35.1-.288.17-.692.205-1.208l.018-.334z" class="F U"/><g class="B C D K"><path d="M14.39 3.3c1.018.814 1.92 1.998 1.766 2.194-.202.256-.935.308-1.114.205-.144-.083-.08.03-.08.983"/><path d="M12.167 5.87c1.192.895 2.515 1.01 3.822.737"/></g><g class="I B C D"><path d="M13.444 8.17c.255 1.033.858 1.685 1.496 2.55"/><path d="M14.487 8.056c.697 2.232.542 1.28.7 2.807"/><path d="M15.354 8.217c.208 2.17.183 1.268.183 2.702"/><path d="M16.277 8.217l-.478 2.968"/><path d="M16.922 8.297c-.057 1.052-.33 1.89-.852 2.8"/><path d="M17.63 8.193c-.095 1.026-.384 2.015-1.067 2.815"/><path d="M18.02 9.295c-.843 1.143-.945 1.493-2.205 1.793"/></g><path d="M12.253 5.498c-.076.207-.228.412-.48.424" class="B C D K"/></g></g></g><use xlink:href="#K" class="E"/><use xlink:href="#L" class="M"/><use xlink:href="#M" class="E"/><use xlink:href="#N" class="H"/><g transform="translate(0 150)"><path d="M0 .49h386v46.083H0z" class="G"/><path d="M145.433 18.26h69.998c2.252 0 4.078 1.848 4.078 4.127s-1.826 4.127-4.078 4.127h-69.998c-2.252 0-4.078-1.848-4.078-4.127s1.826-4.127 4.078-4.127z" class="E"/><use xlink:href="#L" y="-1" class="J"/><path d="M58.445 18.26H98.54c2.252 0 4.078 1.848 4.078 4.127s-1.826 4.127-4.078 4.127H58.445c-2.252 0-4.078-1.848-4.078-4.127s1.826-4.127 4.078-4.127z" class="E"/><use xlink:href="#N" y="-1" class="H"/></g><g transform="translate(0 100)"><path d="M0 .326h386V46.41H0z" class="G"/><use xlink:href="#O" class="E"/><use xlink:href="#L" y="-1" class="N"/><use xlink:href="#M" y="-1" class="E"/><use xlink:href="#N" y="-1" class="H"/></g><g transform="translate(0 50)"><path d="M0 .163h386v46.083H0z" class="G"/><use xlink:href="#K" class="E"/><use xlink:href="#L" class="Y"/><path d="M58.445 19.26h31.26c2.252 0 4.078 1.848 4.078 4.127s-1.826 4.127-4.078 4.127h-31.26c-2.252 0-4.078-1.848-4.078-4.127s1.826-4.127 4.078-4.127z" class="E"/><use xlink:href="#N" class="H"/></g><g transform="translate(30.423 523.108)"><g transform="translate(0 .453)"/></g><g class="G"><path d="M0 250.815h386v45.55H0z"/><path d="M0 549.123h386v45.55H0z"/></g><g transform="translate(13.592 257.518)"><g class="F L"><use xlink:href="#P"/><use xlink:href="#Q"/></g><g transform="translate(3.743 8.471)"><g transform="translate(0 .004)"><g class="J"><path d="M13.094 9.128c1.607 0 3.582-.1 5.923-.303l.607-2.983h-2.632l.202-4.348H2.615l-.09 2.41C.842 3.435 0 3.655 0 4.565s.753 1.453 2.26 1.63l.506 2.326c5.277.405 8.72.607 10.327.607z"/><path d="M13.094 305.128c1.607 0 3.582-.1 5.923-.303l.607-2.983h-2.632l.202-4.348H2.615l-.09 2.41c-1.684-.47-2.525-.25-2.525.66s.753 1.453 2.26 1.63l.506 2.326c5.277.405 8.72.607 10.327.607z"/></g><g transform="translate(10.916 1.092)" class="T"><path d="M.104.346C.03 1.616 1.16 1.94 1.472.77 1.71-.12.4-.206 0 .346"/><path d="M.104 296.346c-.073 1.27 1.056 1.593 1.368.424.24-.892-1.062-.976-1.472-.424"/><path d="M4.353.144c.022.27.006.546.066.81C4.68 2.1 6.112.99 5.353.03"/><path d="M4.353 296.144c.022.27.006.546.066.81.262 1.146 1.693.034.934-.924"/></g><g class="F U"><use xlink:href="#R"/><use xlink:href="#R" y="295.999"/></g><g class="B C D K"><use xlink:href="#S"/><use xlink:href="#S" y="296"/><path d="M12.167 5.803c1.192.885 2.515.997 3.822.73"/><path d="M12.167 301.803c1.192.885 2.515.997 3.822.73"/></g><g class="I B C D"><path d="M13.444 8.074c.255 1.02.858 1.665 1.496 2.52"/><path d="M13.444 304.074c.255 1.02.858 1.665 1.496 2.52"/><path d="M14.487 7.963c.697 2.206.542 1.265.7 2.774"/><path d="M14.487 303.963c.697 2.206.542 1.265.7 2.774"/><path d="M15.354 8.122c.208 2.145.183 1.253.183 2.67"/><path d="M15.354 304.122c.208 2.145.183 1.253.183 2.67"/><path d="M16.277 8.122l-.478 2.933"/><path d="M16.277 304.122l-.478 2.933"/><path d="M16.922 8.2c-.057 1.04-.33 1.87-.852 2.766"/><path d="M16.922 304.2c-.057 1.04-.33 1.87-.852 2.766"/><use xlink:href="#T"/><use xlink:href="#T" y="296"/><use xlink:href="#U"/><use xlink:href="#U" y="296"/></g><g class="K B C D"><path d="M12.253 5.434c-.076.205-.228.407-.48.42"/><path d="M12.253 301.434c-.076.205-.228.407-.48.42"/></g></g></g></g><g class="E"><use xlink:href="#V"/><use xlink:href="#V" y="296"/></g><g class="Y"><use xlink:href="#W"/><use xlink:href="#W" y="296"/></g><g class="E"><use xlink:href="#X"/><use xlink:href="#X" y="296"/></g><g class="H"><use xlink:href="#Y"/><use xlink:href="#Y" y="296"/></g><path d="M0 399.702h386v45.55H0z" class="G"/><path d="M145.433 415.92h69.998a4.08 4.08 0 0 1 4.078 4.079 4.08 4.08 0 0 1-4.078 4.079h-69.998a4.08 4.08 0 0 1-4.078-4.079 4.08 4.08 0 0 1 4.078-4.079z" class="E"/><use xlink:href="#W" y="148.885" class="J"/><path d="M58.445 415.92H98.54a4.08 4.08 0 0 1 4.078 4.079 4.08 4.08 0 0 1-4.078 4.079H58.445a4.08 4.08 0 0 1-4.078-4.079 4.08 4.08 0 0 1 4.078-4.079z" class="E"/><use xlink:href="#Y" y="148.885" class="H"/><path d="M0 350.073h386v45.55H0z" class="G"/><use xlink:href="#Z" class="E"/><use xlink:href="#W" y="99.257" class="N"/><use xlink:href="#X" y="99.257" class="E"/><use xlink:href="#Y" y="99.257" class="H"/><path d="M0 300.444h386v45.55H0z" class="G"/><g class="P"><use xlink:href="#a"/><use xlink:href="#a" y="-52"/><use xlink:href="#a" y="-151"/><use xlink:href="#a" y="-303"/></g><path d="M0 598.753h386v45.55H0z" class="G"/><g class="E"><use xlink:href="#V" y="49.629"/><use xlink:href="#V" y="345.629"/></g><use xlink:href="#W" y="49.629" class="M"/><use xlink:href="#W" y="345.629" class="Y"/><g class="E"><use xlink:href="#b"/><use xlink:href="#b" y="296"/></g><g class="H"><use xlink:href="#Y" y="49.629"/><use xlink:href="#Y" y="345.629"/></g><path d="M0 449.33h386v45.55H0z" class="G"/><use xlink:href="#a" y="148" class="P"/><use xlink:href="#Z" y="99.256" class="E"/><use xlink:href="#W" y="198.513" class="N"/><use xlink:href="#X" y="198.513" class="E"/><use xlink:href="#Y" y="198.513" class="H"/><g transform="translate(14.271 356.774)"><use xlink:href="#P" class="F L"/><g transform="translate(3.78 3.861)"><path d="M.83 17C-1.115 10.572 5.637 2.293 10.517.804c7.412-2.26 9.353 10.676 9.02 10.804l-.678.244C16.293 12.735 10.283 14.447.83 17z" class="O"/><g transform="translate(4.627 2.83)" fill="#f1f4f6"><path d="M11.64 3.433c.334 2.67-2.28 9.407-5.038 9.037-2.318-.31-3.668-2.28-4.383-4.388-.12-.356-1.91.573-2.157-1.084s1.708-.616 1.657-.92c-.17-1.017-.158-1.88-.132-2.57.004-.11.59-.445 1.84-.644a13.46 13.46 0 0 1 2.086-.151c1.19-.002 2.518.115 3.634.257.32.04.027-2.95.304-2.908s1.134 3.12 1.353 3.16c.515.095.832.176.836.212z"/></g><g transform="translate(8.799 6.452)"><g transform="translate(3.375 .552)" class="B C D K"><path d="M.307 0c.15 1.455 1.227.976 1.227.005"/><path d="M.368.798L0 1.29"/><path d="M.92.982l-.245.798"/><path d="M1.227.86l.184.675"/></g><path d="M2.76 0l1.807 2.658c.093.114.27.25.217.39-.05.13-1.22.226-1.324.018-.053-.108-.07-.482-.065-.36.022.75.088 1.225.197 1.42" fill="#f3fff6" class="B C D I"/><g transform="translate(.184 .491)" class="B C D K"><path d="M.27.104C.042 1.068 1.402 1.2 1.657 0"/><path d="M.43.798L0 1.105"/><path d="M.887.86l-.042.552"/><path d="M1.29.798l.184.43"/></g><path d="M2.76 4.387c.4.044.278.603.59.528.157-.038.29-.212.45-.183.242.044.578.26 1.008.648l-.844.386-.312.148C2.923 6.264.7 5.02.184 4.554l1.823.584 1.27.17c1.2.138.168-.113-3.095-.755.704-.4 2.177-.21 2.576-.167z" fill="#ff243a"/></g></g></g><g transform="translate(14.271 308.506)"><g class="F L"><use xlink:href="#P"/><use xlink:href="#Q"/></g><g class="J"><use xlink:href="#c"/><use xlink:href="#c" y="296"/></g><g class="B C D I"><path d="M7.105 20.537c1.85.953 3.04-.265 4.29-1.6"/><path d="M7.105 316.537c1.85.953 3.04-.265 4.29-1.6"/><use xlink:href="#d"/><use xlink:href="#d" y="296"/><use xlink:href="#e"/><use xlink:href="#e" y="296"/><use xlink:href="#f"/><use xlink:href="#f" y="296"/><path d="M18.436 19.883c-.903.13-2.744 1.05-4.895-.93"/><path d="M18.436 315.883c-.903.13-2.744 1.05-4.895-.93"/><path d="M18.37 18.582c-2.358.475-.902.287-4.402.2"/><path d="M18.37 314.582c-2.358.475-.902.287-4.402.2"/><use xlink:href="#g"/><use xlink:href="#g" y="296"/><path d="M10.4 22.005c1.25-.826.37-.14 1.802-2.822"/><path d="M10.4 318.005c1.25-.826.37-.14 1.802-2.822"/><path d="M11.776 22.078c.948-1.846.635-.937 1.035-2.69"/><path d="M11.776 318.078c.948-1.846.635-.937 1.035-2.69"/><path d="M13.277 21.866c-.71-1.442-.45-.617-.62-2.52"/><path d="M13.277 317.866c-.71-1.442-.45-.617-.62-2.52"/><path d="M14.695 21.797c-1.1-1.474-.56-.6-1.45-2.7"/><path d="M14.695 317.797c-1.1-1.474-.56-.6-1.45-2.7"/><path d="M8.23 17.78c.955.564 2.276 1.607 3.318.67"/><path d="M8.23 313.78c.955.564 2.276 1.607 3.318.67"/><path d="M7.675 19.052c.608.163 3.677 1.07 3.62-.48"/><path d="M7.675 315.052c.608.163 3.677 1.07 3.62-.48"/><use xlink:href="#h"/><use xlink:href="#h" y="296"/><g class="J"><use xlink:href="#i"/><use xlink:href="#i" y="296"/></g></g><g stroke="#ff5fa7" class="V B C"><use xlink:href="#j"/><use xlink:href="#j" y="296"/><use xlink:href="#k"/><use xlink:href="#k" y="296"/></g><g fill="#d41c61"><circle cx="8.363" cy="15.848" r="1"/><circle cx="8.363" cy="311.848" r="1"/><circle cx="17.539" cy="14.854" r="1"/><circle cx="17.539" cy="310.854" r="1"/></g><g class="O"><path d="M17.863 10.238c2.527-.453 3.938-.78 4.234-.982l-.552-1.535-4.602.92c-.286-4.46-1.084-6.69-2.393-6.69-.426 0-.917.614-1.473 1.842C12.3 1.42 11.48.97 10.622 2.442s-1.31 3.704-1.35 6.69l-3.007-.17c-.653-.07-1.165-.177-1.534-.32v1.412c-.066.068.388.165 1.362.3l2.933.262c1.186.09 4.132-.032 8.836-.368z"/><path d="M17.863 306.238c2.527-.453 3.938-.78 4.234-.982l-.552-1.535-4.602.92c-.286-4.46-1.084-6.69-2.393-6.69-.426 0-.917.614-1.473 1.842-.777-2.374-1.595-2.824-2.455-1.35s-1.31 3.704-1.35 6.69l-3.007-.17c-.653-.07-1.165-.177-1.534-.32v1.412c-.066.068.388.165 1.362.3l2.933.262c1.186.09 4.132-.032 8.836-.368z"/></g></g><g transform="translate(14.271 406.402)"><path d="M13.592 0C6.085 0 0 6.087 0 13.597s6.085 13.597 13.592 13.597 13.592-6.087 13.592-13.597S21.098 0 13.592 0z" fill="#cce4ff" class="F"/><g transform="translate(6.458 3.938)"><g transform="translate(4.121 .246)" class="V"><path d="M9.102 1.58C8.78 8.76.968 11.42 5.96 16.1c1.193 1.118-6.543 1.134-5.88 0 3.544-6.05-.16-7.34-.08-13.873C.01 1.456.12.733.313.07 4.202-.04 7.05.06 8.86.372c.144.025.224.428.242 1.2z"/></g><g class="B C D W"><path d="M14.268.984c-.428 1.86-1.242 3.766-1.4 5.677-.114 1.384-.05 2.778-.077 4.167"/><path d="M13.776.923c-.96 2.416-1.332 4.59-1.423 7.2-.07 2.05-.276 1.55.133 2.398"/><path d="M12.485 2.4c-.9 3.72-.943 4.922-.312 8.736"/><path d="M12.116 11.566c-2.235-2.008-1.3-5.515-.7-7.998"/></g><path d="M7.782 1.784c.136.672.1 1.122-.11 1.35-1.115 1.215-1.55 1.683-2.803 3.413-.017.024-.012.086.017.086.14.001.294-.003.41-.082C6.1 6 6.72 5.164 7.612 4.767c1.2-.535-1.644 1.313-.956 1.673.28.147 5.196-.53 3.607-.212s-3.95.757-3.75 1.016c.826 1.08 1.035 1.573.826 2.54" class="B C D K"/><g class="W B C D"><path d="M4.797 3.076C4.075 4.995 3.11 9.67.267 10.212c-.036.007-.055-.05-.082-.073"/><path d="M4.367 1.784C3.713 5.025 2.747 7.89.062 9.782"/><path d="M3.998.554C3.163 3.572 2.74 6.853.185 8.92"/><path d="M3.137.677C2.365 3.913 2.28 6.043 0 8.306"/></g><path d="M3.925.027c-.35 0 .2 2.15.428 2.648.185.42.695.634 1.53.642.923.028 1.565-.182 1.926-.632l.055-.07c.43.86 1.292 1.105 2.34 1.105 2.42 0 3.388-1.468 3-3.69H3.925zM8.2.848L12.317.8l.001.015c.055.71-.068 1.236-.345 1.586l-.03.035c-.33.39-.948.592-1.88.592-.64 0-1.384-.25-1.706-1.047l-.075-.226c-.036-.135-.034-.35-.053-.607l-.03-.3zm-3.623.07h2.988l-.004.44c-.024.99-.234 1.43-1.985 1.467l-.327.003c-.042 0-.064-.007-.104-.034-.084-.058-.175-.172-.26-.347C4.746 2.16 4.65 1.76 4.6 1.25l-.025-.33z" fill="#00ffce" class="F"/><g class="T"><use xlink:href="#l"/><use xlink:href="#l" x="1.783"/></g><g class="U"><path d="M2.836 17.637c-.395.578-2.05.43-1.164-.744s1.56.165 1.164.744z"/><path d="M4.773 18.628c-.406.558-1.888.203-.975-.93s1.38.37.975.93z"/><path d="M7.597 18.96c-.41.58-1.887.317-.964-.857s1.374.278.964.857z"/><path d="M10.544 18.6c-.418.57-1.838.273-1.23-.733s1.65.163 1.23.733z"/><path d="M12.647 17.922c-.397.564-1.624.294-1.17-.725s1.566.16 1.17.725z"/></g></g></g><g transform="translate(14.951 456.031)"><path d="M13.23 0C5.923 0 0 5.926 0 13.235S5.923 26.47 13.23 26.47s13.23-5.926 13.23-13.235S20.537 0 13.23 0z" class="F L"/><g transform="translate(1.377 5.869)"><path d="M9.92 1.877c-3.004 0-5.688.795-7.693 2.06C1.414 4.45.77 5.013.398 5.527c-.224.31-.36.6-.376.926-.027.534.317.97.84 1.08l.045.01c.342.065.845.09 2.02.12l1.065.028 2.565.112.163.01.14.01c1.214.09 2.23.226 3.038.414l.056.013v4.7c.108 1.107 1.3 1.66 3.575 1.66s4.864-.642 7.767-1.925l-.403-3.485.028-.007c.414-.11.765-.266 1.053-.474a1.95 1.95 0 0 0 .841-1.631c0-.77-.432-1.35-1.17-1.544l-.03-.007c-.316-.078-.68-.086-1.1-.03l-.048.007-.075-.65-.265-.2c-2.35-1.865-5.757-2.78-10.207-2.78z" class="F J"/><g class="B C D I"><path d="M7.854 2.873c1.165.068.982.094 1.815-.718"/><path d="M7.967 3.47c.916-.065 1.013-.415 1.64-1.186"/><path d="M10.01 2.24c.23.6.626.63 1.24.582"/><path d="M10.01 2.246c.136 1.03-.104.6.786 1.254"/></g><g stroke="#fff" class="B C"><path d="M8.43.357c1.092-1 1.652.33 1.535 1.186C9.822 2.58 8.98 3.38 8.187 3.946c-.01.008-.704.475-.907.295-.5-.435-.296-1.41-.09-1.994A5.42 5.42 0 0 1 8.429.357z"/><g class="D"><path d="M9.873 2.526c.18-.553.3-1.253.794-1.647 1.06-.848 2.084-.568 1.792.89-.16.798-.824 1.74-1.406 2.297-.756.72-1.414-.264-1.3-.982.055-.348.187-.68.28-1.02"/></g></g><g class="I B C D"><path d="M13.563 1.823c.25 1.457.387 2.573 1.36 3.724 1.427 1.688 4.597.98 5.92-.468"/><path d="M14.78 2.012c-.264 1.937-.104 4.127 2.344 4.457.17.023 1.3.084 1.716-.06 1.012-.35 1.054-.56 2.02-1.345"/><path d="M15.226 2.027c.856 1.772 3.137 5.89 5.42 3.21"/><path d="M16.36 2.24c.2 1.09.302 2.2 1.028 3.082.963 1.18 2.925.94 3.743-.212"/><path d="M16.92 2.435c.55 1.386 1.587 3.712 3.47 2.94"/><path d="M17.593 2.58C18.05 3.3 19 5.13 19.93 5.32c.366.074.746-.01 1.12-.015"/><path d="M9.578 8.75c.922-.324 1.666.344 2.61.174.456-.082 1.013-.58 1.346-.83"/></g></g><path d="M9.58 18.206l3.89 2.156 6.106-2.156-.36 4.55-5.747-1.737-4.91 1.737z" class="B C I O"/></g><path d="M0 200.652h386v46.083H0z" class="G"/><g class="M"><use xlink:href="#m"/><use xlink:href="#m" y="-102"/><path d="M353 76.63l-1.39 1.39c-.2.2-.315.475-.315.76v2.148c0 .592-.482 1.074-1.074 1.074-.46 0-.847-.294-1-.705l.684-.684-1.52-1.52-.684.684c-.41-.15-.705-.538-.705-1 0-.592.482-1.074 1.074-1.074h2.148a1.07 1.07 0 0 0 .759-.315l1.39-1.39.63.63zm10.97-11.698a6.79 6.79 0 0 0-9.49 0c-2.908 2.776-4.2 6.198-3.596 8.818l-1.713 1.636h-1.79c-1.865 0-3.384 1.45-3.384 3.23 0 1.456 1.013 2.69 2.4 3.092.422 1.326 1.713 2.293 3.238 2.293 1.865 0 3.384-1.45 3.384-3.23V79.06l1.715-1.637c3.26.698 6.852-1.16 9.233-3.432 2.706-2.582 2.706-6.48 0-9.06h0z"/><use xlink:href="#m" y="147"/><use xlink:href="#m" y="196"/></g><path d="M0 498.96h386v46.083H0z" class="G"/><g class="P"><use xlink:href="#a" y="251"/><use xlink:href="#a" y="293"/></g><use xlink:href="#m" y="299" class="M"/><g class="E"><use xlink:href="#O" y="200"/><use xlink:href="#O" y="496"/></g><g class="N"><use xlink:href="#L" y="199"/><use xlink:href="#L" y="495"/></g><g class="E"><use xlink:href="#M" y="199"/><use xlink:href="#M" y="495"/></g><g class="H"><use xlink:href="#N" y="199"/><use xlink:href="#N" y="495"/></g><g transform="translate(15 110)"><use xlink:href="#n" class="F L"/><g transform="translate(3.746 3.829)"><path d="M.833 16.873C-1.1 10.5 5.607 2.28 10.455.803c7.362-2.244 9.3 10.6 8.96 10.727l-.674.242c-2.55.876-8.518 2.576-17.907 5.1z" class="O"/><g transform="translate(4.604 2.814)" fill="#f1f4f6"><path d="M11.56 3.41c.332 2.65-2.263 9.34-5.004 8.973-2.302-.31-3.643-2.264-4.353-4.357-.12-.354-1.898.57-2.142-1.076s1.697-.612 1.646-.914c-.17-1-.157-1.867-.13-2.55.004-.108.585-.442 1.827-.64.556-.088 1.244-.15 2.072-.15 1.18-.002 2.5.115 3.61.255.32.04.027-2.93.302-2.887S10.512 3.158 10.73 3.2c.51.094.826.174.83.2z"/></g><g transform="translate(8.748 6.41)"><g transform="translate(3.352 .549)" class="B C D K"><path d="M.305 0c.15 1.444 1.22.97 1.22.005"/><path d="M.366.792L0 1.28"/><path d="M.914.975l-.244.792"/><path d="M1.22.853l.183.67"/></g><path d="M2.743 0l1.795 2.64c.092.113.27.247.216.386-.05.128-1.213.224-1.315.018-.053-.107-.068-.478-.065-.357.022.746.087 1.216.196 1.41" fill="#f3fff6" class="B C D I"/><g transform="translate(.183 .488)" class="B C D K"><path d="M.27.103C.042 1.06 1.393 1.18 1.646 0"/><path d="M.427.792L0 1.097"/><path d="M.88.853l-.042.55"/><path d="M1.28.792l.183.427"/></g><path d="M2.74 4.356c.396.044.276.598.585.524.156-.037.287-.2.446-.182.24.043.574.258 1 .643l-.838.383-.3.147C2.904 6.22.694 4.984.182 4.522l1.81.58 1.263.17c1.19.137.167-.112-3.074-.75.7-.387 2.163-.21 2.56-.166z" fill="#ff243a"/></g></g></g><g transform="translate(15 60)"><use xlink:href="#n" class="F L"/><path d="M17.303 10.016c3.1 1.934 5.28 5.947 6.534 12.04A13.44 13.44 0 0 1 13.409 27c-4.274 0-8.084-1.99-10.55-5.096.227-1.533.534-2.885.922-4.06.418-1.268 1.745-3.443 3.98-6.526l.683-.93c3.184.17 5.967.05 8.315-.288l.545-.084z" class="J"/><g class="B C D I"><path d="M7.057 20.39c1.838.946 3.02-.264 4.26-1.58"/><path d="M13.384 19.025c.253 1.092.41 1.776 1.036 2.657.015.02-.05.013-.075.02"/><path d="M15.58 21.343c-1.252-.744-.5-.184-1.903-2.073"/><path d="M18.16 20.806c-1.702-.116-3.455-.733-4.75-1.866"/><path d="M18.31 19.74c-.897.128-2.725 1.042-4.862-.923"/><path d="M18.245 18.45c-2.342.472-.896.285-4.372.198"/><path d="M8.822 21.864c1.045-.832 2.586-1.752 2.858-3.207"/><path d="M10.32 21.848c1.242-.82.368-.14 1.8-2.802"/><path d="M11.697 21.92c.942-1.833.63-.93 1.028-2.672"/><path d="M13.187 21.71c-.704-1.43-.446-.612-.615-2.502"/><path d="M14.596 21.642c-1.082-1.464-.557-.596-1.44-2.68"/><path d="M8.174 17.654c.95.56 2.26 1.596 3.296.664"/><path d="M7.623 18.917c.604.16 3.652 1.064 3.596-.478"/><path d="M9.86 10.788c-.072.65-.072 1.056 0 1.22.455 1.036 1.167.69 1.463-.427"/><path d="M11.81 10.056c-1.38 5.973-1.28 8.96.305 8.96s2.133-1.056 1.646-3.17l-.244-5.424c.73 2.56 1.422 2.682 2.072.366" class="J"/></g><g stroke="#ff5fa7" class="V B C"><path d="M6.935 15.766c-.352-.18-.555-.344-.61-.488-.29-.765.295-1.18 1.34-.61.04-.894.386-1.442 1.036-1.646s.772.345.366 1.646c.647-.096 1.053-.096 1.22 0 .555.322.297 1.108-.853 1.585.57.488.65.995.244 1.524s-.894.284-1.463-.73c-.813.975-1.442 1.22-1.89.73s-.244-1.158.61-2.01z"/><path d="M18.91 14.657c.335-.245.52-.447.552-.604.175-.838-.5-1.172-1.49-.4-.188-.917-.636-1.428-1.343-1.53s-.743.484-.11 1.76c-.686.007-1.107.073-1.263.2-.522.424-.127 1.194 1.144 1.498-.5.597-.51 1.136-.003 1.615s.973.147 1.396-.996c1.002.875 1.694 1.023 2.078.446s.063-1.237-.96-1.98z"/></g><g fill="#d41c61"><circle cx="8.306" cy="15.735" r="1"/><circle cx="17.421" cy="14.749" r="1"/></g><path d="M17.742 10.165c2.5-.45 3.912-.774 4.205-.975l-.55-1.524-4.57.914c-.284-4.43-1.077-6.643-2.377-6.643-.423 0-.91.61-1.463 1.828-.772-2.357-1.585-2.804-2.438-1.34s-1.3 3.677-1.34 6.643l-2.986-.17c-.65-.07-1.157-.176-1.524-.318v1.402c-.065.068.386.164 1.353.288l2.913.26c1.178.1 4.104-.032 8.777-.366z" class="O"/></g><g transform="translate(15 160)"><path d="M13.5 0C6.044 0 0 6.044 0 13.5S6.044 27 13.5 27 27 20.956 27 13.5 20.956 0 13.5 0z" fill="#cce4ff" class="F"/><g transform="translate(6.414 3.91)"><g transform="translate(4.093 .244)" class="V"><path d="M9.04 1.57C8.72 8.697.96 11.34 5.92 15.985c1.185 1.1-6.5 1.125-5.84 0C3.6 9.98-.08 8.697.001 2.21.01 1.446.12.728.31.07c3.863-.11 6.693-.01 8.5.3.143.025.223.425.24 1.2z"/></g><g class="B C D W"><path d="M14.172.977c-.425 1.847-1.234 3.74-1.4 5.636-.113 1.375-.05 2.758-.076 4.137"/><path d="M13.683.916c-.953 2.398-1.323 4.556-1.413 7.148-.07 2.036-.274 1.54.132 2.38"/><path d="M12.4 2.382c-.895 3.694-.936 4.887-.3 8.674"/><path d="M12.034 11.484c-2.22-1.994-1.3-5.476-.695-7.94"/></g><path d="M7.73 1.77c.135.667.098 1.114-.1 1.34C6.512 4.32 6.08 4.783 4.836 6.5c-.017.024-.012.085.017.085.138.001.292-.003.406-.08.8-.547 1.417-1.378 2.3-1.772 1.19-.53-1.633 1.304-.95 1.66.28.146 5.16-.526 3.583-.21s-3.922.752-3.726 1.008c.82 1.07 1.028 1.562.82 2.52" class="B C D K"/><g class="W B C D"><path d="M4.765 3.054C4.048 4.96 3.088 9.603.265 10.14c-.036.007-.054-.048-.08-.073"/><path d="M4.337 1.77C3.688 4.99 2.73 7.833.06 9.713"/><path d="M3.97.55C3.142 3.546 2.723 6.804.183 8.857"/><path d="M3.115.672C2.35 3.885 2.265 6 0 8.247"/></g><path d="M3.898.027c-.346 0 .208 2.136.426 2.63.184.417.7.63 1.518.637.917.028 1.555-.18 1.913-.628l.055-.07c.426.854 1.283 1.097 2.323 1.097 2.405 0 3.365-1.457 2.98-3.665H3.898zm4.245.816l4.1-.057.001.015c.054.704-.068 1.227-.342 1.574l-.028.035c-.33.386-.942.588-1.868.588-.635 0-1.375-.248-1.694-1.04l-.075-.224c-.036-.134-.034-.348-.053-.603l-.03-.288zm-3.6.07h2.967l-.004.437c-.024.982-.233 1.42-1.972 1.456l-.324.003c-.042 0-.064-.006-.103-.034-.083-.057-.174-.17-.258-.345-.136-.283-.232-.68-.28-1.19L4.545.91z" fill="#00ffce" class="F"/><g class="T"><use xlink:href="#o"/><use xlink:href="#o" x="1.771"/></g><g class="U"><path d="M2.817 17.51c-.392.574-2.038.425-1.156-.738s1.548.164 1.156.738z"/><path d="M4.74 18.495c-.403.554-1.875.2-.97-.922s1.372.368.97.922z"/><path d="M7.545 18.826c-.408.575-1.874.315-.957-.85s1.365.276.957.85z"/><path d="M10.472 18.468c-.415.566-1.826.27-1.223-.728s1.638.162 1.223.728z"/><path d="M12.56 17.794c-.394.56-1.613.292-1.162-.72s1.555.16 1.162.72z"/></g></g></g><g class="F L"><path d="M28.14 208C20.883 208 15 213.883 15 221.14s5.883 13.14 13.14 13.14 13.14-5.883 13.14-13.14S35.4 208 28.14 208z"/><path d="M28.14 504C20.883 504 15 509.883 15 517.14s5.883 13.14 13.14 13.14 13.14-5.883 13.14-13.14S35.4 504 28.14 504z"/></g><g class="J F"><use xlink:href="#p"/><use xlink:href="#p" y="296"/></g><g class="B C D I"><path d="M24.168 216.68c1.157.068.976.094 1.803-.713"/><path d="M24.168 512.68c1.157.068.976.094 1.803-.713"/><path d="M24.28 217.273c.9-.065 1.006-.412 1.63-1.178"/><path d="M24.28 513.273c.9-.065 1.006-.412 1.63-1.178"/><path d="M26.31 216.05c.23.586.622.626 1.232.578"/><path d="M26.31 512.05c.23.586.622.626 1.232.578"/><path d="M26.31 216.057c.135 1.023-.104.595.78 1.245"/><path d="M26.31 512.057c.135 1.023-.104.595.78 1.245"/></g><g stroke="#fff" class="B C"><use xlink:href="#q"/><use xlink:href="#q" y="296"/><g class="D"><use xlink:href="#r"/><use xlink:href="#r" y="296"/></g></g><g class="I B C"><use xlink:href="#s" class="D"/><use xlink:href="#s" y="296" class="D"/><use xlink:href="#t" class="D"/><use xlink:href="#t" y="296" class="D"/><path d="M31.49 215.84c.85 1.76 3.116 5.847 5.385 3.188" class="D"/><path d="M31.49 511.84c.85 1.76 3.116 5.847 5.385 3.188" class="D"/><use xlink:href="#u" class="D"/><use xlink:href="#u" y="296" class="D"/><use xlink:href="#v" class="D"/><use xlink:href="#v" y="296" class="D"/><use xlink:href="#w" class="D"/><use xlink:href="#w" y="296" class="D"/><use xlink:href="#x" class="D"/><use xlink:href="#x" y="296" class="D"/><g class="O"><use xlink:href="#y"/><use xlink:href="#y" y="296"/></g></g></g><g filter="url(#F)" transform="translate(8 463)"><path d="M0 .164h333v204H0z" class="G X"/><g transform="translate(150 85)" class="E"><use xlink:href="#H"/><use xlink:href="#I"/></g><g transform="translate(273 147)" fill="#fb3640"><path d="M10 2.667c3.25 0 6.43 5.345 6.43 9.333H19c0-4.832-3.78-12-9-12S1 7.168 1 12h2.57c0-3.988 3.178-9.333 6.43-9.333"/><path d="M21 14.4c0-.773-.588-1.4-1.312-1.4H1.313C.588 13 0 13.627 0 14.4c0 4.214 2.195 7.89 5.43 9.8H2.625V27h15.75v-2.8h-2.803c3.234-1.91 5.43-5.586 5.43-9.8"/><path d="M8.667 11c0-3 .708-3 1.333-3V5c-2.655 0-4 2.02-4 6h2.667z"/></g><g transform="translate(273 111)" class="Q"><use xlink:href="#z"/><use xlink:href="#z"/><path d="M15.444 17.57c-1.227 0-2.222-1.152-2.222-2.57s.996-2.57 2.222-2.57 2.222 1.152 2.222 2.57-.996 2.57-2.222 2.57M11 13.714c-.613 0-1.11-.575-1.11-1.286s.498-1.286 1.11-1.286 1.11.577 1.11 1.286-.497 1.286-1.11 1.286M8.778 17.57c-.613 0-1.11-.575-1.11-1.286S8.164 15 8.778 15s1.11.577 1.11 1.286-.497 1.286-1.11 1.286M20.572 6.273a.99.99 0 0 0-.953-.234L1.84 11.182c-.494.144-.84.657-.84 1.247V15c0 .7.498 1.286 1.11 1.286h1.11c.612 0 1.11.577 1.11 1.286s-.5 1.286-1.11 1.286H2.11c-.613 0-1.11.576-1.11 1.286v2.57c0 .396.158.77.428 1.013a.99.99 0 0 0 .953.234l17.778-5.143c.493-.143.84-.657.84-1.247V7.286c0-.396-.158-.77-.428-1.013"/></g><g transform="translate(270 71)" fill="#011638"><path d="M3.192 11.135c.323 1.123 1.03 2.08 2.105 2.865.244-.407.74-1.055 1.642-1.677-.765-.464-1.432-1.077-1.667-1.878-.164-.557-.094-1.112.036-1.574.254.177.523.332.82.43.824.273 1.707.187 2.483-.264l2.88-1.67c.332-.193.55-.56.573-.968s-.15-.802-.456-1.04L9.01 3.36l1.36-.84 1.656.9L13 1.307 10.826.125c-.325-.176-.71-.165-1.023.028L5.542 2.78c-1.3.753-1.922 2.332-1.647 3.827-.362.612-1.295 2.465-.702 4.528"/><path d="M16.628 2.52l1.36.84-2.598 2.002c-.307.236-.48.63-.456 1.04s.24.775.573.968l2.88 1.67a3 3 0 0 0 2.483.264c.298-.098.568-.253.82-.43.128.457.2 1.007.04 1.56-.233.807-.9 1.425-1.67 1.892.902.622 1.398 1.27 1.642 1.677 1.074-.786 1.782-1.742 2.105-2.865.593-2.062-.34-3.916-.702-4.528.276-1.495-.344-3.07-1.623-3.812L17.197.154a1.01 1.01 0 0 0-1.022-.03L14 1.307l.972 2.114 1.656-.9z"/><path d="M4.447 16L0 16.64.455 19 5 18.345c-.256-.827-.436-1.62-.553-2.345"/><path d="M5.01 19L1 20.645 1.92 23 6 21.326c-.388-.756-.714-1.54-.99-2.326"/><path d="M3 26.038L4.44 28 8 24.898c-.566-.56-1.068-1.2-1.512-1.898L3 26.038z"/><path d="M21.552 16c-.118.725-.296 1.517-.552 2.345l4.545.655.455-2.36-4.448-.64z"/><path d="M20 21.326L24.08 23l.92-2.356L20.99 19c-.276.785-.6 1.57-.99 2.326"/><path d="M18 24.9l3.56 3.1L23 26.04 19.514 23c-.444.698-.946 1.34-1.514 1.9"/><path d="M15.286 18.125c-.79 0-1.43-.653-1.43-1.458s.64-1.458 1.43-1.458 1.43.653 1.43 1.458-.64 1.458-1.43 1.458m-4.57 0c-.79 0-1.43-.653-1.43-1.458s.64-1.458 1.43-1.458 1.43.653 1.43 1.458-.64 1.458-1.43 1.458M20.88 14.98C20.73 14.674 19.24 12 13 12s-7.73 2.674-7.88 2.98c-.1.205-.14.438-.11.666C5.06 16.067 6.353 26 13 26s7.94-9.933 7.99-10.355c.03-.23-.01-.46-.11-.666"/></g><g transform="translate(270 35)" class="M"><path d="M5.087 6L2.062 8.723c-4.087 3.678-.9 12.124-.524 13.075.152.385.487.685.913.822 4.286 1.378 11.292 2.44 14.525-.472L20 19.425 5.087 6z"/><path d="M26 1.854L23.94 0 20.8 2.826C18.48 1.08 15.843.13 13.258.13c-2.54 0-4.9.918-6.83 2.654C6.154 3.028 6 3.36 6 3.7a1.25 1.25 0 0 0 .425.924L8.488 6.5l3.1-2.78 2.06 1.854-3.1 2.783 2.06 1.854 5.15-4.637 2.06 1.854-5.15 4.637 2.06 1.854 3.1-2.78 2.06 1.854-3.1 2.78 2.06 1.855a1.55 1.55 0 0 0 1.03.383 1.54 1.54 0 0 0 1.03-.384c4.003-3.605 3.927-8.678-.047-12.937L26 1.854z"/></g><rect x="11.763" y="17.897" width="77.652" height="8.099" rx="3.159" class="R"/><rect x="13.113" y="35.444" width="77.652" height="8.099" rx="3.159" class="H"/><g transform="translate(100 39)"><mask id="AC" class="G"><use xlink:href="#H" href="#B"/></mask><use xlink:href="#H" class="F Q" href="#B"/><g mask="url(#AC)"><g transform="translate(-6 -12.839)"><path d="M70.088 9v69.54L22 21.84c0-38.207 8.78-12.223 47.262-12.833L70.088 9z" fill="#fb3640"/><path d="M70.06 79.157v.47l26.525 63.296c-8.408 3.715-17.69 5.774-27.444 5.774-37.637 0-68.22-30.662-68.828-68.72l-.006-.818H70.06z" fill="#001c6c"/><use xlink:href="#J" x="-7" y="-5" class="N"/></g></g></g><rect x="134" y="183" width="66" height="9" rx="3.159" class="S"/></g></g></svg>