<svg xmlns="http://www.w3.org/2000/svg" xmlns:xlink="http://www.w3.org/1999/xlink" width="1697" height="1115" xmlns:v="https://vecta.io/nano"><style><![CDATA[.B{fill:#fff}.C{fill:#0d62fe}.D{fill:#000}.E{stroke:#f4f2ee}.F{stroke-width:2.322}.G{stroke-linecap:square}.H{stroke-linejoin:round}.I{filter:url(#B)}.J{fill:#f4f2ee}]]></style><defs><rect id="A" width="543" height="480" rx="6"/><filter x="-2.6%" y="-2.1%" width="105.2%" height="105.8%" id="B"><feOffset dy="4" in="SourceAlpha"/><feGaussianBlur stdDeviation="4"/><feColorMatrix values="0 0 0 0 0 0 0 0 0 0.160784314 0 0 0 0 0.349019608 0 0 0 0.1 0"/></filter><rect id="C" width="543" height="480" rx="6"/><rect id="D" width="543" height="480" rx="6"/><rect id="E" width="543" height="480" rx="6"/><rect id="F" width="543" height="480" rx="6"/><rect id="G" width="543" height="480" rx="6"/><filter x="-11.0%" y="-7.5%" width="122.1%" height="125.0%" id="H"><feOffset dy="24" in="SourceAlpha"/><feGaussianBlur stdDeviation="16"/><feColorMatrix values="0 0 0 0 0 0 0 0 0 0.160784314 0 0 0 0 0.349019608 0 0 0 0.1 0"/></filter><filter x="-15.3%" y="-14.4%" width="130.6%" height="128.8%" id="I"><feOffset dy="1" in="SourceAlpha"/><feGaussianBlur stdDeviation="1"/><feColorMatrix values="0 0 0 0 0 0 0 0 0 0 0 0 0 0 0 0 0 0 0.3 0" result="C"/><feMerge><feMergeNode in="C"/><feMergeNode in="SourceGraphic"/></feMerge></filter><path id="J" d="M103.893 399.76L88.32 415.335l10.345 10.345 15.575-15.573z"/><path id="K" d="M116.58 407.68l1.298-1.296a7.27 7.27 0 0 0-.002-10.263 7.27 7.27 0 0 0-10.263 0l-1.294 1.298 10.26 10.26z"/><path id="L" d="M95.52 427.627l-9.284 2.32c-.614.15-1.262-.03-1.71-.475s-.627-1.095-.474-1.71l2.32-9.283 9.147 9.147z"/><path id="M" d="M283.364 403.182v-9.318l9.318 9.318h-9.318zM286 392h-13.817c-2.056 0-3.727 1.674-3.727 3.727v26.09a3.73 3.73 0 0 0 3.727 3.727h18.636a3.73 3.73 0 0 0 3.727-3.727v-21.272L286 392z"/><path id="N" d="M264.727 399.455H261v29.818a3.73 3.73 0 0 0 3.727 3.727h22.364v-3.727h-22.364v-29.818z"/></defs><g transform="translate(32)" fill="none" fill-rule="evenodd"><g transform="translate(557 128)"><use xlink:href="#A" class="D I"/><use xlink:href="#A" class="B"/><g class="C"><rect x="23" y="378" width="158" height="68" rx="11"/><rect x="199" y="378" width="158" height="68" rx="11"/></g><g class="B"><use xlink:href="#J"/><use xlink:href="#K"/><use xlink:href="#L"/><use xlink:href="#M"/><use xlink:href="#N"/></g><path d="M4.5 340.5h539" class="E F G H"/></g><g transform="translate(0 623)"><use xlink:href="#C" class="D I"/><use xlink:href="#C" class="B"/><path d="M321 154.6h-33v-16.4h33v16.4zm-49.5 73.8c-19.726 0-37.85-9.274-49.5-24.24l12.862-12.776c8.217 11.76 21.747 19.23 36.638 19.23 14.924 0 28.438-7.47 36.655-19.27L321 204.128c-11.632 14.98-29.74 24.272-49.5 24.272h0zM246.75 130c9.108 0 16.5 7.347 16.5 16.4 0 9.06-7.392 16.4-16.5 16.4-9.116 0-16.5-7.34-16.5-16.4 0-9.053 7.384-16.4 16.5-16.4h0zm24.75-41c-45.565 0-82.5 36.72-82.5 82 0 45.29 36.935 82 82.5 82 45.557 0 82.5-36.71 82.5-82 0-45.28-36.943-82-82.5-82h0z" class="J"/><g class="C"><rect x="23" y="378" width="158" height="68" rx="11"/><rect x="199" y="378" width="158" height="68" rx="11"/></g><g class="B"><use xlink:href="#J"/><use xlink:href="#K"/><use xlink:href="#L"/><use xlink:href="#M"/><use xlink:href="#N"/></g><path d="M4.5 340.5h539" class="E F G H"/></g><g transform="translate(1114 128)"><use xlink:href="#D" class="D I"/><use xlink:href="#D" class="B"/><path d="M250 247h13.667v7h13.667v-7H291v-14h-41zm32.43-42.598a6.87 6.87 0 0 0-4.574 6.468v2.396h-13.714v-2.396a6.86 6.86 0 0 0-4.567-6.468c-13.673-4.848-22.862-17.846-22.862-32.335 0-18.93 15.387-34.333 34.286-34.333 18.905 0 34.286 15.402 34.286 34.333a34.38 34.38 0 0 1-22.855 32.335M271 124c-26.462 0-48 21.56-48 48.067 0 18.636 10.848 35.5 27.43 43.4v4.676a6.86 6.86 0 0 0 6.857 6.867h27.43a6.86 6.86 0 0 0 6.857-6.867v-4.676c16.587-7.9 27.43-24.754 27.43-43.4C319 145.56 297.47 124 271 124m7-34h-14v27h14zm-89 89h27v-14h-27zm137 0h27v-14h-27zm11-63.4l-9.6-9.6-20.4 20.4 9.6 9.6zm-102 10.8L214.6 106l-9.6 9.6 20.4 20.4z" class="J"/><g class="C"><rect x="23" y="378" width="158" height="68" rx="11"/><rect x="199" y="378" width="158" height="68" rx="11"/></g><g class="B"><use xlink:href="#J"/><use xlink:href="#K"/><use xlink:href="#L"/><use xlink:href="#M"/><use xlink:href="#N"/></g><path d="M4.5 340.5h539" class="E F G H"/></g><g transform="translate(557 623)"><use xlink:href="#E" class="D I"/><use xlink:href="#E" class="B"/><path d="M252.3 213.6c0-3.643-3.002-6.6-6.7-6.6h-40.2c-3.698 0-6.7 2.957-6.7 6.6v13.2H192V240h67v-13.2h-6.7v-13.2zm-8.463-85.645c-2.62-2.607-6.854-2.607-9.473 0l-13.4 13.402c-2.62 2.613-2.62 6.862 0 9.475l40.198 40.205c1.306 1.32 3.022 1.963 4.737 1.963s3.43-.643 4.737-1.963l13.4-13.402c2.62-2.613 2.62-6.862 0-9.475l-40.198-40.205zm64.326 16.082c1.306 1.32 3.022 1.963 4.737 1.963s3.43-.643 4.737-1.963l13.4-13.402c2.62-2.613 2.62-6.862 0-9.475L290.84 80.955c-2.62-2.607-6.854-2.607-9.473 0l-13.4 13.402c-2.62 2.613-2.62 6.862 0 9.475l40.198 40.205zM351 201.48l-52.208-52.74c1.32-2.53 1.013-5.716-1.1-7.85l-26.654-26.928a6.63 6.63 0 0 0-9.422 0l-6.663 6.732a6.78 6.78 0 0 0 0 9.52l26.654 26.928c1.3 1.326 3.005 1.972 4.7 1.972 1.066 0 2.086-.343 3.052-.855l52.21 52.74 9.422-9.52z" class="J"/><g class="C"><rect x="23" y="378" width="158" height="68" rx="11"/><rect x="199" y="378" width="158" height="68" rx="11"/></g><g class="B"><use xlink:href="#J"/><use xlink:href="#K"/><use xlink:href="#L"/><use xlink:href="#M"/><use xlink:href="#N"/></g><path d="M4.5 340.5h539" class="E F G H"/></g><g transform="translate(1114 623)"><use xlink:href="#F" class="D I"/><use xlink:href="#F" class="B"/><g class="C"><rect x="23" y="378" width="158" height="68" rx="11"/><rect x="199" y="378" width="158" height="68" rx="11"/></g><g class="B"><use xlink:href="#J"/><use xlink:href="#K"/><use xlink:href="#L"/><use xlink:href="#M"/><use xlink:href="#N"/></g><path d="M4.5 340.5h539" class="E F G H"/></g><g transform="translate(0 128)"><use filter="url(#H)" xlink:href="#G" class="D"/><use xlink:href="#G" class="B"/><g transform="translate(23 378)"><g class="C"><rect width="158" height="68" rx="11"/><rect x="176" width="158" height="68" rx="11"/></g><g filter="url(#I)" transform="translate(280.4 32.6)" fill-rule="nonzero"><path fill="#231d1e" d="M0 19.6h2.8v-2.8h5.6v2.8h2.8V2.8H14V0h5.6v2.8h2.8v8.4h11.2V14h5.6v2.8H42v14h-2.8v5.6h-2.8v8.4h-5.6V42H28v2.8H14v-5.6h-2.8v-2.8H8.4v-2.8H5.6V28H2.8v-2.8H0z"/><path d="M2.8 19.6h5.6v2.8h2.8v2.8H14V2.8h5.6v16.8h2.8V14H28v5.6h2.8V14h2.8v5.6h2.8v-2.8h2.8v14h-2.8v5.6h-2.8V42h-2.8v-2.8H28V42H16.8v-2.8H14v-2.8h-2.8v-2.8H8.4V28H5.6v-2.8H2.8z" class="B"/><g fill="#231d1e"><path d="M19.6 25.2h2.8v11.2h-2.8z"/><path d="M25.2 25.2H28v11.2h-2.8z"/><path d="M30.8 25.2h2.8v11.2h-2.8z"/></g></g><g class="B"><path d="M80.893 21.76L65.32 37.335 75.665 47.68 91.24 32.107zm12.687 7.92l1.298-1.296a7.27 7.27 0 0 0-.002-10.263 7.27 7.27 0 0 0-10.263 0l-1.293 1.3 10.26 10.26z"/><use xlink:href="#L" x="-23" y="-378"/><path d="M260.364 25.182v-9.318l9.318 9.318h-9.318zM263 14h-13.817c-2.056 0-3.727 1.674-3.727 3.727v26.1a3.73 3.73 0 0 0 3.727 3.727h18.636a3.73 3.73 0 0 0 3.727-3.727v-21.27L263 14zm-21.273 7.455H238v29.818A3.73 3.73 0 0 0 241.727 55h22.364v-3.727h-22.364V21.455z"/></g></g><path d="M4.5 340.5h539" class="E F G H"/></g><g class="C"><path d="M247 260.7c0 6.596-3.645 12.306-9 15.412V207h-18v69.112c-5.355-3.106-9-8.816-9-15.412V207h-18v53.7c0 16.63 11.52 30.528 27 34.53V386h18v-90.77c15.48-4 27-17.9 27-34.53V207h-18v53.7zm74-53.7c-19.854 0-36 16.056-36 35.8v17.9c0 16.63 11.52 30.528 27 34.53V386h18v-90.77c15.48-4 27-17.9 27-34.53v-17.9c0-19.744-16.146-35.8-36-35.8M0 52.4C0 57.693 4.23 62 9.43 62H22V46H0v6.4zM69.647 1.355a4.64 4.64 0 0 0-6.553 0L62 2.45 68.553 9l1.094-1.093a4.64 4.64 0 0 0 0-6.55"/><path d="M44.26 20.825L41 31l9.782-3.393L66 11.782 59.476 5zM63 43.25V22.678L55.52 30.1l-14.893 4.925c-2.463.816-4.804-1.5-3.985-3.95L41.6 16.297 45.933 12H9.45C4.24 12 0 16.206 0 21.375V24.5h25.2v9.375h-3.15v-6.25H0V43.25h25.2V62h9.45V43.25h3.15V62h15.75c5.2 0 9.45-4.206 9.45-9.375v-6.25H47.25V43.25H63z"/></g><path d="M761 379h135v-14H761zm80-75h-27v54h27zm14 55h27v-82h-27zm-53-27h-27v27h27zm-30.386-16l76.787-76.02v17.408H862V217h-40.797v13.463h17.583L762 306.482zm587.25 513L1325 863h19.158l31.068-31.184V863h13.55v-31.184L1419.842 863H1439l-33.865-34zm77.635-64.65l-28.978 28.818a6.73 6.73 0 0 1-9.544 0l-8.728-8.675-8.728 8.675c-2.64 2.632-6.905 2.632-9.544 0l-15.478-15.4-8.728 8.675a6.76 6.76 0 0 1-4.772 1.974h-13.5V775h10.706l11.522-11.468a6.78 6.78 0 0 1 9.544 0l15.478 15.396 8.728-8.682a6.78 6.78 0 0 1 9.544 0l8.728 8.682 33.75-33.565v18.988zm0-36.35h-108c-7.445 0-13.5 6.016-13.5 13.43v67.143c0 7.4 6.055 13.43 13.5 13.43h108c7.445 0 13.5-6.03 13.5-13.43V741.43c0-7.413-6.055-13.43-13.5-13.43h0z" class="J"/></g></svg>