<svg xmlns="http://www.w3.org/2000/svg" xmlns:xlink="http://www.w3.org/1999/xlink" width="946" height="985" xmlns:v="https://vecta.io/nano"><style><![CDATA[.B{stroke-linejoin:round}.C{fill:#0d62fe}.D{fill:#fff}.E{fill-opacity:.035}.F{stroke-linecap:round}.G{stroke:#e7e7e7}.H{stroke-width:.783}.I{fill:#d4d4d4}.J{stroke-width:1.668}.K{fill-rule:nonzero}.L{fill:#000}.M{stroke-opacity:.668}.N{mask:url(#Q)}.O{filter:url(#C)}.P{fill:#42be65}.Q{fill:#ff0034}.R{fill:#28356a}.S{fill:#ff9d00}]]></style><defs><filter x="-9.4%" y="-18.9%" width="118.7%" height="138.6%" id="A"><feOffset dy="8" in="SourceAlpha"/><feGaussianBlur stdDeviation="8"/><feColorMatrix values="0 0 0 0 0 0 0 0 0 0.160784314 0 0 0 0 0.349019608 0 0 0 0.1 0" result="C"/><feMerge><feMergeNode in="C"/><feMergeNode in="SourceGraphic"/></feMerge></filter><path id="B" d="M0 0h534v61H0z"/><filter x="-1.2%" y="-9.0%" width="102.4%" height="121.3%" id="C"><feOffset dy="1" in="SourceAlpha"/><feGaussianBlur stdDeviation="2"/><feColorMatrix values="0 0 0 0 0 0 0 0 0 0.160784314 0 0 0 0 0.349019608 0 0 0 0.1 0"/></filter><path id="D" d="M0 67h534v61H0z"/><path id="E" d="M0 134h534v61H0z"/><path id="F" d="M0 198h534v61H0z"/><path id="G" d="M0 .006h26.953v26.848H0z"/><path id="H" d="M25.163.05v19.07H.02V.05h25.144z"/><filter x="-10.1%" y="-15.7%" width="120.1%" height="131.5%" id="I"><feOffset dy="8" in="SourceAlpha"/><feGaussianBlur stdDeviation="8"/><feColorMatrix values="0 0 0 0 0 0 0 0 0 0.160784314 0 0 0 0 0.349019608 0 0 0 0.1 0" result="C"/><feMerge><feMergeNode in="C"/><feMergeNode in="SourceGraphic"/></feMerge></filter><filter x="-2.0%" y="-3.1%" width="103.9%" height="106.1%" id="J"><feOffset dy="1" in="SourceAlpha"/><feGaussianBlur stdDeviation="2"/><feColorMatrix values="0 0 0 0 0 0 0 0 0 0.160784314 0 0 0 0 0.349019608 0 0 0 0.1 0" result="C"/><feMerge><feMergeNode in="C"/><feMergeNode in="SourceGraphic"/></feMerge></filter><path id="K" d="M.664 0h533.733v315.844H.664z"/><filter x="-25.0%" y="-18.1%" width="150.1%" height="136.1%" id="L"><feOffset dy="24" in="SourceAlpha"/><feGaussianBlur stdDeviation="16"/><feColorMatrix values="0 0 0 0 0 0 0 0 0 0.160784314 0 0 0 0 0.349019608 0 0 0 0.1 0" result="C"/><feMerge><feMergeNode in="C"/><feMergeNode in="SourceGraphic"/></feMerge></filter><filter x="-6.3%" y="-4.6%" width="112.6%" height="109.1%" id="M"><feOffset dy="6" in="SourceAlpha"/><feGaussianBlur stdDeviation="5.5"/><feColorMatrix values="0 0 0 0 0 0 0 0 0 0.164542109 0 0 0 0 0.362271488 0 0 0 0.1 0" result="C"/><feMerge><feMergeNode in="C"/><feMergeNode in="SourceGraphic"/></feMerge></filter><filter x="-24.0%" y="-22.6%" width="148.0%" height="146.0%" id="N"><feOffset dy="1" in="SourceAlpha"/><feGaussianBlur stdDeviation="1"/><feColorMatrix values="0 0 0 0 0 0 0 0 0 0 0 0 0 0 0 0 0 0 0.3 0" result="C"/><feMerge><feMergeNode in="C"/><feMergeNode in="SourceGraphic"/></feMerge></filter></defs><g transform="translate(42 42)" fill="none" fill-rule="evenodd"><g filter="url(#A)" transform="translate(0 363)"><use xlink:href="#B" class="L O"/><use xlink:href="#B" class="D"/><g transform="translate(360 21)" class="K"><path d="M8.142 0H5.506C2.87 0 .6 1.967.6 5.777.6 8.05 1.705 9.77 3.605 10.63L.05 17.023c-.123.184 0 .37.184.37H1.89c.123 0 .245-.06.307-.184l3.25-6.268H6.61v6.268c0 .06.06.184.184.184h1.47a.16.16 0 0 0 .184-.184V.246C8.387.06 8.326 0 8.142 0h0zM6.61 9.464h-.98c-4.23 0-3.924-7.99-.184-7.99H6.67v7.99h-.06z" fill="red"/><path d="M16.914 5.55H15.5c-.12 0-.178.064-.178.192v4.603h-2.6V5.742c0-.128-.06-.192-.178-.192H11.16c-.12 0-.178.064-.178.192v11.7c0 .128.06.192.178.192h1.423c.12 0 .178-.064.178-.192v-5.626h2.6v5.626c0 .128.06.192.178.192h1.423c.12 0 .178-.064.178-.192v-11.7c-.06-.128-.12-.192-.237-.192h0zM48.94 16.036c0-.064-.06-.064-.12-.064-.593 0-4.21 1.854-4.21-4.284 0-2.685.95-6.458 3.203-4.22.06.064.12.064.178.064s.12-.064.178-.192l.593-1.087c.06-.064.06-.128.06-.192 0-.128-.12-.192-.237-.256-3.914-2.1-5.93 1.8-5.93 6.33 0 5.882 3.974 6.713 6.227 4.923.12-.064.12-.192.12-.256l-.06-.767zm-9.727-5.05l2.728-5.307c.06-.064 0-.192-.06-.192H40.52c-.415 0-.534.128-.652.448s-2.135 4.86-2.372 5.05V5.678c0-.064-.06-.192-.12-.192h-1.483c-.06 0-.12.064-.12.192v11.764c0 .064.06.192.12.192h1.483c.12 0 .12-.064.12-.192V11.37c.178.128 2.67 5.7 2.728 5.882.12.256.356.384.652.384h1.483c.12 0 .12-.064.06-.192l-3.203-6.458zM26.225 16.1h-.297c-.356 0-.415-.128-.415-.448V5.678c0-.128-.06-.192-.12-.192h-4.567c-.12 0-.178.064-.178.192 0 2.685.06 7.16-1.6 10.422h-.474c-.12 0-.178.064-.178.192v3.517c0 .128.12.192.178.192h1.068c.237 0 .356-.192.356-.384v-1.982h4.804v2.174c0 .064.06.192.178.192h1.186c.12 0 .297-.128.297-.384v-3.325c-.06-.128-.12-.192-.237-.192h0zm-2.49 0h-3.32c.95-1.662 1.84-4.348 1.84-9.08h1.483v9.08zM30.85 5.23c-2.432 0-3.56 3.26-3.56 6.84 0 5.882 3.796 6.777 6.405 5.05.12-.064.12-.128.12-.192l-.178-.83c0-.064-.06-.128-.178-.128-.95 0-4.27 1.8-4.27-4.028 1.186.128 1.186.128 4.745.128-.06-2.94-.356-6.84-3.084-6.84h0zm-1.6 5.37c0-4.667 2.847-5.562 2.847-.128-1.245 0-1.78 0-2.847.128h0z" class="L"/></g><rect x="427" y="19" width="86" height="25" rx="3" class="P"/><g transform="translate(26 19)" class="C"><path d="M14.135 18.743l-1.74-1.232v1.7H2.48V4.8h9.917v2.827l2.48-3.277V2.4c0-1.326-1.11-2.4-2.48-2.4H2.48C1.11 0 0 1.074 0 2.4v19.2C0 22.925 1.11 24 2.48 24h9.917c1.37 0 2.48-1.075 2.48-2.4v-3.835l-.74.978z"/><path d="M12.43 16.286L6.125 11.83l1.903-2.39 3.842 2.715 6.65-7.868L21 6.147z"/></g><use xlink:href="#D" class="L O"/><use xlink:href="#D" class="D"/><g transform="translate(346 86)" fill="#febe12" class="K"><path d="M23.563 17.878c1.885 5.303-2.73 6.063-6.203 4.75-3.77-1.364-7.145-4.294-9.378-7.73-.657.014-1.312-.088-1.935-.303C7.288 18.23 7.834 21.97 7.487 25 7.487 18.887 4.66 12.774.6 7.722-.85 5.954.638 4.64 1.93 6.357c.873 1.245 1.67 2.544 2.382 3.9 1.44-5 8.335-9.346 13.05-10.053 10.866-1.667 3.92 7.83.546 10.458 2.332 1.82 4.664 4.345 5.657 7.225zm-7.592-5.8c-.49.34-1.005.644-1.538.91a14.96 14.96 0 0 1-4.565 1.716c1.885 2.223 4.565 4.345 7.393 5.153 1.637.455 3.473.252 2.778-2.122-.645-2.223-2.382-4.193-4.07-5.66v.002zM9.025 7.165c2.43-.303 4.863.808 6.847 2.02 2.084-1.312 8.532-8.436 2.53-7.78-3.473.404-7.69 3.688-9.378 5.76v-.001zM13.74 10.4c-1.34-.86-3.126-1.768-4.764-1.618-2.134.202-1.685 2.728.546 2.728 1.462-.094 2.893-.47 4.217-1.11h0z"/></g><rect x="427" y="86" width="86" height="25" rx="3" class="P"/><path d="M471.58 107v-2.26c1.218-.17 2.093-.542 2.624-1.12s.797-1.266.797-2.06c0-.53-.1-.988-.3-1.374a3.16 3.16 0 0 0-.826-1.003c-.35-.283-.76-.53-1.234-.74l-1.506-.606-1.01-.353c-.298-.115-.55-.235-.758-.362s-.363-.27-.467-.434-.156-.365-.156-.606c0-.4.175-.732.525-.967s.875-.353 1.575-.353c.66 0 1.247.06 1.76.18l1.332.38.486-1.8c-.285-.108-.674-.22-1.166-.334s-1.05-.196-1.672-.244h0V91h-2.022v2.025c-1.102.17-1.918.545-2.45 1.13s-.797 1.293-.797 2.124c0 .506.097.934.292 1.284s.45.648.768.895a4.8 4.8 0 0 0 1.069.624l1.195.452 1.176.416c.356.133.664.277.923.434a1.94 1.94 0 0 1 .603.542c.143.205.214.446.214.723 0 .4-.172.738-.515.985s-.962.37-1.856.37c-.752 0-1.422-.078-2.012-.235s-1.092-.33-1.506-.524h0l-.66 1.718c.285.145.716.304 1.293.48s1.332.292 2.265.353h0V107h2.022z" class="D K"/><use xlink:href="#E" class="L O"/><use xlink:href="#E" class="D"/><use xlink:href="#F" class="L O"/><use xlink:href="#F" class="D"/><g stroke="#42be65" stroke-width=".322" class="B"><rect x="427" y="152" width="86" height="25" rx="3"/><rect x="427" y="216" width="86" height="25" rx="3"/></g><g transform="translate(460 156)" class="P"><path d="M19.8.01L1.238 3.913C.816 4 .5 4.316.448 4.7s.17.756.557.932l5.272 2.392.54 4.8c.043.386.352.706.77.8s.863-.055 1.106-.374l.16-.146L7.786 9.44c-.045-.477.22-.935.68-1.18l4.58-2.424-3.66 3.16a.86.86 0 0 0-.287.869l1.67 6.443c.096.377.45.66.88.706s.846-.152 1.044-.498L21.412 1.3c.042-.056.076-.116.102-.18.09-.213.035-.54-.07-.763-.13-.276-.677-.392-1.645-.348z"/><path d="M19.8 62.988L1.238 66.89c-.42.087-.737.403-.8.786s.17.756.557.932l5.272 2.392.54 4.8c.043.386.352.706.77.8s.863-.055 1.106-.374l.16-.146-1.066-3.663c-.045-.477.22-.935.68-1.18l4.58-2.424-3.66 3.16a.86.86 0 0 0-.287.869l1.67 6.443c.096.377.45.66.88.706s.846-.152 1.044-.498l8.72-15.217c.042-.056.076-.116.102-.18.09-.213.035-.54-.07-.763-.13-.276-.677-.392-1.645-.348z"/></g><g transform="translate(23 220)" class="C"><path d="M6.087 10.59L1.74 6.177V1.765h9.565l4.348 4.412v4.412H6.087zM17.39 0H0v12.353h17.39V0z"/><path d="M8.696 3.53c-1.44 0-2.61 1.185-2.61 2.647s1.168 2.647 2.61 2.647 2.61-1.185 2.61-2.647-1.168-2.647-2.61-2.647"/><path d="M18.26 3.53v9.706H3.478V15H20V3.53z"/></g><g fill="#f4f2ee"><rect x="167" y="159" width="106" height="11" rx="3.6"/><rect x="167" y="223" width="106" height="11" rx="3.6"/><rect x="81" y="26" width="66" height="11" rx="3.6"/><rect x="81" y="93" width="66" height="11" rx="3.6"/><rect x="81" y="159" width="66" height="11" rx="3.6"/><rect x="81" y="223" width="66" height="11" rx="3.6"/><rect x="298" y="159" width="82" height="11" rx="3.6"/><rect x="298" y="223" width="82" height="11" rx="3.6"/></g><path d="M471.58 40v-2.26c1.218-.17 2.093-.542 2.624-1.12s.797-1.266.797-2.06c0-.53-.1-.988-.3-1.374a3.16 3.16 0 0 0-.826-1.003c-.35-.283-.76-.53-1.234-.74l-1.506-.606-1.01-.353c-.298-.115-.55-.235-.758-.362s-.363-.27-.467-.434-.156-.365-.156-.606c0-.4.175-.732.525-.967s.875-.353 1.575-.353c.66 0 1.247.06 1.76.18l1.332.38.486-1.8c-.285-.108-.674-.22-1.166-.334s-1.05-.196-1.672-.244h0V24h-2.022v2.025c-1.102.17-1.918.545-2.45 1.13s-.797 1.293-.797 2.124c0 .506.097.934.292 1.284s.45.648.768.895a4.8 4.8 0 0 0 1.069.624l1.195.452 1.176.416c.356.133.664.277.923.434a1.94 1.94 0 0 1 .603.542c.143.205.214.446.214.723 0 .4-.172.738-.515.985s-.962.37-1.856.37c-.752 0-1.422-.078-2.012-.235s-1.092-.33-1.506-.524h0l-.66 1.718c.285.145.716.304 1.293.48s1.332.292 2.265.353h0V40h2.022z" class="D K"/><g class="C"><g transform="translate(22 154)"><path d="M19.25 14.875h-7v-1.75h7v1.75zm0 3.5H8.75v-1.75h10.5v1.75zm-4.737-12.25L7.428 13.2l-1.85.462.462-1.85 7.085-7.085 1.388 1.388zm1.237-4.013L17.138 3.5 15.75 4.888 14.362 3.5l1.388-1.388zM16.112 7l2.88-2.88c.342-.343.342-.896 0-1.238L16.37.256c-.342-.342-.895-.342-1.237 0l-2.006 2.006-1.13-1.13c-.342-.342-.895-.342-1.237 0L8.13 3.756 9.37 4.995l2.006-2.007.513.513-3.5 3.5H0v14h21V7h-4.888z"/></g><g transform="translate(22 90)"><path d="M21 3.557v-1.78C21 .797 20.215 0 19.25 0H1.75C.785 0 0 .797 0 1.778v1.78h21z"/><path d="M0 7.113v7.11C0 15.203.785 16 1.75 16h17.5c.965 0 1.75-.797 1.75-1.778v-7.11H0z"/></g></g><g transform="translate(302 87)"><g fill="#3498d8"><path d="M26.825.523H1.788C.805.523 0 1.464 0 2.614v17.773c0 1.15.805 2.09 1.788 2.09h25.037c.984 0 1.788-.94 1.788-2.09V2.614c0-1.15-.805-2.09-1.788-2.09z"/></g><g transform="translate(2.384 7.36)" class="D"><path d="M3.356 4.45H4.77l-.707-2.07-.707 2.07zM23.05.518h-3.62l-.883 1.14L17.75.518h-7.683L9.36 2.38 8.655.518h-3.09v.828L5.2.518H2.56L0 7.763h3.09l.353-1.14h.883l.353 1.14h3.444v-.828l.265.828h1.766l.265-.93v.93h7.065l.883-1.14.795 1.14h3.62L20.49 4.14 23.05.518zm-10.686 6.2h-.97V2.69l-1.5 4.037h-.883l-1.5-4.036v4.037h-2.03L5.122 5.59h-2.12L2.65 6.728H1.5l1.855-5.175h1.5l1.678 4.865V1.553h1.678l1.325 3.52 1.236-3.52h1.678v5.175h-.088zm8.743 0h-1.325l-1.148-1.76-1.325 1.76h-3.974V1.553h4.062l1.236 1.656 1.325-1.656h1.236L19.252 4.14l1.855 2.588zm-6.8-4.14v.932h2.208v1.035h-2.208V5.59h2.473l1.148-1.553-1.06-1.45h-2.56z"/></g></g><g transform="translate(258 17)"><g transform="translate(.097 .016)"><g transform="translate(0 .093)"><mask id="O" class="D"><use xlink:href="#G"/></mask><path d="M26.954 4.217v18.47a4.22 4.22 0 0 1-4.226 4.167h-18.5A4.22 4.22 0 0 1 0 22.644V4.217A4.22 4.22 0 0 1 4.226.006h18.5a4.22 4.22 0 0 1 4.226 4.21" fill="#5b9edd" mask="url(#O)"/></g><g transform="translate(1.79 3.66)" class="D"><mask id="P"><use xlink:href="#H"/></mask><path d="M5.268 17.1c-3.593 0-4.15-2.017-4.21-3.222-.06-1.053.656-3.03 4.712-3.03 1.51 0 3.902.767 6.59 1.885-1.518 1.987-3.95 4.367-7.09 4.367m10.954-5.57c1.385-2.65 2.303-5.445 2.303-5.445H13.18V4.2h6.588V3.067H13.18V.05h-3.067v3.018h-6.59V4.2h6.59v1.876h-5.54V7.09H15.28s-.594 1.817-1.59 3.616c-2.872-.884-5.522-1.5-7.65-1.5-5.1 0-6.233 2.553-5.992 4.888.195 1.863 1.586 4.583 5.837 4.583 3.883 0 7.018-2.217 8.947-4.857 3.68 1.688 7.565 3.767 10.33 5.3v-4.43l-8.94-3.16" mask="url(#P)"/></g></g></g><g transform="translate(297 25)"><g transform="translate(0 .32)"><g class="R"><path d="M19.577 2.828H16.68a.4.4 0 0 0-.398.334l-1.172 7.29c-.023.144.1.274.24.274h1.383a.4.4 0 0 0 .398-.334l.316-1.966a.4.4 0 0 1 .397-.334h.917c1.908 0 3-.906 3.298-2.702.13-.786.005-1.403-.37-1.835-.412-.475-1.142-.726-2.112-.726zM19.91 5.5c-.158 1.02-.953 1.02-1.72 1.02h-.437l.307-1.905a.24.24 0 0 1 .239-.2h.2c.523 0 1.017 0 1.272.293.152.175.2.434.14.792h0z"/><path d="M28.237 5.458H26.85a.24.24 0 0 0-.239.2l-.06.38-.097-.138c-.3-.428-.97-.57-1.64-.57-1.533 0-2.843 1.14-3.098 2.738-.133.797.056 1.56.517 2.092.423.49 1.028.693 1.747.693 1.235 0 1.92-.78 1.92-.78l-.062.378c-.023.145.1.274.238.274h1.25a.4.4 0 0 0 .398-.334l.75-4.66c.024-.143-.09-.274-.238-.274zm-1.934 2.65c-.134.778-.763 1.3-1.565 1.3-.403 0-.725-.127-.932-.367s-.283-.578-.218-.957c.125-.77.765-1.3 1.555-1.3.394 0 .714.13.925.37s.295.587.235.963h0z"/><path d="M35.627 5.458h-1.394c-.133 0-.258.065-.333.173L31.976 8.4l-.815-2.67c-.05-.167-.208-.282-.386-.282h-1.37c-.167 0-.282.16-.23.313l1.536 4.423-1.444 2c-.114.158.001.374.197.374h1.393c.132 0 .256-.063.33-.17l4.637-6.57c.11-.157-.003-.372-.198-.372"/></g><g fill="#298fc2"><path d="M40.242 2.828h-2.898a.4.4 0 0 0-.397.334l-1.172 7.29c-.023.144.1.274.238.274H37.5a.28.28 0 0 0 .278-.234l.333-2.067a.4.4 0 0 1 .397-.334h.917c1.91 0 3-.906 3.298-2.702.13-.786.005-1.403-.37-1.835-.41-.475-1.14-.726-2.11-.726zm.334 2.663c-.158 1.02-.952 1.02-1.72 1.02h-.437l.307-1.905a.24.24 0 0 1 .238-.2h.2c.523 0 1.017 0 1.272.293.152.175.198.434.14.792h0z"/><path d="M48.903 5.458h-1.387c-.12 0-.22.085-.238.2l-.06.38-.097-.138c-.3-.428-.97-.57-1.638-.57-1.533 0-2.842 1.14-3.097 2.738-.132.797.055 1.56.516 2.092.424.49 1.028.693 1.748.693 1.235 0 1.92-.78 1.92-.78l-.062.378c-.023.145.1.274.24.274h1.25a.4.4 0 0 0 .397-.334l.75-4.66c.023-.143-.09-.274-.24-.274zm-1.934 2.65c-.133.778-.763 1.3-1.565 1.3-.402 0-.725-.127-.932-.367s-.282-.578-.218-.957c.126-.77.765-1.3 1.555-1.3.394 0 .714.13.925.37s.296.587.235.963h0z"/><path d="M50.538 3.028l-1.19 7.424c-.023.144.1.274.238.274h1.196a.4.4 0 0 0 .398-.334l1.173-7.3c.023-.144-.1-.274-.238-.274h-1.34a.24.24 0 0 0-.238.2"/></g><path d="M3.078 12.142l.222-1.38-.494-.01H.45L2.087.56c.005-.03.022-.06.046-.08s.055-.032.087-.032h3.974c1.32 0 2.23.27 2.705.8.223.25.365.5.433.797.072.3.073.66.003 1.1l-.005.032v.28l.223.124c.188.098.337.21.45.337.19.213.314.484.366.806.054.33.036.724-.052 1.17-.102.512-.266.958-.488 1.323a2.74 2.74 0 0 1-.773.831c-.295.205-.645.36-1.04.46a5.29 5.29 0 0 1-1.302.148h-.31a.95.95 0 0 0-.604.218c-.17.143-.28.338-.315.552l-.023.124-.39 2.434-.018.09c-.005.028-.013.042-.025.052s-.026.015-.04.015h-1.91" class="R"/><path d="M9.764 3.21l-.04.23C9.2 6.078 7.407 7 5.117 7H3.95c-.28 0-.516.2-.56.47l-.766 4.768c-.028.178.11.338.294.338h2.068c.245 0 .453-.175.49-.412l.02-.103.39-2.425.025-.133c.038-.238.247-.412.49-.412h.31c2.003 0 3.572-.798 4.03-3.108.19-.965.092-1.77-.414-2.337a1.97 1.97 0 0 0-.566-.428" fill="#298fc2"/><path d="M9.216 2.995l-.247-.062-.262-.05c-.314-.05-.66-.073-1.028-.073H4.564a.5.5 0 0 0-.215.048.49.49 0 0 0-.276.365L3.39 7.46c.044-.27.28-.47.56-.47h1.166c2.3 0 4.083-.913 4.607-3.553l.04-.23c-.133-.07-.276-.128-.43-.178l-.117-.036" fill="#22284f"/><path d="M4.073 3.223c.026-.163.133-.297.276-.364a.5.5 0 0 1 .215-.048h3.115c.37 0 .713.024 1.028.074l.262.05.247.062.118.036c.155.05.298.1.43.178.156-.976-.001-1.64-.54-2.242C8.633.305 7.563.022 6.194.022H2.22c-.28 0-.518.2-.56.47L.004 10.788c-.033.204.127.387.337.387h2.453l1.28-7.953" class="R"/></g></g><g transform="translate(215 91)"><path fill="#ff5f00" d="M8.316 12.474h6.143V1.496H8.316z"/><path d="M8.706 6.985c0-2.227 1.05-4.21 2.68-5.49C10.193.56 8.686.003 7.05.003 3.172.003.03 3.13.03 6.985s3.143 6.982 7.02 6.982c1.638 0 3.144-.558 4.338-1.493-1.633-1.278-2.68-3.262-2.68-5.49" fill="#eb001b"/><path d="M22.526 11.31v-.27h-.07l-.082.186-.082-.186h-.07v.27h.05v-.204l.077.176h.052l.077-.177v.205h.05zm-.45 0v-.225h.09v-.046h-.232v.046h.09v.225h.05zm.67-4.326c0 3.856-3.143 6.982-7.02 6.982-1.638 0-3.144-.558-4.338-1.493 1.633-1.278 2.68-3.262 2.68-5.49s-1.05-4.21-2.68-5.49C12.58.56 14.088.003 15.726.003c3.877 0 7.02 3.126 7.02 6.982h0z" fill="#f79e1b"/><path d="M36.766 7.015c0-.816.537-1.486 1.416-1.486.84 0 1.406.64 1.406 1.486S39.022 8.5 38.182 8.5c-.88 0-1.416-.67-1.416-1.486zm3.78 0v-2.32H39.53v.563c-.322-.418-.81-.68-1.475-.68-1.31 0-2.334 1.02-2.334 2.438s1.026 2.438 2.334 2.438c.664 0 1.153-.262 1.475-.68v.563h1.016V7.015zm34.302 0c0-.816.537-1.486 1.416-1.486.84 0 1.407.64 1.407 1.486S77.105 8.5 76.265 8.5c-.88 0-1.416-.67-1.416-1.486zm4.916 2.1v.073h.067c.015 0 .028-.003.037-.01s.014-.015.014-.028-.005-.02-.014-.027-.022-.01-.037-.01h-.067zm.068-.05c.035 0 .063.008.082.023s.03.037.03.064-.008.04-.023.056-.037.024-.065.027l.1.103h-.07l-.083-.102h-.027v.102h-.06v-.274h.127zm-.018.368c.032 0 .062-.006.1-.018a.24.24 0 0 0 .073-.049c.02-.02.037-.045.05-.073s.018-.058.018-.1-.006-.06-.018-.09-.028-.052-.05-.073-.045-.037-.073-.05-.058-.018-.1-.018-.063.006-.09.018a.23.23 0 0 0-.074.049c-.02.02-.037.045-.05.073a.23.23 0 0 0-.018.089.23.23 0 0 0 .018.09c.012.028.028.052.05.073s.045.037.074.05a.23.23 0 0 0 .091.018zm0-.524a.3.3 0 0 1 .117.023c.036.016.068.036.096.063a.3.3 0 0 1 .065.094c.016.036.024.074.024.114s-.008.08-.024.114a.3.3 0 0 1-.065.093.31.31 0 0 1-.096.064c-.037.016-.076.023-.117.023s-.082-.008-.12-.023-.07-.037-.096-.064a.3.3 0 0 1-.064-.093.28.28 0 0 1-.024-.114.28.28 0 0 1 .024-.114c.016-.036.037-.067.064-.094a.3.3 0 0 1 .096-.063.31.31 0 0 1 .119-.023zm-1.187-1.893V2.83h-1.016v2.428c-.322-.418-.81-.68-1.475-.68-1.31 0-2.334 1.02-2.334 2.438s1.026 2.438 2.334 2.438c.664 0 1.152-.262 1.475-.68v.563h1.016V7.015zM53.146 5.48c.654 0 1.074.408 1.182 1.127h-2.422c.107-.67.518-1.127 1.24-1.127zm.02-.903c-1.367 0-2.324.99-2.324 2.438 0 1.477.996 2.438 2.393 2.438.703 0 1.348-.175 1.914-.65l-.498-.748c-.39.31-.89.486-1.358.486-.654 0-1.25-.3-1.397-1.136h3.467l.02-.39c-.01-1.447-.908-2.438-2.217-2.438zm12.258 2.438c0-.816.537-1.486 1.416-1.486.84 0 1.406.64 1.406 1.486S67.68 8.5 66.84 8.5c-.88 0-1.416-.67-1.416-1.486zm3.78 0v-2.32h-1.016v.563c-.322-.418-.81-.68-1.475-.68-1.31 0-2.334 1.02-2.334 2.438s1.026 2.438 2.334 2.438c.664 0 1.153-.262 1.475-.68v.563h1.016V7.015zm-9.513 0c0 1.41.987 2.438 2.49 2.438.703 0 1.172-.156 1.68-.554l-.488-.816c-.38.272-.78.418-1.22.418-.81-.01-1.406-.593-1.406-1.486S61.34 5.54 62.15 5.53c.44 0 .84.145 1.22.418l.488-.816c-.508-.398-.977-.554-1.68-.554-1.504 0-2.49 1.03-2.49 2.438zm13.088-2.438c-.586 0-.967.272-1.23.68v-.563H70.54v4.643h1.016V6.733c0-.767.332-1.195.996-1.195.205 0 .42.03.635.117l.313-.952a2.18 2.18 0 0 0-.723-.126zm-27.21.486c-.488-.32-1.162-.486-1.905-.486-1.182 0-1.944.563-1.944 1.486 0 .758.566 1.224 1.612 1.37l.48.068c.557.078.82.223.82.486 0 .36-.37.563-1.065.563-.703 0-1.21-.223-1.553-.486l-.48.787c.557.408 1.26.602 2.022.602 1.348 0 2.13-.632 2.13-1.515 0-.816-.615-1.243-1.63-1.39l-.48-.068c-.44-.058-.79-.146-.79-.457 0-.34.332-.544.89-.544.596 0 1.172.223 1.455.398l.44-.816zm13.098-.486c-.586 0-.967.272-1.23.68v-.563h-1.006v4.643h1.016V6.733c0-.767.332-1.195.996-1.195.205 0 .42.03.635.117l.312-.952a2.18 2.18 0 0 0-.723-.126zM50 4.694h-1.66v-1.41h-1.026v1.41h-.948v.923h.948v2.118c0 1.078.42 1.72 1.62 1.72.44 0 .948-.136 1.27-.36l-.293-.865c-.303.175-.635.262-.9.262-.508 0-.674-.31-.674-.777V5.616H50v-.923zM34.822 9.337V6.423c0-1.098-.703-1.836-1.836-1.845-.596-.01-1.21.175-1.64.826-.322-.515-.83-.826-1.543-.826-.498 0-.986.146-1.367.7v-.573H27.42v4.643h1.026V6.763c0-.806.45-1.233 1.143-1.233.674 0 1.016.437 1.016 1.224v2.584h1.026V6.763c0-.806.47-1.233 1.143-1.233.693 0 1.026.437 1.026 1.224v2.584h1.026z" class="L"/></g><g transform="translate(167 19)" fill="#0dc803"><path d="M25.866 6.413c-.1-.147-.16-.15-.302-.066l-1.43.81-3.657 2.036-4.325 2.413-6.108 3.428c-.57.32-1.114.148-1.386-.434l-.687-1.458-1.777-3.8c-.11-.234-.068-.403.112-.55.17-.14.374-.138.584.007l2.85 1.968c.43.292.896.333 1.38.126l3.715-1.595 5.263-2.282 4.464-1.92c.193-.082.206-.144.07-.293-1.107-1.204-2.417-2.143-3.902-2.87-1.37-.67-2.81-1.12-4.314-1.373-.912-.154-1.834-.25-2.696-.202C12.476.32 11.322.46 10.176.7a15.43 15.43 0 0 0-2.677.812c-2.32.947-4.265 2.353-5.707 4.372C.624 7.52.017 9.335 0 11.322c-.008.918.136 1.822.413 2.707.546 1.746 1.538 3.218 2.872 4.5.455.433.95.82 1.455 1.195.313.232.42.546.33.898l-.6 2.137-.1.36a.41.41 0 0 0 .17.469c.175.12.37.09.557-.013l2.95-1.642c.287-.16.592-.277.932-.212l.748.183c1.065.28 2.153.417 3.253.454a17.22 17.22 0 0 0 3.333-.195c.922-.15 1.827-.357 2.7-.666 1.595-.563 3.07-1.338 4.37-2.41 1.81-1.494 3.08-3.313 3.647-5.568.306-1.217.34-2.444.14-3.672-.2-1.22-.655-2.36-1.31-3.423"/></g><g transform="translate(167 92)" fill="#16216a"><path d="M26.39.095c1.253 0 2.257.255 2.897.49h0l-.438 2.527-.29-.135c-.595-.236-1.362-.463-2.418-.447-1.265 0-1.852.52-1.852 1.003-.007.546.686.906 1.816 1.445 1.865.834 2.725 1.843 2.713 3.168-.025 2.423-2.23 3.985-5.628 3.985-1.45-.014-2.847-.296-3.6-.62h0l.454-2.61.416.184c1.062.435 1.75.612 3.04.612.93 0 1.927-.356 1.936-1.138.005-.51-.42-.875-1.677-1.446-1.227-.558-2.85-1.494-2.832-3.17.02-2.268 2.27-3.85 5.463-3.85zm11.164 0l2.573 12.04h-2.95l-.386-1.805c-.343 0-2.202-.003-3.296-.005l-.772-.001-.67 1.8h-3.338l4.72-11.04c.334-.784.903-1 1.665-1h2.454zM5.345 0c.714.026 1.292.244 1.5.978h0l1.152 5.328-.16-.37c.106.238.196.475.268.7h0l.34 1.67L11.6.095h3.426L9.933 12.13l-3.422.005-2.9-10.53C2.57 1.022 1.36.558 0 .24h0L.04 0zM19.59.095l-1.98 12.04h-3.156L16.428.095h3.16zm15.734 3.248l.215 1.04.736 3.48h-2.637l1.265-3.368c-.018.033.26-.698.42-1.15z"/></g><g transform="translate(206 22)" fill="#0b0b09"><g transform="translate(.171 .002)"><path d="M8.36 2.48C8.88 1.86 9.23 1 9.136.145c-.752.03-1.66.5-2.2 1.108-.483.547-.907 1.423-.792 2.263C6.98 3.58 7.837 3.1 8.36 2.48m1.88 5.435c.02 2.214 1.983 2.95 2.005 2.96-.017.052-.314 1.05-1.034 2.08-.623.89-1.27 1.78-2.287 1.797-1 .018-1.322-.58-2.465-.58s-1.5.563-2.447.6c-.982.036-1.73-.963-2.358-1.85C.37 11.103-.612 7.788.705 5.55c.654-1.11 1.822-1.815 3.09-1.833.965-.018 1.875.636 2.465.636s1.696-.786 2.86-.67c.487.02 1.854.193 2.732 1.45-.07.043-1.63.932-1.615 2.783"/><path d="M16.85 8.053c.226.065.48.11.76.138l.9.04c1.2 0 2.13-.276 2.788-.83s.99-1.362.99-2.427c0-.513-.086-.96-.26-1.342a2.41 2.41 0 0 0-.739-.938c-.32-.243-.7-.427-1.14-.552a5.33 5.33 0 0 0-1.459-.188l-1.1.05-.74.108v5.94zm-.94-6.63l1.28-.177a13.79 13.79 0 0 1 1.539-.079c.8 0 1.49.095 2.07.286s1.056.464 1.43.82a3.37 3.37 0 0 1 .75 1.125c.18.434.27.934.27 1.5 0 .684-.123 1.283-.37 1.796s-.583.944-1.01 1.293-.933.608-1.52.78a6.83 6.83 0 0 1-1.919.257c-.626 0-1.153-.046-1.58-.138v5.684h-.94V1.42z"/><path d="M29.776 9.493a13.16 13.16 0 0 0-1.589.059c-.553.053-1.062.168-1.53.345s-.853.437-1.16.78-.46.796-.46 1.362c0 .67.193 1.164.58 1.48a2 2 0 0 0 1.299.473 3.19 3.19 0 0 0 1.039-.158c.306-.106.573-.247.8-.425s.416-.378.57-.602.27-.454.35-.69c.067-.263.1-.454.1-.573V9.493zm.94 2.822l.02 1.145a7.36 7.36 0 0 0 .12 1.105h-.88l-.14-1.342h-.04c-.12.184-.273.37-.46.553s-.403.352-.65.503-.526.273-.84.365-.656.138-1.03.138c-.466 0-.876-.075-1.23-.227a2.52 2.52 0 0 1-.87-.592c-.226-.244-.396-.523-.51-.84s-.17-.63-.17-.947c0-1.118.476-1.98 1.43-2.585s2.39-.895 4.308-.868v-.257a6.05 6.05 0 0 0-.07-.859c-.047-.322-.15-.63-.3-.918s-.4-.533-.72-.73-.753-.296-1.3-.296a4.16 4.16 0 0 0-1.229.187 4.18 4.18 0 0 0-1.11.523l-.3-.69a4.46 4.46 0 0 1 1.319-.621 5.3 5.3 0 0 1 1.419-.188c.666 0 1.2.112 1.63.335s.75.513.99.868.403.753.5 1.194.13.878.13 1.312v3.73z"/><path d="M32.553 5.092l2.438 6.158.38 1.056.32.997h.04l.32-.977.4-1.116 2.28-6.118h1L36.95 12.04l-.8 2.003-.75 1.62a11.6 11.6 0 0 1-.77 1.273 5.32 5.32 0 0 1-.87.967c-.373.33-.716.57-1.03.72l-.63.286-.32-.77c.24-.105.506-.243.8-.414s.58-.395.86-.67c.24-.237.503-.55.79-.937s.543-.86.77-1.412c.08-.2.12-.35.12-.414 0-.092-.04-.23-.12-.414l-3.458-8.783h1"/></g></g></g><g filter="url(#I)"><g filter="url(#J)"><rect fill="#e6e7e7" x="1" width="534" height="343" rx="4.546"/><g stroke="#fff" class="B M"><circle cx="21.836" cy="14.5" r="6.5"/><circle cx="39.836" cy="14.5" r="6.5"/><circle cx="57.836" cy="14.5" r="6.5"/></g><g transform="translate(.336 27)"><mask id="Q" class="D"><use xlink:href="#K"/></mask><use xlink:href="#K" class="D"/><g opacity=".92" class="N"><g transform="translate(252.664 55)"><g transform="translate(115.479)"><path d="M115.258 57.877V.065H57.656l.006.68c.506 31.322 25.71 56.618 56.92 57.126l.677.006z" fill="#2ac2ff"/><path d="M115.258 59.197v57.81H57.656l.006-.68c.506-31.322 25.71-56.618 56.92-57.126l.677-.006z" fill="#00173a"/><path d="M57.656 117.01v-57.81H.054l.006.68c.506 31.322 25.71 56.618 56.92 57.126l.677.006z" class="S"/><ellipse fill="#005b11" cx="28.855" cy="28.971" rx="28.801" ry="28.906"/><ellipse cx="28.855" cy="146.119" rx="28.801" ry="28.906" class="Q"/></g><path d="M59.21 175.216v-58.002H0l.006.682c.52 31.425 26.43 56.805 58.5 57.315l.696.006z" fill="#005b11"/><path d="M59.21 0v58.002H0l.006-.682C.526 25.895 26.435.515 58.516.006L59.21 0z" fill="#0064ff"/><path d="M59.21 58.002V0h59.21l-.006.682c-.52 31.425-26.43 56.805-58.5 57.315l-.696.006z" fill="#00173a"/><path d="M59.21 59.21v58.002H0l.006-.682c.52-31.425 26.43-56.805 58.5-57.315l.696-.006z" class="Q"/><ellipse fill="#ff7800" transform="matrix(1 0 0 -1 0 292.428792)" cx="87.608" cy="146.214" rx="28.397" ry="29.001"/></g></g><g class="K N"><path d="M70.335 144.02v-6.27H55.97v-26.155h-7.3v32.425h21.663zm15.16.655c1.84 0 3.5-.312 4.983-.936a10.95 10.95 0 0 0 3.813-2.644c1.06-1.14 1.872-2.51 2.433-4.117s.842-3.377.842-5.31-.296-3.696-.89-5.287-1.42-2.948-2.48-4.07-2.332-1.996-3.813-2.62-3.11-.936-4.89-.936c-1.747 0-3.36.312-4.843.936s-2.76 1.497-3.837 2.62-1.918 2.48-2.527 4.07-.912 3.353-.912 5.287.296 3.704.89 5.31 1.42 2.98 2.48 4.117a10.95 10.95 0 0 0 3.813 2.644c1.482.624 3.127.936 4.936.936zm0-5.99c-1.59 0-2.823-.632-3.696-1.895s-1.3-2.97-1.3-5.123.437-3.844 1.3-5.077 2.106-1.848 3.696-1.848 2.815.616 3.673 1.848 1.287 2.924 1.287 5.077-.43 3.86-1.287 5.123-2.082 1.895-3.673 1.895zm28.4 5.99c1.84 0 3.5-.312 4.983-.936a10.95 10.95 0 0 0 3.813-2.644c1.06-1.14 1.872-2.51 2.433-4.117s.842-3.377.842-5.31-.296-3.696-.89-5.287-1.42-2.948-2.48-4.07-2.332-1.996-3.813-2.62-3.11-.936-4.89-.936c-1.747 0-3.36.312-4.843.936s-2.76 1.497-3.837 2.62-1.918 2.48-2.527 4.07-.912 3.353-.912 5.287.296 3.704.89 5.31 1.42 2.98 2.48 4.117a10.95 10.95 0 0 0 3.813 2.644c1.482.624 3.127.936 4.936.936zm0-5.99c-1.59 0-2.823-.632-3.696-1.895s-1.3-2.97-1.3-5.123.437-3.844 1.3-5.077 2.106-1.848 3.696-1.848 2.815.616 3.673 1.848 1.287 2.924 1.287 5.077-.43 3.86-1.287 5.123-2.082 1.895-3.673 1.895zm24.424 5.334v-10.76c.78.624 1.567 1.388 2.363 2.293l2.27 2.83 2.035 2.948 1.708 2.7h8l-1.965-3.416-2.573-3.743-2.9-3.626c-.998-1.17-1.965-2.176-2.9-3.018l5.17-5.357 4.843-5.45h-8.282l-1.567 1.872-1.942 2.27-2.13 2.4-2.13 2.34v-20.587l-6.972 1.123v35.185h6.972zm23.582-27.605c1.123 0 2.098-.367 2.924-1.1s1.24-1.74 1.24-3.018-.413-2.285-1.24-3.018-1.8-1.1-2.924-1.1-2.098.367-2.924 1.1-1.24 1.74-1.24 3.018.413 2.285 1.24 3.018 1.8 1.1 2.924 1.1zm3.51 27.605V119.4h-6.972v24.61h6.972zm13.522 0v-18.996l1.497-.164 1.59-.07c1.622 0 2.73.468 3.322 1.404s.89 2.527.89 4.772h0v13.054h6.972v-13.896c0-1.684-.172-3.213-.515-4.585s-.92-2.558-1.73-3.556-1.91-1.77-3.3-2.316-3.127-.82-5.217-.82a37.68 37.68 0 0 0-5.895.444l-4.585.96v23.77h6.972zm29.3 8.796c4.273 0 7.432-.975 9.475-2.924s3.065-4.936 3.065-8.96h0v-20.68l-2.13-.538-2.503-.444-2.644-.304-2.597-.117c-1.965 0-3.728.29-5.287.866s-2.878 1.396-3.954 2.456-1.895 2.332-2.456 3.813-.842 3.127-.842 4.936c0 3.618.905 6.433 2.714 8.445s4.414 3.018 7.814 3.018c.936 0 1.8-.086 2.597-.257s1.567-.43 2.316-.772h0v.89c0 1.372-.413 2.495-1.24 3.37s-2.238 1.3-4.234 1.3c-1.528 0-2.893-.125-4.094-.374s-2.347-.593-3.44-1.03h0l-1.217 5.85a27.99 27.99 0 0 0 4.164 1.053c1.497.265 2.994.398 4.492.398zm1.965-16.048c-3.15 0-4.726-1.95-4.726-5.85 0-1.872.452-3.416 1.357-4.632s2.277-1.825 4.117-1.825l1.638.07 1.217.164v11.136c-.437.25-.967.468-1.59.655a6.97 6.97 0 0 1-2.012.281zm-158.52 16.865c1.123 0 2.098-.367 2.924-1.1s1.24-1.74 1.24-3.018-.413-2.285-1.24-3.018-1.8-1.1-2.924-1.1-2.098.367-2.924 1.1-1.24 1.74-1.24 3.018.413 2.285 1.24 3.018 1.8 1.1 2.924 1.1zm3.51 27.605v-24.61h-6.972v24.61h6.972zm13.522 0v-18.996l1.497-.164 1.59-.07c1.622 0 2.73.468 3.322 1.404s.89 2.527.89 4.772h0v13.054h6.972v-13.896c0-1.684-.172-3.213-.515-4.585s-.92-2.558-1.73-3.556-1.91-1.77-3.3-2.316-3.127-.82-5.217-.82a37.68 37.68 0 0 0-5.895.444l-4.585.96v23.77h6.972zm30.085.56c1.497 0 2.76-.125 3.8-.374s1.965-.546 2.807-.89h0l-.983-5.427c-.655.25-1.38.444-2.176.585a13.32 13.32 0 0 1-2.316.211c-1.56 0-2.597-.437-3.11-1.3s-.772-2.043-.772-3.51h0v-8.656h8.375v-5.802h-8.375v-7.252L89.05 150.5v20.68c0 1.59.148 3.04.444 4.35s.82 2.425 1.567 3.345 1.747 1.638 2.994 2.152 2.823.772 4.726.772zm21.29.094c1.84 0 3.5-.312 4.983-.936a10.95 10.95 0 0 0 3.813-2.644c1.06-1.14 1.872-2.51 2.433-4.117s.842-3.377.842-5.31-.296-3.696-.89-5.287-1.42-2.948-2.48-4.07-2.332-1.996-3.813-2.62-3.11-.936-4.89-.936c-1.747 0-3.36.312-4.843.936s-2.76 1.497-3.837 2.62-1.918 2.48-2.527 4.07-.912 3.353-.912 5.287.296 3.704.89 5.31 1.42 2.98 2.48 4.117a10.95 10.95 0 0 0 3.813 2.644c1.482.624 3.127.936 4.936.936zm0-5.99c-1.59 0-2.823-.632-3.696-1.895s-1.3-2.97-1.3-5.123.437-3.844 1.3-5.077 2.106-1.848 3.696-1.848 2.815.616 3.673 1.848 1.287 2.924 1.287 5.077-.43 3.86-1.287 5.123-2.082 1.895-3.673 1.895zm38.18 5.895c1.497 0 2.76-.125 3.8-.374s1.965-.546 2.807-.89h0l-.983-5.427c-.655.25-1.38.444-2.176.585a13.32 13.32 0 0 1-2.316.211c-1.56 0-2.597-.437-3.11-1.3s-.772-2.043-.772-3.51h0v-8.656h8.375v-5.802h-8.375v-7.252l-6.972 1.123v20.68c0 1.59.148 3.04.444 4.35s.82 2.425 1.567 3.345 1.747 1.638 2.994 2.152 2.823.772 4.726.772zm18.248-.56v-18.715l1.474-.35c.546-.11 1.13-.164 1.755-.164 1.56 0 2.628.468 3.205 1.404s.866 2.527.866 4.772h0v13.054h6.972v-13.896c0-1.684-.164-3.213-.49-4.585s-.89-2.558-1.684-3.556-1.856-1.77-3.182-2.316-2.987-.82-4.983-.82c-.686 0-1.396.07-2.13.21s-1.333.29-1.8.444h0v-11.79l-6.972 1.123v35.185h6.972zm32.425.655a24.58 24.58 0 0 0 2.62-.14l2.456-.35a19.59 19.59 0 0 0 2.082-.491c.624-.187 1.123-.374 1.497-.56h0l-.936-5.66c-.78.343-1.786.632-3.018.866s-2.488.35-3.767.35c-1.996 0-3.587-.42-4.772-1.263a4.63 4.63 0 0 1-2.012-3.416H218.9l.094-1.287.047-1.333c0-4.15-1.014-7.29-3.04-9.428s-4.788-3.205-8.282-3.205c-1.497 0-2.956.28-4.375.842s-2.675 1.388-3.767 2.48-1.973 2.456-2.644 4.094-1.006 3.548-1.006 5.732c0 1.81.257 3.494.772 5.053s1.3 2.91 2.386 4.047 2.433 2.035 4.07 2.7 3.564.983 5.778.983zm3.37-15.44h-9.217a9.98 9.98 0 0 1 .444-1.755 4.71 4.71 0 0 1 .866-1.521c.374-.437.842-.788 1.404-1.053s1.232-.398 2.012-.398c.81 0 1.49.14 2.035.42s.998.64 1.357 1.076.624.936.795 1.497.273 1.14.304 1.73h0zM55.97 218.457v-13.382h12.82v-6.13H55.97v-6.784h14.41v-6.13h-21.7v32.425h7.3zm28.682.56a37.68 37.68 0 0 0 5.895-.444l4.585-.96v-23.77h-6.972v18.996l-1.497.164-1.59.07c-1.622 0-2.73-.5-3.322-1.497s-.89-2.62-.89-4.866h0v-12.867H73.89v13.71c0 1.684.172 3.228.515 4.632s.92 2.612 1.73 3.626 1.91 1.8 3.3 2.363 3.127.842 5.217.842zm26.53 0c1.497 0 2.76-.125 3.8-.374s1.965-.546 2.807-.89h0l-.983-5.427c-.655.25-1.38.444-2.176.585a13.32 13.32 0 0 1-2.316.211c-1.56 0-2.597-.437-3.11-1.3s-.772-2.043-.772-3.51h0v-8.656h8.375v-5.802h-8.375v-7.252l-6.972 1.123v20.68c0 1.59.148 3.04.444 4.35s.82 2.425 1.567 3.345 1.747 1.638 2.994 2.152 2.823.772 4.726.772zm21.804 0a37.68 37.68 0 0 0 5.895-.444l4.585-.96v-23.77h-6.972v18.996l-1.497.164-1.59.07c-1.622 0-2.73-.5-3.322-1.497s-.89-2.62-.89-4.866h0v-12.867h-6.972v13.71c0 1.684.172 3.228.515 4.632s.92 2.612 1.73 3.626 1.91 1.8 3.3 2.363 3.127.842 5.217.842zm24.003-.56v-18.81c.312-.094.772-.18 1.38-.257s1.13-.117 1.567-.117a13.59 13.59 0 0 1 2.714.257l2.2.49 1.17-5.755c-.374-.156-.827-.29-1.357-.398l-1.59-.28-1.59-.187-1.357-.07c-2.1 0-3.985.195-5.685.585l-4.422 1.24v23.3h6.972zm24.143.655a24.58 24.58 0 0 0 2.62-.14l2.456-.35a19.59 19.59 0 0 0 2.082-.491c.624-.187 1.123-.374 1.497-.56h0l-.936-5.66c-.78.343-1.786.632-3.018.866s-2.488.35-3.767.35c-1.996 0-3.587-.42-4.772-1.263a4.63 4.63 0 0 1-2.012-3.416h15.815l.094-1.287.047-1.333c0-4.15-1.014-7.29-3.04-9.428s-4.788-3.205-8.282-3.205c-1.497 0-2.956.28-4.375.842s-2.675 1.388-3.767 2.48-1.973 2.456-2.644 4.094-1.006 3.548-1.006 5.732c0 1.81.257 3.494.772 5.053s1.3 2.91 2.386 4.047 2.433 2.035 4.07 2.7 3.564.983 5.778.983zm3.37-15.44h-9.217a9.98 9.98 0 0 1 .444-1.755 4.71 4.71 0 0 1 .866-1.521c.374-.437.842-.788 1.404-1.053s1.232-.398 2.012-.398c.81 0 1.49.14 2.035.42s.998.64 1.357 1.076.624.936.795 1.497.273 1.14.304 1.73h0z" class="L"/><g class="Q"><path d="M66.498 88.378v-2.686h-15.41v-.094c0-.754.18-1.516.542-2.286s.848-1.555 1.46-2.356 1.304-1.602 2.074-2.403l2.38-2.38 2.875-2.828c.943-.943 1.783-1.916 2.52-2.922s1.327-2.05 1.767-3.134.66-2.24.66-3.464c0-2.765-.8-4.925-2.403-6.48s-4-2.333-7.163-2.333c-1.194 0-2.278.15-3.252.448s-1.83.652-2.568 1.06-1.35.825-1.838 1.25l-1.013.966 1.602 2.12c.19-.19.487-.456.895-.8s.903-.683 1.485-1.013 1.265-.62 2.05-.872 1.68-.377 2.686-.377c1.79 0 3.275.48 4.454 1.437s1.767 2.537 1.767 4.736c0 1.005-.157 1.932-.47 2.78s-.738 1.65-1.272 2.403-1.155 1.484-1.862 2.19l-2.24 2.19-2.945 2.828a24.1 24.1 0 0 0-2.781 3.158 17.47 17.47 0 0 0-2.05 3.605c-.534 1.272-.8 2.647-.8 4.124l.024.778.024.353h18.804zm17.25.707c3.33 0 5.914-1.46 7.752-4.383s2.757-7.132 2.757-12.63c0-5.53-.92-9.755-2.757-12.677s-4.422-4.383-7.752-4.383c-3.362 0-5.954 1.46-7.776 4.383s-2.733 7.148-2.733 12.677c0 5.498.92 9.708 2.757 12.63s4.422 4.383 7.752 4.383zm0-2.78c-1.382 0-2.53-.393-3.44-1.178s-1.642-1.83-2.19-3.134-.943-2.812-1.178-4.524-.353-3.51-.353-5.396.118-3.684.353-5.396.628-3.228 1.178-4.548 1.28-2.372 2.19-3.158 2.058-1.178 3.44-1.178c1.35 0 2.482.393 3.393 1.178s1.65 1.838 2.215 3.158.966 2.835 1.202 4.548.353 3.51.353 5.396-.118 3.684-.353 5.396-.636 3.22-1.202 4.524-1.304 2.348-2.215 3.134-2.042 1.178-3.393 1.178zm35.91 2.074v-2.686h-15.41v-.094c0-.754.18-1.516.542-2.286s.848-1.555 1.46-2.356 1.304-1.602 2.074-2.403a84.99 84.99 0 0 1 2.38-2.38l2.875-2.828c.943-.943 1.783-1.916 2.52-2.922s1.327-2.05 1.767-3.134.66-2.24.66-3.464c0-2.765-.8-4.925-2.403-6.48s-4-2.333-7.163-2.333c-1.194 0-2.278.15-3.252.448s-1.83.652-2.568 1.06-1.35.825-1.838 1.25-.825.746-1.013.966h0l1.602 2.12c.19-.19.487-.456.895-.8s.903-.683 1.485-1.013 1.265-.62 2.05-.872 1.68-.377 2.686-.377c1.79 0 3.275.48 4.454 1.437s1.767 2.537 1.767 4.736c0 1.005-.157 1.932-.47 2.78s-.738 1.65-1.272 2.403-1.155 1.484-1.862 2.19l-2.24 2.19-2.945 2.828a24.1 24.1 0 0 0-2.781 3.158 17.47 17.47 0 0 0-2.05 3.605c-.534 1.272-.8 2.647-.8 4.124 0 .346.008.605.024.778a4.73 4.73 0 0 1 .024.353h18.804zm20.595 0V55.72h-2.168c-1.445 1.76-2.906 3.15-4.383 4.17s-3.158 1.862-5.043 2.52h0l.895 2.356a14.87 14.87 0 0 0 2.262-.872 35.02 35.02 0 0 0 2.168-1.131 18.2 18.2 0 0 0 1.862-1.202c.55-.408.998-.8 1.343-1.178h0v27.993h3.063z"/></g></g><rect x="232.386" y="261.177" width="76.129" height="16.917" rx="2" class="N Q"/><path d="M-86.12 153.63c31.14 19.234 50.234 65.34 57.283 138.315l.2 2.22-172.8 3.263c.318-35.238 3.928-63.2 10.83-83.916 3.526-10.578 15.406-29.418 35.64-56.52l.4-.52c26.5 1.404 49.385.23 68.367-2.83l.082-.015z" class="N S"/></g><g transform="translate(514.336 8)" stroke="#fff" class="B F M"><path d="M0 .62h11.812"/><path d="M0 6.816h11.812"/><path d="M0 13.013h11.812"/></g></g></g><g filter="url(#L)" transform="translate(268 105)"><g filter="url(#M)"><path d="M3.23 0h524.54A3.23 3.23 0 0 1 531 3.229V729.63a3.23 3.23 0 0 1-3.229 3.229H3.23A3.23 3.23 0 0 1 0 729.631V3.23A3.23 3.23 0 0 1 3.229 0z" fill="#e6e7e7"/><g stroke="#fff" class="B"><g stroke-width=".71"><ellipse cx="17.42" cy="13.827" rx="6.607" ry="6.613"/><ellipse cx="35.44" cy="13.827" rx="6.607" ry="6.613"/><ellipse cx="53.46" cy="13.827" rx="6.607" ry="6.613"/></g><g transform="translate(506.973 7.214)" stroke-width=".71" class="F"><path d="M0 .6h12.014"/><path d="M0 6.613h12.014"/><path d="M0 12.625h12.014"/></g></g></g><g transform="translate(0 28.773)"><path stroke="#f4f2ee" stroke-width=".64" d="M0 0h531v704.087H0z" class="D"/><rect x="198.441" y="632.856" width="117.696" height="34.246" rx="3" class="P"/><path d="M257.89 664.82v-4.128c2.223-.308 3.82-.99 4.788-2.047s1.454-2.31 1.454-3.764c0-.97-.183-1.805-.55-2.5s-.87-1.315-1.507-1.833-1.39-.97-2.252-1.354l-2.75-1.106-1.844-.644c-.544-.21-1.005-.43-1.383-.66s-.662-.495-.85-.792-.284-.666-.284-1.106c0-.748.32-1.337.958-1.767s1.596-.644 2.873-.644c1.206 0 2.276.1 3.2.33l2.43.693.887-3.27c-.52-.198-1.23-.402-2.128-.61s-1.915-.358-3.05-.446h0v-3.566h-3.69v3.698c-2 .308-3.5.996-4.47 2.064s-1.454 2.36-1.454 3.88c0 .925.177 1.706.532 2.344a5.34 5.34 0 0 0 1.401 1.635c.58.45 1.23.83 1.95 1.14l2.18.826 2.146.76c.65.242 1.212.506 1.685.792s.84.616 1.1.99.4.815.4 1.32a2.11 2.11 0 0 1-.94 1.8c-.627.45-1.756.677-3.387.677-1.372 0-2.595-.143-3.67-.43s-1.992-.605-2.75-.958h0l-1.206 3.137c.52.264 1.306.556 2.36.875s2.43.534 4.132.644h0v4.028h3.69z" class="D K"/><g transform="translate(213.753 55.515)"><path d="M0 0h100.112v100.197H0z" class="C"/><g opacity="1" transform="translate(10.823 28.434)"><path d="M54.346 37.9c6.672 0 14.866-.42 24.584-1.26l2.52-12.388H70.525l.84-18.057H10.852l-.37 10.013C3.494 14.26 0 15.177 0 18.956s3.127 6.035 9.38 6.766l2.1 9.658c21.904 1.68 36.192 2.52 42.864 2.52z" class="S"/><g fill="#212121"><path d="M45.738 5.97c-.302 5.273 4.38 6.615 5.68 1.76 1-3.703-4.408-4.054-6.1-1.76"/><path d="M63.374 5.13c.092 1.122.024 2.27.275 3.366 1.088 4.76 7.027.142 3.877-3.836"/></g><path d="M72.88 0c1.295 0-.237 11.57-1.05 13.89-1.03 2.945-3.466 2.3-6.093 2.3-.838 0-1.557-.028-2.19-.1-1.09-1.328-2.506-2.81-4.044-4.15l-1.172-.974.29 1.706-.375-.594c-1.592 4.022-4.8 5.162-8.7 5.162C40.56 17.25 36.97 10.39 38.41 0h34.47zM55.002 4.687H42.846l-.004.06c-.154 2.495.13 4.43.796 5.818l.4.7c1.06 1.566 2.946 2.382 5.937 2.382 2.036 0 3.437-1.3 4.33-4.522l.24-.97.172-.99a37.77 37.77 0 0 0 .168-1.329l.116-1.15zm14.438 0h-9.004c1.278 5.245 2.966 7.525 6.1 7.865l.882.046c.127 0 .193-.027.313-.14.252-.24.53-.714.783-1.44.414-1.182.703-2.84.852-4.96l.075-1.37z" fill="#ff0025" class="K"/><g stroke="#212121" class="B F J"><path d="M59.73 13.5c4.226 3.34 7.973 8.202 7.33 9.004-.84 1.05-3.88 1.266-4.623.84-.596-.342-.327.122-.327 4.036"/><path d="M50.5 24.096c4.948 3.673 10.44 4.14 15.865 3.025"/></g><g stroke="#001d75" class="B F J"><path d="M55.8 33.525c1.06 4.24 3.562 6.914 6.2 10.464"/><path d="M60.127 33.063c2.894 9.162 2.25 5.254 2.907 11.52"/><path d="M63.727 33.723c.865 8.907.76 5.203.76 11.09"/><path d="M67.56 33.723l-1.982 12.18"/><path d="M70.235 34.054c-.238 4.318-1.376 7.76-3.535 11.487"/><path d="M73.175 33.624c-.395 4.212-1.595 8.268-4.427 11.553"/><path d="M74.794 38.147c-3.5 4.69-3.92 6.128-9.15 7.36"/></g><path d="M50.854 22.563c-.317.85-.947 1.69-1.998 1.74" stroke="#212121" class="B F J"/></g></g><g transform="translate(21.646 318.652)"><rect y="16.331" width="234.046" height="22.747" rx="1.28" class="B C E G H"/><rect y=".083" width="86.583" height="11.915" rx="4.044" class="I"/></g><g transform="translate(21.646 498.465)"><rect y="16.602" width="484.326" height="79.074" rx="1.28" class="B C E G H"/><rect y=".083" width="86.583" height="11.915" rx="4.044" class="I"/></g><g transform="translate(21.646 369.563)"><g class="C"><rect y="16.331" width="18.399" height="18.415" rx="5.44" class="B E G H"/><rect x="3.247" y="19.581" width="11.905" height="11.915" rx="5.44"/><g class="B G H E"><rect y="40.162" width="18.399" height="18.415" rx="5.44"/><rect y="63.993" width="18.399" height="18.415" rx="5.44"/><rect y="87.823" width="18.399" height="18.415" rx="5.44"/></g></g><g class="I"><rect y=".083" width="86.583" height="11.915" rx="4.044"/><rect x="24.893" y="19.581" width="86.583" height="11.915" rx="4.044"/><rect x="24.893" y="43.412" width="127.711" height="11.915" rx="4.044"/><rect x="24.893" y="67.242" width="86.583" height="11.915" rx="4.044"/><rect x="24.893" y="91.073" width="102.818" height="11.915" rx="4.044"/></g></g><g transform="translate(21.646 168.898)"><rect y="16.331" width="234.046" height="22.747" rx="1.28" class="B C E G H"/><rect y=".083" width="86.583" height="11.915" rx="4.044" class="I"/><rect x="6.764" y="20.664" width="101.465" height="11.915" rx="4.044" class="C"/><g transform="translate(247.033)"><rect x="1.353" y="16.602" width="235.399" height="22.747" rx="1.28" class="B C E G H"/><rect x=".541" y=".083" width="86.583" height="11.915" rx="4.044" class="I"/><rect x="6.967" y="20.664" width="101.465" height="11.915" rx="4.044" class="C"/></g></g><g transform="translate(21.646 225.496)"><rect y="16.331" width="132.581" height="22.747" rx="1.28" class="B C E G H"/><rect y=".083" width="86.583" height="11.915" rx="4.044" class="I"/><g class="C"><rect x="6.764" y="20.664" width="101.465" height="11.915" rx="4.044"/><rect x="6.764" y="114.701" width="101.465" height="11.915" rx="4.044"/></g></g><g transform="translate(162.344 225.496)"><rect y="16.331" width="132.581" height="22.747" rx="1.28" class="B C E G H"/><rect y=".083" width="86.583" height="11.915" rx="4.044" class="I"/><rect x="5.073" y="20.664" width="101.465" height="11.915" rx="4.044" class="C"/></g><g transform="translate(300.336 242.098)"><rect x="93.348" width="112.288" height="22.747" rx="1.28" class="B C E G H"/><rect y="5.145" width="86.583" height="11.915" rx="4.044" class="I"/></g><g transform="translate(271.926 319.006)"><g class="C"><rect y="16.248" width="234.046" height="22.747" rx="1.28" class="B E G H"/><rect x="3.72" y="21.19" width="101.465" height="11.915" rx="4.044"/><rect x="3.72" y="121.049" width="113.303" height="11.915" rx="4.044"/><rect x="3.72" y="71.966" width="125.14" height="11.915" rx="4.044"/></g><rect width="86.583" height="11.915" rx="4.044" class="I"/></g><g transform="translate(271.926 369.917)"><g class="B C G H E"><rect y="16.248" width="234.046" height="22.747" rx="1.28"/><rect y="64.993" width="234.046" height="22.747" rx="1.28"/></g><g class="I"><rect width="86.583" height="11.915" rx="4.044"/><rect y="48.745" width="86.583" height="11.915" rx="4.044"/></g></g><g fill="#001c6c"><rect x="21.646" y="15.165" width="101.736" height="14.082" rx="4.044"/><rect x="21.646" y="287.322" width="101.736" height="14.082" rx="4.044"/></g><path stroke="#f4f2ee" stroke-width=".674" stroke-linecap="square" d="M1.936 41.162l527.71.135" class="B"/><g transform="translate(283.291 645.185)" class="K"><g filter="url(#N)" transform="translate(5.342 3.564)"><path fill="#231d1e" d="M0 12.476h1.78v-1.782h3.56v1.782h1.78V1.782h1.78V0h3.56v1.782h1.78V7.13h7.123V8.91h3.56v1.782h1.78v8.91h-1.78v3.564h-1.78v5.347h-3.56v-1.782h-1.78v1.782H8.904V24.95h-1.78V23.17h-1.78v-1.782H3.56v-3.564H1.78V16.04H0z"/><path d="M1.78 12.476h3.56v1.782h1.78v1.782h1.78V1.782h3.56v10.693h1.78V8.91h3.56v3.564h1.78V8.91h1.78v3.564h1.78v-1.782h1.78v8.91h-1.78v3.564h-1.78v3.564h-1.78V24.95h-1.78v1.782h-7.123V24.95h-1.78V23.17h-1.78v-1.782h-1.78v-3.564H3.56V16.04H1.78z" class="D"/><g fill="#231d1e"><path d="M12.465 16.04h1.78v7.13h-1.78z"/><path d="M16.026 16.04h1.78v7.13h-1.78z"/><path d="M19.588 16.04h1.78v7.13h-1.78z"/></g></g></g></g></g></g></svg>