<svg xmlns="http://www.w3.org/2000/svg" width="1252" height="936" xmlns:v="https://vecta.io/nano"><style><![CDATA[.B{stroke-linecap:round}.C{stroke-linejoin:round}.D{stroke-width:5.322}.E{stroke-width:52.322}]]></style><g fill="none" fill-rule="evenodd"><g transform="matrix(-.996195 -.087156 -.087156 .996195 951.076323 694.502967)"><path d="M47.87 237.916C16.898 135.548 104.005 51.155 181.7 27.414 299.7-8.638 338.436 231.97 333.136 234c-32.703 12.53-127.792 13.835-285.266 3.916z" fill="#001d71"/><path d="M273.223 114.48c5.324 42.578-36.277 150.043-80.2 144.137-36.9-4.96-58.394-36.37-69.774-69.986-1.925-5.685-30.43 9.142-34.338-17.293s27.194-9.83 26.377-14.686c-2.73-16.225-2.523-30-2.107-40.984.066-1.736 9.378-7.104 29.3-10.275 8.91-1.42 19.94-2.398 33.214-2.414 18.936-.025 40.093 1.842 57.852 4.098 5.107.65.434-47.052 4.845-46.374 4.5.7 18.05 49.758 21.54 50.403 8.194 1.515 13.24 2.802 13.312 3.375z" fill="#f2f4f6"/><path d="M222.742 125.322c2.407 23.203 19.54 15.573 19.54.078m-19.54 15.587l-5.862 7.833m15.63-7.833l-3.908 12.728m8.794-14.685l2.93 10.77" stroke="#212121" class="B C D"/><path d="M200.835 114.998c10.946 26.75 17.667 42.457 20.163 47.123 1.1 2.06 3.474 4.723 2.2 6.75-1.16 1.862-19.767-.183-20.745-3.755-.505-1.847.39-7.75.074-5.828-1.938 11.828-2.348 19.444-1.23 22.848" stroke="#001d71" fill="#f5fff6" class="B C D"/><g stroke="#212121" class="B C D"><path d="M161.606 126.976c-3.645 15.374 18 17.32 22.058-1.654m-19.538 12.728l-6.84 4.895"/><path d="M170.626 139.03l-.302 8.812m7.48-9.792l2.93 6.854"/></g><path d="M199.757 188.48c6.35.703 4.42 9.614 9.383 8.42 2.505-.602 4.6-3.38 7.143-2.922 2.418.436 7.202 5.88 12.396 7.818 2.06.77 5.317.77 9.77 0-6.034 5.062-11.244 8.65-15.63 10.77-7.384 3.566-26.936 11.032-45.293.044-10.4-6.23-27.317-28.644-30.285-31.33l45.382 21.794c36.952 5.31 34.398 6.94-9.236-6.128-6.512-1.95-18.56-7.172-36.147-15.665 6.04-3.355 23.195 2.368 36.147 5.874 11.06 2.994 13.446 1.003 16.37 1.326z" fill="#ff4445"/></g><path d="M1208.553 276.703c-70.822-90.278-203.992-102.425-315.295-97.894s-148.923 31.608-204.666 119.06-43.313 155.616-11.57 220.187c15.885 32.313 44.377 59.85 80.5 81.792C776.694 611.494 807 675 807 741s60.037-96.182 84.524-91.348c122.62 24.207 261.622 3.82 326.738-76.038 61.853-75.857 23.172-197.1 5.227-275.157l-14.935-21.755z" fill="#0d62fe"/><path d="M161 220.844c40.427-25.45 55.777-38.31 103.168-53.752C327.65 146.41 394.296 141.876 460.14 136" stroke="#001c6c" transform="matrix(-.992546 .121869 .121869 .992546 1247.080802 71.480974)" class="B C E"/><path d="M963.04 108.21c40.562-1.292 77.67 3.004 113.327 22.842l1.198.67c9.8 5.522 20.026 12.223 26.336 21.778l3.922 5.906c7.032 10.626 18.807 28.86 21.02 37.2 5.718 21.56 3.23 50.766-3.93 72.338l-.595 1.774-1.527 4.653c-3.074 9.29-8.34 24.12-15.364 31.722l-4.507-2.158c-35.306-16.958-53.244-26.74-97.674-35.415-43.742-8.54-88.007-9.764-132.257-8.982l-.926-2.746c-2.435-7.562-2.19-22.048-1.846-30.597l.108-2.464.14-2.896c.37-7.713 1.81-15.342 2.395-23.042.215-2.84-.772-5.8 0-8.543 9.897-35.167 29.728-55.282 60.322-70.46l1.482-.73c9.185-4.567 17.673-10.5 28.377-10.85z" fill="#ffa300"/><path d="M52.9 199.204C139.134 89.26 301.283 74.467 436.806 79.985s181.33 38.493 249.203 144.998 52.738 189.516 14.09 268.153c-19.34 39.352-54.034 72.888-98.016 99.61C578.737 606.928 586 663 626 701s-157.266-53.49-187.08-47.602c-149.304 29.48-318.553 4.652-397.838-92.602-75.313-92.382-28.214-240.037-6.365-335.097L52.9 199.204z" fill="#192bc2"/><path d="M271.805 222.335c40.427-25.45 55.777-38.31 103.168-53.752 63.482-20.683 130.127-25.215 195.97-31.092" stroke="#001c6c" transform="matrix(.992546 .121869 -.121869 .992546 -84.683277 -50.011652)" class="B C E"/><path d="M373.33 3.214c-40.204-5.525-77.558-5.132-115.094 10.87l-1.26.542c-10.324 4.468-21.194 10.063-28.468 18.906l-4.518 5.464c-8.105 9.833-21.72 26.737-24.792 34.8-7.94 20.843-8.52 50.15-3.652 72.353l.406 1.826 1.032 4.787c2.086 9.56 5.774 24.86 11.964 33.154l4.708-1.675c36.885-13.175 55.747-21.03 100.84-25.01 44.395-3.92 88.545-3.51 132.472 1.892l1.208-2.634c3.212-7.266 4.483-18.698 5.034-27.236l.15-2.462.162-2.895c.44-7.71-.197-15.448.027-23.166.083-2.846 1.374-5.688.893-8.496-6.167-36.01-23.787-58.086-52.626-76.378l-1.398-.882c-8.657-5.502-16.478-12.3-27.087-13.758z" fill="#ffa300"/></g></svg>