<svg xmlns="http://www.w3.org/2000/svg" xmlns:xlink="http://www.w3.org/1999/xlink" width="822" height="900" xmlns:v="https://vecta.io/nano"><style><![CDATA[.B{stroke-linecap:round}.C{stroke-linejoin:round}.D{stroke-width:.5}.E{fill:#0064ff}.F{fill-rule:nonzero}.G{fill:#fff}.H{stroke-width:.6}.I{stroke:#212121}.J{fill:#ff9d00}.K{stroke:#001d75}.L{stroke:#f4f2ee}.M{stroke-width:1.5}.N{fill:#000}.O{fill:#0d62fe}.P{mask:url(#g)}.Q{fill:#ff0034}.R{fill:#f4f2ee}.S{mask:url(#k)}.T{stroke:#ffc200}.U{stroke-width:.9}.V{fill:#212121}.W{fill:#ff0025}.X{fill:#011638}.Y{fill:#00173a}.Z{fill:#005b11}.a{fill:#ff5fa7}.b{fill:#001d75}.c{fill:#001d71}.d{fill:#292929}.e{fill:#fafafa}.f{mask:url(#f)}.g{fill:#cce4ff}.h{fill:#00ffce}.i{stroke-width:.905}.j{filter:url(#F)}.k{fill:#2ac2ff}.l{fill:#ff7800}.m{mask:url(#h)}.n{mask:url(#j)}]]></style><defs><filter x="-51.8%" y="-27.9%" width="203.6%" height="155.8%" id="A"><feOffset dy="24" in="SourceAlpha"/><feGaussianBlur stdDeviation="16"/><feColorMatrix values="0 0 0 0 0 0 0 0 0 0.160784314 0 0 0 0 0.349019608 0 0 0 0.1 0" result="C"/><feMerge><feMergeNode in="C"/><feMergeNode in="SourceGraphic"/></feMerge></filter><filter x="-22.5%" y="-12.1%" width="145.0%" height="124.2%" id="B"><feOffset dy="12" in="SourceAlpha"/><feGaussianBlur stdDeviation="12"/><feColorMatrix values="0 0 0 0 0 0 0 0 0 0.164542109 0 0 0 0 0.362271488 0 0 0 0.1 0" result="C"/><feMerge><feMergeNode in="C"/><feMergeNode in="SourceGraphic"/></feMerge></filter><path d="M24.927 0h230.1c13.244 0 23.985 10.73 24 23.973l.547 495.248c.015 13.255-10.72 24.012-23.973 24.026h-.027-230.1c-13.244 0-23.985-10.73-24-23.973L.927 24.027C.912 10.772 11.645.015 24.9 0h.027z" id="C"/><filter x="-8.2%" y="-5.9%" width="116.4%" height="112.0%" id="D"><feOffset dy="4" in="SourceAlpha"/><feGaussianBlur stdDeviation="3.5"/><feColorMatrix values="0 0 0 0 0 0 0 0 0 0.164542109 0 0 0 0 0.362271488 0 0 0 0.1 0" result="C"/><feMerge><feMergeNode in="C"/><feMergeNode in="SourceGraphic"/></feMerge></filter><path d="M33.815 561h246.37C298.86 561 314 545.865 314 527.195V495H0v32.195C0 545.865 15.14 561 33.815 561z" id="E"/><filter x="-16.2%" y="-86.4%" width="132.5%" height="254.5%" id="F"><feOffset dy="-6" in="SourceAlpha"/><feGaussianBlur stdDeviation="16"/><feColorMatrix values="0 0 0 0 0 0 0 0 0 0.160784314 0 0 0 0 0.349019608 0 0 0 0.1 0"/></filter><filter x="-7.8%" y="-12.9%" width="115.7%" height="125.7%" id="G"><feOffset dy="4" in="SourceAlpha"/><feGaussianBlur stdDeviation="3.5"/><feColorMatrix values="0 0 0 0 0 0 0 0 0 0.164542109 0 0 0 0 0.362271488 0 0 0 0.1 0" result="C"/><feMerge><feMergeNode in="C"/><feMergeNode in="SourceGraphic"/></feMerge></filter><path id="H" d="M0 .855h274v166H0z"/><filter x="-35.2%" y="-18.9%" width="170.4%" height="137.9%" id="I"><feOffset dy="24" in="SourceAlpha"/><feGaussianBlur stdDeviation="16"/><feColorMatrix values="0 0 0 0 0 0 0 0 0 0.160784314 0 0 0 0 0.349019608 0 0 0 0.1 0" result="C"/><feMerge><feMergeNode in="C"/><feMergeNode in="SourceGraphic"/></feMerge></filter><path id="J" d="M.15.5h294v178H.15z"/><filter x="-18.0%" y="-51.6%" width="135.6%" height="203.3%" id="K"><feOffset dy="8" in="SourceAlpha"/><feGaussianBlur stdDeviation="8"/><feColorMatrix values="0 0 0 0 0 0 0 0 0 0.160784314 0 0 0 0 0.349019608 0 0 0 0.1 0" result="C"/><feMerge><feMergeNode in="C"/><feMergeNode in="SourceGraphic"/></feMerge></filter><filter x="-18.0%" y="-90.4%" width="135.6%" height="280.8%" id="L"><feOffset dy="8" in="SourceAlpha"/><feGaussianBlur stdDeviation="8"/><feColorMatrix values="0 0 0 0 0 0 0 0 0 0.160784314 0 0 0 0 0.349019608 0 0 0 0.1 0" result="C"/><feMerge><feMergeNode in="C"/><feMergeNode in="SourceGraphic"/></feMerge></filter><filter x="-17.5%" y="-10.8%" width="135.0%" height="121.5%" id="M"><feOffset dy="8" in="SourceAlpha"/><feGaussianBlur stdDeviation="8"/><feColorMatrix values="0 0 0 0 0 0 0 0 0 0.160784314 0 0 0 0 0.349019608 0 0 0 0.1 0" result="C"/><feMerge><feMergeNode in="C"/><feMergeNode in="SourceGraphic"/></feMerge></filter><path d="M33.815 66h246.37C298.86 66 314 50.865 314 32.195V0H0v32.195C0 50.865 15.14 66 33.815 66z" id="N"/><filter x="-8.5%" y="-5.2%" width="116.5%" height="110.7%" id="O"><feOffset dy="4" in="SourceAlpha"/><feGaussianBlur stdDeviation="3.5"/><feColorMatrix values="0 0 0 0 0 0 0 0 0 0.164542109 0 0 0 0 0.362271488 0 0 0 0.1 0" result="C"/><feMerge><feMergeNode in="C"/><feMergeNode in="SourceGraphic"/></feMerge></filter><path id="P" d="M0 .58h265.117v409.286H0z"/><filter x="-179.2%" y="-119.4%" width="458.3%" height="338.9%" id="Q"><feOffset dy="4" in="SourceAlpha"/><feGaussianBlur stdDeviation="3.5"/><feColorMatrix values="0 0 0 0 0 0 0 0 0 0.164542109 0 0 0 0 0.362271488 0 0 0 0.1 0" result="C"/><feMerge><feMergeNode in="C"/><feMergeNode in="SourceGraphic"/></feMerge></filter><path id="R" d="M36.037 0h234.9c19.37 0 35.08 15.692 35.1 35.063l.526 499.8c.02 19.385-15.678 35.117-35.063 35.137h-.037-234.9c-19.37 0-35.08-15.692-35.1-35.063l-.526-499.8C.917 15.752 16.615.02 36 0h.037z"/><path id="S" d="M36.03 4.5h233.423c16.556 0 29.983 13.413 30 29.97l.515 501c.017 16.57-13.4 30.014-29.97 30.03h-.03H36.546c-16.556 0-29.983-13.413-30-29.97l-.515-501C6.014 17.962 19.43 4.517 36 4.5h.03z"/><path id="T" d="M11.033 2.665c-.054.86.785 1.08 1.017.287.177-.604-.79-.662-1.094-.287"/><path id="U" d="M20.09.01L.828 4.443c-.437.1-.765.457-.82.893a1.04 1.04 0 0 0 .578 1.058L6.057 9.1l.56 5.45a1.05 1.05 0 0 0 .8.908c.435.11.895-.062 1.148-.425l.166-.166-1.106-4.16a1.41 1.41 0 0 1 .707-1.339l4.754-2.752-3.8 3.588c-.27.255-.382.63-.298.987l1.732 7.316c.1.428.467.748.912.802a1.08 1.08 0 0 0 1.083-.565l9.05-17.278a1.02 1.02 0 0 0 .106-.204c.095-.242.036-.612-.072-.866-.134-.314-.703-.445-1.707-.395z"/><path id="V" d="M17.857 11.786c-.657 0-1.2-.528-1.2-1.18s.533-1.18 1.2-1.18 1.2.528 1.2 1.18-.533 1.18-1.2 1.18m-4.762 0c-.657 0-1.2-.528-1.2-1.18s.533-1.18 1.2-1.18 1.2.528 1.2 1.18-.533 1.18-1.2 1.18m-4.762 0c-.657 0-1.2-.528-1.2-1.18s.533-1.18 1.2-1.18 1.2.528 1.2 1.18-.533 1.18-1.2 1.18M13.095 0C6.53 0 1.2 4.76 1.2 10.607c0 2.045.644 3.998 1.873 5.7L0 21.214h13.095C19.66 21.214 25 16.455 25 10.607S19.66 0 13.095 0"/><path id="W" d="M10.023 17.822L1.417 9.476l5.056-4.902 3.304 3.204 5.292-5.645H2.2C.986 2.133 0 3.09 0 4.267v12.8C0 18.243.986 19.2 2.2 19.2h15.4c1.213 0 2.2-.957 2.2-2.133V7.393l-9.777 10.43z"/><path id="X" d="M9.947 14.73l-5.42-5.254L6.472 7.59l3.38 3.278L19.882.17l2.035 1.793z"/><path id="Y" d="M10.08 9.6c2.78 0 5.04-2.153 5.04-4.8S12.86 0 10.08 0 5.04 2.153 5.04 4.8s2.26 4.8 5.04 4.8"/><path id="Z" d="M10.08 10.8C4.145 10.8 0 13.76 0 18v1.2h20.16V18c0-4.24-4.145-7.2-10.08-7.2"/><path id="a" d="M93.3 13.5c0 7.456 6.044 13.5 13.5 13.5H204c7.456 0 13.5-6.044 13.5-13.5h0H93.3z"/><path id="b" d="M10.93 0C4.893 0 0 4.885 0 10.91s4.893 10.91 10.93 10.91 10.93-4.885 10.93-10.91S16.966 0 10.93 0z"/><path id="c" d="M5.39 1.302c-.026.42.383.528.497.14.087-.295-.386-.323-.535-.14"/><path id="d" d="M5.167 1.25c-.025.404.368.507.476.135.083-.284-.37-.3-.513-.135"/><path id="e" d="M63.5 26h4v-4h-4v4zm-6 0h4v-4h-4v4zm0 6h4v-4h-4v4zm-6-6h4v-4h-4v4zm0 6h4v-4h-4v4zm17-16h-2v-2h-2v5h-2v-3h-6v-2h-2v5h-2v-3h-2a2 2 0 0 0-2 2v15c0 1.102.897 2 2 2h18c1.103 0 2-.898 2-2V18c0-1.103-.897-2-2-2z"/></defs><g transform="translate(36 12)" fill="none" fill-rule="evenodd"><g filter="url(#A)" transform="translate(442 245)"><g filter="url(#B)"><use xlink:href="#R" class="d"/><use xlink:href="#S" class="N"/><g transform="translate(13.5 13.5)"><mask id="f" class="G"><use xlink:href="#C"/></mask><use xlink:href="#C" class="e"/><g filter="url(#D)" class="f"><g transform="translate(-53.5 168.5)"><g class="D G L"><path d="M0 187h274v179H0z"/><path d="M0 .855h274v300H0z"/></g><path d="M147.105 25v7.445c0 4.66 3.535 8.438 7.895 8.438s7.895-3.778 7.895-8.437L162.894 25H165v7.94c0 5.215-3.946 9.504-9 10.01V46h4a2 2 0 0 1 1.995 1.851L162 48h-14a2 2 0 0 1 2-2h3v-3.2c-4.564-.932-8-4.99-8-9.858V25h2.105zM161 26v6.5c0 3.038-2.686 5.5-6 5.5s-6-2.462-6-5.5V26h12zm-6-9c3.314 0 6 2.462 6 5.5V24h-12v-1.5c0-3.038 2.686-5.5 6-5.5z" class="F O"/><g transform="translate(89 67)"><path d="M22.418 0C10.037 0 0 10.02 0 22.377s10.037 22.377 22.418 22.377 22.418-10.02 22.418-22.377S34.8 0 22.418 0z" class="F g"/><g transform="translate(10.651 6.48)"><g transform="translate(6.796 .405)" class="a"><path d="M15.013 2.603c-.53 11.814-13.417 16.194-5.18 23.893 1.968 1.84-10.793 1.865-9.697 0C5.98 16.54-.13 14.416.002 3.664.018 2.396.198 1.207.516.115 6.93-.066 11.63.1 14.615.61c.237.04.37.704.4 1.99z"/></g><g class="B C T U"><path d="M23.534 1.62c-.706 3.06-2.05 6.2-2.308 9.342-.188 2.28-.084 4.572-.126 6.858"/><path d="M22.723 1.52c-1.583 3.976-2.197 7.552-2.347 11.848-.117 3.375-.456 2.55.22 3.947"/><path d="M20.592 3.95c-1.486 6.123-1.555 8.1-.514 14.378"/><path d="M19.984 19.036C16.297 15.73 17.84 9.96 18.83 5.873"/></g><path d="M12.836 2.936c.224 1.105.163 1.846-.183 2.222-1.84 2-2.555 2.77-4.623 5.616-.028.04-.02.14.028.14.23.002.486-.005.675-.134 1.327-.906 2.352-2.284 3.82-2.937 1.977-.88-2.712 2.16-1.577 2.753.464.242 8.57-.87 5.95-.35s-6.514 1.246-6.187 1.67c1.363 1.776 1.706 2.59 1.363 4.18" class="B C I U"/><g class="T B C U"><path d="M7.912 5.063C6.722 8.22 5.13 15.917.44 16.807c-.06.01-.1-.08-.135-.12"/><path d="M7.202 2.936C6.124 8.27 4.53 12.983.1 16.1"/><path d="M6.594.91C5.217 5.878 4.52 11.28.304 14.682"/><path d="M5.173 1.114C3.9 6.44 3.762 9.945 0 13.67"/></g><path d="M6.474.044c-.575 0 .346 3.54.707 4.358.305.69 1.146 1.044 2.52 1.057 1.523.047 2.58-.3 3.176-1.04l.09-.117c.707 1.416 2.13 1.818 3.857 1.818 3.994 0 5.587-2.416 4.948-6.075h-15.3zm7.05 1.352l6.792-.095.002.024c.1 1.167-.113 2.034-.57 2.6l-.047.058c-.546.64-1.564.975-3.102.975-1.054 0-2.283-.41-2.814-1.724l-.124-.37c-.06-.223-.056-.577-.088-1l-.05-.477zM7.547 1.5h4.928l-.007.724c-.04 1.627-.387 2.354-3.275 2.414l-.54.005c-.07 0-.106-.01-.17-.056-.138-.095-.29-.283-.428-.572-.227-.47-.385-1.13-.467-1.97l-.04-.545z" class="F h"/><g class="V"><use xlink:href="#T" transform="matrix(-1 0 0 1 23.02682 0)"/><use xlink:href="#T" x="2.941" transform="matrix(-1 0 0 1 28.910324 0)"/></g><g class="W"><path d="M2.524 29.026c.65.952 3.384.705 1.92-1.224s-2.57.272-1.92 1.224z" transform="matrix(-1 0 0 1 7.202222 0)"/><path d="M6.025 30.657c.67.92 3.114.334 1.61-1.528s-2.278.61-1.61 1.528z" transform="matrix(-1 0 0 1 13.897244 0)"/><path d="M10.7 31.204c.677.954 3.112.522 1.59-1.41s-2.267.457-1.59 1.41z" transform="matrix(-1 0 0 1 23.2297 0)"/><path d="M15.273 30.612c.69.94 3.032.45 2.03-1.207s-2.72.268-2.03 1.207z" transform="matrix(-1 0 0 1 32.663594 0)"/><path d="M18.905 29.495c.654.928 2.68.483 1.93-1.194s-2.583.265-1.93 1.194z" transform="matrix(-1 0 0 1 39.764376 0)"/></g></g></g><g class="R"><rect x="157" y="120" width="77" height="10" rx="5"/><rect x="78" y="120" width="66" height="10" rx="5"/><rect x="157" y="138" width="77" height="10" rx="5"/><rect x="98" y="187" width="77" height="10" rx="5"/><rect x="98" y="216" width="160" height="10" rx="5"/><rect x="98" y="234" width="160" height="10" rx="5"/><rect x="98" y="252" width="160" height="10" rx="5"/><rect x="78" y="138" width="66" height="10" rx="5"/></g><g class="X"><rect x="19" y="187" width="66" height="10" rx="5"/><rect x="19" y="216" width="66" height="10" rx="5"/></g><g transform="translate(173 67)"><path d="M22.5 0C10.074 0 0 10.074 0 22.5S10.074 45 22.5 45 45 34.926 45 22.5 34.926 0 22.5 0z" fill="#06f" class="F"/><path d="M28.63 17.143c5.226 3.173 8.896 9.755 11.012 19.746C35.48 41.84 29.153 45 22.068 45c-7.204 0-13.624-3.266-17.782-8.36.382-2.515.9-4.732 1.553-6.658.705-2.08 2.942-5.647 6.71-10.704l1.15-1.527c5.366.28 10.056.083 14.014-.472l.918-.138z" class="J"/><g class="B C K i"><path d="M11.786 33.72c3.235 1.586 5.32-.442 7.5-2.65"/><path d="M22.5 32.143c.52 1.75.848 2.845 2.138 4.256.03.034-.104.02-.156.03"/><path d="M25.714 35.357c-2.115-1.154-.844-.285-3.214-3.214"/><path d="M30 34.286c-2.688-.2-5.456-1.263-7.5-3.214"/><path d="M31.07 32.66c-1.58.22-4.804 1.79-8.57-1.587"/><path d="M31.07 31.07c-4.018.786-1.536.475-7.5.33"/><path d="M15 36.43c1.566-1.39 3.877-2.928 4.286-5.357"/><path d="M17.143 36.43c2.232-1.255.66-.214 3.214-4.286"/><path d="M19.286 36.43c1.962-2.94 1.314-1.492 2.143-4.286"/><path d="M22.5 36.43c-1.225-2.452-.776-1.05-1.07-4.286"/><path d="M24.643 36.43c-1.61-2.34-.827-.953-2.143-4.286"/><path d="M13.93 28.93c1.542 1.156 3.674 3.295 5.357 1.37"/><path d="M12.857 31.65c1.08.195 6.528 1.285 6.427-.577"/><path d="M16.147 18.214c-.1 1.135-.1 1.846 0 2.13.643 1.812 1.65 1.208 2.067-.746"/><path d="M19.74 17.143c-2.184 10-2.023 15 .482 15s3.372-1.77 2.602-5.306l-.385-9.082c1.156 4.286 2.248 4.5 3.276.612" class="J"/></g><g stroke="#ff5fa7" class="a C i"><path d="M12.123 26.14c-.6-.307-.93-.582-1.022-.825-.485-1.294.494-1.997 2.248-1.03.068-1.512.647-2.44 1.737-2.784s1.294.584.613 2.784c1.085-.163 1.766-.163 2.044 0 .93.545.498 1.874-1.43 2.68.954.825 1.1 1.684.41 2.578s-1.5.48-2.453-1.237c-1.363 1.65-2.418 2.062-3.168 1.237s-.41-1.96 1.022-3.403z"/><path d="M27.123 25.068c-.6-.307-.93-.582-1.022-.825-.485-1.294.495-1.997 2.248-1.032.07-1.512.648-2.44 1.738-2.785s1.294.584.612 2.784c1.085-.163 1.766-.163 2.044-.001.93.545.498 1.874-1.43 2.682.953.825 1.09 1.684.408 2.578s-1.5.482-2.452-1.237c-1.363 1.65-2.42 2.063-3.168 1.238s-.408-1.96 1.023-3.403z" transform="matrix(-.987688 .156434 .156434 .987688 54.710826 -4.305835)"/></g><g fill="#d41c61"><circle cx="13.929" cy="25.714" r="1.071"/><circle cx="28.929" cy="24.643" r="1.071"/></g><path d="M29.378 16.484c4.208-.75 6.558-1.294 7.05-1.63l-.92-2.547-7.664 1.528C27.368 6.433 26.04 2.732 23.86 2.732c-.71 0-1.527 1.02-2.452 3.056-1.294-3.94-2.657-4.686-4.087-2.24s-2.18 6.146-2.248 11.103c-2.25-.072-3.92-.167-5.007-.284s-1.94-.294-2.555-.53v2.343c-.1.113.647.273 2.268.48s3.25.353 4.885.435c1.976.15 6.88-.053 14.715-.61z" class="b"/></g><g class="E F"><path d="M23.256 79.525v-.876h-4.878v-.03c0-.246.057-.494.172-.745s.27-.507.462-.768a9.14 9.14 0 0 1 .656-.784l.753-.776.9-.922a8.22 8.22 0 0 0 .798-.953 4.77 4.77 0 0 0 .559-1.022c.14-.353.21-.73.21-1.13 0-.9-.254-1.606-.76-2.113s-1.263-.76-2.267-.76a3.41 3.41 0 0 0-1.029.146c-.308.097-.58.213-.813.346a3.37 3.37 0 0 0-.582.407l-.32.315.507.69a5.06 5.06 0 0 1 .283-.261c.13-.113.286-.223.47-.33s.4-.202.65-.284.532-.123.85-.123c.567 0 1.037.156 1.4.47s.56.827.56 1.544a2.66 2.66 0 0 1-.149.906 3.42 3.42 0 0 1-.403.784 5.51 5.51 0 0 1-.589.714l-.71.714-.932.922a7.79 7.79 0 0 0-.88 1.029c-.264.37-.48.76-.65 1.175s-.254.863-.254 1.344l.007.254.007.115h5.952zm5.323 0V68.878h-.686c-.457.574-.92 1.027-1.387 1.36a6.58 6.58 0 0 1-1.596.822h0l.283.768c.24-.072.477-.166.716-.284l.686-.37c.22-.128.415-.26.59-.392s.316-.26.425-.384h0v9.126h.97z"/><path d="M19.04 66.1l.072-1.627.11-1.437.133.254.208.418.245.51.25.53.22.474.152.35h.325l.152-.35.22-.474.25-.53.245-.51.208-.418.133-.254.11 1.437.072 1.627h.368l-.11-1.916-.152-1.752h-.304l-.34.61-.36.72-.347.736-.296.654-.296-.654-.347-.736-.36-.72-.34-.61h-.32l-.152 1.752-.11 1.916h.357zm5.134.058l.333-.013.296-.034.235-.04.155-.034V64.3a1.45 1.45 0 0 0-.053-.402.83.83 0 0 0-.171-.32.79.79 0 0 0-.307-.212 1.23 1.23 0 0 0-.461-.077 2.41 2.41 0 0 0-.456.037c-.126.025-.22.05-.28.08h0l.048.302a2.87 2.87 0 0 1 .219-.069 1.79 1.79 0 0 1 .453-.042c.142 0 .257.022.344.066s.155.102.203.175.08.153.093.243.02.183.02.278h0v.17a.41.41 0 0 0-.077-.024l-.133-.026-.16-.02-.157-.008c-.167 0-.322.016-.464.048a1.08 1.08 0 0 0-.368.151c-.103.07-.183.156-.24.262s-.085.233-.085.38c0 .155.026.287.077.394s.123.196.213.265.197.12.32.15.257.048.403.048zm.06-.307c-.1 0-.21-.01-.296-.03a.64.64 0 0 1-.224-.093.42.42 0 0 1-.144-.169c-.034-.07-.05-.157-.05-.26 0-.116.025-.2.075-.28a.53.53 0 0 1 .192-.167c.078-.04.164-.067.256-.08s.18-.02.267-.02c.15 0 .267.01.352.03a1.07 1.07 0 0 1 .187.056h0v.963a2.44 2.44 0 0 1-.259.034l-.355.013zm1.77 1.244c.156 0 .292-.018.408-.053s.217-.1.304-.164a1.19 1.19 0 0 0 .237-.283 3.04 3.04 0 0 0 .208-.41c.17-.402.33-.845.475-1.328l.39-1.492h-.347l-.152.65-.15.6-.168.58-.208.62-.3-.646-.253-.64-.205-.606-.15-.548h-.368l.203.7.26.714.304.706.34.672a1.91 1.91 0 0 1-.152.307.8.8 0 0 1-.173.198.58.58 0 0 1-.216.108c-.08.02-.17.032-.27.032a.72.72 0 0 1-.205-.029c-.066-.02-.106-.034-.12-.045h0l-.07.286c.018.01.063.026.136.048a.87.87 0 0 0 .243.032z"/></g></g></g><g class="f"><g transform="translate(-17 -9.5)"><path d="M240.5.5h61v576h-61z" class="c"/><g transform="translate(254.5 215)" class="O"><path d="M24.346 13.496L22.02 15.82 15.18 8.98l2.325-2.325a1.55 1.55 0 0 1 2.192 0l4.65 4.65a1.55 1.55 0 0 1 0 2.192h0zm-10.85 10.85c-.302.302-.7.454-1.096.454s-.794-.152-1.096-.454l-4.65-4.65a1.55 1.55 0 0 1 0-2.192l6.975-6.975 6.842 6.842-6.975 6.975zm17.05-15.5a1.55 1.55 0 0 0 0-2.192l-6.2-6.2a1.55 1.55 0 0 0-2.192 0c-.887.887-3.122.887-4.008 0a1.55 1.55 0 0 0-2.192 0l-15.5 15.5a1.55 1.55 0 0 0 0 2.192c.936.936.936 3.072 0 4.008a1.55 1.55 0 0 0 0 2.192l6.2 6.2a1.55 1.55 0 0 0 2.192 0c.887-.887 3.122-.887 4.008 0 .302.302.7.454 1.096.454s.794-.152 1.096-.454l15.5-15.5a1.55 1.55 0 0 0 0-2.192c-.936-.936-.936-3.072 0-4.008h0z"/></g><path d="M241 148h57v51h-57z" class="X"/><g transform="translate(256 341)" class="O"><path d="M18.57 9.667V1.61l7.857 8.056H18.57zM20.793 0H9.143C7.4 0 6 1.447 6 3.222v22.556C6 27.555 7.4 29 9.143 29h15.714C26.6 29 28 27.555 28 25.778V7.39L20.793 0z"/><path d="M3.143 6H0v25.778C0 33.555 1.4 35 3.143 35H22v-3.222H3.143V6z"/></g><g transform="translate(253 49)" class="O"><path d="M0 0h33v4H0z"/><path d="M0 8h33v4H0z"/><path d="M0 16h33v4H0z"/></g><path d="M261.315 164.774l.001 8.165c0 5.11 3.888 9.254 8.684 9.254s8.684-4.143 8.684-9.254v-8.165H281v8.7c0 5.72-4.34 10.424-9.9 10.978v3.344h4.406c1.16 0 2.108.9 2.188 2.037l.006.157h-15.4c0-1.21.982-2.194 2.194-2.194h3.306v-3.51a11.03 11.03 0 0 1-8.8-10.812v-8.7h2.315zm15.285 1.097V173c0 3.332-2.955 6.032-6.6 6.032s-6.6-2.7-6.6-6.032v-7.13h13.2zM270 156c3.645 0 6.6 2.7 6.6 6.032v1.645h-13.2v-1.645c0-3.332 2.955-6.032 6.6-6.032z" class="F G"/><g transform="translate(256 274)" class="O"><path d="M13.5 18.525c-2.66 0-4.82-2.182-4.82-4.875s2.16-4.875 4.82-4.875 4.82 2.182 4.82 4.875-2.158 4.875-4.82 4.875M13.5 0C6.044 0 0 6.11 0 13.65 0 23.4 13.5 39 13.5 39S27 23.4 27 13.65C27 6.11 20.956 0 13.5 0"/></g><g transform="translate(253 97)" class="O"><path d="M28.5 17.714h-6V11.8h6v5.905zm-9 0h-6V11.8h6v5.905zm0 8.857h-6v-5.905h6v5.905zm-9-8.857h-6V11.8h6v5.905zm0 8.857h-6v-5.905h6v5.905zM30 2.952h-3V0h-3v7.38h-3v-4.43h-9V0H9v7.38H6v-4.43H3c-1.654 0-3 1.326-3 2.952v22.143C0 29.676 1.346 31 3 31h27c1.654 0 3-1.324 3-2.952V5.905c0-1.627-1.346-2.952-3-2.952h0z"/></g><g transform="translate(254 404)" class="O"><g transform="translate(.5)"><path d="M28.476 0H17.8c-.84 0-1.524.65-1.524 1.45V2.9h10.667v2.9H16.286v2.9h9.143v2.9h-9.143v2.9h7.62v2.9h-7.62v10.15c0 .802.683 1.45 1.524 1.45h3.048v-4.35h4.57V29h3.048c.84 0 1.524-.648 1.524-1.45V1.45C30 .65 29.317 0 28.476 0"/><path d="M12.2 8.286H1.524C.683 8.286 0 8.95 0 9.765v1.48h9.143v2.96H0v2.96h6.095v2.96H0v7.398C0 28.34.683 29 1.524 29H4.57v-4.44h4.57V29H12.2c.84 0 1.524-.66 1.524-1.48V9.765c0-.817-.683-1.48-1.524-1.48"/></g></g><use xlink:href="#E" class="N j"/><use xlink:href="#E" class="G"/><g transform="translate(98.5 511)" class="E"><use xlink:href="#U"/></g><path d="M63.5 521h4v-4h-4v4zm-6 0h4v-4h-4v4zm0 6h4v-4h-4v4zm-6-6h4v-4h-4v4zm0 6h4v-4h-4v4zm17-16h-2v-2h-2v5h-2v-3h-6v-2h-2v5h-2v-3h-2a2 2 0 0 0-2 2v15c0 1.102.897 2 2 2h18c1.103 0 2-.898 2-2v-15c0-1.103-.897-2-2-2z" class="E"/><g transform="translate(198.5 509)" class="E"><use xlink:href="#V"/></g><g transform="translate(149.5 511)" class="E"><use xlink:href="#W"/><use xlink:href="#X"/></g><g transform="translate(250.5 511)" class="E"><use xlink:href="#Y"/><use xlink:href="#Z"/></g></g><g transform="translate(-50.5 -1.5)"><g filter="url(#G)"><mask id="g" class="G"><use xlink:href="#H"/></mask><use xlink:href="#H" class="G"/><path d="M-11 0h285v166H-11z" class="O P"/><rect x="166.693" y="177.151" width="91.852" height="24.863" rx="3" class="E P"/><g class="F G P"><path d="M22.836 74.668V71h-8.418V55.695H10.14v18.973h12.696zm8.884.383c1.08 0 2.052-.183 2.92-.548s1.613-.88 2.235-1.547 1.097-1.47 1.426-2.41.494-1.976.494-3.107-.174-2.163-.52-3.094-.832-1.725-1.453-2.382-1.366-1.168-2.235-1.533-1.824-.548-2.866-.548c-1.024 0-1.97.183-2.838.548a6.65 6.65 0 0 0-2.249 1.533c-.63.657-1.124 1.45-1.48 2.382s-.535 1.962-.535 3.094.174 2.167.52 3.107.832 1.743 1.453 2.41 1.366 1.182 2.235 1.547 1.833.548 2.893.548zm0-3.504c-.932 0-1.654-.37-2.166-1.11s-.768-1.74-.768-2.998.256-2.25.768-2.97 1.234-1.08 2.166-1.08 1.65.36 2.153 1.08.754 1.71.754 2.97-.25 2.26-.754 2.998-1.22 1.11-2.153 1.11zm16.645 3.504c1.08 0 2.052-.183 2.92-.548s1.613-.88 2.235-1.547 1.097-1.47 1.426-2.41.494-1.976.494-3.107-.174-2.163-.52-3.094-.832-1.725-1.453-2.382-1.366-1.168-2.235-1.533-1.824-.548-2.866-.548c-1.024 0-1.97.183-2.838.548a6.65 6.65 0 0 0-2.249 1.533c-.63.657-1.124 1.45-1.48 2.382s-.535 1.962-.535 3.094.174 2.167.52 3.107.832 1.743 1.453 2.41 1.366 1.182 2.235 1.547 1.833.548 2.893.548zm0-3.504c-.932 0-1.654-.37-2.166-1.11s-.768-1.74-.768-2.998.256-2.25.768-2.97 1.234-1.08 2.166-1.08 1.65.36 2.153 1.08.754 1.71.754 2.97-.25 2.26-.754 2.998-1.22 1.11-2.153 1.11zm14.314 3.12V68.37c.457.365.92.812 1.385 1.342l1.33 1.656 1.193 1.725 1 1.574h4.69l-1.152-2-1.508-2.2-1.7-2.122c-.585-.684-1.152-1.273-1.7-1.766l3.03-3.135 2.838-3.2H67.23l-.92 1.095-1.138 1.328-1.248 1.4-1.248 1.37V53.422l-4.086.657v20.59h4.086zM76.5 58.515a2.5 2.5 0 0 0 1.714-.643c.484-.43.727-1.018.727-1.766s-.242-1.337-.727-1.766a2.5 2.5 0 0 0-1.714-.643 2.5 2.5 0 0 0-1.714.643c-.484.43-.727 1.018-.727 1.766s.242 1.337.727 1.766a2.5 2.5 0 0 0 1.714.643zm2.057 16.153v-14.4H74.47v14.4h4.086zm7.925 0V63.552l.877-.096.932-.04c.95 0 1.6.274 1.947.82s.52 1.478.52 2.793h0v7.64h4.086v-8.13c0-.986-.1-1.88-.302-2.683s-.54-1.497-1.015-2.08-1.12-1.036-1.933-1.355-1.833-.48-3.057-.48c-1.207 0-2.358.087-3.455.26l-2.687.56v13.908h4.086zm17.166 5.147c2.504 0 4.355-.57 5.553-1.71s1.796-2.888 1.796-5.243h0v-12.1l-1.248-.315-1.467-.26-1.55-.178-1.522-.068c-1.152 0-2.185.17-3.1.507s-1.686.817-2.317 1.437-1.11 1.364-1.44 2.23-.494 1.83-.494 2.888c0 2.117.53 3.765 1.6 4.942s2.587 1.766 4.58 1.766a7.23 7.23 0 0 0 1.522-.151c.466-.1.92-.25 1.357-.452h0v.52c0 .803-.242 1.46-.727 1.97s-1.312.767-2.482.767c-.896 0-1.696-.073-2.4-.22a11.99 11.99 0 0 1-2.015-.602h0l-.713 3.422c.75.256 1.563.46 2.44.616a15.09 15.09 0 0 0 2.632.233zm1.152-9.39c-1.846 0-2.77-1.14-2.77-3.422 0-1.095.265-2 .795-2.7s1.334-1.068 2.413-1.068l.96.04.713.096v6.516c-.256.146-.567.274-.932.383a4.09 4.09 0 0 1-1.179.164zm-92.903 9.87a2.5 2.5 0 0 0 1.714-.643c.484-.43.727-1.018.727-1.766s-.242-1.337-.727-1.766a2.5 2.5 0 0 0-1.714-.643 2.5 2.5 0 0 0-1.714.643c-.484.43-.727 1.018-.727 1.766s.242 1.337.727 1.766a2.5 2.5 0 0 0 1.714.643zm2.057 16.153v-14.4H9.866v14.4h4.086zm7.925 0V85.33l.877-.096.932-.04c.95 0 1.6.274 1.947.82s.52 1.478.52 2.793h0v7.64h4.086v-8.13c0-.986-.1-1.88-.302-2.683s-.54-1.497-1.015-2.08-1.12-1.036-1.933-1.355-1.833-.48-3.057-.48c-1.207 0-2.358.087-3.455.26l-2.687.56v13.908h4.086zm17.632.33c.877 0 1.618-.073 2.22-.22s1.152-.32 1.645-.52h0L42.8 92.86c-.384.146-.81.26-1.275.342a7.82 7.82 0 0 1-1.357.123c-.914 0-1.522-.256-1.824-.767s-.452-1.196-.452-2.053h0V85.44H42.8v-3.395H37.9v-4.244l-4.086.657v12.1c0 .93.087 1.78.26 2.546s.48 1.42.92 1.958 1.024.958 1.755 1.26 1.654.452 2.77.452zm12.477.055c1.08 0 2.052-.183 2.92-.548s1.613-.88 2.235-1.547 1.097-1.47 1.426-2.41.494-1.976.494-3.107-.174-2.163-.52-3.094-.832-1.725-1.453-2.382-1.366-1.168-2.235-1.533-1.824-.548-2.866-.548c-1.024 0-1.97.183-2.838.548a6.65 6.65 0 0 0-2.249 1.533c-.63.657-1.124 1.45-1.48 2.382s-.535 1.962-.535 3.094.174 2.167.52 3.107.832 1.743 1.453 2.41 1.366 1.182 2.235 1.547 1.833.548 2.893.548zm0-3.504c-.932 0-1.654-.37-2.166-1.11s-.768-1.74-.768-2.998.256-2.25.768-2.97 1.234-1.08 2.166-1.08 1.65.36 2.153 1.08.754 1.71.754 2.97-.25 2.26-.754 2.998-1.22 1.11-2.153 1.11zm22.376 3.45c.877 0 1.618-.073 2.22-.22s1.152-.32 1.645-.52h0l-.576-3.176c-.384.146-.81.26-1.275.342a7.82 7.82 0 0 1-1.357.123c-.914 0-1.522-.256-1.824-.767s-.452-1.196-.452-2.053h0V85.44h4.908v-3.395h-4.908v-4.244l-4.086.657v12.1c0 .93.087 1.78.26 2.546s.48 1.42.92 1.958 1.024.958 1.755 1.26 1.654.452 2.77.452zm10.694-.33v-10.95l.864-.205a5.25 5.25 0 0 1 1.028-.096c.914 0 1.54.274 1.878.82s.507 1.478.507 2.793h0v7.64h4.086v-8.13c0-.986-.096-1.88-.288-2.683s-.52-1.497-.987-2.08-1.088-1.036-1.865-1.355-1.75-.48-2.92-.48a6.64 6.64 0 0 0-1.248.123 8.48 8.48 0 0 0-1.056.26h0v-6.9l-4.086.657v20.59h4.086zm19.003.383c.512 0 1.024-.027 1.536-.082l1.44-.205c.448-.082.855-.178 1.22-.287s.658-.22.877-.33h0l-.548-3.313c-.457.2-1.047.37-1.77.507s-1.458.205-2.207.205c-1.17 0-2.102-.246-2.797-.74s-1.088-1.16-1.18-2h9.268l.055-.753.027-.78c0-2.428-.594-4.266-1.782-5.517s-2.806-1.875-4.854-1.875a6.92 6.92 0 0 0-2.564.493c-.832.33-1.568.812-2.207 1.45s-1.156 1.437-1.55 2.396-.6 2.076-.6 3.354c0 1.06.15 2.044.452 2.957s.768 1.702 1.398 2.368 1.426 1.19 2.386 1.574 2.09.575 3.387.575zm1.974-9.035h-5.402a5.83 5.83 0 0 1 .261-1.027c.12-.338.288-.634.507-.9s.494-.46.823-.616.722-.233 1.18-.233c.475 0 .873.082 1.193.246a2.48 2.48 0 0 1 .795.63 2.53 2.53 0 0 1 .466.876c.1.33.16.666.178 1.013h0zm-91.614 30.43v-7.83h7.513v-3.587h-7.513v-3.97h8.446v-3.587H10.14v18.973h4.278zm16.81.33c1.207 0 2.358-.087 3.455-.26l2.687-.56v-13.908h-4.086v11.116l-.877.096-.932.04c-.95 0-1.6-.292-1.947-.876s-.52-1.533-.52-2.847h0v-7.53H24.92v8.022c0 .986.1 1.89.302 2.7s.54 1.53 1.015 2.122 1.12 1.054 1.933 1.383 1.833.493 3.057.493zm15.548 0c.877 0 1.618-.073 2.22-.22s1.152-.32 1.645-.52h0l-.576-3.176c-.384.146-.81.26-1.275.342a7.82 7.82 0 0 1-1.357.123c-.914 0-1.522-.256-1.824-.767s-.452-1.196-.452-2.053h0v-5.065h4.908v-3.395h-4.908V99.58l-4.086.657v12.1c0 .93.087 1.78.26 2.546s.48 1.42.92 1.958 1.024.958 1.755 1.26 1.654.452 2.77.452zm12.778 0c1.207 0 2.358-.087 3.455-.26l2.687-.56v-13.908H61.6v11.116l-.877.096-.932.04c-.95 0-1.6-.292-1.947-.876s-.52-1.533-.52-2.847h0v-7.53h-4.086v8.022c0 .986.1 1.89.302 2.7s.54 1.53 1.015 2.122 1.12 1.054 1.933 1.383 1.833.493 3.057.493zm14.067-.33V107.22c.183-.055.452-.105.81-.15a7.39 7.39 0 0 1 .919-.068c.567 0 1.097.05 1.6.15l1.29.287.686-3.368c-.22-.09-.484-.17-.795-.233l-.932-.164-.932-.1-.795-.04c-1.225 0-2.335.114-3.332.342l-2.59.726v13.635h4.086zm14.15.383c.512 0 1.024-.027 1.536-.082l1.44-.205c.448-.082.855-.178 1.22-.287s.658-.22.877-.33h0l-.548-3.313c-.457.2-1.047.37-1.77.507s-1.458.205-2.207.205c-1.17 0-2.102-.246-2.797-.74s-1.088-1.16-1.18-2H93.6l.055-.753.027-.78c0-2.428-.594-4.266-1.782-5.517s-2.806-1.875-4.854-1.875a6.92 6.92 0 0 0-2.564.493c-.832.33-1.568.812-2.207 1.45s-1.156 1.437-1.55 2.396-.6 2.076-.6 3.354c0 1.06.15 2.044.452 2.957s.768 1.702 1.398 2.368 1.426 1.19 2.386 1.574 2.09.575 3.387.575zm1.974-9.035h-5.402a5.83 5.83 0 0 1 .261-1.027c.12-.338.288-.634.507-.9s.494-.46.823-.616.722-.233 1.18-.233c.475 0 .873.082 1.193.246a2.48 2.48 0 0 1 .795.63 2.53 2.53 0 0 1 .466.876c.1.33.16.666.178 1.013h0z"/><path d="M19.613 47.912v-1.383h-7.948v-.05a2.75 2.75 0 0 1 .28-1.177 6.7 6.7 0 0 1 .753-1.213 14.55 14.55 0 0 1 1.069-1.238l1.227-1.226 1.483-1.456c.486-.485.92-.987 1.3-1.505s.685-1.056.91-1.614a4.69 4.69 0 0 0 .34-1.784c0-1.424-.413-2.536-1.24-3.337s-2.058-1.2-3.694-1.2c-.616 0-1.175.077-1.677.23s-.944.336-1.325.546-.697.425-.948.643l-.523.497.826 1.092c.097-.097.25-.235.462-.413s.466-.352.766-.522a5.61 5.61 0 0 1 1.057-.449c.405-.13.867-.194 1.385-.194.924 0 1.69.247 2.297.74s.91 1.306.91 2.44c0 .518-.08.995-.243 1.432s-.38.85-.656 1.238-.595.764-.96 1.128l-1.154 1.128-1.52 1.456c-.527.502-1.005 1.043-1.434 1.626a8.99 8.99 0 0 0-1.057 1.856c-.275.655-.413 1.363-.413 2.123l.012.4.012.182h9.698zm8.896.364c1.718 0 3.05-.752 3.998-2.257s1.422-3.672 1.422-6.504c0-2.847-.474-5.023-1.422-6.528s-2.28-2.257-3.998-2.257c-1.734 0-3.07.752-4 2.257s-1.4 3.68-1.4 6.528c0 2.83.474 5 1.422 6.504s2.28 2.257 3.998 2.257zm0-1.432c-.713 0-1.304-.202-1.774-.607s-.847-.942-1.13-1.614-.486-1.448-.608-2.33a20.35 20.35 0 0 1-.182-2.779 20.35 20.35 0 0 1 .182-2.779c.122-.882.324-1.662.608-2.342s.66-1.22 1.13-1.626 1.06-.607 1.774-.607c.697 0 1.28.202 1.75.607s.85.946 1.142 1.626.498 1.46.62 2.342a20.35 20.35 0 0 1 .182 2.779 20.35 20.35 0 0 1-.182 2.779c-.122.882-.328 1.658-.62 2.33s-.672 1.21-1.142 1.614-1.053.607-1.75.607zm18.52 1.068v-1.383H39.08v-.05a2.75 2.75 0 0 1 .28-1.177 6.7 6.7 0 0 1 .753-1.213 14.55 14.55 0 0 1 1.069-1.238l1.227-1.226 1.483-1.456c.486-.485.92-.987 1.3-1.505s.685-1.056.91-1.614a4.69 4.69 0 0 0 .34-1.784c0-1.424-.413-2.536-1.24-3.337s-2.058-1.2-3.694-1.2c-.616 0-1.175.077-1.677.23s-.944.336-1.325.546-.697.425-.948.643l-.523.497.826 1.092c.097-.097.25-.235.462-.413s.466-.352.766-.522a5.61 5.61 0 0 1 1.057-.449c.405-.13.867-.194 1.385-.194.924 0 1.69.247 2.297.74s.91 1.306.91 2.44c0 .518-.08.995-.243 1.432s-.38.85-.656 1.238-.595.764-.96 1.128l-1.154 1.128-1.52 1.456c-.527.502-1.005 1.043-1.434 1.626a8.99 8.99 0 0 0-1.057 1.856c-.275.655-.413 1.363-.413 2.123l.012.4.012.182h9.698zm10.62 0V31.094h-1.118c-.745.906-1.5 1.622-2.26 2.148a10.85 10.85 0 0 1-2.601 1.298h0l.462 1.213c.39-.113.778-.263 1.167-.45l1.118-.582c.356-.202.676-.41.96-.62s.514-.413.693-.607h0v14.415h1.58z"/></g><g class="E F P"><path d="M20.256 29.525v-.876h-4.878v-.03c0-.246.057-.494.172-.745s.27-.507.462-.768a9.14 9.14 0 0 1 .656-.784l.753-.776.9-.922a8.22 8.22 0 0 0 .798-.953 4.77 4.77 0 0 0 .559-1.022c.14-.353.21-.73.21-1.13 0-.9-.254-1.606-.76-2.113s-1.263-.76-2.267-.76a3.41 3.41 0 0 0-1.029.146c-.308.097-.58.213-.813.346a3.37 3.37 0 0 0-.582.407l-.32.315.507.69a5.06 5.06 0 0 1 .283-.261c.13-.113.286-.223.47-.33s.4-.202.65-.284.532-.123.85-.123c.567 0 1.037.156 1.4.47s.56.827.56 1.544a2.66 2.66 0 0 1-.149.906 3.42 3.42 0 0 1-.403.784 5.51 5.51 0 0 1-.589.714l-.71.714-.932.922a7.79 7.79 0 0 0-.88 1.029c-.264.37-.48.76-.65 1.175s-.254.863-.254 1.344l.007.254.007.115h5.952zm5.323 0V18.878h-.686c-.457.574-.92 1.027-1.387 1.36a6.58 6.58 0 0 1-1.596.822h0l.283.768c.24-.072.477-.166.716-.284l.686-.37c.22-.128.415-.26.59-.392s.316-.26.425-.384h0v9.126h.97z"/><path d="M16.04 16.1l.072-1.627.11-1.437.133.254.208.418.245.51.25.53.22.474.152.35h.325l.152-.35.22-.474.25-.53.245-.51.208-.418.133-.254.11 1.437.072 1.627h.368l-.11-1.916-.152-1.752h-.304l-.34.61-.36.72-.347.736-.296.654-.296-.654-.347-.736-.36-.72-.34-.61h-.32l-.152 1.752-.11 1.916h.357zm5.134.058l.333-.013.296-.034.235-.04.155-.034V14.3a1.45 1.45 0 0 0-.053-.402.83.83 0 0 0-.171-.32.79.79 0 0 0-.307-.212 1.23 1.23 0 0 0-.461-.077 2.41 2.41 0 0 0-.456.037c-.126.025-.22.05-.28.08h0l.048.302a2.87 2.87 0 0 1 .219-.069 1.79 1.79 0 0 1 .453-.042c.142 0 .257.022.344.066s.155.102.203.175.08.153.093.243.02.183.02.278h0v.17a.41.41 0 0 0-.077-.024l-.133-.026-.16-.02-.157-.008c-.167 0-.322.016-.464.048a1.08 1.08 0 0 0-.368.151c-.103.07-.183.156-.24.262s-.085.233-.085.38c0 .155.026.287.077.394s.123.196.213.265.197.12.32.15.257.048.403.048zm.06-.307c-.1 0-.21-.01-.296-.03a.64.64 0 0 1-.224-.093.42.42 0 0 1-.144-.169c-.034-.07-.05-.157-.05-.26 0-.116.025-.2.075-.28a.53.53 0 0 1 .192-.167c.078-.04.164-.067.256-.08s.18-.02.267-.02c.15 0 .267.01.352.03a1.07 1.07 0 0 1 .187.056h0v.963a2.44 2.44 0 0 1-.259.034l-.355.013zm1.77 1.244c.156 0 .292-.018.408-.053s.217-.1.304-.164a1.19 1.19 0 0 0 .237-.283 3.04 3.04 0 0 0 .208-.41c.17-.402.33-.845.475-1.328l.39-1.492h-.347l-.152.65-.15.6-.168.58-.208.62-.3-.646-.253-.64-.205-.606-.15-.548h-.368l.203.7.26.714.304.706.34.672a1.91 1.91 0 0 1-.152.307.8.8 0 0 1-.173.198.58.58 0 0 1-.216.108c-.08.02-.17.032-.27.032a.72.72 0 0 1-.205-.029c-.066-.02-.106-.034-.12-.045h0l-.07.286c.018.01.063.026.136.048a.87.87 0 0 0 .243.032z"/></g><g opacity=".92" style="mix-blend-mode:luminosity" class="P"><g transform="translate(137.222 28)"><g transform="translate(59.205)"><path d="M59.794 29.803V.034H30.087l.003.35c.26 16.13 13.26 29.155 29.355 29.416l.35.003z" class="k"/><path d="M59.794 30.483v29.77H30.087l.003-.35c.26-16.13 13.26-29.155 29.355-29.416l.35-.003z" class="Y"/><path d="M30.087 60.252v-29.77H.38l.003.35c.26 16.13 13.26 29.155 29.355 29.416l.35.003z" class="J"/><ellipse cx="15.233" cy="14.918" rx="14.854" ry="14.885" class="Z"/><ellipse cx="15.233" cy="75.242" rx="14.854" ry="14.885" class="Q"/></g><path d="M30.537 90.225V60.357H0l.003.35C.27 76.89 13.633 89.96 30.178 90.222l.36.003z" class="Z"/><path d="M30.537 0v29.868H0l.003-.35C.27 13.334 13.633.265 30.178.003l.36-.003z" class="E"/><path d="M30.537 29.868V0h30.537l-.003.35c-.268 16.182-13.63 29.25-30.176 29.513l-.36.003z" class="Y"/><path d="M30.537 30.5v29.868H0l.003-.35c.268-16.182 13.63-29.25 30.176-29.513l.36-.003z" class="Q"/><path d="M45.183 60.357c8.088 0 14.645 6.686 14.645 14.934S53.27 90.225 45.183 90.225 30.537 83.54 30.537 75.29s6.557-14.934 14.645-14.934z" class="l"/></g></g><path d="M-3 166.273h275.557" class="B C L P"/></g><rect stroke="#0064ff" x="8" y="8" width="25" height="26" rx="3" class="C D"/></g></g></g><use xlink:href="#a" class="X"/></g></g><g filter="url(#I)" transform="translate(221 116)"><use xlink:href="#R" class="d"/><use xlink:href="#S" class="N"/><g transform="translate(13.5 13.5)"><mask id="h" class="G"><use xlink:href="#J" href="#C"/></mask><use xlink:href="#J" class="e" href="#C"/><g class="m"><g transform="translate(-8 -21)"><mask id="i" class="G"><use xlink:href="#J"/></mask><use xlink:href="#J" class="D G L"/><rect mask="url(#i)" x="178.209" y="188.294" width="87.26" height="23.62" rx="2.85" class="E"/><g opacity=".92" mask="url(#i)"><g transform="translate(-22.5 -26.5)"><g transform="translate(176 27)"><path d="M150.482 75.062V.085H75.72l.007.882c.657 40.622 33.37 73.43 73.878 74.088l.878.007z" class="k"/><path d="M150.482 76.774v74.977H75.72l.007-.882c.657-40.622 33.37-73.43 73.878-74.088l.878-.007z" class="Y"/><path d="M75.718 151.752V76.775H.955l.007.882c.657 40.622 33.37 73.43 73.878 74.088l.878.007z" class="J"/><ellipse cx="38.337" cy="37.573" rx="37.382" ry="37.488" class="Z"/><ellipse cx="38.337" cy="189.504" rx="37.382" ry="37.488" class="Q"/></g><path d="M104 255v-76H27l.007.894c.676 41.176 34.37 74.43 76.088 75.1L104 255z" class="Z"/><path d="M104 0v103H0l.01-1.21C.924 45.984 46.43.915 102.778.01L104 0z" class="E"/><path d="M104 103V27h77l-.007.894c-.676 41.176-34.37 74.43-76.088 75.1L104 103z" class="Y"/><path d="M104 104v76H27l.007-.894c.676-41.176 34.37-74.43 76.088-75.1L104 104z" class="Q"/><path d="M141 179c20.435 0 37 17.013 37 38s-16.565 38-37 38-37-17.013-37-38 16.565-38 37-38z" class="l"/></g></g></g><g transform="translate(8.5 104)"><g filter="url(#K)" transform="translate(1 .5)"><path d="M0 0h260.3v91H0z" class="D G L"/><rect x="71" y="16" width="119" height="19" rx="9.5" class="X"/><rect x="71" y="40" width="119" height="11" rx="5.5" class="R"/><g fill="#42be65"><rect x="71" y="60" width="48" height="11" rx="5.5"/><rect x="142" y="60" width="48" height="11" rx="5.5"/></g></g><g transform="translate(0 95.5)"><g filter="url(#L)" transform="translate(1)"><path d="M0 0h260.3v52H0z" class="D G L"/><path d="M37 27h4v-4h-4v4zm-6 0h4v-4h-4v4zm0 6h4v-4h-4v4zm-6-6h4v-4h-4v4zm0 6h4v-4h-4v4zm17-16h-2v-2h-2v5h-2v-3h-6v-2h-2v5h-2v-3h-2a2 2 0 0 0-2 2v15c0 1.102.897 2 2 2h18c1.103 0 2-.898 2-2V19c0-1.103-.897-2-2-2z" class="E"/><g transform="translate(150 15)"><path d="M10.663 0C4.774 0 0 4.766 0 10.644S4.774 21.29 10.663 21.29s10.663-4.766 10.663-10.644S16.552 0 10.663 0z" fill="#06f" class="F"/><g transform="translate(1.11 4.72)"><path d="M7.995 1.51c-2.42 0-4.585.64-6.2 1.657C1.14 3.58.62 4.032.32 4.445c-.18.25-.3.49-.303.744-.022.43.255.78.678.87l.036.007c.276.052.68.072 1.628.097l.858.023 2.067.1.13.01.114.008c.978.073 1.798.182 2.448.333l.045.01v3.78c.087.9 1.048 1.335 2.88 1.335s3.92-.516 6.26-1.548L16.84 7.4l.023-.006c.334-.09.617-.214.85-.38.44-.317.678-.774.678-1.31 0-.62-.348-1.086-.943-1.242l-.023-.006c-.255-.063-.55-.07-.888-.025l-.04.005-.06-.522-.214-.17c-1.893-1.5-4.64-2.235-8.226-2.235z" class="F J"/><g class="B C D K"><path d="M6.33 2.31c.94.055.792.076 1.463-.577"/><path d="M6.42 2.79c.74-.053.816-.334 1.323-.954"/><path d="M8.067 1.8c.186.474.504.507 1 .468"/><path d="M8.067 1.806c.11.828-.084.482.634 1.01"/></g><g stroke="#fff" class="C D"><path d="M6.793.287c.88-.805 1.332.264 1.237.954-.114.833-.793 1.476-1.432 1.932-.01.006-.567.382-.73.237-.395-.35-.238-1.135-.073-1.604A4.36 4.36 0 0 1 6.793.287z"/><g class="B"><path d="M7.957 2.03c.145-.445.242-1.007.64-1.324.854-.682 1.68-.457 1.444.717-.13.642-.664 1.4-1.133 1.847-.61.58-1.14-.213-1.048-.8.044-.28.15-.547.225-.82"/></g></g><g class="K B C D"><path d="M10.93 1.466c.2 1.172.312 2.07 1.097 2.995 1.15 1.358 3.705.79 4.772-.377"/><path d="M11.912 1.618c-.213 1.558-.084 3.32 1.89 3.585.137.018 1.047.067 1.383-.05.816-.28.85-.45 1.627-1.08"/><path d="M12.272 1.63c.7 1.425 2.528 4.736 4.37 2.582"/><path d="M13.186 1.8c.162.876.243 1.762.83 2.48.776.95 2.358.755 3.017-.17"/><path d="M13.637 1.958c.442 1.115 1.28 2.985 2.797 2.363"/><path d="M14.18 2.074c.367.58 1.126 2.053 1.883 2.206.295.06.6-.008.902-.012"/><path d="M7.72 7.038c.743-.26 1.342.276 2.102.14.368-.066.817-.466 1.085-.668"/></g></g><path d="M7.72 14.642l3.136 1.734 4.92-1.734-.29 3.66-4.632-1.397L6.9 18.303z" class="C D K b"/></g><g transform="translate(166.432 15)"><use xlink:href="#b" class="F c"/><g transform="translate(3.017 6.813)"><g transform="translate(0 .003)"><path d="M10.553 7.34c1.296 0 2.887-.08 4.774-.244l.5-2.4h-2.122l.163-3.497H2.107l-.072 1.94C.678 2.763 0 2.94 0 3.672s.607 1.17 1.822 1.31l.408 1.87 8.323.488z" class="J"/><g transform="translate(8.798 .878)" class="V"><path d="M.084.278c-.06 1.02.85 1.28 1.103.34C1.38-.098.33-.166 0 .278"/><path d="M3.508.116c.018.217.005.44.053.652.21.922 1.365.027.753-.743"/></g><path d="M14.152 0c.252 0-.046 2.24-.204 2.7-.2.57-.673.447-1.183.447a3.75 3.75 0 0 1-.425-.02 6.94 6.94 0 0 0-.785-.804l-.228-.19.057.33-.073-.115c-.31.78-.932 1-1.688 1-1.747 0-2.444-1.328-2.165-3.34h6.694zM10.68.908H8.32V.92c-.03.483.025.858.155 1.127l.078.136c.206.303.572.46 1.153.46.395 0 .667-.254.84-.876l.047-.188.033-.192.033-.257.022-.223zm2.804 0h-1.748c.248 1.016.576 1.457 1.184 1.523l.17.01c.025 0 .038-.005.06-.027.05-.046.103-.138.152-.28.08-.23.136-.55.166-.96l.014-.266z" class="F W"/><g class="B C D I"><path d="M11.6 2.615c.82.647 1.548 1.588 1.424 1.744-.163.203-.753.245-.898.163-.116-.066-.064.024-.064.782"/><path d="M9.806 4.667c.96.71 2.027.802 3.08.586"/></g><g class="K B C D"><path d="M10.835 6.494c.206.82.692 1.34 1.206 2.027"/><path d="M11.676 6.404c.562 1.774.437 1.018.565 2.23"/><path d="M12.375 6.532c.168 1.725.148 1.008.148 2.148"/><path d="M13.12 6.532l-.385 2.36"/><path d="M13.64 6.596c-.046.836-.267 1.503-.686 2.225"/><path d="M14.2 6.513c-.077.816-.3 1.6-.86 2.238"/><path d="M14.524 7.39c-.68.91-.76 1.187-1.777 1.426"/></g><path d="M9.875 4.37c-.062.165-.184.328-.388.337" class="B C D I"/></g></g></g><g transform="translate(182.864 15)"><use xlink:href="#b" fill="#06f" class="F"/><g transform="translate(.692 2.32)"><path d="M1.234 12.316c.01-5.395 7.16-10.17 11.272-10.166 6.244.008 4.7 10.415 4.412 10.435-1.768.12-6.996.03-15.684-.27z" transform="matrix(.956305 -.292372 .292372 .956305 -1.756857 3.031606)" class="b"/><g transform="translate(6.083 3.061)" fill="#f1f4f6"><path d="M9.38 2.76c.27 2.147-1.836 7.566-4.06 7.268-1.868-.25-2.956-1.834-3.532-3.53C1.7 6.213.247 6.96.05 5.628s1.377-.496 1.335-.74c-.138-.818-.128-1.512-.107-2.067.003-.088.475-.358 1.483-.518.45-.072 1.01-.12 1.68-.122.96-.001 2.03.093 2.93.207.26.033.022-2.373.245-2.338s.914 2.51 1.1 2.542c.415.076.67.14.674.17z"/></g><g transform="translate(9.446 5.974)"><g transform="translate(2.72 .444)" class="B C D I"><path d="M.247 0c.122 1.17.99.785.99.004"/><path d="M.297.642L0 1.037"/><path d="M.742.8l-.198.642"/><path d="M.99.69l.148.543"/></g><path d="M2.226 0l1.456 2.138c.075.09.218.2.175.313-.04.103-.984.182-1.067.014-.043-.087-.055-.387-.052-.29.018.604.07.985.16 1.143" fill="#f3fff6" class="B C D K"/><g transform="translate(.148 .395)" class="B C D I"><path d="M.22.083C.034.86 1.13.957 1.335 0"/><path d="M.346.642L0 .89"/><path d="M.733.69L.7 1.135"/><path d="M1.04.642l.148.346"/></g><path d="M2.06 4.058h1.046l-1.45.001c2.285-.001 1.77-.001-1.543.001l1.946-.001z" fill="#ff243a" transform="matrix(.956305 .292372 -.292372 .956305 1.273384 -.404895)"/></g></g></g><g transform="translate(199.295 15)"><path d="M10.955 0C4.905 0 0 4.896 0 10.935S4.905 21.87 10.955 21.87 21.91 16.975 21.91 10.935 17.005 0 10.955 0z" class="F g"/><g transform="translate(5.205 3.167)"><g transform="translate(3.321 .198)" class="a"><path d="M7.336 1.272C7.076 7.045.78 9.186 4.805 12.948c.962.9-5.274.912-4.74 0C2.922 8.083-.064 7.045.001 1.79.01 1.17.097.6.252.056 3.387-.032 5.683.05 7.14.3c.116.02.18.344.195.973z"/></g><g class="B C D T"><path d="M11.5.792c-.345 1.496-1 3.03-1.128 4.565-.092 1.113-.04 2.234-.062 3.35"/><path d="M11.103.742c-.774 1.943-1.074 3.69-1.147 5.8-.057 1.65-.223 1.247.107 1.93"/><path d="M10.062 1.93c-.726 2.992-.76 3.96-.25 7.026"/><path d="M9.765 9.302C7.963 7.687 8.718 4.867 9.2 2.87"/></g><path d="M6.272 1.435c.1.54.08.902-.09 1.086-.9.977-1.25 1.353-2.26 2.745-.014.02-.01.07.014.07.112.001.237-.003.33-.066.648-.443 1.15-1.116 1.867-1.435C7.1 3.404 4.8 4.9 5.364 5.18c.227.118 4.188-.426 2.907-.17s-3.183.61-3.023.817c.666.868.834 1.265.666 2.042" class="B C D I"/><g class="T B C D"><path d="M3.866 2.474c-.582 1.544-1.36 5.304-3.65 5.74-.03.006-.044-.04-.066-.06"/><path d="M3.52 1.435C2.993 4.04 2.214 6.345.05 7.867"/><path d="M3.222.445C2.55 2.872 2.21 5.512.15 7.175"/><path d="M2.528.544C1.906 3.147 1.838 4.86 0 6.68"/></g><path d="M3.163.022c-.28 0 .17 1.73.345 2.13.15.338.56.5 1.232.516.744.023 1.26-.147 1.552-.51l.044-.057c.345.692 1.04.888 1.885.888 1.95 0 2.73-1.18 2.418-2.97H3.163zm3.445.66l3.32-.046.001.012c.044.57-.055.994-.278 1.275l-.023.028c-.267.313-.764.476-1.516.476-.515 0-1.116-.2-1.375-.842l-.06-.18c-.03-.11-.028-.282-.043-.49L6.608.682zm-2.92.056h2.408l-.004.354c-.02.795-.19 1.15-1.6 1.18l-.263.003c-.034 0-.052-.005-.084-.027-.067-.047-.14-.14-.21-.28-.11-.23-.188-.552-.228-.963l-.02-.266z" class="F h"/><g class="V"><use xlink:href="#c" transform="matrix(-1 0 0 1 11.251954 0)"/><use xlink:href="#c" x="1.44" transform="matrix(-1 0 0 1 14.126902 0)"/></g><g class="W"><path d="M1.233 14.185c.318.465 1.653.345.938-.598s-1.256.133-.938.598z" transform="matrix(-1 0 0 1 3.519334 0)"/><path d="M2.944 14.982c.327.45 1.522.163.786-.747s-1.113.298-.786.747z" transform="matrix(-1 0 0 1 6.790826 0)"/><path d="M5.228 15.25c.33.466 1.52.255.777-.7s-1.108.223-.777.7z" transform="matrix(-1 0 0 1 11.35109 0)"/><path d="M7.463 14.96c.336.46 1.48.22.992-.6s-1.33.13-.992.6z" transform="matrix(-1 0 0 1 15.96092 0)"/><path d="M9.238 14.414c.32.454 1.31.236.943-.583s-1.262.13-.943.583z" transform="matrix(-1 0 0 1 19.430686 0)"/></g></g></g><g transform="translate(215.727 15)"><use xlink:href="#b" fill="#06f" class="F"/><path d="M14.04 8.113c2.516 1.567 4.283 4.817 5.302 9.752-2.005 2.446-5.05 4.005-8.462 4.005-3.468 0-6.56-1.613-8.562-4.128.184-1.242.433-2.337.748-3.288.34-1.027 1.416-2.79 3.23-5.286l.554-.754c2.584.138 4.842.04 6.748-.233l.442-.068z" class="J"/><g class="B C D K"><path d="M5.726 16.517c1.49.766 2.45-.213 3.456-1.28"/><path d="M10.86 15.41c.205.885.333 1.44.84 2.152.012.017-.04.01-.06.015"/><path d="M12.642 17.288c-1.016-.603-.406-.15-1.544-1.68"/><path d="M14.736 16.853c-1.38-.094-2.803-.594-3.853-1.51"/><path d="M14.86 15.99c-.728.104-2.21.844-3.945-.748"/><path d="M14.805 14.945c-1.9.382-.727.23-3.547.16"/><path d="M7.16 17.71c.848-.674 2.098-1.42 2.32-2.597"/><path d="M8.374 17.697c1.008-.665.3-.113 1.452-2.27"/><path d="M9.49 17.757c.764-1.484.512-.753.835-2.165"/><path d="M10.7 17.586c-.57-1.16-.362-.496-.5-2.027"/><path d="M11.844 17.53c-.878-1.185-.452-.483-1.17-2.17"/><path d="M6.633 14.3c.77.454 1.834 1.293 2.674.538"/><path d="M6.186 15.323c.5.13 2.963.862 2.918-.387"/><path d="M8 8.738c-.058.526-.058.855 0 .987.37.84.947.56 1.187-.346"/><path d="M9.584 8.146c-1.12 4.838-1.04 7.257.247 7.257s1.73-.856 1.335-2.567l-.198-4.394c.593 2.074 1.154 2.172 1.682.296" class="J"/></g><g stroke="#ff5fa7" class="a C D"><path d="M5.627 12.77c-.286-.147-.45-.28-.495-.395-.235-.62.24-.956 1.088-.494.033-.724.313-1.168.84-1.333s.626.28.297 1.333c.525-.078.855-.078.99 0 .45.26.24.897-.692 1.284.462.395.528.806.198 1.234s-.725.23-1.187-.592c-.66.8-1.17.987-1.533.592s-.198-.938.495-1.63z"/><path d="M12.947 12.06c-.3-.154-.472-.29-.52-.413-.246-.648.25-1 1.142-.517.035-.758.33-1.223.882-1.395s.657.293.31 1.395c.55-.082.897-.082 1.038 0 .472.273.253.94-.727 1.344.484.413.553.844.207 1.292s-.76.24-1.245-.62c-.692.827-1.228 1.034-1.61.62s-.207-.982.52-1.705z" transform="matrix(-.987688 .156434 .156434 .987688 26.245017 -2.065528)"/></g><g fill="#d41c61"><circle cx="6.74" cy="12.746" r="1"/><circle cx="14.136" cy="11.947" r="1"/></g><path d="M14.397 8.234c2.037-.364 3.174-.627 3.412-.8L17.364 6.2l-3.71.74c-.23-3.587-.874-5.38-1.93-5.38-.343 0-.74.494-1.187 1.48C9.913 1.14 9.253.78 8.56 1.964s-1.055 2.98-1.088 5.38L5.05 7.208c-.526-.057-.94-.143-1.236-.257v1.135c-.053.055.313.133 1.098.233l2.364.21c.956.073 3.33-.026 7.122-.296z" class="b"/></g></g><g filter="url(#M)" transform="translate(0 56)"><path d="M1 0h261v437H1z" class="G L"/><g transform="translate(12 387)"><path d="M10.476 0A10.48 10.48 0 0 0 0 10.476a10.48 10.48 0 0 0 10.476 10.476 10.48 10.48 0 0 0 10.476-10.476A10.48 10.48 0 0 0 10.476 0z" fill="#65a9ff" class="F"/><g transform="translate(.664 2.228)"><path d="M1.178 11.83C1.2 6.65 8.047 2.06 11.99 2.064c5.986.005 4.5 9.997 4.225 10.016-1.695.116-6.707.033-15.035-.25z" transform="matrix(.956305 -.292372 .292372 .956305 -1.687287 2.905666)" class="b"/><g transform="translate(5.831 2.939)" fill="#f1f4f6"><path d="M8.99 2.65C9.25 4.713 7.23 9.916 5.1 9.63c-1.8-.24-2.833-1.76-3.386-3.39-.093-.275-1.477.443-1.666-.837s1.32-.476 1.28-.71c-.132-.786-.122-1.452-.102-1.984.003-.084.455-.344 1.42-.497.432-.07.968-.116 1.612-.117.92-.001 1.945.09 2.807.198.248.03.02-2.278.235-2.245s.876 2.41 1.045 2.44c.398.073.642.136.646.163z"/></g><g transform="translate(9.054 5.736)"><g transform="translate(2.607 .427)" class="B C H I"><path d="M.237 0c.117 1.123.948.754.948.004"/><path d="M.284.616L0 .995"/><path d="M.71.758l-.2.616"/><path d="M.948.664l.142.52"/></g><path d="M2.133 0L3.53 2.053c.07.088.21.192.168.3-.038.1-.943.174-1.023.014-.04-.083-.053-.372-.05-.278.017.58.068.946.152 1.097" fill="#f3fff6" class="B C H K"/><g transform="translate(.142 .379)" class="B C H I"><path d="M.2.08C.033.824 1.083.92 1.28 0"/><path d="M.332.616L0 .853"/><path d="M.685.664L.653 1.1"/><path d="M.995.616l.142.332"/></g><path d="M1.974 3.345c.305-.058.34.382.555.257.108-.063.166-.222.3-.237.19-.023.486.06.89.25l-.733.655c-.458.423-2.382.006-2.868-.22l1.48.02c2.19-.34 1.698-.347-1.48-.02.432-.447 1.56-.648 1.866-.705z" fill="#ff243a" transform="matrix(.956305 .292372 -.292372 .956305 1.222555 -.387794)"/></g></g></g><g transform="translate(12 7)"><path d="M10.5 0C4.7 0 0 4.7 0 10.5S4.7 21 10.5 21 21 16.3 21 10.5 16.3 0 10.5 0z" class="F g"/><g transform="translate(4.989 3.041)"><g transform="translate(3.183 .19)" class="a"><path d="M7.032 1.22c-.25 5.543-6.284 7.6-2.427 11.21.922.863-5.055.875-4.542 0C2.8 7.76-.06 6.765.001 1.72.008 1.125.093.566.242.054 3.246-.03 5.447.047 6.845.287c.11.02.173.33.187.934z"/></g><g class="B C H T"><path d="M11.023.76c-.33 1.436-.96 2.91-1.08 4.384-.088 1.07-.04 2.145-.06 3.218"/><path d="M10.643.713c-.742 1.865-1.03 3.544-1.1 5.56-.055 1.584-.213 1.197.102 1.852"/><path d="M9.645 1.853c-.696 2.873-.728 3.8-.24 6.747"/><path d="M9.36 8.932c-1.727-1.55-1.003-4.26-.54-6.176"/></g><path d="M6.012 1.378c.105.52.076.866-.086 1.043-.86.938-1.197 1.3-2.165 2.635-.013.018-.01.066.013.066.107.001.227-.002.316-.063.62-.425 1.102-1.072 1.8-1.378.926-.413-1.27 1.014-.74 1.292.217.114 4.014-.41 2.787-.164s-3.05.585-2.898.784c.638.833.8 1.215.638 1.96" class="B C H I"/><g class="T B C H"><path d="M3.706 2.376c-.558 1.482-1.304 5.093-3.5 5.51-.028.005-.042-.038-.063-.056"/><path d="M3.373 1.378C2.868 3.88 2.122 6.092.048 7.554"/><path d="M3.088.428c-.645 2.33-.97 4.865-2.946 6.462"/><path d="M2.423.523c-.596 2.5-.66 4.144-2.423 5.89"/></g><path d="M3.032.02c-.27 0 .162 1.66.33 2.045.143.324.537.5 1.18.496.713.022 1.21-.14 1.488-.488l.043-.055c.33.665.998.853 1.807.853 1.87 0 2.617-1.133 2.318-2.85H3.032zm3.302.634L9.515.6l.001.01c.042.547-.053.955-.266 1.224l-.022.027c-.256.3-.732.457-1.453.457-.494 0-1.07-.193-1.318-.81l-.058-.174c-.028-.105-.026-.27-.04-.47L6.334.655zm-2.8.054h2.308l-.003.34c-.02.764-.18 1.105-1.534 1.133l-.252.002c-.033 0-.05-.005-.08-.026-.065-.045-.135-.133-.2-.268-.106-.22-.18-.53-.22-.924L3.535.71z" class="F h"/><g class="V"><use xlink:href="#d" transform="matrix(-1 0 0 1 10.785068 0)"/><use xlink:href="#d" x="1.378" transform="matrix(-1 0 0 1 13.540724 0)"/></g><g class="W"><path d="M1.182 13.62c.305.447 1.585.33.9-.574s-1.204.128-.9.574z" transform="matrix(-1 0 0 1 3.373302 0)"/><path d="M2.822 14.385c.314.43 1.46.157.753-.717s-1.067.286-.753.717z" transform="matrix(-1 0 0 1 6.50905 0)"/><path d="M5.01 14.642c.317.448 1.458.245.744-.662s-1.062.215-.744.662z" transform="matrix(-1 0 0 1 10.88009 0)"/><path d="M7.153 14.364c.323.44 1.42.21.95-.566s-1.274.126-.95.566z" transform="matrix(-1 0 0 1 15.298642 0)"/><path d="M8.854 13.84c.306.436 1.255.227.903-.56s-1.2.124-.903.56z" transform="matrix(-1 0 0 1 18.624434 0)"/></g></g></g><g transform="translate(0 7)"><g stroke-width="1.053" stroke-linecap="square" class="C L"><path d="M.7 79.518l261.667.444"/><path d="M.7 40.158l261.667.444"/><path d="M.7 187.124l261.667.444"/><path d="M.7 207.003l261.667.444"/><path d="M.7 369.41l261.667.444"/><path d="M.7 310.616l261.667.444"/></g><path d="M22 50.586c-5.875 0-10.638 4.757-10.638 10.626S16.126 71.837 22 71.837 32.64 67.08 32.64 61.212 27.876 50.586 22 50.586z" fill="#65a9ff" class="F"/><path d="M24.57 64.373c1.26 0 2.8-.08 4.646-.238l.477-2.337H27.63l.16-3.406H16.35l-.07 1.89c-1.32-.367-1.98-.195-1.98.518s.59 1.138 1.773 1.276l.397 1.822 8.1.475z" class="J"/><g class="V"><path d="M22.944 58.35c-.057.995.828 1.248 1.073.332.187-.698-.833-.765-1.155-.332"/><path d="M26.277 58.192c.017.212.005.428.052.635.206.898 1.328.027.733-.724"/></g><path d="M28.074 57.224c.245 0-.045 2.182-.2 2.62-.195.555-.655.436-1.152.436-.158 0-.294-.005-.414-.02a6.76 6.76 0 0 0-.764-.783l-.222-.184.055.322-.07-.112c-.3.76-.907.974-1.642.974-1.7 0-2.38-1.294-2.107-3.254h6.515zm-3.38.884h-2.297v.01c-.03.47.024.836.15 1.097l.076.132c.2.295.557.45 1.122.45.385 0 .65-.247.818-.853l.045-.183.033-.187.032-.25.022-.217zm2.73 0h-1.702c.242.99.56 1.42 1.153 1.484l.167.01c.024 0 .037-.005.06-.027.048-.045.1-.135.148-.27.078-.223.133-.536.16-.936l.014-.26z" class="F W"/><g class="C B H"><g class="I"><path d="M25.59 59.77c.8.63 1.507 1.547 1.386 1.698-.16.198-.733.24-.874.158-.113-.065-.062.023-.062.76"/><path d="M23.844 61.77c.935.693 1.973.78 2.998.57"/></g><g class="K"><path d="M24.845 63.548c.2.8.673 1.304 1.174 1.974"/><path d="M25.663 63.46c.547 1.728.425.99.55 2.173"/><path d="M26.344 63.585c.163 1.68.144.98.144 2.092"/><path d="M27.068 63.585l-.375 2.297"/><path d="M27.574 63.648c-.045.814-.26 1.464-.668 2.167"/><path d="M28.13 63.566c-.075.794-.3 1.56-.837 2.18"/><path d="M28.435 64.42c-.66.885-.74 1.156-1.73 1.388"/></g><path d="M23.91 61.48c-.06.16-.18.32-.378.328" class="I"/></g><g class="E"><rect x="43.349" y="61.768" width="52.245" height="6.39" rx="3.195"/><rect x="43.349" y="390.488" width="52.245" height="6.39" rx="3.195"/><rect x="43.349" y="331.693" width="52.245" height="6.39" rx="3.195"/></g><g class="R"><rect x="12.251" y="96.38" width="234.568" height="6.39" rx="3.195"/><rect x="12.251" y="114.129" width="234.568" height="6.39" rx="3.195"/></g><g class="c"><rect x="43.349" y="52.893" width="61.307" height="6.39" rx="3.195"/><rect x="43.349" y="381.614" width="61.307" height="6.39" rx="3.195"/><rect x="43.349" y="322.818" width="61.307" height="6.39" rx="3.195"/></g><g class="R"><rect x="12.251" y="87.505" width="234.568" height="6.39" rx="3.195"/><rect x="12.251" y="105.254" width="234.568" height="6.39" rx="3.195"/><rect x="12.251" y="131.879" width="199.916" height="6.39" rx="3.195"/><rect x="12.251" y="159.39" width="199.916" height="6.39" rx="3.195"/><rect x="43.537" y="402.025" width="199.916" height="6.39" rx="3.195"/><rect x="43.537" y="343.23" width="199.916" height="6.39" rx="3.195"/><rect x="43.537" y="410.9" width="191.919" height="6.39" rx="3.195"/><rect x="43.537" y="352.105" width="191.919" height="6.39" rx="3.195"/></g><rect x="43.349" y="227.859" width="52.245" height="6.39" rx="3.195" class="E"/><rect x="43.349" y="218.984" width="61.307" height="6.39" rx="3.195" class="c"/><g class="R"><rect x="43.537" y="239.396" width="199.916" height="6.39" rx="3.195"/><rect x="43.537" y="257.145" width="199.916" height="6.39" rx="3.195"/><rect x="43.537" y="274.895" width="199.916" height="6.39" rx="3.195"/><rect x="43.537" y="248.271" width="191.919" height="6.39" rx="3.195"/><rect x="43.537" y="266.02" width="191.919" height="6.39" rx="3.195"/><rect x="43.537" y="283.77" width="191.919" height="6.39" rx="3.195"/></g><rect fill-opacity=".054" x="43.537" width="172" height="31.949" rx="3.6" class="E"/><g transform="translate(222.348)"><rect x=".652" width="30" height="30" rx="11" class="E"/><path d="M23.985 8.01l-17.578 3.9c-.4.087-.698.402-.748.785s.16.755.528.93l4.992 2.39.5 4.793c.04.385.334.705.73.8s.817-.055 1.047-.374l.152-.146-1-3.658c-.043-.476.208-.934.645-1.178l4.338-2.42-3.467 3.156c-.246.225-.35.555-.272.868l1.58 6.435c.09.376.426.658.832.705s.8-.152.988-.497l8.257-15.198c.04-.056.072-.116.097-.18.086-.213.033-.538-.066-.762-.122-.276-.64-.392-1.558-.347z" class="G"/></g><rect x="12.251" y="123.004" width="225.682" height="6.39" rx="3.195" class="R"/><path d="M19.952 193.114a3.07 3.07 0 0 0-2.369 1.154 3.07 3.07 0 0 0-2.369-1.154c-1.633 0-2.962 1.244-2.962 2.773 0 3.046 4.812 5.897 5.017 6.017.096.056.205.084.314.084s.218-.028.314-.084c.205-.12 5.017-2.97 5.017-6.017 0-1.53-1.33-2.773-2.962-2.773" class="Q"/><g transform="translate(30.91 193.114)" class="E"><path d="M7.616 4.93a.5.5 0 0 1-.508-.493.5.5 0 0 1 .508-.493.5.5 0 0 1 .508.493.5.5 0 0 1-.508.493m-2.03 0a.5.5 0 0 1-.508-.493.5.5 0 0 1 .508-.493.5.5 0 0 1 .508.493.5.5 0 0 1-.508.493m-2.03 0a.5.5 0 0 1-.508-.493.5.5 0 0 1 .508-.493.5.5 0 0 1 .508.493.5.5 0 0 1-.508.493M5.585 0C2.785 0 .508 1.99.508 4.437c0 .855.275 1.672.8 2.384L0 8.875h5.585c2.8 0 5.077-1.99 5.077-4.437S8.385 0 5.585 0"/></g></g></g></g></g><g transform="translate(-17 485.5)"><use xlink:href="#N" class="N j"/><use xlink:href="#N" class="G"/><g transform="translate(98.5 16)" class="E"><use xlink:href="#U"/></g><use xlink:href="#e" class="E"/><g transform="translate(198.5 14)" class="E"><use xlink:href="#V"/></g><g transform="translate(149.5 16)" class="E"><use xlink:href="#W"/><use xlink:href="#X"/></g><g transform="translate(250.5 16)" class="E"><use xlink:href="#Y"/><use xlink:href="#Z"/></g></g></g></g><use xlink:href="#a" class="X"/></g><g filter="url(#A)"><g filter="url(#B)"><use xlink:href="#R" class="d"/><use xlink:href="#S" class="N"/><g transform="translate(13.5 13.5)"><mask id="j" class="G"><use xlink:href="#S" href="#C"/></mask><use xlink:href="#S" class="e" href="#C"/><g class="n"><g transform="translate(7.106 33.421)"><g transform="translate(.089 .634)" filter="url(#O)"><mask id="k" class="G"><use xlink:href="#P"/></mask><use xlink:href="#P" class="D G L"/><g class="S N"><g transform="translate(52.129 130.432)"><g transform="translate(.45 .45)"><path d="M14.94 14.927h29.878V44.78H14.94V14.927zm-7.47 44.78h44.818a7.47 7.47 0 0 0 7.47-7.463V7.463C59.757 3.336 56.41 0 52.287 0H7.47C3.346 0 0 3.336 0 7.463v44.78a7.47 7.47 0 0 0 7.47 7.463h0z"/><path d="M142.753 33.17h-16.6V16.585h16.6V33.17zm8.3-33.17h-33.198c-4.58 0-8.3 3.707-8.3 8.293v33.17a8.3 8.3 0 0 0 8.3 8.293h33.198a8.3 8.3 0 0 0 8.3-8.293V8.293c0-4.586-3.718-8.293-8.3-8.293h0z"/><path d="M33.198 142.632H16.6v-16.585h16.6v16.585zm8.3-33.17H8.3c-4.58 0-8.3 3.707-8.3 8.293v33.17a8.3 8.3 0 0 0 8.3 8.293h33.198a8.3 8.3 0 0 0 8.3-8.293v-33.17c0-4.586-3.718-8.293-8.3-8.293h0z"/><path d="M99.595 0H69.716v19.902h29.878z"/><path d="M77.186 55.5h22.41V40.563h-14.94V25.637h-14.94v22.4c0 4.127 3.346 7.463 7.47 7.463"/><path d="M109.554 62.95V97.07c0 4.717 3.718 8.53 8.3 8.53h24.9v8.53h16.6V97.07c0-4.708-3.718-8.53-8.3-8.53h-24.9V71.48h33.198v-17.06h-41.498c-4.58 0-8.3 3.82-8.3 8.53"/><path d="M59.757 99.5v-22.4a7.47 7.47 0 0 0-7.47-7.463H0v14.927h14.94V99.5h14.94V84.584h14.94V99.5h14.94z"/><path d="M99.595 87.704H69.716v19.902h29.878z"/><path d="M79.676 81.52h19.92V61.618h-19.92z"/><path d="M105.724 127.373v15.922H75.08v-7.96H59.757v15.922c0 4.402 3.432 7.96 7.66 7.96h45.967c4.23 0 7.66-3.558 7.66-7.96v-15.922h38.306v-15.922h-45.967c-4.23 0-7.66 3.566-7.66 7.96"/><path d="M99.595 113.8h-19.92v19.902h19.92z"/><path d="M54.58 124.753h15.305V109.46H54.58z"/><path d="M54.468 70.613h15.305V55.32H54.468z"/><path d="M129.473 159.217h29.878v-19.902h-29.878z"/></g></g></g><path d="M106.372 64.54a2.25 2.25 0 0 1-2.251-2.249 2.25 2.25 0 1 1 4.501 0 2.25 2.25 0 0 1-2.251 2.249m16.55 4.827L110.543 57c-.212-.21-.497-.33-.796-.33h-7.877c-.62 0-1.125.504-1.125 1.124v7.87c0 .298.12.585.33.795l12.38 12.37c.22.22.508.33.796.33s.576-.1.796-.33l7.877-7.87c.44-.44.44-1.15 0-1.6" fill="#ff8100" class="S"/><rect x="100.745" y="15.292" width="116.138" height="15.292" rx="4" class="E S"/><rect x="100.745" y="35.082" width="78.326" height="15.292" rx="4" class="R S"/><g class="S"><g transform="translate(17.918 9.895)"><path d="M36.07 0C16.15 0 0 16.124 0 36.013s16.15 36.013 36.07 36.013 36.07-16.124 36.07-36.013S55.992 0 36.07 0z" class="F c"/><g transform="translate(9.956 22.488)"><g transform="translate(0 .01)"><path d="M34.828 24.23c4.276 0 9.527-.268 15.754-.805l1.616-7.92h-7.002l.54-11.543H6.954l-.237 6.4C2.24 9.118 0 9.704 0 12.12s2.004 3.858 6.012 4.326l1.347 6.174c14.037 1.074 23.194 1.61 27.47 1.61z" class="J"/><g transform="translate(29.036 2.898)" class="V"><path d="M.276.92c-.193 3.37 2.808 4.23 3.64 1.126C4.55-.322 1.09-.546 0 .92"/><path d="M11.578.382c.06.717.015 1.45.176 2.152.697 3.043 4.503.09 2.485-2.452"/></g><path d="M46.705.001c.83 0-.152 7.396-.673 8.88-.66 1.883-2.22 1.476-3.905 1.476a12.37 12.37 0 0 1-1.403-.065 22.91 22.91 0 0 0-2.591-2.652l-.75-.623.186 1.09-.24-.38c-1.02 2.57-3.076 3.3-5.57 3.3-5.766 0-8.067-4.385-7.144-11.028h22.09zM35.248 2.998h-7.8l-.002.038c-.098 1.595.083 2.833.5 3.72l.257.448c.68 1 1.888 1.523 3.805 1.523 1.305 0 2.203-.837 2.774-2.89l.154-.62.1-.632a24.09 24.09 0 0 0 .107-.85l.074-.735zm9.253 0h-5.77c.82 3.353 1.9 4.8 3.91 5.028l.565.03c.082 0 .124-.017.2-.1.162-.153.34-.456.502-.92.265-.756.45-1.816.546-3.17l.048-.877z" class="F W"/><g class="B C I M"><path d="M38.28 8.632c2.71 2.135 5.1 5.243 4.698 5.756-.54.67-2.487.81-2.962.537-.382-.22-.2.078-.2 2.58"/><path d="M32.363 15.406c3.17 2.348 6.69 2.647 10.167 1.934"/></g><g class="K B C M"><path d="M35.76 21.434c.68 2.71 2.282 4.42 3.98 6.7"/><path d="M38.532 21.138c1.855 5.857 1.442 3.36 1.863 7.365"/><path d="M40.84 21.56c.554 5.694.487 3.326.487 7.1"/><path d="M43.295 21.56l-1.27 7.787"/><path d="M45 21.77c-.153 2.76-.882 4.96-2.265 7.343"/><path d="M46.894 21.497c-.253 2.692-1.022 5.286-2.837 7.386"/><path d="M47.932 24.388c-2.242 3-2.513 3.918-5.864 4.706"/></g><path d="M32.6 14.426c-.203.544-.607 1.08-1.28 1.112" class="B C I M"/></g></g></g><g transform="translate(53.117 304.041)"><g class="F"><path d="M8.545 29.81v-2.343H3.17V17.7H.438v12.12h8.108zm5.674.245c.69 0 1.3-.117 1.865-.35s1.03-.563 1.427-.988.7-.94.91-1.54.315-1.262.315-1.985-.11-1.382-.333-1.976-.53-1.102-.928-1.52-.873-.746-1.427-.98-1.164-.35-1.83-.35c-.654 0-1.258.117-1.812.35s-1.033.56-1.436.98a4.48 4.48 0 0 0-.946 1.521c-.228.595-.34 1.253-.34 1.976s.11 1.384.333 1.985.53 1.113.928 1.54.873.755 1.427.988 1.17.35 1.847.35zm0-2.238c-.595 0-1.057-.236-1.383-.708s-.5-1.11-.5-1.915.163-1.437.5-1.897.788-.69 1.383-.69 1.054.23 1.375.69.482 1.093.482 1.897-.16 1.443-.482 1.915-.78.708-1.375.708zm10.63 2.238c.69 0 1.3-.117 1.865-.35s1.03-.563 1.427-.988.7-.94.91-1.54.315-1.262.315-1.985-.11-1.382-.333-1.976-.53-1.102-.928-1.52-.873-.746-1.427-.98-1.164-.35-1.83-.35c-.654 0-1.258.117-1.812.35s-1.033.56-1.436.98a4.48 4.48 0 0 0-.946 1.521c-.228.595-.34 1.253-.34 1.976s.11 1.384.333 1.985.53 1.113.928 1.54.873.755 1.427.988 1.17.35 1.847.35zm0-2.238c-.595 0-1.057-.236-1.383-.708s-.5-1.11-.5-1.915.163-1.437.5-1.897.788-.69 1.383-.69 1.054.23 1.375.69.482 1.093.482 1.897-.16 1.443-.482 1.915-.78.708-1.375.708zm9.14 1.994v-4.022c.292.233.587.52.884.857l.85 1.058.762 1.102.64 1.006h2.994l-.735-1.277-.963-1.4-1.086-1.355c-.374-.437-.735-.813-1.086-1.128l1.935-2.002 1.812-2.037h-3.1l-.587.7-.727.848-.797.9-.797.874V16.24l-2.61.42v13.15h2.61zm8.826-10.318c.42 0 .785-.137 1.094-.41s.464-.65.464-1.128-.155-.854-.464-1.128-.674-.41-1.094-.41-.785.137-1.094.41-.464.65-.464 1.128.155.854.464 1.128.674.41 1.094.41zm1.313 10.318v-9.2h-2.61v9.2h2.61zm5.06 0v-7.1l.56-.06.595-.026c.607 0 1.02.175 1.243.525s.333.944.333 1.784h0v4.88h2.61v-5.194c0-.63-.064-1.2-.193-1.714a3.37 3.37 0 0 0-.648-1.329c-.304-.373-.715-.662-1.235-.866s-1.17-.306-1.953-.306a14.12 14.12 0 0 0-2.206.166l-1.716.36v8.884h2.61zm10.962 3.288c1.6 0 2.78-.364 3.546-1.093s1.147-1.845 1.147-3.35h0v-7.73l-.797-.2-.937-.166-.99-.114-.972-.044c-.735 0-1.395.108-1.98.324s-1.077.522-1.48.918-.71.87-.92 1.425-.315 1.17-.315 1.845c0 1.352.34 2.405 1.016 3.157s1.652 1.128 2.924 1.128c.35 0 .674-.032.972-.096s.587-.16.867-.29h0v.332c0 .513-.155.933-.464 1.26s-.838.5-1.585.5c-.572 0-1.083-.047-1.532-.14s-.878-.222-1.287-.385h0l-.455 2.186c.48.163.998.294 1.558.393s1.12.15 1.68.15zm.735-5.998c-1.18 0-1.77-.73-1.77-2.186 0-.7.17-1.277.508-1.73s.852-.682 1.54-.682l.613.026.455.06v4.162c-.163.093-.362.175-.595.245a2.61 2.61 0 0 1-.753.105zM1.558 33.402c.42 0 .785-.137 1.094-.41s.464-.65.464-1.128-.155-.854-.464-1.128-.674-.41-1.094-.41-.785.137-1.094.41S0 31.386 0 31.864s.155.854.464 1.128.674.41 1.094.41zM2.872 43.72v-9.2H.263v9.2h2.61zm5.06 0v-7.1l.56-.06.595-.026c.607 0 1.02.175 1.243.525s.333.944.333 1.784h0v4.88h2.61v-5.194c0-.63-.064-1.2-.193-1.714a3.37 3.37 0 0 0-.648-1.329c-.304-.373-.715-.662-1.235-.866s-1.17-.306-1.953-.306a14.12 14.12 0 0 0-2.206.166l-1.716.36v8.884h2.61zm11.26.2c.56 0 1.033-.047 1.418-.14a7.43 7.43 0 0 0 1.051-.332h0l-.368-2.03c-.245.093-.517.166-.814.22a4.99 4.99 0 0 1-.867.079c-.584 0-.972-.163-1.164-.5s-.29-.764-.29-1.312h0V36.7h3.135v-2.17H18.16v-2.71l-2.61.42v7.73c0 .595.055 1.137.166 1.626s.306.906.587 1.25.654.612 1.12.804 1.057.29 1.77.29zm7.968.035c.69 0 1.3-.117 1.865-.35s1.03-.563 1.427-.988.7-.94.91-1.54.315-1.262.315-1.985-.11-1.382-.333-1.976-.53-1.102-.928-1.52-.873-.746-1.427-.98-1.164-.35-1.83-.35c-.654 0-1.258.117-1.812.35s-1.033.56-1.436.98a4.48 4.48 0 0 0-.946 1.521c-.228.595-.34 1.253-.34 1.976s.11 1.384.333 1.985.53 1.113.928 1.54.873.755 1.427.988 1.17.35 1.847.35zm0-2.238c-.595 0-1.057-.236-1.383-.708s-.5-1.11-.5-1.915.163-1.437.5-1.897.788-.69 1.383-.69 1.054.23 1.375.69.482 1.093.482 1.897-.16 1.443-.482 1.915-.78.708-1.375.708zm14.29 2.204c.56 0 1.033-.047 1.418-.14a7.43 7.43 0 0 0 1.051-.332h0l-.368-2.03c-.245.093-.517.166-.814.22a4.99 4.99 0 0 1-.867.079c-.584 0-.972-.163-1.164-.5s-.29-.764-.29-1.312h0V36.7h3.135v-2.17h-3.135v-2.71l-2.61.42v7.73c0 .595.055 1.137.166 1.626s.306.906.587 1.25.654.612 1.12.804 1.057.29 1.77.29zm6.83-.2v-6.995l.552-.13a3.35 3.35 0 0 1 .657-.061c.584 0 .984.175 1.2.525s.324.944.324 1.784h0v4.88h2.61v-5.194c0-.63-.06-1.2-.184-1.714s-.333-.956-.63-1.33-.695-.662-1.19-.866-1.118-.306-1.865-.306a4.24 4.24 0 0 0-.797.079c-.274.052-.5.108-.674.166h0V30.15l-2.61.42v13.15h2.61zm12.135.245a9.21 9.21 0 0 0 .981-.052l.92-.13a7.34 7.34 0 0 0 .779-.184c.233-.07.42-.14.56-.2h0l-.35-2.116c-.292.128-.668.236-1.13.324a7.55 7.55 0 0 1-1.41.131c-.747 0-1.343-.157-1.786-.472a1.73 1.73 0 0 1-.753-1.277h5.92l.035-.48.018-.498c0-1.55-.38-2.725-1.138-3.524s-1.792-1.198-3.1-1.198a4.42 4.42 0 0 0-1.637.315c-.53.2-1 .52-1.4.927s-.738.918-.99 1.53-.376 1.326-.376 2.142c0 .676.096 1.306.29 1.89a3.99 3.99 0 0 0 .893 1.513c.403.426.91.76 1.523 1.006s1.334.367 2.163.367zm1.26-5.77h-3.45c.035-.222.1-.44.166-.656a1.76 1.76 0 0 1 .324-.568c.14-.163.315-.294.525-.393s.46-.15.753-.15c.304 0 .557.052.762.157s.374.24.508.402.233.35.298.56.102.426.114.647h0zM3.17 57.632V52.63h4.798v-2.29H3.17v-2.536h5.393v-2.29H.438v12.12H3.17zm10.734.2a14.12 14.12 0 0 0 2.206-.166l1.716-.36v-8.884h-2.61v7.1l-.56.06-.595.026c-.607 0-1.02-.187-1.243-.56s-.333-.98-.333-1.82h0v-4.81h-2.61v5.124a7.28 7.28 0 0 0 .193 1.731c.128.525.344.976.648 1.355s.715.673 1.235.883 1.17.315 1.953.315zm9.93 0c.56 0 1.033-.047 1.418-.14a7.43 7.43 0 0 0 1.051-.332h0l-.368-2.03c-.245.093-.517.166-.814.22a4.99 4.99 0 0 1-.867.079c-.584 0-.972-.163-1.164-.5s-.29-.764-.29-1.312h0V50.6h3.135v-2.17H22.8v-2.71l-2.61.42v7.73c0 .595.055 1.137.166 1.626s.306.906.587 1.25.654.612 1.12.804 1.057.29 1.77.29zm8.16 0a14.12 14.12 0 0 0 2.206-.166l1.716-.36v-8.884h-2.61v7.1l-.56.06-.595.026c-.607 0-1.02-.187-1.243-.56s-.333-.98-.333-1.82h0v-4.81h-2.61v5.124a7.28 7.28 0 0 0 .193 1.731c.128.525.344.976.648 1.355s.715.673 1.235.883 1.17.315 1.953.315zm8.983-.2V50.6c.117-.035.29-.067.517-.096a4.72 4.72 0 0 1 .587-.044c.362 0 .7.032 1.016.096l.823.184.438-2.15c-.14-.058-.31-.108-.508-.15l-.595-.105-.595-.07-.508-.026c-.782 0-1.49.073-2.128.22l-1.655.463v8.71h2.61zm9.036.245a9.21 9.21 0 0 0 .981-.052l.92-.13a7.34 7.34 0 0 0 .779-.184c.233-.07.42-.14.56-.2h0l-.35-2.116c-.292.128-.668.236-1.13.324a7.55 7.55 0 0 1-1.41.131c-.747 0-1.343-.157-1.786-.472a1.73 1.73 0 0 1-.753-1.277h5.92l.035-.48.018-.498c0-1.55-.38-2.725-1.138-3.524s-1.792-1.198-3.1-1.198a4.42 4.42 0 0 0-1.637.315c-.53.2-1 .52-1.4.927s-.738.918-.99 1.53-.376 1.326-.376 2.142c0 .676.096 1.306.29 1.89a3.99 3.99 0 0 0 .893 1.513c.403.426.91.76 1.523 1.006s1.334.367 2.163.367zm1.26-5.77h-3.45c.035-.222.1-.44.166-.656a1.76 1.76 0 0 1 .324-.568c.14-.163.315-.294.525-.393s.46-.15.753-.15c.304 0 .557.052.762.157s.374.24.508.402.233.35.298.56.102.426.114.647h0z" class="N"/><path d="M6.487 12.72v-.884H1.412v-.03c0-.248.06-.5.178-.752a4.28 4.28 0 0 1 .481-.775c.202-.264.43-.527.683-.79l.784-.783.947-.93a8.36 8.36 0 0 0 .83-.961 4.77 4.77 0 0 0 .582-1.031c.145-.357.217-.736.217-1.14 0-.91-.264-1.62-.792-2.13s-1.314-.767-2.36-.767a3.65 3.65 0 0 0-1.071.147 4.43 4.43 0 0 0-.846.349c-.243.134-.445.27-.605.41l-.334.318.528.698c.062-.062.16-.15.295-.264a3.21 3.21 0 0 1 .489-.333 3.58 3.58 0 0 1 .675-.287c.26-.083.554-.124.885-.124.6 0 1.08.158 1.467.473s.582.834.582 1.558a2.61 2.61 0 0 1-.155.915c-.103.28-.243.543-.42.79a5.6 5.6 0 0 1-.613.721l-.737.72-.97.93a7.93 7.93 0 0 0-.916 1.039c-.274.372-.5.767-.675 1.186s-.264.87-.264 1.356l.008.256.008.116h6.193zm5.68.233c1.097 0 1.948-.48 2.553-1.442s.908-2.346.908-4.154c0-1.82-.303-3.21-.908-4.17s-1.456-1.442-2.553-1.442c-1.107 0-1.96.48-2.56 1.442s-.9 2.35-.9 4.17c0 1.808.303 3.193.908 4.154s1.456 1.442 2.553 1.442zm0-.915c-.455 0-.833-.13-1.133-.388s-.54-.602-.722-1.03-.3-.925-.388-1.488-.116-1.155-.116-1.775.04-1.212.116-1.775.207-1.062.388-1.496.422-.78.722-1.04.678-.388 1.133-.388c.445 0 .817.13 1.118.388s.543.605.73 1.04.318.933.396 1.496.116 1.155.116 1.775-.04 1.212-.116 1.775-.2 1.06-.396 1.488-.43.772-.73 1.03-.673.388-1.118.388zm11.827.682v-.884H18.92v-.03c0-.248.06-.5.178-.752a4.28 4.28 0 0 1 .481-.775c.202-.264.43-.527.683-.79l.784-.783.947-.93a8.36 8.36 0 0 0 .83-.961 4.77 4.77 0 0 0 .582-1.031c.145-.357.217-.736.217-1.14 0-.91-.264-1.62-.792-2.13s-1.314-.767-2.36-.767a3.65 3.65 0 0 0-1.071.147 4.43 4.43 0 0 0-.846.349c-.243.134-.445.27-.605.41l-.334.318.528.698c.062-.062.16-.15.295-.264a3.21 3.21 0 0 1 .489-.333 3.58 3.58 0 0 1 .675-.287c.26-.083.554-.124.885-.124.6 0 1.08.158 1.467.473s.582.834.582 1.558a2.61 2.61 0 0 1-.155.915c-.103.28-.243.543-.42.79a5.6 5.6 0 0 1-.613.721l-.737.72-.97.93a7.93 7.93 0 0 0-.916 1.039c-.274.372-.5.767-.675 1.186s-.264.87-.264 1.356l.008.256.008.116h6.193zm6.783 0V1.977h-.714c-.476.58-.957 1.036-1.443 1.372s-1.04.612-1.66.83h0l.295.775A4.9 4.9 0 0 0 28 4.666l.714-.372c.228-.13.432-.26.613-.395s.33-.264.442-.388h0v9.208h1.01z" class="Q"/></g><g opacity=".92" transform="translate(81.593)"><g transform="translate(37.808)"><path d="M38.185 19.037V.02h-18.97l.002.224c.167 10.302 8.468 18.623 18.746 18.8l.223.002z" class="k"/><path d="M38.185 19.47v19.015h-18.97l.002-.224c.167-10.302 8.468-18.623 18.746-18.8l.223-.002z" class="Y"/><path d="M19.213 38.486V19.47H.242l.002.224c.167 10.302 8.468 18.623 18.746 18.8l.223.002z" class="J"/><ellipse cx="9.728" cy="9.529" rx="9.486" ry="9.508" class="Z"/><ellipse cx="9.728" cy="48.061" rx="9.486" ry="9.508" class="Q"/></g><path d="M19.5 57.632V38.554H0l.002.224c.17 10.336 8.704 18.684 19.27 18.852l.23.002z" class="Z"/><path d="M19.5 0v19.078H0l.002-.224C.173 8.517 8.706.17 19.272.002L19.5 0z" class="E"/><path d="M19.5 19.078V0h19.5L39 .224c-.17 10.336-8.704 18.684-19.27 18.852l-.23.002z" class="Y"/><path d="M19.5 19.476v19.078H0l.002-.224c.17-10.336 8.704-18.684 19.27-18.852l.23-.002z" class="Q"/><path d="M28.854 38.554c5.165 0 9.353 4.27 9.353 9.54s-4.187 9.54-9.353 9.54-9.353-4.27-9.353-9.54 4.187-9.54 9.353-9.54z" class="l"/></g></g><path d="M0 92.65h266.623" class="B C L"/></g></g></g></g><g filter="url(#Q)" class="n E F"><g transform="translate(-36.5 230.5)"><path d="M6.256 17.525v-.876H1.378v-.03c0-.246.057-.494.172-.745s.27-.507.462-.768a9.14 9.14 0 0 1 .656-.784l.753-.776.9-.922a8.22 8.22 0 0 0 .798-.953 4.77 4.77 0 0 0 .559-1.022c.14-.353.21-.73.21-1.13 0-.9-.254-1.606-.76-2.113s-1.263-.76-2.267-.76a3.41 3.41 0 0 0-1.029.146c-.308.097-.58.213-.813.346a3.37 3.37 0 0 0-.582.407l-.32.315.507.69a5.06 5.06 0 0 1 .283-.261c.13-.113.286-.223.47-.33s.4-.202.65-.284.532-.123.85-.123c.567 0 1.037.156 1.4.47s.56.827.56 1.544a2.66 2.66 0 0 1-.149.906 3.42 3.42 0 0 1-.403.784 5.51 5.51 0 0 1-.589.714l-.71.714-.932.922a7.79 7.79 0 0 0-.88 1.029c-.264.37-.48.76-.65 1.175s-.254.863-.254 1.344l.007.254.007.115h5.952zm5.323 0V6.878h-.686c-.457.574-.92 1.027-1.387 1.36a6.58 6.58 0 0 1-1.596.822h0l.283.768c.24-.072.477-.166.716-.284l.686-.37c.22-.128.415-.26.59-.392s.316-.26.425-.384h0v9.126h.97z"/><path d="M2.04 4.1l.072-1.627.11-1.437.133.254.208.418.245.51.25.53.22.474.152.35h.325l.152-.35.22-.474.25-.53.245-.51.208-.418.133-.254.11 1.437.072 1.627h.368l-.11-1.916L5.254.432H4.95l-.34.61-.36.72-.347.736-.296.654-.296-.654-.347-.736-.36-.72-.34-.61h-.32L1.79 2.183 1.682 4.1h.357zm5.134.058l.333-.013.296-.034.235-.04.155-.034V2.3a1.45 1.45 0 0 0-.053-.402.83.83 0 0 0-.171-.32.79.79 0 0 0-.307-.212 1.23 1.23 0 0 0-.461-.077 2.41 2.41 0 0 0-.456.037c-.126.025-.22.05-.28.08h0l.048.302a2.87 2.87 0 0 1 .219-.069 1.79 1.79 0 0 1 .453-.042c.142 0 .257.022.344.066s.155.102.203.175.08.153.093.243.02.183.02.278h0v.17a.41.41 0 0 0-.077-.024l-.133-.026-.16-.02-.157-.008c-.167 0-.322.016-.464.048a1.08 1.08 0 0 0-.368.151c-.103.07-.183.156-.24.262s-.085.233-.085.38c0 .155.026.287.077.394s.123.196.213.265.197.12.32.15.257.048.403.048zm.06-.307c-.1 0-.21-.01-.296-.03a.64.64 0 0 1-.224-.093.42.42 0 0 1-.144-.169c-.034-.07-.05-.157-.05-.26 0-.116.025-.2.075-.28a.53.53 0 0 1 .192-.167c.078-.04.164-.067.256-.08s.18-.02.267-.02c.15 0 .267.01.352.03a1.07 1.07 0 0 1 .187.056h0v.963a2.44 2.44 0 0 1-.259.034l-.355.013zm1.77 1.244c.156 0 .292-.018.408-.053s.217-.1.304-.164a1.19 1.19 0 0 0 .237-.283 3.04 3.04 0 0 0 .208-.41c.17-.402.33-.845.475-1.328l.39-1.492h-.347l-.152.65-.15.6-.168.58-.208.62-.3-.646-.253-.64-.205-.606-.15-.548h-.368l.203.7.26.714.304.706.34.672a1.91 1.91 0 0 1-.152.307.8.8 0 0 1-.173.198.58.58 0 0 1-.216.108c-.08.02-.17.032-.27.032a.72.72 0 0 1-.205-.029c-.066-.02-.106-.034-.12-.045h0l-.07.286c.018.01.063.026.136.048a.87.87 0 0 0 .243.032z"/></g></g><g class="n"><g transform="translate(-17 485.5)"><use xlink:href="#W" class="N j" href="#N"/><use xlink:href="#W" class="G" href="#N"/><g transform="translate(98.5 16)" class="E"><use xlink:href="#U"/></g><use xlink:href="#e" class="E"/><g transform="translate(198.5 14)" class="E"><use xlink:href="#V"/></g><g transform="translate(149.5 16)" class="E"><use xlink:href="#W"/><use xlink:href="#X"/></g><g transform="translate(250.5 16)" class="E"><use xlink:href="#Y"/><use xlink:href="#Z"/></g></g></g></g><use xlink:href="#a" class="X"/></g></g></g></svg>