<svg xmlns="http://www.w3.org/2000/svg" xmlns:xlink="http://www.w3.org/1999/xlink" width="513" height="542" xmlns:v="https://vecta.io/nano"><style><![CDATA[.B{stroke-linejoin:round}.C{stroke-width:.5}.D{stroke-linecap:round}.E{fill-rule:nonzero}.F{mask:url(#P)}.G{fill:#fff}.H{fill:#0064ff}.I{fill:#ff9d00}.J{stroke:#001d75}.K{mask:url(#Q)}.L{fill:#011638}.M{fill:#001d71}.N{mask:url(#O)}.O{stroke:#212121}.P{mask:url(#R)}.Q{stroke:#f4f2ee}.R{mask:url(#N)}.S{fill:#005b11}.T{fill:#ff0034}.U{fill:#001d75}.V{stroke:#0064ff}]]></style><defs><filter x="-3.5%" y="-2.3%" width="107.0%" height="104.5%" id="A"><feOffset dy="1" in="SourceAlpha"/><feGaussianBlur stdDeviation="2"/><feColorMatrix values="0 0 0 0 0 0 0 0 0 0.160784314 0 0 0 0 0.349019608 0 0 0 0.1 0" result="C"/><feMerge><feMergeNode in="C"/><feMergeNode in="SourceGraphic"/></feMerge></filter><path id="B" d="M0 0h298.982v462H0z"/><filter x="-22.4%" y="-12.1%" width="144.9%" height="124.2%" id="C"><feOffset dy="8" in="SourceAlpha"/><feGaussianBlur stdDeviation="8"/><feColorMatrix values="0 0 0 0 0 0 0 0 0 0.164542109 0 0 0 0 0.362271488 0 0 0 0.1 0" result="C"/><feMerge><feMergeNode in="C"/><feMergeNode in="SourceGraphic"/></feMerge></filter><path d="M16.618 0h153.4c8.83 0 16 7.153 16 15.982l.365 330.165c.01 8.837-7.146 16.008-15.982 16.018H16.982c-8.83 0-16-7.153-16-15.982L.618 16.018C.608 7.18 7.763.01 16.6 0z" id="D"/><path d="M16.618 0h153.4c8.83 0 16 7.152 16 15.982l.364 323c.01 8.837-7.145 16.008-15.982 16.018H16.982c-8.83 0-16-7.152-16-15.982l-.364-323C.608 7.18 7.763.01 16.6 0z" id="E"/><filter x="-12.8%" y="-15.5%" width="125.6%" height="130.9%" id="F"><feOffset dy="4" in="SourceAlpha"/><feGaussianBlur stdDeviation="3.5"/><feColorMatrix values="0 0 0 0 0 0 0 0 0 0.164542109 0 0 0 0 0.362271488 0 0 0 0.1 0" result="C"/><feMerge><feMergeNode in="C"/><feMergeNode in="SourceGraphic"/></feMerge></filter><path id="G" d="M0 .55h176v138H0z"/><path id="H" d="M0 0h176v81H0z"/><path d="M17 369h153c11.598 0 21-9.402 21-21v-20H-4v20c0 11.598 9.402 21 21 21z" id="I"/><filter x="-7.2%" y="-24.4%" width="114.4%" height="168.3%" id="J"><feOffset dy="4" in="SourceAlpha"/><feGaussianBlur stdDeviation="4"/><feColorMatrix values="0 0 0 0 0 0 0 0 0 0.164542109 0 0 0 0 0.362271488 0 0 0 0.1 0"/></filter><path id="K" d="M44.5 31v3c0 8.27 7.178 15 16 15s16-6.73 16-15v-3h-32z"/><path id="L" d="M7.982 0C3.574 0 0 3.574 0 7.982s3.574 7.982 7.982 7.982 7.982-3.574 7.982-7.982S12.4 0 7.982 0z"/><path id="M" d="M12.23 10.36l.046-1.047.07-.925.086.163.134.27.158.33.16.34.142.305.098.225h.21l.098-.225.142-.305.16-.34.158-.33.134-.27.086-.163.07.925.046 1.047h.236l-.07-1.233L14.295 8H14.1l-.22.393-.23.463-.223.473-.2.42-.2-.42-.223-.473-.23-.463-.22-.393h-.205l-.098 1.127L12 10.36h.23zm3.298.037l.214-.01.2-.022.15-.026.1-.022v-1.1c0-.093-.01-.18-.034-.26s-.06-.148-.1-.206a.51.51 0 0 0-.197-.136c-.08-.033-.18-.05-.296-.05s-.212.008-.293.024a.83.83 0 0 0-.18.051h0l.03.194a1.84 1.84 0 0 1 .14-.044c.064-.018.16-.027.29-.027a.49.49 0 0 1 .221.043c.056.028.1.066.13.112a.39.39 0 0 1 .06.157c.01.058.014.117.014.18h0v.11c-.01-.005-.026-.01-.05-.015l-.086-.017-.103-.014-.1-.005c-.107 0-.207.01-.298.03s-.17.053-.236.097-.118.1-.154.17-.055.15-.055.245.017.184.05.254a.46.46 0 0 0 .137.17c.058.044.127.077.205.097a1.03 1.03 0 0 0 .259.031zm.038-.198c-.07 0-.134-.006-.2-.02s-.104-.032-.144-.06a.27.27 0 0 1-.092-.109c-.022-.045-.033-.1-.033-.167 0-.075.016-.135.048-.18a.34.34 0 0 1 .123-.107c.05-.026.105-.043.164-.05a1.29 1.29 0 0 1 .171-.012c.096 0 .17.006.226.02s.095.024.12.036h0v.62c-.046.01-.1.016-.166.022l-.228.01zm1.137.8a.9.9 0 0 0 .262-.034.54.54 0 0 0 .195-.106c.056-.048.107-.108.152-.182a1.96 1.96 0 0 0 .134-.264c.1-.26.21-.544.305-.855L18 8.6h-.223l-.098.42-.096.38-.108.373-.134.398-.192-.415-.163-.412-.132-.4-.096-.352h-.236l.13.45.166.46.195.455.217.432a1.23 1.23 0 0 1-.098.198c-.033.052-.07.095-.11.128a.37.37 0 0 1-.139.07c-.05.014-.11.02-.173.02-.046 0-.1-.006-.132-.02s-.068-.022-.077-.03h0l-.045.184c.01.007.04.017.087.03s.1.02.156.02z"/></defs><g transform="translate(34 8)" fill="none" fill-rule="evenodd"><g filter="url(#A)" transform="translate(172)"><mask id="N" class="G"><use xlink:href="#B"/></mask><use xlink:href="#B" class="G"/><path fill="#ffa300" d="M17.187 301.096H145.33v99.776H17.187z" class="R"/><g class="L R"><g transform="translate(51 322)"><path d="M23.172 51.76a2.57 2.57 0 0 0-2.575-2.56H5.15a2.57 2.57 0 0 0-2.575 2.56v5.12H0V62h25.747v-5.12h-2.575v-5.12z"/><path d="M19.843 19.147a2.59 2.59 0 0 0-3.64 0l-5.15 5.12a2.55 2.55 0 0 0 0 3.62L26.5 43.25c.502.504 1.16.75 1.82.75s1.318-.246 1.82-.75l5.15-5.12a2.55 2.55 0 0 0 0-3.62L19.843 19.147z"/><path d="M44.326 24.85c.502.504 1.16.75 1.82.75s1.318-.246 1.82-.75l5.15-5.12a2.55 2.55 0 0 0 0-3.62L37.668.747a2.59 2.59 0 0 0-3.64 0l-5.15 5.12a2.55 2.55 0 0 0 0 3.62L44.326 24.85z"/><path d="M61 47.146L40.953 26.903c.507-.972.39-2.194-.422-3.013L30.297 13.554c-1-1.005-2.617-1.005-3.618 0l-2.56 2.584a2.6 2.6 0 0 0 0 3.654l10.234 10.336c.5.51 1.154.757 1.81.757.41 0 .8-.132 1.172-.328L57.382 50.8 61 47.146z"/></g></g><path fill="#fb3640" d="M153.627 301.096H281.77v99.776H153.627z" class="R"/><g transform="translate(17.692 35.111)"><g transform="translate(.253)"><g fill="#000" class="E"><path d="M147.826 16.924V8.658c1.07 1.25 2.077 2.58 3.024 3.987l2.642 4.28h2.387V4.306h-2.824v7.447l-1.403-2.048-1.503-2.057-1.485-1.866-1.33-1.475h-2.314v12.618h2.806zm19.912 0V14.54h-6.103v-3.04h5.046v-2.33h-5.046V6.692h5.684V4.306h-8.526v12.618h8.945zm6.868 0l1.22-3.67 1.166-3.85 1.184 3.85 1.24 3.67h2.605l1.794-6.2 1.467-6.427h-2.95l-.392 2.23-.428 2.32-.465 2.258-.483 2.02-.6-1.857-.6-2.003-.565-1.94-.483-1.684h-2.423l-.446 1.657-.537 1.93-.6 2.003-.638 1.894-.5-2.02-.483-2.258-.455-2.32-.4-2.23h-3.08l1.467 6.427 1.794 6.2h2.605zm15.94.255c1.664 0 2.91-.325 3.735-.974s1.24-1.563 1.24-2.74c0-.607-.08-1.123-.237-1.548a3 3 0 0 0-.72-1.111c-.322-.316-.726-.592-1.21-.828a19.02 19.02 0 0 0-1.712-.719l-.865-.32c-.26-.103-.492-.218-.692-.346s-.355-.27-.465-.428-.164-.352-.164-.583c0-.388.15-.677.446-.865s.786-.282 1.467-.282c.607 0 1.126.07 1.558.21s.823.3 1.175.482h0l.82-2.24c-.4-.218-.91-.42-1.53-.6s-1.354-.273-2.204-.273c-.717 0-1.36.088-1.93.264s-1.057.428-1.457.756a3.36 3.36 0 0 0-.929 1.193c-.22.467-.328.992-.328 1.575s.103 1.077.3 1.484.474.753.802 1.038.698.522 1.11.7l1.24.5c.947.316 1.615.6 2.004.883s.583.616.583 1.03a1.46 1.46 0 0 1-.091.528c-.06.158-.17.294-.328.4s-.367.206-.63.273-.592.1-.993.1c-.802 0-1.48-.082-2.03-.246s-1.017-.35-1.394-.555h0l-.802 2.258a6.78 6.78 0 0 0 .629.31c.25.11.547.212.893.3s.744.18 1.193.246.953.1 1.512.1zm15.595-.255v-2.44h-5.593V4.306h-2.842v12.618h8.435zm10.767 0V14.54h-6.103v-3.04h5.046v-2.33h-5.046V6.692h5.684V4.306h-8.526v12.618h8.945zm7.652 0V6.728h3.808V4.306H217.91v2.422h3.808v10.196h2.842zm11.186 0V6.728h3.808V4.306h-10.457v2.422h3.808v10.196h2.842zm14.574 0V14.54h-6.103v-3.04h5.046v-2.33h-5.046V6.692h5.684V4.306h-8.526v12.618h8.945zm4.937 0v-4.606h1.403a12.33 12.33 0 0 1 .729.974l.738 1.138.73 1.238.7 1.256h3.188l-.71-1.41-.792-1.384-.83-1.275-.802-1.083c.765-.316 1.35-.75 1.758-1.302s.6-1.27.6-2.158c0-1.42-.504-2.467-1.512-3.14s-2.46-1-4.354-1l-1.776.073a16.12 16.12 0 0 0-1.922.255h0v12.436h2.842zm.802-6.864h-.802V6.637l.465-.036.556-.018c.91 0 1.6.13 2.068.39s.7.7.7 1.32c0 .643-.23 1.1-.692 1.366s-1.227.4-2.295.4h0z"/><path d="M203.9 37.384l.446-1.347.483-1.384h4.92l.483 1.384.446 1.347h3.042l-1.348-3.77-1.248-3.26-1.21-2.904-1.22-2.686h-2.714l-1.23 2.686-1.202 2.904-1.248 3.26-1.348 3.77h2.95zm5.174-4.99h-3.59l.574-1.566.52-1.366.42-1.092.273-.746.29.746.428 1.092.52 1.366.565 1.566zm10.202 5.207a14.68 14.68 0 0 0 2.295-.173l1.785-.373v-9.25h-2.714V35.2l-.583.064-.62.027c-.632 0-1.063-.194-1.293-.583s-.346-1.02-.346-1.894h0v-5.007h-2.714v5.335c0 .655.067 1.256.2 1.803s.358 1.017.674 1.41.744.7 1.284.92 1.218.328 2.03.328zm10.02 3.204c1.664 0 2.894-.38 3.69-1.138s1.193-1.92 1.193-3.487h0v-8.048l-.83-.21-.975-.173-1.03-.118-1.01-.046c-.765 0-1.45.112-2.06.337a4.27 4.27 0 0 0-1.539.956c-.42.413-.738.907-.956 1.484a5.38 5.38 0 0 0-.328 1.921c0 1.408.352 2.503 1.057 3.286s1.72 1.174 3.042 1.174a4.8 4.8 0 0 0 1.011-.1 4.37 4.37 0 0 0 .902-.3h0v.346c0 .534-.16.97-.483 1.31s-.87.5-1.65.5c-.595 0-1.126-.05-1.594-.146a7.96 7.96 0 0 1-1.339-.401h0l-.474 2.276c.498.17 1.038.306 1.62.4s1.166.155 1.75.155zm.765-6.245c-1.227 0-1.84-.76-1.84-2.276 0-.728.176-1.33.528-1.803s.887-.7 1.603-.7l.638.027.474.064v4.333c-.17.097-.377.182-.62.255s-.504.11-.783.11zm10.767 3.04a14.68 14.68 0 0 0 2.295-.173l1.785-.373v-9.25h-2.714V35.2l-.583.064-.62.027c-.632 0-1.063-.194-1.293-.583s-.346-1.02-.346-1.894h0v-5.007h-2.714v5.335c0 .655.067 1.256.2 1.803s.358 1.017.674 1.41.744.7 1.284.92 1.218.328 2.03.328zm9.364.036c1.3 0 2.305-.243 3.015-.728s1.066-1.202 1.066-2.148c0-.4-.046-.753-.137-1.056s-.25-.58-.474-.828-.53-.48-.92-.692a11.12 11.12 0 0 0-1.476-.646l-.72-.3c-.188-.09-.337-.176-.446-.255s-.182-.16-.22-.246-.055-.182-.055-.29c0-.473.425-.7 1.275-.7.462 0 .878.042 1.248.127a9.97 9.97 0 0 1 1.029.291h0l.474-2.112c-.316-.12-.74-.234-1.275-.337s-1.093-.155-1.676-.155c-1.166 0-2.083.26-2.75.783s-1.002 1.232-1.002 2.13c0 .46.067.856.2 1.183s.322.6.565.847a3.4 3.4 0 0 0 .884.61c.346.17.732.334 1.157.492.547.206.953.39 1.22.555s.4.355.4.574c0 .28-.103.467-.3.564s-.56.146-1.057.146c-.474 0-.953-.052-1.44-.155a8.91 8.91 0 0 1-1.421-.428h0l-.455 2.203c.22.097.6.218 1.175.364s1.272.218 2.122.218zm9.8-.036c.583 0 1.075-.05 1.476-.146s.765-.212 1.093-.346h0L262.18 35a4.65 4.65 0 0 1-.847.228 5.19 5.19 0 0 1-.902.082c-.607 0-1.01-.17-1.21-.5s-.3-.795-.3-1.366h0v-3.368h3.26v-2.258h-3.26v-2.822l-2.714.437v8.048a7.68 7.68 0 0 0 .173 1.693c.115.5.32.944.6 1.302s.68.637 1.166.838 1.1.3 1.84.3z"/></g><g opacity=".92"><path d="M199.334 131.098V66.34h-66.4l.006.76c.583 35.086 29.642 63.423 65.623 63.99l.78.006z" class="S"/><path d="M66.514 0v64.76H.104l.006-.76C.694 28.91 29.753.575 65.734.006l.78-.006z" class="H"/><path d="M66.198 64.76V0h66.4l-.006.76c-.583 35.086-29.642 63.423-65.623 63.99l-.78.006z" fill="#00173a"/><path d="M66.514 66.34v64.76H.104l.006-.76c.583-35.086 29.642-63.423 65.623-63.99l.78-.006z" class="T"/><ellipse fill="#ff7800" transform="matrix(1 0 0 -1 0 197.436548)" cx="231.116" cy="98.718" rx="31.782" ry="32.38"/><g transform="translate(161.055 284.889)" class="L"><use xlink:href="#K"/><path d="M0 31v3c0 8.27 7.178 15 16 15s16-6.73 16-15v-3H0z"/><path d="M41.558 12.4h13.4l-7.645 15.5h6.838l5.755-11.668L65.662 27.9H72.5l-7.645-15.5h4.226V6.2H41.558V0h-6.116v6.2H7.92v6.2h4.226L4.5 27.9h6.838l5.755-11.668L22.85 27.9h6.838L22.04 12.4h13.4v43.4h-9.174V62h24.465v-6.2h-9.174z"/></g></g></g><g fill="#f4f2ee"><rect x=".253" y="209.403" width="248.124" height="8.471" rx="4.236"/><rect x=".253" y="196.268" width="256.6" height="8.471" rx="4.236"/><rect x=".253" y="385.968" width="73.549" height="8.471" rx="4.236"/><rect x="135.473" y="385.968" width="105.143" height="8.471" rx="4.236"/><rect x=".253" y="222.538" width="256.6" height="8.471" rx="4.236"/><rect x=".253" y="235.42" width="85.533" height="8.471" rx="4.236"/><rect x=".253" y="183.133" width="263.535" height="8.471" rx="4.236"/><rect x=".253" y="372.833" width="128.396" height="8.471" rx="4.236"/><rect x="135.429" y="372.833" width="128.396" height="8.471" rx="4.236"/><rect x=".21" y="150.8" width="263.535" height="16.172" rx="8.086"/></g></g><g class="H"><rect x="110.407" y="270.624" width="46.234" height="8.471" rx="4.236"/><rect x="17.649" y="434.214" width="46.234" height="8.471" rx="4.236"/><rect x="153.165" y="434.214" width="46.234" height="8.471" rx="4.236"/></g><g transform="translate(68.316 276.945)"/></g><g transform="translate(0 120)"><g filter="url(#C)"><path d="M24.025 0h156.6c12.914 0 23.386 10.462 23.4 23.375l.35 333.2C204.39 369.5 193.923 379.986 181 380h-.025-156.6C11.462 380 .99 369.538.975 356.625l-.35-333.2C.61 10.5 11.077.014 24 0h.025z" fill="#292929"/><path d="M24.02 3h155.615c11.038 0 19.99 8.942 20 19.98l.344 334c.01 11.046-8.934 20.01-19.98 20.02h-.02H24.364c-11.038 0-19.99-8.942-20-19.98l-.344-334C4.01 11.975 12.954 3.01 24 3h.02z" fill="#000"/><g transform="translate(9 9)"><use fill="#fafafa" xlink:href="#D"/><mask id="O" class="G"><use xlink:href="#E"/></mask><use fill="#fafafa" xlink:href="#E"/><path d="M-8-23h204v71H-8z" class="M N"/><rect x="49" y="20" width="91" height="12" rx="4" class="H N"/><g class="N"><g transform="translate(6 51)"><g filter="url(#F)"><mask id="P" class="G"><use xlink:href="#G"/></mask><use xlink:href="#G" class="C G Q"/><g class="F"><g transform="translate(0 26)"><path d="M82.5 43v-3h-32v3c0 8.274 7.178 15 16 15s16-6.726 16-15" class="L"/><path fill="#fb3640" d="M0 0h176v81H0z"/><g class="L"><use xlink:href="#K" x="50" y="9"/><path d="M50 40v3c0 8.27 7.178 15 16 15s16-6.73 16-15v-3H50z"/><path d="M91.558 21.4h13.4l-7.645 15.5h6.838l5.755-11.668 5.755 11.668h6.838l-7.645-15.5h4.226v-6.2H91.558V9h-6.116v6.2H57.92v6.2h4.226L54.5 36.9h6.838l5.755-11.668L72.85 36.9h6.838L72.04 21.4h13.4v43.4h-9.174V71h24.465v-6.2h-9.174z"/></g></g><rect x="109" y="114" width="59" height="16" rx="3" class="H"/><g transform="translate(8 114)"><path d="M7.787 0A7.79 7.79 0 0 0 0 7.787a7.79 7.79 0 0 0 7.787 7.787 7.79 7.79 0 0 0 7.787-7.787A7.79 7.79 0 0 0 7.787 0z" fill="#06f" class="E"/><g transform="translate(.81 3.453)"><path d="M5.838 1.104c-1.768 0-3.348.468-4.528 1.213-.478.302-.857.633-1.076.935-.132.182-.212.36-.222.545-.016.314.186.572.495.636l.027.005c.2.038.497.053 1.19.07l.627.017 1.5.066.096.007.083.006c.714.053 1.313.133 1.788.244l.033.008V7.62c.064.65.765.977 2.104.977s2.863-.377 4.57-1.132l-.237-2.05.017-.004c.244-.065.45-.157.62-.28.32-.232.495-.566.495-.96 0-.453-.254-.794-.69-.908l-.017-.004c-.186-.046-.4-.05-.648-.02l-.028.004-.044-.382-.156-.124c-1.383-1.097-3.39-1.635-6.008-1.635z" class="E I"/><g class="B C D J"><path d="M4.623 1.69c.686.04.578.055 1.068-.422"/><path d="M4.69 2.042c.54-.038.596-.244.966-.698"/><path d="M5.89 1.317c.136.347.368.37.73.342"/><path d="M5.89 1.322c.08.606-.06.352.463.738"/></g><g stroke="#fff" class="B C"><path d="M4.96.2c.643-.59.973.193.904.698-.083.61-.58 1.08-1.046 1.413-.006.005-.414.28-.534.173-.288-.256-.174-.83-.053-1.173A3.19 3.19 0 0 1 4.961.21z"/><g class="D"><path d="M5.81 1.486c.106-.326.177-.737.467-.97.624-.5 1.227-.334 1.055.524-.094.47-.485 1.025-.828 1.35-.445.424-.832-.156-.766-.578.032-.205.1-.4.165-.6"/></g></g><g class="J B C D"><path d="M7.983 1.073c.146.857.228 1.514.8 2.19.84.993 2.706.577 3.485-.276"/><path d="M8.7 1.184c-.156 1.14-.06 2.428 1.38 2.623.1.013.764.05 1-.036.596-.206.62-.33 1.188-.79"/><path d="M8.962 1.193c.504 1.043 1.846 3.465 3.19 1.89"/><path d="M9.63 1.317c.118.64.178 1.29.605 1.814.567.695 1.722.553 2.203-.124"/><path d="M9.96 1.433c.323.816.934 2.184 2.043 1.73"/><path d="M10.355 1.517c.268.424.822 1.502 1.375 1.614.215.044.44-.006.66-.01"/><path d="M5.637 5.15c.543-.19.98.202 1.535.102.27-.048.596-.34.792-.49"/></g></g><path d="M5.638 10.712l2.3 1.27 3.594-1.27-.21 2.678-3.383-1.022L5.04 13.4z" class="B C J U"/></g><g transform="translate(20 114)"><use xlink:href="#L" class="E M"/><g transform="translate(2.203 4.984)"><g transform="translate(0 .002)"><path d="M7.707 5.37c.946 0 2.108-.06 3.486-.178l.358-1.755H10l.12-2.558H1.54l-.052 1.42C.495 2.02 0 2.15 0 2.686s.443.855 1.33.96l.298 1.368 6.08.357z" class="I"/><g transform="translate(6.425 .642)" fill="#212121"><path d="M.06.204c-.043.747.62.937.805.25C1.007-.07.24-.12 0 .204"/><path d="M2.562.085c.013.16.003.32.04.477.154.675.997.02.55-.544"/></g><path d="M10.335 0c.184 0-.034 1.64-.15 1.968-.146.417-.492.327-.864.327-.12 0-.22-.004-.3-.014-.154-.188-.355-.398-.573-.588l-.166-.138.04.242-.053-.084c-.226.57-.68.73-1.232.73-1.276 0-1.785-.972-1.58-2.444h4.888zM7.8.664H6.076v.008c-.022.354.018.628.113.824l.057.1c.15.222.418.338.842.338.29 0 .487-.186.614-.64l.034-.137.024-.14.024-.188L7.8.664zm2.047 0H8.57c.18.743.42 1.066.865 1.114l.125.006c.018 0 .027-.004.044-.02.036-.034.075-.1.11-.204.06-.167.1-.403.12-.703l.01-.194z" fill="#ff0025" class="E"/><g class="B C D O"><path d="M8.47 1.913c.6.473 1.13 1.162 1.04 1.276-.12.15-.55.18-.656.12-.085-.048-.046.017-.046.572"/><path d="M7.162 3.415c.702.52 1.48.587 2.25.43"/></g><g class="J B C D"><path d="M7.913 4.75c.15.6.505.98.88 1.483"/><path d="M8.527 4.685c.4 1.298.32.744.412 1.632"/><path d="M9.037 4.78c.123 1.262.108.737.108 1.572"/><path d="M9.58 4.78L9.3 6.505"/><path d="M9.96 4.825c-.034.612-.195 1.1-.5 1.628"/><path d="M10.377 4.765c-.056.597-.226 1.172-.628 1.637"/><path d="M10.607 5.405c-.496.665-.556.868-1.298 1.043"/></g><path d="M7.212 3.197c-.045.12-.134.24-.283.246" class="B C D O"/></g></g></g><g transform="translate(32 114)"><use xlink:href="#L" fill="#06f" class="E"/><g transform="translate(.506 1.698)"><path d="M.898 9.013c.01-3.946 5.233-7.442 8.237-7.44 4.56.004 3.428 7.617 3.22 7.63-1.29.09-5.1.025-11.455-.19z" transform="matrix(.956305 -.292372 .292372 .956305 -1.285552 2.213841)" class="U"/><g transform="translate(4.442 2.239)" fill="#f1f4f6"><path d="M6.85 2.02c.197 1.57-1.34 5.535-2.965 5.317-1.364-.183-2.16-1.342-2.58-2.582-.07-.2-1.125.337-1.27-.638s1.005-.363.975-.542C.9 2.977.918 2.47.933 2.064c.002-.064.347-.262 1.083-.38.33-.052.737-.088 1.228-.09.7-.001 1.482.068 2.14.15.19.024.016-1.736.18-1.71s.667 1.836.796 1.86c.303.056.49.103.492.125z"/></g><g transform="translate(6.898 4.37)"><g transform="translate(1.986 .325)" class="B C D O"><path d="M.18 0c.09.856.722.574.722.003"/><path d="M.217.47L0 .758"/><path d="M.542.578l-.144.47"/><path d="M.722.506L.83.903"/></g><path d="M1.625 0L2.69 1.564c.054.067.16.147.128.23-.03.076-.72.133-.78.01-.03-.063-.04-.283-.038-.212.013.442.052.72.116.836" fill="#f3fff6" class="B C D J"/><g transform="translate(.108 .289)" class="B C D O"><path d="M.16.06C.025.628.825.7.975 0"/><path d="M.253.47L0 .65"/><path d="M.535.506L.504.83"/><path d="M.758.47l.108.253"/></g><path d="M1.504 2.548c.232-.044.26.29.423.196.082-.048.126-.17.22-.18.144-.017.37.047.68.19l-.56.5c-.35.322-1.815.005-2.185-.17L1.21 3.1c1.67-.26 1.293-.265-1.127-.015.33-.34 1.19-.493 1.42-.537z" fill="#ff243a" transform="matrix(.956305 .292372 -.292372 .956305 .93147 -.295462)"/></g></g></g><g transform="translate(44 114)"><path d="M8 0a8 8 0 1 0 0 16A8 8 0 1 0 8 0z" fill="#cce4ff" class="E"/><g transform="translate(3.801 2.317)"><g transform="translate(2.425 .145)" fill="#ff5fa7"><path d="M5.357.93c-.2 4.224-4.788 5.8-1.85 8.542.702.658-3.85.667-3.46 0C2.134 5.913-.047 5.154.001 1.3.006.857.07.43.184.04 2.473-.024 4.15.036 5.215.22c.085.015.132.252.142.712z"/></g><g stroke="#ffc200" class="B C D"><path d="M8.398.58c-.252 1.094-.73 2.216-.824 3.34-.067.815-.03 1.635-.045 2.452"/><path d="M8.11.543c-.565 1.42-.784 2.7-.837 4.236-.042 1.207-.163.912.078 1.41"/><path d="M7.348 1.412c-.53 2.19-.555 2.896-.183 5.14"/><path d="M7.13 6.805C5.816 5.624 6.367 3.56 6.72 2.1"/></g><path d="M4.58 1.05c.08.395.058.66-.065.795-.656.715-.912 1-1.65 2.008-.01.014-.007.05.01.05.082.001.173-.002.24-.048.473-.324.84-.816 1.364-1.05.706-.315-.968.772-.563.984.166.087 3.06-.31 2.123-.125s-2.324.445-2.208.598c.486.635.61.925.486 1.494" class="B C D O"/><g stroke="#ffc200" class="B C D"><path d="M2.824 1.8C2.4 2.94 1.83 5.7.157 6.01c-.02.004-.032-.03-.048-.043"/><path d="M2.57 1.05C2.185 2.957 1.617 4.642.036 5.756"/><path d="M2.353.326C1.862 2.1 1.613 4.032.11 5.25"/><path d="M1.846.398C1.392 2.302 1.342 3.556 0 4.887"/></g><path d="M2.3.016c-.205 0 .123 1.266.252 1.558.11.247.41.373.9.378.543.017.92-.107 1.133-.372l.032-.042c.252.506.76.65 1.377.65 1.425 0 1.994-.864 1.766-2.172H2.3zM4.826.5L7.25.465v.01c.032.417-.04.727-.203.933l-.017.02c-.195.23-.558.348-1.107.348-.376 0-.815-.147-1.004-.616l-.044-.133c-.02-.08-.02-.206-.03-.357L4.826.5zM2.693.54h1.758L4.45.8c-.014.582-.138.842-1.17.863l-.192.002a.09.09 0 0 1-.061-.02c-.05-.034-.103-.1-.153-.204-.08-.168-.137-.403-.166-.704L2.693.54z" fill="#00ffce" class="E"/><g fill="#212121"><path d="M3.937.953c-.02.308.28.386.363.103C4.363.84 4.018.82 3.9.953" transform="matrix(-1 0 0 1 8.217194 0)"/><path d="M4.987.953c-.02.308.28.386.363.103.063-.216-.282-.237-.4-.103" transform="matrix(-1 0 0 1 10.316742 0)"/></g><g fill="#ff0025"><path d="M.9 10.377c.232.34 1.207.252.685-.438s-.917.097-.685.438z" transform="matrix(-1 0 0 1 2.570136 0)"/><path d="M2.15 10.96c.24.328 1.11.12.574-.546s-.813.218-.574.546z" transform="matrix(-1 0 0 1 4.959276 0)"/><path d="M3.818 11.156c.242.34 1.11.187.567-.504s-.81.163-.567.504z" transform="matrix(-1 0 0 1 8.289592 0)"/><path d="M5.45 10.944c.246.336 1.082.16.725-.43s-.97.096-.725.43z" transform="matrix(-1 0 0 1 11.656108 0)"/><path d="M6.746 10.545c.233.332.956.173.688-.427s-.922.095-.688.427z" transform="matrix(-1 0 0 1 14.190044 0)"/></g></g></g><g transform="translate(56 114)"><use xlink:href="#L" fill="#06f" class="E"/><path d="M10.253 5.936c1.837 1.146 3.128 3.524 3.872 7.134-1.464 1.79-3.69 2.93-6.18 2.93-2.533 0-4.8-1.18-6.253-3.02.134-.908.317-1.7.546-2.405.248-.75 1.034-2.04 2.36-3.867l.405-.552c1.887.1 3.536.03 4.928-.17l.323-.05z" class="I"/><g class="B C D J"><path d="M4.182 12.083c1.09.56 1.8-.156 2.524-.936"/><path d="M7.93 11.274c.15.647.244 1.052.614 1.574.01.013-.03.007-.045.01"/><path d="M9.232 12.648c-.742-.44-.296-.11-1.128-1.228"/><path d="M10.762 12.33c-1.008-.07-2.047-.434-2.814-1.106"/><path d="M10.85 11.698c-.53.076-1.615.618-2.88-.547"/><path d="M10.812 10.933c-1.388.28-.53.17-2.59.117"/><path d="M5.228 12.957c.62-.493 1.532-1.04 1.694-1.9"/><path d="M6.116 12.947c.736-.486.218-.083 1.06-1.66"/><path d="M6.93 13c.558-1.086.374-.55.61-1.584"/><path d="M7.814 12.866c-.417-.848-.264-.363-.365-1.483"/><path d="M8.65 12.825c-.64-.867-.33-.353-.854-1.588"/><path d="M4.844 10.46c.562.332 1.34.946 1.953.394"/><path d="M4.518 11.2c.358.096 2.164.63 2.13-.283"/><path d="M5.843 6.393c-.042.385-.042.626 0 .722.27.614.692.41.867-.253"/><path d="M7 5.96c-.82 3.54-.758 5.31.18 5.31s1.264-.626.975-1.878L8 6.176c.433 1.517.843 1.59 1.228.217" class="I"/></g><g stroke="#ff5fa7" fill="#ff5fa7" class="B C"><path d="M4.11 9.343c-.21-.107-.33-.204-.36-.29-.17-.453.175-.7.795-.36.024-.53.23-.855.614-.975s.457.205.217.975c.383-.057.624-.057.722 0 .33.19.176.656-.506.94.337.29.385.6.144.903s-.53.17-.867-.433c-.482.578-.855.722-1.12.433s-.144-.686.36-1.192z"/><path d="M9.455 8.823c-.22-.112-.345-.213-.38-.302-.18-.474.183-.732.834-.378.025-.554.24-.895.644-1.02s.48.214.227 1.02c.402-.06.655-.06.758 0 .345.2.185.687-.53.983.354.302.404.617.152.945s-.556.176-.91-.454c-.505.605-.897.756-1.175.454s-.152-.718.38-1.247z" transform="matrix(-.987688 .156434 .156434 .987688 19.163899 -1.508232)"/></g><g fill="#d41c61"><circle cx="4.922" cy="9.325" r="1"/><circle cx="10.323" cy="8.74" r="1"/></g><path d="M10.514 6.024c1.487-.266 2.318-.46 2.492-.578l-.325-.903-2.71.542c-.17-2.625-.638-3.937-1.41-3.937-.25 0-.54.36-.867 1.084C7.24.835 6.758.57 6.252 1.437s-.77 2.18-.795 3.937l-1.77-.1c-.384-.042-.685-.104-.903-.188v.83c-.04.04.23.097.802.17l1.726.154c.698.053 2.432-.02 5.2-.217z" class="U"/></g><g class="E H"><path d="M14.938 19v-.564h-3.133v-.02a1.15 1.15 0 0 1 .11-.48c.073-.16.172-.326.297-.494a5.88 5.88 0 0 1 .422-.504l.484-.5.584-.593c.192-.198.363-.402.513-.613a3.07 3.07 0 0 0 .359-.657c.09-.227.134-.47.134-.727 0-.58-.163-1.033-.49-1.36s-.81-.49-1.456-.49c-.243 0-.463.03-.66.094s-.372.137-.522.222-.275.173-.374.262L11 12.78l.326.445c.038-.04.1-.096.182-.168a1.98 1.98 0 0 1 .302-.213c.118-.07.257-.13.417-.183a1.74 1.74 0 0 1 .546-.079c.364 0 .666.1.905.302s.36.532.36.994c0 .21-.032.405-.096.583s-.15.346-.26.504-.235.31-.378.46l-.455.46-.6.593a5.01 5.01 0 0 0-.565.662 3.7 3.7 0 0 0-.417.756c-.11.267-.163.555-.163.865l.005.163.005.074h3.823zm3.42 0v-6.852h-.44c-.294.37-.59.66-.89.875s-.642.39-1.025.53h0l.182.494c.153-.046.307-.107.46-.183l.44-.237a3.69 3.69 0 0 0 .378-.252c.112-.086.203-.168.273-.247h0V19h.623z"/><use xlink:href="#M"/></g><g class="B D Q"><path d="M0 26h177"/><path d="M0 107h177"/></g></g></g><rect x="7" y="5" width="16" height="17" rx="3" class="B C V"/><rect x="28" y="11" width="57.5" height="6" rx="3" class="M"/></g><g transform="translate(6 193)"><g filter="url(#F)"><mask id="Q" class="G"><use xlink:href="#I" href="#G"/></mask><use xlink:href="#I" class="C G Q" href="#G"/><g class="K"><g transform="translate(0 26)"><mask id="R" class="G"><use xlink:href="#H"/></mask><use xlink:href="#H" class="I"/><g opacity=".92" style="mix-blend-mode:overlay" class="P"><g transform="translate(-32 -12)"><g fill="#2ac2ff"><path d="M368.988 83.247V22.07h-60.52l.006.72c.532 33.146 27.013 59.915 59.802 60.452l.71.006z"/><path d="M60.52 61.178V0H0l.006.72C.537 33.865 27.02 60.635 59.808 61.172l.71.006z" transform="matrix(-1 0 0 1 60.518842 0)"/></g><path d="M368.988 84.645v61.178h-60.52l.006-.72c.532-33.146 27.013-59.915 59.802-60.452l.71-.006z" fill="#00173a" transform="matrix(-1 0 0 -1 677.457178 230.467068)"/><path d="M308.47 145.823V84.645h-60.52l.006.72c.532 33.146 27.013 59.915 59.802 60.452l.71.006z" class="I"/><ellipse cx="278.21" cy="52.658" rx="30.26" ry="30.589" class="S"/><ellipse cx="278.522" cy="176.628" rx="30.26" ry="30.589" class="T"/><path d="M126 208v-62H63l.006.73c.553 33.59 28.12 60.72 62.254 61.265l.74.006z" class="S"/><circle cx="36.5" cy="115.5" r="30.5" class="M"/><path d="M226 74v62h-63l.006-.73c.553-33.59 28.12-60.72 62.254-61.265L226 74z" class="T"/><ellipse fill="#ff7800" transform="matrix(1 0 0 -1 0 354)" cx="156.5" cy="177" rx="30.5" ry="31"/></g></g><g class="L P"><path d="M78.172 60.76a2.57 2.57 0 0 0-2.575-2.56H60.15a2.57 2.57 0 0 0-2.575 2.56v5.12H55V71h25.747v-5.12h-2.575v-5.12z"/><path d="M74.843 28.147a2.59 2.59 0 0 0-3.64 0l-5.15 5.12a2.55 2.55 0 0 0 0 3.62L81.5 52.25c.502.504 1.16.75 1.82.75s1.318-.246 1.82-.75l5.15-5.12a2.55 2.55 0 0 0 0-3.62L74.843 28.147z"/><path d="M99.326 33.85c.502.504 1.16.75 1.82.75s1.318-.246 1.82-.75l5.15-5.12a2.55 2.55 0 0 0 0-3.62L92.668 9.747a2.59 2.59 0 0 0-3.64 0l-5.15 5.12a2.55 2.55 0 0 0 0 3.62L99.326 33.85z"/><path d="M116 56.146L95.953 35.903c.507-.972.39-2.194-.422-3.013L85.297 22.554c-1-1.005-2.617-1.005-3.618 0l-2.56 2.584a2.6 2.6 0 0 0 0 3.654l10.234 10.336c.5.51 1.154.757 1.81.757.41 0 .8-.132 1.172-.328L112.382 59.8 116 56.146z"/></g></g></g><g class="E H K"><path d="M13.938 19v-.564h-3.133v-.02a1.15 1.15 0 0 1 .11-.48c.073-.16.172-.326.297-.494a5.88 5.88 0 0 1 .422-.504l.484-.5.584-.593c.192-.198.363-.402.513-.613a3.07 3.07 0 0 0 .359-.657c.09-.227.134-.47.134-.727 0-.58-.163-1.033-.49-1.36s-.81-.49-1.456-.49c-.243 0-.463.03-.66.094s-.372.137-.522.222-.275.173-.374.262L10 12.78l.326.445c.038-.04.1-.096.182-.168a1.98 1.98 0 0 1 .302-.213c.118-.07.257-.13.417-.183a1.74 1.74 0 0 1 .546-.079c.364 0 .666.1.905.302s.36.532.36.994c0 .21-.032.405-.096.583s-.15.346-.26.504-.235.31-.378.46l-.455.46-.6.593a5.01 5.01 0 0 0-.565.662 3.7 3.7 0 0 0-.417.756c-.11.267-.163.555-.163.865l.005.163.005.074h3.823z"/><path d="M19.938 19v-.564h-3.133v-.02a1.15 1.15 0 0 1 .11-.48c.073-.16.172-.326.297-.494a5.88 5.88 0 0 1 .422-.504l.484-.5.584-.593c.192-.198.363-.402.513-.613a3.07 3.07 0 0 0 .359-.657c.09-.227.134-.47.134-.727 0-.58-.163-1.033-.49-1.36s-.81-.49-1.456-.49c-.243 0-.463.03-.66.094s-.372.137-.522.222-.275.173-.374.262L16 12.78l.326.445c.038-.04.1-.096.182-.168a1.98 1.98 0 0 1 .302-.213c.118-.07.257-.13.417-.183a1.74 1.74 0 0 1 .546-.079c.364 0 .666.1.905.302s.36.532.36.994c0 .21-.032.405-.096.583s-.15.346-.26.504-.235.31-.378.46l-.455.46-.6.593a5.01 5.01 0 0 0-.565.662 3.7 3.7 0 0 0-.417.756c-.11.267-.163.555-.163.865l.005.163.005.074h3.823z"/><use xlink:href="#M"/></g><g class="B D Q K"><path d="M0 26h177"/><path d="M0 107h177"/></g></g><rect x="7" y="5" width="16" height="17" rx="3" class="B C V"/><rect x="9" y="113" width="59" height="16" rx="3" class="H"/><rect opacity=".315" x="72" y="113" width="59" height="16" rx="3" class="B V"/><rect x="28" y="11" width="57.5" height="6" rx="3" class="M"/></g><use fill="#000" filter="url(#J)" xlink:href="#I"/><use xlink:href="#I" class="G"/></g></g><path d="M62.2 9a9 9 0 0 0 9 9H136a9 9 0 0 0 9-9h0-82.8z" fill="#efefef"/></g><g class="H"><path d="M74.85 346.008l-14.238 3.324a.79.79 0 0 0-.606.67.78.78 0 0 0 .427.794l4.044 2.037.413 4.087c.033.328.27.6.6.68s.662-.047.848-.32l.123-.124-.818-3.12a1.06 1.06 0 0 1 .523-1.004l3.514-2.064-2.808 2.7a.78.78 0 0 0-.22.74l1.28 5.487a.79.79 0 0 0 1.474.177l6.7-12.96a.77.77 0 0 0 .079-.153c.07-.182.027-.46-.053-.65-.1-.235-.52-.334-1.262-.296zm-40.805 7.828H37v-2.945h-2.945v2.945zm-4.418 0h2.945v-2.945h-2.945v2.945zm0 4.418h2.945v-2.945h-2.945v2.945zm-4.418-4.418h2.945v-2.945H25.2v2.945zm0 4.418h2.945v-2.945H25.2v2.945zm12.518-11.78h-1.473V345H34.78v3.682H33.3v-2.2H28.9V345h-1.473v3.682h-1.473v-2.2H24.47c-.812 0-1.473.66-1.473 1.473V359c0 .8.66 1.473 1.473 1.473h13.255c.812 0 1.473-.66 1.473-1.473v-11.045c0-.812-.66-1.473-1.473-1.473zm108.13 7.096a.86.86 0 0 1-.857-.857.86.86 0 0 1 .857-.857.86.86 0 0 1 .857.857.86.86 0 0 1-.857.857m-3.43 0a.86.86 0 0 1-.857-.857.86.86 0 0 1 .857-.857.86.86 0 0 1 .857.857.86.86 0 0 1-.857.857m-3.43 0a.86.86 0 0 1-.857-.857.86.86 0 0 1 .857-.857.86.86 0 0 1 .857.857.86.86 0 0 1-.857.857m3.43-8.57c-4.726 0-8.57 3.46-8.57 7.714 0 1.487.464 2.907 1.348 4.145L133 360.43h9.43c4.726 0 8.57-3.46 8.57-7.714S147.155 345 142.43 345m-38.14 14.366l-6.26-6.26 3.677-3.677 2.403 2.403 3.85-4.234H98.6c-.882 0-1.6.718-1.6 1.6v9.6a1.6 1.6 0 0 0 1.6 1.6h11.2a1.6 1.6 0 0 0 1.6-1.6v-7.255l-7.1 7.822z"/><path d="M104.234 357.048l-3.942-3.94 1.414-1.414 2.458 2.458 7.294-8.024 1.48 1.345zM178.2 353.2c1.985 0 3.6-1.615 3.6-3.6s-1.615-3.6-3.6-3.6-3.6 1.615-3.6 3.6 1.615 3.6 3.6 3.6m0 .9c-4.24 0-7.2 2.22-7.2 5.4v.9h14.4v-.9c0-3.18-2.96-5.4-7.2-5.4"/></g></g></g></svg>