<svg xmlns="http://www.w3.org/2000/svg" xmlns:xlink="http://www.w3.org/1999/xlink" width="765" height="669" xmlns:v="https://vecta.io/nano"><style><![CDATA[.B{fill:#fff}.C{fill:#fb3640}.D{fill:#00173a}.E{fill:#0d62fe}.F{opacity:.92}.G{fill:#ff9d00}.H{fill:#ffe156}.I{mask:url(#R)}]]></style><defs><path id="A" d="M0 0h733v324H0z"/><filter x="-3.8%" y="-6.2%" width="107.6%" height="117.3%" id="B"><feOffset dy="8" in="SourceAlpha"/><feGaussianBlur stdDeviation="8"/><feColorMatrix values="0 0 0 0 0 0 0 0 0 0.160784314 0 0 0 0 0.349019608 0 0 0 0.1 0"/></filter><path id="C" d="M0 0h307.075v296H0z"/><path id="D" d="M.925.407h227v219h-227z"/><path id="E" d="M0 0h97v93H0z"/><path id="F" d="M189.107.68v94.937H94.564l.01-1.117c.83-51.436 42.2-92.977 93.423-93.81l1.1-.01z"/><path id="G" d="M94.563 95.618V.68H.02l.01 1.117c.83 51.436 42.2 92.977 93.423 93.81l1.1.01z"/><path id="H" d="M48.48 17.015l-10.875 6.993L28.58 9.5c-.098-.157-.26-.23-.385-.358L30.7 6.457c.506-.54.506-1.427 0-1.967L27.34.886a1.24 1.24 0 0 0-1.839 0L22.14 4.5c-.506.54-.506 1.427 0 1.967l2.503 2.686c-.125.126-.287.2-.385.358l-9.025 14.508-10.874-6.993a2.46 2.46 0 0 0-2.888.15c-.843.673-1.228 1.82-.974 2.914l5.198 22.3c.3 1.238 1.33 2.11 2.525 2.11h36.4c1.193 0 2.235-.873 2.523-2.11l5.2-22.3c.256-1.092-.13-2.24-.974-2.914a2.46 2.46 0 0 0-2.888-.15z"/><path id="I" d="M202.77 94.937V0h-94.542l.01 1.117c.83 51.436 42.2 92.977 93.423 93.81l1.1.01z"/><path id="J" d="M94.563 193.618V98.68H.02l.01 1.117c.83 51.436 42.2 92.977 93.423 93.81l1.1.01z"/><path id="K" d="M59.927 20.18l-13.56 8.535L35.115 11.01c-.122-.192-.326-.282-.48-.436l3.12-3.278a1.76 1.76 0 0 0 0-2.401L33.566.496a1.57 1.57 0 0 0-2.293 0l-4.19 4.398a1.76 1.76 0 0 0 0 2.401l3.12 3.278c-.156.154-.357.244-.48.436L18.47 28.715 4.91 20.18c-1.124-.707-2.547-.636-3.6.183S-.22 22.585.096 23.918l6.482 27.203c.362 1.51 1.66 2.576 3.148 2.576h45.386c1.488 0 2.786-1.065 3.146-2.576l6.484-27.203c.32-1.333-.163-2.735-1.214-3.556a3.12 3.12 0 0 0-3.6-.183z"/></defs><g transform="translate(16 8)" fill="none" fill-rule="evenodd"><g transform="translate(0 1)"><use fill="#000" filter="url(#B)" xlink:href="#A"/><use xlink:href="#A" class="B"/><use fill="#42be65" xlink:href="#C" transform="translate(15 10)"/><g transform="translate(483 362)"><mask id="L" class="B"><use xlink:href="#D"/></mask><use xlink:href="#D" class="E"/><g mask="url(#L)"><g transform="translate(44 39)" fill="#011638"><path d="M34.457 28.547L25.5 20.962C36.67 7.64 53-.002 70.333-.002c17.27 0 33.58 7.608 44.757 20.87l-8.946 7.602c-8.946-10.6-21.998-16.705-35.8-16.705-13.855 0-26.936 6.12-35.876 16.78M89.092 44.73c-4.476-6-11.312-9.426-18.758-9.426-7.44 0-14.277 3.436-18.746 9.42l-9.373-7.073c6.608-8.844 17.118-14.116 28.12-14.116 11.172 0 21.424 5.154 28.13 14.133l-9.373 7.06zm-65.66 67.067c0-4.13.744-8.08 2.05-11.768H19.53C8.746 100.03 0 106.848 0 117.68v5.884h23.433v-11.768zm21.042-32.31c0-.018.006-.035.006-.053 0-8.126-6.56-14.7-14.65-14.7-8.084 0-14.64 6.584-14.64 14.7 0 7.596 5.747 13.77 13.093 14.557 3.738-6.4 9.397-11.497 16.192-14.504m67.368-14.762c-8.084 0-14.64 6.584-14.64 14.7 0 .206.053.4.06.606 6.327 3.07 11.588 7.98 15.114 14.05 7.838-.288 14.118-6.714 14.118-14.657 0-8.126-6.56-14.7-14.65-14.7m9.22 35.307h-5.952c1.306 3.7 2.05 7.637 2.05 11.768v11.768h23.433v-5.884c0-10.833-8.746-17.652-19.53-17.652M35.15 123.565h70.3v-11.768a23.5 23.5 0 0 0-18.436-22.97c-4.745 3.33-10.498 5.32-16.714 5.32s-11.968-2-16.714-5.32a23.5 23.5 0 0 0-18.436 22.97v11.768zm52.724-58.84c0 9.75-7.868 17.652-17.575 17.652s-17.575-7.902-17.575-17.652S60.592 47.072 70.3 47.072s17.575 7.902 17.575 17.652"/></g></g></g><g transform="translate(332 10)"><mask id="M" class="B"><use xlink:href="#E"/></mask><use xlink:href="#E" class="C"/><g mask="url(#M)" class="F"><g transform="translate(164 31)"><g transform="translate(.224)"><use xlink:href="#F" class="D"/><use xlink:href="#G" class="G"/></g></g></g></g><g transform="translate(15 364)"><mask id="N" class="B"><use xlink:href="#F" href="#E"/></mask><use fill="#ff8100" xlink:href="#F" href="#E"/><g mask="url(#N)" class="H"><g transform="translate(22.5 18)"><g transform="translate(.5)"><use xlink:href="#H"/><path d="M4.42 53.48h42v-6h-42z"/></g></g></g><g mask="url(#N)" class="F"><g transform="translate(164 -67)"><g transform="translate(.224)"><use xlink:href="#I" class="C"/><use xlink:href="#F" y="98" class="D"/><use xlink:href="#J" class="G"/><ellipse fill="#001c6c" cx="47.293" cy="54.439" rx="47.272" ry="47.468"/></g></g></g></g><g transform="translate(332 111)"><mask id="O" class="B"><use xlink:href="#G" href="#E"/></mask><use xlink:href="#G" class="E" href="#E"/><g mask="url(#O)" class="F"><g transform="translate(-149 -4)"><g transform="translate(190.224)"><use xlink:href="#I" class="C"/><use xlink:href="#F" y="98" class="D"/><use xlink:href="#J" class="G"/></g><path d="M97.526 99.248V194H0l.01-1.114C.866 141.55 43.54 100.1 96.38 99.258l1.146-.01z" fill="#ff0034"/></g></g></g><g transform="translate(15 465)"><mask id="P" class="B"><use xlink:href="#H" href="#E"/></mask><use fill="#14591d" xlink:href="#H" href="#E"/><g mask="url(#P)" class="H"><g transform="translate(22.5 18)"><g transform="translate(.5)"><use xlink:href="#H"/><path d="M4.42 54.48h42v-6h-42z"/></g></g></g><g mask="url(#P)" class="F"><g transform="translate(-149 -4)"><g transform="translate(190.224)"><use xlink:href="#I" class="C"/><use xlink:href="#F" y="98" class="D"/><use xlink:href="#J" class="G"/></g></g></g></g><g transform="translate(332 212)"><mask id="Q" class="B"><use xlink:href="#I" href="#E"/></mask><use fill="#ff8100" xlink:href="#I" href="#E"/><g mask="url(#Q)" class="F"><g transform="translate(-265 -3)"><g transform="translate(190.224 97)"><use xlink:href="#F" class="D"/><use xlink:href="#G" class="G"/></g><path d="M196.34.927V95.68H98.813l.01-1.114C99.68 43.23 142.354 1.77 195.193.936l1.146-.01z" fill="#0064ff"/><path d="M98.17 95.68V.927h97.526l-.01 1.114c-.857 51.336-43.53 92.796-96.37 93.628l-1.146.01z" class="D"/><path d="M97.526 98.248V193H0l.01-1.114C.866 140.55 43.54 99.1 96.38 98.258l1.146-.01z" fill="#ff0034"/></g></g></g><g transform="translate(15 566)"><mask id="R" class="B"><use xlink:href="#J" href="#E"/></mask><use xlink:href="#J" class="E" href="#E"/><g class="I H"><g transform="translate(22.5 16)"><g transform="translate(.5)"><path d="M48.48 16.536L37.605 23.53 28.58 9.02c-.098-.157-.26-.23-.385-.358L30.7 5.977c.506-.54.506-1.427 0-1.967L27.34.407a1.24 1.24 0 0 0-1.839 0L22.14 4c-.506.54-.506 1.427 0 1.967l2.503 2.686c-.125.126-.287.2-.385.358l-9.026 14.52-10.874-6.994a2.46 2.46 0 0 0-2.888.15C.627 17.36.242 18.506.496 19.6l5.198 22.3c.3 1.238 1.33 2.1 2.525 2.1h36.4c1.193 0 2.235-.873 2.523-2.1l5.2-22.3c.256-1.092-.13-2.24-.974-2.914a2.46 2.46 0 0 0-2.888-.15zM4.42 53h42v-6h-42z"/></g></g></g><g class="I H"><g transform="translate(16.5 -88)"><g transform="translate(.5)"><use xlink:href="#K"/><path d="M5.713 64.958h51.87V58.16H5.713z"/></g></g></g><g class="I H"><g transform="translate(16.5 -88)"><g transform="translate(.5)"><use xlink:href="#K"/><path d="M5.713 64.958h51.87V58.16H5.713z"/></g></g></g></g><g fill="#f4f2ee"><rect x="439" y="10" width="268" height="14.912" rx="3.5"/><rect x="122" y="364" width="268" height="14.912" rx="3.5"/><rect x="439" y="111" width="268" height="14.912" rx="3.5"/><rect x="122" y="465" width="268" height="14.912" rx="3.5"/><rect x="439" y="212" width="268" height="14.912" rx="3.5"/><rect x="122" y="566" width="268" height="14.912" rx="3.5"/><rect x="439" y="29.173" width="268" height="14.912" rx="3.5"/><rect x="122" y="383.173" width="268" height="14.912" rx="3.5"/><rect x="439" y="130.173" width="268" height="14.912" rx="3.5"/><rect x="122" y="484.173" width="268" height="14.912" rx="3.5"/><rect x="439" y="231.173" width="268" height="14.912" rx="3.5"/><rect x="122" y="585.173" width="268" height="14.912" rx="3.5"/><rect x="439" y="48.345" width="158" height="14.912" rx="3.5"/><rect x="122" y="402.345" width="158" height="14.912" rx="3.5"/><rect x="439" y="149.345" width="158" height="14.912" rx="3.5"/><rect x="122" y="503.345" width="158" height="14.912" rx="3.5"/><rect x="439" y="250.345" width="158" height="14.912" rx="3.5"/><rect x="122" y="604.345" width="158" height="14.912" rx="3.5"/></g><g class="C"><rect x="439" y="88" width="158" height="14.912" rx="3.5"/><rect x="122" y="442" width="158" height="14.912" rx="3.5"/><rect x="439" y="189" width="158" height="14.912" rx="3.5"/></g><rect x="122" y="543" width="158" height="14.912" rx="3.5" class="E"/><rect x="439" y="290" width="158" height="14.912" rx="3.5" class="C"/><rect x="122" y="644" width="158" height="14.912" rx="3.5" class="E"/></g><path d="M190.175 152.397l-5.524 5.524-16.255-16.255 5.524-5.524a3.68 3.68 0 0 1 5.207 0l11.048 11.048a3.68 3.68 0 0 1 0 5.207h0zm-25.778 25.778a3.67 3.67 0 0 1-5.207 0l-11.048-11.048a3.68 3.68 0 0 1 0-5.207l16.57-16.57 16.255 16.255-16.57 16.57zm40.508-36.825a3.68 3.68 0 0 0 0-5.207l-14.73-14.73a3.68 3.68 0 0 0-5.207 0c-2.106 2.106-7.417 2.106-9.523 0a3.68 3.68 0 0 0-5.207 0l-36.825 36.825a3.68 3.68 0 0 0 0 5.207c2.224 2.224 2.224 7.3 0 9.523a3.68 3.68 0 0 0 0 5.207l14.73 14.73a3.68 3.68 0 0 0 5.207 0c2.106-2.106 7.417-2.106 9.523 0a3.67 3.67 0 0 0 5.207 0l36.825-36.825a3.68 3.68 0 0 0 0-5.207c-2.224-2.224-2.224-7.3 0-9.523h0zM395.47 154.7l-4.024 4.024-11.84-11.84 4.024-4.024a2.68 2.68 0 0 1 3.793 0l8.048 8.048a2.68 2.68 0 0 1 0 3.793h0zm-18.78 18.78a2.66 2.66 0 0 1-1.897.786 2.66 2.66 0 0 1-1.897-.786l-8.048-8.048a2.68 2.68 0 0 1 0-3.793l12.072-12.072 11.84 11.84-12.072 12.072zm29.508-26.826a2.68 2.68 0 0 0 0-3.793l-10.73-10.73a2.68 2.68 0 0 0-3.793 0c-1.534 1.534-5.403 1.534-6.937 0a2.68 2.68 0 0 0-3.793 0l-26.826 26.826a2.68 2.68 0 0 0 0 3.793c1.62 1.62 1.62 5.317 0 6.937a2.68 2.68 0 0 0 0 3.793l10.73 10.73a2.68 2.68 0 0 0 3.793 0c1.534-1.534 5.403-1.534 6.937 0a2.66 2.66 0 0 0 1.897.786 2.66 2.66 0 0 0 1.897-.786l26.826-26.826a2.68 2.68 0 0 0 0-3.793c-1.62-1.62-1.62-5.317 0-6.937h0zM396.04 255.56l-4.174 4.174-12.282-12.282 4.174-4.174a2.78 2.78 0 0 1 3.935 0l8.348 8.348a2.78 2.78 0 0 1 0 3.935h0zm-19.48 19.48c-.543.543-1.255.815-1.967.815s-1.425-.273-1.967-.815l-8.348-8.348a2.78 2.78 0 0 1 0-3.935l12.522-12.522 12.282 12.282-12.522 12.522zm30.608-27.826a2.78 2.78 0 0 0 0-3.935l-11.13-11.13a2.78 2.78 0 0 0-3.935 0c-1.592 1.592-5.604 1.592-7.196 0a2.78 2.78 0 0 0-3.935 0l-27.826 27.826a2.78 2.78 0 0 0 0 3.935c1.68 1.68 1.68 5.515 0 7.196a2.78 2.78 0 0 0 0 3.935l11.13 11.13a2.78 2.78 0 0 0 3.935 0c1.592-1.592 5.604-1.592 7.196 0 .543.543 1.255.815 1.967.815s1.425-.273 1.967-.815l27.826-27.826a2.78 2.78 0 0 0 0-3.935c-1.68-1.68-1.68-5.515 0-7.196h0zM395.468 53.7l-4.024 4.024-11.84-11.84 4.024-4.024a2.68 2.68 0 0 1 3.793 0l8.048 8.048a2.68 2.68 0 0 1 0 3.793h0zM376.7 72.468a2.66 2.66 0 0 1-1.897.786 2.66 2.66 0 0 1-1.897-.786l-8.048-8.048a2.68 2.68 0 0 1 0-3.793l12.072-12.072 11.84 11.84-12.07 12.073zm29.508-26.826a2.68 2.68 0 0 0 0-3.793l-10.73-10.73a2.68 2.68 0 0 0-3.793 0c-1.534 1.534-5.403 1.534-6.937 0a2.68 2.68 0 0 0-3.793 0L354.12 57.944a2.68 2.68 0 0 0 0 3.793c1.62 1.62 1.62 5.317 0 6.937a2.68 2.68 0 0 0 0 3.793l10.73 10.73a2.68 2.68 0 0 0 3.793 0c1.534-1.534 5.403-1.534 6.937 0a2.66 2.66 0 0 0 1.897.786 2.66 2.66 0 0 0 1.897-.786L406.2 56.37a2.68 2.68 0 0 0 0-3.793c-1.62-1.62-1.62-5.317 0-6.937h0z" class="B"/></g></svg>