<svg xmlns="http://www.w3.org/2000/svg" xmlns:xlink="http://www.w3.org/1999/xlink" width="716" height="590" xmlns:v="https://vecta.io/nano"><style><![CDATA[.B{stroke-width:.6}.C{stroke-linecap:round}.D{stroke-linejoin:round}.E{fill-rule:nonzero}.F{fill:#0064ff}.G{fill:#ff0034}.H{stroke:#f4f2ee}.I{fill:#fff}.J{stroke:#212121}.K{fill:#ff9d00}.L{stroke:#001d75}.M{fill:#005b11}.N{fill:#001d75}.O{fill:#f4f2ee}.P{stroke:#ffc200}.Q{fill:#001d71}.R{fill:#00173a}.S{fill:#ffa300}.T{fill:#ff5fa7}.U{fill:#212121}.V{fill:#ff0025}.W{stroke-width:1.053}.X{stroke-linecap:square}]]></style><defs><filter x="-3.4%" y="-4.3%" width="106.7%" height="108.7%" id="A"><feOffset dy="4" in="SourceAlpha"/><feGaussianBlur stdDeviation="4"/><feColorMatrix values="0 0 0 0 0 0 0 0 0 0.164542109 0 0 0 0 0.362271488 0 0 0 0.1 0" result="C"/><feMerge><feMergeNode in="C"/><feMergeNode in="SourceGraphic"/></feMerge></filter><path id="B" d="M0 0h294v153H0z"/><path id="C" d="M12 0C5.373 0 0 5.373 0 12s5.373 12 12 12 12-5.373 12-12S18.627 0 12 0z"/><path id="D" d="M8.036 1.396C7.752 7.73.854 10.08 5.263 14.21c1.054.987-5.777 1-5.19 0C3.2 8.87-.07 7.73.001 1.965.01 1.285.106.647.276.062 3.7-.035 6.226.053 7.823.328c.127.022.198.378.213 1.068z"/><path id="E" d="M12.597.87c-.378 1.64-1.097 3.324-1.236 5-.1 1.222-.045 2.452-.068 3.678"/><path id="F" d="M12.163.814c-.848 2.132-1.176 4.05-1.256 6.354-.063 1.8-.244 1.368.117 2.117"/><path id="G" d="M11.023 2.118c-.796 3.283-.832 4.344-.275 7.7"/><path id="H" d="M10.697 10.208C8.723 8.436 9.55 5.34 10.08 3.15"/><path id="I" d="M6.87 1.575c.12.593.087 1-.098 1.192C5.788 3.84 5.405 4.25 4.298 5.778c-.015.02-.01.076.015.076.123.001.26-.003.36-.072.7-.486 1.26-1.225 2.045-1.575 1.058-.472-1.452 1.16-.844 1.476.248.13 4.588-.467 3.185-.187s-3.487.668-3.312.896c.73.952.913 1.388.73 2.24"/><path id="J" d="M4.235 2.715c-.637 1.694-1.5 5.82-4 6.298C.204 9.02.187 8.97.163 8.95"/><path id="K" d="M3.855 1.575c-.577 2.86-1.43 5.388-3.8 7.06"/><path id="L" d="M3.53.49C2.793 3.152 2.42 6.048.163 7.873"/><path id="M" d="M2.77.597C2.088 3.454 2.014 5.333 0 7.33"/><path id="N" d="M3.465.024c-.308 0 .185 1.9.378 2.337.163.37.613.56 1.35.567.815.025 1.382-.16 1.7-.558l.05-.063c.378.76 1.14.975 2.065.975 2.138 0 2.99-1.295 2.65-3.258h-8.2zM7.24.75l3.636-.05.001.013c.048.626-.06 1.09-.304 1.4l-.025.03c-.292.343-.837.523-1.66.523-.564 0-1.222-.22-1.506-.924l-.066-.2c-.032-.12-.03-.31-.047-.536L7.24.75zM4.04.8h2.638l-.004.388c-.02.873-.207 1.263-1.753 1.294l-.288.003c-.037 0-.057-.006-.092-.03-.074-.05-.155-.152-.23-.307-.12-.252-.206-.605-.25-1.056L4.04.8z"/><path id="O" d="M5.906 1.43c-.03.46.42.58.544.154.095-.324-.423-.355-.586-.154"/><path id="P" d="M1.35 15.566c.348.5 1.81.378 1.028-.656s-1.376.146-1.028.656z"/><path id="Q" d="M3.225 16.44c.358.493 1.667.18.86-.82s-1.22.327-.86.82z"/><path id="R" d="M5.727 16.734c.363.512 1.666.28.85-.757s-1.213.245-.85.757z"/><path id="S" d="M8.175 16.416c.37.503 1.623.24 1.087-.647s-1.456.144-1.087.647z"/><path id="T" d="M10.12 15.817c.35.498 1.434.26 1.033-.64s-1.383.142-1.033.64z"/><path id="U" d="M22.455 190.75c-1.063 0-2.047.523-2.667 1.3-.62-.777-1.604-1.3-2.667-1.3-1.838 0-3.333 1.402-3.333 3.125 0 3.432 5.416 6.645 5.647 6.78a.7.7 0 0 0 .707 0c.23-.135 5.647-3.348 5.647-6.78 0-1.723-1.495-3.125-3.333-3.125"/><path id="V" d="M8.57 5.706c-.315 0-.57-.25-.57-.556s.256-.556.57-.556.57.25.57.556-.256.556-.57.556m-2.286 0c-.315 0-.57-.25-.57-.556s.256-.556.57-.556.57.25.57.556-.256.556-.57.556M4 5.706c-.315 0-.57-.25-.57-.556s.256-.556.57-.556.57.25.57.556-.256.556-.57.556M6.286.15C3.135.15.57 2.393.57 5.15c0 .964.31 1.884.9 2.687L0 10.15h6.286c3.15 0 5.714-2.243 5.714-5s-2.563-5-5.714-5"/><path id="W" d="M11.973 0C5.36 0 0 5.36 0 11.973s5.36 11.973 11.973 11.973 11.973-5.36 11.973-11.973S18.585 0 11.973 0z"/><path id="X" d="M879.385 300.377v148.197h-146.65l.014-1.743c1.288-80.292 65.458-145.138 144.915-146.44l1.722-.014z"/><path id="Y" d="M203.28 194.8c-6.45 0-11.68 5.23-11.68 11.68s5.23 11.68 11.68 11.68 11.68-5.23 11.68-11.68-5.23-11.68-11.68-11.68z"/><path id="Z" d="M200.662 318.243c-.07-.458.01-.773.243-.946.422-.315.99.225 1.046.626.068.474-.303 1.2-.66 1.09-.34-.114-.55-.37-.63-.77z"/></defs><g transform="translate(17 18)" fill="none" fill-rule="evenodd"><g filter="url(#A)"><g transform="translate(0 213)"><path d="M1 0h294v218H1z" class="H I"/><g transform="translate(12 7)"><use xlink:href="#C" fill="#cce4ff" class="E"/><g transform="translate(5.701 3.475)"><g transform="translate(3.638 .217)" class="T"><use xlink:href="#D"/></g><g class="B C D P"><use xlink:href="#E"/><use xlink:href="#F"/><use xlink:href="#G"/><use xlink:href="#H"/></g><use xlink:href="#I" class="B C D J"/><g class="P B C D"><use xlink:href="#J"/><use xlink:href="#K"/><use xlink:href="#L"/><use xlink:href="#M"/></g><use xlink:href="#N" fill="#00ffce" class="E"/><g class="U"><use xlink:href="#O" transform="matrix(-1 0 0 1 12.325792 0)"/><use xlink:href="#O" x="1.574" transform="matrix(-1 0 0 1 15.475112 0)"/></g><g class="V"><use xlink:href="#P" transform="matrix(-1 0 0 1 3.855204 0)"/><use xlink:href="#Q" transform="matrix(-1 0 0 1 7.438914 0)"/><use xlink:href="#R" transform="matrix(-1 0 0 1 12.434388 0)"/><use xlink:href="#S" transform="matrix(-1 0 0 1 17.484162 0)"/><use xlink:href="#T" transform="matrix(-1 0 0 1 21.285066 0)"/></g></g></g><g transform="translate(0 10)"><g class="D H W X"><path d="M.79 30.6l294.5.5"/><path d="M.79 184l294.5.5"/></g><rect x="48.789" y="10.6" width="58.8" height="7.2" rx="3.6" class="F"/><rect x="48.789" y=".6" width="69" height="7.2" rx="3.6" class="Q"/><use xlink:href="#U" class="G"/><g transform="translate(34.789 190.6)" class="F"><use xlink:href="#V"/></g></g><g transform="translate(1 41)"><mask id="a" class="I"><use xlink:href="#B"/></mask><use fill="#0d62fe" xlink:href="#B"/><g mask="url(#a)"><g transform="translate(-314.5 -154)"><g opacity=".95" transform="translate(4.5)"><path d="M906.97 151.8V.17H756.995l.014 1.784c1.317 82.152 66.942 148.5 148.198 149.83l1.76.015z" fill="#2ac2ff"/><path d="M906.97 155.264v151.63H756.995l.014-1.784c1.317-82.152 66.942-148.5 148.198-149.83l1.76-.015z" transform="matrix(-1 0 0 -1 1663.964252 462.157626)" class="R"/><path d="M756.994 306.895v-151.63H607.02l.014 1.784c1.317 82.152 66.942 148.5 148.198 149.83l1.76.015z" class="K"/><ellipse cx="682.008" cy="75.985" rx="74.988" ry="75.814" class="M"/><ellipse cx="682.781" cy="383.243" rx="74.988" ry="75.814" class="G"/></g><g transform="translate(.5)"><g class="R"><path d="M908.37 307.333v151.63H758.396l.014-1.784c1.317-82.152 66.942-148.5 148.198-149.83l1.76-.015z"/><path d="M459.25 155.264v151.63H309.275l.014-1.784c1.317-82.152 66.942-148.5 148.198-149.83l1.76-.015z"/></g><ellipse cx="534.094" cy="75.985" rx="74.988" ry="75.814" class="M"/><ellipse cx="534.094" cy="232.177" rx="74.988" ry="75.814" class="S"/><ellipse cx="534.094" cy="383.243" rx="74.988" ry="75.814" class="G"/></g><path d="M308.5 461V307h-157l.015 1.81c1.38 83.437 70.077 150.82 155.14 152.174l1.845.015z" class="M"/><path d="M311.5 0v154h-157l.015-1.81c1.38-83.437 70.077-150.82 155.14-152.174L311.5 0z" class="G"/><g class="S"><path d="M307.5 154V0h157l-.015 1.81c-1.38 83.437-70.077 150.82-155.14 152.174L307.5 154z"/><path d="M308.5 154v154h-157l.015-1.81c1.38-83.437 70.077-150.82 155.14-152.174L308.5 154z"/></g><ellipse fill="#ff7800" transform="matrix(1 0 0 -1 0 768)" cx="383.5" cy="384" rx="75" ry="77"/></g></g></g></g><g transform="translate(178)"><path d="M1 0h294v487H1z" class="H I"/><g transform="translate(13 378)"><use xlink:href="#W" fill="#65a9ff" class="E"/><g transform="translate(.758 2.546)"><path d="M1.347 13.52C1.36 7.6 9.197 2.356 13.702 2.36c6.84.006 5.142 11.425 4.828 11.447-1.937.133-7.665.037-17.183-.287z" transform="matrix(.956305 -.292372 .292372 .956305 -1.928328 3.320761)" class="N"/><g transform="translate(6.664 3.359)" fill="#f1f4f6"><path d="M10.276 3.03c.295 2.356-2.012 8.302-4.448 7.976-2.046-.274-3.238-2.012-3.87-3.873C1.852 6.818.27 7.64.054 6.176s1.508-.544 1.463-.813c-.15-.898-.14-1.66-.117-2.268.004-.096.52-.393 1.624-.57a11.89 11.89 0 0 1 1.842-.134c1.05-.001 2.223.102 3.208.227.283.036.024-2.604.27-2.566s1 2.753 1.194 2.79c.454.084.734.155.738.187z"/></g><g transform="translate(10.348 6.555)"><g transform="translate(2.98 .488)" class="B C D J"><path d="M.27 0c.133 1.284 1.084.862 1.084.004"/><path d="M.325.704L0 1.138"/><path d="M.813.867l-.217.704"/><path d="M1.084.758l.163.596"/></g><path d="M2.438 0l1.595 2.346c.082.1.24.22.192.343-.044.113-1.078.2-1.17.016-.047-.095-.06-.425-.058-.317.02.663.077 1.08.174 1.254" fill="#f3fff6" class="B C D L"/><g transform="translate(.163 .433)" class="B C D J"><path d="M.24.092c-.202.85 1 .958 1.223-.092"/><path d="M.38.704L0 .975"/><path d="M.783.758l-.037.488"/><path d="M1.138.704l.163.38"/></g><path d="M2.256 3.823c.348-.066.4.437.634.293.123-.072.19-.253.332-.27.216-.026.555.07 1.018.287l-.838.75c-.523.483-2.723.007-3.278-.253l1.7.023c2.503-.39 1.94-.397-1.7-.023.493-.51 1.784-.74 2.132-.806z" fill="#ff243a" transform="matrix(.956305 .292372 -.292372 .956305 1.397205 -.443193)"/></g></g></g><g transform="translate(13 437)"><use xlink:href="#C" fill="#cce4ff" class="E"/><g transform="translate(5.701 3.475)"><g transform="translate(3.638 .217)" class="T"><use xlink:href="#D"/></g><g class="B C D P"><use xlink:href="#E"/><use xlink:href="#F"/><use xlink:href="#G"/><use xlink:href="#H"/></g><use xlink:href="#I" class="B C D J"/><g class="P B C D"><use xlink:href="#J"/><use xlink:href="#K"/><use xlink:href="#L"/><use xlink:href="#M"/></g><use xlink:href="#N" fill="#00ffce" class="E"/><g class="U"><use xlink:href="#O" transform="matrix(-1 0 0 1 12.325792 0)"/><use xlink:href="#O" x="1.574" transform="matrix(-1 0 0 1 15.475112 0)"/></g><g class="V"><use xlink:href="#P" transform="matrix(-1 0 0 1 3.855204 0)"/><use xlink:href="#Q" transform="matrix(-1 0 0 1 7.438914 0)"/><use xlink:href="#R" transform="matrix(-1 0 0 1 12.434388 0)"/><use xlink:href="#S" transform="matrix(-1 0 0 1 17.484162 0)"/><use xlink:href="#T" transform="matrix(-1 0 0 1 21.285066 0)"/></g></g></g><g transform="translate(0 8)"><g class="D H W X"><path d="M.79 32.6l294.5.5"/><path d="M.79 153.85l294.5.5"/><path d="M.79 176.25l294.5.5"/><path d="M.79 422.25l294.5.5"/><path d="M.79 359.25l294.5.5"/><path d="M.79 293l294.5.5"/></g><path d="M24.762 0C18.15 0 12.79 5.36 12.79 11.973s5.36 11.973 11.973 11.973 11.973-5.36 11.973-11.973S31.374 0 24.762 0z" fill="#65a9ff" class="E"/><path d="M27.654 15.535c1.42 0 3.162-.09 5.23-.268l.536-2.633h-2.324l.18-3.838H18.402l-.08 2.128c-1.486-.414-2.23-.22-2.23.584s.665 1.283 1.996 1.438L18.536 15l9.118.535z" class="K"/><g class="U"><path d="M25.823 8.75c-.064 1.12.932 1.406 1.208.374.21-.787-.938-.862-1.3-.374"/><path d="M29.574 8.57c.02.238.005.482.058.715.23 1.012 1.495.03.825-.815"/></g><path d="M31.596 7.48c.276 0-.05 2.46-.223 2.952-.22.626-.737.49-1.296.49a4.1 4.1 0 0 1-.466-.021 7.61 7.61 0 0 0-.86-.882l-.25-.207.062.363-.08-.126c-.34.855-1.02 1.097-1.85 1.097-1.914 0-2.678-1.458-2.37-3.666h7.333zm-3.803.996h-2.586l-.001.013c-.033.53.027.942.17 1.236l.085.15c.226.333.627.506 1.263.506.433 0 .73-.278.92-.96l.05-.206.037-.2.036-.282.025-.244zm3.07 0H28.95c.272 1.115.63 1.6 1.297 1.672l.188.01c.027 0 .04-.006.067-.03.054-.05.112-.152.167-.306.088-.25.15-.604.18-1.054l.016-.29z" class="E V"/><g class="D B C"><g class="J"><path d="M28.8 10.35c.9.7 1.696 1.743 1.56 1.914-.18.223-.825.27-.983.178-.127-.073-.07.026-.07.858"/><path d="M26.836 12.6c1.053.78 2.22.88 3.375.643"/></g><g class="L"><path d="M27.963 14.605c.225.9.758 1.47 1.32 2.224"/><path d="M28.883 14.507c.616 1.947.48 1.117.618 2.448"/><path d="M29.65 14.647c.184 1.893.162 1.106.162 2.357"/><path d="M30.464 14.647l-.422 2.59"/><path d="M31.034 14.718c-.05.918-.293 1.65-.752 2.44"/><path d="M31.66 14.626c-.084.895-.34 1.757-.942 2.456"/><path d="M32.003 15.588c-.744.997-.834 1.303-1.947 1.564"/></g><path d="M26.91 12.275c-.067.18-.2.36-.425.37" class="J"/></g><g class="F"><rect x="48.789" y="12.6" width="58.8" height="7.2" rx="3.6"/><rect x="48.789" y="383" width="58.8" height="7.2" rx="3.6"/><rect x="48.789" y="316.75" width="58.8" height="7.2" rx="3.6"/></g><g class="O"><rect x="13.789" y="51.6" width="264" height="7.2" rx="3.6"/><rect x="13.789" y="71.6" width="264" height="7.2" rx="3.6"/></g><g class="Q"><rect x="48.789" y="2.6" width="69" height="7.2" rx="3.6"/><rect x="48.789" y="373" width="69" height="7.2" rx="3.6"/><rect x="48.789" y="306.75" width="69" height="7.2" rx="3.6"/></g><g class="O"><rect x="13.789" y="41.6" width="264" height="7.2" rx="3.6"/><rect x="13.789" y="61.6" width="264" height="7.2" rx="3.6"/><rect x="13.789" y="91.6" width="225" height="7.2" rx="3.6"/><rect x="13.789" y="122.6" width="225" height="7.2" rx="3.6"/><rect x="49" y="396" width="225" height="7.2" rx="3.6"/><rect x="49" y="329.75" width="225" height="7.2" rx="3.6"/><rect x="49" y="406" width="216" height="7.2" rx="3.6"/><rect x="49" y="339.75" width="216" height="7.2" rx="3.6"/></g><rect x="48.789" y="199.75" width="58.8" height="7.2" rx="3.6" class="F"/><rect x="48.789" y="189.75" width="69" height="7.2" rx="3.6" class="Q"/><g class="O"><rect x="49" y="212.75" width="225" height="7.2" rx="3.6"/><rect x="49" y="232.75" width="225" height="7.2" rx="3.6"/><rect x="49" y="252.75" width="225" height="7.2" rx="3.6"/><rect x="49" y="222.75" width="216" height="7.2" rx="3.6"/><rect x="49" y="242.75" width="216" height="7.2" rx="3.6"/><rect x="49" y="262.75" width="216" height="7.2" rx="3.6"/></g><rect fill-opacity=".054" x="49" y="429" width="203" height="36" rx="3.6" class="F"/><g stroke="#000" class="C D"><path opacity=".276" d="M53 433v8"/><path opacity=".276" d="M323 538v8"/></g><g transform="translate(257 429)"><rect width="22" height="22" rx="11" class="F"/><path d="M16.833 6.007L4.53 8.758c-.28.06-.49.284-.524.554s.112.533.37.657l3.494 1.686.357 3.383a.66.66 0 0 0 .511.564c.278.067.572-.04.733-.264l.106-.103-.707-2.582a.87.87 0 0 1 .452-.832l3.036-1.71-2.427 2.228a.63.63 0 0 0-.191.613l1.107 4.543c.064.266.298.464.583.498s.56-.107.692-.35l5.78-10.728c.028-.04.05-.082.068-.127.06-.15.023-.38-.046-.538-.085-.195-.45-.277-1.1-.245z" class="I"/></g><rect x="13.789" y="81.6" width="254" height="7.2" rx="3.6" class="O"/><use xlink:href="#U" y="-30.15" class="G"/><g transform="translate(34.789 160.6)" class="F"><path d="M8.57 5.556C8.256 5.556 8 5.307 8 5s.256-.556.57-.556.57.25.57.556-.256.556-.57.556m-2.286 0c-.315 0-.57-.25-.57-.556s.256-.556.57-.556.57.25.57.556-.256.556-.57.556M4 5.556c-.315 0-.57-.25-.57-.556s.256-.556.57-.556.57.25.57.556-.256.556-.57.556M6.286 0C3.135 0 .57 2.243.57 5c0 .964.31 1.884.9 2.687L0 10h6.286C9.437 10 12 7.757 12 5S9.437 0 6.286 0"/></g></g></g><g transform="translate(386 88)"><path d="M1 0h294v274H1z" class="H I"/><g class="O"><rect x="11.789" y="64.6" width="264" height="7.2" rx="3.6"/><rect x="11.789" y="75" width="200" height="7.2" rx="3.6"/><rect x="11.789" y="54.6" width="264" height="7.2" rx="3.6"/></g><g transform="translate(13 10)"><use xlink:href="#W" class="E F"/><path d="M15.38 8.903c2.756 1.72 4.692 5.286 5.808 10.7C18.992 22.288 15.656 24 11.92 24a11.95 11.95 0 0 1-9.379-4.53c.202-1.363.475-2.565.82-3.608.372-1.127 1.55-3.06 3.54-5.8l.607-.828c2.83.15 5.304.045 7.39-.256l.484-.075z" class="K"/><g class="B C D L"><path d="M6.273 18.125c1.633.84 2.685-.234 3.786-1.404"/><path d="M11.897 16.91c.224.97.365 1.58.92 2.362.013.02-.045.01-.067.017"/><path d="M13.848 18.97c-1.113-.66-.444-.164-1.692-1.843"/><path d="M16.143 18.494c-1.513-.103-3.07-.652-4.22-1.658"/><path d="M16.277 17.548c-.797.114-2.422.926-4.322-.82"/><path d="M16.218 16.4c-2.082.42-.796.253-3.886.176"/><path d="M7.842 19.435c.93-.74 2.3-1.558 2.54-2.85"/><path d="M9.173 19.42c1.104-.73.327-.124 1.59-2.5"/><path d="M10.397 19.485c.837-1.63.56-.827.914-2.375"/><path d="M11.722 19.298c-.626-1.272-.396-.544-.547-2.224"/><path d="M12.974 19.237c-.962-1.3-.495-.53-1.28-2.383"/><path d="M7.266 15.692c.843.498 2.01 1.418 2.93.6"/><path d="M6.776 16.815c.537.143 3.246.946 3.196-.425"/><path d="M8.765 9.59c-.064.577-.064.94 0 1.084.405.92 1.037.614 1.3-.38"/><path d="M10.498 8.94c-1.228 5.31-1.138 7.964.27 7.964s1.896-.94 1.463-2.817l-.217-4.822c.65 2.275 1.264 2.384 1.842.325" class="K"/></g><g stroke="#ff5fa7" class="T B D"><path d="M6.164 14.014c-.313-.16-.493-.306-.542-.433-.257-.68.262-1.05 1.192-.542.036-.795.343-1.282.92-1.463s.686.307.325 1.463c.575-.085.936-.085 1.084 0 .493.286.264.985-.758 1.41.506.433.578.885.217 1.354s-.795.253-1.3-.65c-.722.867-1.282 1.084-1.68.65s-.217-1.03.542-1.788z"/><path d="M14.183 13.235c-.328-.17-.518-.32-.568-.454-.27-.712.275-1.098 1.25-.567.038-.832.36-1.342.966-1.53s.72.32.34 1.53c.603-.09.982-.09 1.137 0 .518.3.277 1.03-.796 1.474.53.454.606.926.227 1.418s-.834.265-1.364-.68c-.758.907-1.345 1.134-1.762.68s-.227-1.077.568-1.87z" transform="matrix(-.987688 .156434 .156434 .987688 28.745849 -2.262347)"/></g><g fill="#d41c61"><circle cx="7.383" cy="13.987" r="1"/><circle cx="15.485" cy="13.11" r="1"/></g><path d="M15.77 9.036c2.23-.4 3.477-.688 3.738-.867l-.488-1.354-4.063.813C14.705 3.69 14 1.722 12.845 1.722c-.376 0-.81.542-1.3 1.625-.686-2.095-1.41-2.492-2.167-1.192S8.222 5.424 8.186 8.06L5.53 7.9c-.577-.062-1.028-.156-1.354-.282v1.246c-.058.06.343.145 1.203.256l2.6.232c1.047.08 3.648-.028 7.8-.325z" class="N"/></g><g transform="translate(0 13)"><g class="D H W X"><path d="M.79 30.6l294.5.5"/><path d="M.79 237l294.5.5"/></g><rect x="48.789" y="10.6" width="58.8" height="7.2" rx="3.6" class="F"/><rect x="48.789" y=".6" width="69" height="7.2" rx="3.6" class="Q"/><use xlink:href="#U" y="53" class="G"/><g transform="translate(34.789 243.6)" class="F"><use xlink:href="#V"/></g></g><g transform="translate(1 97)"><mask id="b" class="I"><use xlink:href="#C" href="#B"/></mask><use fill="#0d62fe" xlink:href="#C" href="#B"/><g mask="url(#b)"><g transform="translate(-589)"><g opacity=".95"><path d="M882.606 148.206V0H735.684l.014 1.743c1.29 80.297 65.58 145.146 145.182 146.448l1.726.014z" fill="#2ac2ff"/><path d="M882.606 153.76v148.206H735.684l.014-1.743c1.29-80.297 65.58-145.146 145.182-146.448l1.726-.014z" transform="matrix(-1 0 0 -1 1618.290578 455.723688)" class="R"/><path d="M735.683 301.966V153.76H588.76l.014 1.743c1.29 80.297 65.58 145.146 145.182 146.448l1.726.014z" class="K"/><ellipse fill="#fb3640" cx="662.223" cy="76.27" rx="73.462" ry="74.102"/><ellipse cx="662.98" cy="376.591" rx="73.462" ry="74.102" class="G"/></g><g transform="translate(1 2)"><g class="R"><use xlink:href="#X"/><use xlink:href="#X" x="-439.171" y="-148.627"/></g><ellipse cx="513.401" cy="74.265" rx="73.326" ry="74.098" class="M"/><ellipse cx="513.401" cy="226.922" rx="73.326" ry="74.098" class="S"/><ellipse cx="513.401" cy="374.569" rx="73.326" ry="74.098" class="G"/></g><path d="M294 454V304H141l.015 1.764c1.344 81.27 68.292 146.904 151.188 148.222L294 454z" class="M"/><path d="M297 2v150H144l.015-1.764C145.36 68.967 212.307 3.332 295.202 2.015L297 2z" class="G"/><g class="S"><path d="M294 152V2h153l-.015 1.764c-1.344 81.27-68.292 146.904-151.188 148.222L294 152z"/><path d="M294 153v150H141l.015-1.764c1.344-81.27 68.292-146.904 151.188-148.222L294 153z"/></g><ellipse fill="#ff7800" transform="matrix(1 0 0 -1 0 758)" cx="367.5" cy="379" rx="73.5" ry="75"/></g></g></g></g></g><g class="E"><use xlink:href="#Y" fill="#06f"/><path d="M201.574 201.636c-2.652 0-5.022.702-6.792 1.82-.717.452-1.286.95-1.614 1.403-.198.273-.318.54-.332.817-.024.47.28.857.742.954l.04.008c.302.057.746.08 1.783.106l.94.025 2.264.1.144.01.124.01c1.07.08 1.97.2 2.682.366l.05.012v4.15c.096.977 1.148 1.465 3.156 1.465s4.294-.566 6.857-1.7l-.356-3.076.025-.007c.366-.098.676-.235.93-.418a1.72 1.72 0 0 0 .742-1.439 1.33 1.33 0 0 0-1.034-1.362l-.025-.006c-.28-.07-.6-.076-.972-.028l-.043.006-.066-.573-.234-.186c-2.074-1.646-5.083-2.453-9.01-2.453z" class="K"/></g><path d="M199.75 202.516c1.03.06.867.083 1.602-.633m-1.502 1.16c.8-.058.894-.367 1.45-1.047m.353-.04c.203.52.553.556 1.095.513m-1.095-.507c.12.9-.092.528.694 1.107" class="B C D L"/><g stroke="#fff" class="B D"><path d="M200.257 200.295c.964-.883 1.46.3 1.355 1.047-.125.914-.87 1.62-1.57 2.12-.01.007-.62.42-.8.26-.433-.383-.26-1.246-.08-1.76s.647-1.257 1.095-1.667z"/><path d="M201.533 202.21c.16-.488.266-1.106.7-1.453.936-.748 1.84-.5 1.582.787-.14.704-.728 1.537-1.242 2.027-.667.636-1.248-.233-1.148-.867.048-.307.165-.6.247-.9" class="C"/></g><g class="L B D"><path d="M204.8 201.59c.22 1.286.342 2.27 1.202 3.287 1.26 1.5 4.058.866 5.227-.413" class="C"/><path d="M205.865 201.756c-.233 1.71-.092 3.642 2.07 3.934.15.02 1.147.074 1.515-.053.894-.308.93-.494 1.782-1.187" class="C"/><path d="M206.26 201.77c.755 1.564 2.77 5.198 4.787 2.834" class="C"/><path d="M207.26 201.956c.177.96.266 1.933.908 2.72.85 1.043 2.583.83 3.304-.187" class="C"/><path d="M207.754 202.13c.485 1.223 1.4 3.276 3.064 2.594m-2.468-2.468c.402.636 1.233 2.252 2.063 2.42.323.065.66-.01.988-.013m-10.13 3.04c.814-.286 1.47.303 2.303.153.403-.073.895-.5 1.188-.734" class="C"/><path d="M200.057 210.868l3.436 1.903 5.39-1.903-.317 4.017-5.074-1.533-4.334 1.533z" class="N"/></g><use xlink:href="#Y" y="116.8" class="E N"/><path d="M199.91 322.7h-5.6c-.185-3.7 1.612-5.55 5.39-5.55h9.9l.176 4.29c1.283-.192 1.925.07 1.925.783s-.6 1.14-1.77 1.278l.343 6.61-10.376.198v-3.494c2.07.01 3.405-.253 4.007-.787s.813-1.643.634-3.33h-4.64z" stroke="#ff243a" stroke-width="1.444" fill="#ff243a"/><g stroke="#06f" class="B C D"><path d="M198.956 322.57c.05 1.066-.2 2.36-1.224 2.94"/><path d="M199.398 322.57c-.244 1.09-.617 1.974-1.397 2.815"/><path d="M199.792 322.57c-.26 1.185-.863 2.326-1.94 2.963"/><path d="M200.262 322.57c-.256.94-1.226 2.872-2.52 3.04m2.962-3.04c-.338 1.218-1.204 3-2.675 3m5.097.3c-.365.097-1.4-.874-1.784-1.427-.25-.37-.394-1-.436-1.863"/><path d="M201.263 322.57c.18 1.076.087 2.44 1.043 3.1m-.7-3.13c-.195.537.764 2.9 1.308 2.988m-1.06-2.958c.402 1 .62 2.042 1.38 2.8m-1.006-2.8c.472 1.1.57 2.177 1.5 2.903"/><path d="M200.998 322.57c.57 1.724.89 2.46 2.594 2.78"/></g><g class="B D L"><path d="M200.175 317.042c.6-.233 1.156-.55 1.774-.7.087-.02.094.156.112.243.046.22.1.443.077.666-.037.657-.22 1.483-.68 1.997-.6.673-1.205.1-1.362-.6-.16-.722-.087-.786.037-1.44l.042-.156zm4.258-.652c.226.127.434.295.678.38.382.134.896-.01 1.184.275.224.222.063.63.046.944-.027.5-.2 1.536-.738 1.755-.874.358-1.448-.596-1.483-1.335-.014-.3-.024-.6.02-.896.047-.328.166-.64.25-.96l.046-.162z"/><g class="N"><use xlink:href="#Z"/><use xlink:href="#Z" x="4.44" y="0.265"/></g></g><path d="M205.145 315.53c.8.17 1.807.13 2.43.5.512.3-2.704-.494-2.083-.3l-.53.023c2.928.915 2.977.296-.34.264-.675-.006 1.3.108 1.894.22.35.065 1.347.324.96.3-.975-.032-1.843-.223-2.74-.37-.292-.048-1.065-.318-.822-.2a10.71 10.71 0 0 0 1.574.543c.58.154 2.606-.13 1.817.36-.543.338-2.907-.654-3.292-.767-.115-.033-.5-.065-.394-.033l2.35.6c.267.08 1.006.392.718.338l-.288-.006c-2.423-.457-3.925-.92-.02.148m-7.397-1.326c.643-.236 2.398-.92 2.735-.548.763.845-1.852.165-2.244.7-.016.022.065.063.093.056l.457-.054 1.147-.347c.2-.05.834-.125.622-.103-.632.067-2.568.1-1.882.237l-.8.426c.734.135 1.37-.104 2.04-.196 2.393-.33-1.8-.002-1.733.516.01.086.176.04.255.03l1.617-.27c.26-.054 1.012-.27.75-.217-.477.096-1.93.295-1.402.348l-.722.467c.453.045 2.04-.7 2.452-.865" stroke="#06f" class="C B D"/></g></svg>