<svg xmlns="http://www.w3.org/2000/svg" xmlns:xlink="http://www.w3.org/1999/xlink" width="844" height="732" xmlns:v="https://vecta.io/nano"><style><![CDATA[.B{stroke-linejoin:round}.C{stroke-linecap:round}.D{fill:#fff}.E{stroke:#001c6c}.F{stroke-width:3.5}.G{stroke:#002959}.H{stroke-width:3.58}.I{fill:#e5e9ee}.J{opacity:.068}.K{stroke:#979797}.L{fill:#001c6c}.M{fill:#f4f2ee}.N{stroke-width:5}.O{fill:#002959}.P{fill:#d4e3ff}.Q{stroke-width:3.514}.R{stroke-width:2.322}.S{mask:url(#V)}.T{stroke-width:5.006}.U{stroke-width:2.5}.V{stroke-width:.981}.W{stroke-width:.639}.X{stroke-width:3.74}.Y{stroke-width:.894}]]></style><defs><path d="M84.603 26.376c0-13.214-40.137-46.084-73.89-7.81-17.465 19.805-9.618 38.156.014 57.663 2.966 6.007 7.456 28.784 11.308 31.835 12.904 10.22 22.644 5.878 22.644 6.607 0 .79-.227-15.062 10.717-14.1 16.3 1.432 38.51-12.59 35.166-40.56" id="A"/><path d="M65.144 26.102C62.574 5.047 36.55-10.72 9.468 9.676-5.784 21.165.843 49.37 8.26 64.325c2.284 4.605 5.74 22.068 8.707 24.407 9.936 7.835 17.436 4.507 17.436 5.066 0 .606 8.434-3.375 16.48-6.617 10.28-4.143 21.426-13.846 18.852-35.3" id="B"/><path d="M59.17 29.55l11.126 11.612c4.654 4.73 6.98 8.977 6.98 12.738s-3.832 2.583-11.496-3.535c-7.17 1.62-9.812-.296-7.93-5.753" id="C"/><path d="M61.202 18.604c0-9.518-29.035-33.194-53.452-5.624-12.634 14.265-6.958 27.483.01 41.534 2.145 4.326 5.394 20.733 8.18 22.93 9.335 7.36 16.38 4.234 16.38 4.76 0 .57 7.923-3.17 15.482-6.217 9.66-3.892 20.13-13.008 17.71-33.154" id="D"/><path d="M62.356 18.955c0-9.698-29.583-33.82-54.46-5.73-12.873 14.535-7.09 28.002.01 42.318C10.09 59.95 13.4 76.666 16.24 78.905c9.51 7.5 16.7 4.314 16.7 4.85 0 .58 8.073-3.23 15.774-6.334 9.84-3.966 20.51-13.254 18.045-33.78" id="E"/><path d="M65.144 20.222c0-10.13-30.906-35.332-56.896-5.987C-5.2 29.42.843 43.49 8.26 58.445c2.284 4.605 5.74 22.068 8.707 24.407 9.936 7.835 17.436 4.507 17.436 5.066 0 .606-.175-11.548 8.252-10.81 12.552 1.098 29.652-9.653 27.078-31.096" id="F"/><path d="M87.193 26.505c0-13.56-41.366-47.29-76.153-8.013-18 20.324-9.912 39.155.014 59.173 3.057 6.164 7.684 29.538 11.654 32.668 13.3 10.487 23.337 6.032 23.337 6.78 0 .812 11.288-4.518 22.056-8.857 13.76-5.545 28.678-18.533 25.232-47.234" id="G"/><path d="M62.356 19.357c0-9.698-29.583-33.82-54.46-5.73-12.873 14.535-7.09 28.002.01 42.318 2.186 4.408 5.495 21.124 8.335 23.363 9.51 7.5 16.7 4.314 16.7 4.85 0 .58-.167-11.054 7.9-10.348 12.015 1.05 28.383-9.24 25.92-29.766" id="H"/><path id="I" d="M142.58 136.258c10.075 37.6-12.24 76.248-49.84 86.323s-76.248-12.24-86.323-49.84 12.24-76.248 49.84-86.323 76.248 12.24 86.323 49.84z"/><path id="J" d="M100.073 57.028c6.54 24.412-7.946 49.504-32.358 56.045s-49.504-7.946-56.045-32.358 7.946-49.504 32.358-56.045 49.504 7.946 56.045 32.358z"/><path id="K" d="M51.596 20.498c-5.238-6.162-7.395-4.216-6.47 5.838"/><path id="L" d="M49.083 38.533c0 4.084 2.672 3.53 2.67 1.304-.001-3.728-2.67-5.237-2.67-1.304z"/><path id="M" d="M66.29 34.75c0 3.063 1.336 2.648 1.336.978 0-2.796-1.336-3.928-1.336-.978z"/><path id="N" d="M58.978 34.52l5.02-1.767c3.346-.59 5.02.883 5.02 4.417s-2.65 4.86-7.947 3.976"/><path id="O" d="M47.685 13.34c-4.92-5.79-6.947-3.96-6.08 5.484"/><path id="P" d="M60.09 35.17l5.114-1.8c3.41-.6 5.114.9 5.114 4.5s-2.7 4.95-8.097 4.05"/><path id="Q" d="M48.584 13.6c-5.014-5.898-7.078-4.036-6.194 5.588"/><path id="R" d="M54.977 31.623c0 3.9 2.558 3.38 2.557 1.248-.001-3.57-2.557-5.013-2.557-1.248z"/><path id="S" d="M62.648 27.233c0 2.932 1.28 2.535 1.28.936 0-2.677-1.28-3.76-1.28-.936z"/><path id="T" d="M84.026 49.18l7.15-2.517c4.767-.84 7.15 1.26 7.15 6.293s-3.774 6.923-11.323 5.664"/><path id="U" d="M67.936 19.003c-7.01-8.248-9.898-5.643-8.66 7.813"/></defs><g fill="none" fill-rule="evenodd"><g stroke="#0202c8" class="B R"><circle opacity=".074" cx="453" cy="366" r="126"/><circle cx="453" cy="366" r="216" class="J"/><circle opacity=".032" cx="453" cy="366" r="313"/><circle opacity=".012" cx="453" cy="366" r="406"/><circle cx="661" cy="283" r="59" class="D J"/><circle cx="661" cy="283" r="101" class="J"/><circle opacity=".034" cx="661" cy="283" r="167"/><circle cx="307" cy="533" r="59" class="D J"/><circle cx="307" cy="533" r="101" class="J"/><circle opacity=".034" cx="307" cy="533" r="167"/></g><g transform="translate(370 213)"><g fill="#0d62fe"><use xlink:href="#I"/><path d="M133.252 199.18c18.527-52.85 66.064-75.278 142.612-67.28 24.37 2.546 39.597-13.375 45.116-18.697 7.878-7.597-23.612-32.183-94.47-73.76-40.626 51.193-80.672 69.606-120.14 55.242s-30.507 20.467 26.88 104.496z"/></g><g transform="matrix(-1 0 0 1 141 71)"><g transform="matrix(.996195 -.087156 .087156 .996195 19.725682 16.417308)"><path d="M72.286.3c28.398 19.117 24.668 38.47 24.9 72.68s-10.125 60.07-17.854 67.1c-2.182 1.98-46.906 5.114-47.274-4.154-.64-16.1 8.193-51.182 16.28-67.782 1.068-2.193 3.218-3.748 4.222-5.97C60.305 45 66.058 29.237 66.86 10.594" class="L"/><g class="M"><use xlink:href="#A"/><path d="M73.705 44.175c4.545 5.417 12.522 8.38 11.992 12.09-.354 2.475-3.05 3.512-8.1 3.112" class="B C E N"/></g><path d="M60.86 32.766c-9.844-.132-14.913 2.515-15.205 7.94" class="B C E N"/><path d="M62.968 71.057c2.36 3.013 5.012 4.517 7.957 4.513s5.413-1.073 7.405-3.208l-3.564-3.056-3.358.81L67.3 67.01l-4.333 4.046z" transform="matrix(-.997564 -.069756 -.069756 .997564 146.098872 5.101885)" class="B E L N"/><path d="M59.392 48.02c0 5.327 3.47 4.605 3.47 1.7-.001-4.863-3.47-6.83-3.47-1.7zm22.128-5.77c0 3.995 1.735 3.454 1.735 1.275-.001-3.647-1.735-5.123-1.735-1.275z" class="D B E N"/><path d="M76.8 32.43c0-.716 8.588-8.528 11.954 1.05" class="B C E N"/></g><path d="M57.014 45.342c5.908-3.39 17.997-11.29 25.93-13.173 2.318-.55 15.728-2.678 21.28-2.08 2.498.27 3.662-.32-.083-4.657-2.817-3.263-2.677-24.143-38.13-21.948-14.516.9-40.172 13.083-48.545 31.825C12.133 47.248.5 135.795.507 149.44c.022 17.253 55.158 10.318 52.91 4.4-1.8-4.744-7.964-51.91-9.496-56.75-3.566-11.256-5.533-21.54 1.365-32.14 2.062-3.17 9.53 12.188 12 9.328l-.27-28.925z" class="L"/><g class="B C E N"><path d="M47.26 67.536c0-.6-14.89-8.384-17.48 5.4-1.726 9.182 4.53 16.17 18.773 20.96" class="I"/><path d="M40.27 71.92c3.615-1.142 6.1-.2 7.456 2.856" class="D"/></g></g></g><use xlink:href="#I" x="588" y="122" fill="#0d62fe"/><g stroke="#0202c8" class="B R"><circle cx="165" cy="296" r="59" class="J"/><circle cx="165" cy="296" r="101" class="J"/><circle opacity=".032" cx="165" cy="296" r="165"/></g><g transform="translate(596 535)"><use xlink:href="#J" class="P"/><g transform="matrix(-.996195 -.087156 -.087156 .996195 94.695347 12.732414)"><g transform="translate(.84)"><use fill="#a0b2db" xlink:href="#B"/><use fill-opacity=".19" xlink:href="#B" class="L"/></g><path d="M46.37 2.29C35.514-1.26 19.297-1.152 6.632 13.15-2.795 23.792-.023 47.59 5.797 58.825 9.1 65.2 11.03 66.633 12.31 69.345c.094.2-2.84 19.52 1.3 22.786 6.515 5.138 12.18 6.465 15.308 6.928M40.3 83.62c7.8 5.066 33.915-.116 30.273-30.455" class="B C E F"/><use xlink:href="#C" class="M"/><use fill="#8195c5" xlink:href="#C" class="C E F"/><g class="B C E F"><path d="M18.54 47.167c0-.468-11.482-6.547-13.478 4.208C3.732 58.546 8.557 64 19.54 67.742"/><path d="M12.86 50.754c2.6-.918 4.37-.153 5.343 2.296" class="D"/></g><use xlink:href="#K" stroke-width=".668" class="K"/><g class="E B F"><g class="C"><use xlink:href="#K"/><path d="M52.932 61.064c2.267 3.562 4.533 5.343 6.8 5.343s3.562-.324 3.886-.97"/></g><g class="D"><use xlink:href="#L"/><use xlink:href="#M"/></g><path d="M56.94 19.087c0-.55 4.087-5.44 6.678 1.905" class="C"/></g></g></g><use xlink:href="#J" x="252" y="463" class="P"/><g transform="translate(526 9)"><path d="M90.073 48.028c6.54 24.412-7.946 49.504-32.358 56.045S8.212 96.127 1.67 71.716 9.617 22.212 34.028 15.67s49.504 7.946 56.045 32.358z" class="P"/><g transform="translate(2)"><g transform="matrix(.996195 -.087156 .087156 .996195 6.638024 12.407544)"><use xlink:href="#N" class="K V"/><use xlink:href="#D" class="D"/><g class="B C G Q"><path d="M42.842 2.812C32.644-.524 19.648.74 7.75 14.177c-8.856 10-8.56 24.613-3.092 35.17 3.102 5.99 4.916 7.336 6.12 9.883.088.187-2.67 18.338 1.222 21.407 6.12 4.827 11.443 6.074 14.382 6.51m10.69-14.504c7.328 4.76 31.862-.11 28.44-28.612"/><use xlink:href="#N" x="1.255" class="I"/><path d="M16.63 38.394c0-.44-10.787-6.15-12.663 3.954-1.25 6.736 3.283 11.86 13.6 15.376"/><path d="M11.294 41.763c2.434-.863 4.107-.144 5.02 2.157" class="D"/></g><use xlink:href="#O" class="K V"/><g class="G B Q"><g class="C"><use xlink:href="#O"/><path d="M48.94 51.45c2.13 3.346 4.26 5.02 6.388 5.02s3.346-.304 3.65-.913"/></g><path d="M53.96 31.038c0 3.837 2.5 3.317 2.5 1.225-.001-3.503-2.5-4.92-2.5-1.225zm7.528-4.308c0 2.878 1.255 2.488 1.255.92 0-2.627-1.255-3.7-1.255-.92z" class="D"/><path d="M52.704 12.014c0-.516 3.84-5.11 6.274 1.8" class="C"/></g></g><path d="M54.058 60.17c3.157-6.313 7.892-9.47 14.205-9.47s8.944-.79 7.892-2.367c4.998 1.315 6.708 3.55 5.13 6.708s-4.735 4.34-9.47 3.55L54.058 60.17z" class="B G O Q"/></g></g><g transform="matrix(-1 0 0 1 338 122)"><path d="M90.43 66.928c6.54 24.412-7.946 49.504-32.358 56.045S8.568 115.027 2.027 90.616 9.973 41.112 34.384 34.57s49.504 7.946 56.045 32.358z" class="P"/><g transform="matrix(.996195 -.087156 .087156 .996195 6.763269 18.878135)"><use xlink:href="#P" class="K W"/><use xlink:href="#E" class="I"/><g class="B C G H"><path d="M43.65 2.865C33.26-.533 20.02.756 7.896 14.445c-9.023 10.188-8.72 25.078-3.15 35.833 3.16 6.102 5.008 7.474 6.235 10.07.1.2-2.72 18.684 1.245 21.81 6.236 4.918 11.658 6.19 14.653 6.632m10.893-14.778c7.466 4.85 32.463-.11 28.977-29.152"/><use xlink:href="#P" x="1.28" class="I"/><path d="M16.944 39.118c0-.448-11-6.266-12.902 4.028C2.768 50 7.387 55.232 17.9 58.813"/><path d="M11.507 42.55c2.48-.88 4.184-.146 5.114 2.197" class="D"/></g><use xlink:href="#Q" class="K W"/><g class="G B H"><g class="C"><use xlink:href="#Q"/><path d="M49.863 52.42c2.17 3.41 4.34 5.114 6.51 5.114s3.41-.3 3.72-.93"/></g><g class="D"><use xlink:href="#R"/><use xlink:href="#S"/></g><path d="M53.7 12.24c0-.525 3.912-5.206 6.393 1.824" class="C"/></g></g><g class="B C G H"><path d="M59.687 21.73C34.9 25.183 34.464 35.84 19.51 54.866c-1.412 1.797-3.738 2.666-5.36 4.277-.95.942-1.25 2.443-2.274 3.303-.862.725-1.772-.145-2.708-3.25-1.125-3.73-5.55-13.554-5.55-18.594C3.618 12.06 26.772 0 43.82 0c12.865 0 19.25 15.27 21.71 17.287 2.483 2.037.875-3.876 2.658-1.297 1.118 1.616 1.985 3.393 2.977 5.09" class="O"/><path d="M37.79 29.2c7.406-8.993 3.904-5.44 16.84-15.756 3.17-2.528 6.295-4.607 10.18-5.902 2.16-.72 4.394-1.292 6.66-1.517 3.215-.32 6.507-.65 9.692-.107 19.303 3.287-5.355 22.998-11.154 21.17-2.502-.79-3.766-3.7-5.957-5.144-1.044-.688-2.382-.758-3.574-1.137" fill="#000"/></g></g><g transform="matrix(-1 0 0 1 211 235)"><path d="M89.973 48.928c6.54 24.412-7.946 49.504-32.358 56.045S8.112 97.027 1.57 72.616 9.517 23.112 33.928 16.57s49.504 7.946 56.045 32.358z" class="P"/><g transform="matrix(.996195 -.087156 .087156 .996195 13.367729 12.287127)"><path d="M55.66.23C77.527 14.886 74.655 29.724 74.833 55.95c.036 5.26-.118 10.52-.246 15.78-.096 3.96-42.92 11.757-43.205 4.65-.493-12.343-.39-11.42 5.837-24.146.822-1.68 2.478-2.873 3.25-4.578C46.435 34.5 50.865 22.415 51.482 8.122" class="B C E L X"/><mask id="V" class="D"><use xlink:href="#F"/></mask><use xlink:href="#F" class="M"/><g class="E B"><g class="C S"><path d="M58.72 35.968c-2.008-3.013-5.884-1.4-6.426 1.47" stroke-width="1.5"/><path d="M35.165 39.142L17.008 42.71" class="U"/></g><ellipse transform="matrix(.981627 -.190809 .190809 .981627 -5.58068 13.205426)" cx="65.781" cy="35.582" rx="7" ry="10" class="S U"/><ellipse transform="matrix(.981627 -.190809 .190809 .981627 -6.628674 9.004624)" cx="43.444" cy="38.923" rx="8" ry="10" class="S U"/><g class="C F"><path d="M56.99 40.55c3.766.33 9.46-2.123 9.02 2.95-.294 3.383-2.624 4.735-7 4.056" class="M"/><path d="M46.862 25.12c-7.58-.1-11.483 1.928-11.708 6.088"/></g><path d="M46.592 51.41c1.58 1.615 8 3.758 9.904 3.758 2.267 0 4.177-.957 5.732-2.87l-3.384.126-2.584.617-3.164-2.385c-4.544.29-6.712.543-6.504.755z" class="F"/><g class="D F"><use xlink:href="#L" x="-4.481" y="1.567"/><use xlink:href="#M" x="-4.216" y="3.277"/></g><path d="M59.136 24.864c0-.55 6.613-6.538 9.205.805" class="C F"/></g></g><g class="B E"><path d="M41.83 34.683C46.38 32.087 55.69 26.04 61.8 24.6c1.785-.42 12.1-2.05 16.385-1.59 1.923.206 2.82-.245-.064-3.565-2.17-2.498-2.06-18.48-29.36-16.8-11.177.688-30.933 10.014-37.38 24.36C7.272 36.142-.013 64.02 0 74.463.016 87.67 38.587 89.305 36.855 84.767c-1.386-3.63-3.927-6.78-5.107-10.482-2.746-8.616-4.26-16.487 1.05-24.602 1.588-2.426 7.34 9.33 9.24 7.14l-.208-22.14z" class="L X"/><g class="C F"><path d="M34.466 51.796c0-.468-11.482-6.547-13.478 4.208-1.33 7.17 3.494 12.625 14.477 16.366" class="I"/><path d="M29.222 54.663c2.6-.918 4.37-.153 5.343 2.296" class="D"/></g></g></g><g transform="translate(596 186)"><g transform="matrix(.996195 -.087156 .087156 .996195 9.457114 16.405695)"><use xlink:href="#T" class="K Y"/><use xlink:href="#G" class="M"/><path d="M61.036 4.006C46.507-.746 27.992 1.056 11.04 20.198-1.577 34.443-1.155 55.264 6.634 70.303c4.42 8.533 7.003 10.45 8.72 14.08.126.266-3.803 26.126 1.74 30.5 8.72 6.876 16.302 8.654 20.5 9.273m15.232-20.664c10.44 6.78 45.394-.155 40.52-40.763" class="B C G T"/><path d="M11.068 20.28C27.098 2.18 44.913.22 59.465 4.696l.106.174v.015c-.002.032-.01.118-.04.244a46.23 46.23 0 0 1 2.698.789c-.11.355-2.383.802-13.1.802-17.8 0-23.323 26.505-15.34 32.668 5.53 4.27-.014 17.26 4.138 27.23.7 1.682-2.35 2.312-4.152 2.357-1.67.042-7.633-12.83-9.812-13.56-6.988-2.338-10.573-.53-13.525 0-3.047.547-5.21.476-5.495 8.038l-.003.074-.022-.122c-.336-1.835-1.05-4.105-2.464-6.14L.644 54.627c-.843-12.387 1.87-24.7 10.424-34.348zM4.942 63.526l.037.216c.497 3.055-.066 4.7-.066 1.534l.02-1.48.01-.27z" class="O"/><g class="B C G T"><use xlink:href="#T" x="1.788" class="I"/><path d="M23.693 54.7c0-.626-15.368-8.762-18.04 5.633C3.87 69.93 10.33 77.23 25.03 82.238"/><path d="M16.1 59.5c3.467-1.23 5.85-.205 7.15 3.073" class="D"/></g><use xlink:href="#U" class="K Y"/><g class="G T B"><g class="C"><use xlink:href="#U"/><path d="M69.724 73.3c3.034 4.767 6.068 7.15 9.1 7.15s4.767-.433 5.2-1.3"/></g><path d="M71.072 41.703c0 5.467 3.576 4.725 3.576 1.745-.001-5-3.576-7-3.576-1.745zm16.53-3.623c0 4.1 1.788 3.544 1.788 1.3-.001-3.743-1.788-5.258-1.788-1.3z" class="D"/><path d="M75.087 17.116c0-.735 5.47-7.28 8.94 2.55" class="C"/></g></g><g class="B G O T"><path d="M76.453 84.45C80.95 75.456 87.696 70.96 96.69 70.96s12.742-1.124 11.243-3.373c7.12 1.874 9.557 5.06 7.308 9.557s-6.746 6.184-13.492 5.06l-25.297 2.25z"/><path d="M46.736 72.242c7.014 8.35 11.9 12.703 23.448 11.13 3.34-.455 6.747-3.662 9.845-2.33 1.906.82-1.276 11.797 4.233 13.08 8.64 2 3.7.54 10.654-2.33.7-.284 1.536-.163 2.236.095l6.326 3.376c.804.296 1.9-.632 2.568-.095l2.14-1.57c7.104 5.717 3.577 16.546-.238 22.59-4.552 7.2-9.615 14.2-15.553 20.308-1.557 1.605-4.155 1.697-6.325 2.236-14.6 3.624-21.042-.616-32.817-12.366-2.466-2.46-3.878-5.88-4.994-9.18-2.64-7.8-1.916-29.883-2.38-33.815-.49-4.172-2.05-8.158-3.424-12.128-.38-1.102-1.205-1.997-1.807-2.996" class="C"/></g></g><g transform="translate(241 477)"><g transform="matrix(.996195 -.087156 .087156 .996195 32.092902 12.480166)"><path d="M54.116.293c20.93 14.03 18.18 28.233 18.352 53.338.06 8.827-.438 17.65-.38 26.478.007 1.013 1.472 2.52.57 2.985-5.428 2.792-13.707-45.37-22.043-42.732-6.138 1.943-19.467 39.628-19.74 32.826-.47-11.814-.373-10.93 5.587-23.113.787-1.61 2.372-2.75 3.112-4.382 5.7-12.596 9.95-24.163 10.54-37.845" class="B C G H O"/><use xlink:href="#H" class="M"/><g class="G H B"><g class="C"><path d="M55.86 41.91c3.604.315 9.056-2.033 8.634 2.825-.28 3.238-2.512 4.532-6.69 3.882" class="I"/><path d="M44.856 24.046c-7.256-.097-10.99 1.846-11.207 5.827"/></g><path d="M49.304 55.423c1.74 2.214 3.696 3.322 5.866 3.322s3.987-.783 5.452-2.348l-2.628-2.248-2.473.59-3.03-2.283-3.188 2.966z"/><g class="D"><use xlink:href="#R" x="-11.202" y="3.617"/><use xlink:href="#S" x="-2.148" y="6.033"/></g><path d="M56.605 23.8c0-.525 6.33-6.26 8.81.77" class="C"/></g></g><g class="G H B"><g class="O"><path d="M59.338 33.918c4.354-2.485 13.265-8.273 19.113-9.652 1.708-.403 11.592-1.962 15.684-1.523 1.84.197 6.697-.505 3.937-3.683C95.996 16.67 92.1 1.64 65.97 3.25c-10.7.658-29.61 9.585-35.78 23.318-3.93 8.747-4.934 19.11-4.922 29.108.016 12.64 30.966 30.527 29.308 26.183-1.326-3.476-3.76-6.49-4.89-10.033-2.63-8.247-4.078-15.78 1.006-23.55 1.52-2.322 7.025 8.93 8.845 6.834l-.2-21.193z"/><circle cx="21.709" cy="30.989" r="21.709"/></g><g class="C"><path d="M52.29 50.298c0-.448-11-6.266-12.902 4.028-1.274 6.863 3.345 12.085 13.857 15.666" class="I"/><path d="M47.268 53.043c2.48-.88 4.184-.146 5.114 2.197" class="D"/></g></g></g></g></svg>