<svg xmlns="http://www.w3.org/2000/svg" xmlns:xlink="http://www.w3.org/1999/xlink" width="900" height="979" xmlns:v="https://vecta.io/nano"><style><![CDATA[.B{stroke-linejoin:round}.C{stroke-width:.6}.D{stroke-linecap:round}.E{fill-rule:nonzero}.F{stroke:#212121}.G{stroke:#001d75}.H{fill:#fff}.I{stroke-width:.948}.J{stroke:#ffc200}.K{fill:#06f}.L{fill:#001d75}.M{fill:#212121}.N{fill:#ff0025}.O{fill:#0064ff}.P{fill:#ff9d00}.Q{fill:#cce4ff}.R{fill:#ff5fa7}.S{fill:#00ffce}.T{fill:#f4f2ee}.U{fill:#0d62fe}.V{fill:#001d71}.W{fill:#ff243a}.X{opacity:.414}]]></style><defs><rect id="A" x="12" y="874" width="676" height="83" rx="3.6"/><filter x="-0.1%" y="-1.2%" width="100.3%" height="102.4%" id="B"><feGaussianBlur stdDeviation=".5" in="SourceAlpha"/><feOffset dy="1"/><feComposite in2="SourceAlpha" operator="arithmetic" k2="-1" k3="1"/><feColorMatrix values="0 0 0 0 0.880942166 0 0 0 0 0.881090164 0 0 0 0 0.880922616 0 0 0 0.5 0"/></filter><path d="M369.5 767H688v25H369.5c-6.904 0-12.5-5.596-12.5-12.5s5.596-12.5 12.5-12.5z" id="C"/><path d="M451 796h237v26H451c-7.18 0-13-5.82-13-13s5.82-13 13-13z" id="D"/><path d="M643.5 736h32c6.904 0 12.5 5.596 12.5 12.5V761h-44.5c-6.904 0-12.5-5.596-12.5-12.5s5.596-12.5 12.5-12.5z" id="E"/><path d="M491.5 826H688v12.5c0 6.904-5.596 12.5-12.5 12.5h-184c-6.904 0-12.5-5.596-12.5-12.5s5.596-12.5 12.5-12.5z" id="F"/><filter x="-4.2%" y="-2.7%" width="108.4%" height="106.2%" id="G"><feOffset dy="1" in="SourceAlpha"/><feGaussianBlur stdDeviation="2"/><feColorMatrix values="0 0 0 0 0 0 0 0 0 0.160784314 0 0 0 0 0.349019608 0 0 0 0.1 0" result="C"/><feMerge><feMergeNode in="C"/><feMergeNode in="SourceGraphic"/></feMerge></filter><rect id="H" width="297.85" height="182.85" rx="4.5"/><filter x="-1.2%" y="-1.4%" width="102.4%" height="103.8%" id="I"><feOffset dy="1" in="SourceAlpha"/><feGaussianBlur stdDeviation="1"/><feColorMatrix values="0 0 0 0 0 0 0 0 0 0.164542109 0 0 0 0 0.362271488 0 0 0 0.1 0"/></filter><filter x="-35.5%" y="-4.4%" width="171.1%" height="108.7%" id="J"><feOffset dy="5" in="SourceAlpha"/><feGaussianBlur stdDeviation="5"/><feColorMatrix values="0 0 0 0 0 0 0 0 0 0.164542109 0 0 0 0 0.362271488 0 0 0 0.1 0" result="C"/><feMerge><feMergeNode in="C"/><feMergeNode in="SourceGraphic"/></feMerge></filter><rect id="K" x="12" y="58" width="296" height="182" rx="4.5"/><path id="L" d="M38.804 675.53c.07 1.14-1.034 1.43-1.34.38-.234-.8 1.04-.877 1.442-.38"/><path id="M" d="M38.804 469.446c.07 1.113-1.034 1.396-1.34.372-.234-.782 1.04-.856 1.442-.372"/><path id="N" d="M20.703 0C9.27 0 0 9.178 0 20.5s9.27 20.5 20.703 20.5 20.703-9.178 20.703-20.5S32.137 0 20.703 0z"/><path id="O" d="M20 13.792c2.454 0 5.468-.153 9.042-.458l.927-4.508h-4.02l.31-6.57H3.992L3.856 5.9C1.285 5.2 0 5.523 0 6.9S1.15 9.095 3.45 9.36l.773 3.515c8.057.61 13.312.917 15.766.917z"/><path id="P" d="M.158.523c-.11 1.92 1.612 2.407 2.09.64C2.612-.183.626-.31 0 .523"/><path id="Q" d="M6.645.218c.034.408.01.826.1 1.225.4 1.732 2.585.052 1.426-1.396"/><path id="R" d="M26.807.001c.476 0-.087 4.2-.386 5.055-.38 1.072-1.275.84-2.24.84a7.16 7.16 0 0 1-.805-.037 13.09 13.09 0 0 0-1.487-1.51l-.43-.355.107.62-.138-.216c-.586 1.463-1.765 1.878-3.196 1.878-3.31 0-4.63-2.496-4.1-6.277h12.68zM20.23 1.706h-4.47v.022c-.057.908.048 1.612.293 2.117l.148.255c.4.57 1.084.867 2.184.867.75 0 1.264-.477 1.592-1.646l.088-.353.063-.36.062-.484.043-.42zm5.31 0H22.23c.47 1.91 1.09 2.738 2.244 2.862l.324.017c.047 0 .07-.01.115-.05.093-.087.194-.26.288-.524.152-.43.258-1.034.314-1.805l.027-.5z"/><path id="S" d="M21.97 4.913c1.555 1.215 2.933 2.984 2.697 3.276-.31.382-1.427.46-1.7.306-.22-.125-.12.044-.12 1.47"/><path id="T" d="M18.575 8.77c1.82 1.337 3.84 1.507 5.835 1.1"/><path id="U" d="M20.524 12.2c.4 1.543 1.3 2.516 2.284 3.808"/><path id="V" d="M22.116 12.032c1.064 3.334.828 1.912 1.07 4.192"/><path id="W" d="M23.44 12.272c.318 3.24.28 1.893.28 4.036"/><path id="X" d="M25.834 12.393c-.088 1.57-.506 2.824-1.3 4.18"/><path id="Y" d="M26.916 12.236c-.145 1.533-.587 3.01-1.628 4.204"/><path id="Z" d="M27.51 13.882c-1.287 1.707-1.442 2.23-3.366 2.68"/><path id="a" d="M10.212 2.447c-.05.8.726.99.94.264.164-.555-.73-.607-1.013-.264"/><path id="b" d="M20.198 0C9.043 0 0 8.954 0 20s9.043 20 20.198 20 20.198-8.954 20.198-20S31.353 0 20.198 0z"/><path id="c" d="M3.172 7.12c-.12-.784.02-1.324.42-1.62.73-.54 1.7.386 1.81 1.072.117.81-.525 2.072-1.14 1.87-.6-.195-.953-.635-1.088-1.32z"/><path id="d" d="M67.862 98.464c.097 1.7-1.406 2.132-1.823.568-.318-1.194 1.415-1.307 1.96-.568"/></defs><g transform="translate(1 22)" fill="none" fill-rule="evenodd"><path stroke="#0064ff" opacity=".232" d="M0 8.5h687.5" class="B D"/><use xlink:href="#A" class="H"/><use fill-opacity=".054" xlink:href="#A" class="O"/><use fill="#000" filter="url(#B)" xlink:href="#A"/><rect x="619" y="890" width="50" height="51" rx="11" class="O"/><path d="M657.333 904.015l-28.124 6.42c-.638.143-1.117.663-1.197 1.294s.257 1.244.844 1.533l7.987 3.935.817 7.895c.065.635.534 1.16 1.168 1.316s1.307-.1 1.676-.616l.242-.24-1.615-6.025c-.068-.785.332-1.538 1.032-1.94l6.94-3.987-5.547 5.198a1.49 1.49 0 0 0-.436 1.43l2.53 10.6c.146.62.682 1.084 1.332 1.162s1.282-.25 1.58-.82l13.212-25.033c.063-.093.115-.192.155-.295.138-.35.052-.886-.105-1.255-.195-.455-1.026-.645-2.492-.572z" class="H"/><path d="M103 665h238.5c6.904 0 12.5 5.596 12.5 12.5s-5.596 12.5-12.5 12.5H78c0-13.807 11.193-25 25-25zm0-206h116.5c6.904 0 12.5 5.596 12.5 12.5s-5.596 12.5-12.5 12.5H78c0-13.807 11.193-25 25-25z" stroke="#f4f2ee" class="T"/><use xlink:href="#C" class="H"/><use xlink:href="#C" class="U"/><rect x="376" y="590" width="312" height="25" rx="12.5" class="O"/><path d="M78 696h166.5c6.904 0 12.5 5.596 12.5 12.5s-5.596 12.5-12.5 12.5H103c-13.807 0-25-11.193-25-25h0zm0-208h103c7.18 0 13 5.82 13 13s-5.82 13-13 13H78v-26zm0 31h299.5c6.904 0 12.5 5.596 12.5 12.5s-5.596 12.5-12.5 12.5H78v-25zm0 29h151c7.18 0 13 5.82 13 13s-5.82 13-13 13H104c-14.36 0-26-11.64-26-26h0z" stroke="#f4f2ee" class="T"/><use xlink:href="#D" class="H"/><use xlink:href="#D" class="U"/><use xlink:href="#E" class="H"/><use xlink:href="#E" class="U"/><use xlink:href="#F" class="H"/><use xlink:href="#F" class="U"/><g filter="url(#G)" transform="translate(389 54)"><g transform="translate(0 201)"><use fill="#000" filter="url(#I)" xlink:href="#H"/><use xlink:href="#H" class="H"/><path d="M56.816 23.853c-24.022 0-43.496 19.474-43.496 43.496s19.474 43.496 43.496 43.496 43.496-19.474 43.496-43.496-19.474-43.496-43.496-43.496z" class="E K"/><path d="M67.323 80.3c5.156 0 11.488-.324 18.997-.973l1.948-9.565h-8.443l.65-13.942H33.712l-.286 7.732c-5.4-1.504-8.1-.797-8.1 2.12s2.416 4.66 7.25 5.224l1.624 7.457C51.126 79.642 62.167 80.3 67.323 80.3z" class="P"/><g class="M"><path d="M60.67 55.636c-.233 4.07 3.386 5.107 4.39 1.36.765-2.86-3.407-3.13-4.722-1.36"/><path d="M74.3 54.988c.07.866.018 1.752.212 2.6.84 3.676 5.43.11 2.996-2.962"/></g><path d="M81.645 51.027c1 0-.183 8.933-.812 10.726-.797 2.274-2.678 1.783-4.71 1.783-.648 0-1.204-.02-1.692-.078a27.65 27.65 0 0 0-3.125-3.203l-.906-.752.225 1.318-.29-.46c-1.23 3.105-3.71 3.986-6.716 3.986-6.953 0-9.727-5.296-8.615-13.32h26.638zm-13.816 3.62h-9.393l-.003.046c-.12 1.927.1 3.42.615 4.492l.3.542c.82 1.21 2.277 1.84 4.588 1.84 1.573 0 2.656-1.01 3.345-3.492l.186-.75.133-.764a29.14 29.14 0 0 0 .13-1.026l.09-.888zm11.157 0H72.03c.988 4.05 2.292 5.8 4.714 6.073l.68.035c.098 0 .15-.02.242-.11.195-.185.408-.55.605-1.11.32-.913.543-2.194.66-3.83l.058-1.06z" class="E N"/><g class="B D F I"><path d="M71.485 61.45c3.266 2.58 6.16 6.333 5.665 6.952-.65.81-2.998.977-3.572.648-.46-.264-.253.094-.253 3.116"/><path d="M64.35 69.632c3.824 2.836 8.068 3.197 12.26 2.336"/></g><g class="G B D I"><path d="M68.446 76.912c.82 3.275 2.752 5.34 4.8 8.08"/><path d="M71.8 76.555c2.236 7.074 1.74 4.057 2.247 8.895"/><path d="M74.573 77.065c.668 6.878.587 4.018.587 8.564"/><path d="M77.534 77.065l-1.532 9.405"/><path d="M79.602 77.32c-.184 3.334-1.063 5.992-2.73 8.87"/><path d="M81.874 76.99c-.305 3.252-1.233 6.384-3.42 8.92"/><path d="M83.125 80.48c-2.704 3.622-3.03 4.732-7.07 5.684"/></g><path d="M64.625 68.448c-.245.657-.732 1.306-1.544 1.343" class="B D F I"/><rect x="108.986" y="63.815" width="122.306" height="14.531" rx="7.266" class="O"/><g class="T"><rect x="109.25" y="90.94" width="44.85" height="14.531" rx="3.159"/><rect x="109.25" y="113.94" width="44.85" height="14.531" rx="3.159"/><rect x="109.25" y="136.94" width="44.85" height="14.531" rx="3.159"/><rect x="162.15" y="90.85" width="93.15" height="14.531" rx="3.159"/><rect x="162.15" y="113.85" width="104.65" height="14.531" rx="3.159"/><rect x="162.15" y="136.85" width="69" height="14.531" rx="3.159"/></g><rect x="108.986" y="40.807" width="142.892" height="14.531" rx="7.266" class="V"/></g><g transform="translate(14)"><g transform="translate(11.951 1.856)"/></g></g><path d="M38 665c-16.016 0-29 12.984-29 29s12.984 29 29 29 29-12.984 29-29-12.984-29-29-29z" class="E Q"/><path d="M51.736 675.985c-.7 15.652-17.678 21.456-6.826 31.656 2.593 2.438-14.22 2.472-12.777 0 7.7-13.2-.35-16.004-.175-30.25.02-1.68.257-3.256.677-4.703 8.452-.24 14.644-.02 18.576.658.313.054.488.933.525 2.638z" class="R"/><g class="B D C"><path d="M54 674.146c-.93 4.055-2.7 8.212-3.042 12.378-.248 3.02-.1 6.057-.166 9.086m2.138-21.598c-2.086 5.267-2.895 10.006-3.092 15.698-.155 4.472-.6 3.38.288 5.23m-.003-17.708c-1.958 8.112-2.048 10.733-.678 19.05m-.125.938c-4.858-4.38-2.823-12.025-1.52-17.44" class="J"/><path d="M39.913 675.9c.296 1.464.215 2.446-.24 2.945-2.424 2.65-3.367 3.67-6.092 7.44-.037.052-.026.187.037.187.302.003.64-.007.89-.178 1.748-1.2 3.1-3.026 5.035-3.892 2.605-1.166-3.573 2.863-2.078 3.648.61.32 11.293-1.154 7.84-.462s-8.582 1.65-8.152 2.215c1.796 2.353 2.248 3.43 1.796 5.536" class="F"/><path d="M33.425 678.707c-1.57 4.185-3.668 14.38-9.846 15.56-.078.015-.12-.106-.178-.16m9.1-18.207c-1.42 7.066-3.52 13.3-9.356 17.44m8.544-20.133c-1.814 6.58-2.73 13.736-8.287 18.244m6.416-17.975c-1.676 7.057-1.86 11.7-6.817 16.635" class="J"/></g><path d="M31.53 672.058c-.757 0 .456 4.69.93 5.774.402.916 1.5 1.383 3.322 1.4 2.006.062 3.4-.398 4.185-1.38l.12-.154c.93 1.876 2.807 2.408 5.083 2.408 5.262 0 7.362-3.2 6.52-8.05H31.53zm9.29 1.79l8.95-.126.003.032c.12 1.546-.148 2.695-.75 3.457l-.062.076c-.72.85-2.06 1.29-4.088 1.29-1.388 0-3.008-.544-3.708-2.284l-.164-.492c-.078-.295-.074-.764-.116-1.324l-.065-.63zm-7.874.152h6.493l-.01.96c-.053 2.156-.51 3.12-4.315 3.198l-.7.007a.33.33 0 0 1-.226-.074c-.182-.126-.38-.376-.564-.757-.3-.622-.507-1.495-.615-2.6l-.054-.722z" class="E S"/><g class="M"><use xlink:href="#L"/><use xlink:href="#L" x="3.876"/></g><path d="M29.164 710.456c-.858 1.26-4.458.934-2.53-1.622s3.388.36 2.53 1.622zm4.21 2.16c-.882 1.217-4.103.442-2.12-2.025s3.002.807 2.12 2.025zm6.137.726c-.892 1.264-4.1.7-2.094-1.87s2.987.606 2.094 1.87zm6.404-.785c-.907 1.243-3.995.596-2.676-1.6s3.584.355 2.676 1.6zm4.57-1.48c-.862 1.23-3.53.64-2.542-1.58s3.403.35 2.542 1.58z" class="N"/><path d="M38 459c-16.016 0-29 12.76-29 28.5S21.984 516 38 516s29-12.76 29-28.5S54.016 459 38 459z" class="E Q"/><path d="M51.736 469.9c-.7 15.28-17.678 20.945-6.826 30.902 2.593 2.38-14.22 2.413-12.777 0 7.7-12.876-.35-15.623-.175-29.53.02-1.64.257-3.178.677-4.59 8.452-.234 14.644-.02 18.576.642.313.053.488.91.525 2.575z" class="R"/><g class="B D C"><path d="M54 468.095c-.93 3.96-2.7 8.017-3.042 12.083-.248 2.947-.1 5.913-.166 8.87m2.138-21.084c-2.086 5.142-2.895 9.768-3.092 15.324-.155 4.366-.6 3.3.288 5.105m-.003-17.286c-1.958 7.92-2.048 10.478-.678 18.596m-.125.917c-4.858-4.274-2.823-11.74-1.52-17.024" class="J"/><path d="M39.913 469.798c.296 1.43.215 2.387-.24 2.874-2.424 2.586-3.367 3.58-6.092 7.264-.037.05-.026.182.037.183.302.003.64-.007.89-.174 1.748-1.172 3.1-2.954 5.035-3.8 2.605-1.138-3.573 2.795-2.078 3.56.61.313 11.293-1.127 7.84-.45s-8.582 1.61-8.152 2.162c1.796 2.297 2.248 3.348 1.796 5.405" class="F"/><path d="M33.425 472.548c-1.57 4.085-3.668 14.038-9.846 15.2-.078.015-.12-.104-.178-.156m9.1-17.794c-1.42 6.898-3.52 12.994-9.356 17.024m8.544-19.642c-1.814 6.424-2.73 13.4-8.287 17.8m6.416-17.54c-1.676 6.9-1.86 11.422-6.817 16.238" class="J"/></g><path d="M31.53 466.057c-.757 0 .456 4.58.93 5.637.402.894 1.5 1.35 3.322 1.366 2.006.06 3.4-.388 4.185-1.346l.12-.15c.93 1.832 2.807 2.35 5.083 2.35 5.262 0 7.362-3.124 6.52-7.857H31.53zm9.29 1.748l8.95-.123.003.032c.12 1.51-.148 2.63-.75 3.375l-.062.074c-.72.828-2.06 1.26-4.088 1.26-1.388 0-3.008-.53-3.708-2.23l-.164-.48c-.078-.288-.074-.746-.116-1.293l-.065-.616zm-7.874.148h6.493l-.01.936c-.053 2.105-.51 3.045-4.315 3.122l-.7.007c-.092 0-.14-.014-.226-.072-.182-.123-.38-.367-.564-.74-.3-.607-.507-1.46-.615-2.548l-.054-.704z" class="E S"/><g class="M"><use xlink:href="#M"/><use xlink:href="#M" x="3.876"/></g><path d="M29.164 503.54c-.858 1.23-4.458.912-2.53-1.583s3.388.352 2.53 1.583zm4.21 2.1c-.882 1.188-4.103.43-2.12-1.976s3.002.788 2.12 1.976zm6.137.708c-.892 1.234-4.1.675-2.094-1.825s2.987.6 2.094 1.825zm6.404-.766c-.907 1.214-3.995.582-2.676-1.56s3.584.347 2.676 1.56zm4.57-1.445c-.862 1.2-3.53.625-2.542-1.544s3.403.343 2.542 1.544z" class="N"/><g transform="translate(794)"><g filter="url(#J)"><g transform="translate(20.75 393.445)"><g transform="translate(0 .685)"><use xlink:href="#N" class="E K"/><g transform="translate(5.714 12.8)"><g transform="translate(0 .006)"><use xlink:href="#O" class="P"/><g transform="translate(16.665 1.65)" class="M"><use xlink:href="#P"/><use xlink:href="#Q"/></g><use xlink:href="#R" class="E N"/><g class="B C D F"><use xlink:href="#S"/><use xlink:href="#T"/></g><g class="G B C D"><use xlink:href="#U"/><use xlink:href="#V"/><use xlink:href="#W"/><path d="M24.85 12.272l-.73 4.432"/><use xlink:href="#X"/><use xlink:href="#Y"/><use xlink:href="#Z"/></g><path d="M18.705 8.21c-.117.3-.348.615-.735.633" class="B C D F"/></g></g></g></g><path d="M0 0h83v678H0z" class="H"/><g transform="translate(20.75 16.094)"><use xlink:href="#N" class="E K"/><g transform="translate(5.714 12.8)"><g transform="translate(0 .006)"><use xlink:href="#O" class="P"/><g transform="translate(16.665 1.65)" class="M"><use xlink:href="#P"/><use xlink:href="#Q"/></g><use xlink:href="#R" class="E N"/><g class="B C D F"><use xlink:href="#S"/><use xlink:href="#T"/></g><g class="G B C D"><use xlink:href="#U"/><use xlink:href="#V"/><use xlink:href="#W"/><path d="M24.85 12.272l-.73 4.432"/><use xlink:href="#X"/><use xlink:href="#Y"/><use xlink:href="#Z"/></g><path d="M18.705 8.21c-.117.3-.348.615-.735.633" class="B C D F"/></g></g></g><g transform="translate(21.787 166.076)"><use xlink:href="#N" class="E K"/><g transform="translate(1.312 4.36)"><path d="M2.373 23.106C2.37 12.964 15.883 4.014 23.666 4.042c11.82.042 8.94 19.603 8.396 19.638-3.346.218-13.242.027-29.69-.573z" transform="matrix(.956305 -.292372 .292372 .956305 -3.29765 5.74383)" class="L"/><g transform="translate(11.523 5.751)" fill="#f1f4f6"><path d="M17.77 5.188c.51 4.034-3.48 14.215-7.69 13.655-3.538-.47-5.6-3.446-6.69-6.63-.185-.54-2.918.866-3.293-1.638s2.608-.93 2.53-1.39C2.36 7.646 2.38 6.342 2.42 5.3c.006-.164.9-.673 2.81-.973.854-.134 1.912-.227 3.185-.23 1.816-.002 3.845.174 5.547.388.5.06.042-4.458.465-4.393.43.065 1.73 4.714 2.065 4.775.786.144 1.27.265 1.276.32z"/></g><g transform="translate(17.893 11.223)"><g transform="translate(5.152 .835)" class="B C D F"><path d="M.468 0C.7 2.198 2.342 1.475 2.342.007"/><path d="M.562 1.206L0 1.948"/><path d="M1.405 1.484L1.03 2.7"/><path d="M1.874 1.3l.28 1.02"/></g><path d="M4.216 0l2.758 4.017c.14.172.413.376.33.588-.075.194-1.864.34-2.02.027-.08-.163-.105-.728-.1-.543.034 1.135.134 1.85.3 2.147" fill="#f3fff6" class="B C D G"/><g transform="translate(.281 .742)" class="B C D F"><path d="M.414.157C.065 1.613 2.14 1.797 2.53 0"/><path d="M.656 1.206L0 1.67"/><path d="M1.354 1.3l-.064.835"/><path d="M1.967 1.206l.28.65"/></g><path d="M3.904 6.544c.602-.114.672.747 1.094.5.213-.125.328-.435.574-.465.373-.045.96.117 1.758.486l-1.45 1.287c-.906.83-4.704.025-5.662-.418l2.92.03c4.327-.68 3.354-.69-2.92-.03.855-.878 3.086-1.277 3.688-1.39z" transform="matrix(.956305 .292372 -.292372 .956305 2.393551 -.769907)" class="W"/></g></g></g><g transform="translate(21.787 91.085)"><use xlink:href="#N" class="E K"/><path d="M26.595 15.244c4.766 2.944 8.114 9.05 10.043 18.322-3.797 4.595-9.567 7.526-16.03 7.526a20.74 20.74 0 0 1-16.218-7.756c.35-2.333.82-4.39 1.416-6.177.643-1.93 2.683-5.24 6.12-9.93l1.05-1.417c4.894.26 9.17.077 12.78-.438l.837-.128z" class="P"/><g class="B C D G"><path d="M10.846 31.032c2.824 1.44 4.643-.4 6.547-2.403"/><path d="M20.57 28.954c.388 1.662.632 2.703 1.593 4.043.023.032-.077.02-.116.03"/><path d="M23.946 32.48c-1.925-1.132-.768-.28-2.925-3.155"/><path d="M27.914 31.664c-2.616-.176-5.3-1.116-7.3-2.84"/><path d="M28.145 30.044c-1.378.195-4.19 1.586-7.473-1.405"/><path d="M28.044 28.08c-3.6.718-1.377.433-6.72.3"/><path d="M13.56 33.275c1.606-1.266 3.975-2.667 4.394-4.88"/><path d="M15.862 33.25c1.9-1.25.566-.213 2.75-4.264"/><path d="M17.978 33.36c1.447-2.79.97-1.416 1.58-4.067"/><path d="M20.27 33.04c-1.082-2.178-.685-.932-.946-3.808"/><path d="M22.434 32.936c-1.664-2.227-.855-.907-2.215-4.08"/><path d="M12.564 26.867c1.458.852 3.475 2.43 5.066 1.01"/><path d="M11.718 28.79c.928.246 5.613 1.62 5.526-.727"/><path d="M15.156 16.418c-.1.988-.1 1.607 0 1.855.7 1.577 1.794 1.052 2.248-.65"/><path d="M18.153 15.305c-2.123 9.1-1.967 13.635.468 13.635s3.28-1.608 2.53-4.823l-.375-8.255c1.124 3.896 2.186 4.08 3.185.557" class="P"/></g><g stroke="#ff5fa7" class="R B C"><path d="M10.66 23.994c-.54-.276-.853-.523-.937-.742-.445-1.164.453-1.796 2.06-.928.062-1.36.593-2.195 1.593-2.504s1.187.526.562 2.504c.994-.146 1.62-.146 1.874 0 .853.5.457 1.686-1.312 2.412.874.742 1 1.515.375 2.32s-1.374.433-2.248-1.113c-1.25 1.484-2.217 1.855-2.904 1.113s-.375-1.762.937-3.06z"/><path d="M24.527 22.663c-.567-.288-.894-.547-.98-.775-.465-1.218.478-1.88 2.163-.974.068-1.424.626-2.3 1.674-2.624s1.244.548.586 2.62c1.043-.155 1.698-.156 1.965-.003.894.512.477 1.764-1.38 2.527.916.775 1.046 1.584.39 2.427s-1.442.455-2.356-1.162c-1.313 1.556-2.328 1.946-3.048 1.17s-.4-1.844.988-3.206z" transform="matrix(-.987688 .156434 .156434 .987688 49.74391 -3.914931)"/></g><g fill="#d41c61"><ellipse cx="12.767" cy="23.947" rx="1.171" ry="1.159"/><ellipse cx="26.776" cy="22.446" rx="1.171" ry="1.159"/></g><path d="M27.27 15.47c3.858-.684 6.012-1.18 6.464-1.484l-.843-2.32-7.026 1.39c-.437-6.74-1.655-10.1-3.653-10.1-.65 0-1.4.928-2.248 2.783-1.187-3.587-2.436-4.267-3.747-2.04s-1.998 5.596-2.06 10.1c-2.063-.066-3.593-.152-4.6-.26s-1.778-.268-2.342-.484v2.133c-.1.103.593.25 2.08.438a58.69 58.69 0 0 0 4.478.396c1.81.137 6.308-.05 13.5-.557z" class="L"/></g><g transform="translate(21.787 241.067)"><path d="M20.75 0C9.3 0 0 9.2 0 20.545S9.3 41.09 20.75 41.09s20.75-9.2 20.75-20.545S32.2 0 20.75 0z" class="E Q"/><g transform="translate(9.859 5.95)"><g transform="translate(6.291 .372)" class="R"><path d="M13.896 2.4C13.404 13.236 1.477 17.258 9.1 24.327c1.822 1.69-9.99 1.713-8.976 0 5.4-9.14-.246-11.09-.123-20.963C.016 2.2.183 1.108.478.106 6.415-.06 10.765.09 13.527.56c.22.037.343.647.37 1.828z"/></g><g class="B C D J"><path d="M21.783 1.487c-.653 2.8-1.896 5.69-2.137 8.578-.174 2.092-.078 4.198-.117 6.297"/><path d="M21.032 1.394c-1.465 3.65-2.034 6.934-2.172 10.88-.11 3.1-.422 2.342.202 3.624"/><path d="M19.06 3.626c-1.376 5.622-1.44 7.438-.476 13.2"/><path d="M18.497 17.478c-3.412-3.034-1.983-8.334-1.07-12.086"/></g><path d="M11.88 2.696c.208 1.015.15 1.695-.17 2.04-1.702 1.836-2.365 2.542-4.28 5.157-.026.036-.018.13.026.13.212.002.45-.005.625-.123 1.228-.832 2.177-2.097 3.537-2.697 1.83-.808-2.5 1.984-1.46 2.528.43.222 7.933-.8 5.507-.32s-6.03 1.144-5.726 1.535c1.262 1.63 1.58 2.377 1.262 3.837" class="B C D F"/><g class="J B C D"><path d="M7.324 4.648C6.222 7.548 4.747 14.614.407 15.43c-.055.01-.084-.074-.125-.11"/><path d="M6.666 2.696C5.67 7.593 4.194 11.92.094 14.782"/><path d="M6.103.837C4.83 5.397 4.185 10.356.282 13.48"/><path d="M4.788 1.023C3.61 5.913 3.482 9.13 0 12.55"/></g><path d="M5.992.04c-.532 0 .32 3.25.654 4.002.283.635 1.06.958 2.334.97 1.41.043 2.39-.276 2.94-.956l.084-.107c.654 1.3 1.972 1.67 3.57 1.67 3.696 0 5.172-2.218 4.58-5.578H5.992zm6.525 1.24l6.287-.087.002.022c.084 1.07-.104 1.868-.526 2.396l-.044.053c-.505.588-1.447.895-2.87.895-.975 0-2.113-.377-2.604-1.583l-.115-.34c-.055-.205-.052-.53-.082-.918l-.046-.438zm-5.53.105h4.56l-.007.664c-.037 1.494-.358 2.162-3.03 2.216l-.5.005c-.064 0-.098-.01-.16-.05-.128-.087-.268-.26-.396-.525-.2-.43-.356-1.036-.432-1.81l-.038-.5z" class="E S"/><g class="M"><use xlink:href="#a" transform="matrix(-1 0 0 1 21.313348 0)"/><use xlink:href="#a" x="2.722" transform="matrix(-1 0 0 1 26.759048 0)"/></g><g class="N"><path d="M2.336 26.65c.603.874 3.132.648 1.777-1.124s-2.38.25-1.777 1.124z" transform="matrix(-1 0 0 1 6.66629 0)"/><path d="M5.577 28.148c.62.843 2.882.306 1.49-1.403s-2.11.56-1.49 1.403z" transform="matrix(-1 0 0 1 12.863122 0)"/><path d="M9.904 28.65c.627.876 2.88.48 1.47-1.296s-2.098.42-1.47 1.296z" transform="matrix(-1 0 0 1 21.50113 0)"/><path d="M14.136 28.107c.637.862 2.806.413 1.88-1.108s-2.517.246-1.88 1.108z" transform="matrix(-1 0 0 1 30.23303 0)"/><path d="M17.498 27.08c.605.852 2.48.444 1.785-1.096s-2.39.244-1.785 1.096z" transform="matrix(-1 0 0 1 36.805428 0)"/></g></g></g><g transform="translate(22.825 316.058)"><use xlink:href="#b" class="E K"/><g transform="translate(2.102 8.868)"><path d="M15.143 2.836c-4.585 0-8.684 1.202-11.745 3.114-1.24.774-2.223 1.625-2.8 2.402-.342.467-.55.922-.575 1.398-.042.807.484 1.468 1.284 1.633l.07.014c.522.098 1.3.135 3.084.18l1.626.043 3.915.17.248.017.215.016c1.853.137 3.405.34 4.637.626l.086.02v7.103c.166 1.672 1.985 2.508 5.458 2.508s7.425-.97 11.857-2.908l-.616-5.266.043-.01c.633-.167 1.168-.402 1.607-.716.834-.595 1.284-1.454 1.284-2.464 0-1.164-.66-2.04-1.787-2.333L33 8.37c-.483-.118-1.04-.13-1.68-.048l-.074.01-.115-.98-.405-.318c-3.586-2.818-8.79-4.2-15.582-4.2z" class="E P"/><g class="B C D G"><path d="M12 4.342c1.78.103 1.5.142 2.77-1.084"/><path d="M12.163 5.243c1.4-.1 1.546-.628 2.505-1.792"/><path d="M15.28 3.383c.352.89.956.953 1.893.88"/><path d="M15.28 3.394c.207 1.556-.16.905 1.2 1.895"/></g><g stroke="#fff" class="B C"><path d="M12.867.54c1.667-1.512 2.523.497 2.343 1.792-.216 1.564-1.502 2.773-2.713 3.63-.017.012-1.074.718-1.385.445-.748-.657-.452-2.132-.14-3.014s1.12-2.152 1.893-2.854z"/><g class="D"><path d="M15.072 3.816c.275-.836.46-1.893 1.212-2.488 1.62-1.28 3.182-.858 2.736 1.347-.244 1.206-1.26 2.63-2.147 3.47-1.154 1.09-2.158-.4-1.986-1.484.084-.526.285-1.027.427-1.54"/></g></g><g class="G B C D"><path d="M20.706 2.755c.38 2.202.592 3.888 2.078 5.628 2.178 2.55 7.017 1.482 9.04-.708"/><path d="M22.564 3.04c-.404 2.927-.16 6.236 3.58 6.735.26.035 1.983.126 2.62-.09 1.545-.528 1.61-.846 3.082-2.032"/><path d="M23.245 3.063c1.306 2.678 4.79 8.9 8.277 4.852"/><path d="M24.977 3.383c.306 1.645.46 3.3 1.57 4.658 1.47 1.785 4.466 1.42 5.714-.32"/><path d="M25.83 3.68c.838 2.095 2.423 5.61 5.3 4.44"/><path d="M26.858 3.896c.696 1.088 2.133 3.856 3.567 4.144.558.112 1.14-.015 1.708-.023"/><path d="M14.622 13.223c1.408-.5 2.543.52 3.982.263.697-.124 1.547-.875 2.055-1.256"/></g></g><path d="M14.623 27.5l5.94 3.258 9.322-3.258-.548 6.878-8.774-2.624-7.494 2.624z" class="B C G L"/></g><g transform="translate(22.825 391.048)"><use xlink:href="#b" class="E L"/><g transform="translate(4.661 4.253)"><g transform="translate(0 5.249)"><path d="M9.705 9.502H.022C-.297 3.167 2.8 0 9.345 0H26.48l.305 7.347c2.22-.328 3.328.12 3.328 1.34s-1.02 1.95-3.06 2.187l.593 11.32-17.94.34V16.55c3.58.015 5.89-.434 6.93-1.347s1.406-2.814 1.097-5.7H9.705z" stroke="#ff243a" stroke-width="1.444" class="W"/><g transform="translate(5.941 9.23)" stroke="#06f" class="B C D"><path d="M2.117.05C2.202 1.876 1.753 4.09 0 5.083"/><path d="M2.88.05C2.46 1.916 1.814 3.43.466 4.87"/><path d="M3.562.05C3.11 2.08 2.07 4.033.208 5.124"/><path d="M4.375.05c-.442 1.61-2.12 4.917-4.36 5.205"/><path d="M5.14.05C4.556 2.137 3.058 5.186.514 5.186"/><path d="M9.327 5.7c-.632.167-2.44-1.497-3.085-2.443-.43-.63-.68-1.694-.754-3.2"/><path d="M6.106.05c.313 1.843.15 4.178 1.803 5.308"/><path d="M6.698 0C6.36.92 8.02 4.982 8.96 5.115"/><path d="M7.127.05c.695 1.71 1.072 3.495 2.386 4.812"/><path d="M7.774.05c.816 1.9.986 3.727 2.61 4.97"/><path d="M5.647.05c.985 2.952 1.54 4.2 4.485 4.757"/></g></g><g transform="translate(7.837)" class="B C"><g class="G"><path d="M2.33 5.064c1.023-.4 2-.94 3.068-1.196.15-.036.163.267.194.417.08.374.155.758.133 1.14-.064 1.124-.383 2.54-1.176 3.42-1.04 1.152-2.083.17-2.356-1.043-.278-1.236-.15-1.346.065-2.468l.072-.267z"/><path d="M9.692 3.95c.39.217.75.504 1.172.652.66.23 1.55-.018 2.046.47.387.38.11 1.078.08 1.617-.047.84-.348 2.63-1.277 3.006-1.51.613-2.504-1.02-2.564-2.286-.025-.51-.04-1.028.032-1.535.082-.56.288-1.097.432-1.645l.08-.278z"/><g class="L"><use xlink:href="#c"/><use xlink:href="#c" x="7.678" y="0.454"/></g></g><g stroke="#06f" class="D"><path d="M10.35 3.768c1.092-.925 2.1-2.323 3.277-2.774.965-.37-3.544 3.164-2.622 2.523l-.53.745c4.352-3.025 3.568-3.745-.007.743-.728.913 1.52-1.645 2.315-2.35.462-.41 1.872-1.494 1.442-.98-1.08 1.295-2.264 2.277-3.416 3.344-.375.347-1.563 1.115-1.16.898a18.71 18.71 0 0 0 2.409-1.572c.824-.626 2.6-3.687 2.42-2.096-.123 1.095-3.977 3.27-4.54 3.678-.167.12-.63.625-.464.503l3.298-2.578c.394-.28 1.6-.958 1.22-.622l-.315.387c-3.195 2.82-5.422 4.378.18.183" transform="matrix(.615661 .788011 -.788011 .615661 7.52113 -8.002001)"/><path d="M1.228 1.067c1.08.482 4.078 1.747 4.053 2.6-.056 1.957-2.5-2.022-3.622-1.834-.046.008.006.156.048.18l.632.482 1.84.95c.308.177 1.186.847.895.62-.866-.677-3.326-2.948-2.623-1.97L.962 1.68C1.714 2.728 2.8 3.2 3.732 3.89 7.1 6.356 1.497 1.725.962 2.442c-.09.12.17.262.28.344l2.333 1.608c.387.246 1.58.883 1.193.635-.708-.455-2.754-1.956-2.158-1.255L1.157 3.48c.5.6 3.358 1.604 4.078 1.88" transform="matrix(.71934 -.694658 .694658 .71934 -1.358622 3.064102)"/></g></g></g></g><g style="mix-blend-mode:luminosity" transform="translate(22.825 466.039)" class="X"><use xlink:href="#b" class="E Q"/><g transform="translate(3.199 8.778)"><path d="M4.418 1.898H28.99l.476 1.844.142.597.06.32c.09.557.186 1.468.283 2.732 2.608-1.085 3.912-.362 3.912 2.17s-1.304 3.4-3.912 2.576v9.696l-26.014.6V12.137c-2.837.678-4.14-.18-3.912-2.576S1.56 6.44 3.938 7.4l.48-5.492zM7.85 5.153c-1.785 5.515-1.945 9.718-.48 12.61.93 1.84 8.8 2.33 13.934 1.83 1.96-.19 3.972-.8 6.04-1.83.356-1.87.493-3.792.412-5.763a27.73 27.73 0 0 0-.892-5.899c-1.235-1.356-4.256-2.215-9.06-2.576s-8.122.18-9.953 1.627z" class="L"/><g class="F B C D"><path d="M16.5 4.464l-4.1.43c.964.18 1.834-.14 2.773-.26.272-.035.652-.24.82-.03.137.173-.42.176-.586.324-.396.35-.695.8-1.087 1.153-.252.228-.557.39-.836.584" transform="matrix(.882948 .469472 -.469472 .882948 4.304229 -6.132341)"/><g transform="translate(8.493 9.897)"><path d="M.862 5.706C1.44 3.92 2.664 1.703 4.17 2.018c.7.144.663-.16 1.177-.318.413-.127.38-.452.87-.528.074-.012-.153-.022-.224.001-.18.058-.206.177-.366.275-.266.164-.64.172-.868.386L1.25 5.31c-.323.348.77-.562 1.11-.894.6-.588 1.106-1.266 1.7-1.86.337-.337.693-.662 1.086-.93.3-.198.58-.212.91-.34.114-.044-.36.02-.26.088.172.12.773-.138.634.02C5.39 2.587 3.423 3.826 2.257 5.07c-.186.198-.632.87-.426.694l3.784-3.587c.14-.13.303-.238.474-.323.23-.115.75-.53.722-.275-.037.323-.54.38-.76.62-.9.974-.633 1.122-1.576 1.922l-2.21 1.702c-.124.1-.37.497-.214.445C3.876 5.673 5.53 3.976 6.534 2.43c.07-.11-.02-.284.064-.383.1-.117.544-.093.423-.187l.002-.296c-.068-.053-.158.075-.237.112" transform="matrix(.882948 .469472 -.469472 .882948 2.206945 -1.420416)"/><path d="M8.647 2.193c1.094 1.676 2.48 3.353 4.718 3.47.203.01-.292-.285-.462-.396-.597-.4-1.28-.656-1.834-1.104-.687-.555-2.635-2.31-1.862-1.88 1.24.686 2.14 1.858 3.296 2.675.4.29.89.482 1.372.62.27.078-.5-.265-.724-.434L10.83 3.286c-.54-.47-.956-.788-1.393-1.352-.237-.306.456.35.78.56.463.302.985.51 1.435.83.436.3.777.74 1.21 1.052.38.273.777.548 1.223.695.106.035-.024-.23-.088-.32-.166-.234-.36-.453-.587-.63l-2.26-1.61c-.254-.168-1.092-.54-.81-.422l1.97.907c.595.34 1.134.77 1.685 1.178.125.093.25.194.338.322.024.034-.1.01-.125-.013l-.898-.52-1.535-1.127c-.578-.37-1.21-.646-1.796-1.005-.093-.057-.633.115-.542.057.245-.158 1.216.4 1.383.476 1.492.682 2.354.647 3.75 1.728.17.13.61.32.45.458-.256.22-.76-.182-1.02.033-.273.225 1.52.654-.06.382-.2-.036-.436-.067-.61-.187-4.573-3.153-1.54-1.588-3.93-2.764" transform="matrix(.945519 -.325568 .325568 .945519 -.571879 4.061496)"/></g></g><g class="B C D"><g class="G"><path d="M15.085 10.035c-.55-.258-1.153-.62-1.82-.416-.56.172-.513 1.3-.493 1.614.07 1.094 1.493 1.47 2.333 1.056"/><path d="M18.462 10.588c2.033-1.815 2.427 1.05.86 1.732-.555.242-1.04.133-1.614.09"/><path d="M16.092 6.52c.14 2.03.04-.85-.935 3.46-.376 1.663 1.013 4.3 2.505 2.376.79-1.02.85-2.483.91-3.755.033-.712.218-2.188-.66-2.622-.713-1.59-.886-2.092-.52-1.505"/></g><path d="M18.397 5l3.314-.042c.867-.06-1.753-.015-2.63-.005-.31.004-.85-.098-.922.046s.484.204.76.282l1.883.464" transform="matrix(.984808 -.173648 .173648 .984808 -.621829 3.557298)" class="F"/></g><path d="M14.37 0c.578 0 1.165.04 1.76.124l.112.016c.236.035.422.216.46.45.177 1.06.248 2.14.215 3.242.155.112.36.086.615-.076a16.61 16.61 0 0 1 .217-3.166c.038-.226.215-.404.442-.445l.02-.003.112-.016C18.92.04 19.507 0 20.085 0l.136.001 4.605.182c.245.012.46.167.546.392l.007.018.023.066c.345 1.017.518 2.153.518 3.408 0 1.198-.16 2.24-.482 3.128-.114.314-.4.527-.746.54h-.022l-.33.003a74.91 74.91 0 0 1-1.742-.007l-.295-.005-3.614-.001a.82.82 0 0 1-.811-.648l-.004-.02-.02-.104-.222-1.642c-.263-.28-.534-.302-.812-.065a18.03 18.03 0 0 1-.346 2.035l-.027.114a.82.82 0 0 1-.772.629l-1.645.058-1.874.054-.24.004-1.835.005-.166-.001c-.344-.003-.65-.217-.767-.537-.408-1.112-.612-2.292-.612-3.538 0-1.255.173-2.39.518-3.408l.023-.066c.082-.236.3-.398.553-.41l.78-.038L14.37 0zm-.686.678l-.108.004-2.89.26-.202.024c-.128.015-.228.117-.24.243l-.016.166c-.25 2.696-.173 4.565.23 5.607.18.463 1.94.53 5.285.203l.03-.252.24-3.33-.001-.03c-.023-.743-.113-1.664-.268-2.762-.607-.116-1.293-.16-2.06-.136zm6.315 0l-.074-.002c-.72-.02-1.124.026-1.213.138l-.02.15-.247 2.614-.002.07c-.016.743.068 1.833.253 3.27 3.48.19 5.312.056 5.49-.407.41-1.06.424-2.83.038-5.306-.02-.123-.12-.217-.246-.23l-.6-.054L20 .678z" class="W"/><path d="M14.14 15.097c1.373 1.108 3.85.278 4.774.37.05.005.042.12 0 .145l-.3.306c-.206.12-.432.217-.668.258-.36.062-.864-.233-1.092.048-.17.21.466.303.635.515.588.735-1.046.604-1.2.61" class="B C D G"/></g></g><g style="mix-blend-mode:luminosity" transform="translate(22.825 541.03)" class="X"><use xlink:href="#b" class="E K"/><g transform="translate(10.602 8.054)"><g transform="translate(0 6.154)"><path d="M1.484 3.267C3.903.28 8.452-.123 12.254.027s5.087 1.046 6.99 3.94 1.48 5.15.395 7.287c-2.54 5.007-14.524 6.55-18.488 1.84C-.96 10.583.36 6.57.974 3.987l.5-.72z" fill="#ff7800"/><g class="B C D J"><path d="M10.213 1.593c.7 1.69 2.67.56 1.89-.64"/><path d="M8.423.136c1.372.69 2.26 1.904 3.402 2.957L13.66 4.9c.17.186.497.41.4.638-.09.21-2.244.37-2.433.03-.098-.177-.126-.8-.12-.6.06 1.85.816 3.78.37 5.28-.24.802-3.59.253-3.452.73.3 1.013 1.464 1.092 3.522.237.203.4.084.91.06 1.364l-.3 3.065"/><path d="M6.772 2.282c-.147 1.146 1.44 1.87 2.47 1.026.693-.567.32-1.304.307-2.083"/></g></g><path d="M7.18 4.39c-.497-.95-.74-2.15-.103-3.143.956-1.49 2.987-1.822 3.773-.012.6 1.405-.864 3.14-.824 3.315.23.995 3.5-2.994 2.87-.862C12.1 6.35 7.652 6.8 5.7 5.308s-.112-1.475 1.077-.922l.404.004z" class="L"/></g></g><g style="mix-blend-mode:luminosity" transform="translate(22.825 616.021)" class="X"><use xlink:href="#b" class="E V"/><g transform="translate(7.677 9.411)"><path d="M5.792 1.586L23.546 2.8c.26 1.01.386 2.99.377 5.937l.044-.027c.232-.143.422-.232.813-.317l.053-.01c.508-.103 1.603-.23 2.026-.123 1.154.295 1.7 1.746 1.026 2.72-.84 1.23-2.585 2.047-4.033 1.62l-.014.434-.29 6.435c-6.078.862-13.915.862-23.51 0-.317-5.926 1.56-11.83 5.634-17.712l.124-.178z" class="S"/><g class="L"><g class="E"><g transform="translate(4.295)"><path d="M.333.138c.134.002.24.112.24.245L.57.413.564.53.544.778.536.886.518 1.44c.007.4.067.674.178.813.466.6 1.264 1.187 2.05 1.5.907.36 1.7.325 2.267-.167.1-.088.255-.078.343.022a.24.24 0 0 1-.022.34c-.724.63-1.708.674-2.77.25C1.7 3.855.832 3.206.313 2.55.12 2.305.04 1.935.032 1.448c-.004-.2.005-.4.023-.65L.077.52.084.4.085.374C.088.24.2.135.333.138z"/><path d="M1.717.273c.126-.045.266.02.312.144.545 1.487 1.015 2.17 2.013 2.666l.136.067.21.098c.19.083.362.146.52.186.322.08.543.058.662-.065l.012-.013c.087-.1.24-.113.343-.026a.24.24 0 0 1 .027.34c-.265.307-.67.356-1.163.232-.17-.043-.35-.106-.537-.186L4.2 3.688l-.335-.158-.032-.016C2.69 2.95 2.155 2.173 1.57.58a.24.24 0 0 1 .146-.309z"/><path d="M3.582.037c.13-.03.26.052.29.182L3.9.334c.2.853.366 1.365.626 1.817.34.592.794.94 1.43 1.044.133.02.222.145.2.277s-.147.22-.28.2c-.792-.128-1.366-.57-1.775-1.28C3.8 1.863 3.62 1.292 3.4.325a.24.24 0 0 1 .184-.288z"/><path d="M5.28.792L5.356.38c.027-.123.147-.206.275-.186s.217.134.205.26L5.833.47l-.115.628-.048.303-.01.072c-.05.372-.068.656-.044.792C5.873 3.7 7.272 4.63 8.74 4.31a2.5 2.5 0 0 0 1.179-.588l.06-.05.6-.528c.102-.087.255-.076.343.025a.24.24 0 0 1-.025.34l-.04.035-.623.548a2.98 2.98 0 0 1-1.387.69c-1.738.38-3.403-.715-3.707-2.43-.036-.202-.017-.518.04-.94l.047-.31.013-.08.04-.227z"/><path d="M6.74.607c.134 0 .243.108.243.24l.001.264c.003.207.014.238.055.328l.01.017.573 1.02.05.1c.756 1.4 1.59 1.543 2.896.602.11-.078.26-.054.34.053a.24.24 0 0 1-.054.336c-1.52 1.095-2.686.91-3.584-.715l-.115-.2-.555-.99-.015-.032c-.083-.186-.087-.253-.087-.764 0-.133.11-.24.243-.24z"/><path d="M8.113.604c.128-.04.265.032.304.16.443 1.415 1.102 2.17 2.294 2.45a.24.24 0 0 1 .18.29c-.03.13-.162.21-.293.18-1.38-.325-2.157-1.21-2.646-2.775a.24.24 0 0 1 .16-.301z"/><path d="M10.327.46c.134-.002.245.104.247.237l.001.062-.006.287-.02.422c-.02.445-.01.666.047.922.243 1.1 1.04 1.71 2.164 1.798 1.035.082 2.194-.312 2.912-.984.098-.09.252-.087.344.01a.24.24 0 0 1-.01.34c-.82.767-2.114 1.206-3.285 1.114-1.326-.105-2.31-.857-2.6-2.175-.07-.315-.08-.57-.056-1.08l.018-.382.005-.327c-.002-.133.105-.242.24-.245z"/><path d="M11.914.392c.134.002.242.112.24.245l-.001.034c-.003.067-.01.13-.025.234L12.12.96c-.038.248-.04.345 0 .434a6.23 6.23 0 0 0 1.169 1.735c.59.596 1.178.854 1.728.702.126-.035.226-.094.432-.25l.122-.093.218-.152c.114-.07.264-.037.335.075a.24.24 0 0 1-.076.332l-.038.024-.13.093-.143.11c-.25.19-.388.27-.59.325-.755.208-1.507-.12-2.207-.83-.518-.524-.988-1.248-1.267-1.878-.086-.195-.087-.348-.04-.663L11.652.8l.016-.17c.002-.133.113-.24.247-.237z"/><path d="M13.415.478c.132-.026.26.058.287.188l.104.5.022.102.018.08c.298 1.298.62 1.583 2.057 1.724.134.013.23.13.218.263s-.132.23-.266.216l-.1-.01c-1.57-.17-2.043-.62-2.382-2.078l-.05-.227-.1-.475a.24.24 0 0 1 .19-.284z"/><path d="M15.68.58c.134-.006.248.098.253.23l.004.116.003.26v.5l.018.77.002.028c.083 1.33.47 2.03 1.39 2.124.524.054 1.05.04 1.844-.027a1.28 1.28 0 0 0 .675-.244l.03-.02.495-.372c.11-.078.26-.054.34.053a.24.24 0 0 1-.054.336l-.078.058-.41.31-.01.008c-.302.213-.57.32-.946.353l-.143.012c-.746.06-1.265.07-1.793.015-.662-.068-1.134-.392-1.43-.93-.227-.413-.344-.93-.4-1.58l-.004-.063-.02-.744v-.624L15.447.83c-.006-.133.1-.245.233-.25z"/><path d="M16.91.553c.134-.005.247.098.253.23l.003.09.007.337.004.668c.007.766.034 1.14.128 1.57.133.607.392 1.09.833 1.497.587.542 2.257-.093 2.3-.82l.001-.022c0-.133.11-.24.243-.24s.243.108.243.24c0 1.17-2.213 2.02-3.11 1.194-.517-.477-.823-1.05-.977-1.748l-.012-.058c-.097-.464-.122-.873-.127-1.703l-.002-.466-.002-.156-.01-.362c-.005-.133.1-.245.233-.25z"/><path d="M17.878 1.71c.013-.132.13-.23.265-.217.13.012.224.12.22.247l-.001.015c-.044.457.278 1.6.713 2.37.518.917 1.027 1.165 1.546.65.095-.094.25-.094.344 0a.24.24 0 0 1 0 .341c-.423.42-.89.518-1.34.3-.36-.175-.686-.544-.975-1.056-.48-.85-.827-2.085-.773-2.652z"/></g><path d="M11.455 4.782l.04-.02c.1-.05.185-.064.29-.016.118.054.163.166.15.275-.005.05-.022.097-.048.15-.06.124-.19.263-.36.403l-.04.033.01.008a.24.24 0 0 1 .102.227l-.002.016c-.004.02-.01.038-.016.054l-.001.003.02-.002.065.005.024.007c.062.02.07.03.148.13l.014.065c.01.046.01.063.002.09l-.003.01.013.004c.05.02.096.056.124.107l.007.014a.24.24 0 0 1-.101.314l-.684.33-1.215.56-.39.17-.094.04c-.705.3-1.287.516-1.716.625-.263.067-.47.096-.626.078-.254-.03-.425-.197-.388-.453a.89.89 0 0 1 .51-.699l.034-.016v-.01c.002-.01.005-.02.01-.032l.015-.042.02-.032c.02-.027.024-.03.045-.048l.026-.017c.012-.008.017-.01.026-.014l.022-.01a.46.46 0 0 1 .082-.017l.085-.013.317-.037.084-.007L8.1 7l.148-.022.103-.016-.035.002c-.5.024-.942-.03-1.147-.203l-.015-.013c-.153-.14-.222-.305-.1-.472.075-.103.183-.142.34-.16l.027-.003c.174-.018.35-.013.802.014l.297.018c.35.02.546.02.684.001.202-.028.463-.1.735-.22l.027-.01-.07.008-.986.066-.617.026-.573.034c-.134.01-.25-.09-.26-.22s.1-.248.224-.26l.123-.01.368-.02.703-.03c.737-.033 1.106-.067 1.547-.15.08-.015.218-.08.41-.195l.056-.034.11-.07.24-.152.05-.032.178-.1zM8.728 7.56l-.127.005c-.88.04-1.218.133-1.312.415l-.001.005h.004c.084-.003.204-.022.354-.06l.033-.008c.253-.065.572-.172.947-.317l.103-.04z"/></g><path d="M8.877 8.108c1.13.68.604 1.335.17 2.75-.486 1.6-1.045-.366-1.118-.905-.205-1.533.11-2.15.947-1.846z"/><g class="E"><path d="M13.04 5.403l.237.02 1 .078.077.007c.14.014.197.027.273.064l.012.006.035.017c.095.046.15.07.285.114l.08.026c.332.108.855.25 1.624.437l.055.013c.128.03.34.058.675.088l.557.05.118.012c.135.015.222.028.282.046.045.013.08.03.12.06.107.1.126.252.023.362-.06.063-.115.082-.228.105-.572.12-1.558.128-2.48.043l-.046-.004.002.001.5.308.063.034c.056.03.18.067.354.106l.056.012.403.08.033.007.027.006.012.003a.28.28 0 0 1 .098.04l.027.02c.03.023.036.035.08.137l-.004.056c-.008.098-.016.118-.063.163l-.027.025-.003.002.16.04.092.025.005.002c.03.01.055.022.078.035.06.034.104.075.128.157.01.036.013.07.01.1v.013l.007.006.015.016c.113.122.088.305-.05.396-.882.576-1.88.628-2.976.258-.81-.273-1.577-.726-2.552-1.43a.24.24 0 0 1-.053-.336c.08-.107.23-.13.34-.053l.127.09c.878.626 1.578 1.03 2.296 1.272.738.25 1.407.282 2.014.064l.036-.013-.053-.01-.43-.093-.06-.014-.028-.003c-.504-.047-.862-.1-1.215-.186l-.04-.01c-.524-.133-.984-.295-1.398-.5a1.47 1.47 0 0 1-.328-.226l-.06-.053-.057-.022-.776-.32-.1-.043c-.022-.01-.04-.02-.06-.03-.06-.037-.1-.076-.117-.163s.013-.173.074-.23c.033-.03.067-.047.102-.057a.3.3 0 0 1 .082-.011c.05-.001.124.008.212.023l.262.057.013.003v-.002c-.034-.076-.055-.156-.065-.24l-.002-.023c-.01-.13.048-.216.136-.268l.004-.002-.01-.01-.014-.016c-.055-.07-.082-.165-.038-.256l.003-.005-.01-.001c-.12-.018-.2-.122-.207-.244l.001-.015c.01-.133.13-.23.263-.22zm.663 1.402l.01.008c.25.177.642.355 1.154.524l.025.008-.056-.024-.097-.042-.11-.048-.927-.425zm.54-.822l.008.004c.2.088.396.2.606.338l.035.024.053.01.907.12.042.004-.235-.06-.694-.197-.088-.028-.066-.022-.238-.088-.02-.01-.068-.03-.03-.014-.05-.025c-.017-.008-.035-.01-.108-.018l-.052-.005z"/><path d="M12.43 7.724c.102-.087.255-.075.343.026a.24.24 0 0 1-.014.328l-.012.01c-.05.043-.09.143-.106.273a5.96 5.96 0 0 0-.013 1.301c.143 1.348 1.292 2.45 2.46 2.124.282-.08.755-.63 1.22-1.407.187-.314.36-.645.493-.935l.028-.062c.117-.265.186-.474.2-.54v-.007c-.003-.133.103-.243.237-.247s.246.102.25.235c.007.28-.323 1.032-.755 1.762l-.023.038c-.53.887-1.055 1.5-1.505 1.626-1.502.42-2.903-.925-3.075-2.537-.048-.45-.042-.92.014-1.405.027-.24.11-.447.272-.584z"/><path d="M8.508 6.797c.193-.1.392-.02.55.127a.24.24 0 0 1 .011.34c-.088.093-.234.1-.332.022l-.042-.034a.44.44 0 0 0-.083.116l-.042.098c-.153.43-.257.853-.308 1.264-.093.757.174 1.614.682 2.128a.24.24 0 0 1-.004.341c-.096.093-.25.09-.344-.004-.614-.622-.927-1.625-.817-2.523a6.44 6.44 0 0 1 .332-1.366c.08-.227.21-.41.398-.51z"/><path d="M11.596 6.43c.054-.122.198-.177.32-.123a.24.24 0 0 1 .124.318l-.034.076c-.383.84-.804 1.463-1.755 2.706l-.25.325c-.736.964-1.09 1.477-1.42 2.103l-.422.812-.137.27-.192.402c-.172.376-.288.69-.34.925-.026.12-.034.215-.025.278.002.017.006.03.01.037v.002l.028.015c1.12.585 3.267-.334 4.066-1.58l.024-.038c.225-.365.577-.406.94-.205.12.067.24.156.377.275l.046.04.31.28c1.114.892 1.684 2.016 1.777 3.35.078 1.122-.176 2.362-.717 3.792-.047.125-.187.188-.313.14a.24.24 0 0 1-.143-.31c1.107-2.93.972-5.053-.855-6.555l-.056-.045c-.063-.05-.32-.288-.34-.304-.128-.113-.232-.192-.325-.244-.152-.084-.213-.08-.28.022l-.008.012c-.405.657-1.214 1.3-2.107 1.684-.99.424-1.957.484-2.672.084-.26-.145-.3-.44-.215-.835.06-.277.187-.617.372-1.02l.163-.344.07-.14.494-.956c.368-.71.746-1.255 1.58-2.342l.252-.328c.9-1.18 1.3-1.77 1.652-2.58z"/><path d="M10.198 14.332c.132-.022.258.067.28.198.162.963.178 1.876.075 2.902l-.155 1.162-.027.166-.045.27-.23 1.33-.077.463c-.02.13-.146.22-.278.2s-.223-.144-.202-.276l.032-.195.046-.272.066-.383.136-.778.06-.36.012-.074.178-1.3c.1-.986.083-1.857-.07-2.776-.022-.13.067-.255.2-.277z"/><path d="M14.576 16.43c.117-.065.266-.023.33.094a.24.24 0 0 1-.095.327l-.117.063c-1.885 1.015-2.906 1.06-4.8.17a.24.24 0 0 1-.115-.321c.058-.12.203-.17.324-.114l.105.05c1.704.786 2.565.714 4.356-.27z"/></g><path d="M12.587 7.836c1.13.68 1.82 1.815 1.386 3.23-.486 1.6-1.644-.574-1.716-1.113-.307-2.3.242-.7.242-1.834"/></g></g></g></g><g fill="#ff0034"><ellipse cx="60" cy="19.5" rx="8" ry="7.5"/><ellipse cx="60" cy="96.5" rx="8" ry="7.5"/><ellipse cx="60" cy="247.5" rx="8" ry="7.5"/></g></g><rect opacity=".232" x="333" y="26" width="71" height="16" rx="5.5" class="O"/><use fill="#000" filter="url(#I)" xlink:href="#K"/><use xlink:href="#K" class="H"/><g class="E"><path d="M67.5 82C43.476 82 24 101.252 24 125s19.476 43 43.5 43 43.5-19.252 43.5-43-19.476-43-43.5-43z" class="K"/><path d="M68 81c-24.853 0-45 20.147-45 45s20.147 45 45 45 45-20.147 45-45-20.147-45-45-45z" class="Q"/></g><path d="M88.085 99.24c-1.1 23.79-27.78 32.613-10.727 48.117 4.075 3.705-22.346 3.757-20.08 0 12.102-20.05-.55-24.326-.275-45.978.032-2.553.405-4.95 1.064-7.148 13.282-.365 23.012-.03 29.19 1 .49.082.767 1.42.825 4z" class="R"/><g class="B D C"><path d="M92 96c-1.45 6.235-4.207 12.626-4.74 19.03-.387 4.64-.173 9.313-.26 13.97m4-33c-3.122 8.054-4.332 15.3-4.627 24.004-.232 6.838-.898 5.168.43 7.996M86 101c-3.663 12.35-3.83 16.34-1.267 29m.267 2c-7.9-6.78-4.6-18.618-2.474-27" class="J"/><path d="M70.224 99c.476 2.267.346 3.786-.388 4.56-3.9 4.102-5.417 5.68-9.802 11.52-.06.08-.042.29.06.3.486.005 1.03-.01 1.43-.276 2.813-1.86 4.987-4.684 8.1-6.025 4.192-1.804-5.75 4.432-3.343 5.647.984.497 18.17-1.787 12.613-.716s-13.81 2.555-13.116 3.43c2.9 3.643 3.618 5.3 2.9 8.57" class="F"/><path d="M60 103c-2.504 6.454-5.854 22.18-15.715 23.998-.125.023-.2-.164-.285-.246M58 99c-2.277 10.94-5.643 20.608-15 27m14-31c-2.845 10.1-4.283 21.08-13 28m10-28c-2.705 10.606-3.002 17.585-11 25" class="J"/></g><path d="M56.39 93c-1.214 0 .73 6.994 1.493 8.61.645 1.366 2.42 2.06 5.326 2.087 3.217.092 5.453-.593 6.71-2.056l.192-.23c1.493 2.798 4.5 3.59 8.15 3.59 8.436 0 11.803-4.77 10.453-12H56.39zm14.892 2.67l14.348-.188.004.048c.19 2.304-.238 4.018-1.2 5.154l-.1.114c-1.153 1.265-3.303 1.925-6.554 1.925-2.226 0-4.823-.812-5.944-3.405l-.262-.733c-.126-.44-.12-1.14-.186-1.975l-.104-.94zm-12.624.226h10.41l-.015 1.43c-.085 3.215-.816 4.65-6.917 4.767l-1.138.01c-.147 0-.224-.02-.362-.11-.29-.188-.61-.56-.905-1.13-.48-.927-.812-2.23-.986-3.89l-.086-1.076z" class="E S"/><g class="M"><use xlink:href="#d"/><use xlink:href="#d" x="6"/></g><path d="M52.624 151.934c-1.283 1.88-6.67 1.393-3.785-2.418s5.07.537 3.785 2.418zm6.856 3.254c-1.435 1.745-6.674.634-3.448-2.902s4.882 1.158 3.448 2.902zm9.98.886c-1.45 1.812-6.67 1-3.406-2.68s4.858.868 3.406 2.68zm10.215-1.09c-1.414 2.015-6.227.966-4.17-2.6s5.586.576 4.17 2.6zm7.025-2.007c-1.465 1.993-6.002 1.038-4.322-2.562s5.787.57 4.322 2.562z" class="N"/><rect x="125" y="121" width="96" height="15" rx="7.5" class="O"/><g class="T"><rect x="125" y="149" width="44" height="14" rx="3.159"/><rect x="125" y="172" width="44" height="15" rx="3.159"/><rect x="178" y="149" width="85" height="14" rx="3.159"/><rect x="177" y="172" width="104" height="13" rx="3.159"/></g><rect x="125" y="98" width="158" height="15" rx="7.5" class="V"/></g></svg>