<svg xmlns="http://www.w3.org/2000/svg" xmlns:xlink="http://www.w3.org/1999/xlink" width="1236" height="853" xmlns:v="https://vecta.io/nano"><style><![CDATA[.B{stroke-linejoin:round}.C{stroke-linecap:round}.D{stroke-width:4.17}.E{fill-rule:nonzero}.F{fill:#fff}.G{fill:#06f}.H{stroke:#212121}.I{stroke-width:2.322}.J{stroke:#000}.K{stroke-width:2.2}.L{fill:#0d62fe}.M{fill:#f4f2ee}.N{stroke:#f4f2ee}.O{fill:#ff9d00}.P{fill:#212121}.Q{fill:#ff0025}.R{stroke:#001d75}.S{filter:url(#A)}.T{fill:#fb3640}]]></style><defs><filter x="-19.3%" y="-47.6%" width="138.4%" height="195.2%" id="A"><feOffset dy="24" in="SourceAlpha"/><feGaussianBlur stdDeviation="16"/><feColorMatrix values="0 0 0 0 0.3515625 0 0 0 0 0.3515625 0 0 0 0 0.3515625 0 0 0 0.1 0" result="C"/><feMerge><feMergeNode in="C"/><feMergeNode in="SourceGraphic"/></feMerge></filter><filter x="-16.4%" y="-15.3%" width="125.8%" height="141.7%" id="B"><feOffset dy="24" in="SourceAlpha"/><feGaussianBlur stdDeviation="16"/><feColorMatrix values="0 0 0 0 0.3515625 0 0 0 0 0.3515625 0 0 0 0 0.3515625 0 0 0 0.1 0" result="C"/><feMerge><feMergeNode in="C"/><feMergeNode in="SourceGraphic"/></feMerge></filter><path d="M.425 3.283C.15 41.44 17.082 62.162 51.217 65.447 77.645 67.99 91.668 46.49 93.287.952L.425 3.283z" id="C"/><filter x="-19.3%" y="-47.6%" width="138.6%" height="195.2%" id="D"><feOffset dy="24" in="SourceAlpha"/><feGaussianBlur stdDeviation="16"/><feColorMatrix values="0 0 0 0 0.3515625 0 0 0 0 0.3515625 0 0 0 0 0.3515625 0 0 0 0.1 0" result="C"/><feMerge><feMergeNode in="C"/><feMergeNode in="SourceGraphic"/></feMerge></filter><filter x="-28.8%" y="-26.5%" width="158.0%" height="153.1%" id="E"><feOffset dy="2" in="SourceAlpha"/><feGaussianBlur stdDeviation="2.5"/><feColorMatrix values="0 0 0 0 0 0 0 0 0 0 0 0 0 0 0 0 0 0 0.3 0" result="C"/><feMerge><feMergeNode in="C"/><feMergeNode in="SourceGraphic"/></feMerge></filter><path id="F" d="M226.07 184.222v-6.353c1.7-.278 3.133-.73 4.296-1.354s2.11-1.37 2.838-2.24 1.25-1.814 1.562-2.838.47-2.057.47-3.098c0-1.528-.27-2.864-.807-4s-1.285-2.144-2.24-2.994-2.083-1.606-3.385-2.265a38.5 38.5 0 0 0-4.244-1.823l-2.578-.963c-.712-.295-1.31-.6-1.797-.91s-.842-.668-1.068-1.068-.338-.877-.338-1.432c0-.903.365-1.632 1.094-2.187s1.927-.833 3.593-.833 3.255.174 4.765.52 2.838.764 3.984 1.25h0l1.614-6.25c-.764-.347-1.797-.694-3.098-1.042s-2.855-.608-4.66-.78h0v-5.416h-6.56v5.624c-1.528.278-2.847.72-3.958 1.328s-2.014 1.345-2.708 2.213-1.206 1.83-1.536 2.9-.495 2.16-.495 3.307c0 1.493.27 2.77.807 3.828a8.3 8.3 0 0 0 2.135 2.682c.885.73 1.875 1.345 2.968 1.85l3.36 1.38 3.125 1.172c.903.365 1.65.738 2.24 1.12s1.042.807 1.354 1.276.47 1.033.47 1.692c0 1.04-.39 1.85-1.172 2.42s-2.23.86-4.348.86c-1.875 0-3.654-.243-5.338-.73s-3.133-1.024-4.348-1.614h0l-2.24 5.99c.764.382 1.935.86 3.515 1.432s3.637.963 6.17 1.172h0v6.197h6.56zm29.58 0v-6.353c1.7-.278 3.133-.73 4.296-1.354s2.11-1.37 2.838-2.24 1.25-1.814 1.562-2.838.47-2.057.47-3.098c0-1.528-.27-2.864-.807-4s-1.285-2.144-2.24-2.994-2.083-1.606-3.385-2.265a38.5 38.5 0 0 0-4.244-1.823l-2.578-.963c-.712-.295-1.31-.6-1.797-.91s-.842-.668-1.068-1.068-.338-.877-.338-1.432c0-.903.365-1.632 1.094-2.187s1.927-.833 3.593-.833 3.255.174 4.765.52 2.838.764 3.984 1.25h0l1.614-6.25c-.764-.347-1.797-.694-3.098-1.042s-2.855-.608-4.66-.78h0v-5.416h-6.56v5.624c-1.528.278-2.847.72-3.958 1.328s-2.014 1.345-2.708 2.213-1.206 1.83-1.536 2.9-.495 2.16-.495 3.307c0 1.493.27 2.77.807 3.828a8.3 8.3 0 0 0 2.135 2.682c.885.73 1.875 1.345 2.968 1.85l3.36 1.38 3.125 1.172c.903.365 1.65.738 2.24 1.12s1.04.807 1.354 1.276.47 1.033.47 1.692c0 1.04-.39 1.85-1.172 2.42s-2.23.86-4.348.86c-1.875 0-3.654-.243-5.338-.73s-3.133-1.024-4.348-1.614h0l-2.24 5.99c.764.382 1.935.86 3.515 1.432s3.637.963 6.17 1.172h0v6.197h6.56zm29.58 0v-6.353c1.7-.278 3.133-.73 4.296-1.354s2.11-1.37 2.838-2.24 1.25-1.814 1.562-2.838.47-2.057.47-3.098c0-1.528-.27-2.864-.807-4s-1.285-2.144-2.24-2.994-2.083-1.606-3.385-2.265a38.5 38.5 0 0 0-4.244-1.823l-2.578-.963c-.712-.295-1.31-.6-1.797-.91s-.842-.668-1.068-1.068-.338-.877-.338-1.432c0-.903.365-1.632 1.094-2.187s1.927-.833 3.593-.833 3.255.174 4.765.52 2.838.764 3.984 1.25h0l1.614-6.25c-.764-.347-1.797-.694-3.098-1.042s-2.855-.608-4.66-.78h0v-5.416h-6.56v5.624c-1.528.278-2.847.72-3.958 1.328s-2.014 1.345-2.708 2.213-1.206 1.83-1.536 2.9-.495 2.16-.495 3.307c0 1.493.27 2.77.807 3.828a8.3 8.3 0 0 0 2.135 2.682c.885.73 1.875 1.345 2.968 1.85l3.36 1.38 3.124 1.172c.903.365 1.65.738 2.24 1.12s1.04.807 1.354 1.276.47 1.033.47 1.692c0 1.04-.39 1.85-1.172 2.42s-2.23.86-4.348.86c-1.875 0-3.654-.243-5.338-.73s-3.133-1.024-4.348-1.614h0l-2.24 5.99c.764.382 1.935.86 3.515 1.432s3.637.963 6.17 1.172h0v6.197h6.56z"/><path id="G" d="M83.21 0C37.254 0 0 37.254 0 83.21s37.254 83.21 83.21 83.21 83.21-37.254 83.21-83.21S129.165 0 83.21 0z"/><path id="H" d="M80.342 55.985c9.863 0 21.977-.62 36.343-1.86l3.727-18.298H104.26l1.242-26.67h-89.46l-.547 14.79C5.165 21.068 0 22.42 0 28.003s4.623 8.914 13.868 9.995l3.106 14.266c32.382 2.48 53.504 3.722 63.367 3.722z"/><path id="I" d="M.637 2.124c-.446 7.788 6.477 9.77 8.397 2.602C10.497-.744 2.516-1.263 0 2.124"/><path id="J" d="M26.708.883c.135 1.657.035 3.35.406 4.972 1.608 7.032 10.388.21 5.732-5.666"/><path id="K" d="M107.74.003c1.915 0-.35 17.09-1.553 20.52-1.525 4.35-5.124 3.41-9.008 3.41-1.24 0-2.302-.04-3.237-.15-1.61-1.96-3.705-4.148-5.978-6.128l-1.733-1.44.43 2.52-.554-.878c-2.354 5.94-7.095 7.625-12.847 7.625-13.3 0-18.61-10.132-16.48-25.48h50.96zM81.31 6.926h-17.97l-.005.088c-.227 3.685.19 6.545 1.177 8.593l.593 1.036c1.568 2.312 4.356 3.52 8.777 3.52 3 0 5.08-1.935 6.4-6.68l.356-1.433.254-1.46a55.74 55.74 0 0 0 .248-1.963l.17-1.7zm21.344 0h-13.31c1.89 7.747 4.385 11.115 9.017 11.618l1.303.067c.188 0 .286-.04.463-.208.373-.354.78-1.054 1.157-2.126.612-1.746 1.04-4.197 1.26-7.326l.1-2.025z"/><path id="L" d="M88.303 19.944c6.248 4.933 11.787 12.114 10.838 13.3-1.242 1.55-5.736 1.87-6.834 1.24-.882-.505-.484.18-.484 5.962"/><path id="M" d="M74.657 35.596c7.315 5.426 15.435 6.116 23.454 4.47"/><path id="N" d="M82.49 49.523c1.567 6.265 5.265 10.213 9.18 15.456"/><path id="O" d="M88.888 48.84c4.278 13.533 3.327 7.76 4.298 17.016"/><path id="P" d="M94.21 49.816c1.28 13.157 1.123 7.686 1.123 16.383"/><path id="Q" d="M99.875 49.816l-2.93 17.992"/><path id="R" d="M103.832 50.304c-.352 6.378-2.034 11.463-5.225 16.967"/><path id="S" d="M108.178 49.67c-.584 6.22-2.358 12.213-6.544 17.065"/><path id="T" d="M110.57 56.35c-5.172 6.93-5.797 9.052-13.528 10.873"/><path id="U" d="M75.18 33.33c-.468 1.257-1.4 2.498-2.953 2.57"/><path id="V" d="M84 0C37.608 0 0 37.608 0 84s37.608 84 84 84 84-37.608 84-84S130.392 0 84 0z"/><path id="W" d="M40.287 13c-13.333-17.333-25.333-17.333-36 0-16 26 17 63 30 55s11-8 17-4c1.943 1.295 15.59 6.446 21-1 11.297-15.546 21-50 7-57-7.744-3.872-14.953.55-29 7-1.36.624-4.692.624-10 0z"/><path id="X" d="M228.247 184.222v-6.353c1.7-.278 3.133-.73 4.296-1.354s2.11-1.37 2.838-2.24 1.25-1.814 1.562-2.838.47-2.057.47-3.098c0-1.528-.27-2.864-.807-4s-1.285-2.144-2.24-2.994-2.083-1.606-3.385-2.265a38.5 38.5 0 0 0-4.244-1.823l-2.578-.963c-.712-.295-1.31-.6-1.797-.91s-.842-.668-1.068-1.068-.338-.877-.338-1.432c0-.903.365-1.632 1.094-2.187s1.927-.833 3.593-.833 3.255.174 4.765.52 2.838.764 3.984 1.25h0l1.614-6.25c-.764-.347-1.797-.694-3.098-1.042s-2.855-.608-4.66-.78h0v-5.416h-6.56v5.624c-1.528.278-2.847.72-3.958 1.328s-2.014 1.345-2.708 2.213-1.206 1.83-1.536 2.9-.495 2.16-.495 3.307c0 1.493.27 2.77.807 3.828a8.3 8.3 0 0 0 2.135 2.682c.885.73 1.875 1.345 2.968 1.85l3.36 1.38 3.124 1.172c.903.365 1.65.738 2.24 1.12s1.04.807 1.354 1.276.47 1.033.47 1.692c0 1.04-.39 1.85-1.172 2.42s-2.23.86-4.348.86c-1.875 0-3.654-.243-5.338-.73s-3.133-1.024-4.348-1.614h0l-2.24 5.99c.764.382 1.935.86 3.515 1.432s3.637.963 6.17 1.172h0v6.197h6.56zm29.58 0v-6.353c1.7-.278 3.133-.73 4.296-1.354s2.11-1.37 2.838-2.24 1.25-1.814 1.562-2.838.47-2.057.47-3.098c0-1.528-.27-2.864-.807-4s-1.285-2.144-2.24-2.994-2.083-1.606-3.385-2.265a38.5 38.5 0 0 0-4.244-1.823l-2.578-.963c-.712-.295-1.31-.6-1.797-.91s-.842-.668-1.068-1.068-.338-.877-.338-1.432c0-.903.365-1.632 1.094-2.187s1.927-.833 3.593-.833 3.255.174 4.765.52 2.838.764 3.984 1.25h0l1.614-6.25c-.764-.347-1.797-.694-3.098-1.042s-2.855-.608-4.66-.78h0v-5.416h-6.56v5.624c-1.528.278-2.847.72-3.958 1.328s-2.014 1.345-2.708 2.213-1.206 1.83-1.536 2.9-.495 2.16-.495 3.307c0 1.493.27 2.77.807 3.828a8.3 8.3 0 0 0 2.135 2.682c.885.73 1.875 1.345 2.968 1.85l3.36 1.38 3.124 1.172c.903.365 1.65.738 2.24 1.12s1.04.807 1.354 1.276.47 1.033.47 1.692c0 1.04-.39 1.85-1.172 2.42s-2.23.86-4.348.86c-1.875 0-3.654-.243-5.338-.73s-3.133-1.024-4.348-1.614h0l-2.24 5.99c.764.382 1.935.86 3.515 1.432s3.637.963 6.17 1.172h0v6.197h6.56zm29.58 0v-6.353c1.7-.278 3.133-.73 4.296-1.354s2.11-1.37 2.838-2.24 1.25-1.814 1.562-2.838.47-2.057.47-3.098c0-1.528-.27-2.864-.807-4s-1.285-2.144-2.24-2.994-2.083-1.606-3.385-2.265a38.5 38.5 0 0 0-4.244-1.823l-2.578-.963c-.712-.295-1.31-.6-1.797-.91s-.842-.668-1.068-1.068-.338-.877-.338-1.432c0-.903.365-1.632 1.094-2.187s1.927-.833 3.593-.833 3.255.174 4.765.52 2.838.764 3.984 1.25h0l1.614-6.25c-.764-.347-1.797-.694-3.098-1.042s-2.855-.608-4.66-.78h0v-5.416h-6.56v5.624c-1.528.278-2.847.72-3.958 1.328s-2.014 1.345-2.708 2.213-1.206 1.83-1.536 2.9-.495 2.16-.495 3.307c0 1.493.27 2.77.807 3.828a8.3 8.3 0 0 0 2.135 2.682c.885.73 1.875 1.345 2.968 1.85l3.36 1.38 3.125 1.172c.903.365 1.65.738 2.24 1.12s1.04.807 1.354 1.276.47 1.033.47 1.692c0 1.04-.39 1.85-1.172 2.42s-2.23.86-4.348.86c-1.875 0-3.654-.243-5.338-.73s-3.133-1.024-4.348-1.614h0l-2.24 5.99c.764.382 1.935.86 3.515 1.432s3.637.963 6.17 1.172h0v6.197h6.56z"/></defs><g transform="translate(44)" fill="none" fill-rule="evenodd"><g transform="translate(589 42)" class="S"><path d="M0 0h569.8v231H0z" class="F K N"/><use xlink:href="#F" class="E L"/><g transform="translate(25.483 32.432)"><use xlink:href="#G" class="E G"/><g transform="translate(22.967 51.959)"><g transform="translate(0 .022)"><use xlink:href="#H" class="O"/><g transform="translate(66.981 6.697)" class="P"><use xlink:href="#I"/><use xlink:href="#J"/></g><use xlink:href="#K" class="E Q"/><g class="B C D H"><use xlink:href="#L"/><use xlink:href="#M"/></g><g class="R B C D"><use xlink:href="#N"/><use xlink:href="#O"/><use xlink:href="#P"/><use xlink:href="#Q"/><use xlink:href="#R"/><use xlink:href="#S"/><use xlink:href="#T"/></g><use xlink:href="#U" class="B C D H"/></g></g></g><g transform="translate(24 31)"><use xlink:href="#V" class="E G"/><g transform="translate(36 29)" class="B I J"><path d="M77.375 16c-7.333 42-24.667 64.333-52 67-8.938.872-24.025-1.22-25.22 2.354-.41 1.222-.002 3.437 1.22 6.646 21.524 8.575 38.524 10.575 51 6 30-11 36-57 35-68-.667-7.333-2.333-12-5-14l-4-16h-7l6 16z" fill="#fac748"/><path d="M9 88c33.333 4 55-4 65-24s11.667-36.333 5-49" class="C"/><ellipse cx="24.5" cy="94" rx="2.5" ry="1"/></g></g><g class="M"><rect x="208.494" y="95.015" width="233.977" height="27.799" rx="13.9"/><rect x="208.494" y="51" width="273.359" height="27.799" rx="13.9"/></g></g><g transform="translate(0 42)"><g filter="url(#B)"><path d="M0 0h569.8v231H0z" class="F K N"/><g transform="translate(0 244)" class="S"><path d="M0 0h569.8v231H0z" class="F K N"/><use xlink:href="#F" class="E L"/><g transform="translate(25.483 32.432)"><use xlink:href="#G" class="E G"/><g transform="translate(22.967 51.959)"><g transform="translate(0 .022)"><use xlink:href="#H" class="O"/><g transform="translate(66.981 6.697)" class="P"><use xlink:href="#I"/><use xlink:href="#J"/></g><use xlink:href="#K" class="E Q"/><g class="B C D H"><use xlink:href="#L"/><use xlink:href="#M"/></g><g class="R B C D"><use xlink:href="#N"/><use xlink:href="#O"/><use xlink:href="#P"/><use xlink:href="#Q"/><use xlink:href="#R"/><use xlink:href="#S"/><use xlink:href="#T"/></g><use xlink:href="#U" class="B C D H"/></g></g></g><g transform="translate(24 31)"><use xlink:href="#V" class="E G"/><g transform="translate(55 29)" class="B I J"><path d="M29 22c-14 0-17 13-17 25S0 58 0 76s13 25 34 22 32-25 26-33c-4-5.333-8-12.667-12-22-3.333-14-9.667-21-19-21z" fill="#42be65"/><ellipse transform="matrix(.777146 -.62932 .62932 .777146 -41.615082 44.482634)" cx="42" cy="81" rx="5" ry="2" class="F"/><path d="M33 0c-6 8-7.333 15.333-4 22" class="C"/></g></g><g class="M"><rect x="208.494" y="95.015" width="233.977" height="27.799" rx="13.9"/><rect x="208.494" y="51" width="273.359" height="27.799" rx="13.9"/></g></g><g transform="translate(0 488)"><g class="S"><path d="M0 0h569.8v231H0z" class="F K N"/><g transform="translate(25.483 32.432)" class="E G"><use xlink:href="#G" opacity=".477"/></g><g transform="translate(65 69)" class="J B I"><g opacity=".248" transform="translate(0 13)"><use xlink:href="#W" class="T"/><ellipse transform="matrix(.913545 -.406737 .406737 .913545 -2.207674 26.613713)" cx="61.5" cy="18.5" rx="6.5" ry="2.5" class="F"/></g><path d="M50.287 0c-7.333 8.667-9.667 17.333-7 26" opacity=".2" class="C"/></g><g class="M"><rect opacity=".2" x="208.494" y="95.015" width="233.977" height="27.799" rx="13.9"/><rect opacity=".2" x="208.494" y="51" width="273.359" height="27.799" rx="13.9"/></g></g><use xlink:href="#X" opacity=".2" class="E L"/></g><path d="M602 242h539.8c8.284 0 15 6.716 15 15v201c0 8.284-6.716 15-15 15H602c-8.284 0-15-6.716-15-15V257c0-8.284 6.716-15 15-15z" stroke="#001c6c" stroke-dasharray="10" class="K"/><g transform="translate(25.483 32.432)"><use xlink:href="#G" class="E G"/><g transform="translate(22.967 51.959)"><g transform="translate(0 .022)"><use xlink:href="#H" class="O"/><g transform="translate(66.981 6.697)" class="P"><use xlink:href="#I"/><use xlink:href="#J"/></g><use xlink:href="#K" class="E Q"/><g class="B C D H"><use xlink:href="#L"/><use xlink:href="#M"/></g><g class="R B C D"><use xlink:href="#N"/><use xlink:href="#O"/><use xlink:href="#P"/><use xlink:href="#Q"/><use xlink:href="#R"/><use xlink:href="#S"/><use xlink:href="#T"/></g><use xlink:href="#U" class="B C D H"/></g></g></g><g transform="translate(24 31)"><use xlink:href="#V" class="E G"/><g transform="matrix(.390731 -.920505 .920505 .390731 45.945779 120.600108)"><g transform="translate(.336 .724)"><mask id="Y" class="F"><use xlink:href="#C"/></mask><use fill="#14591d" xlink:href="#C"/><g class="I B"><path d="M66.444-6.04c-2.46 3.937 3.312 3.61 4.427 5.597.472.84-1 2.02-.508 2.85 1.538 2.6 5.456 4.216 6.615 8.244.233.81-2.747.05-2.392.814 5.412 11.626 3.433.347 6.056 8.65.17.534-1.45-.51-1.68 0l1.73 2.494c-6.22 13.847-.748-18.36-.356 2.646.13 7.026-.428-4.362-.05 2.9.04.746-2.22-.645-2.24.102-.024.962 2.46.96 2.188 1.883-1.32 4.49.332.446-.05 2.085-.244 1.042-2.635-.752-3.205.153-.496.787 2.445 1.594 1.73 2.188-1.136.942-3.602-1.173-4.427.05-.685 1.016 3.178 1.295 2.748 2.442l-2.9.866c-10.37 27.665 11.93-14.164-1.73 8.6-.646 1.077-3.346-.16-3.613 1.068-.34 1.555 2.734 2.497 2.494 4.07-.17 1.115-2.686-.056-3.257.916-.45.768 2.024 1.682 1.374 2.3-4.22 3.945-3.807.767-8.803 3.053-.757.346.678 1.847.153 2.494l-3.867-.204c-.85 1.05 1.787 3.032.814 3.97-1.21 1.166-3.69-.9-5.038.102l.508 2.9c-2.33 1.736-3.658-2.222-8.243.357-.837.47 2.635 2.252 1.68 2.34-1.788.165-3.21-1.785-4.987-2.035-5.403-.758-13.1 4.6-27.53.406" stroke-opacity=".446" stroke="#42be65" mask="url(#Y)" transform="matrix(.5 .866025 -.866025 .5 51.341018 -25.075806)" class="C"/><path d="M2 2c1.525 32.667 17.19 49.667 47 51 28.245 1.263 43.245-17.07 45-55L2 2z" mask="url(#Y)" class="J T"/></g></g><g transform="translate(32.599 8.093)" fill="#000" class="J B I"><ellipse transform="matrix(.62932 -.777146 .777146 .62932 -2.279452 5.22103)" cx="4.333" cy="5" rx="4.333" ry="1.667"/><ellipse transform="matrix(-.62932 -.777146 -.777146 .62932 58.739517 28.017312)" cx="33.667" cy="5" rx="4.333" ry="1.667"/><ellipse transform="matrix(.017452 -.999848 .999848 .017452 9.669775 27.840035)" cx="19" cy="9" rx="4.333" ry="1.667"/></g></g></g><g class="M"><rect x="208.494" y="95.015" width="233.977" height="27.799" rx="13.9"/><rect x="208.494" y="51" width="273.359" height="27.799" rx="13.9"/></g></g><use xlink:href="#X" class="E L"/></g><g class="E"><path d="M8.64 23V7.09l2.84 3.608 2.935 4.138 2.79 4.234L19.64 23h3.432V.772h-4.01v14.755L16.578 11.8 13.69 7.796l-2.967-3.833L7.966.772H4.662V23H8.64zm34.8 0v-3.432H32.44v-6.51h9.11V9.69h-9.11V4.204H42.67V.772H28.398V23H43.44zm13.568.45c1.732 0 3.26-.128 4.587-.385s2.267-.492 2.823-.706h0v-10.68h-4.04v7.987c-.3.086-.706.155-1.22.208s-1.123.08-1.828.08c-1.133 0-2.122-.198-2.967-.593s-1.55-.946-2.117-1.652-.994-1.556-1.283-2.55-.433-2.1-.433-3.288c0-2.523.604-4.496 1.812-5.918s2.956-2.133 5.244-2.133a11.04 11.04 0 0 1 2.999.401c.952.267 1.748.593 2.4.978h0l1.22-3.304-.786-.417c-.374-.192-.85-.374-1.427-.545a18.52 18.52 0 0 0-2.069-.465C59.1.328 58.195.26 57.17.26c-1.497 0-2.908.257-4.234.77a9.78 9.78 0 0 0-3.464 2.261c-.984.994-1.76 2.208-2.325 3.64s-.85 3.08-.85 4.94.257 3.507.77 4.94 1.235 2.64 2.165 3.624 2.058 1.732 3.384 2.245 2.79.77 4.394.77zm22.003.032a11.72 11.72 0 0 0 4.17-.738c1.304-.492 2.443-1.224 3.416-2.197s1.743-2.186 2.31-3.64.85-3.133.85-5.036-.29-3.576-.866-5.02-1.352-2.657-2.325-3.64-2.112-1.72-3.416-2.213a11.63 11.63 0 0 0-4.138-.738 11.63 11.63 0 0 0-4.138.738c-1.304.492-2.454 1.23-3.448 2.213s-1.78 2.197-2.358 3.64-.866 3.117-.866 5.02.29 3.582.866 5.036 1.352 2.668 2.325 3.64 2.117 1.705 3.432 2.197a11.85 11.85 0 0 0 4.186.738zm-.032-3.56c-1.026 0-1.946-.192-2.758-.577a5.89 5.89 0 0 1-2.069-1.62c-.567-.695-1-1.54-1.3-2.534s-.45-2.1-.45-3.32.15-2.32.45-3.304.732-1.828 1.3-2.534 1.256-1.25 2.07-1.636 1.732-.577 2.758-.577c1.005 0 1.914.192 2.726.577a5.89 5.89 0 0 1 2.069 1.62c.567.695 1 1.54 1.3 2.534s.45 2.1.45 3.32-.15 2.325-.45 3.32-.732 1.84-1.3 2.534a5.89 5.89 0 0 1-2.069 1.62c-.813.385-1.72.577-2.726.577zM102.844 23V4.268h6.832V.772H91.938v3.496h6.832V23h4.074zm13.953 0V.772h-4.04V23h4.04zm7.024 0l.914-2.582.914-2.646h9.366l.93 2.63.93 2.598h4.362l-2.4-6.575-2.213-5.71-2.133-5.132-2.18-4.81h-3.817l-2.18 4.81-2.133 5.132-2.197 5.71L119.62 23h4.202zm10.168-8.5h-7.313l1.973-5.292 1.684-4.138L132 9.176l1.99 5.324zM152.72 23V4.268h6.832V.772h-17.737v3.496h6.832V23h4.074zm13.953 0V.772h-4.04V23h4.04zm15.236.48a11.72 11.72 0 0 0 4.17-.738c1.304-.492 2.443-1.224 3.416-2.197s1.743-2.186 2.31-3.64.85-3.133.85-5.036-.29-3.576-.866-5.02-1.352-2.657-2.325-3.64-2.112-1.72-3.416-2.213a11.63 11.63 0 0 0-4.138-.738 11.63 11.63 0 0 0-4.138.738c-1.304.492-2.454 1.23-3.448 2.213s-1.78 2.197-2.358 3.64-.866 3.117-.866 5.02.29 3.582.866 5.036 1.352 2.668 2.325 3.64 2.117 1.705 3.432 2.197a11.85 11.85 0 0 0 4.186.738zm-.032-3.56c-1.026 0-1.946-.192-2.758-.577a5.89 5.89 0 0 1-2.069-1.62c-.567-.695-1-1.54-1.3-2.534s-.45-2.1-.45-3.32.15-2.32.45-3.304.732-1.828 1.3-2.534 1.256-1.25 2.07-1.636 1.732-.577 2.758-.577c1.005 0 1.914.192 2.726.577a5.89 5.89 0 0 1 2.069 1.62c.567.695 1 1.54 1.3 2.534s.45 2.1.45 3.32-.15 2.325-.45 3.32-.732 1.84-1.3 2.534a5.89 5.89 0 0 1-2.069 1.62c-.813.385-1.72.577-2.726.577zm19.18 3.08V7.09l2.84 3.608 2.935 4.138 2.79 4.234L212.06 23h3.432V.772h-4.01v14.755l-2.486-3.737-2.887-3.993-2.967-3.833-2.758-3.19h-3.304V23h3.977z" fill="#001c6c"/><path d="M603.54 23.48c.855 0 1.657-.048 2.406-.144s1.422-.225 2.02-.385l1.556-.497c.438-.17.786-.342 1.042-.513h0l-1.09-3.304c-.492.257-1.187.53-2.085.818s-2.063.433-3.496.433c-1.197 0-2.224-.198-3.08-.593s-1.56-.952-2.117-1.668-.968-1.566-1.235-2.55-.4-2.063-.4-3.24c0-1.326.17-2.49.513-3.496s.818-1.84 1.427-2.502a5.83 5.83 0 0 1 2.165-1.491c.834-.33 1.732-.497 2.694-.497 1.112 0 2.144.144 3.095.433s1.684.593 2.197.914h0l1.187-3.304-.77-.417c-.364-.192-.823-.374-1.38-.545a17.74 17.74 0 0 0-1.957-.465c-.748-.14-1.582-.208-2.502-.208-1.518 0-2.94.257-4.266.77a9.78 9.78 0 0 0-3.464 2.261c-.984.994-1.76 2.208-2.325 3.64s-.85 3.08-.85 4.94.246 3.507.738 4.94 1.197 2.646 2.117 3.64 2.042 1.748 3.368 2.26 2.823.77 4.5.77zm24.634-.48v-3.496h-10.007V.772h-4.04V23h14.05zm13 .48a11.72 11.72 0 0 0 4.17-.738c1.304-.492 2.443-1.224 3.416-2.197s1.743-2.186 2.31-3.64.85-3.133.85-5.036-.29-3.576-.866-5.02-1.352-2.657-2.325-3.64-2.112-1.72-3.416-2.213a11.63 11.63 0 0 0-4.138-.738 11.63 11.63 0 0 0-4.138.738c-1.304.492-2.454 1.23-3.448 2.213s-1.78 2.197-2.358 3.64-.866 3.117-.866 5.02.29 3.582.866 5.036 1.352 2.668 2.325 3.64 2.117 1.705 3.432 2.197a11.85 11.85 0 0 0 4.186.738zm-.032-3.56c-1.026 0-1.946-.192-2.758-.577a5.89 5.89 0 0 1-2.069-1.62c-.567-.695-1-1.54-1.3-2.534s-.45-2.1-.45-3.32.15-2.32.45-3.304.732-1.828 1.3-2.534 1.256-1.25 2.07-1.636 1.732-.577 2.758-.577c1.005 0 1.914.192 2.726.577a5.89 5.89 0 0 1 2.069 1.62c.567.695 1 1.54 1.3 2.534s.45 2.1.45 3.32-.15 2.325-.45 3.32-.732 1.84-1.3 2.534a5.89 5.89 0 0 1-2.069 1.62c-.813.385-1.72.577-2.726.577zm20.592 3.56c2.737 0 4.817-.55 6.24-1.652s2.133-2.657 2.133-4.667c0-1.048-.15-1.94-.45-2.678a5.52 5.52 0 0 0-1.299-1.924c-.567-.545-1.262-1.016-2.085-1.41s-1.76-.786-2.807-1.17l-1.652-.674c-.503-.235-.94-.492-1.315-.77s-.663-.593-.866-.946-.305-.775-.305-1.267c0-.813.305-1.443.914-1.892s1.46-.674 2.55-.674a11.13 11.13 0 0 1 2.678.321 9.58 9.58 0 0 1 2.39.93h0l1.25-3.272c-.62-.364-1.47-.7-2.55-1S664.238.26 662.848.26c-2.395 0-4.287.572-5.677 1.716s-2.085 2.72-2.085 4.73c0 .962.166 1.786.497 2.47s.77 1.272 1.315 1.764 1.176.903 1.892 1.235l2.23.914 2.053.786c.6.267 1.107.556 1.524.866s.738.658.962 1.042.337.845.337 1.38c0 .898-.33 1.593-.994 2.085s-1.72.738-3.175.738c-1.4 0-2.577-.16-3.56-.48s-1.764-.642-2.34-.962h0l-1.187 3.304c.257.15.6.315 1.026.497a13.77 13.77 0 0 0 1.524.529 16.12 16.12 0 0 0 2.021.433c.76.118 1.598.176 2.518.176zM688.7 23v-3.432H677.7v-6.51h9.11V9.69h-9.11V4.204h10.232V.772h-14.273V23H688.7zm10.04.257c1.882 0 3.598-.23 5.148-.7s2.876-1.165 3.977-2.117 1.95-2.138 2.55-3.56.898-3.095.898-5.02c0-1.967-.3-3.662-.898-5.084s-1.45-2.598-2.55-3.528-2.422-1.614-3.96-2.053-3.24-.658-5.1-.658l-3.08.096a19.47 19.47 0 0 0-3.272.449h0V22.68c1.026.235 2.106.4 3.24.465l3.047.112zm.257-3.528c-.663 0-1.187-.005-1.572-.016l-.93-.048V4.14c.513-.064 1.37-.096 2.566-.096 2.737 0 4.758.674 6.062 2.02s1.957 3.282 1.957 5.806c0 2.48-.668 4.4-2.005 5.8s-3.363 2.07-6.078 2.07zM730.783 23l2.438-6.768 2.406-7.377c1.56 5.11 3.175 9.826 4.843 14.145h3.85c1.133-3.38 2.16-6.923 3.08-10.633S749.15 4.792 749.9.772h0-4.17l-.818 4.49-.882 4.474-.898 4.234c-.3 1.358-.61 2.614-.93 3.77L741 14.324l-1.25-3.69-1.203-3.753-1.09-3.608H734l-1.042 3.592-1.17 3.737-1.235 3.69-1.235 3.448c-.32-1.155-.642-2.416-.962-3.785l-.946-4.25-.898-4.474-.818-4.458h-4.33c.748 4.02 1.577 7.885 2.486 11.595s1.94 7.254 3.095 10.633h3.85zm32.428.48a11.72 11.72 0 0 0 4.17-.738c1.304-.492 2.443-1.224 3.416-2.197s1.743-2.186 2.31-3.64.85-3.133.85-5.036-.29-3.576-.866-5.02-1.352-2.657-2.325-3.64-2.112-1.72-3.416-2.213a11.63 11.63 0 0 0-4.138-.738 11.63 11.63 0 0 0-4.138.738c-1.304.492-2.454 1.23-3.448 2.213s-1.78 2.197-2.358 3.64-.866 3.117-.866 5.02.29 3.582.866 5.036 1.352 2.668 2.325 3.64 2.117 1.705 3.432 2.197a11.85 11.85 0 0 0 4.186.738zm-.032-3.56c-1.026 0-1.946-.192-2.758-.577a5.89 5.89 0 0 1-2.069-1.62c-.567-.695-1-1.54-1.3-2.534s-.45-2.1-.45-3.32.15-2.32.45-3.304.732-1.828 1.3-2.534 1.256-1.25 2.07-1.636 1.732-.577 2.758-.577c1.005 0 1.914.192 2.726.577a5.89 5.89 0 0 1 2.069 1.62c.567.695 1 1.54 1.3 2.534s.45 2.1.45 3.32-.15 2.325-.45 3.32-.732 1.84-1.3 2.534a5.89 5.89 0 0 1-2.069 1.62c-.813.385-1.72.577-2.726.577zM782.36 23V7.09c.898 1.07 1.844 2.272 2.84 3.608a113.4 113.4 0 0 1 2.935 4.138l2.79 4.234A143.64 143.64 0 0 1 793.361 23h3.432V.772h-4.01v14.755a97.89 97.89 0 0 0-2.486-3.737c-.93-1.336-1.892-2.668-2.887-3.993a155.23 155.23 0 0 0-2.967-3.833c-.984-1.23-1.903-2.293-2.758-3.19h0-3.304V23h3.977z" fill="#42be65"/></g><g transform="translate(450 415)"><g filter="url(#D)"><path stroke="#0d62fe" stroke-width="3.2" d="M0 0h569.8v231H0z" class="F"/><g transform="translate(25.483 32.432)"><use xlink:href="#G" class="E G"/><g transform="translate(22.967 51.959)"><g transform="translate(0 .022)"><use xlink:href="#H" class="O"/><g transform="translate(66.981 6.697)" class="P"><use xlink:href="#I"/><use xlink:href="#J"/></g><use xlink:href="#K" class="E Q"/><g class="B C D H"><use xlink:href="#L"/><use xlink:href="#M"/></g><g class="R B C D"><use xlink:href="#N"/><use xlink:href="#O"/><use xlink:href="#P"/><use xlink:href="#Q"/><use xlink:href="#R"/><use xlink:href="#S"/><use xlink:href="#T"/></g><use xlink:href="#U" class="B C D H"/></g></g></g><g transform="translate(24 31)"><use xlink:href="#V" class="E G"/><g class="B I J"><use xlink:href="#W" x="41" y="51" class="T"/><ellipse transform="matrix(.913545 -.406737 .406737 .913545 -19.406606 47.699097)" cx="102.5" cy="69.5" rx="6.5" ry="2.5" class="F"/><path d="M91.287 38c-7.333 8.667-9.667 17.333-7 26" class="C"/></g></g><g class="M"><rect x="208.494" y="95.015" width="233.977" height="27.799" rx="13.9"/><rect x="208.494" y="51" width="273.359" height="27.799" rx="13.9"/></g></g><g class="E"><use xlink:href="#X" class="L"/><g filter="url(#E)" transform="translate(457.3 175.2)"><path fill="#231d1e" d="M0 21.7h3.1v-3.1h6.2v3.1h3.1V3.1h3.1V0h6.2v3.1h3.1v9.3h12.4v3.1h6.2v3.1h3.1v15.5h-3.1v6.2h-3.1v9.3h-6.2v-3.1H31v3.1H15.5v-6.2h-3.1v-3.1H9.3v-3.1H6.2V31H3.1v-3.1H0z"/><path d="M3.1 21.7h6.2v3.1h3.1v3.1h3.1V3.1h6.2v18.6h3.1v-6.2H31v6.2h3.1v-6.2h3.1v6.2h3.1v-3.1h3.1v15.5h-3.1v6.2h-3.1v6.2h-3.1v-3.1H31v3.1H18.6v-3.1h-3.1v-3.1h-3.1v-3.1H9.3V31H6.2v-3.1H3.1z" class="F"/><g fill="#231d1e"><path d="M21.7 27.9h3.1v12.4h-3.1z"/><path d="M27.9 27.9H31v12.4h-3.1z"/><path d="M34.1 27.9h3.1v12.4h-3.1z"/></g></g></g></g></g></svg>