<svg xmlns="http://www.w3.org/2000/svg" xmlns:xlink="http://www.w3.org/1999/xlink" width="1119" height="964" xmlns:v="https://vecta.io/nano"><style><![CDATA[.B{stroke-linejoin:round}.C{stroke-linecap:round}.D{stroke-width:1.32}.E{fill-rule:nonzero}.F{stroke-width:4.17}.G{fill:#fff}.H{stroke:#212121}.I{fill:#f4f2ee}.J{stroke:#001d75}.K{fill:#06f}.L{fill:#f2f4f6}.M{fill:#001d75}.N{fill:#ff9d00}.O{fill:#212121}.P{fill:#ff0025}.Q{stroke-width:2.322}.R{fill:#0d62fe}.S{stroke:#000}.T{stroke:#ffc200}.U{fill:#ff243a}.V{stroke:#f4f2ee}.W{stroke-width:2.2}.X{fill:#fb3640}]]></style><defs><filter x="-10.0%" y="-1.1%" width="115.9%" height="102.2%" id="A"><feOffset dy="1" in="SourceAlpha"/><feGaussianBlur stdDeviation="2"/><feColorMatrix values="0 0 0 0 0 0 0 0 0 0.160784314 0 0 0 0 0.349019608 0 0 0 0.1 0" result="C"/><feMerge><feMergeNode in="C"/><feMergeNode in="SourceGraphic"/></feMerge></filter><filter x="-19.0%" y="-200.0%" width="138.0%" height="500.0%" ><feOffset dy="24" in="SourceAlpha"/><feGaussianBlur stdDeviation="16"/><feColorMatrix values="0 0 0 0 0.3515625 0 0 0 0 0.3515625 0 0 0 0 0.3515625 0 0 0 0.1 0" result="C"/><feMerge><feMergeNode in="C"/><feMergeNode in="SourceGraphic"/></feMerge></filter><filter x="-14.9%" y="-1.7%" width="129.9%" height="114.6%" id="C"><feOffset dy="1" in="SourceAlpha"/><feGaussianBlur stdDeviation="2"/><feColorMatrix values="0 0 0 0 0 0 0 0 0 0.160784314 0 0 0 0 0.349019608 0 0 0 0.1 0" result="C"/><feMerge><feMergeNode in="C"/><feMergeNode in="SourceGraphic"/></feMerge></filter><filter x="-17.8%" y="-47.6%" width="135.5%" height="195.2%" id="D"><feOffset dy="24" in="SourceAlpha"/><feGaussianBlur stdDeviation="16"/><feColorMatrix values="0 0 0 0 0.3515625 0 0 0 0 0.3515625 0 0 0 0 0.3515625 0 0 0 0.1 0" result="C"/><feMerge><feMergeNode in="C"/><feMergeNode in="SourceGraphic"/></feMerge></filter><path d="M.425 3.283C.15 41.44 17.082 62.162 51.217 65.447 77.645 67.99 91.668 46.49 93.287.952L.425 3.283z" id="E"/><path id="F" d="M0 0h646.8v88.44H0z"/><path id="G" d="M26.34 0C11.793 0 0 11.793 0 26.34s11.793 26.34 26.34 26.34 26.34-11.793 26.34-26.34S40.888 0 26.34 0z"/><path id="H" d="M25.433 17.722c3.122 0 6.957-.196 11.505-.59l1.18-5.792h-5.113l.393-8.443H5.078L4.905 7.58C1.635 6.67 0 7.097 0 8.865s1.463 2.822 4.4 3.164l.983 4.516c10.25.785 16.937 1.178 20.06 1.178z"/><path id="I" d="M.2.672c-.14 2.465 2.05 3.093 2.658.824C3.323-.235.797-.4 0 .672"/><path id="J" d="M8.455.28c.043.525.01 1.06.13 1.574.51 2.226 3.29.066 1.815-1.794"/><path id="K" d="M34.106.001c.606 0-.11 5.4-.492 6.495-.483 1.377-1.622 1.08-2.852 1.08a9.02 9.02 0 0 1-1.025-.047c-.51-.62-1.173-1.313-1.892-1.94l-.55-.456.136.798-.175-.278c-.745 1.88-2.246 2.414-4.067 2.414-4.2 0-5.89-3.207-5.217-8.066h16.132zm-8.366 2.19H20.05v.028c-.072 1.167.06 2.072.373 2.72l.188.328c.496.732 1.38 1.114 2.78 1.114.953 0 1.608-.612 2.026-2.115l.113-.454.08-.462.078-.62.054-.538zm6.757 0h-4.214c.598 2.452 1.388 3.518 2.854 3.678l.413.02c.06 0 .09-.013.147-.066.118-.112.247-.334.366-.673.194-.553.33-1.33.4-2.32l.035-.64z"/><path id="L" d="M27.953 6.314c1.978 1.562 3.73 3.835 3.43 4.2-.393.49-1.816.592-2.163.393-.28-.16-.153.057-.153 1.887"/><path id="M" d="M23.633 11.268c2.316 1.718 4.886 1.936 7.424 1.415"/><path id="N" d="M26.113 15.677c.496 1.983 1.667 3.233 2.906 4.893"/><path id="O" d="M28.138 15.46c1.354 4.284 1.053 2.457 1.36 5.387"/><path id="P" d="M29.823 15.77c.405 4.165.356 2.433.356 5.186"/><path id="Q" d="M32.87 15.924c-.11 2.02-.644 3.63-1.654 5.37"/><path id="R" d="M34.244 15.723c-.185 1.97-.746 3.866-2.072 5.402"/><path id="S" d="M35.002 17.838c-1.637 2.193-1.835 2.866-4.282 3.442"/><path id="T" d="M25.698 0C11.505 0 0 11.505 0 25.698s11.505 25.698 25.698 25.698S51.396 39.89 51.396 25.698 39.89 0 25.698 0z"/><path id="U" d="M12.992 3.144c-.064 1.015.924 1.274 1.198.34.21-.713-.93-.78-1.29-.34"/><path id="V" d="M4.036 9.15c-.154-1.007.025-1.7.535-2.082.928-.693 2.176.496 2.302 1.377.15 1.042-.667 2.663-1.452 2.4-.75-.25-1.212-.816-1.385-1.697z"/><path id="W" d="M83.21 0C37.254 0 0 37.254 0 83.21s37.254 83.21 83.21 83.21 83.21-37.254 83.21-83.21S129.165 0 83.21 0z"/><path id="X" d="M80.342 55.985c9.863 0 21.977-.62 36.343-1.86l3.727-18.298H104.26l1.242-26.67h-89.46l-.547 14.79C5.165 21.068 0 22.42 0 28.003s4.623 8.914 13.868 9.995l3.106 14.266c32.382 2.48 53.504 3.722 63.367 3.722z"/><path id="Y" d="M.637 2.124c-.446 7.788 6.477 9.77 8.397 2.602C10.497-.744 2.516-1.263 0 2.124"/><path id="Z" d="M26.708.883c.135 1.657.035 3.35.406 4.972 1.608 7.032 10.388.21 5.732-5.666"/><path id="a" d="M107.74.003c1.915 0-.35 17.09-1.553 20.52-1.525 4.35-5.124 3.41-9.008 3.41-1.24 0-2.302-.04-3.237-.15-1.61-1.96-3.705-4.148-5.978-6.128l-1.733-1.44.43 2.52-.554-.878c-2.354 5.94-7.095 7.625-12.847 7.625-13.3 0-18.61-10.132-16.48-25.48h50.96zM81.31 6.926h-17.97l-.005.088c-.227 3.685.19 6.545 1.177 8.593l.593 1.036c1.568 2.312 4.356 3.52 8.777 3.52 3 0 5.08-1.935 6.4-6.68l.356-1.433.254-1.46a55.74 55.74 0 0 0 .248-1.963l.17-1.7zm21.344 0h-13.31c1.89 7.747 4.385 11.115 9.017 11.618l1.303.067c.188 0 .286-.04.463-.208.373-.354.78-1.054 1.157-2.126.612-1.746 1.04-4.197 1.26-7.326l.1-2.025z"/><path id="b" d="M88.303 19.944c6.248 4.933 11.787 12.114 10.838 13.3-1.242 1.55-5.736 1.87-6.834 1.24-.882-.505-.484.18-.484 5.962"/><path id="c" d="M74.657 35.596c7.315 5.426 15.435 6.116 23.454 4.47"/><path id="d" d="M82.49 49.523c1.567 6.265 5.265 10.213 9.18 15.456"/><path id="e" d="M88.888 48.84c4.278 13.533 3.327 7.76 4.298 17.016"/><path id="f" d="M94.21 49.816c1.28 13.157 1.123 7.686 1.123 16.383"/><path id="g" d="M103.832 50.304c-.352 6.378-2.034 11.463-5.225 16.967"/><path id="h" d="M108.178 49.67c-.584 6.22-2.358 12.213-6.544 17.065"/><path id="i" d="M110.57 56.35c-5.172 6.93-5.797 9.052-13.528 10.873"/><path id="j" d="M75.18 33.33c-.468 1.257-1.4 2.498-2.953 2.57"/><path id="k" d="M84 0C37.608 0 0 37.608 0 84s37.608 84 84 84 84-37.608 84-84S130.392 0 84 0z"/><path id="l" d="M228.247 184.222v-6.353c1.7-.278 3.133-.73 4.296-1.354s2.11-1.37 2.838-2.24 1.25-1.814 1.562-2.838.47-2.057.47-3.098c0-1.528-.27-2.864-.807-4s-1.285-2.144-2.24-2.994-2.083-1.606-3.385-2.265a38.5 38.5 0 0 0-4.244-1.823l-2.578-.963c-.712-.295-1.31-.6-1.797-.91s-.842-.668-1.068-1.068-.338-.877-.338-1.432c0-.903.365-1.632 1.094-2.187s1.927-.833 3.593-.833 3.255.174 4.765.52 2.838.764 3.984 1.25h0l1.614-6.25c-.764-.347-1.797-.694-3.098-1.042s-2.855-.608-4.66-.78h0v-5.416h-6.56v5.624c-1.528.278-2.847.72-3.958 1.328s-2.014 1.345-2.708 2.213-1.206 1.83-1.536 2.9-.495 2.16-.495 3.307c0 1.493.27 2.77.807 3.828a8.3 8.3 0 0 0 2.135 2.682c.885.73 1.875 1.345 2.968 1.85l3.36 1.38 3.124 1.172c.903.365 1.65.738 2.24 1.12s1.04.807 1.354 1.276.47 1.033.47 1.692c0 1.04-.39 1.85-1.172 2.42s-2.23.86-4.348.86c-1.875 0-3.654-.243-5.338-.73s-3.133-1.024-4.348-1.614h0l-2.24 5.99c.764.382 1.935.86 3.515 1.432s3.637.963 6.17 1.172h0v6.197h6.56zm29.58 0v-6.353c1.7-.278 3.133-.73 4.296-1.354s2.11-1.37 2.838-2.24 1.25-1.814 1.562-2.838.47-2.057.47-3.098c0-1.528-.27-2.864-.807-4s-1.285-2.144-2.24-2.994-2.083-1.606-3.385-2.265a38.5 38.5 0 0 0-4.244-1.823l-2.578-.963c-.712-.295-1.31-.6-1.797-.91s-.842-.668-1.068-1.068-.338-.877-.338-1.432c0-.903.365-1.632 1.094-2.187s1.927-.833 3.593-.833 3.255.174 4.765.52 2.838.764 3.984 1.25h0l1.614-6.25c-.764-.347-1.797-.694-3.098-1.042s-2.855-.608-4.66-.78h0v-5.416h-6.56v5.624c-1.528.278-2.847.72-3.958 1.328s-2.014 1.345-2.708 2.213-1.206 1.83-1.536 2.9-.495 2.16-.495 3.307c0 1.493.27 2.77.807 3.828a8.3 8.3 0 0 0 2.135 2.682c.885.73 1.875 1.345 2.968 1.85l3.36 1.38 3.124 1.172c.903.365 1.65.738 2.24 1.12s1.04.807 1.354 1.276.47 1.033.47 1.692c0 1.04-.39 1.85-1.172 2.42s-2.23.86-4.348.86c-1.875 0-3.654-.243-5.338-.73s-3.133-1.024-4.348-1.614h0l-2.24 5.99c.764.382 1.935.86 3.515 1.432s3.637.963 6.17 1.172h0v6.197h6.56zm29.58 0v-6.353c1.7-.278 3.133-.73 4.296-1.354s2.11-1.37 2.838-2.24 1.25-1.814 1.562-2.838.47-2.057.47-3.098c0-1.528-.27-2.864-.807-4s-1.285-2.144-2.24-2.994-2.083-1.606-3.385-2.265a38.5 38.5 0 0 0-4.244-1.823l-2.578-.963c-.712-.295-1.31-.6-1.797-.91s-.842-.668-1.068-1.068-.338-.877-.338-1.432c0-.903.365-1.632 1.094-2.187s1.927-.833 3.593-.833 3.255.174 4.765.52 2.838.764 3.984 1.25h0l1.614-6.25c-.764-.347-1.797-.694-3.098-1.042s-2.855-.608-4.66-.78h0v-5.416h-6.56v5.624c-1.528.278-2.847.72-3.958 1.328s-2.014 1.345-2.708 2.213-1.206 1.83-1.536 2.9-.495 2.16-.495 3.307c0 1.493.27 2.77.807 3.828a8.3 8.3 0 0 0 2.135 2.682c.885.73 1.875 1.345 2.968 1.85l3.36 1.38 3.125 1.172c.903.365 1.65.738 2.24 1.12s1.04.807 1.354 1.276.47 1.033.47 1.692c0 1.04-.39 1.85-1.172 2.42s-2.23.86-4.348.86c-1.875 0-3.654-.243-5.338-.73s-3.133-1.024-4.348-1.614h0l-2.24 5.99c.764.382 1.935.86 3.515 1.432s3.637.963 6.17 1.172h0v6.197h6.56z"/></defs><g transform="translate(4 3)" fill="none" fill-rule="evenodd"><g filter="url(#A)"><g transform="translate(0 481.8)"><use xlink:href="#F" class="G"/><g transform="translate(26.4 18.48)"><use xlink:href="#G" class="E K"/><g transform="translate(7.27 16.448)"><g transform="translate(0 .007)"><use xlink:href="#H" class="N"/><g transform="translate(21.203 2.12)" class="O"><use xlink:href="#I"/><use xlink:href="#J"/></g><use xlink:href="#K" class="E P"/><g class="B C D H"><use xlink:href="#L"/><use xlink:href="#M"/></g><g class="J B C D"><use xlink:href="#N"/><use xlink:href="#O"/><use xlink:href="#P"/><path d="M31.616 15.77l-.928 5.695"/><use xlink:href="#Q"/><use xlink:href="#R"/><use xlink:href="#S"/></g><path d="M23.8 10.55c-.148.398-.443.79-.935.813" class="B C D H"/></g></g></g><g class="I"><rect x="274.56" y="36.96" width="129.36" height="15.84" rx="7.92"/><rect x="105.6" y="36.96" width="124.08" height="15.84" rx="7.92"/></g><rect x="443.52" y="36.96" width="151.8" height="15.84" rx="7.92" class="L"/></g><g transform="translate(0 770.88)"><use xlink:href="#F" class="G"/><g transform="translate(29.04 18.12)"><use xlink:href="#T" class="E K"/><g transform="translate(13.489 10.349)"><g transform="translate(0 7.907)"><path d="M1.888 4.198C4.966.358 10.754-.158 15.59.034s6.472 1.344 8.895 5.063 1.882 6.618.503 9.364C21.756 20.896 6.5 22.878 1.466 16.824-1.222 13.598.46 8.442 1.24 5.123l.65-.925z" fill="#ff7800"/><g class="B C D T"><path d="M12.994 2.047c.9 2.174 3.396.718 2.406-.822"/><path d="M10.717.175c1.746.886 2.874 2.447 4.33 3.8l2.335 2.324c.216.24.633.525.507.82-.115.27-2.855.476-3.096.037-.124-.227-.16-1.016-.152-.758.077 2.376 1.038 4.857.47 6.783-.305 1.03-4.566.326-4.392.94.37 1.302 1.863 1.403 4.48.305.26.527.107 1.168.076 1.752l-.38 3.94"/><path d="M8.616 2.932c-.187 1.473 1.832 2.404 3.143 1.32.88-.73.405-1.675.39-2.676"/></g></g><path d="M9.135 5.642c-.632-1.22-.942-2.762-.13-4.04 1.216-1.916 3.8-2.34 4.8-.015.776 1.805-1.1 4.035-1.048 4.26C13.05 7.125 17.212 2 16.41 4.74c-1.002 3.42-6.674 4-9.158 2.08s-.143-1.895 1.37-1.184l.514.005z" class="M"/></g></g><g class="I"><rect x="274.56" y="36.96" width="151.8" height="15.84" rx="7.92"/><rect x="105.6" y="36.96" width="93.72" height="15.84" rx="7.92"/></g><rect x="443.52" y="36.96" width="151.8" height="15.84" rx="7.92" class="L"/></g><g transform="translate(0 674.52)"><use xlink:href="#F" class="G"/><g transform="translate(29.04 18.48)"><use xlink:href="#T" fill="#cce4ff" class="E"/><g transform="translate(4.07 11.279)"><path d="M36.885 2.44l.786 3.136c.14.628.286 1.935.437 3.92 3.318-1.394 4.978-.465 4.978 2.788s-1.66 4.356-4.978 3.31v12.46L5 28.838V15.595c-3.6.87-5.27-.232-4.978-3.31S1.983 8.277 5 9.496l.61-7.057h31.263zM9.988 6.62c-2.27 7.086-2.474 12.488-.61 16.205 1.185 2.364 11.198 2.995 17.728 2.352 2.492-.245 5.054-1.03 7.685-2.352.453-2.404.627-4.872.524-7.405a35.96 35.96 0 0 0-1.135-7.58C32.606 6.1 28.763 4.995 22.65 4.53s-10.334.232-12.663 2.09z" class="M"/><g class="H B C D"><path d="M20.99 5.747l-5.225.53c1.23.235 2.337-.17 3.534-.32.346-.044.83-.306 1.046-.033.176.222-.533.224-.745.412-.503.447-.882 1.02-1.38 1.473-.32.29-.708.496-1.063.745" transform="matrix(.882948 .469472 -.469472 .882948 5.508837 -7.791264)"/><g transform="translate(10.806 12.717)"><path d="M1.098 7.3c.727-2.287 2.277-5.122 4.2-4.7.88.188.844-.202 1.498-.402.526-.16.483-.577 1.106-.673.094-.014-.195-.03-.285 0-.227.073-.262.226-.465.35-.338.21-.816.217-1.104.5L1.6 6.803c-.41.444.98-.716 1.412-1.14.762-.75 1.404-1.617 2.158-2.376.428-.43.88-.845 1.38-1.188.368-.253.74-.27 1.157-.43.145-.056-.46.023-.333.112.22.155.985-.173.808.03-1.318 1.524-3.818 3.102-5.298 4.7-.236.253-.802 1.114-.54.887L7.14 2.81c.18-.165.385-.303.603-.412.293-.147.955-.675.92-.35-.045.414-.687.484-.968.792-1.13 1.244-.8 1.435-2 2.455L2.89 7.466c-.157.14-.47.635-.27.57C4.94 7.284 7.04 5.116 8.313 3.14c.1-.14-.027-.364.08-.49.127-.15.693-.117.54-.238v-.38c-.087-.07-.2.095-.3.143" transform="matrix(.882948 .469472 -.469472 .882948 2.83035 -1.801605)"/><path d="M11.004 2.832C12.39 4.98 14.15 7.126 17 7.267c.258.013-.37-.365-.587-.507-.76-.5-1.627-.837-2.332-1.4-.873-.71-3.347-2.954-2.364-2.407 1.576.876 2.718 2.377 4.188 3.42.52.37 1.13.615 1.745.792.344.1-.635-.338-.92-.554l-2.95-2.376c-.686-.6-1.214-1.007-1.77-1.73-.3-.39.58.447.992.717.588.386 1.252.652 1.824 1.062.554.397.986.947 1.54 1.346.484.35.988.7 1.554.887.135.045-.03-.295-.11-.412a3.85 3.85 0 0 0-.745-.807l-2.87-2.06c-.323-.215-1.39-.69-1.03-.54l2.506 1.157c.757.434 1.442.984 2.14 1.505.16.118.317.248.43.412.03.044-.115.014-.16-.016l-1.142-.666-1.95-1.44c-.734-.472-1.54-.825-2.284-1.283-.118-.073-.807.15-.69.075.313-.204 1.547.508 1.76.606 1.897.87 2.995.822 4.768 2.203.215.168.777.407.57.586-.327.284-.967-.23-1.3.047-.348.3 1.933.834-.08.5-.267-.046-.554-.084-.777-.238-5.812-4.03-1.954-2.033-4.996-3.532" transform="matrix(.945519 -.325568 .325568 .945519 -.743001 5.170559)"/></g></g><g class="B C D"><g class="J"><path d="M19.193 12.895c-.7-.332-1.467-.798-2.315-.535-.713.22-.653 1.684-.628 2.074.1 1.406 1.9 1.9 2.97 1.357"/><path d="M23.49 13.605c2.586-2.332 3.088 1.348 1.092 2.225-.707.31-1.322.17-2.053.117"/><path d="M20.473 8.38c.177 2.607.05-1.09-1.19 4.445-.48 2.136 1.29 5.527 3.187 3.053 1.007-1.312 1.08-3.2 1.157-4.825.043-.915.277-2.81-.84-3.37-.907-2.044-1.127-2.69-.662-1.934"/></g><path d="M23.407 5.975c1.406-.042 2.826.077 4.217-.125 1.104-.16-2.23-.032-3.346-.001-.393.01-1.083-.256-1.173.126-.093.395.616.54.967.744.774.452 1.597.813 2.395 1.22" transform="matrix(.984808 -.173648 .173648 .984808 -.802985 4.527105)" class="H"/></g><path d="M18.284 0c.736 0 1.482.053 2.24.16l.142.02a.7.7 0 0 1 .586.576 21.57 21.57 0 0 1 .273 4.166c.198.143.458.11.782-.098a21.55 21.55 0 0 1 .276-4.068.7.7 0 0 1 .563-.572L23.17.18l.142-.02C24.07.053 24.818 0 25.554 0l.173.001 5.86.234c.312.016.585.214.695.504l.01.024.03.085c.44 1.307.658 2.766.658 4.38 0 1.54-.204 2.88-.613 4.02a1.05 1.05 0 0 1-.949.693h-.027l-.42.003a94.37 94.37 0 0 1-2.216-.009l-.375-.007-4.6-.002c-.5.003-.93-.347-1.032-.833l-.005-.026-.024-.134-.283-2.1c-.335-.36-.68-.388-1.033-.084-.096.874-.243 1.745-.44 2.615l-.034.147c-.107.46-.5.8-.982.808l-2.092.074-2.385.07-.305.006-2.334.006-.21-.002a1.05 1.05 0 0 1-.975-.689c-.52-1.43-.778-2.945-.778-4.546 0-1.613.22-3.073.658-4.38l.03-.085c.104-.303.383-.512.704-.528l.992-.05L18.284 0zm-.873.87l-.138.005-3.678.335-.257.03a.35.35 0 0 0-.306.313l-.02.213c-.318 3.464-.22 5.866.293 7.205.228.594 2.47.68 6.724.26l.038-.324.304-4.28-.001-.037c-.03-.955-.143-2.138-.34-3.55C19.258.897 18.385.84 17.41.87zm8.034 0L25.35.868c-.915-.026-1.43.034-1.543.177l-.026.19-.315 3.358-.002.088c-.02.954.086 2.355.322 4.203 4.43.246 6.758.072 6.986-.523.523-1.364.54-3.636.048-6.818a.35.35 0 0 0-.313-.294l-.775-.07-4.286-.31z" class="U"/><path d="M18 19.398c1.747 1.424 4.897.357 6.074.474.062.006.054.155 0 .186l-.394.393c-.263.153-.55.278-.85.33-.457.08-1.1-.3-1.39.062-.218.272.592.39.81.662.748.945-1.33.776-1.514.786" class="B C D J"/></g></g><g class="I"><rect x="274.56" y="36.96" width="120.12" height="15.84" rx="7.92"/><rect x="105.6" y="36.96" width="124.08" height="15.84" rx="7.92"/></g><rect x="443.52" y="36.96" width="151.8" height="15.84" rx="7.92" class="L"/></g><g transform="translate(0 578.16)"><use xlink:href="#F" class="G"/><g class="I"><rect x="274.56" y="36.96" width="129.36" height="15.84" rx="7.92"/><rect x="105.6" y="36.96" width="93.72" height="15.84" rx="7.92"/></g><rect x="443.52" y="36.96" width="151.8" height="15.84" rx="7.92" class="L"/></g><g transform="translate(0 867.24)"><use xlink:href="#F" class="G"/><g class="I"><rect x="274.56" y="36.96" width="120.12" height="15.84" rx="7.92"/><rect x="105.6" y="36.96" width="124.08" height="15.84" rx="7.92"/></g><rect x="443.52" y="36.96" width="151.8" height="15.84" rx="7.92" class="L"/></g><use xlink:href="#F" class="G"/><g transform="translate(27.72 18.48)"><path d="M26.4 0C11.82 0 0 11.82 0 26.4s11.82 26.4 26.4 26.4 26.4-11.82 26.4-26.4S40.98 0 26.4 0z" fill="#cce4ff" class="E"/><g transform="translate(12.543 7.645)"><g transform="translate(8.004 .478)" fill="#ff5fa7"><path d="M17.68 3.07c-.626 13.938-15.8 19.106-6.1 28.19 2.318 2.17-12.7 2.2-11.42 0C7.042 19.514-.154 17.008.003 4.323A15.65 15.65 0 0 1 .608.136C8.162-.078 13.696.117 17.2.72c.28.048.436.83.47 2.35z"/></g><g class="B C D T"><path d="M27.714 1.91c-.83 3.61-2.413 7.313-2.718 11.022-.222 2.688-.1 5.394-.15 8.09"/><path d="M26.758 1.792c-1.865 4.7-2.588 8.9-2.764 13.98-.138 3.982-.537 3 .258 4.657"/><path d="M24.25 4.66c-1.75 7.223-1.83 9.558-.606 16.963"/><path d="M23.533 22.458c-4.34-3.9-2.523-10.708-1.36-15.53"/></g><path d="M15.116 3.464c.264 1.304.192 2.178-.216 2.622-2.166 2.36-3.01 3.267-5.445 6.626-.033.046-.023.166.033.167.27.003.572-.006.795-.16 1.562-1.07 2.77-2.694 4.5-3.465 2.328-1.038-3.194 2.55-1.857 3.248.546.286 10.093-1.028 7.006-.412s-7.67 1.47-7.286 1.972c1.605 2.095 2 3.054 1.605 4.93" class="B C D H"/><g class="T B C D"><path d="M9.318 5.973C7.916 9.7 6.04 18.778.518 19.83c-.07.013-.106-.095-.16-.142"/><path d="M8.48 3.464C7.212 9.757 5.336 15.317.12 18.994"/><path d="M7.765 1.075c-1.62 5.86-2.44 12.23-7.406 16.246"/><path d="M6.092 1.314C4.594 7.598 4.43 11.733 0 16.127"/></g><path d="M7.623.052c-.677 0 .407 4.177.832 5.142.36.816 1.35 1.23 2.97 1.247 1.793.055 3.04-.354 3.74-1.228l.107-.138c.832 1.67 2.51 2.145 4.543 2.145 4.703 0 6.58-2.85 5.827-7.167H7.623zm8.302 1.595l7.998-.112.002.03c.106 1.376-.133 2.4-.67 3.08L23.2 4.7c-.643.756-1.84 1.15-3.653 1.15-1.24 0-2.688-.485-3.314-2.034l-.146-.438c-.07-.263-.066-.68-.104-1.18l-.058-.562zm-7.038.135h5.803l-.01.854c-.047 1.92-.455 2.778-3.856 2.847l-.634.006c-.082 0-.125-.013-.202-.066-.162-.112-.34-.334-.504-.674-.267-.554-.453-1.33-.55-2.324l-.048-.643z" fill="#00ffce" class="E"/><g class="O"><use xlink:href="#U" transform="matrix(-1 0 0 1 27.11674 0)"/><use xlink:href="#U" x="3.464" transform="matrix(-1 0 0 1 34.045246 0)"/></g><g class="P"><path d="M2.972 34.245c.767 1.123 3.985.832 2.26-1.444s-3.028.32-2.26 1.444z" transform="matrix(-1 0 0 1 8.481448 0)"/><path d="M7.095 36.17c.788 1.084 3.667.394 1.894-1.803s-2.683.72-1.894 1.803z" transform="matrix(-1 0 0 1 16.36561 0)"/><path d="M12.6 36.815c.798 1.125 3.665.616 1.872-1.665s-2.67.54-1.872 1.665z" transform="matrix(-1 0 0 1 27.355654 0)"/><path d="M17.986 36.116c.81 1.107 3.57.53 2.392-1.424s-3.203.316-2.392 1.424z" transform="matrix(-1 0 0 1 38.465156 0)"/><path d="M22.263 34.797c.77 1.095 3.155.57 2.272-1.408s-3.042.313-2.272 1.408z" transform="matrix(-1 0 0 1 46.827146 0)"/></g></g></g><g class="I"><rect x="274.56" y="36.96" width="151.8" height="15.84" rx="7.92"/><rect x="105.6" y="36.96" width="93.72" height="15.84" rx="7.92"/></g><rect x="443.52" y="36.96" width="151.8" height="15.84" rx="7.92" class="L"/><g transform="translate(0 192.72)"><use xlink:href="#F" class="G"/><g class="I"><rect x="274.56" y="36.96" width="120.12" height="15.84" rx="7.92"/><rect x="105.6" y="36.96" width="151.8" height="15.84" rx="7.92"/></g><rect x="443.52" y="36.96" width="151.8" height="15.84" rx="7.92" class="L"/></g><g transform="translate(0 289.08)"><use xlink:href="#F" class="G"/><g transform="translate(26 17.88)"><use xlink:href="#G" class="E K"/><g transform="translate(7.27 16.448)"><g transform="translate(0 .007)"><use xlink:href="#H" class="N"/><g transform="translate(21.203 2.12)" class="O"><use xlink:href="#I"/><use xlink:href="#J"/></g><use xlink:href="#K" class="E P"/><g class="B C D H"><use xlink:href="#L"/><use xlink:href="#M"/></g><g class="J B C D"><use xlink:href="#N"/><use xlink:href="#O"/><use xlink:href="#P"/><path d="M31.616 15.77l-.928 5.695"/><use xlink:href="#Q"/><use xlink:href="#R"/><use xlink:href="#S"/></g><path d="M23.8 10.55c-.148.398-.443.79-.935.813" class="B C D H"/></g></g></g><g class="I"><rect x="274.16" y="36.36" width="129.36" height="15.84" rx="7.92"/><rect x="105.2" y="36.36" width="151.8" height="15.84" rx="7.92"/></g><rect x="443.12" y="36.36" width="151.8" height="15.84" rx="7.92" class="L"/></g><g transform="translate(0 96.36)"><use xlink:href="#F" class="G"/><g class="I"><rect x="274.56" y="36.96" width="129.36" height="15.84" rx="7.92"/><rect x="105.6" y="36.96" width="76.56" height="15.84" rx="7.92"/></g><rect x="443.52" y="36.96" width="151.8" height="15.84" rx="7.92" class="L"/></g><g transform="translate(0 385.44)"><use xlink:href="#F" class="G"/><g class="I"><rect x="274.56" y="36.96" width="120.12" height="15.84" rx="7.92"/><rect x="105.6" y="36.96" width="151.8" height="15.84" rx="7.92"/></g><rect x="443.52" y="36.96" width="151.8" height="15.84" rx="7.92" class="L"/></g><g transform="translate(27.72 211.2)"><use xlink:href="#G" class="E K"/><g transform="translate(1.669 5.602)"><path d="M2.963 29.743c.03-13.022 17.27-24.56 27.18-24.552 15.05.012 11.313 25.136 10.622 25.183-4.26.292-16.862.082-37.803-.63z" transform="matrix(.956305 -.292372 .292372 .956305 -4.242322 7.305674)" class="M"/><g transform="translate(14.66 7.39)" fill="#f1f4f6"><path d="M22.607 6.666c.65 5.183-4.426 18.265-9.786 17.546-4.502-.604-7.124-4.427-8.512-8.52C4.074 15 .596 16.805.12 13.587S3.437 12.39 3.337 11.8C3.004 9.824 3.03 8.15 3.08 6.8c.008-.21 1.144-.865 3.573-1.25 1.087-.173 2.433-.292 4.052-.294 2.3-.003 4.89.224 7.058.5.623.08.053-5.728.59-5.645.548.084 2.202 6.057 2.628 6.136 1 .184 1.615.34 1.624.41z"/></g><g transform="translate(22.765 14.422)"><g transform="translate(6.555 1.073)" class="B C D H"><path d="M.596 0C.9 2.825 2.98 1.896 2.98.01"/><path d="M.715 1.55L0 2.503"/><path d="M1.788 1.907l-.477 1.55"/><path d="M2.384 1.67l.358 1.31"/></g><path d="M5.363 0l3.51 5.162c.18.22.526.484.422.755-.096.25-2.372.438-2.572.034-.103-.21-.133-.935-.127-.698.043 1.458.17 2.378.383 2.76" fill="#f3fff6" class="B C D J"/><g transform="translate(.358 .953)" class="B C D H"><path d="M.527.2C.082 2.073 2.724 2.3 3.218 0"/><path d="M.834 1.55L0 2.145"/><path d="M1.722 1.67L1.64 2.74"/><path d="M2.503 1.55l.358.834"/></g><path d="M4.962 8.4c.766-.145.858.962 1.394.646.27-.16.417-.558.73-.595.475-.057 1.222.154 2.24.63L7.483 10.74c-1.15 1.063-6 .016-7.21-.556l3.718.05c5.508-.856 4.268-.873-3.718-.05C1.357 9.06 4.196 8.554 4.962 8.4z" transform="matrix(.956305 .292372 -.292372 .956305 3.073851 -.975024)" class="U"/></g></g></g><g transform="translate(27.72 117.48)"><use xlink:href="#G" class="E K"/><path d="M33.836 19.587C39.9 23.37 44.16 31.217 46.614 43.13c-4.83 5.904-12.172 9.67-20.393 9.67-8.36 0-15.808-3.894-20.634-9.966.444-2.998 1.045-5.642 1.802-7.938.818-2.48 3.413-6.733 7.785-12.76l1.335-1.82c6.227.333 11.67.1 16.26-.563l1.065-.164z" class="N"/><g class="B C D J"><path d="M13.8 39.875c3.593 1.85 5.907-.515 8.33-3.088"/><path d="M26.173 37.205c.494 2.135.804 3.473 2.027 5.196.03.04-.098.025-.147.037"/><path d="M30.466 41.737c-2.45-1.455-.978-.36-3.722-4.054"/><path d="M35.514 40.687c-3.328-.226-6.756-1.434-9.287-3.648"/><path d="M35.81 38.605c-1.753.25-5.33 2.038-9.508-1.806"/><path d="M35.68 36.08c-4.58.922-1.75.557-8.55.387"/><path d="M17.252 42.757c2.043-1.626 5.057-3.427 5.6-6.27"/><path d="M20.182 42.725c2.43-1.605.72-.273 3.5-5.48"/><path d="M22.874 42.868c1.84-3.584 1.234-1.82 2.01-5.226"/><path d="M25.788 42.456c-1.376-2.8-.87-1.197-1.204-4.893"/><path d="M28.543 42.32c-2.116-2.862-1.088-1.165-2.82-5.242"/><path d="M15.985 34.522c1.855 1.095 4.42 3.12 6.445 1.3"/><path d="M14.908 36.993c1.18.316 7.142 2.08 7.03-.934"/><path d="M19.282 21.096c-.14 1.27-.14 2.065 0 2.384.89 2.027 2.282 1.35 2.86-.834"/><path d="M23.096 19.666c-2.702 11.68-2.503 17.52.596 17.52s4.172-2.066 3.218-6.198l-.477-10.608c1.43 5.006 2.78 5.244 4.052.715" class="N"/></g><g stroke="#ff5fa7" fill="#ff5fa7" class="B D"><path d="M13.56 30.83c-.688-.355-1.086-.673-1.192-.953-.566-1.496.576-2.308 2.622-1.192.08-1.748.755-2.82 2.026-3.218s1.5.675.715 3.218c1.265-.188 2.06-.188 2.384 0 1.085.63.58 2.166-1.67 3.1 1.112.953 1.27 1.947.477 2.98s-1.748.556-2.86-1.43c-1.59 1.907-2.82 2.384-3.695 1.43s-.477-2.265 1.192-3.933z"/><path d="M31.202 29.117c-.722-.37-1.14-.704-1.25-.998-.594-1.565.605-2.415 2.75-1.247.083-1.83.792-2.952 2.126-3.368s1.584.707.75 3.368c1.327-.197 2.16-.197 2.5 0 1.14.66.6 2.267-1.75 3.243 1.167.998 1.334 2.038.5 3.12s-1.834.582-3-1.497c-1.667 1.996-2.96 2.495-3.876 1.497s-.5-2.37 1.25-4.117z" transform="matrix(-.987688 .156434 .156434 .987688 63.240866 -4.977164)"/></g><g fill="#d41c61"><circle cx="16.243" cy="30.771" r="1.49"/><circle cx="34.067" cy="28.842" r="1.49"/></g><path d="M34.696 19.88c4.908-.88 7.65-1.514 8.224-1.907l-1.073-2.98-8.94 1.788c-.556-8.66-2.106-12.99-4.648-12.99-.827 0-1.78 1.192-2.86 3.576-1.5-4.61-3.1-5.483-4.767-2.622s-2.543 7.19-2.622 12.99c-2.625-.084-4.57-.195-5.84-.332s-2.262-.344-2.98-.62v2.74c-.128.132.754.32 2.646.563a73.95 73.95 0 0 0 5.697.509c2.304.176 8.025-.063 17.163-.715z" class="M"/></g><g transform="translate(29.04 403.92)"><use xlink:href="#T" class="E K"/><g transform="translate(2.674 11.395)"><path d="M19.267 3.644c-5.834 0-11.05 1.544-14.943 4-1.577.995-2.828 2.09-3.55 3.087-.435.6-.7 1.185-.73 1.797-.053 1.037.615 1.886 1.633 2.098l.088.017c.665.126 1.642.174 3.923.233l2.068.055c2.437.068 3.423.112 4.98.218l.316.022.274.02c2.357.177 4.332.438 5.9.804l.11.026v9.128c.21 2.148 2.525 3.223 6.944 3.223s9.447-1.246 15.086-3.737l-.784-6.767.055-.014c.805-.215 1.486-.517 2.045-.92 1.06-.765 1.633-1.87 1.633-3.166 0-1.495-.84-2.622-2.274-2.997l-.056-.014c-.615-.15-1.322-.167-2.14-.06l-.094.013-.146-1.26-.515-.41C34.53 5.42 27.91 3.644 19.267 3.644z" class="E N"/><g class="B C D J"><path d="M15.255 5.58c2.263.133 1.908.183 3.525-1.393"/><path d="M15.475 6.737c1.78-.127 1.967-.807 3.187-2.303"/><path d="M19.44 4.346c.448 1.145 1.216 1.224 2.41 1.13"/><path d="M19.44 4.36c.263 2-.202 1.163 1.528 2.435"/></g><g stroke="#fff" class="B D"><path d="M16.37.694c2.12-1.943 3.21.638 2.982 2.303-.275 2-1.912 3.564-3.452 4.665-.02.015-1.367.923-1.762.572-.952-.844-.575-2.74-.176-3.872s1.424-2.765 2.41-3.667z"/><g class="C"><path d="M19.176 4.904c.35-1.075.584-2.432 1.542-3.198C22.778.06 24.767.604 24.2 3.437c-.3 1.55-1.6 3.38-2.732 4.46-1.468 1.4-2.746-.513-2.526-1.907.107-.676.362-1.32.543-1.98"/></g></g><g class="J B C D"><path d="M26.344 3.54c.483 2.83.753 4.995 2.644 7.232 2.77 3.278 8.928 1.904 11.5-.91"/><path d="M28.708 3.906c-.514 3.76-.202 8.013 4.553 8.654.33.044 2.522.163 3.334-.117 1.966-.678 2.047-1.087 3.92-2.61"/><path d="M29.575 3.936c1.662 3.44 6.093 11.435 10.53 6.234"/><path d="M31.778 4.346c.4 2.114.586 4.253 1.998 5.985 1.87 2.294 5.682 1.824 7.27-.41"/><path d="M32.864 4.728c1.066 2.692 3.082 7.207 6.74 5.706"/><path d="M34.172 5.007c.885 1.4 2.714 4.955 4.538 5.325.7.144 1.45-.02 2.174-.03"/><path d="M18.604 16.99c1.79-.63 3.235.668 5.067.337.886-.16 1.968-1.124 2.614-1.614"/></g></g><path d="M18.605 35.35l7.558 4.186 11.86-4.186-.698 8.837-11.163-3.372-9.535 3.372z" class="B D J M"/></g><g transform="translate(29.04 601.92)"><use xlink:href="#T" class="E M"/><g transform="translate(5.93 5.465)"><g transform="translate(0 6.744)"><path d="M12.348 12.21H.028C-.378 4.07 3.575 0 11.89 0h21.803l.388 9.44c2.823-.422 4.234.152 4.234 1.722s-1.298 2.507-3.894 2.81l.754 14.544-22.827.436v-7.688c4.554.02 7.492-.557 8.815-1.73s1.788-3.616 1.395-7.326h-10.21z" stroke="#ff243a" stroke-width="3.177" class="U"/><g transform="translate(7.558 11.861)" stroke="#06f" class="B C D"><path d="M2.693.065C2.8 2.4 2.23 5.256 0 6.532"/><path d="M3.666.065C3.13 2.462 2.308 4.41.592 6.258"/><path d="M4.532.065C3.958 2.672 2.634 5.182.265 6.585"/><path d="M5.567.065C5.004 2.135 2.87 6.383.02 6.753"/><path d="M6.54.065c-.743 2.68-2.648 6.6-5.885 6.6"/><path d="M11.867 7.326c-.804.214-3.104-1.923-3.924-3.14-.547-.81-.867-2.177-.96-4.1"/><path d="M7.768.065c.398 2.368.192 5.368 2.294 6.82"/><path d="M8.522 0c-.43 1.182 1.68 6.402 2.877 6.573"/><path d="M9.068.065c.884 2.2 1.363 4.49 3.036 6.184"/><path d="M9.9.065c1.038 2.44 1.254 4.788 3.32 6.387"/><path d="M7.185.065c1.254 3.793 1.96 5.4 5.706 6.113"/></g></g><g transform="translate(9.971)" class="B D"><g class="J"><path d="M2.964 6.507c1.3-.512 2.544-1.21 3.903-1.537.19-.046.207.343.247.535.1.48.197.974.17 1.464-.08 1.444-.487 3.264-1.496 4.393-1.323 1.48-2.65.22-2.997-1.34-.353-1.588-.192-1.73.082-3.17l.09-.343z"/><path d="M12.33 5.075c.497.28.954.648 1.492.837.84.296 1.97-.023 2.604.604.492.488.14 1.385.1 2.077-.06 1.08-.443 3.378-1.624 3.862-1.923.788-3.185-1.3-3.263-2.938-.03-.657-.053-1.32.04-1.972.104-.72.366-1.41.55-2.114l.1-.357z"/><g class="M"><use xlink:href="#V"/><use xlink:href="#V" x="9.767" y="0.582"/></g></g><g stroke="#06f" class="C"><path d="M13.156 4.835c1.393-1.174 2.675-2.954 4.178-3.522 1.233-.466-4.518 4.02-3.34 3.206l-.675.948c5.553-3.836 4.545-4.76-.004.95-.926 1.162 1.937-2.092 2.95-2.985.59-.52 2.387-1.897 1.84-1.243-1.375 1.647-2.884 2.893-4.352 4.25-.478.44-1.994 1.415-1.48 1.14 1.044-.56 2.07-1.234 3.074-1.993 1.05-.794 3.304-4.693 3.086-2.662-.15 1.398-5.07 4.153-5.788 4.67-.213.153-.803.795-.59.64l4.206-3.272c.502-.354 2.042-1.213 1.557-.787l-.4.493c-4.073 3.582-6.914 5.557.23.235" transform="matrix(.615661 .788011 -.788011 .615661 9.608522 -10.165402)"/><path d="M1.563 1.395c1.378.6 5.202 2.208 5.165 3.312-.084 2.503-3.183-2.57-4.62-2.322-.058.01.006.2.06.23l.805.613L5.32 4.432c.393.224 1.51 1.076 1.14.787-1.103-.86-4.233-3.75-3.34-2.502l-1.9-.534c.955 1.335 2.328 1.93 3.527 2.806 4.29 3.134-2.843-2.753-3.53-1.833-.114.153.216.334.356.44l2.973 2.04c.494.312 2.013 1.12 1.52.804-.902-.577-3.508-2.484-2.75-1.59l-1.857-.366c.648.763 4.283 2.03 5.202 2.378" transform="matrix(.71934 -.694658 .694658 .71934 -1.756025 3.909591)"/></g></g></g></g><g transform="translate(29.04 889.68)"><use xlink:href="#T" fill="#001d71" class="E"/><g transform="translate(9.768 12.093)"><path d="M7.37 2.037L29.957 3.61c.33 1.3.49 3.84.48 7.628l.056-.035c.296-.183.536-.298 1.034-.407l.067-.014c.646-.132 2.04-.297 2.577-.158 1.468.38 2.15 2.244 1.305 3.494-1.068 1.58-3.29 2.63-5.132 2.08l-.018.558-.37 8.27c-7.733 1.107-17.704 1.107-29.913 0C-.36 17.4 2.03 9.824 7.21 2.266l.158-.23z" fill="#00ffce"/><g class="M"><g class="E"><g transform="translate(5.464)"><path d="M.424.177a.31.31 0 0 1 .304.315L.726.53l-.01.15L.692 1l-.01.14-.023.71c.01.5.086.866.226 1.045.593.758 1.61 1.525 2.6 1.928 1.154.464 2.165.417 2.885-.214a.31.31 0 0 1 .437.029.31.31 0 0 1-.029.437c-.92.808-2.174.866-3.523.323C2.162 4.954 1.058 4.12.398 3.276.15 2.96.05 2.486.04 1.86c-.005-.258.006-.516.03-.834l.028-.36.01-.14L.11.48A.31.31 0 0 1 .424.177z"/><path d="M2.185.35a.31.31 0 0 1 .396.185c.694 1.91 1.29 2.79 2.56 3.426l.173.086.268.126c.24.107.46.188.663.24.41.104.69.074.843-.084l.015-.016a.31.31 0 0 1 .436-.034.31.31 0 0 1 .034.436c-.337.394-.853.457-1.48.298a4.58 4.58 0 0 1-.683-.239l-.08-.035-.426-.204-.04-.02C3.42 3.79 2.742 2.793 2 .747A.31.31 0 0 1 2.185.35z"/><path d="M4.558.047a.31.31 0 0 1 .37.233l.034.15c.253 1.096.465 1.753.796 2.335.433.76 1 1.21 1.82 1.342a.31.31 0 0 1 .255.355.31.31 0 0 1-.355.255C6.47 4.55 5.74 3.984 5.22 3.07c-.385-.676-.615-1.4-.896-2.653a.31.31 0 0 1 .233-.37z"/><path d="M6.716 1.018l.098-.53a.31.31 0 0 1 .35-.239.31.31 0 0 1 .261.334l-.003.02-.146.807-.06.4-.013.093c-.065.478-.086.843-.056 1.018.326 1.856 2.106 3.037 3.974 2.626.615-.135 1.016-.348 1.5-.755l.075-.065.762-.678a.31.31 0 0 1 .436.032.31.31 0 0 1-.032.436l-.05.044-.793.704c-.556.468-1.045.728-1.765.886-2.21.487-4.33-.92-4.716-3.123-.045-.26-.022-.666.052-1.208l.06-.397.017-.104.05-.292z"/><path d="M8.576.78a.31.31 0 0 1 .309.309l.001.34c.004.266.017.306.07.422l.01.022.73 1.313.062.116c.962 1.8 2.02 1.982 3.684.774a.31.31 0 0 1 .432.068.31.31 0 0 1-.068.432c-1.935 1.407-3.417 1.167-4.56-.92l-.146-.27-.706-1.274-.02-.042c-.106-.24-.1-.325-.1-.982A.31.31 0 0 1 8.576.78z"/><path d="M10.322.776a.31.31 0 0 1 .387.204c.563 1.82 1.402 2.787 2.92 3.147a.31.31 0 0 1 .23.373.31.31 0 0 1-.373.23c-1.757-.418-2.745-1.557-3.367-3.566a.31.31 0 0 1 .204-.387z"/><path d="M13.14.6a.31.31 0 0 1 .314.305v.08l-.008.37-.025.543c-.024.57-.013.856.06 1.185.31 1.412 1.324 2.196 2.753 2.3 1.317.105 2.79-.4 3.705-1.264a.31.31 0 0 1 .437.012.31.31 0 0 1-.012.437c-1.043.985-2.7 1.55-4.18 1.43-1.687-.134-2.937-1.1-3.308-2.795-.09-.405-.1-.733-.07-1.388l.023-.5.007-.42A.31.31 0 0 1 13.14.59z"/><path d="M15.158.504a.31.31 0 0 1 .305.314l-.001.044a2.68 2.68 0 0 1-.031.3l-.01.07c-.048.32-.05.443 0 .557a8.01 8.01 0 0 0 1.488 2.229c.75.766 1.5 1.097 2.2.902.16-.045.288-.12.55-.32l.156-.12.278-.196a.31.31 0 0 1 .427.097.31.31 0 0 1-.097.427l-.048.03-.166.12-.182.14c-.32.243-.494.346-.75.417-.96.268-1.917-.155-2.808-1.065-.66-.674-1.257-1.604-1.612-2.414-.1-.25-.11-.447-.052-.852l.023-.16.02-.22a.31.31 0 0 1 .314-.305z"/><path d="M17.067.614a.31.31 0 0 1 .365.242l.132.642.03.13.023.104c.38 1.668.8 2.035 2.617 2.216a.31.31 0 0 1 .277.338.31.31 0 0 1-.338.277l-.127-.013c-2-.218-2.6-.797-3.03-2.67l-.064-.292-.126-.6a.31.31 0 0 1 .242-.365z"/><path d="M19.95.745a.31.31 0 0 1 .322.296l.005.15.004.336v.63l.023 1 .002.036c.106 1.708.597 2.608 1.767 2.73.666.07 1.334.052 2.346-.035.343-.03.577-.12.86-.314l.04-.027.63-.48a.31.31 0 0 1 .432.068.31.31 0 0 1-.068.432l-.1.075-.52.397-.014.01c-.384.274-.727.413-1.204.454l-.18.015c-.95.077-1.61.088-2.28.02-.842-.087-1.443-.504-1.82-1.195-.29-.53-.437-1.194-.496-2.03l-.005-.08-.027-.956v-.8l-.008-.394a.31.31 0 0 1 .296-.322z"/><path d="M21.513.71a.31.31 0 0 1 .322.297l.004.114.01.433.005.86c.01.985.043 1.465.163 2.015.17.78.5 1.402 1.06 1.924.747.696 2.87-.12 2.914-1.053V5.27a.31.31 0 0 1 .309-.309.31.31 0 0 1 .309.309c0 1.5-2.816 2.596-3.955 1.535-.658-.613-1.047-1.348-1.243-2.245l-.016-.075c-.123-.596-.155-1.122-.162-2.188l-.003-.6-.002-.2-.012-.466a.31.31 0 0 1 .297-.322z"/><path d="M22.746 2.196a.31.31 0 0 1 .337-.279.31.31 0 0 1 .28.318l-.001.02c-.056.587.354 2.057.907 3.047.66 1.178 1.307 1.497 1.966.836a.31.31 0 0 1 .438 0 .31.31 0 0 1 0 .438c-.54.54-1.134.665-1.705.385-.458-.225-.873-.7-1.24-1.356-.61-1.09-1.052-2.68-.983-3.407z"/></g><path d="M14.575 6.145l.05-.025c.14-.065.236-.083.368-.02.15.07.207.214.192.353-.007.064-.028.124-.06.192-.077.16-.24.337-.458.518l-.05.042.015.01a.31.31 0 0 1 .13.292l-.003.02c-.005.026-.01.05-.02.07l-.002.004.025-.003c.007-.001.014-.001.024 0l.06.006.03.01c.08.024.1.037.19.166l.018.083c.012.06.012.08.002.116L15.08 8l.016.006c.065.025.122.072.158.137l.01.018a.31.31 0 0 1-.128.403l-.87.424-1.545.72-.494.218-.12.052c-.897.386-1.638.662-2.183.803-.334.086-.596.123-.797.1-.323-.037-.54-.253-.494-.583a1.14 1.14 0 0 1 .648-.899l.043-.02.002-.01c.002-.012.006-.025.01-.04l.02-.054.027-.04c.024-.035.03-.04.058-.062l.033-.022c.016-.01.022-.013.033-.018l.03-.01c.024-.008.046-.013.105-.022l.108-.017.403-.047.106-.01.034-.005.19-.03.13-.02-.045.002c-.648.03-1.2-.04-1.46-.26l-.02-.017c-.194-.18-.283-.392-.127-.607.096-.132.233-.182.432-.206l.034-.004c.222-.023.446-.016 1.02.018l.378.023c.447.025.694.026.87.002.257-.036.59-.142.935-.284l.034-.014-.09.01-1.255.085-.785.034-.73.044a.31.31 0 0 1-.333-.284.31.31 0 0 1 .284-.333l.157-.012.468-.027.894-.04c.937-.043 1.407-.086 1.968-.192.1-.02.278-.105.52-.25l.072-.044.14-.09.306-.196.065-.04.227-.13zm-3.47 3.568l-.16.007c-1.12.05-1.55.17-1.67.533l-.002.006h.005c.106-.003.26-.03.45-.076l.04-.01c.322-.083.728-.222 1.205-.407l.132-.052z"/></g><path d="M11.295 10.418c1.44.875.768 1.715.217 3.535-.618 2.043-1.33-.47-1.422-1.163-.26-1.97.14-2.76 1.205-2.372z"/><g class="E"><path d="M16.59 6.943l.302.025 1.26.1.097.01c.177.018.25.035.347.082l.016.008.045.022c.12.06.2.09.363.147l.102.034c.423.14 1.088.322 2.066.562l.07.017c.162.04.433.074.86.113l.708.063.15.015c.17.02.282.037.358.06a.39.39 0 0 1 .151.078.32.32 0 0 1 .029.466c-.075.08-.146.105-.3.135-.728.152-1.982.164-3.154.055L20 8.928l.002.002.635.396.08.044c.07.038.23.086.45.136l.07.016.513.104.042.01.035.008.015.004c.055.015.085.025.125.052l.034.025c.04.03.046.045.103.175l-.005.072c-.01.126-.02.152-.08.21l-.034.032-.004.003.204.05.117.032.007.002a.64.64 0 0 1 .099.045c.076.044.132.096.162.202a.34.34 0 0 1 .013.128l-.002.016.008.007.02.02c.143.157.112.392-.065.51-1.122.74-2.394.807-3.787.332-1.03-.35-2.007-.933-3.247-1.838a.31.31 0 0 1-.068-.432.31.31 0 0 1 .432-.068l.16.117c1.117.804 2.008 1.324 2.92 1.635.94.32 1.79.362 2.563.083l.046-.017-.067-.014-.547-.12-.078-.018-.036-.003c-.642-.06-1.097-.128-1.546-.24l-.052-.013c-.667-.17-1.252-.38-1.78-.643a1.87 1.87 0 0 1-.417-.291l-.078-.07-.072-.03-.988-.4-.13-.055a.53.53 0 0 1-.075-.039.29.29 0 0 1-.149-.21c-.023-.112.016-.222.095-.294a.31.31 0 0 1 .13-.073.38.38 0 0 1 .104-.014 1.58 1.58 0 0 1 .27.03l.333.073.016.004v-.002c-.043-.098-.07-.2-.083-.307l-.003-.03c-.014-.165.06-.278.173-.344l.005-.003-.013-.014-.017-.02c-.07-.09-.104-.21-.05-.33l.003-.007-.01-.001a.31.31 0 0 1-.263-.313l.001-.02a.31.31 0 0 1 .335-.282zm.843 1.8l.014.01c.318.228.817.456 1.47.673l.032.01-.072-.03-.124-.054-.14-.062-1.18-.547zm.688-1.057l.01.005a5.07 5.07 0 0 1 .771.434l.045.03.067.013 1.154.152.053.005-.3-.08-.882-.253-.113-.036-.085-.028-.303-.113-.027-.01-.087-.04-.037-.018-.065-.032c-.022-.01-.045-.014-.137-.023l-.066-.006z"/><path d="M15.814 9.925a.31.31 0 0 1 .436.033.31.31 0 0 1-.018.422l-.016.014c-.065.056-.116.184-.135.35-.065.58-.073 1.14-.017 1.67.182 1.732 1.644 3.148 3.13 2.73.36-.1.96-.8 1.55-1.808a12.62 12.62 0 0 0 .627-1.201l.035-.08c.15-.34.237-.61.24-.695v-.008a.31.31 0 0 1 .302-.317.31.31 0 0 1 .317.302c.01.36-.412 1.326-.96 2.264l-.03.05c-.673 1.14-1.342 1.927-1.915 2.09-1.91.54-3.694-1.188-3.912-3.26-.06-.577-.053-1.18.017-1.805.035-.307.14-.574.346-.75z"/><path d="M10.197 8.828c.21-.18.48-.136.718.002a.31.31 0 0 1 .112.423.31.31 0 0 1-.405.122l-.018-.01c-.01-.006-.023-.012-.034-.017l-.01-.004-.006.008c-.04.062-.07.153-.085.265l-.004.03a7.73 7.73 0 0 0-.016 1.671c.103.975.682 1.97 1.46 2.47a.31.31 0 0 1 .094.427.31.31 0 0 1-.427.094c-.94-.603-1.62-1.77-1.742-2.926-.06-.577-.054-1.18.016-1.805.034-.307.14-.574.346-.75z" transform="matrix(.97437 .224951 -.224951 .97437 2.87442 -2.161449)"/><path d="M14.753 8.262a.31.31 0 0 1 .408-.158.31.31 0 0 1 .158.408l-.043.097c-.487 1.078-1.023 1.88-2.233 3.477l-.317.417c-.936 1.238-1.39 1.898-1.808 2.702l-.537 1.043-.174.347-.244.517c-.218.484-.366.885-.432 1.19-.033.155-.043.276-.032.357.003.022.007.038.01.048l.001.002.036.02c1.426.75 4.157-.43 5.173-2.03l.03-.05c.286-.47.733-.522 1.197-.263.154.086.305.2.48.353l.058.052.393.358c1.417 1.146 2.142 2.59 2.26 4.306.1 1.442-.224 3.036-.912 4.873a.31.31 0 0 1-.398.181.31.31 0 0 1-.181-.398c1.41-3.764 1.237-6.493-1.087-8.423l-.07-.058c-.08-.065-.408-.37-.43-.39-.162-.145-.295-.247-.413-.313-.193-.108-.27-.104-.357.03l-.01.016c-.515.844-1.545 1.672-2.68 2.163-1.258.545-2.5.622-3.4.108-.33-.187-.383-.564-.274-1.072.077-.355.238-.792.473-1.312l.207-.442.088-.18.63-1.228c.468-.913.95-1.613 2.01-3l.32-.422c1.145-1.515 1.642-2.275 2.1-3.315z"/><path d="M12.975 18.416a.31.31 0 0 1 .356.254c.206 1.237.227 2.41.096 3.73l-.197 1.494-.034.213-.057.346-.294 1.71-.098.595a.31.31 0 0 1-.354.257.31.31 0 0 1-.257-.354l.04-.25.058-.35.084-.492.173-1 .078-.464.015-.095.226-1.67c.126-1.267.106-2.387-.1-3.567a.31.31 0 0 1 .254-.356z"/><path d="M18.544 21.112a.31.31 0 0 1 .421.121.31.31 0 0 1-.121.421l-.148.08c-2.398 1.305-3.698 1.362-6.095.22a.31.31 0 0 1-.146-.412.31.31 0 0 1 .412-.146l.134.063c2.168 1 3.263.917 5.542-.347z"/></g><path d="M16.014 10.07c1.44.875 2.315 2.332 1.764 4.152-.618 2.043-2.092-.738-2.184-1.43-.39-2.956.308-.898.308-2.357"/></g></g></g></g><g filter="url(#C)" transform="translate(463 166.741)"><path d="M0 0h619v231H0z" class="G V W"/><path d="M564.75 176.25a3.5 3.5 0 1 1 0-7 3.5 3.5 0 0 1 3.5 3.5c0 1.93-1.568 3.5-3.5 3.5m25.737 7.513l-19.25-19.25A1.75 1.75 0 0 0 570 164h-12.25a1.75 1.75 0 0 0-1.75 1.75V178c0 .464.185.9.513 1.237l19.25 19.25c.34.34.79.513 1.237.513s.896-.172 1.237-.513l12.25-12.25a1.75 1.75 0 0 0 0-2.474" class="R"/><g transform="translate(0 244)" filter="url(#D)"><path d="M0 0h619v231H0z" class="G V W"/><path d="M564.75 184.25a3.5 3.5 0 1 1 0-7 3.5 3.5 0 0 1 3.5 3.5c0 1.93-1.568 3.5-3.5 3.5m25.737 7.513l-19.25-19.25A1.75 1.75 0 0 0 570 172h-12.25a1.75 1.75 0 0 0-1.75 1.75V186c0 .464.185.9.513 1.237l19.25 19.25c.34.34.79.513 1.237.513s.896-.172 1.237-.513l12.25-12.25a1.75 1.75 0 0 0 0-2.474" fill="#ff8100"/><path d="M226.07 184.222v-6.353c1.7-.278 3.133-.73 4.296-1.354s2.11-1.37 2.838-2.24 1.25-1.814 1.562-2.838.47-2.057.47-3.098c0-1.528-.27-2.864-.807-4s-1.285-2.144-2.24-2.994-2.083-1.606-3.385-2.265a38.5 38.5 0 0 0-4.244-1.823l-2.578-.963c-.712-.295-1.31-.6-1.797-.91s-.842-.668-1.068-1.068-.338-.877-.338-1.432c0-.903.365-1.632 1.094-2.187s1.927-.833 3.593-.833 3.255.174 4.765.52 2.838.764 3.984 1.25h0l1.614-6.25c-.764-.347-1.797-.694-3.098-1.042s-2.855-.608-4.66-.78h0v-5.416h-6.56v5.624c-1.528.278-2.847.72-3.958 1.328s-2.014 1.345-2.708 2.213-1.206 1.83-1.536 2.9-.495 2.16-.495 3.307c0 1.493.27 2.77.807 3.828a8.3 8.3 0 0 0 2.135 2.682c.885.73 1.875 1.345 2.968 1.85l3.36 1.38 3.125 1.172c.903.365 1.65.738 2.24 1.12s1.042.807 1.354 1.276.47 1.033.47 1.692c0 1.04-.39 1.85-1.172 2.42s-2.23.86-4.348.86c-1.875 0-3.654-.243-5.338-.73s-3.133-1.024-4.348-1.614h0l-2.24 5.99c.764.382 1.935.86 3.515 1.432s3.637.963 6.17 1.172h0v6.197h6.56zm29.58 0v-6.353c1.7-.278 3.133-.73 4.296-1.354s2.11-1.37 2.838-2.24 1.25-1.814 1.562-2.838.47-2.057.47-3.098c0-1.528-.27-2.864-.807-4s-1.285-2.144-2.24-2.994-2.083-1.606-3.385-2.265a38.5 38.5 0 0 0-4.244-1.823l-2.578-.963c-.712-.295-1.31-.6-1.797-.91s-.842-.668-1.068-1.068-.338-.877-.338-1.432c0-.903.365-1.632 1.094-2.187s1.927-.833 3.593-.833 3.255.174 4.765.52 2.838.764 3.984 1.25h0l1.614-6.25c-.764-.347-1.797-.694-3.098-1.042s-2.855-.608-4.66-.78h0v-5.416h-6.56v5.624c-1.528.278-2.847.72-3.958 1.328s-2.014 1.345-2.708 2.213-1.206 1.83-1.536 2.9-.495 2.16-.495 3.307c0 1.493.27 2.77.807 3.828a8.3 8.3 0 0 0 2.135 2.682c.885.73 1.875 1.345 2.968 1.85l3.36 1.38 3.125 1.172c.903.365 1.65.738 2.24 1.12s1.04.807 1.354 1.276.47 1.033.47 1.692c0 1.04-.39 1.85-1.172 2.42s-2.23.86-4.348.86c-1.875 0-3.654-.243-5.338-.73s-3.133-1.024-4.348-1.614h0l-2.24 5.99c.764.382 1.935.86 3.515 1.432s3.637.963 6.17 1.172h0v6.197h6.56zm29.58 0v-6.353c1.7-.278 3.133-.73 4.296-1.354s2.11-1.37 2.838-2.24 1.25-1.814 1.562-2.838.47-2.057.47-3.098c0-1.528-.27-2.864-.807-4s-1.285-2.144-2.24-2.994-2.083-1.606-3.385-2.265a38.5 38.5 0 0 0-4.244-1.823l-2.578-.963c-.712-.295-1.31-.6-1.797-.91s-.842-.668-1.068-1.068-.338-.877-.338-1.432c0-.903.365-1.632 1.094-2.187s1.927-.833 3.593-.833 3.255.174 4.765.52 2.838.764 3.984 1.25h0l1.614-6.25c-.764-.347-1.797-.694-3.098-1.042s-2.855-.608-4.66-.78h0v-5.416h-6.56v5.624c-1.528.278-2.847.72-3.958 1.328s-2.014 1.345-2.708 2.213-1.206 1.83-1.536 2.9-.495 2.16-.495 3.307c0 1.493.27 2.77.807 3.828a8.3 8.3 0 0 0 2.135 2.682c.885.73 1.875 1.345 2.968 1.85l3.36 1.38 3.124 1.172c.903.365 1.65.738 2.24 1.12s1.04.807 1.354 1.276.47 1.033.47 1.692c0 1.04-.39 1.85-1.172 2.42s-2.23.86-4.348.86c-1.875 0-3.654-.243-5.338-.73s-3.133-1.024-4.348-1.614h0l-2.24 5.99c.764.382 1.935.86 3.515 1.432s3.637.963 6.17 1.172h0v6.197h6.56z" class="E R"/><g transform="translate(25.483 32.432)"><use xlink:href="#W" class="E K"/><g transform="translate(22.967 51.959)"><g transform="translate(0 .022)"><use xlink:href="#X" class="N"/><g transform="translate(66.981 6.697)" class="O"><use xlink:href="#Y"/><use xlink:href="#Z"/></g><use xlink:href="#a" class="E P"/><g class="B C F H"><use xlink:href="#b"/><use xlink:href="#c"/></g><g class="J B C F"><use xlink:href="#d"/><use xlink:href="#e"/><use xlink:href="#f"/><path d="M99.875 49.816l-2.93 17.992"/><use xlink:href="#g"/><use xlink:href="#h"/><use xlink:href="#i"/></g><use xlink:href="#j" class="B C F H"/></g></g></g><g transform="translate(24 31)"><use xlink:href="#k" class="E K"/><g transform="translate(55 29)" class="B Q S"><path d="M29 22c-14 0-17 13-17 25S0 58 0 76s13 25 34 22 32-25 26-33c-4-5.333-8-12.667-12-22-3.333-14-9.667-21-19-21z" fill="#42be65"/><ellipse transform="matrix(.777146 -.62932 .62932 .777146 -41.615082 44.482634)" cx="42" cy="81" rx="5" ry="2" class="G"/><path d="M33 0c-6 8-7.333 15.333-4 22" class="C"/></g></g><g class="I"><rect x="208.494" y="95.015" width="233.977" height="27.799" rx="13.9"/><rect x="208.494" y="51" width="273.359" height="27.799" rx="13.9"/></g></g><g transform="translate(0 488)"><g filter="url(#D)"><path d="M0 0h619v231H0z" class="G V W"/><path d="M564.75 187.25a3.5 3.5 0 1 1 0-7 3.5 3.5 0 0 1 3.5 3.5c0 1.93-1.568 3.5-3.5 3.5m25.737 7.513l-19.25-19.25A1.75 1.75 0 0 0 570 175h-12.25a1.75 1.75 0 0 0-1.75 1.75V189c0 .464.185.9.513 1.237l19.25 19.25c.34.34.79.513 1.237.513s.896-.172 1.237-.513l12.25-12.25a1.75 1.75 0 0 0 0-2.474" class="X"/><g transform="translate(25.483 32.432)" class="E K"><use xlink:href="#W"/></g><g transform="translate(65 69)" class="S B Q"><g transform="translate(0 13)"><path d="M40.287 13c-13.333-17.333-25.333-17.333-36 0-16 26 17 63 30 55s11-8 17-4c1.943 1.295 15.59 6.446 21-1 11.297-15.546 21-50 7-57-7.744-3.872-14.953.55-29 7-1.36.624-4.692.624-10 0z" class="X"/><ellipse transform="matrix(.913545 -.406737 .406737 .913545 -2.207674 26.613713)" cx="61.5" cy="18.5" rx="6.5" ry="2.5" class="G"/></g><path d="M50.287 0c-7.333 8.667-9.667 17.333-7 26" class="C"/></g><g class="I"><rect x="208.494" y="95.015" width="233.977" height="27.799" rx="13.9"/><rect x="208.494" y="51" width="273.359" height="27.799" rx="13.9"/></g></g><use xlink:href="#l" class="E R"/></g><g transform="translate(25.483 32.432)"><use xlink:href="#W" class="E K"/><g transform="translate(22.967 51.959)"><g transform="translate(0 .022)"><use xlink:href="#X" class="N"/><g transform="translate(66.981 6.697)" class="O"><use xlink:href="#Y"/><use xlink:href="#Z"/></g><use xlink:href="#a" class="E P"/><g class="B C F H"><use xlink:href="#b"/><use xlink:href="#c"/></g><g class="J B C F"><use xlink:href="#d"/><use xlink:href="#e"/><use xlink:href="#f"/><path d="M99.875 49.816l-2.93 17.992"/><use xlink:href="#g"/><use xlink:href="#h"/><use xlink:href="#i"/></g><use xlink:href="#j" class="B C F H"/></g></g></g><g transform="translate(24 31)"><use xlink:href="#k" class="E K"/><g transform="matrix(.390731 -.920505 .920505 .390731 45.945779 120.600108)"><g transform="translate(.336 .724)"><mask id="m" class="G"><use xlink:href="#E"/></mask><use fill="#14591d" xlink:href="#E"/><g class="Q B"><path d="M66.444-6.04c-2.46 3.937 3.312 3.61 4.427 5.597.472.84-1 2.02-.508 2.85 1.538 2.6 5.456 4.216 6.615 8.244.233.81-2.747.05-2.392.814 5.412 11.626 3.433.347 6.056 8.65.17.534-1.45-.51-1.68 0l1.73 2.494c-6.22 13.847-.748-18.36-.356 2.646.13 7.026-.428-4.362-.05 2.9.04.746-2.22-.645-2.24.102-.024.962 2.46.96 2.188 1.883-1.32 4.49.332.446-.05 2.085-.244 1.042-2.635-.752-3.205.153-.496.787 2.445 1.594 1.73 2.188-1.136.942-3.602-1.173-4.427.05-.685 1.016 3.178 1.295 2.748 2.442l-2.9.866c-10.37 27.665 11.93-14.164-1.73 8.6-.646 1.077-3.346-.16-3.613 1.068-.34 1.555 2.734 2.497 2.494 4.07-.17 1.115-2.686-.056-3.257.916-.45.768 2.024 1.682 1.374 2.3-4.22 3.945-3.807.767-8.803 3.053-.757.346.678 1.847.153 2.494l-3.867-.204c-.85 1.05 1.787 3.032.814 3.97-1.21 1.166-3.69-.9-5.038.102l.508 2.9c-2.33 1.736-3.658-2.222-8.243.357-.837.47 2.635 2.252 1.68 2.34-1.788.165-3.21-1.785-4.987-2.035-5.403-.758-13.1 4.6-27.53.406" stroke-opacity=".446" stroke="#42be65" mask="url(#m)" transform="matrix(.5 .866025 -.866025 .5 51.341018 -25.075806)" class="C"/><path d="M2 2c1.525 32.667 17.19 49.667 47 51 28.245 1.263 43.245-17.07 45-55L2 2z" mask="url(#m)" class="S X"/></g></g><g transform="translate(32.599 8.093)" fill="#000" class="S B Q"><ellipse transform="matrix(.62932 -.777146 .777146 .62932 -2.279452 5.22103)" cx="4.333" cy="5" rx="4.333" ry="1.667"/><ellipse transform="matrix(-.62932 -.777146 -.777146 .62932 58.739517 28.017312)" cx="33.667" cy="5" rx="4.333" ry="1.667"/><ellipse transform="matrix(.017452 -.999848 .999848 .017452 9.669775 27.840035)" cx="19" cy="9" rx="4.333" ry="1.667"/></g></g></g><g class="I"><rect x="208.494" y="95.015" width="233.977" height="27.799" rx="13.9"/><rect x="208.494" y="51" width="273.359" height="27.799" rx="13.9"/></g><use xlink:href="#l" class="E R"/></g></g></svg>