<svg xmlns="http://www.w3.org/2000/svg" xmlns:xlink="http://www.w3.org/1999/xlink" width="653" height="1185" xmlns:v="https://vecta.io/nano"><style><![CDATA[.B{stroke:#f4f2ee}.C{fill:#eaeaea}.D{stroke-linejoin:round}.E{stroke-width:2.322}.F{stroke-linecap:round}.G{filter:url(#B)}.H{fill:#f4f2ee}.I{fill-rule:nonzero}]]></style><defs><filter x="-1.9%" y="-1.1%" width="103.7%" height="102.2%" id="A"><feOffset dy="1" in="SourceAlpha"/><feGaussianBlur stdDeviation="2"/><feColorMatrix values="0 0 0 0 0 0 0 0 0 0.160784314 0 0 0 0 0.349019608 0 0 0 0.1 0" result="C"/><feMerge><feMergeNode in="C"/><feMergeNode in="SourceGraphic"/></feMerge></filter><filter id="B"><feColorMatrix in="SourceGraphic" values="0 0 0 0 0.000000 0 0 0 0 0.112693 0 0 0 0 0.441384 0 0 0 0.434495 0"/></filter><path id="C" d="M22.586 41.43L3.192 22.03l11.392-11.396 7.446 7.45L33.956 4.96h-29C2.223 4.96 0 7.186 0 9.918v29.755c0 2.735 2.223 4.96 4.958 4.96H39.66c2.734 0 4.958-2.224 4.958-4.96V17.186L22.586 41.43z"/><path id="D" d="M22.415 34.245L10.203 22.03l4.382-4.384 7.617 7.62 22.6-24.87 4.586 4.168z"/></defs><g transform="translate(6 5)" fill="none" fill-rule="evenodd"><g filter="url(#A)"><g stroke-width="2.2" fill="#fff" class="B"><path d="M0 0h641.775v746.1H0z"/><path d="M0 756h641.775v379H0z"/></g><g transform="translate(1 776)"><g fill="#42be65"><g transform="translate(552)"><use xlink:href="#C"/><use xlink:href="#D"/></g><g transform="translate(552 95)"><use xlink:href="#C"/><use xlink:href="#D"/></g><g transform="translate(552 190)"><use xlink:href="#C"/><use xlink:href="#D"/></g></g><rect x="27.701" y="10" width="263.532" height="31.321" rx="13.9" class="C"/><path d="M0 70h640" class="B D E F"/></g><g transform="translate(1 882)"><rect x="27.701" width="263.532" height="31.321" rx="13.9" class="C"/><path d="M0 60h640" class="B D E F"/></g><g transform="translate(1 978)"><rect x="27.701" width="263.532" height="31.321" rx="13.9" class="C"/><path d="M0 60h640" class="B D E F"/></g><g transform="translate(1 1069)"><g transform="translate(552)" class="H"><rect width="44" height="40" rx="6"/></g><rect x="27.701" y="5" width="263.532" height="31.321" rx="13.9" class="C"/><path d="M0 65h640" class="B D E F"/></g><path d="M251.247 202.003v-6.353c1.7-.278 3.133-.73 4.296-1.354s2.11-1.37 2.838-2.24 1.25-1.814 1.562-2.838.47-2.057.47-3.098c0-1.528-.27-2.864-.807-4s-1.285-2.144-2.24-2.994-2.083-1.606-3.385-2.265a38.5 38.5 0 0 0-4.244-1.823l-2.578-.963c-.712-.295-1.31-.6-1.797-.91s-.842-.668-1.068-1.068-.338-.877-.338-1.432c0-.903.365-1.632 1.094-2.187s1.927-.833 3.593-.833 3.255.174 4.765.52 2.838.764 3.984 1.25h0l1.614-6.25c-.764-.347-1.797-.694-3.098-1.04s-2.855-.608-4.66-.78h0v-5.416h-6.56v5.624c-1.528.278-2.847.72-3.958 1.328s-2.014 1.345-2.708 2.213-1.206 1.83-1.536 2.9-.495 2.16-.495 3.307c0 1.493.27 2.77.807 3.828a8.3 8.3 0 0 0 2.135 2.682c.885.73 1.875 1.345 2.968 1.85l3.36 1.38 3.124 1.172c.903.365 1.65.738 2.24 1.12s1.04.807 1.354 1.276.47 1.033.47 1.692c0 1.04-.39 1.85-1.172 2.42s-2.23.86-4.348.86c-1.875 0-3.654-.243-5.338-.73s-3.133-1.024-4.348-1.614h0l-2.24 5.99c.764.382 1.935.86 3.515 1.432s3.637.963 6.17 1.172h0v6.197h6.56zm29.58 0v-6.353c1.7-.278 3.133-.73 4.296-1.354s2.11-1.37 2.838-2.24 1.25-1.814 1.562-2.838.47-2.057.47-3.098c0-1.528-.27-2.864-.807-4s-1.285-2.144-2.24-2.994-2.083-1.606-3.385-2.265a38.5 38.5 0 0 0-4.244-1.823l-2.578-.963c-.712-.295-1.31-.6-1.797-.91s-.842-.668-1.068-1.068-.338-.877-.338-1.432c0-.903.365-1.632 1.094-2.187s1.927-.833 3.593-.833 3.255.174 4.765.52 2.838.764 3.984 1.25h0l1.614-6.25c-.764-.347-1.797-.694-3.098-1.04s-2.855-.608-4.66-.78h0v-5.416h-6.56v5.624c-1.528.278-2.847.72-3.958 1.328s-2.014 1.345-2.708 2.213-1.206 1.83-1.536 2.9-.495 2.16-.495 3.307c0 1.493.27 2.77.807 3.828a8.3 8.3 0 0 0 2.135 2.682c.885.73 1.875 1.345 2.968 1.85l3.36 1.38 3.125 1.172c.903.365 1.65.738 2.24 1.12s1.04.807 1.354 1.276.47 1.033.47 1.692c0 1.04-.39 1.85-1.172 2.42s-2.23.86-4.348.86c-1.875 0-3.654-.243-5.338-.73s-3.133-1.024-4.348-1.614h0l-2.24 5.99c.764.382 1.935.86 3.515 1.432s3.637.963 6.17 1.172h0v6.197h6.56zm29.58 0v-6.353c1.7-.278 3.133-.73 4.296-1.354s2.11-1.37 2.838-2.24 1.25-1.814 1.562-2.838.47-2.057.47-3.098c0-1.528-.27-2.864-.807-4s-1.285-2.144-2.24-2.994-2.083-1.606-3.385-2.265a38.5 38.5 0 0 0-4.244-1.823l-2.578-.963c-.712-.295-1.31-.6-1.797-.91s-.842-.668-1.068-1.068-.338-.877-.338-1.432c0-.903.365-1.632 1.094-2.187s1.927-.833 3.593-.833 3.255.174 4.765.52 2.838.764 3.984 1.25h0l1.614-6.25c-.764-.347-1.797-.694-3.098-1.04s-2.855-.608-4.66-.78h0v-5.416h-6.56v5.624c-1.528.278-2.847.72-3.958 1.328s-2.014 1.345-2.708 2.213-1.206 1.83-1.536 2.9-.495 2.16-.495 3.307c0 1.493.27 2.77.807 3.828a8.3 8.3 0 0 0 2.135 2.682c.885.73 1.875 1.345 2.968 1.85l3.36 1.38 3.125 1.172c.903.365 1.65.738 2.24 1.12s1.04.807 1.354 1.276.47 1.033.47 1.692c0 1.04-.39 1.85-1.172 2.42s-2.23.86-4.348.86c-1.875 0-3.654-.243-5.338-.73s-3.133-1.024-4.348-1.614h0l-2.24 5.99c.764.382 1.935.86 3.515 1.432s3.637.963 6.17 1.172h0v6.197h6.56z" fill="#0d62fe" class="I"/><g class="G"><g transform="translate(44.357 289.722)" fill="#004d95"><path d="M24.2 7.388L5.348 26.513l12.53 12.702 18.865-19.123z"/><path d="M39.855 16.938l1.585-1.605c3.454-3.504 3.454-9.2-.002-12.707a8.79 8.79 0 0 0-12.533 0l-1.58 1.607 12.53 12.705z"/><path d="M14.09 41.687L2.74 44.564c-.75.187-1.543-.036-2.09-.59s-.766-1.357-.58-2.118L2.907 30.35 14.09 41.687z"/></g><g transform="translate(164.381 287.112)" fill="#000"><path d="M25.926 29.1l-15.772 3.156 3.154-15.78L25.306 4.464H4.46A4.47 4.47 0 0 0-.001 8.927V40.17a4.47 4.47 0 0 0 4.462 4.463h31.232a4.47 4.47 0 0 0 4.462-4.463V14.854L25.926 29.1z"/><path d="M17.418 18.667l6.31 6.31-7.886 1.578z"/><path d="M41.08 7.62c1.742-1.743 1.742-4.568 0-6.31a4.46 4.46 0 0 0-6.309 0L20.573 15.5l6.31 6.31L41.08 7.62z"/></g><g transform="translate(281.796 287.112)" fill="#000"><use xlink:href="#C"/><use xlink:href="#D"/></g></g><g transform="translate(407.039 289.722)" fill="#909dc2"><path d="M23.796 22.316h-6.94c-.547 0-.992.454-.992 1.014s.444 1.014.992 1.014h1.983c2.733 0 4.958 2.274 4.958 5.072 0 2.45-1.705 4.498-3.966 4.968v2.132h-3.966v-2.03h-3.966V30.43h6.94c.547 0 .992-.456.992-1.014s-.444-1.014-.992-1.014h-1.983c-2.733 0-4.958-2.276-4.958-5.072 0-2.45 1.705-4.498 3.966-4.968V16.23h3.966v2.03h3.966v4.058zm2.7-11.903l5.97-2.445L31 4.202l-6.18 2.53 2.556-3.485c.504-.688.53-1.625.065-2.34a1.96 1.96 0 0 0-2.132-.846l-7.452 1.9-7.452-1.9a1.96 1.96 0 0 0-2.132.846c-.464.714-.438 1.65.065 2.34l2.556 3.485-6.18-2.53L3.228 7.97l5.97 2.445c-5.48 3.118-9.2 9.1-9.2 15.96 0 10.067 8.007 18.26 17.847 18.26s17.847-8.192 17.847-18.26c0-6.86-3.72-12.842-9.2-15.96h0z"/></g><g class="G"><g transform="translate(519.235 289.722)" fill="#000"><ellipse cx="5.871" cy="5.873" rx="5.871" ry="5.873"/><ellipse cx="5.871" cy="22.316" rx="5.871" ry="5.873"/><ellipse cx="5.871" cy="38.76" rx="5.871" ry="5.873"/></g></g><g transform="translate(28.701 36.541)"><path d="M93.72 0C41.96 0 0 41.974 0 93.752s41.96 93.752 93.72 93.752 93.72-41.974 93.72-93.752S145.48 0 93.72 0z" fill="#06f" class="I"/><g transform="translate(62.299 36.459)" stroke="#000" class="D E"><path d="M29 22c-14 0-17 13-17 25S0 58 0 76s13 25 34 22 32-25 26-33c-4-5.333-8-12.667-12-22-3.333-14-9.667-21-19-21z" fill="#42be65"/><ellipse fill="#fff" transform="matrix(.777146 -.62932 .62932 .777146 -41.615082 44.482634)" cx="42" cy="81" rx="5" ry="2"/><path d="M33 0c-6 8-7.333 15.333-4 22" class="F"/></g></g><rect x="235" y="111.917" width="263.532" height="31.321" rx="13.9" class="H"/><g class="C"><rect x="28.701" y="448.938" width="263.532" height="31.321" rx="13.9"/><rect x="28.701" y="548.122" width="263.532" height="31.321" rx="13.9"/></g><rect fill="#0064ff" x="31.311" y="673.407" width="193.083" height="23.491" rx="11.745"/><rect x="234.83" y="62" width="307.888" height="31.321" rx="13.9" class="H"/><g class="C"><rect x="28.701" y="399.346" width="307.888" height="31.321" rx="13.9"/><rect x="28.701" y="498.53" width="307.888" height="31.321" rx="13.9"/></g><rect fill="#0064ff" x="28.701" y="636.866" width="229.612" height="23.491" rx="11.745"/><g stroke-width="2.317" stroke-linecap="square" class="B D"><path d="M1.305 259.706h639.26"/><path d="M1.305 360.195h639.26"/></g></g><path d="M42.75 13.035L9.443 46.78 31.57 69.2l33.3-33.74zm27.623 16.85l2.8-2.83c6.1-6.182 6.1-16.234-.004-22.42a15.53 15.53 0 0 0-22.13 0l-2.8 2.835 22.126 22.416zM24.88 73.552L4.837 78.627c-1.326.33-2.725-.063-3.7-1.04A3.97 3.97 0 0 1 .126 73.85l5.007-20.3L24.88 73.552z" transform="matrix(-.258819 .965926 -.965926 -.258819 651.046536 1107.518704)" fill="#00c15a"/></g></svg>