<svg xmlns="http://www.w3.org/2000/svg" xmlns:xlink="http://www.w3.org/1999/xlink" width="1207" height="1298" xmlns:v="https://vecta.io/nano"><style><![CDATA[.B{stroke-linejoin:round}.C{stroke-width:1.32}.D{stroke-linecap:round}.E{fill-rule:nonzero}.F{fill:#fff}.G{fill:#0064ff}.H{fill:#f4f2ee}.I{stroke:#212121}.J{fill:#f2f4f6}.K{stroke:#001d75}.L{filter:url(#B)}.M{fill:#ff8100}.N{stroke:#f4f2ee}.O{filter:url(#D)}.P{fill:#ff9d00}]]></style><defs><filter x="-1.9%" y="-1.7%" width="103.7%" height="103.2%" id="A"><feOffset dy="1" in="SourceAlpha"/><feGaussianBlur stdDeviation="2"/><feColorMatrix values="0 0 0 0 0 0 0 0 0 0.160784314 0 0 0 0 0.349019608 0 0 0 0.1 0" result="C"/><feMerge><feMergeNode in="C"/><feMergeNode in="SourceGraphic"/></feMerge></filter><filter id="B"><feColorMatrix in="SourceGraphic" values="0 0 0 0 0.000000 0 0 0 0 0.112693 0 0 0 0 0.441384 0 0 0 0.434495 0"/></filter><filter x="-34.2%" y="-31.5%" width="170.0%" height="163.1%" id="C"><feOffset dy="2" in="SourceAlpha"/><feGaussianBlur stdDeviation="2.5"/><feColorMatrix values="0 0 0 0 0 0 0 0 0 0 0 0 0 0 0 0 0 0 0.3 0" result="C"/><feMerge><feMergeNode in="C"/><feMergeNode in="SourceGraphic"/></feMerge></filter><filter x="-6.3%" y="-51.7%" width="112.7%" height="203.4%" id="D"><feOffset dy="8" in="SourceAlpha"/><feGaussianBlur stdDeviation="8"/><feColorMatrix values="0 0 0 0 0 0 0 0 0 0.160784314 0 0 0 0 0.349019608 0 0 0 0.1 0" result="C"/><feMerge><feMergeNode in="C"/><feMergeNode in="SourceGraphic"/></feMerge></filter><filter x="-13.8%" y="-122.5%" width="120.1%" height="343.8%" id="E"><feOffset dy="8" in="SourceAlpha"/><feGaussianBlur stdDeviation="8"/><feColorMatrix values="0 0 0 0 0 0 0 0 0 0.160784314 0 0 0 0 0.349019608 0 0 0 0.1 0" result="C"/><feMerge><feMergeNode in="C"/><feMergeNode in="SourceGraphic"/></feMerge></filter><filter x="-19.0%" y="-200.0%" width="138.0%" height="500.0%" id="F"><feOffset dy="24" in="SourceAlpha"/><feGaussianBlur stdDeviation="16"/><feColorMatrix values="0 0 0 0 0.3515625 0 0 0 0 0.3515625 0 0 0 0 0.3515625 0 0 0 0.1 0" result="C"/><feMerge><feMergeNode in="C"/><feMergeNode in="SourceGraphic"/></feMerge></filter><filter x="-17.1%" y="-21.5%" width="134.1%" height="143.0%" id="G"><feOffset dy="24" in="SourceAlpha"/><feGaussianBlur stdDeviation="16"/><feColorMatrix values="0 0 0 0 0.3515625 0 0 0 0 0.3515625 0 0 0 0 0.3515625 0 0 0 0.1 0" result="C"/><feMerge><feMergeNode in="C"/><feMergeNode in="SourceGraphic"/></feMerge></filter><filter id="H"><feColorMatrix in="SourceGraphic" values="0 0 0 0 0.000000 0 0 0 0 0.112693 0 0 0 0 0.441384 0 0 0 0.199984 0"/></filter><path d="M121.03.005C54.497.005.56 53.93.56 120.447S54.497 240.89 121.03 240.89s120.468-53.924 120.468-120.442S187.562.005 121.03.005zm-1.673 43.493c41.583 0 75.293 33.702 75.293 75.276s-33.7 75.276-75.293 75.276-75.293-33.702-75.293-75.276 33.7-75.276 75.293-75.276z" id="I"/><path id="J" d="M8.75 12.25a3.5 3.5 0 1 1 0-7 3.5 3.5 0 0 1 3.5 3.5c0 1.93-1.568 3.5-3.5 3.5m25.737 7.513L15.237.513A1.75 1.75 0 0 0 14 0H1.75A1.75 1.75 0 0 0 0 1.75V14c0 .464.185.9.513 1.237l19.25 19.25c.34.34.79.513 1.237.513s.896-.172 1.237-.513l12.25-12.25a1.75 1.75 0 0 0 0-2.474"/><path id="K" d="M12.992 3.144c-.064 1.015.924 1.274 1.198.34.21-.713-.93-.78-1.29-.34"/><path id="L" d="M26.34 0C11.793 0 0 11.793 0 26.34s11.793 26.34 26.34 26.34 26.34-11.793 26.34-26.34S40.888 0 26.34 0z"/></defs><g transform="translate(6 5)" fill="none" fill-rule="evenodd"><g filter="url(#A)"><path stroke-width="2.2" d="M0 0h641.775v746.1H0z" class="F N"/><path d="M251.247 202.003v-6.353c1.7-.278 3.133-.73 4.296-1.354s2.11-1.37 2.838-2.24 1.25-1.814 1.562-2.838.47-2.057.47-3.098c0-1.528-.27-2.864-.807-4s-1.285-2.144-2.24-2.994-2.083-1.606-3.385-2.265a38.5 38.5 0 0 0-4.244-1.823l-2.578-.963c-.712-.295-1.31-.6-1.797-.91s-.842-.668-1.068-1.068-.338-.877-.338-1.432c0-.903.365-1.632 1.094-2.187s1.927-.833 3.593-.833 3.255.174 4.765.52 2.838.764 3.984 1.25h0l1.614-6.25c-.764-.347-1.797-.694-3.098-1.04s-2.855-.608-4.66-.78h0v-5.416h-6.56v5.624c-1.528.278-2.847.72-3.958 1.328s-2.014 1.345-2.708 2.213-1.206 1.83-1.536 2.9-.495 2.16-.495 3.307c0 1.493.27 2.77.807 3.828a8.3 8.3 0 0 0 2.135 2.682c.885.73 1.875 1.345 2.968 1.85l3.36 1.38 3.124 1.172c.903.365 1.65.738 2.24 1.12s1.04.807 1.354 1.276.47 1.033.47 1.692c0 1.04-.39 1.85-1.172 2.42s-2.23.86-4.348.86c-1.875 0-3.654-.243-5.338-.73s-3.133-1.024-4.348-1.614h0l-2.24 5.99c.764.382 1.935.86 3.515 1.432s3.637.963 6.17 1.172h0v6.197h6.56zm29.58 0v-6.353c1.7-.278 3.133-.73 4.296-1.354s2.11-1.37 2.838-2.24 1.25-1.814 1.562-2.838.47-2.057.47-3.098c0-1.528-.27-2.864-.807-4s-1.285-2.144-2.24-2.994-2.083-1.606-3.385-2.265a38.5 38.5 0 0 0-4.244-1.823l-2.578-.963c-.712-.295-1.31-.6-1.797-.91s-.842-.668-1.068-1.068-.338-.877-.338-1.432c0-.903.365-1.632 1.094-2.187s1.927-.833 3.593-.833 3.255.174 4.765.52 2.838.764 3.984 1.25h0l1.614-6.25c-.764-.347-1.797-.694-3.098-1.04s-2.855-.608-4.66-.78h0v-5.416h-6.56v5.624c-1.528.278-2.847.72-3.958 1.328s-2.014 1.345-2.708 2.213-1.206 1.83-1.536 2.9-.495 2.16-.495 3.307c0 1.493.27 2.77.807 3.828a8.3 8.3 0 0 0 2.135 2.682c.885.73 1.875 1.345 2.968 1.85l3.36 1.38 3.125 1.172c.903.365 1.65.738 2.24 1.12s1.04.807 1.354 1.276.47 1.033.47 1.692c0 1.04-.39 1.85-1.172 2.42s-2.23.86-4.348.86c-1.875 0-3.654-.243-5.338-.73s-3.133-1.024-4.348-1.614h0l-2.24 5.99c.764.382 1.935.86 3.515 1.432s3.637.963 6.17 1.172h0v6.197h6.56zm29.58 0v-6.353c1.7-.278 3.133-.73 4.296-1.354s2.11-1.37 2.838-2.24 1.25-1.814 1.562-2.838.47-2.057.47-3.098c0-1.528-.27-2.864-.807-4s-1.285-2.144-2.24-2.994-2.083-1.606-3.385-2.265a38.5 38.5 0 0 0-4.244-1.823l-2.578-.963c-.712-.295-1.31-.6-1.797-.91s-.842-.668-1.068-1.068-.338-.877-.338-1.432c0-.903.365-1.632 1.094-2.187s1.927-.833 3.593-.833 3.255.174 4.765.52 2.838.764 3.984 1.25h0l1.614-6.25c-.764-.347-1.797-.694-3.098-1.04s-2.855-.608-4.66-.78h0v-5.416h-6.56v5.624c-1.528.278-2.847.72-3.958 1.328s-2.014 1.345-2.708 2.213-1.206 1.83-1.536 2.9-.495 2.16-.495 3.307c0 1.493.27 2.77.807 3.828a8.3 8.3 0 0 0 2.135 2.682c.885.73 1.875 1.345 2.968 1.85l3.36 1.38 3.125 1.172c.903.365 1.65.738 2.24 1.12s1.04.807 1.354 1.276.47 1.033.47 1.692c0 1.04-.39 1.85-1.172 2.42s-2.23.86-4.348.86c-1.875 0-3.654-.243-5.338-.73s-3.133-1.024-4.348-1.614h0l-2.24 5.99c.764.382 1.935.86 3.515 1.432s3.637.963 6.17 1.172h0v6.197h6.56z" fill="#0d62fe" class="E"/><g class="L"><g transform="translate(44.357 289.722)" fill="#004d95"><path d="M24.2 7.388L5.348 26.513l12.53 12.702 18.865-19.123z"/><path d="M39.855 16.938l1.585-1.605c3.454-3.504 3.454-9.2-.002-12.707a8.79 8.79 0 0 0-12.533 0l-1.58 1.607 12.53 12.705z"/><path d="M14.09 41.687L2.74 44.564c-.75.187-1.543-.036-2.09-.59s-.766-1.357-.58-2.118L2.907 30.35 14.09 41.687z"/></g><g transform="translate(164.381 287.112)" fill="#000"><path d="M25.926 29.1l-15.772 3.156 3.154-15.78L25.306 4.464H4.46A4.47 4.47 0 0 0-.001 8.927V40.17a4.47 4.47 0 0 0 4.462 4.463h31.232a4.47 4.47 0 0 0 4.462-4.463V14.854L25.926 29.1z"/><path d="M17.418 18.667l6.31 6.31-7.886 1.578z"/><path d="M41.08 7.62c1.742-1.743 1.742-4.568 0-6.31a4.46 4.46 0 0 0-6.309 0L20.573 15.5l6.31 6.31L41.08 7.62z"/></g><g transform="translate(281.796 287.112)" fill="#000"><path d="M22.586 41.43L3.192 22.03l11.392-11.396 7.446 7.45L33.956 4.96h-29C2.223 4.96 0 7.186 0 9.918v29.755c0 2.735 2.223 4.96 4.958 4.96H39.66c2.734 0 4.958-2.224 4.958-4.96V17.186L22.586 41.43z"/><path d="M22.415 34.245L10.203 22.03l4.382-4.384 7.617 7.62 22.6-24.87 4.586 4.168z"/></g></g><g transform="translate(407.039 289.722)" class="G"><path d="M23.796 22.316h-6.94c-.547 0-.992.454-.992 1.014s.444 1.014.992 1.014h1.983c2.733 0 4.958 2.274 4.958 5.072 0 2.45-1.705 4.498-3.966 4.968v2.132h-3.966v-2.03h-3.966V30.43h6.94c.547 0 .992-.456.992-1.014s-.444-1.014-.992-1.014h-1.983c-2.733 0-4.958-2.276-4.958-5.072 0-2.45 1.705-4.498 3.966-4.968V16.23h3.966v2.03h3.966v4.058zm2.7-11.903l5.97-2.445L31 4.202l-6.18 2.53 2.556-3.485c.504-.688.53-1.625.065-2.34a1.96 1.96 0 0 0-2.132-.846l-7.452 1.9-7.452-1.9a1.96 1.96 0 0 0-2.132.846c-.464.714-.438 1.65.065 2.34l2.556 3.485-6.18-2.53L3.228 7.97l5.97 2.445c-5.48 3.118-9.2 9.1-9.2 15.96 0 10.067 8.007 18.26 17.847 18.26s17.847-8.192 17.847-18.26c0-6.86-3.72-12.842-9.2-15.96h0z"/></g><g transform="translate(409.648 318.433)" class="E"><g filter="url(#C)" transform="translate(7.828 5.22)"><path fill="#231d1e" d="M0 18.27h2.61v-2.6h5.218v2.6h2.61V2.6h2.61V0h5.218v2.6h2.61v7.83H31.31v2.6h5.218v2.6h2.61v13.05h-2.61v5.22h-2.61v7.83H28.7v-2.6h-2.61v2.6H13.046v-5.22h-2.61v-2.6h-2.61v-2.6h-2.61V26.1H2.61v-2.6H0z"/><path d="M2.61 18.27h5.218v2.6h2.61v2.6h2.61V2.6h5.218v15.66h2.61v-5.22h5.218v5.22h2.61v-5.22h2.61v5.22h2.61v-2.6h2.61v13.05h-2.61v5.22h-2.61v5.22H28.7v-2.6h-2.61v2.6H15.655v-2.6h-2.61v-2.6h-2.61v-2.6h-2.61V26.1h-2.61v-2.6H2.61z" class="F"/><g fill="#231d1e"><path d="M18.265 23.49h2.61v10.44h-2.61z"/><path d="M23.483 23.49h2.61v10.44h-2.61z"/><path d="M28.7 23.49h2.61v10.44H28.7z"/></g></g></g><g class="L"><g transform="translate(519.235 289.722)" fill="#000"><ellipse cx="5.871" cy="5.873" rx="5.871" ry="5.873"/><ellipse cx="5.871" cy="22.316" rx="5.871" ry="5.873"/><ellipse cx="5.871" cy="38.76" rx="5.871" ry="5.873"/></g></g><g transform="translate(28.701 36.541)"><path d="M93.72 0C41.96 0 0 41.974 0 93.752s41.96 93.752 93.72 93.752 93.72-41.974 93.72-93.752S145.48 0 93.72 0z" fill="#06f" class="E"/><g transform="translate(62.299 36.459)" stroke="#000" stroke-width="2.322" class="B"><path d="M29 22c-14 0-17 13-17 25S0 58 0 76s13 25 34 22 32-25 26-33c-4-5.333-8-12.667-12-22-3.333-14-9.667-21-19-21z" fill="#42be65"/><ellipse transform="matrix(.777146 -.62932 .62932 .777146 -41.615082 44.482634)" cx="42" cy="81" rx="5" ry="2" class="F"/><path d="M33 0c-6 8-7.333 15.333-4 22" class="D"/></g></g><rect x="235" y="111.917" width="263.532" height="31.321" rx="13.9" class="H"/><g fill="#eaeaea"><rect x="28.701" y="448.938" width="263.532" height="31.321" rx="13.9"/><rect x="28.701" y="548.122" width="263.532" height="31.321" rx="13.9"/></g><rect x="31.311" y="673.407" width="193.083" height="23.491" rx="11.745" class="G"/><rect x="234.83" y="62" width="307.888" height="31.321" rx="13.9" class="H"/><g fill="#eaeaea"><rect x="28.701" y="399.346" width="307.888" height="31.321" rx="13.9"/><rect x="28.701" y="498.53" width="307.888" height="31.321" rx="13.9"/></g><rect x="28.701" y="636.866" width="229.612" height="23.491" rx="11.745" class="G"/><g stroke-width="2.317" stroke-linecap="square" class="B N"><path d="M1.305 259.706h639.26"/><path d="M1.305 360.195h639.26"/></g></g><g transform="translate(458 399)"><g class="O"><path d="M0 0h727v88.44H0z" class="F"/><g transform="translate(647 27)" class="M"><use xlink:href="#J"/></g><g transform="translate(28 18)"><path d="M26.4 0C11.82 0 0 11.82 0 26.4s11.82 26.4 26.4 26.4 26.4-11.82 26.4-26.4S40.98 0 26.4 0z" fill="#cce4ff" class="E"/><g transform="translate(12.543 7.645)"><g transform="translate(8.004 .478)" fill="#ff5fa7"><path d="M17.68 3.07c-.626 13.938-15.8 19.106-6.1 28.19 2.318 2.17-12.7 2.2-11.42 0C7.042 19.514-.154 17.008.003 4.323A15.65 15.65 0 0 1 .608.136C8.162-.078 13.696.117 17.2.72c.28.048.436.83.47 2.35z"/></g><g stroke="#ffc200" class="B C D"><path d="M27.714 1.91c-.83 3.61-2.413 7.313-2.718 11.022-.222 2.688-.1 5.394-.15 8.09"/><path d="M26.758 1.792c-1.865 4.7-2.588 8.9-2.764 13.98-.138 3.982-.537 3 .258 4.657"/><path d="M24.25 4.66c-1.75 7.223-1.83 9.558-.606 16.963"/><path d="M23.533 22.458c-4.34-3.9-2.523-10.708-1.36-15.53"/></g><path d="M15.116 3.464c.264 1.304.192 2.178-.216 2.622-2.166 2.36-3.01 3.267-5.445 6.626-.033.046-.023.166.033.167.27.003.572-.006.795-.16 1.562-1.07 2.77-2.694 4.5-3.465 2.328-1.038-3.194 2.55-1.857 3.248.546.286 10.093-1.028 7.006-.412s-7.67 1.47-7.286 1.972c1.605 2.095 2 3.054 1.605 4.93" class="B C D I"/><g stroke="#ffc200" class="B C D"><path d="M9.318 5.973C7.916 9.7 6.04 18.778.518 19.83c-.07.013-.106-.095-.16-.142"/><path d="M8.48 3.464C7.212 9.757 5.336 15.317.12 18.994"/><path d="M7.765 1.075c-1.62 5.86-2.44 12.23-7.406 16.246"/><path d="M6.092 1.314C4.594 7.598 4.43 11.733 0 16.127"/></g><path d="M7.623.052c-.677 0 .407 4.177.832 5.142.36.816 1.35 1.23 2.97 1.247 1.793.055 3.04-.354 3.74-1.228l.107-.138c.832 1.67 2.51 2.145 4.543 2.145 4.703 0 6.58-2.85 5.827-7.167H7.623zm8.302 1.595l7.998-.112.002.03c.106 1.376-.133 2.4-.67 3.08L23.2 4.7c-.643.756-1.84 1.15-3.653 1.15-1.24 0-2.688-.485-3.314-2.034l-.146-.438c-.07-.263-.066-.68-.104-1.18l-.058-.562zm-7.038.135h5.803l-.01.854c-.047 1.92-.455 2.778-3.856 2.847l-.634.006c-.082 0-.125-.013-.202-.066-.162-.112-.34-.334-.504-.674-.267-.554-.453-1.33-.55-2.324l-.048-.643z" fill="#00ffce" class="E"/><g fill="#212121"><use xlink:href="#K" transform="matrix(-1 0 0 1 27.11674 0)"/><use xlink:href="#K" x="3.464" transform="matrix(-1 0 0 1 34.045246 0)"/></g><g fill="#ff0025"><path d="M2.972 34.245c.767 1.123 3.985.832 2.26-1.444s-3.028.32-2.26 1.444z" transform="matrix(-1 0 0 1 8.481448 0)"/><path d="M7.095 36.17c.788 1.084 3.667.394 1.894-1.803s-2.683.72-1.894 1.803z" transform="matrix(-1 0 0 1 16.36561 0)"/><path d="M12.6 36.815c.798 1.125 3.665.616 1.872-1.665s-2.67.54-1.872 1.665z" transform="matrix(-1 0 0 1 27.355654 0)"/><path d="M17.986 36.116c.81 1.107 3.57.53 2.392-1.424s-3.203.316-2.392 1.424z" transform="matrix(-1 0 0 1 38.465156 0)"/><path d="M22.263 34.797c.77 1.095 3.155.57 2.272-1.408s-3.042.313-2.272 1.408z" transform="matrix(-1 0 0 1 46.827146 0)"/></g></g></g><g class="H"><rect x="275" y="36" width="151.8" height="15.84" rx="7.92"/><rect x="106" y="36" width="93.72" height="15.84" rx="7.92"/></g><rect x="444" y="36" width="151.8" height="15.84" rx="7.92" class="J"/></g><g transform="translate(0 96)" class="O"><path d="M0 0h727v88.44H0z" class="F"/><g class="H"><rect x="274.56" y="36.96" width="120.12" height="15.84" rx="7.92"/><rect x="105.6" y="36.96" width="151.8" height="15.84" rx="7.92"/></g><rect x="443.52" y="36.96" width="151.8" height="15.84" rx="7.92" class="J"/><g transform="translate(28 18)"><use xlink:href="#L" fill="#06f" class="E"/><g transform="translate(1.669 5.602)"><path d="M2.963 29.743c.03-13.022 17.27-24.56 27.18-24.552 15.05.012 11.313 25.136 10.622 25.183-4.26.292-16.862.082-37.803-.63z" fill="#001d75" transform="matrix(.956305 -.292372 .292372 .956305 -4.242322 7.305674)"/><g transform="translate(14.66 7.39)" fill="#f1f4f6"><path d="M22.607 6.666c.65 5.183-4.426 18.265-9.786 17.546-4.502-.604-7.124-4.427-8.512-8.52C4.074 15 .596 16.805.12 13.587S3.437 12.39 3.337 11.8C3.004 9.824 3.03 8.15 3.08 6.8c.008-.21 1.144-.865 3.573-1.25 1.087-.173 2.433-.292 4.052-.294 2.3-.003 4.89.224 7.058.5.623.08.053-5.728.59-5.645.548.084 2.202 6.057 2.628 6.136 1 .184 1.615.34 1.624.41z"/></g><g transform="translate(22.765 14.422)"><g transform="translate(6.555 1.073)" class="B C D I"><path d="M.596 0C.9 2.825 2.98 1.896 2.98.01"/><path d="M.715 1.55L0 2.503"/><path d="M1.788 1.907l-.477 1.55"/><path d="M2.384 1.67l.358 1.31"/></g><path d="M5.363 0l3.51 5.162c.18.22.526.484.422.755-.096.25-2.372.438-2.572.034-.103-.21-.133-.935-.127-.698.043 1.458.17 2.378.383 2.76" fill="#f3fff6" class="B C D K"/><g transform="translate(.358 .953)" class="B C D I"><path d="M.527.2C.082 2.073 2.724 2.3 3.218 0"/><path d="M.834 1.55L0 2.145"/><path d="M1.722 1.67L1.64 2.74"/><path d="M2.503 1.55l.358.834"/></g><path d="M4.962 8.4c.766-.145.858.962 1.394.646.27-.16.417-.558.73-.595.475-.057 1.222.154 2.24.63L7.483 10.74c-1.15 1.063-6 .016-7.21-.556l3.718.05c5.508-.856 4.268-.873-3.718-.05C1.357 9.06 4.196 8.554 4.962 8.4z" fill="#ff243a" transform="matrix(.956305 .292372 -.292372 .956305 3.073851 -.975024)"/></g></g></g><g transform="translate(647 27)" class="M"><use xlink:href="#J"/></g></g><g filter="url(#E)" transform="translate(0 192)"><path d="M0 0h727v88.44H0z" class="F"/><g filter="url(#F)" transform="translate(26 17)"><g transform="translate(0 .88)"><use xlink:href="#L" fill="#06f" class="E"/><g transform="translate(7.27 16.448)"><g transform="translate(0 .007)"><path d="M25.433 17.722c3.122 0 6.957-.196 11.505-.59l1.18-5.792h-5.113l.393-8.443H5.078L4.905 7.58C1.635 6.67 0 7.097 0 8.865s1.463 2.822 4.4 3.164l.983 4.516c10.25.785 16.937 1.178 20.06 1.178z" class="P"/><g transform="translate(21.203 2.12)" fill="#212121"><path d="M.2.672c-.14 2.465 2.05 3.093 2.658.824C3.323-.235.797-.4 0 .672"/><path d="M8.455.28c.043.525.01 1.06.13 1.574.51 2.226 3.29.066 1.815-1.794"/></g><path d="M34.106.001c.606 0-.11 5.4-.492 6.495-.483 1.377-1.622 1.08-2.852 1.08a9.02 9.02 0 0 1-1.025-.047c-.51-.62-1.173-1.313-1.892-1.94l-.55-.456.136.798-.175-.278c-.745 1.88-2.246 2.414-4.067 2.414-4.2 0-5.89-3.207-5.217-8.066h16.132zm-8.366 2.19H20.05v.028c-.072 1.167.06 2.072.373 2.72l.188.328c.496.732 1.38 1.114 2.78 1.114.953 0 1.608-.612 2.026-2.115l.113-.454.08-.462.078-.62.054-.538zm6.757 0h-4.214c.598 2.452 1.388 3.518 2.854 3.678l.413.02c.06 0 .09-.013.147-.066.118-.112.247-.334.366-.673.194-.553.33-1.33.4-2.32l.035-.64z" fill="#ff0025" class="E"/><g class="B C D I"><path d="M27.953 6.314c1.978 1.562 3.73 3.835 3.43 4.2-.393.49-1.816.592-2.163.393-.28-.16-.153.057-.153 1.887"/><path d="M23.633 11.268c2.316 1.718 4.886 1.936 7.424 1.415"/></g><g class="K B C D"><path d="M26.113 15.677c.496 1.983 1.667 3.233 2.906 4.893"/><path d="M28.138 15.46c1.354 4.284 1.053 2.457 1.36 5.387"/><path d="M29.823 15.77c.405 4.165.356 2.433.356 5.186"/><path d="M31.616 15.77l-.928 5.695"/><path d="M32.87 15.924c-.11 2.02-.644 3.63-1.654 5.37"/><path d="M34.244 15.723c-.185 1.97-.746 3.866-2.072 5.402"/><path d="M35.002 17.838c-1.637 2.193-1.835 2.866-4.282 3.442"/></g><path d="M23.8 10.55c-.148.398-.443.79-.935.813" class="B C D I"/></g></g></g><g class="H"><rect x="248.16" y="19.36" width="129.36" height="15.84" rx="7.92"/><rect x="79.2" y="19.36" width="151.8" height="15.84" rx="7.92"/></g><rect x="417.12" y="19.36" width="151.8" height="15.84" rx="7.92" class="J"/></g><g transform="translate(647 27)" class="M"><use xlink:href="#J"/></g></g><g transform="translate(0 288)" class="O"><path d="M0 0h727v88.44H0z" class="F"/><g class="H"><rect x="274.56" y="36.96" width="120.12" height="15.84" rx="7.92"/><rect x="105.6" y="36.96" width="151.8" height="15.84" rx="7.92"/></g><rect x="443.52" y="36.96" width="151.8" height="15.84" rx="7.92" class="J"/><g transform="translate(29 19)"><path d="M25.698 0C11.505 0 0 11.505 0 25.698s11.505 25.698 25.698 25.698S51.396 39.89 51.396 25.698 39.89 0 25.698 0z" fill="#06f" class="E"/><g transform="translate(2.674 11.395)"><path d="M19.267 3.644c-5.834 0-11.05 1.544-14.943 4-1.577.995-2.828 2.09-3.55 3.087-.435.6-.7 1.185-.73 1.797-.053 1.037.615 1.886 1.633 2.098l.088.017c.665.126 1.642.174 3.923.233l2.068.055c2.437.068 3.423.112 4.98.218l.316.022.274.02c2.357.177 4.332.438 5.9.804l.11.026v9.128c.21 2.148 2.525 3.223 6.944 3.223s9.447-1.246 15.086-3.737l-.784-6.767.055-.014c.805-.215 1.486-.517 2.045-.92 1.06-.765 1.633-1.87 1.633-3.166 0-1.495-.84-2.622-2.274-2.997l-.056-.014c-.615-.15-1.322-.167-2.14-.06l-.094.013-.146-1.26-.515-.41C34.53 5.42 27.91 3.644 19.267 3.644z" class="E P"/><g class="B C D K"><path d="M15.255 5.58c2.263.133 1.908.183 3.525-1.393"/><path d="M15.475 6.737c1.78-.127 1.967-.807 3.187-2.303"/><path d="M19.44 4.346c.448 1.145 1.216 1.224 2.41 1.13"/><path d="M19.44 4.36c.263 2-.202 1.163 1.528 2.435"/></g><g stroke="#fff" class="B C"><path d="M16.37.694c2.12-1.943 3.21.638 2.982 2.303-.275 2-1.912 3.564-3.452 4.665-.02.015-1.367.923-1.762.572-.952-.844-.575-2.74-.176-3.872s1.424-2.765 2.41-3.667z"/><g class="D"><path d="M19.176 4.904c.35-1.075.584-2.432 1.542-3.198C22.778.06 24.767.604 24.2 3.437c-.3 1.55-1.6 3.38-2.732 4.46-1.468 1.4-2.746-.513-2.526-1.907.107-.676.362-1.32.543-1.98"/></g></g><g class="K B C D"><path d="M26.344 3.54c.483 2.83.753 4.995 2.644 7.232 2.77 3.278 8.928 1.904 11.5-.91"/><path d="M28.708 3.906c-.514 3.76-.202 8.013 4.553 8.654.33.044 2.522.163 3.334-.117 1.966-.678 2.047-1.087 3.92-2.61"/><path d="M29.575 3.936c1.662 3.44 6.093 11.435 10.53 6.234"/><path d="M31.778 4.346c.4 2.114.586 4.253 1.998 5.985 1.87 2.294 5.682 1.824 7.27-.41"/><path d="M32.864 4.728c1.066 2.692 3.082 7.207 6.74 5.706"/><path d="M34.172 5.007c.885 1.4 2.714 4.955 4.538 5.325.7.144 1.45-.02 2.174-.03"/><path d="M18.604 16.99c1.79-.63 3.235.668 5.067.337.886-.16 1.968-1.124 2.614-1.614"/></g></g><path fill="#001d75" d="M18.605 35.35l7.558 4.186 11.86-4.186-.698 8.837-11.163-3.372-9.535 3.372z" class="B C K"/></g><g transform="translate(647 27)" class="M"><use xlink:href="#J"/></g></g></g><g filter="url(#G)" transform="translate(256 730)"><path stroke-width="2.2" d="M0 .406h641.775v505.648H0z" class="F N"/><g filter="url(#H)"><g transform="translate(432.592 238.104)" fill="#0b0"><path d="M54.037.914L2.444 12.954c-1.17.268-2.05 1.242-2.196 2.425s.47 2.333 1.548 2.875l14.652 7.378 1.498 14.802c.12 1.2.98 2.177 2.143 2.468a2.88 2.88 0 0 0 3.074-1.154l.445-.45L20.645 30c-.125-1.47.6-2.884 1.893-3.638l12.732-7.476-10.175 9.746a2.83 2.83 0 0 0-.799 2.681l4.64 19.874c.268 1.162 1.25 2.032 2.443 2.178a2.88 2.88 0 0 0 2.901-1.536L58.517 4.894c.116-.174.2-.36.285-.554.253-.658.096-1.662-.193-2.353-.358-.852-1.882-1.2-4.572-1.073z"/></g></g><g filter="url(#H)"><g transform="translate(156.469 234.462)"><path d="M40.023 32.005h10.673v-10.67H40.023v10.67zm-16.01 0h10.673v-10.67H24.014v10.67zm0 16.002h10.673v-10.67H24.014v10.67zM8.005 32.005H18.68v-10.67H8.005v10.67zm0 16.002H18.68v-10.67H8.005v10.67zm45.36-42.673H48.03V0h-5.337v13.336h-5.337v-8h-16V0H16v13.336h-5.337v-8H5.337A5.34 5.34 0 0 0 0 10.669v40.007C0 53.614 2.393 56 5.337 56h48.03c2.942 0 5.337-2.396 5.337-5.334V10.67a5.34 5.34 0 0 0-5.337-5.334z" fill="#0b0"/></g></g><rect fill="#001d71" x="29.147" y="44.36" width="192.415" height="20.074" rx="6.95"/><rect x="32.494" y="87.853" width="192.415" height="20.074" rx="6.95" class="J"/><g transform="translate(65.632 146.97)"><mask id="M" class="F"><use xlink:href="#I"/></mask><use fill="#0202d0" xlink:href="#I" class="E"/><g mask="url(#M)"><g transform="translate(-10.039 -7.818)"><path d="M127.772 0v127.133H.61C.61 57.28 56.113 1.128 126.266.012L127.772 0z" fill="#001d71"/><path d="M127.722 128.264v.858l48.356 115.72c-15.328 6.79-32.248 10.557-50.032 10.557C57.434 255.398 1.68 199.34.573 129.76l-.012-1.495h127.16z" class="G"/><path d="M127.775 3.346L127.772 128l48.58 116.24c46.15-18.888 78.582-63.548 78.582-115.634 0-68.484-56.07-124.132-125.667-125.238l-1.492-.012z" fill="#00c15a"/></g></g></g><g transform="translate(343.379 146.97)"><mask id="N" class="F"><use xlink:href="#P" href="#I"/></mask><use fill="#0202d0" xlink:href="#P" class="E" href="#I"/><g mask="url(#N)"><g transform="translate(-6.693 -8.184)"><path d="M127.772.366V127.5H.61C.61 57.647 56.113 1.494 126.266.378l1.506-.012z" class="P"/><path d="M127.722 128.63v.858l48.356 115.72c-15.328 6.79-32.248 10.557-50.032 10.557-68.614 0-124.366-56.058-125.474-125.64L.56 128.63h127.16z" class="G"/><path d="M127.775 3.807l-.002 127.04-90.296 169.093C540.49 171.048 199.418 4.946 129.278 3.82l-1.503-.012z" fill="#00c15a"/></g></g></g><rect x="455.933" y="453.596" width="163.541" height="22.308" rx="6.95" class="G"/></g></g></svg>