<svg xmlns="http://www.w3.org/2000/svg" width="201" height="37" fill-rule="evenodd" xmlns:v="https://vecta.io/nano"><path d="M.432 18.9a.78.78 0 0 1 0-1.095L18.012.227c.3-.303.796-.303 1.095 0l9.884 9.88c.3.3.3.792 0 1.092L18.024 22.166c-.304.3-.796.3-1.096 0l-1.847-1.848c-.304-.3-.304-.79 0-1.09l8.02-8.028a.77.77 0 0 0 0-1.092L19.107 6.11a.78.78 0 0 0-1.095 0L6.318 17.804c-.3.3-.3.79 0 1.095l11.502 11.5c.3.304.792.304 1.096 0l7.988-7.988a.78.78 0 0 1 1.096 0l1.843 1.847c.303.304.303.795 0 1.096l-10.927 10.93a.77.77 0 0 1-1.096 0L.432 18.9z" fill="#004b90"/><path d="M31.627 19.076c-.304-.305-.304-.796 0-1.1l6.777-6.777c.3-.3.3-.792 0-1.09L31.786 3.5a.78.78 0 0 1 0-1.095L33.634.548a.78.78 0 0 1 1.095 0l9.556 9.56c.304.3.304.79 0 1.09l-9.716 9.72a.78.78 0 0 1-1.099 0l-1.843-1.843z" fill="#00b832"/><path d="M50.458 30.05l5.294-23.006h14.554l-.805 3.502h-9.63l-1.424 6.166h7.1l-.767 3.306h-7.114l-1.52 6.63H66.55l-.77 3.403zm20.702 0l-2.308-16.073v-1.12h4.382l1.396 11.827h.188l.1-.068 5.913-11.76h3.783v1.14L75.83 30.05zm21.475-14.617c-1.895 0-3.32 1.47-4.006 4.146l-.044.156h6.413l.02-.096a6.21 6.21 0 0 0 .137-1.323c0-1.832-.917-2.883-2.52-2.883m-1.46 14.85c-4.786 0-7.416-2.5-7.416-7.016 0-5.302 3.15-10.672 9.175-10.672 1.976 0 3.518.544 4.582 1.615 1.044 1.056 1.587 2.624 1.567 4.538 0 1.1-.18 2.36-.532 3.663H88.225v.8c0 2.727 1.076 3.947 3.48 3.947a7.87 7.87 0 0 0 4.353-1.252l1.34.02-.72 3.147c-1.487.808-3.34 1.22-5.5 1.22m20.56-.233c-.5 0-.796-.096-.96-.3-.216-.276-.224-.82-.012-1.703l2.16-9.672c.172-.808.112-1.376-.184-1.74-.236-.3-.616-.44-1.136-.44-1.283 0-2.72.5-4.518 1.6l-.047.028-2.78 12.215h-4.6l3.926-17.193h1.495c1.587 0 2.327.66 2.4 2.14l.012.248.197-.156c1.626-1.295 3.525-2.495 6.396-2.495 1.2 0 2.18.432 2.835 1.252.827 1.04 1.05 2.627.632 4.474l-2.703 11.73h-3.123zm12.26.265c-1.7 0-2.907-.456-3.63-1.36-.755-.943-.936-2.383-.535-4.16l2.063-8.93H120l.644-3.006h1.928l1.063-4.65h4.6l-1.064 4.65h3.123l-.643 3.006h-3.184l-2.05 8.968c-.184.804-.12 1.392.196 1.788.335.423.955.627 1.886.627h.672l-.58 2.67c-.65.24-1.35.396-2.582.396m13.34-13.834h2.65c2.754 0 4.2-1.2 4.2-3.45 0-1.664-1.115-2.583-3.15-2.583h-2.36l-1.35 6.033zm-2.4 10.167h3.478c2.843 0 4.4-1.415 4.4-3.977 0-1.92-1.204-3.02-3.315-3.02h-2.958l-1.615 6.996zm-5.598 3.404l5.3-23.007h6.745c4.866 0 7.548 1.972 7.548 5.554 0 3.534-2.66 4.902-4.886 5.425l-.1.03v.33l.1.02c2.4.52 3.687 2.07 3.687 4.495 0 4.477-3.602 7.153-9.644 7.153h-8.74zm27.407-7.71c-2.123 0-3.45 1.156-3.45 3.02 0 1.347.747 2.12 2.055 2.12 1.28 0 2.123-.64 2.843-1.332l.796-3.506-.12-.032c-.532-.132-1.204-.268-2.124-.268m-3.154 7.9c-2.835 0-4.594-1.748-4.594-4.558 0-3.63 2.855-5.9 7.45-5.9 1.587 0 2.374.187 2.982.4l.136.048.164-.77c.3-1.312.216-2.247-.264-2.85-.423-.532-1.127-.792-2.155-.792-1.7 0-3.03.336-4.35 1.084l-1.172-.016.743-3.24c1.36-.556 2.98-1.063 5.6-1.063 2.6 0 4.427.643 5.438 1.915.976 1.223 1.196 3.038.656 5.405l-2.34 10.136h-1.464c-1.123 0-1.958-.572-2.27-1.572l-.064-.2-.144.147c-.812.833-2.223 1.824-4.362 1.824m23.008-.202c-.5 0-.792-.096-.96-.3-.216-.276-.23-.82-.012-1.703l2.16-9.672c.172-.808.112-1.376-.184-1.74-.236-.3-.616-.44-1.136-.44-1.283 0-2.714.5-4.518 1.6l-.044.028-2.78 12.215h-4.594l3.93-17.193h1.492c1.586 0 2.33.66 2.398 2.14l.012.248.197-.156c1.626-1.295 3.525-2.495 6.397-2.495 1.198 0 2.178.432 2.834 1.252.827 1.04 1.047 2.627.632 4.474l-2.703 11.73h-3.123zm16.714 0l-3.26-7.13-2.023 1.915-1.207 5.214h-4.598l5.262-23.006h2.822c.62 0 .964.104 1.16.348.276.348.28 1.05.012 2.223l-2.32 10.12 6.98-6.877h4.042v1.08l-6.64 6.105 4.063 8.856-.013 1.152h-4.282z" fill="#000"/></svg>