<?xml version="1.0" encoding="UTF-8"?>
<svg width="200px" height="37px" viewBox="0 0 200 37" version="1.1" xmlns="http://www.w3.org/2000/svg" xmlns:xlink="http://www.w3.org/1999/xlink">
    <title>logo / english</title>
    <g id="Offices" stroke="none" stroke-width="1" fill="none" fill-rule="evenodd">
        <g id="Page-1" transform="translate(0.000000, -1.000000)">
            <g id="Group-3" transform="translate(0.000000, 0.512000)" fill="#004B90">
                <path d="M0.2251,19.3874 C-0.0749,19.0834 -0.0749,18.5924 0.2251,18.2924 L17.8051,0.7154 C18.1041,0.4124 18.6011,0.4124 18.9001,0.7154 L28.7841,10.5954 C29.0841,10.8954 29.0841,11.3874 28.7841,11.6874 L17.8171,22.6544 C17.5131,22.9534 17.0211,22.9534 16.7211,22.6544 L14.8741,20.8064 C14.5701,20.5074 14.5701,20.0154 14.8741,19.7154 L22.8951,11.6874 C23.1981,11.3874 23.1981,10.8954 22.8951,10.5954 L18.9001,6.5974 C18.6011,6.2974 18.1041,6.2974 17.8051,6.5974 L6.1111,18.2924 C5.8101,18.5924 5.8101,19.0834 6.1111,19.3874 L17.6131,30.8864 C17.9121,31.1904 18.4051,31.1904 18.7091,30.8864 L26.6971,22.8984 C26.9961,22.5984 27.4921,22.5984 27.7931,22.8984 L29.6361,24.7454 C29.9391,25.0494 29.9391,25.5404 29.6361,25.8414 L18.7091,36.7714 C18.4051,37.0764 17.9121,37.0764 17.6131,36.7714 L0.2251,19.3874 Z" id="Fill-1"></path>
            </g>
            <path d="M31.4195,20.0759 C31.1155,19.7709 31.1155,19.2799 31.4195,18.9759 L38.1965,12.1989 C38.4965,11.8989 38.4965,11.4069 38.1965,11.1079 L31.5785,4.4899 C31.2795,4.1869 31.2795,3.6949 31.5785,3.3949 L33.4265,1.5479 C33.7255,1.2479 34.2215,1.2479 34.5215,1.5479 L44.0775,11.1079 C44.3815,11.4069 44.3815,11.8989 44.0775,12.1989 L34.3615,21.9189 C34.0585,22.2219 33.5655,22.2219 33.2625,21.9189 L31.4195,20.0759 Z" id="Fill-4" fill="#00B832"></path>
            <polygon id="Fill-6" fill="#000000" points="50.2508 31.0511 55.5448 8.0451 70.0988 8.0451 69.2938 11.5471 59.6628 11.5471 58.2388 17.7131 65.3478 17.7131 64.5808 21.0191 57.4668 21.0191 55.9478 27.6481 66.3428 27.6481 65.5718 31.0511"></polygon>
            <polygon id="Fill-8" fill="#000000" points="70.9538 31.0511 68.6458 14.9781 68.6458 13.8581 73.0278 13.8581 74.4238 25.6851 74.6118 25.6851 74.7118 25.6171 80.6248 13.8581 84.4078 13.8581 84.4078 14.9981 75.6228 31.0511"></polygon>
            <path d="M92.4278,16.4331 C90.5328,16.4331 89.1088,17.9041 88.4218,20.5791 L88.3778,20.7351 L94.7908,20.7351 L94.8108,20.6391 C94.9028,20.2111 94.9478,19.7801 94.9478,19.3161 C94.9478,17.4841 94.0308,16.4331 92.4278,16.4331 M90.9688,31.2821 C86.1828,31.2821 83.5528,28.7911 83.5528,24.2661 C83.5528,18.9641 86.7028,13.5941 92.7278,13.5941 C94.7038,13.5941 96.2458,14.1381 97.3098,15.2091 C98.3538,16.2651 98.8968,17.8331 98.8768,19.7471 C98.8768,20.8471 98.6968,22.1061 98.3448,23.4101 L88.0178,23.4101 L88.0178,24.2011 C88.0178,26.9281 89.0938,28.1481 91.4968,28.1481 C93.0998,28.1481 94.5228,27.7401 95.8498,26.8961 L97.1898,26.9161 L96.4698,30.0631 C94.9828,30.8711 93.1308,31.2821 90.9688,31.2821" id="Fill-10" fill="#000000"></path>
            <path d="M111.5312,31.0511 C111.0312,31.0511 110.7352,30.9551 110.5722,30.7511 C110.3562,30.4751 110.3482,29.9311 110.5602,29.0481 L112.7192,19.3761 C112.8912,18.5681 112.8312,18.0001 112.5352,17.6361 C112.2992,17.3451 111.9192,17.1971 111.3992,17.1971 C110.1162,17.1971 108.6802,17.7081 106.8812,18.8081 L106.8342,18.8361 L104.0552,31.0511 L99.4652,31.0511 L103.3912,13.8581 L104.8862,13.8581 C106.4732,13.8581 107.2132,14.5181 107.2852,15.9971 L107.2972,16.2451 L107.4942,16.0891 C109.1202,14.7941 111.0192,13.5941 113.8902,13.5941 C115.0892,13.5941 116.0702,14.0261 116.7252,14.8461 C117.5522,15.8851 117.7762,17.4731 117.3572,19.3201 L114.6542,31.0511 L111.5312,31.0511 Z" id="Fill-12" fill="#000000"></path>
            <path d="M123.7902,31.3146 C122.0992,31.3146 120.8832,30.8586 120.1592,29.9546 C119.4042,29.0116 119.2232,27.5716 119.6242,25.7936 L121.6872,16.8646 L119.7912,16.8646 L120.4352,13.8586 L122.3632,13.8586 L123.4262,9.2086 L128.0162,9.2086 L126.9522,13.8586 L130.0752,13.8586 L129.4322,16.8646 L126.2482,16.8646 L124.1982,25.8326 C124.0142,26.6366 124.0782,27.2246 124.3942,27.6206 C124.7292,28.0436 125.3492,28.2476 126.2802,28.2476 L126.9522,28.2476 L126.3722,30.9186 C125.7212,31.1586 125.0212,31.3146 123.7902,31.3146" id="Fill-14" fill="#000000"></path>
            <path d="M137.1404,17.4805 L139.7914,17.4805 C142.5454,17.4805 144.0004,16.2895 144.0004,14.0305 C144.0004,12.3665 142.8854,11.4475 140.8504,11.4475 L138.4914,11.4475 L137.1404,17.4805 Z M134.7494,27.6475 L138.2274,27.6475 C141.0704,27.6475 142.6374,26.2325 142.6374,23.6705 C142.6374,21.7505 141.4334,20.6515 139.3224,20.6515 L136.3644,20.6515 L134.7494,27.6475 Z M129.1514,31.0515 L134.4414,8.0445 L141.1864,8.0445 C146.0524,8.0445 148.7344,10.0165 148.7344,13.5985 C148.7344,17.1325 146.0754,18.5005 143.8484,19.0235 L143.7494,19.0525 L143.7494,19.3835 L143.8484,19.4035 C146.2594,19.9235 147.5354,21.4745 147.5354,23.8985 C147.5354,28.3755 143.9334,31.0515 137.8914,31.0515 L129.1514,31.0515 Z" id="Fill-16" fill="#000000"></path>
            <path d="M156.5589,23.3417 C154.4359,23.3417 153.1089,24.4977 153.1089,26.3607 C153.1089,27.7077 153.8559,28.4797 155.1639,28.4797 C156.4429,28.4797 157.2869,27.8397 158.0069,27.1477 L158.8029,23.6417 L158.6829,23.6097 C158.1509,23.4777 157.4789,23.3417 156.5589,23.3417 M153.4049,31.2507 C150.5699,31.2507 148.8109,29.5027 148.8109,26.6927 C148.8109,23.0627 151.6659,20.8037 156.2599,20.8037 C157.8469,20.8037 158.6339,20.9907 159.2419,21.1947 L159.3779,21.2427 L159.5419,20.4717 C159.8419,19.1597 159.7579,18.2247 159.2779,17.6207 C158.8549,17.0887 158.1509,16.8287 157.1229,16.8287 C155.4319,16.8287 154.0919,17.1647 152.7739,17.9127 L151.6019,17.8967 L152.3449,14.6577 C153.7049,14.1017 155.3239,13.5947 157.9539,13.5947 C160.5539,13.5947 162.3809,14.2377 163.3919,15.5097 C164.3679,16.7327 164.5879,18.5477 164.0479,20.9147 L161.7089,31.0507 L160.2449,31.0507 C159.1219,31.0507 158.2869,30.4787 157.9749,29.4787 L157.9109,29.2797 L157.7669,29.4267 C156.9549,30.2597 155.5439,31.2507 153.4049,31.2507" id="Fill-18" fill="#000000"></path>
            <path d="M176.4144,31.0511 C175.9144,31.0511 175.6224,30.9551 175.4554,30.7511 C175.2394,30.4751 175.2264,29.9311 175.4434,29.0481 L177.6024,19.3761 C177.7744,18.5681 177.7144,18.0001 177.4184,17.6361 C177.1824,17.3451 176.8024,17.1971 176.2824,17.1971 C174.9994,17.1971 173.5684,17.7081 171.7644,18.8081 L171.7204,18.8361 L168.9414,31.0511 L164.3474,31.0511 L168.2784,13.8581 L169.7704,13.8581 C171.3564,13.8581 172.1004,14.5181 172.1684,15.9971 L172.1804,16.2451 L172.3774,16.0891 C174.0034,14.7941 175.9024,13.5941 178.7744,13.5941 C179.9724,13.5941 180.9524,14.0261 181.6084,14.8461 C182.4354,15.8851 182.6554,17.4731 182.2404,19.3201 L179.5374,31.0511 L176.4144,31.0511 Z" id="Fill-20" fill="#000000"></path>
            <path d="M193.1269,31.0511 L189.8679,23.9221 L187.8449,25.8371 L186.6379,31.0511 L182.0399,31.0511 L187.3019,8.0451 L190.1239,8.0451 C190.7439,8.0451 191.0879,8.1491 191.2839,8.3931 C191.5599,8.7411 191.5639,9.4441 191.2959,10.6161 L188.9769,20.7351 L195.9579,13.8581 L199.9999,13.8581 L199.9999,14.9381 L193.3589,21.0431 L197.4219,29.8991 L197.4089,31.0511 L193.1269,31.0511 Z" id="Fill-22" fill="#000000"></path>
        </g>
    </g>
</svg>