<svg xmlns="http://www.w3.org/2000/svg" width="1046" height="380" xmlns:v="https://vecta.io/nano"><style><![CDATA[.B{stroke-linejoin:round}.C{stroke-linecap:round}.D{fill:#001c6c}.E{fill-rule:nonzero}.F{stroke:#212121}.G{stroke-width:2.299}.H{fill:#212121}.I{stroke-width:2.023}.J{stroke:#001d71}.K{stroke:#ffc415}.L{fill:#ffa300}.M{stroke-width:2.253}.N{stroke-width:2.943}]]></style><g fill="none" fill-rule="evenodd"><g transform="matrix(-1 0 0 1 615 259)"><path d="M66.535 80.552l-.194-1.48c1.254 10.046 3.373 19.97 4.795 29.993.2 1.418.377 3.487.538 5.762-4.585.3-9.227.18-13.866-.15 2.594-8.677 4.007-16.69 5.557-27.556.304-2.133.504-4.284.677-6.44l2.05-.1a8.95 8.95 0 0 0 .441-.031zm4.457-1.234c.283 1.233.548 2.483.794 3.745l.062.323.14.254 1.394 1.252c5.27 4.685 10.756 9.127 16.25 13.55l1.648 1.327c.995.8 2.088 1.504 3.26 2.012 2.4 1.037 4.862 1.872 7.313 2.76-2.708 1.615-5.68 3.12-8.985 4.81-1.82.93-3.665 1.723-5.535 2.392-1.675-2.493-3.38-4.968-4.878-7.567-1.932-3.352-3.42-6.95-5.203-10.38l-.044-.082.247.583 3.667 9.31.663 1.53c.934 2.087 2.01 4.122 3.26 6.036l.734 1.1c-3.76 1.206-7.6 1.942-11.51 2.34.255-9.206-.35-19.215-1.956-28.66l-.012-.07-.773-1.086-3.31-4.536a13.22 13.22 0 0 0 .354-.091c1.022 1.16 2.094 2.275 3.238 3.312h0l.07.062-.03-.155-.413-.746c-.52-.958-1.02-1.926-1.475-2.916a22.03 22.03 0 0 0 .752-.29zm-9.913 1.5c-.11 3.07-.306 6.052-1.07 9.656l-1.773 8.34-.114.62-2.333 12.504a66.05 66.05 0 0 1-.524 2.54l-.42-.038-.002.01 3.393-15.638.19-1.025c5.57-30.322-1.568 4.385-3.873 16.63-3.34-.303-6.67-.684-9.97-1.068.457-.75.9-1.508 1.33-2.275 3.57-6.387 6.957-12.88 10.168-19.453.665-1.36 1.053-2.845 1.438-4.3.562-2.14 1.188-4.274 1.643-6.44l1.655-.046zm-4.443.044l-.11.324c-6.047 18.147-1.113 9.98-12.172 32.138l-3.783-.436-2.985-2.23 7.27-12.422c1.262-2.16 2.497-4.343 3.55-6.613 1.68-3.625 3.094-7.37 4.676-11.038 1.182.158 2.36.242 3.555.277zM49.44 79.86l-.388.886c-2.577 6.014-4.815 12.174-7.457 18.162-1.315 2.98-2.828 5.873-4.41 8.72l-1.085 1.92-.514-.383c-1.352-.293-2.975-.843-4.737-1.57 4.138-5.387 8.166-10.854 11.708-16.638 2.233-3.647 4.092-7.497 5.874-11.39a27.46 27.46 0 0 0 1.011.297zm-4.065-1.52l-.258.436-1.125 1.83c-1.8 2.88-3.98 5.528-5.755 8.43-2.64 4.32-4.782 8.938-7.482 13.224a156.92 156.92 0 0 1-2.679 4.098c-3.72-1.766-7.72-4.074-10.967-6.294 6.148-4.114 11.805-8.97 16.525-14.19 2.945-3.256 5.71-6.668 8.456-10.094.932 1.01 2.017 1.88 3.284 2.56zm32.03-2.762c1.673 1.068 3.306 2.208 4.955 3.303 1.82 1.21 3.4 2.767 5.18 4.024 2.626 1.844 5.324 3.59 8.057 5.27 1.68 1.035 3.38 2.06 5.18 2.874 2.878 1.3 5.804 2.528 8.825 3.45l3.02.882a33.78 33.78 0 0 1-5.519 5.57c-8.138-6.44-16.595-12.478-24.74-18.91-2.2-1.736-4.32-3.57-6.4-5.446a34.62 34.62 0 0 0 1.33-.933zm-5.527 7.964l.092.48.175.963.156.896.063.087c1.107 1.57 2.18 3.16 3.186 4.795.405.66.79 1.33 1.16 2l.5.942-.4-.953-.682-1.52c-1.204-2.59-2.698-5.036-4.096-7.528l-.04-.07-.11-.1zM40.11 73.077l-.593.4c-13.073 8.587-20.374 12.708-29.495 19.966-2.387-3.7-4.235-8.826-5.444-12.45.854-.337 1.714-.657 2.582-.954 4.308-1.474 8.92-2.025 13.14-3.737l17.984-7.31c.487 1.437 1.085 2.82 1.827 4.092zm46.524-9.953c8.023 1.24 20.118 1.294 23.442 1.574 4.78.402 9.504 1.396 14.29 1.725.12.008.668.018 1.51.022-.133 2.148-.395 4.16-.868 5.63-.21.65-.433 1.3-.67 1.95-5.144-1.233-10.237-2.684-15.413-3.77-4.245-.9-9.9-1.732-15.69-2.903l-.632-.13.118.05c9.916 4.166 19.945 8.323 30.487 9.617-2.233 5.274-5.223 10.44-8.245 15.15-2.524-1.522-4.932-3.236-7.475-4.727-4.395-2.577-8.952-4.873-13.333-7.474-1.38-.82-2.683-1.77-3.933-2.78-2.55-2.056-4.942-4.312-7.447-6.425 1.4-1.625 2.518-3.317 3.19-4.966 2.152.58 4.368 1.085 6.574 1.54l.062.013-.525-.22-5.743-2.39c.143-.483.24-.96.293-1.428zm-49.827-.24l-.488.186C25.68 67.295 15.157 71.807 4.666 76.39l-1.4.616c-1.08-3.347-1.93-7.063-2.5-10.905 3.693-.302 7.407-.38 11.085-.826 3.99-.485 7.96-1.172 11.893-2.012 4.247-.907 8.443-2.043 12.655-3.106.113.9.243 1.803.398 2.727zm1.05 4.735l-1.408.548c-21.08 8.205-34.83 13.62 1.342-.678l.025-.01.04.14zm-30.6-15.855c7.44 1.88 14.98 3.375 22.54 4.696 2.092.365 4.193.68 6.3.952l.026.266.036.347.183 1.592c-1.74.184-3.475.4-5.203.675-10.3 1.64-20.28 3.97-30.395 5.592-.777-5.434-.98-11.108-.447-16.343 2.29.843 4.598 1.627 6.96 2.224zm117.37-12.186c.37 1.32-.104 2.744 0 4.1.17 2.255.495 4.498.762 6.745l-.538.084c-2.736.394-5.538.325-8.25.864-3.575.71-6.963 2.223-10.55 2.874-6.825 1.238-13.794 1.56-20.623 2.78l1.42-.236L86.734 54l.01-.004c12.84-5.467 17.747-7.747 18.13-8.18l.012-.03-1.953.735-16.278 6.077-.025-.42c8.158-3.115 18.11-6.77 18.267-6.42l-.01.025.79-.296 18.624-7.027.324 1.116zM13.01 42.852c4.062 1.926 8.3 3.467 12.374 5.366 3.058 1.425 5.9 3.28 9.017 4.6l1.578.642a24.8 24.8 0 0 0-.011 1.942c-.75-.113-1.495-.24-2.24-.38-5.29-.996-10.564-2.13-15.73-3.64C8.015 48.458 3.426 46.73.844 45.663c.19-1.037.415-2.05.675-3.028.303-1.145.98-2.677 1.873-4.4l1.91.67-.23-.12-1.542-.812.38-.712.01.002c3.27.805 2.652.448.22-.415l.584-1.056 31.516 12.552c-.392-.094-1.048-.143-2.096-.26l2.592.75.001-.033c-.004-.134-.044-.232-.136-.307l.6.256-.092.194-.382-.11v.013c-.005.178-.066.416-.15.74L18.862 43.62l-13.56-4.713 1.345.712c2.104 1.112 4.213 2.215 6.362 3.234zm82.376-37.3l-1.455 3.36.057-.107 1.01-1.946.6-1.202.096.047c4.228 2.104 8.028 4.405 11.408 7.02l1.92-2.652-4.598 6.385-.798 1.125.888-.994c.993-1.12 2.025-2.218 2.876-3.45l.084-.124c2.504 1.97 4.774 4.12 6.814 6.494l-1.966 1.49-.694.548.656-.415 2.225-1.362c2.844 3.36 5.234 7.17 7.18 11.565-2.87 1.297-5.725 2.627-8.542 4.034-17.373 8.678-14.615 8.105-26.565 15.983l-.048-.793c-.05-.837-.242-2.638-.594-4.513 3.73-3.47 7.708-6.67 11.38-10.2 4.188-4.024 7.955-8.473 12.182-12.457a36.22 36.22 0 0 1 2.095-1.817l.03-.027-.3.192c-.634.4-1.26.83-1.874 1.27l-.912.67c-3.733 2.834-6.94 6.305-10.55 9.295-3.875 3.21-8.108 5.98-11.893 9.295l.185-.158-.032.047-.922 1.27-.115-.37.884-.79.185-.158 2.266-3.146 15.076-21.382-1.7 1.905-18.345 20.42a24.16 24.16 0 0 0-2.379-2.865l4.512-11.54.996-2.358.168-.378-.118.207a134.3 134.3 0 0 1-7.327 11.314l-.528.724a19.29 19.29 0 0 0-1.865-1.249c1.054-2.735 2.07-5.487 2.93-8.285l.104-.348-.128.255c-.483.95-.973 1.9-1.383 2.88l-.235.592c-.6 1.57-.947 3.226-1.388 4.848-2.322-1.347-4.85-2.166-7.58-2.625.11-.69.194-1.367.242-2.03.663-9.193 3.494-19.28 3.61-29.043a185.1 185.1 0 0 1 8.043.09c1.463.047 2.84.31 4.162.716L84.5 6.843l-.04.25.018-.075L85.768.93c3.133 1.022 5.975 2.807 8.963 4.307zM14.026 21.16c6.697 5.917 11.35 9.568 18.648 17.283 2.06 2.18 4.064 4.412 6.045 6.664l-.916 2.255-.027-.01-32.77-12.075c3-5.186 6.95-11.028 8.507-13.385l.312-.458zm12.117-9.725c.837 1.155 1.655 2.322 2.407 3.533 4.715 7.593 10.075 14.88 14.64 22.564-1.293 1.28-2.185 2.62-2.927 4.065a22.02 22.02 0 0 0-1.162-1.045c-13.32-10.973-7.917-6 .824 1.725l-.197.43.01.01-25.5-21.85c2.97-3.942 7.33-6.828 11.567-9.24zm11.8-5.522l.093.43c1.698 7.35 4.017 14.543 6.235 21.75.565 1.837 1.283 3.63 2.11 5.366a23.67 23.67 0 0 0 .572 1.118c-.415.267-.825.548-1.23.842l-3.724-4.706-.062-.116c-1.136-2.055-3.957-6.594-9.68-15.315L31.428 14c-.886-1.346-1.845-2.64-2.843-3.906 3.096-1.625 6.217-3.012 9.368-4.19zm12.412-3.6c1.635 8.51 3.556 18.68 3.987 25.294a74.07 74.07 0 0 0 .342 3.644 23.77 23.77 0 0 0-5.845 2.207c-.376-3.118-.665-6.256-1.403-9.3-1.67-6.883-3.986-13.596-6.235-20.313l.277.828c2.68-.867 5.382-1.592 8.11-2.192zm-8.54 28.16l.185.232.09.16c3.167 5.9-10.723-13.416-.274-.393zM70 .082l-.198 13.16-.807 17.782c-2.404-.374-4.964-.478-7.68-.425-.074-4.012-.156-8.806-1.105-16.878-.83-7.052-.987-10.585-1.25-12.814C62.444.482 65.985.222 69.58.095zm14.48 7l-.422 1.96c-1.036 4.744-2.144 9.472-3.417 14.157l-.32 1.14-.236.787.16-.316c.57-1.144 1.106-2.3 1.45-3.526 1.188-4.22 1.946-8.66 2.623-13.114l.162-1.087zm9.46 1.83l-.97 1.83-4.08 7.763c-.57 1.145-1.12 2.3-1.65 3.467l-.353.79.493-.857c2.222-3.91 4.26-7.925 6.116-12.005l.445-.99z" fill="#54e375"/><g transform="matrix(-1 0 0 1 72 28)" class="D"><g class="E"><path d="M19.56.076c.495-.214 1.06.038 1.263.56s-.036 1.12-.53 1.335l-.518.22-.474.195-.76.306.027.014a1.03 1.03 0 0 1 .522.755l.008.078.008.01c.185.227.34.51.46.848l.014.04.047-.01.22-.03.065-.004a1.06 1.06 0 0 1 .35.039c.408.116.774.47.735 1.078-.014.223-.086.4-.188.547a1.11 1.11 0 0 1-.167.193c-.067.062-.137.113-.217.164l-.76.49-1.056.687-.043.03-.082.054-.092.057-2.36 1.54-2.06 1.31-.07.04-.288.155c-.817.43-1.292.552-3.57 1l-.136.026-.077.032c-.417.164-.728.207-1.06.102l-.066-.023c-.63-.234-.83-.875-.677-1.46a2.11 2.11 0 0 1 .178-.443l.044-.08-.057-.045c-.236-.2-.353-.477-.37-.756l-.002-.07c0-.158.03-.29.076-.418.065-.176.16-.33.294-.507l.04-.05-.02-.004C7.517 7.953 7.015 7.623 7 6.86v-.083c.015-.58.3-.92.827-1.293.496-.36 1.257-.756 2.414-1.3L10.665 4l1.824-.817.34-.156.697-.334.52-.27c.83-.42 1.636-.77 3.06-1.344l1.57-.633.883-.37zM17 5l-.3.133-.393.167-.762.31-.04.034-1.34 1.202L14 7l.294-.077.765-.57 1.83-1.28L17 5z"/><path d="M23.09 2.05l1.113-.04c1.53-.042 2.847.03 5.33.257l2.206.205 1.72.132a1.01 1.01 0 0 1 .828.539l.03.065.1.023c.235.05.434.103.604.164l.082.03c.184.073.342.16.485.286.29.257.47.64.382 1.092-.16.826-.688 1.024-2.226 1.338l-.135.026.035.035c.29.295.432.76.17 1.232l-.038.065c-.177.28-.368.38-.603.447-.12.034-.226.045-.36.05-.288.01-.796-.017-1.426-.077l-.128-.012c-1.857-.184-3.592-.452-5.056-.82l-.134-.035-1.48-.147c-.118-.012-.246.002-.525.057l-.38.078-.334.056c-.554.074-1.06-.325-1.133-.9-.036-.28.04-.546.195-.755l.048-.06-.045-.045c-.193-.195-.342-.4-.445-.62l-.032-.073-.066-.173-.033-.098-.37-.027-.517-.058-.032-.006c-.214-.04-.33-.073-.516-.216-.435-.334-.592-1-.157-1.517.16-.187.3-.26.48-.317.142-.046.298-.07.552-.092l.215-.017 1.585-.08z"/><path d="M8.517 9.764c1.547-6.606 5.995-9.81 11.514-6.36a1 1 0 0 1 .459.711l.002.024.038.043c.23.274.435.6.613.967l.052.11c.368.803.61 1.793.692 2.62.284 2.832.038 7.03-.874 10.137-1.373 4.675-4.183 6.994-8.4 5.56-3.984-1.353-5.51-7.773-4.097-13.815zm9.018-5.416c-3.375-1.27-5.91 1.003-7.045 5.71l-.036.153c-1.2 5.176.066 10.55 2.79 11.484 2.945 1 4.775-.515 5.86-4.248.825-2.837 1.054-6.8.796-9.387-.142-1.433-.75-2.8-1.296-2.863l-.04-.002c-.455 0-.837-.32-.945-.755l-.014-.065-.07-.027z"/><path d="M22.95 5.1c-1.105 1.303-1.693 2.782-2.448 5.677l-.198.77-.257.787a.95.95 0 0 0-.016.535l.053.21.197.984.16.96c.304 1.776.545 2.627 1.133 3.623 1.863 3.157 4.87 4.086 7.758 2.78 2.525-1.14 4.424-3.797 4.588-6.53l.076-2.053-.123-3.373c-.306-3.2-1.106-5.297-2.915-5.88-3.548-1.144-6.166-.61-7.936 1.422l-.073.085zm7.4.393c.687.215 1.293 1.757 1.53 4.164a28.96 28.96 0 0 1 .118 3.17l-.075 1.964c-.123 2-1.602 4.01-3.485 4.835-1.924.845-3.77.3-5.13-1.948-.446-.733-.65-1.432-.922-2.99l-.188-1.078-.13-.65-.068-.3.19-.56.02-.065.148-.566c.743-2.8 1.285-4.144 2.22-5.188 1.204-1.343 2.935-1.685 5.773-.797z"/><path d="M20.94 7c.56-.026 1.034.406 1.06.964s-.406 1.032-.966 1.058l-.666.032c-6.643.34-8.44.996-12.687 4.695-.422.368-1.063.324-1.43-.097a1.01 1.01 0 0 1 .097-1.428l.292-.253c4.574-3.934 6.842-4.625 14.3-4.97z"/><path d="M21.443 8.386c3.7-2.193 9.29-3.106 12.945-1.747.51.19.748.707.533 1.155s-.803.66-1.312.47c-2.962-1.102-7.856-.3-11.05 1.587-.46.27-1.08.164-1.39-.24s-.186-.952.273-1.224z"/></g><path d="M14.26 10.157c.592 1.606 3.86 7.847 6.125 3.715l.614-5.6-6.56 1.147c-.52.146-.58.395-.18.748zM27 8.576c.753 2.17 2.53 6.52 6 3.838l-.125-4.65-2.857-.502L27 8.576zM6.12 26.536c1.693-6.05 6.78-3.028 15.742-4.095 7.038-.838 11.302-3.617 17.616 4.095.394.48 8.04 6 4.663 8.245s-19.037-4.067-22.28-3.405C11.016 33.6 5.572 34.78 1.35 34.78c-2.815 0-1.225-2.748 4.77-8.245zM13 37.45c5.953 7.2 8.992 14.2 12.744 2.728.248-.758 1.792-4.714 1.062-4.872-1.815-.394-6.807 1.967-8.645 2.208-1.5.198-3.045.022-4.567.032L13 37.45z"/></g></g><g transform="matrix(-.996195 -.087156 -.087156 .996195 507.630465 282.848681)"><path d="M4.14 86.102C-7.508 47.385 25.308 15.45 54.574 6.46 99.017-7.196 113.566 83.8 111.57 84.58 99.252 89.323 63.442 89.83 4.14 86.102z" fill="#001d71"/><path d="M88.96 39.412c1.993 16.086-13.658 56.696-30.166 54.473-13.864-1.867-21.935-13.73-26.205-26.43-.722-2.148-11.436 3.46-12.9-6.527s10.22-3.72 9.914-5.554c-1.023-6.13-.943-11.33-.784-15.484.025-.656 3.525-2.686 11.008-3.887 3.348-.538 7.493-.9 12.48-.918 7.115-.013 15.065.69 21.737 1.538 1.92.244.172-17.777 1.83-17.523 1.687.26 6.773 18.797 8.084 19.04 3.08.57 4.975 1.056 5 1.273z" fill="#f2f4f6"/><path d="M70.044 44.213c.93 7.516 7.038 5.098 7 .084m-7.468 5.37l-2.254 2.814m6.238-2.465L72.12 54.9m3.5-5.717l.648 4.072" class="B C F G"/><path d="M61.385 39.916c4.003 9.996 6.46 15.867 7.374 17.6.403.77 1.273 1.764.807 2.523-.427.697-7.257-.057-7.614-1.392-.184-.7.147-2.898.03-2.18-.72 4.424-.874 7.273-.465 8.545" fill="#f5fff6" class="B C G J"/><g class="B C F G"><path d="M47.026 44.118c-1.38 6.198 6.496 6.908 8.034-.74m-7.497 5.367l-2.167 1.818"/><path d="M49.953 48.954l-.06 3.006m2.737-3.775l1.73 3.163"/></g><path d="M60.974 67.57c2.4.266 1.668 3.653 3.543 3.2.946-.23 1.74-1.286 2.7-1.112.913.165 2.72 2.233 4.68 2.97.778.292 2.01.29 3.69-.002-2.28 1.925-4.25 3.3-5.907 4.096-2.8 1.357-10.178 4.198-17.11.026-3.932-2.366-10.314-10.88-11.435-11.9l17.14 8.274c13.96 2.01 12.993 2.63-3.488-2.327-2.46-.74-7-2.722-13.652-5.946 2.283-1.276 8.762.895 13.654 2.225 4.178 1.136 5.08.378 6.185.5z" fill="#ff4445"/></g><g transform="matrix(-1 0 0 1 736 236)"><path d="M7.867 49.696C20.7 33.75 44.802 31.605 64.955 32.405s26.964 5.583 37.057 21.03 7.842 27.487 2.095 38.892C90.64 119.05 27.124 127.282 6.11 102.14c-11.2-13.4-4.196-34.814-.946-48.6l2.704-3.843z" fill="#ff8100"/><g stroke-width="3.86" class="B C K"><path d="M66 45.253c3.718 7.907 14.182 2.612 10.05-3m-25.027-7C58.298 38.904 63 45.324 69.06 50.885c3.354 3.076 6.664 6.2 9.728 9.556.902.984 2.637 2.16 2.114 3.373-.48 1.114-11.896 1.957-12.9.153-.52-.933-.67-4.176-.635-3.117.32 9.77 4.327 19.974 1.955 27.892-1.27 4.238-19.03 1.34-18.303 3.864 1.538 5.352 7.763 5.77 18.674 1.254 1.078 2.167.447 4.805.317 7.206-.293 5.416-1.057 10.8-1.585 16.198"/><path d="M47.05 47.867c-.76 6.082 7.45 9.926 12.786 5.446 3.585-3 1.65-6.918 1.59-11.05"/></g><path d="M67.574 19.18c-4.163 13.84-27.73 16.185-38.053 8.423-10.29-7.74-.655-7.67 5.634-4.82 4.89 3.648 11.167 4.192 18.83 1.63.14-.038.29-.09.446-.152l.108-.038.46-.164-.035-.04c5.022-2.51 15.24-13.592 12.608-4.84zM56.752 6.423c2.775 6.285-2.61 13.846-4.028 16.412-4.41 1.106-9.827.5-16.253-1.823-2-4.595-2.634-9.974.333-14.526 5.053-7.754 15.79-9.475 19.948-.062z" class="D"/></g><g transform="matrix(-.965926 -.258819 -.258819 .965926 847.8128 240.443154)"><path d="M24.916 20.7C10.004 52.833 3.964 75.14 6.795 87.62c23.39 18.612 48.588 25.364 75.595 20.256 14.373-28.81 19-47.472 13.91-55.98 12.276 3.214 19.64 1.89 22.097-3.973s-7.364-12.575-29.46-20.137c-14.873-3.8-26.488-6.163-34.844-7.088s-18.082-.924-29.18.003z" fill="#7ee081"/><g class="B C G"><path d="M27.85 26.945c.85-5.66 8.014-14.932 13.1-17.127 1.336-.578 2.735-1.023 4.154-1.326.913-.195 2.436-1.03 2.8-.157 2.602 6.395-9.8 16.833-14.524 18.223-.413.122-.097-.907.076-1.307.515-1.186 1.075-2.4 1.945-3.35 4.455-4.867 10.27-10.793 17.145-12.13.6-.12 1.627-.59 1.86-.008 1.848 4.604-2.56 12.142-6.712 14.34-1.823.964-4.17 4.128-5.6 2.64-1.366-1.432 1.996-3.52 3.383-4.954 2.643-2.732 5.525-5.25 8.614-7.446 1.615-1.148 3.497-1.898 5.376-2.494 1.64-.52 3.376-.966 5.08-.82.467.04.518.83.567 1.304.7 6.675-6.724 13.167-12.082 15.526-.505.222-.172-1.143.007-1.67.224-.662.697-1.22 1.152-1.75a55.16 55.16 0 0 1 3.879-4.084 12.81 12.81 0 0 1 2.224-1.68c2.724-1.626 5.378-3.445 8.317-4.613 1.387-.55 3.22-1.31 4.436-.455.957.672.41 2.45-.015 3.56-1.885 4.91-3.34 7.6-7.124 10.273-1.45 1.025-3.435 2.077-5.3 1.912-.234-.02.142-.47.29-.656 1.728-2.2 3.455-4.406 5.32-6.488 1.97-2.2 4.013-4.342 6.177-6.346.555-.515 1.208-.993 1.937-1.17 2.036-.498 4.31-1.656 6.226-.825 1.05.455.307 2.392-.087 3.487-.872 2.425-4.192 7.163-6.33 8.89-4.808 3.884-4.71.692-2.57-1.66 2.69-2.955 5.35-6 8.475-8.463 1.05-.832 2.49-1 3.796-1.25 1-.186 2.147-.446 3.076-.013.554.258.576 1.124.636 1.74.126 1.3.4 2.708-.087 3.923-1.723 4.3-6.663 9.373-11.342 9.71" stroke="#ff8100"/><path d="M78.798 33.6c.908 1.496 1.64 3.097 2.725 4.5 2.775 3.564 8.4 2.4 8.968-1.934.254-1.93.12-3.902.037-5.855-.004-.1-.2-.003-.286-.005m-8.472 38.58c6.36 6.452 12.4.53 18.635-3.864" stroke="#001c6c"/><path d="M98.516 74.868c3.164 1.335 2.5.474 4.076 4.777.63 1.72 1.232 3.476 1.493 5.293.237 1.65.276 3.36-.014 5.005-.535 3.026-7.113 4.584-8.763 1.984-2.572-4.056-3.218-6.227-3.628-11.1-.086-1.016-.393-2.298.296-3.047.572-.622 1.907-.6 2.512-.007 1.574 1.513 2.77 3.532 3.356 5.65.708 2.562.602 5.32.408 7.98-.175 2.397-4.543 6.497-6.612 3.574-1.648-2.33-2.393-4.987-2.633-7.83-.22-2.6-.606-5.266-.12-7.834.802-4.247 2.304.46 2.506 2.17.33 2.785.466 5.622.2 8.416-.222 2.26-.982 4.442-1.67 6.607-.187.6-.504 1.16-.937 1.598s-.983.82-1.582.95c-.704.153-1.558.266-2.153-.14s-.847-1.236-.927-1.956c-.555-4.983-1.048-9.998-.963-15.016.007-.418 1.14-.63 1.222-.22 1.1 5.566-.306 8.798-2.767 13.792-.483.98-2.484 3.4-4.1 2.55-2.623-1.38-.874-13.314 1.9-14.95.23-.135.743-.337.8-.074.8 4.466-1.7 9.12-4.842 12.13-.73.7-5.857 2.952-6.392 1.613-1.795-4.5-.16-12.78 3.92-15.6.28-.194.95-.485 1.005-.148 1.04 6.413-1.757 6.976-6.994 11.483-.852.733-2.268 2.7-2.877 1.748l-1.364.294c-2.327-3.6 6.593-10.127 6.8-15.544.02-.5-.44.94-.794 1.307-1.53 1.585-3.214 3.008-4.82 4.512M97.75 51.887c1.342.584 1.063.2 1.714 2.123.26.768.508 1.553.6 2.367.093.74.1 1.506-.03 2.245-.243 1.36-3.053 2.1-3.743.93-1.076-1.807-1.34-2.778-1.492-4.956-.032-.455-.156-1.03.14-1.368.247-.282.815-.273 1.07-.015a5.56 5.56 0 0 1 1.402 2.518c.3 1.146.23 2.384.135 3.576-.086 1.076-1.967 2.936-2.835 1.635-.7-1.037-.996-2.225-1.084-3.5-.08-1.166-.233-2.36-.014-3.513.362-1.908.98.195 1.057.96.127 1.247.17 2.52.04 3.774-.106 1.015-.44 1.997-.743 2.97-.083.265-.22.523-.407.72s-.423.372-.68.433c-.3.072-.665.127-.917-.052s-.355-.55-.385-.873l-.337-6.73c.005-.187.5-.288.522-.105.44 2.5-.173 3.947-1.246 6.2-.2.442-1.075 1.537-1.76 1.164-1.1-.606-.307-5.967.886-6.714.098-.06.318-.154.337-.037.315 2-.77 4.1-2.122 5.463-.315.318-2.5 1.352-2.73.754-.743-2.005-.007-5.73 1.746-7.02.12-.088.408-.222.43-.07.412 2.87-.783 3.137-3.036 5.184-.367.333-.98 1.217-1.234.798l-.583.138c-.974-1.604 2.858-4.573 2.97-7.004.01-.23-.192.424-.345.6L83 56.528" stroke="#ff8100"/></g></g><g transform="matrix(-1 0 0 1 181.199973 209.422994)"><path d="M71.593 49.84c8.765 0 19.53-.543 32.295-1.63L107.2 32.2H92.847L93.95 8.84H14.456l-.486 12.95C4.8 19.27.2 20.453.2 25.34s4.108 7.804 12.324 8.75l2.76 12.5c28.775 2.172 47.544 3.258 56.31 3.258z" class="L"/><path d="M60.753 8.693c-.387 6.8 5.626 8.53 7.293 2.27 1.272-4.775-5.66-5.228-7.845-2.27m23-1.213c.127 1.532.033 3.098.38 4.596 1.504 6.5 9.715.194 5.36-5.238" class="H"/><path d="M95.547.577c1.69 0-.31 14.755-1.37 17.716-1.345 3.756-4.52 2.945-7.945 2.945-1.203 0-2.22-.043-3.1-.16a47.72 47.72 0 0 0-6.931-6.502h0l.258 1.44-.12.285c-2.117 4.878-6.232 6.274-11.2 6.274-11.73 0-16.413-8.748-14.535-22h44.945zm-23.31 5.977h-15.85l-.005.076c-.23 3.637.286 6.342 1.44 8.134l.06.094.06.086c1.383 1.997 3.842 3.038 7.742 3.038 2.876 0 4.78-1.96 5.92-6.843l.037-.162c.19-.868.374-2.196.55-3.963l.034-.347.01-.112zm18.825 0H79.32l.006.023c1.77 7.1 4.157 9.945 8.8 10.063l.14.003.166.001c.166 0 .252-.034.408-.18.33-.306.69-.9 1.02-1.836.63-1.76 1.037-4.346 1.194-7.725l.015-.35z" fill="#fb3640" class="E"/><path d="M79.2 17.84c5.138 4.33 9.693 10.636 8.912 11.676-1.022 1.36-4.717 1.642-5.62 1.1-.725-.444-.398.158-.398 5.234m-15.894-4c6.55 5.162 13.82 5.818 21 4.25" class="B C F I"/><g class="J B C I"><path d="M73.2 43.84c1.365 5.675 4.588 9.25 8 14m-2-14c3.982 11.93 3.097 6.84 4 15m1-15c1.133 12.047.995 7.037.995 15m4.005-15l-3 16m6-15c-.27 5.638-1.557 10.135-4 15m8-16c-.535 5.468-2.162 10.735-6 15"/><path d="M98.2 49.84c-4.588 6.373-5.142 8.326-12 10"/></g><path d="M67.2 29.84c-.476.98-1.422 1.944-3 2" class="B C F I"/></g><path d="M909.765 175.262l63.645 4.492c.934 3.707 1.384 10.967 1.35 21.78l.158-.1c.833-.523 1.512-.852 2.914-1.162l.2-.04c1.82-.377 5.748-.848 7.262-.45 4.135 1.084 6.06 6.406 3.678 9.975-3 4.5-9.267 7.51-14.46 5.94l-.05 1.592-1.043 23.608c-21.79 3.16-49.884 3.16-84.287 0-1.135-21.74 5.597-43.4 20.197-64.976l.445-.654z" fill="#ff8100"/><g fill="#001d71"><g class="E"><path d="M905.122 170c.5.01.895.414.886.904l-.003.1-.027.433-.073.913-.03.4-.066 2.04c.026 1.437.25 2.484.66 3 1.732 2.176 4.694 4.378 7.616 5.533 3.367 1.33 6.317 1.197 8.417-.615.375-.323.945-.287 1.274.082a.88.88 0 0 1-.084 1.253c-2.69 2.32-6.343 2.484-10.282.927-3.218-1.272-6.438-3.666-8.364-6.086-.72-.904-1.01-2.27-1.044-4.063-.013-.742.017-1.48.085-2.393l.083-1.034.027-.4.005-.13c.01-.5.42-.88.92-.872z"/><path d="M910.576 170.055c.453-.17.954.073 1.12.545 1.958 5.618 3.644 8.2 7.23 10.072l.488.253a20.72 20.72 0 0 0 .757.37c.677.314 1.3.553 1.873.704 1.156.305 1.95.22 2.378-.247l.042-.048a.85.85 0 0 1 1.232-.1c.367.327.4.9.096 1.283-.95 1.158-2.408 1.343-4.177.876-.615-.162-1.252-.4-1.928-.703l-.227-.104a26.64 26.64 0 0 1-1.202-.598l-.114-.06c-4.077-2.128-5.994-5.064-8.1-11.078-.165-.472.07-.994.523-1.165z"/><path d="M916.685 169.023c.473-.113.944.2 1.05.698l.097.445c.72 3.277 1.322 5.244 2.262 6.983 1.23 2.274 2.87 3.616 5.17 4.012.48.083.804.558.725 1.063s-.53.846-1.01.764c-2.86-.493-4.935-2.19-6.412-4.923-1.093-2.02-1.746-4.218-2.545-7.934-.107-.5.2-.994.663-1.107z"/><path d="M923.57 172.19l.277-1.5c.098-.45.527-.75.985-.678s.776.49.734.947l-.008.06-.412 2.3-.17 1.106-.036.263c-.183 1.357-.243 2.39-.157 2.887.917 5.265 5.93 8.616 11.193 7.45 1.734-.384 2.862-.988 4.224-2.143l.212-.185 2.147-1.924c.364-.317.915-.276 1.23.09s.274.92-.1 1.238l-.143.126-2.234 1.997c-1.566 1.327-2.943 2.064-4.972 2.514-6.227 1.38-12.196-2.608-13.285-8.86-.128-.735-.06-1.9.147-3.427l.167-1.127.048-.294.143-.83z"/><path d="M928.873 171c.482 0 .873.414.873.925l.004 1.015c.01.796.05.916.196 1.262l.03.066 2.06 3.925.176.346c2.714 5.38 5.706 5.928 10.4 2.313.4-.3.936-.21 1.22.204s.197.992-.193 1.292c-5.462 4.207-9.647 3.49-12.87-2.747l-.413-.808-1.992-3.81-.053-.124c-.298-.716-.312-.97-.312-2.936 0-.51.39-.925.873-.925z"/><path d="M933.58 171.042c.434-.153.895.123 1.03.616 1.497 5.49 3.728 8.41 7.76 9.5.442.12.715.623.6 1.125s-.548.812-1 .693c-4.672-1.26-7.296-4.7-8.95-10.764-.134-.493.108-1.016.542-1.17z"/><path d="M941 171c.5-.007.894.37.9.843l.002.22-.022 1.02-.073 1.5c-.07 1.58-.036 2.368.17 3.278.887 3.904 3.797 6.075 7.896 6.39 3.777.3 8.006-1.107 10.628-3.496a.91.91 0 0 1 1.255.034c.337.344.32.885-.036 1.2-2.99 2.725-7.715 4.286-11.988 3.958-4.84-.37-8.425-3.046-9.49-7.73-.254-1.12-.288-2.028-.204-3.84l.066-1.356a18.78 18.78 0 0 0 .019-1.162c-.008-.473.384-.862.874-.87z"/><path d="M947.16 171c.5.007.9.394.893.864l-.003.12c-.01.238-.036.46-.092.825l-.03.195c-.14.877-.146 1.22 0 1.532.958 2.048 2.592 4.433 4.36 6.128 2.195 2.105 4.39 3.015 6.443 2.478.47-.123.844-.333 1.6-.88l.456-.328.813-.538c.424-.25.984-.13 1.25.266s.14.923-.283 1.173l-.14.086-.487.33-.535.383c-.938.667-1.446.95-2.198 1.147-2.815.736-5.618-.425-8.227-2.927-1.93-1.852-3.682-4.408-4.723-6.634-.322-.69-.325-1.23-.153-2.342l.068-.44a4.38 4.38 0 0 0 .058-.601c.008-.47.42-.845.92-.837z"/><path d="M952.67 171.017c.453-.095.896.206.988.67l.36 1.785.077.365.063.288c1.028 4.636 2.138 5.655 7.087 6.157.46.047.797.468.75.94s-.456.818-.916.77l-.343-.037c-5.412-.606-7.038-2.214-8.205-7.42l-.174-.81-.34-1.697a.86.86 0 0 1 .654-1.014z"/><path d="M960.83 171c.478-.02.882.366.902.864l.014.436.01.98-.002 1.837.065 2.887.006.104c.297 4.982 1.67 7.608 4.95 7.962 1.866.202 3.737.15 6.57-.102.96-.086 1.617-.35 2.405-.917l.108-.08 1.763-1.396c.387-.293.93-.204 1.21.2s.196.968-.19 1.26l-.28.218-1.46 1.16-.04.03c-1.076.798-2.036 1.205-3.37 1.324l-.508.044c-2.657.223-4.506.258-6.39.055-2.357-.255-4.042-1.47-5.097-3.485-.81-1.547-1.225-3.483-1.39-5.923l-.015-.238-.074-2.8.001-2.338-.023-1.15c-.02-.498.35-.92.83-.94z"/><path d="M964.88 171c.507-.02.934.367.954.865l.012.333.028 1.262.016 2.504c.025 2.87.127 4.27.483 5.875.503 2.274 1.48 4.086 3.144 5.61 2.216 2.028 8.518-.35 8.644-3.07l.002-.083a.91.91 0 0 1 .918-.902.91.91 0 0 1 .918.902c0 4.377-8.353 7.567-11.734 4.473-1.953-1.787-3.107-3.93-3.686-6.545l-.047-.218c-.366-1.737-.46-3.27-.48-6.38l-.01-1.745-.007-.584-.037-1.358c-.02-.498.373-.918.88-.938z"/><path d="M969.02 175.756c.044-.46.457-.796.922-.752a.84.84 0 0 1 .765.857l-.003.053c-.152 1.583.968 5.55 2.48 8.22 1.8 3.18 3.572 4.04 5.373 2.256.33-.326.865-.327 1.196-.001a.83.83 0 0 1 .001 1.181c-1.472 1.457-3.1 1.795-4.658 1.04-1.25-.607-2.384-1.885-3.4-3.66-1.666-2.943-2.876-7.23-2.687-9.193zm-39.07 10.488l.146-.072c.398-.2.672-.24 1.05-.06.427.204.6.62.548 1.027-.02.186-.08.36-.173.56-.22.464-.684.98-1.305 1.506l-.147.12.042.028c.253.182.412.493.37.848l-.01.06a1.04 1.04 0 0 1-.056.2l-.005.01.07-.008c.02-.002.04-.002.07 0l.167.017.1.026c.226.07.256.1.538.482l.052.24a.61.61 0 0 1 .006.338l-.01.035.045.017a.88.88 0 0 1 .45.4l.027.053a.91.91 0 0 1-.365 1.172l-2.478 1.23-4.404 2.095-1.4.634-.342.15c-2.557 1.12-4.667 1.925-6.22 2.335-.952.25-1.7.357-2.27.3-.92-.107-1.54-.735-1.407-1.693.17-1.217.814-2.07 1.847-2.612l.122-.062.005-.033a.98.98 0 0 1 .032-.119l.055-.158.078-.118a.62.62 0 0 1 .165-.181l.095-.064a.36.36 0 0 1 .093-.05l.082-.033c.067-.024.132-.037.298-.065l.307-.05 1.15-.137.303-.028.098-.014.538-.083.374-.06-.127.007c-1.847.1-3.417-.117-4.158-.757l-.055-.05c-.554-.525-.806-1.14-.36-1.764.273-.384.664-.53 1.23-.598l.096-.01c.632-.066 1.27-.048 2.906.053l1.076.066c1.273.072 1.978.077 2.478.005.732-.106 1.677-.412 2.665-.826l.097-.04-.258.03-3.576.247-2.237.1-2.077.127c-.486.04-.9-.33-.948-.827s.325-.928.8-.967l.446-.034 1.333-.08 2.55-.114c2.67-.124 4-.25 5.608-.56.288-.056.8-.304 1.482-.73l.204-.127.402-.257.873-.57.186-.12.646-.38zM920 197l-.44.024c-3.056.183-4.23.625-4.555 1.955L915 199h.012c.3-.012.708-.105 1.23-.28l.113-.04c.88-.305 1.987-.812 3.286-1.492l.36-.2z"/></g><path d="M920.584 199.524c4.023 2.378 2.147 4.66.607 9.607-1.73 5.55-3.72-1.28-3.976-3.16-.73-5.355.394-7.503 3.37-6.446z"/><g class="E"><path d="M935.495 189.003l.882.072 3.97.312c.517.05.734.1 1.016.233l.046.022.13.064c.353.17.556.252 1.06.418l.298.096c1.237.394 3.184.915 6.045 1.598l.206.05c.475.113 1.268.21 2.512.323l2.072.18.44.044c.5.054.825.104 1.048.17a1.15 1.15 0 0 1 .441.222c.398.33.47.92.084 1.325-.22.23-.428.3-.848.385-2.13.433-5.8.467-9.228.157l-.17-.016.007.005 1.86 1.128.236.124c.208.108.673.243 1.32.387l.208.045 1.5.297.122.026.102.024.045.01c.16.042.25.07.366.147l.1.07c.115.086.133.127.302.5l-.016.205c-.03.36-.06.432-.233.594l-.1.1-.01.008.598.144.342.09.02.007a1.9 1.9 0 0 1 .291.129c.223.126.387.273.475.574.038.13.048.252.037.364l-.006.046.024.02.057.057c.42.445.326 1.116-.19 1.448-3.28 2.108-7.003 2.297-11.08.945-3.012-1-5.87-2.654-9.5-5.23-.404-.287-.492-.838-.197-1.23s.86-.48 1.265-.192l.472.333c3.27 2.29 5.875 3.767 8.545 4.653 2.748.912 5.238 1.03 7.498.235l.134-.05-.196-.04-1.6-.34-.227-.052-.105-.01c-1.877-.173-3.21-.363-4.524-.682l-.152-.037c-1.95-.487-3.662-1.077-5.205-1.83-.43-.21-.74-.424-1.22-.827l-.23-.195-.21-.082-2.89-1.166-.376-.157a1.56 1.56 0 0 1-.22-.11c-.22-.134-.37-.277-.437-.598s.047-.63.277-.837c.125-.112.25-.17.38-.207.108-.03.2-.04.304-.04.2-.003.46.03.8.086a11.58 11.58 0 0 1 .975.209l.047.013-.003-.006a2.97 2.97 0 0 1-.242-.874l-.01-.083a.97.97 0 0 1 .505-.98l.016-.01-.04-.04-.05-.06c-.206-.255-.304-.6-.143-.936l.01-.02-.033-.004c-.45-.065-.78-.448-.77-.9l.003-.056c.043-.485.48-.844.98-.802zM938 194l.036.03c.84.658 2.158 1.315 3.88 1.94l.084.03-.19-.09-.327-.156-.366-.178-2.767-1.397-.35-.18zm2-3l.03.014c.728.353 1.44.8 2.202 1.36l.128.095.192.04c1.015.203 2.14.363 3.297.477L946 193l-.855-.247c-1.022-.3-1.854-.563-2.52-.793l-.32-.113-.242-.088a13 13 0 0 1-.865-.352l-.077-.036a6.5 6.5 0 0 1-.248-.123l-.106-.057-.184-.102c-.062-.03-.128-.045-.392-.07L940 191z"/><path d="M933.18 197.212a.92.92 0 0 1 1.273.094.86.86 0 0 1-.051 1.197l-.046.04c-.2.158-.338.52-.393.994-.2 1.65-.212 3.238-.05 4.743.532 4.915 4.796 8.934 9.125 7.746 1.047-.287 2.803-2.3 4.522-5.13.695-1.146 1.34-2.35 1.828-3.4l.102-.224c.435-.966.7-1.728.704-1.97v-.024c-.012-.485.382-.887.88-.9s.912.372.924.857c.025 1.02-1.2 3.762-2.8 6.423l-.085.14c-1.963 3.234-3.913 5.468-5.586 5.927-5.573 1.53-10.773-3.372-11.4-9.252-.177-1.637-.155-3.352.05-5.123.1-.872.4-1.63 1-2.13zm-13.452-2.792c.7-.355 1.422-.067 1.993.45a.83.83 0 0 1 .04 1.206c-.32.33-.848.36-1.204.076l-.044-.037c-.027-.024-.056-.047-.084-.067l-.024-.017-.02.02c-.148.14-.3.37-.405.658l-.03.08c-.554 1.522-.932 3.02-1.117 4.48-.34 2.684.63 5.72 2.473 7.542.34.337.334.877-.014 1.207s-.907.323-1.248-.014c-2.23-2.205-3.365-5.76-2.963-8.942.2-1.588.6-3.207 1.204-4.84.293-.805.76-1.456 1.444-1.803z"/><path d="M930.58 192.53c.195-.45.7-.652 1.15-.453s.64.724.445 1.172l-.123.28c-1.372 3.095-2.884 5.4-6.298 9.987l-.893 1.198c-2.64 3.556-3.916 5.453-5.098 7.76l-1.513 2.996-.492.996a51.62 51.62 0 0 0-.689 1.485c-.616 1.39-1.033 2.54-1.218 3.414-.094.444-.122.793-.1 1.025.01.063.02.108.032.137l.003.007.102.057c4.02 2.158 11.72-1.233 14.587-5.83l.086-.14c.807-1.348 2.068-1.5 3.377-.755.433.246.86.575 1.353 1.015l.164.15 1.11 1.028c3.996 3.29 6.04 7.44 6.375 12.37.28 4.142-.632 8.72-2.57 13.998-.17.46-.672.693-1.123.52s-.68-.684-.51-1.144c3.973-10.813 3.488-18.65-3.066-24.194l-.2-.167c-.226-.186-1.15-1.062-1.215-1.122-.458-.417-.83-.7-1.165-.9-.546-.3-.765-.298-1.008.083l-.028.046c-1.45 2.424-4.357 4.8-7.56 6.214-3.548 1.565-7.022 1.788-9.585.312-.932-.537-1.08-1.62-.77-3.08.217-1.02.672-2.276 1.334-3.77l.585-1.27.247-.513 1.774-3.527c1.32-2.624 2.675-4.633 5.664-8.646l.903-1.212c3.228-4.352 4.63-6.536 5.926-9.522z"/><path d="M925.448 222.012c.5-.078.953.24 1.035.7.6 3.45.66 6.725.278 10.402-.133 1.284-.318 2.612-.572 4.166l-.1.594-.166.965-.853 4.766-.283 1.66c-.078.47-.54.792-1.03.717s-.825-.517-.747-.988l.117-.698.17-.975.244-1.373.502-2.788.226-1.295.045-.265c.3-1.782.51-3.25.657-4.654.366-3.533.308-6.657-.262-9.947-.082-.47.25-.915.74-.993z"/><path d="M941.673 229.115c.432-.245.976-.085 1.215.356s.084.998-.348 1.243l-.428.24c-6.927 3.855-10.68 4.026-17.602.65-.446-.217-.635-.763-.422-1.22s.746-.65 1.19-.432l.387.187c6.262 2.984 9.425 2.7 16.007-1.025z"/></g><path d="M934.527 198.262c4.08 2.506 6.563 6.678 5 11.89-1.753 5.85-5.932-2.113-6.19-4.097-1.11-8.464.873-2.573.873-6.75"/></g><path d="M888.407 243.26c21.444 13.288 34.594 45.14 39.45 95.56l.145 1.533c-28.41 7.657-49.793 11.622-64.145 11.894s-32.637-3.522-54.855-11.382c.22-24.345 2.705-41.928 7.458-56.233 2.428-7.308 10.61-20.324 24.543-39.048l.268-.36c18.242.97 34.01.16 47.08-1.954l.056-.01z" class="L"/><g class="J B C M"><path d="M834 301.5c9.922 4.936 16.3-1.375 23-8.24m11 1c1.216 5.714 1.98 9.292 5 13.9.072.1-.242.066-.363.1m6.373-2c-6.58-3.948-2.626-.976-10-11m24 8c-8.96-.62-18.187-3.93-25-10"/><path d="M894 297.705c-4.795.616-14.573 5.015-26-4.444m26-2c-12.86 1.53-4.917.923-24 .64m-26 17.36c5.48-4.4 13.57-9.3 15-17m-7 17c6.248-4.393 1.85-.748 9-15m-2 15c4.578-9.6 3.067-4.873 5-14"/><path d="M867 308.26c-4.575-7.436-2.895-3.18-4-13m11 13c-5.256-8.2-2.703-3.335-7-15m-27-7c5.18 3.238 12.346 9.225 18 3.84"/><path d="M837 293.417c3.19.728 19.294 4.798 18.996-2.155"/><path d="M849.284 250.26c-.378 3.532-.378 5.742 0 6.63 2.402 5.636 6.156 3.758 7.716-2.32"/><path d="M859.086 246.26c-7.28 32-6.745 48 1.606 48s11.242-5.66 8.672-16.98l-1.285-29.06c3.854 13.714 7.494 14.367 10.92 1.96" class="L"/></g><path d="M831.32 278.097c-1.8-.967-2.854-1.833-3.134-2.6-1.488-4.076 1.516-6.3 6.894-3.248.2-4.764 1.985-7.687 5.327-8.77s3.97 1.84 1.88 8.77c3.326-.512 5.415-.512 6.268 0 2.853 1.716 1.528 5.903-4.387 8.445 2.925 2.6 3.343 5.305 1.254 8.12s-4.596 1.516-7.52-3.898c-4.178 5.197-7.417 6.496-9.715 3.898s-1.254-6.172 3.134-10.72zm63.863-3.325c1.744-1.296 2.7-2.36 2.872-3.192.9-4.43-2.596-6.2-7.752-2.167-.98-4.848-3.312-7.545-6.992-8.1s-3.87 2.556-.57 9.307c-3.572.036-5.763.388-6.575 1.057-2.72 2.24-.66 6.3 5.953 7.917-2.653 3.157-2.658 6.002-.016 8.535s5.064.778 7.267-5.264c5.215 4.622 8.82 5.408 10.815 2.357s.328-6.538-5.002-10.46z" stroke="#f06aa6" fill="#f06aa6" class="B M"/><g fill="#c23362"><circle cx="838" cy="277.261" r="4"/><circle cx="887" cy="275.261" r="4"/></g><path d="M888.577 249.153c13.382-2.403 20.857-4.142 22.423-5.215l-2.925-8.15c-13.865 3.26-22 4.89-24.373 4.89-1.517-23.686-5.74-35.53-12.674-35.53-2.255 0-4.855 3.26-7.8 9.78-4.116-12.604-8.45-14.994-13-7.17s-6.933 19.666-7.15 35.53c-7.156-.23-12.464-.533-15.924-.91s-6.167-.942-8.124-1.7v7.497c-.35.362 2.056.875 7.214 1.54s10.336 1.13 15.534 1.393c6.283.48 21.88-.17 46.796-1.956z" class="D"/><path d="M303 245.084c-1.84 40.736-46.47 55.84-17.944 82.387 6.817 6.344-37.382 6.432-33.588 0 20.245-34.328-.92-41.65-.46-78.725.054-4.372.677-8.474 1.78-12.24 22.218-.624 38.496-.054 48.832 1.712.822.14 1.282 2.43 1.38 6.866z" fill="#f06aa6"/><g class="B C"><path d="M309 240.262c-2.32 10.58-6.732 21.426-7.585 32.294-.618 7.876-.276 15.804-.415 23.706m5-56c-4.995 13.592-6.932 25.82-7.403 40.506-.37 11.54-1.437 8.722.7 13.494m-.297-46c-4.884 21.292-5.108 28.172-1.7 50m-.3 2c-12.64-11.3-7.345-31.03-3.958-45" class="K N"/><path d="M271.85 245.262c.784 3.754.57 6.27-.64 7.55-6.427 6.793-8.928 9.406-16.155 19.078-.1.132-.07.48.1.48.8.008 1.697-.018 2.358-.457 4.636-3.08 8.22-7.758 13.352-9.978 6.91-2.988-1.29 6.5-3.762 6.5s7.142 4.276 17.03-.802-8.515 6.147-14.56 5.612 2.472 4.8 0 12.026" stroke-width="1.839" class="F"/><path d="M255 252.262c-4.068 11.025-9.513 37.9-25.538 40.997-.203.04-.308-.28-.462-.42m24-47.577c-3.795 18.234-9.405 34.347-25 45m22-52c-4.596 16.952-6.92 35.385-21 47m16-47c-4.18 18.667-4.64 30.95-17 44" class="K N"/></g><path d="M249.65 235c-2.024 0 1.217 12.24 2.488 15.065 1.075 2.4 4.034 3.607 8.877 3.652 5.36.162 9.09-1.038 11.182-3.598.11-.133.215-.267.32-.403 2.488 4.896 7.5 6.284 13.58 6.284 14.06 0 19.672-8.35 17.42-21h-53.87zm24.35 4.337l23.92-.337.007.087c.318 4.137-.397 7.214-2.002 9.253l-.085.106-.08.098c-1.92 2.27-5.506 3.456-10.926 3.456-3.996 0-8.7-1.7-10.296-7.244l-.05-.185c-.262-.987-.18-2.702-.423-4.712l-.047-.395-.014-.128zM254 240h17l-.008.025c.008 7.767.008 10.975-12.728 10.97l-.204.003h-.24a.86.86 0 0 1-.591-.196c-.476-.334-.998-.992-1.478-2-.912-1.917-1.502-4.738-1.73-8.422L254 240z" class="D E"/><path d="M261.724 244.2c.194 3.4-2.813 4.265-3.646 1.136-.636-2.387 2.83-2.614 3.923-1.136m21.723 0c.194 3.4-2.813 4.265-3.646 1.136-.636-2.387 2.83-2.614 3.923-1.136" class="H"/><path d="M243.398 335.343c-2.054 3.385-10.674 2.507-6.057-4.352s8.1.967 6.057 4.352zm11.77 5.457c-2.296 3.14-10.678 1.14-5.516-5.224s7.812 2.084 5.516 5.224zm15.97 1.794c-2.322 3.26-10.67 1.784-5.45-4.824s7.772 1.563 5.45 4.824zm16.343-1.954c-2.263 3.224-9.963 1.546-6.674-4.145s8.937.92 6.674 4.145zm12.085-4.014c-2.05 3.2-8.403 1.66-6.05-4.1s8.102.9 6.05 4.1z" fill="#ff0034"/><path d="M1025.997 278l2.536 10.218c.452 2.047.92 6.305 1.41 12.772 10.706-4.54 16.06-1.514 16.06 9.083s-5.353 14.19-16.06 10.785v40.587L923.164 364v-43.142c-11.645 2.838-16.998-.757-16.06-10.785s6.292-13.056 16.06-9.083l1.972-23h100.86zm-86.95 14.214c-7.34 22.92-7.998 40.4-1.976 52.413 3.83 7.646 36.195 9.688 57.302 7.608 8.055-.793 16.335-3.33 24.84-7.608 1.463-7.775 2.028-15.76 1.694-23.952s-1.557-16.365-3.67-24.516c-5.08-5.636-17.5-9.205-37.26-10.708s-33.403.75-40.93 6.763z" fill="#0d62fe"/><g class="E"><path d="M971.168 326.635c.144.087.263.167.355.246a1.08 1.08 0 0 1 .178.191l.045.062c.045.067.063.12.146.367l.007.157a1.71 1.71 0 0 1-.005.285l-.003.02.012.01.074.066c.208.2.357.472.36.834l-.002.082-.005.063.028.01c.364.124.658.358.82.66l.036.072.012.005c.27.108.504.3.653.62l.036.08a1.12 1.12 0 0 1-.002.854l-.03.067-.436.87-.004.045c-.06.495-.4.913-.955.976l-.077.006c-.2.01-.364-.018-.607-.1l-.186-.06-.4-.136-.184-.054-.038-.01-.046.104c-.25.572-.43.86-.857 1.115-7.8 4.645-16.88 7.094-24.066 5.736-.837-.158-1.248-1.074-.773-1.845a2.14 2.14 0 0 1 .516-.55l.038-.03-.038-.015c-.08-.036-.158-.086-.238-.155l-.06-.055c-.444-.43-.405-.98-.173-1.382.075-.13.158-.224.26-.32.196-.183.516-.403.95-.667a20.92 20.92 0 0 1 .862-.495l.264-.142-.15.035-.5.113-.56.12c-.585.12-1.037.2-1.312.23-.128.014-.23.02-.335.01a.95.95 0 0 1-.435-.128 1 1 0 0 1-.147-.101l-.02-.017-.274.28-.204.2c-.4.407-1.016.4-1.398-.016s-.375-1.083.015-1.5c3.134-3.27 6.704-6.08 10-7.7 4.052-1.985 7.573-2.123 10.144.1l.1.098a7.37 7.37 0 0 0 .598.491l.085.06.883-.26c.6-.176 1.086-.187 1.853-.065l.073.012.016-.002c.764-.092 1.352-.04 2.278.164l.247.056.215-.073c.528-.18.915-.236 1.444-.135.246.047.53.175.824.344l.1.065zm-2.06 5.606c-.2.017-.342.046-.465.093l-.334.13c-1.494.58-2.134.9-3.635 1.82l-.72.438-.277.164c-1.205.7-2.382 1.167-4.27 1.622l-.556.13c-1.172.265-2.246.453-4.168.747l-1.6.24-2.833.47-.3.056.076.001c5.912.035 12.763-2.13 18.825-5.695l.18-.107.027-.054.027-.057zm-8.282-5l-.005-.004c-3.017-2.1-8.148-.15-13.46 4.294l-.1.074.723-.255c3.522-1.238 7.248-2.43 11.933-3.84l.897-.27zm3.182 5.023l-1.78.547-1.655.52-4.042 1.28-1.533.48-.746.23 1.07-.166a46.55 46.55 0 0 0 3.099-.575l.35-.08.38-.092c1.54-.382 2.5-.76 3.463-1.307l.116-.066.345-.206.655-.4.275-.166zm3.884-3.217c-.396.07-.767.066-1.2-.013l-.135-.026c-.34-.07-.635-.094-.96-.085l-.14.006c-.15.008-.674.057-.76.063-.457.032-.87.006-1.278-.1l-.066-.02-.155.04a37.75 37.75 0 0 0-2.128.63l-.6.198c-.935.317-1.794.647-3.22 1.23l-2.387.98.67-.15 2.45-.523 3.383-.694 2.885-.617.534-.12.083-.024 1.026-.295.653-.184a8.4 8.4 0 0 1 1.057-.222l.13-.018.256-.074-.092.017zM979 327.914l.072-.042.275-.157c.703-.393 1.07-.526 1.56-.417l.412.088 2.235.4.852.133.857.058 4.342.413.26.036 1.9-.003 1.965.03a26.97 26.97 0 0 1 7.856 1.404l.3.1a3.56 3.56 0 0 0 .233.066l.23.054.434.096.893.236c.4.136.707.296.948.552.416.442.482 1.055.166 1.6-.346.588-.748.874-1.423 1.043l-.035.008.055.027c.244.124.44.3.523.642l.017.08c.1.486-.134.812-.44 1.022-.104.07-.207.118-.325.16a4.21 4.21 0 0 1-.47.13l-.1.023-.48.097-.137.026-.026.04c-.186.262-.5.44-.858.464l-.07.003a12.66 12.66 0 0 1-1.156-.037l-.3-.027 1.3.197.085.014.156.03.13.028a1.06 1.06 0 0 1 .495.225c.44.346.57 1.042.053 1.508a.97.97 0 0 1-.496.25 2.18 2.18 0 0 1-.359.041l-.577.023-.185.005-.004.04c-.038.25-.17.467-.354.628l-.052.042c-.146.113-.298.18-.472.23-4.362 1.244-8.66.916-13.03-.762-3.492-1.34-6.837-3.422-10.87-6.537-.435-.336-.5-.954-.17-1.382.328-.4.92-.495 1.352-.204l.044.032.022-.05a1.05 1.05 0 0 1 .2-.282l.052-.05c.235-.207.45-.294.74-.304l.064-.001-.01-.04a.96.96 0 0 1-.017-.123l-.001-.023-.026-.033-.042-.062c-.082-.127-.14-.27-.157-.455-.027-.306.1-.613.33-.828.203-.18.386-.244.582-.258h.043l.024-.013a2.48 2.48 0 0 1 .571-.218l.015-.004zm3.263 6.67c1.6.964 3.156 1.73 4.72 2.33 2.602 1 5.15 1.47 7.695 1.364l.2-.01-.494-.1-.543-.093-1.452-.24c-2.17-.362-3.282-.607-4.564-1.06l-.42-.152c-1.275-.47-3.094-1.2-4.82-1.933l-.454-.194.125.076zm10.495-2.402l.656.296c.983.44 1.537.655 2.206.854l.445.13a39.6 39.6 0 0 0 1.736.469l.116.028-.172-.083c-.257-.12-.513-.23-.77-.325l-.193-.07a104.09 104.09 0 0 0-3.475-1.133l-.548-.167z" class="H"/><path d="M960.863 315.32c2.24-.67 4.04-.276 7 1.087l1.46.683a.99.99 0 0 1 .5 1.324c-.234.496-.86.708-1.373.473l-.77-.36-.344-.162c-2.737-1.3-4.182-1.645-5.853-1.146-1.14.34-1.555 2.832-1.368 5.653.223 3.367 5.034 5.155 8.402 3.534a1.05 1.05 0 0 1 1.383.446c.254.5.047 1.1-.462 1.334-4.56 2.195-11.052-.218-11.38-5.187-.083-1.26-.07-2.527.135-3.76.338-2.03 1.14-3.46 2.68-3.92zm21.41 3.558c2.04-2.044 3.887-3.006 5.462-2.865 1.544.14 2.642 1.323 3.065 3.064.812 3.34-.892 7.574-4.143 9.162-.95.465-1.897.694-2.936.746l-.196.008c-.678.02-1.16-.012-2.328-.135l-.86-.1-.452-.04c-.525-.043-.918-.55-.88-1.133s.495-1.02 1.02-.977l.392.035.566.058.843.088c.772.076 1.16.095 1.65.08.88-.026 1.643-.198 2.415-.576 2.37-1.158 3.643-4.32 3.07-6.674l-.037-.142c-.56-1.97-2.36-2.058-5.375.963-.4.4-.993.357-1.345-.077s-.32-1.103.07-1.494z" class="D"/></g><path d="M947.76 307.713c-.532-9.35 7.735-11.728 10.027-3.123 1.75 6.565-7.783 7.188-10.788 3.123m34 1.667c.163-2.107.042-4.26.488-6.32 1.933-8.938 12.5-.266 6.892 7.202" class="H"/><path d="M983.958 306.513l.01.178.014.32c.033.85.017 1.7-.038 2.8l-.1 1.79-.076 1.623-.216 3.303-.01.102c-.44 4.84-1.445 8.384-3.54 11.186-3.108 4.16-6.747 4.13-9.35.654-2.16-2.884-3.187-7.658-2.385-11.333l.146-.663c1.526-6.877 2.606-9.783 3.72-10.61l.04-.028-.016-.278-.17-2.48a.99.99 0 0 1 .904-1.064c.536-.037 1 .378 1.036.93l.178 2.59a7.68 7.68 0 0 1 .023.775l-.002.04c-.03.508-.23.922-.73 1.12-.027.01-.063.022-.1.033h-.074l-.048.06c-.02.026-.043.06-.07.102l-.03.046c-.17.27-.37.683-.595 1.265l-.05.127c-.635 1.678-1.385 4.425-2.264 8.452-.675 3.097.22 7.265 2.03 9.68 1.83 2.443 3.94 2.46 6.266-.652 1.79-2.395 2.7-5.533 3.12-9.898l.06-.65c.074-.863.122-1.643.185-2.942l.084-1.793.078-1.376c.07-1.295.084-2.195.035-3.133-.14-2.697 1.744-3.355 1.932-.285z" class="D E"/><path d="M966.166 282c2.395 0 4.826.173 7.295.518l.463.067a2.27 2.27 0 0 1 1.909 1.872c.73 4.426 1.027 8.936.89 13.53.644.465 1.492.36 2.546-.32a69.82 69.82 0 0 1 .898-13.21 2.27 2.27 0 0 1 1.833-1.859l.077-.013.463-.067c2.47-.345 4.9-.518 7.295-.518l.563.003c3.145.03 9.503.282 19.074.76 1.016.05 1.903.696 2.263 1.637l.028.077.094.276c1.43 4.244 2.144 8.984 2.144 14.222 0 4.998-.666 9.35-1.997 13.054a3.41 3.41 0 0 1-3.091 2.25l-.09.002-1.37.01c-2.692.018-5.097.008-7.215-.028l-1.22-.022-14.972-.006c-1.628.01-3.03-1.126-3.36-2.705l-.017-.085-.078-.434c-.388-2.202-.695-4.486-.92-6.85-1.09-1.17-2.213-1.26-3.365-.272a75.75 75.75 0 0 1-1.433 8.491l-.1.477c-.35 1.492-1.66 2.566-3.197 2.623l-6.812.24-7.763.226-.994.018-7.6.02-.688-.006a3.41 3.41 0 0 1-3.175-2.239c-1.69-4.64-2.534-9.563-2.534-14.765 0-5.238.715-9.98 2.144-14.222l.094-.276c.34-.984 1.247-1.662 2.29-1.714l3.228-.16 16.41-.605zm-2.99 3.028l-.456.017c-2.898.116-6.96.48-12.185 1.088l-.85.1c-.54.064-.96.486-1.012 1.015l-.066.692c-1.055 11.234-.73 19.023.97 23.367.755 1.928 8.182 2.2 22.278.848l.127-1.052c.752-6.306 1.087-10.93 1.006-13.877l-.004-.12c-.1-3.098-.475-6.935-1.13-11.512-2.56-.482-5.452-.67-8.68-.565zm26.253 0l-.306-.01c-2.965-.082-4.632.107-5 .566l-.086.61c-.587 4.243-.927 7.823-1.02 10.738l-.008.282c-.068 3.05.28 7.53 1.043 13.44 14.353.786 21.898.23 22.637-1.67 1.695-4.36 1.747-11.626.155-21.8-.08-.506-.498-.893-1.015-.94l-2.513-.223c-6.548-.573-11.177-.905-13.888-.993z" fill="#f3a712"/><path d="M964.227 338.356a1.04 1.04 0 0 1 1.421-.139c1.922 1.5 4.583 2.14 8.05 2.123l.34-.003c1.474-.023 2.955-.15 5.075-.403l1.982-.237c2.415-.283 2.908-.3 3.84-.21 1.26.12 1.317 1.62.6 2.246l-.024.02-1.25 1.193a1 1 0 0 1-.132.106l-.073.045c-1.045.582-2.073.978-3.107 1.152-.56.094-1.076.06-1.888-.074l-.57-.098-.122-.02.107.05c.53.257.866.478 1.14.788l.054.063c.997 1.207 1.012 2.422-.057 3.197-.655.474-1.62.7-2.882.796-.647.05-1.266.058-2.022.044l-.715-.014c-.557.03-1.033-.38-1.064-.913s.396-1 .953-1.02l.168-.003.476.01 2.046-.034c.862-.065 1.505-.2 1.786-.385l.027-.018c-.028-.08-.104-.218-.25-.403l-.046-.057c-.08-.096-.337-.246-.832-.47l-.623-.276-.053-.024c-.503-.232-.824-.422-1.08-.692a1.3 1.3 0 0 1-.049-1.813c.293-.35.654-.583 1.07-.717l.08-.024-.02.002-2.69.13-.187.001c-3.893.02-6.99-.724-9.338-2.558a.94.94 0 0 1-.145-1.361zm18.73 3.69L983 342l-.337.037-.75.09-2.662.355-.714.09-.537.064.05.004c.208.016.435.05.737.104l.633.122c.653.127 1.012.16 1.29.108.697-.132 1.426-.436 2.2-.895l.06-.036z" class="D E"/><path d="M916.352 327.22l19.766-3.717a1.73 1.73 0 0 1 1.863.922l14.76 29.333a1.73 1.73 0 0 1-1.544 2.505h-20.33a1.73 1.73 0 0 1-1.511-.89l-14.196-25.616a1.73 1.73 0 0 1 1.192-2.536z" stroke="#011638" stroke-width="1.003" fill="#011638" class="B"/><path d="M6.856 149.945c11.176-14.345 32.19-16.275 49.756-15.555s23.5 5.022 32.298 18.918 6.835 24.726 1.826 34.986c-2.507 5.134-7.003 9.5-12.703 12.996-3.026 1.85-8.596 8.045-4.45 17.43s-12.832-10.284-16.696-9.516c-19.35 3.846-41.286.607-51.562-12.082-9.76-12.053-3.657-31.318-.825-43.72l2.357-3.457z" class="D"/><path d="M1031.494 32.99C1007.847 2.816 963.384-1.244 926.22.27s-49.723 10.564-68.335 39.793-14.462 52-3.863 73.59c5.304 10.8 14.817 20.003 26.878 27.336 6.402 3.892 18.187 16.922 9.416 36.66s27.15-21.63 35.325-20.015c40.94 8.09 87.352 1.277 109.093-25.414 20.652-25.353 7.737-65.875 1.745-91.963l-4.987-7.27z" fill="#0d62fe"/></g></svg>