<svg xmlns="http://www.w3.org/2000/svg" width="838" height="670" xmlns:v="https://vecta.io/nano"><style><![CDATA[.B{stroke-linecap:round}.C{stroke-linejoin:round}.D{stroke-width:3.028}.E{fill:#001c6c}.F{stroke:#212121}.G{fill-rule:nonzero}.H{fill:#212121}.I{stroke:#001c6c}.J{fill:#ff8100}]]></style><g fill="none" fill-rule="evenodd"><path d="M246.782 175.495c-18.036-59.48 44.556-136.203 89.805-149.998C405.3 4.55 423.3 124.442 420.213 125.622c-19.044 7.28-76.854 23.905-173.432 49.873z" fill="#001d71"/><path d="M389.876 76.087c3.1 24.74-21.125 87.182-46.708 83.75-21.487-2.882-34.004-21.133-40.63-40.665-1.12-3.303-17.72 5.312-19.996-10.048s15.836-5.713 15.36-8.533c-1.59-9.427-1.47-17.425-1.227-23.814.038-1.008 5.46-4.128 17.056-5.97 5.188-.824 11.61-1.393 19.34-1.403 11.027-.014 23.347 1.07 33.688 2.38 2.974.377.253-27.34 2.822-26.946 2.615.4 10.51 28.912 12.543 29.286 4.772.88 7.7 1.628 7.752 1.96z" fill="#f2f4f6"/><path d="M354.8 82.956c1.402 13.482 11.378 9.048 11.378.045m-10.808 7.35l-3.413 4.55m8.533-2.844l-2.276 7.396m5.12-8.534l1.707 6.258" class="B C D F"/><path d="M346.258 77.836c9.223 14.04 14.806 22.253 16.75 24.637.858 1.052 2.5 2.308 2.012 3.605-.457 1.19-11.32 2.092-12.274.163-.494-.997-.637-4.464-.604-3.332.204 6.96.814 11.35 1.83 13.17" stroke="#001d71" fill="#f5fff6" class="B C D"/><g class="B C D F"><path d="M324.88 83.348c-2.122 8.933 10.487 10.063 12.845-.96"/><path d="M326.347 89.783l-3.982 2.844m7.768-2.277l-.176 5.12m4.355-5.687l1.707 3.982"/></g><path d="M346.245 118.493c3.698.408 2.574 5.586 5.464 4.893 1.46-.35 2.68-1.964 4.16-1.698 2.246.404 5.36 2.406 9.345 6.005L354.5 132.64c-6.738 3.247-27.364-8.288-32.14-12.602l16.903 5.417c26.335 3.777 20.7 1.972-16.903-5.417 6.522-3.614 20.187-1.955 23.885-1.547z" fill="#ff4445"/><path d="M121.772 254.3l-.295-2.27c1.9 15.216 5.107 30.244 7.26 45.427.31 2.18.58 5.378.826 8.887-6.963.463-14.013.28-21.056-.222 3.96-13.206 6.107-25.372 8.464-41.9.46-3.22.76-6.468 1.023-9.72l3.044-.148c.24-.01.484-.03.732-.054zm6.748-1.896c.442 1.922.853 3.87 1.234 5.84l.062.326.206.373.006.01 1.632 1.468c8.286 7.394 16.93 14.385 25.58 21.352l1.996 1.608c1.506 1.213 3.162 2.277 4.936 3.047 3.644 1.58 7.414 2.853 11.15 4.207-4.144 2.49-8.695 4.8-13.763 7.4a70.5 70.5 0 0 1-8.235 3.581c-2.556-3.8-5.164-7.6-7.452-11.56-2.852-4.95-5.067-10.252-7.677-15.333l-.238-.455.58 1.407 5.56 14.097.757 1.735c1.414 3.16 3.042 6.242 4.936 9.142l1.184 1.772c-5.72 1.853-11.574 2.983-17.504 3.595.397-13.965-.513-29.157-2.947-43.498l-.032-.178-1.01-1.42-5.162-7.076.538-.142.183.21c1.49 1.678 3.047 3.29 4.706 4.795h0l.106.095-.044-.23-.5-.902c-.833-1.525-1.63-3.066-2.358-4.643a32.26 32.26 0 0 0 1.335-.524zm-15.012 2.306c-.166 4.64-.466 9.146-1.62 14.593l-2.68 12.605-.177.964-3.533 18.94c-.3 1.592-.576 2.91-.83 4.01l-.634-.056-.005.02 5.18-23.876.28-1.526c8.46-46.062-2.44 6.956-5.896 25.35-5.076-.463-10.14-1.044-15.153-1.628.72-1.188 1.422-2.387 2.1-3.6 5.404-9.674 10.534-19.506 15.396-29.463 1.007-2.062 1.595-4.3 2.178-6.528.848-3.23 1.792-6.45 2.48-9.718l2.665-.076zm-6.74.07l-.152.453c-9.17 27.528-1.662 15.078-18.507 48.828l-5.7-.657-4.546-3.408 11.082-18.94c1.91-3.272 3.78-6.578 5.374-10.016 2.54-5.476 4.674-11.134 7.062-16.677 1.792.237 3.58.363 5.388.416zm-10.906-1.516l-.3.68c-4.015 9.306-7.467 18.854-11.558 28.128-1.99 4.513-4.283 8.895-6.68 13.207L75.6 298.3l-.753-.563c-2.058-.447-4.53-1.3-7.215-2.404 6.295-8.198 12.428-16.515 17.816-25.317 3.373-5.51 6.184-11.33 8.876-17.212a38.83 38.83 0 0 0 1.528.45zm-6.158-2.302l-.74 1.237-1.33 2.154c-2.74 4.363-6.027 8.373-8.713 12.77-4 6.545-7.24 13.538-11.328 20.028-1.342 2.13-2.725 4.233-4.134 6.32a128.06 128.06 0 0 1-16.627-9.582c9.346-6.245 17.947-13.625 25.12-21.556 4.448-4.92 8.623-10.073 12.773-15.25 1.413 1.533 3.06 2.85 4.98 3.878zm48.496-4.242c2.542 1.623 5.024 3.356 7.53 5.02 2.758 1.832 5.133 4.192 7.842 6.094 3.977 2.793 8.06 5.436 12.2 7.983 2.546 1.567 5.117 3.122 7.842 4.352 4.358 1.97 8.788 3.83 13.362 5.226l4.554 1.33c-2.585 3.32-5.337 6.056-8.312 8.46-12.33-9.76-25.145-18.912-37.488-28.66-3.335-2.633-6.553-5.415-9.708-8.263a55.42 55.42 0 0 0 1.834-1.29zm-8.34 12.08l.097.506.388 2.137.153.896.018.023c1.704 2.412 3.358 4.857 4.903 7.374.747 1.217 1.448 2.46 2.12 3.72l.42.804-.138-.337c-.5-1.163-.997-2.32-1.53-3.464-1.638-3.52-3.628-6.87-5.55-10.25l-.71-1.26-.168-.15zM81.72 242.975l-.86.566c-19.822 13.024-30.88 19.264-44.716 30.285-3.606-5.624-6.397-13.398-8.222-18.887 1.305-.513 2.62-1.003 3.945-1.457 6.523-2.232 13.507-3.067 19.895-5.66l27.19-11.055c.738 2.18 1.644 4.28 2.767 6.208zm70.405-15.11c12.148 1.892 30.53 1.972 35.575 2.396 7.24.61 14.4 2.115 21.638 2.613.177.012.97.027 2.187.033-.204 3.255-.6 6.304-1.316 8.53-.313.976-.648 1.952-1.002 2.927-7.76-1.86-15.442-4.05-23.25-5.687-6.612-1.387-15.5-2.697-24.513-4.55l-.203-.042.783.33c14.79 6.213 29.757 12.356 45.474 14.3-3.365 7.982-7.87 15.803-12.43 22.936-3.81-2.3-7.448-4.886-11.288-7.138-6.655-3.903-13.555-7.38-20.19-11.32-2.1-1.24-4.063-2.683-5.955-4.21-3.878-3.127-7.51-6.558-11.32-9.768 2.102-2.456 3.784-5.012 4.798-7.502 3.12.84 6.33 1.58 9.533 2.25l.592.123-.064-.027-9.497-3.957c.213-.73.36-1.454.44-2.163zm-75.407-.34l-.7.27c-16.11 6.4-32.045 13.233-47.93 20.172l-2.15.946c-1.63-5.075-2.914-10.707-3.763-16.528 5.6-.46 11.23-.575 16.808-1.252 6.044-.734 12.055-1.775 18.008-3.047 6.417-1.37 12.757-3.087 19.12-4.693a107.03 107.03 0 0 0 .605 4.133zm1.59 7.173l-2.092.815c-31.91 12.425-52.728 20.623 1.994-1.01l.038-.015.06.21zM32.012 210.67c11.266 2.847 22.682 5.112 34.13 7.112a215.4 215.4 0 0 0 9.499 1.437l.04.414.05.47.283 2.464c-2.62.28-5.234.606-7.837 1.02-15.587 2.483-30.72 6.016-46.043 8.472-1.178-8.233-1.485-16.83-.688-24.768 3.476 1.28 6.982 2.473 10.57 3.38zm177.618-18.577c.562 2.003-.157 4.167 0 6.24.26 3.456.758 6.892 1.165 10.335l-.727.112c-4.143.597-8.385.492-12.49 1.308-5.413 1.076-10.544 3.367-15.974 4.352-9.644 1.75-19.48 2.292-29.153 3.856-.033-1.403-.093-2.808-.166-4.21l.017-.007c19.494-8.3 26.94-11.763 27.522-12.42l.017-.044-2.957 1.112-24.718 9.23-.037-.633c12.365-4.723 27.494-10.283 27.73-9.75l-.017.04 1.198-.45 28.144-10.62.447 1.55zM74.212 204.788l1.323.55c-.608-.105-1.523-.18-2.858-.33l3.924 1.138v-.01c.001-.163-.03-.292-.103-.397l.012.005.78.33-.113.24-.578-.167v.055c-.015.28-.112.65-.243 1.153l-26.77-9.02-20.534-7.14.57.302 11.104 5.676c6.15 2.917 12.565 5.252 18.736 8.127 4.63 2.158 8.95 4.97 13.653 6.965l2.34.954c-.04.88-.047 1.86-.01 2.958a106.93 106.93 0 0 1-3.347-.574c-8.008-1.508-15.996-3.225-23.816-5.514-15.17-4.44-22.114-7.06-26.017-8.677.292-1.604.637-3.166 1.036-4.677.453-1.716 1.46-4.005 2.784-6.583.037.01.076.025.115.038l2.853 1.003-1.268-.67-1.488-.782.56-1.06.013.002c5.087 1.257 4.1.7.336-.637l.885-1.603 46.122 18.345zm69.775-72.634c2.255.072 4.374.487 6.4 1.12l-1.44 9.62 1.984-9.446c4.923 1.638 9.377 4.5 14.104 6.83l.485.24-1.9 4.418-.365.818.76-1.447 1.18-2.298.66-1.326c6.456 3.224 12.25 6.753 17.4 10.768l-2.738 3.813-2.615 3.672 1.367-1.534c1.504-1.696 3.066-3.36 4.355-5.223l.127-.188.065-.1c3.785 3.005 7.215 6.28 10.297 9.9l-3.297 2.505-.758.603.976-.618 3.416-2.09c4.278 5.103 7.872 10.888 10.8 17.557-4.338 1.96-8.652 3.97-12.91 6.098-26.34 13.16-22.12 12.274-40.293 24.253l-.08-1.325c-.075-1.25-.356-3.914-.873-6.71 5.66-5.272 11.703-10.135 17.282-15.496 6.342-6.094 12.046-12.833 18.445-18.867a54.85 54.85 0 0 1 3.173-2.752l.064-.05-.182.117c-1.154.742-2.293 1.506-3.405 2.308l-1.102.816c-5.653 4.292-10.51 9.55-15.974 14.078-5.867 4.86-12.277 9.057-18.008 14.078l.277-.238-1.477 2.04-.17-.578 1.37-1.225.277-.238 1.35-1.863 24.9-35.26-1.342 1.508-28.98 32.27c-1.144-1.625-2.342-3.077-3.59-4.37l6.817-17.443 1.287-3.063.467-1.064-.602 1.037c-3.367 5.757-7.004 11.356-10.914 16.74l-.51.698c-.92-.705-1.864-1.344-2.832-1.92 1.5-3.892 2.947-7.807 4.195-11.782l.373-1.217-.335.662c-.713 1.404-1.43 2.808-2.026 4.26l-.287.73c-.883 2.35-1.42 4.827-2.08 7.256-3.514-2.063-7.342-3.32-11.482-4.027.155-.996.276-1.978.346-2.94 1-14.007 5.343-29.39 5.47-44.257a280.49 280.49 0 0 1 12.103.138zM42.155 164.223c10.198 9.017 17.256 14.545 28.344 26.27 3.1 3.28 6.114 6.637 9.094 10.026l-1.4 3.456-.04-.014-49.624-18.29c4.523-7.903 10.56-16.836 12.925-20.43l.347-.515zm18.326-14.8c1.31 1.807 2.596 3.63 3.772 5.526 7.117 11.463 15.204 22.464 22.1 34.062-1.96 1.953-3.31 3.995-4.436 6.2-.617-.587-1.187-1.102-1.688-1.515-20.134-16.59-12.018-9.13 1.177 2.55l-.297.655.012.01-38.645-33.123c4.585-6.154 11.39-10.617 17.958-14.342zm17.954-8.43l.196.895c2.57 11.13 6.082 22.026 9.44 32.944.856 2.782 1.942 5.5 3.196 8.127.252.527.52 1.05.797 1.565a41.52 41.52 0 0 0-1.88 1.293l-5.55-7.016-.096-.178c-1.72-3.112-5.99-9.988-14.66-23.196l-1.268-1.93c-1.383-2.102-2.883-4.12-4.447-6.094a123.7 123.7 0 0 1 14.27-6.412zm18.8-5.455c2.486 12.943 5.43 28.483 6.088 38.57.116 1.774.293 3.562.5 5.358-3.096.716-6.05 1.846-8.85 3.343-.56-4.67-1-9.368-2.104-13.927-2.527-10.425-6.036-20.593-9.44-30.765l.34 1.013a132.19 132.19 0 0 1 13.285-3.552zm-12.88 42.9l.282.353.132.242c4.796 8.934-16.237-20.32-.414-.595zm42.652-46.317l-.302 20.205-1.213 26.792c-3.644-.574-7.525-.736-11.643-.658-.11-6.045-.245-13.287-1.67-25.4-1.29-10.97-1.506-16.317-1.926-19.677 5.3-.646 10.673-1.04 16.126-1.232zm21.923 10.894l-.505 2.346c-1.608 7.392-3.325 14.76-5.31 22.058l-.79 2.76-.05.154.02-.04c.945-1.874 1.848-3.762 2.414-5.774 1.84-6.54 3-13.43 4.042-20.328l.175-1.175zm14.335 2.743l-.44.84-7.22 13.712c-.987 1.982-1.934 3.986-2.837 6.01l-.202.457.116-.2c3.805-6.605 7.258-13.41 10.368-20.337l.213-.482z" fill="#54e375"/><g class="E"><g class="G"><path d="M124.346 182.855c.774-.316 1.658.056 1.974.83s-.056 1.658-.83 1.974l-.81.325-.74.29-1.186.453.042.02c.407.216.734.6.815 1.116l.013.115.013.014c.3.335.532.752.72 1.254l.022.06.073-.013.344-.043.102-.006c.18-.007.35.004.547.058.637.172 1.21.697 1.15 1.593a1.52 1.52 0 0 1-.293.809 1.67 1.67 0 0 1-.261.286c-.105.092-.214.167-.338.243l-1.187.723-1.65 1.016-.067.045-.128.08-.145.084-3.686 2.274-3.218 1.938-.1.06-.45.23c-1.277.635-2.02.816-5.577 1.48l-.213.04-.12.047c-.652.243-1.138.305-1.655.15l-.104-.034c-.985-.346-1.3-1.294-1.058-2.156.06-.214.152-.428.278-.655l.068-.12-.09-.066c-.37-.297-.552-.705-.578-1.117l-.003-.103a1.65 1.65 0 0 1 .119-.619c.1-.26.25-.49.46-.75l.06-.075-.034-.005c-1.084-.2-1.87-.687-1.893-1.815v-.123c.023-.857.484-1.358 1.292-1.91.775-.53 1.964-1.117 3.773-1.906l.662-.286 2.85-1.208.533-.23 1.09-.494.812-.398c1.297-.623 2.557-1.138 4.78-1.987l2.455-.936 1.38-.548zm-4.105 7.82l-.453.156-.595.196-1.155.364-.06.04-2.03 1.407-.25.178.445-.1 1.158-.667 2.77-1.5.17-.084z"/><path d="M129.29 186.082l1.668-.06c2.29-.062 4.264.045 7.98.377l3.304.3 2.574.194c.542.033 1 .347 1.24.79l.047.095.165.033c.352.073.65.15.904.24l.123.045a2.4 2.4 0 0 1 .726.419c.436.377.702.94.57 1.602-.24 1.212-1.03 1.503-3.333 1.963l-.202.038.053.05c.433.433.647 1.113.253 1.808l-.058.095a1.41 1.41 0 0 1-.904.655 2.22 2.22 0 0 1-.538.074c-.43.016-1.193-.025-2.136-.113l-.19-.018c-2.78-.27-5.38-.663-7.57-1.204l-.2-.05-2.215-.216c-.177-.017-.368.002-.786.084l-.57.115-.5.082c-.83.108-1.59-.476-1.697-1.305a1.51 1.51 0 0 1 .292-1.107l.072-.088-.068-.066c-.29-.286-.513-.59-.666-.91l-.048-.107-.1-.253-.05-.143-.552-.04-.774-.085-.047-.008c-.32-.058-.493-.108-.772-.318-.652-.49-.886-1.48-.235-2.226.24-.274.45-.38.718-.465.213-.068.446-.102.826-.135l.323-.026 2.373-.12z"/><path d="M107.48 198.252c2.385-9.982 9.242-14.822 17.75-9.61a1.51 1.51 0 0 1 .708 1.074l.004.037.06.066c.357.414.67.907.945 1.462l.08.168c.568 1.213.94 2.7 1.066 3.96.438 4.28.06 10.623-1.347 15.317-2.116 7.064-6.45 10.568-12.95 8.403-6.14-2.045-8.496-11.745-6.315-20.875zm13.932-8.13c-5.238-1.914-9.17 1.5-10.93 8.603l-.056.23c-1.863 7.796.103 15.892 4.327 17.298 4.57 1.522 7.4-.776 9.094-6.4 1.28-4.273 1.635-10.23 1.235-14.14-.22-2.16-1.165-4.216-2.01-4.313l-.062-.004c-.706 0-1.3-.483-1.467-1.137l-.022-.098-.107-.04z"/><path d="M129.37 190.583c-1.574 1.966-2.41 4.2-3.487 8.57l-.282 1.164-.366 1.188c-.08.262-.09.54-.023.807l.075.318.28 1.486.23 1.45c.433 2.68.777 3.965 1.614 5.47 2.654 4.765 6.934 6.168 11.048 4.197 3.595-1.723 6.3-5.732 6.534-9.856a64.75 64.75 0 0 0 .108-3.099c.02-1.765-.03-3.483-.175-5.09-.436-4.83-1.576-7.996-4.152-8.877-5.052-1.726-8.782-.922-11.302 2.146l-.104.128zm10.427.59c.95.325 1.788 2.65 2.116 6.284.135 1.495.183 3.114.163 4.784-.013 1.117-.048 1.976-.104 2.963-.17 3.018-2.216 6.05-4.82 7.297-2.66 1.275-5.214.438-7.095-2.94-.616-1.107-.897-2.16-1.276-4.51l-.26-1.626-.18-.982-.093-.438.26-.846.027-.097.205-.855c1.028-4.224 1.777-6.254 3.07-7.83 1.665-2.027 4.06-2.543 7.983-1.203z"/><path d="M126.096 193.953c.835-.04 1.544.607 1.583 1.442s-.607 1.544-1.442 1.583l-.994.05c-9.916.5-12.6 1.49-18.94 7.02-.63.55-1.586.485-2.136-.145s-.485-1.586.145-2.136l.436-.378c6.83-5.883 10.214-6.917 21.346-7.434z"/><path d="M126.23 195.83c5.61-3.764 14.047-5.332 19.57-3 .77.325 1.13 1.213.806 1.984s-1.213 1.13-1.984.806c-4.477-1.89-11.876-.516-16.705 2.724-.694.466-1.635.28-2.1-.413s-.28-1.635.413-2.1z"/></g><path d="M115.523 198.136c.964 2.392 6.286 11.686 9.975 5.532l1-8.354c-5.53.73-9.1 1.3-10.683 1.708-.847.218-.944.6-.293 1.114zm19.282-2.72c1.126 3.692 3.782 11.1 8.973 6.535l-.187-7.918-4.273-.854-4.512 2.238zm-30.747 27.605c2.57-9.246 10.293-4.627 23.893-6.258 10.683-1.28 17.154-5.527 26.738 6.258.598.735 12.206 9.183 7.078 12.6s-28.895-6.215-33.816-5.204c-16.462 3.385-24.725 5.204-31.135 5.204-4.273 0-1.86-4.2 7.24-12.6zm9.325 16.914c9.58 10.726 14.472 21.174 20.5 4.065.4-1.13 2.884-7.023 1.7-7.26-2.922-.588-10.956 2.93-13.915 3.3-2.432.296-4.9.032-7.35.048l-.955-.144zm642.513 127.63l3.845 15.345c.685 3.075 1.397 9.468 2.136 19.18 16.235-6.82 24.353-2.273 24.353 13.64s-8.118 21.312-24.353 16.197v60.952l-161.925 3.836v-64.788c-17.66 4.262-25.777-1.137-24.353-16.197s9.542-19.607 24.353-13.64l3-34.525h152.953zm-131.6 20.46c-11.108 34.667-12.105 61.094-3 79.28 5.796 11.566 54.784 14.653 86.73 11.508 12.2-1.2 24.724-5.036 37.597-11.508 2.215-11.76 3.07-23.838 2.563-36.23s-2.357-24.753-5.554-37.083c-7.7-8.525-26.5-13.924-56.396-16.197s-50.557 1.137-61.95 10.23z"/></g><g class="G"><path d="M673.25 440.85c.22.124.403.24.543.353a1.6 1.6 0 0 1 .273.274l.068.1c.07.096.096.172.224.527l.01.225a2.27 2.27 0 0 1-.008.409l-.005.03.018.013.113.095c.32.288.546.677.55 1.198l-.003.118-.008.1.043.014c.557.178 1.007.514 1.257.95l.055.104.02.007a1.82 1.82 0 0 1 1 .891l.054.114c.173.392.17.838-.003 1.226l-.047.096-.667 1.25-.007.065c-.092.7-.614 1.312-1.462 1.402l-.118.01c-.308.015-.558-.027-.93-.13l-.284-.084-.628-.195-.282-.078-.058-.014-.07.15c-.383.82-.66 1.236-1.313 1.602-11.928 6.672-25.843 10.2-36.846 8.24-1.28-.227-1.9-1.543-1.183-2.65.2-.3.453-.54.8-.8l.06-.042-.058-.022c-.12-.052-.24-.124-.364-.223l-.093-.08c-.68-.62-.62-1.407-.264-1.985a1.96 1.96 0 0 1 .397-.459c.3-.264.8-.58 1.454-.958a32.63 32.63 0 0 1 1.32-.711l.405-.203-.232.05-.78.162-.857.17c-.896.173-1.588.3-2 .33-.195.02-.353.027-.513.016a1.53 1.53 0 0 1-.666-.184 1.54 1.54 0 0 1-.224-.145l-.03-.025-.42.403-.312.303c-.598.585-1.556.574-2.14-.023s-.574-1.556.023-2.14c4.798-4.695 10.264-8.735 15.293-11.047 6.203-2.852 11.595-3.05 15.53.128l.17.14c.346.3.645.523.915.706l.13.085 1.352-.373c.918-.253 1.663-.27 2.837-.094l.112.017.025-.003c1.17-.133 2.07-.057 3.488.236l.378.08.33-.105c.808-.258 1.4-.34 2.2-.194.376.067.812.252 1.262.494l.17.093zm-3.155 8.053c-.306.024-.523.066-.7.134l-.5.185c-2.287.835-3.268 1.308-5.565 2.616l-1.1.63-.425.236c-1.845 1.006-3.647 1.676-6.536 2.33l-.852.186c-1.794.38-3.44.65-6.38 1.073l-2.435.346-4.337.676-.444.08.116.001c9.052.05 19.54-3.062 28.82-8.18l.276-.153.042-.077.04-.082zm-12.68-7.182l-.008-.005c-4.62-3.002-12.475-.215-20.606 6.168l-.136.107 1.106-.367c5.392-1.778 11.096-3.5 18.27-5.516l1.373-.387zm4.87 7.215l-2.724.786-2.534.746-9.677 2.87 1.638-.238c2.017-.3 3.344-.53 4.745-.826l.537-.116.584-.132c2.36-.55 3.826-1.1 5.302-1.877l.177-.095.528-.295 1.003-.574.42-.238zm5.947-4.62c-.607.1-1.174.095-1.853-.02l-.207-.038a6.46 6.46 0 0 0-1.468-.121l-.215.01a31.55 31.55 0 0 0-1.164.1c-.7.046-1.334.008-1.957-.145l-.1-.027-.237.058a62.59 62.59 0 0 0-3.258.903l-.918.285c-1.432.456-2.747.93-4.93 1.766l-3.655 1.408 1.028-.216 3.752-.75 5.18-.996 4.417-.886.817-.173.127-.034 1.57-.424 1-.264c.527-.138 1.068-.244 1.618-.318l.2-.025.392-.106-.14.025zm16.39-2.384l.1-.064.416-.24c1.063-.605 1.617-.8 2.362-.642l.623.136 3.38.615 1.3.205 1.297.1 6.568.635.4.055 2.9-.005 2.972.046a40.22 40.22 0 0 1 11.884 2.16l.456.154a4.23 4.23 0 0 0 .353.1l.348.083.656.147 1.35.364c.605.2 1.07.456 1.434.85.63.68.728 1.623.252 2.447-.524.905-1.13 1.345-2.153 1.604l-.052.012.083.04a1.43 1.43 0 0 1 .79.988l.026.122c.135.748-.203 1.25-.667 1.572-.158.1-.312.182-.492.248a6.22 6.22 0 0 1-.712.202l-.153.035-.727.15-.207.04-.04.06a1.7 1.7 0 0 1-1.297.714l-.105.004a18.61 18.61 0 0 1-1.748-.057l-.452-.042 1.95.304.128.022.236.045a5.19 5.19 0 0 1 .196.044c.322.08.488.136.75.346.664.533.862 1.604.08 2.32-.264.242-.477.322-.75.382a3.46 3.46 0 0 1-.544.063l-.872.036-.28.007-.007.06a1.61 1.61 0 0 1-.536.966l-.078.065a2.02 2.02 0 0 1-.714.352c-6.6 1.913-13.1 1.4-19.7-1.172-5.283-2.062-10.342-5.265-16.445-10.057-.658-.516-.772-1.468-.256-2.126.496-.63 1.393-.762 2.045-.315l.067.05.033-.075a1.59 1.59 0 0 1 .301-.434l.08-.076c.355-.318.678-.452 1.118-.468l.097-.002-.014-.06c-.012-.062-.02-.126-.025-.2l-.002-.035-.04-.05-.064-.095a1.52 1.52 0 0 1-.237-.7 1.53 1.53 0 0 1 .501-1.273c.307-.276.584-.375.88-.397l.065-.003.036-.02c.255-.14.543-.252.864-.336l.022-.006zm4.936 10.262c2.437 1.484 4.774 2.663 7.138 3.585 3.936 1.536 7.788 2.26 11.64 2.1l.317-.016-.747-.137-.822-.143-2.197-.367c-3.284-.556-4.964-.934-6.903-1.63l-.636-.235c-1.93-.723-4.68-1.847-7.3-2.975l-.686-.298.2.117zm15.875-3.696l.992.456c1.486.675 2.325 1.008 3.336 1.313l.673.2a59.1 59.1 0 0 0 2.626.722l.176.043-.26-.128c-.388-.186-.777-.353-1.165-.5l-.292-.106a155.58 155.58 0 0 0-5.257-1.744l-.828-.257z" class="H"/><path d="M657.567 423.288c3.3-1.02 5.932-.42 10.28 1.655l2.024.984.118.056c.756.358 1.078 1.26.72 2.016s-1.26 1.078-2.016.72l-1.13-.548-.505-.247c-4.02-1.965-6.14-2.505-8.594-1.744-1.674.52-2.282 4.3-2.008 8.606.328 5.126 7.4 7.848 12.337 5.38.748-.373 1.657-.07 2.03.678s.07 1.657-.678 2.03c-6.695 3.34-16.227-.332-16.7-7.896-.123-1.917-.103-3.848.198-5.723.496-3.1 1.673-5.268 3.936-5.97zm31.775 6.412c3.244-2.925 6.18-4.302 8.682-4.1 2.455.2 4.2 1.893 4.87 4.385 1.3 4.782-1.418 10.84-6.585 13.112-1.512.665-3.016.993-4.667 1.068l-.3.01c-1.077.028-1.844-.017-3.7-.193l-1.37-.13-.718-.06c-.834-.062-1.46-.788-1.398-1.62s.788-1.46 1.62-1.398l.623.05.9.083 1.34.126c1.227.1 1.844.135 2.622.115 1.4-.037 2.6-.284 3.838-.824 3.766-1.657 5.8-6.184 4.88-9.552l-.06-.204c-.888-2.82-3.75-2.944-8.543 1.378-.62.56-1.578.5-2.138-.1s-.5-1.578.1-2.138z" class="E"/></g><path d="M639.237 413.553c-.854-14.988 12.402-18.803 16.076-5.007 2.803 10.525-12.477 11.524-17.295 5.007m51.2 2.197c.267-3.16.07-6.388.802-9.48 3.177-13.405 20.528-.4 11.327 10.802" class="H"/><path d="M692.732 410.6l.016.27.023.485c.05 1.29.027 2.56-.06 4.23l-.154 2.712-.118 2.46-.336 5.008-.014.155c-.685 7.338-2.25 12.7-5.5 16.958-4.84 6.306-10.506 6.262-14.56.99-3.362-4.373-4.96-11.6-3.713-17.18l.227-1.006c2.376-10.425 4.057-14.83 5.8-16.083l.06-.043-.026-.422-.266-3.76c-.057-.834.574-1.556 1.408-1.613s1.556.574 1.613 1.408l.277 3.928c.037.58.048.9.036 1.175l-.003.06c-.046.77-.358 1.397-1.136 1.697a2.12 2.12 0 0 1-.155.05l-.114.03-.074.092c-.03.04-.067.1-.1.155l-.046.07c-.266.407-.576 1.036-.926 1.918l-.076.193c-.988 2.544-2.157 6.708-3.525 12.813-1.052 4.695.344 11.013 3.16 14.673 2.848 3.703 6.136 3.73 9.756-.988 2.786-3.63 4.205-8.388 4.86-15.005l.09-.984c.114-1.308.2-2.49.288-4.46l.13-2.72.122-2.086c.107-1.963.13-3.327.055-4.75-.22-4.09 2.716-5.086 3.008-.432z" class="E G"/><path d="M664.893 373.267a78.94 78.94 0 0 1 10.962.78l.696.1c1.47.218 2.628 1.358 2.87 2.82 1.1 6.668 1.544 13.46 1.335 20.38.967.7 2.243.54 3.827-.48-.174-6.754.276-13.387 1.35-19.9.235-1.423 1.34-2.54 2.754-2.8l.115-.02.696-.1a78.94 78.94 0 0 1 10.962-.78l.846.004c4.726.043 14.28.426 28.664 1.147 1.527.077 2.86 1.048 3.4 2.467l.042.116.142.416c2.148 6.393 3.222 13.534 3.222 21.425 0 7.53-1 14.084-3 19.665-.708 1.976-2.552 3.315-4.644 3.39l-.134.003-2.06.017c-4.045.027-7.66.012-10.843-.042l-1.836-.033-22.5-.008c-2.446.014-4.555-1.697-5.05-4.074l-.025-.128-.117-.654c-.584-3.317-1.044-6.757-1.382-10.32-1.64-1.76-3.325-1.896-5.056-.41-.47 4.274-1.19 8.538-2.154 12.792l-.165.718c-.525 2.247-2.493 3.866-4.804 3.95l-10.237.362-11.666.34-1.493.027-11.42.03-1.034-.01c-2.14-.02-4.043-1.365-4.772-3.373-2.54-6.992-3.808-14.406-3.808-22.242 0-7.9 1.074-15.032 3.222-21.425l.142-.416c.51-1.482 1.874-2.504 3.443-2.583l4.85-.24 24.66-.912zm-4.272 4.262l-.673.025c-4.28.176-10.278.723-17.994 1.64l-1.255.15c-.797.097-1.42.733-1.495 1.53l-.098 1.044c-1.558 16.947-1.08 28.696 1.434 35.248 1.116 2.908 12.08 3.334 32.898 1.28l.188-1.587c1.1-9.512 1.605-16.5 1.486-20.933l-.005-.18c-.146-4.673-.702-10.462-1.668-17.365-3.778-.726-8.05-1.01-12.817-.852zm39.306 0l-.462-.014c-4.477-.125-6.994.164-7.55.867l-.13.935c-.887 6.493-1.4 11.97-1.54 16.43l-.01.43c-.102 4.668.423 11.523 1.575 20.565 21.67 1.203 33.064.35 34.18-2.557 2.56-6.67 2.638-17.8.234-33.356-.12-.774-.752-1.367-1.533-1.438l-3.794-.342c-9.886-.878-16.876-1.384-20.968-1.52z" fill="#fb3640"/><path d="M662.28 458.212c.528-.648 1.482-.745 2.13-.217 2.88 2.35 6.87 3.348 12.067 3.322l.5-.005c2.21-.036 4.43-.235 7.607-.63l2.97-.37c3.62-.442 4.36-.468 5.757-.33 1.89.187 1.974 2.534.898 3.514l-.035.03-1.873 1.867c-.06.06-.128.117-.198.166l-.11.07c-1.566.91-3.107 1.53-4.656 1.802-.838.147-1.613.094-2.83-.117l-.852-.153-.183-.032.16.08c.796.403 1.298.748 1.71 1.233l.08.1c1.494 1.888 1.517 3.8-.086 5.002-.982.742-2.426 1.096-4.32 1.246-.97.077-1.897.09-3.03.07l-1.072-.023c-.835.046-1.55-.593-1.595-1.428s.593-1.55 1.428-1.595c.073-.004.15-.005.252-.004l.713.016c1.2.03 2.127.02 3.066-.054 1.292-.102 2.255-.328 2.676-.603l.04-.028c-.042-.127-.156-.34-.377-.63l-.07-.09c-.118-.15-.504-.385-1.247-.734l-.933-.433-.08-.038c-.754-.364-1.234-.66-1.617-1.083a2.1 2.1 0 0 1-.074-2.837c.44-.547.98-.912 1.605-1.12l.12-.038-.03.003a52.7 52.7 0 0 1-4.031.204l-.28.002c-5.835.03-10.475-1.133-13.995-4.003-.648-.528-.745-1.482-.217-2.13zm28.038 4.892l.065-.065-.524.053-1.163.132-4.136.512-1.11.132-.834.092.08.005c.323.023.676.07 1.145.15l.983.177c1.014.183 1.572.23 2.002.155 1.083-.2 2.216-.63 3.402-1.29l.09-.052z" class="E G"/><g transform="matrix(.965926 -.258819 .258819 .965926 396.969843 540.677254)"><path d="M28.362 18.88C5.93 67.21-3.157 100.764 1.106 119.537c35.196 28 73.11 38.16 113.747 30.48 21.622-43.335 28.596-71.403 20.924-84.203 18.47 4.836 29.553 2.844 33.248-5.973s-11.083-18.916-44.33-30.293c-22.38-5.72-39.856-9.275-52.43-10.667s-27.207-1.392-43.904 0z" fill="#7ee081"/><g class="B C D"><path d="M32.996 28.008c1.24-8.373 11.945-22.056 19.557-25.274 2.004-.847 4.1-1.497 6.232-1.936 1.37-.283 3.652-1.507 4.19-.215 3.95 9.484-14.615 24.86-21.704 26.887-.62.177-.152-1.343.106-1.934.766-1.752 1.6-3.548 2.9-4.95C50.94 13.408 59.636 4.67 69.958 2.733c.916-.172 2.44-.862 2.794 0 2.805 6.828-3.77 17.96-9.992 21.186-2.732 1.416-6.24 6.085-8.38 3.873-2.06-2.128 2.976-5.2 5.05-7.313 3.953-4.027 8.267-7.74 12.893-10.97 2.42-1.69 5.24-2.788 8.06-3.658 2.46-.76 5.065-1.41 7.628-1.182.702.062.783 1.233.86 1.934 1.08 9.886-10.018 19.45-18.052 22.9-.757.326-.265-1.693 0-2.473.333-.98 1.04-1.804 1.72-2.582 1.835-2.1 3.76-4.124 5.802-6.022a18.99 18.99 0 0 1 3.331-2.473c4.08-2.4 8.057-5.066 12.465-6.777 2.08-.807 4.828-1.918 6.662-.645 1.442 1 .632 3.632 0 5.27-2.8 7.26-4.97 11.232-10.637 15.164-2.173 1.508-5.147 3.053-7.95 2.797-.352-.032.2-.693.43-.97 2.58-3.247 5.163-6.5 7.95-9.572 2.947-3.245 6-6.402 9.24-9.356.83-.758 1.81-1.462 2.903-1.72 3.056-.724 6.463-2.425 9.347-1.182 1.58.68.476 3.543-.11 5.162-1.294 3.585-6.253 10.578-9.454 13.12-7.198 5.72-7.07.995-3.87-2.473 4.02-4.358 8-8.834 12.678-12.475 1.574-1.225 3.732-1.48 5.695-1.828 1.517-.27 3.222-.646 4.62 0 .834.385.873 1.668.966 2.582.197 1.926.617 4.012-.106 5.807-2.56 6.355-9.95 13.834-16.977 14.303" class="I"/><path d="M109.796 38.65c1.325 2.366 2.384 4.903 3.976 7.098 4.076 5.62 12.565 3.6 13.538-3.334.434-3.1.287-6.238.215-9.356-.003-.143-.287 0-.43 0m-12.588 58.456c9.756 9.15 18.623 1.144 27.83-4.734" stroke="#fff"/><path d="M138.43 100.965c4.742 1.993 3.744.714 6.123 7.098.95 2.552 1.86 5.158 2.258 7.852.362 2.447.428 4.984 0 7.42-.788 4.484-10.63 6.766-13.1 2.904-3.868-6.024-4.845-9.246-5.478-16.455-.132-1.506-.598-3.408.43-4.516.853-.92 2.852-.865 3.76 0 2.363 2.25 4.164 5.247 5.048 8.4 1.07 3.8.924 7.9.645 11.83-.252 3.553-6.774 9.613-9.884 5.27-2.477-3.46-3.604-7.403-3.976-11.617-.34-3.857-.93-7.8-.215-11.615 1.182-6.292 3.45.7 3.76 3.225.504 4.13.72 8.336.32 12.477-.323 3.35-1.45 6.58-2.47 9.787-.278.872-.75 1.717-1.396 2.365s-1.47 1.2-2.365 1.4c-1.054.223-2.33.388-3.224-.215s-1.273-1.837-1.396-2.904c-.852-7.4-1.6-14.827-1.505-22.264.01-.62 1.706-.93 1.828-.322 1.67 8.257-.42 13.042-4.084 20.434-.72 1.45-3.704 5.03-6.125 3.764-3.933-2.055-1.364-19.74 2.794-22.156.342-.2 1.1-.496 1.18-.106 1.203 6.624-2.508 13.514-7.198 17.96-1.092 1.035-8.756 4.35-9.562 2.365-2.707-6.663-.296-18.947 5.802-23.123.418-.286 1.42-.715 1.505-.215 1.583 9.5-2.6 10.334-10.422 16.994-1.273 1.084-3.384 3.98-4.3 2.58l-2.04.43c-3.5-5.347 9.827-14.985 10.1-23.014.026-.756-.656 1.393-1.183 1.934-2.282 2.343-4.8 4.445-7.198 6.668m50.718-48.9c2.07.88 1.634.316 2.673 3.14.415 1.13.812 2.28.986 3.473.158 1.082.187 2.204 0 3.28-.344 1.983-4.64 2.992-5.723 1.284-1.688-2.664-2.115-4.1-2.4-7.277-.058-.666-.26-1.507.188-1.997.372-.407 1.245-.383 1.642 0a8.35 8.35 0 0 1 2.204 3.71c.467 1.68.403 3.5.28 5.232-.1 1.57-2.957 4.25-4.314 2.33-1.08-1.53-1.573-3.274-1.735-5.138-.148-1.706-.406-3.454-.094-5.137.516-2.783 1.506.306 1.642 1.426.22 1.826.315 3.687.14 5.518-.14 1.48-.633 2.9-1.08 4.328-.12.386-.327.76-.6 1.046s-.64.535-1.032.62c-.46.1-1.018.17-1.407-.095s-.556-.812-.6-1.284l-.657-9.846c.004-.274.744-.4.798-.142.728 3.65-.183 5.768-1.783 9.037-.314.64-1.617 2.224-2.674 1.665-1.717-.9-.596-8.73 1.22-9.798.15-.088.485-.22.516-.047.525 2.93-1.095 5.976-3.142 7.943-.477.458-3.822 1.924-4.174 1.046-1.18-2.947-.13-8.38 2.532-10.226.183-.127.62-.316.657-.095.7 4.206-1.136 4.57-4.55 7.515-.556.48-1.477 1.76-1.877 1.14l-.9.2c-1.527-2.365 4.3-6.627 4.4-10.178.01-.334-.286.616-.517.855-.996 1.036-2.095 1.966-3.142 2.95" class="I"/></g></g><g transform="matrix(-1 0 0 1 181.631111 355.768889)"><path d="M32.94 46.406C32.085 31.418 45.34 27.603 49.015 41.4c2.803 10.525-12.477 11.524-17.295 5.007" class="H"/><path d="M52.446.982c5.11 0 10.296.37 15.562 1.108l.988.143a4.85 4.85 0 0 1 4.073 4.009c1.56 9.48 2.192 19.138 1.896 28.976 1.373.997 3.184.77 5.432-.684-.247-9.602.39-19.033 1.915-28.292a4.85 4.85 0 0 1 3.909-3.981l.164-.027.988-.143C92.64 1.35 97.827.982 102.936.982l1.2.006c6.7.062 20.274.605 40.692 1.63a5.46 5.46 0 0 1 4.828 3.507l.06.165.2.59c3.05 9.09 4.573 19.242 4.573 30.46 0 10.704-1.42 20.023-4.26 27.958a7.28 7.28 0 0 1-6.593 4.818l-.2.004-2.922.024c-5.743.038-10.873.018-15.392-.06l-2.606-.046-31.94-.012c-3.473.02-6.466-2.412-7.168-5.793l-.035-.182-.166-.93c-.828-4.715-1.483-9.607-1.962-14.674-2.328-2.503-4.72-2.696-7.178-.582-.668 6.077-1.688 12.14-3.058 18.186l-.235 1.02c-.745 3.195-3.54 5.496-6.82 5.617l-14.532.515-16.562.484-2.12.04-16.213.04-1.468-.013a7.28 7.28 0 0 1-6.774-4.795C2.693 59.022.89 48.482.89 37.34c0-11.218 1.524-21.37 4.573-30.46l.2-.59a5.46 5.46 0 0 1 4.887-3.672l6.886-.34L52.446.982zm-6.132 5.75l-.954.036c-6.067.25-14.57 1.032-25.5 2.343l-1.78.215a2.43 2.43 0 0 0-2.119 2.185L15.81 13c-2.208 24.195-1.53 40.97 2.034 50.324 1.582 4.15 17.128 4.76 46.64 1.826l.267-2.265c1.574-13.58 2.276-23.543 2.106-29.886l-.007-.26c-.207-6.672-.995-14.936-2.365-24.792C59.128 6.91 53.07 6.505 46.313 6.73zm55.935.568l-.655-.02c-6.343-.177-9.91.232-10.697 1.227l-.183 1.323c-1.256 9.192-1.983 16.945-2.18 23.26l-.016.6c-.145 6.61.6 16.313 2.23 29.112 30.7 1.703 46.84.496 48.422-3.62 3.626-9.444 3.737-25.185.33-47.22a2.42 2.42 0 0 0-2.172-2.036l-5.375-.484C117.95 8.21 108.047 7.492 102.25 7.3z" class="J"/><path d="M60.946 8.124l110.507 7.697c1.08 4.235 1.684 25.673 1.8 64.312l-1.8 40.455c-37.83 5.417-86.613 5.417-146.347 0-1.97-37.254 9.718-74.37 35.068-111.344l.772-1.12z" fill="#fb3640"/><g class="F B C D"><path d="M112.502 108.92c11.918-5.68 17.82-4.856 29.157 1.43M26.6 93.454c11.918 5.68 17.82 4.856 29.157-1.43"/><path d="M67.523 10.103c-.122 6.976-3.992 33.402 3.548 43.573 18.514 24.973 65.96 55.71 94.338 29.432"/><path d="M70.62 67.734c1.798-4.735 3.09-8.836 8.728-11.903 3.126-1.7 7.183-1.117 10.668-.397 2.993.618 5.997 2.07 8.112 4.276 9.456 9.868.707 24.645-10.757 26.538-4.2.695-15.384 2.19-17.853-3.703" fill="#ff4445"/><path d="M97.142 12.378c8.912 26.3 18.194 47.56 42.803 60.77 8.505 4.566 28.355 15.28 36.842 4.654M134.12 7.827c6.226 29.233 14.7 62.336 45.5 67.698"/></g></g><g transform="matrix(-1 0 0 1 330.248889 496.715556)"><path d="M22.89 59.22c15.06-18.783 43.374-21.31 67.04-20.368 19.488.776 28.353 4.734 37.494 16.267 1.96 2.472 11.954-11.316 19.918 4.613s-9.347 11.77-8.03 15.45c4.613 12.896 1.848 23.8-3.403 34.254-15.814 31.48-90.403 41.175-115.08 11.56-8.41-10.092-8.08-24.045-5.75-37.04.706-3.937-19.628 5.93-13.94-14.55s17.94-2.948 18.578-5.658l3.176-4.526z" class="J"/><g class="B C D F"><path d="M61.824 59.772c.335 7.92-1.793 24.022 10.167 25.262 3.9.404 7.856.167 11.763-.168 3.77-.323 5.24-2.12 8.233-4.295"/><path d="M69.47 59.604c.397 9.783-1.25 19.93 6.554 27.2 4.684 4.363 16.804-.482 16.804-6.4"/><path d="M76.948 65.5c-.555 5.836 7.34 29.528 16.638 20.2"/></g><path d="M58.345 27.602c-3.09-5.975-4.607-13.512-.64-19.76 5.95-9.373 18.594-11.454 23.488-.076 3.798 8.83-5.38 19.74-5.126 20.84 1.437 6.254 21.795-18.82 17.868-5.417-4.902 16.733-32.65 19.566-44.806 10.182s-.7-9.27 6.704-5.793l2.514.025z" fill="#001d71"/></g><g transform="translate(309)"><path d="M502.737 97.32C460.608 43.608 381.4 36.38 315.18 39.076s-88.59 18.806-121.748 70.84-25.765 92.588-6.883 131.006c9.45 19.225 26.398 35.6 47.886 48.664 11.405 6.93 7.857 34.323-11.685 52.888s76.832-26.132 91.398-23.256c72.942 14.403 155.63 2.273 194.364-45.24 36.794-45.133 13.784-117.27 3.1-163.712l-8.884-12.944z" fill="#192bc2"/><path d="M132.8 108.622c19.75-12.434 27.25-18.717 50.403-26.26 31.014-10.105 63.574-12.32 95.742-15.2" stroke-width="25.562" transform="matrix(-.992546 .121869 .121869 .992546 569.953845 -24.433173)" class="B C I"/><path d="M346.192 1.57c19.642-2.7 37.89-2.507 56.23 5.31l.616.265c5.044 2.183 10.354 4.916 13.908 9.236l2.207 2.67c3.96 4.804 10.612 13.062 12.112 17 3.88 10.183 4.162 24.5 1.784 35.348l-.198.892-.504 2.34c-1.02 4.67-2.82 12.145-5.845 16.197l-2.3-.818c-18.02-6.437-27.235-10.274-49.266-12.22-21.69-1.915-43.26-1.715-64.72.924l-.6-1.287c-1.57-3.55-2.2-9.135-2.46-13.306l-.073-1.203-.08-1.414c-.215-3.766.096-7.547-.013-11.318-.04-1.39-.67-2.78-.436-4.15 3.013-17.592 11.62-28.378 25.71-37.315l.683-.43c4.23-2.688 8.05-6.01 13.233-6.722z" fill="#ffa300"/><g transform="matrix(-1 0 0 1 212.399996 204.399997)"><path d="M15.244 97.417c24.85-31.096 71.576-35.28 110.63-33.72s52.254 10.887 71.813 41.01 15.198 53.6 4.06 75.84c-26.097 52.114-149.185 68.164-189.91 19.136-21.703-26.128-8.13-67.89-1.834-94.775l5.24-7.493z" class="J"/><g stroke="#ffc415" stroke-width="4.75" class="B C"><path d="M128.307 87.75c7.188 17.604 27.416 5.814 19.43-6.66m-48.32-13.313c14.095 7.174 23.203 19.818 34.948 30.77 6.497 6.06 12.9 12.23 18.848 18.82 1.747 1.938 5.1 4.253 4.096 6.642-.93 2.195-23.048 3.855-24.992.3-1.005-1.837-1.297-8.225-1.23-6.14.622 19.24 8.384 39.34 3.787 54.935-2.46 8.347-36.867 2.637-35.46 7.6 2.98 10.542 15.04 11.365 36.18 2.47 2.088 4.267.867 9.464.615 14.192-.57 10.667-2.048 21.268-3.072 31.903"/><path d="M90.746 92.086c-1.51 11.93 14.787 19.47 25.376 10.683 7.116-5.905 3.272-13.57 3.158-21.678"/></g><path d="M131.896 38.267c-8.05 27.614-53.63 32.3-73.593 16.803s-1.15-15.298 11.01-9.56l.2.002c9.348 6.87 21.3 7.956 35.86 3.262.352-.08.73-.208 1.132-.375l1.413-.495-.114-.13c9.806-5.28 29.145-26.8 24.103-9.508zm-20.928-25.452c5.395 12.604-5.153 27.778-7.83 32.82-8.534 2.02-18.992.796-31.37-3.668-3.863-9.177-5.123-19.93.624-29.027 9.772-15.47 30.54-18.902 38.578-.125z" class="E"/></g></g></g></svg>