<svg xmlns="http://www.w3.org/2000/svg" xmlns:xlink="http://www.w3.org/1999/xlink" width="1135" height="894" xmlns:v="https://vecta.io/nano"><style><![CDATA[.B{stroke-linejoin:round}.C{stroke-linecap:round}.D{fill:#001d71}.E{stroke-width:1.118}.F{fill-rule:nonzero}.G{stroke:#212121}.H{stroke-width:5.322}.I{stroke:#001d71}.J{stroke-width:7.451}.K{fill:#0064ff}.L{mask:url(#E)}.M{fill:#ffa300}]]></style><defs><path d="M24.4.488l998.655 60.894c12.136.74 21.6 10.798 21.6 22.957V603.66c0 12.16-9.464 22.217-21.6 22.957L24.4 687.512c-12.68.773-23.584-8.88-24.357-21.558a23 23 0 0 1-.043-1.4v-641.1c0-12.703 10.297-23 23-23a23 23 0 0 1 1.4.043z" id="A"/><path d="M49.705 1.835C10.272 86.794-5.698 145.773 1.795 178.773 63.662 228 130.31 245.85 201.74 232.35c38.007-76.176 50.267-125.513 36.78-148.013 32.468 8.5 51.95 5 58.443-10.5s-19.48-33.25-77.924-53.25c-39.34-10.053-70.06-16.303-92.16-18.75s-47.826-2.447-77.175 0z" id="B"/><path id="C" d="M42.903 1.034C19.753 3.814.986 22.34.986 42.4s18.767 38.596 41.917 41.376S84.82 68.042 84.82 42.4 66.053-1.746 42.903 1.034z"/><path id="D" d="M22.84 5.527c-.112 1.785 1.624 2.24 2.106.596.367-1.253-1.634-1.372-2.265-.596"/></defs><g transform="matrix(-1 0 0 1 1135 0)" fill="none" fill-rule="evenodd"><mask id="E" fill="#fff"><use xlink:href="#A"/></mask><use xlink:href="#A" class="K"/><g class="L"><g transform="translate(25 30)"><g transform="matrix(-1 0 0 1 85.099998 205.099997)"><use xlink:href="#C" class="D F"/><g transform="translate(14.05 9.44)"><g fill="#f06aa6"><path d="M45.15 6.238c-1.1 24.502-27.776 33.587-10.725 49.555 4.075 3.816-22.343 3.87-20.075 0 12.1-20.648-.55-25.053-.275-47.352.032-2.63.405-5.097 1.064-7.362 13.28-.376 23.01-.032 29.186 1.03.49.084.766 1.46.825 4.13z"/></g><g stroke="#ffc415" class="B C E"><path d="M48.72 3.36c-1.46 6.348-4.24 12.856-4.78 19.376-.4 4.726-.174 9.482-.26 14.224m3.36-33.8c-3.278 8.246-4.55 15.663-4.858 24.574-.243 7-.943 5.3.453 8.186M42.63 8.2c-3.077 12.688-3.218 16.792-1.064 29.8m-.196 1.48c-7.632-6.855-4.435-18.825-2.4-27.3"/></g><path d="M26.574 6.1c.464 2.292.338 3.83-.38 4.61-3.808 4.147-5.3 5.743-9.57 11.648-.06.08-.04.292.06.293.475.005 1.005-.01 1.397-.28 2.747-1.88 4.87-4.737 7.91-6.092 4.093-1.825-5.614 4.48-3.264 5.7.96.502 17.744-1.807 12.316-.724s-13.484 2.584-12.808 3.467c2.822 3.683 3.533 5.37 2.822 8.667" class="B C E G"/><g stroke="#ffc415" class="B C E"><path d="M16.38 10.5C13.916 17.05 10.617 33 .9 34.858c-.123.023-.187-.166-.28-.25M14.9 6.1C12.68 17.152 9.38 26.927.2 33.4M13.65 1.9C10.8 12.2 9.36 23.392.63 30.45M10.7 2.3C8.076 13.357 7.787 20.627 0 28.35"/></g><path d="M13.402.09c-1.2 0 .716 7.343 1.463 9.04.608 1.38 2.244 2.11 4.908 2.185l.312.006c3.152.097 5.344-.623 6.575-2.16l.188-.242c1.463 2.937 4.4 3.77 7.986 3.77 8.267 0 11.567-5 10.244-12.6H13.402zm14.595 2.804l14.06-.197.004.05c.187 2.42-.233 4.22-1.177 5.412l-.098.12c-1.13 1.328-3.237 2.02-6.422 2.02-2.35 0-5.12-.988-6.052-4.237l-.03-.108c-.14-.53-.112-1.416-.217-2.466l-.068-.596zm-12.372.238h10.2l-.005.015-.005 1.206c-.054 3.604-.653 5.188-6.95 5.29l-.95.008a.52.52 0 0 1-.355-.116c-.286-.198-.6-.588-.887-1.186-.547-1.136-.9-2.807-1.037-5l-.013-.226z" class="D F"/><g fill="#212121"><use xlink:href="#D" transform="matrix(-1 0 0 1 47.670002 0)"/><use xlink:href="#D" x="6.09" transform="matrix(-1 0 0 1 59.850002 0)"/></g><g fill="#ff0034"><path d="M5.225 60.2c1.348 1.974 7.005 1.463 3.975-2.538s-5.322.564-3.975 2.538z" transform="matrix(-1 0 0 1 14.91 0)"/><path d="M12.473 63.583c1.386 1.905 6.447.692 3.33-3.17s-4.716 1.264-3.33 3.17z" transform="matrix(-1 0 0 1 28.77 0)"/><path d="M22.15 64.718c1.402 1.978 6.443 1.082 3.3-2.927s-4.692.948-3.3 2.927z" transform="matrix(-1 0 0 1 48.090002 0)"/><path d="M31.618 63.5c1.426 1.947 6.276.933 4.205-2.503s-5.63.556-4.205 2.503z" transform="matrix(-1 0 0 1 67.620002 0)"/><path d="M39.137 61.172c1.354 1.925 5.546 1.002 3.993-2.475s-5.347.55-3.993 2.475z" transform="matrix(-1 0 0 1 82.320002 0)"/></g></g></g><g transform="matrix(-1 0 0 1 91.099998 0)"><path d="M48.903 1.034C25.753 3.814 6.986 22.34 6.986 42.4s18.767 38.596 41.917 41.376S90.82 68.042 90.82 42.4 72.053-1.746 48.903 1.034z" fill="#d0e4ff" class="F"/><g transform="translate(.94 5.87)"><path d="M5.22 52.404C5.273 29.46 35.65 9.132 53.11 9.146c26.517.02 19.932 44.287 18.715 44.37-7.508.515-29.7.144-66.606-1.112z" transform="matrix(.956305 -.292372 .292372 .956305 -7.474683 12.872101)" class="D"/><g fill="#f2f4f6"><path d="M65.66 24.765c1.145 9.132-7.798 32.182-17.242 30.916-7.932-1.064-12.552-7.8-14.998-15.01-.414-1.22-6.54 1.96-7.38-3.71s5.846-2.11 5.67-3.15c-.587-3.48-.542-6.432-.453-8.79.014-.372 2.016-1.524 6.296-2.204 1.915-.304 4.286-.514 7.14-.518 4.07-.005 8.618.395 12.436.88 1.098.14.093-10.092 1.042-9.947.965.148 3.88 10.672 4.63 10.81 1.76.325 2.846.6 2.86.724z"/></g><g transform="translate(40.11 25.41)"><g class="B C E G"><path d="M12.6 1.9c.517 4.977 4.2 3.34 4.2.017m-4 2.703L11.55 6.3"/><path d="M14.7 5.25l-.84 2.73m1.9-3.15l.63 2.3"/></g><path d="M9.45 0c3.404 5.183 5.465 8.215 6.183 9.095.317.388.926.852.743 1.33-.17.44-4.18.772-4.53.06-.182-.368-.235-1.648-.223-1.23.075 2.57.3 4.2.675 4.86" fill="#f5fff6" class="B C E I"/><g class="B C E G"><path d="M1.558 2.035C.775 5.332 5.43 5.75 6.3 1.68"/><path d="M2.1 4.4L.63 5.46m2.867-.84l-.065 1.9M5.04 4.4l.63 1.47"/></g><path d="M8.743 14.817c1.35-.255 1.51 1.694 2.457 1.138.477-.28.734-.983 1.285-1.048.837-.1 2.152.27 3.947 1.11l-3.248 2.903c-2.028 1.873-10.554.028-12.706-.98l6.552.088c9.704-1.51 7.52-1.538-6.552-.088 1.912-1.98 6.915-2.87 8.265-3.124z" fill="#ff4445" transform="matrix(.956305 .292372 -.292372 .956305 5.415917 -1.717927)"/></g></g></g><g transform="matrix(-1 0 0 1 89.099998 102.199998)"><path d="M46.903 1.034C23.753 3.814 4.986 22.34 4.986 42.4s18.767 38.596 41.917 41.376S88.82 68.042 88.82 42.4 70.053-1.746 46.903 1.034z" class="D F"/><g transform="translate(.83 16.58)"><path d="M34.796 6.58C24.26 6.58 14.84 9.37 7.81 13.807 4.96 15.604 2.7 17.58 1.397 19.38.612 20.466.133 21.52.076 22.626c-.095 1.872 1.11 3.406 2.95 3.79l.16.03c1.2.227 2.965.314 7.086.42l3.735.1c4.4.122 6.182.2 8.996.394l.57.04.494.036c4.257.32 7.824.792 10.655 1.452l.197.047V45.42c.38 3.88 4.56 5.82 12.54 5.82S64.522 49 74.705 44.49L73.3 32.27l.1-.026c1.454-.388 2.684-.934 3.693-1.66 1.915-1.38 2.95-3.375 2.95-5.718 0-2.7-1.515-4.735-4.106-5.413l-.1-.026c-1.1-.273-2.388-.302-3.863-.1l-.17.023-.263-2.275-.93-.738c-8.24-6.54-20.195-9.745-35.803-9.745z" class="F M"/><g class="B C E I"><path d="M27.55 10.075c4.088.24 3.446.33 6.366-2.517m-5.968 4.6c3.215-.23 3.552-1.457 5.756-4.16M35.1 7.85c.808 2.068 2.196 2.2 4.35 2.04M35.1 7.876c.475 3.612-.366 2.1 2.76 4.398"/></g><g stroke="#fff" stroke-width="1.748" class="B"><path d="M29.566 1.253c3.83-3.508 5.796 1.153 5.385 4.16-.497 3.63-3.452 6.436-6.234 8.424-.038.027-2.468 1.666-3.183 1.033-1.72-1.524-1.038-4.95-.318-6.994s2.572-4.993 4.35-6.623z"/><g class="C"><path d="M34.632 8.856c.632-1.94 1.055-4.392 2.785-5.775 3.72-2.972 7.31-1.99 6.286 3.126-.56 2.8-2.892 6.106-4.933 8.053-2.65 2.528-4.96-.927-4.562-3.444.192-1.22.654-2.384.98-3.576"/></g></g><g class="E I B C"><path d="M47.576 6.392c.872 5.1 1.36 9.02 4.774 13.06 5.005 5.92 16.124 3.44 20.768-1.642"/><path d="M51.846 7.055c-.928 6.792-.365 14.472 8.223 15.63.594.08 4.555.294 6.02-.212 3.55-1.225 3.696-1.964 7.082-4.715"/><path d="M53.41 7.108c3 6.215 11.003 20.65 19.018 11.26"/><path d="M57.4 7.85c.704 3.818 1.058 7.68 3.608 10.808 3.377 4.142 10.262 3.294 13.13-.742"/><path d="M59.352 8.54c1.925 4.86 5.566 13.015 12.175 10.305m-9.814-9.803c1.598 2.526 4.9 8.95 8.196 9.616 1.283.26 2.617-.035 3.926-.053m-40.237 12.08c3.234-1.136 5.843 1.206 9.15.6 1.6-.3 3.554-2.03 4.722-2.914"/></g></g><path stroke="#0064ff" d="M29.6 59.84l13.65 7.56 21.42-7.56L63.4 75.8l-20.16-6.1-17.22 6.1z" class="B E K"/></g><g transform="matrix(-1 0 0 1 85.099998 307.299995)"><use xlink:href="#C" class="D F"/><g transform="translate(9.64 17.84)"><path d="M13.31 3.68L54.1 6.52c.6 2.345.887 6.937.865 13.776l.1-.064c.534-.33.97-.54 1.868-.735l.122-.026c1.167-.238 3.684-.536 4.655-.285 2.65.685 3.884 4.052 2.357 6.3-1.93 2.853-5.94 4.75-9.268 3.757l-.032 1.007-.668 14.934c-13.965 2-31.973 2-54.023 0C-.65 31.443 3.666 17.742 13.024 4.093l.285-.414z" fill="#54e375"/><g class="D"><g class="F"><path d="M10.634.32a.56.56 0 0 1 .548.569l-.002.07-.017.272-.045.574-.018.252-.04 1.284c.016.904.155 1.563.408 1.888 1.072 1.37 2.905 2.755 4.713 3.482 2.084.837 3.91.753 5.2-.387a.56.56 0 0 1 .789.052.56.56 0 0 1-.052.789c-1.664 1.46-3.925 1.563-6.363.584-1.992-.8-3.984-2.307-5.177-3.83-.445-.57-.626-1.427-.646-2.557-.008-.467.01-.93.053-1.506l.05-.65.017-.253.003-.082a.56.56 0 0 1 .569-.548z"/><path d="M13.813.633a.56.56 0 0 1 .716.335c1.252 3.45 2.33 5.038 4.626 6.188l.312.155.484.227c.433.193.83.34 1.198.433.74.187 1.248.134 1.522-.152l.027-.03a.56.56 0 0 1 .788-.061.56.56 0 0 1 .061.788c-.608.71-1.54.825-2.672.538-.394-.1-.8-.245-1.234-.432l-.145-.064-.77-.368-.073-.037c-2.608-1.307-3.835-3.11-5.176-6.806a.56.56 0 0 1 .335-.716z"/><path d="M18.1.085a.56.56 0 0 1 .668.422l.06.27c.457 1.978.84 3.166 1.438 4.216.782 1.373 1.824 2.183 3.287 2.423a.56.56 0 0 1 .461.642.56.56 0 0 1-.642.461c-1.82-.298-3.14-1.323-4.078-2.973-.695-1.22-1.1-2.547-1.618-4.79a.56.56 0 0 1 .422-.668z"/><path d="M21.997 1.838l.177-.955a.56.56 0 0 1 .631-.432.56.56 0 0 1 .471.603l-.005.038-.264 1.458-.11.704-.023.167c-.117.864-.156 1.522-.1 1.838.588 3.352 3.803 5.485 7.177 4.742 1.112-.245 1.835-.63 2.708-1.364l.136-.118 1.377-1.224a.56.56 0 0 1 .788.058.56.56 0 0 1-.058.788l-.09.08-1.432 1.27c-1.004.845-1.887 1.314-3.188 1.6-3.993.88-7.82-1.66-8.518-5.64-.082-.468-.04-1.203.094-2.18l.107-.717.03-.187.092-.527z"/><path d="M25.356 1.408a.56.56 0 0 1 .559.559l.002.613c.007.48.03.553.125.762l.02.04 1.318 2.37.113.21c1.737 3.25 3.65 3.58 6.653 1.397a.56.56 0 0 1 .781.123.56.56 0 0 1-.123.781c-3.495 2.54-6.172 2.108-8.234-1.66l-.265-.488-1.275-2.3-.034-.075c-.19-.433-.2-.586-.2-1.774a.56.56 0 0 1 .559-.559z"/><path d="M28.51 1.402a.56.56 0 0 1 .699.368c1.017 3.284 2.533 5.033 5.27 5.684a.56.56 0 0 1 .414.673.56.56 0 0 1-.673.414c-3.174-.754-4.957-2.81-6.08-6.44a.56.56 0 0 1 .368-.699z"/><path d="M33.598 1.066a.56.56 0 0 1 .567.55l.001.144-.014.666-.046.98c-.044 1.032-.023 1.546.107 2.14.558 2.55 2.39 3.967 4.97 4.172 2.378.19 5.04-.723 6.69-2.283a.56.56 0 0 1 .79.022.56.56 0 0 1-.022.79c-1.883 1.78-4.858 2.8-7.548 2.585-3.047-.243-5.305-1.99-5.974-5.047-.16-.73-.18-1.324-.13-2.507l.042-.886.012-.76a.56.56 0 0 1 .55-.567z"/><path d="M37.244.9a.56.56 0 0 1 .55.567l-.002.08a4.84 4.84 0 0 1-.057.542l-.02.128c-.087.576-.1.8 0 1.006.6 1.346 1.598 2.913 2.687 4.026 1.353 1.383 2.706 1.98 3.97 1.628.29-.08.52-.22.992-.578l.28-.215.5-.354a.56.56 0 0 1 .771.175.56.56 0 0 1-.175.771l-.087.056-.3.216-.33.252c-.578.438-.89.624-1.354.754-1.735.484-3.462-.28-5.07-1.923-1.2-1.217-2.27-2.896-2.91-4.36-.198-.452-.2-.808-.094-1.54l.042-.29.036-.395a.56.56 0 0 1 .567-.55z"/><path d="M40.69 1.108a.56.56 0 0 1 .659.436l.24 1.16.052.237.042.187c.686 3.013 1.426 3.675 4.727 4a.56.56 0 0 1 .501.611.56.56 0 0 1-.611.501l-.23-.024c-3.6-.394-4.694-1.44-5.473-4.822l-.116-.527-.227-1.103a.56.56 0 0 1 .436-.659z"/><path d="M45.896 1.346a.56.56 0 0 1 .582.535l.01.27.007.606-.002 1.137.042 1.787.004.064c.19 3.084 1.078 4.71 3.192 4.93 1.204.125 2.4.094 4.237-.063a2.92 2.92 0 0 0 1.551-.567l.07-.05 1.137-.864a.56.56 0 0 1 .781.123.56.56 0 0 1-.123.781l-.18.135-.94.717-.025.018a4.06 4.06 0 0 1-2.174.82l-.327.027c-1.713.138-2.906.16-4.12.034-1.52-.158-2.607-.9-3.287-2.157-.522-.957-.8-2.156-.895-3.666l-.01-.147-.048-1.727.001-1.447-.015-.712a.56.56 0 0 1 .535-.582z"/><path d="M48.72 1.284a.56.56 0 0 1 .581.536l.008.206.017.782.01 1.55c.015 1.78.078 2.645.294 3.64.306 1.41.9 2.532 1.914 3.475 1.35 1.257 5.186-.217 5.262-1.903l.001-.05a.56.56 0 0 1 .559-.559.56.56 0 0 1 .559.559c0 2.712-5.085 4.688-7.143 2.77-1.19-1.107-1.892-2.434-2.244-4.055l-.03-.135c-.223-1.076-.28-2.026-.292-3.952l-.005-1.08-.004-.362-.022-.84a.56.56 0 0 1 .536-.581z"/><path d="M50.946 3.965a.56.56 0 0 1 .609-.503.56.56 0 0 1 .506.574l-.002.035c-.1 1.06.64 3.714 1.64 5.502 1.2 2.128 2.36 2.704 3.55 1.5a.56.56 0 0 1 .79-.001.56.56 0 0 1 .001.79c-.973.975-2.048 1.202-3.078.695-.827-.406-1.576-1.262-2.24-2.45-1.1-1.97-1.9-4.84-1.776-6.153zm-24.624 7.133l.092-.045c.252-.118.426-.15.665-.037.27.126.374.386.347.638a1.04 1.04 0 0 1-.109.347c-.14.288-.433.6-.827.936l-.093.075.026.018a.56.56 0 0 1 .235.527l-.006.037a.64.64 0 0 1-.036.125l-.003.007.045-.005a.3.3 0 0 1 .044 0l.106.01.056.016c.143.043.162.068.34.3l.033.15c.022.108.022.146.004.2l-.007.022.03.01c.117.046.22.13.285.248l.017.033a.56.56 0 0 1-.231.728l-1.57.765-2.8 1.302-.893.394-.217.094c-1.62.696-2.958 1.196-3.942 1.45-.603.156-1.077.222-1.44.18-.584-.067-.976-.457-.892-1.052a2.06 2.06 0 0 1 1.171-1.623l.078-.038h.003a.6.6 0 0 1 .02-.074l.035-.098.05-.074a.39.39 0 0 1 .104-.113l.06-.04a.31.31 0 0 1 .059-.032l.052-.02c.043-.015.083-.023.2-.04l.194-.03.728-.085.192-.017.062-.01.34-.052.237-.038-.08.004c-1.17.056-2.166-.073-2.635-.47l-.035-.03c-.35-.326-.5-.707-.23-1.096.173-.24.42-.33.78-.372l.06-.007c.4-.04.806-.03 1.842.033l.682.04c.807.044 1.254.048 1.57.003.464-.066 1.063-.256 1.7-.513l.06-.025-.164.018-2.266.154-1.418.06-1.316.08a.56.56 0 0 1-.601-.514.56.56 0 0 1 .514-.601l.283-.02.845-.05 1.615-.07c1.692-.077 2.542-.155 3.554-.347.183-.035.5-.2.94-.453l.13-.08.255-.16.553-.354.118-.074.4-.235zm-6.267 6.443l-.3.012c-2.023.1-2.8.308-3.016.963l-.003.01h.008a4.18 4.18 0 0 0 .814-.137l.075-.02c.582-.15 1.315-.4 2.176-.735l.238-.094z"/></g><path d="M20.398 18.815c2.6 1.58 1.387 3.097.392 6.385-1.116 3.69-2.402-.85-2.568-2.1-.47-3.56.254-4.987 2.176-4.284z"/><g class="F"><path d="M29.963 12.538l.545.046 2.274.182.176.016c.32.032.453.064.627.148l.028.014.08.04c.218.107.343.16.655.265l.184.06c.764.25 1.965.58 3.732 1.014l.127.03c.293.072.783.134 1.55.205l1.28.115.272.028a3.91 3.91 0 0 1 .647.107.7.7 0 0 1 .272.141c.246.21.3.585.052.84-.135.146-.264.2-.523.244-1.315.275-3.58.296-5.696.1l-.106-.01.004.003 1.148.716.146.08c.13.068.415.154.814.245l.13.03.926.19.075.016.063.015.028.007a.64.64 0 0 1 .226.093l.062.045c.07.054.082.08.186.317l-.01.13c-.02.228-.036.274-.144.377l-.062.057-.007.005.37.09.21.058.012.004c.068.025.126.05.18.082.138.08.24.173.293.364.023.083.03.16.023.23l-.004.03.015.013.035.036a.6.6 0 0 1-.118.919c-2.026 1.338-4.323 1.458-6.84.6-1.86-.634-3.624-1.684-5.864-3.32a.56.56 0 0 1-.122-.781.56.56 0 0 1 .781-.122l.29.21c2.018 1.453 3.626 2.39 5.275 2.953 1.696.58 3.234.654 4.628.15l.083-.03-.12-.025-.988-.216-.14-.033-.065-.006c-1.16-.1-1.98-.23-2.793-.433l-.094-.024c-1.204-.31-2.26-.684-3.213-1.16-.265-.133-.457-.27-.754-.525l-.14-.124-.13-.052-1.783-.74-.232-.1c-.05-.022-.094-.043-.136-.07-.135-.085-.228-.176-.27-.38s.03-.4.17-.53a.56.56 0 0 1 .235-.131c.067-.02.124-.025.188-.026.117-.002.285.02.488.054l.602.133.03.008-.002-.004a1.93 1.93 0 0 1-.149-.554l-.005-.053a.62.62 0 0 1 .312-.622l.01-.006-.024-.025-.03-.037c-.127-.162-.187-.382-.088-.594l.006-.012-.02-.002a.56.56 0 0 1-.476-.565l.002-.035a.56.56 0 0 1 .605-.509zm1.523 3.253l.025.018c.575.412 1.475.824 2.652 1.216l.057.02-.13-.056-.224-.098-.25-.112-2.13-.987zm1.242-1.908l.02.008c.46.204.91.462 1.392.785l.08.055.12.023 2.084.275.096.008-.54-.143-1.594-.458-.203-.065-.153-.05-.547-.203-.048-.02-.157-.07-.067-.033-.117-.06a.79.79 0 0 0-.248-.041l-.12-.01z"/><path d="M28.56 17.924a.56.56 0 0 1 .788.06.56.56 0 0 1-.032.762l-.028.026c-.117.1-.2.332-.243.633-.118 1.05-.13 2.06-.03 3.02.33 3.128 2.97 5.686 5.65 4.93.648-.183 1.736-1.463 2.8-3.265a22.79 22.79 0 0 0 1.132-2.17l.063-.143c.27-.615.428-1.1.436-1.254v-.015a.56.56 0 0 1 .545-.572.56.56 0 0 1 .572.545c.016.65-.743 2.395-1.734 4.088l-.052.1c-1.216 2.06-2.423 3.48-3.46 3.773-3.45.973-6.67-2.146-7.065-5.9-.1-1.042-.096-2.133.03-3.26.062-.555.254-1.037.626-1.356zm-9.012-2.15c.444-.233.9-.044 1.262.295a.56.56 0 0 1 .026.79.56.56 0 0 1-.762.05l-.096-.08-.013.013a1.24 1.24 0 0 0-.257.431l-.02.053c-.35.997-.6 1.98-.707 2.934-.215 1.757.4 3.746 1.566 4.94a.56.56 0 0 1-.009.79.56.56 0 0 1-.79-.009c-1.4-1.444-2.13-3.772-1.876-5.856a15.11 15.11 0 0 1 .762-3.17c.185-.527.48-.953.914-1.18z"/><path d="M26.644 14.92a.56.56 0 0 1 .737-.285.56.56 0 0 1 .285.737l-.08.176c-.88 1.946-1.847 3.396-4.033 6.28l-.572.753c-1.69 2.236-2.508 3.428-3.265 4.88l-.97 1.883-.315.626-.44.933c-.394.873-.662 1.598-.78 2.146-.06.28-.078.5-.058.644a.37.37 0 0 0 .02.086l.002.004.065.036c2.575 1.357 7.507-.775 9.342-3.666l.055-.09c.517-.847 1.325-.943 2.163-.475.277.155.55.36.867.638l.105.094.7.646c2.56 2.07 3.87 4.678 4.083 7.777.18 2.604-.405 5.482-1.647 8.8a.56.56 0 0 1-.719.327.56.56 0 0 1-.327-.719c2.544-6.798 2.234-11.725-1.963-15.21l-.128-.105c-.145-.117-.736-.668-.778-.706-.293-.262-.532-.446-.746-.566-.35-.195-.5-.187-.645.052l-.018.03c-.93 1.524-2.8 3.02-4.84 3.907-2.273.984-4.497 1.124-6.14.196-.597-.338-.692-1.02-.494-1.937.14-.642.43-1.43.854-2.37.116-.256.24-.52.375-.798l.16-.322 1.136-2.218c.845-1.65 1.713-2.913 3.628-5.436l.578-.762c2.067-2.736 2.965-4.11 3.795-5.987z"/><path d="M23.432 33.26a.56.56 0 0 1 .643.459c.372 2.234.4 4.355.173 6.735l-.356 2.697-.06.384-.103.625-.53 3.086-.176 1.074a.56.56 0 0 1-.64.464.56.56 0 0 1-.464-.64l.073-.452.105-.632.152-.89.312-1.805.14-.84.028-.172.408-3.014c.228-2.288.192-4.3-.163-6.44a.56.56 0 0 1 .459-.643z"/><path d="M33.49 38.127a.56.56 0 0 1 .76.218.56.56 0 0 1-.218.76l-.268.147c-4.332 2.356-6.678 2.46-11.007.397a.56.56 0 0 1-.264-.745.56.56 0 0 1 .745-.264l.242.114c3.916 1.824 5.893 1.656 10.01-.627z"/></g><path d="M28.922 18.184c2.6 1.58 4.18 4.212 3.186 7.5-1.116 3.69-3.778-1.333-3.944-2.584-.706-5.338.556-1.623.556-4.257"/></g></g></g></g><path d="M201.847 127.123C234.2 85.85 295.032 80.298 345.877 82.37s68.03 14.45 93.493 54.43 19.786 71.142 5.286 100.66c-7.256 14.772-20.272 27.36-36.773 37.392C399.125 280.177 386 287 423 298s-65.145-2.588-76.33-.378c-56.014 11.067-119.512 1.746-149.257-34.762-28.255-34.68-10.585-90.107-2.388-125.79l6.823-9.946z" fill="#fff"/><g transform="matrix(-1 0 0 1 858 106)"><g transform="translate(0 172.2)"><path d="M342.85.476c92.59 57.76 149.364 196.213 170.326 415.36l.624 6.666-513.8 9.8c.945-105.82 11.68-189.82 32.2-252C42.684 148.536 78.007 91.96 138.17 10.576l1.158-1.56c78.764 4.215 146.84.694 203.28-8.495l.243-.045z" class="M"/><g transform="translate(74.2 13.702)"><g class="I B C J"><path d="M33.294 237.38c42.2 21.725 69.4-6.054 97.844-36.27m47.5 4.903c5.8 25.083 9.44 40.794 23.805 61.03.344.485-1.155.3-1.732.433m28.355-8.224c-28.766-17.1-11.482-4.225-43.718-47.615m103.02 35.277c-39.1-2.656-79.353-16.84-109.08-42.852m112.543 18.4c-20.596 2.938-62.596 23.938-111.68-21.212m110.163-8.44c-53.804 10.835-20.572 6.54-100.422 4.544M73.845 271.232c23.994-19.1 59.402-40.255 65.66-73.656m-31.247 73.284c28.54-18.848 8.456-3.208 41.107-64.356m-9.487 66.033c21.63-42.097 14.5-21.367 23.625-61.383"/><path d="M174.107 267.7c-16.168-32.88-10.234-14.063-14.137-57.478m46.5 55.893c-24.86-33.618-12.784-13.7-33.108-61.57M58.964 174.508c21.793 12.866 51.928 36.656 75.708 15.254"/><path d="M46.315 203.527c13.865 3.707 83.89 24.437 82.59-10.976"/><path d="M97.694 16.8c-1.646 14.92-1.646 24.253 0 28 10.46 23.806 26.804 15.872 33.6-9.8"/><path d="M142.494 0c-31.733 137.2-29.4 205.8 7 205.8s49-24.267 37.8-72.8l-5.6-124.6c16.8 58.8 32.667 61.6 47.6 8.4" class="M"/></g><g stroke="#f06aa6" fill="#f06aa6" class="B J"><path d="M19.294 135.8c-8.085-4.166-12.75-7.9-14-11.2-6.647-17.57 6.77-27.107 30.8-14 .933-20.533 8.867-33.133 23.8-37.8s17.733 7.933 8.4 37.8c14.86-2.21 24.193-2.21 28 0 12.747 7.397 6.828 25.442-19.6 36.4 13.067 11.2 14.933 22.867 5.6 35s-20.533 6.533-33.6-16.8c-18.667 22.4-33.133 28-43.4 16.8s-5.6-26.6 14-46.2z"/><path d="M229.936 127.128c-8.482-4.36-13.378-8.268-14.688-11.722-6.973-18.388 7.104-28.37 32.314-14.653.98-21.49 9.302-34.68 24.97-39.563s18.605 8.303 8.813 39.563c15.6-2.312 25.382-2.312 29.376 0 13.373 7.742 7.164 26.63-20.563 38.098 13.71 11.722 15.667 23.933 5.875 36.632s-21.542 6.838-35.25-17.584c-19.584 23.445-34.76 29.306-45.533 17.584s-5.875-27.84 14.688-48.355z" transform="matrix(-.987688 .156434 .156434 .987688 504.998002 -39.744205)"/></g><g fill="#c23362"><circle cx="50.794" cy="135.1" r="17.5"/><circle cx="263.594" cy="123.9" r="17.5"/></g></g></g><path d="M341.6 197.102c57.652-10.323 89.852-17.79 96.6-22.4l-12.6-35c-59.733 14-94.733 21-105 21-6.533-101.733-24.733-152.6-54.6-152.6-9.716 0-20.916 14-33.6 42-17.733-54.133-36.4-64.4-56-30.8s-29.867 84.467-30.8 152.6c-30.83-1-53.697-2.29-68.6-3.902s-26.57-4.044-35-7.298v32.2c-1.502 1.554 8.858 3.76 31.08 6.616s44.528 4.852 66.92 5.984c27.067 2.065 94.267-.735 201.6-8.4z" class="D"/></g></g><path d="M874.142 635.815c-1.5-26.347 21.8-33.052 28.26-8.8 4.928 18.502-21.933 20.257-30.4 8.8" fill="#212121"/><path d="M908.432 555.968c8.98 0 18.1.65 27.356 1.948l1.737.25c3.665.545 6.56 3.393 7.16 7.046 2.742 16.663 3.852 33.64 3.332 50.934 2.413 1.752 5.596 1.35 9.55-1.202-.434-16.88.688-33.456 3.366-49.732.585-3.557 3.344-6.35 6.872-7l.288-.048 1.737-.25c9.257-1.3 18.376-1.948 27.356-1.948l2.11.01c11.795.108 35.638 1.064 71.53 2.866 3.81.19 7.136 2.62 8.486 6.165l.105.3.353 1.04c5.36 15.976 8.04 33.823 8.04 53.543 0 18.816-2.497 35.197-7.5 49.145-1.767 4.937-6.367 8.284-11.6 8.47l-.334.008-5.137.042c-10.095.066-19.113.03-27.057-.106l-4.58-.08-56.143-.02c-6.104.035-11.366-4.24-12.6-10.182l-.062-.32-.292-1.634c-1.456-8.29-2.606-16.887-3.45-25.794-4.092-4.4-8.298-4.74-12.617-1.023-1.175 10.682-2.967 21.337-5.375 31.968l-.413 1.796c-1.31 5.617-6.22 9.662-11.99 9.874l-25.545.906-29.112.85-3.727.068-28.5.07-2.58-.023c-5.34-.05-10.088-3.41-11.907-8.43-6.335-17.474-9.502-36.002-9.502-55.585 0-19.72 2.68-37.567 8.04-53.543l.353-1.04c1.276-3.703 4.677-6.258 8.59-6.455l12.105-.598 61.535-2.278zm-10.78 10.106l-1.677.063c-10.665.44-25.613 1.814-44.842 4.12l-3.127.378a4.27 4.27 0 0 0-3.726 3.841l-.244 2.62c-3.882 42.53-2.7 72.016 3.575 88.46 2.78 7.297 30.108 8.367 81.984 3.21l.47-3.98c2.766-23.872 4-41.383 3.702-52.534l-.013-.455c-.364-11.728-1.75-26.255-4.157-43.58-9.416-1.823-20.063-2.536-31.942-2.14zm98.324 1l-1.15-.035c-11.15-.31-17.418.408-18.803 2.156l-.322 2.325c-2.208 16.158-3.486 29.787-3.833 40.887l-.028 1.073c-.255 11.617 1.052 28.675 3.922 51.174 53.966 2.993 82.338.87 85.116-6.364 6.374-16.6 6.568-44.27.582-83.005a4.25 4.25 0 0 0-3.818-3.579l-9.448-.85c-24.62-2.184-42.025-3.444-52.217-3.782z" class="D"/><path d="M923.375 568.52l194.25 13.53c1.9 7.445 2.96 45.128 3.182 113.05l-3.182 71.112c-66.5 9.52-152.25 9.52-257.25 0-3.465-65.486 17.082-130.727 61.642-195.722l1.358-1.97z" fill="#fb3640"/><g class="G B C H"><path d="M1014 745.7c20.95-9.986 31.325-8.537 51.252 2.516M863 718.516c20.95 9.986 31.325 8.537 51.252-2.516"/><path d="M934.935 572c-.215 12.262-7.018 58.715 6.237 76.594 32.545 43.898 115.948 97.93 165.828 51.736"/><path d="M940.38 673.306c3.16-8.323 5.434-15.533 15.343-20.922 5.495-2.99 12.626-1.964 18.752-.698 5.262 1.087 10.542 3.637 14.26 7.516 16.62 17.346 1.243 43.32-18.91 46.65-7.4 1.222-27.04 3.848-31.383-6.5" fill="#ff4445"/><path d="M987 576c15.666 46.232 31.98 83.602 75.24 106.822 14.95 8.025 49.843 26.862 64.76 8.18M1052 568c10.944 51.387 25.84 109.575 80 119"/></g><path d="M625.238 698.1c26.47-33.018 76.243-37.46 117.843-35.803 34.257 1.365 49.84 8.32 65.907 28.595C812.432 695.237 830 671 844 699s-16.43 20.69-14.117 27.158c8.11 22.668 3.248 41.837-5.982 60.21-27.8 55.335-158.91 72.377-202.3 20.32-14.782-17.74-14.2-42.266-10.107-65.1C612.744 734.657 577 752 587 716s31.537-5.182 32.656-9.945l5.582-7.956z" class="K"/><g class="B C G H"><path d="M693.675 699.07c.59 13.923-3.153 42.227 17.872 44.406 6.857.71 13.81.293 20.678-.296 6.626-.568 9.212-3.724 14.472-7.55"/><path d="M707.115 698.773c.697 17.196-2.197 35.032 11.52 47.8 8.233 7.67 29.54-.847 29.54-11.25"/><path d="M720.26 709.135c-.975 10.26 12.903 51.905 29.246 35.525"/></g><path d="M687.56 642.52c-5.434-10.502-8.098-23.752-1.126-34.737 10.458-16.477 32.684-20.134 41.287-.133 6.675 15.52-9.455 34.702-9.01 36.633 2.525 10.993 38.31-33.082 31.41-9.522-8.617 29.413-57.395 34.394-78.76 17.898s-1.23-16.295 11.784-10.183l4.418.044z" class="D"/><g transform="matrix(.965926 -.258819 .258819 .965926 226.282927 633.276424)"><g transform="translate(.149 31.351)"><mask id="F" fill="#fff"><use xlink:href="#B"/></mask><use xlink:href="#B" class="D"/><path d="M201.13 129.515c17.15 16.082 32.735 2.01 48.92-8.32" stroke="#0d62fe" mask="url(#F)" class="B C H"/></g><g class="B C H"><path d="M58 49.232c2.18-14.72 20.998-38.77 34.377-44.428 3.522-1.49 7.2-2.63 10.954-3.404 2.408-.497 6.42-2.65 7.366-.378 6.942 16.672-25.69 43.698-38.152 47.263-1.1.312-.267-2.36.187-3.4 1.346-3.08 2.813-6.236 5.1-8.7 11.7-12.616 26.997-27.975 45.14-31.38 1.61-.302 4.3-1.516 4.912 0 4.93 12.003-6.625 31.57-17.565 37.242-4.803 2.5-10.968 10.696-14.733 6.808-3.622-3.74 5.23-9.14 8.878-12.856 6.948-7.08 14.53-13.605 22.664-19.282 4.253-2.97 9.212-4.9 14.168-6.43 4.322-1.333 8.903-2.477 13.408-2.078 1.234.11 1.377 2.167 1.51 3.4 1.897 17.377-17.6 34.2-31.732 40.27-1.33.573-.467-2.976 0-4.348.586-1.72 1.827-3.17 3.023-4.54 3.225-3.69 6.61-7.25 10.198-10.586 1.78-1.656 3.757-3.12 5.855-4.348 7.174-4.2 14.162-8.905 21.912-11.912 3.656-1.42 8.487-3.372 11.7-1.135 2.535 1.76 1.11 6.384 0 9.265-4.922 12.76-8.74 19.743-18.698 26.655-3.82 2.65-9.048 5.367-13.977 4.917-.618-.056.37-1.218.756-1.704 4.538-5.707 9.075-11.428 13.977-16.825 5.18-5.704 10.55-11.254 16.24-16.447 1.46-1.333 3.18-2.57 5.103-3.026 5.372-1.273 11.36-4.263 16.43-2.078 2.776 1.196.836 6.228-.19 9.074-2.275 6.302-10.99 18.593-16.618 23.064-12.653 10.053-12.427 1.75-6.8-4.348 7.067-7.66 14.063-15.528 22.286-21.93 2.766-2.153 6.56-2.602 10.01-3.213 2.666-.472 5.664-1.136 8.122 0 1.465.677 1.534 2.932 1.698 4.54.347 3.386 1.085 7.052-.187 10.208-4.502 11.17-17.492 24.318-29.843 25.142" stroke="#ffa300"/><path d="M193 67.942c2.33 4.16 4.2 8.62 6.988 12.478 7.165 9.88 22.087 6.31 23.797-5.86.763-5.43.504-10.965.378-16.447-.006-.252-.504 0-.756 0" stroke="#0d62fe"/><path d="M243.334 177.478c8.336 3.503 6.58 1.255 10.763 12.478 1.672 4.486 3.27 9.067 3.97 13.803.636 4.3.752 8.76 0 13.043-1.385 7.882-18.685 11.894-23.045 5.104-6.8-10.588-8.516-16.252-9.63-28.924-.233-2.648-1.052-6 .756-7.94 1.5-1.616 5.014-1.52 6.6 0a33.11 33.11 0 0 1 8.874 14.747c1.88 6.682 1.624 13.87 1.134 20.795-.443 6.246-11.908 16.898-17.374 9.265-4.354-6.08-6.336-13.014-6.988-20.42-.597-6.78-1.635-13.727-.378-20.416 2.078-11.06 6.067 1.215 6.6 5.67.887 7.26 1.268 14.654.565 21.933-.568 5.887-2.55 11.568-4.343 17.203-.488 1.533-1.317 3.02-2.454 4.157s-2.582 2.127-4.156 2.46c-1.852.393-4.098.68-5.668-.378-1.564-1.056-2.238-3.228-2.454-5.104-1.497-13-2.832-26.063-2.645-39.136.016-1.1 2.998-1.633 3.214-.565 2.933 14.514-.74 22.925-7.18 35.92-1.263 2.55-6.5 8.84-10.767 6.617-6.914-3.612-2.398-34.7 4.912-38.945.6-.35 1.952-.872 2.076-.187 2.115 11.644-4.408 23.754-12.652 31.572-1.92 1.82-15.4 7.648-16.8 4.157-4.758-11.713-.52-33.305 10.198-40.646.735-.503 2.5-1.258 2.645-.378 2.782 16.72-4.573 18.166-18.32 29.872-2.237 1.905-5.948 6.994-7.557 4.535l-3.588.756c-6.15-9.4 17.274-26.34 17.755-40.455.045-1.328-1.153 2.45-2.08 3.4-4.012 4.118-8.435 7.814-12.652 11.72m89.165-85.96c3.64 1.55 2.872.555 4.698 5.518.73 1.984 1.427 4 1.733 6.104.278 1.902.328 3.875 0 5.768-.605 3.486-8.156 5.26-10.06 2.257-2.968-4.683-3.717-7.187-4.203-12.792-.102-1.17-.46-2.65.33-3.5.655-.715 2.2-.672 2.886 0a14.68 14.68 0 0 1 3.873 6.522c.82 2.955.7 6.134.495 9.196-.193 2.762-5.198 7.473-7.584 4.097-1.9-2.7-2.766-5.755-3.05-9.03-.26-3-.714-6.07-.165-9.03.907-4.9 2.648.537 2.886 2.507.387 3.2.553 6.48.247 9.7-.248 2.604-1.113 5.116-1.896 7.608-.213.678-.575 1.335-1.07 1.838s-1.127.94-1.814 1.088c-.8.174-1.8.3-2.474-.167s-.977-1.428-1.07-2.257c-.654-5.744-1.236-11.526-1.155-17.308.007-.48 1.3-.722 1.403-.25 1.28 6.42-.323 10.14-3.134 15.885-.55 1.127-2.842 3.9-4.7 2.926-3.018-1.597-1.047-15.346 2.144-17.224.262-.154.852-.385.906-.083.923 5.15-1.924 10.505-5.523 13.963-.838.805-6.718 3.382-7.337 1.838-2.077-5.18-.227-14.73 4.452-17.975.32-.223 1.1-.556 1.155-.167 1.214 7.394-1.996 8.034-7.997 13.2-.976.842-2.596 3.093-3.3 2.006l-1.566.335c-2.685-4.157 7.54-11.65 7.75-17.9.02-.587-.503 1.083-.908 1.504-1.75 1.82-3.682 3.456-5.523 5.184" stroke="#ffa300"/></g></g></g></svg>