<svg xmlns="http://www.w3.org/2000/svg" width="1290" height="1182" xmlns:v="https://vecta.io/nano"><style><![CDATA[.B{stroke-linecap:round}.C{stroke-linejoin:round}.D{stroke-width:5.322}.E{stroke:#212121}]]></style><g fill="none" fill-rule="evenodd"><path d="M296.14 955.668C264.436 851.112 374.46 716.248 454 692c120.786-36.822 152.426 173.927 147 176-33.475 12.797-135.096 42.02-304.86 87.668z" fill="#001d71"/><path d="M547.674 780.927c5.45 43.488-37.133 153.25-82.104 147.217-37.77-5.066-59.773-37.147-71.42-71.482C392.18 850.856 363 866 359 839s27.836-10.042 27-15c-2.794-16.57-2.582-30.63-2.157-41.86.067-1.773 9.6-7.256 29.982-10.495 9.12-1.45 20.41-2.45 33.998-2.466 19.383-.025 41.04 1.88 59.218 4.186 5.228.663.444-48.057 4.96-47.365 4.596.705 18.476 50.82 22.047 51.48 8.388 1.547 13.553 2.862 13.626 3.447z" fill="#f2f4f6"/><path d="M486 793c2.464 23.7 20 15.905 20 .08M487 806l-6 8m15-5l-4 13m9-15l3 11" class="B C D E"/><path d="M471 784c16.21 24.68 26.026 39.117 29.444 43.308 1.508 1.85 4.41 4.057 3.536 6.337-.804 2.094-19.898 3.677-21.576.287-.868-1.753-1.12-7.846-1.06-5.857.358 12.237 1.43 19.953 3.217 23.148" stroke="#001d71" fill="#f5fff6" class="B C D"/><g class="B C D E"><path d="M433.42 793.7c-3.73 15.702 18.435 17.7 22.58-1.7m-20 13l-7 5"/><path d="M442.654 806l-.3 9M450 805l3 7"/></g><path d="M470.977 855.468c6.5.718 4.524 9.82 9.604 8.6 2.564-.615 4.7-3.453 7.312-2.985 3.948.7 9.424 4.23 16.427 10.556l-18.834 8.698c-11.845 5.708-48.1-14.568-56.495-22.15l29.712 9.52c46.29 6.64 36.387 3.466-29.712-9.52 11.465-6.353 35.485-3.436 41.986-2.72z" fill="#ff4445"/><path d="M19.847 636.123c32.352-41.272 93.186-46.825 144.03-44.754s68.03 14.45 93.493 54.43 19.786 71.142 5.286 100.66c-7.256 14.772-20.272 27.36-36.773 37.392C217.125 789.177 199 792 199 831s-23.145-26.588-34.33-24.378c-56.014 11.067-119.512 1.746-149.257-34.762-28.255-34.68-10.585-90.107-2.388-125.79l6.823-9.946z" fill="#0d62fe"/><path d="M146.96 661c-7.597 0-14.637 3.972-19.065 9.87-4.428-5.898-11.468-9.87-19.065-9.87C95.69 661 85 671.643 85 684.725c0 26.055 38.72 50.45 40.37 51.473a4.79 4.79 0 0 0 5.052 0c1.65-1.025 40.37-25.42 40.37-51.473 0-13.082-10.69-23.725-23.83-23.725" fill="#fff"/><path d="M953.893 118.525C868.954 10.116 709.238-4.47 575.75.97s-178.61 37.955-245.463 142.97S278.34 330.8 316.41 408.348c19.05 38.802 53.223 71.87 96.545 98.217 22.995 13.985 70.58 21.4 70.58 123.84s60.766-69.838 90.133-64.033c147.063 29.07 313.773 4.587 391.868-91.308 74.183-91.09 27.79-236.682 6.27-330.415l-17.912-26.124z" fill="#001c6c"/><path d="M582 239.103C582 201.798 600.48 178 643.32 178s64.935 25.563 64.68 63.676c-.157 23.282-42.98 37.4-63 49.526-8.5 5.145-10.74 13.077-6.72 23.798m4.2 63.756c-1.472 5.04-4.986 9.896-4.415 15.12.223 2.04 4.22.837 6.066 0 7-3.174 19.518-3.985 19.87-11.76.295-6.53-20.86-6.912-19.312-.566" stroke="#0d62fe" stroke-width="39.322" class="B C"/><path d="M1256.585 702.972c-54.47-69.488-156.89-78.838-242.494-75.35s-114.537 24.33-157.41 91.642-33.312 119.78-8.9 169.48c12.217 24.872 34.13 46.067 61.912 62.956 14.746 8.964 36.843 20.45-25.45 38.97s109.68-4.357 128.513-.636c94.308 18.633 201.214 2.94 251.295-58.527 47.572-58.388 17.822-151.7 4.02-211.79l-11.487-16.745z" fill="#0d62fe"/><g transform="matrix(-1 0 0 1 880 938)"><path d="M40.238 104.1C66.708 71.08 116.48 66.64 158.08 68.296c34.257 1.365 49.84 8.32 65.907 28.595C227.432 101.237 245 77 259 105s-16.43 20.69-14.117 27.158c8.11 22.668 3.248 41.837-5.982 60.21-27.8 55.335-158.91 72.377-202.3 20.32-14.782-17.74-14.2-42.266-10.107-65.1C27.744 140.657-8 158 2 122s31.537-5.182 32.656-9.945l5.582-7.956z" fill="#ff8100"/><g class="B C D E"><path d="M108.675 105.07c.59 13.923-3.153 42.227 17.872 44.406 6.857.71 13.81.293 20.678-.296 6.626-.568 9.212-3.724 14.472-7.55"/><path d="M122.115 104.773c.697 17.196-2.197 35.032 11.52 47.8 8.233 7.67 29.54-.847 29.54-11.25"/><path d="M135.26 115.135c-.975 10.26 12.903 51.905 29.246 35.525"/></g><path d="M102.56 48.52c-5.434-10.502-8.098-23.752-1.126-34.737 10.458-16.477 32.684-20.134 41.287-.133 6.675 15.52-9.455 34.702-9.01 36.633 2.525 10.993 38.31-33.082 31.41-9.522-8.617 29.413-57.395 34.394-78.76 17.898s-1.23-16.295 11.784-10.183l4.418.044z" fill="#001d71"/></g><path d="M1014.667 784h-25.333c-3.496 0-6.333 2.837-6.333 6.333v63.333c0 3.496 2.837 6.333 6.333 6.333h25.333c3.496 0 6.333-2.837 6.333-6.333v-63.333c0-3.496-2.837-6.333-6.333-6.333m112.845-4.06c-1.216-1.444-3.014-2.274-4.915-2.274h-38.4v-25.333c0-3.496-2.86-6.333-6.4-6.333h-19.2c-2.554 0-4.87 1.507-5.875 3.832l-19.722 40.5v60.02l23.225 9.2c.755.298 1.562.456 2.374.456h51.198c3.098 0 5.747-2.2 6.297-5.206l12.8-69.667a6.26 6.26 0 0 0-1.382-5.187" fill="#fff"/><g transform="matrix(-1 0 0 1 354 852)"><path d="M57.142 80.815c-1.5-26.347 21.8-33.052 28.26-8.8 4.928 18.502-21.933 20.257-30.4 8.8" fill="#212121"/><path d="M91.432.968c8.98 0 18.1.65 27.356 1.948l1.737.25c3.665.545 6.56 3.393 7.16 7.046 2.742 16.663 3.852 33.64 3.332 50.934 2.413 1.752 5.596 1.35 9.55-1.202-.434-16.88.688-33.456 3.366-49.732.585-3.557 3.344-6.35 6.872-7l.288-.048 1.737-.25c9.257-1.3 18.376-1.948 27.356-1.948l2.11.01c11.795.108 35.638 1.064 71.53 2.866 3.81.19 7.136 2.62 8.486 6.165l.105.3.353 1.04c5.36 15.976 8.04 33.823 8.04 53.543 0 18.816-2.497 35.197-7.5 49.145-1.767 4.937-6.367 8.284-11.6 8.47l-.334.008-5.137.042c-10.095.066-19.113.03-27.057-.106l-4.58-.08-56.143-.02c-6.104.035-11.366-4.24-12.6-10.182l-.062-.32-.292-1.634c-1.456-8.29-2.606-16.887-3.45-25.794-4.092-4.4-8.298-4.74-12.617-1.023-1.175 10.682-2.967 21.337-5.375 31.968l-.413 1.796c-1.31 5.617-6.22 9.662-11.99 9.874l-25.545.906-29.112.85-3.727.068-28.5.07-2.58-.023c-5.34-.05-10.088-3.41-11.907-8.43C3.975 102.993.808 84.464.808 64.88c0-19.72 2.68-37.567 8.04-53.543L9.2 10.3c1.276-3.703 4.677-6.258 8.59-6.455l12.105-.598L91.432.968zm-10.78 10.106l-1.677.063c-10.665.44-25.613 1.814-44.842 4.12l-3.127.378a4.27 4.27 0 0 0-3.726 3.841l-.244 2.62c-3.882 42.53-2.7 72.016 3.575 88.46 2.78 7.297 30.108 8.367 81.984 3.21l.47-3.98c2.766-23.872 4-41.383 3.702-52.534l-.013-.455c-.364-11.728-1.75-26.255-4.157-43.58-9.416-1.823-20.063-2.536-31.942-2.14zm98.324 1l-1.15-.035c-11.15-.31-17.418.408-18.803 2.156l-.322 2.325c-2.208 16.158-3.486 29.787-3.833 40.887l-.028 1.073c-.255 11.617 1.052 28.675 3.922 51.174 53.966 2.993 82.338.87 85.116-6.364 6.374-16.6 6.568-44.27.582-83.005a4.25 4.25 0 0 0-3.818-3.579l-9.448-.85c-24.62-2.184-42.025-3.444-52.217-3.782z" fill="#f3a712"/><path d="M106.375 13.52l194.25 13.53c1.9 7.445 2.96 45.128 3.182 113.05l-3.182 71.112c-66.5 9.52-152.25 9.52-257.25 0C39.9 145.727 60.457 80.486 105.017 15.49l1.358-1.97z" fill="#fb3640"/><g class="E B C D"><path d="M197 190.7c20.95-9.986 31.325-8.537 51.252 2.516M46 163.516c20.95 9.986 31.325 8.537 51.252-2.516"/><path d="M117.935 17c-.215 12.262-7.018 58.715 6.237 76.594C156.716 137.492 240.12 191.524 290 145.33"/><path d="M123.38 118.306c3.16-8.323 5.434-15.533 15.343-20.922 5.495-2.99 12.626-1.964 18.752-.698 5.262 1.087 10.542 3.637 14.26 7.516 16.62 17.346 1.243 43.32-18.91 46.65-7.4 1.222-27.04 3.848-31.383-6.5" fill="#ff4445"/><path d="M170 21c15.666 46.232 31.98 83.602 75.24 106.822 14.95 8.025 49.843 26.862 64.76 8.18M235 13c10.944 51.387 25.84 109.575 80 119"/></g></g></g></svg>