<svg xmlns="http://www.w3.org/2000/svg" xmlns:xlink="http://www.w3.org/1999/xlink" width="600" height="600" xmlns:v="https://vecta.io/nano"><style><![CDATA[.B{stroke-linejoin:round}.C{stroke-linecap:round}.D{stroke-width:.6}.E{fill-rule:nonzero}.F{stroke:#212121}.G{fill:#0064ff}.H{stroke:#001d75}.I{fill:#fff}.J{stroke:#ffc200}.K{fill:#ff9d00}.L{fill:#001d75}.M{fill:#212121}.N{fill:#ff0025}.O{stroke-width:.948}.P{fill:#06f}.Q{stroke:#f4f2ee}.R{fill:#ff5fa7}.S{fill-opacity:.054}.T{fill:#001d71}.U{fill:#cce4ff}.V{fill:#00ffce}.W{fill:#ff0034}.X{fill:#f4f2ee}.Y{fill:#ff243a}.Z{fill:#005b11}.a{opacity:.414}.b{stroke-width:1.053}.c{stroke-linecap:square}]]></style><defs><rect id="A" y="358" width="203" height="36" rx="3.6"/><filter x="-0.5%" y="-2.8%" width="101.0%" height="105.6%" id="B"><feGaussianBlur stdDeviation=".5" in="SourceAlpha"/><feOffset dy="1"/><feComposite in2="SourceAlpha" operator="arithmetic" k2="-1" k3="1"/><feColorMatrix values="0 0 0 0 0.880942166 0 0 0 0 0.881090164 0 0 0 0 0.880922616 0 0 0 0.5 0"/></filter><rect id="C" x="59" y="311" width="144" height="11" rx="5.5"/><rect id="D" x="94" y="324" width="109" height="11" rx="5.5"/><rect id="E" x="178" y="298" width="25" height="11" rx="5.5"/><rect id="F" x="112" y="337" width="91" height="11" rx="5.5"/><filter x="-6.5%" y="-3.9%" width="113.1%" height="109.5%" id="G"><feOffset dy="1" in="SourceAlpha"/><feGaussianBlur stdDeviation="1"/><feColorMatrix values="0 0 0 0 0 0 0 0 0 0.164542109 0 0 0 0 0.362271488 0 0 0 0.1 0" result="C"/><feMerge><feMergeNode in="C"/><feMergeNode in="SourceGraphic"/></feMerge></filter><rect id="H" width="129.5" height="79.5" rx="4.5"/><filter x="-2.7%" y="-3.1%" width="105.4%" height="108.8%" id="I"><feOffset dy="1" in="SourceAlpha"/><feGaussianBlur stdDeviation="1"/><feColorMatrix values="0 0 0 0 0 0 0 0 0 0.164542109 0 0 0 0 0.362271488 0 0 0 0.1 0"/></filter><filter x="-7.1%" y="-4.3%" width="114.2%" height="108.7%" id="J"><feOffset dy="4" in="SourceAlpha"/><feGaussianBlur stdDeviation="4"/><feColorMatrix values="0 0 0 0 0 0 0 0 0 0.164542109 0 0 0 0 0.362271488 0 0 0 0.1 0" result="C"/><feMerge><feMergeNode in="C"/><feMergeNode in="SourceGraphic"/></feMerge></filter><path id="K" d="M0 0h294v153H0z"/><filter x="-61.5%" y="-7.4%" width="222.9%" height="114.9%" id="L"><feOffset dy="5" in="SourceAlpha"/><feGaussianBlur stdDeviation="5"/><feColorMatrix values="0 0 0 0 0 0 0 0 0 0.164542109 0 0 0 0 0.362271488 0 0 0 0.1 0" result="C"/><feMerge><feMergeNode in="C"/><feMergeNode in="SourceGraphic"/></feMerge></filter><rect id="M" x="351" y="194" width="129.5" height="79.5" rx="4.5"/><path id="N" d="M24.703 10.37c-10.444 0-18.91 8.467-18.91 18.91s8.467 18.91 18.91 18.91 18.91-8.467 18.91-18.91-8.467-18.91-18.91-18.91z"/><path id="O" d="M22.572 271.708c-.306 6.708-7.734 9.195-2.986 13.567 1.135 1.045-6.22 1.06-5.6 0 3.37-5.653-.153-6.86-.077-12.964.01-.72.113-1.395.296-2.015 3.698-.103 6.407-.01 8.127.282.137.023.213.4.23 1.13z"/><path id="P" d="M23.566 270.92c-.407 1.738-1.18 3.52-1.33 5.305-.108 1.294-.048 2.596-.073 3.894"/><path id="Q" d="M23.1 270.862c-.913 2.257-1.267 4.288-1.353 6.728-.068 1.917-.263 1.45.126 2.24"/><path id="R" d="M21.52 280.81c-2.125-1.877-1.235-5.154-.665-7.474"/><path id="S" d="M17.4 271.667c.13.628.094 1.048-.106 1.262-1.06 1.135-1.473 1.572-2.665 3.19-.016.022-.01.08.016.08.132.001.28-.003.39-.076.765-.515 1.356-1.297 2.203-1.668 1.14-.5-1.563 1.227-.91 1.563.267.138 4.94-.495 3.43-.198s-3.755.707-3.566.95c.786 1.008.984 1.47.786 2.373"/><path id="T" d="M14.56 272.875c-.686 1.793-1.605 6.163-4.308 6.67-.034.006-.052-.046-.078-.068"/><path id="U" d="M14.152 271.667c-.62 3.028-1.54 5.705-4.093 7.474"/><path id="V" d="M13.8 270.517c-.794 2.82-1.195 5.887-3.625 7.82"/><path id="W" d="M12.982 270.632c-.733 3.024-.814 5.015-2.982 7.13"/><path id="X" d="M13.732 270.025c-.33 0 .2 2 .407 2.475.176.393.66.593 1.454.6.878.027 1.488-.17 1.83-.59l.052-.066c.407.804 1.228 1.032 2.224 1.032 2.302 0 3.22-1.372 2.852-3.45h-8.82zm4.064.768l3.915-.054.001.014c.052.662-.065 1.155-.328 1.482l-.027.033c-.315.364-.9.553-1.788.553-.607 0-1.316-.233-1.622-.98l-.072-.21c-.034-.126-.033-.327-.05-.568l-.028-.27zm-3.445.065h2.84l-.004.41c-.023.924-.223 1.337-1.888 1.37l-.3.003c-.04 0-.06-.006-.1-.032-.08-.054-.167-.16-.247-.325-.13-.267-.222-.64-.27-1.12l-.024-.31z"/><path id="Y" d="M16.914 271.513c.03.49-.452.613-.586.163-.102-.343.455-.376.63-.163"/><path id="Z" d="M12.697 286.48c-.375.54-1.95.4-1.107-.695s1.482.154 1.107.695z"/><path id="a" d="M14.538 287.407c-.386.522-1.795.19-.927-.868s1.313.346.927.868z"/><path id="b" d="M17.223 287.718c-.4.542-1.794.296-.916-.8s1.307.26.916.8z"/><path id="c" d="M20.025 287.382c-.397.533-1.748.255-1.17-.685s1.568.152 1.17.685z"/><path id="d" d="M22.025 286.747c-.377.527-1.544.274-1.112-.678s1.49.15 1.112.678z"/><path id="e" d="M11.973 0C5.36 0 0 5.36 0 11.973s5.36 11.973 11.973 11.973 11.973-5.36 11.973-11.973S18.585 0 11.973 0z"/><path id="f" d="M1.347 13.52C1.36 7.6 9.197 2.356 13.702 2.36c6.84.006 5.142 11.425 4.828 11.447-1.937.133-7.665.037-17.183-.287z"/><path id="g" d="M10.276 3.03c.295 2.356-2.012 8.302-4.448 7.976-2.046-.274-3.238-2.012-3.87-3.873C1.852 6.818.27 7.64.054 6.176s1.508-.544 1.463-.813c-.15-.898-.14-1.66-.117-2.268.004-.096.52-.393 1.624-.57a11.89 11.89 0 0 1 1.842-.134c1.05-.001 2.223.102 3.208.227.283.036.024-2.604.27-2.566s1 2.753 1.194 2.79c.454.084.734.155.738.187z"/><path id="h" d="M2.438 0l1.595 2.346c.082.1.24.22.192.343-.044.113-1.078.2-1.17.016-.047-.095-.06-.425-.058-.317.02.663.077 1.08.174 1.254"/><path id="i" d="M2.256 3.823c.348-.066.4.437.634.293.123-.072.19-.253.332-.27.216-.026.555.07 1.018.287l-.838.75c-.523.483-2.723.007-3.278-.253l1.7.023c2.503-.39 1.94-.397-1.7-.023.493-.51 1.784-.74 2.132-.806z"/><path id="j" d="M12 0C5.373 0 0 5.373 0 12s5.373 12 12 12 12-5.373 12-12S18.627 0 12 0z"/><path id="k" d="M8.036 1.396C7.752 7.73.854 10.08 5.263 14.21c1.054.987-5.777 1-5.19 0C3.2 8.87-.07 7.73.001 1.965.01 1.285.106.647.276.062 3.7-.035 6.226.053 7.823.328c.127.022.198.378.213 1.068z"/><path id="l" d="M12.597.87c-.378 1.64-1.097 3.324-1.236 5-.1 1.222-.045 2.452-.068 3.678"/><path id="m" d="M12.163.814c-.848 2.132-1.176 4.05-1.256 6.354-.063 1.8-.244 1.368.117 2.117"/><path id="n" d="M11.023 2.118c-.796 3.283-.832 4.344-.275 7.7"/><path id="o" d="M10.697 10.208C8.723 8.436 9.55 5.34 10.08 3.15"/><path id="p" d="M6.87 1.575c.12.593.087 1-.098 1.192C5.788 3.84 5.405 4.25 4.298 5.778c-.015.02-.01.076.015.076.123.001.26-.003.36-.072.7-.486 1.26-1.225 2.045-1.575 1.058-.472-1.452 1.16-.844 1.476.248.13 4.588-.467 3.185-.187s-3.487.668-3.312.896c.73.952.913 1.388.73 2.24"/><path id="q" d="M4.235 2.715c-.637 1.694-1.5 5.82-4 6.298C.204 9.02.187 8.97.163 8.95"/><path id="r" d="M3.855 1.575c-.577 2.86-1.43 5.388-3.8 7.06"/><path id="s" d="M3.53.49C2.793 3.152 2.42 6.048.163 7.873"/><path id="t" d="M2.77.597C2.088 3.454 2.014 5.333 0 7.33"/><path id="u" d="M3.465.024c-.308 0 .185 1.9.378 2.337.163.37.613.56 1.35.567.815.025 1.382-.16 1.7-.558l.05-.063c.378.76 1.14.975 2.065.975 2.138 0 2.99-1.295 2.65-3.258h-8.2zM7.24.75l3.636-.05.001.013c.048.626-.06 1.09-.304 1.4l-.025.03c-.292.343-.837.523-1.66.523-.564 0-1.222-.22-1.506-.924l-.066-.2c-.032-.12-.03-.31-.047-.536L7.24.75zM4.04.8h2.638l-.004.388c-.02.873-.207 1.263-1.753 1.294l-.288.003c-.037 0-.057-.006-.092-.03-.074-.05-.155-.152-.23-.307-.12-.252-.206-.605-.25-1.056L4.04.8z"/><path id="v" d="M5.906 1.43c-.03.46.42.58.544.154.095-.324-.423-.355-.586-.154"/><path id="w" d="M1.35 15.566c.348.5 1.81.378 1.028-.656s-1.376.146-1.028.656z"/><path id="x" d="M3.225 16.44c.358.493 1.667.18.86-.82s-1.22.327-.86.82z"/><path id="y" d="M5.727 16.734c.363.512 1.666.28.85-.757s-1.213.245-.85.757z"/><path id="z" d="M8.175 16.416c.37.503 1.623.24 1.087-.647s-1.456.144-1.087.647z"/><path id="AA" d="M10.12 15.817c.35.498 1.434.26 1.033-.64s-1.383.142-1.033.64z"/><path id="AB" d="M29.574 8.57c.02.238.005.482.058.715.23 1.012 1.495.03.825-.815"/><path id="AC" d="M28.8 10.35c.9.7 1.696 1.743 1.56 1.914-.18.223-.825.27-.983.178-.127-.073-.07.026-.07.858"/><path id="AD" d="M22.455 160.6c-1.063 0-2.047.523-2.667 1.3-.62-.777-1.604-1.3-2.667-1.3-1.838 0-3.333 1.402-3.333 3.125 0 3.432 5.416 6.645 5.647 6.78a.7.7 0 0 0 .707 0c.23-.135 5.647-3.348 5.647-6.78 0-1.723-1.495-3.125-3.333-3.125"/><path id="AE" d="M15.38 8.903c2.756 1.72 4.692 5.286 5.808 10.7C18.992 22.288 15.656 24 11.92 24a11.95 11.95 0 0 1-9.379-4.53c.202-1.363.475-2.565.82-3.608.372-1.127 1.55-3.06 3.54-5.8l.607-.828c2.83.15 5.304.045 7.39-.256l.484-.075z"/><path id="AF" d="M6.273 18.125c1.633.84 2.685-.234 3.786-1.404"/><path id="AG" d="M11.897 16.91c.224.97.365 1.58.92 2.362.013.02-.045.01-.067.017"/><path id="AH" d="M13.848 18.97c-1.113-.66-.444-.164-1.692-1.843"/><path id="AI" d="M16.143 18.494c-1.513-.103-3.07-.652-4.22-1.658"/><path id="AJ" d="M16.277 17.548c-.797.114-2.422.926-4.322-.82"/><path id="AK" d="M16.218 16.4c-2.082.42-.796.253-3.886.176"/><path id="AL" d="M7.842 19.435c.93-.74 2.3-1.558 2.54-2.85"/><path id="AM" d="M9.173 19.42c1.104-.73.327-.124 1.59-2.5"/><path id="AN" d="M10.397 19.485c.837-1.63.56-.827.914-2.375"/><path id="AO" d="M11.722 19.298c-.626-1.272-.396-.544-.547-2.224"/><path id="AP" d="M12.974 19.237c-.962-1.3-.495-.53-1.28-2.383"/><path id="AQ" d="M7.266 15.692c.843.498 2.01 1.418 2.93.6"/><path id="AR" d="M6.776 16.815c.537.143 3.246.946 3.196-.425"/><path id="AS" d="M8.765 9.59c-.064.577-.064.94 0 1.084.405.92 1.037.614 1.3-.38"/><path id="AT" d="M10.498 8.94c-1.228 5.31-1.138 7.964.27 7.964s1.896-.94 1.463-2.817l-.217-4.822c.65 2.275 1.264 2.384 1.842.325"/><path id="AU" d="M6.164 14.014c-.313-.16-.493-.306-.542-.433-.257-.68.262-1.05 1.192-.542.036-.795.343-1.282.92-1.463s.686.307.325 1.463c.575-.085.936-.085 1.084 0 .493.286.264.985-.758 1.41.506.433.578.885.217 1.354s-.795.253-1.3-.65c-.722.867-1.282 1.084-1.68.65s-.217-1.03.542-1.788z"/><path id="AV" d="M14.183 13.235c-.328-.17-.518-.32-.568-.454-.27-.712.275-1.098 1.25-.567.038-.832.36-1.342.966-1.53s.72.32.34 1.53c.603-.09.982-.09 1.137 0 .518.3.277 1.03-.796 1.474.53.454.606.926.227 1.418s-.834.265-1.364-.68c-.758.907-1.345 1.134-1.762.68s-.227-1.077.568-1.87z"/><path id="AW" d="M15.77 9.036c2.23-.4 3.477-.688 3.738-.867l-.488-1.354-4.063.813C14.705 3.69 14 1.722 12.845 1.722c-.376 0-.81.542-1.3 1.625-.686-2.095-1.41-2.492-2.167-1.192S8.222 5.424 8.186 8.06L5.53 7.9c-.577-.062-1.028-.156-1.354-.282v1.246c-.058.06.343.145 1.203.256l2.6.232c1.047.08 3.648-.028 7.8-.325z"/><path id="AX" d="M11.56 8.056c1.42 0 3.162-.09 5.23-.268l.536-2.633h-2.324l.18-3.838H2.308l-.08 2.128C.743 3.03 0 3.226 0 4.03s.665 1.283 1.996 1.438l.447 2.053 9.118.535z"/><path id="AY" d="M.092.306C.027 1.426 1.024 1.71 1.3.68 1.5-.107.362-.182 0 .306"/><path id="AZ" d="M15.503 0c.276 0-.05 2.46-.223 2.952-.22.626-.737.49-1.296.49a4.1 4.1 0 0 1-.466-.021 7.61 7.61 0 0 0-.86-.882l-.25-.207.062.363-.08-.126c-.34.855-1.02 1.097-1.85 1.097C8.628 3.667 7.864 2.21 8.17 0h7.333zM11.7.997H9.114l-.001.013c-.033.53.027.942.17 1.236l.085.15c.226.333.627.506 1.263.506.433 0 .73-.278.92-.96l.05-.206.037-.2.036-.282.025-.244zm3.07 0h-1.915c.272 1.115.63 1.6 1.297 1.672l.188.01c.027 0 .04-.006.067-.03.054-.05.112-.152.167-.306.088-.25.15-.604.18-1.054l.016-.29z"/><path id="Aa" d="M11.68 0C5.23 0 0 5.23 0 11.68s5.23 11.68 11.68 11.68 11.68-5.23 11.68-11.68S18.132 0 11.68 0z"/><path id="Ab" d="M1.834 4.16c-.07-.458.01-.773.243-.946.422-.315.99.225 1.046.626.068.474-.303 1.2-.66 1.09-.34-.114-.55-.37-.63-.77z"/><path id="Ac" d="M375.865 211.354c.05.76-.71.954-.92.254-.16-.534.715-.584.99-.254"/></defs><g fill="none" fill-rule="evenodd"><path stroke="#0064ff" opacity=".232" d="M346 172.5h203" class="B C"/><g transform="translate(346 192)"><use xlink:href="#A" class="I"/><use xlink:href="#A" class="G S"/><use fill="#000" filter="url(#B)" xlink:href="#A"/><rect x="173" y="365" width="22" height="22" rx="11" class="G"/><g class="I"><path d="M189.833 371.007l-12.304 2.752c-.28.06-.49.284-.524.554s.112.533.37.657l3.494 1.686.357 3.383a.66.66 0 0 0 .511.564c.278.067.572-.04.733-.264l.106-.103-.707-2.582a.87.87 0 0 1 .452-.832l3.036-1.71-2.427 2.228a.63.63 0 0 0-.191.613l1.107 4.543c.064.266.298.464.583.498s.56-.107.692-.35l5.78-10.728c.028-.04.05-.082.068-.127.06-.15.023-.38-.046-.538-.085-.195-.45-.277-1.1-.245z"/><rect x="34" y="267" width="120" height="11" rx="5.5" class="Q"/></g><rect fill="#54e375" x="34" y="177" width="67" height="11" rx="5.5" class="Q"/><use xlink:href="#C" class="I"/><g class="G"><use xlink:href="#C" class="S"/><rect x="67" y="234" width="136" height="11" rx="5.5"/></g><g class="I"><g class="Q"><rect x="34" y="280" width="78" height="11" rx="5.5"/><rect x="34" y="190" width="51" height="11" rx="5.5"/><rect x="34" y="203" width="136" height="11" rx="5.5"/><rect x="34" y="216" width="72" height="11" rx="5.5"/></g><use xlink:href="#D"/></g><use xlink:href="#D" class="G S"/><use xlink:href="#E" class="I"/><use xlink:href="#E" class="G S"/><use xlink:href="#F" class="I"/><use xlink:href="#F" class="G S"/><g filter="url(#G)" transform="translate(73)"><g transform="translate(0 88)"><use fill="#000" filter="url(#I)" xlink:href="#H"/><use xlink:href="#H" class="I"/><use xlink:href="#N" class="E P"/><path d="M29.27 34.91c2.242 0 4.995-.14 8.26-.423l.847-4.16h-3.67l.282-6.062H14.657l-.124 3.362c-2.348-.654-3.522-.347-3.522.922s1.05 2.026 3.152 2.27l.706 3.242c7.36.564 12.16.846 14.402.846z" class="K"/><g class="M"><path d="M26.38 24.2c-.1 1.77 1.472 2.22 1.908.59.333-1.243-1.48-1.36-2.053-.59"/><path d="M32.304 23.908c.03.377.008.762.092 1.13.365 1.598 2.36.048 1.303-1.288"/></g><path d="M35.498 22.186c.435 0-.08 3.884-.353 4.663-.347.99-1.164.775-2.047.775-.282 0-.523-.01-.736-.034a12.02 12.02 0 0 0-1.359-1.393l-.394-.327.098.573-.126-.2c-.535 1.35-1.613 1.733-2.92 1.733-3.023 0-4.23-2.303-3.746-5.79h11.582zM29.49 23.76h-4.084l-.001.02c-.052.838.043 1.487.267 1.953l.135.235c.356.526 1 .8 1.995.8.684 0 1.155-.44 1.454-1.518l.08-.326.058-.332.056-.446.04-.386zm4.85 0h-3.025c.43 1.76.997 2.526 2.05 2.64l.296.015c.043 0 .065-.01.105-.047.085-.08.178-.24.263-.483.14-.397.236-.954.286-1.665l.025-.46z" class="E N"/><g class="B C F O"><path d="M31.08 26.718c1.42 1.12 2.68 2.753 2.463 3.023-.282.352-1.304.425-1.553.282-.2-.115-.1.04-.1 1.355"/><path d="M27.98 30.275c1.662 1.233 3.508 1.4 5.33 1.016"/></g><g class="H B C O"><path d="M29.76 33.44c.356 1.424 1.197 2.32 2.087 3.513"/><path d="M31.213 33.285c.972 3.076.756 1.764.977 3.867"/><path d="M32.423 33.507c.29 3 .255 1.747.255 3.723"/><path d="M33.7 33.507l-.666 4.09"/><path d="M34.61 33.618c-.08 1.45-.462 2.605-1.188 3.856"/><path d="M35.597 33.473c-.133 1.414-.536 2.776-1.487 3.88"/><path d="M36.14 34.992c-1.175 1.575-1.318 2.057-3.075 2.47"/></g><path d="M28.098 29.76c-.106.286-.318.568-.67.584" class="B C F O"/><rect x="47.385" y="27.746" width="53.177" height="6.318" rx="3.159" class="G"/><g class="X"><rect x="47.5" y="39.539" width="19.5" height="6.318" rx="3.159"/><rect x="47.5" y="49.539" width="19.5" height="6.318" rx="3.159"/><rect x="47.5" y="59.539" width="19.5" height="6.318" rx="3.159"/><rect x="70.5" y="39.5" width="40.5" height="6.318" rx="3.159"/><rect x="70.5" y="49.5" width="45.5" height="6.318" rx="3.159"/><rect x="70.5" y="59.5" width="30" height="6.318" rx="3.159"/></g><rect x="47.385" y="17.742" width="62.127" height="6.318" rx="3.159" class="T"/></g><g transform="translate(5.792 .371)"><g transform="translate(5.22 .809)"/></g></g><path d="M16.5 267C9.596 267 4 272.596 4 279.5S9.596 292 16.5 292 29 286.404 29 279.5 23.404 267 16.5 267z" class="E U"/><use xlink:href="#O" class="R"/><g class="B C D J"><use xlink:href="#P"/><use xlink:href="#Q"/><path d="M21.87 272.242c-.857 3.477-.896 4.6-.296 8.164"/><use xlink:href="#R"/></g><use xlink:href="#S" class="B C D F"/><g class="J B C D"><use xlink:href="#T"/><use xlink:href="#U"/><use xlink:href="#V"/><use xlink:href="#W"/></g><use xlink:href="#X" class="E V"/><g class="M"><use xlink:href="#Y"/><use xlink:href="#Y" x="1.686"/></g><g class="N"><use xlink:href="#Z"/><use xlink:href="#a"/><use xlink:href="#b"/><use xlink:href="#c"/><use xlink:href="#d"/></g><path d="M16.5 177C9.596 177 4 182.596 4 189.5S9.596 202 16.5 202 29 196.404 29 189.5 23.404 177 16.5 177z" class="E U"/><use xlink:href="#O" y="-90" class="R"/><g class="B C D J"><use xlink:href="#P" y="-90"/><use xlink:href="#Q" y="-90"/><path d="M21.87 182.242c-.857 3.477-.896 4.6-.296 8.164"/><use xlink:href="#R" y="-90"/></g><use xlink:href="#S" y="-90" class="B C D F"/><g class="J B C D"><use xlink:href="#T" y="-90"/><use xlink:href="#U" y="-90"/><use xlink:href="#V" y="-90"/><use xlink:href="#W" y="-90"/></g><use xlink:href="#X" y="-90" class="E V"/><g class="M"><use xlink:href="#Y" y="-90"/><use xlink:href="#Y" x="1.686" y="-90"/></g><g class="N"><use xlink:href="#Z" y="-90"/><use xlink:href="#a" y="-90"/><use xlink:href="#b" y="-90"/><use xlink:href="#c" y="-90"/><use xlink:href="#d" y="-90"/></g></g><g filter="url(#J)" transform="translate(29 9)"><path d="M1 0h294v296H1z" class="I Q"/><g transform="translate(13 193)"><use xlink:href="#e" fill="#65a9ff" class="E"/><g transform="translate(.758 2.546)"><use xlink:href="#f" transform="matrix(.956305 -.292372 .292372 .956305 -1.928328 3.320761)" class="L"/><g transform="translate(6.664 3.359)" fill="#f1f4f6"><use xlink:href="#g"/></g><g transform="translate(10.348 6.555)"><g transform="translate(2.98 .488)" class="B C D F"><path d="M.27 0c.133 1.284 1.084.862 1.084.004"/><path d="M.325.704L0 1.138"/><path d="M.813.867l-.217.704"/><path d="M1.084.758l.163.596"/></g><use xlink:href="#h" fill="#f3fff6" class="B C D H"/><g transform="translate(.163 .433)" class="B C D F"><path d="M.24.092c-.202.85 1 .958 1.223-.092"/><path d="M.38.704L0 .975"/><path d="M.783.758l-.037.488"/><path d="M1.138.704l.163.38"/></g><use xlink:href="#i" transform="matrix(.956305 .292372 -.292372 .956305 1.397205 -.443193)" class="Y"/></g></g></g><g transform="translate(13 252)"><use xlink:href="#j" class="E U"/><g transform="translate(5.701 3.475)"><g transform="translate(3.638 .217)" class="R"><use xlink:href="#k"/></g><g class="B C D J"><use xlink:href="#l"/><use xlink:href="#m"/><use xlink:href="#n"/><use xlink:href="#o"/></g><use xlink:href="#p" class="B C D F"/><g class="J B C D"><use xlink:href="#q"/><use xlink:href="#r"/><use xlink:href="#s"/><use xlink:href="#t"/></g><use xlink:href="#u" class="E V"/><g class="M"><use xlink:href="#v" transform="matrix(-1 0 0 1 12.325792 0)"/><use xlink:href="#v" x="1.574" transform="matrix(-1 0 0 1 15.475112 0)"/></g><g class="N"><use xlink:href="#w" transform="matrix(-1 0 0 1 3.855204 0)"/><use xlink:href="#x" transform="matrix(-1 0 0 1 7.438914 0)"/><use xlink:href="#y" transform="matrix(-1 0 0 1 12.434388 0)"/><use xlink:href="#z" transform="matrix(-1 0 0 1 17.484162 0)"/><use xlink:href="#AA" transform="matrix(-1 0 0 1 21.285066 0)"/></g></g></g><g transform="translate(0 8)"><g class="B Q b c"><path d="M.79 32.6l294.5.5"/><path d="M.79 153.85l294.5.5"/><path d="M.79 176.25l294.5.5"/><path d="M.79 237.25l294.5.5"/></g><path d="M24.762 0C18.15 0 12.79 5.36 12.79 11.973s5.36 11.973 11.973 11.973 11.973-5.36 11.973-11.973S31.374 0 24.762 0z" fill="#65a9ff" class="E"/><path d="M27.654 15.535c1.42 0 3.162-.09 5.23-.268l.536-2.633h-2.324l.18-3.838H18.402l-.08 2.128c-1.486-.414-2.23-.22-2.23.584s.665 1.283 1.996 1.438L18.536 15l9.118.535z" class="K"/><g class="M"><path d="M25.823 8.75c-.064 1.12.932 1.406 1.208.374.21-.787-.938-.862-1.3-.374"/><use xlink:href="#AB"/></g><path d="M31.596 7.48c.276 0-.05 2.46-.223 2.952-.22.626-.737.49-1.296.49a4.1 4.1 0 0 1-.466-.021 7.61 7.61 0 0 0-.86-.882l-.25-.207.062.363-.08-.126c-.34.855-1.02 1.097-1.85 1.097-1.914 0-2.678-1.458-2.37-3.666h7.333zm-3.803.996h-2.586l-.001.013c-.033.53.027.942.17 1.236l.085.15c.226.333.627.506 1.263.506.433 0 .73-.278.92-.96l.05-.206.037-.2.036-.282.025-.244zm3.07 0H28.95c.272 1.115.63 1.6 1.297 1.672l.188.01c.027 0 .04-.006.067-.03.054-.05.112-.152.167-.306.088-.25.15-.604.18-1.054l.016-.29z" class="E N"/><g class="B C D"><g class="F"><use xlink:href="#AC"/><path d="M26.836 12.6c1.053.78 2.22.88 3.375.643"/></g><g class="H"><path d="M27.963 14.605c.225.9.758 1.47 1.32 2.224"/><path d="M28.883 14.507c.616 1.947.48 1.117.618 2.448"/><path d="M29.65 14.647c.184 1.893.162 1.106.162 2.357"/><path d="M30.464 14.647l-.422 2.59"/><path d="M31.034 14.718c-.05.918-.293 1.65-.752 2.44"/><path d="M31.66 14.626c-.084.895-.34 1.757-.942 2.456"/><path d="M32.003 15.588c-.744.997-.834 1.303-1.947 1.564"/></g><path d="M26.91 12.275c-.067.18-.2.36-.425.37" class="F"/></g><g class="G"><rect x="48.789" y="12.6" width="58.8" height="7.2" rx="3.6"/><rect x="48.789" y="198" width="58.8" height="7.2" rx="3.6"/></g><g class="X"><rect x="13.789" y="51.6" width="264" height="7.2" rx="3.6"/><rect x="13.789" y="71.6" width="264" height="7.2" rx="3.6"/></g><g class="T"><rect x="48.789" y="2.6" width="69" height="7.2" rx="3.6"/><rect x="48.789" y="188" width="69" height="7.2" rx="3.6"/></g><g class="X"><rect x="13.789" y="41.6" width="264" height="7.2" rx="3.6"/><rect x="13.789" y="61.6" width="264" height="7.2" rx="3.6"/><rect x="13.789" y="91.6" width="225" height="7.2" rx="3.6"/><rect x="13.789" y="122.6" width="225" height="7.2" rx="3.6"/><rect x="49" y="211" width="225" height="7.2" rx="3.6"/><rect x="49" y="221" width="216" height="7.2" rx="3.6"/></g><rect x="49" y="244" width="203" height="36" rx="3.6" class="G S"/><g stroke="#000" class="B C"><path opacity=".276" d="M53 248v8"/><path opacity=".276" d="M323 538v8"/></g><g transform="translate(257 244)"><rect width="22" height="22" rx="11" class="G"/><path d="M16.833 6.007L4.53 8.758c-.28.06-.49.284-.524.554s.112.533.37.657l3.494 1.686.357 3.383a.66.66 0 0 0 .511.564c.278.067.572-.04.733-.264l.106-.103-.707-2.582a.87.87 0 0 1 .452-.832l3.036-1.71-2.427 2.228a.63.63 0 0 0-.191.613l1.107 4.543c.064.266.298.464.583.498s.56-.107.692-.35l5.78-10.728c.028-.04.05-.082.068-.127.06-.15.023-.38-.046-.538-.085-.195-.45-.277-1.1-.245z" class="I"/></g><rect x="13.789" y="81.6" width="254" height="7.2" rx="3.6" class="X"/><use xlink:href="#AD" class="W"/><g transform="translate(34.789 160.6)" class="G"><path d="M8.57 5.556C8.256 5.556 8 5.307 8 5s.256-.556.57-.556.57.25.57.556-.256.556-.57.556m-2.286 0c-.315 0-.57-.25-.57-.556s.256-.556.57-.556.57.25.57.556-.256.556-.57.556M4 5.556c-.315 0-.57-.25-.57-.556s.256-.556.57-.556.57.25.57.556-.256.556-.57.556M6.286 0C3.135 0 .57 2.243.57 5c0 .964.31 1.884.9 2.687L0 10h6.286C9.437 10 12 7.757 12 5S9.437 0 6.286 0"/></g></g><g transform="translate(0 302)"><path d="M1 0h294v218H1z" class="I Q"/><g transform="translate(13 7)"><use xlink:href="#e" class="E G"/><use xlink:href="#AE" class="K"/><g class="B C D H"><use xlink:href="#AF"/><use xlink:href="#AG"/><use xlink:href="#AH"/><use xlink:href="#AI"/><use xlink:href="#AJ"/><use xlink:href="#AK"/><use xlink:href="#AL"/><use xlink:href="#AM"/><use xlink:href="#AN"/><use xlink:href="#AO"/><use xlink:href="#AP"/><use xlink:href="#AQ"/><use xlink:href="#AR"/><use xlink:href="#AS"/><use xlink:href="#AT" class="K"/></g><g stroke="#ff5fa7" class="R B D"><use xlink:href="#AU"/><use xlink:href="#AV" transform="matrix(-.987688 .156434 .156434 .987688 28.745849 -2.262347)"/></g><g fill="#d41c61"><circle cx="7.383" cy="13.987" r="1"/><circle cx="15.485" cy="13.11" r="1"/></g><use xlink:href="#AW" class="L"/></g><g transform="translate(0 10)"><g class="B Q b c"><path d="M.79 30.6l294.5.5"/><path d="M.79 184l294.5.5"/></g><rect x="48.789" y="10.6" width="58.8" height="7.2" rx="3.6" class="G"/><rect x="48.789" y=".6" width="69" height="7.2" rx="3.6" class="T"/><use xlink:href="#AD" y="30.15" class="W"/><g transform="translate(34.789 190.6)" class="G"><path d="M8.57 5.706c-.315 0-.57-.25-.57-.556s.256-.556.57-.556.57.25.57.556-.256.556-.57.556m-2.286 0c-.315 0-.57-.25-.57-.556s.256-.556.57-.556.57.25.57.556-.256.556-.57.556M4 5.706c-.315 0-.57-.25-.57-.556s.256-.556.57-.556.57.25.57.556-.256.556-.57.556M6.286.15C3.135.15.57 2.393.57 5.15c0 .964.31 1.884.9 2.687L0 10.15h6.286c3.15 0 5.714-2.243 5.714-5s-2.563-5-5.714-5"/></g></g><g transform="translate(1 41)"><mask id="Ad" class="I"><use xlink:href="#K"/></mask><use fill="#0d62fe" xlink:href="#K"/><g style="mix-blend-mode:overlay" mask="url(#Ad)"><g transform="translate(-9)"><g opacity=".95" transform="translate(1)"><g fill="#2ac2ff"><path d="M301.325 50.38V.057H251.5l.005.592c.438 27.265 22.24 49.285 49.236 49.727l.585.005z"/><path d="M49.826 50.38V.057H0L.005.65c.438 27.265 22.24 49.285 49.236 49.727l.585.005z"/></g><path d="M301.325 51.53v50.324H251.5l.005-.592c.438-27.265 22.24-49.285 49.236-49.727l.585-.005z" fill="#00173a" transform="matrix(-1 0 0 -1 552.824206 153.3842)"/><path d="M251.498 101.854V51.53h-49.826l.005.592c.438 27.265 22.24 49.285 49.236 49.727l.585.005z" class="K"/><ellipse cx="226.586" cy="25.219" rx="24.913" ry="25.162" class="Z"/><ellipse cx="226.842" cy="127.194" rx="24.913" ry="25.162" class="W"/></g><g fill="#00173a"><path d="M301.79 102v50.324h-49.826l.005-.592c.438-27.265 22.24-49.285 49.236-49.727l.585-.005z"/><path d="M152.578 51.53v50.324H102.75l.005-.592c.438-27.265 22.24-49.285 49.236-49.727l.585-.005z"/></g><ellipse cx="177.444" cy="25.219" rx="24.913" ry="25.162" class="Z"/><ellipse fill="#ffa300" cx="177.444" cy="77.056" rx="24.913" ry="25.162"/><ellipse cx="177.444" cy="127.194" rx="24.913" ry="25.162" class="W"/><ellipse fill="#0d62fe" cx="24.913" cy="127.194" rx="24.913" ry="25.162"/><path d="M102 153v-51H50l.005.6c.457 27.632 23.2 49.947 51.384 50.395l.61.005z" class="Z"/><path d="M103 0v51H51l.005-.6C51.462 22.77 74.215.453 102.39.005L103 0z" class="W"/><circle cx="28" cy="77" r="25" class="T"/><g fill="#ffa300"><path d="M102 51V0h52l-.005.6c-.457 27.632-23.2 49.947-51.384 50.395L102 51z"/><path d="M102 51v51H50l.005-.6c.457-27.632 23.2-49.947 51.384-50.395L102 51z"/></g><ellipse fill="#ff7800" transform="matrix(1 0 0 -1 0 255)" cx="127" cy="127.5" rx="25" ry="25.5"/></g></g></g></g></g><g transform="translate(539 27)"><g filter="url(#L)"><g transform="translate(12 229.8)"><g transform="translate(0 .4)"><use xlink:href="#e" class="E P"/><g transform="translate(3.305 7.476)"><g transform="translate(0 .003)"><use xlink:href="#AX" class="K"/><g transform="translate(9.638 .964)" class="M"><use xlink:href="#AY"/><use xlink:href="#AB" x="-25.731" y="-8.443"/></g><use xlink:href="#AZ" class="E N"/><g class="B C D F"><use xlink:href="#AC" x="-16.094" y="-7.48"/><path d="M10.742 5.122c1.053.78 2.22.88 3.375.643"/></g><g class="H B C D"><path d="M11.87 7.126c.225.9.758 1.47 1.32 2.224"/><path d="M12.8 7.028c.616 1.947.48 1.117.618 2.448"/><path d="M13.556 7.168c.184 1.893.162 1.106.162 2.357"/><path d="M14.37 7.168l-.422 2.59"/><path d="M14.94 7.238c-.05.918-.293 1.65-.752 2.44"/><path d="M15.566 7.147c-.084.895-.34 1.757-.942 2.456"/><path d="M15.9 8.108c-.744.997-.834 1.303-1.947 1.564"/></g><path d="M10.818 4.796c-.067.18-.2.36-.425.37" class="B C D F"/></g></g></g></g><path d="M0 0h48v396H0z" class="I"/><g transform="translate(12 9.4)"><use xlink:href="#e" class="E P"/><g transform="translate(3.305 7.476)"><g transform="translate(0 .003)"><use xlink:href="#AX" class="K"/><g transform="translate(9.638 .964)" class="M"><use xlink:href="#AY"/><use xlink:href="#AB" x="-25.731" y="-8.443"/></g><use xlink:href="#AZ" class="E N"/><g class="B C D F"><use xlink:href="#AC" x="-16.094" y="-7.48"/><path d="M10.742 5.122c1.053.78 2.22.88 3.375.643"/></g><g class="H B C D"><path d="M11.87 7.126c.225.9.758 1.47 1.32 2.224"/><path d="M12.8 7.028c.616 1.947.48 1.117.618 2.448"/><path d="M13.556 7.168c.184 1.893.162 1.106.162 2.357"/><path d="M14.37 7.168l-.422 2.59"/><path d="M14.94 7.238c-.05.918-.293 1.65-.752 2.44"/><path d="M15.566 7.147c-.084.895-.34 1.757-.942 2.456"/><path d="M15.9 8.108c-.744.997-.834 1.303-1.947 1.564"/></g><path d="M10.818 4.796c-.067.18-.2.36-.425.37" class="B C D F"/></g></g></g><g transform="translate(12.6 97)"><use xlink:href="#e" class="E P"/><g transform="translate(.758 2.546)"><use xlink:href="#f" transform="matrix(.956305 -.292372 .292372 .956305 -1.928328 3.320761)" class="L"/><g transform="translate(6.664 3.359)" fill="#f1f4f6"><use xlink:href="#g"/></g><g transform="translate(10.348 6.555)"><g transform="translate(2.98 .488)" class="B C D F"><path d="M.27 0c.133 1.284 1.084.862 1.084.004"/><path d="M.325.704L0 1.138"/><path d="M.813.867l-.217.704"/><path d="M1.084.758l.163.596"/></g><use xlink:href="#h" fill="#f3fff6" class="B C D H"/><g transform="translate(.163 .433)" class="B C D F"><path d="M.24.092c-.202.85 1 .958 1.223-.092"/><path d="M.38.704L0 .975"/><path d="M.783.758l-.037.488"/><path d="M1.138.704l.163.38"/></g><use xlink:href="#i" transform="matrix(.956305 .292372 -.292372 .956305 1.397205 -.443193)" class="Y"/></g></g></g><g transform="translate(12.6 53.2)"><use xlink:href="#e" class="E P"/><use xlink:href="#AE" class="K"/><g class="B C D H"><use xlink:href="#AF"/><use xlink:href="#AG"/><use xlink:href="#AH"/><use xlink:href="#AI"/><use xlink:href="#AJ"/><use xlink:href="#AK"/><use xlink:href="#AL"/><use xlink:href="#AM"/><use xlink:href="#AN"/><use xlink:href="#AO"/><use xlink:href="#AP"/><use xlink:href="#AQ"/><use xlink:href="#AR"/><use xlink:href="#AS"/><use xlink:href="#AT" class="K"/></g><g stroke="#ff5fa7" class="R B D"><use xlink:href="#AU"/><use xlink:href="#AV" transform="matrix(-.987688 .156434 .156434 .987688 28.745849 -2.262347)"/></g><g fill="#d41c61"><circle cx="7.383" cy="13.987" r="1"/><circle cx="15.485" cy="13.11" r="1"/></g><use xlink:href="#AW" class="L"/></g><g transform="translate(12.6 140.8)"><use xlink:href="#j" class="E U"/><g transform="translate(5.701 3.475)"><g transform="translate(3.638 .217)" class="R"><use xlink:href="#k"/></g><g class="B C D J"><use xlink:href="#l"/><use xlink:href="#m"/><use xlink:href="#n"/><use xlink:href="#o"/></g><use xlink:href="#p" class="B C D F"/><g class="J B C D"><use xlink:href="#q"/><use xlink:href="#r"/><use xlink:href="#s"/><use xlink:href="#t"/></g><use xlink:href="#u" class="E V"/><g class="M"><use xlink:href="#v" transform="matrix(-1 0 0 1 12.325792 0)"/><use xlink:href="#v" x="1.574" transform="matrix(-1 0 0 1 15.475112 0)"/></g><g class="N"><use xlink:href="#w" transform="matrix(-1 0 0 1 3.855204 0)"/><use xlink:href="#x" transform="matrix(-1 0 0 1 7.438914 0)"/><use xlink:href="#y" transform="matrix(-1 0 0 1 12.434388 0)"/><use xlink:href="#z" transform="matrix(-1 0 0 1 17.484162 0)"/><use xlink:href="#AA" transform="matrix(-1 0 0 1 21.285066 0)"/></g></g></g><g transform="translate(13.2 184.6)"><use xlink:href="#Aa" class="E P"/><g transform="translate(1.216 5.18)"><path d="M8.758 1.656c-2.652 0-5.022.702-6.792 1.82-.717.452-1.286.95-1.614 1.403-.198.273-.318.54-.332.817-.024.47.28.857.742.954l.04.008c.302.057.746.08 1.783.106l.94.025 2.264.1.144.01.124.01c1.07.08 1.97.2 2.682.366l.05.012v4.15c.096.977 1.148 1.465 3.156 1.465s4.294-.566 6.857-1.7l-.356-3.076.025-.007c.366-.098.676-.235.93-.418a1.72 1.72 0 0 0 .742-1.439 1.33 1.33 0 0 0-1.034-1.362l-.025-.006c-.28-.07-.6-.076-.972-.028l-.043.006-.066-.573-.234-.186c-2.074-1.646-5.083-2.453-9.01-2.453z" class="E K"/><g class="B C D H"><path d="M6.934 2.536c1.03.06.867.083 1.602-.633"/><path d="M7.034 3.062c.81-.058.894-.367 1.45-1.047"/><path d="M8.837 1.976c.203.52.553.556 1.095.513"/><path d="M8.837 1.982c.12.91-.092.528.694 1.107"/></g><g stroke="#fff" class="B D"><path d="M7.44.315c.964-.883 1.46.3 1.355 1.047-.125.914-.87 1.62-1.57 2.12-.01.007-.62.42-.8.26-.433-.383-.26-1.246-.08-1.76S6.994.726 7.44.315z"/><g class="C"><path d="M8.717 2.23c.16-.488.266-1.106.7-1.453.936-.748 1.84-.5 1.582.787-.14.704-.728 1.537-1.242 2.027-.667.636-1.248-.233-1.148-.867.048-.307.165-.6.247-.9"/></g></g><g class="H B C D"><path d="M11.974 1.61c.22 1.286.342 2.27 1.202 3.287 1.26 1.5 4.058.866 5.227-.413"/><path d="M13.05 1.776c-.233 1.71-.092 3.642 2.07 3.934.15.02 1.147.074 1.515-.053.894-.308.93-.494 1.782-1.187"/><path d="M13.443 1.79c.755 1.564 2.77 5.198 4.787 2.834"/><path d="M14.444 1.976c.177.96.266 1.933.908 2.72.85 1.043 2.583.83 3.304-.187"/><path d="M14.938 2.15c.485 1.223 1.4 3.276 3.064 2.594"/><path d="M15.533 2.276c.402.636 1.233 2.252 2.063 2.42.323.065.66-.01.988-.013"/><path d="M8.456 7.723c.814-.286 1.47.303 2.303.153.403-.073.895-.51 1.188-.734"/></g></g><path d="M8.457 16.068l3.436 1.903 5.39-1.903-.317 4.017-5.074-1.533-4.334 1.533z" class="B D H L"/></g><g transform="translate(13.2 228.4)"><use xlink:href="#Aa" class="E L"/><g transform="translate(2.696 2.484)"><g transform="translate(0 3.066)"><path d="M5.613 5.55h-5.6C-.172 1.85 1.625 0 5.404 0h9.9l.176 4.29c1.283-.192 1.925.07 1.925.783s-.6 1.14-1.77 1.278l.343 6.61-10.376.198V9.666c2.07.01 3.405-.253 4.007-.787s.813-1.643.634-3.33h-4.64z" stroke="#ff243a" stroke-width="1.444" class="Y"/><g transform="translate(3.436 5.391)" stroke="#06f" class="B C D"><path d="M1.224.03c.05 1.066-.2 2.36-1.224 2.94"/><path d="M1.666.03C1.423 1.12 1.05 2.004.27 2.844"/><path d="M2.06.03C1.8 1.214 1.197 2.355.12 2.993"/><path d="M2.53.03C2.275.97 1.304 2.9.01 3.07"/><path d="M2.972.03c-.338 1.218-1.204 3-2.675 3"/><path d="M5.394 3.33c-.365.097-1.41-.874-1.784-1.427-.25-.37-.394-1-.436-1.863"/><path d="M3.53.03c.18 1.076.087 2.44 1.043 3.1"/><path d="M3.874 0c-.195.537.764 2.9 1.308 2.988"/><path d="M4.122.03c.402 1 .62 2.042 1.38 2.81"/><path d="M4.496.03c.472 1.1.57 2.177 1.51 2.903"/><path d="M3.266.03c.57 1.724.89 2.46 2.594 2.78"/></g></g><g transform="translate(4.532)" class="B D"><g class="H"><path d="M1.347 2.958c.59-.233 1.156-.55 1.774-.7.087-.02.094.156.112.243.046.22.09.443.077.666-.037.657-.22 1.483-.68 1.997-.6.673-1.205.1-1.362-.61-.16-.722-.087-.786.037-1.44l.042-.156z"/><path d="M5.605 2.307c.226.127.434.295.678.38.382.134.896-.01 1.184.275.224.222.063.63.046.944-.027.49-.2 1.536-.738 1.755-.874.358-1.448-.596-1.483-1.335-.014-.3-.024-.6.02-.896.047-.328.166-.64.25-.96l.046-.162z"/><g class="L"><use xlink:href="#Ab"/><use xlink:href="#Ab" x="4.44" y="0.264"/></g></g><g stroke="#06f" class="C"><path d="M5.98 2.198c.633-.534 1.216-1.343 1.9-1.6.56-.212-2.054 1.827-1.52 1.457l-.307.43C8.577.74 8.12.32 6.052 2.916c-.42.528.88-.95 1.34-1.357.268-.236 1.085-.862.837-.565-.625.748-1.31 1.315-1.978 1.932-.217.2-.907.643-.673.518.474-.254.94-.56 1.397-.906.478-.36 1.502-2.133 1.403-1.2-.068.636-2.305 1.888-2.63 2.122-.097.07-.365.36-.268.29L7.4 2.255c.228-.16.928-.55.708-.358l-.182.224c-1.852 1.628-3.143 2.526.105.107" transform="matrix(.615661 .788011 -.788011 .615661 4.36751 -4.620637)"/><path d="M.71.634c.626.277 2.365 1.004 2.348 1.505C3.02 3.277 1.612.97.96 1.084c-.027.005.003.09.028.105l.366.28 1.066.547c.178.102.687.49.518.358-.502-.39-1.924-1.704-1.52-1.137L.554.992c.434.607 1.058.877 1.603 1.275C4.108 3.692.865 1.016.552 1.434c-.052.07.098.152.162.2l1.35.928c.224.142.915.51.69.365-.4-.262-1.594-1.13-1.25-.723l-.844-.166c.294.347 1.947.923 2.364 1.08" transform="matrix(.71934 -.694658 .694658 .71934 -.798193 1.777087)"/></g></g></g></g><g style="mix-blend-mode:luminosity" transform="translate(13.2 272.2)" class="a"><use xlink:href="#Aa" class="E U"/><g transform="translate(1.85 5.127)"><path d="M2.555 1.11h14.21l.275 1.077.082.35.035.186c.053.325.107.857.164 1.596 1.508-.634 2.263-.21 2.263 1.267s-.754 1.98-2.263 1.505v5.663l-15.044.356V7.09C.637 7.485-.118 6.983.015 5.584S.9 3.762 2.277 4.317l.278-3.208zM4.54 3c-1.032 3.22-1.125 5.676-.278 7.366.54 1.075 5.1 1.36 8.058 1.07 1.133-.112 2.297-.468 3.493-1.07a14.86 14.86 0 0 0 .238-3.366c-.047-1.15-.22-2.3-.516-3.445-.715-.792-2.46-1.294-5.24-1.505S5.6 2.165 4.54 3z" class="L"/><g class="F B C D"><path d="M9.542 2.612l-2.375.24c.56.107 1.062-.077 1.607-.145.157-.02.377-.14.475-.015.08.1-.242.102-.34.187-.23.203-.4.464-.627.67-.146.132-.322.226-.483.338" transform="matrix(.882948 .469472 -.469472 .882948 2.504017 -3.541484)"/><g transform="translate(4.912 5.781)"><path d="M.5 3.323c.33-1.04 1.035-2.328 1.91-2.14.4.086.384-.092.68-.183.24-.073.22-.262.503-.306.043-.007-.09-.013-.13 0-.103.033-.12.103-.21.16-.154.095-.37.1-.502.223L.723 3.092c-.187.202.446-.326.642-.52.346-.34.638-.735.98-1.08.194-.196.4-.384.627-.54.167-.115.336-.122.526-.195.066-.025-.21.01-.15.05.1.07.448-.08.367.014-.6.693-1.735 1.4-2.408 2.132-.107.115-.364.506-.245.403l2.185-2.08a1.19 1.19 0 0 1 .274-.187c.133-.067.434-.307.418-.16-.02.188-.312.22-.44.36-.514.565-.364.652-.91 1.116l-1.276.987c-.07.064-.214.29-.123.26 1.056-.342 2-1.327 2.588-2.225.04-.063-.012-.166.036-.223.058-.068.315-.053.245-.108V.923c-.04-.03-.09.043-.137.065" transform="matrix(.882948 .469472 -.469472 .882948 1.286522 -.818911)"/><path d="M5.002 1.287c.63.976 1.43 1.952 2.725 2.016.117.006-.17-.166-.267-.23-.345-.227-.74-.38-1.06-.64-.397-.322-1.52-1.343-1.074-1.094.716.398 1.235 1.08 1.903 1.555.237.168.514.28.793.36.156.045-.288-.154-.418-.252l-1.34-1.08c-.312-.273-.552-.458-.804-.787-.137-.178.263.203.45.326.267.175.57.296.83.483.252.18.448.43.7.612.22.16.45.318.707.403.06.02-.013-.134-.05-.187a1.75 1.75 0 0 0-.339-.367L6.45 1.468c-.147-.098-.63-.313-.47-.245l1.14.526c.344.197.655.447.973.684.072.054.144.113.195.187.014.02-.052.006-.072-.007l-.52-.303-.887-.655c-.334-.215-.7-.375-1.038-.583-.054-.033-.367.068-.314.034.142-.093.703.23.8.275.862.395 1.36.373 2.167 1 .098.076.353.185.26.266-.15.13-.44-.105-.59.02-.158.132.878.38-.036.223-.12-.02-.252-.038-.353-.108-2.642-1.83-.888-.924-2.27-1.606" transform="matrix(.945519 -.325568 .325568 .945519 -.337728 2.350254)"/></g></g><g class="B C D"><g class="H"><path d="M8.724 5.86c-.32-.15-.667-.363-1.052-.243-.324.1-.297.765-.285.943.04.64.863.86 1.35.617"/><path d="M10.677 6.184c1.176-1.06 1.403.613.497 1.012-.32.14-.6.078-.933.053"/><path d="M9.306 3.81c.08 1.185.023-.496-.54 2.02-.218.97.586 2.512 1.45 1.388.458-.596.49-1.45.526-2.193.02-.416.126-1.278-.382-1.532-.412-.93-.512-1.222-.3-.88"/></g><path d="M10.64 2.716c.64-.02 1.284.035 1.917-.057.502-.073-1.014-.015-1.52-.001-.18.005-.492-.116-.533.057-.042.18.28.245.44.338.352.205.726.37 1.09.554" transform="matrix(.984808 -.173648 .173648 .984808 -.364993 2.057775)" class="F"/></g><path d="M8.31 0c.334 0 .674.024 1.018.072l.065.01c.136.02.244.126.267.262.102.62.143 1.25.124 1.894.1.065.208.05.356-.045-.016-.628.026-1.244.125-1.85.022-.132.124-.236.256-.26l.01-.002.065-.01C10.942.024 11.28 0 11.615 0h.08l2.663.107c.142.007.266.097.316.23l.004.01.013.04c.2.594.3 1.257.3 1.99 0 .7-.093 1.31-.28 1.827-.066.184-.237.308-.432.315h-.012l-.19.002c-.376.002-.712.001-1.007-.004l-.17-.003-2.1-.001c-.227.001-.423-.158-.47-.38l-.002-.012-.01-.06-.128-.96c-.152-.164-.31-.176-.47-.038-.044.397-.1.793-.2 1.188l-.015.067c-.05.21-.232.36-.446.367l-.95.034-1.084.032-.14.003-1.06.003-.096-.001c-.2-.002-.376-.127-.443-.313-.236-.65-.354-1.338-.354-2.066 0-.733.1-1.397.3-1.99l.013-.04c.047-.138.174-.233.32-.24l.45-.022L8.31 0zm-.397.396L7.85.398 6.18.55l-.117.014c-.074.01-.132.068-.14.142l-.01.097c-.145 1.575-.1 2.666.133 3.275.104.27 1.122.3 3.056.12l.017-.147.138-1.945V2.09c-.014-.434-.065-.972-.155-1.613A5.39 5.39 0 0 0 7.914.396zm3.652 0l-.043-.001c-.416-.012-.65.015-.702.08l-.012.087-.143 1.527-.001.04c-.01.434.04 1.07.146 1.91 2.013.112 3.072.033 3.176-.238.238-.62.245-1.653.022-3.1-.01-.072-.07-.127-.142-.134l-.352-.032-1.948-.14z" class="Y"/><path d="M8.177 8.817c.794.647 2.226.162 2.76.215.028.003.024.07 0 .085l-.18.18a1.19 1.19 0 0 1-.386.15c-.208.036-.5-.136-.63.028-.1.123.27.177.368.3.34.43-.605.353-.688.357" class="B C D H"/></g></g><g style="mix-blend-mode:luminosity" transform="translate(13.2 316)" class="a"><use xlink:href="#Aa" class="E P"/><g transform="translate(6.131 4.704)"><g transform="translate(0 3.594)"><path d="M.858 1.908c1.4-1.745 4.03-1.98 6.23-1.892s2.942.61 4.043 2.302.856 3.008.23 4.256C9.89 9.498 2.96 10.4.666 7.647-.555 6.18.21 3.837.563 2.33l.295-.42z" fill="#ff7800"/><g class="B C D J"><path d="M5.906.93C6.31 1.918 7.45 1.257 7 .557"/><path d="M4.87.08c.794.403 1.306 1.112 1.968 1.727L7.9 2.863c.098.11.288.24.23.373-.052.123-1.298.216-1.407.017-.057-.103-.073-.462-.07-.345.035 1.08.472 2.208.213 3.083-.14.468-2.076.148-1.996.427.168.592.847.638 2.037.14.118.24.05.53.035.796l-.173 1.8"/><path d="M3.916 1.333c-.085.67.833 1.093 1.43.6.4-.33.184-.762.178-1.217"/></g></g><path d="M4.152 2.564c-.287-.555-.428-1.255-.06-1.836C4.645-.142 5.82-.336 6.275.72c.353.82-.5 1.834-.476 1.936.133.58 2.025-1.75 1.66-.503-.455 1.555-3.034 1.818-4.163.946s-.065-.86.623-.538l.234.002z" class="L"/></g></g><g style="mix-blend-mode:luminosity" transform="translate(13.2 359.8)" class="a"><use xlink:href="#Aa" class="E T"/><g transform="translate(4.44 5.497)"><path d="M3.35.926l10.267.715c.15.6.223 1.746.218 3.467l.026-.016c.134-.083.244-.136.47-.185l.03-.006c.294-.06.927-.135 1.172-.072.667.173.978 1.02.593 1.588-.486.718-1.495 1.196-2.333.945l-.008.253-.168 3.76c-3.515.503-8.047.503-13.597 0-.183-3.46.903-6.9 3.258-10.345L3.35.926z" class="V"/><g class="L"><g class="E"><g transform="translate(2.484)"><path d="M.193.08a.14.14 0 0 1 .138.143L.33.24.326.3.315.454.3.518V.84c.004.228.04.393.103.475.27.345.73.693 1.186.876.524.21.984.2 1.31-.097a.14.14 0 1 1 .185.212c-.42.367-.988.393-1.602.147-.5-.2-1.003-.58-1.303-.964C.07 1.346.023 1.13.018.846A4.1 4.1 0 0 1 .032.467L.044.303.05.24V.22A.14.14 0 0 1 .193.081z"/><path d="M.993.16a.14.14 0 0 1 .18.084c.315.87.587 1.268 1.164 1.557l.08.04.122.057c.11.05.21.085.302.11.186.047.314.034.383-.038l.007-.007a.14.14 0 1 1 .214.183c-.153.18-.388.208-.673.135-.1-.025-.202-.062-.3-.11l-.037-.016-.194-.093-.018-.01C1.555 1.723 1.246 1.27.91.34a.14.14 0 0 1 .084-.18z"/><path d="M2.072.02a.14.14 0 0 1 .168.106l.015.068c.115.498.212.797.362 1.06.197.346.46.55.827.6a.14.14 0 0 1-.045.278c-.458-.075-.8-.333-1.026-.748-.175-.307-.28-.64-.407-1.206a.14.14 0 0 1 .106-.168z"/><path d="M3.053.463l.045-.24a.14.14 0 0 1 .159-.109.14.14 0 0 1 .119.152l-.001.01-.066.367L3.28.82 3.274.86c-.03.217-.04.383-.025.463.148.844.957 1.38 1.806 1.194a1.44 1.44 0 0 0 .682-.343l.034-.03.346-.308a.14.14 0 1 1 .184.213l-.023.02-.36.32c-.253.213-.475.33-.802.403-1.005.22-1.968-.418-2.144-1.42-.02-.118-.01-.303.024-.55l.027-.18.008-.047.023-.133z"/><path d="M3.898.354a.14.14 0 0 1 .141.141L4.04.65c.002.12.008.14.032.192l.005.01.332.597.028.053c.437.818.92.9 1.675.352a.14.14 0 0 1 .165.228c-.88.64-1.553.53-2.072-.418l-.067-.123-.32-.58-.008-.02c-.048-.11-.05-.148-.05-.446a.14.14 0 0 1 .141-.141z"/><path d="M4.692.353a.14.14 0 0 1 .176.093c.256.827.637 1.267 1.327 1.43a.14.14 0 0 1-.065.274c-.8-.2-1.248-.708-1.53-1.62a.14.14 0 0 1 .093-.176z"/><path d="M5.973.268c.078-.001.142.06.143.138v.036L6.112.61 6.1.857c-.01.26-.006.39.027.54.14.642.602.998 1.25 1.05a2.31 2.31 0 0 0 1.684-.575.14.14 0 1 1 .193.204 2.59 2.59 0 0 1-1.9.651c-.767-.06-1.335-.5-1.504-1.27-.04-.184-.046-.333-.032-.63l.01-.223.003-.19c-.001-.078.06-.142.138-.143z"/><path d="M6.9.23c.078.001.14.065.138.143l-.001.02a1.22 1.22 0 0 1-.014.136L7.01.56c-.022.145-.023.202 0 .253a3.64 3.64 0 0 0 .676 1.013c.34.348.68.5 1 .4.073-.02.13-.055.25-.145l.07-.054.126-.09a.14.14 0 1 1 .15.238L9.26 2.2l-.076.054-.083.063c-.145.1-.224.157-.34.2-.437.122-.87-.07-1.276-.484-.3-.306-.57-.73-.733-1.097C6.702.813 6.7.724 6.728.54l.01-.073.01-.1C6.75.3 6.813.228 6.9.23z"/><path d="M7.758.28a.14.14 0 0 1 .166.11l.06.292.013.06.01.047c.173.758.36.925 1.2 1.007a.14.14 0 1 1-.028.28l-.058-.006c-.91-.1-1.182-.362-1.377-1.214l-.03-.133-.057-.277a.14.14 0 0 1 .11-.166z"/><path d="M9.068.34a.14.14 0 0 1 .146.135l.002.068.002.153V.98l.01.45v.016c.048.776.27 1.185.803 1.24.303.03.607.024 1.066-.016.156-.013.262-.055.4-.143l.018-.012.286-.218a.14.14 0 1 1 .165.227l-.045.034-.237.18-.006.005a1.02 1.02 0 0 1-.547.206l-.082.007c-.43.035-.73.04-1.037.01-.383-.04-.656-.23-.827-.543-.13-.24-.2-.543-.225-.923v-.037l-.012-.435V.665l-.004-.18a.14.14 0 0 1 .135-.146z"/><path d="M9.78.323a.14.14 0 0 1 .146.135L9.927.5l.004.197.002.4c.004.448.02.666.074.916.077.355.227.637.482.875.34.316 1.305-.055 1.324-.48v-.013a.14.14 0 1 1 .281 0c0 .682-1.28 1.18-1.798.698-.3-.28-.476-.613-.565-1.02l-.007-.034c-.056-.27-.07-.5-.074-.995L9.65.772V.68L9.644.47a.14.14 0 0 1 .135-.146z"/><path d="M10.34.998a.14.14 0 0 1 .153-.127.14.14 0 0 1 .127.144v.01c-.025.267.16.935.412 1.385.3.536.594.68.894.38a.14.14 0 1 1 .199.199c-.245.245-.515.302-.775.175-.208-.102-.397-.318-.564-.617-.277-.496-.478-1.218-.447-1.55z"/></g><path d="M6.625 2.793l.023-.01c.063-.03.107-.038.167-.01.068.032.094.097.087.16-.003.03-.013.057-.028.087a.79.79 0 0 1-.208.236l-.023.02.007.004a.14.14 0 0 1 .059.133l-.001.01c-.002.012-.005.022-.01.03v.002-.001l.038.003.014.004c.036.01.04.017.086.075l.008.038c.006.027.006.037.001.053l-.002.005.007.003a.14.14 0 0 1 .072.062l.004.008c.032.067.006.147-.058.183l-.395.193-.702.328-.225.1-.055.024c-.408.175-.744.3-.992.365-.152.04-.27.056-.362.045-.147-.017-.246-.115-.224-.265a.52.52 0 0 1 .295-.409l.02-.01.001-.005.014-.043.012-.02c.01-.016.014-.018.026-.028l.015-.01.028-.013c.01-.004.02-.006.048-.01l.05-.008.183-.02.048-.004.016-.002.086-.013.06-.01-.02.001c-.295.014-.545-.018-.663-.118l-.01-.008c-.088-.082-.13-.178-.058-.276.044-.06.106-.083.196-.094l.015-.002c.1-.01.203-.007.464.008l.172.01c.203.01.315.012.395.001a1.91 1.91 0 0 0 .425-.129l.015-.006-.04.005-.57.04-.357.015-.33.02a.14.14 0 1 1-.022-.28l.07-.005.213-.012.407-.018c.426-.02.64-.04.894-.087.046-.01.126-.048.236-.114L6.29 3l.064-.04.14-.09.03-.02.103-.06zM5.048 4.415l-.073.003c-.51.023-.705.077-.76.242l-.001.003h.002c.048-.002.118-.013.205-.035l.02-.005a5.1 5.1 0 0 0 .548-.185l.06-.024z"/></g><path d="M5.134 4.736c.654.398.35.78.1 1.607-.28.93-.605-.214-.646-.53-.12-.896.064-1.255.548-1.078z"/><g class="E"><path d="M7.54 3.156l.137.012.572.046.044.004c.08.008.114.016.158.037l.007.003.02.01c.055.027.086.04.165.067l.046.015c.192.063.495.146.94.255l.032.008c.074.018.197.034.4.052l.322.03.068.007c.078.01.128.017.163.027.026.008.047.017.07.035.062.052.073.147.013.212-.034.037-.067.048-.132.06-.33.07-.9.075-1.434.025l-.027-.003.001.001.29.18.037.02a1.02 1.02 0 0 0 .205.062l.032.007.233.047.02.004.023.006c.025.007.04.01.057.024l.016.01c.018.014.02.02.047.08l-.002.033c-.005.057-.01.07-.036.095L10 4.642l-.002.001.093.023.053.015.003.001a.29.29 0 0 1 .045.021c.035.02.06.044.074.092.006.02.008.04.006.058v.007l.004.003.01.01c.065.07.05.178-.03.23-.5.337-1.088.367-1.72.15-.468-.16-.912-.424-1.476-.835a.14.14 0 1 1 .166-.227l.073.053c.508.366.913.602 1.328.743.427.146.814.165 1.165.038l.02-.008-.03-.006-.25-.054-.035-.008-.016-.001c-.292-.028-.5-.058-.703-.11l-.024-.006c-.303-.078-.57-.172-.81-.292a.85.85 0 0 1-.19-.132l-.036-.03-.033-.013-.45-.186-.058-.025a.24.24 0 0 1-.034-.018c-.034-.02-.057-.044-.068-.095s.007-.1.043-.134c.02-.018.04-.027.06-.033s.03-.006.047-.006a.72.72 0 0 1 .123.014l.152.033.007.002h0c-.02-.045-.032-.09-.038-.14l-.001-.013c-.007-.075.028-.126.078-.157l.002-.001-.006-.006-.008-.01c-.032-.04-.047-.096-.022-.15l.002-.003-.005-.001c-.07-.01-.12-.072-.12-.142v-.01a.14.14 0 0 1 .152-.128zm.383.82l.006.005c.145.104.37.207.668.306l.014.005-.033-.014-.056-.025-.063-.028-.536-.248zm.313-.48l.005.002c.116.05.23.116.35.197l.02.014.03.006.525.07.024.002-.136-.036-.4-.115-.05-.016-.038-.013-.138-.05-.012-.005-.04-.018-.017-.008-.03-.015c-.01-.004-.02-.006-.062-.01l-.03-.003z"/><path d="M7.188 4.51a.14.14 0 0 1 .198.015c.048.056.044.14-.008.192l-.007.007c-.03.025-.053.084-.06.16-.03.264-.033.52-.008.76.083.787.747 1.43 1.422 1.24.163-.046.437-.368.705-.822.108-.184.21-.377.285-.546l.016-.036c.068-.155.108-.277.1-.316V5.16a.14.14 0 1 1 .281-.007c.004.164-.187.603-.436 1.03l-.013.022c-.306.518-.6.876-.87.95-.87.245-1.68-.54-1.778-1.482-.028-.262-.024-.537.008-.82a.51.51 0 0 1 .157-.341z"/><path d="M4.92 3.97c.112-.06.227-.01.318.074a.14.14 0 0 1 .006.199c-.05.054-.135.06-.192.013l-.024-.02c-.02.02-.034.04-.048.068l-.024.057c-.088.25-.15.498-.178.74-.054.442.1.943.394 1.243a.14.14 0 1 1-.201.197c-.355-.363-.536-.95-.472-1.474.032-.262.097-.53.192-.798.047-.133.12-.24.23-.297z"/><path d="M6.706 3.755a.14.14 0 1 1 .257.114l-.02.044c-.22.5-.465.855-1.015 1.58l-.144.2c-.426.563-.63.863-.822 1.228l-.244.474-.08.158-.11.235a2.91 2.91 0 0 0-.196.54c-.015.07-.02.126-.015.162.001.01.003.017.005.022v.001l.016.01c.648.342 1.89-.195 2.35-.923l.014-.022c.13-.213.333-.237.544-.12.07.04.14.09.218.16l.026.024.18.163A2.65 2.65 0 0 1 8.7 9.752c.045.655-.102 1.38-.414 2.215a.14.14 0 1 1-.263-.099c.64-1.71.562-2.95-.494-3.828l-.032-.026c-.036-.03-.185-.168-.196-.178-.074-.066-.134-.112-.188-.142-.088-.05-.123-.047-.162.013l-.005.007c-.234.384-.702.76-1.218.983-.572.248-1.132.283-1.545.05-.15-.085-.174-.256-.124-.487.035-.162.108-.36.215-.597l.094-.2.04-.08.286-.558c.213-.415.43-.733.913-1.368l.146-.192c.52-.69.746-1.034.955-1.507z"/><path d="M5.898 8.37a.14.14 0 0 1 .162.116c.094.562.103 1.096.043 1.695l-.09.68-.015.097-.026.157-.133.777-.044.27a.14.14 0 0 1-.278-.044l.018-.114.026-.16.038-.224.08-.454.035-.21.007-.043.103-.758c.057-.576.048-1.085-.04-1.62a.14.14 0 0 1 .116-.162z"/><path d="M8.43 9.596a.14.14 0 0 1 .136.246l-.067.037c-1.1.593-1.68.62-2.77.1a.14.14 0 0 1 .121-.254l.06.03c.986.46 1.483.417 2.52-.158z"/></g><path d="M7.28 4.577c.654.398 1.052 1.06.802 1.887-.28.93-.95-.335-.993-.65-.178-1.343.14-.408.14-1.07"/></g></g></g></g><g class="W"><circle cx="34.5" cy="11.5" r="4.5"/><circle cx="34.5" cy="56.5" r="4.5"/><circle cx="34.5" cy="144.5" r="4.5"/></g></g><rect opacity=".232" x="432" y="180" width="31" height="7" rx="3.5" class="G"/><use fill="#000" filter="url(#I)" xlink:href="#M"/><use xlink:href="#M" class="I"/><g class="E"><use xlink:href="#N" x="351" y="194" class="P"/><path d="M375.5 204c-10.77 0-19.5 8.73-19.5 19.5s8.73 19.5 19.5 19.5 19.5-8.73 19.5-19.5-8.73-19.5-19.5-19.5z" class="U"/></g><path d="M384.757 211.657c-.48 10.435-12.154 14.304-4.693 21.104 1.783 1.625-9.777 1.648-8.784 0 5.295-8.793-.24-10.67-.12-20.166.014-1.12.177-2.17.466-3.135 5.81-.16 10.068-.014 12.77.44.215.036.335.622.36 1.76z" class="R"/><g class="B C D"><path d="M386.318 210.43c-.64 2.703-1.856 5.475-2.1 8.252-.17 2.013-.076 4.038-.114 6.057m1.47-14.4c-1.434 3.512-2 6.67-2.126 10.465-.106 2.98-.413 2.253.198 3.486m-.001-11.803c-1.346 5.408-1.408 7.155-.466 12.7m-.086.625c-3.34-2.92-1.94-8.017-1.046-11.626" class="J"/><path d="M376.628 211.594c.203.976.148 1.63-.166 1.963-1.666 1.766-2.315 2.446-4.188 4.96-.026.034-.018.125.026.125.208.002.44-.005.61-.12 1.202-.8 2.13-2.017 3.462-2.594 1.79-.777-2.457 1.908-1.428 2.432.42.214 7.764-.77 5.39-.308s-5.9 1.1-5.604 1.476c1.235 1.57 1.546 2.286 1.235 3.69" class="F"/><path d="M372.167 213.472c-1.078 2.8-2.522 9.587-6.77 10.373-.054.01-.082-.07-.123-.106m6.25-12.145c-.976 4.7-2.42 8.874-6.432 11.626m5.88-13.415c-1.247 4.387-1.877 9.157-5.697 12.163m4.4-11.984c-1.152 4.705-1.28 7.8-4.686 11.1" class="J"/></g><path d="M370.864 209.04c-.52 0 .313 3.127.64 3.85.276.61 1.038.922 2.284.933 1.38.04 2.338-.265 2.877-.92l.082-.103c.64 1.25 1.93 1.606 3.494 1.606 3.618 0 5.06-2.134 4.482-5.366h-13.86zm6.386 1.194l6.153-.084.002.022c.082 1.03-.102 1.797-.515 2.305l-.043.05c-.494.566-1.416.86-2.8.86-.955 0-2.068-.363-2.55-1.522l-.112-.328c-.054-.197-.05-.51-.08-.883l-.045-.42zm-5.413.1h4.464l-.007.64c-.036 1.437-.35 2.08-2.966 2.132l-.488.005c-.063 0-.096-.01-.155-.05-.125-.084-.262-.25-.388-.505-.205-.415-.348-.997-.423-1.74l-.037-.48z" class="E V"/><g class="M"><use xlink:href="#Ac"/><use xlink:href="#Ac" x="2.665"/></g><path d="M369.238 234.638c-.6.84-3.065.623-1.74-1.08s2.33.24 1.74 1.08zm2.892 1.44c-.607.8-2.82.295-1.457-1.35s2.064.538 1.457 1.35zm4.22.484c-.613.842-2.82.46-1.44-1.246s2.053.404 1.44 1.246zm4.403-.522c-.624.83-2.746.397-1.84-1.066s2.464.237 1.84 1.066zm3.143-.988c-.592.82-2.427.427-1.747-1.054s2.34.234 1.747 1.054z" class="N"/><rect x="398.385" y="221.746" width="42" height="6.318" rx="3.159" class="G"/><g class="X"><rect x="398.5" y="233.539" width="19.5" height="6.318" rx="3.159"/><rect x="398.5" y="243.539" width="19.5" height="6.318" rx="3.159"/><rect x="422" y="233.5" width="37" height="6.318" rx="3.159"/><rect x="421.5" y="243.5" width="45.5" height="6.318" rx="3.159"/></g><rect x="398.385" y="211.742" width="69" height="6.318" rx="3.159" class="T"/></g></svg>