<svg xmlns="http://www.w3.org/2000/svg" width="1117" height="951" fill="none" fill-rule="evenodd" xmlns:v="https://vecta.io/nano"><g transform="matrix(-1 0 0 1 1117 0)"><path d="M48.106 309.5c78.418-98.09 225.87-111.29 349.112-106.366s164.896 34.343 226.618 129.365 47.96 169.083 12.812 239.242c-82.354 164.393-470.78 215.024-599.29 60.366C-31.13 549.684 11.7 417.95 31.57 333.137L48.106 309.5z" fill="#ff8100"/><g stroke="#ffc415" stroke-width="18.85" stroke-linecap="round" stroke-linejoin="round"><path d="M404.896 279.007c22.683 55.53 86.516 18.34 61.3-21.007m-152.473-42c44.478 22.63 73.222 62.517 110.283 97.065 20.503 19.113 40.74 38.583 59.48 59.37 5.512 6.115 16.125 13.415 12.927 20.954-2.938 6.924-72.73 12.16-78.866.95-3.172-5.796-4.093-25.946-3.88-19.37 1.962 60.697 26.458 124.102 11.952 173.294-7.765 26.332-116.34 8.32-111.903 24.006 9.404 33.254 47.46 35.85 114.17 7.8 6.6 13.46 2.735 29.853 1.94 44.77-1.794 33.65-6.462 67.1-9.693 100.637"/><path d="M286.363 292.683c-4.767 37.637 46.663 61.42 80.08 33.7 22.455-18.627 10.326-42.808 9.965-68.382"/></g><path d="M416.818 121.61c-25.448 87.082-169.5 101.827-232.6 52.99s-3.63-48.242 34.8-30.15l.602.008c29.542 21.658 67.315 25.088 113.32 10.29 1.108-.255 2.3-.654 3.567-1.175L341 152l-.364-.404c30.992-16.652 92.12-84.52 76.182-29.987zm-66.146-80.266c17.053 39.748-16.288 87.603-24.753 103.5-26.974 6.364-60.024 2.51-99.15-11.57-12.2-28.94-16.193-62.85 1.972-91.54 30.886-48.78 96.525-59.61 121.93-.393z" fill="#001c6c"/></g><path d="M558.553 567.703c-70.822-90.278-203.992-102.425-315.295-97.894S94.336 501.416 38.593 588.87-4.72 744.486 27.022 809.057c15.885 32.313 44.377 59.85 80.5 81.792 19.173 11.646 47.904 26.57-33.092 50.63s142.608-5.66 167.095-.827c122.62 24.207 261.622 3.82 326.738-76.038 61.853-75.857 23.172-197.1 5.227-275.157l-14.935-21.755z" fill="#0d62fe"/><path d="M161 220.844c40.427-25.45 55.777-38.31 103.168-53.752C327.65 146.41 394.296 141.876 460.14 136" stroke="#001c6c" stroke-width="52.322" stroke-linecap="round" stroke-linejoin="round" transform="matrix(-.992546 .121869 .121869 .992546 597.080802 362.480974)"/><path d="M313.04 399.21c40.562-1.292 77.67 3.004 113.327 22.842l1.198.67c9.8 5.522 20.026 12.223 26.336 21.778l3.922 5.906c7.032 10.626 18.807 28.86 21.02 37.2 5.718 21.56 3.23 50.766-3.93 72.338l-.595 1.774-1.527 4.653c-3.074 9.29-8.34 24.12-15.364 31.722l-4.507-2.158c-35.306-16.958-53.244-26.74-97.674-35.415-43.742-8.54-88.007-9.764-132.257-8.982l-.926-2.746c-2.435-7.562-2.19-22.048-1.846-30.597l.108-2.464.14-2.896c.37-7.713 1.81-15.342 2.395-23.042.215-2.84-.772-5.8 0-8.543 9.897-35.167 29.728-55.282 60.322-70.46l1.482-.73c9.185-4.567 17.673-10.5 28.377-10.85z" fill="#ffa300"/></svg>