<svg xmlns="http://www.w3.org/2000/svg" xmlns:xlink="http://www.w3.org/1999/xlink" width="600" height="600" xmlns:v="https://vecta.io/nano"><style><![CDATA[.B{stroke-linejoin:round}.C{stroke-linecap:round}.D{stroke-width:.5}.E{fill-rule:nonzero}.F{fill:#fff}.G{fill:#000}.H{fill:#ff9d00}.I{stroke:#fff}.J{fill:#f2f4f6}.K{filter:url(#B)}.L{stroke:#212121}.M{fill:#00c15a}.N{stroke-width:3.161}.O{fill:#0064ff}.P{fill:#ff0034}.Q{fill:#06f}.R{stroke:#001d75}.S{fill:#f4f2ee}.T{fill:#001d75}.U{fill:#001d71}.V{stroke-opacity:.668}.W{mask:url(#AW)}.X{mask:url(#AX)}.Y{fill:#212121}.Z{fill:#ff0025}.a{fill:#ff5fa7}.b{stroke:#ffc200}.c{fill:#00173a}.d{fill:#005b11}.e{fill:#ff7800}.f{mask:url(#AY)}]]></style><defs><path id="A" d="M0 0h270v33.5H0z"/><filter x="-5.2%" y="-29.9%" width="110.4%" height="183.6%" id="B"><feOffset dy="4" in="SourceAlpha"/><feGaussianBlur stdDeviation="4"/><feColorMatrix values="0 0 0 0 0 0 0 0 0 0.164542109 0 0 0 0 0.362271488 0 0 0 0.1 0"/></filter><filter x="-10.4%" y="-16.2%" width="120.8%" height="132.4%" id="C"><feOffset dy="8" in="SourceAlpha"/><feGaussianBlur stdDeviation="8"/><feColorMatrix values="0 0 0 0 0 0 0 0 0 0.164542109 0 0 0 0 0.362271488 0 0 0 0.1 0" result="C"/><feMerge><feMergeNode in="C"/><feMergeNode in="SourceGraphic"/></feMerge></filter><path id="D" d="M0 0h441.69v261.377H0z"/><filter x="-70.6%" y="-52.9%" width="241.2%" height="205.9%" id="E"><feOffset dy="24" in="SourceAlpha"/><feGaussianBlur stdDeviation="16"/><feColorMatrix values="0 0 0 0 0 0 0 0 0 0.164542109 0 0 0 0 0.362271488 0 0 0 0.1 0" result="C"/><feMerge><feMergeNode in="C"/><feMergeNode in="SourceGraphic"/></feMerge></filter><path d="M146.762 0a5 5 0 0 1 5 5v193.515a5 5 0 0 1-5 5h-141a5 5 0 0 1-5-5V5a5 5 0 0 1 5-5h141zM97.4 3.893H55.124c-1.505 0-2.725 1.22-2.725 2.725s1.22 2.725 2.725 2.725H97.4c1.505 0 2.725-1.22 2.725-2.725s-1.22-2.725-2.725-2.725z" id="F"/><filter x="-95.6%" y="-52.7%" width="291.2%" height="205.4%" id="G"><feOffset dy="24" in="SourceAlpha"/><feGaussianBlur stdDeviation="16"/><feColorMatrix values="0 0 0 0 0 0 0 0 0 0.164542109 0 0 0 0 0.362271488 0 0 0 0.1 0" result="C"/><feMerge><feMergeNode in="C"/><feMergeNode in="SourceGraphic"/></feMerge></filter><rect id="H" width="103" height="194.536" rx="5"/><path id="I" d="M0 0h194v152H0z"/><filter x="-7.2%" y="-6.6%" width="114.4%" height="118.4%" id="J"><feOffset dy="4" in="SourceAlpha"/><feGaussianBlur stdDeviation="4"/><feColorMatrix values="0 0 0 0 0 0 0 0 0 0.164542109 0 0 0 0 0.362271488 0 0 0 0.1 0"/></filter><path d="M35.985.338c-19.882 0-36 16.118-36 36s16.118 36 36 36 36-16.118 36-36-16.118-36-36-36zm-.5 13c12.426 0 22.5 10.074 22.5 22.5s-10.074 22.5-22.5 22.5-22.5-10.074-22.5-22.5 10.074-22.5 22.5-22.5z" id="K"/><path id="L" d="M19.977 7A9.98 9.98 0 0 0 10 16.977a9.98 9.98 0 0 0 9.977 9.977 9.98 9.98 0 0 0 9.977-9.977A9.98 9.98 0 0 0 19.977 7z"/><path id="M" d="M22.388 19.946c1.183 0 2.635-.074 4.358-.223l.447-2.194h-1.937l.15-3.198H14.678l-.066 1.774c-1.24-.345-1.858-.183-1.858.486s.554 1.07 1.663 1.198l.372 1.71 7.598.446z"/><path id="N" d="M20.86 14.29c-.053.934.777 1.172 1.007.312.176-.656-.78-.718-1.083-.312"/><path id="O" d="M23.988 14.142c.016.2.004.402.05.596.193.843 1.246.025.687-.68"/><path id="P" d="M25.673 13.233c.23 0-.042 2.05-.186 2.46-.183.522-.614.41-1.08.41-.15 0-.276-.005-.388-.018-.193-.235-.444-.497-.717-.735l-.208-.173.052.302-.066-.105c-.282.712-.85.914-1.54.914-1.595 0-2.23-1.215-1.976-3.055h6.1zm-3.17.83H20.35l-.001.01c-.027.442.023.785.14 1.03l.07.124c.188.277.522.422 1.052.422.36 0 .61-.232.767-.8l.043-.172.03-.175.03-.235.02-.204zm2.56 0h-1.596c.227.93.526 1.333 1.08 1.393l.156.008c.023 0 .034-.005.056-.025a.67.67 0 0 0 .139-.255c.073-.21.125-.503.15-.878l.013-.243z"/><path id="Q" d="M23.342 15.624c.75.59 1.413 1.453 1.3 1.595-.15.186-.688.224-.82.15-.106-.06-.058.022-.058.715"/><path id="R" d="M21.706 17.5c.877.65 1.85.733 2.812.536"/><path id="S" d="M22.645 19.17c.188.75.63 1.225 1.1 1.853"/><path id="T" d="M24.05 19.206c.153 1.578.135.922.135 1.964"/><path id="U" d="M25.204 19.265c-.042.765-.244 1.375-.627 2.034"/><path id="V" d="M25.725 19.19c-.07.746-.283 1.464-.785 2.046"/><path id="W" d="M26.012 20c-.62.83-.695 1.085-1.622 1.304"/><path id="X" d="M245 16.236c4.86 6.973 1.728 3.63 14.767-6.736"/><path id="Y" d="M245.722 20.453c.87-.075 1.96-2.594 7-7"/><path id="Z" d="M252.722 20.453c-.87-.075-1.96-2.594-7-7"/><path id="a" d="M9.977 0A9.98 9.98 0 0 0 0 9.977a9.98 9.98 0 0 0 9.977 9.977 9.98 9.98 0 0 0 9.977-9.977A9.98 9.98 0 0 0 9.977 0z"/><path id="b" d="M12.817 7.42c2.297 1.433 3.9 4.405 4.84 8.918C15.827 18.573 13.046 20 9.932 20a9.96 9.96 0 0 1-7.816-3.775c.168-1.136.396-2.137.683-3.007.3-.94 1.293-2.55 2.95-4.834l.506-.7c2.36.126 4.42.037 6.16-.213l.404-.062z"/><path id="c" d="M5.227 15.104c1.36.7 2.238-.195 3.155-1.17"/><path id="d" d="M9.914 14.093c.187.81.304 1.315.768 1.968.01.016-.037.01-.056.014"/><path id="e" d="M11.54 15.81c-.928-.55-.37-.136-1.4-1.535"/><path id="f" d="M13.452 15.412c-1.26-.086-2.56-.543-3.518-1.382"/><path id="g" d="M13.564 14.623c-.664.095-2.02.772-3.6-.684"/><path id="h" d="M13.515 13.667c-1.735.35-.663.21-3.238.147"/><path id="i" d="M6.535 16.196c.774-.616 1.916-1.298 2.117-2.375"/><path id="j" d="M7.645 16.184c.92-.608.273-.103 1.326-2.075"/><path id="k" d="M8.664 16.238c.697-1.358.467-.69.762-1.98"/><path id="l" d="M9.768 16.082c-.52-1.06-.33-.453-.456-1.854"/><path id="m" d="M10.812 16.03c-.802-1.084-.412-.44-1.068-1.986"/><path id="n" d="M6.055 13.077c.703.415 1.675 1.182 2.44.492"/><path id="o" d="M5.647 14.012c.447.12 2.705.788 2.663-.354"/><path id="p" d="M7.304 7.99c-.053.48-.053.782 0 .903.337.768.864.512 1.084-.316"/><path id="q" d="M8.75 7.45c-1.023 4.424-.948 6.637.226 6.637s1.58-.783 1.22-2.348l-.18-4.018c.542 1.896 1.053 1.986 1.535.27"/><path id="r" d="M5.137 11.678c-.26-.134-.41-.255-.45-.36-.214-.567.218-.874.993-.45.03-.662.286-1.068.767-1.22s.572.256.27 1.22c.48-.07.78-.07.903 0 .41.24.22.82-.632 1.174.42.36.482.737.18 1.13s-.662.21-1.084-.542c-.602.722-1.068.903-1.4.542s-.18-.858.45-1.5z"/><path id="s" d="M11.82 11.03c-.274-.14-.43-.267-.474-.378-.225-.593.23-.915 1.042-.473.032-.693.3-1.118.805-1.276s.6.268.284 1.276c.503-.075.82-.075.947 0 .43.25.23.86-.663 1.23.442.378.505.772.19 1.18s-.695.22-1.137-.567c-.632.756-1.12.945-1.468.567s-.19-.898.474-1.56z"/><path id="t" d="M13.142 7.53c1.86-.333 2.898-.574 3.115-.722l-.406-1.13-3.386.677c-.21-3.28-.798-4.92-1.76-4.92-.313 0-.674.45-1.084 1.354C9.05 1.044 8.447.713 7.815 1.796s-.963 2.724-.993 4.92L4.6 6.59c-.48-.052-.857-.13-1.13-.235v1.038c-.048.05.286.12 1.002.213L6.64 7.8c.873.067 3.04-.024 6.5-.27z"/><path id="u" d="M20.5 7c-5.523 0-10 4.477-10 10s4.477 10 10 10 10-4.477 10-10-4.477-10-10-10z"/><path id="v" d="M21.512 14.016l.133-.005c.182-.005.34.004.635.03l.263.024.205.015a.12.12 0 0 1 .099.063l.004.008.013.003c.028.006.052.012.072.02l.01.004c.022.01.04.02.058.033.035.03.056.075.045.127-.02.096-.082.12-.265.156l-.016.003.004.004c.034.034.05.09.02.144l-.005.008c-.02.033-.044.044-.072.052-.014.004-.027.005-.043.006a1.53 1.53 0 0 1-.17-.009l-.015-.001a4.31 4.31 0 0 1-.602-.096l-.016-.004-.176-.017c-.014-.001-.03 0-.062.007h-.045l-.04.007a.12.12 0 0 1-.112-.192l.006-.007-.005-.005a.26.26 0 0 1-.053-.072l-.004-.01-.008-.02-.004-.01-.044-.003-.062-.007-.004-.001c-.025-.005-.04-.01-.06-.025a.12.12 0 0 1-.019-.177c.02-.022.036-.03.057-.037s.035-.008.066-.01l.026-.002.19-.01z"/><path id="w" d="M19.777 14.984c.2-.794.735-1.18 1.412-.764a.12.12 0 0 1 .056.085v.003l.005.005a.55.55 0 0 1 .075.116l.006.013a1.03 1.03 0 0 1 .085.315c.035.34.005.845-.107 1.218-.168.562-.513.84-1.03.668-.488-.163-.676-.934-.502-1.66zm1.108-.647c-.417-.152-.73.12-.87.684l-.004.018c-.148.62.008 1.264.344 1.376.363.12.59-.062.723-.51.102-.34.13-.814.098-1.125-.018-.172-.093-.335-.16-.343h-.005a.12.12 0 0 1-.117-.09l-.002-.008-.01-.003z"/><path id="x" d="M21.518 14.374c-.125.156-.192.334-.277.682l-.022.093-.03.095a.12.12 0 0 0-.002.064l.006.025.022.118.018.115c.034.213.062.315.128.435.21.38.552.49.88.334a.96.96 0 0 0 .52-.784l.01-.246-.014-.405c-.035-.384-.125-.636-.33-.706-.402-.137-.698-.073-.9.17l-.008.01zm.83.047c.076.026.142.21.168.5a3.79 3.79 0 0 1 .013.38l-.008.236a.72.72 0 0 1-.383.58c-.212.1-.415.035-.564-.234-.05-.088-.07-.172-.1-.36l-.02-.13-.014-.078-.007-.035.02-.067.002-.008.016-.068c.082-.336.14-.497.244-.623.132-.16.323-.202.635-.096z"/><path id="y" d="M21.242 15.03a.12.12 0 1 1 .011.241l-.08.004c-.79.04-1.002.118-1.506.558a.12.12 0 1 1-.158-.181l.035-.03c.543-.468.812-.55 1.698-.59z"/><path id="z" d="M21.252 15.18c.446-.3 1.117-.424 1.557-.24a.12.12 0 1 1-.094.222c-.356-.15-.945-.04-1.33.217a.12.12 0 1 1-.134-.2z"/><path id="AA" d="M20.4 15.362c.077.2.5.93.793.44l.08-.664-.85.136c-.067.017-.075.047-.023.09z"/><path id="AB" d="M21.935 15.146c.1.294.3.883.714.52l-.015-.63-.34-.068-.36.178z"/><path id="AC" d="M18.283 17.55c.204-.735 2.08-.787 3.16-.917.85-.102 2.127-.36 2.89.577.048.058.17.476-.238.747s-2.26-.828-2.65-.747c-1.31.27-2.005.747-2.515.747-.34 0-.555-.136-.646-.408z"/><path id="AD" d="M20.662 18.38c.762.853 1.15 1.684 1.63.323.032-.1.23-.56.136-.577-.232-.047-.87.233-1.107.262-.193.024-.4.003-.585.004l-.076-.01z"/><path id="AE" d="M24.98 11.24c-.237 5.28-5.985 7.237-2.31 10.678.878.822-4.814.834-4.326 0 2.607-4.45-.12-5.398-.06-10.203a5.93 5.93 0 0 1 .229-1.586c2.86-.08 4.958-.007 6.29.222.106.018.165.315.178.9z"/><path id="AF" d="M25.75 10.62c-.315 1.368-.914 2.77-1.03 4.175-.084 1.018-.038 2.043-.056 3.065"/><path id="AG" d="M25.387 10.575c-.706 1.777-.98 3.375-1.047 5.295-.052 1.508-.203 1.14.098 1.764"/><path id="AH" d="M24.165 18.403c-1.645-1.477-.956-4.056-.515-5.882"/><path id="AI" d="M20.977 11.208c.1.494.073.825-.082.993-.82.894-1.14 1.237-2.062 2.5-.013.017-.01.063.013.063.102.001.217-.002.3-.06.592-.405 1.05-1.02 1.705-1.313.882-.393-1.2.966-.703 1.23.207.108 3.823-.39 2.654-.156s-2.906.557-2.76.747c.608.794.76 1.157.608 1.867"/><path id="AJ" d="M18.78 12.158c-.53 1.41-1.242 4.85-3.333 5.248-.027.005-.04-.036-.06-.054"/><path id="AK" d="M18.192 10.303c-.614 2.22-.924 4.633-2.805 6.154"/><path id="AL" d="M18.14 9.916c-.256 0 .154 1.582.315 1.948.136.31.51.466 1.125.472.68.02 1.15-.134 1.417-.465l.04-.052c.315.633.95.812 1.72.812 1.78 0 2.492-1.08 2.207-2.715H18.14zm3.145.604l3.03-.042.001.01c.04.52-.05.91-.254 1.166l-.02.026c-.243.286-.697.436-1.384.436-.47 0-1.018-.184-1.255-.77l-.055-.166c-.027-.1-.025-.258-.04-.447l-.022-.213zm-2.666.05h2.198l-.003.323c-.018.727-.172 1.052-1.46 1.08l-.24.002c-.03 0-.047-.005-.076-.025-.062-.043-.13-.127-.19-.255-.1-.2-.172-.504-.208-.88l-.018-.243z"/><path id="AM" d="M20.6 11.087c.024.385-.35.482-.454.128-.08-.27.352-.296.488-.128"/><path id="AN" d="M17.338 22.867c-.3.425-1.51.315-.856-.547s1.147.122.856.547z"/><path id="AO" d="M18.763 23.596c-.3.41-1.39.15-.718-.683s1.016.272.718.683z"/><path id="AP" d="M20.84 23.84c-.302.426-1.388.233-.71-.63s1.01.204.71.63z"/><path id="AQ" d="M23.008 23.576c-.307.42-1.352.2-.906-.54s1.213.12.906.54z"/><path id="AR" d="M24.556 23.077c-.292.415-1.195.216-.86-.533s1.152.12.86.533z"/><path id="AS" d="M13.892 22.335c-1.43-4.72 3.536-10.81 7.127-11.904 5.453-1.662 6.882 7.852 6.637 7.946-1.51.578-6.1 1.897-13.763 3.958z"/><path id="AT" d="M25.248 14.446c.246 1.963-1.676 6.92-3.707 6.646-1.705-.23-2.7-1.677-3.224-3.227-.09-.262-1.406.422-1.587-.797s1.257-.453 1.22-.677c-.126-.748-.117-1.383-.097-1.9.003-.08.433-.328 1.354-.474.412-.065.92-.11 1.535-.11.875-.001 1.853.085 2.673.19.236.03.02-2.17.224-2.138s.834 2.294.995 2.324c.38.07.612.13.615.156z"/><path id="AU" d="M21.787 14.585l1.33 1.955c.068.083.2.183.16.286-.036.095-.898.166-.974.013-.04-.08-.05-.354-.048-.264.016.552.065.9.145 1.045"/><path id="AV" d="M21.786 17.812c.293.032.204.443.434.388.116-.028.213-.156.33-.135.178.032.425.19.742.477l-.85.393c-.535.258-2.172-.658-2.55-1l1.34.43c2.1.3 1.643.156-1.34-.43.518-.287 1.602-.155 1.896-.123z"/></defs><g transform="translate(20 20)" fill="none" fill-rule="evenodd"><g transform="translate(182 317)"><use xlink:href="#A" class="G K"/><use xlink:href="#A" class="F"/><use xlink:href="#L" class="E Q"/><use xlink:href="#M" class="H"/><g class="Y"><use xlink:href="#N"/><use xlink:href="#O"/></g><use xlink:href="#P" class="E Z"/><g class="B C D L"><use xlink:href="#Q"/><use xlink:href="#R"/></g><g class="R B C D"><use xlink:href="#S"/><path d="M23.412 19.09c.513 1.623.4.93.515 2.04"/><use xlink:href="#T"/><path d="M24.73 19.206l-.35 2.157"/><use xlink:href="#U"/><use xlink:href="#V"/><use xlink:href="#W"/></g><path d="M21.77 17.23c-.056.15-.168.3-.354.308" class="B C D L"/><g class="S"><rect x="104" y="14" width="49" height="6" rx="3"/><rect x="40" y="14" width="57.5" height="6" rx="3"/></g><rect x="168" y="14" width="57.5" height="6" rx="3" class="J"/><rect x="241" y="9" width="16" height="16" rx="7.5" class="M"/><use xlink:href="#X" class="B C I N"/><g transform="translate(0 36.5)"><use xlink:href="#C" class="G K" href="#A"/><use xlink:href="#C" class="F" href="#A"/><g class="S"><rect x="104" y="14" width="49" height="6" rx="3"/><rect x="40" y="14" width="35.5" height="6" rx="3"/></g><rect x="168" y="14" width="57.5" height="6" rx="3" class="J"/><rect x="241" y="9" width="16" height="16" rx="7.5" class="H"/><g class="B C I N"><use xlink:href="#Y"/><use xlink:href="#Z"/></g></g><g transform="translate(10.5 44.5)"><use xlink:href="#a" class="E Q"/><use xlink:href="#b" class="H"/><g class="B C D R"><use xlink:href="#c"/><use xlink:href="#d"/><use xlink:href="#e"/><use xlink:href="#f"/><use xlink:href="#g"/><use xlink:href="#h"/><use xlink:href="#i"/><use xlink:href="#j"/><use xlink:href="#k"/><use xlink:href="#l"/><use xlink:href="#m"/><use xlink:href="#n"/><use xlink:href="#o"/><use xlink:href="#p"/><use xlink:href="#q" class="H"/></g><g stroke="#ff5fa7" class="a B D"><use xlink:href="#r"/><use xlink:href="#s" transform="matrix(-.987688 .156434 .156434 .987688 23.954876 -1.88529)"/></g><g fill="#d41c61"><circle cx="6.153" cy="11.656" r="1"/><circle cx="12.904" cy="10.925" r="1"/></g><use xlink:href="#t" class="T"/></g></g><g transform="translate(182 390)"><use xlink:href="#E" class="G K" href="#A"/><use xlink:href="#E" class="F" href="#A"/><use xlink:href="#u" class="E T"/><path d="M20.855 19.447l.06-.006-.025-.178.578 3.613.028.243.038.462a11.99 11.99 0 0 1-1.675-.016c.315-1.05.486-2.02.674-3.333l.08-.774.242-.01zm.595-.157l.047.21.054.274.02.038.55.485 1.177.977.595.48a1.73 1.73 0 0 0 .393.242l.887.335-1.095.59a5.61 5.61 0 0 1-.656.285l-.59-.92c-.227-.394-.403-.815-.61-1.22l-.036-.064.12.28.217.562.23.557a5.24 5.24 0 0 0 .393.727l.094.14c-.453.147-.92.237-1.392.286a18.08 18.08 0 0 0-.222-3.385l-.016-.09-.245-.342-.246-.335.043-.01.255.27.14.133-.004-.023-.064-.116-.16-.32.124-.05zm-1.73.2l-.206.644c-.395 1.3-.132.953-1.023 2.763l-.254.513-.454-.053-.362-.27.442-.753.44-.754.427-.797.487-1.15.08-.176c.14.018.282.028.424.032zm-.99-.157l-.21-.074c.113.044.224.08.334.11l-.946 2.3c-.158.36-.34.707-.53 1.05l-.137.24-.06-.045c-.163-.035-.36-.102-.572-.19l1.415-2.014c.268-.438.492-.9.706-1.37zm-.37-.15l-.162.27-.693 1.016-.9 1.593-.33.503c-.45-.215-.934-.495-1.324-.763.745-.496 1.43-1.083 2-1.713l1.016-1.213a1.48 1.48 0 0 0 .393.307zm3.86-.336l.6.4c.22.146.408.333.624.485l.97.635.624.346a8.94 8.94 0 0 0 1.063.416l.362.106c-.206.265-.426.483-.664.676l-2.98-2.282-.615-.516-.158-.14.172-.123zm-4.492-.298l-.254.167-3.37 2.286c-.288-.444-.5-1.063-.655-1.5l.314-.117c.52-.178 1.074-.244 1.582-.45l2.164-.88c.058.174.13.34.22.494zm5.6-1.202c.966.15 2.43.157 2.83.19l1.147.147.592.06h.156c-.016.26-.048.5-.105.678l-.08.233-1.23-.3-.618-.142-1.65-.303-.313-.062.146.06c1.15.482 2.31.95 3.53 1.102-.267.633-.625 1.255-.987 1.822l-.9-.566-1.606-.9c-.166-.1-.323-.213-.474-.335l-.9-.777a2.24 2.24 0 0 0 .382-.598l.505.125.303.065-.16-.067-.604-.25c.018-.058.03-.115.036-.172l-.001-.006zm-6.044-.356l.048.33-.056.02-2.547 1.056-1.435.623.03.1a8.1 8.1 0 0 1-.331-1.411l1.337-.1 1.432-.242 1.522-.373zm-3.51-1.012l2.715.566.756.114.03.266-.623.08-3.662.674c-.094-.656-.118-1.34-.055-1.97l.84.27zM27.9 14.495c.045.16-.012.33 0 .496l.092.82-.058.01-.993.104c-.43.086-.84.268-1.27.346-.616.112-1.243.162-1.864.24l-.454.068-.013-.338 1.61-.7.582-.29.001-.004-2.203.824-.001-.05 1.254-.47.95-.307h-.001l2.334-.88.036.124zm-10.526 1.112l-.01.02-.046-.014v.02a.72.72 0 0 1-.017.073l-.422-.134-1.708-.578-1.638-.57.452.238.48.24 1.5.646 1.086.554.186.073-.001.234-.266-.042-1.894-.44-.648-.195-1.42-.495.08-.372c.036-.136.116-.317.22-.522l.01.001.223.078-.214-.113.044-.085.206.047c.15.03.052-.016-.178-.097l.07-.127 2.108.83 1.806.73zm5.305-5.88c.18.006.348.04.5.09l-.116.767.16-.753c.313.104.603.27.9.428l.262.133-.1.235-.1.198.215-.42.178.09a7.93 7.93 0 0 1 1.209.768l-.414.576.095-.105.238-.272.124-.166a5.82 5.82 0 0 1 .819.788l-.063.047-.255.197.344-.21a5.71 5.71 0 0 1 .86 1.396l-.3.137-.725.348-.475.24c-1.575.802-1.404.816-2.728 1.688l-.008-.104a4.92 4.92 0 0 0-.069-.529l1.374-1.237 1.467-1.5.124-.112.138-.115-.378.262c-.45.34-.836.76-1.27 1.12l-1.082.83-.34.28-.107.146-.012-.04.118-.107.286-.4 1.827-2.59-.844.94-.942 1.04-.64.727-.037-.054c-.08-.11-.163-.208-.25-.297l.142-.37.4-1.016.15-.35-.08.142-.593.935-.294.415c-.073-.056-.148-.107-.225-.153l.02-.05.29-.807.047-.163-.103.205-.1.23c-.04.108-.072.22-.102.332l-.065.244c-.28-.164-.584-.264-.913-.32l.013-.082.016-.152c.08-1.114.425-2.337.435-3.52l.963.01zm-8.155 2.632l.06-.078.89.775 1.363 1.31.724.798-.105.258-.01.015-3.947-1.455.206-.347.823-1.277zm1.513-1.26l.3.44 1.76 2.7-.105.112c-.102.12-.18.247-.25.38l-.134-.12-.726-.59c-1.796-1.424 7.273 6.39 1.233 1.22l-3.508-3.007.052-.07c.335-.42.8-.738 1.262-1.006l.116-.067zm1.43-.67l.013.072c.204.885.484 1.752.75 2.62.068.22.155.437.254.646l.064.125-.15.103-.442-.56-.147-.254-.966-1.513-.16-.244-.353-.483-.213.114a9.87 9.87 0 0 1 1.35-.626zm1.113-.345l.38-.087.135.7.325 2.075.024.283.04.427c-.246.056-.48.145-.703.264l-.068-.557-.1-.55c-.15-.622-.345-1.232-.548-1.84l-.176-.527.692-.198zm2.56-.35l.187-.006-.01 1.07-.015.535-.056 1.42-.04.7a5.31 5.31 0 0 0-.926-.052l-.01-.42-.07-1.11-.115-1.064-.09-1 1.146-.093zm-1.13 11.08l-.545 2.72-1.21-.13.17-.286 1.225-2.343c.053-.11.092-.225.125-.343l.185-.69.06-.26.23-.006c-.012.37-.036.727-.128 1.16l-.2.986.203-1.126c.135-.78.047-.416-.107.317h0z" fill="#00e766"/><g class="H"><g class="E"><path d="M21.118 13.76a.12.12 0 0 1 .091.223l-.064.026-.06.023-.094.036.003.002c.032.017.058.048.065.09v.01l.001.001c.023.027.042.06.057.1v.005l.006-.001.027-.003h.008c.014-.001.028 0 .043.005.05.014.096.055.09.127-.002.026-.01.047-.023.064-.007.01-.013.016-.02.023s-.017.013-.027.02l-.094.058-.13.08-.005.004-.01.006-.01.007-.293.18-.256.154-.01.005-.036.018c-.102.05-.16.065-.444.118l-.017.003-.01.004c-.052.02-.09.024-.132.012l-.008-.003c-.078-.028-.103-.103-.084-.172a.24.24 0 0 1 .022-.052l.005-.01-.007-.005c-.03-.024-.044-.056-.046-.09v-.008c0-.02.004-.034.01-.05.008-.02.02-.04.037-.06l.005-.006h-.003c-.086-.016-.15-.055-.15-.144v-.01c.002-.068.04-.108.103-.152s.156-.09.3-.152l.053-.023.227-.096.042-.018.087-.04.065-.032a4.76 4.76 0 0 1 .38-.158l.195-.074.1-.044zm-.327.622l-.036.012-.047.016-.092.03-.005.003-.162.112-.02.014.035-.007.092-.053.22-.12.014-.007z"/><use xlink:href="#v"/><use xlink:href="#w"/><use xlink:href="#x"/><use xlink:href="#y"/><use xlink:href="#z"/></g><use xlink:href="#AA"/><use xlink:href="#AB"/><use xlink:href="#AC"/><use xlink:href="#AD"/></g><g class="S"><rect x="104" y="14" width="45.5" height="6" rx="3"/><rect x="40" y="14" width="57.5" height="6" rx="3"/></g><rect x="168" y="14" width="57.5" height="6" rx="3" class="J"/><rect x="241" y="9" width="16" height="16" rx="7.5" class="M"/><use xlink:href="#X" class="B C I N"/></g><g transform="translate(182 426.5)"><use xlink:href="#G" class="G K" href="#A"/><use xlink:href="#G" class="F" href="#A"/><use xlink:href="#u" fill="#cce4ff" class="E"/><use xlink:href="#AE" class="a"/><g class="B C D b"><use xlink:href="#AF"/><use xlink:href="#AG"/><path d="M24.437 11.66c-.663 2.736-.693 3.62-.23 6.425"/><use xlink:href="#AH"/></g><use xlink:href="#AI" class="B C D L"/><g class="b B C D"><use xlink:href="#AJ"/><path d="M18.464 11.208c-.48 2.384-1.192 4.5-3.167 5.882"/><use xlink:href="#AK"/><path d="M17.56 10.394c-.567 2.38-.63 3.947-2.308 5.61"/></g><use xlink:href="#AL" fill="#00ffce" class="E"/><g class="Y"><use xlink:href="#AM"/><use xlink:href="#AM" x="1.313"/></g><g class="Z"><use xlink:href="#AN"/><use xlink:href="#AO"/><use xlink:href="#AP"/><use xlink:href="#AQ"/><use xlink:href="#AR"/></g><g class="S"><rect x="104" y="14" width="57.5" height="6" rx="3"/><rect x="40" y="14" width="35.5" height="6" rx="3"/></g><rect x="168" y="14" width="57.5" height="6" rx="3" class="J"/><rect x="241" y="9" width="16" height="16" rx="7.5" class="M"/><use xlink:href="#X" class="B C I N"/></g><g transform="translate(182 463)"><use xlink:href="#I" class="G K" href="#A"/><use xlink:href="#I" class="F" href="#A"/><path d="M20.477 7a9.98 9.98 0 0 0-9.977 9.977 9.98 9.98 0 0 0 9.977 9.977 9.98 9.98 0 0 0 9.977-9.977A9.98 9.98 0 0 0 20.477 7z" class="E Q"/><use xlink:href="#AS" class="T"/><use xlink:href="#AT" fill="#f1f4f6"/><g class="B C D L"><path d="M22.464 14.99c.11 1.07.903.718.903.004"/><path d="M22.5 15.578l-.27.36m.675-.225l-.18.587m.405-.677l.135.497"/></g><use xlink:href="#AU" fill="#f3fff6" class="B C D R"/><g class="B C D L"><path d="M20.1 15.022c-.168.71.832.8 1.02-.076"/><path d="M20.206 15.533l-.316.226m.652-.18l-.03.406m.326-.45l.135.316"/></g><use xlink:href="#AV" fill="#ff243a"/><g class="S"><rect x="104" y="14" width="45.5" height="6" rx="3"/><rect x="40" y="14" width="57.5" height="6" rx="3"/></g><rect x="168" y="14" width="57.5" height="6" rx="3" class="J"/><rect x="241" y="9" width="16" height="16" rx="7.5" class="M"/><use xlink:href="#X" class="B C I N"/></g><g transform="translate(182 133)"><use xlink:href="#K" class="G K" href="#A"/><use xlink:href="#K" class="F" href="#A"/><use xlink:href="#L" class="E Q"/><use xlink:href="#M" class="H"/><g class="Y"><use xlink:href="#N"/><use xlink:href="#O"/></g><use xlink:href="#P" class="E Z"/><g class="B C D L"><use xlink:href="#Q"/><use xlink:href="#R"/></g><g class="R B C D"><use xlink:href="#S"/><path d="M23.412 19.09c.513 1.623.4.93.515 2.04"/><use xlink:href="#T"/><path d="M24.73 19.206l-.35 2.157"/><use xlink:href="#U"/><use xlink:href="#V"/><use xlink:href="#W"/></g><path d="M21.77 17.23c-.056.15-.168.3-.354.308" class="B C D L"/><rect x="104" y="14" width="49" height="6" rx="3" class="O"/><rect x="40" y="14" width="57.5" height="6" rx="3" class="U"/><rect x="168" y="14" width="57.5" height="6" rx="3" class="J"/><rect x="241" y="9" width="16" height="16" rx="7.5" class="M"/><use xlink:href="#X" class="B C I N"/><g transform="translate(0 109.5)"><use xlink:href="#M" class="G K" href="#A"/><use xlink:href="#M" class="F" href="#A"/><rect x="104" y="14" width="57.5" height="6" rx="3" class="O"/><rect x="40" y="14" width="35.5" height="6" rx="3" class="U"/><rect x="168" y="14" width="57.5" height="6" rx="3" class="J"/><rect x="241" y="9" width="16" height="16" rx="7.5" class="M"/><use xlink:href="#X" class="B C I N"/></g><g transform="translate(0 73)"><use xlink:href="#O" class="G K" href="#A"/><use xlink:href="#O" class="F" href="#A"/><rect x="104" y="14" width="45.5" height="6" rx="3" class="O"/><rect x="40" y="14" width="57.5" height="6" rx="3" class="U"/><rect x="168" y="14" width="57.5" height="6" rx="3" class="J"/><rect x="241" y="9" width="16" height="16" rx="7.5" class="M"/><use xlink:href="#X" class="B C I N"/></g><g transform="translate(0 36.5)"><use xlink:href="#Q" class="G K" href="#A"/><use xlink:href="#Q" class="F" href="#A"/><rect x="104" y="14" width="49" height="6" rx="3" class="O"/><rect x="40" y="14" width="35.5" height="6" rx="3" class="U"/><rect x="168" y="14" width="57.5" height="6" rx="3" class="J"/><rect x="241" y="9" width="16" height="16" rx="7.5" class="H"/><g class="B C I N"><use xlink:href="#Y"/><use xlink:href="#Z"/></g></g><g transform="translate(0 146)"><use xlink:href="#S" class="G K" href="#A"/><use xlink:href="#S" class="F" href="#A"/><g class="S"><rect x="104" y="14" width="45.5" height="6" rx="3"/><rect x="40" y="14" width="57.5" height="6" rx="3"/></g><rect x="168" y="14" width="57.5" height="6" rx="3" class="J"/><rect x="241" y="9" width="16" height="16" rx="7.5" class="M"/><use xlink:href="#X" class="B C I N"/></g><path d="M20.477 80a9.98 9.98 0 0 0-9.977 9.977 9.98 9.98 0 0 0 9.977 9.977 9.98 9.98 0 0 0 9.977-9.977A9.98 9.98 0 0 0 20.477 80z" class="E Q"/><use xlink:href="#AS" y="73" class="T"/><use xlink:href="#AT" y="73" fill="#f1f4f6"/><g class="B C D L"><path d="M22.464 87.99c.11 1.07.903.718.903.004"/><path d="M22.5 88.578l-.27.36m.675-.225l-.18.587m.405-.677l.135.497"/></g><use xlink:href="#AU" y="73" fill="#f3fff6" class="B C D R"/><g class="B C D L"><path d="M20.1 88.022c-.168.71.832.8 1.02-.076"/><path d="M20.206 88.533l-.316.226m.652-.18l-.03.406m.326-.45l.135.316"/></g><use xlink:href="#AV" y="73" fill="#ff243a"/><g transform="translate(10.5 44.5)"><use xlink:href="#a" class="E Q"/><use xlink:href="#b" class="H"/><g class="B C D R"><use xlink:href="#c"/><use xlink:href="#d"/><use xlink:href="#e"/><use xlink:href="#f"/><use xlink:href="#g"/><use xlink:href="#h"/><use xlink:href="#i"/><use xlink:href="#j"/><use xlink:href="#k"/><use xlink:href="#l"/><use xlink:href="#m"/><use xlink:href="#n"/><use xlink:href="#o"/><use xlink:href="#p"/><use xlink:href="#q" class="H"/></g><g stroke="#ff5fa7" class="a B D"><use xlink:href="#r"/><use xlink:href="#s" transform="matrix(-.987688 .156434 .156434 .987688 23.954876 -1.88529)"/></g><g fill="#d41c61"><circle cx="6.153" cy="11.656" r="1"/><circle cx="12.904" cy="10.925" r="1"/></g><use xlink:href="#t" class="T"/></g><use xlink:href="#u" y="109.5" fill="#cce4ff" class="E"/><use xlink:href="#AE" y="109.5" class="a"/><g class="B C D"><g class="b"><use xlink:href="#AF" y="109.5"/><use xlink:href="#AG" y="109.5"/><path d="M24.437 121.16c-.663 2.736-.693 3.62-.23 6.425"/><use xlink:href="#AH" y="109.5"/></g><use xlink:href="#AI" y="109.5" class="L"/><g class="b"><use xlink:href="#AJ" y="109.5"/><path d="M18.464 120.708c-.48 2.384-1.192 4.5-3.167 5.882"/><use xlink:href="#AK" y="109.5"/><path d="M17.56 119.894c-.567 2.38-.63 3.947-2.308 5.61"/></g></g><use xlink:href="#AL" y="109.5" fill="#00ffce" class="E"/><g class="Y"><use xlink:href="#AM" y="109.5"/><use xlink:href="#AM" x="1.313" y="109.5"/></g><g class="Z"><use xlink:href="#AN" y="109.5"/><use xlink:href="#AO" y="109.5"/><use xlink:href="#AP" y="109.5"/><use xlink:href="#AQ" y="109.5"/><use xlink:href="#AR" y="109.5"/></g><use xlink:href="#u" y="146" class="E T"/><path d="M20.855 165.447l.06-.006-.025-.178.578 3.613.028.243.038.462a11.99 11.99 0 0 1-1.675-.016c.315-1.05.486-2.02.674-3.333l.08-.774.242-.01zm.595-.157l.047.21.054.274.02.038.55.485 1.177.977.595.48a1.73 1.73 0 0 0 .393.242l.887.335-1.095.59a5.61 5.61 0 0 1-.656.285l-.59-.92c-.227-.394-.403-.815-.61-1.22l-.036-.064.12.28.217.562.23.557a5.24 5.24 0 0 0 .393.727l.094.14c-.453.147-.92.237-1.392.286a18.08 18.08 0 0 0-.222-3.385l-.016-.09-.245-.342-.246-.335.043-.01.255.27.14.133-.004-.023-.064-.116-.16-.32.124-.05zm-1.73.2l-.206.644c-.395 1.3-.132.953-1.023 2.763l-.254.513-.454-.053-.362-.27.442-.753.44-.754.427-.797.487-1.15.08-.176c.14.018.282.028.424.032zm-.99-.157l-.21-.074c.113.044.224.08.334.11l-.946 2.3c-.158.36-.34.707-.53 1.05l-.137.24-.06-.045c-.163-.035-.36-.102-.572-.19l1.415-2.014c.268-.438.492-.9.706-1.37zm-.37-.15l-.162.27-.693 1.016-.9 1.593-.33.503c-.45-.215-.934-.495-1.324-.763.745-.496 1.43-1.083 2-1.713l1.016-1.213a1.48 1.48 0 0 0 .393.307zm3.86-.336l.6.4c.22.146.408.333.624.485l.97.635.624.346a8.94 8.94 0 0 0 1.063.416l.362.106c-.206.265-.426.483-.664.676l-2.98-2.282-.615-.516-.158-.14.172-.123zm-4.492-.298l-.254.167-3.37 2.286c-.288-.444-.5-1.063-.655-1.5l.314-.117c.52-.178 1.074-.244 1.582-.45l2.164-.88c.058.174.13.34.22.494zm5.6-1.202c.966.15 2.43.157 2.83.19l1.147.147.592.06h.156c-.016.26-.048.5-.105.678l-.08.233-1.23-.3-.618-.142-1.65-.303-.313-.062.146.06c1.15.482 2.31.95 3.53 1.102-.267.633-.625 1.255-.987 1.822l-.9-.566-1.606-.9c-.166-.1-.323-.213-.474-.335l-.9-.777a2.24 2.24 0 0 0 .382-.598l.505.125.303.065-.16-.067-.604-.25c.018-.058.03-.115.036-.172l-.001-.006zm-6.044-.356l.048.33-.056.02-2.547 1.056-1.435.623.03.1a8.1 8.1 0 0 1-.331-1.411l1.337-.1 1.432-.242 1.522-.373zm-3.51-1.012l2.715.566.756.114.03.266-.623.08-3.662.674c-.094-.656-.118-1.34-.055-1.97l.84.27zm14.128-1.478c.045.16-.012.33 0 .496l.092.82-.058.01-.993.104c-.43.086-.84.268-1.27.346-.616.112-1.243.162-1.864.24l-.454.068-.013-.338 1.61-.7.582-.29.001-.004-2.203.824-.001-.05 1.254-.47.95-.307h-.001l2.334-.88.036.124zm-10.526 1.112l-.01.02-.046-.014v.02a.72.72 0 0 1-.017.073l-.422-.134-1.708-.578-1.638-.57.452.238.48.24 1.5.646 1.086.554.186.073-.001.234-.266-.042-1.894-.44-.648-.195-1.42-.495.08-.372c.036-.136.116-.317.22-.522l.01.001.223.078-.214-.113.044-.085.206.047c.15.03.052-.016-.178-.097l.07-.127 2.108.83 1.806.73zm5.305-5.88c.18.006.348.04.5.09l-.116.767.16-.753c.313.104.603.27.9.428l.262.133-.1.235-.1.198.215-.42.178.09a7.93 7.93 0 0 1 1.209.768l-.414.576.095-.105.238-.272.124-.166a5.82 5.82 0 0 1 .819.788l-.063.047-.255.197.344-.21a5.71 5.71 0 0 1 .86 1.396l-.3.137-.725.348-.475.24c-1.575.802-1.404.816-2.728 1.688l-.008-.104a4.92 4.92 0 0 0-.069-.529l1.374-1.237 1.467-1.5.124-.112.138-.115-.378.262c-.45.34-.836.76-1.27 1.12l-1.082.83-.34.28-.107.146-.012-.04.118-.107.286-.4 1.827-2.59-.844.94-.942 1.04-.64.727-.037-.054c-.08-.11-.163-.208-.25-.297l.142-.37.4-1.016.15-.35-.08.142-.593.935-.294.415c-.073-.056-.148-.107-.225-.153l.02-.05.29-.807.047-.163-.103.205-.1.23c-.04.108-.072.22-.102.332l-.065.244c-.28-.164-.584-.264-.913-.32l.013-.082.016-.152c.08-1.114.425-2.337.435-3.52l.963.01zm-8.155 2.632l.06-.078.89.775 1.363 1.31.724.798-.105.258-.01.015-3.947-1.455.206-.347.823-1.277zm1.513-1.26l.3.44 1.76 2.7-.105.112c-.102.12-.18.247-.25.38l-.134-.12-.726-.59c-1.796-1.424 7.273 6.39 1.233 1.22l-3.508-3.007.052-.07c.335-.42.8-.738 1.262-1.006l.116-.067zm1.43-.67l.013.072c.204.885.484 1.752.75 2.62.068.22.155.437.254.646l.064.125-.15.103-.442-.56-.147-.254-.966-1.513-.16-.244-.353-.483-.213.114a9.87 9.87 0 0 1 1.35-.626zm1.113-.345l.38-.087.135.7.325 2.075.024.283.04.427c-.246.056-.48.145-.703.264l-.068-.557-.1-.55c-.15-.622-.345-1.232-.548-1.84l-.176-.527.692-.198zm2.56-.35l.187-.006-.01 1.07-.015.535-.056 1.42-.04.7a5.31 5.31 0 0 0-.926-.052l-.01-.42-.07-1.11-.115-1.064-.09-1 1.146-.093zm-1.13 11.08l-.545 2.72-1.21-.13.17-.286 1.225-2.343c.053-.11.092-.225.125-.343l.185-.69.06-.26.23-.006c-.012.37-.036.727-.128 1.16l-.2.986.203-1.126c.135-.78.047-.416-.107.317h0z" fill="#00e766"/><g class="H"><g class="E"><path d="M21.118 159.76a.12.12 0 1 1 .091.223l-.064.026-.06.023-.094.036.003.002c.032.017.058.048.065.09v.01l.001.001c.023.027.042.06.057.1v.005l.006-.001.027-.003h.008c.014-.001.028 0 .043.005.05.014.096.055.09.127-.002.026-.01.047-.023.064-.007.01-.013.016-.02.023s-.017.013-.027.02l-.094.058-.13.08-.005.004-.01.006-.01.007-.293.18-.256.154-.01.005-.036.018c-.102.05-.16.065-.444.118l-.017.003-.01.004c-.052.02-.09.024-.132.012l-.008-.003c-.078-.028-.103-.103-.084-.172a.24.24 0 0 1 .022-.052l.005-.01-.007-.005c-.03-.024-.044-.056-.046-.09v-.008c0-.02.004-.034.01-.05.008-.02.02-.04.037-.06l.005-.006h-.003c-.086-.016-.15-.055-.15-.144v-.01c.002-.068.04-.108.103-.152s.156-.09.3-.152l.053-.023.227-.096.042-.018.087-.04.065-.032a4.76 4.76 0 0 1 .38-.158l.195-.074.1-.044zm-.327.622l-.036.012-.047.016-.092.03-.005.003-.162.112-.02.014.035-.007.092-.053.22-.12.014-.007z"/><use xlink:href="#v" y="146"/><use xlink:href="#w" y="146"/><use xlink:href="#x" y="146"/><use xlink:href="#y" y="146"/><use xlink:href="#z" y="146"/></g><use xlink:href="#AA" y="146"/><use xlink:href="#AB" y="146"/><use xlink:href="#AC" y="146"/><use xlink:href="#AD" y="146"/></g></g><g filter="url(#C)" transform="translate(35)"><rect fill="#e6e7e7" width="442" height="284.004" rx="4.546"/><g class="B I V"><circle cx="14.5" cy="11.5" r="5.5"/><circle cx="29.5" cy="11.5" r="5.5"/><circle cx="44.5" cy="11.5" r="5.5"/></g><g transform="translate(0 22)"><mask id="AW" class="F"><use xlink:href="#D"/></mask><use xlink:href="#D" class="F"/><g class="E W"><path d="M56.892 126v-5.896H43.384V95.508H36.52V126h20.372zm14.256.616c1.73 0 3.293-.293 4.686-.88s2.59-1.415 3.586-2.486 1.76-2.36 2.288-3.872.792-3.175.792-4.994-.28-3.476-.836-4.972-1.335-2.772-2.332-3.828a10.44 10.44 0 0 0-3.586-2.464c-1.393-.587-2.926-.88-4.598-.88-1.643 0-3.16.293-4.554.88a10.67 10.67 0 0 0-3.608 2.464c-1.012 1.056-1.804 2.332-2.376 3.828s-.858 3.153-.858 4.972.28 3.483.836 4.994 1.335 2.8 2.332 3.872 2.193 1.9 3.586 2.486 2.94.88 4.642.88zm0-5.632c-1.496 0-2.655-.594-3.476-1.782s-1.232-2.794-1.232-4.818.41-3.615 1.232-4.774 1.98-1.738 3.476-1.738 2.647.58 3.454 1.738 1.2 2.75 1.2 4.774-.403 3.63-1.2 4.818-1.958 1.782-3.454 1.782zm26.708 5.632c1.73 0 3.293-.293 4.686-.88s2.59-1.415 3.586-2.486 1.76-2.36 2.288-3.872.792-3.175.792-4.994-.28-3.476-.836-4.972-1.335-2.772-2.332-3.828a10.44 10.44 0 0 0-3.586-2.464c-1.393-.587-2.926-.88-4.598-.88-1.643 0-3.16.293-4.554.88a10.67 10.67 0 0 0-3.608 2.464c-1.012 1.056-1.804 2.332-2.376 3.828s-.858 3.153-.858 4.972.28 3.483.836 4.994 1.335 2.8 2.332 3.872 2.193 1.9 3.586 2.486 2.94.88 4.642.88zm0-5.632c-1.496 0-2.655-.594-3.476-1.782s-1.232-2.794-1.232-4.818.41-3.615 1.232-4.774 1.98-1.738 3.476-1.738 2.647.58 3.454 1.738 1.2 2.75 1.2 4.774-.403 3.63-1.2 4.818-1.958 1.782-3.454 1.782zM120.824 126v-10.12c.733.587 1.474 1.305 2.222 2.156l2.134 2.662 1.914 2.772L128.7 126h7.524l-1.848-3.212-2.42-3.52-2.728-3.4c-.94-1.1-1.848-2.046-2.728-2.838l4.862-5.038 4.554-5.126h-7.788l-1.474 1.76-1.826 2.134-2.002 2.266-2.002 2.2v-19.36l-6.556 1.056V126h6.556zM143 100.04c1.056 0 1.973-.345 2.75-1.034s1.166-1.635 1.166-2.838-.39-2.15-1.166-2.838-1.694-1.034-2.75-1.034-1.973.345-2.75 1.034-1.166 1.635-1.166 2.838.39 2.15 1.166 2.838 1.694 1.034 2.75 1.034zm3.3 25.96v-23.144h-6.556V126h6.556zm12.716 0v-17.864l1.408-.154 1.496-.066c1.525 0 2.567.44 3.124 1.32s.836 2.376.836 4.488h0V126h6.556v-13.068c0-1.584-.16-3.02-.484-4.312s-.865-2.405-1.628-3.344-1.797-1.665-3.102-2.178-2.94-.77-4.906-.77c-1.936 0-3.784.14-5.544.418l-4.312.902V126h6.556zm27.544 8.272c4.02 0 6.99-.917 8.9-2.75s2.882-4.642 2.882-8.426h0v-19.448l-2.002-.506-2.354-.418-2.486-.286-2.442-.1c-1.848 0-3.505.27-4.972.814s-2.706 1.313-3.718 2.3-1.782 2.193-2.3 3.586-.792 2.94-.792 4.642c0 3.403.85 6.05 2.552 7.942s4.15 2.838 7.348 2.838c.88 0 1.694-.08 2.442-.242s1.474-.403 2.178-.726h0v.836c0 1.29-.39 2.347-1.166 3.168s-2.105 1.232-3.982 1.232c-1.437 0-2.72-.117-3.85-.352s-2.207-.557-3.234-.968h0l-1.144 5.5c1.203.41 2.508.74 3.916 1a24.18 24.18 0 0 0 4.224.374zm1.848-15.092c-2.963 0-4.444-1.833-4.444-5.5 0-1.76.425-3.212 1.276-4.356s2.14-1.716 3.872-1.716l1.54.066 1.144.154V118.3c-.41.235-.91.44-1.496.616s-1.217.264-1.892.264zM39.336 135.04c1.056 0 1.973-.345 2.75-1.034s1.166-1.635 1.166-2.838-.39-2.15-1.166-2.838-1.694-1.034-2.75-1.034-1.973.345-2.75 1.034-1.166 1.635-1.166 2.838.39 2.15 1.166 2.838 1.694 1.034 2.75 1.034zm3.3 25.96v-23.144H36.08V161h6.556zm12.716 0v-17.864l1.408-.154 1.496-.066c1.525 0 2.567.44 3.124 1.32s.836 2.376.836 4.488h0V161h6.556v-13.068c0-1.584-.16-3.02-.484-4.312s-.865-2.405-1.628-3.344-1.797-1.665-3.102-2.178-2.94-.77-4.906-.77c-1.936 0-3.784.14-5.544.418l-4.312.902V161h6.556zm28.292.528c1.408 0 2.596-.117 3.564-.352s1.848-.513 2.64-.836h0l-.924-5.104c-.616.235-1.298.418-2.046.55s-1.474.198-2.178.198c-1.467 0-2.442-.41-2.926-1.232s-.726-1.92-.726-3.3h0v-8.14h7.876v-5.456h-7.876v-6.82l-6.556 1.056v19.448c0 1.496.14 2.86.418 4.092s.77 2.28 1.474 3.146 1.643 1.54 2.816 2.024 2.655.726 4.444.726zm20.02.088c1.73 0 3.293-.293 4.686-.88s2.59-1.415 3.586-2.486 1.76-2.36 2.288-3.872.792-3.175.792-4.994-.28-3.476-.836-4.972-1.335-2.772-2.332-3.828a10.44 10.44 0 0 0-3.586-2.464c-1.393-.587-2.926-.88-4.598-.88-1.643 0-3.16.293-4.554.88a10.67 10.67 0 0 0-3.608 2.464c-1.012 1.056-1.804 2.332-2.376 3.828s-.858 3.153-.858 4.972.28 3.483.836 4.994 1.335 2.8 2.332 3.872 2.193 1.9 3.586 2.486 2.94.88 4.642.88zm0-5.632c-1.496 0-2.655-.594-3.476-1.782s-1.232-2.794-1.232-4.818.41-3.615 1.232-4.774 1.98-1.738 3.476-1.738 2.647.58 3.454 1.738 1.2 2.75 1.2 4.774-.403 3.63-1.2 4.818-1.958 1.782-3.454 1.782zm35.904 5.544c1.408 0 2.596-.117 3.564-.352s1.848-.513 2.64-.836h0l-.924-5.104c-.616.235-1.298.418-2.046.55s-1.474.198-2.178.198c-1.467 0-2.442-.41-2.926-1.232s-.726-1.92-.726-3.3h0v-8.14h7.876v-5.456h-7.876v-6.82l-6.556 1.056v19.448c0 1.496.14 2.86.418 4.092s.77 2.28 1.474 3.146 1.643 1.54 2.816 2.024 2.655.726 4.444.726zm17.16-.528v-17.6l1.386-.33a8.41 8.41 0 0 1 1.65-.154c1.467 0 2.47.44 3.014 1.32s.814 2.376.814 4.488h0V161h6.556v-13.068c0-1.584-.154-3.02-.462-4.312s-.836-2.405-1.584-3.344-1.745-1.665-2.992-2.178-2.81-.77-4.686-.77a10.64 10.64 0 0 0-2.002.198c-.69.132-1.254.27-1.694.418h0v-11.088l-6.556 1.056V161h6.556zm30.492.616c.82 0 1.643-.044 2.464-.132l2.3-.33c.72-.132 1.37-.286 1.958-.462s1.056-.352 1.408-.528h0l-.88-5.324c-.733.323-1.68.594-2.838.814s-2.34.33-3.542.33c-1.877 0-3.373-.396-4.488-1.188s-1.745-1.863-1.892-3.212h14.872l.088-1.2.044-1.254c0-3.9-.953-6.857-2.86-8.866s-4.503-3.014-7.788-3.014a11.09 11.09 0 0 0-4.114.792 10.34 10.34 0 0 0-3.542 2.332c-1.027 1.027-1.855 2.3-2.486 3.85s-.946 3.337-.946 5.4c0 1.7.242 3.285.726 4.752s1.232 2.735 2.244 3.806 2.288 1.914 3.828 2.53 3.35.924 5.434.924zm3.168-14.52h-8.668c.088-.557.227-1.107.418-1.65a4.43 4.43 0 0 1 .814-1.43 3.91 3.91 0 0 1 1.32-.99c.528-.25 1.16-.374 1.892-.374.763 0 1.4.132 1.914.396s.94.6 1.276 1.012.587.88.748 1.408.257 1.07.286 1.628h0zM43.384 196v-12.584H55.44v-5.764H43.384v-6.38h13.552v-5.764H36.52V196h6.864zm26.972.528c1.936 0 3.784-.14 5.544-.418l4.312-.902v-22.352h-6.556v17.864l-1.408.154-1.496.066c-1.525 0-2.567-.47-3.124-1.408s-.836-2.464-.836-4.576h0v-12.1h-6.556v12.892c0 1.584.16 3.036.484 4.356s.865 2.457 1.628 3.4 1.797 1.694 3.102 2.222 2.94.792 4.906.792zm24.948 0c1.408 0 2.596-.117 3.564-.352s1.848-.513 2.64-.836h0l-.924-5.104c-.616.235-1.298.418-2.046.55s-1.474.198-2.178.198c-1.467 0-2.442-.41-2.926-1.232s-.726-1.92-.726-3.3h0v-8.14h7.876v-5.456h-7.876v-6.82l-6.556 1.056v19.448c0 1.496.14 2.86.418 4.092s.77 2.28 1.474 3.146 1.643 1.54 2.816 2.024 2.655.726 4.444.726zm20.504 0c1.936 0 3.784-.14 5.544-.418l4.312-.902v-22.352h-6.556v17.864l-1.408.154-1.496.066c-1.525 0-2.567-.47-3.124-1.408s-.836-2.464-.836-4.576h0v-12.1h-6.556v12.892c0 1.584.16 3.036.484 4.356s.865 2.457 1.628 3.4 1.797 1.694 3.102 2.222 2.94.792 4.906.792zM138.38 196v-17.688c.293-.088.726-.17 1.298-.242s1.063-.1 1.474-.1a12.78 12.78 0 0 1 2.552.242l2.068.462 1.1-5.412c-.352-.147-.777-.27-1.276-.374l-1.496-.264-1.496-.176-1.276-.066c-1.965 0-3.747.183-5.346.55l-4.158 1.166V196h6.556zm22.704.616c.82 0 1.643-.044 2.464-.132l2.3-.33c.72-.132 1.37-.286 1.958-.462s1.056-.352 1.408-.528h0l-.88-5.324c-.733.323-1.68.594-2.838.814s-2.34.33-3.542.33c-1.877 0-3.373-.396-4.488-1.188s-1.745-1.863-1.892-3.212h14.872l.088-1.2.044-1.254c0-3.9-.953-6.857-2.86-8.866s-4.503-3.014-7.788-3.014a11.09 11.09 0 0 0-4.114.792 10.34 10.34 0 0 0-3.542 2.332c-1.027 1.027-1.855 2.3-2.486 3.85s-.946 3.337-.946 5.4c0 1.7.242 3.285.726 4.752s1.232 2.735 2.244 3.806 2.288 1.914 3.828 2.53 3.35.924 5.434.924zm3.168-14.52h-8.668c.088-.557.227-1.107.418-1.65a4.43 4.43 0 0 1 .814-1.43 3.91 3.91 0 0 1 1.32-.99c.528-.25 1.16-.374 1.892-.374.763 0 1.4.132 1.914.396s.94.6 1.276 1.012.587.88.748 1.408.257 1.07.286 1.628h0z" class="G"/><g class="P"><path d="M51.72 83v-2.223H38.967V80.7c0-.624.15-1.254.45-1.89s.702-1.287 1.21-1.95 1.08-1.326 1.716-1.99l1.97-1.97 2.38-2.34c.78-.78 1.475-1.586 2.087-2.418s1.1-1.697 1.462-2.594a7.55 7.55 0 0 0 .546-2.867c0-2.288-.663-4.075-1.99-5.362s-3.302-1.93-5.928-1.93c-.988 0-1.885.123-2.69.37s-1.515.54-2.126.878-1.118.682-1.52 1.033l-.838.8 1.326 1.755a13.09 13.09 0 0 1 .741-.663c.338-.286.747-.566 1.228-.84s1.047-.513 1.697-.72 1.39-.312 2.223-.312c1.482 0 2.71.397 3.686 1.2s1.462 2.1 1.462 3.92c0 .832-.13 1.6-.4 2.3a8.59 8.59 0 0 1-1.053 1.989 14.08 14.08 0 0 1-1.54 1.814l-1.852 1.814-2.437 2.34c-.845.806-1.612 1.677-2.3 2.613s-1.255 1.93-1.697 2.983-.663 2.19-.663 3.412l.02.644.02.293h15.56zm14.274.585c2.756 0 4.894-1.21 6.415-3.627s2.282-5.902 2.282-10.452c0-4.576-.76-8.073-2.282-10.49s-3.66-3.627-6.415-3.627c-2.782 0-4.927 1.21-6.435 3.627s-2.262 5.915-2.262 10.49c0 4.55.76 8.034 2.282 10.452s3.66 3.627 6.416 3.627zm0-2.3c-1.144 0-2.093-.325-2.847-.975s-1.358-1.514-1.813-2.593-.78-2.327-.975-3.744-.292-2.906-.292-4.466.097-3.05.292-4.466.52-2.67.975-3.763 1.06-1.963 1.813-2.613 1.703-.975 2.847-.975c1.118 0 2.054.325 2.808.975s1.365 1.52 1.833 2.613.8 2.346.994 3.763.293 2.906.293 4.466-.097 3.05-.293 4.466-.526 2.665-.994 3.744-1.08 1.944-1.833 2.593-1.7.975-2.808.975zM95.712 83v-2.223H82.96V80.7c0-.624.15-1.254.448-1.89s.702-1.287 1.21-1.95 1.08-1.326 1.716-1.99 1.294-1.32 1.97-1.97l2.38-2.34c.78-.78 1.475-1.586 2.087-2.418s1.1-1.697 1.463-2.594a7.55 7.55 0 0 0 .546-2.867c0-2.288-.663-4.075-1.99-5.362s-3.302-1.93-5.928-1.93c-.988 0-1.885.123-2.69.37s-1.515.54-2.126.878-1.118.682-1.52 1.033-.683.617-.838.8h0l1.326 1.755a13.09 13.09 0 0 1 .741-.663c.338-.286.748-.566 1.228-.84s1.047-.513 1.697-.72 1.39-.312 2.223-.312c1.482 0 2.71.397 3.686 1.2s1.463 2.1 1.463 3.92c0 .832-.13 1.6-.4 2.3a8.59 8.59 0 0 1-1.053 1.989 14.08 14.08 0 0 1-1.54 1.814L87.2 70.715l-2.437 2.34c-.845.806-1.612 1.677-2.3 2.613s-1.255 1.93-1.697 2.983-.663 2.19-.663 3.412c0 .286.007.5.02.644s.02.24.02.293h15.56zm17.043 0V55.973h-1.794c-1.196 1.456-2.405 2.607-3.627 3.452s-2.613 1.54-4.173 2.087h0l.74 1.95c.624-.182 1.248-.422 1.872-.72a28.98 28.98 0 0 0 1.794-.936 15.06 15.06 0 0 0 1.541-.995c.455-.338.825-.663 1.11-.975h0V83h2.535z"/></g></g><rect x="189" y="212" width="63" height="14" rx="2" class="P W"/><g opacity=".92" class="W"><g transform="translate(225 51)"><g transform="translate(95)"><path d="M95.945 47.896V.054H48.277l.005.563C48.7 26.537 69.56 47.47 95.386 47.89l.56.005z" fill="#2ac2ff"/><path d="M95.945 48.99V96.83H48.277l.005-.563c.42-25.92 21.277-46.854 47.104-47.275l.56-.005z" class="c"/><path d="M48.277 96.83V48.99H.61l.005.563c.42 25.92 21.277 46.854 47.104 47.275l.56.005z" class="H"/><ellipse cx="24.443" cy="23.975" rx="23.834" ry="23.921" class="d"/><ellipse cx="24.443" cy="120.921" rx="23.834" ry="23.921" class="P"/></g><path d="M49 145V97H0l.005.564c.43 26.006 21.87 47.01 48.42 47.43L49 145z" class="d"/><path d="M49 0v48H0l.005-.564C.435 21.43 21.876.426 48.424.005L49 0z" class="O"/><path d="M49 48V0h49l-.005.564c-.43 26.006-21.87 47.01-48.42 47.43L49 48z" class="c"/><path d="M49 49v48H0l.005-.564c.43-26.006 21.87-47.01 48.42-47.43L49 49z" class="P"/><ellipse transform="matrix(1 0 0 -1 0 242)" cx="72.5" cy="121" rx="23.5" ry="24" class="e"/></g></g><path d="M-74.578 123c25.77 15.917 41.57 54.07 47.405 114.463L-27 239.3-170 242c.263-29.16 3.25-52.3 8.962-69.445 2.918-8.754 12.75-24.345 29.493-46.772l.322-.43c21.922 1.162 40.868.19 56.576-2.34l.068-.012z" class="H W"/></g><g transform="translate(422 6)" class="B C I V"><path d="M0 .5h10"/><path d="M0 5.5h10"/><path d="M0 10.5h10"/></g></g><g filter="url(#E)" transform="translate(0 275)"><g transform="translate(.238)"><mask id="AX" class="F"><use xlink:href="#F"/></mask><use xlink:href="#F" class="F"/><path d="M20.052 71.974l-2.32.018V-121h200.012l-.01 1.224C215.977-14.63 128.438 70.287 20.052 71.974h0z" class="X c"/><path d="M17.555-71.63l-.001 167.4-16.254.003c-39.985-7.565-70.17-41.816-70.17-82.926 0-46.19 38.108-83.724 85.408-84.47l1.017-.008z" class="O X"/><path d="M17.538 246.82v-87.203H-72l.01 1.025c.787 47.246 39.966 85.403 88.478 86.17l1.052.01z" class="X d"/><path d="M60.402 203.22c23.55 0 42.64-19.522 42.64-43.603h-85.28c0 24.08 19.09 43.603 42.64 43.603z" transform="matrix(1 0 0 -1 0 362.839694)" class="X e"/><path d="M17.538 72.415v87.203H-72l.01-1.025c.787-47.246 39.966-85.403 88.478-86.17l1.052-.01z" class="P X"/></g><g class="E"><path d="M30.073 114.302c.772 0 1.41-.1 1.917-.304s.908-.478 1.205-.825a3 3 0 0 0 .626-1.222c.12-.467.18-.965.18-1.495h0v-7.163h-2.44v7.04c0 .685-.13 1.173-.39 1.464s-.688.436-1.283.436a3.06 3.06 0 0 1-1.127-.202 6.97 6.97 0 0 1-.97-.467h0l-.814 1.884c.334.228.756.428 1.267.6s1.12.257 1.83.257zm9.78 0c.615 0 1.17-.104 1.666-.31s.92-.5 1.275-.88.626-.836.814-1.37.282-1.124.282-1.767-.1-1.23-.297-1.76-.475-.98-.83-1.355-.78-.664-1.275-.872a4.19 4.19 0 0 0-1.635-.311c-.584 0-1.124.104-1.62.31s-.923.498-1.283.872-.642.825-.845 1.355a4.87 4.87 0 0 0-.305 1.76 5.05 5.05 0 0 0 .297 1.767c.198.535.475.99.83 1.37s.78.672 1.275.88 1.046.31 1.65.31zm0-1.993c-.532 0-.944-.2-1.236-.63s-.438-.99-.438-1.705.146-1.28.438-1.7.704-.615 1.236-.615.94.205 1.228.615.43.973.43 1.7-.143 1.285-.43 1.705-.696.63-1.228.63zm8.184 1.993c1.116 0 1.98-.208 2.6-.623s.915-1.028.915-1.838c0-.343-.04-.644-.117-.903s-.214-.496-.407-.71-.456-.4-.8-.592-.756-.366-1.267-.553l-.618-.257a2.62 2.62 0 0 1-.383-.218c-.094-.067-.156-.138-.188-.2s-.047-.156-.047-.25c0-.405.365-.607 1.095-.607.396 0 .754.036 1.072.11s.613.156.884.25h0l.407-1.806c-.27-.104-.636-.2-1.095-.288s-.94-.132-1.44-.132c-1 0-1.79.223-2.363.67s-.86 1.054-.86 1.822c0 .395.057.732.172 1.012a2.11 2.11 0 0 0 .485.724 2.92 2.92 0 0 0 .759.522c.297.145.63.285.994.42.47.176.82.335 1.048.475s.344.304.344.49c0 .24-.09.4-.266.483s-.48.125-.908.125c-.407 0-.82-.044-1.236-.132s-.824-.2-1.22-.366h0l-.39 1.884c.188.083.524.187 1.01.31s1.093.187 1.823.187zm7.573-.218v-6.23l.493-.117c.183-.036.378-.055.587-.055.522 0 .88.156 1.072.467s.29.84.29 1.588h0v4.345h2.332v-4.625c0-.56-.055-1.07-.164-1.526s-.297-.85-.563-1.184-.62-.59-1.064-.77-1-.273-1.666-.273a3.8 3.8 0 0 0-.712.07 4.85 4.85 0 0 0-.602.148h0V102l-2.332.374v11.71H55.6zm-20.295 12.458v-2.087h-4.804v-8.705h-2.44v10.792h7.245zm5.07.218c.615 0 1.17-.104 1.666-.31s.92-.5 1.275-.88.626-.836.814-1.37.282-1.124.282-1.767-.1-1.23-.297-1.76-.475-.98-.83-1.355-.78-.664-1.275-.872a4.19 4.19 0 0 0-1.635-.311c-.584 0-1.124.104-1.62.31s-.923.498-1.283.872-.642.825-.845 1.355a4.87 4.87 0 0 0-.305 1.76 5.05 5.05 0 0 0 .297 1.767c.198.535.475.99.83 1.37s.78.672 1.275.88 1.046.31 1.65.31zm0-1.993c-.532 0-.944-.2-1.236-.63s-.438-.99-.438-1.705.146-1.28.438-1.7.704-.615 1.236-.615.94.205 1.228.615.43.973.43 1.7-.143 1.285-.43 1.705-.696.63-1.228.63zm8.168 1.775v-6.322l.454-.055.454-.023c.47 0 .8.156.994.467s.29.84.29 1.588h0v4.345h2.332v-4.47l-.03-.85a3.52 3.52 0 0 0-.141-.755 2.05 2.05 0 0 1 .555-.234c.224-.062.4-.093.524-.093.47 0 .8.156.994.467s.29.84.29 1.588h0v4.345h2.332v-4.625c0-.56-.047-1.07-.14-1.526a2.91 2.91 0 0 0-.516-1.184c-.25-.332-.587-.59-1.01-.77s-.962-.273-1.62-.273c-.365 0-.764.067-1.197.202s-.816.322-1.15.56c-.24-.208-.545-.387-.915-.537s-.853-.226-1.447-.226l-.923.04-.915.11-.845.156-.696.164v7.91h2.332zm13.488 2.88v-3.083c.26.114.532.202.814.265s.584.093.908.093c.584 0 1.1-.104 1.55-.31s.824-.498 1.127-.872.532-.82.688-1.34.235-1.095.235-1.73c0-.654-.096-1.246-.29-1.775a3.67 3.67 0 0 0-.837-1.347c-.365-.37-.814-.654-1.346-.856s-1.137-.304-1.815-.304l-.884.04-.908.1-.853.148-.72.18v10.792h2.332zm1.283-4.687c-.24 0-.477-.03-.712-.093s-.425-.14-.57-.234h0v-4.19c.115-.02.26-.04.438-.055l.58-.023c.636 0 1.116.215 1.44.646s.485 1.004.485 1.72c0 1.485-.553 2.227-1.66 2.227zm8.825 1.978c.845 0 1.565-.05 2.16-.148l1.393-.257v-4.827a5.2 5.2 0 0 0-.172-1.386c-.115-.415-.3-.768-.587-1.06s-.644-.514-1.103-.67-1.033-.234-1.72-.234l-.806.04-.76.093-.665.125-.51.132.297 1.87c.282-.104.615-.184 1-.24a8.01 8.01 0 0 1 1.174-.086c.595 0 1.012.12 1.252.358s.36.555.36.95h0v.218c-.146-.042-.336-.075-.57-.1a7.41 7.41 0 0 0-.806-.039 6.26 6.26 0 0 0-1.299.132 3.51 3.51 0 0 0-1.111.428 2.22 2.22 0 0 0-.775.794c-.193.332-.29.737-.29 1.215 0 .498.083.92.25 1.26s.407.62.72.833a3.15 3.15 0 0 0 1.119.459c.433.093.915.14 1.447.14zm.156-1.79c-.428 0-.764-.07-1.01-.2s-.368-.392-.368-.755c0-.187.042-.343.125-.467a.87.87 0 0 1 .344-.296 1.62 1.62 0 0 1 .509-.148c.193-.026.4-.04.618-.04.156 0 .33.01.516.03l.422.062v1.76c-.125.02-.292.036-.5.047l-.657.016zm7.84 1.62v-6.26c.104-.03.258-.06.462-.086a4.23 4.23 0 0 1 .524-.039c.323 0 .626.03.908.086l.735.164.39-1.915c-.125-.052-.276-.096-.454-.132l-.532-.093-.532-.062-.454-.023a8.56 8.56 0 0 0-1.901.195l-1.48.413v7.755h2.332zm7.448.187c.5 0 .923-.042 1.267-.125s.657-.182.94-.296h0l-.33-1.806c-.22.083-.462.148-.728.195s-.524.07-.775.07c-.522 0-.868-.145-1.04-.436s-.258-.68-.258-1.168h0v-2.88h2.8v-1.93h-2.8v-2.414l-2.332.374v6.883c0 .53.05 1.012.15 1.448s.274.807.524 1.113.584.545 1 .716.944.257 1.58.257zM28.665 139v-5.396h-1.22V139h1.22zm1.55 1.44l2.613-7.537h-1.18l-2.63 7.537h1.197zm5.32-1.33c.38 0 .737-.06 1.068-.18a2.33 2.33 0 0 0 .857-.533c.24-.236.43-.53.567-.88s.207-.757.207-1.22-.07-.868-.21-1.22-.334-.645-.58-.884-.532-.418-.86-.537-.678-.18-1.048-.18a2.97 2.97 0 0 0-1.029.179 2.43 2.43 0 0 0-.861.537c-.248.24-.445.533-.59.884s-.22.757-.22 1.22.07.868.21 1.22.334.644.58.88.532.414.86.533.678.18 1.048.18zm0-1.067c-.23 0-.433-.042-.6-.125s-.327-.2-.45-.354-.216-.336-.282-.55a2.44 2.44 0 0 1-.098-.716c0-.26.033-.497.098-.712a1.63 1.63 0 0 1 .282-.553c.123-.153.273-.273.45-.358s.38-.128.6-.128a1.43 1.43 0 0 1 .606.125c.18.083.33.2.454.354a1.63 1.63 0 0 1 .282.553 2.48 2.48 0 0 1 .098.72 2.44 2.44 0 0 1-.098.716c-.065.213-.16.396-.282.55s-.274.27-.454.354a1.43 1.43 0 0 1-.606.125zm7.073 1.067c.715 0 1.25-.14 1.604-.417s.532-.668.532-1.172a1.9 1.9 0 0 0-.102-.662 1.28 1.28 0 0 0-.309-.475c-.138-.135-.312-.253-.52-.354s-.454-.204-.735-.308l-.372-.136a1.76 1.76 0 0 1-.297-.148c-.086-.055-.153-.115-.2-.183s-.07-.15-.07-.25c0-.166.064-.29.192-.37s.338-.12.63-.12c.26 0 .484.03.67.1s.353.128.505.206h0l.352-.958c-.172-.093-.39-.18-.657-.257s-.582-.117-.947-.117c-.308 0-.584.038-.83.113a1.83 1.83 0 0 0-.626.323 1.44 1.44 0 0 0-.399.51c-.094.2-.14.424-.14.674s.044.46.133.635.203.322.344.444a1.96 1.96 0 0 0 .477.304l.532.214c.407.135.694.26.86.378a.52.52 0 0 1 .25.44.62.62 0 0 1-.039.226.39.39 0 0 1-.141.175c-.068.05-.158.088-.27.117s-.254.043-.426.043c-.344 0-.635-.035-.872-.105s-.437-.15-.6-.237h0l-.344.965c.073.042.163.086.27.132a2.95 2.95 0 0 0 .383.132 4.21 4.21 0 0 0 .512.105c.193.03.41.043.65.043zm4.976 0a4.13 4.13 0 0 0 .438-.023l.41-.058a3.29 3.29 0 0 0 .348-.082c.104-.03.188-.062.25-.093h0l-.156-.942c-.13.057-.3.105-.505.144s-.416.058-.63.058c-.334 0-.6-.07-.798-.2a.77.77 0 0 1-.336-.568h2.644l.016-.214.008-.222c0-.7-.17-1.213-.51-1.57s-.8-.533-1.385-.533a1.98 1.98 0 0 0-.732.14 1.84 1.84 0 0 0-.63.413c-.183.182-.33.41-.442.68s-.168.6-.168.954c0 .3.043.58.13.84s.22.484.4.674.407.34.68.448.596.164.966.164zm.563-2.57h-1.54c.016-.1.04-.196.074-.292s.082-.18.145-.253.14-.13.235-.175.206-.066.336-.066c.136 0 .25.023.34.07s.167.106.227.18a.72.72 0 0 1 .133.249 1.19 1.19 0 0 1 .051.288h0zM51.34 139v-3.13a1.55 1.55 0 0 1 .231-.043c.102-.013.19-.02.262-.02.162 0 .313.014.454.043l.368.082.196-.958c-.063-.026-.138-.048-.227-.066l-.266-.047-.266-.03-.227-.012a4.28 4.28 0 0 0-.951.097l-.74.206V139h1.166zm4.467 0a20.47 20.47 0 0 0 .81-1.822l.778-2.274H56.19l-.184.658-.22.716-.23.705-.22.623-.223-.623-.227-.705-.22-.716-.184-.658h-1.236l.778 2.274.8 1.822h.97zm2.793-4.594c.188 0 .35-.06.49-.183s.207-.29.207-.502-.07-.38-.207-.502-.3-.183-.49-.183-.35.06-.49.183-.207.29-.207.502.07.38.207.502.3.183.49.183zm.587 4.594v-4.096H58.02V139h1.166zm3.043.11a3.37 3.37 0 0 0 .673-.062c.203-.042.373-.09.51-.148h0l-.164-.95c-.136.057-.284.1-.446.125s-.313.04-.454.04c-.396 0-.674-.1-.833-.304s-.24-.488-.24-.856c0-.348.085-.628.254-.84s.426-.32.77-.32a1.89 1.89 0 0 1 .438.047 2.95 2.95 0 0 1 .36.109h0l.243-.927c-.172-.073-.35-.128-.532-.167a2.89 2.89 0 0 0-.602-.058c-.334 0-.63.057-.892.17s-.482.27-.665.463a2 2 0 0 0-.419.685c-.096.262-.145.54-.145.837a2.88 2.88 0 0 0 .121.853c.08.262.21.49.383.68s.398.344.67.455.595.167.97.167zm3.748 0a4.13 4.13 0 0 0 .438-.023l.41-.058a3.29 3.29 0 0 0 .348-.082c.104-.03.188-.062.25-.093h0l-.156-.942c-.13.057-.3.105-.505.144s-.416.058-.63.058c-.334 0-.6-.07-.798-.2a.77.77 0 0 1-.336-.568h2.644l.016-.214.008-.222c0-.7-.17-1.213-.51-1.57s-.8-.533-1.385-.533a1.98 1.98 0 0 0-.732.14 1.84 1.84 0 0 0-.63.413c-.183.182-.33.41-.442.68s-.168.6-.168.954c0 .3.043.58.13.84s.22.484.4.674.407.34.68.448.596.164.966.164zm.563-2.57H65c.016-.1.04-.196.074-.292s.082-.18.145-.253.14-.13.235-.175.206-.066.336-.066c.136 0 .25.023.34.07s.167.106.227.18a.72.72 0 0 1 .133.249 1.19 1.19 0 0 1 .051.288h0zm3.2 2.57c.558 0 1-.104 1.295-.31s.458-.514.458-.92a1.57 1.57 0 0 0-.059-.452c-.04-.13-.107-.248-.203-.354s-.228-.205-.395-.296-.378-.183-.634-.276l-.31-.128a1.31 1.31 0 0 1-.192-.109c-.047-.034-.078-.07-.094-.105s-.023-.078-.023-.125c0-.202.183-.304.548-.304.198 0 .377.018.536.055s.306.078.442.125h0l.203-.903c-.136-.052-.318-.1-.548-.144s-.47-.066-.72-.066c-.5 0-.895.112-1.18.335s-.43.527-.43.91c0 .197.03.366.086.506s.138.26.243.362a1.46 1.46 0 0 0 .379.261c.15.073.314.143.497.2.235.088.41.167.524.237s.172.152.172.245c0 .12-.044.2-.133.24s-.24.062-.454.062a2.98 2.98 0 0 1-.618-.066 3.84 3.84 0 0 1-.61-.183h0l-.196.942c.094.042.262.093.505.156s.546.093.91.093z" class="G"/><g class="F"><path d="M36.245 31.542V29.55h-4.558v-8.314H29.37v10.307h6.874zm4.8.208c.584 0 1.11-.1 1.58-.297s.873-.478 1.2-.84.594-.798.772-1.31.267-1.073.267-1.688a4.79 4.79 0 0 0-.282-1.681 3.78 3.78 0 0 0-.787-1.294c-.337-.357-.74-.635-1.2-.833s-.987-.297-1.55-.297c-.554 0-1.066.1-1.537.297a3.6 3.6 0 0 0-1.217.833c-.34.357-.61.788-.802 1.294s-.3 1.066-.3 1.68.094 1.177.282 1.688.45.947.787 1.31.74.642 1.2.84.992.297 1.566.297zm0-1.904a1.34 1.34 0 0 1-1.173-.602c-.277-.402-.416-.944-.416-1.63s.14-1.222.416-1.614.668-.587 1.173-.587.893.196 1.165.587.408.93.408 1.614-.136 1.227-.408 1.63-.66.602-1.165.602zm9.012 1.904c.584 0 1.11-.1 1.58-.297s.873-.478 1.2-.84.594-.798.772-1.31.267-1.073.267-1.688a4.79 4.79 0 0 0-.282-1.681 3.78 3.78 0 0 0-.787-1.294c-.337-.357-.74-.635-1.2-.833s-.987-.297-1.55-.297c-.554 0-1.066.1-1.537.297a3.6 3.6 0 0 0-1.217.833c-.34.357-.61.788-.802 1.294s-.3 1.066-.3 1.68.094 1.177.282 1.688.45.947.787 1.31.74.642 1.2.84.992.297 1.566.297zm0-1.904a1.34 1.34 0 0 1-1.173-.602c-.277-.402-.416-.944-.416-1.63s.14-1.222.416-1.614.668-.587 1.173-.587.893.196 1.165.587.408.93.408 1.614-.136 1.227-.408 1.63-.66.602-1.165.602zm7.75 1.696v-3.42c.247.198.497.44.75.73l.72.9.646.937.542.855h2.54l-.624-1.086-.817-1.2-.92-1.153a10.18 10.18 0 0 0-.92-.959l1.64-1.703 1.537-1.733h-2.628l-.497.595-.616.72-.676.766-.676.744V20l-2.212.357v11.185h2.212zm7.483-8.775a1.35 1.35 0 0 0 .928-.35c.262-.233.393-.553.393-.96s-.13-.726-.393-.96a1.35 1.35 0 0 0-.928-.35 1.35 1.35 0 0 0-.928.35c-.262.233-.393.553-.393.96s.13.726.393.96a1.35 1.35 0 0 0 .928.35zm1.113 8.775v-7.823H64.2v7.823h2.212zm4.29 0v-6.04l.475-.052.505-.022c.515 0 .866.15 1.054.446s.282.803.282 1.517h0v4.15h2.212v-4.417c0-.535-.054-1.02-.163-1.458a2.87 2.87 0 0 0-.549-1.13c-.257-.317-.606-.563-1.047-.736s-.992-.26-1.655-.26c-.653 0-1.277.047-1.87.14l-1.455.305v7.556h2.212zm9.294 2.796c1.356 0 2.358-.3 3.006-.93s.972-1.57.972-2.848h0v-6.574l-.676-.17-.794-.14-.84-.097-.824-.037c-.624 0-1.183.092-1.678.275s-.913.444-1.255.78a3.34 3.34 0 0 0-.779 1.212c-.178.47-.267.994-.267 1.57 0 1.15.287 2.045.86 2.685s1.4.96 2.48.96a3.9 3.9 0 0 0 .824-.082c.252-.055.497-.136.735-.245h0v.283c0 .436-.13.793-.393 1.07s-.7.416-1.344.416c-.485 0-.918-.04-1.3-.12s-.745-.188-1.09-.327h0l-.386 1.86a8.87 8.87 0 0 0 1.321.335c.475.084.95.126 1.425.126zm.624-5.102c-1 0-1.5-.62-1.5-1.86 0-.595.144-1.086.43-1.472s.723-.58 1.307-.58l.52.022.386.052v3.54c-.14.08-.307.15-.505.208a2.21 2.21 0 0 1-.638.089zm-50.3 5.36a1.35 1.35 0 0 0 .928-.35c.262-.233.393-.553.393-.96s-.13-.726-.393-.96a1.35 1.35 0 0 0-.928-.35 1.35 1.35 0 0 0-.928.35c-.262.233-.393.553-.393.96s.13.726.393.96a1.35 1.35 0 0 0 .928.35zm1.113 8.775V35.55h-2.212v7.823h2.212zm4.29 0v-6.04l.475-.052.505-.022c.515 0 .866.15 1.054.446s.282.803.282 1.517h0v4.15h2.212v-4.417c0-.535-.054-1.02-.163-1.458a2.87 2.87 0 0 0-.549-1.13c-.257-.317-.606-.563-1.047-.736s-.992-.26-1.655-.26c-.653 0-1.277.047-1.87.14l-1.455.305v7.556h2.212zm9.546.178c.475 0 .876-.04 1.203-.12s.624-.174.89-.283h0l-.312-1.725c-.208.08-.438.14-.7.186a4.22 4.22 0 0 1-.735.067c-.495 0-.824-.14-.987-.416s-.245-.65-.245-1.115h0v-2.752h2.658V35.55h-2.658v-2.305l-2.212.357v6.574c0 .506.047.967.14 1.383s.26.77.497 1.063.554.52.95.684.896.245 1.5.245zm6.755.03c.584 0 1.11-.1 1.58-.297s.873-.478 1.2-.84.594-.798.772-1.31.267-1.073.267-1.688a4.79 4.79 0 0 0-.282-1.681 3.78 3.78 0 0 0-.787-1.294c-.337-.357-.74-.635-1.2-.833s-.987-.297-1.55-.297c-.554 0-1.066.1-1.537.297a3.6 3.6 0 0 0-1.217.833c-.34.357-.61.788-.802 1.294s-.3 1.066-.3 1.68.094 1.177.282 1.688.45.947.787 1.31.74.642 1.2.84.992.297 1.566.297zm0-1.904a1.34 1.34 0 0 1-1.173-.602c-.277-.402-.416-.944-.416-1.63s.14-1.222.416-1.614.668-.587 1.173-.587.893.196 1.165.587.408.93.408 1.614-.136 1.227-.408 1.63-.66.602-1.165.602zm12.115 1.874c.475 0 .876-.04 1.203-.12s.624-.174.89-.283h0l-.312-1.725c-.208.08-.438.14-.7.186a4.22 4.22 0 0 1-.735.067c-.495 0-.824-.14-.987-.416s-.245-.65-.245-1.115h0v-2.752h2.658V35.55h-2.658v-2.305l-2.212.357v6.574c0 .506.047.967.14 1.383s.26.77.497 1.063.554.52.95.684.896.245 1.5.245zm5.8-.178v-5.95l.468-.112c.173-.035.36-.052.557-.052.495 0 .834.15 1.017.446s.275.803.275 1.517h0v4.15h2.212v-4.417c0-.535-.052-1.02-.156-1.458s-.282-.813-.534-1.13-.59-.563-1-.736-.948-.26-1.58-.26c-.218 0-.443.022-.676.067a4.58 4.58 0 0 0-.572.141h0V31.83l-2.212.357v11.185h2.212zm10.29.208c.277 0 .554-.015.83-.045l.78-.112c.242-.045.463-.097.66-.156a3.05 3.05 0 0 0 .475-.178h0l-.297-1.8c-.247.11-.567.2-.958.275a6.38 6.38 0 0 1-1.195.112c-.633 0-1.138-.134-1.514-.402a1.47 1.47 0 0 1-.638-1.086h5.018l.03-.41.015-.424c0-1.32-.322-2.318-.965-2.997s-1.52-1.02-2.628-1.02c-.475 0-.938.09-1.388.268a3.49 3.49 0 0 0-1.195.788c-.346.347-.626.78-.84 1.3s-.32 1.128-.32 1.822c0 .575.082 1.11.245 1.606s.416.925.757 1.287.772.647 1.292.855 1.13.312 1.834.312zm1.07-4.908h-2.925c.03-.188.077-.374.14-.558s.156-.345.275-.483a1.32 1.32 0 0 1 .445-.335c.178-.084.39-.126.638-.126.257 0 .473.045.646.134s.317.203.43.342.198.297.252.476a2.29 2.29 0 0 1 .097.55h0zm-49.603 16.53V50.95h4.068V49h-4.068v-2.157h4.573v-1.948h-6.89v10.307h2.316zm9.1.178c.653 0 1.277-.047 1.87-.14l1.455-.305V47.38h-2.212v6.04l-.475.052-.505.022c-.515 0-.866-.16-1.054-.476s-.282-.833-.282-1.547h0v-4.1h-2.212v4.358a6.21 6.21 0 0 0 .163 1.472c.11.446.292.83.55 1.153s.606.573 1.047.75.992.268 1.655.268zm8.418 0c.475 0 .876-.04 1.203-.12s.624-.174.89-.283h0l-.312-1.725c-.208.08-.438.14-.7.186a4.22 4.22 0 0 1-.735.067c-.495 0-.824-.14-.987-.416s-.245-.65-.245-1.115h0v-2.752h2.658V47.38H48.33v-2.305l-2.212.357v6.574c0 .506.047.967.14 1.383s.26.77.497 1.063.554.52.95.684.896.245 1.5.245zm6.92 0c.653 0 1.277-.047 1.87-.14l1.455-.305V47.38h-2.212v6.04l-.475.052-.505.022c-.515 0-.866-.16-1.054-.476s-.282-.833-.282-1.547h0v-4.1H52.7v4.358a6.21 6.21 0 0 0 .163 1.472c.11.446.292.83.55 1.153s.606.573 1.047.75.992.268 1.655.268zm7.616-.178v-5.98c.1-.03.245-.057.438-.082a3.99 3.99 0 0 1 .497-.037c.307 0 .594.027.86.082l.698.156.37-1.83a2.37 2.37 0 0 0-.431-.126l-.505-.09-.505-.06-.43-.022a8.07 8.07 0 0 0-1.804.186l-1.403.394v7.407h2.212zm7.66.208c.277 0 .554-.015.83-.045l.78-.112c.242-.045.463-.097.66-.156a3.05 3.05 0 0 0 .475-.178h0l-.297-1.8c-.247.11-.567.2-.958.275a6.38 6.38 0 0 1-1.195.112c-.633 0-1.138-.134-1.514-.402a1.47 1.47 0 0 1-.638-1.086h5.018l.03-.41.015-.424c0-1.32-.322-2.318-.965-2.997s-1.52-1.02-2.628-1.02c-.475 0-.938.09-1.388.268a3.49 3.49 0 0 0-1.195.788c-.346.347-.626.78-.84 1.3s-.32 1.128-.32 1.822c0 .575.082 1.11.245 1.606s.416.925.757 1.287.772.647 1.292.855 1.13.312 1.834.312zm1.07-4.908h-2.925c.03-.188.077-.374.14-.558s.156-.345.275-.483a1.32 1.32 0 0 1 .445-.335c.178-.084.39-.126.638-.126.257 0 .473.045.646.134s.317.203.43.342.198.297.252.476a2.29 2.29 0 0 1 .097.55h0z"/><g transform="translate(34.238 181.237)"><path d="M4.54 9.464c.533 0 1.03-.084 1.495-.25s.863-.416 1.2-.747.6-.74.794-1.232.3-1.06.3-1.706-.1-1.215-.296-1.706-.467-.903-.81-1.237a3.34 3.34 0 0 0-1.205-.752c-.46-.167-.95-.25-1.468-.25-.504 0-.984.084-1.44.25s-.858.418-1.205.752-.623.747-.827 1.237S.762 4.882.762 5.53s.1 1.215.296 1.706a3.49 3.49 0 0 0 .811 1.232c.343.33.745.58 1.205.747s.95.25 1.468.25zm0-1.493c-.32 0-.606-.058-.854-.174s-.458-.282-.63-.496-.303-.47-.394-.77-.137-.632-.137-1.003c0-.363.046-.696.137-.997a2.28 2.28 0 0 1 .394-.774 1.8 1.8 0 0 1 .63-.501c.248-.12.533-.18.854-.18.314 0 .597.058.85.174a1.73 1.73 0 0 1 .635.496 2.28 2.28 0 0 1 .394.774c.09.302.137.638.137 1.008s-.046.705-.137 1.003-.223.554-.394.77a1.73 1.73 0 0 1-.635.496c-.252.116-.535.174-.85.174zm6.725 1.34V4.93a2.17 2.17 0 0 1 .323-.06 2.96 2.96 0 0 1 .367-.027c.226 0 .438.02.635.06l.515.114.274-1.34a1.76 1.76 0 0 0-.318-.093l-.372-.065-.372-.044L12 3.458c-.49 0-.933.045-1.33.136l-1.035.29v5.43h1.632zm4.918 2.05c1 0 1.74-.227 2.218-.68s.717-1.15.717-2.087h0V3.774l-.498-.125-.586-.104-.62-.07-.608-.027c-.46 0-.873.067-1.238.202s-.674.325-.926.572-.444.543-.575.888a3.21 3.21 0 0 0-.197 1.15c0 .843.212 1.5.635 1.968s1.033.703 1.83.703c.22 0 .422-.02.608-.06s.367-.1.542-.18h0v.207c0 .32-.097.58-.3.785s-.524.305-.99.305c-.358 0-.677-.03-.958-.087a4.8 4.8 0 0 1-.805-.24h0l-.285 1.363a6.58 6.58 0 0 0 .975.245 6.05 6.05 0 0 0 1.052.093zm.46-3.74c-.738 0-1.106-.454-1.106-1.363 0-.436.106-.796.318-1.08s.533-.425.964-.425l.383.016.285.038v2.594c-.102.058-.226.11-.372.153a1.64 1.64 0 0 1-.471.065zm6.1 1.8c.59 0 1.095-.035 1.512-.104l.975-.18V5.77a3.64 3.64 0 0 0-.12-.97 1.72 1.72 0 0 0-.411-.741c-.194-.203-.45-.36-.772-.47s-.723-.164-1.205-.164l-.564.027-.53.065-.466.087-.356.093.208 1.308c.197-.073.43-.13.7-.17s.544-.06.822-.06c.416 0 .708.084.876.25s.252.39.252.665h0v.153c-.102-.03-.235-.053-.4-.07s-.352-.027-.564-.027c-.314 0-.617.03-.91.093s-.55.162-.778.3-.407.323-.542.556-.203.516-.203.85c0 .35.058.643.175.883s.285.434.504.583.48.256.783.322.64.098 1.013.098zm.1-1.254c-.3 0-.535-.05-.706-.147s-.257-.274-.257-.53c0-.13.03-.24.088-.327a.61.61 0 0 1 .241-.207c.102-.05.22-.085.356-.104a3.25 3.25 0 0 1 .433-.027 3.31 3.31 0 0 1 .361.022l.296.044v1.232c-.088.015-.204.025-.35.033l-.46.01zm5.488 1.134V4.886l.35-.038.372-.016c.38 0 .64.11.778.327s.208.59.208 1.112h0v3.04h1.632V6.074c0-.392-.04-.75-.12-1.068s-.215-.596-.405-.828-.447-.412-.772-.54-.732-.19-1.22-.19c-.482 0-.942.035-1.38.104l-1.073.223v5.538h1.632zm5.63-6.43a1 1 0 0 0 .685-.256c.194-.17.3-.405.3-.703s-.097-.532-.3-.703a1 1 0 0 0-.685-.256 1 1 0 0 0-.685.256c-.194.17-.3.405-.3.703s.097.532.3.703a1 1 0 0 0 .685.256zm.822 6.43V3.578h-1.632v5.734h1.632zm5.915 0V7.96h-2.782l.706-.948.772-.937.717-.818.53-.59v-1.1h-4.58V4.93h2.454l-.646.78-.706.888-.68.9-.553.845v.96h4.765zm3.702.153a5.78 5.78 0 0 0 .613-.033l.575-.082c.18-.033.34-.07.487-.114a2.26 2.26 0 0 0 .351-.131h0l-.22-1.32a3.34 3.34 0 0 1-.706.202 4.74 4.74 0 0 1-.882.082c-.467 0-.84-.098-1.117-.294s-.434-.46-.47-.796h3.702l.022-.3.01-.31c0-.967-.237-1.7-.712-2.197s-1.12-.747-1.94-.747c-.35 0-.692.065-1.024.196s-.626.323-.882.578-.462.572-.62.954-.235.827-.235 1.335a3.72 3.72 0 0 0 .181 1.177c.12.363.307.678.56.943s.57.474.953.627.834.23 1.353.23zm.79-3.597h-2.158c.022-.138.057-.274.104-.41s.115-.253.203-.354.197-.183.33-.245a1.1 1.1 0 0 1 .471-.093c.2 0 .35.033.476.098a.99.99 0 0 1 .318.251c.084.102.146.218.186.35a1.67 1.67 0 0 1 .071.403h0zm4.47 3.445V4.93a2.17 2.17 0 0 1 .323-.06 2.96 2.96 0 0 1 .367-.027c.226 0 .438.02.635.06l.515.114.274-1.34a1.76 1.76 0 0 0-.318-.093l-.372-.065-.372-.044-.318-.016c-.49 0-.933.045-1.33.136l-1.035.29v5.43h1.632z"/></g></g></g></g><g filter="url(#G)" transform="translate(420 108)"><rect fill="#efefef" width="113" height="205" rx="13"/><g transform="translate(5 5)"><mask id="AY" class="F"><use xlink:href="#H"/></mask><use xlink:href="#H" class="F"/><rect x="7.464" y="162.252" width="87.326" height="19.351" rx="2" class="P f"/><g class="f E G"><g transform="translate(7 85)"><path d="M11.592 18.274V15.12H4.3V1.955H.594v16.32h10.998zm7.696.33c.934 0 1.778-.157 2.53-.47a5.56 5.56 0 0 0 1.936-1.331c.538-.573.95-1.264 1.235-2.072s.428-1.7.428-2.673-.15-1.86-.45-2.66-.72-1.484-1.26-2.05-1.184-1.005-1.936-1.32-1.58-.47-2.482-.47c-.887 0-1.706.157-2.46.47s-1.402.754-1.948 1.32-.974 1.248-1.283 2.05-.463 1.688-.463 2.66.15 1.864.45 2.673.72 1.5 1.26 2.072a5.56 5.56 0 0 0 1.936 1.331c.752.314 1.588.47 2.506.47zm0-3.014c-.808 0-1.433-.318-1.877-.954s-.665-1.495-.665-2.58.222-1.935.665-2.555 1.07-.93 1.877-.93 1.43.3 1.865.93.653 1.472.653 2.555-.218 1.943-.653 2.58-1.057.954-1.865.954zm14.42 3.014c.934 0 1.778-.157 2.53-.47a5.56 5.56 0 0 0 1.936-1.331c.538-.573.95-1.264 1.235-2.072s.428-1.7.428-2.673-.15-1.86-.45-2.66-.72-1.484-1.26-2.05-1.184-1.005-1.936-1.32-1.58-.47-2.482-.47c-.887 0-1.706.157-2.46.47s-1.402.754-1.948 1.32-.974 1.248-1.283 2.05-.463 1.688-.463 2.66.15 1.864.45 2.673.72 1.5 1.26 2.072a5.56 5.56 0 0 0 1.936 1.331c.752.314 1.588.47 2.506.47zm0-3.014c-.808 0-1.433-.318-1.877-.954s-.665-1.495-.665-2.58.222-1.935.665-2.555 1.07-.93 1.877-.93 1.43.3 1.865.93.653 1.472.653 2.555-.218 1.943-.653 2.58-1.057.954-1.865.954zm12.4 2.685v-5.416c.396.314.796.7 1.2 1.154l1.152 1.425 1.033 1.484.867 1.354h4.062l-.998-1.72-1.307-1.884-1.473-1.825c-.507-.59-.998-1.095-1.473-1.52l2.625-2.696 2.46-2.743H50.05l-.796.942-.986 1.142-1.08 1.213-1.08 1.177V0l-3.54.565v17.71h3.54zM58.08 4.38c.57 0 1.065-.184 1.485-.553s.63-.875.63-1.52-.2-1.15-.63-1.52S58.65.235 58.08.235 57.015.42 56.595.79s-.63.875-.63 1.52.2 1.15.63 1.52.915.553 1.485.553zm1.782 13.894V5.887h-3.54v12.387h3.54zm6.865 0v-9.56l.76-.082.808-.035c.823 0 1.386.235 1.687.706s.45 1.272.45 2.402h0v6.57h3.54V11.28c0-.848-.087-1.617-.26-2.308s-.467-1.287-.88-1.8-.97-.89-1.675-1.166-1.588-.412-2.65-.412c-1.045 0-2.043.075-2.993.224l-2.328.483v11.963h3.54zm14.87 4.427c2.17 0 3.773-.49 4.8-1.472s1.556-2.484 1.556-4.5h0V6.31l-1.08-.27-1.27-.224-1.342-.153-1.318-.06c-.998 0-1.892.145-2.684.436s-1.46.703-2.007 1.236a5.28 5.28 0 0 0-1.247 1.919c-.285.746-.428 1.574-.428 2.484 0 1.82.46 3.238 1.378 4.25s2.24 1.52 3.967 1.52c.475 0 .915-.043 1.318-.13a5.73 5.73 0 0 0 1.176-.389h0v.447c0 .69-.2 1.256-.63 1.696s-1.136.66-2.15.66c-.776 0-1.47-.063-2.08-.188a10.44 10.44 0 0 1-1.746-.518h0l-.618 2.944a14.31 14.31 0 0 0 2.114.53c.76.133 1.52.2 2.28.2zm.998-8.077c-1.6 0-2.4-.98-2.4-2.944 0-.942.23-1.72.69-2.33s1.156-.918 2.1-.918l.83.035.618.082v5.605a3.9 3.9 0 0 1-.808.33c-.317.094-.657.14-1.02.14zm-80.48 8.488c.57 0 1.065-.184 1.485-.553s.63-.875.63-1.52-.2-1.15-.63-1.52-.915-.553-1.485-.553-1.065.184-1.485.553-.63.875-.63 1.52.2 1.15.63 1.52.915.553 1.485.553zm1.782 13.894V24.62H.356v12.387h3.54zm6.865 0v-9.56l.76-.082.808-.035c.823 0 1.386.235 1.687.706s.45 1.272.45 2.402h0v6.57h3.54v-6.994c0-.848-.087-1.617-.26-2.308s-.467-1.287-.88-1.8-.97-.89-1.675-1.166-1.588-.412-2.65-.412c-1.045 0-2.043.075-2.993.224l-2.328.483v11.963h3.54zm15.274.283c.76 0 1.402-.063 1.924-.188s.998-.275 1.425-.447h0l-.5-2.732c-.333.126-.7.224-1.105.294a6.82 6.82 0 0 1-1.176.106c-.792 0-1.318-.22-1.58-.66s-.392-1.028-.392-1.766h0V27.54h4.252v-2.92h-4.252v-3.65l-3.54.565v10.41c0 .8.075 1.53.226 2.2s.416 1.22.796 1.684.887.824 1.52 1.083 1.433.39 2.4.39zm10.808.047c.934 0 1.778-.157 2.53-.47a5.56 5.56 0 0 0 1.936-1.331c.538-.573.95-1.264 1.235-2.072s.428-1.7.428-2.673-.15-1.86-.45-2.66-.72-1.484-1.26-2.05-1.184-1.005-1.936-1.32-1.58-.47-2.482-.47c-.887 0-1.706.157-2.46.47s-1.402.754-1.948 1.32-.974 1.248-1.283 2.05-.463 1.688-.463 2.66.15 1.864.45 2.673.72 1.5 1.26 2.072a5.56 5.56 0 0 0 1.936 1.331c.752.314 1.588.47 2.506.47zm0-3.014c-.808 0-1.433-.318-1.877-.954s-.665-1.495-.665-2.58.222-1.935.665-2.555 1.07-.93 1.877-.93 1.43.3 1.865.93.653 1.472.653 2.555-.218 1.943-.653 2.58-1.057.954-1.865.954zm19.384 2.967c.76 0 1.402-.063 1.924-.188s.998-.275 1.425-.447h0l-.5-2.732c-.333.126-.7.224-1.105.294a6.82 6.82 0 0 1-1.176.106c-.792 0-1.318-.22-1.58-.66s-.392-1.028-.392-1.766h0V27.54h4.252v-2.92h-4.252v-3.65l-3.54.565v10.41c0 .8.075 1.53.226 2.2s.416 1.22.796 1.684.887.824 1.52 1.083 1.433.39 2.4.39zm9.264-.283v-9.42l.748-.177a4.58 4.58 0 0 1 .891-.082c.792 0 1.334.235 1.627.706s.44 1.272.44 2.402h0v6.57h3.54v-6.994c0-.848-.083-1.617-.25-2.308a4.49 4.49 0 0 0-.855-1.79c-.404-.502-.942-.89-1.615-1.166s-1.516-.412-2.53-.412c-.348 0-.71.035-1.08.106a7.39 7.39 0 0 0-.915.224h0v-5.934l-3.54.565v17.71h3.54zm16.462.33c.443 0 .887-.024 1.33-.07l1.247-.177a10.02 10.02 0 0 0 1.057-.247c.317-.094.57-.188.76-.283h0l-.475-2.85c-.396.173-.907.318-1.532.436s-1.263.177-1.912.177c-1.014 0-1.82-.212-2.423-.636s-.942-.997-1.02-1.72h8.03l.048-.648.024-.67c0-2.088-.515-3.67-1.544-4.745S83.11 24.3 81.336 24.3c-.76 0-1.5.14-2.22.424s-1.358.7-1.912 1.248-1.002 1.236-1.342 2.06-.51 1.786-.51 2.885c0 .91.13 1.758.392 2.543s.665 1.464 1.21 2.037 1.235 1.024 2.067 1.354 1.81.495 2.934.495zm1.7-7.77h-4.68c.048-.298.123-.593.226-.883s.25-.546.44-.765a2.11 2.11 0 0 1 .713-.53c.285-.133.626-.2 1.02-.2.412 0 .756.07 1.033.212s.507.322.69.542a2.17 2.17 0 0 1 .404.754c.087.283.14.573.154.87h0zM4.3 55.74v-6.735h6.51V45.92H4.3v-3.415h7.316V39.42H.594v16.32H4.3zm14.562.283c1.045 0 2.043-.075 2.993-.224l2.328-.483V43.352h-3.54v9.56l-.76.082-.808.035c-.823 0-1.386-.25-1.687-.754s-.45-1.32-.45-2.45h0v-6.476h-3.54v6.9c0 .848.087 1.625.26 2.33s.467 1.315.88 1.825.97.907 1.675 1.19 1.588.424 2.65.424zm13.47 0c.76 0 1.402-.063 1.924-.188s.998-.275 1.425-.447h0l-.5-2.732c-.333.126-.7.224-1.105.294a6.82 6.82 0 0 1-1.176.106c-.792 0-1.318-.22-1.58-.66s-.392-1.028-.392-1.766h0v-4.357h4.252v-2.92h-4.252v-3.65l-3.54.565v10.41c0 .8.075 1.53.226 2.2s.416 1.22.796 1.684.887.824 1.52 1.083 1.433.39 2.4.39zm11.07 0c1.045 0 2.043-.075 2.993-.224l2.328-.483V43.352h-3.54v9.56l-.76.082-.808.035c-.823 0-1.386-.25-1.687-.754s-.45-1.32-.45-2.45h0v-6.476h-3.54v6.9c0 .848.087 1.625.26 2.33s.467 1.315.88 1.825.97.907 1.675 1.19 1.588.424 2.65.424zm12.186-.283v-9.467a4.72 4.72 0 0 1 .701-.13c.31-.04.574-.06.796-.06.49 0 .95.043 1.378.13l1.116.247.594-2.897c-.2-.078-.42-.145-.69-.2l-.808-.14-.808-.094-.69-.035c-1.06 0-2.023.098-2.886.294l-2.245.624V55.74h3.54zm12.257.33c.443 0 .887-.024 1.33-.07l1.247-.177a10.02 10.02 0 0 0 1.057-.247c.317-.094.57-.188.76-.283h0l-.475-2.85c-.396.173-.907.318-1.532.436s-1.263.177-1.912.177c-1.014 0-1.82-.212-2.423-.636s-.942-.997-1.02-1.72h8.03l.048-.648.024-.67c0-2.088-.515-3.67-1.544-4.745s-2.43-1.613-4.205-1.613c-.76 0-1.5.14-2.22.424s-1.358.7-1.912 1.248-1.002 1.236-1.342 2.06-.51 1.786-.51 2.885c0 .91.13 1.758.392 2.543s.665 1.464 1.21 2.037 1.235 1.024 2.067 1.354 1.81.495 2.934.495zm1.7-7.77h-4.68c.048-.298.123-.593.226-.883s.25-.546.44-.765a2.11 2.11 0 0 1 .713-.53c.285-.133.626-.2 1.02-.2.412 0 .756.07 1.033.212s.507.322.69.542a2.17 2.17 0 0 1 .404.754c.087.283.14.573.154.87h0z"/></g></g><g class="f"><g transform="translate(6.717 15)"><path d="M21.065 62.162V41.585H.001l.001.245C.19 52.976 9.404 61.977 20.815 62.16l.25.002z" class="d"/><path d="M21.256 20.576l-.254.002V0h21.064l-.001.245c-.187 11.145-9.4 20.146-20.81 20.33h0z" class="c"/><path d="M20.81 21.01l.254-.002v20.577H.001l.001-.245c.187-11.145 9.4-20.146 20.81-20.33h0z" class="P"/><ellipse transform="matrix(1 0 0 -1 0 103.745944)" cx="31.169" cy="51.873" rx="10.103" ry="10.289" class="e"/><path d="M21.287.003l.253-.002V20.84H0C0 9.445 9.498.187 21.287.003h0z" class="O"/></g></g></g><path d="M34 5a5 5 0 0 0 5 5h36a5 5 0 0 0 5-5h0-46z" fill="#efefef"/></g><g transform="translate(317 409)"><use filter="url(#J)" xlink:href="#I" class="G"/><use xlink:href="#I" class="F"/><rect x="16" y="14" width="57.5" height="6" rx="3" class="U"/><rect x="17" y="27" width="57.5" height="6" rx="3" class="J"/><g transform="translate(20 48)"><mask id="AZ" class="F"><use xlink:href="#K"/></mask><use fill="#0202d0" xlink:href="#K" class="E"/><g mask="url(#AZ)"><g transform="translate(-3 -2)"><path d="M38 0v38H0C0 17.12 16.586.337 37.55.003L38 0z" class="U"/><path d="M37.985 38.338v.256l14.45 34.588c-4.58 2.03-9.637 3.155-14.95 3.155C16.98 76.338.32 59.583-.01 38.785l-.003-.447h38z" class="O"/><path d="M38 1v37.256L52.517 73C66.308 67.354 76 54.005 76 38.437c0-20.47-16.756-37.103-37.554-37.433L38 1z" class="M"/></g></g></g><g transform="translate(103 48)"><mask id="Aa" class="F"><use xlink:href="#d" href="#K"/></mask><use fill="#0202d0" xlink:href="#d" class="E" href="#K"/><g mask="url(#Aa)"><g transform="translate(-2 -11)"><path d="M38 9v38H0C0 26.12 16.586 9.337 37.55 9.003L38 9z" class="H"/><path d="M37.985 47.338v.256l14.45 34.588c-4.58 2.03-9.637 3.155-14.95 3.155C16.98 85.338.32 68.583-.01 47.785l-.003-.447h38z" class="O"/><path d="M38 10.028V48l46.414-13.448C93.792-24.78 59.4 10.37 38.45 10.032l-.45-.004z" class="M"/></g></g></g><rect x="136" y="136" width="49" height="6" rx="3" class="O"/></g></g></svg>