<svg xmlns="http://www.w3.org/2000/svg" xmlns:xlink="http://www.w3.org/1999/xlink" width="1339" height="1388" xmlns:v="https://vecta.io/nano"><style><![CDATA[.B{stroke-linecap:round}.C{stroke-linejoin:round}.D{stroke-width:5.322}.E{stroke:#212121}.F{stroke-width:5.855}.G{fill:#001d71}.H{stroke:#001d71}.I{fill:#ff4445}.J{fill-rule:nonzero}]]></style><defs><rect id="A" x=".9" width="1065.6" height="653.4" rx="17.82"/><filter x="-10.2%" y="-10.0%" width="120.4%" height="133.2%" id="B"><feOffset dy="43" in="SourceAlpha"/><feGaussianBlur stdDeviation="29"/><feColorMatrix values="0 0 0 0 0 0 0 0 0 0.160784314 0 0 0 0 0.349019608 0 0 0 0.1 0"/></filter></defs><g fill="none" fill-rule="evenodd"><path d="M478.14 1272.668C446.436 1168.112 556.46 1033.248 636 1009c120.786-36.822 152.426 173.927 147 176-33.475 12.797-135.096 42.02-304.86 87.668z" class="G"/><path d="M729.674 1097.927c5.45 43.488-37.133 153.25-82.104 147.217-37.77-5.066-59.773-37.147-71.42-71.482C574.18 1167.856 545 1183 541 1156s27.836-10.042 27-15c-2.794-16.57-2.582-30.63-2.157-41.86.067-1.773 9.6-7.256 29.982-10.495 9.12-1.45 20.41-2.45 33.998-2.466 19.383-.025 41.04 1.88 59.218 4.186 5.228.663.444-48.057 4.96-47.365 4.596.705 18.476 50.82 22.047 51.48 8.388 1.547 13.553 2.862 13.626 3.447z" fill="#f2f4f6"/><path d="M668 1110c2.464 23.7 20 15.905 20 .08M669 1123l-6 8m15-5l-4 13m9-15l3 11" class="B C D E"/><path d="M653 1101c16.21 24.68 26.026 39.117 29.444 43.308 1.508 1.85 4.41 4.057 3.536 6.337-.804 2.094-19.898 3.677-21.576.287-.868-1.753-1.12-7.846-1.06-5.857.358 12.237 1.43 19.953 3.217 23.148" fill="#f5fff6" class="B C D H"/><g class="B C D E"><path d="M615.42 1110.7c-3.73 15.702 18.435 17.7 22.58-1.7m-20 13l-7 5"/><path d="M624.654 1123l-.3 9m7.656-10l3 7"/></g><path d="M652.977 1172.468c6.5.718 4.524 9.82 9.604 8.6 2.564-.615 4.7-3.453 7.312-2.985 3.948.7 9.424 4.23 16.427 10.556l-18.834 8.698c-11.845 5.708-48.1-14.568-56.495-22.15l29.712 9.52c46.29 6.64 36.387 3.466-29.712-9.52 11.465-6.353 35.485-3.436 41.986-2.72z" class="I"/><path d="M1319.153 939.123c-32.352-41.272-93.186-46.825-144.03-44.754s-68.03 14.45-93.493 54.43-19.786 71.142-5.286 100.66c7.256 14.772 20.272 27.36 36.773 37.392C1121.875 1092.178 1140 1095 1140 1134s23.145-26.588 34.33-24.378c56.014 11.067 119.512 1.746 149.257-34.762 28.255-34.68 10.585-90.107 2.388-125.79l-6.823-9.946z" fill="#0d62fe"/><path d="M947.153 882.123c-32.352-41.272-93.186-46.825-144.03-44.754s-68.03 14.45-93.493 54.43-19.786 71.142-5.286 100.66c7.256 14.772 20.272 27.36 36.773 37.392C749.875 1035.178 768 1038 768 1077s23.145-26.588 34.33-24.378c56.014 11.067 119.512 1.746 149.257-34.762 28.255-34.68 10.585-90.107 2.388-125.79l-6.823-9.946z" fill="#001c6c"/><path d="M213.384 1077.754c26.196 0 58.37-1.647 96.525-4.942l9.9-48.598h-42.9l3.3-70.838H42.61l-1.452 39.284C13.72 985.016 0 988.608 0 1003.435s12.278 23.675 36.834 26.545l8.25 37.9c86.004 6.6 142.104 9.884 168.3 9.884z" fill="#ffa300"/><path d="M179.588 952.487c-1.184 20.685 17.203 25.95 22.3 6.9 3.9-14.526-17.308-15.904-24-6.9m70.935-3.295c.36 4.402.094 8.9 1.078 13.205 4.27 18.676 27.6.556 15.225-15.048" fill="#212121"/><path d="M286.155 929.07c5.085 0-.932 45.388-4.125 54.497-4.05 11.553-13.61 9.06-23.925 9.06-3.278 0-6.092-.108-8.565-.393-5.37-6.5-12.733-13.962-20.5-20.102h0l1.152 6.71-.676-1.047-.804-1.3c-6.252 15.778-18.845 20.25-34.122 20.25-35.326 0-49.424-26.91-43.77-67.676h135.346zm-70.196 18.386h-47.727l-.015.234c-.69 11.187.86 19.508 4.34 25.023l.185.288.176.264c4.164 6.142 11.568 9.345 23.312 9.345 8.66 0 14.394-6.03 17.832-21.05l.1-.5c.568-2.67 1.125-6.756 1.654-12.192l.102-1.07.03-.345zm56.69 0h-35.354l.017.07c5.334 21.873 12.52 30.59 26.47 30.954l.425.008.5.003c.5 0 .76-.106 1.23-.553 1-.94 2.075-2.8 3.073-5.646 1.896-5.4 3.123-13.368 3.596-23.762l.045-1.074z" fill="#fb3640" class="J"/><path d="M234.53 982.03c16.595 13.102 31.305 32.176 28.784 35.322-3.3 4.118-15.235 4.966-18.15 3.295-2.342-1.343-1.284.477-1.284 15.834m-45.595-12.88c19.428 14.4 40.993 16.243 62.292 11.87" class="B C E F"/><g class="H B C F"><path d="M219.092 1060.6c4.162 16.64 13.984 27.125 24.384 41.052m-7.396-42.864c11.363 35.943 8.837 20.612 11.415 45.194m2.725-42.604c3.396 34.945 2.983 20.413 2.983 43.512m12.06-43.512l-7.782 47.785m18.3-46.49c-.934 16.94-5.402 30.446-13.88 45.063m25.423-46.75c-1.55 16.523-6.262 32.438-17.38 45.325"/><path d="M293.67 1078.72c-13.737 18.403-15.397 24.042-35.93 28.878"/></g><path d="M199.674 1017.585c-1.244 3.34-3.72 6.634-7.844 6.824" class="B C E F"/><path d="M1155.458 183.07C1024.166 15.625 777.294-6.904 570.958 1.5S294.882 60.125 191.545 222.33s-80.294 288.633-21.45 408.397c29.447 59.933 82.268 111.01 149.23 151.705 35.543 21.6 88.806 49.28-61.347 93.91s264.37-10.5 309.763-1.534c227.317 44.9 485 7.085 605.713-141.033 114.665-140.698 42.956-365.575 9.7-510.353l-27.687-40.35z" fill="#0d62fe"/><path d="M983.142 1249.815c-1.5-26.347 21.8-33.052 28.26-8.8 4.928 18.502-21.933 20.257-30.4 8.8" fill="#212121"/><path d="M1017.432 1169.968c8.98 0 18.1.65 27.356 1.948l1.737.25c3.665.545 6.56 3.393 7.16 7.046 2.742 16.663 3.852 33.64 3.332 50.934 2.413 1.752 5.596 1.35 9.55-1.202-.434-16.88.688-33.456 3.366-49.732.585-3.557 3.344-6.35 6.872-7l.288-.048 1.737-.25c9.257-1.3 18.376-1.948 27.356-1.948l2.11.01c11.795.108 35.638 1.064 71.53 2.866 3.81.19 7.136 2.62 8.486 6.165l.105.3.353 1.04c5.36 15.976 8.04 33.823 8.04 53.543 0 18.816-2.497 35.197-7.5 49.145-1.767 4.937-6.367 8.284-11.6 8.47l-.334.008-5.137.042c-10.095.066-19.113.03-27.057-.106l-4.58-.08-56.143-.02c-6.104.035-11.366-4.24-12.6-10.182l-.062-.32-.292-1.634c-1.456-8.29-2.606-16.887-3.45-25.794-4.092-4.4-8.298-4.74-12.617-1.023-1.175 10.682-2.967 21.337-5.375 31.968l-.413 1.796c-1.31 5.617-6.22 9.662-11.99 9.874l-25.545.906-29.112.85-3.727.068-28.5.07-2.58-.023c-5.34-.05-10.088-3.41-11.907-8.43-6.335-17.474-9.502-36.002-9.502-55.585 0-19.72 2.68-37.567 8.04-53.543l.353-1.04c1.276-3.703 4.677-6.258 8.59-6.455l12.105-.598 61.535-2.278zm-10.78 10.106l-1.677.063c-10.665.44-25.613 1.814-44.842 4.12l-3.127.378a4.27 4.27 0 0 0-3.726 3.841l-.244 2.62c-3.882 42.53-2.7 72.016 3.575 88.46 2.78 7.297 30.108 8.367 81.984 3.21l.47-3.98c2.766-23.872 4-41.383 3.702-52.534l-.013-.455c-.364-11.728-1.75-26.255-4.157-43.58-9.416-1.823-20.063-2.536-31.942-2.14zm98.324 1l-1.15-.035c-11.15-.31-17.418.408-18.803 2.156l-.322 2.325c-2.208 16.158-3.486 29.787-3.833 40.887l-.028 1.073c-.255 11.617 1.052 28.675 3.922 51.174 53.966 2.993 82.338.87 85.116-6.364 6.374-16.6 6.568-44.27.582-83.005a4.25 4.25 0 0 0-3.818-3.579l-9.448-.85c-24.62-2.184-42.025-3.444-52.217-3.782z" fill="#f3a712"/><path d="M1032.375 1182.52l194.25 13.53c1.9 7.445 2.96 45.128 3.182 113.05l-3.182 71.112c-66.5 9.52-152.25 9.52-257.25 0-3.465-65.486 17.082-130.727 61.642-195.722l1.358-1.97z" fill="#fb3640"/><g class="E B C D"><path d="M1123 1359.7c20.95-9.986 31.325-8.537 51.252 2.516M972 1332.516c20.95 9.986 31.325 8.537 51.252-2.516"/><path d="M1043.935 1186c-.215 12.262-7.018 58.715 6.237 76.594 32.545 43.898 115.948 97.93 165.828 51.736"/><path d="M1049.38 1287.306c3.16-8.323 5.434-15.533 15.343-20.922 5.495-2.99 12.626-1.964 18.752-.698 5.262 1.087 10.542 3.637 14.26 7.516 16.62 17.346 1.243 43.32-18.91 46.65-7.4 1.222-27.04 3.848-31.383-6.5" class="I"/><path d="M1096 1190c15.666 46.232 31.98 83.602 75.24 106.822 14.95 8.025 49.843 26.862 64.76 8.18M1161 1182c10.944 51.387 25.84 109.575 80 119"/></g><g transform="translate(66 87)"><use fill="#000" filter="url(#B)" xlink:href="#A"/><use fill="#fff" xlink:href="#A"/><path d="M119.782 554.447l-14.682 9.155L92.918 544.6c-.132-.206-.353-.303-.52-.468l3.38-3.516c.683-.707.683-1.868 0-2.575l-4.537-4.717c-.68-.7-1.8-.7-2.483 0l-4.537 4.717c-.683.707-.683 1.868 0 2.575l3.38 3.516c-.17.165-.387.262-.52.468l-12.184 18.992-14.68-9.155c-1.217-.758-2.757-.682-3.898.196s-1.658 2.384-1.315 3.814l7.018 29.18c.392 1.62 1.797 2.763 3.408 2.763h49.138c1.61 0 3.017-1.142 3.406-2.763l7.02-29.18c.345-1.43-.176-2.934-1.315-3.814s-2.68-.954-3.898-.196z" fill="#ff9d00"/><path d="M193.29 84.6c-77.425 0-140.19 62.766-140.19 140.19s62.766 140.19 140.19 140.19 140.19-62.766 140.19-140.19S270.717 84.6 193.29 84.6z" fill="#06f" class="J"/><path d="M74.754 321.15C50.5 241.072 134.646 137.78 195.47 119.2c92.365-28.202 116.56 133.208 112.412 134.797-25.6 9.8-103.308 32.183-233.13 67.144z" class="G"/><path d="M267.103 187.32c4.168 33.307-28.396 117.37-62.785 112.752-28.883-3.88-45.71-28.45-54.616-54.747-1.506-4.447-23.82 7.15-26.88-13.527s21.286-7.69 20.647-11.488c-2.136-12.692-1.975-23.46-1.65-32.06.05-1.358 7.34-5.557 22.927-8.038 6.974-1.1 15.608-1.876 25.998-1.89 14.822-.02 31.383 1.44 45.284 3.206 3.998.508.34-36.806 3.793-36.276 3.515.54 14.128 38.923 16.86 39.428 6.414 1.185 10.364 2.192 10.42 2.64z" fill="#f2f4f6"/><path d="M219.942 196.565c1.884 18.15 15.294 12.182 15.294.06m-14.53 9.897l-4.588 6.127m11.472-3.83l-3.06 9.957m6.882-11.5l2.294 8.425" class="B C D E"/><path d="M208.47 189.672c12.397 18.903 19.902 29.96 22.516 33.17 1.153 1.416 3.373 3.107 2.704 4.853-.615 1.604-15.216 2.816-16.5.22-.664-1.342-.856-6.01-.812-4.486.274 9.372 1.094 15.282 2.46 17.73" fill="#f5fff6" class="B C D H"/><g class="B C D E"><path d="M179.734 197.093C176.88 209.12 193.83 210.64 197 195.8m-15.294 9.956l-5.353 3.83"/><path d="M186.795 206.52l-.236 6.893m5.853-7.657l2.294 5.36"/></g><path d="M208.453 244.408c4.97.55 3.46 7.52 7.344 6.587 1.96-.47 3.602-2.644 5.59-2.286 3.02.544 7.207 3.24 12.562 8.084l-14.402 6.662c-9.058 4.37-36.783-11.158-43.202-16.965l22.72 7.292c35.4 5.085 27.825 2.654-22.72-7.292 8.767-4.866 27.136-2.632 32.107-2.082z" class="I"/><rect fill="#0064ff" x="391.5" y="228.6" width="437.4" height="52.2" rx="12.51"/><g fill="#f4f2ee"><rect x="144.9" y="538.2" width="361.8" height="52.2" rx="12.51"/><rect x="391.5" y="324" width="333" height="52.2" rx="12.51"/><rect x="389.7" y="406.8" width="374.4" height="52.2" rx="12.51"/></g><rect x="391.5" y="145.8" width="511.2" height="52.2" rx="12.51" class="G"/></g></g></svg>