<svg xmlns="http://www.w3.org/2000/svg" xmlns:xlink="http://www.w3.org/1999/xlink" width="600" height="600" xmlns:v="https://vecta.io/nano"><style><![CDATA[.B{fill:#fff}.C{fill:#0064ff}.D{stroke:#f4f2ee}.E{mask:url(#I)}.F{stroke-width:1.2}.G{fill-rule:nonzero}.H{fill:#ff0034}.I{fill:#f4f2ee}]]></style><defs><filter x="-7.2%" y="-2.9%" width="114.4%" height="105.8%" id="A"><feOffset dy="1" in="SourceAlpha"/><feGaussianBlur stdDeviation="2"/><feColorMatrix values="0 0 0 0 0 0 0 0 0 0.160784314 0 0 0 0 0.349019608 0 0 0 0.1 0" result="C"/><feMerge><feMergeNode in="C"/><feMergeNode in="SourceGraphic"/></feMerge></filter><filter x="-10.4%" y="-21.3%" width="120.8%" height="142.6%" id="B"><feOffset dy="7" in="SourceAlpha"/><feGaussianBlur stdDeviation="7"/><feColorMatrix values="0 0 0 0 0 0 0 0 0 0.164542109 0 0 0 0 0.362271488 0 0 0 0.1 0" result="C"/><feMerge><feMergeNode in="C"/><feMergeNode in="SourceGraphic"/></feMerge></filter><path id="C" d="M0 .012h388.686v188H0z"/><filter x="-10.7%" y="-21.2%" width="121.4%" height="142.3%" id="D"><feOffset dy="7" in="SourceAlpha"/><feGaussianBlur stdDeviation="7"/><feColorMatrix values="0 0 0 0 0 0 0 0 0 0.164542109 0 0 0 0 0.362271488 0 0 0 0.1 0" result="C"/><feMerge><feMergeNode in="C"/><feMergeNode in="SourceGraphic"/></feMerge></filter><filter x="-6.2%" y="-19.5%" width="112.4%" height="139.0%" id="E"><feOffset dy="4" in="SourceAlpha"/><feGaussianBlur stdDeviation="4"/><feColorMatrix values="0 0 0 0 0 0 0 0 0 0.164542109 0 0 0 0 0.362271488 0 0 0 0.1 0" result="C"/><feMerge><feMergeNode in="C"/><feMergeNode in="SourceGraphic"/></feMerge></filter><filter x="-40.6%" y="-38.2%" width="181.2%" height="176.5%" id="F"><feOffset dy="1" in="SourceAlpha"/><feGaussianBlur stdDeviation="1"/><feColorMatrix values="0 0 0 0 0 0 0 0 0 0 0 0 0 0 0 0 0 0 0.3 0" result="C"/><feMerge><feMergeNode in="C"/><feMergeNode in="SourceGraphic"/></feMerge></filter><path id="G" d="M81.85 233.37l.914 2.743-2.743-1.83-2.743 1.83.914-2.743-1.83-1.83h2.743l.914-2.743.914 2.743h2.743l-1.83 1.83zm-1.42 7.868a.91.91 0 0 0-.817 0l-2.076 1.038.416-2.705c.594.413 1.307.656 2.07.656h.001c.76 0 1.474-.24 2.068-.655l.416 2.703-2.076-1.038zm5.913-8.326c.652-1.115.674-2.507.01-3.656-.646-1.12-1.856-1.817-3.157-1.817h-.015c-.64-1.125-1.835-1.84-3.162-1.84a3.63 3.63 0 0 0-3.162 1.841h-.014c-1.303 0-2.513.696-3.16 1.816-.663 1.15-.64 2.54.013 3.657-.653 1.118-.676 2.5-.013 3.657a3.65 3.65 0 0 0 2.606 1.771l-.83 5.404c-.052.338.09.677.365.878s.643.232.947.08l3.248-1.625 3.248 1.625a.92.92 0 0 0 .409.096c.2 0 .38-.06.54-.176.276-.2.417-.54.365-.878l-.83-5.404a3.65 3.65 0 0 0 2.604-1.771c.665-1.148.642-2.54-.01-3.658h0z"/><path id="H" d="M0 5.897h11.79v-1.18H0z"/></defs><g fill="none" fill-rule="evenodd"><g filter="url(#A)" transform="translate(26 31)"><g class="B D F"><rect width="48" height="48" rx="3.6"/><rect y="52.8" width="48" height="48" rx="3.6"/><rect x="56.4" y="52.8" width="48" height="48" rx="3.6"/><rect y="105.6" width="48" height="48" rx="3.6"/><rect x="56.4" y="105.6" width="48" height="48" rx="3.6"/><rect y="158.4" width="48" height="48" rx="3.6"/><rect x="56.4" y="158.4" width="48" height="48" rx="3.6"/><rect y="211.2" width="48" height="48" rx="3.6"/><rect x="56.4" y="211.2" width="48" height="48" rx="3.6"/><rect y="286.8" width="48" height="48" rx="3.6"/><rect x="56.4" y="286.8" width="48" height="48" rx="3.6"/><rect y="345.6" width="48" height="48" rx="3.6"/><rect x="56.4" y="345.6" width="48" height="48" rx="3.6"/><rect x="111.6" y="52.8" width="48" height="48" rx="3.6"/><rect x="111.6" y="105.6" width="48" height="48" rx="3.6"/><rect x="111.6" y="158.4" width="48" height="48" rx="3.6"/><rect x="111.6" y="211.2" width="48" height="48" rx="3.6"/><rect x="111.6" y="286.8" width="48" height="48" rx="3.6"/><rect x="111.6" width="48" height="48" rx="3.6"/></g><g transform="translate(56.4)"><rect width="48" height="48" rx="3.6" class="B D F"/><path d="M26.073 19.636v-4.364l4.364 4.364h-4.364zm-7.855 11.345l2.618-3.49 1.745 1.745 3.49-4.364 2.618 6.11H18.218zm2.182-9.6c1.203 0 2.182.977 2.182 2.182s-.978 2.182-2.182 2.182a2.18 2.18 0 1 1 0-4.364h0zm6.907-6.982h-9.96a1.75 1.75 0 0 0-1.745 1.745v15.71a1.75 1.75 0 0 0 1.745 1.745h12.218a1.75 1.75 0 0 0 1.745-1.745V18.402L27.307 14.4z" class="C"/></g><g class="C"><path d="M127.2 14.4h16.457v2.966h-6.463V33.6h-3.56V17.366H127.2z"/><path d="M34.8 75.6H13.2V78h21.6z"/><g transform="translate(14.4 120)"><path d="M16.168 5.76H3.032V2.88h13.137v2.88zm0 4.8h-6.063V8.64h6.063v1.92zm0 2.88h-6.063v-1.92h6.063v1.92zm0 2.88h-6.063V14.4h6.063v1.92zm-7.074-5.76H3.032V8.64h6.063v1.92zm0 2.88H3.032v-1.92h6.063v1.92zm0 2.88H3.032V14.4h6.063v1.92zM1.01 0C.453 0 0 .43 0 .96v17.28c0 .53.453.96 1.01.96h17.18c.558 0 1.01-.43 1.01-.96V.96c0-.53-.453-.96-1.01-.96H1.01z"/></g><path d="M85.66 139.038l-5.24-3.493-5.24 3.493a.96.96 0 0 1-1.459-1.065l1.768-6.19-4.41-4.41a.96.96 0 0 1-.209-1.048c.15-.36.5-.595.89-.595h5.178l2.62-5.24c.326-.65 1.396-.65 1.722 0l2.62 5.24h5.178c.39 0 .74.235.89.595a.96.96 0 0 1-.209 1.048l-4.41 4.41 1.768 6.19a.96.96 0 0 1-.925 1.227c-.186 0-.37-.054-.534-.162z"/><g transform="translate(13.2 172.8)"><path d="M5.36 4.436l-1.393-1.18C5.703 1.187 8.245 0 10.94 0A9.09 9.09 0 0 1 17.9 3.243l-1.39 1.18a7.28 7.28 0 0 0-5.57-2.596c-2.155 0-4.19.95-5.58 2.608"/><path d="M13.856 6.95c-.696-.93-1.76-1.465-2.917-1.465A3.61 3.61 0 0 0 8.023 6.95l-1.458-1.1c1.028-1.374 2.662-2.193 4.373-2.193 1.738 0 3.332.8 4.375 2.196L13.856 6.95z"/><path d="M3.644 17.37c0-.642.116-1.255.32-1.83h-.926C1.36 15.543 0 16.603 0 18.286v.914h3.644v-1.83z"/><path d="M6.917 12.35c.001-1.27-1.02-2.294-2.278-2.294s-2.277 1.023-2.277 2.286c0 1.18.894 2.14 2.036 2.262.58-.993 1.46-1.787 2.518-2.254"/><path d="M5.467 19.2H16.4v-1.83c0-1.752-1.23-3.212-2.867-3.57-.738.517-1.633.827-2.6.827s-1.86-.31-2.6-.827c-1.638.357-2.867 1.818-2.867 3.57v1.83z"/><path d="M13.667 10.057a2.74 2.74 0 0 1-2.733 2.743 2.74 2.74 0 1 1 0-5.486 2.74 2.74 0 0 1 2.733 2.743"/><path d="M18.07 10.165a2.26 2.26 0 0 0-2.258 2.263c0 .032.008.062.01.093.976.472 1.787 1.227 2.33 2.162 1.21-.044 2.178-1.033 2.178-2.255a2.26 2.26 0 0 0-2.26-2.263"/><path d="M19.126 15.812H18.07c.232.53.363 1.1.363 1.694V19.2h4.154v-.847c0-1.56-1.55-2.54-3.462-2.54"/></g><g transform="translate(126 120)"><path d="M15.36 11.52c-1.152 0-2.175.52-2.88 1.327l-4.887-2.444c.056-.26.087-.527.087-.803s-.032-.543-.087-.803l4.887-2.444c.705.806 1.728 1.327 2.88 1.327 2.118 0 3.84-1.722 3.84-3.84S17.478 0 15.36 0s-3.84 1.722-3.84 3.84c0 .276.032.543.087.803L6.72 7.087C6.015 6.28 4.992 5.76 3.84 5.76 1.722 5.76 0 7.482 0 9.6s1.722 3.84 3.84 3.84c1.152 0 2.175-.52 2.88-1.327l4.887 2.444c-.056.26-.087.527-.087.803 0 2.118 1.722 3.84 3.84 3.84s3.84-1.722 3.84-3.84-1.722-3.84-3.84-3.84"/></g><path d="M10.803 301.2c-.665 0-1.203.53-1.203 1.2v16.533c0 .815.637 1.477 1.422 1.477H36.61c.786 0 1.422-.662 1.422-1.477V302.4a1.2 1.2 0 0 0-1.203-1.19H10.803z"/><path d="M78.794 301.2v19.2H67.422c-.785 0-1.422-.662-1.422-1.477h0V302.4c0-.66.54-1.2 1.204-1.2h11.6zm14.433 0c.67 0 1.204.533 1.204 1.2h0v16.533c0 .815-.637 1.477-1.422 1.477h0-11.372v-19.2z"/><path d="M140.4 301.2v19.2h-8.86v-19.2h8.86zm-11.815 0v19.2h-5.908a1.48 1.48 0 0 1-1.477-1.477h0V302.4c0-.66.54-1.2 1.203-1.2h6.182zm20.95 0c.672 0 1.203.533 1.203 1.2h0v16.533a1.48 1.48 0 0 1-1.477 1.477h0-5.908v-19.2z"/><path d="M16.985 360v19.2h-5.908a1.48 1.48 0 0 1-1.477-1.477h0V361.2c0-.66.54-1.2 1.203-1.2h6.182zm20.953 0c.667 0 1.2.533 1.2 1.2h0v16.533a1.48 1.48 0 0 1-1.477 1.477h0-17.723V360z"/><path d="M83.723 360v19.2H67.477A1.48 1.48 0 0 1 66 377.723h0V361.2a1.19 1.19 0 0 1 1.19-1.19h16.533zm10.62 0a1.19 1.19 0 0 1 1.195 1.19h0v16.533a1.48 1.48 0 0 1-1.477 1.477h0-7.385V360z"/><g transform="translate(14.4 14.4)"><path d="M0 2.024h20.21V.003H0z"/><path d="M0 6.066h20.21v-2.02H0z"/><path d="M0 10.108h20.21v-2.02H0z"/><path d="M0 14.15h20.21v-2.02H0z"/><path d="M0 18.193h14.147v-2.02H0z"/></g><g transform="translate(73.2 67.2)"><path d="M12.668 11.54l-4.028-.805V6.72a.96.96 0 0 0-.96-.96H5.76a.96.96 0 0 0-.96.96v4.8H2.88a.96.96 0 0 0-.859 1.39l2.88 5.76a.96.96 0 0 0 .859.53h6.72a.96.96 0 0 0 .96-.96v-5.76a.96.96 0 0 0-.772-.941"/><path d="M2.88 7.68H0V5.76h2.88z"/><path d="M3.326 4.684L1.3 2.648 2.647 1.29l2.036 2.036z"/><path d="M5.76 0h1.92v2.88H5.76z"/><path d="M8.756 3.326L10.793 1.3l1.357 1.357-2.037 2.037z"/><path d="M10.56 5.76h2.88v1.92h-2.88z"/></g><path d="M139.724 78.17h3.66v-3.657h-3.66v3.657zm-5.49 0h3.66v-3.657h-3.66v3.657zm0 5.485h3.66V80h-3.66v3.657zm-5.49-5.485h3.66v-3.657h-3.66v3.657zm0 5.485h3.66V80h-3.66v3.657zM144.3 69.03h-1.83V67.2h-1.83v4.57h-1.83V69.03h-5.5V67.2h-1.83v4.57h-1.83V69.03h-1.83a1.83 1.83 0 0 0-1.83 1.829V84.57a1.83 1.83 0 0 0 1.83 1.829h16.47c1.01 0 1.83-.82 1.83-1.83V70.857a1.83 1.83 0 0 0-1.83-1.829z"/><g transform="translate(68.4 172.8)"><path d="M18.432 6.776h-4.608v-1.13h4.608v1.13zm2.304 3.388h-6.912v-1.13h6.912v1.13zm0 3.388h-6.912v-1.13h6.912v1.13zM9.216 6.776H4.608v-1.13h4.608v1.13zm0 3.388H2.303v-1.13h6.913v1.13zm0 3.388H2.303v-1.13h6.913v1.13zM21.888 0h-8.064c-.305 0-.598.12-.814.33l-1.5 1.46-1.5-1.46C9.814.12 9.52 0 9.216 0H1.152C.516 0 0 .506 0 1.13v14.682c0 .623.516 1.13 1.152 1.13H8.74l1.966 1.928a1.16 1.16 0 0 0 1.629 0L14.3 16.94h7.587c.636 0 1.152-.506 1.152-1.13V1.13c0-.623-.516-1.13-1.152-1.13h0z"/></g><g transform="translate(126 172.8)"><path d="M1.92 4.8h15.36v2.88H1.92V4.8zm15.36-1.92h-1.92V0h-1.92v2.88H5.76V0H3.84v2.88H1.92C.86 2.88 0 3.742 0 4.8v12.48c0 1.06.86 1.92 1.92 1.92h15.36c1.06 0 1.92-.86 1.92-1.92V4.8c0-1.058-.86-1.92-1.92-1.92h0z"/></g><use xlink:href="#G"/><path d="M19.324 230.234v4.655c0 2.914 2.223 5.276 4.966 5.276s4.966-2.362 4.966-5.276v-4.655h1.324v4.966c0 3.136-2.295 5.735-5.296 6.212l-.001 2.063 1.987.001c.686 0 1.25.52 1.317 1.19l.007.135h-8.607c0-.73.593-1.324 1.324-1.324l1.986-.001v-2.063C20.294 240.935 18 238.336 18 235.2v-4.966h1.324zm8.607.662v4.303a3.64 3.64 0 1 1-7.283 0v-4.303h7.283zM24.3 225.6a3.64 3.64 0 0 1 3.641 3.641v.993h-7.283v-.993a3.64 3.64 0 0 1 3.641-3.641z" class="G"/><g transform="translate(126 225.6)"><path d="M2.133 2.133h2.133v.625L3.2 3.825 2.133 2.758v-.625zm14.933.625L16 3.825l-1.067-1.067v-.625h2.133v.625zm-5.333 1.067l-1.067-1.067v-.625H12.8v.625l-1.067 1.067zm-4.267 0L6.4 2.758v-.625h2.133v.625L7.467 3.825zM2.133 9.587h2.133V5.775l1.067-1.067 1.38 1.38c.417.417 1.09.417 1.508 0l1.38-1.38 1.38 1.38c.417.417 1.09.417 1.508 0l1.38-1.38 1.067 1.067v3.812h2.133V5.775l1.82-1.82A1.06 1.06 0 0 0 19.2 3.2V1.067C19.2.478 18.722 0 18.133 0H1.067C.478 0 0 .478 0 1.067V3.2c0 .284.113.555.313.754l1.82 1.82v3.812z"/><path d="M0 10.667V12.8h2.133v5.328c0 .59.478 1.067 1.067 1.067H16c.59 0 1.067-.478 1.067-1.067V12.8H19.2v-2.133H0z"/></g></g></g><g filter="url(#B)" transform="translate(176 53)"><g transform="translate(0 .36)"><mask id="I" class="B"><use xlink:href="#C"/></mask><use xlink:href="#C" class="B"/><g class="G E"><path d="M50.065 93.88v-5.188H38.178V67.047h-6.04V93.88h17.927zm12.545.542c1.523 0 2.898-.258 4.124-.774a9.06 9.06 0 0 0 3.156-2.188c.878-.942 1.55-2.078 2.013-3.407s.697-2.794.697-4.395-.245-3.06-.736-4.375-1.175-2.44-2.052-3.37-1.93-1.652-3.156-2.168-2.575-.774-4.046-.774c-1.446 0-2.78.258-4.008.774a9.39 9.39 0 0 0-3.175 2.168c-.89.93-1.588 2.052-2.09 3.37s-.755 2.775-.755 4.375.245 3.065.736 4.395 1.175 2.465 2.052 3.407a9.06 9.06 0 0 0 3.156 2.188c1.226.516 2.588.774 4.085.774zm0-4.956c-1.316 0-2.336-.523-3.06-1.568s-1.084-2.46-1.084-4.24.36-3.18 1.084-4.2 1.742-1.53 3.06-1.53 2.33.5 3.04 1.53 1.065 2.42 1.065 4.2-.355 3.194-1.065 4.24-1.723 1.568-3.04 1.568zm23.503 4.956c1.523 0 2.898-.258 4.124-.774a9.06 9.06 0 0 0 3.156-2.188c.878-.942 1.55-2.078 2.013-3.407s.697-2.794.697-4.395-.245-3.06-.736-4.375-1.175-2.44-2.052-3.37-1.93-1.652-3.156-2.168-2.575-.774-4.046-.774c-1.446 0-2.78.258-4.008.774a9.39 9.39 0 0 0-3.175 2.168c-.89.93-1.588 2.052-2.09 3.37s-.755 2.775-.755 4.375.245 3.065.736 4.395 1.175 2.465 2.052 3.407a9.06 9.06 0 0 0 3.156 2.188c1.226.516 2.588.774 4.085.774zm0-4.956c-1.316 0-2.336-.523-3.06-1.568s-1.084-2.46-1.084-4.24.36-3.18 1.084-4.2 1.742-1.53 3.06-1.53 2.33.5 3.04 1.53 1.065 2.42 1.065 4.2-.355 3.194-1.065 4.24-1.723 1.568-3.04 1.568zm20.212 4.414v-8.906c.645.516 1.297 1.15 1.955 1.897l1.878 2.343 1.684 2.44 1.413 2.226h6.62l-1.626-2.827-2.13-3.098-2.4-3c-.826-.968-1.626-1.8-2.4-2.497l4.28-4.433 4.008-4.51h-6.853l-1.297 1.55-1.607 1.878-1.762 1.994-1.762 1.936V63.833l-5.77.93V93.88h5.77zm19.515-22.845c.93 0 1.736-.303 2.42-.9s1.026-1.44 1.026-2.497-.342-1.89-1.026-2.497-1.49-.9-2.42-.9-1.736.303-2.42.9-1.026 1.44-1.026 2.497.342 1.89 1.026 2.497 1.49.9 2.42.9zm2.904 22.845V73.513h-5.77V93.88h5.77zm11.2 0V78.16l1.24-.136 1.316-.058c1.342 0 2.26.387 2.75 1.162s.736 2.09.736 3.95h0V93.88h5.77v-11.5c0-1.394-.142-2.66-.426-3.795s-.76-2.117-1.433-2.943-1.58-1.465-2.73-1.917-2.588-.678-4.317-.678c-1.704 0-3.33.123-4.88.368l-3.795.794v19.67h5.77zm24.24 7.28c3.536 0 6.15-.807 7.84-2.42s2.536-4.085 2.536-7.415h0V74.2l-1.762-.445-2.072-.368-2.188-.252-2.15-.097c-1.626 0-3.085.24-4.375.716s-2.38 1.155-3.272 2.033-1.568 1.93-2.033 3.156-.697 2.588-.697 4.085c0 2.994.75 5.324 2.246 6.99s3.653 2.497 6.466 2.497c.774 0 1.49-.07 2.15-.213s1.297-.355 1.917-.64h0v.736c0 1.136-.342 2.065-1.026 2.788s-1.852 1.084-3.504 1.084c-1.265 0-2.394-.103-3.388-.3a16.91 16.91 0 0 1-2.846-.852h0L157 99.96c1.058.36 2.207.652 3.446.87a21.28 21.28 0 0 0 3.717.329zm1.626-13.28c-2.607 0-3.91-1.613-3.91-4.84 0-1.55.374-2.827 1.123-3.833s1.884-1.5 3.407-1.5l1.355.058 1.007.136v9.215c-.36.207-.8.387-1.316.542s-1.07.232-1.665.232zM34.616 101.835c.93 0 1.736-.303 2.42-.9s1.026-1.44 1.026-2.497-.342-1.89-1.026-2.497-1.49-.9-2.42-.9-1.736.303-2.42.9-1.026 1.44-1.026 2.497.342 1.89 1.026 2.497 1.49.9 2.42.9zm2.904 22.845v-20.367h-5.77v20.367h5.77zm11.2 0v-15.72l1.24-.136 1.316-.058c1.342 0 2.26.387 2.75 1.162s.736 2.09.736 3.95h0v10.803h5.77v-11.5c0-1.394-.142-2.66-.426-3.795s-.76-2.117-1.433-2.943-1.58-1.465-2.73-1.917-2.588-.678-4.317-.678c-1.704 0-3.33.123-4.88.368L42.94 105v19.67h5.77zm24.897.465c1.24 0 2.284-.103 3.136-.3s1.626-.452 2.323-.736h0l-.813-4.492c-.542.207-1.142.368-1.8.484s-1.297.174-1.917.174c-1.29 0-2.15-.36-2.575-1.084s-.64-1.69-.64-2.904h0v-7.163h6.93v-4.8h-6.93v-6.002l-5.77.93v17.114c0 1.316.123 2.517.368 3.6s.678 2.007 1.297 2.768 1.446 1.355 2.478 1.78 2.336.64 3.91.64zm17.618.077c1.523 0 2.898-.258 4.124-.774a9.06 9.06 0 0 0 3.156-2.188c.878-.942 1.55-2.078 2.013-3.407s.697-2.794.697-4.395-.245-3.06-.736-4.375-1.175-2.44-2.052-3.37-1.93-1.652-3.156-2.168-2.575-.774-4.046-.774c-1.446 0-2.78.258-4.008.774a9.39 9.39 0 0 0-3.175 2.168c-.89.93-1.588 2.052-2.09 3.37s-.755 2.775-.755 4.375.245 3.065.736 4.395 1.175 2.465 2.052 3.407a9.06 9.06 0 0 0 3.156 2.188c1.226.516 2.588.774 4.085.774zm0-4.956c-1.316 0-2.336-.523-3.06-1.568s-1.084-2.46-1.084-4.24.36-3.18 1.084-4.2 1.742-1.53 3.06-1.53 2.33.5 3.04 1.53 1.065 2.42 1.065 4.2-.355 3.194-1.065 4.24-1.723 1.568-3.04 1.568zm31.596 4.88c1.24 0 2.284-.103 3.136-.3s1.626-.452 2.323-.736h0l-.813-4.492c-.542.207-1.142.368-1.8.484s-1.297.174-1.917.174c-1.29 0-2.15-.36-2.575-1.084s-.64-1.69-.64-2.904h0v-7.163h6.93v-4.8h-6.93v-6.002l-5.77.93v17.114c0 1.316.123 2.517.368 3.6s.678 2.007 1.297 2.768 1.446 1.355 2.478 1.78 2.336.64 3.91.64zm15.1-.465v-15.488l1.22-.3a7.4 7.4 0 0 1 1.452-.136c1.29 0 2.175.387 2.652 1.162s.716 2.09.716 3.95h0v10.803h5.77v-11.5c0-1.394-.136-2.66-.407-3.795s-.736-2.117-1.394-2.943-1.536-1.465-2.633-1.917-2.472-.678-4.124-.678c-.568 0-1.155.058-1.762.174s-1.104.24-1.49.368h0v-9.757l-5.77.93v29.117h5.77zm26.833.542a20.34 20.34 0 0 0 2.168-.116l2.033-.3c.632-.116 1.207-.252 1.723-.407s.93-.3 1.24-.465h0l-.774-4.685c-.645.284-1.478.523-2.497.716s-2.06.3-3.117.3c-1.652 0-2.97-.348-3.95-1.045a3.83 3.83 0 0 1-1.665-2.827H173l.077-1.065.04-1.104c0-3.433-.84-6.034-2.517-7.802s-3.962-2.652-6.853-2.652a9.76 9.76 0 0 0-3.62.697 9.1 9.1 0 0 0-3.117 2.052c-.903.903-1.633 2.033-2.188 3.388s-.832 2.936-.832 4.743c0 1.497.213 2.89.64 4.182s1.084 2.407 1.975 3.35 2.013 1.684 3.37 2.226 2.95.813 4.782.813zm2.788-12.778h-7.628a8.26 8.26 0 0 1 .368-1.452c.168-.478.407-.897.716-1.258a3.44 3.44 0 0 1 1.162-.871c.465-.22 1.02-.33 1.665-.33.67 0 1.233.116 1.684.348s.826.53 1.123.89.516.774.658 1.24.226.942.252 1.433h0zM38.178 155.48v-11.074h10.61v-5.072h-10.61v-5.614h11.926v-5.072H32.138v26.833h6.04zm23.735.465c1.704 0 3.33-.123 4.88-.368l3.795-.794v-19.67h-5.77v15.72l-1.24.136-1.316.058c-1.342 0-2.26-.413-2.75-1.24s-.736-2.168-.736-4.027h0v-10.648h-5.77v11.345c0 1.394.142 2.672.426 3.833s.76 2.162 1.433 3 1.58 1.49 2.73 1.955 2.588.697 4.317.697zm21.954 0c1.24 0 2.284-.103 3.136-.3s1.626-.452 2.323-.736h0l-.813-4.492c-.542.207-1.142.368-1.8.484s-1.297.174-1.917.174c-1.29 0-2.15-.36-2.575-1.084s-.64-1.69-.64-2.904h0v-7.163h6.93v-4.8h-6.93v-6.002l-5.77.93v17.114c0 1.316.123 2.517.368 3.6s.678 2.007 1.297 2.768 1.446 1.355 2.478 1.78 2.336.64 3.91.64zm18.044 0c1.704 0 3.33-.123 4.88-.368l3.795-.794v-19.67h-5.77v15.72l-1.24.136-1.316.058c-1.342 0-2.26-.413-2.75-1.24s-.736-2.168-.736-4.027h0v-10.648h-5.77v11.345c0 1.394.142 2.672.426 3.833s.76 2.162 1.433 3 1.58 1.49 2.73 1.955 2.588.697 4.317.697zm19.863-.465v-15.565c.258-.077.64-.148 1.142-.213a10.42 10.42 0 0 1 1.297-.097c.8 0 1.55.07 2.246.213l1.82.407.968-4.763c-.3-.13-.684-.24-1.123-.33l-1.316-.232-1.316-.155-1.123-.058c-1.73 0-3.298.16-4.704.484l-3.66 1.026v19.283h5.77zm19.98.542a20.34 20.34 0 0 0 2.168-.116l2.033-.3c.632-.116 1.207-.252 1.723-.407s.93-.3 1.24-.465h0l-.774-4.685c-.645.284-1.478.523-2.497.716s-2.06.3-3.117.3c-1.652 0-2.97-.348-3.95-1.045a3.83 3.83 0 0 1-1.665-2.827H150l.077-1.065.04-1.104c0-3.433-.84-6.034-2.517-7.802s-3.962-2.652-6.853-2.652a9.76 9.76 0 0 0-3.62.697 9.1 9.1 0 0 0-3.117 2.052c-.903.903-1.633 2.033-2.188 3.388s-.832 2.936-.832 4.743c0 1.497.213 2.89.64 4.182s1.084 2.407 1.975 3.35 2.013 1.684 3.37 2.226 2.95.813 4.782.813zm2.788-12.778h-7.628a8.26 8.26 0 0 1 .368-1.452c.168-.478.407-.897.716-1.258a3.44 3.44 0 0 1 1.162-.871c.465-.22 1.02-.33 1.665-.33.67 0 1.233.116 1.684.348s.826.53 1.123.89.516.774.658 1.24.226.942.252 1.433h0z" fill="#000"/><path d="M45.514 56.04v-1.956H34.29v-.07c0-.55.132-1.104.395-1.665s.618-1.133 1.064-1.716a20.57 20.57 0 0 1 1.51-1.75l1.733-1.733 2.094-2.06a18.5 18.5 0 0 0 1.836-2.128c.538-.732.967-1.493 1.287-2.282s.48-1.63.48-2.523c0-2.013-.583-3.586-1.75-4.72s-2.906-1.7-5.217-1.7c-.87 0-1.66.11-2.368.326s-1.333.475-1.87.772-.984.6-1.338.91l-.738.704 1.167 1.544a11.52 11.52 0 0 1 .652-.583c.297-.252.658-.498 1.08-.738s.92-.452 1.493-.635 1.224-.275 1.956-.275c1.304 0 2.385.35 3.243 1.047s1.287 1.848 1.287 3.45c0 .732-.114 1.407-.343 2.025a7.56 7.56 0 0 1-.927 1.75 12.39 12.39 0 0 1-1.356 1.596l-1.63 1.596-2.145 2.06a17.55 17.55 0 0 0-2.025 2.299c-.606.824-1.104 1.7-1.493 2.625s-.583 1.928-.583 3.003l.017.566.017.257h13.694zm12.56.515c2.425 0 4.307-1.064 5.646-3.192s2.008-5.194 2.008-9.198c0-4.027-.67-7.104-2.008-9.232s-3.22-3.192-5.646-3.192c-2.448 0-4.336 1.064-5.663 3.192s-1.99 5.205-1.99 9.232c0 4.004.67 7.07 2.008 9.198s3.22 3.192 5.646 3.192zm0-2.025c-1.007 0-1.842-.286-2.505-.858s-1.195-1.333-1.596-2.282-.686-2.048-.858-3.295-.257-2.557-.257-3.93.086-2.683.257-3.93.458-2.35.858-3.312.932-1.727 1.596-2.3 1.5-.858 2.505-.858c.984 0 1.808.286 2.47.858s1.2 1.338 1.613 2.3.704 2.065.875 3.312.257 2.557.257 3.93-.086 2.683-.257 3.93-.463 2.345-.875 3.295-.95 1.7-1.613 2.282-1.487.858-2.47.858zm26.152 1.5v-1.956H73.004v-.07c0-.55.132-1.104.395-1.665s.618-1.133 1.064-1.716a20.57 20.57 0 0 1 1.51-1.75l1.733-1.733 2.094-2.06a18.5 18.5 0 0 0 1.836-2.128c.538-.732.967-1.493 1.287-2.282s.48-1.63.48-2.523c0-2.013-.583-3.586-1.75-4.72s-2.906-1.7-5.217-1.7c-.87 0-1.66.11-2.368.326s-1.333.475-1.87.772-.984.6-1.338.91l-.738.704 1.167 1.544a11.52 11.52 0 0 1 .652-.583c.297-.252.658-.498 1.08-.738s.92-.452 1.493-.635 1.224-.275 1.956-.275c1.304 0 2.385.35 3.243 1.047S81 36.66 81 38.262c0 .732-.114 1.407-.343 2.025a7.56 7.56 0 0 1-.927 1.75 12.39 12.39 0 0 1-1.356 1.596l-1.63 1.596-2.145 2.06a17.55 17.55 0 0 0-2.025 2.299c-.606.824-1.104 1.7-1.493 2.625s-.583 1.928-.583 3.003l.017.566.017.257h13.694zm14.998 0V32.256h-1.58c-1.052 1.28-2.116 2.294-3.192 3.037s-2.3 1.356-3.672 1.836h0l.652 1.716a10.83 10.83 0 0 0 1.647-.635l1.58-.824c.503-.286.955-.578 1.356-.875s.726-.583.978-.858h0V56.04h2.23z" class="H"/></g><g opacity=".92" class="E"><g transform="translate(198 27.88)"><g transform="translate(83.6)"><path d="M84.432 42.15V.048H42.484l.004.495c.368 22.8 18.724 41.232 41.45 41.602l.493.004z" fill="#2ac2ff"/><path d="M84.432 43.1v42.1H42.484l.004-.495c.368-22.8 18.724-41.232 41.45-41.602l.493-.004z" fill="#00173a"/><path d="M42.484 85.21v-42.1H.536l.004.495c.368 22.8 18.724 41.232 41.45 41.602l.493.004z" fill="#ff9d00"/><ellipse fill="#005b11" cx="21.51" cy="21.098" rx="20.974" ry="21.05"/><ellipse cx="21.51" cy="106.41" rx="20.974" ry="21.05" class="H"/></g><path d="M43.12 127.6V85.36H0l.004.497c.38 22.885 19.247 41.368 42.61 41.74l.507.004z" fill="#005b11"/><path d="M43.12 0v42.24H0l.004-.497C.383 18.858 19.25.375 42.613.004L43.12 0z" class="C"/><path d="M43.12 42.24V0h43.12l-.004.497c-.38 22.885-19.247 41.368-42.61 41.74l-.507.004z" fill="#00173a"/><path d="M43.12 43.12v42.24H0l.004-.497c.38-22.885 19.247-41.368 42.61-41.74l.507-.004z" class="H"/><ellipse fill="#ff7800" transform="matrix(1 0 0 -1 0 212.959992)" cx="63.8" cy="106.48" rx="20.68" ry="21.12"/></g></g><path d="M-65.63 91.24c22.677 14.007 36.582 47.583 41.716 100.727l.153 1.616-125.84 2.377c.232-25.662 2.86-46.032 7.886-61.11 2.568-7.704 11.22-21.423 25.954-41.16l.284-.378c19.29 1.022 35.964.168 49.787-2.06l.06-.01z" fill="#ff9d00" class="E"/></g></g><g filter="url(#D)" transform="translate(176 252)"><path d="M0 0h388v196H0z" class="B D"/><g transform="translate(17 12)" fill="#000"><g transform="translate(221.198)"><path d="M11.2.002H.59v1.18H11.2z"/><path d="M10.02 2.36H1.768v1.18h8.253z"/><use xlink:href="#H"/><path d="M1.768 8.254h8.253v-1.18H1.768z"/><path d="M.59 10.612H11.2v-1.18H.59z"/></g><g transform="translate(270.193)"><path d="M0 1.18h11.79V.002H0z"/><path d="M0 3.54h11.79V2.36H0z"/><use xlink:href="#H"/><use xlink:href="#H" y="2.357"/><path d="M0 10.612h8.253v-1.18H0z"/></g><g transform="translate(311.5)"><path d="M.92 7.752L2 6.67l-.18-.18c-.065-.065-.075-.14-.075-.18s.01-.115.075-.18l4.32-4.32c.065-.065.14-.074.18-.074s.116.01.18.074l.18.18L7.76.912l-.18-.18C6.907.058 5.733.06 5.06.73L.74 5.052C.404 5.388.22 5.835.22 6.31a1.77 1.77 0 0 0 .522 1.261l.18.18z"/><path d="M10.28 3.432L9.2 4.51l.18.18c.1.1.1.26 0 .36L5.06 9.37c-.065.065-.14.075-.18.075s-.115-.01-.18-.075l-.18-.18-1.08 1.08.18.18a1.77 1.77 0 0 0 1.26.522 1.77 1.77 0 0 0 1.26-.522l4.32-4.32c.694-.695.694-1.825 0-2.52l-.18-.18z"/><path d="M6.86 5.412L5.78 4.33l3.6-3.6 1.08 1.08z"/><path d="M1.82 10.45L.74 9.37l3.6-3.6 1.08 1.08z"/></g><g transform="translate(196.7)"><path d="M10.61.002H0v1.18h10.61z"/><path d="M8.253 2.36H0v1.18h8.253z"/><use xlink:href="#H"/><path d="M8.253 7.075H0v1.18h8.253z"/><path d="M0 10.612h10.61v-1.18H0z"/></g><g transform="translate(245.695)"><path d="M1.18 1.18h10.61V.002H1.18z"/><path d="M3.537 3.54h8.253V2.36H3.537z"/><use xlink:href="#H"/><path d="M3.537 8.254h8.253v-1.18H3.537z"/><path d="M1.18 10.612h10.61v-1.18H1.18z"/></g><path d="M2.52 4.533h2.553c.45 0 .82-.105 1.108-.314s.433-.55.433-1.02c0-.26-.048-.476-.144-.643s-.225-.298-.385-.392a1.65 1.65 0 0 0-.554-.196 3.76 3.76 0 0 0-.65-.055H2.52v2.62zM0 0h5.394a7.3 7.3 0 0 1 1.493.141c.45.094.835.248 1.156.463s.57.5.746.855.265.795.265 1.318c0 .565-.13 1.035-.393 1.412s-.65.685-1.164.925c.706.2 1.233.546 1.58 1.043S9.6 7.252 9.6 7.953c0 .565-.112 1.054-.337 1.467a2.88 2.88 0 0 1-.907 1.012c-.38.26-.813.455-1.3.58a5.99 5.99 0 0 1-1.501.188H0V0zm2.52 9.286h2.697a3.44 3.44 0 0 0 .706-.071c.225-.047.423-.125.594-.235s.308-.26.41-.447.153-.43.153-.722c0-.575-.166-.986-.498-1.23s-.77-.37-1.316-.37H2.52v3.075z"/><path d="M50.052 11.9l1.4 1.4 1.4-1.4h1.05V14h-11.2v-2.1h7.35zM49.386 0l4.516 11.2h-2.2l-1.1-2.965h-4.68l-1.1 2.965h-2.118l4.5-11.2h2.184zm-1.05 1.867h-.05l-1.85 4.978h3.733l-1.832-4.978z"/><path d="M22.15 11.2V9.6h2.004l1.707-8h-2.11V0h6.4v1.6h-2.29l-1.707 8h2.396v1.6h-6.4z"/><g transform="translate(154.651)"><path d="M1.9 0C.848 0 0 .848 0 1.9s.848 1.9 1.9 1.9 1.9-.848 1.9-1.9S2.932 0 1.9 0"/><path d="M1.9 4.4C.848 4.4 0 5.258 0 6.3s.848 1.9 1.9 1.9 1.9-.848 1.9-1.9-.848-1.9-1.9-1.9"/><path d="M1.9 8.82c-1.042 0-1.9.848-1.9 1.9s.848 1.9 1.9 1.9 1.9-.848 1.9-1.9-.848-1.9-1.9-1.9"/><path d="M5.04 2.52h7.56V1.26H5.04z"/><path d="M5.04 6.93h7.56V5.67H5.04z"/><path d="M5.04 11.34h7.56v-1.26H5.04z"/></g><g transform="translate(129.5)"><path d="M3.15 2.52h8.82V1.26H3.15z"/><path d="M3.15 6.93h8.82V5.67H3.15z"/><path d="M3.15 11.34h8.82v-1.26H3.15z"/><path d="M.832 1.178v2.27h.69v-3.1c0-.14-.084-.265-.213-.32S1.03.003.933.102L0 1.034l.487.488.345-.344z"/><path d="M.945 4.4c-.52 0-.945.424-.945.945v.315h.63v-.315c0-.174.142-.315.315-.315s.316.14.316.315c0 .308-.607 1.105-1.17 1.667-.09.1-.117.226-.068.343s.164.195.29.195H1.9v-.63h-.858c.392-.462.858-1.1.858-1.575 0-.52-.423-.945-.945-.945"/><path d="M.945 9.1H0l.001.63h.944c.173 0 .315.14.315.315s-.142.314-.315.314v.001H.63v.63h.315v-.001c.173 0 .315.142.315.315s-.142.315-.315.315L0 11.62l.001.63.944-.001c.52 0 .945-.424.945-.945a.94.94 0 0 0-.241-.63.94.94 0 0 0 .241-.629c0-.52-.424-.945-.945-.945"/></g></g><g class="I"><rect x="17" y="124" width="322" height="11" rx="5.5"/><rect x="17" y="107" width="333" height="11" rx="5.5"/><rect x="17" y="141" width="333" height="11" rx="5.5"/><rect x="17" y="158" width="111" height="11" rx="5.5"/></g><rect x="134" y="158" width="60" height="11" rx="5.5" class="C"/><rect x="17" y="90" width="342" height="11" rx="5.5" class="I"/><g transform="translate(88 90)"/><path stroke-width="1.053" stroke-linecap="square" stroke-linejoin="round" d="M.79 37H387.21" class="D"/></g><g filter="url(#E)" transform="translate(177 457)"><path d="M5 0h378a5 5 0 0 1 5 5v113a5 5 0 0 1-5 5H5a5 5 0 0 1-5-5V5a5 5 0 0 1 5-5z" stroke="#0064ff" stroke-dasharray="5" class="B"/><use xlink:href="#G" x="114.8" y="-176.6" class="C"/><g transform="translate(88 49)"/></g><g transform="translate(152 439)"><rect fill="#001d71" width="48" height="48" rx="3.6" class="D F"/><use xlink:href="#G" x="-56.2" y="-211.6" class="B"/><g filter="url(#F)" transform="translate(30.159 29.106)" class="G"><path fill="#231d1e" d="M0 7.37h1.053V6.318H3.16V7.37h1.053V1.053h1.053V0H7.37v1.053h1.053v3.16h4.212v1.053h2.106v1.053h1.053v5.265h-1.053v2.106H13.69v3.16h-2.106v-1.053H10.53v1.053H5.265v-2.106H4.212V13.69H3.16v-1.053H2.106V10.53H1.053V9.477H0z"/><path d="M1.053 7.37H3.16v1.053h1.053v1.053h1.053V1.053H7.37V7.37h1.053V5.265h2.106V7.37h1.053V5.265h1.053V7.37h1.053V6.318h1.053v5.265H13.69v2.106h-1.053v2.106h-1.053v-1.053H10.53v1.053H6.318v-1.053H5.265V13.69H4.212v-1.053H3.16V10.53H2.106V9.477H1.053z" class="B"/><g fill="#231d1e"><path d="M7.37 9.477h1.053v4.212H7.37z"/><path d="M9.477 9.477h1.053v4.212H9.477z"/><path d="M11.583 9.477h1.053v4.212h-1.053z"/></g></g></g><rect stroke="#0064ff" stroke-width="1.322" x="448.661" y="20.661" width="53.678" height="20.678" rx="5"/><path d="M474 26c4.62 0 8 5.09 8 5.09s-3.38 5.09-8 5.09-8-5.09-8-5.09 3.38-5.09 8-5.09zm0 2.182a2.91 2.91 0 0 0-2.909 2.909A2.91 2.91 0 0 0 474 34a2.91 2.91 0 0 0 2.909-2.909A2.91 2.91 0 0 0 474 28.182zm0 1.455c.803 0 1.455.65 1.455 1.455s-.652 1.455-1.455 1.455-1.455-.65-1.455-1.455.652-1.455 1.455-1.455z" class="C"/><rect x="193" y="300" width="342" height="21" rx="10.5" class="I"/><rect fill="#00c15a" x="510" y="20" width="55" height="22" rx="5"/><path d="M544.667 24.008l-14.062 3.21c-.32.07-.558.33-.6.647a.75.75 0 0 0 .422.767l3.994 1.967.408 3.947c.032.317.267.58.584.658s.654-.045.838-.308l.12-.12-.808-3.013a1.02 1.02 0 0 1 .516-.97l3.47-1.994-2.773 2.6c-.197.185-.28.457-.218.715l1.265 5.3c.073.3.34.542.666.58a.79.79 0 0 0 .791-.409l6.606-12.516c.032-.046.057-.096.078-.148.07-.175.026-.443-.053-.627-.097-.227-.513-.323-1.246-.286z" class="B"/></g></svg>