<svg xmlns="http://www.w3.org/2000/svg" width="1543" height="338" xmlns:v="https://vecta.io/nano"><style><![CDATA[.B{stroke-linecap:round}.C{stroke-linejoin:round}.D{stroke-width:5.322}.E{fill-rule:nonzero}.F{fill:#212121}.G{fill:#fb3640}.H{fill:#001c6c}.I{stroke:#212121}]]></style><g fill="none" fill-rule="evenodd"><g transform="matrix(-1 0 0 1 896 66)"><path d="M106.425 161.685c-26.196 0-58.37-1.647-96.525-4.942L0 88.145h42.9l-3.3-70.838h237.6l1.452 39.284c27.438-7.643 41.157-4.052 41.157 10.775S307.53 91.04 282.975 93.9l-8.25 57.9c-86.004 6.6-142.104 9.884-168.3 9.884z" fill="#ffa300"/><path d="M144 127.282c-2.65-5.643-2.985-20.095-13.993-19.69s-8.79 14.53-21.416 19.86c-5.332 2.25-14.772-19.245-27.116-15.542S68 128 60 127s-13-6-13.76-19.236" class="B C D I"/><path d="M142.126 36.64c1.184 20.685-17.203 25.95-22.3 6.9-3.9-14.526 17.308-15.904 24-6.9M72.88 33.346c-.36 4.402-.094 8.9-1.078 13.205-4.27 18.676-27.6.556-15.225-15.048" class="F"/><path d="M33.654 0c-5.085 0 .932 45.388 4.125 54.497 4.05 11.553 13.61 9.06 23.925 9.06 3.278 0 6.092-.108 8.565-.393 5.37-6.5 12.733-13.962 20.5-20.102h0l-1.152 6.71.676-1.047.804-1.3c6.252 15.778 18.845 20.25 34.122 20.25 35.326 0 49.424-26.91 43.77-67.676H33.654zm70.196 18.386h47.727l.015.234c.69 11.187-.86 19.508-4.34 25.023l-.185.288-.176.264c-4.164 6.142-11.568 9.345-23.312 9.345-8.66 0-14.394-6.03-17.832-21.05l-.1-.5c-.568-2.67-1.125-6.756-1.654-12.192l-.102-1.07-.03-.345zm-56.69 0h35.354l-.017.07c-5.334 21.873-12.52 30.59-26.47 30.954l-.425.008-.5.003c-.5 0-.76-.106-1.23-.553-1-.94-2.075-2.8-3.073-5.646-1.896-5.4-3.123-13.368-3.596-23.762l-.045-1.074z" class="E G"/><path d="M85.28 45.962C68.684 59.064 53.974 78.138 56.495 81.284c3.3 4.118 15.235 4.966 18.15 3.295 2.342-1.343 1.284.477 1.284 15.834" stroke-width="5.855" class="B C I"/></g><path d="M1489.207 0l6.76 26.973c1.204 5.405 2.456 16.643 3.755 33.716 28.538-11.988 42.808-3.996 42.808 23.976s-14.27 37.462-42.808 28.47v107.142l-284.634 6.743V113.136c-31.042 7.492-45.31-1.998-42.808-28.47s16.773-34.465 42.808-23.976L1220.345 0h268.862zm-231.312 35.964c-19.526 60.94-21.28 107.392-5.257 139.36 10.19 20.33 96.3 25.758 152.455 20.23 21.43-2.1 43.46-8.853 66.09-20.23 3.893-20.674 5.395-41.902 4.506-63.686s-4.143-43.512-9.763-65.184c-13.518-14.985-46.563-24.475-99.134-28.47s-88.87 1.998-108.897 17.982z" fill="#001d71"/><path d="M1343.93 128.818c.387.218.708.42.955.62a2.81 2.81 0 0 1 .48.483l.12.157c.12.17.17.303.393.926l.02.396c.013.298.014.524-.014.72l-.01.052.032.023.2.167c.56.506.96 1.2.97 2.106l-.005.207-.015.16.076.024c.98.313 1.77.903 2.2 1.67l.097.183.033.013a3.2 3.2 0 0 1 1.758 1.567l.096.2a2.66 2.66 0 0 1-.005 2.155l-.082.17-1.172 2.198-.012.115c-.162 1.25-1.08 2.307-2.57 2.464l-.207.016c-.542.026-.98-.047-1.632-.23l-.5-.148-1.104-.343-.495-.137-.103-.025-.123.263c-.673 1.444-1.16 2.173-2.307 2.815-20.968 11.73-45.426 17.912-64.77 14.484-2.253-.4-3.358-2.712-2.08-4.66.336-.5.795-.95 1.4-1.386l.103-.075-.102-.04c-.212-.1-.424-.218-.64-.392l-.163-.14c-1.194-1.088-1.1-2.474-.465-3.5.2-.326.424-.566.697-.806.526-.463 1.4-1.02 2.557-1.684a59.32 59.32 0 0 1 2.32-1.25l.7-.357-.408.088-1.37.285-1.506.3c-1.574.305-2.8.507-3.53.58-.343.034-.62.047-.9.03-.394-.027-.738-.095-1.17-.324-.14-.074-.272-.16-.394-.255l-.052-.044-.738.7-.548.533a2.661 2.661 0 1 1-3.722-3.804c8.435-8.253 18.043-15.354 26.883-19.418 10.904-5.013 20.382-5.362 27.3.225l.3.247a19.63 19.63 0 0 0 1.608 1.24l.23.15 2.376-.655c1.614-.445 2.924-.473 4.987-.165l.197.03.044-.005c2.057-.233 3.64-.1 6.132.415l.665.142.578-.185c1.42-.454 2.462-.595 3.886-.34.662.118 1.427.443 2.218.868l.298.164zm-5.546 14.156c-.538.042-.92.117-1.25.235l-.898.325c-4.02 1.467-5.744 2.3-9.782 4.598l-1.934 1.106-.746.415c-3.243 1.768-6.4 2.946-11.488 4.097l-1.497.328c-3.154.67-6.045 1.144-11.216 1.886l-4.28.6-7.623 1.2-.78.14.205.002c15.9.1 34.348-5.382 50.662-14.38l.485-.27.074-.136.072-.145zm-22.288-12.624l-.014-.01c-8.12-5.277-21.93-.378-36.22 10.84l-.24.188 1.945-.644c9.48-3.126 19.505-6.136 32.115-9.695l2.414-.68zm8.562 12.682l-4.788 1.38-4.455 1.3-10.877 3.232-4.126 1.213-2.008.583 2.88-.418c3.545-.528 5.878-.93 8.34-1.452l.943-.204 1.026-.232c4.147-.965 6.725-1.92 9.32-3.3l.312-.168.93-.52 1.763-1 .74-.42zm10.453-8.124c-1.067.173-2.064.168-3.257-.033l-.364-.066a11.43 11.43 0 0 0-2.58-.214l-.378.015c-.405.02-1.814.144-2.046.16-1.23.08-2.345.015-3.44-.254l-.177-.047-.416.1c-1.808.445-3.704.972-5.726 1.587l-1.614.5c-2.517.8-4.83 1.635-8.664 3.105l-6.425 2.476 1.807-.38 6.595-1.32 9.105-1.752 7.765-1.558 1.437-.304.223-.06 2.76-.746 1.756-.464a23.69 23.69 0 0 1 2.844-.56l.352-.044.688-.187-.247.044zm28.813-4.188l.2-.113.73-.424c1.87-1.063 2.843-1.423 4.152-1.13l1.094.24 5.943 1.08 2.266.36 2.28.156c4.746.335 8.286.665 11.545 1.116l.688.097 5.08-.008c2.062 0 3.636.022 5.225.08 7.2.262 13.45 1.318 20.9 3.797l.802.27a8.15 8.15 0 0 0 .621.178l.6.145 1.154.258c1.015.23 1.713.4 2.374.64 1.063.367 1.88.802 2.52 1.494 1.107 1.196 1.28 2.853.443 4.3-.92 1.6-2 2.365-3.785 2.82l-.092.022.146.072c.648.336 1.17.836 1.4 1.737l.046.215c.237 1.315-.356 2.196-1.173 2.763a3.71 3.71 0 0 1-.864.436c-.327.12-.73.233-1.25.354l-.27.06a46.87 46.87 0 0 1-1.278.263l-.364.07-.07.107c-.493.708-1.306 1.2-2.28 1.254l-.184.007c-1.042.014-2.052-.018-3.073-.1l-.795-.074 3.43.534.226.04.416.08a7.49 7.49 0 0 1 .345.077c.566.14.858.24 1.317.6 1.168.937 1.515 2.82.14 4.08a2.54 2.54 0 0 1-1.32.672c-.28.062-.57.1-.956.1l-1.534.063-.5.013-.012.107a2.83 2.83 0 0 1-.942 1.698l-.137.114c-.388.305-.793.485-1.255.62-11.6 3.363-23.027 2.477-34.648-2.06-9.286-3.625-18.18-9.254-28.907-17.678a2.66 2.66 0 0 1 3.146-4.289l.117.086.058-.132a2.8 2.8 0 0 1 .53-.763l.14-.133c.624-.56 1.193-.794 1.966-.822l.17-.003-.024-.106a2.64 2.64 0 0 1-.044-.334l-.003-.06-.068-.088-.113-.167a2.67 2.67 0 0 1-.417-1.23 2.69 2.69 0 0 1 .88-2.238c.54-.486 1.027-.66 1.547-.697l.114-.006.063-.036c.45-.25.954-.443 1.518-.6l.04-.01zm8.677 18.038c4.284 2.608 8.392 4.68 12.547 6.303 6.918 2.7 13.7 3.975 20.46 3.7l.556-.028-1.314-.24-1.444-.25-3.862-.646c-5.772-.978-8.726-1.642-12.135-2.867l-1.12-.412c-3.4-1.27-8.227-3.246-12.817-5.23l-1.206-.524.333.205zm27.906-6.497l1.743.8c2.613 1.187 4.087 1.77 5.865 2.3l1.182.354a107.94 107.94 0 0 0 4.616 1.27l.3.075-.458-.226a26.15 26.15 0 0 0-2.049-.878l-.512-.187c-2.992-1.054-6.048-2.067-9.24-3.065l-1.456-.452z" class="E F"/><path d="M1316.364 97.95c5.784-1.792 10.428-.738 18.07 2.9l3.558 1.73.207.098a2.661 2.661 0 1 1-2.278 4.81l-1.986-.963-.887-.435c-7.064-3.454-10.793-4.403-15.107-3.066-2.943.912-4.012 7.578-3.53 15.128.576 9 12.993 13.795 21.686 9.457a2.661 2.661 0 0 1 2.377 4.762c-11.768 5.874-28.524-.583-29.374-13.88-.215-3.37-.18-6.763.348-10.06.87-5.43 2.94-9.26 6.918-10.492zm55.854 11.272c5.702-5.14 10.86-7.563 15.26-7.206 4.315.35 7.38 3.328 8.563 7.7 2.27 8.406-2.493 19.053-11.575 23.05-2.658 1.17-5.3 1.746-8.203 1.878l-.547.02c-1.894.05-3.24-.03-6.505-.34l-2.406-.227-1.263-.103a2.661 2.661 0 0 1 .392-5.308l1.096.088 1.582.146 2.355.22c2.157.192 3.24.238 4.6.202 2.46-.065 4.6-.5 6.747-1.448 6.62-2.912 10.178-10.87 8.58-16.8l-.104-.358c-1.56-4.96-6.6-5.176-15.017 2.422a2.661 2.661 0 1 1-3.564-3.953z" class="H E"/><path d="M1322.142 24.185c-1.5 26.347 21.8 33.052 28.26 8.8 4.928-18.502-21.933-20.257-30.4-8.8m89.998-3.86c.47 5.554.123 11.23 1.4 16.662 5.585 23.564 36.084.702 19.9-18.988" class="F"/><path d="M1378.177 75.63l.028.474.04.853c.09 2.266.048 4.503-.103 7.435l-.27 4.767-.207 4.325-.59 8.803-.025.273c-1.204 12.898-3.956 22.342-9.685 29.81-8.506 11.085-18.467 11.007-25.59 1.742-5.9-7.686-8.72-20.408-6.528-30.2l.4-1.768c4.177-18.325 7.132-26.07 10.178-28.27l.107-.076-.045-.742-.468-6.61a2.66 2.66 0 1 1 5.31-.361l.488 6.905c.065 1.02.084 1.6.064 2.065l-.005.106c-.08 1.353-.63 2.456-1.998 2.984-.073.028-.172.06-.272.09l-.2.055-.13.16a5.95 5.95 0 0 0-.194.272l-.08.12c-.467.716-1.012 1.82-1.628 3.37l-.133.34c-1.737 4.473-3.792 11.79-6.196 22.523-1.85 8.252.606 19.36 5.553 25.793 5.006 6.5 10.787 6.556 17.15-1.737 4.897-6.383 7.392-14.745 8.542-26.376l.16-1.73c.2-2.3.334-4.38.507-7.84l.23-4.78.214-3.667c.188-3.45.23-5.85.097-8.35-.385-7.188 4.774-8.94 5.287-.76z" class="E H"/><path d="M1329.242 7c6.326 0 12.75.457 19.27 1.37l1.224.177a6 6 0 0 1 5.043 4.956c1.93 11.72 2.714 23.662 2.347 35.826 1.7 1.233 3.942.95 6.726-.845-.306-11.872.485-23.532 2.37-34.98a6 6 0 0 1 4.841-4.923l.203-.034 1.224-.177c6.52-.914 12.944-1.37 19.27-1.37l1.487.007c8.308.076 25.104.748 50.386 2.016a6.76 6.76 0 0 1 5.978 4.336l.074.204.25.73c3.775 11.237 5.663 23.79 5.663 37.66 0 13.235-1.76 24.757-5.276 34.567a9.01 9.01 0 0 1-8.164 5.957l-.235.005-3.62.03c-7.11.047-13.464.022-19.06-.074l-3.226-.057-39.548-.015c-4.3.025-8.006-2.982-8.875-7.162l-.044-.225-.206-1.15c-1.026-5.83-1.836-11.878-2.43-18.143-2.883-3.094-5.845-3.334-8.888-.72a201.03 201.03 0 0 1-3.786 22.485l-.29 1.263c-.922 3.95-4.382 6.796-8.445 6.945l-17.994.637-20.507.6-2.625.048-20.075.05-1.818-.016a9.01 9.01 0 0 1-8.388-5.929c-4.462-12.29-6.693-25.323-6.693-39.097 0-13.87 1.888-26.423 5.663-37.66l.25-.73c.9-2.604 3.294-4.402 6.052-4.54l8.527-.42L1329.242 7zm-7.5 7.492l-1.183.044c-7.523.31-18.066 1.27-31.63 2.885l-2.206.265a3 3 0 0 0-2.628 2.69l-.172 1.835c-2.738 29.79-1.898 50.443 2.52 61.96 1.96 5.11 21.237 5.86 57.828 2.248l.33-2.79c1.95-16.72 2.822-28.986 2.61-36.797l-.01-.318c-.257-8.215-1.234-18.4-2.933-30.525-6.64-1.277-14.152-1.776-22.53-1.498zm69.093 0l-.812-.025c-7.87-.22-12.295.288-13.273 1.523l-.227 1.643c-1.56 11.414-2.46 21.04-2.705 28.883l-.02.758c-.18 8.206.743 20.256 2.768 36.15 38.093 2.114 58.12.616 60.08-4.495 4.5-11.727 4.636-31.272.41-58.634a3 3 0 0 0-2.695-2.528l-6.67-.6c-17.378-1.543-29.664-2.433-36.858-2.672z" class="G"/><path d="M1320.6 145.98a2.66 2.66 0 0 1 3.744-.381c5.064 4.13 12.075 5.885 21.21 5.84l.896-.01c3.883-.063 7.785-.413 13.372-1.107l5.223-.652c6.362-.778 7.662-.823 10.12-.58 3.32.33 3.47 4.453 1.58 6.177l-.062.053-3.292 3.28a2.66 2.66 0 0 1-.348.292l-.192.123c-2.753 1.602-5.46 2.7-8.185 3.168-1.472.258-2.836.165-4.974-.205l-1.498-.27-.322-.055.282.14c1.4.708 2.28 1.314 3.004 2.168l.143.174c2.627 3.32 2.667 6.663-.15 8.793-1.726 1.305-4.264 1.927-7.594 2.2-1.704.135-3.334.16-5.327.122l-1.884-.04a2.66 2.66 0 0 1-.294-5.314c.128-.007.264-.01.443-.008l1.253.028c2.11.05 3.74.036 5.4-.094 2.27-.18 3.964-.577 4.704-1.06l.07-.05c-.074-.224-.275-.598-.662-1.108l-.122-.157c-.208-.263-.887-.676-2.19-1.29l-1.64-.76-.138-.066c-1.325-.64-2.17-1.16-2.842-1.905-1.3-1.44-1.406-3.397-.13-4.988a5.99 5.99 0 0 1 2.821-1.971l.2-.067-.054.005c-2.53.218-4.8.335-7.086.36l-.493.004c-10.257.052-18.414-1.99-24.6-7.036a2.66 2.66 0 0 1-.381-3.744zm49.285 8.6l.115-.114-.92.094-2.045.232-7.27.9-1.95.23-1.467.163.14.01c.567.04 1.188.125 2.012.264l1.728.3c1.783.322 2.763.405 3.52.273 1.904-.334 3.895-1.105 5.98-2.27l.16-.092z" class="E H"/><g transform="translate(0 87)"><g transform="translate(0 17)"><path d="M985 167.053c-9.988-12.878-28.77-14.61-44.466-13.964s-21.003 4.51-28.864 16.984 77.967 11.218 75.436.084L985 167.053z" class="H"/><path d="M948.735 23.973c.5 11.03.7 48.677-.223 63.79-.03.474-.9 0-1.35 0" stroke="#0d62fe" stroke-width="12.322" class="B C"/><path d="M978.116.723c11.54.83 27.045-4.502 27.045 10.864 0 10.244-14.02 13.72-42.064 10.427v21.99l-27.83 2.47v-24.46c-28.976 2.744-42.997-.732-42.064-10.427.6-6.243 4.887-8.598 14.065-9.4 3.383-.295 9.97-.295 19.763 0C953.395.658 970.423.17 978.116.723z" fill="#001d71"/><path d="M932.094 56.473h31.52l.792 11.406c.14 2.285.727 21.48 1.756 57.58l-1.316 24.162-33.367 2.85-1.316-57.885 1.933-38.115z" class="G"/><path d="M503.107 144.54c-66.53-12.373-134.903-23.348-202.887-18.32-17.537 1.297-34.617 6.974-52.186 7.718-50.833 2.152-101.768-.186-152.634.955-36.325.815-66.962 16.194-88.9 44.358-4.394 5.644-8.6 20.726-4.822 27.013 7.307 12.16 56.433 16.5 71.495 18.32 72.66 8.78 90.014 13.163 162.038 5.388s113.306-9.967 120-30 6.433-23.272 29.048-24.58l58.048-3.313c24.118-1.357 52.31-.232 59.175-3.274 23.82-10.556 24.358-18.644 1.616-24.265z" fill="#0d62fe"/><g stroke-width="7.322" stroke="#011638" class="C"><path d="M921.218 157.237c-19.723 2.007-11.78-25.812-72.55-18.295-78.65 9.73-75.65 61.65-23.34 40.144 48.914-20.11 10.098-22.553-40.24-32.337s-203.517 1.682-88.476 17.916 93.804-15.548-3.23-26.806-177.915 34.75-181.38 3.14" class="B"/><path fill="#fff" transform="matrix(.173648 .984808 .984808 -.173648 503.559763 140.819596)" d="M1 4.5L5.9 29H29V1z"/></g></g><path d="M1026.362 89.815c-1.5-26.347 21.8-33.052 28.26-8.8 4.928 18.502-21.933 20.257-30.4 8.8" class="F"/><path d="M1066.652-.032c8.98 0 18.1.65 27.356 1.948l1.737.25c3.665.545 6.56 3.393 7.16 7.046 2.742 16.663 3.852 33.64 3.332 50.934 2.413 1.752 5.596 1.35 9.55-1.202-.434-16.88.688-33.456 3.366-49.732.585-3.557 3.344-6.35 6.872-7l.288-.048 1.737-.25c9.257-1.3 18.376-1.948 27.356-1.948l2.11.01c11.795.108 35.638 1.064 71.53 2.866 3.81.19 7.136 2.62 8.486 6.165l.105.3.353 1.04c5.36 15.976 8.04 33.823 8.04 53.543 0 18.816-2.497 35.197-7.5 49.145-1.767 4.937-6.367 8.284-11.6 8.47l-.334.008-5.137.042c-10.095.066-19.113.03-27.057-.106l-4.58-.08-56.143-.02c-6.104.035-11.366-4.24-12.6-10.182l-.062-.32-.292-1.634c-1.456-8.29-2.606-16.887-3.45-25.794-4.092-4.4-8.298-4.74-12.617-1.023-1.175 10.682-2.967 21.337-5.375 31.968l-.413 1.796c-1.31 5.617-6.22 9.662-11.99 9.874l-25.545.906-29.112.85-3.727.068-28.5.07-2.58-.023c-5.34-.05-10.088-3.41-11.907-8.43-6.335-17.474-9.502-36.002-9.502-55.585 0-19.72 2.68-37.567 8.04-53.543l.353-1.04c1.276-3.703 4.677-6.258 8.59-6.455l12.105-.598 61.535-2.278zm-10.78 10.106l-1.677.063c-10.665.44-25.613 1.814-44.842 4.12l-3.127.378a4.27 4.27 0 0 0-3.726 3.841l-.244 2.62c-3.882 42.53-2.7 72.016 3.575 88.46 2.78 7.297 30.108 8.367 81.984 3.21l.47-3.98c2.766-23.872 4-41.383 3.702-52.534l-.013-.455c-.364-11.728-1.75-26.255-4.157-43.58-9.416-1.823-20.063-2.536-31.942-2.14zm98.324 1l-1.15-.035c-11.15-.31-17.418.408-18.803 2.156l-.322 2.325c-2.208 16.158-3.486 29.787-3.833 40.887l-.028 1.073c-.255 11.617 1.052 28.675 3.922 51.174 53.966 2.993 82.338.87 85.116-6.364 6.374-16.6 6.568-44.27.582-83.005a4.25 4.25 0 0 0-3.818-3.579l-9.448-.85c-24.62-2.184-42.025-3.444-52.217-3.782z" fill="#0d62fe"/><path d="M1081.595 12.52l194.25 13.53c1.9 7.445 2.96 45.128 3.182 113.05l-3.182 71.112c-66.5 9.52-152.25 9.52-257.25 0-3.465-65.486 17.082-130.727 61.642-195.722l1.358-1.97z" class="G"/><g class="I B C D"><path d="M1172.22 189.7c20.95-9.986 31.325-8.537 51.252 2.516"/><path d="M1093.155 16c-.215 12.262-7.018 58.715 6.237 76.594 32.545 43.898 115.948 97.93 165.828 51.736"/><path d="M1098.6 117.306c3.16-8.323 5.434-15.533 15.343-20.922 5.495-2.99 12.626-1.964 18.752-.698 5.262 1.087 10.542 3.637 14.26 7.516 16.62 17.346 1.243 43.32-18.91 46.65-7.4 1.222-27.04 3.848-31.383-6.5" fill="#ff4445"/><path d="M1145.22 20c15.666 46.232 31.98 83.602 75.24 106.822 14.95 8.025 49.843 26.862 64.76 8.18M1210.22 12c10.944 51.387 25.84 109.575 80 119"/><path d="M1018.514 163.58c25.582 22.012-4.077-4.33 22.377 22.122.304.304 1.076.373 1.29 0 2.303-4.03 3.465-8.663 5.915-12.605 23.346-37.563 14.668-2.076 29.067 10.8 2.893 2.587 14.874-18.523 20.573-21.093 8.017-3.615 12.897 12.294 14.41 14.15.434.532 1.454.325 2.058 0l7.46-5.915c7.765-4.17 5.805 1.58 6.944-4.117"/></g></g><g class="B C"><path d="M347.674 277c-4.44 4.41-6.328 15.933-16.897 23.734C303 321.237 245.094 317.384 214 318.796" stroke="#fff" class="D"/><path d="M347.485 245.975l-56.178-6.603c-6.41-.592-10.262.17-19.307-.373" stroke="#0202c8" stroke-width="2.322"/></g></g></svg>