<svg xmlns="http://www.w3.org/2000/svg" xmlns:xlink="http://www.w3.org/1999/xlink" width="600" height="600" xmlns:v="https://vecta.io/nano"><style><![CDATA[.B{stroke-linejoin:round}.C{stroke-width:.5}.D{stroke-linecap:round}.E{fill:#fff}.F{fill-rule:nonzero}.G{fill:#001c6c}.H{mask:url(#m)}.I{fill:#0d62fe}.J{mask:url(#p)}.K{fill:#ffa300}.L{fill:#000}.M{fill:#fb3640}.N{stroke:#f4f2ee}.O{fill:#0064ff}.P{stroke:#001d71}.Q{mask:url(#n)}.R{mask:url(#l)}.S{stroke:#212121}.T{fill:#011638}.U{fill:#14591d}.V{fill:#001d71}.W{fill:#42be65}.X{fill:#f2f4f6}.Y{stroke:#0d62fe}]]></style><defs><filter x="-22.4%" y="-12.1%" width="144.9%" height="124.1%" id="A"><feOffset dy="8" in="SourceAlpha"/><feGaussianBlur stdDeviation="8"/><feColorMatrix values="0 0 0 0 0 0 0 0 0 0.160784314 0 0 0 0 0.349019608 0 0 0 0.1 0" result="C"/><feMerge><feMergeNode in="C"/><feMergeNode in="SourceGraphic"/></feMerge></filter><path d="M16.618 0h153.4c8.83 0 16 7.153 16 15.982l.365 330.165c.01 8.837-7.146 16.008-15.982 16.018H16.982c-8.83 0-16-7.153-16-15.982L.618 16.018C.608 7.18 7.763.01 16.6 0z" id="B"/><filter x="-12.8%" y="-15.5%" width="125.6%" height="130.9%" id="C"><feOffset dy="4" in="SourceAlpha"/><feGaussianBlur stdDeviation="3.5"/><feColorMatrix values="0 0 0 0 0 0 0 0 0 0.160784314 0 0 0 0 0.349019608 0 0 0 0.1 0" result="C"/><feMerge><feMergeNode in="C"/><feMergeNode in="SourceGraphic"/></feMerge></filter><path id="D" d="M0 .55h176v138H0z"/><path id="E" d="M0 0h176v81H0z"/><path id="F" d="M-27 326h232v73H-27z"/><filter x="-6.0%" y="-13.7%" width="112.1%" height="138.4%" id="G"><feOffset dy="4" in="SourceAlpha"/><feGaussianBlur stdDeviation="4"/><feColorMatrix values="0 0 0 0 0 0 0 0 0 0.160784314 0 0 0 0 0.349019608 0 0 0 0.1 0"/></filter><filter x="-6.5%" y="-6.5%" width="113.1%" height="112.4%" id="H"><feOffset dy="1" in="SourceAlpha"/><feGaussianBlur stdDeviation="2"/><feColorMatrix values="0 0 0 0 0 0 0 0 0 0.160784314 0 0 0 0 0.349019608 0 0 0 0.1 0" result="C"/><feMerge><feMergeNode in="C"/><feMergeNode in="SourceGraphic"/></feMerge></filter><path d="M58.5 0C26.19 0 0 26.19 0 58.5S26.19 117 58.5 117 117 90.81 117 58.5 90.81 0 58.5 0zm.5 10c27.062 0 49 21.938 49 49s-21.938 49-49 49-49-21.938-49-49 21.938-49 49-49z" id="I"/><filter x="-6.5%" y="-8.3%" width="113.1%" height="116.5%" id="J"><feOffset dy="1" in="SourceAlpha"/><feGaussianBlur stdDeviation="2"/><feColorMatrix values="0 0 0 0 0 0 0 0 0 0.160784314 0 0 0 0 0.349019608 0 0 0 0.1 0" result="C"/><feMerge><feMergeNode in="C"/><feMergeNode in="SourceGraphic"/></feMerge></filter><path d="M33.19.3C14.945.3.154 15.094.154 33.33s14.79 33.02 33.037 33.02 33.037-14.783 33.037-33.02S51.437.3 33.19.3zm-.46 11.924c11.404 0 20.648 9.24 20.648 20.637S44.136 53.51 32.732 53.51 12.084 44.27 12.084 32.87s9.245-20.637 20.648-20.637z" id="K"/><filter ><feColorMatrix in="SourceGraphic" values="0 0 0 0 0.999902 0 0 0 0 1.000000 0 0 0 0 0.999880 0 0 0 1.000000 0"/></filter><filter x="-69.0%" y="-69.0%" width="237.9%" height="237.9%" ><feOffset dy="24" in="SourceAlpha"/><feGaussianBlur stdDeviation="16"/><feColorMatrix values="0 0 0 0 0 0 0 0 0 0.164542109 0 0 0 0 0.362271488 0 0 0 0.1 0" result="C"/><feMerge><feMergeNode in="C"/><feMergeNode in="SourceGraphic"/></feMerge></filter><filter x="-67.6%" y="-67.6%" width="242.6%" height="256.4%" id="N"><feOffset dy="14" in="SourceAlpha"/><feGaussianBlur stdDeviation="9.5"/><feColorMatrix values="0 0 0 0 0 0 0 0 0 0.164542109 0 0 0 0 0.362271488 0 0 0 0.1 0" result="C"/><feMerge><feMergeNode in="C"/><feMergeNode in="SourceGraphic"/></feMerge></filter><linearGradient x1="50%" y1="0%" x2="50%" y2="96.6897419%" id="O"><stop stop-color="#fff" offset="0%"/><stop stop-color="#f3f3f3" offset="100%"/></linearGradient><path d="M35.188 0C26.62 0 19.674 6.946 19.674 15.514a15.64 15.64 0 0 0 .215 2.591l.027.155.02.1c.144.835.217 1.69.217 2.556l-.001.19a14.96 14.96 0 0 1-9.572 13.769l-.107.04A15.52 15.52 0 0 0 0 49.591c0 8.568 6.946 15.514 15.514 15.514S31.028 58.16 31.028 49.59a15.61 15.61 0 0 0-.272-2.906 15.05 15.05 0 0 1-.207-2.496 14.96 14.96 0 0 1 9.667-13.994 15.52 15.52 0 0 0 10.486-14.681C50.703 6.946 43.757 0 35.188 0z" id="P"/><filter x="-3.9%" y="-3.1%" width="107.9%" height="106.1%" id="Q"><feGaussianBlur stdDeviation="1" in="SourceAlpha"/><feOffset dy="2"/><feComposite in2="SourceAlpha" operator="arithmetic" k2="-1" k3="1"/><feColorMatrix values="0 0 0 0 0.999901831 0 0 0 0 1 0 0 0 0 0.999879897 0 0 0 0.206484921 0"/></filter><path d="M55.264 34.025c-8.568 0-15.514 6.946-15.514 15.514s6.946 15.514 15.514 15.514 15.514-6.946 15.514-15.514-6.946-15.514-15.514-15.514z" id="R"/><filter x="-114.4%" y="-69.3%" width="328.8%" height="328.8%" id="S"><feOffset dy="14" in="SourceAlpha"/><feGaussianBlur stdDeviation="9.5"/><feColorMatrix values="0 0 0 0 0 0 0 0 0 0.164542109 0 0 0 0 0.362271488 0 0 0 0.1 0"/></filter><filter x="-67.6%" y="-67.6%" width="235.1%" height="235.1%" id="T"><feOffset dy="14" in="SourceAlpha"/><feGaussianBlur stdDeviation="9.5"/><feColorMatrix values="0 0 0 0 0 0 0 0 0 0.164542109 0 0 0 0 0.362271488 0 0 0 0.1 0" result="C"/><feMerge><feMergeNode in="C"/><feMergeNode in="SourceGraphic"/></feMerge></filter><linearGradient x1="50%" y1="-32.4256264%" x2="50%" y2="100%" id="U"><stop stop-color="#0064ff" offset="0%"/><stop stop-color="#001d71" offset="100%"/></linearGradient><filter x="-3.9%" y="-3.1%" width="107.9%" height="106.1%" id="V"><feGaussianBlur stdDeviation="1" in="SourceAlpha"/><feOffset dy="2"/><feComposite in2="SourceAlpha" operator="arithmetic" k2="-1" k3="1"/><feColorMatrix values="0 0 0 0 0 0 0 0 0 0.11269284 0 0 0 0 0.441384435 0 0 0 1 0"/></filter><filter x="-6.4%" y="-6.4%" width="112.9%" height="112.9%" id="W"><feGaussianBlur stdDeviation="1" in="SourceAlpha"/><feOffset dy="2"/><feComposite in2="SourceAlpha" operator="arithmetic" k2="-1" k3="1"/><feColorMatrix values="0 0 0 0 0 0 0 0 0 0.11269284 0 0 0 0 0.441384435 0 0 0 1 0"/></filter><path id="X" d="M24.025 0h156.6c12.914 0 23.386 10.462 23.4 23.375l.35 334.2C204.39 370.5 193.923 380.986 181 381h-.025-156.6C11.462 381 .99 370.538.975 357.625l-.35-334.2C.61 10.5 11.077.014 24 0h.025z"/><path id="Y" d="M7.982 0C3.574 0 0 3.574 0 7.982s3.574 7.982 7.982 7.982 7.982-3.574 7.982-7.982S12.4 0 7.982 0z"/><path id="Z" d="M12.23 10.36l.046-1.047.07-.925.086.163.134.27.158.33.16.34.142.305.098.225h.21l.098-.225.142-.305.16-.34.158-.33.134-.27.086-.163.07.925.046 1.047h.236l-.07-1.233L14.295 8H14.1l-.22.393-.23.463-.223.473-.2.42-.2-.42-.223-.473-.23-.463-.22-.393h-.205l-.098 1.127L12 10.36h.23zm3.298.037l.214-.01.2-.022.15-.026.1-.022v-1.1c0-.093-.01-.18-.034-.26s-.06-.148-.1-.206a.51.51 0 0 0-.197-.136c-.08-.033-.18-.05-.296-.05s-.212.008-.293.024a.83.83 0 0 0-.18.051h0l.03.194a1.84 1.84 0 0 1 .14-.044c.064-.018.16-.027.29-.027a.49.49 0 0 1 .221.043c.056.028.1.066.13.112a.39.39 0 0 1 .06.157c.01.058.014.117.014.18h0v.11c-.01-.005-.026-.01-.05-.015l-.086-.017-.103-.014-.1-.005c-.107 0-.207.01-.298.03s-.17.053-.236.097-.118.1-.154.17-.055.15-.055.245.017.184.05.254a.46.46 0 0 0 .137.17c.058.044.127.077.205.097a1.03 1.03 0 0 0 .259.031zm.038-.198c-.07 0-.134-.006-.2-.02s-.104-.032-.144-.06a.27.27 0 0 1-.092-.109c-.022-.045-.033-.1-.033-.167 0-.075.016-.135.048-.18a.34.34 0 0 1 .123-.107c.05-.026.105-.043.164-.05a1.29 1.29 0 0 1 .171-.012c.096 0 .17.006.226.02s.095.024.12.036h0v.62c-.046.01-.1.016-.166.022l-.228.01zm1.137.8a.9.9 0 0 0 .262-.034.54.54 0 0 0 .195-.106c.056-.048.107-.108.152-.182a1.96 1.96 0 0 0 .134-.264c.1-.26.21-.544.305-.855L18 8.6h-.223l-.098.42-.096.38-.108.373-.134.398-.192-.415-.163-.412-.132-.4-.096-.352h-.236l.13.45.166.46.195.455.217.432a1.23 1.23 0 0 1-.098.198c-.033.052-.07.095-.11.128a.37.37 0 0 1-.139.07c-.05.014-.11.02-.173.02-.046 0-.1-.006-.132-.02s-.068-.022-.077-.03h0l-.045.184c.01.007.04.017.087.03s.1.02.156.02z"/><path id="a" d="M180.994 30.985v30.26h-29.93l.003-.356c.263-16.395 13.36-29.635 29.574-29.9l.352-.003z"/><path id="b" d="M62.2 9a9 9 0 0 0 9 9H136a9 9 0 0 0 9-9h0-82.8z"/><path id="c" d="M74.85 346.008l-14.238 3.324a.79.79 0 0 0-.606.67.78.78 0 0 0 .427.794l4.044 2.037.413 4.087c.033.328.27.6.59.68s.662-.047.848-.32l.123-.124-.818-3.12a1.06 1.06 0 0 1 .523-1.004l3.514-2.064-2.808 2.69a.78.78 0 0 0-.22.74l1.28 5.487a.79.79 0 0 0 .674.601c.33.04.65-.13.8-.424l6.69-12.96a.77.77 0 0 0 .079-.153c.07-.182.027-.46-.053-.65-.1-.235-.52-.334-1.262-.296z"/><path id="d" d="M34.045 353.836h2.945v-2.945h-2.945v2.945zm-4.418 0h2.945v-2.945h-2.945v2.945zm0 4.418h2.945v-2.945h-2.945v2.945zm-4.418-4.418h2.945v-2.945H25.21v2.945zm0 4.418h2.945v-2.945H25.21v2.945zm12.518-11.78h-1.473V345h-1.473v3.682H33.31v-2.21H28.89V345h-1.473v3.682h-1.473v-2.21h-1.473c-.812 0-1.473.66-1.473 1.473v11.045c0 .81.66 1.473 1.473 1.473h13.255c.812 0 1.473-.66 1.473-1.473v-11.045c0-.812-.66-1.473-1.473-1.473z"/><path id="e" d="M145.857 353.57a.86.86 0 0 1-.857-.857.86.86 0 0 1 .857-.857.86.86 0 0 1 .857.857.86.86 0 0 1-.857.857m-3.43 0a.86.86 0 0 1-.857-.857.86.86 0 0 1 .857-.857.86.86 0 0 1 .857.857.86.86 0 0 1-.857.857m-3.43 0a.86.86 0 0 1-.857-.857.86.86 0 0 1 .857-.857.86.86 0 0 1 .857.857.86.86 0 0 1-.857.857m3.43-8.57c-4.726 0-8.57 3.46-8.57 7.714 0 1.487.464 2.907 1.348 4.145L133 360.43h9.43c4.726 0 8.57-3.46 8.57-7.714S147.155 345 142.43 345"/><path id="f" d="M104.29 359.366l-6.26-6.26 3.677-3.677 2.403 2.403 3.85-4.234H98.6c-.882 0-1.6.718-1.6 1.6v9.6a1.6 1.6 0 0 0 1.6 1.6h11.2a1.6 1.6 0 0 0 1.6-1.6v-7.255l-7.1 7.822z"/><path id="g" d="M104.234 357.048l-3.942-3.94 1.414-1.414 2.458 2.458 7.294-8.024 1.48 1.345z"/><path id="h" d="M178.2 353.2c1.985 0 3.6-1.615 3.6-3.6s-1.615-3.6-3.6-3.6-3.6 1.615-3.6 3.6 1.615 3.6 3.6 3.6"/><path id="i" d="M178.2 354.1c-4.24 0-7.2 2.22-7.2 5.4v.9h14.4v-.9c0-3.18-2.96-5.4-7.2-5.4"/><path id="j" d="M10.14 12.16h48.474c1.186 0 2.147.96 2.147 2.147v1.2c0 1.186-.96 2.147-2.147 2.147H10.14c-1.186 0-2.147-.96-2.147-2.147v-1.2c0-1.186.96-2.147 2.147-2.147z"/><path id="k" d="M11.058 24.085h48.474c1.186 0 2.147.96 2.147 2.147v1.2c0 1.186-.96 2.147-2.147 2.147H11.058c-1.186 0-2.147-.96-2.147-2.147v-1.2c0-1.186.96-2.147 2.147-2.147z"/></defs><g transform="translate(61 24)" fill="none" fill-rule="evenodd"><g filter="url(#A)"><use xlink:href="#X" class="E"/><g transform="translate(9 9)"><mask id="l" class="E"><use xlink:href="#B"/></mask><use fill="#fafafa" xlink:href="#B"/><path d="M-8-29h204v71H-8z" class="G R"/><rect x="49" y="20" width="91" height="12" rx="4" class="I R"/><g class="R"><g transform="translate(6 51)"><g filter="url(#C)"><mask id="m" class="E"><use xlink:href="#D"/></mask><use xlink:href="#D" class="C E N"/><rect x="109" y="114" width="59" height="16" rx="3" class="H I"/><g class="H"><g transform="translate(8 114)"><path d="M7.787 0A7.79 7.79 0 0 0 0 7.787a7.79 7.79 0 0 0 7.787 7.787 7.79 7.79 0 0 0 7.787-7.787A7.79 7.79 0 0 0 7.787 0z" class="F O"/><g transform="translate(.81 3.453)"><path d="M5.838 1.104c-1.768 0-3.348.468-4.528 1.213-.478.302-.857.633-1.076.935-.132.182-.212.36-.222.545-.016.314.186.572.495.636l.027.005c.2.038.497.053 1.19.07l.627.017 1.5.066.096.007.083.006c.714.053 1.313.133 1.788.244l.033.008V7.62c.064.65.765.977 2.104.977s2.863-.377 4.57-1.132l-.237-2.05.017-.004c.244-.065.45-.157.62-.28.32-.232.495-.566.495-.96 0-.453-.254-.794-.69-.908l-.017-.004c-.186-.046-.4-.05-.648-.02l-.028.004-.044-.382-.156-.124c-1.383-1.097-3.39-1.635-6.008-1.635z" class="F K"/><g class="B C D P"><path d="M4.623 1.69c.686.04.578.055 1.068-.422"/><path d="M4.69 2.042c.54-.038.596-.244.966-.698"/><path d="M5.89 1.317c.136.347.368.37.73.342"/><path d="M5.89 1.322c.08.606-.06.352.463.738"/></g><g stroke="#fff" class="B C"><path d="M4.96.2c.643-.59.973.193.904.698-.083.61-.58 1.08-1.046 1.413-.006.005-.414.28-.534.173-.288-.256-.174-.83-.053-1.173A3.19 3.19 0 0 1 4.961.21z"/><g class="D"><path d="M5.81 1.486c.106-.326.177-.737.467-.97.624-.5 1.227-.334 1.055.524-.094.47-.485 1.025-.828 1.35-.445.424-.832-.156-.766-.578.032-.205.1-.4.165-.6"/></g></g><g class="P B C D"><path d="M7.983 1.073c.146.857.228 1.514.8 2.19.84.993 2.706.577 3.485-.276"/><path d="M8.7 1.184c-.156 1.14-.06 2.428 1.38 2.623.1.013.764.05 1-.036.596-.206.62-.33 1.188-.79"/><path d="M8.962 1.193c.504 1.043 1.846 3.465 3.19 1.89"/><path d="M9.63 1.317c.118.64.178 1.29.605 1.814.567.695 1.722.553 2.203-.124"/><path d="M9.96 1.433c.323.816.934 2.184 2.043 1.73"/><path d="M10.355 1.517c.268.424.822 1.502 1.375 1.614.215.044.44-.006.66-.01"/><path d="M5.637 5.15c.543-.19.98.202 1.535.102.27-.048.596-.34.792-.49"/></g></g><path d="M5.638 10.712l2.3 1.27 3.594-1.27-.21 2.678-3.383-1.022L5.04 13.4z" class="B C P V"/></g><g transform="translate(20 114)"><use xlink:href="#Y" class="F G"/><g transform="translate(2.203 4.984)"><g transform="translate(0 .002)"><path d="M7.707 5.37c.946 0 2.108-.06 3.486-.178l.358-1.755H10l.12-2.558H1.54l-.052 1.42C.495 2.02 0 2.15 0 2.686s.443.855 1.33.96l.298 1.368 6.08.357z" class="K"/><g transform="translate(6.425 .642)" fill="#212121"><path d="M.06.204c-.043.747.62.937.805.25C1.007-.07.24-.12 0 .204"/><path d="M2.562.085c.013.16.003.32.04.477.154.675.997.02.55-.544"/></g><path d="M10.335 0c.184 0-.034 1.64-.15 1.968-.146.417-.492.327-.864.327-.12 0-.22-.004-.3-.014-.154-.188-.355-.398-.573-.588l-.166-.138.04.242-.053-.084c-.226.57-.68.73-1.232.73-1.276 0-1.785-.972-1.58-2.444h4.888zM7.8.664H6.076v.008c-.022.354.018.628.113.824l.057.1c.15.222.418.338.842.338.29 0 .487-.186.614-.64l.034-.137.024-.14.024-.188L7.8.664zm2.047 0H8.57c.18.743.42 1.066.865 1.114l.125.006c.018 0 .027-.004.044-.02.036-.034.075-.1.11-.204.06-.167.1-.403.12-.703l.01-.194z" fill="#ff0034" class="F"/><g class="B C D S"><path d="M8.47 1.913c.6.473 1.13 1.162 1.04 1.276-.12.15-.55.18-.656.12-.085-.048-.046.017-.046.572"/><path d="M7.162 3.415c.702.52 1.48.587 2.25.43"/></g><g class="P B C D"><path d="M7.913 4.75c.15.6.505.98.88 1.483"/><path d="M8.527 4.685c.4 1.298.32.744.412 1.632"/><path d="M9.037 4.78c.123 1.262.108.737.108 1.572"/><path d="M9.58 4.78L9.3 6.505"/><path d="M9.96 4.825c-.034.612-.195 1.1-.5 1.628"/><path d="M10.377 4.765c-.056.597-.226 1.172-.628 1.637"/><path d="M10.607 5.405c-.496.665-.556.868-1.298 1.043"/></g><path d="M7.212 3.197c-.045.12-.134.24-.283.246" class="B C D S"/></g></g></g><g transform="translate(32 114)"><use xlink:href="#Y" class="F O"/><g transform="translate(.506 1.698)"><path d="M.898 9.013c.01-3.946 5.233-7.442 8.237-7.44 4.56.004 3.428 7.617 3.22 7.63-1.29.09-5.1.025-11.455-.19z" transform="matrix(.956305 -.292372 .292372 .956305 -1.285552 2.213841)" class="V"/><g transform="translate(4.442 2.239)" class="X"><path d="M6.85 2.02c.197 1.57-1.34 5.535-2.965 5.317-1.364-.183-2.16-1.342-2.58-2.582-.07-.2-1.125.337-1.27-.638s1.005-.363.975-.542C.9 2.977.918 2.47.933 2.064c.002-.064.347-.262 1.083-.38.33-.052.737-.088 1.228-.09.7-.001 1.482.068 2.14.15.19.024.016-1.736.18-1.71s.667 1.836.796 1.86c.303.056.49.103.492.125z"/></g><g transform="translate(6.898 4.37)"><g transform="translate(1.986 .325)" class="B C D S"><path d="M.18 0c.09.856.722.574.722.003"/><path d="M.217.47L0 .758"/><path d="M.542.578l-.144.47"/><path d="M.722.506L.83.903"/></g><path d="M1.625 0L2.69 1.564c.054.067.16.147.128.23-.03.076-.72.133-.78.01-.03-.063-.04-.283-.038-.212.013.442.052.72.116.836" fill="#f5fff6" class="B C D P"/><g transform="translate(.108 .289)" class="B C D S"><path d="M.16.06C.025.628.825.7.975 0"/><path d="M.253.47L0 .65"/><path d="M.535.506L.504.83"/><path d="M.758.47l.108.253"/></g><path d="M1.504 2.548c.232-.044.26.29.423.196.082-.048.126-.17.22-.18.144-.017.37.047.68.19l-.56.5c-.35.322-1.815.005-2.185-.17L1.21 3.1c1.67-.26 1.293-.265-1.127-.015.33-.34 1.19-.493 1.42-.537z" fill="#ff4445" transform="matrix(.956305 .292372 -.292372 .956305 .93147 -.295462)"/></g></g></g><g transform="translate(44 114)"><path d="M8 0a8 8 0 1 0 0 16A8 8 0 1 0 8 0z" fill="#d0e4ff" class="F"/><g transform="translate(3.801 2.317)"><g transform="translate(2.425 .145)" fill="#f06aa6"><path d="M5.357.93c-.2 4.224-4.788 5.8-1.85 8.542.702.658-3.85.667-3.46 0C2.134 5.913-.047 5.154.001 1.3.006.857.07.43.184.04 2.473-.024 4.15.036 5.215.22c.085.015.132.252.142.712z"/></g><g stroke="#ffc415" class="B C D"><path d="M8.398.58c-.252 1.094-.73 2.216-.824 3.34-.067.815-.03 1.635-.045 2.452"/><path d="M8.11.543c-.565 1.42-.784 2.7-.837 4.236-.042 1.207-.163.912.078 1.41"/><path d="M7.348 1.412c-.53 2.19-.555 2.896-.183 5.14"/><path d="M7.13 6.805C5.816 5.624 6.367 3.56 6.72 2.1"/></g><path d="M4.58 1.05c.08.395.058.66-.065.795-.656.715-.912 1-1.65 2.008-.01.014-.007.05.01.05.082.001.173-.002.24-.048.473-.324.84-.816 1.364-1.05.706-.315-.968.772-.563.984.166.087 3.06-.31 2.123-.125s-2.324.445-2.208.598c.486.635.61.925.486 1.494" class="B C D S"/><g stroke="#ffc415" class="B C D"><path d="M2.824 1.8C2.4 2.94 1.83 5.7.157 6.01c-.02.004-.032-.03-.048-.043"/><path d="M2.57 1.05C2.185 2.957 1.617 4.642.036 5.756"/><path d="M2.353.326C1.862 2.1 1.613 4.032.11 5.25"/><path d="M1.846.398C1.392 2.302 1.342 3.556 0 4.887"/></g><path d="M2.3.016c-.205 0 .123 1.266.252 1.558.11.247.41.373.9.378.543.017.92-.107 1.133-.372l.032-.042c.252.506.76.65 1.377.65 1.425 0 1.994-.864 1.766-2.172H2.3zM4.826.5L7.25.465v.01c.032.417-.04.727-.203.933l-.017.02c-.195.23-.558.348-1.107.348-.376 0-.815-.147-1.004-.616l-.044-.133c-.02-.08-.02-.206-.03-.357L4.826.5zM2.693.54h1.758L4.45.8c-.014.582-.138.842-1.17.863l-.192.002a.09.09 0 0 1-.061-.02c-.05-.034-.103-.1-.153-.204-.08-.168-.137-.403-.166-.704L2.693.54z" fill="#00ffd1" class="F"/><g fill="#212121"><path d="M3.937.953c-.02.308.28.386.363.103C4.363.84 4.018.82 3.9.953" transform="matrix(-1 0 0 1 8.217194 0)"/><path d="M4.987.953c-.02.308.28.386.363.103.063-.216-.282-.237-.4-.103" transform="matrix(-1 0 0 1 10.316742 0)"/></g><g fill="#ff0034"><path d="M.9 10.377c.232.34 1.207.252.685-.438s-.917.097-.685.438z" transform="matrix(-1 0 0 1 2.570136 0)"/><path d="M2.15 10.96c.24.328 1.11.12.574-.546s-.813.218-.574.546z" transform="matrix(-1 0 0 1 4.959276 0)"/><path d="M3.818 11.156c.242.34 1.11.187.567-.504s-.81.163-.567.504z" transform="matrix(-1 0 0 1 8.289592 0)"/><path d="M5.45 10.944c.246.336 1.082.16.725-.43s-.97.096-.725.43z" transform="matrix(-1 0 0 1 11.656108 0)"/><path d="M6.746 10.545c.233.332.956.173.688-.427s-.922.095-.688.427z" transform="matrix(-1 0 0 1 14.190044 0)"/></g></g></g><g transform="translate(56 114)"><use xlink:href="#Y" class="F O"/><path d="M10.253 5.936c1.837 1.146 3.128 3.524 3.872 7.134-1.464 1.79-3.69 2.93-6.18 2.93-2.533 0-4.8-1.18-6.253-3.02.134-.908.317-1.7.546-2.405.248-.75 1.034-2.04 2.36-3.867l.405-.552c1.887.1 3.536.03 4.928-.17l.323-.05z" class="K"/><g class="B C D P"><path d="M4.182 12.083c1.09.56 1.8-.156 2.524-.936"/><path d="M7.93 11.274c.15.647.244 1.052.614 1.574.01.013-.03.007-.045.01"/><path d="M9.232 12.648c-.742-.44-.296-.11-1.128-1.228"/><path d="M10.762 12.33c-1.008-.07-2.047-.434-2.814-1.106"/><path d="M10.85 11.698c-.53.076-1.615.618-2.88-.547"/><path d="M10.812 10.933c-1.388.28-.53.17-2.59.117"/><path d="M5.228 12.957c.62-.493 1.532-1.04 1.694-1.9"/><path d="M6.116 12.947c.736-.486.218-.083 1.06-1.66"/><path d="M6.93 13c.558-1.086.374-.55.61-1.584"/><path d="M7.814 12.866c-.417-.848-.264-.363-.365-1.483"/><path d="M8.65 12.825c-.64-.867-.33-.353-.854-1.588"/><path d="M4.844 10.46c.562.332 1.34.946 1.953.394"/><path d="M4.518 11.2c.358.096 2.164.63 2.13-.283"/><path d="M5.843 6.393c-.042.385-.042.626 0 .722.27.614.692.41.867-.253"/><path d="M7 5.96c-.82 3.54-.758 5.31.18 5.31s1.264-.626.975-1.878L8 6.176c.433 1.517.843 1.59 1.228.217" class="K"/></g><g stroke="#f06aa6" fill="#f06aa6" class="B C"><path d="M4.11 9.343c-.21-.107-.33-.204-.36-.29-.17-.453.175-.7.795-.36.024-.53.23-.855.614-.975s.457.205.217.975c.383-.057.624-.057.722 0 .33.19.176.656-.506.94.337.29.385.6.144.903s-.53.17-.867-.433c-.482.578-.855.722-1.12.433s-.144-.686.36-1.192z"/><path d="M9.455 8.823c-.22-.112-.345-.213-.38-.302-.18-.474.183-.732.834-.378.025-.554.24-.895.644-1.02s.48.214.227 1.02c.402-.06.655-.06.758 0 .345.2.185.687-.53.983.354.302.404.617.152.945s-.556.176-.91-.454c-.505.605-.897.756-1.175.454s-.152-.718.38-1.247z" transform="matrix(-.987688 .156434 .156434 .987688 19.163899 -1.508232)"/></g><g fill="#c23362"><circle cx="4.922" cy="9.325" r="1"/><circle cx="10.323" cy="8.74" r="1"/></g><path d="M10.514 6.024c1.487-.266 2.318-.46 2.492-.578l-.325-.903-2.71.542c-.17-2.625-.638-3.937-1.41-3.937-.25 0-.54.36-.867 1.084C7.24.835 6.758.57 6.252 1.437s-.77 2.18-.795 3.937l-1.77-.1c-.384-.042-.685-.104-.903-.188v.83c-.04.04.23.097.802.17l1.726.154c.698.053 2.432-.02 5.2-.217z" class="V"/></g><g class="F"><path d="M16.595 66.718v-2.36h-5.407v-9.85H8.44v12.2h8.155zm5.707.247c.693 0 1.318-.117 1.876-.352a4.12 4.12 0 0 0 1.436-.995c.4-.43.705-.946.916-1.55s.317-1.27.317-2-.112-1.392-.335-1.99-.534-1.1-.934-1.533a4.18 4.18 0 0 0-1.436-.987c-.558-.235-1.17-.352-1.84-.352-.658 0-1.265.117-1.823.352a4.27 4.27 0 0 0-1.444.987c-.405.423-.722.934-.95 1.533s-.343 1.263-.343 1.99.112 1.395.335 2 .534 1.122.934 1.55a4.12 4.12 0 0 0 1.436.995c.558.235 1.177.352 1.858.352zm0-2.255c-.6 0-1.063-.238-1.39-.714s-.493-1.12-.493-1.93.164-1.448.493-1.912.793-.696 1.39-.696 1.06.232 1.383.696.484 1.1.484 1.912-.16 1.454-.484 1.93a1.57 1.57 0 0 1-1.383.714zm10.69 2.255c.693 0 1.318-.117 1.876-.352a4.12 4.12 0 0 0 1.436-.995c.4-.43.705-.946.916-1.55s.317-1.27.317-2-.112-1.392-.335-1.99-.534-1.1-.934-1.533a4.18 4.18 0 0 0-1.436-.987c-.558-.235-1.17-.352-1.84-.352-.658 0-1.265.117-1.823.352a4.27 4.27 0 0 0-1.444.987c-.405.423-.722.934-.95 1.533s-.343 1.263-.343 1.99.112 1.395.335 2 .534 1.122.934 1.55a4.12 4.12 0 0 0 1.436.995c.558.235 1.177.352 1.858.352zm0-2.255c-.6 0-1.063-.238-1.39-.714s-.493-1.12-.493-1.93.164-1.448.493-1.912.793-.696 1.39-.696 1.06.232 1.383.696.484 1.1.484 1.912-.16 1.454-.484 1.93a1.57 1.57 0 0 1-1.383.714zm9.194 2.01v-4.052c.294.235.6.523.89.863l.854 1.066.766 1.1.643 1.013h3.012l-.74-1.286-.97-1.41-1.092-1.365c-.376-.44-.74-.82-1.092-1.136l1.946-2.017 1.823-2.053h-3.118l-.6.705-.73.855-.8.907-.8.88v-7.752l-2.624.423v13.25h2.624zm8.877-10.395c.423 0 .8-.138 1.1-.414s.467-.655.467-1.136-.156-.86-.467-1.136-.678-.414-1.1-.414-.8.138-1.1.414-.467.655-.467 1.136.156.86.467 1.136.678.414 1.1.414zm1.32 10.395V57.45h-2.624v9.267h2.624zm5.1 0v-7.153l.564-.062.6-.026c.61 0 1.027.176 1.25.53s.335.95.335 1.797h0v4.916h2.624v-5.233c0-.634-.065-1.2-.194-1.727s-.346-.963-.652-1.34-.72-.667-1.242-.872-1.177-.308-1.964-.308a14.18 14.18 0 0 0-2.219.167l-1.726.36v8.95h2.624zm11.026 3.312c1.61 0 2.798-.367 3.567-1.1s1.154-1.86 1.154-3.374h0v-7.787l-.8-.203-.942-.167-.995-.115-.978-.044c-.74 0-1.403.11-2 .326s-1.083.526-1.488.925-.713.878-.925 1.436a5.21 5.21 0 0 0-.317 1.859c0 1.363.34 2.423 1.022 3.18S67.47 66.1 68.75 66.1c.352 0 .678-.032.978-.097s.6-.162.872-.29h0v.335c0 .517-.156.94-.467 1.27s-.843.493-1.594.493c-.575 0-1.09-.047-1.54-.14a7.69 7.69 0 0 1-1.295-.388h0l-.458 2.202c.48.164 1.004.297 1.568.396s1.127.15 1.69.15zm.74-6.043c-1.186 0-1.78-.734-1.78-2.202 0-.705.17-1.286.51-1.744s.857-.687 1.55-.687l.616.026.458.062v4.193c-.164.094-.364.176-.6.247s-.487.106-.757.106zm-59.675 6.35c.423 0 .8-.138 1.1-.414s.467-.655.467-1.136-.156-.86-.467-1.136-.678-.414-1.1-.414-.8.138-1.1.414S8 68.306 8 68.787s.156.86.467 1.136.678.414 1.1.414zm1.32 10.395v-9.267H8.264v9.267h2.624zm5.1 0V73.58l.564-.062.6-.026c.61 0 1.027.176 1.25.53s.335.95.335 1.797h0v4.916h2.624V75.5c0-.634-.065-1.2-.194-1.727s-.346-.963-.652-1.34-.72-.667-1.242-.872-1.177-.308-1.964-.308a14.18 14.18 0 0 0-2.219.167l-1.726.36v8.95h2.624zm11.326.21c.564 0 1.04-.047 1.427-.14s.74-.206 1.057-.335h0l-.37-2.044c-.247.094-.52.167-.82.22s-.6.08-.872.08c-.587 0-.978-.164-1.17-.493s-.29-.77-.29-1.32h0v-3.26h3.153v-2.185h-3.153v-2.73l-2.624.423v7.787c0 .6.056 1.145.167 1.64s.308.913.6 1.26.658.617 1.127.8 1.063.29 1.78.29zm8.014.035c.693 0 1.318-.117 1.876-.352a4.12 4.12 0 0 0 1.436-.995c.4-.43.705-.946.916-1.55s.317-1.27.317-2-.112-1.392-.335-1.99-.534-1.1-.934-1.533a4.18 4.18 0 0 0-1.436-.987c-.558-.235-1.17-.352-1.84-.352-.658 0-1.265.117-1.823.352a4.27 4.27 0 0 0-1.444.987c-.405.423-.722.934-.95 1.533s-.343 1.263-.343 1.99.112 1.395.335 2 .534 1.122.934 1.55a4.12 4.12 0 0 0 1.436.995c.558.235 1.177.352 1.858.352zm0-2.255c-.6 0-1.063-.238-1.39-.714s-.493-1.12-.493-1.93.164-1.448.493-1.912.793-.696 1.39-.696 1.06.232 1.383.696.484 1.1.484 1.912-.16 1.454-.484 1.93a1.57 1.57 0 0 1-1.383.714zm14.373 2.22c.564 0 1.04-.047 1.427-.14s.74-.206 1.057-.335h0l-.37-2.044c-.247.094-.52.167-.82.22s-.6.08-.872.08c-.587 0-.978-.164-1.17-.493s-.29-.77-.29-1.32h0v-3.26h3.153v-2.185h-3.153v-2.73l-2.624.423v7.787c0 .6.056 1.145.167 1.64s.308.913.6 1.26.658.617 1.127.8 1.063.29 1.78.29zm6.87-.21v-7.047l.555-.132c.205-.04.426-.062.66-.062.587 0 .99.176 1.207.53s.326.95.326 1.797h0v4.916h2.624V75.5a7.45 7.45 0 0 0-.185-1.727c-.123-.517-.335-.963-.634-1.34s-.7-.667-1.198-.872-1.124-.308-1.876-.308a4.26 4.26 0 0 0-.801.079c-.276.053-.502.11-.678.167h0v-4.44l-2.624.423v13.25h2.624zm12.206.247a9.25 9.25 0 0 0 .986-.053l.925-.132c.288-.053.55-.115.784-.185s.423-.14.564-.21h0l-.352-2.132c-.294.13-.672.238-1.136.326a7.58 7.58 0 0 1-1.418.132c-.752 0-1.35-.16-1.797-.476s-.7-.746-.757-1.286h5.953l.035-.485.018-.502c0-1.562-.382-2.746-1.145-3.55s-1.802-1.207-3.118-1.207a4.44 4.44 0 0 0-1.647.317 4.14 4.14 0 0 0-1.418.934c-.41.41-.743.925-.995 1.542s-.38 1.336-.38 2.158c0 .68.097 1.316.29 1.903a4.02 4.02 0 0 0 .898 1.524c.405.43.916.766 1.532 1.013s1.342.37 2.175.37zm1.268-5.814h-3.47a3.76 3.76 0 0 1 .167-.661c.076-.217.185-.408.326-.573s.317-.297.528-.396a1.76 1.76 0 0 1 .757-.15c.305 0 .56.053.766.16s.376.24.51.405a1.63 1.63 0 0 1 .299.564 2.71 2.71 0 0 1 .114.652h0zM11.188 94.748v-5.04h4.826V87.4h-4.826v-2.555h5.425v-2.308H8.44v12.2h2.748zm10.797.21a14.18 14.18 0 0 0 2.219-.167l1.726-.36v-8.95h-2.624v7.153l-.564.062-.6.026c-.61 0-1.027-.188-1.25-.564s-.335-.987-.335-1.832h0V85.48h-2.624v5.162c0 .634.065 1.216.194 1.744s.346.984.652 1.365.72.678 1.242.9 1.177.317 1.964.317zm9.987 0c.564 0 1.04-.047 1.427-.14s.74-.206 1.057-.335h0l-.37-2.044c-.247.094-.52.167-.82.22s-.6.08-.872.08c-.587 0-.978-.164-1.17-.493s-.29-.77-.29-1.32h0v-3.26h3.153V85.48h-3.153v-2.73l-2.624.423v7.787c0 .6.056 1.145.167 1.64s.308.913.6 1.26.658.617 1.127.8 1.063.29 1.78.29zm8.208 0a14.18 14.18 0 0 0 2.219-.167l1.726-.36v-8.95H41.5v7.153l-.564.062-.6.026c-.61 0-1.027-.188-1.25-.564s-.335-.987-.335-1.832h0V85.48H36.13v5.162c0 .634.065 1.216.194 1.744s.346.984.652 1.365.72.678 1.242.9 1.177.317 1.964.317zm9.036-.21v-7.083c.117-.035.29-.068.52-.097a4.74 4.74 0 0 1 .59-.044c.364 0 .705.032 1.022.097l.828.185.44-2.167c-.14-.06-.31-.11-.51-.15l-.6-.106-.6-.07-.51-.026c-.787 0-1.5.073-2.14.22l-1.664.467v8.774h2.624zm9.09.247a9.25 9.25 0 0 0 .986-.053l.925-.132c.288-.053.55-.115.784-.185s.423-.14.564-.21h0l-.352-2.132c-.294.13-.672.238-1.136.326a7.58 7.58 0 0 1-1.418.132c-.752 0-1.35-.16-1.797-.476s-.7-.746-.757-1.286h5.953l.035-.485.018-.502c0-1.562-.382-2.746-1.145-3.55s-1.802-1.207-3.118-1.207a4.44 4.44 0 0 0-1.647.317 4.14 4.14 0 0 0-1.418.934c-.41.41-.743.925-.995 1.542s-.38 1.336-.38 2.158c0 .68.097 1.316.29 1.903a4.02 4.02 0 0 0 .898 1.524c.405.43.916.766 1.532 1.013s1.342.37 2.175.37zm1.268-5.814h-3.47a3.76 3.76 0 0 1 .167-.661c.076-.217.185-.408.326-.573s.317-.297.528-.396a1.76 1.76 0 0 1 .757-.15c.305 0 .56.053.766.16s.376.24.51.405a1.63 1.63 0 0 1 .299.564 2.71 2.71 0 0 1 .114.652h0z" class="L"/><path d="M14.525 49.5v-.9H9.42v-.03c0-.25.06-.502.18-.757s.28-.515.484-.78a9.36 9.36 0 0 1 .687-.796l.788-.79.952-.937c.312-.312.59-.635.835-.968s.44-.68.585-1.038.22-.742.22-1.148c0-.916-.265-1.632-.796-2.147s-1.322-.773-2.373-.773c-.396 0-.755.05-1.077.148s-.606.216-.85.35-.448.273-.61.414l-.336.32.53.703a5.24 5.24 0 0 1 .297-.265 3.23 3.23 0 0 1 .492-.336 3.6 3.6 0 0 1 .679-.289c.26-.083.557-.125.9-.125.593 0 1.085.16 1.475.476s.585.84.585 1.57c0 .333-.052.64-.156.92a3.44 3.44 0 0 1-.422.796c-.177.25-.382.492-.617.726l-.742.726-.976.937c-.338.323-.645.672-.92 1.046a5.79 5.79 0 0 0-.679 1.195c-.177.422-.265.877-.265 1.366l.008.258.008.117h6.23zm5.714.234c1.103 0 1.96-.484 2.568-1.452s.913-2.363.913-4.185c0-1.832-.304-3.233-.913-4.2s-1.465-1.452-2.568-1.452c-1.114 0-1.972.484-2.576 1.452s-.905 2.37-.905 4.2c0 1.822.304 3.217.913 4.185s1.465 1.452 2.568 1.452zm0-.92c-.458 0-.838-.13-1.14-.4s-.544-.606-.726-1.038-.312-.932-.4-1.5a13.12 13.12 0 0 1-.117-1.788 13.12 13.12 0 0 1 .117-1.788c.078-.567.208-1.07.4-1.507s.424-.786.726-1.046.682-.4 1.14-.4c.448 0 .822.13 1.124.4s.546.61.734 1.046.32.94.398 1.507a13.12 13.12 0 0 1 .117 1.788 13.12 13.12 0 0 1-.117 1.788c-.078.567-.21 1.067-.398 1.5s-.432.778-.734 1.038-.677.4-1.124.4zm11.896.687v-.9H27.03v-.03c0-.25.06-.502.18-.757s.28-.515.484-.78a9.36 9.36 0 0 1 .687-.796l.788-.79.952-.937c.312-.312.59-.635.835-.968s.44-.68.585-1.038.22-.742.22-1.148c0-.916-.265-1.632-.796-2.147s-1.322-.773-2.373-.773c-.396 0-.755.05-1.077.148s-.606.216-.85.35-.448.273-.61.414l-.336.32.53.703a5.24 5.24 0 0 1 .297-.265 3.23 3.23 0 0 1 .492-.336 3.6 3.6 0 0 1 .679-.289c.26-.083.557-.125.9-.125.593 0 1.085.16 1.475.476s.585.84.585 1.57c0 .333-.052.64-.156.92a3.44 3.44 0 0 1-.422.796c-.177.25-.382.492-.617.726l-.742.726-.976.937c-.338.323-.645.672-.92 1.046a5.79 5.79 0 0 0-.679 1.195c-.177.422-.265.877-.265 1.366l.008.258.008.117h6.23zm6.822 0V38.677h-.718c-.48.583-.963 1.044-1.452 1.382s-1.046.617-1.67.835h0l.297.78c.25-.073.5-.17.75-.29l.718-.375a6.03 6.03 0 0 0 .617-.398c.182-.135.33-.265.445-.4h0V49.5h1.015z" class="M"/><g class="I"><path d="M14.938 19v-.564h-3.133v-.02a1.15 1.15 0 0 1 .11-.48c.073-.16.172-.326.297-.494a5.88 5.88 0 0 1 .422-.504l.484-.5.584-.593c.192-.198.363-.402.513-.613a3.07 3.07 0 0 0 .359-.657c.09-.227.134-.47.134-.727 0-.58-.163-1.033-.49-1.36s-.81-.49-1.456-.49c-.243 0-.463.03-.66.094s-.372.137-.522.222-.275.173-.374.262L11 12.78l.326.445c.038-.04.1-.096.182-.168a1.98 1.98 0 0 1 .302-.213c.118-.07.257-.13.417-.183a1.74 1.74 0 0 1 .546-.079c.364 0 .666.1.905.302s.36.532.36.994c0 .21-.032.405-.096.583s-.15.346-.26.504-.235.31-.378.46l-.455.46-.6.593a5.01 5.01 0 0 0-.565.662 3.7 3.7 0 0 0-.417.756c-.11.267-.163.555-.163.865l.005.163.005.074h3.823zm3.42 0v-6.852h-.44c-.294.37-.59.66-.89.875s-.642.39-1.025.53h0l.182.494c.153-.046.307-.107.46-.183l.44-.237a3.69 3.69 0 0 0 .378-.252c.112-.086.203-.168.273-.247h0V19h.623z"/><use xlink:href="#Z"/></g></g></g><g opacity=".92" class="H"><g transform="translate(90.07 36.686)"><g transform="translate(38.029)"><path d="M38.408 19.18V.022H19.326l.002.225c.168 10.38 8.517 18.762 18.856 18.93l.224.002z" fill="#5fbff9"/><path d="M38.408 19.616v19.157H19.326l.002-.225c.168-10.38 8.517-18.762 18.856-18.93l.224-.002z" class="T"/><path d="M19.326 38.773V19.616H.244l.002.225c.168 10.38 8.517 18.762 18.856 18.93l.224.002z" class="K"/><ellipse cx="9.785" cy="9.6" rx="9.541" ry="9.578" class="U"/><ellipse cx="9.785" cy="48.42" rx="9.541" ry="9.578" class="M"/></g><path d="M19.615 58.06V38.84H0l.002.226C.174 49.48 8.757 57.89 19.385 58.06h.23z" class="U"/><path d="M19.615 0v19.22H0l.002-.226C.174 8.58 8.757.17 19.385.002l.23-.002z" class="I"/><path d="M19.615 19.22V0H39.23l-.002.226c-.172 10.413-8.755 18.824-19.383 18.992l-.23.002z" class="T"/><path d="M19.615 19.62v19.22H0l.002-.226C.174 28.202 8.757 19.79 19.385 19.623l.23-.002z" class="M"/><path d="M29.022 38.84c5.195 0 9.407 4.303 9.407 9.6s-4.212 9.6-9.407 9.6-9.407-4.303-9.407-9.6 4.212-9.6 9.407-9.6z" fill="#ff8100"/></g></g><g class="B D N H"><path d="M0 26h177"/><path d="M0 107h177"/></g></g><rect x="7" y="5" width="16" height="17" rx="3" class="B C Y"/><rect x="28" y="11" width="57.5" height="6" rx="3" class="G"/></g><g transform="translate(6 193)"><g filter="url(#C)"><mask id="n" class="E"><use xlink:href="#F" href="#D"/></mask><use xlink:href="#F" class="C E N" href="#D"/><g class="Q"><g transform="translate(0 26)"><mask id="o" class="E"><use xlink:href="#E"/></mask><use xlink:href="#E" class="K"/><g opacity=".92" style="mix-blend-mode:overlay" mask="url(#o)"><g transform="translate(-5)"><g transform="translate(.601)"><g fill="#5fbff9"><path d="M180.994 30.294V.034h-29.93l.003.356c.263 16.395 13.36 29.635 29.574 29.9l.352.003z"/><path d="M29.93 30.294V.034H0L.003.4c.263 16.395 13.36 29.635 29.574 29.9l.352.003z"/></g><use xlink:href="#a" transform="matrix(-1 0 0 -1 332.059424 92.231022)" class="T"/><path d="M151.065 61.246v-30.26h-29.93l.003.356c.263 16.395 13.36 29.635 29.574 29.9l.352.003z" class="K"/><ellipse cx="136.101" cy="15.164" rx="14.964" ry="15.13" class="U"/><ellipse cx="136.255" cy="76.482" rx="14.964" ry="15.13" class="M"/></g><g class="T"><use xlink:href="#a" x="0.28" y="30.348"/><path d="M91.647 30.985v30.26H61.72l.003-.356c.263-16.395 13.36-29.635 29.574-29.9l.352-.003z"/></g><ellipse cx="106.583" cy="15.164" rx="14.964" ry="15.13" class="U"/><ellipse cx="106.583" cy="46.335" rx="14.964" ry="15.13" class="G"/><g class="M"><ellipse cx="106.583" cy="76.482" rx="14.964" ry="15.13"/><ellipse cx="14.964" cy="76.482" rx="14.964" ry="15.13"/></g><path d="M61.267 92V61.333H30.033l.003.36C30.3 78.31 43.978 91.728 60.9 91.997l.367.003z" class="U"/><path d="M61.868 0v30.667H30.634l.003-.36C30.91 13.69 44.578.272 61.5.003L61.868 0z" class="M"/><ellipse cx="16.818" cy="46.301" rx="15.017" ry="15.033" class="G"/><path d="M61.267 30.667V0h31.234L92.5.36c-.274 16.615-13.942 30.034-30.864 30.303l-.367.003z" class="T"/><path d="M61.267 30.667v30.667H30.033l.003-.36C30.3 44.358 43.978 30.94 60.9 30.67l.367-.003z" class="M"/><ellipse fill="#ff8100" transform="matrix(1 0 0 -1 0 153.333334)" cx="76.284" cy="76.667" rx="15.017" ry="15.333"/></g></g></g></g><g class="F I Q"><path d="M13.938 19v-.564h-3.133v-.02a1.15 1.15 0 0 1 .11-.48c.073-.16.172-.326.297-.494a5.88 5.88 0 0 1 .422-.504l.484-.5.584-.593c.192-.198.363-.402.513-.613a3.07 3.07 0 0 0 .359-.657c.09-.227.134-.47.134-.727 0-.58-.163-1.033-.49-1.36s-.81-.49-1.456-.49c-.243 0-.463.03-.66.094s-.372.137-.522.222-.275.173-.374.262L10 12.78l.326.445c.038-.04.1-.096.182-.168a1.98 1.98 0 0 1 .302-.213c.118-.07.257-.13.417-.183a1.74 1.74 0 0 1 .546-.079c.364 0 .666.1.905.302s.36.532.36.994c0 .21-.032.405-.096.583s-.15.346-.26.504-.235.31-.378.46l-.455.46-.6.593a5.01 5.01 0 0 0-.565.662 3.7 3.7 0 0 0-.417.756c-.11.267-.163.555-.163.865l.005.163.005.074h3.823z"/><path d="M19.938 19v-.564h-3.133v-.02a1.15 1.15 0 0 1 .11-.48c.073-.16.172-.326.297-.494a5.88 5.88 0 0 1 .422-.504l.484-.5.584-.593c.192-.198.363-.402.513-.613a3.07 3.07 0 0 0 .359-.657c.09-.227.134-.47.134-.727 0-.58-.163-1.033-.49-1.36s-.81-.49-1.456-.49c-.243 0-.463.03-.66.094s-.372.137-.522.222-.275.173-.374.262L16 12.78l.326.445c.038-.04.1-.096.182-.168a1.98 1.98 0 0 1 .302-.213c.118-.07.257-.13.417-.183a1.74 1.74 0 0 1 .546-.079c.364 0 .666.1.905.302s.36.532.36.994c0 .21-.032.405-.096.583s-.15.346-.26.504-.235.31-.378.46l-.455.46-.6.593a5.01 5.01 0 0 0-.565.662 3.7 3.7 0 0 0-.417.756c-.11.267-.163.555-.163.865l.005.163.005.074h3.823z"/><use xlink:href="#Z"/></g><g class="B D N Q"><path d="M0 26h177"/><path d="M0 107h177"/></g></g><rect x="7" y="5" width="16" height="17" rx="3" class="B C Y"/><rect x="9" y="113" width="59" height="16" rx="3" class="I"/><rect opacity=".315" x="72" y="113" width="59" height="16" rx="3" class="B Y"/><rect x="28" y="11" width="57.5" height="6" rx="3" class="G"/></g></g><g transform="matrix(1 0 0 -1 0 725)" class="R"><use filter="url(#G)" xlink:href="#F" class="L"/><use xlink:href="#F" class="E"/></g></g><use xlink:href="#b" fill="#efefef"/></g><g class="I"><use xlink:href="#c"/><use xlink:href="#d"/><use xlink:href="#e"/><use xlink:href="#f"/><use xlink:href="#g"/><use xlink:href="#h"/><use xlink:href="#i"/></g><g transform="translate(273 159)"><g filter="url(#A)"><use xlink:href="#X" class="E"/><g transform="translate(9 9)"><mask id="p" class="E"><use xlink:href="#K" href="#B"/></mask><use fill="#fafafa" xlink:href="#K" href="#B"/><g filter="url(#H)" class="J"><g transform="translate(6 54)"><path stroke-width=".68" d="M0 .11h176v176H0z" class="N W"/><use xlink:href="#j" class="G"/><use xlink:href="#k" class="X"/><g transform="translate(29 43)"><mask id="q" class="E"><use xlink:href="#I"/></mask><use fill="#f7fff7" opacity=".22" xlink:href="#I" class="F"/><g mask="url(#q)"><g transform="translate(-23 -15)"><path d="M80.047 73.404v.417L157 80c-3.685 1.635-8.752 27.728-26 41-17.605 13.546-47.403 14.258-51.767 14.258-33.332 0-60.416-27.274-60.955-61.127l-.006-.727h61.774z" class="W"/><path d="M0 79l80.07-5.73L159 55c22.42-9.2-17.155 43.906-17.155 18.565C141.846 40.246 130.8.538 97 0 65.245 9.41 44.912 17.742 36 25 23.356 35.297 11.356 53.297 0 79z" class="E"/></g></g></g></g></g><g filter="url(#J)" class="J"><g transform="translate(6 236)"><path stroke-width=".68" d="M0 .11h176v138.625H0z" class="E N"/><use xlink:href="#j" class="G"/><use xlink:href="#k" class="X"/><g transform="translate(17.999 39.984)"><mask id="r" class="E"><use xlink:href="#K"/></mask><use fill="#0202c8" xlink:href="#K" class="F"/><g mask="url(#r)"><g transform="translate(-2.753 -1.834)"><path d="M35.04 0v34.854H.168c0-19.15 15.22-34.545 34.46-34.85L35.04 0z" class="G"/><path d="M35.026 35.164v.235l13.26 31.725a33.79 33.79 0 0 1-13.721 2.894C15.75 70.02.46 54.65.157 35.574l-.003-.4h34.872z" class="I"/><path d="M35.04.917V35.09l13.322 31.868c12.656-5.178 21.55-17.422 21.55-31.702C69.913 16.48 54.536 1.224 35.45.92l-.41-.003z" class="W"/></g></g></g><g transform="translate(94.168 39.984)"><mask id="s" class="E"><use xlink:href="#P" href="#K"/></mask><use fill="#0202c8" xlink:href="#P" class="F" href="#K"/><g mask="url(#s)"><g transform="translate(-1.835 -1.935)"><path d="M35.04.1v34.854H.168C.168 15.804 15.388.4 34.627.104L35.04.1z" class="K"/><path d="M35.026 35.265v.235l13.26 31.725a33.79 33.79 0 0 1-13.721 2.894C15.75 70.12.46 54.75.157 35.675l-.003-.4h34.872z" class="I"/><path d="M35.04 1.044v34.828L10.277 82.23C148.223 46.893 54.688 1.356 35.453 1.047l-.412-.003z" class="W"/></g></g></g><path d="M127.18 124.355h40.556c1.186 0 2.147.96 2.147 2.147v1.823c0 1.186-.96 2.147-2.147 2.147H127.18c-1.186 0-2.147-.96-2.147-2.147v-1.823c0-1.186.96-2.147 2.147-2.147z" class="I"/></g></g><path d="M-8-29h204v71H-8z" class="G J"/><rect x="49" y="20" width="91" height="12" rx="4" class="I J"/><g class="G J"><rect x="26" y="207" width="49" height="10" rx="4"/><rect x="114" y="207" width="49" height="10" rx="4"/></g><rect x="78" y="169" width="32" height="19" rx="4" class="E J"/><g transform="matrix(1 0 0 -1 0 725)" class="J"><use filter="url(#G)" xlink:href="#Q" class="L" href="#F"/><use xlink:href="#Q" class="E" href="#F"/></g><path d="M114.64 174l3-51 3 51c.058 2.622-.965 3.996-3.07 4.123s-3.08-1.248-2.93-4.123z" stroke="#001c6c" stroke-width="2.322" transform="matrix(.258819 .965926 -.965926 .258819 232.623373 -2.030187)" class="B G J"/></g><use xlink:href="#b" fill="#efefef"/></g><g class="I"><use xlink:href="#c"/><use xlink:href="#d"/><use xlink:href="#e"/><use xlink:href="#f"/><use xlink:href="#g"/><use xlink:href="#h"/><use xlink:href="#i"/></g></g><g filter="url(#N)" transform="translate(50 446)"><path d="M27.028 0h39.65c9.398 0 12.806.98 16.242 2.816s6.132 4.534 7.97 7.97 2.816 6.844 2.816 16.242v39.65c0 9.398-.98 12.806-2.816 16.242s-4.534 6.132-7.97 7.97-6.844 2.816-16.242 2.816h-39.65c-9.398 0-12.806-.98-16.242-2.816s-6.132-4.534-7.97-7.97S0 76.076 0 66.678v-39.65c0-9.398.98-12.806 2.816-16.242s4.534-6.132 7.97-7.97S17.63 0 27.028 0z" fill="url(#O)"/><g transform="translate(10.932 14.056)"><g class="F"><use xlink:href="#P" class="V"/><use filter="url(#Q)" xlink:href="#P" class="L"/></g><use filter="url(#S)" xlink:href="#R" class="L"/><use xlink:href="#R" class="O"/></g></g><g filter="url(#T)" transform="translate(331 7)"><path d="M27.028 0h39.543c9.398 0 12.806.98 16.242 2.816s6.132 4.534 7.97 7.97S93.6 17.63 93.6 27.028v39.543c0 9.398-.98 12.806-2.816 16.242s-4.534 6.132-7.97 7.97S75.97 93.6 66.572 93.6H27.028c-9.398 0-12.806-.98-16.242-2.816s-6.132-4.534-7.97-7.97S0 75.97 0 66.572V27.028c0-9.398.98-12.806 2.816-16.242s4.534-6.132 7.97-7.97S17.63 0 27.028 0z" fill="url(#U)"/><g transform="translate(10.8 13.8)" class="F"><use xlink:href="#i" class="O" href="#P"/><use filter="url(#V)" xlink:href="#i" class="L" href="#P"/><use xlink:href="#k" class="O" href="#R"/><use filter="url(#W)" xlink:href="#k" class="L" href="#R"/></g></g><path d="M314.902 131v-11.927h.08L319.877 131h1.864l4.885-11.927h.08V131h2.302v-16.206h-2.92l-5.233 12.915h-.1l-5.245-12.915h-2.9V131h2.3zm19.957.202c1.55 0 3.043-.83 3.73-2.145h.056V131h2.325v-8.142c0-2.37-1.83-3.886-4.694-3.886-2.92 0-4.74 1.572-4.874 3.706h2.3c.213-1.056 1.1-1.73 2.493-1.73 1.482 0 2.37.786 2.37 2.1v.9l-3.234.2c-2.808.157-4.4 1.426-4.4 3.493 0 2.123 1.617 3.56 3.93 3.56zm.674-1.92c-1.303 0-2.156-.674-2.156-1.707 0-1 .82-1.65 2.27-1.752l2.9-.18v.932c0 1.54-1.325 2.707-3.02 2.707zM345.74 131v-6.884c0-1.83 1.1-3.043 2.808-3.043 1.685 0 2.516.977 2.516 2.75V131h2.437v-7.648c0-2.707-1.494-4.37-4.1-4.37-1.82 0-3.077.83-3.717 2.18h-.056v-1.977h-2.313V131h2.426zm13.555.202c1.55 0 3.043-.83 3.73-2.145h.056V131h2.325v-8.142c0-2.37-1.83-3.886-4.694-3.886-2.92 0-4.74 1.572-4.874 3.706h2.3c.213-1.056 1.1-1.73 2.493-1.73 1.482 0 2.37.786 2.37 2.1v.9l-3.234.2c-2.808.157-4.4 1.426-4.4 3.493 0 2.123 1.617 3.56 3.93 3.56zm.674-1.92c-1.303 0-2.156-.674-2.156-1.707 0-1 .82-1.65 2.27-1.752l2.9-.18v.932c0 1.54-1.325 2.707-3.02 2.707zm12.836 6.166c3.37 0 5.548-1.842 5.548-4.66v-11.6h-2.358v2.02h-.045c-.72-1.37-2.1-2.212-3.762-2.212-3.032 0-4.964 2.336-4.964 6.053 0 3.684 1.943 5.997 4.908 5.997 1.685 0 3.077-.842 3.74-2.123h.045v1.943c0 1.617-1.123 2.695-3.02 2.695-1.38 0-2.46-.65-2.808-1.64h-2.437c.303 2.044 2.37 3.526 5.155 3.526zm-.022-6.413c-1.864 0-3.077-1.505-3.077-3.976 0-2.46 1.213-4.02 3.077-4.02 1.898 0 3.145 1.595 3.145 4.02 0 2.437-1.247 3.976-3.145 3.976zm13.005 2.2c2.707 0 4.75-1.54 5.087-3.695h-2.302c-.326 1.033-1.348 1.73-2.73 1.73-1.943 0-3.178-1.36-3.178-3.414v-.146H391v-.83c0-3.583-2.044-5.896-5.323-5.896-3.335 0-5.47 2.47-5.47 6.177 0 3.73 2.1 6.076 5.57 6.076zm2.796-7.22h-5.907c.124-1.786 1.314-3.077 3-3.077s2.84 1.27 2.897 3.077zm6.727 6.997v-7.075c0-1.673.966-2.718 2.527-2.718.472 0 .898.056 1.1.135v-2.257c-.18-.034-.483-.1-.83-.1-1.393 0-2.448.82-2.84 2.2h-.056v-2h-2.313V131h2.426zm11.5 0l1.482-4.38h6.177l1.482 4.38h2.662l-5.85-16.206h-2.718L404.184 131h2.617zm7.02-6.4h-4.896l2.415-7.1h.067l2.415 7.1zm8.704 10.3v-5.85h.056c.674 1.314 2.02 2.145 3.717 2.145 2.965 0 4.93-2.37 4.93-6.1S429.25 119 426.253 119c-1.707 0-3.066.865-3.762 2.224h-.045V119.2H420.1v15.723h2.426zm3.088-5.76c-1.864 0-3.1-1.595-3.1-4.054 0-2.437 1.247-4.054 3.1-4.054 1.92 0 3.122 1.583 3.122 4.054 0 2.482-1.202 4.054-3.122 4.054zm9.905 5.76v-5.85h.056c.674 1.314 2.02 2.145 3.717 2.145 2.965 0 4.93-2.37 4.93-6.1S442.244 119 439.246 119c-1.707 0-3.066.865-3.762 2.224h-.045V119.2h-2.347v15.723h2.426zm3.088-5.76c-1.864 0-3.1-1.595-3.1-4.054 0-2.437 1.247-4.054 3.1-4.054 1.92 0 3.122 1.583 3.122 4.054 0 2.482-1.202 4.054-3.122 4.054zM65.543 425.27c4.4 0 6.985-2.617 6.985-7.008v-1.65h-6.67v2.033h4.2v.28c-.034 2.46-1.853 4.144-4.48 4.144-3.088 0-5-2.392-5-6.267 0-3.807 1.864-6.076 4.964-6.076 2.1 0 3.695 1.157 4.3 3.167h2.583c-.562-3.234-3.3-5.368-6.896-5.368-4.616 0-7.524 3.2-7.524 8.3 0 5.2 2.92 8.445 7.558 8.445zM77.21 425v-16.206h-2.426V425h2.426zm6.58.213c1.808 0 3-.797 3.66-2.212h.056v2h2.325v-11.814H87.4v6.884c0 1.842-1.056 3.055-2.808 3.055-1.673 0-2.527-.966-2.527-2.763v-7.176H79.65v7.648c0 2.707 1.572 4.38 4.144 4.38zm13.477.01c2.707 0 4.75-1.54 5.087-3.695h-2.302c-.326 1.033-1.348 1.73-2.73 1.73-1.943 0-3.178-1.36-3.178-3.414v-.146h8.344v-.83c0-3.583-2.044-5.896-5.323-5.896-3.335 0-5.47 2.47-5.47 6.177 0 3.73 2.1 6.076 5.57 6.076zm2.796-7.22H94.16c.124-1.786 1.314-3.077 3-3.077s2.84 1.27 2.897 3.077zm15.813 7.266c4.065 0 6.56-2.47 6.56-5.963v-10.512h-2.504v10.298c0 2.313-1.47 3.942-4.054 3.942s-4.043-1.628-4.043-3.942v-10.298h-2.516v10.512c0 3.493 2.493 5.963 6.56 5.963zm11.68 3.64v-5.85h.056c.674 1.314 2.02 2.145 3.717 2.145 2.965 0 4.93-2.37 4.93-6.1s-1.977-6.098-4.975-6.098c-1.707 0-3.066.865-3.762 2.224h-.045v-2.033h-2.347V428.9h2.426zm3.088-5.76c-1.864 0-3.1-1.595-3.1-4.054 0-2.437 1.247-4.054 3.1-4.054 1.92 0 3.122 1.583 3.122 4.054 0 2.482-1.202 4.054-3.122 4.054z" class="F G"/></g></svg>