<svg xmlns="http://www.w3.org/2000/svg" width="1201" height="660" xmlns:v="https://vecta.io/nano"><style><![CDATA[.B{stroke-linejoin:round}.C{stroke-linecap:round}.D{fill:#001c6c}.E{fill-rule:nonzero}.F{stroke:#212121}.G{stroke-width:2.299}.H{fill:#212121}.I{stroke-width:2.023}.J{stroke-width:2.253}.K{stroke:#001d71}.L{stroke:#ffc415}.M{fill:#ffa300}.N{stroke-width:2.943}]]></style><g transform="translate(0 178)" fill="none" fill-rule="evenodd"><g transform="translate(0 178)"><g transform="matrix(-1 0 0 1 705 143)"><path d="M76.525 92.87l-.226-1.723c1.442 11.555 3.878 22.967 5.514 34.496.235 1.656.44 4.084.627 6.748-5.288.352-10.64.212-16-.168 3.007-10.028 4.638-19.267 6.428-31.817.35-2.446.578-4.91.777-7.38l2.312-.113c.183-.008.37-.022.558-.04zm5.122-1.44a130.63 130.63 0 0 1 .859 4.033l.125.652.164.3 1.46 1.312c6.15 5.475 12.555 10.66 18.97 15.827l1.75 1.41c1.144.92 2.4 1.73 3.75 2.314 2.767 1.2 5.63 2.166 8.467 3.195-3.147 1.9-6.603 3.645-10.45 5.62-2.056 1.055-4.142 1.956-6.254 2.72-1.94-2.894-3.92-5.764-5.658-8.78-2.063-3.58-3.686-7.402-5.548-11.09l-.465-.904.117.276c1.54 3.72 2.87 7.53 4.437 11.238l.688 1.583c1.074 2.4 2.3 4.74 3.75 6.942l.9 1.344c-4.344 1.408-8.79 2.266-13.29 2.73.296-10.457-.37-21.82-2.16-32.575l-.1-.59-.544-.77-4.144-5.686.408-.107c1.172 1.33 2.402 2.61 3.714 3.8h0l.08.073-.034-.174-.023-.04c-.76-1.368-1.492-2.75-2.146-4.17.317-.117.633-.24.952-.373zm-11.4 1.75c-.126 3.523-.354 6.946-1.23 11.08l-2.04 9.592-.13.71-2.683 14.382a74.65 74.65 0 0 1-.631 3.046l-.48-.044-.003.014 3.93-18.11.217-1.18c6.424-34.978-1.852 5.282-4.477 19.25-3.855-.35-7.7-.793-11.51-1.236a83.47 83.47 0 0 0 1.598-2.733 457.53 457.53 0 0 0 11.691-22.374c.764-1.565 1.21-3.273 1.654-4.958.644-2.452 1.36-4.9 1.884-7.38l1.878-.05zm-5.118.054l-.115.344c-6.963 20.904-1.262 11.45-14.054 37.08l-4.33-.498-3.453-2.587 8.416-14.384c1.45-2.484 2.87-4.996 4.08-7.606 1.928-4.16 3.55-8.455 5.363-12.665a39.83 39.83 0 0 0 4.091.316zm-8.278-1.15l-.433.986c-2.963 6.917-5.537 14.002-8.575 20.888-1.512 3.427-3.252 6.754-5.072 10.03l-1.303 2.303-.57-.428c-1.563-.34-3.44-.98-5.48-1.826 4.78-6.225 9.438-12.54 13.53-19.225 2.562-4.185 4.696-8.603 6.74-13.07.4.124.778.238 1.164.343zm-4.68-1.75l-.437.734-1.134 1.84c-2.082 3.313-4.576 6.358-6.617 9.697-3.037 4.97-5.5 10.28-8.603 15.21a181.36 181.36 0 0 1-3.14 4.8c-4.285-2.044-8.895-4.713-12.625-7.277 7.098-4.742 13.63-10.346 19.075-16.37 3.378-3.736 6.548-7.65 9.7-11.58 1.074 1.164 2.323 2.165 3.78 2.945zm36.826-3.22c1.93 1.233 3.815 2.548 5.72 3.812 2.094 1.39 3.898 3.183 5.955 4.628 3.02 2.12 6.12 4.128 9.264 6.062 1.933 1.2 3.886 2.37 5.955 3.305 3.3 1.495 6.673 2.908 10.147 3.97l3.457 1a38.8 38.8 0 0 1-6.312 6.426c-9.363-7.412-19.093-14.362-28.467-21.763-2.533-2-4.976-4.113-7.373-6.275a40.94 40.94 0 0 0 1.628-1.153zM82.665 96.3l.038.193.372 2.052.075.444.345.486c1.177 1.68 2.32 3.38 3.39 5.128a54.73 54.73 0 0 1 1.826 3.236l.1.193-.554-1.305-.708-1.573c-1.27-2.73-2.818-5.322-4.306-7.943l-.446-.794-.13-.116zM46.1 84.272l-.654.43C30.405 94.59 22.008 99.33 11.5 107.7c-2.738-4.27-4.858-10.173-6.243-14.34a68.99 68.99 0 0 1 2.995-1.108c4.954-1.695 10.257-2.33 15.108-4.298l20.648-8.394c.56 1.656 1.248 3.25 2.102 4.714zm53.464-11.475c9.225 1.437 23.183 1.497 27.014 1.82 5.498.463 10.928 1.606 16.432 1.984.134.01.735.02 1.66.025-.152 2.472-.454 4.787-.997 6.478-.238.74-.492 1.482-.76 2.223-5.893-1.413-11.727-3.074-17.656-4.318-5.04-1.057-11.82-2.055-18.7-3.47l-.076-.016.29.123c11.33 4.76 22.8 9.496 34.832 10.986-2.554 6.062-5.976 12-9.438 17.418-2.893-1.747-5.655-3.712-8.57-5.422-5.054-2.964-10.294-5.605-15.33-8.597-1.587-.943-3.085-2.037-4.522-3.196-2.945-2.374-5.704-4.98-8.596-7.418 1.597-1.864 2.874-3.805 3.644-5.697 2.302.62 4.668 1.167 7.03 1.664l.66.137-.393-.164-6.87-2.86a9.7 9.7 0 0 0 .333-1.643zm-57.262-.258l-.53.205c-12.233 4.86-24.334 10.05-36.396 15.318l-1.632.718c-1.24-3.852-2.214-8.13-2.86-12.55 4.252-.348 8.528-.436 12.763-.95 4.59-.558 9.154-1.348 13.675-2.314 4.873-1.04 9.687-2.344 14.52-3.564.13 1.024.28 2.075.46 3.14zm1.206 5.447l-1.59.62c-24.232 9.435-40.04 15.66 1.514-.768l.028-.01.046.16zM8.362 59.74c8.555 2.162 17.224 3.882 25.917 5.4a163.57 163.57 0 0 0 7.213 1.091l.03.303.04.367.215 1.872a114.54 114.54 0 0 0-5.951.773C23.986 71.433 12.494 74.116.86 75.98-.035 69.728-.27 63.2.337 57.172c2.64.974 5.302 1.88 8.025 2.567zm134.88-14.107c.427 1.52-.12 3.164 0 4.74.198 2.624.575 5.233.884 7.847l-.552.086c-3.146.454-6.367.373-9.485.993-4.1.817-8.007 2.557-12.13 3.305-7.848 1.423-15.86 1.795-23.713 3.196l1.575-.264c-.026-1.067-.07-2.135-.126-3.202l.013-.005c14.803-6.304 20.458-8.932 20.9-9.43l.012-.033-2.244.844-18.77 7-.028-.48c9.39-3.587 20.878-7.81 21.057-7.403l-.014.03.9-.342 21.372-8.066.34 1.177zm-102.833 9.64l1.006.417c-.462-.08-1.157-.137-2.172-.25l2.98.863v-.045c-.004-.106-.028-.192-.078-.263l.503.21.098.04-.085.183-.44-.128c-.004.217-.08.5-.186.918l-20.33-6.85L6.113 44.95l.56.297c2.748 1.455 5.497 2.912 8.305 4.243 4.67 2.215 9.542 3.988 14.228 6.17 3.517 1.64 6.796 3.774 10.368 5.29l1.778.725c-.03.666-.037 1.41-.01 2.244a75.14 75.14 0 0 1-2.542-.434c-6.08-1.145-12.147-2.45-18.085-4.187C9.196 55.926 3.923 53.937.96 52.7c.222-1.218.483-2.404.786-3.55.344-1.303 1.108-3.043 2.115-5l.087.03 2.166.76-1.09-.575-1.003-.527.426-.806.01.002c3.862.954 3.12.53.255-.484l.672-1.217 35.024 13.93zM93.393.117c1.712.055 3.322.37 4.868.85l-1.114 7.39.173-.804L98.673 1.1c3.74 1.243 7.122 3.424 10.71 5.187l.368.182-1.483 3.448-.237.53.352-.664 1.01-1.96.61-1.226c4.903 2.448 9.305 5.13 13.216 8.178l2.156-2.976-4.883 6.777-1.328 1.87 1.027-1.15c1.142-1.288 2.328-2.55 3.307-3.966a8.91 8.91 0 0 0 .144-.215c2.876 2.28 5.48 4.767 7.82 7.516l-2.63 2.002-.448.36.4-.256 2.933-1.8c3.25 3.875 5.978 8.268 8.202 13.332-3.294 1.488-6.57 3.015-9.803 4.63-20 9.994-16.797 9.32-30.597 18.417l-.062-1.006c-.057-.95-.27-2.973-.663-5.096 4.298-4.002 8.888-7.694 13.124-11.765 4.816-4.628 9.147-9.745 14.007-14.327a40.6 40.6 0 0 1 2.162-1.888l.3-.24-.612.393c-.67.438-1.333.888-1.985 1.354l-.967.713c-4.293 3.26-7.98 7.252-12.13 10.7-4.455 3.69-9.323 6.878-13.675 10.7l.212-.182-.445.617-.678.933-.13-.44 1.04-.93.212-.182 1.998-2.77 17.937-25.433-1.65 1.85-21.39 23.813c-.87-1.234-1.778-2.337-2.727-3.32l5.177-13.245 1.145-2.712.19-.427-.665 1.143c-2.46 4.18-5.106 8.25-7.943 12.17l-.527.72a22.18 22.18 0 0 0-2.149-1.457c1.228-3.19 2.41-6.402 3.407-9.67l.058-.2-.29.574c-.516 1.016-1.032 2.032-1.467 3.08l-.25.632c-.67 1.784-1.08 3.666-1.58 5.51-2.668-1.567-5.575-2.522-8.72-3.058.118-.757.2-1.502.262-2.232.767-10.637 4.058-22.317 4.154-33.608 3.03-.034 6.09.006 9.19.105zM16.067 24.47C23.81 31.317 29.17 35.515 37.588 44.42c2.354 2.5 4.642 5.04 6.905 7.613l-1.063 2.625-.03-.01L5.716 40.758c3.434-6 8.02-12.785 9.815-15.515l.336-.497zM29.98 13.223c.996 1.372 1.97 2.758 2.865 4.197 5.405 8.705 11.546 17.06 16.784 25.867-1.5 1.482-2.515 3.033-3.37 4.708a24.69 24.69 0 0 0-1.282-1.151c-15.29-12.598-9.126-6.933.894 1.937l-.226.496.01.008L16.3 24.133c3.43-4.604 8.498-7.962 13.417-10.766zM43.616 6.82l.147.68c1.952 8.452 4.618 16.726 7.17 25.017.65 2.113 1.475 4.176 2.427 6.17.19.4.394.796.605 1.188a31.97 31.97 0 0 0-1.427.983l-4.215-5.33-.073-.133c-1.306-2.363-4.55-7.584-11.132-17.614l-.963-1.466c-1.05-1.596-2.19-3.13-3.376-4.627 3.58-1.9 7.192-3.502 10.837-4.87zM57.89 2.678c1.888 9.83 4.123 21.63 4.623 29.29.088 1.347.223 2.705.38 4.07-2.35.544-4.593 1.402-6.72 2.538-.425-3.546-.76-7.113-1.598-10.576-1.92-7.917-4.583-15.638-7.17-23.362l.258.77c3.225-1.047 6.478-1.916 9.763-2.627zm-9.78 32.585l.214.267.1.185c3.642 6.784-12.33-15.43-.315-.452zM80.5.092l-.008.682-.222 14.662-.92 20.346c-2.768-.436-5.714-.56-8.84-.5-.085-4.6-.187-10.09-1.268-19.296-.98-8.33-1.144-12.4-1.462-14.94C71.958.533 76.195.23 80.5.092zm16.648 8.266l-.29 1.356c-1.248 5.76-2.58 11.498-4.125 17.182l-.34 1.21-.3 1.006.018-.035c.718-1.423 1.404-2.857 1.834-4.385 1.416-5.03 2.3-10.333 3.1-15.64l.103-.694zm10.884 2.09l-5.815 11.05a119.66 119.66 0 0 0-1.896 3.988l-.41.918.658-1.147c2.61-4.603 4.995-9.33 7.162-14.135l.3-.674z" fill="#54e375"/><g transform="matrix(-1 0 0 1 82 32)" class="D"><g class="E"><path d="M22.46.086a1.15 1.15 0 0 1 1.499.63 1.15 1.15 0 0 1-.63 1.499l-.614.247-.562.22-.9.344.032.015a1.16 1.16 0 0 1 .619.847l.01.087.01.01c.22.254.404.57.547.952l.016.046.056-.01.26-.033.077-.004c.138-.005.265.003.415.044.484.13.918.53.872 1.2-.017.25-.102.447-.223.614a1.27 1.27 0 0 1-.199.217c-.08.07-.162.127-.257.184l-.902.55-1.254.77-.05.035-.097.06-.1.064-2.8 1.727-2.444 1.47-.083.045-.342.174c-.97.482-1.533.62-4.235 1.124l-.162.03-.09.036c-.495.184-.864.232-1.257.115l-.08-.026c-.748-.263-.987-.983-.804-1.637.045-.163.115-.325.21-.497l.052-.1-.067-.05a1.17 1.17 0 0 1-.439-.848l-.003-.078c0-.178.035-.327.1-.47.077-.197.2-.37.35-.57l.047-.057-.025-.004c-.823-.15-1.42-.522-1.437-1.378v-.094c.018-.65.368-1.03.98-1.45.588-.403 1.49-.848 2.865-1.448l.503-.217 2.164-.917.405-.175.827-.375.616-.302c.985-.473 1.942-.864 3.63-1.51l1.864-.7L22.46.086zm-3.118 5.938L19 6.14l-.452.15-.877.276-.046.03-1.542 1.068-.2.135.338-.07.88-.507 2.104-1.138.13-.064z"/><path d="M26.216 2.536l1.266-.045c1.74-.047 3.238.034 6.06.287l2.51.228 1.955.147a1.15 1.15 0 0 1 .942.601l.036.072.125.025a5.37 5.37 0 0 1 .686.182l.093.035c.21.08.39.178.55.32.33.287.533.714.434 1.216-.18.92-.782 1.14-2.53 1.49l-.154.03.04.04c.33.33.49.845.192 1.373l-.044.072a1.07 1.07 0 0 1-.686.498c-.137.038-.257.05-.408.056-.328.012-.906-.02-1.622-.085l-.145-.014c-2.112-.205-4.085-.503-5.75-.915l-.152-.038-1.682-.164c-.134-.013-.28.002-.597.064l-.432.087-.38.062a1.15 1.15 0 0 1-1.289-.991c-.04-.31.047-.61.222-.84l.055-.067-.052-.05a2.49 2.49 0 0 1-.506-.69l-.037-.082-.075-.192-.037-.11-.42-.03-.588-.065-.036-.006c-.243-.044-.374-.082-.586-.24-.495-.372-.673-1.125-.18-1.7a1.09 1.09 0 0 1 .545-.353c.162-.052.338-.078.627-.103l.245-.02 1.802-.09z"/><path d="M9.654 11.778c1.81-7.58 7.018-11.255 13.48-7.3.303.186.5.49.537.816l.003.028.044.05c.27.315.5.688.718 1.1l.06.128c.43.92.713 2.058.8 3.007.332 3.25.045 8.067-1.023 11.63-1.607 5.364-4.897 8.025-9.835 6.38-4.664-1.553-6.452-8.92-4.796-15.852zm10.58-6.173c-3.977-1.453-6.964 1.147-8.3 6.533l-.043.175c-1.414 5.92.078 12.068 3.286 13.136 3.47 1.155 5.627-.6 6.906-4.86.972-3.245 1.242-7.768.938-10.738-.168-1.64-.885-3.2-1.527-3.275l-.047-.003a1.15 1.15 0 0 1-1.114-.863l-.017-.075-.082-.03z"/><path d="M26.276 5.954c-1.195 1.493-1.83 3.19-2.648 6.508l-.214.884-.278.902a1.15 1.15 0 0 0-.018.613l.057.24.213 1.128.175 1.1c.328 2.036.6 3.01 1.226 4.153 2.015 3.62 5.266 4.684 8.4 3.187 2.73-1.308 4.785-4.353 4.962-7.485l.082-2.353-.133-3.866c-.33-3.668-1.197-6.072-3.153-6.74-3.837-1.31-6.67-.7-8.582 1.63l-.08.097zm7.918.45c.72.246 1.358 2.013 1.607 4.772.102 1.135.14 2.365.124 3.633l-.08 2.25c-.13 2.292-1.683 4.594-3.66 5.54-2.02.968-3.96.332-5.387-2.232-.468-.84-.68-1.64-.97-3.426l-.197-1.235-.136-.746-.07-.333.198-.643.02-.074.156-.65c.78-3.207 1.35-4.75 2.332-5.945 1.264-1.54 3.083-1.93 6.062-.913z"/><path d="M23.79 8.513a1.15 1.15 0 0 1 1.202 1.095 1.15 1.15 0 0 1-1.095 1.202l-.754.037c-7.53.387-9.568 1.13-14.382 5.33a1.15 1.15 0 0 1-1.622-.11 1.15 1.15 0 0 1 .11-1.622l.33-.287c5.185-4.467 7.756-5.252 16.2-5.645z"/><path d="M23.9 9.938c4.26-2.86 10.667-4.05 14.86-2.278a1.15 1.15 0 0 1 .612 1.506 1.15 1.15 0 0 1-1.506.612c-3.4-1.436-9.02-.392-12.685 2.07a1.15 1.15 0 0 1-1.595-.314 1.15 1.15 0 0 1 .314-1.595z"/></g><path d="M15.76 11.7c.732 1.817 4.774 8.874 7.575 4.2l.76-6.344-8.112 1.297c-.643.165-.717.447-.222.846zm14.643-2.075c.855 2.804 2.872 8.43 6.814 4.962l-.142-6.013-3.245-.65-3.427 1.7zM7.054 30.587c1.95-7.02 7.816-3.513 18.144-4.752 8.112-.973 13.027-4.197 20.304 4.752.454.558 9.27 6.973 5.375 9.567s-21.942-4.72-25.68-3.95c-12.5 2.57-18.776 3.95-23.643 3.95-3.245 0-1.412-3.2 5.5-9.567zm7.08 12.843c7.276 8.145 11 16.08 15.575 3.086.303-.858 2.2-5.333 1.298-5.512-2.22-.446-8.32 2.225-10.566 2.498-1.847.225-3.72.024-5.582.037l-.725-.1z"/></g></g><g transform="matrix(-.996195 -.087156 -.087156 .996195 598.644998 167.708285)"><path d="M20.68 102.78C7.3 58.557 44.93 22.1 78.5 11.843c50.976-15.575 67.706 88.368 65.416 89.245-14.128 5.413-55.206 5.977-123.235 1.692z" fill="#001d71"/><path d="M118.032 49.456c2.3 18.394-15.67 64.818-34.65 62.267C67.44 109.58 58.155 96.012 53.24 81.49c-.83-2.456-13.146 3.95-14.834-7.47s11.748-4.247 11.395-6.344c-1.18-7.01-1.1-12.956-.9-17.705.028-.75 4.05-3.07 12.653-4.44 3.85-.613 8.614-1.036 14.348-1.043 8.18-.01 17.32.796 24.992 1.77 2.206.28.188-20.326 2.093-20.034 1.94.298 7.797 21.495 9.305 21.774 3.54.654 5.72 1.21 5.75 1.458z" fill="#f2f4f6"/><g class="B C F G"><path d="M96.224 54.14c1.04 10.024 8.44 6.727 8.44.034m-8.44 6.733l-2.532 3.384"/><path d="M100.445 60.907l-1.688 5.5m3.798-6.347l1.266 4.653"/></g><path d="M86.76 49.68c4.73 11.556 7.632 18.34 8.7 20.357.476.89 1.5 2.04.955 2.916-.502.804-8.54-.08-8.962-1.622-.218-.798.168-3.348.032-2.518-.837 5.1-1.014 8.4-.53 9.87" fill="#f5fff6" class="B C G K"/><g class="B C F G"><path d="M69.814 54.854c-1.575 6.64 7.78 7.482 9.53-.714"/><path d="M70.902 59.64l-2.954 2.115M73.7 60.06l-.13 3.807m3.23-4.227l1.266 2.96"/></g><path d="M86.295 81.423c2.744.304 1.91 4.153 4.053 3.638 1.082-.26 1.988-1.46 3.086-1.262 1.045.188 3.11 2.54 5.355 3.377.9.332 2.297.332 4.22 0-2.607 2.187-4.858 3.737-6.753 4.653-3.2 1.54-11.636 4.766-19.567.02-4.497-2.692-11.8-12.374-13.083-13.535l19.605 9.415c15.963 2.295 14.86 2.998-4-2.647-2.813-.843-8.018-3.098-15.615-6.767 2.6-1.45 10.02 1.023 15.615 2.538 4.778 1.294 5.81.433 7.072.573z" fill="#ff4445"/></g><g transform="matrix(-1 0 0 1 844 117)"><path d="M8.995 56.944c14.662-18.242 42.233-20.696 65.276-19.78s30.832 6.387 42.372 24.058 8.967 31.444 2.396 44.49C103.64 136.284 31.014 145.7 6.985 116.938-5.82 101.61 2.188 77.112 5.903 61.34l3.092-4.396z" fill="#ff8100"/><g stroke-width="3.86" class="B C L"><path d="M75.707 51.273c4.24 10.327 16.177 3.4 11.464-3.907m-28.51-7.8c8.316 4.2 13.7 11.626 20.62 18.05 3.834 3.554 7.618 7.175 11.12 11.04 1.03 1.137 3.015 2.495 2.417 3.897-.55 1.288-13.6 2.26-14.746.177-.593-1.078-.765-4.825-.725-3.602.367 11.288 4.947 23.08 2.235 32.227-1.452 4.897-21.753 1.547-20.923 4.464 1.758 6.184 8.874 6.667 21.348 1.45 1.232 2.503.5 5.552.363 8.326-.335 6.258-1.208 12.477-1.812 18.715"/><path d="M53.544 53.817c-.89 7 8.725 11.422 14.973 6.267 4.2-3.464 1.93-7.96 1.863-12.717"/></g><path d="M77.514 22.178c-4.744 16.004-31.6 18.714-43.363 9.74s-.677-8.866 6.488-5.54l.113.002c5.506 3.98 12.546 4.6 21.12 1.892a4.43 4.43 0 0 0 .68-.222l.33-.112.498-.174-.067-.075c5.778-3.06 17.173-15.533 14.202-5.51zM65.183 7.427c3.18 7.305-3.036 16.1-4.614 19.02-5.028 1.17-11.2.462-18.484-2.126-2.277-5.32-3.02-11.55.367-16.824 5.758-8.965 17.995-10.955 22.73-.072z" class="D"/></g><g transform="matrix(-.965926 -.258819 -.258819 .965926 962.81372 128.67013)"><path d="M21.537 14.336C4.502 51.038-2.397 76.517.84 90.773c26.727 21.262 55.52 28.977 86.377 23.145 16.42-32.908 21.715-54.222 15.89-63.942 14.026 3.672 22.442 2.16 25.247-4.536S119.937 31.076 94.7 22.436c-16.995-4.343-30.266-7.043-39.813-8.1s-20.66-1.057-33.34 0z" fill="#7ee081"/><g class="B C G"><path d="M25.056 21.268c.94-6.358 9.07-16.75 14.85-19.193A25.32 25.32 0 0 1 44.639.605C45.68.4 47.412-.54 47.82.442c3 7.202-11.098 18.878-16.482 20.417-.47.135-.115-1.02.08-1.47.58-1.33 1.215-2.694 2.203-3.758 5.06-5.45 11.663-12.085 19.5-13.557.695-.13 1.853-.655 2.122 0 2.13 5.185-2.862 13.64-7.588 16.088-2.075 1.076-4.738 4.62-6.364 2.94-1.565-1.616 2.26-3.948 3.835-5.554 3.002-3.058 6.278-5.877 9.79-8.33 1.837-1.283 3.98-2.117 6.12-2.778 1.867-.576 3.846-1.07 5.792-.898.533.047.595.936.653 1.47.82 7.507-7.607 14.77-13.708 17.397-.575.247-.202-1.286 0-1.878.253-.744.79-1.37 1.306-1.96 1.393-1.594 2.856-3.132 4.406-4.573a14.42 14.42 0 0 1 2.529-1.878c3.1-1.815 6.118-3.847 9.466-5.146 1.58-.613 3.667-1.457 5.06-.5 1.095.76.48 2.758 0 4.002-2.126 5.512-3.775 8.53-8.078 11.515-1.65 1.145-3.91 2.32-6.038 2.124-.267-.024.16-.526.326-.736 1.96-2.465 3.92-4.937 6.038-7.268 2.238-2.464 4.557-4.862 7.016-7.105.63-.576 1.373-1.1 2.204-1.307 2.32-.55 4.908-1.84 7.098-.898 1.2.517.36 2.69-.082 3.92-.983 2.722-4.748 8.032-7.18 9.964-5.466 4.343-5.368.756-2.938-1.878 3.053-3.31 6.075-6.708 9.627-9.473 1.195-.93 2.834-1.124 4.325-1.388 1.152-.204 2.447-.49 3.51 0 .633.293.663 1.266.734 1.96.15 1.463.47 3.047-.08 4.4-1.945 4.825-7.557 10.505-12.892 10.86" stroke="#ff8100"/><path d="M83.376 29.35c1.006 1.797 1.8 3.723 3.02 5.4 3.095 4.268 9.542 2.725 10.28-2.532.33-2.346.218-4.737.163-7.105-.003-.1-.218 0-.326 0m-9.56 44.38c7.408 6.947 14.142.87 21.133-3.595" stroke="#001c6c"/><path d="M105.12 76.67c3.6 1.513 2.843.542 4.65 5.4.722 1.938 1.412 3.917 1.715 5.963.275 1.858.325 3.785 0 5.635-.598 3.405-8.072 5.138-9.956 2.205-2.937-4.574-3.68-7.02-4.16-12.495-.1-1.144-.454-2.588.326-3.43.648-.698 2.166-.657 2.856 0a14.32 14.32 0 0 1 3.834 6.37c.813 2.886.702 5.992.5 8.983-.2 2.698-5.144 7.3-7.505 4.002-1.88-2.627-2.737-5.622-3.02-8.822-.258-2.93-.706-5.93-.163-8.82.898-4.778 2.62.525 2.856 2.45.383 3.136.548 6.33.244 9.475-.246 2.543-1.102 4.997-1.876 7.432-.2.662-.57 1.304-1.06 1.796s-1.115.92-1.796 1.063c-.8.17-1.77.294-2.45-.163s-.967-1.395-1.06-2.205c-.647-5.6-1.224-11.26-1.143-16.907.007-.47 1.295-.705 1.388-.244 1.267 6.27-.32 9.904-3.1 15.517-.546 1.1-2.813 3.82-4.65 2.86-2.987-1.56-1.036-15 2.122-16.824.26-.15.843-.377.897-.08.914 5.03-1.904 10.262-5.466 13.64-.83.786-6.65 3.304-7.26 1.796-2.055-5.06-.225-14.388 4.406-17.56.318-.217 1.08-.543 1.143-.163 1.202 7.223-1.976 7.848-7.914 12.905-.966.823-2.57 3.02-3.265 1.96l-1.55.327c-2.657-4.06 7.462-11.38 7.67-17.476.02-.574-.498 1.058-.9 1.47-1.733 1.78-3.644 3.376-5.466 5.064m38.508-37.15c1.572.67 1.24.24 2.03 2.384.315.857.616 1.732.75 2.637.12.822.142 1.674 0 2.492-.26 1.506-3.524 2.272-4.346.975-1.282-2.023-1.606-3.105-1.816-5.526-.044-.506-.198-1.145.143-1.517.283-.3.946-.3 1.247 0a6.34 6.34 0 0 1 1.673 2.817c.355 1.277.306 2.65.214 3.973-.083 1.193-2.246 3.228-3.276 1.77-.82-1.162-1.195-2.486-1.318-3.9-.113-1.295-.308-2.623-.07-3.9.392-2.113 1.144.232 1.247 1.083.167 1.387.24 2.8.107 4.2-.107 1.125-.48 2.2-.82 3.287-.092.293-.248.577-.463.794s-.487.406-.784.47c-.35.075-.773.13-1.07-.072s-.422-.617-.463-.975l-.5-7.477c.003-.208.565-.312.606-.108.553 2.773-.14 4.38-1.354 6.862-.238.487-1.228 1.7-2.03 1.264-1.304-.7-.452-6.63.926-7.44.113-.067.368-.167.392-.036.4 2.225-.83 4.538-2.386 6.032-.362.348-2.902 1.46-3.17.794-.897-2.238-.098-6.363 1.923-7.765.14-.096.47-.24.5-.072.525 3.194-.862 3.47-3.455 5.707-.422.364-1.122 1.336-1.425.866l-.677.145c-1.16-1.796 3.257-5.033 3.348-7.73.01-.254-.217.468-.392.65-.757.787-1.6 1.493-2.386 2.24" stroke="#ff8100"/></g></g><g transform="matrix(-1 0 0 1 207.199973 86.422994)"><path d="M81.56 56.584c10.013 0 22.31-.627 36.894-1.88L122.24 36.2H105.84l1.26-26.957H16.286l-.555 14.95C5.244 21.294 0 22.66 0 28.303s4.693 9.01 14.08 10.1l3.153 14.42c32.873 2.508 54.316 3.76 64.328 3.76z" class="M"/><path d="M68.643 9.915c-.453 7.87 6.576 9.875 8.524 2.63 1.486-5.528-6.616-6.052-9.17-2.63M95.1 8.66c.137 1.675.036 3.387.412 5.025 1.632 7.107 10.546.212 5.82-5.727" class="H"/><path d="M109.376.003c1.944 0-.356 17.272-1.577 20.738-1.548 4.396-5.202 3.448-9.145 3.448-1.253 0-2.33-.04-3.274-.15-2.05-2.477-4.866-5.313-7.84-7.65h0l.44 2.554-.26-.4-.307-.494c-2.4 6.004-7.203 7.706-13.042 7.706-13.502 0-18.89-10.24-16.73-25.753h51.733zM82.545 7H64.303l-.006.09c-.264 4.257.33 7.424 1.66 9.522l.07.11.067.1c1.592 2.337 4.422 3.556 8.91 3.556 3.3 0 5.502-2.295 6.816-8l.042-.2c.217-1.016.43-2.57.632-4.64l.04-.407.012-.13zm21.668 0H90.7l.007.026c2.04 8.324 4.785 11.64 10.117 11.78l.162.003.19.001c.19 0 .3-.04.47-.2.378-.358.793-1.065 1.175-2.15.725-2.06 1.194-5.087 1.374-9.043l.017-.41z" fill="#fb3640" class="E"/><path d="M89.643 20.158c6.343 4.986 11.966 12.244 11.002 13.44-1.26 1.567-5.823 1.9-6.937 1.254-.895-.5-.5.182-.5 6.025m-17.418-4.9c7.426 5.484 15.67 6.18 23.8 4.517" class="B C F I"/><g class="K B C I"><path d="M83.742 50.053c1.6 6.332 5.345 10.322 9.32 15.622m-2.826-16.312C94.58 63.04 93.614 57.207 94.6 66.56m1.04-16.2c1.298 13.298 1.14 7.768 1.14 16.558m4.6-16.558l-2.974 18.184m6.99-17.692c-.357 6.446-2.065 11.586-5.305 17.148m9.718-17.8c-.592 6.288-2.394 12.344-6.643 17.248"/><path d="M112.248 56.952c-5.25 7.003-5.885 9.15-13.733 10.99"/></g><path d="M76.32 33.687c-.475 1.27-1.42 2.525-2.998 2.597" class="B C F I"/></g><path d="M1043.1 46.756l73.626 5.128c1.08 4.233 1.6 12.52 1.56 24.865l.183-.115c.963-.598 1.75-.972 3.37-1.327l.22-.046c2.107-.43 6.65-.968 8.4-.515 4.784 1.237 7 7.314 4.255 11.39-3.482 5.15-10.72 8.574-16.727 6.78l-.057 1.818-1.206 26.953c-25.205 3.61-57.707 3.61-97.505 0-1.313-24.82 6.475-49.55 23.364-74.184l.515-.746z" fill="#ff8100"/><g fill="#001d71"><g class="E"><path d="M1038.273 40.692a1.01 1.01 0 0 1 .99 1.027l-.004.125-.03.492-.082 1.037-.033.454-.074 2.317c.03 1.632.28 2.822.737 3.407 1.934 2.47 5.244 4.972 8.507 6.284 3.76 1.51 7.056 1.36 9.403-.698a1.01 1.01 0 0 1 1.423.093 1.01 1.01 0 0 1-.093 1.423c-3.003 2.634-7.085 2.82-11.485 1.053-3.594-1.444-7.192-4.163-9.343-6.912-.804-1.027-1.13-2.576-1.166-4.615-.015-.842.02-1.68.095-2.718l.092-1.174.03-.456.005-.15a1.01 1.01 0 0 1 1.027-.99z"/><path d="M1044.012 41.257a1.01 1.01 0 0 1 1.292.604c2.26 6.23 4.208 9.092 8.35 11.168l.563.28a24.36 24.36 0 0 0 .874.41c.782.35 1.5.613 2.163.78 1.334.338 2.252.242 2.746-.274l.048-.053a1.01 1.01 0 0 1 1.422-.111 1.01 1.01 0 0 1 .111 1.422c-1.098 1.284-2.78 1.49-4.823.972-.7-.18-1.446-.443-2.226-.78l-.262-.115a31.3 31.3 0 0 1-1.388-.663l-.132-.066c-4.708-2.36-6.92-5.615-9.342-12.283a1.01 1.01 0 0 1 .604-1.292z"/><path d="M1051.747 40.268a1.01 1.01 0 0 1 1.206.761l.11.485c.825 3.57 1.517 5.715 2.596 7.6 1.41 2.48 3.293 3.94 5.933 4.373a1.01 1.01 0 0 1 .832 1.158 1.01 1.01 0 0 1-1.158.832c-3.284-.538-5.665-2.388-7.36-5.366-1.254-2.203-2.004-4.597-2.92-8.647a1.01 1.01 0 0 1 .761-1.206z"/><path d="M1058.783 43.432l.32-1.724a1.01 1.01 0 0 1 1.14-.779 1.01 1.01 0 0 1 .85 1.088l-.01.068-.477 2.63-.197 1.27-.042.302c-.212 1.56-.282 2.747-.182 3.317 1.06 6.05 6.864 9.9 12.953 8.56 2.006-.442 3.312-1.135 4.89-2.462l.246-.212 2.485-2.2a1.01 1.01 0 0 1 1.423.104 1.01 1.01 0 0 1-.104 1.423l-.165.145-2.585 2.294c-1.812 1.525-3.406 2.37-5.754 2.888-7.206 1.586-14.113-2.996-15.374-10.18-.148-.845-.07-2.17.17-3.937l.193-1.294.055-.338.166-.952z"/><path d="M1064.846 42.656a1.01 1.01 0 0 1 1.009 1.009l.004 1.106c.012.867.057 1 .227 1.376l.036.072 2.378 4.278.204.378c3.134 5.864 6.59 6.462 12.01 2.52a1.01 1.01 0 0 1 1.409.223 1.01 1.01 0 0 1-.223 1.409c-6.307 4.586-11.14 3.805-14.862-2.994l-.477-.88-2.3-4.152-.06-.135c-.344-.78-.36-1.058-.36-3.2a1.01 1.01 0 0 1 1.009-1.009z"/><path d="M1070.537 42.644a1.01 1.01 0 0 1 1.262.665c1.836 5.928 4.57 9.083 9.514 10.258a1.01 1.01 0 0 1 .748 1.215 1.01 1.01 0 0 1-1.215.748c-5.728-1.36-8.946-5.074-10.975-11.624a1.01 1.01 0 0 1 .665-1.262z"/><path d="M1079.72 42.038a1.01 1.01 0 0 1 1.024.993l.003.26-.025 1.203-.083 1.77c-.08 1.863-.04 2.79.194 3.863 1.008 4.602 4.315 7.16 8.973 7.53 4.293.342 9.098-1.305 12.077-4.12a1.01 1.01 0 0 1 1.426.04 1.01 1.01 0 0 1-.04 1.426c-3.4 3.212-8.767 5.052-13.623 4.665-5.5-.438-9.574-3.6-10.783-9.1-.29-1.32-.327-2.4-.232-4.526l.075-1.6c.023-.56.028-.94.022-1.37a1.01 1.01 0 0 1 .993-1.024z"/><path d="M1086.302 41.758a1.01 1.01 0 0 1 .993 1.024l-.004.144c-.01.283-.04.545-.102.978l-.034.232c-.156 1.04-.162 1.446 0 1.816 1.065 2.43 2.884 5.257 4.85 7.267 2.44 2.496 4.885 3.575 7.167 2.94.52-.145.938-.395 1.79-1.043l.508-.39.905-.64a1.01 1.01 0 0 1 1.391.315 1.01 1.01 0 0 1-.315 1.391l-.157.102-.54.4-.595.455c-1.043.79-1.61 1.127-2.444 1.36-3.13.873-6.25-.504-9.15-3.47-2.147-2.196-4.096-5.227-5.254-7.867-.358-.817-.36-1.458-.17-2.777l.076-.52.064-.713a1.01 1.01 0 0 1 1.024-.993z"/><path d="M1092.523 42.115a1.01 1.01 0 0 1 1.189.787l.432 2.093.093.428.076.338c1.238 5.437 2.574 6.632 8.53 7.222a1.01 1.01 0 0 1 .904 1.103 1.01 1.01 0 0 1-1.103.904l-.413-.043c-6.515-.71-8.473-2.597-9.878-8.704l-.21-.95-.4-2a1.01 1.01 0 0 1 .787-1.189z"/><path d="M1101.918 42.544a1.01 1.01 0 0 1 1.05.965l.017.487.013 1.094-.003 2.052.076 3.226.007.116c.346 5.566 1.945 8.5 5.76 8.896 2.172.225 4.35.17 7.647-.114a5.27 5.27 0 0 0 2.8-1.024l.126-.088c.297-.212 1.64-1.26 2.052-1.56a1.01 1.01 0 0 1 1.409.222 1.01 1.01 0 0 1-.222 1.409l-.325.244-1.698 1.295-.046.033c-1.252.892-2.37 1.346-3.924 1.48l-.59.05c-3.092.25-5.245.288-7.436.06-2.744-.284-4.705-1.642-5.932-3.894-.942-1.728-1.426-3.89-1.616-6.617l-.018-.266c-.06-.977-.083-1.813-.086-3.117l.002-2.612a32.25 32.25 0 0 0-.027-1.286 1.01 1.01 0 0 1 .965-1.05z"/><path d="M1107.014 42.432a1.01 1.01 0 0 1 1.049.967l.014.372.03 1.41.017 2.8c.028 3.2.14 4.774.53 6.57.553 2.543 1.626 4.57 3.454 6.272 2.435 2.268 9.36-.392 9.498-3.434l.002-.092a1.01 1.01 0 0 1 1.009-1.009 1.01 1.01 0 0 1 1.009 1.009c0 4.894-9.178 8.462-12.892 5.002-2.146-2-3.414-4.394-4.05-7.32l-.052-.244c-.402-1.942-.506-3.657-.528-7.133l-.01-1.95-.007-.653-.04-1.518a1.01 1.01 0 0 1 .967-1.049z"/><path d="M1111.033 47.272a1.01 1.01 0 0 1 1.1-.909 1.01 1.01 0 0 1 .913 1.036l-.004.064c-.182 1.912 1.154 6.704 2.957 9.93 2.146 3.84 4.26 4.88 6.4 2.726a1.01 1.01 0 0 1 1.426-.002 1.01 1.01 0 0 1 .002 1.426c-1.756 1.76-3.697 2.17-5.556 1.255-1.493-.734-2.844-2.277-4.042-4.42-1.987-3.555-3.43-8.733-3.205-11.106zm-44.445 12.873l.167-.08c.455-.212.77-.27 1.2-.067.488.228.676.696.627 1.152-.022.2-.1.405-.198.627-.252.52-.782 1.1-1.492 1.7l-.168.136.047.032c.3.204.472.553.424.95l-.01.067a1.09 1.09 0 0 1-.064.225l-.006.012.082-.01a.53.53 0 0 1 .08 0l.2.02.1.03c.26.078.293.122.615.54l.06.27c.04.195.04.263.007.38l-.012.04.052.02a1 1 0 0 1 .514.447l.03.06a1.01 1.01 0 0 1-.418 1.314l-2.835 1.38-5.038 2.35-1.6.7-.4.17c-2.925 1.257-5.34 2.16-7.115 2.62-1.1.282-1.943.4-2.597.326-1.054-.12-1.76-.825-1.6-1.9.193-1.365.93-2.323 2.113-2.93l.14-.07.006-.037c.008-.04.02-.083.036-.133l.063-.178.1-.133a.7.7 0 0 1 .189-.203l.1-.07a.56.56 0 0 1 .107-.058l.093-.037c.077-.027.15-.042.34-.073l.35-.055 1.314-.153.347-.03.112-.016.616-.093.428-.07-.146.008c-2.113.1-3.9-.13-4.756-.85l-.063-.056c-.634-.6-.922-1.277-.413-1.978.312-.43.76-.594 1.408-.67l.1-.012c.723-.074 1.454-.054 3.324.06l1.23.074c1.456.08 2.262.086 2.835.005.838-.12 1.918-.462 3.048-.926l.1-.046-.295.033-4.1.277-2.56.1-2.376.142a1.01 1.01 0 0 1-1.084-.927 1.01 1.01 0 0 1 .927-1.084l.5-.038 1.525-.1 2.916-.128c3.055-.14 4.588-.28 6.414-.627.33-.063.905-.34 1.695-.817l.234-.143.46-.3.998-.64.213-.133.74-.425zm-11.3 11.63l-.526.02c-3.65.162-5.053.556-5.443 1.74l-.006.02h.015c.347-.01.846-.093 1.47-.248l.135-.034c1.05-.272 2.374-.722 3.927-1.327l.43-.17z"/></g><path d="M1055.896 74.074c4.7 2.852 2.503 5.6.708 11.524-2.015 6.66-4.336-1.534-4.635-3.792-.85-6.423.46-9 3.927-7.732z"/><g class="E"><path d="M1073.16 62.744l.983.083 4.104.328.318.03c.576.057.817.115 1.132.267l.05.025.146.073c.393.194.62.29 1.182.478l.332.1c1.378.452 3.547 1.05 6.736 1.83l.23.056c.53.13 1.413.242 2.798.37l2.308.207.49.05c.558.06.92.12 1.168.194.186.056.336.122.49.254.444.376.523 1.055.094 1.517-.244.263-.477.343-.945.44-2.373.497-6.46.535-10.282.18l-.19-.018.008.006c.708.5 1.374.908 2.07 1.292l.263.142c.232.123.75.28 1.47.443l.232.052 1.67.34.136.03.114.027.05.013c.18.048.278.08.408.17l.11.08c.128.098.15.145.336.572l-.018.235c-.034.412-.065.495-.26.68l-.11.103-.013.01.666.164a6.89 6.89 0 0 1 .381.105l.022.008c.123.046.228.092.324.148.25.144.432.313.53.657.042.15.054.29.04.417l-.007.053.027.024.064.065c.467.5.364 1.278-.212 1.66-3.656 2.414-7.802 2.632-12.344 1.083-3.356-1.145-6.54-3.04-10.584-5.99a1.01 1.01 0 0 1-.22-1.409 1.01 1.01 0 0 1 1.409-.22l.525.38c3.642 2.622 6.545 4.315 9.52 5.33 3.062 1.044 5.836 1.18 8.353.27l.15-.056-.218-.045-1.784-.4-.253-.06-.117-.01c-2.09-.198-3.575-.416-5.04-.78l-.17-.043c-2.174-.558-4.08-1.234-5.8-2.096-.478-.24-.825-.485-1.36-.947l-.255-.224-.235-.094-3.22-1.335-.42-.18a1.72 1.72 0 0 1-.245-.126c-.244-.154-.41-.317-.487-.685a1.02 1.02 0 0 1 .309-.959 1.01 1.01 0 0 1 .425-.237c.12-.034.224-.045.34-.046.212-.003.514.034.88.098s.747.148 1.087.24l.053.014-.003-.007a3.48 3.48 0 0 1-.269-1.001l-.01-.095c-.047-.54.2-.906.562-1.123l.018-.01-.044-.045-.057-.067c-.23-.292-.338-.69-.16-1.072l.01-.022-.036-.004a1.01 1.01 0 0 1-.859-1.02l.003-.064a1.01 1.01 0 0 1 1.091-.919zm2.75 5.872l.044.032c1.038.743 2.663 1.486 4.787 2.195l.104.034-.234-.1-.404-.177-.452-.2-3.846-1.782zm2.242-3.444l.034.015c.83.368 1.644.834 2.512 1.416l.147.1.22.04c1.158.212 2.444.378 3.762.497l.173.015-.976-.257c-1.166-.313-2.116-.586-2.876-.826l-.367-.118-.276-.092c-.397-.135-.72-.255-.987-.367l-.088-.037a7.73 7.73 0 0 1-.283-.128l-.122-.06-.2-.106c-.07-.032-.146-.047-.447-.074l-.215-.02z"/><path d="M1070.626 72.466a1.01 1.01 0 0 1 1.422.108 1.01 1.01 0 0 1-.057 1.376l-.05.047c-.212.182-.378.6-.44 1.142-.213 1.895-.237 3.72-.055 5.448.595 5.646 5.36 10.263 10.2 8.898 1.17-.33 3.133-2.64 5.054-5.893a41 41 0 0 0 2.043-3.916l.114-.258c.486-1.1.773-1.985.787-2.264v-.028a1.01 1.01 0 0 1 .984-1.033 1.01 1.01 0 0 1 1.033.984c.028 1.173-1.34 4.322-3.13 7.38l-.095.16c-2.194 3.716-4.374 6.282-6.243 6.8-6.23 1.757-12.04-3.874-12.752-10.628-.198-1.88-.173-3.85.056-5.885.113-1.002.458-1.87 1.13-2.447zm-16.263-3.883c.8-.42 1.625-.08 2.278.532a1.01 1.01 0 0 1 .047 1.426 1.01 1.01 0 0 1-1.376.09l-.05-.044a1.05 1.05 0 0 0-.096-.08l-.028-.02-.024.023c-.17.167-.332.437-.463.778l-.035.095c-.633 1.8-1.066 3.57-1.276 5.296-.387 3.172.72 6.76 2.826 8.915a1.01 1.01 0 0 1-.016 1.426 1.01 1.01 0 0 1-1.426-.016c-2.548-2.606-3.845-6.808-3.386-10.57.23-1.877.696-3.8 1.376-5.722.335-.95.867-1.72 1.65-2.13z"/><path d="M1067.17 67.044a1.01 1.01 0 0 1 1.33-.514 1.01 1.01 0 0 1 .514 1.33l-.142.317c-1.586 3.512-3.333 6.13-7.28 11.333l-1.032 1.36c-3.053 4.036-4.526 6.188-5.893 8.807l-1.75 3.4-.57 1.13c-.29.592-.555 1.15-.796 1.685-.712 1.576-1.195 2.884-1.408 3.874-.11.504-.14.9-.104 1.163.01.072.024.123.037.155l.003.008.118.064c4.647 2.45 13.55-1.4 16.862-6.616l.1-.16c.933-1.53 2.39-1.702 3.903-.857.5.28.995.652 1.565 1.15l.2.17L1074.1 96c4.62 3.734 6.983 8.444 7.37 14.036.325 4.7-.73 9.895-2.972 15.885a1.01 1.01 0 0 1-1.298.591 1.01 1.01 0 0 1-.591-1.298c4.592-12.27 4.032-21.163-3.544-27.455l-.232-.2c-.262-.212-1.328-1.205-1.405-1.274-.53-.474-.96-.806-1.347-1.02-.63-.352-.884-.338-1.165.094l-.033.052c-1.678 2.75-5.036 5.448-8.738 7.05-4.102 1.776-8.117 2.03-11.08.354-1.077-.61-1.25-1.84-.892-3.495.25-1.158.776-2.583 1.542-4.278.21-.462.434-.94.676-1.44l.286-.582 2.05-4.002c1.526-2.978 3.092-5.257 6.548-9.81l1.044-1.375c3.73-4.938 5.35-7.417 6.85-10.805z"/><path d="M1061.373 100.143a1.01 1.01 0 0 1 1.161.829c.67 4.032.74 7.86.312 12.157-.15 1.5-.356 3.053-.642 4.868l-.11.694-.186 1.128-.957 5.57-.318 1.94a1.01 1.01 0 0 1-1.155.838 1.01 1.01 0 0 1-.838-1.155l.132-.816.19-1.14.274-1.605.563-3.258.254-1.514.05-.3c.337-2.083.573-3.798.736-5.44.41-4.13.346-7.78-.294-11.625a1.01 1.01 0 0 1 .829-1.161z"/><path d="M1079.528 108.93a1.01 1.01 0 0 1 1.371.393 1.01 1.01 0 0 1-.393 1.371l-.483.265c-7.818 4.253-12.053 4.44-19.866.716a1.01 1.01 0 0 1-.476-1.345 1.01 1.01 0 0 1 1.345-.476l.437.206c7.067 3.292 10.637 2.99 18.066-1.13z"/></g><path d="M1071.28 72.935c4.7 2.852 7.545 7.602 5.75 13.535-2.015 6.66-6.82-2.405-7.118-4.663-1.275-9.634 1.003-2.93 1.003-7.683"/></g><g transform="translate(928.355 79.178)"><g transform="translate(0 45.597)"><path d="M90.723.126c24.5 15.294 39.524 51.956 45.07 109.985l.165 1.765c-32.46 8.813-56.89 13.376-73.287 13.69S25.383 121.51 0 112.465c.25-28.02 3.1-48.257 8.52-64.722C11.295 39.33 20.642 24.35 36.562 2.8l.306-.413C57.71 3.503 75.724 2.57 90.66.138l.064-.012z" class="M"/><g transform="translate(19.634 3.628)"><g class="K B C J"><path d="M8.8 62.857c11.17 5.753 18.362-1.603 25.9-9.604m12.578 1.297c1.535 6.642 2.498 10.802 6.3 16.16.1.128-.306.076-.458.115m7.502-2.175c-7.612-4.527-3.04-1.12-11.57-12.6m27.26 9.342c-10.344-.703-20.998-4.46-28.865-11.347m29.78 4.872c-5.45.778-16.564 6.34-29.552-5.617m29.152-2.235c-14.237 2.87-5.444 1.732-26.573 1.203M19.54 71.82c6.35-5.058 15.72-10.66 17.375-19.504m-8.268 19.406c7.552-5 2.238-.85 10.878-17.04m-2.51 17.484c5.723-11.147 3.834-5.658 6.25-16.254"/><path d="M46.07 70.885c-4.278-8.706-2.708-3.724-3.74-15.22m12.305 14.8c-6.58-8.902-3.383-3.625-8.76-16.304M15.603 46.2c5.767 3.407 13.74 9.706 20.034 4.04"/><path d="M12.256 53.893c3.67.982 22.198 6.47 21.855-2.906"/><path d="M25.85 4.45c-.436 3.95-.436 6.422 0 7.414 2.768 6.304 7.093 4.203 8.89-2.595"/><path d="M37.706 0c-8.397 36.33-7.78 54.494 1.852 54.494S52.525 48.07 49.56 35.217L48.08 2.224c4.446 15.57 8.644 16.31 12.596 2.224" class="M"/></g><g stroke="#f06aa6" fill="#f06aa6" class="B J"><path d="M5.105 35.96c-2.14-1.103-3.374-2.092-3.705-2.966-1.76-4.652 1.792-7.178 8.15-3.707.247-5.437 2.346-8.773 6.298-10.01s4.693 2.1 2.223 10.01c3.932-.585 6.402-.585 7.41 0 3.373 1.96 1.807 6.737-5.186 9.638 3.458 2.966 3.952 6.055 1.482 9.268s-5.433 1.73-8.89-4.45c-4.94 5.93-8.768 7.414-11.484 4.45S-.08 41.15 5.105 35.96z"/><path d="M60.844 33.662c-2.245-1.155-3.54-2.2-3.887-3.104-1.846-4.87 1.88-7.512 8.55-3.88.26-5.69 2.46-9.182 6.606-10.475s4.923 2.2 2.333 10.476c4.125-.612 6.717-.61 7.773.001 3.54 2.05 1.896 7.05-5.44 10.087 3.628 3.104 4.146 6.338 1.556 9.7s-5.7 1.8-9.33-4.657c-5.182 6.207-9.198 7.76-12.048 4.655s-1.555-7.372 3.885-12.803z" transform="matrix(-.987688 .156434 .156434 .987688 133.626154 -10.516606)"/></g><g fill="#c23362"><ellipse cx="13.441" cy="35.774" rx="4.631" ry="4.634"/><ellipse cx="69.751" cy="32.808" rx="4.631" ry="4.634"/></g></g></g><path d="M90.393 52.19c15.256-2.733 23.776-4.7 25.562-5.93l-3.334-9.268c-15.806 3.707-25.068 5.56-27.785 5.56-1.73-26.938-6.545-40.407-14.448-40.407-2.57 0-5.535 3.707-8.89 11.12C56.804-1.067 51.865-3.786 46.678 5.11s-7.903 22.366-8.15 40.407c-8.158-.262-14.21-.607-18.153-1.033s-7.03-1.07-9.262-1.932v8.526c-.397.41 2.344.995 8.224 1.752s11.783 1.285 17.708 1.585c7.162.547 24.944-.195 53.346-2.224z" class="D"/></g><path d="M347.688 126.943c-2.112 46.916-53.33 64.312-20.592 94.887 7.823 7.306-42.898 7.408-38.545 0 23.232-39.536-1.056-47.97-.528-90.67.062-5.035.777-9.76 2.043-14.096 25.497-.72 44.176-.062 56.038 1.972.943.162 1.47 2.797 1.584 7.907z" fill="#f06aa6"/><path d="M354.542 121.434c-2.806 12.155-8.143 24.616-9.175 37.102-.748 9.05-.334 18.157-.502 27.235m6.452-64.74c-6.293 15.788-8.734 29.992-9.328 47.053-.467 13.405-1.8 10.132.87 15.675m-.01-53.078c-5.908 24.315-6.18 32.172-2.044 57.1m-.376 2.814c-14.654-13.125-8.515-36.045-4.6-52.274" class="B C L N"/><path d="M312.02 126.66c.892 4.39.65 7.33-.727 8.826-7.31 7.94-10.157 10.997-18.377 22.304-.112.155-.08.56.113.562.912.01 1.93-.02 2.682-.534 5.274-3.6 9.35-9.07 15.19-11.665 7.86-3.494-1.467 7.587-4.28 7.587s8.124 5 19.374-.937-9.687 7.186-16.56 6.56 2.812 5.624 0 14.06" stroke-width="1.839" class="B C F"/><path d="M292.45 135.105c-4.732 12.543-11.064 43.105-29.702 46.64-.236.045-.36-.32-.538-.478m27.417-54.607c-4.284 21.18-10.617 39.898-28.224 52.274m25.805-60.314c-5.47 19.724-8.237 41.172-24.998 54.687m19.353-53.884c-5.056 21.153-5.6 35.073-20.563 49.86" class="L N B C"/><path d="M286.73 115.175c-2.285 0 1.374 14.06 2.81 17.308 1.213 2.746 4.554 4.144 10.022 4.196 6.053.186 10.26-1.192 12.624-4.134l.36-.463c2.81 5.625 8.468 7.22 15.332 7.22 15.873 0 22.208-9.593 19.668-24.126H286.73zm28.022 5.37l26.996-.377.008.097c.36 4.633-.448 8.08-2.26 10.363l-.096.12-.092.1c-2.17 2.544-6.215 3.87-12.33 3.87-4.51 0-9.83-1.892-11.62-8.113l-.057-.207c-.296-1.106-.202-3.026-.478-5.277l-.053-.443-.016-.143zm-23.754.455h19.586l-.01.028c.01 8.81.01 12.45-14.664 12.446l-.235.003-.277.001c-.277 0-.42-.043-.68-.222-.548-.378-1.15-1.126-1.703-2.27-1.05-2.175-1.73-5.375-1.992-9.555l-.025-.432z" class="D E"/><path d="M300.44 126.242c.215 3.417-3.12 4.287-4.043 1.142-.705-2.4 3.138-2.628 4.35-1.142m24.438 0c.215 3.417-3.12 4.287-4.043 1.142-.705-2.4 3.138-2.628 4.35-1.142" class="H"/><path d="M279.595 230.27c-2.587 3.78-13.45 2.8-7.632-4.86s10.22 1.08 7.632 4.86zm12.695 6.48c-2.66 3.648-12.378 1.325-6.394-6.07s9.056 2.42 6.394 6.07zm18.513 2.172c-2.692 3.788-12.37 2.073-6.317-5.604s9 1.816 6.317 5.604zm19.32-2.352c-2.737 3.727-12.05 1.787-8.073-4.792s10.8 1.065 8.073 4.792zm13.788-4.438c-2.6 3.686-10.648 1.92-7.667-4.74s10.266 1.053 7.667 4.74z" fill="#ff0034"/><path d="M1177.034 165l2.92 11.652c.52 2.335 1.06 7.2 1.622 14.565 12.33-5.18 18.493-1.726 18.493 10.358s-6.164 16.184-18.493 12.3v46.285l-122.962 2.913v-49.198c-13.4 3.237-19.574-.863-18.493-12.3s7.246-14.89 18.493-10.358l2.27-26.218h116.15zm-99.927 15.536c-8.435 26.325-9.192 46.393-2.27 60.203 4.402 8.783 41.602 11.127 65.86 8.74 9.258-.91 18.775-3.824 28.55-8.74 1.682-8.93 2.33-18.102 1.947-27.512s-1.8-18.797-4.218-28.16c-5.84-6.473-20.115-10.573-42.826-12.3s-38.392.863-47.043 7.768z" fill="#0d62fe"/><g class="E"><path d="M1114.274 220.65c.167.094.306.182.413.268.074.06.137.12.207.208l.052.068c.052.073.073.13.17.4l.01.17c.006.13.006.226-.006.3l-.004.022.014.01.086.072c.242.22.415.514.42.9l-.002.1-.006.07.033.01c.423.135.765.4.955.72l.042.08.014.005a1.38 1.38 0 0 1 .76.677l.04.087a1.15 1.15 0 0 1-.002.931l-.036.073-.506.95-.005.05c-.07.54-.466.996-1.1 1.065l-.1.007c-.234.01-.424-.02-.705-.1l-.216-.064-.477-.148-.214-.06-.044-.01-.053.114c-.3.624-.5.94-.997 1.216-9.058 5.067-19.624 7.738-27.98 6.257-.973-.172-1.45-1.17-.898-2.013.145-.22.344-.4.6-.6l.045-.032-.044-.017a1.19 1.19 0 0 1-.277-.17l-.07-.06c-.516-.47-.47-1.07-.2-1.507a1.53 1.53 0 0 1 .3-.348c.227-.2.6-.44 1.105-.728a24.78 24.78 0 0 1 1.002-.54l.307-.154-.176.038-.592.123-.65.13c-.68.132-1.206.22-1.525.25-.148.015-.268.02-.4.012a1.16 1.16 0 0 1-.506-.14 1.17 1.17 0 0 1-.17-.11l-.022-.02-.32.306-.237.23a1.15 1.15 0 0 1-1.608-1.644c3.644-3.565 7.794-6.633 11.613-8.4 4.7-2.166 8.805-2.316 11.793.097l.13.107a8.48 8.48 0 0 0 .695.536l.1.064 1.026-.283c.697-.192 1.263-.204 2.154-.07l.085.013.02-.002c.9-.1 1.572-.044 2.65.18l.287.06.25-.08c.613-.196 1.064-.257 1.68-.147.286.05.616.2.958.375l.13.07zm-2.396 6.115a2 2 0 0 0-.54.102l-.388.14c-1.737.634-2.48.994-4.226 1.986l-.835.478-.322.18c-1.4.764-2.77 1.273-4.963 1.77l-.647.142c-1.362.3-2.612.494-4.845.815l-1.85.263-3.293.514-.337.06.088.001c6.874.038 14.838-2.325 21.886-6.212l.2-.116.032-.06.03-.063zm-9.628-5.454l-.006-.004c-3.508-2.28-9.473-.163-15.647 4.683l-.103.08.84-.278c4.095-1.35 8.426-2.65 13.874-4.188l1.043-.294zm3.7 5.48l-2.07.597-1.925.566-4.7 1.396-1.782.524-.867.252 1.244-.18c1.53-.228 2.54-.402 3.603-.627l.408-.088.443-.1c1.8-.417 2.905-.83 4.026-1.426l.135-.073.4-.224.762-.436.32-.18zm4.516-3.5a4.14 4.14 0 0 1-1.407-.014l-.157-.03c-.394-.077-.738-.103-1.114-.092l-.163.007c-.175.01-.784.062-.884.07-.532.035-1.013.006-1.486-.1h-.077l-.18.044a47.53 47.53 0 0 0-2.474.686l-.697.216c-1.087.346-2.086.706-3.743 1.34l-2.776 1.07.78-.164 2.85-.57 3.934-.757 3.354-.673.62-.13 1.288-.348.76-.2a10.29 10.29 0 0 1 1.23-.242l.152-.02.297-.08-.107.02zm12.444-1.81l.082-.05.316-.183c.808-.46 1.228-.615 1.794-.488l.473.103 2.567.467.98.156.985.067 4.987.482.297.042 2.194-.003 2.257.035c3.106.113 5.8.57 9.024 1.64l.346.117a3.52 3.52 0 0 0 .268.077l.264.063.498.112 1.026.276c.46.158.812.346 1.1.645a1.53 1.53 0 0 1 .191 1.858c-.398.687-.86 1.02-1.635 1.218l-.04.01.063.03a1.09 1.09 0 0 1 .601.75l.02.093c.102.568-.154.95-.507 1.194-.12.083-.237.138-.373.188s-.316.1-.54.153l-.116.027-.552.114-.157.03-.03.046a1.29 1.29 0 0 1-.985.542l-.08.003a14.13 14.13 0 0 1-1.327-.043l-.343-.032 1.48.23.098.017.18.034.15.033c.245.06.37.104.57.263.505.405.655 1.218.06 1.762a1.1 1.1 0 0 1-.57.29 2.36 2.36 0 0 1-.413.048l-.662.027-.212.006-.005.046a1.22 1.22 0 0 1-.407.733l-.06.05a1.51 1.51 0 0 1-.542.267c-5 1.453-9.948 1.07-14.968-.9-4-1.566-7.854-3.998-12.488-7.637a1.15 1.15 0 0 1 1.359-1.853l.05.037.025-.057a1.21 1.21 0 0 1 .229-.33l.06-.057c.27-.242.515-.343.85-.355l.074-.001-.01-.046a1.14 1.14 0 0 1-.019-.144l-.001-.026-.03-.038-.05-.072a1.17 1.17 0 0 1 .2-1.497c.233-.2.444-.285.668-.3l.05-.003.027-.015a2.82 2.82 0 0 1 .656-.255l.017-.004zm3.748 7.792c1.85 1.127 3.625 2.022 5.42 2.723 3 1.167 5.914 1.717 8.84 1.594l.24-.012-.568-.104-.624-.108-1.668-.28c-2.494-.422-3.77-.7-5.242-1.24l-.483-.178c-1.465-.55-3.554-1.402-5.537-2.26l-.52-.226.144.1zm12.055-2.807l.753.346c1.13.513 1.766.765 2.534.997l.5.153a44.88 44.88 0 0 0 1.994.548l.134.032-.198-.097c-.295-.14-.6-.268-.885-.38l-.22-.08a118.14 118.14 0 0 0-3.992-1.324l-.63-.195z" class="H"/><path d="M1102.365 207.314c2.5-.774 4.505-.32 7.806 1.257l1.627.8a1.15 1.15 0 0 1 .547 1.531 1.15 1.15 0 0 1-1.531.547l-.858-.416-.383-.188c-3.052-1.492-4.662-1.902-6.526-1.325-1.27.394-1.733 3.274-1.525 6.535.25 3.893 5.613 5.96 9.368 4.085a1.15 1.15 0 0 1 1.542.515 1.15 1.15 0 0 1-.515 1.542c-5.084 2.537-12.322-.252-12.7-5.996-.093-1.456-.078-2.922.15-4.346.376-2.346 1.27-4 3-4.533zm24.13 4.87c2.463-2.22 4.692-3.267 6.593-3.113 1.864.15 3.188 1.438 3.7 3.33.98 3.63-1.077 8.23-5 9.957-1.148.505-2.3.754-3.544.8l-.236.008c-.818.022-1.4-.013-2.8-.147l-1.04-.098-.546-.045a1.15 1.15 0 0 1-1.062-1.231 1.15 1.15 0 0 1 1.231-1.062l.473.038.683.063 1.018.096c.932.083 1.4.103 2 .087 1.063-.028 1.983-.216 2.915-.626 2.86-1.258 4.397-4.696 3.707-7.253l-.045-.155c-.675-2.142-2.847-2.236-6.487 1.046a1.15 1.15 0 0 1-1.54-1.708z" class="D"/></g><path d="M1086.717 199.048c-.648-11.382 9.417-14.28 12.208-3.802 2.13 7.993-9.475 8.75-13.133 3.802m38.88 1.667c.203-2.4.053-4.85.6-7.198 2.413-10.18 15.588-.303 8.6 8.203" class="H"/><path d="M1129.068 197.672l.012.205.017.368c.04.98.02 1.945-.044 3.212l-.117 2.06-.09 1.868-.255 3.803-.01.118c-.52 5.572-1.71 9.652-4.184 12.877-3.674 4.79-7.978 4.755-11.055.752-2.553-3.32-3.768-8.816-2.82-13.047l.173-.764c1.805-7.916 3.08-11.263 4.397-12.213l.046-.033-.02-.32-.202-2.855a1.15 1.15 0 0 1 1.069-1.225 1.15 1.15 0 0 1 1.225 1.069l.21 2.983a8.61 8.61 0 0 1 .028.892l-.002.046c-.035.585-.272 1.06-.863 1.29a1.61 1.61 0 0 1-.118.038l-.087.024-.056.07a2.57 2.57 0 0 0-.084.117l-.035.052c-.202.31-.437.787-.703 1.456l-.058.146c-.75 1.932-1.638 5.094-2.677 9.73-.8 3.565.262 8.363 2.4 11.143 2.162 2.812 4.66 2.832 7.41-.75 2.116-2.757 3.193-6.37 3.7-11.394l.07-.747c.087-.993.144-1.892.22-3.387l.1-2.065.092-1.584c.08-1.5.1-2.527.042-3.607-.166-3.105 2.062-3.862 2.284-.328z" class="D E"/><path d="M1107.928 169.33c2.733 0 5.508.197 8.325.592l.53.076c1.115.166 1.996 1.03 2.18 2.14.834 5.063 1.172 10.222 1.014 15.477.734.532 1.703.41 2.906-.365-.132-5.13.21-10.166 1.024-15.112.178-1.08 1.018-1.93 2.09-2.127l.088-.015.53-.076c2.817-.395 5.592-.592 8.325-.592l.642.003c3.59.033 10.845.323 21.767.87a2.92 2.92 0 0 1 2.582 1.873l.032.088.108.316c1.63 4.854 2.446 10.278 2.446 16.27 0 5.717-.76 10.695-2.28 14.933-.538 1.5-1.938 2.517-3.527 2.574l-.102.002-1.563.013a350.6 350.6 0 0 1-8.234-.032l-1.394-.025-17.085-.006a3.89 3.89 0 0 1-3.834-3.094l-.02-.097-.09-.497c-.443-2.52-.793-5.13-1.05-7.838-1.245-1.337-2.525-1.44-3.84-.31-.357 3.246-.903 6.484-1.636 9.714l-.126.546a3.89 3.89 0 0 1-3.648 3l-7.773.275-8.86.26-1.134.02-8.672.022-.785-.007c-1.625-.015-3.07-1.037-3.623-2.56-1.928-5.3-2.892-10.94-2.892-16.9 0-5.992.815-11.415 2.446-16.27l.108-.316a2.92 2.92 0 0 1 2.614-1.961l3.684-.182 18.726-.692zm-3.244 3.237l-.51.02c-3.25.133-7.805.55-13.664 1.246l-.953.115c-.605.073-1.077.557-1.135 1.162l-.074.793c-1.183 12.87-.82 21.79 1.09 26.767.847 2.208 9.174 2.532 24.982.97l.143-1.205c.843-7.223 1.22-12.522 1.128-15.896l-.004-.138c-.11-3.55-.533-7.944-1.267-13.187-2.87-.552-6.113-.767-9.733-.647zm29.848 0l-.35-.01c-3.4-.095-5.31.125-5.734.658l-.098.7c-.673 4.93-1.063 9.1-1.17 12.477l-.01.327c-.078 3.545.32 8.75 1.196 15.616 16.456.913 25.108.266 25.955-1.942 1.944-5.066 2.003-13.51.177-25.33-.09-.588-.57-1.038-1.164-1.092l-2.88-.26c-7.507-.666-12.815-1.05-15.923-1.154z" fill="#f3a712"/><path d="M1105.943 233.835a1.15 1.15 0 0 1 1.617-.165c2.188 1.784 5.216 2.542 9.163 2.522l.387-.004c1.677-.027 3.363-.178 5.777-.478l2.256-.282c2.748-.336 3.3-.356 4.37-.25 1.434.142 1.5 1.924.682 2.668l-.027.023-1.422 1.417a1.15 1.15 0 0 1-.15.126l-.083.053c-1.19.692-2.36 1.162-3.536 1.368-.636.112-1.225.07-2.15-.088l-.647-.117-.14-.024.122.06c.604.306.985.568 1.298.937l.062.075c1.135 1.434 1.152 2.878-.065 3.8-.745.564-1.842.832-3.28.946-.736.058-1.44.07-2.3.053l-.814-.017a1.15 1.15 0 0 1-1.211-1.084 1.15 1.15 0 0 1 1.084-1.211l.19-.003.54.012 2.33-.04c.98-.078 1.712-.25 2.032-.458l.03-.02c-.032-.097-.12-.26-.286-.48l-.053-.068c-.1-.114-.383-.292-.947-.558l-.71-.33-.06-.03c-.572-.276-.937-.5-1.228-.823-.562-.622-.608-1.467-.056-2.155.333-.415.744-.692 1.22-.85l.09-.03-.023.002-3.06.155-.213.002c-4.43.023-7.955-.86-10.628-3.04a1.15 1.15 0 0 1-.165-1.617zm21.29 3.715l.05-.05-.398.04-.883.1-3.14.388-.842.1-.634.07.06.004c.245.017.513.054.87.114l.746.134c.77.14 1.194.175 1.52.118.823-.144 1.683-.477 2.583-.98l.07-.04z" class="D E"/><path d="M1050.947 220.713l23.177-4.486a1.73 1.73 0 0 1 1.881.938l17.21 35.204a1.73 1.73 0 0 1-1.552 2.487h-23.848a1.73 1.73 0 0 1-1.521-.909l-16.54-30.718a1.73 1.73 0 0 1 1.193-2.516z" stroke="#011638" stroke-width="1.003" fill="#011638" class="B"/><path d="M7.867 17.846C20.7 1.523 44.802-.673 64.955.146S91.92 5.86 102.012 21.673s7.842 28.137 2.095 39.812c-2.876 5.842-8.035 10.82-14.575 14.79-3.47 2.106-9.863 9.154-5.106 19.833S69.703 84.404 65.27 85.28c-22.202 4.377-47.37.69-59.16-13.748-11.2-13.716-4.196-35.637-.946-49.75l2.704-3.933z" class="D"/></g><path d="M1181.153 45.123C1148.8 3.85 1087.968-1.702 1037.123.37s-68.03 14.45-93.493 54.43-19.786 71.142-5.286 100.66c7.256 14.772 20.272 27.36 36.773 37.392C983.875 198.177 1000 216 988 243s37.145-29.588 48.33-27.378c56.014 11.067 119.512 1.746 149.257-34.762 28.255-34.68 10.585-90.107 2.388-125.79l-6.823-9.946z" fill="#0d62fe"/></g></svg>