<svg xmlns="http://www.w3.org/2000/svg" xmlns:xlink="http://www.w3.org/1999/xlink" width="600" height="600" xmlns:v="https://vecta.io/nano"><style><![CDATA[.B{stroke-linejoin:round}.C{stroke-linecap:round}.D{stroke-width:.6}.E{fill-rule:nonzero}.F{fill:#001d75}.G{fill:#fff}.H{fill:#ff9d00}.I{fill:#f4f2ee}.J{stroke:#001d75}.K{stroke:#212121}.L{fill:#ff0034}.M{fill:#00c15a}.N{fill:#0064ff}.O{fill:#eaeaea}.P{stroke:#f4f2ee}.Q{fill:#212121}.R{fill:#ff0025}.S{stroke:#ffc200}.T{fill:#65a9ff}.U{fill:#ff243a}.V{fill:#001d71}.W{fill:#b4b4b4}.X{stroke-width:1.053}.Y{stroke-linecap:square}]]></style><defs><filter x="-3.6%" y="-2.2%" width="107.1%" height="104.5%" id="A"><feOffset dy="1" in="SourceAlpha"/><feGaussianBlur stdDeviation="2"/><feColorMatrix values="0 0 0 0 0 0 0 0 0 0.164542109 0 0 0 0 0.362271488 0 0 0 0.1 0" result="C"/><feMerge><feMergeNode in="C"/><feMergeNode in="SourceGraphic"/></feMerge></filter><filter x="-33.4%" y="-26.1%" width="166.9%" height="152.8%" id="B"><feOffset dy="24" in="SourceAlpha"/><feGaussianBlur stdDeviation="16"/><feColorMatrix values="0 0 0 0 0 0 0 0 0 0.164542109 0 0 0 0 0.362271488 0 0 0 0.1 0" result="C"/><feMerge><feMergeNode in="C"/><feMergeNode in="SourceGraphic"/></feMerge></filter><filter x="-40.6%" y="-38.2%" width="181.2%" height="176.5%" id="C"><feOffset dy="1" in="SourceAlpha"/><feGaussianBlur stdDeviation="1"/><feColorMatrix values="0 0 0 0 0 0 0 0 0 0 0 0 0 0 0 0 0 0 0.3 0" result="C"/><feMerge><feMergeNode in="C"/><feMergeNode in="SourceGraphic"/></feMerge></filter><filter x="-36.5%" y="-51.4%" width="172.6%" height="202.4%" id="D"><feOffset dy="24" in="SourceAlpha"/><feGaussianBlur stdDeviation="16"/><feColorMatrix values="0 0 0 0 0 0 0 0 0 0.164542109 0 0 0 0 0.362271488 0 0 0 0.1 0" result="C"/><feMerge><feMergeNode in="C"/><feMergeNode in="SourceGraphic"/></feMerge></filter><path id="E" d="M26.865 262.535c1.42 0 3.162-.09 5.23-.268l.536-2.633h-2.324l.18-3.838H17.613l-.08 2.128c-1.486-.414-2.23-.22-2.23.584s.665 1.283 1.996 1.438l.447 2.053 9.118.535z"/><path id="F" d="M30.808 254.48c.276 0-.05 2.46-.223 2.952-.22.626-.737.49-1.296.49a4.1 4.1 0 0 1-.466-.021 7.61 7.61 0 0 0-.86-.882l-.25-.207.062.363-.08-.126c-.34.855-1.02 1.097-1.85 1.097-1.914 0-2.678-1.458-2.37-3.666h7.333zm-3.803.996H24.42l-.001.013c-.033.53.027.942.17 1.236l.085.15c.226.333.627.506 1.263.506.433 0 .73-.278.92-.96l.05-.206.037-.2.036-.282.025-.244zm3.07 0H28.16c.272 1.115.63 1.6 1.297 1.672l.188.01c.027 0 .04-.006.067-.03.054-.05.112-.152.167-.306.088-.25.15-.604.18-1.054l.016-.29z"/><path id="G" d="M24.88 201.4c-6.45 0-11.68 5.23-11.68 11.68s5.23 11.68 11.68 11.68 11.68-5.23 11.68-11.68-5.23-11.68-11.68-11.68z"/><path id="H" d="M22.262 311.643c-.07-.458.01-.773.243-.946.422-.315.99.225 1.046.626.068.474-.303 1.2-.66 1.09-.34-.114-.55-.37-.63-.77z"/><path id="I" d="M158.742 66.507v-2.875c1.44-.215 2.476-.7 3.105-1.426s.943-1.6.943-2.622c0-.675-.12-1.257-.356-1.748a3.97 3.97 0 0 0-.978-1.276c-.414-.36-.9-.675-1.46-.943l-1.782-.77-1.196-.448c-.353-.146-.652-.3-.897-.46s-.43-.345-.552-.552-.184-.464-.184-.77c0-.52.207-.93.62-1.23s1.035-.45 1.863-.45c.782 0 1.476.077 2.082.23l1.576.483.575-2.277c-.337-.138-.797-.28-1.38-.425s-1.242-.25-1.978-.3h0v-2.484h-2.392v2.576c-1.303.215-2.27.694-2.898 1.438s-.943 1.645-.943 2.703c0 .644.115 1.188.345 1.633a3.66 3.66 0 0 0 .908 1.139 5.6 5.6 0 0 0 1.265.794l1.415.575 1.39.53a6.3 6.3 0 0 1 1.093.552c.307.2.544.43.713.7s.253.567.253.92c0 .52-.203.94-.61 1.254s-1.138.47-2.196.47c-.89 0-1.683-.1-2.38-.3s-1.292-.422-1.782-.667h0l-.782 2.185c.337.184.847.387 1.53.61s1.576.372 2.68.45h0v2.806h2.392z"/></defs><g fill="none" fill-rule="evenodd"><g filter="url(#A)" transform="translate(18 65)"><path d="M0 238.6h294v40.2H0z" class="G"/><path d="M23.973 247C17.36 247 12 252.36 12 258.973s5.36 11.973 11.973 11.973 11.973-5.36 11.973-11.973S30.585 247 23.973 247z" fill="#06f" class="E"/><use xlink:href="#E" class="H"/><g class="Q"><path d="M25.034 255.75c-.064 1.12.932 1.406 1.208.374.21-.787-.938-.862-1.3-.374"/><path d="M28.786 255.57c.02.238.005.482.058.715.23 1.012 1.495.03.825-.815"/></g><use xlink:href="#F" class="E R"/><g class="B C D K"><path d="M28.01 257.35c.9.7 1.696 1.743 1.56 1.914-.18.223-.825.27-.983.178-.127-.073-.07.026-.07.858"/><path d="M26.047 259.6c1.053.78 2.22.88 3.375.643"/></g><g class="J B C D"><path d="M27.174 261.605c.225.9.758 1.47 1.32 2.224"/><path d="M28.095 261.507c.616 1.947.48 1.117.618 2.448"/><path d="M28.86 261.647c.184 1.893.162 1.106.162 2.357"/><path d="M29.676 261.647l-.422 2.59"/><path d="M30.245 261.718c-.05.918-.293 1.65-.752 2.44"/><path d="M30.87 261.626c-.084.895-.34 1.757-.942 2.456"/><path d="M31.215 262.588c-.744.997-.834 1.303-1.947 1.564"/></g><path d="M26.122 259.275c-.067.18-.2.36-.425.37" class="B C D K"/><g class="I"><rect x="192" y="255.4" width="58.8" height="7.2" rx="3.6"/><rect x="48" y="255.4" width="56.4" height="7.2" rx="3.6"/></g><path d="M0 383.6h294v40.2H0z" class="G"/><g class="I"><rect x="192" y="400.4" width="69" height="7.2" rx="3.6"/><rect x="48" y="400.4" width="42.6" height="7.2" rx="3.6"/></g><path d="M0 339.8h294V380H0z" class="G"/><g class="I"><rect x="192" y="356.6" width="54.6" height="7.2" rx="3.6"/><rect x="48" y="356.6" width="56.4" height="7.2" rx="3.6"/></g><path d="M0 296h294v40.2H0z" class="G"/><g class="I"><rect x="192" y="312.8" width="58.8" height="7.2" rx="3.6"/><rect x="48" y="312.8" width="42.6" height="7.2" rx="3.6"/></g><path d="M0 427.4h294v40.2H0z" class="G"/><g class="I"><rect x="192" y="444.2" width="54.6" height="7.2" rx="3.6"/><rect x="48" y="444.2" width="56.4" height="7.2" rx="3.6"/></g><path d="M0 193h294v40.2H0z" class="G"/><g transform="translate(0 138)"><path d="M0 0h294v40.2H0z" class="G"/><g class="I"><rect x="192" y="16" width="69" height="7.2" rx="3.6"/><rect x="48" y="16" width="42.6" height="7.2" rx="3.6"/></g><rect x="134.8" y="16" width="33" height="7.2" rx="3.6" class="H"/><g transform="translate(13 8)"><path d="M12 0C5.373 0 0 5.373 0 12s5.373 12 12 12 12-5.373 12-12S18.627 0 12 0z" fill="#cce4ff" class="E"/><path d="M17.376 5.088c-.284 6.335-7.182 8.684-2.773 12.813 1.054.987-5.777 1-5.19 0 3.13-5.34-.142-6.478-.07-12.244.008-.68.105-1.318.275-1.903 3.434-.097 5.95-.008 7.547.266.127.022.198.378.213 1.068z" fill="#ff5fa7"/><g class="B C D S"><path d="M18.3 4.344c-.378 1.64-1.097 3.324-1.236 5-.1 1.222-.045 2.452-.068 3.678"/><path d="M17.864 4.3c-.848 2.132-1.176 4.05-1.256 6.354-.063 1.8-.244 1.368.117 2.117"/><path d="M16.724 5.593c-.796 3.283-.832 4.344-.275 7.7"/><path d="M16.398 13.683c-1.973-1.772-1.147-4.867-.618-7.06"/></g><path d="M12.572 5.05c.12.593.087 1-.098 1.192C11.5 7.314 11.107 7.727 10 9.253c-.015.02-.01.076.015.076.123.001.26-.003.36-.072.7-.486 1.26-1.225 2.045-1.575 1.058-.472-1.452 1.16-.844 1.476.248.13 4.588-.467 3.185-.187s-3.487.668-3.312.896c.73.952.913 1.388.73 2.24" class="B C D K"/><g class="S B C D"><path d="M9.937 6.2c-.637 1.694-1.5 5.82-4 6.298-.032.006-.048-.043-.072-.065"/><path d="M9.557 5.05c-.577 2.86-1.43 5.388-3.8 7.06"/><path d="M9.23 3.964c-.737 2.663-1.11 5.56-3.367 7.385"/><path d="M8.47 4.072C7.8 6.93 7.715 8.808 5.7 10.805"/></g><path d="M9.167 3.5c-.308 0 .185 1.9.378 2.337.163.37.613.56 1.35.567.815.025 1.382-.16 1.7-.558l.05-.063c.378.76 1.14.975 2.065.975 2.138 0 2.99-1.295 2.65-3.258h-8.2zm3.774.725l3.636-.05.001.013c.048.626-.06 1.09-.304 1.4l-.025.03c-.292.343-.837.523-1.66.523-.564 0-1.222-.22-1.506-.924l-.066-.2c-.032-.12-.03-.31-.047-.536l-.026-.256zm-3.2.06h2.638l-.004.388c-.02.873-.207 1.263-1.753 1.294l-.288.003c-.037 0-.057-.006-.092-.03-.074-.05-.155-.152-.23-.307-.12-.252-.206-.605-.25-1.056l-.022-.292z" fill="#00ffce" class="E"/><g class="Q"><path d="M11.607 4.904c-.03.46.42.58.544.154.095-.324-.423-.355-.586-.154" transform="matrix(-1 0 0 1 23.728506 0)"/><path d="M13.182 4.904c-.03.46.42.58.544.154.095-.324-.423-.355-.586-.154" transform="matrix(-1 0 0 1 26.877826 0)"/></g><g class="R"><path d="M7.052 19.04c.348.5 1.81.378 1.028-.656s-1.376.146-1.028.656z" transform="matrix(-1 0 0 1 15.257918 0)"/><path d="M8.926 19.915c.358.493 1.667.18.86-.82s-1.22.327-.86.82z" transform="matrix(-1 0 0 1 18.841628 0)"/><path d="M11.43 20.21c.363.512 1.666.28.85-.757s-1.213.245-.85.757z" transform="matrix(-1 0 0 1 23.837102 0)"/><path d="M13.877 19.89c.37.503 1.623.24 1.087-.647s-1.456.144-1.087.647z" transform="matrix(-1 0 0 1 28.886876 0)"/><path d="M15.82 19.292c.35.498 1.434.26 1.033-.64s-1.383.142-1.033.64z" transform="matrix(-1 0 0 1 32.68778 0)"/></g></g></g><g transform="translate(0 92)"><path d="M0 0h294v40.2H0z" class="G"/><g class="I"><rect x="192" y="16" width="54.6" height="7.2" rx="3.6"/><rect x="48" y="16" width="69" height="7.2" rx="3.6"/></g><rect x="135" y="16" width="33" height="7.2" rx="3.6" class="H"/><g transform="translate(12.6 4)"><path d="M11.973 0C5.36 0 0 5.36 0 11.973s5.36 11.973 11.973 11.973 11.973-5.36 11.973-11.973S18.585 0 11.973 0z" class="E T"/><path d="M2.105 16.066c.014-5.92 7.85-11.163 12.355-11.16 6.84.006 5.142 11.425 4.828 11.447-1.937.133-7.665.037-17.183-.287z" transform="matrix(.956305 -.292372 .292372 .956305 -2.639646 3.653775)" class="F"/><path d="M17.698 8.935c.295 2.356-2.012 8.302-4.448 7.976-2.046-.274-3.238-2.012-3.87-3.873-.107-.315-1.688.506-1.904-.957s1.508-.544 1.463-.813C8.788 10.37 8.8 9.61 8.822 9c.004-.096.52-.393 1.624-.57a11.89 11.89 0 0 1 1.842-.134c1.05-.001 2.223.102 3.208.227.283.036.024-2.604.27-2.566s1 2.753 1.194 2.79c.454.084.734.155.738.187z" fill="#f1f4f6"/><g class="B C D K"><path d="M14.357 9.59c.133 1.284 1.084.862 1.084.004"/><path d="M14.41 10.293l-.325.433"/><path d="M14.898 10.456l-.217.704"/><path d="M15.17 10.348l.163.596"/></g><path d="M13.544 9.102l1.595 2.346c.082.1.24.22.192.343-.044.113-1.078.2-1.17.016-.047-.095-.06-.425-.058-.317.02.663.077 1.08.174 1.254" fill="#f3fff6" class="B C D J"/><g class="K B C D"><path d="M11.508 9.626c-.202.85 1 .958 1.223-.092"/><path d="M11.648 10.24l-.38.27"/><path d="M12.05 10.293l-.037.488"/><path d="M12.406 10.24l.163.38"/></g><path d="M13.362 12.924c.348-.066.4.437.634.293.123-.072.19-.253.332-.27.216-.026.555.07 1.018.287l-.838.75c-.523.483-2.723.007-3.278-.253l1.7.023c2.503-.39 1.94-.397-1.7-.023.493-.51 1.784-.74 2.132-.806z" transform="matrix(.956305 .292372 -.292372 .956305 4.543533 -3.292605)" class="U"/></g><g transform="translate(13 12)"><g transform="translate(.758 2.546)"/></g></g><g transform="translate(0 46)"><path d="M0 0h294v40.2H0z" class="G"/><rect x="134.8" y="14.6" width="33" height="7.2" rx="3.6" class="H"/><g class="I"><rect x="192" y="14.6" width="58.8" height="7.2" rx="3.6"/><rect x="48" y="14.6" width="34.8" height="7.2" rx="3.6"/></g><path d="M24.573 7.4C17.96 7.4 12.6 12.76 12.6 19.373s5.36 11.973 11.973 11.973 11.973-5.36 11.973-11.973S31.185 7.4 24.573 7.4z" class="E T"/><path d="M27.98 16.303c2.756 1.72 4.692 5.286 5.808 10.7-2.196 2.684-5.533 4.395-9.27 4.395a11.95 11.95 0 0 1-9.379-4.53c.202-1.363.475-2.565.82-3.608.372-1.127 1.55-3.06 3.54-5.8l.607-.828c2.83.15 5.304.045 7.39-.256l.484-.075z" class="H"/><g class="B C D J"><path d="M28.818 23.8c-2.082.42-.796.253-3.886.176"/><path d="M19.866 23.092c.843.498 2.01 1.418 2.93.6"/><path d="M19.376 24.215c.537.143 3.246.946 3.196-.425"/><path d="M21.365 16.99c-.064.577-.064.94 0 1.084.405.92 1.037.614 1.3-.38"/><path d="M23.098 16.34c-1.228 5.31-1.138 7.964.27 7.964s1.896-.94 1.463-2.817l-.217-4.822c.65 2.275 1.264 2.384 1.842.325" class="H"/></g><g stroke="#ff5fa7" fill="#ff5fa7" class="B D"><path d="M18.764 21.414c-.313-.16-.493-.306-.542-.433-.257-.68.262-1.05 1.192-.542.036-.795.343-1.282.92-1.463s.686.307.325 1.463c.575-.085.936-.085 1.084 0 .493.286.264.985-.758 1.41.506.433.578.885.217 1.354s-.795.253-1.3-.65c-.722.867-1.282 1.084-1.68.65s-.217-1.03.542-1.788z"/><path d="M26.783 20.635c-.328-.17-.518-.32-.568-.454-.27-.712.275-1.098 1.25-.567.038-.832.36-1.342.966-1.53s.72.32.34 1.53c.603-.09.982-.09 1.137 0 .518.3.277 1.03-.796 1.474.53.454.606.926.227 1.418s-.834.265-1.364-.68c-.758.907-1.345 1.134-1.762.68s-.227-1.077.568-1.87z" transform="matrix(-.987688 .156434 .156434 .987688 52.633106 -4.142315)"/></g><g fill="#d41c61"><circle cx="19.983" cy="21.387" r="1"/><circle cx="28.085" cy="20.51" r="1"/></g><path d="M28.37 16.436c2.23-.4 3.477-.688 3.738-.867l-.488-1.354-4.063.813c-.253-3.937-.957-5.905-2.113-5.905-.376 0-.81.542-1.3 1.625-.686-2.095-1.41-2.492-2.167-1.192s-1.156 3.27-1.192 5.905l-2.655-.15c-.577-.062-1.028-.156-1.354-.282v1.246c-.058.06.343.145 1.203.256l2.6.232c1.047.08 3.648-.028 7.8-.325z" class="F"/><g transform="translate(18.6 23.4)" class="B C D J"><path d="M.273 2.125C1.906 2.966 2.958 1.89 4.06.72"/><path d="M5.897.91c.224.97.365 1.58.92 2.362.013.02-.045.01-.067.017"/><path d="M7.848 2.97c-1.113-.66-.444-.164-1.692-1.843"/><path d="M10.143 2.494C8.63 2.39 7.072 1.842 5.922.836"/><path d="M10.277 1.548c-.797.114-2.422.926-4.322-.82"/><path d="M1.842 3.435c.93-.74 2.3-1.558 2.54-2.85"/><path d="M3.173 3.42c1.104-.73.327-.124 1.59-2.5"/><path d="M4.397 3.485c.837-1.63.56-.827.914-2.375"/><path d="M5.722 3.298c-.626-1.272-.396-.544-.547-2.224"/><path d="M6.974 3.237c-.962-1.3-.495-.53-1.28-2.383"/></g></g><path d="M0 0h294v40.2H0z" class="G"/><path d="M23.973 8.4C17.36 8.4 12 13.76 12 20.373s5.36 11.973 11.973 11.973 11.973-5.36 11.973-11.973S30.585 8.4 23.973 8.4z" class="E T"/><use xlink:href="#E" y="-238.6" class="H"/><g class="Q"><path d="M25.034 17.15c-.064 1.12.932 1.406 1.208.374.21-.787-.938-.862-1.3-.374"/><path d="M28.786 16.97c.02.238.005.482.058.715.23 1.012 1.495.03.825-.815"/></g><use xlink:href="#F" y="-238.6" class="E R"/><g class="B C D K"><path d="M28.01 18.75c.9.7 1.696 1.743 1.56 1.914-.18.223-.825.27-.983.178-.127-.073-.07.026-.07.858"/><path d="M26.047 21c1.053.78 2.22.88 3.375.643"/></g><g class="J B C D"><path d="M27.174 23.005c.225.9.758 1.47 1.32 2.224"/><path d="M28.095 22.907c.616 1.947.48 1.117.618 2.448"/><path d="M28.86 23.047c.184 1.893.162 1.106.162 2.357"/><path d="M29.676 23.047l-.422 2.59"/><path d="M30.245 23.118c-.05.918-.293 1.65-.752 2.44"/><path d="M30.87 23.026c-.084.895-.34 1.757-.942 2.456"/><path d="M31.215 23.988c-.744.997-.834 1.303-1.947 1.564"/></g><path d="M26.122 20.675c-.067.18-.2.36-.425.37" class="B C D K"/><g class="I"><rect x="192" y="16.8" width="58.8" height="7.2" rx="3.6"/><rect x="48" y="16.8" width="69" height="7.2" rx="3.6"/></g><rect x="134.8" y="16.8" width="33" height="7.2" rx="3.6" class="H"/><g transform="translate(12 12.4)"><g transform="translate(3.305 7.476)"/></g><g class="L"><rect x="134.8" y="255.4" width="33" height="7.2" rx="3.6"/><rect x="134.8" y="209.8" width="33" height="7.2" rx="3.6"/></g><rect x="192" y="209.8" width="54.6" height="7.2" rx="3.6" class="I"/><g class="M"><rect x="134.8" y="400.4" width="33" height="7.2" rx="3.6"/><rect x="134.8" y="356.6" width="33" height="7.2" rx="3.6"/><rect x="134.8" y="312.8" width="33" height="7.2" rx="3.6"/><rect x="134.8" y="444.2" width="33" height="7.2" rx="3.6"/></g><rect x="48" y="209.8" width="69" height="7.2" rx="3.6" class="I"/><g class="E"><use xlink:href="#G" fill="#06f"/><path d="M23.173 208.236c-2.652 0-5.022.702-6.792 1.82-.717.452-1.286.95-1.614 1.403-.198.273-.318.54-.332.817-.024.47.28.857.742.954l.04.008c.302.057.746.08 1.783.106l.94.025 2.264.1.144.01.124.01c1.07.08 1.97.2 2.682.366l.05.012v4.15c.096.977 1.148 1.465 3.156 1.465s4.294-.566 6.857-1.7l-.356-3.076.025-.007c.366-.098.676-.235.93-.418a1.72 1.72 0 0 0 .742-1.439 1.33 1.33 0 0 0-1.034-1.362l-.025-.006c-.28-.07-.6-.076-.972-.028l-.043.006-.066-.573-.234-.186c-2.074-1.646-5.083-2.453-9.01-2.453z" class="H"/></g><g class="D B"><g class="C J"><path d="M21.35 209.116c1.03.06.867.083 1.602-.633"/><path d="M21.45 209.642c.81-.058.894-.367 1.45-1.047"/><path d="M23.252 208.555c.203.52.553.556 1.095.513"/><path d="M23.252 208.562c.12.91-.092.528.694 1.107"/></g><g stroke="#fff"><path d="M21.857 206.895c.964-.883 1.46.3 1.355 1.047-.125.914-.87 1.62-1.57 2.12-.01.007-.62.42-.8.26-.433-.383-.26-1.246-.08-1.76s.647-1.257 1.095-1.667z"/><g class="C"><path d="M23.132 208.81c.16-.488.266-1.106.7-1.453.936-.748 1.84-.5 1.582.787-.14.704-.728 1.537-1.242 2.027-.667.636-1.248-.233-1.148-.867.048-.307.165-.6.247-.9"/></g></g><g class="J"><path d="M26.4 208.19c.22 1.286.342 2.27 1.202 3.287 1.26 1.5 4.058.866 5.227-.413" class="C"/><path d="M27.465 208.355c-.233 1.71-.092 3.642 2.07 3.934.15.02 1.147.074 1.515-.053.894-.308.93-.494 1.782-1.187" class="C"/><path d="M27.86 208.37c.755 1.564 2.77 5.198 4.787 2.834" class="C"/><path d="M28.86 208.555c.177.96.266 1.933.908 2.72.85 1.043 2.583.83 3.304-.187" class="C"/><path d="M29.354 208.73c.485 1.223 1.4 3.276 3.064 2.594" class="C"/><path d="M29.948 208.855c.402.636 1.233 2.252 2.063 2.42.323.065.66-.01.988-.013" class="C"/><path d="M22.872 214.303c.814-.286 1.47.303 2.303.153.403-.073.895-.51 1.188-.734" class="C"/><g class="F"><path d="M21.657 217.468l3.436 1.903 5.39-1.903-.317 4.017-5.074-1.533-4.334 1.533z"/></g></g></g><path d="M24.88 305c-6.45 0-11.68 5.23-11.68 11.68s5.23 11.68 11.68 11.68 11.68-5.23 11.68-11.68S31.332 305 24.88 305z" class="E F"/><path d="M21.508 316.1h-5.6c-.185-3.7 1.612-5.55 5.39-5.55h9.9l.176 4.29c1.283-.192 1.925.07 1.925.783s-.6 1.14-1.77 1.278l.343 6.61-10.376.198v-3.494c2.07.01 3.405-.253 4.007-.787s.813-1.643.634-3.33h-4.64z" stroke="#ff243a" stroke-width="1.444" class="U"/><g class="D B"><g stroke="#06f" class="C"><path d="M20.555 315.97c.05 1.066-.2 2.36-1.224 2.94"/><path d="M20.997 315.97c-.244 1.09-.617 1.974-1.397 2.815"/><path d="M21.39 315.97c-.26 1.185-.863 2.326-1.94 2.963"/><path d="M21.86 315.97c-.256.94-1.226 2.872-2.52 3.04"/><path d="M22.304 315.97c-.338 1.218-1.204 3-2.675 3"/><path d="M24.725 319.27c-.365.097-1.41-.874-1.784-1.427-.25-.37-.394-1-.436-1.863"/><path d="M22.862 315.97c.18 1.076.087 2.44 1.043 3.1"/><path d="M23.205 315.94c-.195.537.764 2.9 1.308 2.988"/><path d="M23.453 315.97c.402 1 .62 2.042 1.38 2.81"/><path d="M23.827 315.97c.472 1.1.57 2.177 1.51 2.903"/><path d="M22.597 315.97c.57 1.724.89 2.46 2.594 2.78"/></g><g class="J"><path d="M21.775 310.442c.59-.233 1.156-.55 1.774-.7.087-.02.094.156.112.243.046.22.09.443.077.666-.037.657-.22 1.483-.68 1.997-.6.673-1.205.1-1.362-.61-.16-.722-.087-.786.037-1.44l.042-.156z"/><path d="M26.033 309.79c.226.127.434.295.678.38.382.134.896-.01 1.184.275.224.222.063.63.046.944-.027.49-.2 1.536-.738 1.755-.874.358-1.448-.596-1.483-1.335-.014-.3-.024-.6.02-.896.047-.328.166-.64.25-.96l.046-.162z"/><g class="F"><use xlink:href="#H"/><use xlink:href="#H" x="4.44" y="0.265"/></g></g><g class="C"><g stroke="#06f"><path d="M26.408 309.682c.633-.534 1.216-1.343 1.9-1.6.56-.212-2.054 1.827-1.52 1.457l-.307.43c2.524-1.744 2.066-2.164-.002.43-.42.528.88-.95 1.34-1.357.268-.236 1.085-.862.837-.565-.625.748-1.31 1.315-1.978 1.932-.217.2-.907.643-.673.518.474-.254.94-.56 1.397-.906.478-.36 1.502-2.133 1.403-1.2-.068.636-2.305 1.888-2.63 2.122-.097.07-.365.36-.268.29l1.912-1.487c.228-.16.928-.55.708-.358l-.182.224c-1.852 1.628-3.143 2.526.105.107" transform="matrix(.615661 .788011 -.788011 .615661 254.519564 97.459986)"/><path d="M21.138 308.118c.626.277 2.365 1.004 2.348 1.505-.038 1.138-1.447-1.168-2.1-1.056-.027.005.003.09.028.105l.366.28 1.066.547c.178.102.687.49.518.358-.502-.39-1.924-1.704-1.52-1.137l-.864-.243c.434.607 1.058.877 1.603 1.275 1.95 1.425-1.292-1.25-1.605-.833-.052.07.098.152.162.2l1.35.928c.224.142.915.51.69.365-.4-.262-1.594-1.13-1.25-.723l-.844-.166c.294.347 1.947.923 2.364 1.08" transform="matrix(.71934 -.694658 .694658 .71934 -208.661353 102.266053)"/></g></g></g><use xlink:href="#G" y="148" fill="#cce4ff" class="E"/><path d="M17.605 355.636h14.21l.24.932.118.493.035.186c.053.325.107.857.164 1.596 1.508-.634 2.263-.21 2.263 1.267s-.754 1.98-2.263 1.505v5.663l-15.044.356v-6.02c-1.64.396-2.395-.106-2.263-1.505s.887-1.822 2.263-1.267l.278-3.208zm1.985 1.9c-1.032 3.22-1.125 5.676-.278 7.366.54 1.075 5.1 1.36 8.058 1.07 1.133-.112 2.297-.468 3.493-1.07a14.86 14.86 0 0 0 .238-3.366c-.047-1.15-.22-2.3-.516-3.445-.715-.792-2.46-1.294-5.24-1.505s-4.697.106-5.756.95z" class="F"/><g class="K D C B"><path d="M24.592 357.14l-2.375.24c.56.107 1.062-.077 1.607-.145.157-.02.377-.14.475-.015.08.1-.242.102-.34.187-.23.203-.4.464-.627.67-.146.132-.322.226-.483.338" transform="matrix(.882948 .469472 -.469472 .882948 170.705944 30.891237)"/><path d="M20.46 363.63c.33-1.04 1.035-2.328 1.91-2.14.4.086.384-.092.68-.183.24-.073.22-.262.503-.306.043-.007-.09-.013-.13 0-.103.033-.12.103-.21.16-.154.095-.37.1-.502.223l-2.026 2.016c-.187.202.446-.326.642-.52.346-.34.638-.735.98-1.08.194-.196.4-.384.627-.54.167-.115.336-.122.526-.195.066-.025-.21.01-.15.05.1.07.448-.08.367.014-.6.693-1.735 1.4-2.408 2.132-.107.115-.364.506-.245.403l2.185-2.08a1.19 1.19 0 0 1 .274-.187c.133-.067.434-.307.418-.16-.02.188-.312.22-.44.36-.514.565-.364.652-.91 1.116l-1.276.987c-.07.064-.214.29-.123.26 1.056-.342 2-1.327 2.588-2.225.04-.063-.012-.166.036-.223.058-.068.315-.053.245-.108v-.173c-.04-.03-.09.043-.137.065" transform="matrix(.882948 .469472 -.469472 .882948 172.77723 31.984556)"/><path d="M24.963 361.595c.63.976 1.43 1.952 2.725 2.016.117.006-.17-.166-.267-.23-.345-.227-.74-.38-1.06-.64-.397-.322-1.52-1.343-1.074-1.094.716.398 1.235 1.08 1.903 1.555.237.168.514.28.793.36.156.045-.288-.154-.418-.252l-1.34-1.08c-.312-.273-.552-.458-.804-.787-.137-.178.263.203.45.326.267.175.57.296.83.483.252.18.448.43.7.612.22.16.45.318.707.403.06.02-.013-.134-.05-.187a1.75 1.75 0 0 0-.339-.367l-1.305-.936c-.147-.098-.63-.313-.47-.245l1.14.526c.344.197.655.447.973.684.072.054.144.113.195.187.014.02-.052.006-.072-.007l-.52-.303-.887-.655c-.334-.215-.7-.375-1.038-.583-.054-.033-.367.068-.314.034.142-.093.703.23.8.275.862.395 1.36.373 2.167 1 .098.076.353.185.26.266-.15.13-.44-.105-.59.02-.158.132.878.38-.036.223-.12-.02-.252-.038-.353-.108-2.642-1.83-.888-.924-2.27-1.606" transform="matrix(.945519 -.325568 .325568 .945519 -116.55486 28.479182)"/></g><g class="J B C D"><path d="M23.774 360.388c-.32-.15-.667-.363-1.052-.243-.324.1-.297.765-.285.943.04.64.863.86 1.35.617"/><path d="M25.727 360.71c1.176-1.06 1.403.613.497 1.012-.32.14-.6.078-.933.053"/><path d="M24.356 358.336c.08 1.185.023-.496-.54 2.02-.218.97.586 2.512 1.45 1.388.458-.596.49-1.45.526-2.193.02-.416.126-1.278-.382-1.532-.412-.93-.512-1.222-.3-.88"/></g><path d="M25.69 357.243c.64-.02 1.284.035 1.917-.057.502-.073-1.014-.015-1.52-.001-.18.005-.492-.116-.533.057-.042.18.28.245.44.338.352.205.726.37 1.09.554" transform="matrix(.984808 -.173648 .173648 .984808 -61.699302 10.057225)" class="B C D K"/><path d="M23.36 354.527c.334 0 .674.024 1.018.072l.065.01c.136.02.244.126.267.262.102.62.143 1.25.124 1.894.1.065.208.05.356-.045-.016-.628.026-1.244.125-1.85.022-.132.124-.236.256-.26l.01-.002.065-.01c.345-.048.684-.072 1.018-.072h.08l2.663.107c.142.007.266.097.316.23l.004.01.013.04c.2.594.3 1.257.3 1.99 0 .7-.093 1.31-.28 1.827-.066.184-.237.308-.432.315h-.012l-.19.002c-.376.002-.712.001-1.007-.004l-.17-.003h-2.1c-.227.001-.423-.158-.47-.38l-.002-.012-.01-.06-.128-.96c-.152-.164-.31-.176-.47-.038-.044.397-.1.793-.2 1.188l-.015.067c-.05.21-.232.36-.446.367l-.95.034-1.084.032-.14.003-1.06.003-.096-.001c-.2-.002-.376-.127-.443-.313-.236-.65-.354-1.338-.354-2.066 0-.733.1-1.397.3-1.99l.013-.04c.047-.138.174-.233.32-.24l.45-.022 2.29-.085zm-.397.396l-.063.002-1.672.152-.117.014c-.074.01-.132.068-.14.142l-.01.097c-.145 1.575-.1 2.666.133 3.275.104.27 1.122.3 3.056.12l.017-.147.138-1.945v-.017c-.014-.434-.065-.972-.155-1.613a5.39 5.39 0 0 0-1.191-.079zm3.652 0l-.043-.001c-.416-.012-.65.015-.702.08l-.012.087-.143 1.527-.001.04c-.01.434.04 1.07.146 1.91 2.013.112 3.072.033 3.176-.238.238-.62.245-1.653.022-3.1-.01-.072-.07-.127-.142-.134l-.352-.032-1.948-.14z" class="U"/><path d="M23.227 363.344c.794.647 2.226.162 2.76.215.028.003.024.07 0 .085l-.18.18a1.19 1.19 0 0 1-.386.15c-.208.036-.5-.136-.63.028-.1.123.27.177.368.3.34.43-.605.353-.688.357" class="B C D J"/><use xlink:href="#G" y="192.4" fill="#06f" class="E"/><path d="M20.19 404.006c1.4-1.745 4.03-1.98 6.23-1.892s2.942.61 4.043 2.302.856 3.008.23 4.256c-1.47 2.925-8.4 3.825-10.692 1.074-1.222-1.466-.458-3.8-.103-5.32l.295-.42z" fill="#ff7800"/><g class="B C D S"><path d="M25.237 403.028c.405.988 1.544.326 1.094-.374"/><path d="M24.202 402.178c.794.403 1.306 1.112 1.968 1.727l1.06 1.056c.098.11.288.24.23.373-.052.123-1.298.216-1.407.017-.057-.103-.073-.462-.07-.345.035 1.08.472 2.208.213 3.083-.14.468-2.076.148-1.996.427.168.592.847.638 2.037.14.118.24.05.53.035.796l-.173 1.8"/><path d="M23.248 403.43c-.085.67.833 1.093 1.43.6.4-.33.184-.762.178-1.217"/></g><path d="M23.483 401.07c-.287-.555-.428-1.255-.06-1.836.553-.87 1.728-1.064 2.182-.007.353.82-.5 1.834-.476 1.936.133.58 2.025-1.75 1.66-.503-.455 1.555-3.034 1.818-4.163.946s-.065-.86.623-.538l.234.002z" class="F"/><use xlink:href="#G" y="234.4" class="E V"/><path d="M20.99 442.223l10.267.715c.15.6.223 1.746.218 3.467l.026-.016c.134-.083.244-.136.47-.185l.03-.006c.294-.06.927-.135 1.172-.072.667.173.978 1.02.593 1.588-.486.718-1.495 1.196-2.333.945l-.008.253-.168 3.76c-3.515.503-8.047.503-13.597 0-.183-3.46.903-6.9 3.258-10.345l.072-.104z" fill="#00ffce"/><g class="E F"><path d="M20.316 441.377a.14.14 0 0 1 .138.143v.017l-.004.07-.01.145-.005.063-.01.323c.004.228.04.393.103.475.27.345.73.693 1.186.876.524.21.984.2 1.31-.097a.14.14 0 1 1 .185.212c-.42.367-.988.393-1.602.147-.5-.2-1.003-.58-1.303-.964-.112-.143-.158-.36-.163-.644a4.1 4.1 0 0 1 .013-.379l.013-.164.004-.064.001-.02a.14.14 0 0 1 .143-.138z"/><path d="M21.116 441.456a.14.14 0 0 1 .18.084c.315.87.587 1.268 1.164 1.557l.08.04.122.057c.11.05.21.085.302.11.186.047.314.034.383-.038l.007-.007a.14.14 0 1 1 .214.183c-.153.18-.388.208-.673.135a2.08 2.08 0 0 1-.31-.109l-.037-.016-.194-.093-.018-.01c-.656-.33-.965-.783-1.303-1.713a.14.14 0 0 1 .084-.18z"/><path d="M22.195 441.318a.14.14 0 0 1 .168.106l.015.068c.115.498.212.797.362 1.06.197.346.46.55.827.6a.14.14 0 0 1-.045.278c-.458-.075-.8-.333-1.026-.748-.175-.307-.28-.64-.407-1.206a.14.14 0 0 1 .106-.168z"/><path d="M23.176 441.76l.045-.24a.14.14 0 0 1 .159-.109.14.14 0 0 1 .119.152l-.001.01-.066.367-.028.177-.006.042c-.03.217-.04.383-.025.463.148.844.957 1.38 1.806 1.194a1.44 1.44 0 0 0 .682-.343l.034-.03.346-.308a.14.14 0 1 1 .184.213l-.023.02-.36.32c-.253.213-.475.33-.802.403-1.005.22-1.968-.418-2.144-1.42-.02-.118-.01-.303.024-.55l.027-.18.008-.047.023-.133z"/><path d="M24.022 441.65a.14.14 0 0 1 .141.141l.001.154c.002.12.008.14.032.192l.005.01.332.597.028.053c.437.818.92.9 1.675.352a.14.14 0 0 1 .165.228c-.88.64-1.553.53-2.072-.418l-.067-.123-.32-.58-.008-.02c-.048-.11-.05-.148-.05-.446a.14.14 0 0 1 .141-.141z"/><path d="M24.815 441.65a.14.14 0 0 1 .176.093c.256.827.637 1.267 1.327 1.43a.14.14 0 0 1-.065.274c-.8-.2-1.248-.708-1.53-1.62a.14.14 0 0 1 .093-.176z"/><path d="M26.096 441.565c.078-.001.142.06.143.138v.036l-.003.168-.012.247c-.01.26-.006.39.027.54.14.642.602.998 1.25 1.05a2.31 2.31 0 0 0 1.684-.575.14.14 0 1 1 .193.204 2.59 2.59 0 0 1-1.9.651c-.767-.06-1.335-.5-1.504-1.27-.04-.184-.046-.333-.032-.63l.01-.223.003-.19c-.001-.078.06-.142.138-.143z"/><path d="M27.014 441.526c.078.001.14.065.138.143v.02a1.22 1.22 0 0 1-.014.136l-.005.032c-.022.145-.023.202 0 .253a3.64 3.64 0 0 0 .676 1.013c.34.348.68.5 1 .4.073-.02.13-.055.25-.145l.07-.054.126-.09a.14.14 0 1 1 .15.238l-.022.014-.076.054-.083.063c-.145.1-.224.157-.34.2-.437.122-.87-.07-1.276-.484-.3-.306-.57-.73-.733-1.097-.05-.114-.05-.203-.024-.387l.01-.073.01-.1c.001-.078.065-.14.143-.138z"/><path d="M27.88 441.576a.14.14 0 0 1 .166.11l.06.292.013.06.01.047c.173.758.36.925 1.2 1.007a.14.14 0 0 1-.028.28l-.058-.006c-.91-.1-1.182-.362-1.377-1.214l-.03-.133-.057-.277a.14.14 0 0 1 .11-.166z"/><path d="M29.19 441.636a.14.14 0 0 1 .146.135l.002.068.002.153v.286l.01.45.001.016c.048.776.27 1.185.803 1.24.303.03.607.024 1.066-.016.156-.013.262-.055.4-.143l.018-.012.286-.218a.14.14 0 1 1 .165.227l-.045.034-.237.18-.006.005a1.02 1.02 0 0 1-.547.206l-.082.007c-.43.035-.73.04-1.037.01-.383-.04-.656-.23-.827-.543-.13-.24-.2-.543-.225-.923l-.002-.037-.012-.435v-.364l-.004-.18a.14.14 0 0 1 .135-.146z"/><path d="M29.902 441.62a.14.14 0 0 1 .146.135l.002.052.004.197.002.4c.004.448.02.666.074.916.077.355.227.637.482.875.34.316 1.305-.055 1.324-.48v-.013a.14.14 0 1 1 .281 0c0 .682-1.28 1.18-1.798.698-.3-.28-.476-.613-.565-1.02l-.007-.034c-.056-.27-.07-.5-.074-.995l-.001-.272-.001-.09-.006-.212a.14.14 0 0 1 .135-.146z"/><path d="M30.462 442.295a.14.14 0 0 1 .153-.127.14.14 0 0 1 .127.144l-.001.01c-.025.267.16.935.412 1.385.3.536.594.68.894.38a.14.14 0 1 1 .199.199c-.245.245-.515.302-.775.175-.208-.102-.397-.318-.564-.617-.277-.496-.478-1.218-.447-1.55z"/><path d="M24.265 444.1l.023-.01c.063-.03.107-.038.167-.01.068.032.094.097.087.16-.003.03-.013.057-.028.087a.79.79 0 0 1-.208.236l-.023.02.007.004a.14.14 0 0 1 .059.133l-.001.01c-.002.012-.005.022-.01.03l-.001.002.01-.001.038.003.014.004c.036.01.04.017.086.075l.008.038c.006.027.006.037.001.053l-.002.005.007.003a.14.14 0 0 1 .072.062l.004.008c.032.067.006.147-.058.183l-.395.193-.702.328-.225.1-.055.024c-.408.175-.744.3-.992.365-.152.04-.27.056-.362.045-.147-.017-.246-.115-.224-.265a.52.52 0 0 1 .295-.409l.02-.01.001-.005.014-.043.012-.02c.01-.016.014-.018.026-.028l.015-.01.028-.013c.01-.004.02-.006.048-.01l.05-.008.183-.02.048-.004.016-.002.086-.013.06-.01h-.02c-.295.014-.545-.018-.663-.118l-.01-.008c-.088-.082-.13-.178-.058-.276.044-.06.106-.083.196-.094l.015-.002c.1-.01.203-.007.464.008l.172.01c.203.01.315.012.395.001a1.91 1.91 0 0 0 .425-.129l.015-.006-.04.005-.57.04-.357.015-.33.02a.14.14 0 0 1-.022-.28l.07-.005.213-.012.407-.018c.426-.02.64-.04.894-.087.046-.01.126-.048.236-.114l.033-.02.064-.04.14-.09.03-.02.103-.06zm-1.577 1.622l-.073.003c-.51.023-.705.077-.76.242l-.001.003h.002c.048-.002.118-.013.205-.035l.02-.005a5.1 5.1 0 0 0 .548-.185l.06-.024z"/></g><path d="M22.774 446.033c.654.398.35.78.1 1.607-.28.93-.605-.214-.646-.53-.12-.896.064-1.255.548-1.078z" class="F"/><g class="E F"><path d="M25.18 444.453l.137.012.572.046.044.004c.08.008.114.016.158.037l.007.003.02.01c.055.027.086.04.165.067l.046.015c.192.063.495.146.94.255l.032.008c.074.018.197.034.4.052l.322.03.068.007c.078.01.128.017.163.027.026.008.047.017.07.035.062.052.073.147.013.212-.034.037-.067.048-.132.06-.33.07-.9.075-1.434.025l-.027-.003.001.001.29.18.037.02a1.02 1.02 0 0 0 .205.062l.032.007.233.047.02.004.023.006c.025.007.04.01.057.024l.016.01c.018.014.02.02.047.08l-.002.033c-.005.057-.01.07-.036.095l-.016.014h-.002l.093.023.053.015.003.001a.29.29 0 0 1 .045.021c.035.02.06.044.074.092.006.02.008.04.006.058l-.001.007.004.003.01.01c.065.07.05.178-.03.23-.5.337-1.088.367-1.72.15-.468-.16-.912-.424-1.476-.835a.14.14 0 1 1 .166-.227l.073.053c.508.366.913.602 1.328.743.427.146.814.165 1.165.038l.02-.008-.03-.006-.25-.054-.035-.008-.016-.001c-.292-.028-.5-.058-.703-.11l-.024-.006c-.303-.078-.57-.172-.81-.292a.85.85 0 0 1-.19-.132l-.036-.03-.033-.013-.45-.186-.058-.025a.24.24 0 0 1-.034-.018c-.034-.02-.057-.044-.068-.095s.007-.1.043-.134c.02-.018.04-.027.06-.033s.03-.006.047-.006a.72.72 0 0 1 .123.014l.152.033.007.002v-.001c-.02-.045-.032-.09-.038-.14l-.001-.013c-.007-.075.028-.126.078-.157l.002-.001-.006-.006-.008-.01c-.032-.04-.047-.096-.022-.15l.002-.003h-.005c-.07-.01-.12-.072-.12-.142v-.01a.14.14 0 0 1 .152-.128zm.383.82l.006.005c.145.104.37.207.668.306l.014.005-.033-.014-.056-.025-.063-.028-.536-.248zm.313-.48l.005.002c.116.05.23.116.35.197l.02.014.03.006.525.07.024.002-.136-.036-.4-.115-.05-.016-.038-.013-.138-.05-.012-.005-.04-.018-.017-.008-.03-.015c-.01-.004-.02-.006-.062-.01l-.03-.003z"/><path d="M24.828 445.808a.14.14 0 0 1 .198.015c.048.056.044.14-.008.192l-.007.007c-.03.025-.053.084-.06.16-.03.264-.033.52-.008.76.083.787.747 1.43 1.422 1.24.163-.046.437-.368.705-.822.108-.184.21-.377.285-.546l.016-.036c.068-.155.108-.277.1-.316v-.004a.14.14 0 0 1 .281-.007c.004.164-.187.603-.436 1.03l-.013.022c-.306.518-.6.876-.87.95-.87.245-1.68-.54-1.778-1.482-.028-.262-.024-.537.008-.82a.51.51 0 0 1 .157-.341z"/><path d="M22.56 445.267c.112-.06.227-.01.318.074a.14.14 0 0 1 .006.199.14.14 0 0 1-.192.013l-.024-.02c-.02.02-.034.04-.048.068l-.024.057c-.088.25-.15.498-.178.74-.054.442.1.943.394 1.243a.14.14 0 0 1-.201.197c-.355-.363-.536-.95-.472-1.474.032-.262.097-.53.192-.798.047-.133.12-.24.23-.297z"/><path d="M24.346 445.052a.14.14 0 1 1 .257.114l-.02.044c-.22.5-.465.855-1.015 1.58l-.144.2c-.426.563-.63.863-.822 1.228l-.244.474-.08.158-.11.235a2.91 2.91 0 0 0-.196.54c-.015.07-.02.126-.015.162.001.01.003.017.005.022h0l.016.01c.648.342 1.89-.195 2.35-.923l.014-.022c.13-.213.333-.237.544-.12.07.04.14.09.218.16l.026.024.18.163a2.65 2.65 0 0 1 1.028 1.957c.045.655-.102 1.38-.414 2.215a.14.14 0 1 1-.263-.099c.64-1.71.562-2.95-.494-3.828l-.032-.026c-.036-.03-.185-.168-.196-.178-.074-.066-.134-.112-.188-.142-.088-.05-.123-.047-.162.013l-.005.007c-.234.384-.702.76-1.218.983-.572.248-1.132.283-1.545.05-.15-.085-.174-.256-.124-.487.035-.162.108-.36.215-.597l.094-.2.04-.08.286-.558c.213-.415.43-.733.913-1.368l.146-.192c.52-.69.746-1.034.955-1.507z"/><path d="M23.537 449.668a.14.14 0 0 1 .162.116c.094.562.103 1.096.043 1.695l-.09.68-.015.097-.026.157-.133.777-.044.27a.14.14 0 1 1-.278-.044l.018-.114.026-.16.038-.224.08-.454.035-.21.007-.043.103-.758c.057-.576.048-1.085-.04-1.62a.14.14 0 0 1 .116-.162z"/><path d="M26.07 450.893a.14.14 0 0 1 .136.246l-.067.037c-1.1.593-1.68.62-2.77.1a.14.14 0 1 1 .121-.254l.06.03c.986.46 1.483.417 2.52-.158z"/></g><path d="M24.92 445.874c.654.398 1.052 1.06.802 1.887-.28.93-.95-.335-.993-.65-.178-1.343.14-.408.14-1.07" class="F"/></g><g filter="url(#B)" transform="translate(249 29)"><path d="M0 0h326v417H0z" class="G P"/><g transform="translate(20 21)"><g transform="translate(23)" fill="#000" class="E"><path d="M5.928 9.297V7.692H2.2V.994H.304v8.303h5.624zm3.936.168c.478 0 .91-.08 1.294-.24s.715-.385 1-.677.486-.643.632-1.054.22-.865.22-1.36-.077-.947-.23-1.354-.368-.755-.644-1.042-.605-.51-1-.67-.808-.24-1.27-.24c-.453 0-.873.08-1.257.24s-.717.383-.996.67-.498.635-.656 1.042-.237.86-.237 1.354.077.95.23 1.36.368.763.644 1.054.605.517 1 .677a3.31 3.31 0 0 0 1.282.24zm0-1.534c-.413 0-.733-.162-.96-.485s-.34-.76-.34-1.312.113-.984.34-1.3.547-.473.96-.473.73.158.954.473.334.75.334 1.3-.11.988-.334 1.312-.54.485-.954.485zm7.373 1.534c.478 0 .91-.08 1.294-.24s.715-.385 1-.677.486-.643.632-1.054.22-.865.22-1.36-.077-.947-.23-1.354-.368-.755-.644-1.042-.605-.51-1-.67-.808-.24-1.27-.24c-.453 0-.873.08-1.257.24s-.717.383-.996.67-.498.635-.656 1.042-.237.86-.237 1.354.077.95.23 1.36.368.763.644 1.054.605.517 1 .677a3.31 3.31 0 0 0 1.282.24zm0-1.534c-.413 0-.733-.162-.96-.485s-.34-.76-.34-1.312.113-.984.34-1.3.547-.473.96-.473.73.158.954.473.334.75.334 1.3-.11.988-.334 1.312-.54.485-.954.485zm6.34 1.366V6.542a4.89 4.89 0 0 1 .613.587l.59.725.528.755.443.69h2.077l-.5-.875-.668-.958-.753-.93c-.26-.3-.5-.557-.753-.773l1.342-1.372 1.257-1.396h-2.15l-.407.48-.504.58-.553.617-.553.6V0l-1.8.288v9h1.8zM29.7 2.23c.292 0 .545-.094.76-.282s.322-.445.322-.773S30.674.59 30.46.4 29.992.12 29.7.12s-.545.094-.76.282-.322.445-.322.773.107.585.322.773.468.282.76.282zm.91 7.07V2.995h-1.8v6.302h1.8zm3.51 0V4.433l.39-.042.413-.018c.42 0 .71.12.862.36s.23.647.23 1.222h0v3.343h1.8V5.74c0-.43-.045-.823-.134-1.174s-.24-.655-.45-.91-.496-.453-.856-.593-.812-.2-1.354-.2c-.534 0-1.045.038-1.53.114l-1.2.246v6.086h1.8zm7.604 2.252c1.11 0 1.93-.25 2.46-.75s.796-1.264.796-2.294h0V3.21l-.553-.138-.65-.114-.686-.078-.674-.03c-.5 0-.968.074-1.373.222s-.747.357-1.026.63-.492.597-.638.976-.22.8-.22 1.264c0 .927.235 1.647.705 2.163s1.146.773 2.03.773a3.24 3.24 0 0 0 .674-.066 2.94 2.94 0 0 0 .601-.198h0v.228c0 .35-.107.64-.322.863s-.58.335-1.1.335c-.397 0-.75-.032-1.063-.096a5.36 5.36 0 0 1-.893-.264h0l-.316 1.498a7.35 7.35 0 0 0 1.081.27c.39.068.777.102 1.166.102zm.5-4.1c-.818 0-1.227-.5-1.227-1.498 0-.48.117-.875.352-1.186s.59-.467 1.07-.467l.425.018.316.042V7.2a2 2 0 0 1-.413.168c-.162.048-.336.072-.522.072zM1.08 11.76c.292 0 .545-.094.76-.282s.322-.445.322-.773-.107-.585-.322-.773-.468-.282-.76-.282-.545.094-.76.282-.322.445-.322.773.107.585.322.773.468.282.76.282zm.91 7.07v-6.302h-1.8v6.302h1.8zm3.51 0v-4.864l.39-.042.413-.018c.42 0 .71.12.862.36s.23.647.23 1.222h0v3.343h1.8V15.27c0-.43-.045-.823-.134-1.174s-.24-.655-.45-.91-.496-.453-.856-.593-.812-.2-1.354-.2c-.534 0-1.045.038-1.53.114l-1.2.246v6.086h1.8zm7.81.144c.39 0 .717-.032.984-.096a5.2 5.2 0 0 0 .729-.228h0l-.255-1.4c-.17.064-.358.114-.565.15s-.407.054-.6.054c-.405 0-.674-.112-.808-.335s-.2-.523-.2-.9h0V14.01h2.174v-1.486h-2.174V10.67l-1.8.288v5.296a4.99 4.99 0 0 0 .115 1.114 2.04 2.04 0 0 0 .407.857c.194.236.453.42.777.55s.733.198 1.227.198zm5.527.024c.478 0 .91-.08 1.294-.24s.715-.385 1-.677.486-.643.632-1.054.22-.865.22-1.36-.077-.947-.23-1.354-.368-.755-.644-1.042-.605-.51-1-.67-.808-.24-1.27-.24c-.453 0-.873.08-1.257.24s-.717.383-.996.67-.498.635-.656 1.042-.237.86-.237 1.354.077.95.23 1.36.368.763.644 1.054.605.517 1 .677a3.31 3.31 0 0 0 1.282.24zm0-1.534c-.413 0-.733-.162-.96-.485s-.34-.76-.34-1.312.113-.984.34-1.3.547-.473.96-.473.73.158.954.473.334.75.334 1.3-.11.988-.334 1.312-.54.485-.954.485zm9.912 1.5c.39 0 .717-.032.984-.096a5.2 5.2 0 0 0 .729-.228h0l-.255-1.4c-.17.064-.358.114-.565.15s-.407.054-.6.054c-.405 0-.674-.112-.808-.335s-.2-.523-.2-.9h0V14.01H30.2v-1.486h-2.174V10.67l-1.8.288v5.296a4.99 4.99 0 0 0 .115 1.114 2.04 2.04 0 0 0 .407.857c.194.236.453.42.777.55s.733.198 1.227.198zm4.737-.144v-4.792l.383-.1c.142-.028.294-.042.456-.042.405 0 .682.12.832.36s.225.647.225 1.222h0v3.343h1.8V15.27a5 5 0 0 0-.128-1.174 2.28 2.28 0 0 0-.437-.911c-.207-.256-.482-.453-.826-.593s-.775-.2-1.294-.2c-.178 0-.362.018-.553.054s-.346.074-.468.114h0V9.53l-1.8.288v9h1.8zm8.418.168a6.47 6.47 0 0 0 .68-.036l.638-.1c.198-.036.38-.078.54-.126a2.52 2.52 0 0 0 .389-.144h0l-.243-1.45a3.73 3.73 0 0 1-.783.222 5.3 5.3 0 0 1-.978.09c-.518 0-.93-.108-1.24-.323s-.482-.507-.522-.875h4.106l.024-.33.012-.34c0-1.062-.263-1.867-.8-2.414s-1.243-.82-2.15-.82a3.1 3.1 0 0 0-1.136.216 2.86 2.86 0 0 0-.978.635c-.283.28-.512.63-.686 1.048s-.26.91-.26 1.468c0 .463.067.895.2 1.294s.34.745.62 1.036.632.52 1.057.69.925.252 1.5.252zm.875-3.954H40.4c.024-.152.063-.302.115-.45a1.2 1.2 0 0 1 .225-.389 1.08 1.08 0 0 1 .364-.27c.146-.068.32-.102.522-.102.21 0 .387.036.528.108s.26.164.352.276a1.1 1.1 0 0 1 .207.383 1.82 1.82 0 0 1 .079.443h0zM2.2 28.358v-3.427h3.328v-1.57H2.2v-1.737h3.74v-1.57H.304v8.303H2.2zm7.446.144c.534 0 1.045-.038 1.53-.114l1.2-.246v-6.086h-1.8v4.864l-.39.042-.413.018c-.42 0-.71-.128-.862-.383s-.23-.67-.23-1.246h0v-3.295h-1.8v3.5a4.93 4.93 0 0 0 .134 1.186c.09.36.24.67.45.93s.496.46.856.605.812.216 1.354.216zm6.887 0c.39 0 .717-.032.984-.096a5.2 5.2 0 0 0 .729-.228h0L18 26.79c-.17.064-.358.114-.565.15s-.407.054-.6.054c-.405 0-.674-.112-.808-.335s-.2-.523-.2-.9h0v-2.217H18v-1.486h-2.174V20.2l-1.8.288v5.296a4.99 4.99 0 0 0 .115 1.114 2.04 2.04 0 0 0 .407.857c.194.236.453.42.777.55s.733.198 1.227.198zm5.66 0c.534 0 1.045-.038 1.53-.114l1.2-.246v-6.086h-1.8v4.864l-.39.042-.413.018c-.42 0-.71-.128-.862-.383s-.23-.67-.23-1.246h0v-3.295h-1.8v3.5a4.93 4.93 0 0 0 .134 1.186c.09.36.24.67.45.93s.496.46.856.605.812.216 1.354.216zm6.232-.144v-4.816c.08-.024.2-.046.358-.066s.294-.03.407-.03c.25 0 .486.022.705.066l.57.126.304-1.474c-.097-.04-.215-.074-.352-.102L30.004 22l-.413-.048-.352-.018c-.543 0-1.035.05-1.476.15l-1.148.318v5.967h1.8zm6.268.168a6.47 6.47 0 0 0 .68-.036l.638-.1c.198-.036.38-.078.54-.126a2.52 2.52 0 0 0 .389-.144h0l-.243-1.45a3.73 3.73 0 0 1-.783.222 5.3 5.3 0 0 1-.978.09c-.518 0-.93-.108-1.24-.323s-.482-.507-.522-.875h4.106l.024-.33.012-.34c0-1.062-.263-1.867-.8-2.414s-1.243-.82-2.15-.82a3.1 3.1 0 0 0-1.136.216 2.86 2.86 0 0 0-.978.635c-.283.28-.512.63-.686 1.048s-.26.91-.26 1.468c0 .463.067.895.2 1.294s.34.745.62 1.036.632.52 1.057.69.925.252 1.5.252zm.875-3.954h-2.393c.024-.152.063-.302.115-.45a1.2 1.2 0 0 1 .225-.389 1.08 1.08 0 0 1 .364-.27c.146-.068.32-.102.522-.102.21 0 .387.036.528.108s.26.164.352.276a1.1 1.1 0 0 1 .207.383 1.82 1.82 0 0 1 .079.443h0z"/></g><path d="M9.798 28.614v-9.472H0l.001.113c.087 5.13 4.373 9.274 9.68 9.358l.116.001z" fill="#005b11"/><path d="M9.886 9.47l-.118.001V0h9.797l-.001.113c-.087 5.13-4.372 9.273-9.68 9.358h0z" fill="#00173a"/><path d="M9.68 9.67h.118v9.472H0l.001-.113C.088 13.9 4.373 9.755 9.68 9.67h0z" class="L"/><ellipse fill="#ff7800" transform="matrix(1 0 0 -1 0 47.75607)" cx="14.497" cy="23.878" rx="4.699" ry="4.736"/><g class="N"><path d="M9.883.001L10 0v10H0C0 4.532 4.41.09 9.883.001h0z"/><path d="M136.084 27.65V.624H130V27.65h6.084zm12.246 0V9.945c2.288 2.678 4.446 5.525 6.474 8.54a136 136 0 0 1 5.655 9.165h5.11V.624h-6.045v15.95l-3.003-4.387a138.18 138.18 0 0 0-3.218-4.407c-1.08-1.417-2.14-2.75-3.18-3.997s-1.99-2.3-2.847-3.16h0-4.953V27.65h6.006zm37.362 0a203.25 203.25 0 0 0 3.159-7.059c1.04-2.444 2.028-4.862 2.964-7.254l2.574-6.864 2.067-5.85h-6.474l-1.696 5.05-1.872 5.402-1.872 5.148c-.61 1.638-1.164 3.055-1.658 4.25-.52-1.196-1.08-2.613-1.677-4.25l-1.852-5.148-1.872-5.4-1.696-5.05h-6.708c.572 1.716 1.255 3.666 2.047 5.85l2.594 6.864 2.964 7.254a203.25 203.25 0 0 0 3.159 7.059h5.85zm25.584.546c1.898 0 3.672-.3 5.323-.897s3.075-1.49 4.27-2.672 2.138-2.652 2.827-4.407 1.034-3.8 1.034-6.103-.35-4.348-1.053-6.103-1.664-3.23-2.886-4.426-2.652-2.093-4.3-2.69S213.122 0 211.276 0a14.73 14.73 0 0 0-5.129.897 12.11 12.11 0 0 0-4.29 2.691c-1.235 1.196-2.216 2.672-2.944 4.427s-1.092 3.8-1.092 6.104.35 4.35 1.053 6.103 1.664 3.224 2.886 4.407 2.652 2.074 4.3 2.672 3.38.897 5.226.897zm0-5.343c-1.144 0-2.158-.208-3.042-.624s-1.632-1.008-2.243-1.774-1.08-1.684-1.404-2.75-.488-2.262-.488-3.588c0-1.3.162-2.49.488-3.568s.793-2.002 1.404-2.77a6.41 6.41 0 0 1 2.243-1.794c.884-.43 1.898-.644 3.042-.644 1.118 0 2.125.208 3.022.624a6.17 6.17 0 0 1 2.262 1.775c.61.767 1.08 1.7 1.404 2.77s.488 2.28.488 3.608-.162 2.522-.488 3.588-.793 1.983-1.404 2.75a6.17 6.17 0 0 1-2.262 1.774c-.897.416-1.904.624-3.022.624zm24.61 4.797V.624H229.8V27.65h6.084zm18.564.546c2.054 0 3.86-.208 5.42-.624s2.77-.884 3.627-1.404h0l-1.677-4.875-1.13.507a9.83 9.83 0 0 1-1.443.488c-.546.143-1.17.267-1.872.37a16.35 16.35 0 0 1-2.379.156c-1.404 0-2.6-.228-3.588-.683s-1.788-1.073-2.4-1.852-1.053-1.7-1.326-2.79-.4-2.242-.4-3.5c0-1.56.208-2.886.624-3.978s.97-1.982 1.657-2.67 1.482-1.19 2.38-1.5 1.814-.468 2.75-.468c1.404 0 2.66.156 3.764.468s2.073.69 2.905 1.13h0l1.755-4.914c-.208-.13-.546-.312-1.014-.546s-1.053-.46-1.755-.682-1.52-.416-2.457-.585S255.905 0 254.76 0c-1.976 0-3.81.312-5.5.936s-3.146 1.54-4.368 2.75-2.184 2.69-2.886 4.446-1.053 3.75-1.053 5.986c0 4.498 1.15 7.97 3.45 10.413s5.65 3.666 10.043 3.666zm32.097-.546v-5.11H273.48V16.03h10.803v-4.992H273.48V5.733h12.168V.624h-18.252V27.65h19.15z" class="E"/></g></g><rect x="22" y="95" width="57" height="6" rx="3" class="N"/><g class="O"><rect x="21" y="129" width="56" height="7" rx="3.5"/><rect x="99" y="118" width="56" height="6" rx="3"/><rect x="87" y="233" width="129" height="6" rx="3"/><rect x="199" y="288" width="50" height="6" rx="3"/></g><rect x="275" y="233" width="16" height="6" rx="3" class="W"/><g class="O"><rect x="87" y="243" width="73" height="6" rx="3"/><rect x="199" y="298" width="50" height="6" rx="3"/><rect x="99" y="129" width="56" height="7" rx="3.5"/></g><rect x="208" y="390" width="44" height="16" rx="6.318" class="M"/><g transform="translate(231 395)" class="E"><g filter="url(#C)" transform="translate(3.159 2.106)"><path fill="#231d1e" d="M0 7.37h1.053V6.318H3.16V7.37h1.053V1.053h1.053V0H7.37v1.053h1.053v3.16h4.212v1.053h2.106v1.053h1.053v5.265h-1.053v2.106H13.69v3.16h-2.106v-1.053H10.53v1.053H5.265v-2.106H4.212V13.69H3.16v-1.053H2.106V10.53H1.053V9.477H0z"/><path d="M1.053 7.37H3.16v1.053h1.053v1.053h1.053V1.053H7.37V7.37h1.053V5.265h2.106V7.37h1.053V5.265h1.053V7.37h1.053V6.318h1.053v5.265H13.69v2.106h-1.053v2.106h-1.053v-1.053H10.53v1.053H6.318v-1.053H5.265V13.69H4.212v-1.053H3.16V10.53H2.106V9.477H1.053z" class="G"/><g fill="#231d1e"><path d="M7.37 9.477h1.053v4.212H7.37z"/><path d="M9.477 9.477h1.053v4.212H9.477z"/><path d="M11.583 9.477h1.053v4.212h-1.053z"/></g></g></g><rect fill="#ffa300" x="256" y="390" width="44" height="16" rx="6.318"/><rect x="22" y="84" width="66" height="7" rx="3.5" class="V"/><g class="O"><rect x="22" y="118" width="65" height="6" rx="3"/><rect x="99" y="95" width="65" height="6" rx="3"/><rect x="87" y="180" width="88" height="6" rx="3"/><rect x="87" y="214" width="52" height="6" rx="3"/></g><g transform="translate(22 170)" class="N"><path d="M11.967 6.634l-1.143 1.143L7.46 4.414 8.604 3.27a.76.76 0 0 1 1.077 0l2.286 2.286a.76.76 0 0 1 0 1.077h0zm-5.333 5.333a.76.76 0 0 1-1.077 0L3.27 9.682a.76.76 0 0 1 0-1.077l3.43-3.43 3.363 3.363-3.43 3.43zm8.38-7.62a.76.76 0 0 0 0-1.077L11.967.223a.76.76 0 0 0-1.077 0c-.436.436-1.534.436-1.97 0a.76.76 0 0 0-1.077 0l-7.62 7.62a.76.76 0 0 0 0 1.077c.46.46.46 1.5 0 1.97a.76.76 0 0 0 0 1.077l3.048 3.048a.76.76 0 0 0 1.077 0c.436-.436 1.534-.436 1.97 0a.76.76 0 0 0 1.077 0l7.62-7.62a.76.76 0 0 0 0-1.077c-.46-.46-.46-1.5 0-1.97h0z"/><path d="M11.967 40.634l-1.143 1.143-3.363-3.363 1.143-1.143a.76.76 0 0 1 1.077 0l2.286 2.286a.76.76 0 0 1 0 1.077h0zm-5.333 5.333a.76.76 0 0 1-1.077 0L3.27 43.682a.76.76 0 0 1 0-1.077l3.43-3.43 3.363 3.363-3.43 3.43zm8.38-7.62a.76.76 0 0 0 0-1.077l-3.048-3.048a.76.76 0 0 0-1.077 0c-.436.436-1.534.436-1.97 0a.76.76 0 0 0-1.077 0l-7.62 7.62a.76.76 0 0 0 0 1.077c.46.46.46 1.5 0 1.97a.76.76 0 0 0 0 1.077l3.048 3.048a.76.76 0 0 0 1.077 0c.436-.436 1.534-.436 1.97 0a.76.76 0 0 0 1.077 0l7.62-7.62a.76.76 0 0 0 0-1.077c-.46-.46-.46-1.5 0-1.97h0z"/></g><rect x="275" y="298" width="16" height="6" rx="3" class="W"/><rect x="275" y="308" width="25" height="8" rx="4" class="L"/><g class="O"><rect x="99" y="84" width="65" height="6" rx="3"/><rect x="87" y="170" width="116" height="6" rx="3"/><rect x="87" y="204" width="97" height="6" rx="3"/></g><g class="W"><rect x="275" y="170" width="19" height="6" rx="3"/><rect x="275" y="204" width="19" height="6" rx="3"/><rect x="275" y="288" width="19" height="6" rx="3"/></g><g class="B P X Y"><path d="M22 68.5h283"/><path d="M22 152.5h283"/><path d="M22 272.5h283"/><path d="M22 332.5h283"/></g></g><g filter="url(#D)" transform="translate(184 348)"><path d="M0 .164h259v211H0z" class="G P"/><g class="E I"><path d="M48.742 57.507v-2.875c1.44-.215 2.476-.7 3.105-1.426s.943-1.6.943-2.622c0-.675-.12-1.257-.356-1.748a3.97 3.97 0 0 0-.977-1.276c-.414-.36-.9-.675-1.46-.943l-1.782-.77-1.196-.448c-.353-.146-.652-.3-.897-.46s-.43-.345-.552-.552-.184-.464-.184-.77c0-.52.207-.93.62-1.23s1.035-.45 1.863-.45c.782 0 1.476.077 2.08.23l1.575.483.575-2.277c-.337-.138-.797-.28-1.38-.425s-1.242-.25-1.978-.3h0v-2.484H46.35v2.576c-1.303.215-2.27.694-2.898 1.438s-.943 1.645-.943 2.703c0 .644.115 1.188.345 1.633a3.66 3.66 0 0 0 .909 1.139 5.6 5.6 0 0 0 1.265.794l1.414.575 1.392.53a6.3 6.3 0 0 1 1.093.552c.307.2.544.43.713.7s.253.567.253.92c0 .52-.203.94-.6 1.254s-1.14.47-2.197.47c-.89 0-1.683-.1-2.38-.3s-1.292-.422-1.782-.667h0l-.782 2.185c.337.184.847.387 1.53.61s1.576.372 2.68.45h0v2.806h2.392z"/><path d="M103.742 73.507v-2.875c1.44-.215 2.476-.7 3.105-1.426s.943-1.6.943-2.622c0-.675-.12-1.257-.357-1.748a3.97 3.97 0 0 0-.977-1.276c-.414-.36-.9-.675-1.46-.943l-1.783-.77-1.196-.448c-.353-.146-.652-.3-.897-.46s-.43-.345-.552-.552-.184-.464-.184-.77c0-.52.207-.93.62-1.23s1.035-.45 1.863-.45c.782 0 1.476.077 2.082.23l1.576.483.575-2.277c-.337-.138-.797-.28-1.38-.425s-1.242-.25-1.978-.3h0v-2.484h-2.392v2.576c-1.303.215-2.27.694-2.898 1.438s-.943 1.645-.943 2.703c0 .644.115 1.188.345 1.633a3.66 3.66 0 0 0 .909 1.139 5.6 5.6 0 0 0 1.265.794l1.414.575 1.392.53a6.3 6.3 0 0 1 1.093.552c.307.2.544.43.713.7s.253.567.253.92c0 .52-.203.94-.61 1.254s-1.138.472-2.197.472c-.89 0-1.683-.1-2.38-.3s-1.292-.422-1.782-.667h0l-.782 2.185c.337.184.847.387 1.53.61s1.575.372 2.68.448h0v2.806h2.392z"/><use xlink:href="#I"/><use xlink:href="#I" x="55" y="-3"/></g><path d="M296.094 83.735V82.36c.69-.103 1.184-.33 1.485-.682s.45-.77.45-1.254a1.9 1.9 0 0 0-.638-1.447c-.198-.172-.43-.323-.7-.45l-.852-.368-.572-.215a2.58 2.58 0 0 1-.429-.22c-.117-.077-.205-.165-.264-.264s-.088-.222-.088-.37c0-.25.1-.445.297-.588s.495-.215.89-.215c.374 0 .706.037.995.1l.754.23.275-1.09c-.16-.066-.38-.134-.66-.204a5.96 5.96 0 0 0-.946-.148h0V74h-1.144v1.232c-.623.103-1.085.332-1.386.688s-.45.787-.45 1.293c0 .308.055.568.165.78a1.75 1.75 0 0 0 .434.544 2.68 2.68 0 0 0 .605.38l.677.275.665.253c.202.08.376.17.523.264a1.13 1.13 0 0 1 .341.33c.08.125.12.27.12.44a.72.72 0 0 1-.291.6c-.194.15-.545.225-1.05.225-.425 0-.805-.048-1.14-.143a4.98 4.98 0 0 1-.853-.319h0l-.374 1.045c.16.088.405.185.73.29s.754.178 1.28.215h0v1.342h1.144z" class="E G"/><path d="M12 173l235.5.5" class="B P X Y"/><g class="O"><rect x="33" y="178" width="29" height="6" rx="3"/><rect x="88" y="178" width="29" height="6" rx="3"/><rect x="143" y="178" width="29" height="6" rx="3"/><rect x="198" y="178" width="29" height="6" rx="3"/></g><g transform="translate(29 65)"><path d="M0 48h37v59H0z" class="M"/><path d="M0 11h37v37H0z" class="H"/><path d="M0 0h37v11H0z" class="L"/></g><g transform="translate(84 83)"><path d="M0 41h37v48H0z" class="M"/><path d="M0 9h37v32H0z" class="H"/><path d="M0 0h37v9H0z" class="L"/></g><g transform="translate(139 77)"><path d="M0 26h37v69H0z" class="M"/><path d="M0 10h37v29H0z" class="H"/><path d="M0 0h37v10H0z" class="L"/></g><g transform="translate(194 73)"><path d="M0 61h37v38H0z" class="M"/><path d="M0 10h37v51H0z" class="H"/><path d="M0 0h37v10H0z" class="L"/></g><rect x="11.763" y="17.897" width="77.652" height="8.099" rx="3.159" class="V"/><rect x="184" y="195" width="66" height="9" rx="3.159" class="N"/></g><path d="M288.3 268.72l-3.912 2.42-3.246-5.017c-.035-.054-.094-.08-.138-.124l.9-.93a.49.49 0 0 0 0-.68l-1.21-1.246a.46.46 0 0 0-.662 0l-1.21 1.246a.49.49 0 0 0 0 .68l.9.93c-.045.044-.103.07-.138.124l-3.247 5.017-3.912-2.42c-.324-.2-.735-.18-1.04.052a.98.98 0 0 0-.35 1.008l1.87 7.71c.104.428.48.73.908.73H286.9c.43 0 .804-.302.908-.73l1.87-7.71a.98.98 0 0 0-.35-1.008c-.305-.233-.714-.252-1.04-.052z" class="N"/></g></svg>