<svg xmlns="http://www.w3.org/2000/svg" xmlns:xlink="http://www.w3.org/1999/xlink" width="1347" height="1195" xmlns:v="https://vecta.io/nano"><style><![CDATA[.B{stroke-width:5.322}.C{stroke-linejoin:round}.D{fill:#001c6c}.E{stroke-linecap:round}.F{stroke:#14591d}.G{fill:#42be65}.H{fill:#011638}.I{stroke:#ffc415}.J{fill-rule:nonzero}.K{stroke-width:6.813}.L{stroke-width:4.258}]]></style><defs><path id="A" d="M0 375l370-4.813V0L0 19.542z"/><path id="B" d="M0 331l292-3.798V0L0 15.42z"/><path d="M52.545 13.286C60.852 27.87 4.062 27.423.244 16.65c-3.776-10.656 37.34-29.624 52.3-3.364z" id="C"/><path id="D" d="M600.758 593.54l-.018-.105.007.014 4.23 6.904c1.497 2.27 7.46 7.06 11.63 10.65h-10.34c-1.283-1.548-3.246-3.156-3.745-4.88-1.174-4.06-1.13-8.4-1.765-12.58z"/><path id="E" d="M625.594 584.9c.343-1.05-1.076-4.68-4.256-10.9l18.98 19.11c3.926 4.24 7.038 12.182 10.548 17.9l-7.953.001-.796-.326c-12.897-5.38-20.507-13.592-16.524-25.786z"/><path id="F" d="M82.446 26.024c-.497 7.91 7.22 9.924 9.36 2.643 1.632-5.555-7.264-6.082-10.068-2.643"/><path id="G" d="M210.71 375c-2.878-4.813-8.03-8.863-8.634-14.44-1.89-17.45 23.788-21.1 14.442-28.725-4.352-3.555-17.423-3.032-11.146-13.81 1.402-2.407 5.024-2.41 7.537-3.613"/></defs><g transform="translate(4)" fill="none" fill-rule="evenodd"><path d="M587 602l.256.49L592 611h-3.39c-.324-2.73-.848-5.666-1.49-8.48L587 602zm-3-41l.75.723c5.924 5.738 10.1 10.315 12.528 13.73l.153.222c2.332 3.49 5.388 12.727 9.167 27.715l2.047-6.654c3.386-10.952.596-12.627 1.987-16.527.647-1.815 2.86-6.5 6.638-14.056.976 13.216.974 23.255-.008 30.12-.886 6.192-3.244 11.84-4.51 14.725h-15.323c1.993-4.376 2.982-11.553 1.806-15.012l-.23-.668c-2.78-8.006-7.78-19.446-15.004-34.32zm57.24 21.455c-3.828 7.234-2.903 22.668-7.8 28.545h-5.68c-.37-1.093-2.98-2.508-2.865-4.116l.027-.348-.016.053c-.422 1.413-4.036 2.883-4.455 4.41H618l.764-.254c2.33-.787 4.345-1.595 4.378-2.13.645-10.743-.267-21.53.08-32.288l.043-1.146c.13-3.04.968-8.868 2.514-17.484.306 7.162-.153 13.833.215 17.636.402 4.145 1.628 8.185 1.957 12.337.226 2.842 2.055-6.456 9.787-15.804 4.33-5.237 13.718-9.237 17.94-14.168L659 555c-8.74 12.45-14.66 21.6-17.76 27.455zm-61.21 2.326c3.195 6.384 5.053 10.436 5.573 12.155.5 1.62.956 3.393 1.377 5.23l.02.085-3.127 5.75c-3.84-7.285-5.798-15.294-5.873-24.03l.112-3.97c.384 1.692 1.024 3.285 1.92 4.78z" class="B F G"/><path d="M621.18 499h19.26l.484 13.307c.086 2.666.444 25.06 1.073 67.178L641.195 611h-20.39L620 543.467 621.18 499z" class="H"/><path d="M620.19 499h13.242l.488 13.307c.087 2.666.447 25.06 1.08 67.178L634.2 611H619.8l-.8-67.533L620.19 499z" class="D"/><g class="B F G"><use xlink:href="#D"/><use xlink:href="#E"/><path d="M1082.512 597.58l.396.73c2.4 4.378 4.836 8.658 7.353 12.693l-5.255-.002c-.503-4.07-1.315-8.45-2.307-12.646l-.187-.775zm-5.002-61.282l1.13 1.08c8.923 8.573 15.214 15.41 18.872 20.515l.23.33c3.513 5.212 8.116 19.015 13.81 41.41l3.084-9.94c5.1-16.363.898-18.866 2.993-24.693.975-2.712 4.308-9.712 10-21 1.47 19.745 1.467 34.745-.013 45-1.335 9.252-4.887 17.69-6.795 22l-23.083.001c3.003-6.538 4.492-17.26 2.72-22.43l-.346-1c-4.188-11.962-11.722-29.054-22.6-51.276zm86.388 32.395c-5.762 10.722-4.37 33.597-11.724 42.31l-8.547-.002c-.56-1.62-4.484-3.717-4.312-6.1l.04-.515-.023.078c-.636 2.094-6.075 4.273-6.705 6.538h-3.71l1.15-.376c3.505-1.166 6.54-2.364 6.59-3.156.97-15.922-.402-31.913.122-47.856l.065-1.7c.196-4.507 1.457-13.145 3.784-25.914.46 10.615-.23 20.502.324 26.14.605 6.144 2.45 12.132 2.946 18.285.34 4.212 3.093-9.57 14.73-23.425 6.52-7.762 20.647-13.692 27-21l5-4c-13.156 18.452-22.066 32.016-26.728 40.693zM1071.627 572c4.99 9.348 7.893 15.28 8.705 17.798.765 2.37 1.493 4.968 2.15 7.657l.03.125-4.885 8.42c-6-10.667-9.058-22.395-9.174-35.186l.174-5.814c.6 2.477 1.6 4.8 3 7z"/></g><path d="M1095.44 499h19.26l.484 13.307c.086 2.666.444 25.06 1.073 67.178l-.804 31.515h-20.39l-.804-67.533 1.18-44.467z" class="H"/><path d="M1094.448 499h13.242l.488 13.307c.087 2.666.447 25.06 1.08 67.178l-.8 31.515h-14.38l-.8-67.533 1.19-44.467z" class="D"/><g class="B F G"><use xlink:href="#D" x="467"/><use xlink:href="#E" x="467"/><path d="M734 568l.256.435L739 576h-3.39c-.324-2.426-.848-5.037-1.49-7.537L734 568zm-3-38l.705.68c5.575 5.394 9.506 9.696 11.79 12.907l.144.208c2.195 3.28 5.07 11.963 8.628 26.053l1.927-6.254c3.187-10.295.56-11.87 1.87-15.536.61-1.706 2.692-6.1 6.248-13.212.92 12.423.916 21.86-.008 28.312-.834 5.82-3.053 11.13-4.245 13.842h-14.422c1.876-4.113 2.806-10.86 1.7-14.11l-.216-.628c-2.617-7.526-7.324-18.28-14.12-32.26zm53.54 20.494c-3.548 6.718-2.7 21.048-7.22 26.506h-5.263c-.344-1.015-2.76-2.328-2.656-3.822l.025-.323-.014.05c-.39 1.312-3.74 2.677-4.13 4.096H763l.708-.236c2.158-.73 4.027-1.48 4.057-1.977.598-9.975-.248-19.993.075-29.98l.04-1.064c.12-2.823.897-8.235 2.33-16.235.284 6.65-.142 12.845.2 16.376.373 3.85 1.51 7.6 1.814 11.456.21 2.64 1.904-5.995 9.07-14.675 4.014-4.863 12.714-8.578 16.626-13.156L801 525c-8.1 11.56-13.588 20.058-16.46 25.494zm-57.51 1.945c3.195 5.928 5.053 9.7 5.573 11.286.5 1.504.956 3.15 1.377 4.856l.02.08-3.127 5.34c-3.84-6.764-5.798-14.202-5.873-22.313l.112-3.687a14.48 14.48 0 0 0 1.92 4.439z"/></g><path d="M714.073 333h17.5l.44 29.465.976 148.75-.73 69.784H713.73L713 431.463 714.073 333z" class="H"/><path d="M713.114 333h12.415l.457 29.465L727 511.216 726.24 581h-13.48L712 431.463 713.114 333z" class="D"/><g class="B F G"><use xlink:href="#D" x="93" y="-30"/><use xlink:href="#E" x="93" y="-30"/></g><path d="M728.204 269.196a149.16 149.16 0 0 1-5.133-17.432c-1.39-6.084-2.405-12.264-3.075-18.47-.698-6.466-.91-12.982-1.023-19.484-.227-13-.543-25.995 0-38.976.255-6.088.997-12.19 2.39-18.123 2.606-11.096 6.088-21.975 9.576-32.827 1.645-5.117 3.617-10.135 5.81-15.042 4.077-9.12 8.43-18.12 12.99-27.01 2.17-4.228 4.656-8.3 7.185-12.313 2.49-3.96 5.084-7.86 7.862-11.622 2.696-3.65 5.44-7.3 8.546-10.6 5.682-6.052 11.607-11.886 17.777-17.44 2.965-2.67 6.222-5.02 9.576-7.18 3.388-2.18 7.04-3.92 10.598-5.81 3.736-1.986 7.423-4.083 11.282-5.818 4.014-1.804 8.113-3.442 12.305-4.78 4.03-1.287 8.17-2.218 12.312-3.082 4.07-.85 8.153-1.828 12.305-2.052 12.75-.69 25.574-1.756 38.297-.684 10.445.88 20.63 3.833 30.766 6.502 11.54 3.038 22.987 6.5 34.193 10.6 10.934 4 21.75 8.42 32.14 13.674 9.714 4.912 18.856 10.895 28.03 16.755 4.4 2.8 8.574 5.97 12.65 9.23 3.9 3.128 7.713 6.404 11.282 9.915 3.508 3.45 6.82 7.112 9.914 10.938 3.184 3.936 6.07 8.11 8.892 12.313 2.995 4.463 6.007 8.937 8.546 13.674 5.106 9.523 9.993 19.18 14.364 29.06 6.12 13.84 11.704 27.917 17.093 42.057 3.388 8.9 6.538 17.884 9.23 27.01 3.466 11.746 6.343 23.66 9.23 35.563.875 3.605 1.57 7.26 2.052 10.938 1 7.613 2.037 15.24 2.39 22.912 1.128 24.487 1.552 49.002 2.052 73.51.184 9-16.523 14.862 0-15.042 13.415-24.28 29.423-55.305 56.074-68.382 9.335-4.58 19.684-7.044 30.09-7.186 37.758-.514 58.296.386 90.944 20.52 16.95 10.453 32.828 24.765 33.847 45.81 2.316 47.796 2.46 8.744-4.443 34.195-9.653 35.592 22.898-58.275-13.334 17.094-2.387 4.965-846.533 7.906-857.826 0-30.474-21.335-36.504-34.066-37.267-69.066-.34-15.537-3.72-27.087 8.208-37.27 12.863-10.98 29.904-15.97 46.16-19.146 43.727-8.543 101.953-1.958 143.597 13.335 29.242 10.74 109.5 55.93 123.308 84.935 17.596 36.935-17.435-63.72-21.766-75.704z" fill="#fff"/><path d="M1211 568l-.256.435L1206 576h3.39c.324-2.426.848-5.037 1.49-7.537l.12-.462zm3-38l-.705.68c-5.575 5.394-9.506 9.696-11.79 12.907l-.144.208c-2.195 3.28-5.07 11.963-8.628 26.053l-1.927-6.254c-3.187-10.295-.56-11.87-1.87-15.536-.61-1.706-2.692-6.1-6.248-13.212-.92 12.423-.916 21.86.008 28.312.834 5.82 3.053 11.13 4.245 13.842h14.422c-1.876-4.113-2.806-10.86-1.7-14.11l.216-.628c2.617-7.526 7.324-18.28 14.12-32.26zm-53.54 20.494c3.548 6.718 2.7 21.048 7.22 26.506h5.263c.344-1.015 2.76-2.328 2.656-3.822l-.025-.323.014.05c.39 1.312 3.74 2.677 4.13 4.096H1182l-.708-.236c-2.158-.73-4.027-1.48-4.057-1.977-.598-9.975.248-19.993-.075-29.98l-.04-1.064c-.12-2.823-.897-8.235-2.33-16.235-.284 6.65.142 12.845-.2 16.376-.373 3.85-1.51 7.6-1.814 11.456-.21 2.64-1.904-5.995-9.07-14.675-4.014-4.863-12.714-8.578-16.626-13.156L1144 525c8.1 11.56 13.588 20.058 16.46 25.494zm57.51 1.945c-3.195 5.928-5.053 9.7-5.573 11.286-.5 1.504-.956 3.15-1.377 4.856l-.02.08 3.127 5.34c3.84-6.764 5.798-14.202 5.873-22.313l-.112-3.687a14.48 14.48 0 0 1-1.92 4.439z" class="B F G"/><path d="M1162.386 331h18.386l.462 29.703 1.025 149.95-.768 70.346h-19.464l-.768-150.743 1.127-99.257z" class="H"/><path d="M1162.374 331h12.415l.457 29.703 1.013 149.95-.76 70.346h-13.48l-.76-150.743 1.115-99.257z" class="D"/><g class="B F G"><use xlink:href="#D" x="552" y="-30"/><use xlink:href="#E" x="552" y="-30"/></g><g transform="translate(0 146)" class="B C"><g fill="#fb3640" stroke="#000"><path d="M382.337 155.747c-18.067 37.06-27.452 61.972-28.156 74.733-.033.6-1.03 0-1.543 0l151.54.267 30.46-75h-152.3z"/><path d="M382.638 158.747l55 35 94-35" class="E"/></g><path d="M.018 17.566c3.9 7.823 88.3 73.7 128.5 65.926 8.077-1.56 95.128 30.108 86.54-33.457S105.288-22.3 140.276 59.11c20.976 48.8 150.215 109.82 196.67 67.36" transform="matrix(-.866025 -.5 -.5 .866025 362.675281 168.695209)" stroke="#001c6c" stroke-dasharray="20" class="E"/></g><g stroke="#000" fill="#fb3640" class="B C"><path d="M646 499h608c9.4 0 17-7.6 17-17v-13H666c-11.046 0-20 8.954-20 20v10zm0-46h625v-30H646zm0-46h625v-30H646zm0-46h625v-13c0-9.4-7.6-17-17-17H666c-11.046 0-20 8.954-20 20v10z"/><path d="M612 514h608c9.39 0 17-7.61 17-17v-13H632c-11.046 0-20 8.954-20 20v10z"/><path d="M573 529h608c9.39 0 17-7.61 17-17v-13H593c-11.046 0-20 8.954-20 20v10z"/></g><g transform="translate(539 124)"><mask id="H" fill="#fff"><use xlink:href="#A"/></mask><g mask="url(#H)"><g transform="matrix(-1 0 0 1 348 46)"><g transform="translate(0 97.96)"><path d="M23.487 52.29C61.772 4.463 133.762-1.972 193.93.428s80.506 16.745 110.64 63.076 23.414 82.443 6.255 116.65C270.618 260.312 80.98 285 18.24 209.59-15.198 169.4 5.712 105.17 15.413 63.816l8.074-11.525z" fill="#ff8100"/><g stroke-width="8.935" class="C E I"><path d="M197.678 37.423c11.075 27.076 42.24 8.943 29.933-10.243M153.166 6.702c21.715 11.034 35.75 30.482 53.842 47.328 10 9.32 19.9 18.813 29.04 28.95 2.7 2.98 7.873 6.54 6.3 10.217-1.434 3.376-35.5 5.93-38.504.463-1.55-2.826-1.998-12.65-1.894-9.444.958 29.595 12.917 60.5 5.835 84.496-3.8 12.84-56.8 4.057-54.634 11.705 4.6 16.214 23.172 17.48 55.74 3.8 3.217 6.564 1.335 14.556.947 21.83-.876 16.407-3.155 32.713-4.732 49.07"/><path d="M139.808 44.092c-2.327 18.35 22.782 29.947 39.096 16.43 10.963-9.082 5.042-20.872 4.865-33.342"/></g></g><path d="M203.34 58.72c-12.39 42.372-82.532 49.547-113.257 25.783s-1.768-23.474 16.945-14.67l.292.004c14.385 10.54 32.78 12.208 55.183 5.006.512-.118 1.062-.3 1.644-.534l.097-.04 2.18-.76-.177-.197c15.09-8.103 44.854-41.126 37.094-14.59zm-32.208-39.056c8.303 19.34-7.93 42.626-12.052 50.362-13.133 3.097-29.227 1.22-48.278-5.63-5.945-14.08-7.884-30.58.96-44.54 15.04-23.736 47-29.005 59.37-.19z" class="D"/></g></g></g><path d="M843.382 1010.843c.544 3.833 1.017 9.454 1.452 15.62-12.24.813-24.63.49-37.012-.4 6.96-23.214 10.734-44.6 14.878-73.652.808-5.662 1.337-11.37 1.8-17.09l5.352-.26a23.87 23.87 0 0 0 1.285-.094c3.378 25.386 8.65 50.502 12.247 75.862zM843 931.648c.707 3.076 1.37 6.19 1.987 9.333l.294 1.514.234.422.137.243 1.907 1.72c15.176 13.602 31.053 26.414 46.93 39.2l2.507 2.02c2.647 2.132 5.56 4.003 8.677 5.356 6.406 2.78 13.033 5.015 19.6 7.396-7.284 4.374-15.285 8.436-24.193 13.01-4.758 2.442-9.586 4.526-14.475 6.294-4.494-6.696-9.078-13.342-13.1-20.322-4.94-8.575-8.794-17.752-13.295-26.564l-.617-1.193.8 1.935c3.55 8.702 6.655 17.596 10.382 26.223l.945 2.15c2.486 5.556 5.347 10.973 8.677 16.07l2.082 3.115c-10.054 3.256-20.345 5.242-30.768 6.32.685-24.142-.85-50.372-4.97-75.213l-.262-1.557-.992-1.4-9.86-13.54.945-.248c2.715 3.082 5.56 6.043 8.597 8.797h0l.19.17-.058-.31-.018-.1-.635-1.146c-1.553-2.826-3.043-5.684-4.39-8.61.777-.284 1.56-.592 2.347-.92zM816.61 935.7c-.29 8.155-.818 16.077-2.846 25.65l-4.714 22.18-.307 1.672-6.2 33.29c-.526 2.798-1.012 5.116-1.46 7.05l-1.116-.098-.006.032 9.1-41.946.5-2.705c14.87-80.97-4.287 12.227-10.364 44.563l.003-.012c-8.925-.8-17.826-1.823-26.64-2.85 1.266-2.09 2.502-4.195 3.693-6.327 9.5-17.006 18.517-34.288 27.063-51.79 1.77-3.624 2.804-7.576 3.828-11.476 1.49-5.676 3.15-11.34 4.36-17.083l5.082-.147zm-11.847.124l-.267.796c-16.118 48.39-2.922 26.504-32.532 85.83l-10.02-1.154-7.992-5.99 19.48-33.295c3.36-5.75 6.645-11.564 9.446-17.606 4.463-9.626 8.216-19.57 12.413-29.315 3.15.417 6.29.64 9.472.73zm-19.176-2.666l-1.3 3.038-19.528 47.602c-3.5 7.934-7.528 15.635-11.742 23.215l-3.016 5.33-1.323-1c-3.618-.786-7.965-2.267-12.684-4.226 11.066-14.4 21.847-29.03 31.318-44.502 5.93-9.687 10.87-19.913 15.602-30.255a70.41 70.41 0 0 0 2.682.789zm-10.816-4.043l-.42.707-3.22 5.252c-4.82 7.67-10.594 14.717-15.317 22.446-7.03 11.505-12.728 23.797-19.913 35.206-2.36 3.745-4.79 7.442-7.267 11.1-9.918-4.728-20.588-10.906-29.224-16.842 16.427-10.98 31.546-23.952 44.152-37.893 7.82-8.647 15.158-17.707 22.452-26.808 2.485 2.696 5.378 5.014 8.757 6.82zm85.244-7.458c4.468 2.853 8.83 5.898 13.235 8.823 4.848 3.22 9.022 7.368 13.784 10.713 6.99 4.9 14.17 9.555 21.445 14.033 4.475 2.754 8.995 5.487 13.784 7.65 7.66 3.46 15.448 6.73 23.488 9.187l8.006 2.34a89.96 89.96 0 0 1-14.609 14.871c-21.676-17.153-44.202-33.24-65.9-50.374-5.863-4.63-11.52-9.52-17.067-14.526a93.63 93.63 0 0 0 3.225-2.267zm-14.66 21.237l.245 1.3.878 4.922.26.37c2.913 4.132 5.74 8.32 8.384 12.63 1.523 2.48 2.936 5.023 4.284 7.6l.185.358-.098-.236a182.65 182.65 0 0 0-2.839-6.45c-3.022-6.5-6.728-12.66-10.262-18.907l-.743-1.32-.295-.266zm-84.62-27.82l-1.513.995c-34.843 22.893-54.28 33.863-78.603 53.236-6.34-9.888-11.244-23.552-14.452-33.2 2.294-.902 4.603-1.763 6.935-2.56 11.467-3.923 23.742-5.392 34.972-9.95l47.796-19.433c1.298 3.833 2.9 7.523 4.865 10.914zm123.76-26.563c21.354 3.326 53.665 3.466 62.533 4.212 12.726 1.07 25.295 3.717 38.036 4.593.3.02 1.702.047 3.844.058-.357 5.722-1.056 11.08-2.312 14.995a142.03 142.03 0 0 1-1.764 5.151c-13.638-3.277-27.143-7.123-40.87-10.002-11.465-2.405-26.823-4.678-42.447-7.867l-.994-.204 1.37.576c26 10.922 52.307 21.72 79.935 25.14-5.916 14.032-13.836 27.78-21.852 40.32-6.695-4.046-13.1-8.594-19.84-12.552-11.698-6.86-23.828-12.974-35.488-19.9-3.674-2.182-7.14-4.716-10.467-7.398-6.817-5.496-13.203-11.528-19.897-17.17 3.697-4.317 6.652-8.8 8.435-13.187 5.795 1.558 11.764 2.922 17.708 4.15l.096.02-1.606-.675-15.208-6.33a22.3 22.3 0 0 0 .773-3.802zm-132.552-.6l-.242.09-.988.385c-28.317 11.248-56.33 23.26-84.25 35.46l-3.78 1.663c-2.87-8.925-5.123-18.823-6.615-29.054 9.843-.806 19.742-1 29.545-2.2 10.624-1.29 21.2-3.12 31.655-5.356 11.28-2.41 22.426-5.426 33.613-8.25.302 2.368.648 4.802 1.062 7.264zm2.793 12.612l-3.678 1.43c-56.093 21.84-92.686 36.25 3.504-1.778l.068-.026.106.373zm-81.38-42.238c19.804 5.005 39.87 8.987 59.992 12.502 5.544.968 11.112 1.805 16.696 2.525l.07.727.087.825.498 4.334c-4.606.49-9.202 1.062-13.777 1.79-27.4 4.365-54.003 10.576-80.938 14.893-2.068-14.473-2.61-29.585-1.208-43.538 6.1 2.252 12.274 4.347 18.578 5.94zm312.22-32.654c.987 3.52-.275 7.324 0 10.97.46 6.076 1.333 12.118 2.048 18.17l-1.28.192c-7.283 1.05-14.74.864-21.956 2.3-9.515 1.892-18.534 5.92-28.08 7.65-16.953 3.075-34.24 4.03-51.245 6.78-.06-2.465-.164-4.935-.29-7.402l.03-.012c34.268-14.592 47.357-20.677 48.38-21.832l.032-.078-5.2 1.955-43.45 16.226-.066-1.114c21.736-8.302 48.33-18.076 48.743-17.136l-.03.07 2.104-.8 49.472-18.67.786 2.723zm-238.04 22.317l2.32.964c-1.07-.184-2.675-.316-5.02-.577l6.898 2 .001-.016c.002-.286-.052-.512-.18-.697l.02.008 1.372.577-.198.422-1.015-.294-.003.096c-.027.5-.196 1.14-.427 2.026l-47.058-15.856-36.098-12.552 1.723.912c6.22 3.293 12.444 6.584 18.8 9.598 10.812 5.128 22.088 9.23 32.934 14.286 8.14 3.793 15.73 8.736 24 12.244l4.115 1.677c-.07 1.545-.085 3.272-.02 5.2a188.84 188.84 0 0 1-5.884-1.009c-14.077-2.65-28.117-5.668-41.864-9.692-26.668-7.806-38.874-12.41-45.734-15.252.515-2.818 1.12-5.564 1.822-8.22.797-3.017 2.565-7.042 4.896-11.574l5.215 1.832-.6-.323-4.232-2.228.988-1.868.02.006c8.943 2.2 7.225 1.23.6-1.12l1.556-2.817-.01-.005 81.085 32.25zm210.778-75.57l-.69.515-6.21 4.768-.228.183.26-.168 7.46-4.596c7.52 8.97 13.838 19.14 18.985 30.86-7.625 3.446-15.208 6.98-22.69 10.72-46.3 23.134-38.88 21.575-70.828 42.633l-.143-2.33c-.13-2.197-.627-6.882-1.535-11.796 9.95-9.265 20.574-17.812 30.378-27.235 11.147-10.713 21.175-22.558 32.423-33.164 1.58-1.5 3.223-2.912 4.903-4.288l.785-.638-1.187.765c-1.924 1.253-3.82 2.545-5.674 3.9l-1.38 1.03c-9.937 7.545-18.473 16.786-28.08 24.746-10.313 8.545-21.58 15.92-31.655 24.746l.505-.437-2.614 3.605-.302-1.015 2.4-2.153.505-.437 1.017-1.403 45.08-63.82-1.228 1.38-52.067 57.98c-2.01-2.857-4.116-5.41-6.312-7.684l11.982-30.66 2.378-5.652.694-1.58-.116.202c-6.31 10.912-13.168 21.508-20.58 31.668l-.43.588a51.34 51.34 0 0 0-4.977-3.375c2.892-7.516 5.677-15.08 8.008-22.78l.023-.082-.184.367c-1.45 2.863-2.94 5.714-4.127 8.68l-.347.893c-1.552 4.13-2.497 8.484-3.654 12.754-6.176-3.625-12.905-5.835-20.183-7.077.272-1.75.484-3.477.606-5.167 1.775-24.623 9.393-51.66 9.617-77.796 7.012-.078 14.1.014 21.275.244 3.964.127 7.7.856 11.27 1.97l-2.535 16.91 3.487-16.603c8.655 2.877 16.484 7.925 24.793 12.006l.852.42-3.5 8.13-.487 1.092.817-1.553 3.107-6.06.65-1.316c11.347 5.666 21.533 11.87 30.585 18.927l-9.42 13.17 2.412-2.71c2.644-2.98 5.39-5.905 7.656-9.182a20.48 20.48 0 0 0 .325-.486l.01-.018c6.653 5.282 12.683 11.04 18.1 17.405zm-267.128 4.264c17.925 15.85 30.333 25.566 49.823 46.18 5.45 5.764 10.747 11.667 15.985 17.624l-2.462 6.075-.07-.025-87.23-32.15c7.95-13.89 18.562-29.594 22.72-35.912a52.98 52.98 0 0 1 .873-1.285zm32.213-26.034c2.305 3.176 4.563 6.383 6.63 9.715 12.5 20.15 26.726 39.488 38.85 59.876-3.446 3.43-5.82 7.02-7.798 10.9-1.086-1.033-2.086-1.937-2.968-2.663-35.392-29.16-21.125-16.05 2.07 4.483l-.522 1.15.022.02-67.93-58.224c8.03-10.777 19.935-18.605 31.44-25.14zm31.556-14.817l.35 1.57c4.52 19.565 10.69 38.718 16.596 57.9 1.505 4.9 3.415 9.667 5.618 14.286.442.927.912 1.843 1.402 2.75a72.68 72.68 0 0 0-3.304 2.273l-.01-.012-9.75-12.325-.166-.306c-3.023-5.47-10.53-17.557-25.77-40.773l-2.23-3.393c-2.43-3.694-5.068-7.243-7.816-10.712a217.31 217.31 0 0 1 24.318-10.982zm33.05-9.59c4.37 22.752 9.544 50.068 10.7 67.798.203 3.118.516 6.26.877 9.418-5.442 1.26-10.633 3.246-15.558 5.876-.983-8.21-1.757-16.467-3.7-24.48-4.44-18.325-10.6-36.2-16.596-54.08l.597 1.78c7.392-2.4 14.847-4.395 22.377-6.033zm-22.642 75.428l.493.615.236.43c8.43 15.704-28.542-35.72-.73-1.046zm74.974-81.415l-.53 35.516-2.13 47.094c-6.405-1.008-13.228-1.294-20.464-1.155-.196-10.626-.432-23.356-2.936-44.666-2.265-19.28-2.647-28.68-3.385-34.587 9.422-1.15 18.972-1.845 28.667-2.177zm38.54 19.144l-.622 2.89c-2.903 13.4-6.003 26.775-9.6 40.01l-.98 3.468-.49 1.645.25-.492c1.582-3.153 3.076-6.337 4.028-9.72 3.338-11.86 5.4-24.375 7.28-36.89l.137-.915zm25.19 4.84l-13.457 25.564c-1.822 3.66-3.566 7.36-5.225 11.097l-.128.29.74-1.288c6.546-11.437 12.496-23.214 17.86-35.193l.21-.472z" fill="#54e375"/><g class="D"><g class="J"><path d="M835.663 809.394a2.66 2.66 0 1 1 2.011 4.928l-1.422.57-1.302.507-2.086.796.073.036c.715.38 1.29 1.054 1.433 1.96l.023.202.022.024c.51.59.936 1.322 1.266 2.205l.038.107.13-.023.605-.076.18-.01a3.07 3.07 0 0 1 .961.101c1.12.302 2.125 1.225 2.02 2.8a2.67 2.67 0 0 1-.516 1.422 2.94 2.94 0 0 1-.46.502c-.185.16-.376.294-.595.426l-2.087 1.272-2.902 1.785-.12.08-.224.14-.254.148-6.48 3.998-5.657 3.406-.193.104-.79.404c-2.245 1.116-3.55 1.435-9.803 2.602l-.375.07-.21.082c-1.146.427-2 .537-2.91.265l-.183-.06c-1.73-.61-2.284-2.274-1.86-3.8.105-.376.267-.753.49-1.15l.12-.21-.156-.116a2.71 2.71 0 0 1-1.016-1.964l-.006-.18c0-.412.08-.757.21-1.087.178-.457.44-.86.808-1.318l.108-.132-.06-.01c-1.906-.35-3.286-1.208-3.327-3.2l.001-.217c.04-1.507.852-2.387 2.27-3.36 1.362-.932 3.452-1.964 6.632-3.35l1.164-.503 5-2.124.937-.405 1.913-.87 1.427-.7c2.28-1.095 4.494-2 8.402-3.493l4.316-1.645 2.426-.962zm-7.217 13.744l-.796.274-1.046.344-2.03.64-.106.07c-.96.63-2.108 1.43-3.57 2.472l-.44.313.783-.16 2.036-1.173c1.98-1.13 3.543-1.978 4.87-2.634l.3-.148z"/><path d="M844.356 815.066l2.93-.103c4.024-.11 7.495.078 14.03.663l5.808.528 4.525.34a2.66 2.66 0 0 1 2.18 1.391l.083.166.3.058c.618.128 1.143.265 1.59.422l.216.08c.485.19.9.412 1.276.737.767.663 1.234 1.653 1.004 2.816-.42 2.13-1.8 2.642-5.86 3.45l-.356.067.093.1c.76.76 1.137 1.956.445 3.178l-.1.167a2.48 2.48 0 0 1-1.588 1.152c-.316.087-.594.117-.945.13-.758.03-2.097-.044-3.755-.198l-.336-.032c-4.888-.474-9.456-1.165-13.31-2.117l-.352-.09-3.894-.38c-.31-.03-.647.004-1.38.147l-1 .2c-.34.066-.584.106-.88.144a2.66 2.66 0 0 1-2.983-2.295c-.094-.72.11-1.41.514-1.946l.126-.155-.12-.115c-.507-.503-.9-1.035-1.17-1.598l-.085-.19c-.064-.15-.122-.3-.174-.445l-.086-.252-.97-.07c-.6-.05-1.047-.098-1.36-.15l-.083-.014c-.562-.102-.866-.19-1.357-.558-1.146-.86-1.558-2.604-.414-3.913a2.52 2.52 0 0 1 1.262-.818c.374-.12.783-.18 1.452-.238l.567-.045c.945-.068 2.318-.137 4.17-.2z"/><path d="M806.018 836.46c4.192-17.546 16.246-26.054 31.203-16.895.702.43 1.134 1.133 1.244 1.888l.007.065.103.115c.627.728 1.18 1.593 1.66 2.57l.142.296c1 2.133 1.65 4.763 1.875 6.96.77 7.522.104 18.674-2.367 26.925-3.72 12.417-11.335 18.577-22.766 14.77-10.795-3.595-14.935-20.645-11.1-36.694zm24.5-14.3c-9.207-3.364-16.12 2.655-19.215 15.122l-.098.404c-3.274 13.705.18 27.935 7.606 30.407 8.032 2.675 13.025-1.365 15.986-11.25 2.25-7.51 2.874-17.98 2.17-24.856-.388-3.795-2.048-7.41-3.536-7.58l-.11-.006c-1.24 0-2.284-.85-2.578-2l-.04-.173-.19-.07z"/><path d="M844.496 822.978c-2.766 3.457-4.237 7.382-6.13 15.064l-.495 2.047-.643 2.09a2.66 2.66 0 0 0-.041 1.419l.132.56c.168.742.3 1.498.493 2.612l.404 2.546c.76 4.713 1.365 6.97 2.838 9.614 4.664 8.377 12.19 10.842 19.42 7.378 6.32-3.028 11.076-10.076 11.486-17.326a113.82 113.82 0 0 0 .19-5.447c.036-3.103-.053-6.123-.308-8.95-.766-8.49-2.77-14.056-7.3-15.604-8.88-3.034-15.437-1.62-19.866 3.773l-.183.225zm18.328 1.04c1.67.57 3.143 4.66 3.72 11.045.237 2.627.32 5.473.287 8.41-.023 1.964-.084 3.473-.182 5.21-.3 5.306-3.895 10.634-8.47 12.826-4.676 2.24-9.165.77-12.47-5.167-1.083-1.945-1.577-3.8-2.242-7.93l-.456-2.86-.314-1.727-.164-.77.46-1.487.047-.17.36-1.503c1.807-7.425 3.124-10.993 5.398-13.76 2.926-3.563 7.135-4.47 14.033-2.114z"/><path d="M838.74 828.902a2.66 2.66 0 0 1 .247 5.317l-1.746.085c-17.43.896-22.147 2.618-33.29 12.34a2.66 2.66 0 1 1-3.499-4.01l.766-.665c12.003-10.34 17.955-12.158 37.523-13.068z"/><path d="M838.973 832.2c9.86-6.617 24.69-9.373 34.4-5.272a2.66 2.66 0 1 1-2.071 4.903c-7.87-3.324-20.876-.908-29.363 4.788a2.66 2.66 0 1 1-2.966-4.419z"/></g><path d="M820.747 833.96c1.694 4.205 11.05 20.542 17.534 9.725L840.04 829c-9.72 1.282-15.98 2.283-18.778 3.002-1.5.383-1.66 1.035-.515 1.957zm33.3-2.484c1.98 6.5 6.648 19.514 15.772 11.487l-.33-13.92-7.5-1.5-7.932 3.933zM782 880c4.516 16.253 22.092 4.133 46 7 18.778 2.252 38.483 18.157 55.33-2.558 1.05-1.292 21.455-16.142 12.442-22.147s-50.792 10.925-59.442 9.147c-28.938-5.95-43.462-9.147-54.73-9.147-7.5 0-7.378 5.902.4 17.705zm34.392 29.732c16.842 18.854 25.438 37.22 36.054 7.145.7-1.985 5.07-12.345 3.004-12.76-5.136-1.033-19.26 5.15-24.46 5.783-4.275.52-8.614.056-12.92.085l-1.678-.252z"/></g><path d="M1143.153 626.123c-32.352-41.272-93.186-46.825-144.03-44.754s-68.03 14.45-93.493 54.43-19.786 71.142-5.286 100.66c7.256 14.772 20.272 27.36 36.773 37.392C945.875 779.177 964 782 964 821s23.145-26.588 34.33-24.378c56.014 11.067 119.512 1.746 149.257-34.762 28.255-34.68 10.585-90.107 2.388-125.79l-6.823-9.946z" fill="#0d62fe"/><path d="M1020.774 728.896l-42.738-43.02 25.106-25.27 16.4 16.518 26.28-29.098h-63.905c-6.025 0-10.925 4.938-10.925 10.997v65.983c0 6.065 4.9 10.997 10.925 10.997h76.475c6.025 0 10.925-4.932 10.925-10.997V675.14l-48.55 53.76zm-.822-16.282l-26.856-26.925 9.637-9.664 16.75 16.796 49.7-54.822 10.084 9.188zM486.694 409.47l72.597 65a6 6 0 0 0 4.002 1.53h59.552a6 6 0 0 0 4.107-10.374l-69.22-65a6 6 0 0 0-4.107-1.626h-62.928a6 6 0 0 0-4.002 10.47z" class="H"/><g transform="translate(93 726)"><path d="M19.847 45.123C52.2 3.85 113.032-1.702 163.877.37s68.03 14.45 93.493 54.43 19.786 71.142 5.286 100.66c-7.256 14.772-20.272 27.36-36.773 37.392C217.125 198.177 204 205 241 216s-65.145-2.588-76.33-.378c-56.014 11.067-119.512 1.746-149.257-34.762-28.255-34.68-10.585-90.107-2.388-125.79l6.823-9.946z" class="H"/><path d="M174.205 98.817L165.022 108 138 80.978l9.183-9.183c2.394-2.394 6.263-2.394 8.656 0l18.366 18.366c2.394 2.394 2.394 6.263 0 8.656h0zm-43.063 43.37c-1.207 1.207-2.792 1.814-4.377 1.814s-3.17-.607-4.377-1.814l-18.572-18.573c-2.42-2.42-2.42-6.333 0-8.754L131.674 87 159 114.327l-27.858 27.86zm68.04-61.802c2.424-2.424 2.424-6.342 0-8.767l-24.8-24.8c-2.424-2.424-6.342-2.424-8.767 0-3.546 3.546-12.486 3.546-16.033 0-2.424-2.424-6.342-2.424-8.767 0l-61.998 61.998c-2.424 2.424-2.424 6.342 0 8.767 3.745 3.745 3.745 12.288 0 16.033-2.424 2.424-2.424 6.342 0 8.767l24.8 24.8c2.424 2.424 6.342 2.424 8.767 0 3.546-3.546 12.486-3.546 16.033 0 1.21 1.21 2.796 1.817 4.383 1.817s3.174-.608 4.383-1.817l61.998-61.998c2.424-2.424 2.424-6.342 0-8.767-3.745-3.745-3.745-12.288 0-16.033h0z" fill="#0d62fe"/><g transform="translate(154 138)"><mask id="I" fill="#fff"><use xlink:href="#B"/></mask><g mask="url(#I)"><g transform="translate(75 47)"><g fill="#f06aa6"><path d="M200.666 27.648C195.777 136.25 77.22 176.518 153 247.293c18.11 16.913-99.3 17.15-89.224 0 53.78-91.52-2.444-111.043-1.222-209.884.144-11.656 1.798-22.59 4.73-32.63 59.02-1.665 102.26-.143 129.717 4.564 2.184.374 3.406 6.476 3.667 18.304z"/></g><g class="C E I K"><path d="M216.533 14.893c-6.495 28.137-18.85 56.982-21.24 85.883-1.732 20.946-.774 42.03-1.16 63.045m14.934-149.86C194.5 50.5 188.85 83.388 187.474 122.882c-1.08 31.03-4.192 23.453 2.012 36.285m-.02-122.867c-13.676 56.285-14.304 74.472-4.73 132.174m-.87 6.516c-33.92-30.382-19.7-83.438-10.622-121.004"/></g><path d="M118.105 26.993c2.064 10.16 1.502 16.97-1.684 20.43-16.923 18.383-23.51 25.455-42.54 51.63-.26.358-.183 1.296.26 1.3 2.1.02 4.468-.048 6.208-1.236 12.208-8.333 21.644-20.994 35.16-27.002 18.193-8.087-3.395 17.564-9.905 17.564s18.807 11.572 44.847-2.17-22.423 16.634-38.337 15.188 6.5 13.018 0 32.545" stroke="#212121" class="C E L"/><g class="I K C E"><path d="M72.8 46.54C61.847 75.576 47.188 146.32 4.045 154.504c-.547.104-.83-.738-1.245-1.107M66.267 26.993C56.35 76.024 41.7 119.35.933 147.998M60.667 8.377C48 54.035 41.6 103.683 2.8 134.966M47.6 10.24C35.895 59.205 34.6 91.426 0 125.658"/></g><path d="M199.904.405c5.3 0-3.18 32.548-6.502 40.065-2.808 6.356-10.542 9.593-23.2 9.713-14.01.43-23.75-2.76-29.222-9.57a47.04 47.04 0 0 1-.836-1.072c-6.503 13.02-19.602 16.71-35.49 16.71-36.744 0-51.41-22.206-45.528-55.848h140.78zM135.04 12.832l-62.492-.873-.018.224c-.83 10.725 1.037 18.702 5.23 23.99l.223.276.212.253c5.02 5.888 14.386 8.96 28.544 8.96 10.44 0 22.755-4.38 26.9-18.78l.133-.478c.685-2.56.468-7.005 1.106-12.215l.123-1.025.038-.33zm54.985 1.053h-45.34l.022.065c-.022 20.397-.022 28.822 33.945 28.81l.545.008.64.003c.64 0 .974-.1 1.577-.514 1.27-.876 2.66-2.606 3.94-5.255 2.432-5.035 4.006-12.443 4.61-22.117l.057-1z" transform="matrix(-1 0 0 1 259.466652 0)" class="D J"/><g fill="#212121"><use xlink:href="#F" transform="matrix(-1 0 0 1 173.73999 0)"/><use xlink:href="#F" x="57.284" transform="matrix(-1 0 0 1 288.30665 0)"/></g><g fill="#ff0034"><path d="M23.222 266.83c5.99 8.75 31.132 6.483 17.666-11.25s-23.655 2.5-17.666 11.25z" transform="matrix(-1 0 0 1 66.266662 0)"/><path d="M55.434 281.825c6.16 8.445 28.653 3.066 14.8-14.048s-20.962 5.603-14.8 14.048z" transform="matrix(-1 0 0 1 127.86666 0)"/><path d="M98.448 286.857c6.23 8.768 28.635 4.798 14.624-12.972s-20.855 4.204-14.624 12.972z" transform="matrix(-1 0 0 1 213.73332 0)"/><path d="M140.524 281.412c6.336 8.628 27.895 4.136 18.688-11.093s-25.024 2.465-18.688 11.093z" transform="matrix(-1 0 0 1 300.533316 0)"/><path d="M173.94 271.14c6.017 8.534 24.648 4.442 17.748-10.972s-23.765 2.438-17.748 10.972z" transform="matrix(-1 0 0 1 365.866644 0)"/></g></g></g></g><g transform="translate(185 354)"><path d="M.52 30.682c.887-2.573 1.926-4.314 3.118-5.22 14.64-11.143 31.368-11.494 44.686 0 1.83 1.58 4.157 3.154 4.157 6.308L49.82 54.736C27.903 58.36 12.704 57.634 4.22 52.562l-3.7-21.88z" fill="#0c2610"/><path d="M0 13l12.462 72.343c18 4.875 29.077 4.875 33.23 0L54 17.18" fill="#f4f2ee"/><mask id="J" fill="#fff"><use xlink:href="#C"/></mask><use fill="#d3d3d3" xlink:href="#C"/><path d="M52.545 25.53c8.308 14.583-48.483 14.137-52.3 3.364-3.776-10.656 37.34-29.624 52.3-3.364z" fill="#451b1b" mask="url(#J)"/><path d="M1 30c19.102 7.138 36.435 7.495 52 1.07L49.816 56.77c-21.932 3.57-37.143 2.855-45.633-2.142L1 30z" fill="#14591d"/></g><g opacity=".07" stroke="#212121" class="C E L"><use xlink:href="#G"/><use xlink:href="#G" x="8.024"/></g></g></g></svg>