<svg xmlns="http://www.w3.org/2000/svg" xmlns:xlink="http://www.w3.org/1999/xlink" width="1518" height="1302" xmlns:v="https://vecta.io/nano"><style><![CDATA[.B{fill:#ff0034}.C{fill:#ff9d00}.D{fill:#eaeaea}.E{fill:#00c15a}.F{stroke:#f4f2ee}.G{fill:#0064ff}.H{fill-rule:nonzero}.I{fill:#b4b4b4}.J{stroke-linejoin:round}.K{stroke-width:1.883}.L{stroke-width:1.983}.M{stroke-linecap:square}]]></style><defs><filter x="-33.0%" y="-25.8%" width="166.0%" height="151.8%" id="A"><feOffset dy="45" in="SourceAlpha"/><feGaussianBlur stdDeviation="30"/><feColorMatrix values="0 0 0 0 0 0 0 0 0 0.164542109 0 0 0 0 0.362271488 0 0 0 0.1 0" result="C"/><feMerge><feMergeNode in="C"/><feMergeNode in="SourceGraphic"/></feMerge></filter><filter x="-40.0%" y="-37.5%" width="180.0%" height="175.0%" id="B"><feOffset dy="2" in="SourceAlpha"/><feGaussianBlur stdDeviation="2"/><feColorMatrix values="0 0 0 0 0 0 0 0 0 0 0 0 0 0 0 0 0 0 0.3 0" result="C"/><feMerge><feMergeNode in="C"/><feMergeNode in="SourceGraphic"/></feMerge></filter><filter x="-36.0%" y="-50.9%" width="171.9%" height="201.8%" id="C"><feOffset dy="45" in="SourceAlpha"/><feGaussianBlur stdDeviation="30"/><feColorMatrix values="0 0 0 0 0 0 0 0 0 0.164542109 0 0 0 0 0.362271488 0 0 0 0.1 0" result="C"/><feMerge><feMergeNode in="C"/><feMergeNode in="SourceGraphic"/></feMerge></filter><path id="D" d="M91.793 108.3v-5.414c2.714-.404 4.664-1.3 5.847-2.685s1.776-3.032 1.776-4.938c0-1.27-.224-2.368-.67-3.292a7.48 7.48 0 0 0-1.841-2.404c-.78-.68-1.696-1.27-2.75-1.776l-3.357-1.45-2.252-.845c-.664-.274-1.227-.563-1.69-.866s-.81-.65-1.04-1.04-.347-.874-.347-1.45a2.7 2.7 0 0 1 1.169-2.317c.78-.563 1.95-.845 3.508-.845 1.473 0 2.78.144 3.92.433l2.967.9 1.083-4.288c-.635-.26-1.502-.527-2.6-.8s-2.34-.47-3.725-.585h0v-4.678h-4.505v4.85c-2.454.404-4.274 1.307-5.458 2.707s-1.776 3.097-1.776 5.09c0 1.213.217 2.238.65 3.075s1.003 1.552 1.71 2.144 1.502 1.1 2.382 1.494l2.664 1.083 2.62.996c.794.318 1.48.664 2.057 1.04s1.025.81 1.343 1.3.476 1.068.476 1.733c0 .982-.383 1.77-1.148 2.36s-2.144.888-4.137.888c-1.675 0-3.17-.188-4.483-.563s-2.433-.794-3.357-1.256h0l-1.473 4.115c.635.347 1.595.73 2.88 1.148s2.967.7 5.046.845h0v5.284h4.505z"/></defs><g transform="translate(0 150)" fill="none" fill-rule="evenodd"><path d="M1368.458 287.07C1237.166 119.625 990.294 97.096 783.958 105.5s-276.077 58.625-379.414 220.83-80.294 288.633-21.45 408.397c29.447 59.933 82.268 111.01 149.23 151.705 35.543 21.6 88.806 49.28-61.347 93.91s264.37-10.5 309.763-1.534c227.317 44.9 485 7.085 605.713-141.033 114.665-140.698 42.956-365.575 9.7-510.353l-27.687-40.35z" fill="#0d62fe"/><g transform="translate(473)"><g filter="url(#A)" transform="translate(281)"><path fill="#fff" d="M0 0h613.936v785.31H0z" class="F K"/><path d="M69.433 448.395l-6.274 3.974-5.206-8.243c-.057-.09-.15-.13-.222-.203l1.444-1.526c.292-.307.292-.81 0-1.118l-1.94-2.048c-.29-.308-.77-.308-1.06 0l-1.94 2.048c-.292.307-.292.81 0 1.118l1.444 1.526c-.072.072-.165.114-.222.203l-5.207 8.243-6.273-3.974c-.52-.33-1.178-.296-1.666.085s-.708 1.035-.562 1.655l3 12.665c.167.703.768 1.2 1.457 1.2h21c.69 0 1.29-.496 1.456-1.2l3-12.665c.148-.62-.075-1.273-.562-1.655s-1.146-.414-1.666-.085z" class="C"/><g transform="translate(37.665 39.548)"><path d="M18.45 53.887V36.05H.001l.001.212c.164 9.662 8.235 17.466 18.23 17.624l.22.002z" fill="#005b11"/><path d="M18.618 17.837l-.223.002V0h18.45l-.001.212c-.164 9.66-8.234 17.464-18.227 17.624h0z" fill="#00173a"/><path d="M18.23 18.212l.223-.002v17.838H.001l.001-.212c.164-9.66 8.234-17.464 18.227-17.624h0z" class="B"/><ellipse fill="#ff7800" transform="matrix(1 0 0 -1 0 89.9361)" cx="27.301" cy="44.968" rx="8.849" ry="8.919"/><g class="G"><path d="M18.61.002l.22-.002v18.832H0C0 8.535 8.304.168 18.61.002h0z"/><path d="M64.5 52.073V1.175H53.04v50.898H64.5zm23.062 0V18.73c4.31 5.043 8.373 10.405 12.192 16.085s7.37 11.433 10.65 17.26h9.62V1.175H108.64v30.04l-5.655-8.263c-2.008-2.864-4.027-5.63-6.06-8.3s-4.027-5.178-5.986-7.528-3.746-4.333-5.362-5.95h0-9.328v50.898h11.31zm70.362 0c2.008-4.26 3.99-8.69 5.95-13.294s3.82-9.156 5.582-13.66l4.847-12.927 3.893-11.017h-12.192l-3.195 9.51-3.525 10.172-3.525 9.695c-1.15 3.085-2.19 5.753-3.12 8.006-.98-2.252-2.032-4.92-3.158-8.006l-3.49-9.695-3.525-10.172-3.195-9.51h-12.633c1.077 3.232 2.363 6.904 3.856 11.017l4.884 12.927 5.582 13.66c1.96 4.603 3.942 9.034 5.95 13.294h11.017zm48.18 1.028c3.574 0 6.916-.563 10.025-1.69s5.8-2.803 8.042-5.03 4.027-4.994 5.325-8.3 1.946-7.137 1.946-11.494-.66-8.19-1.983-11.494-3.134-6.084-5.435-8.336a22.38 22.38 0 0 0-8.079-5.068C212.86.563 209.58 0 206.104 0c-3.38 0-6.598.563-9.658 1.69s-5.753 2.815-8.08 5.068-4.174 5.03-5.545 8.336-2.056 7.137-2.056 11.494.66 8.19 1.983 11.494 3.134 6.072 5.435 8.3 4.994 3.905 8.08 5.03 6.365 1.69 9.842 1.69zm0-10.062c-2.154 0-4.064-.392-5.73-1.175a11.7 11.7 0 0 1-4.223-3.342c-1.15-1.444-2.032-3.17-2.644-5.178s-.918-4.26-.918-6.757c0-2.448.306-4.688.918-6.72s1.493-3.77 2.644-5.215a12.07 12.07 0 0 1 4.223-3.379c1.665-.808 3.574-1.212 5.73-1.212 2.105 0 4.003.392 5.692 1.175a11.62 11.62 0 0 1 4.26 3.342c1.15 1.444 2.032 3.183 2.644 5.215s.918 4.297.918 6.794-.306 4.75-.918 6.757-1.493 3.734-2.644 5.178a11.62 11.62 0 0 1-4.26 3.342c-1.69.783-3.587 1.175-5.692 1.175zm46.345 9.034V1.175H240.99v50.898h11.458zm34.96 1.028c3.868 0 7.27-.392 10.21-1.175s5.215-1.665 6.83-2.644h0l-3.158-9.18-2.13.955c-.783.343-1.69.65-2.718.918s-2.203.502-3.525.698-2.815.294-4.48.294c-2.644 0-4.896-.428-6.757-1.285s-3.366-2.02-4.517-3.49-1.983-3.22-2.497-5.25-.77-4.223-.77-6.573c0-2.938.392-5.435 1.175-7.492s1.824-3.734 3.12-5.03 2.79-2.24 4.48-2.828 3.415-.88 5.178-.88c2.644 0 5.007.294 7.088.88s3.905 1.298 5.472 2.13h0l3.305-9.254c-.392-.245-1.028-.588-1.9-1.028s-1.983-.87-3.305-1.285-2.864-.783-4.627-1.102S290.15 0 287.996 0c-3.72 0-7.173.588-10.356 1.763s-5.925 2.9-8.226 5.178-4.113 5.068-5.435 8.373-1.983 7.063-1.983 11.274c0 8.47 2.167 15.008 6.5 19.6s10.637 6.904 18.912 6.904zm60.446-1.028v-9.62H323.25V30.186h20.345v-9.4H323.25v-9.99h22.915v-9.62h-34.373v50.898h36.062z" class="H"/></g></g><rect x="41.431" y="178.908" width="107.345" height="11.299" rx="5.65" class="G"/><g class="D"><rect x="39.548" y="242.938" width="105.461" height="13.183" rx="6.591"/><rect x="186.441" y="222.222" width="105.461" height="11.299" rx="5.65"/><rect x="163.842" y="438.795" width="242.938" height="11.299" rx="5.65"/><rect x="374.765" y="542.373" width="94.162" height="11.299" rx="5.65"/></g><rect x="517.891" y="438.795" width="30.132" height="11.299" rx="5.65" class="I"/><g class="D"><rect x="163.842" y="457.627" width="137.476" height="11.299" rx="5.65"/><rect x="374.765" y="561.205" width="94.162" height="11.299" rx="5.65"/><rect x="186.441" y="242.938" width="105.461" height="13.183" rx="6.591"/></g><rect x="391.714" y="734.463" width="82.863" height="30.132" rx="11.898" class="E"/><g transform="translate(435.028 743.879)" class="H"><g filter="url(#B)" transform="translate(5.949 3.966)"><path fill="#231d1e" d="M0 13.88h1.983v-1.983H5.95v1.983h1.983V1.983h1.983V0h3.966v1.983h1.983v5.95h7.932v1.983h3.966v1.983h1.983v9.915h-1.983v3.966H25.78v5.95h-3.966v-1.983H19.83v1.983H9.915v-3.966H7.932V25.78H5.95v-1.983H3.966V19.83H1.983v-1.983H0z"/><path fill="#fff" d="M1.983 13.88H5.95v1.983h1.983v1.983h1.983V1.983h3.966V13.88h1.983V9.915h3.966v3.966h1.983V9.915h1.983v3.966h1.983v-1.983h1.983v9.915H25.78v3.966h-1.983v3.966h-1.983v-1.983H19.83v1.983h-7.932v-1.983H9.915V25.78H7.932v-1.983H5.95V19.83H3.966v-1.983H1.983z"/><g fill="#231d1e"><path d="M13.88 17.847h1.983v7.932H13.88z"/><path d="M17.847 17.847h1.983v7.932h-1.983z"/><path d="M21.814 17.847h1.983v7.932h-1.983z"/></g></g></g><rect fill="#ffa300" x="482.109" y="734.463" width="82.863" height="30.132" rx="11.898"/><rect fill="#001d71" x="41.431" y="158.192" width="124.294" height="13.183" rx="6.591"/><g class="D"><rect x="41.431" y="222.222" width="122.411" height="11.299" rx="5.65"/><rect x="186.441" y="178.908" width="122.411" height="11.299" rx="5.65"/><rect x="163.842" y="338.983" width="165.725" height="11.299" rx="5.65"/><rect x="163.842" y="403.014" width="97.928" height="11.299" rx="5.65"/></g><g transform="translate(41.431 320.151)" class="G"><path d="M22.537 12.493l-2.152 2.152-6.333-6.333 2.152-2.152c.56-.56 1.468-.56 2.03 0l4.305 4.305c.56.56.56 1.468 0 2.03h0zM12.493 22.537a1.43 1.43 0 0 1-2.029 0L6.16 18.233c-.56-.56-.56-1.468 0-2.03l6.457-6.457 6.333 6.333-6.457 6.457zM28.277 8.19c.56-.56.56-1.468 0-2.03L22.537.42c-.56-.56-1.468-.56-2.03 0-.82.82-2.9.82-3.71 0-.56-.56-1.468-.56-2.03 0L.42 14.77c-.56.56-.56 1.468 0 2.03.867.867.867 2.844 0 3.71-.56.56-.56 1.468 0 2.03l5.74 5.74c.56.56 1.468.56 2.03 0 .82-.82 2.9-.82 3.71 0a1.43 1.43 0 0 0 2.029 0l14.348-14.348c.56-.56.56-1.468 0-2.03-.867-.867-.867-2.844 0-3.71h0z"/><path d="M22.537 76.524l-2.152 2.152-6.333-6.333 2.152-2.152c.56-.56 1.468-.56 2.03 0l4.305 4.305c.56.56.56 1.468 0 2.03h0zM12.493 86.568a1.43 1.43 0 0 1-2.029 0L6.16 82.263c-.56-.56-.56-1.468 0-2.03l6.457-6.457 6.333 6.333-6.457 6.457zM28.277 72.22c.56-.56.56-1.468 0-2.03l-5.74-5.74c-.56-.56-1.468-.56-2.03 0-.82.82-2.9.82-3.71 0-.56-.56-1.468-.56-2.03 0L.42 78.8c-.56.56-.56 1.468 0 2.03.867.867.867 2.844 0 3.71-.56.56-.56 1.468 0 2.03l5.74 5.74c.56.56 1.468.56 2.03 0 .82-.82 2.9-.82 3.71 0a1.43 1.43 0 0 0 2.029 0L28.277 77.96c.56-.56.56-1.468 0-2.03-.867-.867-.867-2.844 0-3.71h0z"/></g><rect x="517.891" y="561.205" width="30.132" height="11.299" rx="5.65" class="I"/><rect x="517.891" y="580.038" width="47.081" height="15.066" rx="7.533" class="B"/><g class="D"><rect x="186.441" y="158.192" width="122.411" height="11.299" rx="5.65"/><rect x="163.842" y="320.151" width="218.456" height="11.299" rx="5.65"/><rect x="163.842" y="384.181" width="182.674" height="11.299" rx="5.65"/></g><g class="I"><rect x="517.891" y="320.151" width="35.782" height="11.299" rx="5.65"/><rect x="517.891" y="384.181" width="35.782" height="11.299" rx="5.65"/><rect x="517.891" y="542.373" width="35.782" height="11.299" rx="5.65"/></g><g class="F J L M"><path d="M41.43 129.002h532.957"/><path d="M41.43 287.194h532.957"/><path d="M41.43 513.183h532.957"/><path d="M41.43 626.177h532.957"/></g></g><g filter="url(#C)" transform="translate(0 530)"><path fill="#fff" d="M0 .31h487.76v397.363H0z" class="F K"/><g fill="#f4f2ee" class="H"><use xlink:href="#D"/><use xlink:href="#D" x="103.577" y="30.13"/><use xlink:href="#D" x="207.157" y="16.95"/><use xlink:href="#D" x="310.734" y="11.3"/></g><path d="M557.616 157.693v-2.59c1.298-.193 2.23-.62 2.797-1.284s.85-1.45.85-2.362c0-.608-.107-1.132-.32-1.574s-.508-.825-.88-1.15-.81-.608-1.315-.85l-1.605-.694-1.077-.404c-.318-.13-.587-.27-.808-.414a1.55 1.55 0 0 1-.497-.497c-.1-.186-.166-.418-.166-.694a1.29 1.29 0 0 1 .559-1.108c.373-.27.932-.404 1.678-.404.704 0 1.33.07 1.875.207l1.42.435.518-2.05c-.304-.124-.718-.252-1.243-.383s-1.12-.224-1.782-.28h0v-2.237h-2.154v2.32c-1.174.193-2.044.625-2.6 1.295s-.85 1.48-.85 2.434c0 .58.104 1.07.31 1.47s.48.742.818 1.025.718.52 1.14.715l1.274.518 1.253.476c.38.152.708.318.984.497a2.13 2.13 0 0 1 .642.621c.152.235.228.51.228.83 0 .47-.183.846-.55 1.13s-1.025.425-1.978.425c-.8 0-1.516-.1-2.144-.27s-1.164-.38-1.605-.6h0l-.704 1.968c.304.166.763.35 1.378.55s1.42.335 2.413.404h0v2.527h2.154z" fill="#fff" class="H"/><path d="M22.6 325.8l443.503.942" class="F J L M"/><g class="D"><rect x="62.147" y="335.217" width="54.614" height="11.299" rx="5.65"/><rect x="165.725" y="335.217" width="54.614" height="11.299" rx="5.65"/><rect x="269.303" y="335.217" width="54.614" height="11.299" rx="5.65"/><rect x="372.881" y="335.217" width="54.614" height="11.299" rx="5.65"/></g><g transform="translate(54.614 122.411)"><path d="M0 90.395h69.68v111.11H0z" class="E"/><path d="M0 20.716h69.68v69.68H0z" class="C"/><path d="M0 0h69.68v20.716H0z" class="B"/></g><g transform="translate(158.192 156.309)"><path d="M0 77.213h69.68v90.395H0z" class="E"/><path d="M0 16.95h69.68v60.264H0z" class="C"/><path d="M0 0h69.68v16.95H0z" class="B"/></g><g transform="translate(261.77 145.009)"><path d="M0 48.964h69.68v129.943H0z" class="E"/><path d="M0 18.832h69.68v54.614H0z" class="C"/><path d="M0 0h69.68v18.832H0z" class="B"/></g><g transform="translate(365.348 137.476)"><path d="M0 114.878h69.68v71.563H0z" class="E"/><path d="M0 18.832h69.68v96.045H0z" class="C"/><path d="M0 0h69.68v18.832H0z" class="B"/></g><rect fill="#001d71" x="22.152" y="33.704" width="146.238" height="15.252" rx="5.949"/><rect x="346.516" y="367.232" width="124.294" height="16.949" rx="5.949" class="G"/></g></g><g transform="matrix(-1 0 0 1 400 710)"><path d="M28.864 185.7c47.05-58.855 135.523-66.773 209.467-63.82s98.938 20.606 135.97 77.62 28.775 101.45 7.687 143.545C332.577 441.68 99.52 472.06 22.414 379.264-18.678 329.8 7.02 250.77 18.942 199.882l9.922-14.183z" fill="#ff8100"/><g stroke="#ffc415" stroke-width="11.31" stroke-linecap="round" class="J"><path d="M242.937 167.404c13.6 33.32 51.9 11.005 36.786-12.604m-91.49-25.2c26.687 13.578 43.933 37.5 66.17 58.24 12.302 11.468 24.444 23.15 35.687 35.623 3.307 3.67 9.675 8.05 7.756 12.572-1.763 4.154-43.64 7.296-47.32.57-1.903-3.478-2.456-15.568-2.328-11.62 1.177 36.418 15.875 74.46 7.17 103.976-4.66 15.8-69.804 4.992-67.142 14.404 5.643 19.952 28.477 21.5 68.503 4.675 3.954 8.077 1.64 17.912 1.164 26.86-1.077 20.2-3.877 40.255-5.816 60.382"/><path d="M171.818 175.6c-2.86 22.582 27.998 36.85 48.048 20.22 13.473-11.176 6.196-25.685 5.98-41.03"/></g><path d="M250.09 72.965c-15.27 52.25-101.7 61.096-139.56 31.793s-2.18-28.945 20.88-18.09l.36.005c17.724 12.995 40.388 15.053 68 6.176a13.93 13.93 0 0 0 2.143-.706l2.696-.944-.22-.242c18.595-9.99 55.27-50.713 45.7-17.992zm-39.688-48.16c10.23 23.848-9.772 52.56-14.85 62.1-16.184 3.82-36.015 1.506-59.5-6.94-7.326-17.364-9.716-37.71 1.183-54.923 18.532-29.27 57.915-35.766 73.158-.236z" fill="#001c6c"/></g></g></svg>