<svg xmlns="http://www.w3.org/2000/svg" width="1462" height="1316" xmlns:v="https://vecta.io/nano"><style><![CDATA[.B{stroke-linecap:round}.C{stroke-linejoin:round}.D{fill-rule:nonzero}.E{stroke:#212121}.F{stroke-width:5.322}.G{fill:#001d71}.H{fill:#001c6c}.I{fill:#212121}.J{stroke-width:5.855}.K{fill:#fb3640}.L{fill:#f3a712}]]></style><g fill="none" fill-rule="evenodd"><path d="M1294.258 210.102C1143.437 17.932 859.843-7.924 622.816 1.72s-317.142 67.28-435.85 253.437-92.238 331.25-24.64 468.697c33.827 68.783 94.505 127.4 171.428 174.104 40.83 24.8 30.85 143.04 36.85 170.04s70-115 248.52-64.026c254.6 72.698 557.142 8.13 695.8-161.857 131.72-161.472 41.85-543.117 11.132-585.707l-31.805-46.308z" fill="#0d62fe"/><path d="M179.46 209c-25.86 8.398-96.1 123.23-111.68 229.602C51.307 551.08 90.45 655.775 98.938 678.687c.245.663-1.413 0-2.12 0M1436.535 640c-11.3 48.97-19.465 98.773-33.9 146.914-6.382 21.286-18.38 40.475-28.254 60.383-30.54 61.57-85.284 98.445-149.383 120.78M67.858 285.982C37.8 372.02-18.402 508.585 17.7 602.404M1456.23 719c-9.255 60.063-18.6 100.063-28 120-30.897 65.453-74.6 90.872-97.23 104.127" stroke="#0d62fe" stroke-width="10" class="B C"/><path d="M390.92 422.668C359.216 318.112 469.24 183.248 548.78 159c120.786-36.822 152.426 173.927 147 176-33.475 12.797-135.096 42.02-304.86 87.668z" class="G"/><path d="M642.454 247.927c5.45 43.488-37.133 153.25-82.104 147.217-37.77-5.066-59.773-37.147-71.42-71.482-1.97-5.807-31.15 9.338-35.15-17.662s27.836-10.042 27-15c-2.794-16.57-2.582-30.63-2.157-41.86.067-1.773 9.6-7.256 29.982-10.495 9.12-1.45 20.41-2.45 33.998-2.466 19.383-.025 41.04 1.88 59.218 4.186 5.228.663.444-48.057 4.96-47.365 4.596.705 18.476 50.82 22.047 51.48 8.388 1.547 13.553 2.862 13.626 3.447z" fill="#f2f4f6"/><path d="M580.78 260c2.464 23.7 20 15.905 20 .08m-19 12.92l-6 8m15-5l-4 13m9-15l3 11" class="B C E F"/><path d="M565.78 251c16.21 24.68 26.026 39.117 29.444 43.308 1.508 1.85 4.41 4.057 3.536 6.337-.804 2.094-19.898 3.677-21.576.287-.868-1.753-1.12-7.846-1.06-5.857.358 12.237 1.43 19.953 3.217 23.148" stroke="#001d71" fill="#f5fff6" class="B C F"/><g class="B C E F"><path d="M528.2 260.7c-3.73 15.702 18.435 17.7 22.58-1.7m-20 13l-7 5"/><path d="M537.434 273l-.3 9m7.656-10l3 7"/></g><path d="M565.757 322.468c6.5.718 4.524 9.82 9.604 8.6 2.564-.615 4.7-3.453 7.312-2.985 3.948.7 9.424 4.23 16.427 10.556l-18.834 8.698c-11.845 5.708-48.1-14.568-56.495-22.15l29.712 9.52c46.29 6.64 36.387 3.466-29.712-9.52 11.465-6.353 35.485-3.436 41.986-2.72z" fill="#ff4445"/><path d="M922.933 94.123C890.58 52.85 829.747 47.298 778.903 49.37s-68.03 14.45-93.493 54.43-19.786 71.142-5.286 100.66c7.256 14.772 20.272 27.36 36.773 37.392C725.655 247.177 738.78 254 701.78 265s65.145-2.588 76.33-.378c56.014 11.067 119.512 1.746 149.257-34.762 28.255-34.68 10.585-90.107 2.388-125.79l-6.823-9.946z" fill="#fff"/><g transform="matrix(-1 0 0 1 1123 247.06)"><path d="M213.384 148.694c26.196 0 58.37-1.647 96.525-4.942l9.9-48.598h-42.9l3.3-70.838H42.61L41.157 63.6C13.72 55.956 0 59.548 0 74.375S12.278 98.05 36.834 100.92l8.25 37.9c86.004 6.6 142.104 9.884 168.3 9.884z" fill="#ffa300"/><path d="M179.588 23.427c-1.184 20.685 17.203 25.95 22.3 6.9 3.9-14.526-17.308-15.904-24-6.9m70.935-3.295c.36 4.402.094 8.9 1.078 13.205 4.27 18.676 27.6.556 15.225-15.048" class="I"/><path d="M286.155.01c5.085 0-.932 45.388-4.125 54.497-4.05 11.553-13.61 9.06-23.925 9.06-3.278 0-6.092-.108-8.565-.393-5.37-6.5-12.733-13.962-20.5-20.102h0l1.152 6.71-.676-1.047-.804-1.3c-6.252 15.778-18.845 20.25-34.122 20.25-35.326 0-49.424-26.91-43.77-67.676h135.346zM215.96 18.395h-47.727l-.015.234c-.69 11.187.86 19.508 4.34 25.023l.185.288.176.264c4.164 6.142 11.568 9.345 23.312 9.345 8.66 0 14.394-6.03 17.832-21.05l.1-.5c.568-2.67 1.125-6.756 1.654-12.192l.102-1.07.03-.345zm56.69 0h-35.354l.017.07c5.334 21.873 12.52 30.59 26.47 30.954l.425.008.5.003c.5 0 .76-.106 1.23-.553 1-.94 2.075-2.8 3.073-5.646 1.896-5.4 3.123-13.368 3.596-23.762l.045-1.074z" class="D K"/><path d="M234.53 52.97c16.595 13.102 31.305 32.176 28.784 35.322-3.3 4.118-15.235 4.966-18.15 3.295-2.342-1.343-1.284.477-1.284 15.834m-45.595-12.88c19.428 14.4 40.993 16.243 62.292 11.87" class="B C E J"/><g stroke="#001d71" class="B C J"><path d="M219.092 131.53c4.162 16.64 13.984 27.125 24.384 41.052m-7.396-42.864c11.363 35.943 8.837 20.612 11.415 45.194m2.725-42.604c3.396 34.945 2.983 20.413 2.983 43.512m12.06-43.512l-7.782 47.785m18.3-46.49c-.934 16.94-5.402 30.446-13.88 45.063m25.423-46.75c-1.55 16.523-6.262 32.438-17.38 45.325"/><path d="M293.67 149.66c-13.737 18.403-15.397 24.042-35.93 28.878"/></g><path d="M199.674 88.525c-1.244 3.34-3.72 6.634-7.844 6.824" class="B C E J"/></g><path d="M1280.207 361.98l6.76 26.973c1.204 5.405 2.456 16.643 3.755 33.716 28.538-11.988 42.808-3.996 42.808 23.976s-14.27 37.462-42.808 28.47v107.142L1006.088 589V475.115c-31.042 7.492-45.31-1.998-42.808-28.47s16.773-34.465 42.808-23.976l5.257-60.69h268.862zm-231.312 35.964c-19.526 60.94-21.28 107.392-5.257 139.36 10.19 20.33 96.3 25.758 152.455 20.23 21.43-2.1 43.46-8.853 66.09-20.23 3.893-20.674 5.395-41.902 4.506-63.686s-4.143-43.512-9.763-65.184c-13.518-14.985-46.563-24.475-99.134-28.47s-88.87 1.998-108.897 17.982z" class="G"/><g class="D"><path d="M1134.93 490.797c.387.22.708.42.955.62a2.81 2.81 0 0 1 .48.483l.12.157c.12.17.17.303.393.926l.02.396c.013.298.014.524-.014.72l-.01.052.032.023.2.167c.56.506.96 1.2.97 2.106l-.005.207-.015.16.076.024c.98.313 1.77.903 2.2 1.67l.097.183.033.013a3.2 3.2 0 0 1 1.758 1.567l.096.2a2.66 2.66 0 0 1-.005 2.155l-.082.17-1.172 2.198-.012.115c-.162 1.25-1.08 2.307-2.57 2.464l-.207.016c-.542.026-.98-.047-1.632-.23l-.5-.148-1.104-.343-.495-.137-.103-.025-.123.263c-.673 1.444-1.16 2.173-2.307 2.815-20.968 11.73-45.426 17.912-64.77 14.484-2.253-.4-3.358-2.712-2.08-4.66.336-.5.795-.95 1.4-1.386l.103-.075-.102-.04c-.212-.1-.424-.218-.64-.392l-.163-.14c-1.194-1.088-1.1-2.474-.465-3.5.2-.326.424-.566.697-.806.526-.463 1.4-1.02 2.557-1.684a59.32 59.32 0 0 1 2.32-1.25l.7-.357-.408.088-1.37.285-1.506.3c-1.574.305-2.8.507-3.53.58-.343.034-.62.047-.9.03-.394-.027-.738-.095-1.17-.324-.14-.074-.272-.16-.394-.255l-.052-.044-.738.7-.548.533a2.661 2.661 0 1 1-3.722-3.804c8.435-8.253 18.043-15.354 26.883-19.418 10.904-5.013 20.382-5.362 27.3.225l.3.247a19.63 19.63 0 0 0 1.608 1.24l.23.15 2.376-.655c1.614-.445 2.924-.473 4.987-.165l.197.03.044-.005c2.057-.233 3.64-.1 6.132.415l.665.142.578-.185c1.42-.454 2.462-.595 3.886-.34.662.118 1.427.443 2.218.868l.298.164zm-5.546 14.156c-.538.042-.92.117-1.25.235l-.898.325c-4.02 1.467-5.744 2.3-9.782 4.598l-1.934 1.106-.746.415c-3.243 1.768-6.4 2.946-11.488 4.097l-1.497.328c-3.154.67-6.045 1.144-11.216 1.886l-4.28.6-7.623 1.2-.78.14.205.002c15.9.1 34.348-5.382 50.662-14.38l.485-.27.074-.136.072-.145zm-22.288-12.624l-.014-.01c-8.12-5.277-21.93-.378-36.22 10.84l-.24.188 1.945-.644c9.48-3.126 19.505-6.136 32.115-9.695l2.414-.68zm8.562 12.682l-4.788 1.38-4.455 1.3-10.877 3.232-4.126 1.213-2.008.583 2.88-.418c3.545-.528 5.878-.93 8.34-1.452l.943-.204 1.026-.232c4.147-.965 6.725-1.92 9.32-3.3l.312-.168.93-.52 1.763-1 .74-.42zm10.453-8.124c-1.067.173-2.064.168-3.257-.033l-.364-.066a11.43 11.43 0 0 0-2.58-.214l-.378.015c-.405.02-1.814.144-2.046.16-1.23.08-2.345.015-3.44-.254l-.177-.047-.416.1c-1.808.445-3.704.972-5.726 1.587l-1.614.5c-2.517.8-4.83 1.635-8.664 3.105l-6.425 2.476 1.807-.38 6.595-1.32 9.105-1.752 7.765-1.558 1.437-.304.223-.06 2.76-.746 1.756-.464a23.69 23.69 0 0 1 2.844-.56l.352-.044.688-.187-.247.044zm28.813-4.187l.2-.113.73-.424c1.87-1.063 2.843-1.423 4.152-1.13l1.094.24 5.943 1.08 2.266.36 2.28.156c4.746.335 8.286.665 11.545 1.116l.688.097 5.08-.008c2.062 0 3.636.022 5.225.08 7.2.262 13.45 1.318 20.9 3.797l.802.27a8.15 8.15 0 0 0 .621.178l.6.145 1.154.258c1.015.23 1.713.4 2.374.64 1.063.367 1.88.802 2.52 1.494 1.107 1.196 1.28 2.853.443 4.3-.92 1.6-2 2.365-3.785 2.82l-.092.022.146.072c.648.336 1.17.836 1.4 1.737l.046.215c.237 1.315-.356 2.196-1.173 2.763a3.71 3.71 0 0 1-.864.436c-.327.12-.73.233-1.25.354l-.27.06a46.87 46.87 0 0 1-1.278.263l-.364.07-.07.107c-.493.708-1.306 1.2-2.28 1.254l-.184.007c-1.042.014-2.052-.018-3.073-.1l-.795-.074 3.43.534.226.04.416.08a7.49 7.49 0 0 1 .345.077c.566.14.858.24 1.317.6 1.168.937 1.515 2.82.14 4.08a2.54 2.54 0 0 1-1.32.672c-.28.062-.57.1-.956.1l-1.534.063-.5.013-.012.107a2.83 2.83 0 0 1-.942 1.698l-.137.114c-.388.305-.793.485-1.255.62-11.6 3.363-23.027 2.477-34.648-2.06-9.286-3.625-18.18-9.254-28.907-17.678a2.66 2.66 0 0 1 3.146-4.289l.117.086.058-.132a2.8 2.8 0 0 1 .53-.763l.14-.133c.624-.56 1.193-.794 1.966-.822l.17-.003-.024-.106a2.64 2.64 0 0 1-.044-.334l-.003-.06-.068-.088-.113-.167a2.67 2.67 0 0 1-.417-1.23 2.69 2.69 0 0 1 .88-2.238c.54-.486 1.027-.66 1.547-.697l.114-.006.063-.036c.45-.25.954-.443 1.518-.6h.04zm8.677 18.038c4.284 2.608 8.392 4.68 12.547 6.303 6.918 2.7 13.7 3.975 20.46 3.7l.556-.028-1.314-.24-1.444-.25-3.862-.646c-5.772-.978-8.726-1.642-12.135-2.867l-1.12-.412c-3.4-1.27-8.227-3.246-12.817-5.23l-1.206-.524.333.205zm27.906-6.497l1.743.8c2.613 1.187 4.087 1.77 5.865 2.3l1.182.354a107.94 107.94 0 0 0 4.616 1.27l.3.075-.458-.226a26.15 26.15 0 0 0-2.049-.878l-.512-.187c-2.992-1.054-6.048-2.067-9.24-3.065l-1.456-.452z" class="I"/><path d="M1107.364 459.928c5.784-1.792 10.428-.738 18.07 2.9l3.558 1.73.207.098a2.661 2.661 0 1 1-2.278 4.81l-1.986-.963-.887-.435c-7.064-3.454-10.793-4.403-15.107-3.066-2.943.912-4.012 7.578-3.53 15.128.576 9 12.993 13.795 21.686 9.457a2.661 2.661 0 0 1 2.377 4.762c-11.768 5.874-28.524-.583-29.374-13.88-.215-3.37-.18-6.763.348-10.06.87-5.43 2.94-9.26 6.918-10.492zm55.854 11.272c5.702-5.14 10.86-7.563 15.26-7.206 4.315.35 7.38 3.328 8.563 7.7 2.27 8.406-2.493 19.053-11.575 23.05-2.658 1.17-5.3 1.746-8.203 1.878l-.547.02c-1.894.05-3.24-.03-6.505-.34l-2.406-.227-1.263-.103a2.661 2.661 0 0 1 .392-5.308l1.096.088 1.582.146 2.355.22c2.157.192 3.24.238 4.6.202 2.46-.065 4.6-.5 6.747-1.448 6.62-2.912 10.178-10.87 8.58-16.8l-.104-.358c-1.56-4.96-6.6-5.176-15.017 2.422a2.661 2.661 0 1 1-3.564-3.953z" class="H"/></g><path d="M1071.142 416.815c-1.5-26.347 21.8-33.052 28.26-8.8 4.928 18.502-21.933 20.257-30.4 8.8m89.998 3.86c.47-5.554.123-11.23 1.4-16.662 5.585-23.564 36.084-.702 19.9 18.988" class="I"/><path d="M1169.177 437.608l.028.474.04.853c.09 2.266.048 4.503-.103 7.435l-.27 4.767-.207 4.325-.59 8.803-.025.273c-1.204 12.898-3.956 22.342-9.685 29.81-8.506 11.085-18.467 11.007-25.59 1.742-5.9-7.686-8.72-20.408-6.528-30.2l.4-1.768c4.177-18.325 7.132-26.07 10.178-28.27l.107-.076-.045-.742-.468-6.61a2.66 2.66 0 1 1 5.31-.361l.488 6.905c.065 1.02.084 1.6.064 2.065l-.005.106c-.08 1.353-.63 2.456-1.998 2.984-.073.028-.172.06-.272.09l-.2.055-.13.16a5.95 5.95 0 0 0-.194.272l-.08.12c-.467.716-1.012 1.82-1.628 3.37l-.133.34c-1.737 4.473-3.792 11.79-6.196 22.523-1.85 8.252.606 19.36 5.553 25.793 5.006 6.5 10.787 6.556 17.15-1.737 4.897-6.383 7.392-14.745 8.542-26.376l.16-1.73c.2-2.3.334-4.38.507-7.84l.23-4.78.214-3.667c.188-3.45.23-5.85.097-8.35-.385-7.188 4.774-8.94 5.287-.76z" class="D H"/><path d="M1120.242 372c6.326 0 12.75.457 19.27 1.37l1.224.177a6 6 0 0 1 5.043 4.956c1.93 11.72 2.714 23.662 2.347 35.826 1.7 1.233 3.942.95 6.726-.845-.306-11.872.485-23.532 2.37-34.98a6 6 0 0 1 4.841-4.923l.203-.034 1.224-.177c6.52-.914 12.944-1.37 19.27-1.37l1.487.007c8.308.076 25.104.748 50.386 2.016a6.76 6.76 0 0 1 5.978 4.336l.074.204.25.73c3.775 11.237 5.663 23.79 5.663 37.66 0 13.235-1.76 24.757-5.276 34.567a9.01 9.01 0 0 1-8.164 5.957l-.235.005-3.62.03c-7.11.047-13.464.022-19.06-.074l-3.226-.057-39.548-.015c-4.3.025-8.006-2.982-8.875-7.162l-.044-.225-.206-1.15c-1.026-5.83-1.836-11.878-2.43-18.143-2.883-3.094-5.845-3.334-8.888-.72a201.03 201.03 0 0 1-3.786 22.485l-.29 1.263c-.922 3.95-4.382 6.796-8.445 6.945l-17.994.637-20.507.6-2.625.048-20.075.05-1.818-.016a9.01 9.01 0 0 1-8.388-5.929c-4.462-12.29-6.693-25.323-6.693-39.097 0-13.87 1.888-26.423 5.663-37.66l.25-.73c.9-2.604 3.294-4.402 6.052-4.54l8.527-.42 43.346-1.603zm-7.5 7.492l-1.183.044c-7.523.31-18.066 1.27-31.63 2.885l-2.206.265a3 3 0 0 0-2.628 2.69l-.172 1.835c-2.738 29.79-1.898 50.443 2.52 61.96 1.96 5.11 21.237 5.86 57.828 2.248l.33-2.79c1.95-16.72 2.822-28.986 2.61-36.797l-.01-.318c-.257-8.215-1.234-18.4-2.933-30.525-6.64-1.277-14.152-1.776-22.53-1.498zm69.093 0l-.812-.025c-7.87-.22-12.295.288-13.273 1.523l-.227 1.643c-1.56 11.414-2.46 21.04-2.705 28.883l-.02.758c-.18 8.206.743 20.256 2.768 36.15 38.093 2.114 58.12.616 60.08-4.495 4.5-11.727 4.636-31.272.41-58.634a3 3 0 0 0-2.695-2.528l-6.67-.6c-17.378-1.543-29.664-2.433-36.858-2.672z" class="L"/><path d="M1115.646 521.318a2.66 2.66 0 0 1 3.744-.381c5.064 4.13 12.075 5.885 21.21 5.84l.896-.01c3.883-.063 7.785-.413 13.372-1.107l5.223-.652c6.362-.778 7.662-.823 10.12-.58 3.32.33 3.47 4.453 1.58 6.177l-.062.053-3.292 3.28a2.66 2.66 0 0 1-.348.292l-.192.123c-2.753 1.602-5.46 2.7-8.185 3.168-1.472.258-2.836.165-4.974-.205l-1.498-.27-.322-.055.282.14c1.4.708 2.28 1.314 3.004 2.168l.143.174c2.627 3.32 2.667 6.663-.15 8.793-1.726 1.305-4.264 1.927-7.594 2.2-1.704.135-3.334.16-5.327.122l-1.884-.04a2.66 2.66 0 0 1-.294-5.314c.128-.007.264-.01.443-.008l1.253.028c2.11.05 3.74.036 5.4-.094 2.27-.18 3.964-.577 4.704-1.06l.07-.05c-.074-.224-.275-.598-.662-1.108l-.122-.157c-.208-.263-.887-.676-2.19-1.29l-1.64-.76-.138-.066c-1.325-.64-2.17-1.16-2.842-1.905-1.3-1.44-1.406-3.397-.13-4.988a5.99 5.99 0 0 1 2.821-1.971l.2-.067-.054.005c-2.53.218-4.8.335-7.086.36l-.493.004c-10.257.052-18.414-1.99-24.6-7.036a2.66 2.66 0 0 1-.381-3.744zm49.285 8.6l.115-.114-.92.094-2.045.232-7.27.9-1.95.23-1.467.163.14.01c.567.04 1.188.125 2.012.264l1.728.3c1.783.322 2.763.405 3.52.273 1.904-.334 3.895-1.105 5.98-2.27l.16-.092z" class="D H"/><path d="M1210.153 610.123c-32.352-41.272-93.186-46.825-144.03-44.754s-68.03 14.45-93.493 54.43-19.786 71.142-5.286 100.66c7.256 14.772 20.272 27.36 36.773 37.392C1012.875 763.177 1026 770 989 781s65.145-2.588 76.33-.378c56.014 11.067 119.512 1.746 149.257-34.762 28.255-34.68 10.585-90.107 2.388-125.79l-6.823-9.946z" fill="#fff"/><path d="M759.375 713.52l194.25 13.53c2.85 11.167 4.224 33.035 4.12 65.602l.483-.303c2.542-1.577 4.614-2.565 8.893-3.5l.58-.122c5.56-1.134 17.545-2.553 22.166-1.358 12.622 3.264 18.496 19.296 11.225 30.048-9.187 13.585-28.283 22.62-44.132 17.888l-.152 4.796-3.182 71.112c-66.5 9.52-152.25 9.52-257.25 0-3.465-65.486 17.082-130.727 61.642-195.722l1.358-1.97z" fill="#00ffd1"/><g class="G"><g class="D"><path d="M746.636 697.524a2.66 2.66 0 0 1 2.612 2.71l-.01.33-.08 1.297-.216 2.735-.088 1.198-.196 6.113c.076 4.305.736 7.444 1.945 8.988 5.104 6.52 13.835 13.12 22.445 16.58 9.923 3.988 18.616 3.588 24.808-1.842a2.66 2.66 0 1 1 3.509 4.002c-7.924 6.95-18.693 7.444-30.302 2.78-9.483-3.81-18.974-10.984-24.65-18.236-2.12-2.71-2.98-6.797-3.076-12.176-.04-2.222.05-4.436.25-7.172l.243-3.098.08-1.203.014-.393a2.66 2.66 0 0 1 2.71-2.612z"/><path d="M761.778 699.014a2.66 2.66 0 0 1 3.409 1.594c5.964 16.434 11.1 23.99 22.028 29.465l1.486.74c.86.422 1.513.73 2.307 1.083 2.063.92 3.957 1.617 5.706 2.06 3.52.893 5.942.64 7.246-.723l.127-.14a2.66 2.66 0 1 1 4.045 3.459c-2.897 3.387-7.337 3.93-12.726 2.563-1.874-.475-3.814-1.168-5.874-2.055l-.69-.303c-1.2-.535-2.1-.964-3.663-1.75l-.348-.174c-12.42-6.225-18.26-14.814-24.646-32.407a2.66 2.66 0 0 1 1.594-3.409z"/><path d="M782.185 696.405a2.66 2.66 0 0 1 3.183 2.008l.292 1.28c2.176 9.42 4.003 15.08 6.85 20.078 3.722 6.54 8.688 10.397 15.654 11.537a2.66 2.66 0 1 1-.86 5.252c-8.665-1.42-14.946-6.3-19.42-14.157-3.31-5.813-5.288-12.13-7.707-22.814a2.66 2.66 0 0 1 2.008-3.183z"/><path d="M800.747 704.752l.844-4.548a2.66 2.66 0 0 1 5.249.814l-.024.18-1.258 6.94-.52 3.353-.11.797c-.56 4.114-.743 7.246-.48 8.75 2.8 15.96 18.1 26.117 34.174 22.58 5.293-1.165 8.738-2.995 12.898-6.494l.648-.56 6.556-5.83a2.66 2.66 0 1 1 3.478 4.029l-.436.38-6.82 6.053c-4.782 4.023-8.987 6.257-15.18 7.62-19.013 4.184-37.235-7.905-40.56-26.86-.39-2.23-.185-5.728.448-10.387l.5-3.415.146-.892.438-2.512z"/><path d="M816.744 702.704a2.66 2.66 0 0 1 2.661 2.661l.01 2.92c.03 2.29.15 2.635.598 3.63l.094.19c.67 1.298 4.06 7.213 6.274 11.288l.537.996c8.27 15.47 17.383 17.05 31.683 6.652a2.66 2.66 0 1 1 3.13 4.305c-16.64 12.1-29.4 10.04-39.2-7.9l-1.26-2.323-6.07-10.956-.16-.357c-.908-2.06-.95-2.792-.95-8.446a2.66 2.66 0 0 1 2.661-2.661z"/><path d="M831.76 702.674a2.66 2.66 0 0 1 3.329 1.755c4.844 15.64 12.06 23.965 25.102 27.064a2.66 2.66 0 1 1-1.231 5.178c-15.114-3.592-23.603-13.387-28.956-30.668a2.66 2.66 0 0 1 1.755-3.329z"/><path d="M856 701.074a2.66 2.66 0 0 1 2.702 2.62l.007.684-.066 3.173-.218 4.667c-.21 4.914-.11 7.363.51 10.19 2.66 12.14 11.385 18.9 23.673 19.868 11.325.902 24.003-3.444 31.864-10.87a2.66 2.66 0 1 1 3.655 3.868c-8.967 8.474-23.13 13.328-35.94 12.308-14.508-1.155-25.26-9.47-28.45-24.035-.763-3.483-.864-6.306-.613-11.94l.198-4.217c.06-1.48.075-2.48.057-3.614a2.66 2.66 0 0 1 2.62-2.702z"/><path d="M873.353 700.335a2.66 2.66 0 0 1 2.62 2.702l-.01.38c-.027.746-.105 1.438-.27 2.58l-.1.61c-.412 2.743-.43 3.814.001 4.792 2.81 6.408 7.608 13.87 12.793 19.173 6.44 6.586 12.888 9.432 18.9 7.753 1.376-.384 2.476-1.04 4.726-2.75l1.34-1.026c1.016-.773 1.62-1.202 2.387-1.685a2.66 2.66 0 1 1 2.839 4.502l-.415.27a28.8 28.8 0 0 0-1.428 1.029l-1.57 1.2c-2.752 2.087-4.245 2.973-6.45 3.588-8.26 2.303-16.488-1.33-24.144-9.16-5.666-5.793-10.807-13.792-13.862-20.756-.945-2.154-.954-3.846-.448-7.326l.2-1.375c.117-.85.16-1.344.17-1.882a2.66 2.66 0 0 1 2.702-2.62z"/><path d="M889.767 701.277a2.66 2.66 0 0 1 3.138 2.078l1.14 5.522.246 1.13.2.892c3.265 14.345 6.8 17.498 22.508 19.053a2.66 2.66 0 0 1-.524 5.296l-1.1-.113c-17.19-1.877-22.354-6.85-26.06-22.963l-.552-2.508-1.08-5.25a2.66 2.66 0 0 1 2.078-3.138z"/><path d="M914.554 702.41a2.66 2.66 0 0 1 2.771 2.546l.044 1.285.033 2.887-.008 5.413.2 8.51.02.306c.912 14.684 5.132 22.426 15.2 23.47 5.73.594 11.475.446 20.176-.3 2.95-.253 4.966-1.03 7.387-2.702l.333-.233c.785-.56 4.327-3.324 5.415-4.116a2.66 2.66 0 1 1 3.131 4.304l-.858.644-4.48 3.416-.12.087c-3.304 2.353-6.25 3.55-10.352 3.903l-1.56.13c-8.16.658-13.838.76-19.62.162-7.238-.75-12.413-4.333-15.652-10.274-2.486-4.56-3.762-10.266-4.264-17.46l-.046-.7c-.16-2.578-.218-4.782-.228-8.223l.004-6.89a85.09 85.09 0 0 0-.07-3.392 2.66 2.66 0 0 1 2.546-2.771z"/><path d="M927.998 702.114a2.66 2.66 0 0 1 2.767 2.551l.036.982.08 3.722.046 7.386c.073 8.47.37 12.597 1.4 17.333 1.46 6.708 4.29 12.055 9.113 16.547 6.424 5.984 24.694-1.033 25.058-9.06l.006-.244a2.66 2.66 0 1 1 5.322 0c0 12.913-24.214 22.326-34.014 13.198-5.66-5.273-9.008-11.592-10.686-19.31l-.137-.644c-1.06-5.124-1.334-9.648-1.392-18.82l-.026-5.147-.02-1.722-.106-4.006a2.66 2.66 0 0 1 2.551-2.767z"/><path d="M938.6 714.883a2.66 2.66 0 0 1 2.901-2.397 2.66 2.66 0 0 1 2.408 2.733l-.01.168c-.48 5.046 3.045 17.688 7.803 26.202 5.663 10.134 11.24 12.875 16.9 7.192a2.661 2.661 0 1 1 3.768 3.759c-4.634 4.644-9.753 5.722-14.66 3.3-3.938-1.935-7.504-6.007-10.665-11.665-5.242-9.38-9.05-23.04-8.455-29.302zm-117.26 33.965l.44-.214c1.2-.56 2.028-.7 3.167-.177 1.288.602 1.783 1.836 1.654 3.04-.06.552-.238 1.07-.52 1.655-.664 1.373-2.064 2.9-3.937 4.456l-.442.36.125.084c.764.538 1.244 1.458 1.12 2.5l-.026.176a2.87 2.87 0 0 1-.17.594l-.015.03.215-.025c.063-.005.124-.005.207.001l.504.05.268.078c.682.206.772.322 1.624 1.426l.157.714c.105.514.104.695.018 1l-.03.103.137.05a2.65 2.65 0 0 1 1.356 1.179l.08.156a2.66 2.66 0 0 1-1.102 3.467l-7.48 3.642-13.3 6.2-4.25 1.876-1.033.446c-7.716 3.316-14.085 5.697-18.773 6.9-2.873.743-5.127 1.056-6.852.86-2.78-.317-4.646-2.176-4.245-5 .5-3.6 2.456-6.128 5.575-7.73l.37-.182.017-.096a2.86 2.86 0 0 1 .096-.351l.166-.468.235-.35a1.86 1.86 0 0 1 .497-.536l.287-.188a1.48 1.48 0 0 1 .281-.152l.246-.097c.203-.072.397-.1.9-.192l.925-.145a60.49 60.49 0 0 1 3.468-.405l.914-.082.295-.043 1.624-.246 1.128-.182-.384.02c-5.575.266-10.312-.347-12.548-2.24l-.167-.148c-1.672-1.554-2.432-3.37-1.1-5.22.824-1.137 2.002-1.566 3.715-1.77l.3-.032c1.908-.195 3.837-.142 8.77.157l3.247.194c3.842.212 5.97.227 7.48.013 2.2-.313 5.06-1.218 8.042-2.443l.292-.12-.78.087c-2.923.312-6.243.524-10.792.732l-6.75.293-6.268.375a2.661 2.661 0 1 1-.415-5.306l1.347-.1 4.024-.235 7.693-.338c8.06-.368 12.104-.738 16.923-1.655.87-.165 2.387-.9 4.472-2.156l.616-.376 1.213-.762 2.634-1.685.562-.352c.8-.495 1.4-.85 1.95-1.12zM791.5 779.53l-1.387.056c-9.634.43-13.332 1.466-14.36 4.588l-.015.05.04-.001c.915-.03 2.233-.245 3.876-.654l.357-.1c2.77-.716 6.263-1.906 10.36-3.502l1.132-.446z"/></g><path d="M793.133 785.597c12.374 7.525 6.604 14.75 1.867 30.403-5.316 17.567-11.44-4.046-12.227-10.003-2.242-16.946 1.21-23.746 10.36-20.4z"/><g class="D"><path d="M838.68 755.705l2.593.218 10.828.865.838.077c1.52.15 2.157.304 2.986.703l.134.066.386.192c1.037.51 1.633.763 3.118 1.262l.876.3c3.636 1.192 9.358 2.766 17.77 4.83l.605.148c1.396.34 3.728.637 7.383.975l6.09.545 1.294.133c1.473.162 2.424.314 3.08.512.49.148.886.323 1.297.67 1.17.993 1.38 2.784.247 4.003-.644.694-1.26.904-2.492 1.162-6.262 1.3-17.045 1.41-27.126.473l-.503-.048.02.015c1.867 1.292 3.626 2.396 5.464 3.408l.694.375c.612.326 1.978.735 3.876 1.17l.612.136 4.41.898.358.078.3.07.132.034c.473.126.734.212 1.075.445l.294.215c.337.26.392.384.888 1.51l-.047.62c-.09 1.086-.173 1.307-.684 1.796l-.293.272-.034.023 1.758.434c.482.123.827.217 1.004.276l.058.02c.325.12.6.243.855.4.656.38 1.14.825 1.396 1.733.112.395.142.763.108 1.1l-.02.14.07.064.168.17c1.233 1.346.96 3.373-.56 4.376-9.646 6.37-20.585 6.943-32.567 2.856-8.853-3.02-17.257-8.02-27.923-15.805a2.66 2.66 0 0 1 3.138-4.299l1.386 1.005c9.608 6.917 17.27 11.385 25.117 14.062 8.078 2.756 15.4 3.114 22.04.71l.395-.147-.576-.118-4.706-1.028-.668-.156-.308-.028c-5.517-.523-9.432-1.097-13.298-2.06l-.446-.113c-5.735-1.473-10.764-3.255-15.3-5.53-1.262-.632-2.177-1.28-3.59-2.5l-.673-.59-.62-.247-8.492-3.523-1.107-.474c-.24-.103-.446-.206-.646-.332-.643-.405-1.083-.837-1.284-1.807a2.69 2.69 0 0 1 .815-2.53 2.67 2.67 0 0 1 1.121-.625c.317-.09.6-.118.894-.122.56-.008 1.355.09 2.323.26a33.23 33.23 0 0 1 2.867.632l.14.038-.008-.017a9.18 9.18 0 0 1-.71-2.64l-.025-.25c-.123-1.422.524-2.39 1.484-2.962l.047-.027-.115-.12-.15-.178c-.604-.77-.892-1.818-.42-2.83l.028-.057-.096-.01a2.66 2.66 0 0 1-2.266-2.691l.01-.168a2.66 2.66 0 0 1 2.879-2.424zm7.254 15.49l.117.085c2.738 1.96 7.026 3.922 12.63 5.8l.273.1-.617-.266-1.065-.467-1.192-.53-10.147-4.7zm5.915-9.087l.09.04c2.2.97 4.337 2.2 6.63 3.736l.387.262.578.11c3.055.558 6.447.998 9.925 1.31l.457.04-2.574-.68c-3.077-.825-5.583-1.547-7.59-2.18l-.968-.31-.727-.242a41.35 41.35 0 0 1-2.605-.968l-.23-.098a20.39 20.39 0 0 1-.746-.337l-.32-.157-.555-.28c-.188-.084-.385-.123-1.18-.196l-.568-.05z"/><path d="M831.996 781.354a2.66 2.66 0 0 1 3.602 3.914l-.134.123c-.56.48-.996 1.58-1.158 3.014-.563 5-.625 9.814-.144 14.374 1.57 14.895 14.14 27.076 26.907 23.476 3.088-.87 8.266-6.968 13.334-15.55 2.05-3.472 3.95-7.124 5.4-10.33l.302-.68c1.282-2.927 2.04-5.238 2.076-5.973l.001-.073a2.661 2.661 0 1 1 5.321-.128c.075 3.095-3.54 11.403-8.258 19.468l-.25.424c-5.8 9.803-11.54 16.574-16.472 17.965-16.435 4.635-31.768-10.22-33.645-28.04-.523-4.96-.456-10.158.148-15.527.297-2.643 1.2-4.937 2.98-6.457zm-42.9-10.254c2.114-1.107 4.287-.2 6 1.403a2.66 2.66 0 0 1-3.507 4l-.132-.115a2.77 2.77 0 0 0-.254-.21l-.073-.052-.063.06c-.446.44-.876 1.152-1.222 2.053l-.092.25c-1.67 4.745-2.8 9.422-3.367 13.973-1.02 8.37 1.903 17.84 7.457 23.52a2.661 2.661 0 1 1-3.806 3.721c-6.72-6.875-10.145-17.96-8.934-27.885.604-4.952 1.836-10 3.63-15.096.883-2.5 2.287-4.54 4.354-5.62z"/><path d="M822.876 767.05a2.66 2.66 0 0 1 4.867 2.153l-.374.836c-4.186 9.267-8.794 16.17-19.206 29.9l-2.723 3.587c-8.054 10.648-11.942 16.326-15.547 23.237l-4.615 8.97-1.5 2.982c-.766 1.562-1.465 3.037-2.1 4.445-1.877 4.16-3.15 7.61-3.716 10.22-.287 1.33-.373 2.375-.276 3.068.027.2.062.325.097.41l.01.02.31.17c12.26 6.46 35.747-3.692 44.487-17.455l.263-.422c2.46-4.035 6.308-4.49 10.298-2.26 1.32.738 2.626 1.72 4.128 3.038l.5.447 3.382 3.078c12.188 9.852 18.423 22.278 19.442 37.03.857 12.4-1.928 26.107-7.842 41.91a2.66 2.66 0 1 1-4.985-1.866c12.116-32.372 10.64-55.836-9.35-72.434l-.61-.5c-.7-.558-3.505-3.18-3.706-3.36-1.397-1.25-2.535-2.125-3.554-2.694-1.664-.93-2.333-.892-3.073.248l-.086.136c-4.426 7.26-13.287 14.375-23.052 18.604-10.822 4.687-21.415 5.353-29.233.933-2.843-1.607-3.297-4.85-2.352-9.222.66-3.056 2.048-6.815 4.067-11.287.55-1.22 1.144-2.482 1.784-3.8l.755-1.535 5.4-10.56c4.025-7.856 8.158-13.87 17.275-25.885l2.754-3.628c9.845-13.028 14.118-19.57 18.072-28.508z"/><path d="M807.583 854.375a2.66 2.66 0 0 1 3.062 2.188c1.77 10.638 1.95 20.736.823 32.073-.394 3.958-.94 8.054-1.693 12.844l-.292 1.83-.49 2.975-2.524 14.697-.84 5.116a2.66 2.66 0 1 1-5.256-.836l.347-2.153.5-3.008.722-4.234 1.486-8.597.67-3.994.133-.818c.9-5.496 1.512-10.02 1.943-14.35 1.084-10.894.913-20.526-.777-30.672a2.66 2.66 0 0 1 2.188-3.062z"/><path d="M855.48 877.557a2.66 2.66 0 1 1 2.581 4.654l-1.275.7c-20.627 11.22-31.8 11.716-52.413 1.9a2.66 2.66 0 1 1 2.29-4.804l1.153.544c18.646 8.684 28.064 7.886 47.663-2.984z"/></g><path d="M833.722 782.6c12.374 7.525 19.907 20.056 15.17 35.71-5.316 17.567-17.992-6.346-18.78-12.303-3.363-25.42 2.647-7.727 2.647-20.27"/></g><path d="M569.78 1300.08c-9.988-12.878-28.77-14.61-44.466-13.964s-21.003 4.51-28.864 16.984 77.967 11.218 75.436.084l-2.106-3.103z" class="H"/><path d="M533.515 1157c.5 11.03.7 48.677-.223 63.79-.03.474-.9 0-1.35 0" stroke="#0d62fe" stroke-width="12.322" class="B C"/><path d="M562.896 1115.75c11.54.83 27.045-4.502 27.045 10.864 0 10.244-14.02 13.72-42.064 10.427v21.99l-27.83 2.47v-24.46c-28.976 2.744-42.997-.732-42.064-10.427.6-6.243 4.887-8.598 14.065-9.4 3.383-.295 9.97-.295 19.763 0 26.363-1.53 43.39-2.018 51.084-1.465z" class="G"/><path d="M516.874 1189.5h31.52l.792 11.406c.14 2.285.727 21.48 1.756 57.58l-1.316 24.162-33.367 2.85-1.316-57.885 1.933-38.115z" class="K"/><g stroke="#011638" stroke-width="7.322" class="C"><path d="M507.78 1299c-19.82-.412-5-37-66.233-36.945-79.25.07-86.146 61.917-31.606 46.945 51-14 12.77-61.154-36-77s-202.206-23.133-90 7 108.22-25.49 113-48-9.487-96.178-9.072-127.973" class="B"/><path fill="#fff" d="M405.78 1049l-7 35h-33v-40z"/></g><path d="M605.922 1141.815c-1.5-26.347 21.8-33.052 28.26-8.8 4.928 18.502-21.933 20.257-30.4 8.8" class="I"/><path d="M646.212 1051.968c8.98 0 18.1.65 27.356 1.948l1.737.25c3.665.545 6.56 3.393 7.16 7.046 2.742 16.663 3.852 33.64 3.332 50.934 2.413 1.752 5.596 1.35 9.55-1.202-.434-16.88.688-33.456 3.366-49.732.585-3.557 3.344-6.35 6.872-7l.288-.048 1.737-.25c9.257-1.3 18.376-1.948 27.356-1.948l2.11.01c11.795.108 35.638 1.064 71.53 2.866 3.81.19 7.136 2.62 8.486 6.165l.105.3.353 1.04c5.36 15.976 8.04 33.823 8.04 53.543 0 18.816-2.497 35.197-7.5 49.145-1.767 4.937-6.367 8.284-11.6 8.47l-.334.008-5.137.042c-10.095.066-19.113.03-27.057-.106l-4.58-.08-56.143-.02c-6.104.035-11.366-4.24-12.6-10.182l-.062-.32-.292-1.634c-1.456-8.29-2.606-16.887-3.45-25.794-4.092-4.4-8.298-4.74-12.617-1.023-1.175 10.682-2.967 21.337-5.375 31.968l-.413 1.796c-1.31 5.617-6.22 9.662-11.99 9.874l-25.545.906-29.112.85-3.727.068-28.5.07-2.58-.023c-5.34-.05-10.088-3.41-11.907-8.43-6.335-17.474-9.502-36.002-9.502-55.585 0-19.72 2.68-37.567 8.04-53.543l.353-1.04c1.276-3.703 4.677-6.258 8.59-6.455l12.105-.598 61.535-2.278zm-10.78 10.106l-1.677.063c-10.665.44-25.613 1.814-44.842 4.12l-3.127.378a4.27 4.27 0 0 0-3.726 3.841l-.244 2.62c-3.882 42.53-2.7 72.016 3.575 88.46 2.78 7.297 30.108 8.367 81.984 3.21l.47-3.98c2.766-23.872 4-41.383 3.702-52.534l-.013-.455c-.364-11.728-1.75-26.255-4.157-43.58-9.416-1.823-20.063-2.536-31.942-2.14zm98.324 1l-1.15-.035c-11.15-.31-17.418.408-18.803 2.156l-.322 2.325c-2.208 16.158-3.486 29.787-3.833 40.887l-.028 1.073c-.255 11.617 1.052 28.675 3.922 51.174 53.966 2.993 82.338.87 85.116-6.364 6.374-16.6 6.568-44.27.582-83.005a4.25 4.25 0 0 0-3.818-3.579l-9.448-.85c-24.62-2.184-42.025-3.444-52.217-3.782z" class="L"/><path d="M661.155 1064.52l194.25 13.53c1.9 7.445 2.96 45.128 3.182 113.05l-3.182 71.112c-66.5 9.52-152.25 9.52-257.25 0-3.465-65.486 17.082-130.727 61.642-195.722l1.358-1.97z" class="K"/><g class="E B C F"><path d="M751.78 1241.7c20.95-9.986 31.325-8.537 51.252 2.516m-202.252-29.7c20.95 9.986 31.325 8.537 51.252-2.516"/><path d="M672.715 1068c-.215 12.262-7.018 58.715 6.237 76.594 32.545 43.898 115.948 97.93 165.828 51.736"/><path d="M678.16 1169.306c3.16-8.323 5.434-15.533 15.343-20.922 5.495-2.99 12.626-1.964 18.752-.698 5.262 1.087 10.542 3.637 14.26 7.516 16.62 17.346 1.243 43.32-18.91 46.65-7.4 1.222-27.04 3.848-31.383-6.5" fill="#ff4445"/><path d="M724.78 1072c15.666 46.232 31.98 83.602 75.24 106.822 14.95 8.025 49.843 26.862 64.76 8.18m-75-123.002c10.944 51.387 25.84 109.575 80 119"/></g><path d="M409.162 656.843c.544 3.833 1.017 9.454 1.452 15.62-12.24.813-24.63.49-37.012-.4 6.96-23.214 10.734-44.6 14.878-73.652.808-5.662 1.337-11.37 1.8-17.09l5.352-.26a23.87 23.87 0 0 0 1.285-.094c3.378 25.386 8.65 50.502 12.247 75.862zm-.383-79.194c.707 3.076 1.37 6.19 1.987 9.333l.294 1.514.234.422.137.243 1.907 1.72c15.176 13.602 31.053 26.414 46.93 39.2l2.507 2.02c2.647 2.132 5.56 4.003 8.677 5.356 6.406 2.78 13.033 5.015 19.6 7.396-7.284 4.374-15.285 8.436-24.193 13.01-4.758 2.442-9.586 4.526-14.475 6.294-4.494-6.696-9.078-13.342-13.1-20.322-4.94-8.575-8.794-17.752-13.295-26.564l-.617-1.193.8 1.935c3.55 8.702 6.655 17.596 10.382 26.223l.945 2.15c2.486 5.556 5.347 10.973 8.677 16.07l2.082 3.115c-10.054 3.256-20.345 5.242-30.768 6.32.685-24.142-.85-50.372-4.97-75.213l-.262-1.557-.992-1.4-9.86-13.54.945-.248c2.715 3.082 5.56 6.043 8.597 8.797h0l.19.17-.058-.31-.018-.1-.635-1.146c-1.553-2.826-3.043-5.684-4.39-8.61.777-.284 1.56-.592 2.347-.92zM382.39 581.7c-.29 8.155-.818 16.077-2.846 25.65l-4.714 22.18-.307 1.672-6.2 33.29c-.526 2.798-1.012 5.116-1.46 7.05l-1.116-.098-.006.032 9.1-41.946.5-2.705c14.87-80.97-4.287 12.227-10.364 44.563l.003-.012c-8.925-.8-17.826-1.823-26.64-2.85 1.266-2.09 2.502-4.195 3.693-6.327 9.5-17.006 18.517-34.288 27.063-51.79 1.77-3.624 2.804-7.576 3.828-11.476 1.49-5.676 3.15-11.34 4.36-17.083l5.082-.147zm-11.847.124l-.267.796c-16.118 48.39-2.922 26.504-32.532 85.83l-10.02-1.154-7.992-5.99 19.48-33.295c3.36-5.75 6.645-11.564 9.446-17.606 4.463-9.626 8.216-19.57 12.413-29.315 3.15.417 6.29.64 9.472.73zm-19.176-2.666l-1.3 3.038-19.528 47.602c-3.5 7.934-7.528 15.635-11.742 23.215l-3.016 5.33-1.323-1c-3.618-.786-7.965-2.267-12.684-4.226 11.066-14.4 21.847-29.03 31.318-44.502 5.93-9.687 10.87-19.913 15.602-30.255a70.41 70.41 0 0 0 2.682.789zm-10.816-4.043l-.42.707-3.22 5.252c-4.82 7.67-10.594 14.717-15.317 22.446-7.03 11.505-12.728 23.797-19.913 35.206-2.36 3.745-4.79 7.442-7.267 11.1-9.918-4.728-20.588-10.906-29.224-16.842 16.427-10.98 31.546-23.952 44.152-37.893 7.82-8.647 15.158-17.707 22.452-26.808 2.485 2.696 5.378 5.014 8.757 6.82zm85.244-7.458c4.468 2.853 8.83 5.898 13.235 8.823 4.848 3.22 9.022 7.368 13.784 10.713 6.99 4.9 14.17 9.555 21.445 14.033 4.475 2.754 8.995 5.487 13.784 7.65 7.66 3.46 15.448 6.73 23.488 9.187l8.006 2.34a89.96 89.96 0 0 1-14.609 14.871c-21.676-17.153-44.202-33.24-65.9-50.374-5.863-4.63-11.52-9.52-17.067-14.526a93.63 93.63 0 0 0 3.225-2.267zm-14.66 21.237l.245 1.3.878 4.922.26.37c2.913 4.132 5.74 8.32 8.384 12.63 1.523 2.48 2.936 5.023 4.284 7.6l.185.358-.098-.236a182.65 182.65 0 0 0-2.839-6.45c-3.022-6.5-6.728-12.66-10.262-18.907l-.743-1.32-.295-.266zm-84.62-27.82l-1.513.995c-34.843 22.893-54.28 33.863-78.603 53.236-6.34-9.888-11.244-23.552-14.452-33.2 2.294-.902 4.603-1.763 6.935-2.56 11.467-3.923 23.742-5.392 34.972-9.95l47.796-19.433c1.298 3.833 2.9 7.523 4.865 10.914zm123.76-26.563c21.354 3.326 53.665 3.466 62.533 4.212 12.726 1.07 25.295 3.717 38.036 4.593.3.02 1.702.047 3.844.058-.357 5.722-1.056 11.08-2.312 14.995a142.03 142.03 0 0 1-1.764 5.151c-13.638-3.277-27.143-7.123-40.87-10.002-11.465-2.405-26.823-4.678-42.447-7.867l-.994-.204 1.37.576c26 10.922 52.307 21.72 79.935 25.14-5.916 14.032-13.836 27.78-21.852 40.32-6.695-4.046-13.1-8.594-19.84-12.552-11.698-6.86-23.828-12.974-35.488-19.9-3.674-2.182-7.14-4.716-10.467-7.398-6.817-5.496-13.203-11.528-19.897-17.17 3.697-4.317 6.652-8.8 8.435-13.187 5.795 1.558 11.764 2.922 17.708 4.15l.096.02-1.606-.675-15.208-6.33a22.3 22.3 0 0 0 .773-3.802zm-132.552-.6l-.242.09-.988.385c-28.317 11.248-56.33 23.26-84.25 35.46l-3.78 1.663c-2.87-8.925-5.123-18.823-6.615-29.054 9.843-.806 19.742-1 29.545-2.2 10.624-1.29 21.2-3.12 31.655-5.356 11.28-2.41 22.426-5.426 33.613-8.25.302 2.368.648 4.802 1.062 7.264zm2.793 12.612l-3.678 1.43c-56.093 21.84-92.686 36.25 3.504-1.778l.068-.026.106.373zm-81.38-42.238c19.804 5.005 39.87 8.987 59.992 12.502 5.544.968 11.112 1.805 16.696 2.525l.07.727.087.825.498 4.334c-4.606.49-9.202 1.062-13.777 1.79-27.4 4.365-54.003 10.576-80.938 14.893-2.068-14.473-2.61-29.585-1.208-43.538 6.1 2.252 12.274 4.347 18.578 5.94zm312.22-32.654c.987 3.52-.275 7.324 0 10.97.46 6.076 1.333 12.118 2.048 18.17l-1.28.192c-7.283 1.05-14.74.864-21.956 2.3-9.515 1.892-18.534 5.92-28.08 7.65-16.953 3.075-34.24 4.03-51.245 6.78-.06-2.465-.164-4.935-.29-7.402l.03-.012c34.268-14.592 47.357-20.677 48.38-21.832l.032-.078-5.2 1.955-43.45 16.226-.066-1.114c21.736-8.302 48.33-18.076 48.743-17.136l-.03.07 2.104-.8 49.472-18.67.786 2.723zm-238.04 22.317l2.32.964c-1.07-.184-2.675-.316-5.02-.577l6.898 2 .001-.016c.002-.286-.052-.512-.18-.697l.02.008 1.372.577-.198.422-1.015-.294-.003.096c-.027.5-.196 1.14-.427 2.026l-47.058-15.856-36.098-12.552 1.723.912c6.22 3.293 12.444 6.584 18.8 9.598 10.812 5.128 22.088 9.23 32.934 14.286 8.14 3.793 15.73 8.736 24 12.244l4.115 1.677c-.07 1.545-.085 3.272-.02 5.2a188.84 188.84 0 0 1-5.884-1.009c-14.077-2.65-28.117-5.668-41.864-9.692-26.668-7.806-38.874-12.41-45.734-15.252.515-2.818 1.12-5.564 1.822-8.22.797-3.017 2.565-7.042 4.896-11.574l5.215 1.832-.6-.323-4.232-2.228.988-1.868.02.006c8.943 2.2 7.225 1.23.6-1.12l1.556-2.817-.01-.005 81.085 32.25zm210.778-75.57l-.69.515-6.21 4.768-.228.183.26-.168 7.46-4.596c7.52 8.97 13.838 19.14 18.985 30.86-7.625 3.446-15.208 6.98-22.69 10.72-46.3 23.134-38.88 21.575-70.828 42.633l-.143-2.33c-.13-2.197-.627-6.882-1.535-11.796 9.95-9.265 20.574-17.812 30.378-27.235 11.147-10.713 21.175-22.558 32.423-33.164 1.58-1.5 3.223-2.912 4.903-4.288l.785-.638-1.187.765c-1.924 1.253-3.82 2.545-5.674 3.9l-1.38 1.03c-9.937 7.545-18.473 16.786-28.08 24.746-10.313 8.545-21.58 15.92-31.655 24.746l.505-.437-2.614 3.605-.302-1.015 2.4-2.153.505-.437 1.017-1.403 45.08-63.82-1.228 1.38-52.067 57.98c-2.01-2.857-4.116-5.41-6.312-7.684l11.982-30.66 2.378-5.652.694-1.58-.116.202c-6.31 10.912-13.168 21.508-20.58 31.668l-.43.588a51.34 51.34 0 0 0-4.977-3.375c2.892-7.516 5.677-15.08 8.008-22.78l.023-.082-.184.367c-1.45 2.863-2.94 5.714-4.127 8.68l-.347.893c-1.552 4.13-2.497 8.484-3.654 12.754-6.176-3.625-12.905-5.835-20.183-7.077.272-1.75.484-3.477.606-5.167 1.775-24.623 9.393-51.66 9.617-77.796 7.012-.078 14.1.014 21.275.244 3.964.127 7.7.856 11.27 1.97l-2.535 16.91 3.487-16.603c8.655 2.877 16.484 7.925 24.793 12.006l.852.42-3.5 8.13-.487 1.092.817-1.553 3.107-6.06.65-1.316c11.347 5.666 21.533 11.87 30.585 18.927l-9.42 13.17 2.412-2.71c2.644-2.98 5.39-5.905 7.656-9.182a20.48 20.48 0 0 0 .325-.486l.01-.018c6.653 5.282 12.683 11.04 18.1 17.405zm-267.128 4.264c17.925 15.85 30.333 25.566 49.823 46.18 5.45 5.764 10.747 11.667 15.985 17.624l-2.462 6.075-.07-.025-87.23-32.15c7.95-13.89 18.562-29.594 22.72-35.912a52.98 52.98 0 0 1 .873-1.285zm32.213-26.034c2.305 3.176 4.563 6.383 6.63 9.715 12.5 20.15 26.726 39.488 38.85 59.876-3.446 3.43-5.82 7.02-7.798 10.9-1.086-1.033-2.086-1.937-2.968-2.663-35.392-29.16-21.125-16.05 2.07 4.483l-.522 1.15.022.02-67.93-58.224c8.03-10.777 19.935-18.605 31.44-25.14zm31.556-14.817l.35 1.57c4.52 19.565 10.69 38.718 16.596 57.9 1.505 4.9 3.415 9.667 5.618 14.286.442.927.912 1.843 1.402 2.75a72.68 72.68 0 0 0-3.304 2.273l-.01-.012-9.75-12.325-.166-.306c-3.023-5.47-10.53-17.557-25.77-40.773l-2.23-3.393c-2.43-3.694-5.068-7.243-7.816-10.712a217.31 217.31 0 0 1 24.318-10.982zm33.05-9.59c4.37 22.752 9.544 50.068 10.7 67.798.203 3.118.516 6.26.877 9.418-5.442 1.26-10.633 3.246-15.558 5.876-.983-8.21-1.757-16.467-3.7-24.48-4.44-18.325-10.6-36.2-16.596-54.08l.597 1.78c7.392-2.4 14.847-4.395 22.377-6.033zm-22.642 75.428l.493.615.236.43c8.43 15.704-28.542-35.72-.73-1.046zm74.974-81.415l-.53 35.516-2.13 47.094c-6.405-1.008-13.228-1.294-20.464-1.155-.196-10.626-.432-23.356-2.936-44.666-2.265-19.28-2.647-28.68-3.385-34.587 9.422-1.15 18.972-1.845 28.667-2.177zm38.54 19.144l-.622 2.89c-2.903 13.4-6.003 26.775-9.6 40.01l-.98 3.468-.49 1.645.25-.492c1.582-3.153 3.076-6.337 4.028-9.72 3.338-11.86 5.4-24.375 7.28-36.89l.137-.915zm25.19 4.84l-13.457 25.564c-1.822 3.66-3.566 7.36-5.225 11.097l-.128.29.74-1.288c6.546-11.437 12.496-23.214 17.86-35.193l.21-.472z" fill="#54e375"/><g class="H"><g class="D"><path d="M401.443 455.394a2.66 2.66 0 1 1 2.011 4.928l-1.422.57-1.302.507-2.086.796.073.036c.715.38 1.29 1.054 1.433 1.96l.023.202.022.024c.51.59.936 1.322 1.266 2.205l.038.107.13-.023.605-.076.18-.01a3.07 3.07 0 0 1 .961.101c1.12.302 2.125 1.225 2.02 2.8a2.67 2.67 0 0 1-.516 1.422 2.94 2.94 0 0 1-.46.502c-.185.16-.376.294-.595.426l-2.087 1.272-2.902 1.785-.12.08-.224.14-.254.148-6.48 3.998-5.657 3.406-.193.104-.79.404c-2.245 1.116-3.55 1.435-9.803 2.602l-.375.07-.21.082c-1.146.427-2 .537-2.91.265l-.183-.06c-1.73-.61-2.284-2.274-1.86-3.8.105-.376.267-.753.49-1.15l.12-.21-.156-.116a2.71 2.71 0 0 1-1.016-1.964l-.006-.18c0-.412.08-.757.21-1.087.178-.457.44-.86.808-1.318l.108-.132-.06-.01c-1.906-.35-3.286-1.208-3.327-3.2l.001-.217c.04-1.507.852-2.387 2.27-3.36 1.362-.932 3.452-1.964 6.632-3.35l1.164-.503 5-2.124.937-.405 1.913-.87 1.427-.7c2.28-1.095 4.494-2 8.402-3.493l4.316-1.645 2.426-.962zm-7.217 13.744l-.796.274-1.046.344-2.03.64-.106.07c-.96.63-2.108 1.43-3.57 2.472l-.44.313.783-.16 2.036-1.173c1.98-1.13 3.543-1.978 4.87-2.634l.3-.148z"/><path d="M410.136 461.066l2.93-.103c4.024-.11 7.495.078 14.03.663l5.808.528 4.525.34a2.66 2.66 0 0 1 2.18 1.391l.083.166.3.058c.618.128 1.143.265 1.59.422l.216.08c.485.19.9.412 1.276.737.767.663 1.234 1.653 1.004 2.816-.42 2.13-1.8 2.642-5.86 3.45l-.356.067.093.1c.76.76 1.137 1.956.445 3.178l-.1.167a2.48 2.48 0 0 1-1.588 1.152c-.316.087-.594.117-.945.13-.758.03-2.097-.044-3.755-.198l-.336-.032c-4.888-.474-9.456-1.165-13.31-2.117l-.352-.09-3.894-.38c-.31-.03-.647.004-1.38.147l-1 .2c-.34.066-.584.106-.88.144a2.66 2.66 0 0 1-2.983-2.295c-.094-.72.11-1.41.514-1.946l.126-.155-.12-.115c-.507-.503-.9-1.035-1.17-1.598l-.085-.19c-.064-.15-.122-.3-.174-.445l-.086-.252-.97-.07c-.6-.05-1.047-.098-1.36-.15l-.083-.014c-.562-.102-.866-.19-1.357-.558-1.146-.86-1.558-2.604-.414-3.913a2.52 2.52 0 0 1 1.262-.818c.374-.12.783-.18 1.452-.238l.567-.045c.945-.068 2.318-.137 4.17-.2z"/><path d="M371.798 482.46C376 464.913 388.043 456.405 403 465.564c.702.43 1.134 1.133 1.244 1.888l.007.065.103.115c.627.728 1.18 1.593 1.66 2.57l.142.296c1 2.133 1.65 4.763 1.875 6.96.77 7.522.104 18.674-2.367 26.925-3.72 12.417-11.335 18.577-22.766 14.77-10.795-3.595-14.935-20.645-11.1-36.694zm24.5-14.3c-9.207-3.364-16.12 2.655-19.215 15.122l-.098.404c-3.274 13.705.18 27.935 7.606 30.407 8.032 2.675 13.025-1.365 15.986-11.25 2.25-7.51 2.874-17.98 2.17-24.856-.388-3.795-2.048-7.41-3.536-7.58l-.11-.006c-1.24 0-2.284-.85-2.578-2l-.04-.173-.19-.07z"/><path d="M410.276 468.978c-2.766 3.457-4.237 7.382-6.13 15.064l-.495 2.047-.643 2.09a2.66 2.66 0 0 0-.041 1.419l.132.56c.168.742.3 1.498.493 2.612l.404 2.546c.76 4.713 1.365 6.97 2.838 9.614 4.664 8.377 12.19 10.842 19.42 7.378 6.32-3.028 11.076-10.076 11.486-17.326a113.82 113.82 0 0 0 .19-5.447c.036-3.103-.053-6.123-.308-8.95-.766-8.49-2.77-14.056-7.3-15.604-8.88-3.034-15.437-1.62-19.866 3.773l-.183.225zm18.328 1.04c1.67.57 3.143 4.66 3.72 11.045.237 2.627.32 5.473.287 8.41-.023 1.964-.084 3.473-.182 5.21-.3 5.306-3.895 10.634-8.47 12.826-4.676 2.24-9.165.77-12.47-5.167-1.083-1.945-1.577-3.8-2.242-7.93l-.456-2.86-.314-1.727-.164-.77.46-1.487.047-.17.36-1.503c1.807-7.425 3.124-10.993 5.398-13.76 2.926-3.563 7.135-4.47 14.033-2.114z"/><path d="M404.17 483.453a2.66 2.66 0 1 1 .247 5.317l-1.746.085c-17.43.896-22.147 2.618-33.29 12.34a2.66 2.66 0 1 1-3.499-4.01l.766-.665c12.003-10.34 17.955-12.158 37.523-13.068z"/><path d="M404.405 486.75c9.86-6.617 24.69-9.373 34.4-5.272a2.66 2.66 0 1 1-2.071 4.903c-7.87-3.324-20.876-.908-29.363 4.788a2.66 2.66 0 1 1-2.966-4.419z"/></g><path d="M385.586 490.806c1.694 4.205 11.05 20.542 17.534 9.725l1.76-14.685c-9.72 1.282-15.98 2.283-18.778 3.002-1.5.383-1.66 1.035-.515 1.957zm33.894-4.78c1.98 6.5 6.648 19.514 15.772 11.487l-.33-13.92-7.5-1.5-7.932 3.933zm-80.7 53.114c4.516-16.253 45.947-17.4 69.854-20.267 18.778-2.252 47-7.955 63.845 12.76 1.05 1.292 3.756 10.5-5.258 16.513s-49.938-18.292-58.587-16.513c-28.938 5.95-44.316 16.513-55.583 16.513-7.5 0-12.268-3.002-14.27-9.007zm52.578 18.376c16.842 18.854 25.438 37.22 36.054 7.145.7-1.985 5.07-12.345 3.004-12.76-5.136-1.033-19.26 5.15-24.46 5.783-4.275.52-8.614.056-12.92.085l-1.678-.252z"/></g><g transform="matrix(-1 0 0 1 649.779869 607)"><path d="M40.238 104.1C66.708 71.08 116.48 66.64 158.08 68.296c34.257 1.365 49.84 8.32 65.907 28.595C227.432 101.237 245 77 259 105s-16.43 20.69-14.117 27.158c8.11 22.668 3.248 41.837-5.982 60.21-27.8 55.335-158.91 72.377-202.3 20.32-14.782-17.74-14.2-42.266-10.107-65.1C27.744 140.657-8 158 2 122s31.537-5.182 32.656-9.945l5.582-7.956z" class="L"/><g class="B C E F"><path d="M108.675 105.07c.59 13.923-3.153 42.227 17.872 44.406 6.857.71 13.81.293 20.678-.296 6.626-.568 9.212-3.724 14.472-7.55"/><path d="M122.115 104.773c.697 17.196-2.197 35.032 11.52 47.8 8.233 7.67 29.54-.847 29.54-11.25"/><path d="M135.26 115.135c-.975 10.26 12.903 51.905 29.246 35.525"/></g><path d="M102.56 48.52c-5.434-10.502-8.098-23.752-1.126-34.737 10.458-16.477 32.684-20.134 41.287-.133 6.675 15.52-9.455 34.702-9.01 36.633 2.525 10.993 38.31-33.082 31.41-9.522-8.617 29.413-57.395 34.394-78.76 17.898s-1.23-16.295 11.784-10.183l4.418.044z" class="G"/></g></g></svg>