<?xml version="1.0" encoding="UTF-8"?>
<svg width="487px" height="143px" viewBox="0 0 487 143" version="1.1" xmlns="http://www.w3.org/2000/svg" xmlns:xlink="http://www.w3.org/1999/xlink">
    <title>glueup-wordmark</title>
    <g id="Def-Visual-Glueup" stroke="none" stroke-width="1" fill="none" fill-rule="evenodd">
        <g id="glueup-wordmark" fill="#202020" fill-rule="nonzero">
            <path d="M445.772824,38 C452.179052,38 457.913659,38.981988 462.976645,40.945964 C468.039632,42.9099401 472.353503,45.7266952 475.918259,49.3962293 C479.483015,53.0657635 482.221161,57.5105513 484.132696,62.7305929 C486.044232,67.9506345 487,73.8167208 487,80.3288518 C487,86.5308814 486.199222,92.2160751 484.597665,97.3844331 C482.996108,102.552791 480.697098,106.997579 477.700637,110.718797 C474.704176,114.440014 470.958599,117.334295 466.463907,119.401638 C461.969214,121.468981 456.880396,122.502653 451.197452,122.502653 C447.374381,122.502653 443.861288,122.037501 440.658174,121.107196 C437.655255,120.235036 435.151813,119.272025 433.147849,118.218165 L432.753715,118.006181 L432.753715,143 L414,143 L414,42.3414207 C417.823071,41.3077491 422.524416,40.3257611 428.104034,39.3954567 C433.683652,38.4651522 439.573248,38 445.772824,38 Z M335.734918,14 L335.734918,80.0042373 L335.738618,80.7012135 C335.787949,85.315726 336.330591,89.2903215 337.366545,92.625 C338.454296,96.1264124 340.008227,98.9745763 342.028336,101.169492 C344.048446,103.364407 346.43114,104.984463 349.176417,106.029661 C351.921694,107.074859 355.003656,107.597458 358.422303,107.597458 C361.840951,107.597458 364.948812,107.074859 367.745887,106.029661 C370.542962,104.984463 372.951554,103.364407 374.971664,101.169492 C376.991773,98.9745763 378.545704,96.1264124 379.633455,92.625 C380.721207,89.1235876 381.265082,84.9166667 381.265082,80.0042373 L381.265082,80.0042373 L381.265082,14 L401,14 L401,81.8855932 L400.995153,82.7006104 C400.924066,88.6556689 400.07102,94.1325841 398.436015,99.1313559 C396.726691,104.357345 394.136807,108.903955 390.666362,112.771186 C387.195917,116.638418 382.767215,119.643362 377.380256,121.786017 C371.993297,123.928672 365.622182,125 358.26691,125 C350.911639,125 344.592322,123.928672 339.308958,121.786017 C334.025594,119.643362 329.64869,116.638418 326.178245,112.771186 C322.7078,108.903955 320.143815,104.357345 318.486289,99.1313559 C316.828763,93.9053672 316,88.1567797 316,81.8855932 L316,81.8855932 L316,14 L335.734918,14 Z M256.582627,38 C267.71822,38 276.405014,41.4578021 282.643008,48.3734062 C288.881003,55.2890103 292,65.6108075 292,79.3387978 C292,80.3709775 291.974223,81.5321797 291.922669,82.8224044 C291.878481,83.9283112 291.815354,84.939426 291.733289,85.8557489 L291.690678,86.3060109 L238.332627,86.3060109 L238.378325,86.8300363 C238.973471,93.0796621 241.252376,97.9368631 245.215042,101.401639 C249.287782,104.962659 255.190678,106.743169 262.923729,106.743169 C267.460452,106.743169 271.610523,106.330298 275.373941,105.504554 C278.939284,104.72227 281.787446,103.893667 283.918426,103.018745 L284.266949,102.872495 L286.741525,118.200364 L286.496722,118.31992 C285.490052,118.799975 284.153928,119.302018 282.488347,119.826047 C280.683969,120.393746 278.621822,120.909836 276.301907,121.374317 C273.981992,121.838798 271.481638,122.225865 268.800847,122.535519 C266.120056,122.845173 263.387712,123 260.603814,123 C253.489407,123 247.302966,121.942016 242.044492,119.826047 C236.786017,117.710079 232.455508,114.768367 229.052966,111.000911 C225.650424,107.233455 223.124294,102.795082 221.474576,97.6857923 C219.824859,92.5765027 219,86.9769277 219,80.8870674 C219,73.7650273 220.05685,67.52034 222.170551,62.1530055 C224.284251,56.7856709 227.093927,52.3214936 230.599576,48.7604736 C234.105226,45.1994536 238.126412,42.5157863 242.663136,40.7094718 C247.199859,38.9031573 251.839689,38 256.582627,38 Z M51.6,10 C56.4707965,10 60.8088496,10.3356385 64.6141593,11.0069156 C68.419469,11.6781927 71.6920354,12.4269249 74.4318584,13.253112 C77.1716814,14.0792992 79.4294985,14.9571231 81.2053097,15.8865837 C82.9811209,16.8160443 84.2241888,17.4873213 84.9345133,17.9004149 L84.9345133,17.9004149 L79.1504425,33.8561549 C76.1061947,31.9972337 72.3262537,30.4223144 67.8106195,29.131397 C63.2949853,27.8404795 58.5510324,27.1950207 53.5787611,27.1950207 C42.720944,27.1950207 34.4253687,30.6288612 28.6920354,37.4965422 C22.9587021,44.3642231 20.0920354,53.8911941 20.0920354,66.077455 C20.0920354,71.8607653 20.7769912,77.153527 22.1469027,81.95574 C23.5168142,86.757953 25.5463127,90.8630705 28.2353982,94.2710927 C30.9244838,97.6791148 34.2731563,100.338405 38.2814159,102.248963 C42.2896755,104.159521 46.9828909,105.114799 52.3610619,105.114799 C55.7097345,105.114799 58.6017699,104.985708 61.0371681,104.727524 C63.4725664,104.469341 65.40059,104.133702 66.8212389,103.720609 L66.8212389,103.720609 L66.8212389,72.1479945 C66.8212389,68.2820012 69.9552457,65.1479945 73.8212389,65.1479945 L73.8212389,65.1479945 L86,65.1479945 L86,116.733057 C83.3616519,117.765791 78.8967552,118.901798 72.6053097,120.141079 C66.3138643,121.38036 59.0584071,122 50.8389381,122 C43.2283186,122 36.2772861,120.760719 29.9858407,118.282158 C23.6943953,115.803596 18.3415929,112.189027 13.9274336,107.438451 C9.51327434,102.687875 6.08849558,96.8529276 3.65309735,89.93361 C1.21769912,83.0142923 0,75.0622407 0,66.077455 C0,57.0926694 1.34454277,49.1406178 4.03362832,42.2213001 C6.72271386,35.3019825 10.4011799,29.4412172 15.0690265,24.6390041 C19.7368732,19.8367911 25.2165192,16.1964039 31.5079646,13.7178423 C37.79941,11.2392808 44.4967552,10 51.6,10 Z M120.661692,0 L120.661692,92.9745547 C120.661692,95.2510602 120.841625,97.1653944 121.201493,98.7175573 C121.56136,100.26972 122.20398,101.589059 123.129353,102.675573 C124.054726,103.762087 125.314262,104.589907 126.90796,105.159033 C128.501658,105.728159 130.532338,106.167939 133,106.478372 L133,106.478372 L130.378109,122 C124.825871,121.896522 120.22471,121.275657 116.574627,120.137405 C112.924544,118.999152 110.0199,117.369381 107.860697,115.248092 C105.701493,113.126802 104.184909,110.488126 103.310945,107.332061 C102.436982,104.175997 102,100.580153 102,96.5445293 L102,96.5445293 L102,3.1043257 L120.661692,0 Z M159.914943,39 L159.914943,80.9962617 L159.916921,81.5776782 C159.973631,89.8568471 161.249599,95.7938828 163.744828,99.388785 C166.298084,103.06729 170.753257,104.906542 177.110345,104.906542 C179.403065,104.906542 181.826054,104.804361 184.37931,104.6 C186.932567,104.395639 188.834483,104.140187 190.085057,103.833645 L190.085057,103.833645 L190.085057,39 L209,39 L209,116.708411 L208.538362,116.823498 C204.955444,117.706846 200.367561,118.613655 194.774713,119.543925 C188.938697,120.514642 182.529502,121 175.547126,121 C168.981609,121 163.484291,120.080374 159.055172,118.241121 C154.626054,116.401869 151.082759,113.847352 148.425287,110.57757 C145.767816,107.307788 143.8659,103.399377 142.71954,98.8523364 C141.57318,94.305296 141,89.3239875 141,83.9084112 L141,83.9084112 L141,39 L159.914943,39 Z M443.912951,54.1252769 C442.156405,54.1252769 440.322364,54.2028022 438.410828,54.357853 C436.738234,54.4935224 435.085418,54.7676876 433.452379,55.1803487 L432.753715,55.3656828 L432.753715,101.725854 C434.406936,102.862893 436.602619,103.922406 439.340764,104.904394 C442.07891,105.886382 444.997877,106.377376 448.097665,106.377376 C454.917197,106.377376 459.902689,104.051615 463.05414,99.4000927 C466.205591,94.7485705 467.781316,88.4948574 467.781316,80.6389533 C467.781316,72.2662134 465.895612,65.7540823 462.124204,61.1025601 C458.352795,56.451038 452.282378,54.1252769 443.912951,54.1252769 Z M256.737288,53.6375228 C253.850282,53.6375228 251.324153,54.1794171 249.158898,55.2632058 C246.993644,56.3469945 245.163489,57.7662417 243.668432,59.5209472 C242.173376,61.2756527 241.013418,63.2884032 240.188559,65.5591985 C239.446186,67.6029144 238.912606,69.6884335 238.587818,71.8157559 L238.487288,72.5264117 L273.286017,72.5264117 C273.286017,69.9459624 272.925141,67.4945355 272.20339,65.1721311 C271.481638,62.8497268 270.424788,60.8369763 269.032839,59.1338798 C267.64089,57.4307832 265.939619,56.0889496 263.929025,55.1083789 C261.918432,54.1278081 259.521186,53.6375228 256.737288,53.6375228 Z" id="Combined-Shape"></path>
        </g>
    </g>
</svg>