<svg xmlns="http://www.w3.org/2000/svg" xmlns:xlink="http://www.w3.org/1999/xlink" width="1314" height="1556" xmlns:v="https://vecta.io/nano"><style><![CDATA[.B{stroke-linejoin:round}.C{stroke-linecap:round}.D{stroke-width:4.17}.E{fill:#0064ff}.F{stroke:#212121}.G{fill-rule:nonzero}.H{fill:#001d71}.I{filter:url(#B)}.J{stroke-width:5.855}.K{stroke-width:5.322}.L{stroke:#f4f2ee}.M{fill:#ff9d00}.N{fill:#00c15a}]]></style><defs><filter x="-37.0%" y="-31.8%" width="173.8%" height="163.5%" id="A"><feOffset dy="53" in="SourceAlpha"/><feGaussianBlur stdDeviation="35"/><feColorMatrix values="0 0 0 0 0 0 0 0 0 0.164542109 0 0 0 0 0.362271488 0 0 0 0.1 0" result="C"/><feMerge><feMergeNode in="C"/><feMergeNode in="SourceGraphic"/></feMerge></filter><filter id="B"><feColorMatrix in="SourceGraphic" values="0 0 0 0 0.000000 0 0 0 0 0.112693 0 0 0 0 0.441384 0 0 0 0.434495 0"/></filter><filter x="-34.2%" y="-31.5%" width="170.0%" height="163.1%" id="C"><feOffset dy="2" in="SourceAlpha"/><feGaussianBlur stdDeviation="2.5"/><feColorMatrix values="0 0 0 0 0 0 0 0 0 0 0 0 0 0 0 0 0 0 0.3 0" result="C"/><feMerge><feMergeNode in="C"/><feMergeNode in="SourceGraphic"/></feMerge></filter><filter x="-37.0%" y="-46.6%" width="173.8%" height="193.3%" id="D"><feOffset dy="53" in="SourceAlpha"/><feGaussianBlur stdDeviation="35"/><feColorMatrix values="0 0 0 0 0 0 0 0 0 0.164542109 0 0 0 0 0.362271488 0 0 0 0.1 0" result="C"/><feMerge><feMergeNode in="C"/><feMergeNode in="SourceGraphic"/></feMerge></filter><filter id="E"><feColorMatrix in="SourceGraphic" values="0 0 0 0 0.000000 0 0 0 0 0.112693 0 0 0 0 0.441384 0 0 0 0.199984 0"/></filter><path d="M121.03.005C54.497.005.56 53.93.56 120.447S54.497 240.89 121.03 240.89s120.468-53.924 120.468-120.442S187.562.005 121.03.005zm-1.673 43.493c41.583 0 75.293 33.702 75.293 75.276s-33.7 75.276-75.293 75.276-75.293-33.702-75.293-75.276 33.7-75.276 75.293-75.276z" id="F"/></defs><g transform="translate(59 176)" fill="none" fill-rule="evenodd"><path d="M436.41 58.453c-199.68 8.14-267.17 56.79-367.174 213.915S-8.468 551.96 48.478 667.973c28.497 58.056 79.614 107.532 144.417 146.953 34.396 20.924 201.193 81.73 240.403 89.482 219.984 43.493 469.355 6.863 586.174-136.616 110.966-136.29 87.228-355.945 9.378-494.37S636.09 50.312 436.41 58.453z" fill="#0d62fe"/><g transform="matrix(-1 0 0 1 1201 922)"><path d="M536.164 27.074C516.87 2.3 480.592-1.02 450.27.222s-40.57 8.67-55.756 32.658-11.8 42.685-3.152 60.397c4.327 8.863 12.1 16.417 21.93 22.435 5.223 3.194 30.55 12.478 36.506 13.66 33.405 6.64 71.272 1.048 89.012-20.857 16.85-20.808 6.313-54.064 1.424-75.475l-4.07-5.967zM413.37 172.717c-9.176-11.63-26.43-13.196-40.852-12.612s-19.296 4.072-26.518 15.34-5.612 20.05-1.5 28.368c2.058 4.163 5.75 7.7 10.43 10.538 2.484 1.5 14.53 5.86 17.362 6.417 15.888 3.12 33.898.492 42.335-9.797 8.014-9.773 3.002-25.394.677-35.45l-1.935-2.803z" fill="#0d62fe"/><path d="M49 376c-31.703-104.556 57.46-190.752 137-215 120.786-36.822 160.426 208.926 155 211-33.475 12.797-130.81 14.13-292 4z" class="H"/><path d="M279.674 249.927c5.45 43.488-37.133 153.25-82.104 147.217-37.77-5.066-59.773-37.147-71.42-71.482C124.18 319.856 95 335 91 308s27.836-10.042 27-15c-2.794-16.57-2.582-30.63-2.157-41.86.067-1.773 9.6-7.256 29.982-10.495 9.12-1.45 20.41-2.45 33.998-2.466 19.383-.025 41.04 1.88 59.218 4.186 5.228.663.444-48.057 4.96-47.365 4.596.705 18.476 50.82 22.047 51.48 8.388 1.547 13.553 2.862 13.626 3.447z" fill="#f2f4f6"/><path d="M228 261c2.464 23.7 20 15.905 20 .08M228 277l-6 8m16-8l-4 13m9-15l3 11" class="B C F K"/><path d="M205.576 250.456c11.204 27.32 18.084 43.364 20.64 48.13 1.127 2.103 3.556 4.824 2.262 6.895-1.188 1.902-20.234-.187-21.235-3.835-.517-1.886.398-7.916.076-5.952-1.984 12.08-2.403 19.86-1.26 23.336" stroke="#001d71" fill="#f5fff6" class="B C K"/><g class="B C F K"><path d="M165.42 262.7c-3.73 15.702 18.435 17.7 22.58-1.7m-20 13l-7 5"/><path d="M174.654 275l-.3 9M182 274l3 7"/></g><path d="M204.473 325.506c6.5.718 4.524 9.82 9.604 8.6 2.564-.615 4.7-3.453 7.312-2.985 2.475.445 7.372 6.006 12.688 7.985 2.11.785 5.443.785 10 0-6.176 5.17-11.5 8.836-16 11-7.56 3.642-27.572 11.268-46.362.045-10.656-6.365-27.962-29.256-31-32l46.454 22.26c37.824 5.425 35.2 7.088-9.454-6.26-6.665-1.992-19-7.325-37-16 6.184-3.427 23.743 2.42 37 6 11.32 3.058 13.764 1.024 16.758 1.355z" fill="#ff4445"/></g><g transform="translate(117)"><g filter="url(#A)"><path stroke-width="2.2" fill="#fff" d="M0 0h641.775v746.1H0z" class="L"/><path d="M280.28 199.493l-9.694 5.995-8.044-12.437c-.087-.135-.233-.198-.343-.307l2.23-2.303a1.22 1.22 0 0 0 0-1.686l-2.996-3.09a1.14 1.14 0 0 0-1.639 0l-2.996 3.09a1.22 1.22 0 0 0 0 1.686l2.23 2.303c-.112.108-.255.172-.343.307l-8.045 12.437-9.693-5.995c-.804-.497-1.82-.447-2.574.128s-1.095 1.56-.868 2.498l4.634 19.11c.26 1.06 1.187 1.8 2.25 1.8h32.446c1.064 0 1.992-.748 2.25-1.8l4.635-19.11a2.43 2.43 0 0 0-.868-2.498 2.26 2.26 0 0 0-2.574-.128z" class="M"/><g class="I"><g transform="translate(44.357 289.722)" fill="#004d95"><path d="M24.2 7.388L5.348 26.513l12.53 12.702 18.865-19.123z"/><path d="M39.855 16.938l1.585-1.605c3.454-3.504 3.454-9.2-.002-12.707a8.79 8.79 0 0 0-12.533 0l-1.58 1.607 12.53 12.705z"/><path d="M14.09 41.687L2.74 44.564c-.75.187-1.543-.036-2.09-.59s-.766-1.357-.58-2.118L2.907 30.35 14.09 41.687z"/></g><g transform="translate(164.381 287.112)" fill="#000"><path d="M25.926 29.1l-15.772 3.156 3.154-15.78L25.306 4.464H4.46A4.47 4.47 0 0 0-.001 8.927V40.17a4.47 4.47 0 0 0 4.462 4.463h31.232a4.47 4.47 0 0 0 4.462-4.463V14.854L25.926 29.1z"/><path d="M17.418 18.667l6.31 6.31-7.886 1.578z"/><path d="M41.08 7.62c1.742-1.743 1.742-4.568 0-6.31a4.46 4.46 0 0 0-6.309 0L20.573 15.5l6.31 6.31L41.08 7.62z"/></g><g transform="translate(281.796 287.112)" fill="#000"><path d="M22.586 41.43L3.192 22.03l11.392-11.396 7.446 7.45L33.956 4.96h-29C2.223 4.96 0 7.186 0 9.918v29.755c0 2.735 2.223 4.96 4.958 4.96H39.66c2.734 0 4.958-2.224 4.958-4.96V17.186L22.586 41.43z"/><path d="M22.415 34.245L10.203 22.03l4.382-4.384 7.617 7.62 22.6-24.87 4.586 4.168z"/></g></g><g transform="translate(407.039 289.722)" class="E"><path d="M23.796 22.316h-6.94c-.547 0-.992.454-.992 1.014s.444 1.014.992 1.014h1.983c2.733 0 4.958 2.274 4.958 5.072 0 2.45-1.705 4.498-3.966 4.968v2.132h-3.966v-2.03h-3.966V30.43h6.94c.547 0 .992-.456.992-1.014s-.444-1.014-.992-1.014h-1.983c-2.733 0-4.958-2.276-4.958-5.072 0-2.45 1.705-4.498 3.966-4.968V16.23h3.966v2.03h3.966v4.058zm2.7-11.903l5.97-2.445L31 4.202l-6.18 2.53 2.556-3.485c.504-.688.53-1.625.065-2.34a1.96 1.96 0 0 0-2.132-.846l-7.452 1.9-7.452-1.9a1.96 1.96 0 0 0-2.132.846c-.464.714-.438 1.65.065 2.34l2.556 3.485-6.18-2.53L3.228 7.97l5.97 2.445c-5.48 3.118-9.2 9.1-9.2 15.96 0 10.067 8.007 18.26 17.847 18.26s17.847-8.192 17.847-18.26c0-6.86-3.72-12.842-9.2-15.96h0z"/></g><g transform="translate(409.648 318.433)" class="G"><g filter="url(#C)" transform="translate(7.828 5.22)"><path fill="#231d1e" d="M0 18.27h2.61v-2.6h5.218v2.6h2.61V2.6h2.61V0h5.218v2.6h2.61v7.83H31.31v2.6h5.218v2.6h2.61v13.05h-2.61v5.22h-2.61v7.83H28.7v-2.6h-2.61v2.6H13.046v-5.22h-2.61v-2.6h-2.61v-2.6h-2.61V26.1H2.61v-2.6H0z"/><path fill="#fff" d="M2.61 18.27h5.218v2.6h2.61v2.6h2.61V2.6h5.218v15.66h2.61v-5.22h5.218v5.22h2.61v-5.22h2.61v5.22h2.61v-2.6h2.61v13.05h-2.61v5.22h-2.61v5.22H28.7v-2.6h-2.61v2.6H15.655v-2.6h-2.61v-2.6h-2.61v-2.6h-2.61V26.1h-2.61v-2.6H2.61z"/><g fill="#231d1e"><path d="M18.265 23.49h2.61v10.44h-2.61z"/><path d="M23.483 23.49h2.61v10.44h-2.61z"/><path d="M28.7 23.49h2.61v10.44H28.7z"/></g></g></g><g class="I"><g transform="translate(519.235 289.722)" fill="#000"><ellipse cx="5.871" cy="5.873" rx="5.871" ry="5.873"/><ellipse cx="5.871" cy="22.316" rx="5.871" ry="5.873"/><ellipse cx="5.871" cy="38.76" rx="5.871" ry="5.873"/></g></g><g transform="translate(28.701 36.541)"><path d="M93.72 0C41.96 0 0 41.974 0 93.752s41.96 93.752 93.72 93.752 93.72-41.974 93.72-93.752S145.48 0 93.72 0z" fill="#06f" class="G"/><g transform="translate(25.868 58.542)"><g transform="translate(0 .025)"><path d="M90.5 63.078c11.11 0 24.754-.7 40.934-2.097l4.198-20.616H117.43l1.4-30.05H18.07l-.616 16.665C5.818 23.738 0 25.26 0 31.55s5.207 10.043 15.62 11.26l3.5 16.074C55.59 61.68 79.38 63.078 90.5 63.078z" class="M"/><g transform="translate(75.441 7.545)" fill="#212121"><path d="M.717 2.393c-.502 8.775 7.295 11.008 9.457 2.93C11.823-.838 2.834-1.423 0 2.393"/><path d="M30.082.995c.152 1.867.04 3.775.457 5.602 1.81 7.923 11.7.236 6.456-6.384"/></g><path d="M121.35.004c2.157 0-.395 19.254-1.75 23.118-1.717 4.9-5.77 3.844-10.146 3.844-1.396 0-2.593-.046-3.645-.168-1.813-2.2-4.173-4.674-6.733-6.905l-1.952-1.62.485 2.84-.624-.99c-2.65 6.693-7.992 8.59-14.47 8.59-14.98 0-20.96-11.415-18.562-28.71h57.396zm-29.768 7.8h-20.24l-.006.1c-.256 4.152.215 7.374 1.325 9.682l.668 1.167c1.766 2.605 4.906 3.964 9.886 3.964 3.4 0 5.723-2.18 7.208-7.526l.4-1.615.286-1.646c.094-.643.188-1.38.28-2.212l.192-1.914zm24.04 0H100.63c2.128 8.728 4.94 12.523 10.156 13.1l1.468.076c.212 0 .322-.045.52-.234.42-.4.88-1.188 1.303-2.395.69-1.967 1.17-4.728 1.42-8.254l.124-2.282z" fill="#ff0025" class="G"/><g class="B C D F"><path d="M99.458 22.47c7.037 5.558 13.276 13.65 12.207 14.984-1.4 1.747-6.46 2.107-7.697 1.398-.993-.57-.545.202-.545 6.717"/><path d="M84.087 40.106c8.24 6.114 17.384 6.9 26.416 5.035"/></g><g stroke="#001d75" class="B C D"><path d="M92.91 55.798c1.765 7.06 5.93 11.507 10.34 17.415"/><path d="M100.116 55.028c4.82 15.247 3.748 8.744 4.84 19.172"/><path d="M106.11 56.127c1.44 14.824 1.265 8.66 1.265 18.458"/><path d="M112.49 56.127l-3.3 20.27"/><path d="M116.947 56.677c-.396 7.186-2.29 12.916-5.886 19.117"/><path d="M121.843 55.962c-.657 7.01-2.656 13.76-7.37 19.228"/><path d="M124.538 63.49c-5.825 7.807-6.53 10.2-15.237 12.25"/></g><path d="M84.676 37.554c-.527 1.417-1.577 2.814-3.326 2.895" class="B C D F"/></g></g></g><rect x="234.83" y="122.675" width="263.532" height="31.321" rx="13.9" class="E"/><g fill="#eaeaea"><rect x="28.701" y="448.938" width="263.532" height="31.321" rx="13.9"/><rect x="28.701" y="548.122" width="263.532" height="31.321" rx="13.9"/></g><rect x="31.311" y="673.407" width="193.083" height="23.491" rx="11.745" class="E"/><rect x="300.061" y="193.148" width="86.104" height="31.321" rx="13.9" class="N"/><rect fill="#ffa300" x="393.993" y="193.148" width="86.104" height="31.321" rx="13.9"/><rect x="234.83" y="73.083" width="307.888" height="31.321" rx="13.9" class="H"/><g fill="#eaeaea"><rect x="28.701" y="399.346" width="307.888" height="31.321" rx="13.9"/><rect x="28.701" y="498.53" width="307.888" height="31.321" rx="13.9"/></g><rect x="28.701" y="636.866" width="229.612" height="23.491" rx="11.745" class="E"/><g stroke-width="2.317" stroke-linecap="square" class="B L"><path d="M1.305 259.706h639.26"/><path d="M1.305 360.195h639.26"/></g></g><g filter="url(#D)" transform="translate(321 438)"><path stroke-width="2.2" fill="#fff" d="M0 .406h641.775v505.648H0z" class="L"/><g filter="url(#E)"><g transform="translate(432.592 238.104)" fill="#0b0"><path d="M54.037.914L2.444 12.954c-1.17.268-2.05 1.242-2.196 2.425s.47 2.333 1.548 2.875l14.652 7.378 1.498 14.802c.12 1.2.98 2.177 2.143 2.468a2.88 2.88 0 0 0 3.074-1.154l.445-.45L20.645 30c-.125-1.47.6-2.884 1.893-3.638l12.732-7.476-10.175 9.746a2.83 2.83 0 0 0-.799 2.681l4.64 19.874c.268 1.162 1.25 2.032 2.443 2.178a2.88 2.88 0 0 0 2.901-1.536L58.517 4.894c.116-.174.2-.36.285-.554.253-.658.096-1.662-.193-2.353-.358-.852-1.882-1.2-4.572-1.073z"/></g></g><g filter="url(#E)"><g transform="translate(156.469 234.462)"><path d="M40.023 32.005h10.673v-10.67H40.023v10.67zm-16.01 0h10.673v-10.67H24.014v10.67zm0 16.002h10.673v-10.67H24.014v10.67zM8.005 32.005H18.68v-10.67H8.005v10.67zm0 16.002H18.68v-10.67H8.005v10.67zm45.36-42.673H48.03V0h-5.337v13.336h-5.337v-8h-16V0H16v13.336h-5.337v-8H5.337A5.34 5.34 0 0 0 0 10.669v40.007C0 53.614 2.393 56 5.337 56h48.03c2.942 0 5.337-2.396 5.337-5.334V10.67a5.34 5.34 0 0 0-5.337-5.334z" fill="#0b0"/></g></g><rect x="29.147" y="44.36" width="192.415" height="20.074" rx="6.95" class="H"/><rect fill="#f2f4f6" x="32.494" y="87.853" width="192.415" height="20.074" rx="6.95"/><g transform="translate(65.632 146.97)"><mask id="G" fill="#fff"><use xlink:href="#F"/></mask><use fill="#0202d0" xlink:href="#F" class="G"/><g mask="url(#G)"><g transform="translate(-10.039 -7.818)"><path d="M127.772 0v127.133H.61C.61 57.28 56.113 1.128 126.266.012L127.772 0z" class="H"/><path d="M127.722 128.264v.858l48.356 115.72c-15.328 6.79-32.248 10.557-50.032 10.557C57.434 255.398 1.68 199.34.573 129.76l-.012-1.495h127.16z" class="E"/><path d="M127.775 3.346L127.772 128l48.58 116.24c46.15-18.888 78.582-63.548 78.582-115.634 0-68.484-56.07-124.132-125.667-125.238l-1.492-.012z" class="N"/></g></g></g><g transform="translate(343.379 146.97)"><mask id="H" fill="#fff"><use xlink:href="#K" href="#F"/></mask><use fill="#0202d0" xlink:href="#K" class="G" href="#F"/><g mask="url(#H)"><g transform="translate(-6.693 -8.184)"><path d="M127.772.366V127.5H.61C.61 57.647 56.113 1.494 126.266.378l1.506-.012z" class="M"/><path d="M127.722 128.63v.858l48.356 115.72c-15.328 6.79-32.248 10.557-50.032 10.557-68.614 0-124.366-56.058-125.474-125.64L.56 128.63h127.16z" class="E"/><path d="M127.775 3.807l-.002 127.04-90.296 169.093C540.49 171.048 199.418 4.946 129.278 3.82l-1.503-.012z" class="N"/></g></g></g><rect x="455.933" y="453.596" width="163.541" height="22.308" rx="6.95" class="E"/></g></g><g transform="matrix(-1 0 0 1 595 1053)"><g transform="matrix(-1 0 0 1 595 142.06)"><path d="M213.384 148.694c26.196 0 58.37-1.647 96.525-4.942l9.9-48.598h-42.9l3.3-70.838H42.61L41.157 63.6C13.72 55.956 0 59.548 0 74.375S12.278 98.05 36.834 100.92l8.25 37.9c86.004 6.6 142.104 9.884 168.3 9.884z" fill="#ffa300"/><path d="M179.588 23.427c-1.184 20.685 17.203 25.95 22.3 6.9 3.9-14.526-17.308-15.904-24-6.9m70.935-3.295c.36 4.402.094 8.9 1.078 13.205 4.27 18.676 27.6.556 15.225-15.048" fill="#212121"/><path d="M286.155.01c5.085 0-.932 45.388-4.125 54.497-4.05 11.553-13.61 9.06-23.925 9.06-3.278 0-6.092-.108-8.565-.393-5.37-6.5-12.733-13.962-20.5-20.102h0l1.152 6.71-.676-1.047-.804-1.3c-6.252 15.778-18.845 20.25-34.122 20.25-35.326 0-49.424-26.91-43.77-67.676h135.346zM215.96 18.395h-47.727l-.015.234c-.69 11.187.86 19.508 4.34 25.023l.185.288.176.264c4.164 6.142 11.568 9.345 23.312 9.345 8.66 0 14.394-6.03 17.832-21.05l.1-.5c.568-2.67 1.125-6.756 1.654-12.192l.102-1.07.03-.345zm56.69 0h-35.354l.017.07c5.334 21.873 12.52 30.59 26.47 30.954l.425.008.5.003c.5 0 .76-.106 1.23-.553 1-.94 2.075-2.8 3.073-5.646 1.896-5.4 3.123-13.368 3.596-23.762l.045-1.074z" fill="#fb3640" class="G"/><path d="M234.53 52.97c16.595 13.102 31.305 32.176 28.784 35.322-3.3 4.118-15.235 4.966-18.15 3.295-2.342-1.343-1.284.477-1.284 15.834m-45.595-12.88c19.428 14.4 40.993 16.243 62.292 11.87" class="B C F J"/><g stroke="#001d71" class="B C J"><path d="M219.092 131.53c4.162 16.64 13.984 27.125 24.384 41.052m-7.396-42.864c11.363 35.943 8.837 20.612 11.415 45.194m2.725-42.604c3.396 34.945 2.983 20.413 2.983 43.512m12.06-43.512l-7.782 47.785m18.3-46.49c-.934 16.94-5.402 30.446-13.88 45.063m25.423-46.75c-1.55 16.523-6.262 32.438-17.38 45.325"/><path d="M293.67 149.66c-13.737 18.403-15.397 24.042-35.93 28.878"/></g><path d="M199.674 88.525c-1.244 3.34-3.72 6.634-7.844 6.824" class="B C F J"/></g><path d="M19.847 45.123C52.2 3.85 113.032-1.702 163.877.37s68.03 14.45 93.493 54.43 19.786 71.142 5.286 100.66c-7.256 14.772-20.272 27.36-36.773 37.392C217.125 198.177 204 205 241 216s-65.145-2.588-76.33-.378c-56.014 11.067-119.512 1.746-149.257-34.762-28.255-34.68-10.585-90.107-2.388-125.79l6.823-9.946z" fill="#001c6c"/></g></g></svg>