<svg xmlns="http://www.w3.org/2000/svg" xmlns:xlink="http://www.w3.org/1999/xlink" width="1225" height="949" xmlns:v="https://vecta.io/nano"><style><![CDATA[.B{fill:#fff}.C{fill:#00173a}.D{fill:#0d62fe}.E{opacity:.92}.F{fill:#fb3640}.G{fill:#001c6c}.H{fill:#0064ff}.I{fill:#ff9d00}.J{fill:#f4f2ee}.K{stroke-linejoin:round}.L{fill:#ff0034}.M{fill:#ff8100}.N{stroke-width:2.243}.O{fill-opacity:.035}]]></style><defs><path id="A" d="M0 0h408v372H0z"/><filter x="-6.9%" y="-5.4%" width="113.7%" height="115.1%" id="B"><feOffset dy="8" in="SourceAlpha"/><feGaussianBlur stdDeviation="8"/><feColorMatrix values="0 0 0 0 0 0 0 0 0 0.160784314 0 0 0 0 0.349019608 0 0 0 0.1 0"/></filter><path d="M7 0h83a7 7 0 0 1 7 7v79a7 7 0 0 1-7 7H7a7 7 0 0 1-7-7V7a7 7 0 0 1 7-7z" id="C"/><path id="D" d="M0 0h408v675H0z"/><filter x="-6.9%" y="-3.0%" width="113.7%" height="108.3%" id="E"><feOffset dy="8" in="SourceAlpha"/><feGaussianBlur stdDeviation="8"/><feColorMatrix values="0 0 0 0 0 0 0 0 0 0.160784314 0 0 0 0 0.349019608 0 0 0 0.1 0"/></filter><path id="F" d="M0 0h97v93H0z"/><filter x="-18.5%" y="-13.9%" width="137.0%" height="127.7%" id="G"><feOffset dy="24" in="SourceAlpha"/><feGaussianBlur stdDeviation="16"/><feColorMatrix values="0 0 0 0 0 0 0 0 0 0.160784314 0 0 0 0 0.349019608 0 0 0 0.1 0" result="C"/><feMerge><feMergeNode in="C"/><feMergeNode in="SourceGraphic"/></feMerge></filter><ellipse id="H" cx="515.932" cy="23.52" rx="23.676" ry="23.52"/><filter x="-59.1%" y="-42.5%" width="218.3%" height="219.0%" id="I"><feOffset dy="8" in="SourceAlpha"/><feGaussianBlur stdDeviation="8"/><feColorMatrix values="0 0 0 0 0 0 0 0 0 0.160784314 0 0 0 0 0.349019608 0 0 0 0.1 0"/></filter><path id="J" d="M68.167 35.78l-9.598 5.934-7.964-12.31c-.086-.134-.23-.196-.34-.303l2.21-2.28a1.21 1.21 0 0 0 0-1.669l-2.966-3.058c-.445-.46-1.177-.46-1.623 0l-2.966 3.058a1.21 1.21 0 0 0 0 1.669l2.21 2.28c-.1.107-.253.17-.34.303l-7.965 12.31-9.597-5.934c-.796-.49-1.802-.442-2.548.127s-1.084 1.545-.86 2.472l4.588 18.913c.256 1.05 1.175 1.79 2.228 1.79h32.124c1.053 0 1.972-.74 2.227-1.79l4.59-18.913c.226-.927-.115-1.9-.86-2.472a2.24 2.24 0 0 0-2.548-.127z"/><path id="K" d="M29.793 66.91h36.714v-4.726H29.793z"/><path id="L" d="M202.77 94.937V0h-94.542l.01 1.117c.83 51.436 42.2 92.977 93.423 93.81l1.1.01z"/><path id="M" d="M189.107 98.68v94.937H94.564l.01-1.117c.83-51.436 42.2-92.977 93.423-93.81l1.1-.01z"/><path id="N" d="M94.563 193.618V98.68H.02l.01 1.117c.83 51.436 42.2 92.977 93.423 93.81l1.1.01z"/><path id="O" d="M98.17 96.68V1.927h97.526l-.01 1.114c-.857 51.336-43.53 92.796-96.37 93.628l-1.146.01z"/><path id="P" d="M97.526 99.248V194H0l.01-1.114C.866 141.55 43.54 100.1 96.38 99.258l1.146-.01z"/><path id="Q" d="M98.34 1.927V96.68H.813l.01-1.114C1.68 44.23 44.354 2.77 97.193 1.936l1.146-.01z"/><path id="R" d="M98.34 55.927v94.752H.813l.01-1.114c.857-51.336 43.53-92.796 96.37-93.628l1.146-.01z"/></defs><g transform="translate(16 81)" fill="none" fill-rule="evenodd"><g transform="translate(0 56)"><g transform="translate(0 192)"><use fill="#000" filter="url(#B)" xlink:href="#A"/><use xlink:href="#A" class="B"/><g transform="translate(15 115)"><mask id="S" class="B"><use xlink:href="#C"/></mask><use fill="#ababab" xlink:href="#C"/><g mask="url(#S)" class="B"><use xlink:href="#J"/><use xlink:href="#K"/></g><g mask="url(#S)" class="E"><g transform="translate(-149 -4)"><g transform="translate(190.224)"><use xlink:href="#L" class="F"/><use xlink:href="#M" class="C"/><use xlink:href="#N" class="I"/></g></g></g></g><g transform="translate(15 216)"><mask id="T" class="B"><use xlink:href="#D" href="#C"/></mask><use fill="#b29f87" xlink:href="#D" href="#C"/><g mask="url(#T)" class="B"><use xlink:href="#J"/><use xlink:href="#K"/></g><g mask="url(#T)" class="E"><g transform="translate(-149 -4)"><g transform="translate(190.224)"><use xlink:href="#L" class="F"/><use xlink:href="#M" class="C"/><use xlink:href="#N" class="I"/></g></g></g></g><g transform="translate(15 14)"><mask id="U" class="B"><use xlink:href="#E" href="#C"/></mask><use fill="#fac748" xlink:href="#E" href="#C"/><g mask="url(#U)" class="B"><use xlink:href="#J"/><use xlink:href="#K"/></g><g mask="url(#U)" class="E"><g transform="translate(-149 -4)"><g transform="translate(190.224)"><use xlink:href="#L" class="F"/><use xlink:href="#M" class="C"/><use xlink:href="#N" class="I"/></g></g></g></g><g class="J"><rect x="122" y="14" width="250" height="14.912" rx="3.5"/><rect x="122" y="115" width="250" height="14.912" rx="3.5"/><rect x="122" y="216" width="268" height="14.912" rx="3.5"/><rect x="122" y="33.173" width="268" height="14.912" rx="3.5"/><rect x="122" y="134.173" width="268" height="14.912" rx="3.5"/><rect x="122" y="235.173" width="238" height="14.912" rx="3.5"/><rect x="122" y="52.345" width="158" height="14.912" rx="3.5"/><rect x="122" y="153.345" width="158" height="14.912" rx="3.5"/><rect x="122" y="254.345" width="158" height="14.912" rx="3.5"/><rect x="125" y="334" width="158" height="14.912" rx="3.5"/></g><g class="D"><rect x="122" y="92" width="158" height="14.912" rx="3.5"/><rect x="122" y="193" width="158" height="14.912" rx="3.5"/><rect x="122" y="294" width="158" height="14.912" rx="3.5"/></g></g><g transform="translate(248)"><use fill="#000" filter="url(#E)" xlink:href="#D"/><use xlink:href="#D" class="B"/><g transform="translate(15 14)"><mask id="V" class="B"><use xlink:href="#F"/></mask><use xlink:href="#F" class="D"/><g mask="url(#V)" class="E"><g transform="translate(-26 -67)"><g transform="translate(190.224)"><use xlink:href="#L" class="F"/><use xlink:href="#M" class="C"/><use xlink:href="#N" class="I"/><ellipse cx="47.293" cy="54.439" rx="47.272" ry="47.468" class="G"/></g><path d="M196.34 1.927V96.68H98.813l.01-1.114c.857-51.336 43.53-92.796 96.37-93.628l1.146-.01z" class="H"/><use xlink:href="#O" class="C"/><use xlink:href="#P" class="L"/></g></g></g><g transform="translate(15 115)"><mask id="W" class="B"><use xlink:href="#I" href="#F"/></mask><use xlink:href="#I" class="D" href="#F"/><g mask="url(#W)" class="E"><g transform="translate(-149 -4)"><g transform="translate(190.224)"><use xlink:href="#L" class="F"/><use xlink:href="#M" class="C"/><use xlink:href="#N" class="I"/><ellipse cx="47.293" cy="54.439" rx="47.272" ry="47.468" class="G"/></g><use xlink:href="#O" class="C"/><use xlink:href="#P" class="L"/></g></g></g><g transform="translate(15 216)"><mask id="X" class="B"><use xlink:href="#J" href="#F"/></mask><use xlink:href="#J" class="M" href="#F"/><g mask="url(#X)" class="E"><g transform="translate(-167 -4)"><g transform="translate(92.224)"><use xlink:href="#L" class="F"/><ellipse cx="47.293" cy="54.439" rx="47.272" ry="47.468" class="G"/></g><use xlink:href="#Q" class="H"/><use xlink:href="#O" x="-98" class="C"/></g></g></g><g transform="translate(15 317)"><mask id="Y" class="B"><use xlink:href="#K" href="#F"/></mask><use xlink:href="#K" class="M" href="#F"/><g mask="url(#Y)" class="E"><g transform="translate(-102 -54)"><g transform="translate(92.224)"><path d="M253.048 200.468v-200h-200l.02 2.353c1.757 108.36 89.27 195.87 197.632 197.628l2.35.02z" class="D"/><ellipse cx="47.293" cy="108.439" rx="47.272" ry="47.468" class="G"/></g><use xlink:href="#R" class="H"/><path d="M.17 150.68V55.927h97.526l-.01 1.114c-.857 51.336-43.53 92.796-96.37 93.628l-1.146.01z" class="C"/></g></g></g><g class="J"><rect x="122" y="14" width="250" height="14.912" rx="3.5"/><rect x="122" y="115" width="250" height="14.912" rx="3.5"/><rect x="122" y="216" width="268" height="14.912" rx="3.5"/><rect x="122" y="317" width="238" height="14.912" rx="3.5"/><rect x="122" y="33.173" width="268" height="14.912" rx="3.5"/><rect x="122" y="134.173" width="268" height="14.912" rx="3.5"/><rect x="122" y="235.173" width="238" height="14.912" rx="3.5"/><rect x="122" y="336.173" width="268" height="14.912" rx="3.5"/><rect x="122" y="52.345" width="158" height="14.912" rx="3.5"/><rect x="122" y="153.345" width="158" height="14.912" rx="3.5"/><rect x="122" y="254.345" width="158" height="14.912" rx="3.5"/><rect x="122" y="355.345" width="158" height="14.912" rx="3.5"/></g><g class="D"><rect x="122" y="92" width="158" height="14.912" rx="3.5"/><rect x="122" y="193" width="158" height="14.912" rx="3.5"/><rect x="122" y="294" width="158" height="14.912" rx="3.5"/><rect x="122" y="395" width="158" height="14.912" rx="3.5"/></g><g transform="translate(15 418)"><mask id="Z" class="B"><use xlink:href="#L" href="#F"/></mask><use fill="#192bc2" xlink:href="#L" href="#F"/><g mask="url(#Z)" class="E"><g transform="translate(-167 -4)"><g transform="translate(200.224)"><path d="M94.77 94.937V0H.228l.01 1.117c.83 51.436 42.2 92.977 93.423 93.81l1.1.01z" class="F"/><ellipse cx="63.048" cy="105.468" rx="47.272" ry="47.468" class="G"/></g><use xlink:href="#Q" class="H"/><use xlink:href="#O" x="-98" class="C"/></g></g></g><g class="J"><rect x="122" y="418" width="268" height="14.912" rx="3.5"/><rect x="122" y="437.173" width="268" height="14.912" rx="3.5"/><rect x="122" y="456.345" width="158" height="14.912" rx="3.5"/></g><rect x="122" y="496" width="158" height="14.912" rx="3.5" class="D"/><g transform="translate(15 519)"><mask id="a" class="B"><use xlink:href="#M" href="#F"/></mask><use xlink:href="#M" class="M" href="#F"/><g mask="url(#a)" class="E"><g transform="translate(-167 -38)"><g transform="translate(123.224)"><path d="M95.32 176.937V82H.776l.01 1.117c.83 51.436 42.2 92.977 93.423 93.81l1.1.01z" class="F"/><ellipse cx="123.048" cy="47.468" rx="47.272" ry="47.468" class="G"/></g><use xlink:href="#R" y="-20" class="H"/><path d="M.17 130.68V35.927h97.526l-.01 1.114c-.857 51.336-43.53 92.796-96.37 93.628l-1.146.01z" class="C"/></g></g></g><g class="J"><rect x="122" y="519" width="268" height="14.912" rx="3.5"/><rect x="122" y="538.173" width="268" height="14.912" rx="3.5"/><rect x="122" y="557.345" width="158" height="14.912" rx="3.5"/><rect x="125" y="637" width="158" height="14.912" rx="3.5"/></g><rect x="122" y="597" width="158" height="14.912" rx="3.5" class="D"/></g></g><g filter="url(#G)" transform="translate(545)"><path stroke="#f4f2ee" stroke-width="2" d="M2 0h580v787H2z" class="B"/><g transform="translate(39 54)"><path d="M319.696 26.974c3.16 0 5.524-.616 7.092-1.848s2.352-2.965 2.352-5.198c0-1.15-.15-2.13-.45-2.936a5.69 5.69 0 0 0-1.366-2.107c-.61-.6-1.378-1.122-2.3-1.57s-2.006-.904-3.252-1.364l-1.643-.604c-.496-.196-.934-.414-1.315-.656s-.675-.512-.882-.812-.31-.668-.31-1.105c0-.737.283-1.284.848-1.64s1.493-.535 2.785-.535c1.153 0 2.14.132 2.958.397s1.563.57 2.23.915h0l1.557-4.248c-.76-.414-1.73-.794-2.906-1.14s-2.572-.518-4.186-.518c-1.36 0-2.583.167-3.667.5s-2.006.812-2.768 1.433a6.38 6.38 0 0 0-1.764 2.262c-.415.886-.623 1.882-.623 2.988s.196 2.044.588 2.815.9 1.428 1.522 1.97 1.326 1 2.1 1.347l2.352.95c1.8.6 3.067 1.157 3.805 1.675s1.107 1.17 1.107 1.95c0 .368-.058.702-.173 1.002s-.323.558-.623.777-.698.39-1.194.518-1.124.2-1.885.2c-1.522 0-2.808-.155-3.857-.466s-1.932-.662-2.646-1.053h0l-1.522 4.283a12.88 12.88 0 0 0 1.194.587c.473.207 1.038.403 1.695.587s1.413.34 2.266.466a19.68 19.68 0 0 0 2.871.19zm22.97 0c1.707 0 3.183-.23 4.428-.69s2.272-1.11 3.08-1.95 1.407-1.848 1.8-3.022.588-2.464.588-3.868h0V2.555h-5.397v14.437c0 1.934-.41 3.304-1.228 4.1s-1.885 1.21-3.2 1.21c-.646 0-1.24-.092-1.782-.276a3.21 3.21 0 0 1-1.384-.915c-.38-.426-.68-.98-.9-1.658s-.33-1.502-.33-2.47h0V2.555h-5.397V17.44c0 1.405.2 2.688.57 3.85s.97 2.164 1.764 3.005 1.805 1.497 3.027 1.97 2.675.708 4.36.708zm23.075-.173c3.62 0 6.348-.633 8.182-1.9s2.75-3.154 2.75-5.664c0-1.243-.277-2.36-.83-3.35s-1.59-1.773-3.114-2.35c1.845-1.105 2.768-2.613 2.768-4.525 0-1.266-.26-2.33-.778-3.195s-1.24-1.56-2.162-2.1-2.024-.904-3.304-1.122-2.68-.328-4.203-.328l-3.667.155-3.632.466v23.2c1.407.3 2.762.49 4.065.57l3.926.12zm-.104-14.85h-2.63V6.734l1.418-.086 1.488-.017c1.43 0 2.514.196 3.252.587s1.107 1.07 1.107 2.038c0 .944-.357 1.63-1.072 2.055s-1.903.64-3.563.64h0zm.173 10.43c-.554 0-1.06-.012-1.522-.035l-1.28-.104V16.06h3.4c1.545 0 2.733.236 3.563.708s1.245 1.26 1.245 2.366c0 1.243-.496 2.095-1.488 2.556s-2.295.69-3.91.69zm21.725 4.594c3.16 0 5.524-.616 7.092-1.848s2.352-2.965 2.352-5.198c0-1.15-.15-2.13-.45-2.936a5.69 5.69 0 0 0-1.366-2.107c-.61-.6-1.378-1.122-2.3-1.57s-2.006-.904-3.252-1.364l-1.643-.604c-.496-.196-.934-.414-1.315-.656s-.675-.512-.882-.812-.31-.668-.31-1.105c0-.737.283-1.284.848-1.64s1.493-.535 2.785-.535c1.153 0 2.14.132 2.958.397s1.563.57 2.23.915h0l1.557-4.248c-.76-.414-1.73-.794-2.906-1.14s-2.572-.518-4.186-.518c-1.36 0-2.583.167-3.667.5s-2.006.812-2.768 1.433a6.38 6.38 0 0 0-1.764 2.262c-.415.886-.623 1.882-.623 2.988s.196 2.044.588 2.815.9 1.428 1.522 1.97 1.326 1 2.1 1.347l2.352.95c1.8.6 3.067 1.157 3.805 1.675s1.107 1.17 1.107 1.95c0 .368-.058.702-.173 1.002s-.323.558-.623.777-.698.39-1.194.518-1.124.2-1.885.2c-1.522 0-2.808-.155-3.857-.466s-1.932-.662-2.646-1.053h0l-1.522 4.283a12.88 12.88 0 0 0 1.194.587c.473.207 1.038.403 1.695.587s1.413.34 2.266.466a19.68 19.68 0 0 0 2.871.19zm24.528 0c1.822 0 3.425-.184 4.81-.553s2.456-.783 3.217-1.243h0l-1.488-4.317-1.003.45a8.73 8.73 0 0 1-1.28.432c-.484.127-1.038.236-1.66.328s-1.326.138-2.1.138c-1.245 0-2.306-.2-3.183-.604s-1.586-.95-2.128-1.64-.934-1.514-1.176-2.47-.363-1.986-.363-3.09c0-1.382.185-2.556.554-3.523s.86-1.756 1.47-2.366 1.315-1.053 2.1-1.33 1.61-.414 2.44-.414c1.245 0 2.358.138 3.338.414s1.84.6 2.577 1.002h0l1.557-4.352c-.185-.115-.484-.276-.9-.484s-.934-.41-1.557-.604-1.35-.368-2.18-.518-1.753-.224-2.768-.224c-1.753 0-3.38.276-4.878.83s-2.79 1.364-3.875 2.435-1.937 2.383-2.56 3.937-.934 3.32-.934 5.302c0 3.983 1.02 7.057 3.062 9.222s5 3.247 8.908 3.247zm16.882-.484v-8.738h2.664a23.39 23.39 0 0 1 1.384 1.848l1.4 2.16 1.384 2.35L437.1 26.5h6.054l-1.35-2.677-1.505-2.625-1.574-2.418-1.522-2.055c1.453-.6 2.566-1.422 3.338-2.47s1.16-2.412 1.16-4.093c0-2.694-.957-4.68-2.87-5.958s-4.67-1.917-8.268-1.917l-3.373.138c-1.257.092-2.474.253-3.65.484h0v23.6h5.397zm1.522-13.02h-1.522V6.976l.882-.07 1.055-.035c1.73 0 3.04.248 3.926.743s1.332 1.33 1.332 2.504c0 1.22-.438 2.084-1.315 2.6s-2.33.76-4.36.76h0zM452.02 26.5V2.555h-5.397V26.5h5.397zm13.527.31c3.62 0 6.348-.633 8.182-1.9s2.75-3.154 2.75-5.664c0-1.243-.277-2.36-.83-3.35s-1.59-1.773-3.114-2.35c1.845-1.105 2.768-2.613 2.768-4.525 0-1.266-.26-2.33-.778-3.195s-1.24-1.56-2.162-2.1-2.024-.904-3.304-1.122-2.68-.328-4.203-.328l-3.667.155-3.632.466v23.2c1.407.3 2.762.49 4.065.57l3.926.12zm-.104-14.85h-2.63V6.734l1.418-.086 1.488-.017c1.43 0 2.514.196 3.252.587s1.107 1.07 1.107 2.038c0 .944-.357 1.63-1.072 2.055s-1.903.64-3.563.64h0zm.173 10.43c-.554 0-1.06-.012-1.522-.035l-1.28-.104V16.06h3.4c1.545 0 2.733.236 3.563.708s1.245 1.26 1.245 2.366c0 1.243-.496 2.095-1.488 2.556s-2.295.69-3.91.69zm32.173 4.1v-4.525H486.2v-5.768h9.583v-4.42H486.2V7.08h10.794V2.555h-16.2V26.5h16.986zM380.582 65.873V46.53h7.23v-4.594h-19.857v4.594h7.23v19.34h5.397zm21.587.484c1.684 0 3.258-.265 4.722-.794a10.3 10.3 0 0 0 3.788-2.366c1.06-1.048 1.897-2.35 2.508-3.903s.917-3.356.917-5.405-.31-3.85-.934-5.405-1.476-2.86-2.56-3.92-2.352-1.854-3.805-2.383-2.998-.794-4.636-.794c-1.59 0-3.108.265-4.55.794s-2.7 1.324-3.805 2.383-1.966 2.366-2.612 3.92-.97 3.356-.97 5.405.31 3.85.934 5.405 1.476 2.855 2.56 3.903a10.66 10.66 0 0 0 3.805 2.366c1.453.53 2.998.794 4.636.794zm0-4.732c-1.015 0-1.914-.184-2.698-.553a5.51 5.51 0 0 1-1.989-1.571c-.542-.68-.957-1.49-1.245-2.435s-.432-2.003-.432-3.178c0-1.15.144-2.205.432-3.16s.703-1.773 1.245-2.452 1.205-1.21 1.99-1.59 1.684-.57 2.698-.57c.992 0 1.885.184 2.68.553s1.465.892 2.006 1.57.957 1.497 1.245 2.452.432 2.02.432 3.195-.144 2.233-.432 3.178-.703 1.756-1.245 2.435-1.21 1.203-2.006 1.57-1.69.553-2.68.553zm35.633 4.732c1.684 0 3.258-.265 4.722-.794a10.3 10.3 0 0 0 3.788-2.366c1.06-1.048 1.897-2.35 2.508-3.903s.917-3.356.917-5.405-.31-3.85-.934-5.405-1.476-2.86-2.56-3.92-2.352-1.854-3.805-2.383-2.998-.794-4.636-.794c-1.59 0-3.108.265-4.55.794s-2.7 1.324-3.805 2.383-1.966 2.366-2.612 3.92-.97 3.356-.97 5.405.31 3.85.934 5.405 1.476 2.855 2.56 3.903a10.66 10.66 0 0 0 3.805 2.366c1.453.53 2.998.794 4.636.794zm0-4.732c-1.015 0-1.914-.184-2.698-.553a5.51 5.51 0 0 1-1.989-1.571c-.542-.68-.957-1.49-1.245-2.435s-.432-2.003-.432-3.178c0-1.15.144-2.205.432-3.16s.703-1.773 1.245-2.452 1.205-1.21 1.99-1.59 1.684-.57 2.698-.57c.992 0 1.885.184 2.68.553s1.465.892 2.006 1.57.957 1.497 1.245 2.452.432 2.02.432 3.195-.144 2.233-.432 3.178-.703 1.756-1.245 2.435-1.21 1.203-2.006 1.57-1.69.553-2.68.553zm25.808 4.732c1.707 0 3.183-.23 4.428-.69s2.272-1.11 3.08-1.95 1.407-1.848 1.8-3.022.588-2.464.588-3.868h0V41.938h-5.397v14.437c0 1.934-.41 3.304-1.228 4.1s-1.885 1.21-3.2 1.21c-.646 0-1.24-.092-1.782-.276a3.21 3.21 0 0 1-1.384-.915c-.38-.426-.68-.98-.9-1.658s-.33-1.502-.33-2.47h0V41.938h-5.397v14.886c0 1.405.2 2.688.57 3.85s.97 2.164 1.764 3.005 1.805 1.497 3.027 1.97 2.675.708 4.36.708zm20.48-.484v-8.738h2.664a23.39 23.39 0 0 1 1.384 1.848l1.4 2.16 1.384 2.35 1.332 2.383h6.054l-1.35-2.677-1.505-2.625-1.574-2.418-1.522-2.055c1.453-.6 2.566-1.422 3.338-2.47s1.16-2.412 1.16-4.093c0-2.694-.957-4.68-2.87-5.958s-4.67-1.917-8.268-1.917l-3.373.138c-1.257.092-2.474.253-3.65.484h0v23.6h5.397zm1.522-13.02H484.1v-6.493l.882-.07 1.055-.035c1.73 0 3.04.248 3.926.743s1.332 1.33 1.332 2.504c0 1.22-.438 2.084-1.315 2.6s-2.33.76-4.36.76h0zm-205.527 53.683v-15.68a82.5 82.5 0 0 1 5.743 7.564l5.016 8.116h4.532V82.6h-5.362v14.126l-2.664-3.886-2.854-3.903-2.82-3.54-2.525-2.798h-4.394v23.935h5.328zm37.812 0V102h-11.59v-5.768h9.583v-4.42h-9.583v-4.697H317.1V82.6h-16.2v23.935h16.986zm13.042 0l2.318-6.96 2.214-7.305 2.25 7.305 2.352 6.96h4.947c1.222-3.707 2.358-7.62 3.408-11.743s1.978-8.186 2.785-12.192h0-5.604l-.744 4.23-.813 4.404c-.277 1.474-.57 2.9-.882 4.283l-.917 3.834c-.37-1.082-.75-2.256-1.142-3.523l-1.16-3.8-1.072-3.678-.917-3.195h-4.6l-.848 3.143-1.02 3.66-1.142 3.8c-.392 1.266-.796 2.464-1.21 3.592a85.01 85.01 0 0 1-.951-3.834l-.917-4.283-.865-4.404-.76-4.23H319.8c.807 4.006 1.736 8.07 2.785 12.192s2.185 8.036 3.408 11.743h4.947zm30.27.484c3.16 0 5.524-.616 7.092-1.848s2.352-2.965 2.352-5.198c0-1.15-.15-2.13-.45-2.936a5.69 5.69 0 0 0-1.366-2.107c-.61-.6-1.378-1.122-2.3-1.57s-2.006-.904-3.252-1.364c-.6-.207-1.147-.41-1.643-.604s-.934-.414-1.315-.656-.675-.512-.882-.812-.31-.668-.31-1.105c0-.737.283-1.284.848-1.64s1.493-.535 2.785-.535c1.153 0 2.14.132 2.958.397s1.563.57 2.23.915h0l1.557-4.248c-.76-.414-1.73-.794-2.906-1.14s-2.572-.518-4.186-.518c-1.36 0-2.583.167-3.667.5s-2.006.812-2.768 1.433a6.38 6.38 0 0 0-1.764 2.262c-.415.886-.623 1.882-.623 2.988s.196 2.044.588 2.815.9 1.428 1.522 1.97 1.326 1 2.1 1.347a28.72 28.72 0 0 0 2.352.95c1.8.6 3.067 1.157 3.805 1.675s1.107 1.17 1.107 1.95c0 .368-.058.702-.173 1.002s-.323.558-.623.777-.698.39-1.194.518-1.124.2-1.885.2c-1.522 0-2.808-.155-3.857-.466s-1.932-.662-2.646-1.053h0l-1.522 4.283a12.88 12.88 0 0 0 1.194.587c.473.207 1.038.403 1.695.587s1.413.34 2.266.466a19.68 19.68 0 0 0 2.871.19zm29.613-.484v-4.628h-10.62V82.6h-5.397v23.935h16.017zm20.445 0V102h-11.59v-5.768h9.583v-4.42h-9.583v-4.697h10.794V82.6h-16.2v23.935h16.986zm14.53 0v-19.34h7.23V82.6H413.17v4.594h7.23v19.34h5.397zm21.24 0v-19.34h7.23V82.6h-19.857v4.594h7.23v19.34h5.397zm27.676 0V102h-11.59v-5.768h9.583v-4.42h-9.583v-4.697h10.794V82.6h-16.2v23.935h16.986zm9.375 0v-8.738h2.664a23.39 23.39 0 0 1 1.384 1.848 64.52 64.52 0 0 1 1.401 2.159 57.28 57.28 0 0 1 1.384 2.349l1.332 2.383h6.054c-.415-.875-.865-1.767-1.35-2.677s-.986-1.784-1.505-2.625-1.044-1.646-1.574-2.418-1.038-1.456-1.522-2.055c1.453-.6 2.566-1.422 3.338-2.47s1.16-2.412 1.16-4.093c0-2.694-.957-4.68-2.87-5.958s-4.67-1.917-8.268-1.917c-.992 0-2.116.046-3.373.138s-2.474.253-3.65.484h0v23.6h5.397zm1.522-13.02H484.1V87.02l.882-.07a14.44 14.44 0 0 1 1.055-.035c1.73 0 3.04.248 3.926.743s1.332 1.33 1.332 2.504c0 1.22-.438 2.084-1.315 2.6s-2.33.76-4.36.76h0z" fill="#000" fill-rule="nonzero"/><path d="M376.715 249V125.93H251.472l.012 1.447c1.1 66.68 55.903 120.53 123.76 121.6l1.472.012z" fill="#005b11"/><path d="M126.23.892v123.07H.986l.012-1.447C2.098 55.836 56.9 1.985 124.758.904l1.472-.012z" class="H"/><path d="M126.23 123.96V.892h125.243l-.012 1.447c-1.1 66.68-55.903 120.53-123.76 121.6l-1.472.012z" class="C"/><path d="M125.243 125.93V249H0l.012-1.447c1.1-66.68 55.903-120.53 123.76-121.6l1.472-.012z" class="L"/><ellipse fill="#ff7800" transform="matrix(1 0 0 -1 0 374.930502)" cx="437.858" cy="187.465" rx="60.156" ry="61.535"/></g><g class="D"><rect stroke="#e7e7e7" x="136" y="373" width="402" height="47" rx="3.669" class="K N O"/><path d="M60.5 399c6.342 0 11.5-5.158 11.5-11.5S66.842 376 60.5 376 49 381.158 49 387.5 54.158 399 60.5 399"/><path d="M61 400c-12.952 0-22 7.05-22 17.143V420h44v-2.857C83 407.05 73.953 400 61 400"/><rect stroke="#e7e7e7" x="136" y="471" width="402" height="47" rx="3.669" class="K N O"/><rect x="147" y="384" width="176" height="25" rx="11.59"/><rect x="147" y="481" width="227" height="25" rx="11.59"/></g><rect x="147" y="568" width="176" height="25" rx="11.59" class="J"/><g transform="translate(83 699)"><g stroke-width="2.393" class="K"><rect stroke="#0d62fe" width="204.078" height="48" rx="4"/><rect stroke="#42be65" fill="#42be65" x="214.922" width="204.078" height="48" rx="4"/></g><path d="M309.655 42.122l-12.905-13.08 4.63-4.694 8.05 8.16 23.882-26.63 4.846 4.463z" class="B"/><path d="M120.278 11.322l-5.48-5.444-12.76 12.68-12.76-12.68-5.48 5.444L96.56 24 83.8 36.678l5.48 5.444 12.76-12.678 12.76 12.678 5.48-5.444L107.518 24z" class="D"/></g><g transform="translate(39 479)" class="D"><path d="M22.49 14L42.044.623C41.418.238 40.707 0 39.94 0h-34.9C4.27 0 3.56.238 2.933.623L22.49 14z"/><path d="M23.16 17.857c-.356.236-.757.354-1.16.354a2.1 2.1 0 0 1-1.162-.354L.007 4c0 .024-.007.045-.007.064v21.22C0 27.885 1.973 30 4.4 30h35.2c2.427 0 4.4-2.115 4.4-4.716V4.064c0-.02-.007-.04-.007-.064L23.16 17.857z"/></g><g transform="translate(0 560)"><path stroke="#f4f2ee" stroke-width="2.106" stroke-linecap="square" d="M1.556 96.04l581.04.98" class="K"/><rect x="395.581" y="7.84" width="144.027" height="32.34" rx="16.17" class="D"/><use fill="#000" filter="url(#I)" xlink:href="#H"/><use xlink:href="#H" class="B"/></g></g></g></svg>