<svg xmlns="http://www.w3.org/2000/svg" width="1639" height="1639" xmlns:v="https://vecta.io/nano"><style><![CDATA[.B{stroke-linecap:round}.C{stroke-linejoin:round}.D{stroke-width:5.322}]]></style><g fill="none" fill-rule="evenodd"><g transform="matrix(-1 0 0 1 1140.934164 798.947)"><path d="M28.864 185.7c47.05-58.855 135.523-66.773 209.467-63.82s98.938 20.606 135.97 77.62 28.775 101.45 7.687 143.545C332.577 441.68 99.52 472.06 22.414 379.264-18.678 329.8 7.02 250.77 18.942 199.882l9.922-14.183z" fill="#ff8100"/><g stroke="#ffc415" stroke-width="11.31" class="B C"><path d="M242.937 167.404c13.6 33.32 51.9 11.005 36.786-12.604m-91.49-25.2c26.687 13.578 43.933 37.5 66.17 58.24 12.302 11.468 24.444 23.15 35.687 35.623 3.307 3.67 9.675 8.05 7.756 12.572-1.763 4.154-43.64 7.296-47.32.57-1.903-3.478-2.456-15.568-2.328-11.62 1.177 36.418 15.875 74.46 7.17 103.976-4.66 15.8-69.804 4.992-67.142 14.404 5.643 19.952 28.477 21.5 68.503 4.675 3.954 8.077 1.64 17.912 1.164 26.86-1.077 20.2-3.877 40.255-5.816 60.382"/><path d="M171.818 175.6c-2.86 22.582 27.998 36.85 48.048 20.22 13.473-11.176 6.196-25.685 5.98-41.03"/></g><path d="M250.09 72.965c-15.27 52.25-101.7 61.096-139.56 31.793s-2.18-28.945 20.88-18.09l.36.005c17.724 12.995 40.388 15.053 68 6.176a13.93 13.93 0 0 0 2.143-.706l2.696-.944-.22-.242c18.595-9.99 55.27-50.713 45.7-17.992zm-39.688-48.16c10.23 23.848-9.772 52.56-14.85 62.1-16.184 3.82-36.015 1.506-59.5-6.94-7.326-17.364-9.716-37.71 1.183-54.923 18.532-29.27 57.915-35.766 73.158-.236z" fill="#001c6c"/></g><path d="M244.847 763.123c32.352-41.272 93.186-46.825 144.03-44.754s68.03 14.45 93.493 54.43 19.786 71.142 5.286 100.66c-7.256 14.772-20.272 27.36-36.773 37.392C442.125 916.177 424 919 424 958s-23.145-26.588-34.33-24.378c-56.014 11.067-119.512 1.746-149.257-34.762-28.255-34.68-10.585-90.107-2.388-125.79l6.823-9.946z" fill="#001c6c"/><path d="M337.88 862.418c-5.715 0-10.358-4.654-10.352-10.388 0-5.734 4.638-10.388 10.347-10.388 5.72-.005 10.352 4.654 10.358 10.388-.005 5.734-4.638 10.388-10.352 10.388h0zm68.802-44.862l7.32-7.344-12.806-12.85 7.32-7.34L397.53 779l-49.117 49.297c-3.1-1.382-6.444-2.15-9.923-2.233l-.6-.005c-13.945 0-25.555 11.375-25.88 25.353-.17 6.94 2.366 13.52 7.138 18.543a25.63 25.63 0 0 0 18.117 8.041l.63.005c13.924 0 25.53-11.37 25.855-25.353.12-4.997-1.206-9.79-3.722-13.972l19.21-19.275 12.8 12.86 7.324-7.35-12.806-12.855 7.32-7.35 12.806 12.85z" fill="#f7fff7"/><g transform="matrix(-1 0 0 1 591 986)"><path d="M57.142 80.815c-1.5-26.347 21.8-33.052 28.26-8.8 4.928 18.502-21.933 20.257-30.4 8.8" fill="#212121"/><path d="M91.432.968c8.98 0 18.1.65 27.356 1.948l1.737.25c3.665.545 6.56 3.393 7.16 7.046 2.742 16.663 3.852 33.64 3.332 50.934 2.413 1.752 5.596 1.35 9.55-1.202-.434-16.88.688-33.456 3.366-49.732.585-3.557 3.344-6.35 6.872-7l.288-.048 1.737-.25c9.257-1.3 18.376-1.948 27.356-1.948l2.11.01c11.795.108 35.638 1.064 71.53 2.866 3.81.19 7.136 2.62 8.486 6.165l.105.3.353 1.04c5.36 15.976 8.04 33.823 8.04 53.543 0 18.816-2.497 35.197-7.5 49.145-1.767 4.937-6.367 8.284-11.6 8.47l-.334.008-5.137.042c-10.095.066-19.113.03-27.057-.106l-4.58-.08-56.143-.02c-6.104.035-11.366-4.24-12.6-10.182l-.062-.32-.292-1.634c-1.456-8.29-2.606-16.887-3.45-25.794-4.092-4.4-8.298-4.74-12.617-1.023-1.175 10.682-2.967 21.337-5.375 31.968l-.413 1.796c-1.31 5.617-6.22 9.662-11.99 9.874l-25.545.906-29.112.85-3.727.068-28.5.07-2.58-.023c-5.34-.05-10.088-3.41-11.907-8.43C3.975 102.993.808 84.464.808 64.88c0-19.72 2.68-37.567 8.04-53.543L9.2 10.3c1.276-3.703 4.677-6.258 8.59-6.455l12.105-.598L91.432.968zm-10.78 10.106l-1.677.063c-10.665.44-25.613 1.814-44.842 4.12l-3.127.378a4.27 4.27 0 0 0-3.726 3.841l-.244 2.62c-3.882 42.53-2.7 72.016 3.575 88.46 2.78 7.297 30.108 8.367 81.984 3.21l.47-3.98c2.766-23.872 4-41.383 3.702-52.534l-.013-.455c-.364-11.728-1.75-26.255-4.157-43.58-9.416-1.823-20.063-2.536-31.942-2.14zm98.324 1l-1.15-.035c-11.15-.31-17.418.408-18.803 2.156l-.322 2.325c-2.208 16.158-3.486 29.787-3.833 40.887l-.028 1.073c-.255 11.617 1.052 28.675 3.922 51.174 53.966 2.993 82.338.87 85.116-6.364 6.374-16.6 6.568-44.27.582-83.005a4.25 4.25 0 0 0-3.818-3.579l-9.448-.85c-24.62-2.184-42.025-3.444-52.217-3.782z" fill="#f3a712"/><path d="M106.375 13.52l194.25 13.53c1.9 7.445 2.96 45.128 3.182 113.05l-3.182 71.112c-66.5 9.52-152.25 9.52-257.25 0C39.9 145.727 60.457 80.486 105.017 15.49l1.358-1.97z" fill="#fb3640"/><g stroke="#212121" class="B C D"><path d="M197 190.7c20.95-9.986 31.325-8.537 51.252 2.516M46 163.516c20.95 9.986 31.325 8.537 51.252-2.516"/><path d="M117.935 17c-.215 12.262-7.018 58.715 6.237 76.594C156.716 137.492 240.12 191.524 290 145.33"/><path d="M123.38 118.306c3.16-8.323 5.434-15.533 15.343-20.922 5.495-2.99 12.626-1.964 18.752-.698 5.262 1.087 10.542 3.637 14.26 7.516 16.62 17.346 1.243 43.32-18.91 46.65-7.4 1.222-27.04 3.848-31.383-6.5" fill="#ff4445"/><path d="M170 21c15.666 46.232 31.98 83.602 75.24 106.822 14.95 8.025 49.843 26.862 64.76 8.18M235 13c10.944 51.387 25.84 109.575 80 119"/></g></g><path d="M1572.522 458.665c-75.763-96.647-218.224-109.65-337.292-104.8s-159.313 33.837-218.945 127.46-46.335 166.593-12.378 235.72c16.993 34.592 47.473 64.072 86.115 87.56C1110.533 817.073 1141 839 1116 899s78-50 117.374-41.077c130.185 29.5 279.875 4.09 349.533-81.402 66.17-81.208 24.79-211.003 5.592-294.566l-15.977-23.3z" fill="#0d62fe"/><path d="M1297 673.6c-10.646 0-19.286-8.635-19.286-19.275s8.64-19.275 19.286-19.275 19.286 8.635 19.286 19.275-8.64 19.275-19.286 19.275m64.286-89.95H1258.43v-51.4c0-21.254 17.306-38.55 38.57-38.55s38.57 17.296 38.57 38.55v12.85h25.714v-12.85c0-35.427-28.84-64.25-64.286-64.25s-64.286 28.823-64.286 64.25v51.4c-14.18 0-25.714 11.514-25.714 25.7v89.95c0 14.174 11.533 25.7 25.714 25.7h128.57c14.18 0 25.714-11.526 25.714-25.7v-89.95c0-14.186-11.533-25.7-25.714-25.7" fill="#f7fff7"/></g></svg>