<svg xmlns="http://www.w3.org/2000/svg" xmlns:xlink="http://www.w3.org/1999/xlink" width="1200" height="630" xmlns:v="https://vecta.io/nano"><style><![CDATA[.B{stroke-linecap:round}.C{stroke-linejoin:round}.D{stroke-width:2.801}.E{stroke:#212121}.F{fill-rule:nonzero}.G{fill:#001c6c}.H{fill:#ffa300}.I{fill:#212121}.J{stroke-width:3.081}.K{fill:#001d71}]]></style><defs><path d="M47.193.5c-11.49 0-20.807 9.39-20.807 20.97 0 1.182.097 2.352.29 3.503l.036.21.025.134a20.49 20.49 0 0 1 .292 3.455l-.002.255c-.103 8.33-5.248 15.66-12.838 18.612l-.144.054C5.7 50.578 0 58.504 0 67.53 0 79.11 9.316 88.5 20.807 88.5s20.807-9.39 20.807-20.97a21.26 21.26 0 0 0-.364-3.928c-.184-1.102-.278-2.232-.278-3.373 0-8.478 5.226-15.966 12.966-18.915C62.276 38.44 68 30.507 68 21.47 68 9.89 58.684.5 47.193.5z" id="A"/><filter x="-2.9%" y="-2.3%" width="105.9%" height="104.5%" id="B"><feGaussianBlur stdDeviation="1" in="SourceAlpha"/><feOffset dy="2"/><feComposite in2="SourceAlpha" operator="arithmetic" k2="-1" k3="1"/><feColorMatrix values="0 0 0 0 0.999781668 0 0 0 0 1 0 0 0 0 0.999749839 0 0 0 0.206484921 0"/></filter><path d="M74 46.5c-11.598 0-21 9.402-21 21s9.402 21 21 21 21-9.402 21-21-9.402-21-21-21z" id="C"/><filter x="-84.5%" y="-51.2%" width="269.0%" height="269.0%" id="D"><feOffset dy="14" in="SourceAlpha"/><feGaussianBlur stdDeviation="9.5"/><feColorMatrix values="0 0 0 0 0 0 0 0 0 0.168365806 0 0 0 0 0.376060605 0 0 0 0.1 0"/></filter><path id="E" d="M679.412 53.41c-20.347-25.986-58.607-29.482-90.584-28.178s-42.786 9.098-58.8 34.27-12.444 44.793-3.324 63.38c4.564 9.3 12.75 17.227 23.127 23.543 5.508 3.352 13.763 7.648-9.507 14.574s40.97-1.63 48.006-.238c35.23 6.968 75.164 1.1 93.872-21.887 17.77-21.835 6.657-56.733 1.502-79.2l-4.29-6.262z"/><path id="F" d="M798.27 269.177c-.944-16.588 13.7-20.8 17.773-5.54 3.1 11.65-13.794 12.754-19.12 5.54"/></defs><g fill="none" fill-rule="evenodd"><path fill="#0d62fe" d="M0 0h1200v630H0z"/><g transform="translate(553 270.5)"><g class="F"><use fill="#fff" xlink:href="#A"/><use fill="#000" filter="url(#B)" xlink:href="#A"/></g><use fill="#000" filter="url(#D)" xlink:href="#C"/><use fill="#fff" xlink:href="#C"/></g><path d="M344.815 260.27c-19.94-65.83 49.258-150.744 99.282-166.012 75.965-23.184 95.865 109.508 92.452 110.814-21.053 8.058-84.965 26.457-191.735 55.198z" class="K"/><path d="M503.01 150.25c3.428 27.38-23.354 96.49-51.637 92.69-23.755-3.2-37.593-23.39-44.92-45.007-1.24-3.656-19.6 5.88-22.106-11.12s17.507-6.322 16.98-9.444c-1.757-10.434-1.624-19.286-1.357-26.356.042-1.116 6.037-4.568 18.856-6.608 5.735-.912 12.837-1.542 21.382-1.553 12.2-.016 25.81 1.184 37.243 2.635 3.288.417.28-30.258 3.12-29.822 2.89.444 11.62 31.998 13.866 32.413 5.275.974 8.524 1.802 8.57 2.17z" fill="#fff"/><path d="M464.224 157.85c1.55 14.92 12.58 10.014 12.58.05m-11.95 8.135l-3.774 5.037m9.434-3.148l-2.516 8.185m5.66-9.444l1.887 6.926" class="B C D E"/><path d="M454.8 152.183c10.196 15.54 16.368 24.63 18.518 27.267.948 1.164 2.775 2.554 2.224 4-.505 1.318-12.514 2.315-13.57.18-.546-1.104-.704-4.94-.668-3.688.225 7.705.9 12.563 2.023 14.574" stroke="#001d71" fill="#fff" class="B C D"/><g class="B C D E"><path d="M431.156 158.283c-2.346 9.886 11.594 11.138 14.2-1.063"/><path d="M432.777 165.405l-4.402 3.148m8.588-2.518l-.194 5.667m4.813-6.297l1.887 4.407"/></g><path d="M454.775 197.18c4.09.452 2.845 6.182 6.04 5.415 1.612-.387 2.962-2.174 4.6-1.88 2.483.447 5.927 2.663 10.33 6.646L463.9 212.84c-7.45 3.594-30.252-9.172-35.53-13.947l18.687 5.995c29.114 4.18 22.885 2.182-18.687-5.995 7.2-4 22.318-2.163 26.406-1.712z" fill="#ff4445"/><use xlink:href="#E" class="G"/><g transform="matrix(-1 0 0 1 806.987008 157.888149)"><path d="M134.203 93.62c16.475 0 36.71-1.037 60.707-3.112l6.226-30.598h-26.98l2.075-44.6H26.798l-.913 24.734C8.628 35.23 0 37.493 0 46.828S7.722 61.734 23.166 63.54l5.19 23.856c54.1 4.15 89.373 6.223 105.848 6.223z" class="H"/><path d="M112.947 14.75c-.745 13.024 10.82 16.338 14.025 4.35 2.446-9.146-10.886-10.014-15.1-4.35m44.616-2.075c.226 2.77.06 5.604.678 8.314 2.686 11.76 17.353.35 9.575-9.475" class="I"/><path d="M179.97.006c3.198 0-.586 28.577-2.594 34.312-2.547 7.274-8.56 5.705-15.047 5.705-2.062 0-3.832-.068-5.388-.248-3.376-4.1-8.007-8.79-12.898-12.656h0l.725 4.225-.426-.66-.505-.818c-3.932 9.934-11.852 12.75-21.46 12.75-22.217 0-31.084-16.943-27.53-42.6h85.122zm-44.148 11.576h-30.017l-.01.147c-.434 7.043.54 12.283 2.73 15.755l.116.18.11.166c2.62 3.867 7.276 5.884 14.662 5.884 5.447 0 9.053-3.797 11.215-13.253l.07-.314c.357-1.68.708-4.254 1.04-7.676l.064-.673.02-.217zm35.653 0H149.24l.01.044c3.355 13.772 7.874 19.26 16.647 19.49l.267.005.314.002c.314 0 .478-.067.773-.348.622-.592 1.305-1.763 1.933-3.555 1.193-3.406 1.964-8.417 2.26-14.96l.028-.676z" fill="#fb3640" class="F"/><path d="M147.502 33.352C157.94 41.6 167.2 53.6 165.605 55.6c-2.075 2.593-9.582 3.127-11.415 2.074-1.473-.845-.808.3-.808 9.97m-28.675-8.11c12.22 9.074 25.782 10.227 39.177 7.473" class="B C E J"/><g stroke="#001d71" class="B C J"><path d="M137.792 82.815c2.618 10.476 8.795 17.08 15.336 25.847m-4.65-26.99c7.146 22.63 5.558 12.978 7.18 28.455m1.712-26.824c2.136 22.002 1.876 12.852 1.876 27.396m7.584-27.396l-4.894 30.086m11.504-29.27c-.588 10.665-3.397 19.17-8.73 28.373m16-29.433c-.975 10.403-3.94 20.423-10.93 28.538"/><path d="M184.697 94.23c-8.64 11.587-9.684 15.138-22.597 18.182"/></g><path d="M125.58 55.737c-.782 2.102-2.34 4.177-4.933 4.297" class="B C E J"/></g><path d="M929.758 234.65l4.25 16.983c.757 3.403 1.544 10.48 2.362 21.228 17.95-7.548 26.923-2.516 26.923 15.096s-8.974 23.587-26.923 17.926v67.46l-179.013 4.246v-71.705c-19.523 4.717-28.497-1.258-26.923-17.926s10.55-21.7 26.923-15.096l3.306-38.21h169.094zM784.28 257.294c-12.28 38.368-13.383 67.616-3.306 87.744 6.408 12.8 60.566 16.218 95.883 12.737 13.478-1.328 27.333-5.574 41.565-12.737 2.448-13.017 3.393-26.383 2.834-40.098s-2.606-27.396-6.14-41.04c-8.502-9.435-29.284-15.4-62.348-17.926s-55.892 1.258-68.488 11.322z" class="K"/><g class="F"><path d="M838.4 315.75a4.49 4.49 0 0 1 .601.39c.107.087.2.173.302.304l.075.1c.076.106.106.2.247.583l.012.25c.008.188.01.33-.01.452l-.006.032.02.015.125.105c.353.318.603.75.6 1.326l-.003.13-.01.1.048.015c.616.197 1.113.568 1.4 1.05l.06.115.02.008a2.01 2.01 0 0 1 1.106.986l.06.126a1.68 1.68 0 0 1-.004 1.357l-.052.106-.738 1.384-.007.072c-.102.786-.68 1.452-1.618 1.552l-.13.01c-.34.017-.617-.03-1.027-.145l-.314-.093-.695-.216-.312-.086-.065-.016-.078.166c-.424.9-.73 1.368-1.452 1.773-13.194 7.4-28.582 11.288-40.75 9.136-1.417-.25-2.112-1.706-1.307-2.933.2-.322.5-.598.874-.873l.065-.047-.064-.025a1.69 1.69 0 0 1-.403-.247l-.102-.088c-.75-.684-.685-1.557-.3-2.196a2.17 2.17 0 0 1 .439-.508c.33-.292.874-.642 1.6-1.06a36.57 36.57 0 0 1 1.46-.787l.448-.225-.256.055-.862.18-.948.2c-1 .192-1.756.32-2.22.367a3.33 3.33 0 0 1-.567.018 1.7 1.7 0 0 1-.985-.364l-.033-.028-.465.446-.345.336c-.66.647-1.72.636-2.367-.025s-.634-1.722.027-2.37c5.308-5.198 11.355-9.67 16.917-12.23 6.86-3.16 12.823-3.38 17.173.134l.188.155a12.72 12.72 0 0 0 1.01.78l.144.094 1.495-.413c1.016-.28 1.84-.3 3.137-.105l.124.02.027-.003c1.294-.148 2.3-.065 3.857.26l.418.1.363-.116c.893-.286 1.55-.375 2.445-.216.416.074.898.278 1.395.546l.187.103zm-3.493 8.912c-.34.027-.58.074-.787.15l-.565.205c-2.53.925-3.614 1.45-6.155 2.897l-1.217.696-.47.26c-2.04 1.114-4.034 1.856-7.228 2.582l-.942.207c-1.984.422-3.803.722-7.056 1.2l-2.693.384-4.796.75-.5.1.13.002c10 .05 21.6-3.398 31.874-9.066l.305-.17.046-.085.045-.1zm-14.017-7.94l-.01-.006c-5.107-3.32-13.795-.232-22.8 6.835l-.15.118 1.224-.406c5.964-1.97 12.272-3.868 20.205-6.112l1.52-.43zm5.383 7.98l-3.013.87-2.803.827-6.843 2.037-2.596.765-1.263.368 1.8-.264c2.23-.333 3.698-.588 5.247-.916l.594-.128.646-.146c2.6-.6 4.23-1.2 5.864-2.08l.196-.106.584-.327 1.1-.635.466-.264zm6.578-5.117c-.67.1-1.298.106-2.05-.02l-.23-.042a7.18 7.18 0 0 0-1.623-.134h-.238c-.255.014-1.14.1-1.287.1-.775.05-1.475.01-2.164-.16l-.112-.03-.262.064a69.23 69.23 0 0 0-3.603 1.001l-1.015.316c-1.584.505-3.038 1.03-5.45 1.957l-4.042 1.56 1.137-.24 4.15-.833 5.73-1.105 4.885-.983.904-.192.14-.038 1.737-.47 1.105-.293a14.9 14.9 0 0 1 1.79-.353l.222-.028.433-.118-.155.028zm18.107-2.635l.12-.07.46-.267c1.176-.67 1.788-.895 2.6-.7l.688.15 3.738.682 1.425.228 1.434.1 7.262.705.432.06 3.195-.004 3.287.05c4.523.167 8.46.833 13.14 2.395l.504.17c.097.033.225.07.4.112l.384.092.726.163c.638.144 1.078.26 1.494.403.67.23 1.183.505 1.586.94.697.753.806 1.796.28 2.708-.58 1-1.25 1.488-2.38 1.774l-.058.014.092.045a1.59 1.59 0 0 1 .875 1.094l.03.135c.15.828-.224 1.383-.737 1.74a2.3 2.3 0 0 1-.544.274 6.87 6.87 0 0 1-.787.223l-.17.04-.804.165-.23.043-.044.067c-.3.445-.82.748-1.434.8l-.116.005a20.56 20.56 0 0 1-1.933-.064l-.5-.047 2.157.337.142.024.26.05c.08.016.15.032.217.048.356.088.54.15.83.383.735.6.954 1.775.1 2.568-.3.267-.527.356-.83.423-.176.04-.358.057-.6.07l-.965.04-.3.008-.007.067c-.064.425-.283.796-.592 1.07l-.086.072a2.23 2.23 0 0 1-.789.389c-7.295 2.115-14.483 1.554-21.794-1.304-5.84-2.284-11.437-5.83-18.186-11.135-.727-.572-.854-1.625-.283-2.352a1.67 1.67 0 0 1 2.26-.347l.074.054.036-.083a1.76 1.76 0 0 1 .333-.48l.087-.084c.392-.352.75-.5 1.236-.517l.108-.002-.015-.067c-.014-.07-.023-.14-.028-.2l-.002-.04-.043-.056-.07-.105c-.137-.217-.235-.462-.263-.774a1.7 1.7 0 0 1 .553-1.41c.34-.306.646-.415.973-.438l.072-.004.04-.022a4.1 4.1 0 0 1 .955-.371l.025-.006zm5.462 11.358c2.695 1.643 5.28 2.948 7.893 3.97 4.352 1.702 8.612 2.505 12.87 2.327l.35-.017-.826-.15-.9-.158-2.43-.407c-3.63-.617-5.5-1.036-7.633-1.808l-.704-.26c-2.133-.8-5.175-2.045-8.063-3.294l-.76-.33.2.13zm17.55-4.084l1.097.505c1.644.748 2.57 1.116 3.7 1.455l.744.223c1.086.322 2.04.587 2.903.8l.195.047-.288-.142a16.45 16.45 0 0 0-1.289-.553l-.322-.118c-1.882-.664-3.805-1.303-5.813-1.932l-.916-.285z" class="I"/><path d="M821.052 296.32c3.638-1.128 6.558-.465 11.364 1.832l2.368 1.15c.835.396 1.192 1.395.796 2.232s-1.394 1.193-2.23.797l-1.25-.606-.558-.274c-4.443-2.175-6.788-2.772-9.5-1.93-1.85.574-2.523 4.77-2.22 9.525.362 5.673 8.17 8.686 13.64 5.954.827-.413 1.832-.077 2.245.75s.077 1.834-.75 2.247c-7.4 3.698-17.94-.367-18.474-8.74-.135-2.122-.114-4.258.22-6.333.548-3.42 1.85-5.83 4.35-6.606zm35.128 7.1c3.586-3.237 6.83-4.762 9.598-4.537 2.714.22 4.642 2.095 5.385 4.853 1.427 5.292-1.568 11.996-7.28 14.512-1.672.736-3.334 1.1-5.16 1.182l-.344.012c-1.2.03-2.04-.02-4.1-.214l-1.513-.143-.794-.065c-.922-.068-1.614-.872-1.546-1.794s.87-1.616 1.792-1.547l.7.055.995.092 1.48.14c1.357.12 2.038.15 2.9.127 1.547-.04 2.887-.314 4.243-.912 4.163-1.834 6.4-6.844 5.396-10.57l-.066-.225c-.982-3.122-4.145-3.26-9.445 1.525a1.67 1.67 0 0 1-2.364-.123c-.62-.688-.564-1.747.122-2.366z" class="G"/></g><g class="I"><use xlink:href="#F"/><path d="M853.527 271.606c.296-3.497.077-7.07.887-10.49 3.513-14.837 22.694-.442 12.522 11.955"/></g><path d="M859.928 282.268l.017.3.025.537c.056 1.427.03 2.835-.065 4.68l-.17 3-.13 2.723-.387 5.714c-.757 8.12-2.488 14.067-6.09 18.768-5.35 6.98-11.614 6.93-16.095 1.097-3.717-4.84-5.485-12.85-4.105-19.015l.25-1.113c2.627-11.538 4.485-16.415 6.4-17.8l.067-.048-.028-.467-.294-4.16c-.063-.923.634-1.723 1.556-1.785s1.72.635 1.783 1.558l.307 4.348c.04.643.053 1.007.04 1.3l-.003.067c-.05.852-.396 1.546-1.256 1.878-.046.018-.108.037-.17.056l-.127.034-.082.1c-.033.043-.074.1-.122.17l-.05.076c-.294.45-.637 1.147-1.024 2.122l-.084.213c-1.092 2.816-2.385 7.424-3.897 14.18-1.163 5.196.38 12.19 3.493 16.24 3.148 4.1 6.784 4.127 10.786-1.094 3.08-4.02 4.65-9.284 5.372-16.607l.1-1.09c.127-1.447.2-2.757.32-4.937l.145-3.01.134-2.31c.118-2.172.145-3.683.06-5.256-.242-4.526 3.002-5.63 3.325-.478z" class="F G"/><path d="M829.15 240.96c3.978 0 8.018.288 12.12.863l.77.11c1.624.242 2.906 1.503 3.172 3.12 1.215 7.38 1.707 14.898 1.476 22.557 1.07.776 2.48.6 4.23-.532-.192-7.475.305-14.816 1.49-22.024.26-1.575 1.48-2.812 3.044-3.1l.127-.02.77-.11c4.1-.575 8.14-.863 12.12-.863l.935.005c5.225.048 15.788.47 31.69 1.27a4.25 4.25 0 0 1 3.76 2.73l.047.128.157.46c2.374 7.075 3.562 14.98 3.562 23.712 0 8.333-1.106 15.588-3.318 21.764-.783 2.186-2.82 3.67-5.134 3.75l-.148.003-2.276.018c-4.472.03-8.468.014-11.987-.047l-2.03-.036-24.873-.01c-2.704.015-5.035-1.878-5.582-4.51l-.028-.142-.13-.724c-.645-3.67-1.155-7.478-1.528-11.423-1.813-1.948-3.676-2.1-5.6-.453a126.7 126.7 0 0 1-2.381 14.157l-.183.795c-.58 2.487-2.756 4.28-5.31 4.373l-11.317.4-12.897.377-1.65.03-12.626.032-1.143-.01a5.67 5.67 0 0 1-5.275-3.733c-2.806-7.738-4.2-15.944-4.2-24.617 0-8.733 1.187-16.637 3.562-23.712l.157-.46a4.25 4.25 0 0 1 3.806-2.858l5.363-.265 27.26-1.01zm-4.723 4.717l-.744.028c-4.73.194-11.362.8-19.893 1.816l-1.387.167a1.89 1.89 0 0 0-1.653 1.694l-.108 1.156c-1.722 18.756-1.193 31.76 1.586 39.01 1.233 3.218 13.356 3.7 36.37 1.415l.208-1.756c1.227-10.528 1.775-18.25 1.642-23.168l-.006-.2c-.16-5.172-.776-11.58-1.844-19.22-4.177-.804-8.9-1.118-14.17-.943zm43.454 0l-.51-.016c-4.95-.138-7.732.18-8.347.96l-.143 1.034c-.98 7.186-1.547 13.248-1.7 18.185l-.013.477c-.113 5.167.467 12.753 1.74 22.76 23.958 1.33 36.553.388 37.786-2.83 2.83-7.384 2.916-19.69.258-36.917a1.89 1.89 0 0 0-1.695-1.592l-4.194-.378c-10.93-.97-18.657-1.532-23.18-1.682z" class="H"/><g class="G"><path d="M826.26 334.974c.584-.717 1.638-.825 2.355-.24 3.185 2.6 7.594 3.706 13.34 3.676l.564-.006c2.442-.04 4.896-.26 8.4-.697l3.285-.4c4-.5 4.82-.518 6.364-.365 2.088.207 2.183 2.804.993 3.89l-.04.033-2.07 2.066c-.068.068-.14.13-.22.184l-.12.077c-1.73 1.01-3.435 1.694-5.148 1.994-.926.163-1.783.104-3.13-.13l-.942-.17-.202-.035.177.09c.88.446 1.435.827 1.89 1.365l.1.1c1.652 2.1 1.677 4.195-.095 5.536-1.085.82-2.682 1.213-4.776 1.38-1.072.085-2.097.1-3.35.077l-1.185-.025c-.923.05-1.712-.657-1.763-1.58s.656-1.714 1.58-1.765c.08-.004.166-.006.28-.005l.788.017c1.326.032 2.352.023 3.4-.06 1.428-.113 2.493-.363 2.96-.667l.044-.03c-.046-.14-.173-.377-.416-.698l-.077-.1c-.13-.166-.558-.426-1.378-.813l-1.032-.48-.087-.042c-.833-.403-1.365-.73-1.787-1.2-.818-.906-.884-2.14-.082-3.14.485-.605 1.084-1.01 1.774-1.24l.132-.042-.034.003c-1.59.137-3.013.21-4.456.226h-.3c-6.45.033-11.58-1.254-15.472-4.43-.716-.585-.824-1.64-.24-2.357zm30.997 5.414l.072-.072-.58.06-1.286.146-4.572.566-1.226.146-.922.102.087.006c.357.025.747.078 1.265.167l1.087.195c1.12.203 1.738.255 2.213.172 1.198-.2 2.45-.696 3.76-1.43l.1-.058z" class="F"/><use xlink:href="#E" x="172.954" y="321.108"/></g><g transform="matrix(-.965926 -.258819 -.258819 .965926 750.230108 439.438147)"><path d="M31.355 20.895C6.554 74.386-3.5 111.52 1.222 132.298c38.9 30.988 80.827 42.232 125.75 33.732 23.904-47.962 31.614-79.026 23.132-93.192 20.42 5.352 32.672 3.148 36.756-6.61S174.6 45.292 137.854 32.7c-24.742-6.33-44.062-10.265-57.962-11.805s-30.08-1.54-48.537 0z" fill="#7ee081"/><g class="B C D"><path d="M36.478 30.998c1.37-9.267 13.206-24.4 21.62-27.973 2.215-.938 4.534-1.657 6.89-2.143C66.502.57 69.026-.787 69.62.643 73.986 11.14 53.463 28.157 45.626 30.4c-.686.196-.168-1.486.118-2.14.846-1.94 1.77-3.926 3.207-5.477C56.315 14.84 65.93 5.17 77.34 3.025c1.012-.2 2.698-.954 3.09 0 3.1 7.557-4.166 19.878-11.047 23.448-3.02 1.568-6.898 6.734-9.266 4.286-2.278-2.355 3.3-5.755 5.583-8.094 4.37-4.457 9.14-8.566 14.254-12.14 2.675-1.87 5.794-3.086 8.9-4.048 2.718-.84 5.6-1.56 8.433-1.31.776.07.866 1.364.95 2.14C99.44 18.25 87.173 28.836 78.29 32.665c-.836.36-.293-1.874 0-2.737.368-1.084 1.15-1.996 1.9-2.858 2.028-2.323 4.158-4.564 6.414-6.665 1.12-1.043 2.363-1.964 3.682-2.737 4.512-2.645 8.907-5.607 13.78-7.5 2.3-.893 5.338-2.123 7.365-.714 1.594 1.108.7 4.02 0 5.833-3.096 8.034-5.496 12.43-11.76 16.783-2.402 1.67-5.69 3.38-8.8 3.096-.39-.036.232-.767.475-1.073 2.854-3.593 5.708-7.195 8.8-10.593 3.258-3.59 6.634-7.086 10.214-10.355.92-.84 2-1.618 3.21-1.905 3.38-.802 7.145-2.684 10.334-1.31 1.746.753.526 3.922-.12 5.713-1.43 3.968-6.913 11.707-10.45 14.522-7.958 6.33-7.816 1.102-4.278-2.737 4.445-4.823 8.845-9.777 14.016-13.807 1.74-1.356 4.126-1.638 6.296-2.023 1.677-.297 3.562-.715 5.108 0 .922.426.965 1.846 1.068 2.858.218 2.132.682 4.44-.118 6.427-2.832 7.033-11 15.31-18.77 15.83" stroke="#001c6c"/><path d="M121.383 42.778c1.465 2.62 2.635 5.427 4.395 7.856 4.506 6.22 13.9 3.972 14.967-3.7.48-3.42.317-6.904.238-10.355-.004-.16-.317 0-.475 0M126.6 101.284c10.786 10.126 20.588 1.266 30.766-5.24" stroke="#0d62fe"/><path d="M153.04 111.744c5.243 2.206 4.14.8 6.77 7.856 1.05 2.824 2.056 5.7 2.496 8.7.4 2.708.473 5.516 0 8.212-.87 4.963-11.752 7.488-14.494 3.214-4.276-6.667-5.356-10.233-6.056-18.2-.146-1.667-.66-3.772.475-4.998.943-1.018 3.154-.957 4.158 0a20.85 20.85 0 0 1 5.581 9.285c1.183 4.207 1.022 8.733.713 13.093-.278 3.932-7.5 10.64-10.927 5.833-2.738-3.828-3.985-8.194-4.395-12.857-.376-4.27-1.028-8.643-.238-12.855 1.307-6.964 3.815.765 4.158 3.57.558 4.57.797 9.226.355 13.8-.357 3.707-1.604 7.283-2.732 10.832-.307.966-.828 1.9-1.543 2.617s-1.624 1.34-2.614 1.55c-1.165.247-2.577.43-3.565-.238s-1.408-2.033-1.543-3.214c-.942-8.178-1.78-16.4-1.663-24.64.01-.685 1.886-1.028 2.02-.356 1.845 9.138-.465 14.434-4.515 22.616-.795 1.605-4.095 5.566-6.772 4.166-4.348-2.274-1.508-21.848 3.1-24.52.378-.22 1.228-.55 1.306-.118 1.33 7.33-2.772 14.956-7.957 19.878-1.207 1.146-9.68 4.815-10.57 2.617-2.992-7.374-.327-20.97 6.414-25.6.462-.317 1.57-.792 1.663-.238 1.75 10.527-2.876 11.438-11.522 18.808-1.407 1.2-3.74 4.404-4.753 2.855l-2.256.476c-3.87-5.918 10.864-16.585 11.167-25.47.028-.836-.725 1.542-1.308 2.14-2.523 2.593-5.305 4.92-7.957 7.38M152.1 73.8c2.3.975 1.807.35 2.955 3.474.46 1.25.897 2.525 1.1 3.843.175 1.198.207 2.44 0 3.632-.38 2.195-5.13 3.312-6.327 1.42-1.867-2.948-2.338-4.525-2.644-8.054-.064-.737-.3-1.668.207-2.2.412-.45 1.377-.423 1.815 0a9.23 9.23 0 0 1 2.436 4.106c.516 1.86.446 3.862.3 5.8-.12 1.74-3.27 4.705-4.77 2.58-1.195-1.693-1.74-3.624-1.92-5.686-.164-1.888-.45-3.822-.104-5.685.57-3.08 1.665.338 1.815 1.58.243 2.02.348 4.08.155 6.107-.156 1.64-.7 3.22-1.192 4.8-.134.427-.362.84-.674 1.157s-.7.592-1.14.685c-.5.1-1.125.2-1.556-.105s-.614-.9-.674-1.42c-.4-3.617-.778-7.257-.726-10.898.004-.303.823-.455.882-.157.805 4.04-.203 6.383-1.97 10.002-.347.7-1.787 2.462-2.956 1.842-1.898-1.006-.658-9.662 1.35-10.844.165-.097.536-.243.57-.052.58 3.242-1.2 6.614-3.473 8.8-.527.507-4.225 2.13-4.615 1.157-1.306-3.26-.143-9.274 2.8-11.318.202-.14.686-.35.726-.105.764 4.655-1.255 5.058-5.03 8.318-.614.53-1.633 1.947-2.075 1.263l-.985.2c-1.7-2.617 4.742-7.335 4.874-11.265.012-.37-.317.682-.57.947-1.1 1.147-2.316 2.176-3.473 3.264" stroke="#001c6c"/></g></g><g transform="matrix(-1 0 0 1 454.555274 254.156863)"><use xlink:href="#F" x="-761.936" y="-218.897" class="I"/><path d="M57.9.005c5.648 0 11.383.41 17.205 1.227l1.093.158c2.305.343 4.125 2.136 4.503 4.437 1.724 10.49 2.423 21.18 2.096 32.07 1.518 1.103 3.52.85 6.005-.757-.273-10.627.433-21.065 2.117-31.313.368-2.24 2.103-3.998 4.322-4.406l.18-.03 1.093-.158C102.335.414 108.07.005 113.718.005l1.328.007c7.418.068 22.413.67 44.986 1.805 2.397.12 4.488 1.65 5.337 3.88l.066.183.222.654c3.37 10.06 5.056 21.296 5.056 33.712 0 11.847-1.57 22.16-4.7 30.943-1.112 3.108-4.005 5.216-7.29 5.333l-.2.005-3.23.026c-6.35.042-12.02.02-17.017-.066l-2.88-.05-35.3-.013a8.05 8.05 0 0 1-7.924-6.411l-.04-.2-.184-1.03a206.5 206.5 0 0 1-2.17-16.24c-2.574-2.77-5.22-2.984-7.935-.644-.74 6.726-1.866 13.434-3.38 20.128l-.26 1.13c-.823 3.536-3.912 6.083-7.54 6.217l-16.066.57-18.31.536-2.344.043-17.924.045-1.623-.014c-3.36-.032-6.345-2.148-7.49-5.307C2.896 64.242.904 52.576.904 40.246.904 27.83 2.59 16.593 5.96 6.535l.222-.654c.802-2.33 2.94-3.94 5.403-4.064l7.613-.377L57.9.005zm-6.78 6.363l-1.055.04C43.357 6.686 33.956 7.55 21.862 9l-1.967.238c-1.25.153-2.224 1.16-2.343 2.418l-.153 1.65c-2.44 26.778-1.692 45.343 2.248 55.696 1.748 4.594 18.936 5.268 51.562 2.02l.295-2.507c1.74-15.03 2.516-26.056 2.328-33.076l-.008-.286c-.23-7.384-1.1-16.53-2.615-27.44C65.287 6.568 58.6 6.12 51.12 6.368zm61.838.63l-.724-.022c-7.013-.196-10.954.257-11.826 1.358l-.202 1.464c-1.39 10.173-2.192 18.754-2.4 25.744l-.018.676c-.16 7.314.662 18.054 2.466 32.22 33.94 1.884 51.785.55 53.532-4.007 4.01-10.453 4.13-27.873.366-52.262-.187-1.212-1.177-2.14-2.4-2.253L145.8 9.38c-15.484-1.375-26.43-2.17-32.84-2.38z" class="H"/><path d="M67.297 7.91l122.17 8.52c1.195 4.687 1.862 28.413 2 71.178l-2 44.774c-41.824 5.995-95.754 5.995-161.79 0-2.18-41.232 10.744-82.308 38.768-123.23l.854-1.24z" fill="#fb3640"/><g class="E B C D"><path d="M124.293 119.466c13.176-6.287 19.7-5.375 32.234 1.584m-127.2-18.7c13.176 6.287 19.7 5.375 32.234-1.584"/><path d="M74.568 10.1c-.135 7.72-4.413 36.968 3.923 48.225 20.468 27.64 72.923 61.66 104.294 32.574"/><path d="M77.993 73.884c1.988-5.24 3.418-9.78 9.65-13.173 3.456-1.882 7.94-1.236 11.794-.44 3.31.684 6.63 2.3 8.968 4.733 10.454 10.922.782 27.276-11.892 29.37-4.654.77-17.007 2.423-19.737-4.1" fill="#ff4445"/><path d="M107.313 12.618c9.853 29.1 20.114 52.638 47.32 67.258 9.403 5.053 31.347 16.913 40.73 5.15M148.193 7.58c6.883 32.354 16.25 69 50.314 74.925"/></g></g><g transform="matrix(-1 0 0 1 506.989669 377.588072)"><path d="M25.307 65.542C41.955 44.754 73.258 41.957 99.42 43c21.545.86 31.345 5.24 41.45 18.004 2.166 2.736 13.215-12.524 22.02 5.106s-10.334 13.027-8.88 17.1c5.1 14.273 2.043 26.342-3.762 37.9-17.483 34.84-99.943 45.57-127.226 12.793-9.297-11.17-8.93-26.612-6.356-40.995.78-4.358-21.7 6.562-15.41-16.104s19.835-3.263 20.538-6.262l3.51-5z" class="H"/><g class="B C D E"><path d="M68.35 66.153c.37 8.766-1.983 26.587 11.24 27.96 4.312.447 8.685.184 13.005-.186 4.167-.358 5.794-2.345 9.102-4.754"/><path d="M76.8 65.967c.438 10.827-1.382 22.057 7.246 30.102 5.178 4.83 18.578-.533 18.578-7.083"/><path d="M85.068 72.49c-.613 6.46 8.115 32.68 18.394 22.367"/></g><path d="M64.502 30.548c-3.418-6.612-5.093-14.955-.708-21.87C70.37-1.696 84.35-4 89.76 8.594c4.198 9.772-5.946 21.85-5.667 23.065 1.588 6.922 24.095-20.83 19.754-5.995-5.42 18.52-36.097 21.655-49.535 11.27s-.773-10.26 7.41-6.412l2.78.027z" class="K"/></g></g></svg>