<svg xmlns="http://www.w3.org/2000/svg" xmlns:xlink="http://www.w3.org/1999/xlink" width="1511" height="881" xmlns:v="https://vecta.io/nano"><style><![CDATA[.B{stroke-linejoin:round}.C{stroke-linecap:round}.D{fill-rule:nonzero}.E{stroke-width:1.118}.F{fill:#001d71}.G{stroke:#212121}.H{stroke:#001d71}.I{stroke-width:9.953}.J{mask:url(#E)}.K{fill:#212121}.L{fill:#fb3640}.M{stroke-width:14.157}]]></style><defs><path d="M24.4.488l998.655 60.894c12.136.74 21.6 10.798 21.6 22.957V603.66c0 12.16-9.464 22.217-21.6 22.957L24.4 687.512c-12.68.773-23.584-8.88-24.357-21.558a23 23 0 0 1-.043-1.4v-641.1c0-12.703 10.297-23 23-23a23 23 0 0 1 1.4.043z" id="A"/><path id="B" d="M107.5 15.88c10.94-13.86 108.927-10.44 117.538 2.987s6.69 23.89 1.788 33.805c-2.454 4.96-.856 3.19-6.436 6.557-2.962 1.788-7.4 4.08 5.112 7.773s-22.03-.87-25.814-.127c-18.943 3.716-83.63 6.85-93.688-5.41-9.555-11.646-3.58-30.26-.808-42.244l2.307-3.34z"/><path id="C" d="M42.903 1.034C19.753 3.814.986 22.34.986 42.4s18.767 38.596 41.917 41.376S84.82 68.042 84.82 42.4 66.053-1.746 42.903 1.034z"/><path id="D" d="M22.84 5.527c-.112 1.785 1.624 2.24 2.106.596.367-1.253-1.634-1.372-2.265-.596"/></defs><g transform="matrix(-1 0 0 1 1511 0)" fill="none" fill-rule="evenodd"><mask id="E" fill="#fff"><use xlink:href="#A"/></mask><use fill="#0064ff" xlink:href="#A"/><path d="M275.847 103.123C308.2 61.85 369.032 56.298 419.877 58.37s68.03 14.45 93.493 54.43 19.786 71.142 5.286 100.66c-7.256 14.772-20.272 27.36-36.773 37.392C473.125 256.177 460 263 497 274s-65.145-2.588-76.33-.378c-56.014 11.067-119.512 1.746-149.257-34.762-28.255-34.68-10.585-90.107-2.388-125.79l6.823-9.946z" fill="#fff" class="J"/><g class="J"><g transform="matrix(-1 0 0 1 256 256)"><g transform="matrix(-1 0 0 1 331.787876 0)"><use xlink:href="#B" fill="#fff"/><g fill="#192bc2"><use xlink:href="#B" y="101"/><use xlink:href="#B" y="202"/><use xlink:href="#B" y="303"/></g></g><g transform="matrix(-1 0 0 1 92 0)"><g transform="matrix(-1 0 0 1 85.099998 205.099997)"><use xlink:href="#C" class="D F"/><g transform="translate(14.05 9.44)"><g fill="#f06aa6"><path d="M45.15 6.238c-1.1 24.502-27.776 33.587-10.725 49.555 4.075 3.816-22.343 3.87-20.075 0 12.1-20.648-.55-25.053-.275-47.352.032-2.63.405-5.097 1.064-7.362 13.28-.376 23.01-.032 29.186 1.03.49.084.766 1.46.825 4.13z"/></g><g stroke="#ffc415" class="B C E"><path d="M48.72 3.36c-1.46 6.348-4.24 12.856-4.78 19.376-.4 4.726-.174 9.482-.26 14.224m3.36-33.8c-3.278 8.246-4.55 15.663-4.858 24.574-.243 7-.943 5.3.453 8.186M42.63 8.2c-3.077 12.688-3.218 16.792-1.064 29.8m-.196 1.48c-7.632-6.855-4.435-18.825-2.4-27.3"/></g><path d="M26.574 6.1c.464 2.292.338 3.83-.38 4.61-3.808 4.147-5.3 5.743-9.57 11.648-.06.08-.04.292.06.293.475.005 1.005-.01 1.397-.28 2.747-1.88 4.87-4.737 7.91-6.092 4.093-1.825-5.614 4.48-3.264 5.7.96.502 17.744-1.807 12.316-.724s-13.484 2.584-12.808 3.467c2.822 3.683 3.533 5.37 2.822 8.667" class="B C E G"/><g stroke="#ffc415" class="B C E"><path d="M16.38 10.5C13.916 17.05 10.617 33 .9 34.858c-.123.023-.187-.166-.28-.25M14.9 6.1C12.68 17.152 9.38 26.927.2 33.4M13.65 1.9C10.8 12.2 9.36 23.392.63 30.45M10.7 2.3C8.076 13.357 7.787 20.627 0 28.35"/></g><path d="M13.402.09c-1.2 0 .716 7.343 1.463 9.04.608 1.38 2.244 2.11 4.908 2.185l.312.006c3.152.097 5.344-.623 6.575-2.16l.188-.242c1.463 2.937 4.4 3.77 7.986 3.77 8.267 0 11.567-5 10.244-12.6H13.402zm14.595 2.804l14.06-.197.004.05c.187 2.42-.233 4.22-1.177 5.412l-.098.12c-1.13 1.328-3.237 2.02-6.422 2.02-2.35 0-5.12-.988-6.052-4.237l-.03-.108c-.14-.53-.112-1.416-.217-2.466l-.068-.596zm-12.372.238h10.2l-.005.015-.005 1.206c-.054 3.604-.653 5.188-6.95 5.29l-.95.008a.52.52 0 0 1-.355-.116c-.286-.198-.6-.588-.887-1.186-.547-1.136-.9-2.807-1.037-5l-.013-.226z" class="D F"/><g class="K"><use xlink:href="#D" transform="matrix(-1 0 0 1 47.670002 0)"/><use xlink:href="#D" x="6.09" transform="matrix(-1 0 0 1 59.850002 0)"/></g><g fill="#ff0034"><path d="M5.225 60.2c1.348 1.974 7.005 1.463 3.975-2.538s-5.322.564-3.975 2.538z" transform="matrix(-1 0 0 1 14.91 0)"/><path d="M12.473 63.583c1.386 1.905 6.447.692 3.33-3.17s-4.716 1.264-3.33 3.17z" transform="matrix(-1 0 0 1 28.77 0)"/><path d="M22.15 64.718c1.402 1.978 6.443 1.082 3.3-2.927s-4.692.948-3.3 2.927z" transform="matrix(-1 0 0 1 48.090002 0)"/><path d="M31.618 63.5c1.426 1.947 6.276.933 4.205-2.503s-5.63.556-4.205 2.503z" transform="matrix(-1 0 0 1 67.620002 0)"/><path d="M39.137 61.172c1.354 1.925 5.546 1.002 3.993-2.475s-5.347.55-3.993 2.475z" transform="matrix(-1 0 0 1 82.320002 0)"/></g></g></g><g transform="matrix(-1 0 0 1 91.099998 0)"><path d="M48.903 1.034C25.753 3.814 6.986 22.34 6.986 42.4s18.767 38.596 41.917 41.376S90.82 68.042 90.82 42.4 72.053-1.746 48.903 1.034z" fill="#d0e4ff" class="D"/><g transform="translate(.94 5.87)"><path d="M5.22 52.404C5.273 29.46 35.65 9.132 53.11 9.146c26.517.02 19.932 44.287 18.715 44.37-7.508.515-29.7.144-66.606-1.112z" transform="matrix(.956305 -.292372 .292372 .956305 -7.474683 12.872101)" class="F"/><g fill="#f2f4f6"><path d="M65.66 24.765c1.145 9.132-7.798 32.182-17.242 30.916-7.932-1.064-12.552-7.8-14.998-15.01-.414-1.22-6.54 1.96-7.38-3.71s5.846-2.11 5.67-3.15c-.587-3.48-.542-6.432-.453-8.79.014-.372 2.016-1.524 6.296-2.204 1.915-.304 4.286-.514 7.14-.518 4.07-.005 8.618.395 12.436.88 1.098.14.093-10.092 1.042-9.947.965.148 3.88 10.672 4.63 10.81 1.76.325 2.846.6 2.86.724z"/></g><g transform="translate(40.11 25.41)"><g class="B C E G"><path d="M12.6 1.9c.517 4.977 4.2 3.34 4.2.017m-4 2.703L11.55 6.3"/><path d="M14.7 5.25l-.84 2.73m1.9-3.15l.63 2.3"/></g><path d="M9.45 0c3.404 5.183 5.465 8.215 6.183 9.095.317.388.926.852.743 1.33-.17.44-4.18.772-4.53.06-.182-.368-.235-1.648-.223-1.23.075 2.57.3 4.2.675 4.86" fill="#f5fff6" class="B C E H"/><g class="B C E G"><path d="M1.558 2.035C.775 5.332 5.43 5.75 6.3 1.68"/><path d="M2.1 4.4L.63 5.46m2.867-.84l-.065 1.9M5.04 4.4l.63 1.47"/></g><path d="M8.743 14.817c1.35-.255 1.51 1.694 2.457 1.138.477-.28.734-.983 1.285-1.048.837-.1 2.152.27 3.947 1.11l-3.248 2.903c-2.028 1.873-10.554.028-12.706-.98l6.552.088c9.704-1.51 7.52-1.538-6.552-.088 1.912-1.98 6.915-2.87 8.265-3.124z" fill="#ff4445" transform="matrix(.956305 .292372 -.292372 .956305 5.415917 -1.717927)"/></g></g></g><g transform="matrix(-1 0 0 1 89.099998 102.199998)"><path d="M46.903 1.034C23.753 3.814 4.986 22.34 4.986 42.4s18.767 38.596 41.917 41.376S88.82 68.042 88.82 42.4 70.053-1.746 46.903 1.034z" class="D F"/><g transform="translate(.83 16.58)"><path d="M34.796 6.58C24.26 6.58 14.84 9.37 7.81 13.807 4.96 15.604 2.7 17.58 1.397 19.38.612 20.466.133 21.52.076 22.626c-.095 1.872 1.11 3.406 2.95 3.79l.16.03c1.2.227 2.965.314 7.086.42l3.735.1c4.4.122 6.182.2 8.996.394l.57.04.494.036c4.257.32 7.824.792 10.655 1.452l.197.047V45.42c.38 3.88 4.56 5.82 12.54 5.82S64.522 49 74.705 44.49L73.3 32.27l.1-.026c1.454-.388 2.684-.934 3.693-1.66 1.915-1.38 2.95-3.375 2.95-5.718 0-2.7-1.515-4.735-4.106-5.413l-.1-.026c-1.1-.273-2.388-.302-3.863-.1l-.17.023-.263-2.275-.93-.738c-8.24-6.54-20.195-9.745-35.803-9.745z" fill="#ffa300" class="D"/><g class="B C E H"><path d="M27.55 10.075c4.088.24 3.446.33 6.366-2.517m-5.968 4.6c3.215-.23 3.552-1.457 5.756-4.16M35.1 7.85c.808 2.068 2.196 2.2 4.35 2.04M35.1 7.876c.475 3.612-.366 2.1 2.76 4.398"/></g><g stroke="#fff" stroke-width="1.748" class="B"><path d="M29.566 1.253c3.83-3.508 5.796 1.153 5.385 4.16-.497 3.63-3.452 6.436-6.234 8.424-.038.027-2.468 1.666-3.183 1.033-1.72-1.524-1.038-4.95-.318-6.994s2.572-4.993 4.35-6.623z"/><g class="C"><path d="M34.632 8.856c.632-1.94 1.055-4.392 2.785-5.775 3.72-2.972 7.31-1.99 6.286 3.126-.56 2.8-2.892 6.106-4.933 8.053-2.65 2.528-4.96-.927-4.562-3.444.192-1.22.654-2.384.98-3.576"/></g></g><g class="E H B C"><path d="M47.576 6.392c.872 5.1 1.36 9.02 4.774 13.06 5.005 5.92 16.124 3.44 20.768-1.642"/><path d="M51.846 7.055c-.928 6.792-.365 14.472 8.223 15.63.594.08 4.555.294 6.02-.212 3.55-1.225 3.696-1.964 7.082-4.715"/><path d="M53.41 7.108c3 6.215 11.003 20.65 19.018 11.26"/><path d="M57.4 7.85c.704 3.818 1.058 7.68 3.608 10.808 3.377 4.142 10.262 3.294 13.13-.742"/><path d="M59.352 8.54c1.925 4.86 5.566 13.015 12.175 10.305m-9.814-9.803c1.598 2.526 4.9 8.95 8.196 9.616 1.283.26 2.617-.035 3.926-.053m-40.237 12.08c3.234-1.136 5.843 1.206 9.15.6 1.6-.3 3.554-2.03 4.722-2.914"/></g></g><path stroke="#0064ff" fill="#0064ff" d="M29.6 59.84l13.65 7.56 21.42-7.56L63.4 75.8l-20.16-6.1-17.22 6.1z" class="B E"/></g><g transform="matrix(-1 0 0 1 85.099998 307.299995)"><use xlink:href="#C" class="D F"/><g transform="translate(9.64 17.84)"><path d="M13.31 3.68L54.1 6.52c.6 2.345.887 6.937.865 13.776l.1-.064c.534-.33.97-.54 1.868-.735l.122-.026c1.167-.238 3.684-.536 4.655-.285 2.65.685 3.884 4.052 2.357 6.3-1.93 2.853-5.94 4.75-9.268 3.757l-.032 1.007-.668 14.934c-13.965 2-31.973 2-54.023 0C-.65 31.443 3.666 17.742 13.024 4.093l.285-.414z" fill="#54e375"/><g class="F"><g class="D"><path d="M10.634.32a.56.56 0 0 1 .548.569l-.002.07-.017.272-.045.574-.018.252-.04 1.284c.016.904.155 1.563.408 1.888 1.072 1.37 2.905 2.755 4.713 3.482 2.084.837 3.91.753 5.2-.387a.56.56 0 0 1 .789.052.56.56 0 0 1-.052.789c-1.664 1.46-3.925 1.563-6.363.584-1.992-.8-3.984-2.307-5.177-3.83-.445-.57-.626-1.427-.646-2.557-.008-.467.01-.93.053-1.506l.05-.65.017-.253.003-.082a.56.56 0 0 1 .569-.548z"/><path d="M13.813.633a.56.56 0 0 1 .716.335c1.252 3.45 2.33 5.038 4.626 6.188l.312.155.484.227c.433.193.83.34 1.198.433.74.187 1.248.134 1.522-.152l.027-.03a.56.56 0 0 1 .788-.061.56.56 0 0 1 .061.788c-.608.71-1.54.825-2.672.538-.394-.1-.8-.245-1.234-.432l-.145-.064-.77-.368-.073-.037c-2.608-1.307-3.835-3.11-5.176-6.806a.56.56 0 0 1 .335-.716z"/><path d="M18.1.085a.56.56 0 0 1 .668.422l.06.27c.457 1.978.84 3.166 1.438 4.216.782 1.373 1.824 2.183 3.287 2.423a.56.56 0 0 1 .461.642.56.56 0 0 1-.642.461c-1.82-.298-3.14-1.323-4.078-2.973-.695-1.22-1.1-2.547-1.618-4.79a.56.56 0 0 1 .422-.668z"/><path d="M21.997 1.838l.177-.955a.56.56 0 0 1 .631-.432.56.56 0 0 1 .471.603l-.005.038-.264 1.458-.11.704-.023.167c-.117.864-.156 1.522-.1 1.838.588 3.352 3.803 5.485 7.177 4.742 1.112-.245 1.835-.63 2.708-1.364l.136-.118 1.377-1.224a.56.56 0 0 1 .788.058.56.56 0 0 1-.058.788l-.09.08-1.432 1.27c-1.004.845-1.887 1.314-3.188 1.6-3.993.88-7.82-1.66-8.518-5.64-.082-.468-.04-1.203.094-2.18l.107-.717.03-.187.092-.527z"/><path d="M25.356 1.408a.56.56 0 0 1 .559.559l.002.613c.007.48.03.553.125.762l.02.04 1.318 2.37.113.21c1.737 3.25 3.65 3.58 6.653 1.397a.56.56 0 0 1 .781.123.56.56 0 0 1-.123.781c-3.495 2.54-6.172 2.108-8.234-1.66l-.265-.488-1.275-2.3-.034-.075c-.19-.433-.2-.586-.2-1.774a.56.56 0 0 1 .559-.559z"/><path d="M28.51 1.402a.56.56 0 0 1 .699.368c1.017 3.284 2.533 5.033 5.27 5.684a.56.56 0 0 1 .414.673.56.56 0 0 1-.673.414c-3.174-.754-4.957-2.81-6.08-6.44a.56.56 0 0 1 .368-.699z"/><path d="M33.598 1.066a.56.56 0 0 1 .567.55l.001.144-.014.666-.046.98c-.044 1.032-.023 1.546.107 2.14.558 2.55 2.39 3.967 4.97 4.172 2.378.19 5.04-.723 6.69-2.283a.56.56 0 0 1 .79.022.56.56 0 0 1-.022.79c-1.883 1.78-4.858 2.8-7.548 2.585-3.047-.243-5.305-1.99-5.974-5.047-.16-.73-.18-1.324-.13-2.507l.042-.886.012-.76a.56.56 0 0 1 .55-.567z"/><path d="M37.244.9a.56.56 0 0 1 .55.567l-.002.08a4.84 4.84 0 0 1-.057.542l-.02.128c-.087.576-.1.8 0 1.006.6 1.346 1.598 2.913 2.687 4.026 1.353 1.383 2.706 1.98 3.97 1.628.29-.08.52-.22.992-.578l.28-.215.5-.354a.56.56 0 0 1 .771.175.56.56 0 0 1-.175.771l-.087.056-.3.216-.33.252c-.578.438-.89.624-1.354.754-1.735.484-3.462-.28-5.07-1.923-1.2-1.217-2.27-2.896-2.91-4.36-.198-.452-.2-.808-.094-1.54l.042-.29.036-.395a.56.56 0 0 1 .567-.55z"/><path d="M40.69 1.108a.56.56 0 0 1 .659.436l.24 1.16.052.237.042.187c.686 3.013 1.426 3.675 4.727 4a.56.56 0 0 1 .501.611.56.56 0 0 1-.611.501l-.23-.024c-3.6-.394-4.694-1.44-5.473-4.822l-.116-.527-.227-1.103a.56.56 0 0 1 .436-.659z"/><path d="M45.896 1.346a.56.56 0 0 1 .582.535l.01.27.007.606-.002 1.137.042 1.787.004.064c.19 3.084 1.078 4.71 3.192 4.93 1.204.125 2.4.094 4.237-.063a2.92 2.92 0 0 0 1.551-.567l.07-.05 1.137-.864a.56.56 0 0 1 .781.123.56.56 0 0 1-.123.781l-.18.135-.94.717-.025.018a4.06 4.06 0 0 1-2.174.82l-.327.027c-1.713.138-2.906.16-4.12.034-1.52-.158-2.607-.9-3.287-2.157-.522-.957-.8-2.156-.895-3.666l-.01-.147-.048-1.727.001-1.447-.015-.712a.56.56 0 0 1 .535-.582z"/><path d="M48.72 1.284a.56.56 0 0 1 .581.536l.008.206.017.782.01 1.55c.015 1.78.078 2.645.294 3.64.306 1.41.9 2.532 1.914 3.475 1.35 1.257 5.186-.217 5.262-1.903l.001-.05a.56.56 0 0 1 .559-.559.56.56 0 0 1 .559.559c0 2.712-5.085 4.688-7.143 2.77-1.19-1.107-1.892-2.434-2.244-4.055l-.03-.135c-.223-1.076-.28-2.026-.292-3.952l-.005-1.08-.004-.362-.022-.84a.56.56 0 0 1 .536-.581z"/><path d="M50.946 3.965a.56.56 0 0 1 .609-.503.56.56 0 0 1 .506.574l-.002.035c-.1 1.06.64 3.714 1.64 5.502 1.2 2.128 2.36 2.704 3.55 1.5a.56.56 0 0 1 .79-.001.56.56 0 0 1 .001.79c-.973.975-2.048 1.202-3.078.695-.827-.406-1.576-1.262-2.24-2.45-1.1-1.97-1.9-4.84-1.776-6.153zm-24.624 7.133l.092-.045c.252-.118.426-.15.665-.037.27.126.374.386.347.638a1.04 1.04 0 0 1-.109.347c-.14.288-.433.6-.827.936l-.093.075.026.018a.56.56 0 0 1 .235.527l-.006.037a.64.64 0 0 1-.036.125l-.003.007.045-.005a.3.3 0 0 1 .044 0l.106.01.056.016c.143.043.162.068.34.3l.033.15c.022.108.022.146.004.2l-.007.022.03.01c.117.046.22.13.285.248l.017.033a.56.56 0 0 1-.231.728l-1.57.765-2.8 1.302-.893.394-.217.094c-1.62.696-2.958 1.196-3.942 1.45-.603.156-1.077.222-1.44.18-.584-.067-.976-.457-.892-1.052a2.06 2.06 0 0 1 1.171-1.623l.078-.038h.003a.6.6 0 0 1 .02-.074l.035-.098.05-.074a.39.39 0 0 1 .104-.113l.06-.04a.31.31 0 0 1 .059-.032l.052-.02c.043-.015.083-.023.2-.04l.194-.03.728-.085.192-.017.062-.01.34-.052.237-.038-.08.004c-1.17.056-2.166-.073-2.635-.47l-.035-.03c-.35-.326-.5-.707-.23-1.096.173-.24.42-.33.78-.372l.06-.007c.4-.04.806-.03 1.842.033l.682.04c.807.044 1.254.048 1.57.003.464-.066 1.063-.256 1.7-.513l.06-.025-.164.018-2.266.154-1.418.06-1.316.08a.56.56 0 0 1-.601-.514.56.56 0 0 1 .514-.601l.283-.02.845-.05 1.615-.07c1.692-.077 2.542-.155 3.554-.347.183-.035.5-.2.94-.453l.13-.08.255-.16.553-.354.118-.074.4-.235zm-6.267 6.443l-.3.012c-2.023.1-2.8.308-3.016.963l-.003.01h.008a4.18 4.18 0 0 0 .814-.137l.075-.02c.582-.15 1.315-.4 2.176-.735l.238-.094z"/></g><path d="M20.398 18.815c2.6 1.58 1.387 3.097.392 6.385-1.116 3.69-2.402-.85-2.568-2.1-.47-3.56.254-4.987 2.176-4.284z"/><g class="D"><path d="M29.963 12.538l.545.046 2.274.182.176.016c.32.032.453.064.627.148l.028.014.08.04c.218.107.343.16.655.265l.184.06c.764.25 1.965.58 3.732 1.014l.127.03c.293.072.783.134 1.55.205l1.28.115.272.028a3.91 3.91 0 0 1 .647.107.7.7 0 0 1 .272.141c.246.21.3.585.052.84-.135.146-.264.2-.523.244-1.315.275-3.58.296-5.696.1l-.106-.01.004.003 1.148.716.146.08c.13.068.415.154.814.245l.13.03.926.19.075.016.063.015.028.007a.64.64 0 0 1 .226.093l.062.045c.07.054.082.08.186.317l-.01.13c-.02.228-.036.274-.144.377l-.062.057-.007.005.37.09.21.058.012.004c.068.025.126.05.18.082.138.08.24.173.293.364.023.083.03.16.023.23l-.004.03.015.013.035.036a.6.6 0 0 1-.118.919c-2.026 1.338-4.323 1.458-6.84.6-1.86-.634-3.624-1.684-5.864-3.32a.56.56 0 0 1-.122-.781.56.56 0 0 1 .781-.122l.29.21c2.018 1.453 3.626 2.39 5.275 2.953 1.696.58 3.234.654 4.628.15l.083-.03-.12-.025-.988-.216-.14-.033-.065-.006c-1.16-.1-1.98-.23-2.793-.433l-.094-.024c-1.204-.31-2.26-.684-3.213-1.16-.265-.133-.457-.27-.754-.525l-.14-.124-.13-.052-1.783-.74-.232-.1c-.05-.022-.094-.043-.136-.07-.135-.085-.228-.176-.27-.38s.03-.4.17-.53a.56.56 0 0 1 .235-.131c.067-.02.124-.025.188-.026.117-.002.285.02.488.054l.602.133.03.008-.002-.004a1.93 1.93 0 0 1-.149-.554l-.005-.053a.62.62 0 0 1 .312-.622l.01-.006-.024-.025-.03-.037c-.127-.162-.187-.382-.088-.594l.006-.012-.02-.002a.56.56 0 0 1-.476-.565l.002-.035a.56.56 0 0 1 .605-.509zm1.523 3.253l.025.018c.575.412 1.475.824 2.652 1.216l.057.02-.13-.056-.224-.098-.25-.112-2.13-.987zm1.242-1.908l.02.008c.46.204.91.462 1.392.785l.08.055.12.023 2.084.275.096.008-.54-.143-1.594-.458-.203-.065-.153-.05-.547-.203-.048-.02-.157-.07-.067-.033-.117-.06a.79.79 0 0 0-.248-.041l-.12-.01z"/><path d="M28.56 17.924a.56.56 0 0 1 .788.06.56.56 0 0 1-.032.762l-.028.026c-.117.1-.2.332-.243.633-.118 1.05-.13 2.06-.03 3.02.33 3.128 2.97 5.686 5.65 4.93.648-.183 1.736-1.463 2.8-3.265a22.79 22.79 0 0 0 1.132-2.17l.063-.143c.27-.615.428-1.1.436-1.254v-.015a.56.56 0 0 1 .545-.572.56.56 0 0 1 .572.545c.016.65-.743 2.395-1.734 4.088l-.052.1c-1.216 2.06-2.423 3.48-3.46 3.773-3.45.973-6.67-2.146-7.065-5.9-.1-1.042-.096-2.133.03-3.26.062-.555.254-1.037.626-1.356zm-9.012-2.15c.444-.233.9-.044 1.262.295a.56.56 0 0 1 .026.79.56.56 0 0 1-.762.05l-.096-.08-.013.013a1.24 1.24 0 0 0-.257.431l-.02.053c-.35.997-.6 1.98-.707 2.934-.215 1.757.4 3.746 1.566 4.94a.56.56 0 0 1-.009.79.56.56 0 0 1-.79-.009c-1.4-1.444-2.13-3.772-1.876-5.856a15.11 15.11 0 0 1 .762-3.17c.185-.527.48-.953.914-1.18z"/><path d="M26.644 14.92a.56.56 0 0 1 .737-.285.56.56 0 0 1 .285.737l-.08.176c-.88 1.946-1.847 3.396-4.033 6.28l-.572.753c-1.69 2.236-2.508 3.428-3.265 4.88l-.97 1.883-.315.626-.44.933c-.394.873-.662 1.598-.78 2.146-.06.28-.078.5-.058.644a.37.37 0 0 0 .02.086l.002.004.065.036c2.575 1.357 7.507-.775 9.342-3.666l.055-.09c.517-.847 1.325-.943 2.163-.475.277.155.55.36.867.638l.105.094.7.646c2.56 2.07 3.87 4.678 4.083 7.777.18 2.604-.405 5.482-1.647 8.8a.56.56 0 0 1-.719.327.56.56 0 0 1-.327-.719c2.544-6.798 2.234-11.725-1.963-15.21l-.128-.105c-.145-.117-.736-.668-.778-.706-.293-.262-.532-.446-.746-.566-.35-.195-.5-.187-.645.052l-.018.03c-.93 1.524-2.8 3.02-4.84 3.907-2.273.984-4.497 1.124-6.14.196-.597-.338-.692-1.02-.494-1.937.14-.642.43-1.43.854-2.37.116-.256.24-.52.375-.798l.16-.322 1.136-2.218c.845-1.65 1.713-2.913 3.628-5.436l.578-.762c2.067-2.736 2.965-4.11 3.795-5.987z"/><path d="M23.432 33.26a.56.56 0 0 1 .643.459c.372 2.234.4 4.355.173 6.735l-.356 2.697-.06.384-.103.625-.53 3.086-.176 1.074a.56.56 0 0 1-.64.464.56.56 0 0 1-.464-.64l.073-.452.105-.632.152-.89.312-1.805.14-.84.028-.172.408-3.014c.228-2.288.192-4.3-.163-6.44a.56.56 0 0 1 .459-.643z"/><path d="M33.49 38.127a.56.56 0 0 1 .76.218.56.56 0 0 1-.218.76l-.268.147c-4.332 2.356-6.678 2.46-11.007.397a.56.56 0 0 1-.264-.745.56.56 0 0 1 .745-.264l.242.114c3.916 1.824 5.893 1.656 10.01-.627z"/></g><path d="M28.922 18.184c2.6 1.58 4.18 4.212 3.186 7.5-1.116 3.69-3.778-1.333-3.944-2.584-.706-5.338.556-1.623.556-4.257"/></g></g></g></g></g><g transform="translate(302 256)"><g transform="translate(0 .101)"><path d="M362.753 252.78c44.533 0 99.23-2.8 164.093-8.402l16.83-82.617h-72.93l5.6-120.424H72.435l-2.47 66.782C23.322 95.126 0 101.232 0 126.437s20.873 40.247 62.618 45.127l14.025 64.413c146.207 11.202 241.577 16.803 286.1 16.803z" fill="#ffa300"/><g class="K"><path d="M314.3 34.825c-2.013 35.164 29.246 44.114 37.9 11.747 6.6-24.694-29.424-27.037-40.785-11.747m120.59-5.6c.6 7.483.16 15.13 1.833 22.45 7.26 31.75 46.905.945 25.882-25.582"/></g><path d="M486.464.016c8.645 0-1.584 77.16-7.012 92.644-6.885 19.64-23.134 15.403-40.673 15.403-5.572 0-10.356-.184-14.56-.668C415.1 96.328 402.572 83.66 389.35 73.22h0l1.958 11.405-1.15-1.78-1.366-2.208c-10.628 26.822-32.037 34.426-58.007 34.426-60.054 0-84.022-45.746-74.41-115.05h230.088zM367.13 31.272h-81.136l-.025.398c-1.172 19.018 1.462 33.163 7.377 42.54l.314.49.3.45c7.08 10.44 19.666 15.887 39.63 15.887 14.723 0 24.47-10.25 30.314-35.785l.187-.848c.965-4.54 1.913-11.486 2.812-20.726l.173-1.817.053-.586zm96.37 0h-60.1l.03.118c9.068 37.184 21.283 52.005 44.998 52.622l.722.014.85.006c.85 0 1.29-.18 2.1-.94 1.682-1.6 3.528-4.76 5.225-9.6 3.224-9.196 5.3-22.726 6.112-40.396l.076-1.826z" class="D L"/><g class="B C G I"><path d="M398.7 90.05c28.2 22.273 53.22 54.698 48.934 60.047-5.6 7-25.9 8.443-30.855 5.6-3.98-2.282-2.184.8-2.184 26.918m-77.5-21.895c33.027 24.5 69.7 27.613 105.896 20.177"/></g><g class="H B C I"><path d="M372.456 223.603c7.075 28.287 23.773 46.113 41.452 69.788m-12.57-72.87c19.317 61.103 15.023 35.04 19.405 76.83m4.63-72.426c5.773 59.406 5.07 34.702 5.07 73.97m20.507-73.97l-13.23 81.235m31.093-79.033c-1.588 28.797-9.183 51.76-23.594 76.608m43.217-79.474c-2.636 28.1-10.636 55.145-29.536 77.054"/><path d="M499.24 254.424c-23.353 31.285-26.175 40.872-61.08 49.092"/></g><path d="M339.446 150.492c-2.114 5.677-6.322 11.278-13.334 11.6" class="B C G I"/></g></g></g><path d="M1482.71 175.095c-46.117-58.625-132.832-66.513-205.308-63.57s-96.973 20.525-133.27 77.316-28.204 101.054-7.535 142.985c10.343 20.983 28.897 38.866 52.418 53.114 12.485 7.563 31.194 17.254-21.548 32.88s92.86-3.676 108.806-.537c79.846 15.72 170.36 2.48 212.76-49.377 40.277-49.26 15.09-127.992 3.404-178.68l-9.725-14.127z" fill="#001c6c"/><path d="M941.87 633.82c-2.71-47.594 39.38-59.707 51.048-15.9 8.902 33.422-39.62 36.594-54.918 15.9" class="K"/><path d="M1002.116 494c16.064 0 32.377 1.165 48.936 3.495l3.108.45c6.557.978 11.733 6.086 12.808 12.64 4.904 29.89 6.89 60.343 5.96 91.363 4.317 3.143 10.01 2.424 17.082-2.155-.777-30.277 1.23-60.012 6.02-89.207 1.047-6.38 5.982-11.39 12.293-12.554l.515-.086 3.108-.45c16.56-2.33 32.872-3.495 48.936-3.495l3.777.02c21.1.194 63.752 1.908 127.957 5.14a17.17 17.17 0 0 1 15.181 11.058l.188.52.632 1.864c9.587 28.657 14.38 60.67 14.38 96.042 0 33.75-4.466 63.136-13.398 88.153-3.162 8.856-11.4 14.86-20.733 15.192l-.598.014-9.19.075c-18.058.12-34.192.056-48.4-.19l-8.194-.146-100.434-.037c-10.92.063-20.332-7.606-22.54-18.265l-.11-.574-.522-2.932c-2.605-14.868-4.662-30.29-6.17-46.267-7.32-7.89-14.845-8.502-22.57-1.835-2.102 19.16-5.308 38.274-9.616 57.342l-.738 3.22c-2.342 10.075-11.128 17.33-21.447 17.712l-45.697 1.625-52.08 1.527-6.667.123-50.98.128-4.616-.04a22.89 22.89 0 0 1-21.301-15.119C845.666 677.007 840 643.77 840 608.644c0-35.37 4.794-67.385 14.38-96.042l.632-1.864a17.17 17.17 0 0 1 15.369-11.578l21.655-1.073 110.08-4.087zm-19.284 18.128l-3 .113c-19.08.79-45.818 3.253-80.218 7.388l-5.595.68c-3.552.435-6.325 3.302-6.665 6.9l-.436 4.7c-6.944 76.288-4.812 129.18 6.395 158.674 4.973 13.09 53.86 15.008 146.66 5.756l.838-7.142c4.95-42.82 7.156-74.232 6.623-94.233l-.023-.816c-.65-21.037-3.13-47.094-7.437-78.172-16.844-3.27-35.9-4.55-57.14-3.837zm175.89 1.792l-2.06-.063c-19.946-.557-31.158.732-33.637 3.868l-.576 4.17c-3.95 28.983-6.236 53.43-6.856 73.342l-.05 1.925c-.456 20.837 1.883 51.435 7.015 91.793 96.54 5.368 147.294 1.563 152.264-11.415 11.403-29.78 11.75-79.41 1.04-148.9-.532-3.453-3.35-6.1-6.83-6.42l-16.902-1.526c-44.04-3.917-75.178-6.18-93.4-6.785z" class="F"/><path d="M1029.118 513.333l347.942 24.208c3.404 13.32 5.304 80.743 5.7 202.268l-5.7 127.234c-119.115 17.035-272.712 17.035-460.79 0-6.207-117.168 30.598-233.897 110.414-350.187l2.432-3.524z" class="L"/><g class="G B C M"><path d="M1191.446 830.344c37.525-17.867 56.1-15.274 91.803 4.5m-362.275-53.14c37.525 17.867 56.1 15.274 91.803-4.5"/><path d="M1050.662 519.568c-.384 21.974-12.56 105.218 11.163 137.256 58.245 78.665 207.513 175.49 296.784 92.7"/><path d="M1060.41 701.108c5.657-14.915 9.725-27.834 27.46-37.493 9.834-5.356 22.597-3.52 33.56-1.252 9.417 1.948 18.867 6.517 25.52 13.47 29.747 31.085 2.225 77.63-33.84 83.595-13.243 2.2-48.396 6.895-56.166-11.665" fill="#ff4445"/><path d="M1143.844 526.736c28.037 82.848 57.237 149.815 134.657 191.426 25.64 13.78 84.044 45.347 112.37 18.513a37.53 37.53 0 0 0 3.532-3.853c1.362-1.708 4.604-7.98 2.484-8.45-85.7-18.994-113.91-109.056-132.865-194.24" class="L"/></g></g></svg>