<svg xmlns="http://www.w3.org/2000/svg" width="1301" height="1147" xmlns:v="https://vecta.io/nano"><style><![CDATA[.B{stroke-linecap:round}.C{stroke-linejoin:round}.D{fill-rule:nonzero}]]></style><g fill="none" fill-rule="evenodd"><path d="M932.122 301.375c-1.235-3.415-2.27-6.9-3.08-10.45-.835-3.647-1.443-7.352-1.845-11.07-.42-3.876-.545-7.782-.614-11.68-.136-7.787-.326-15.583 0-23.365.153-3.65.598-7.308 1.434-10.864 1.564-6.652 3.653-13.173 5.746-19.68.987-3.068 2.17-6.076 3.486-9.017 2.446-5.467 5.057-10.863 7.793-16.2 1.302-2.535 2.794-4.97 4.3-7.38 1.494-2.374 3.05-4.7 4.717-6.967 1.618-2.2 3.264-4.37 5.128-6.354a177.98 177.98 0 0 1 10.666-10.454c1.78-1.6 3.733-3 5.746-4.304 2.033-1.308 4.224-2.35 6.36-3.483 2.242-1.2 4.454-2.448 6.77-3.488 2.408-1.08 4.868-2.064 7.383-2.866 2.418-.772 4.902-1.33 7.387-1.847 2.442-.5 4.892-1.096 7.383-1.23 7.65-.413 15.345-1.053 22.978-.4 6.267.527 12.378 2.298 18.46 3.898 6.924 1.82 13.792 3.896 20.516 6.354 6.56 2.398 13.05 5.047 19.285 8.197 5.828 2.945 11.314 6.53 16.818 10.044 2.64 1.685 5.145 3.58 7.6 5.534 2.346 1.875 4.628 3.84 6.77 5.944 2.105 2.07 4.092 4.263 5.95 6.557 1.9 2.36 3.643 4.86 5.335 7.38 1.797 2.676 3.604 5.357 5.128 8.197 3.063 5.7 5.996 11.497 8.618 17.42 3.673 8.296 7.022 16.735 10.256 25.212 2.033 5.33 3.923 10.72 5.538 16.2 2.08 7.042 3.806 14.184 5.538 21.32.525 2.16.942 4.352 1.23 6.557.6 4.564 1.222 9.137 1.434 13.735.677 14.68.93 29.375 1.23 44.066.1 5.396-9.914 8.9 0-9.017 8.05-14.555 17.654-33.154 33.644-40.993 5.6-2.746 11.8-4.223 18.053-4.308 22.655-.308 34.978.23 54.566 12.302 10.17 6.266 19.697 14.846 20.308 27.46 1.4 28.652 1.476 5.242-2.666 20.5-5.792 21.336 13.74-34.934-8 10.247-1.432 2.977-507.92 4.74-514.696 0-18.284-12.8-21.902-20.42-22.36-41.403-.203-9.314-2.232-16.238 4.925-22.342 7.718-6.583 17.943-9.574 27.696-11.477 26.236-5.12 61.172-1.174 86.158 7.994 17.545 6.438 65.694 33.528 73.985 50.916 10.557 22.142-10.46-38.198-13.06-45.382zm-752-140c-1.235-3.415-2.27-6.9-3.08-10.45-.835-3.647-1.443-7.352-1.845-11.07-.42-3.876-.545-7.782-.614-11.68-.136-7.787-.326-15.583 0-23.365.153-3.65.598-7.308 1.434-10.864 1.564-6.652 3.653-13.173 5.746-19.68.987-3.068 2.17-6.076 3.486-9.017 2.446-5.467 5.057-10.863 7.793-16.2 1.302-2.535 2.794-4.97 4.3-7.38 1.494-2.374 3.05-4.7 4.717-6.967 1.618-2.2 3.264-4.37 5.128-6.354a177.98 177.98 0 0 1 10.666-10.454c1.78-1.6 3.733-3 5.746-4.304 2.033-1.308 4.224-2.35 6.36-3.483 2.242-1.2 4.454-2.448 6.77-3.488 2.408-1.08 4.868-2.064 7.383-2.866 2.418-.772 4.902-1.33 7.387-1.847 2.442-.5 4.892-1.096 7.383-1.23 7.65-.413 15.345-1.053 22.978-.4 6.27.514 12.38 2.284 18.46 3.884 6.924 1.82 13.792 3.896 20.516 6.354 6.56 2.398 13.05 5.047 19.285 8.197 5.828 2.945 11.314 6.53 16.818 10.044 2.64 1.685 5.145 3.58 7.6 5.534 2.346 1.875 4.628 3.84 6.77 5.944 2.105 2.07 4.092 4.263 5.95 6.557 1.9 2.36 3.643 4.86 5.335 7.38 1.797 2.676 3.604 5.357 5.128 8.197 3.063 5.7 5.996 11.497 8.618 17.42 3.673 8.296 7.022 16.735 10.256 25.212 2.033 5.33 3.923 10.72 5.538 16.2 2.08 7.042 3.806 14.184 5.538 21.32.525 2.16.942 4.352 1.23 6.557.6 4.564 1.222 9.137 1.434 13.735.677 14.68.93 29.375 1.23 44.066.1 5.396-9.914 8.9 0-9.017 8.05-14.555 17.654-33.154 33.644-40.993a42.46 42.46 0 0 1 18.053-4.308c22.655-.308 34.978.23 54.566 12.302 10.17 6.266 19.697 14.846 20.308 27.46 1.4 28.652 1.476 5.242-2.666 20.5-5.792 21.336 13.74-34.934-8 10.247-1.432 2.977-507.92 4.74-514.696 0C4.494 210.28.877 202.648.418 181.666c-.203-9.314-2.232-16.238 4.925-22.342 7.718-6.583 17.943-9.574 27.696-11.477 26.236-5.12 61.172-1.174 86.158 7.994 17.545 6.438 65.694 33.528 73.985 50.916 10.557 22.142-10.46-38.198-13.06-45.382z" fill="#fff"/><path d="M1073.15 192.597C961.55 50.28 751.706 31.132 576.32 38.274s-234.668 49.827-322.505 187.7-68.25 245.317-18.233 347.108c25.03 50.94 69.928 94.35 126.848 128.938 30.212 18.36 31.683 218.694 36.122 238.7s42.94-197.928 175.035-160.178c188.4 53.838 412.255 6.022 514.862-119.868 97.467-119.583 30.966-402.22 8.237-433.763l-23.534-34.295z" fill="#0d62fe"/><path d="M217 192.292c-19.002 6.236-70.612 91.508-82.06 170.5-12.104 83.524 16.657 161.27 22.894 178.283.18.492-1.038 0-1.557 0M1179 511.292c-8.44 36.72-14.54 74.063-25.32 110.16-4.767 15.96-13.728 30.35-21.103 45.277-22.8 46.167-63.7 73.817-111.577 90.564m-891-507c-21.388 63.9-61.357 165.323-35.67 235m1130.67 107c-6.8 44.217-13.656 73.665-20.57 88.343-22.698 48.186-54.804 66.9-71.43 76.657" stroke="#0d62fe" stroke-width="9.139" class="B C"/><path d="M623.8 933.638l170.43 11.87c2.5 9.798 3.706 28.984 3.614 57.558l.424-.266c2.23-1.383 4.048-2.25 7.803-3.072l.51-.107c4.878-.995 15.393-2.24 19.448-1.192 11.074 2.864 16.228 16.93 9.85 26.363-8.06 11.92-24.815 19.846-38.72 15.695l-.133 4.208-2.792 62.392c-58.346 8.354-133.58 8.354-225.706 0-3.04-57.456 14.988-114.697 54.084-171.722l1.19-1.728z" fill="#ff8100"/><g fill="#001d71"><g class="D"><path d="M612.613 919.602c1.29.024 2.315 1.088 2.29 2.378l-.008.29-.07 1.138-.2 2.4-.077 1.05-.172 5.364c.066 3.777.646 6.53 1.706 7.886 4.478 5.72 12.138 11.5 19.693 14.546 8.706 3.5 16.334 3.148 21.766-1.616.97-.85 2.445-.754 3.295.216s.754 2.445-.216 3.295c-6.952 6.097-16.4 6.53-26.586 2.438-8.32-3.344-16.647-9.638-21.628-16-1.86-2.377-2.615-5.964-2.7-10.683-.034-1.95.044-3.892.22-6.292l.213-2.718.07-1.055.013-.345c.024-1.29 1.088-2.315 2.378-2.29z"/><path d="M625.9 920.91c1.212-.44 2.55.186 2.99 1.398 5.233 14.42 9.74 21.047 19.327 25.852l1.304.648c.754.37 1.327.64 2.024.95 1.8.807 3.472 1.42 5.006 1.808 3.09.783 5.214.56 6.357-.635l.11-.123c.838-.98 2.312-1.095 3.292-.257s1.095 2.312.257 3.292c-2.542 2.972-6.437 3.448-11.165 2.25-1.644-.417-3.347-1.025-5.154-1.803l-.606-.266c-1.053-.47-1.834-.846-3.214-1.536l-.305-.153c-10.898-5.462-16.022-12.997-21.624-28.434-.44-1.212.186-2.55 1.398-2.99z"/><path d="M643.803 918.62c1.258-.285 2.508.504 2.793 1.762l.256 1.122c1.91 8.266 3.512 13.23 6.01 17.616 3.266 5.737 7.622 9.122 13.734 10.123 1.273.208 2.135 1.41 1.927 2.68s-1.41 2.135-2.68 1.927c-7.602-1.245-13.114-5.527-17.038-12.42-2.903-5.1-4.64-10.642-6.762-20.017-.285-1.258.504-2.508 1.762-2.793z"/><path d="M660.09 925.943l.74-4c.262-1.195 1.413-1.994 2.638-1.804s2.08 1.3 1.968 2.518l-.02.157-1.104 6.1-.457 2.942-.098.7c-.49 3.6-.652 6.358-.42 7.678 2.457 14.003 15.89 22.914 29.984 19.812 4.644-1.022 7.667-2.628 11.316-5.698l.57-.492 5.752-5.116c.976-.843 2.45-.734 3.293.242s.734 2.45-.242 3.293l-.382.335-5.983 5.31c-4.195 3.53-7.885 5.49-13.32 6.685-16.68 3.67-32.67-6.936-35.587-23.566-.343-1.956-.163-5.026.393-9.114l.447-2.996.128-.782.384-2.204z"/><path d="M674.124 924.147c1.29 0 2.335 1.045 2.335 2.335l.01 2.56c.027 2.008.13 2.312.524 3.185l.083.167c.588 1.14 3.562 6.33 5.505 9.904l.47.874c7.255 13.573 15.25 14.958 27.798 5.836 1.043-.758 2.503-.528 3.26.515s.528 2.503-.515 3.26c-14.6 10.615-25.786 8.81-34.402-6.93l-1.105-2.038-5.326-9.612-.14-.313c-.797-1.807-.833-2.45-.833-7.4 0-1.29 1.045-2.335 2.335-2.335z"/><path d="M687.3 924.12c1.232-.382 2.54.308 2.92 1.54 4.25 13.72 10.58 21.027 22.024 23.746 1.255.298 2.03 1.557 1.732 2.81s-1.557 2.03-2.81 1.732c-13.26-3.15-20.71-11.746-25.405-26.907-.382-1.232.308-2.54 1.54-2.92z"/><path d="M708.558 922.717c1.29-.02 2.35 1 2.37 2.3l.006.6-.058 2.784-.19 4.095c-.183 4.312-.095 6.46.448 8.942 2.333 10.652 9.99 16.573 20.77 17.432 9.937.79 21.06-3.02 27.956-9.538.937-.886 2.415-.844 3.3.093s.844 2.415-.093 3.3c-7.868 7.435-20.295 11.694-31.534 10.8-12.73-1.014-22.163-8.31-24.96-21.088-.67-3.056-.758-5.532-.538-10.476l.174-3.7a53.14 53.14 0 0 0 .05-3.171c-.02-1.29 1.01-2.35 2.3-2.37z"/><path d="M723.792 922.07c1.29.02 2.318 1.082 2.3 2.37l-.01.333c-.024.654-.092 1.262-.237 2.264l-.08.536c-.362 2.407-.376 3.346 0 4.205 2.466 5.623 6.675 12.17 11.224 16.822 5.65 5.778 11.308 8.276 16.59 6.803 1.207-.337 2.172-.914 4.147-2.413l1.175-.9c.892-.678 1.422-1.055 2.094-1.478 1.09-.688 2.533-.36 3.22.73s.36 2.533-.73 3.22l-.364.236c-.36.24-.73.508-1.253.903l-1.376 1.053c-2.414 1.83-3.724 2.61-5.658 3.148-7.247 2.02-14.466-1.167-21.184-8.036-4.97-5.083-9.482-12.1-12.162-18.21-.83-1.9-.837-3.374-.393-6.428l.176-1.207c.103-.744.142-1.18.15-1.65.02-1.29 1.08-2.318 2.37-2.3z"/><path d="M738.193 922.895c1.264-.257 2.496.56 2.753 1.823l1 4.845.216.992.175.783c2.865 12.586 5.958 15.352 19.748 16.717 1.283.127 2.22 1.27 2.094 2.553s-1.27 2.22-2.553 2.094l-.956-.1c-15.08-1.647-19.613-6.01-22.865-20.147l-.484-2.2-.948-4.606c-.257-1.264.56-2.496 1.823-2.753z"/><path d="M759.94 923.89c1.288-.054 2.377.946 2.43 2.234l.04 1.128.03 2.533-.007 4.75.176 7.467.016.268c.8 12.884 4.503 19.676 13.335 20.59 5.03.52 10.068.39 17.702-.264 2.588-.222 4.357-.905 6.48-2.37l.292-.205c.69-.5 3.797-2.917 4.75-3.61 1.043-.758 2.503-.528 3.262.515s.528 2.503-.515 3.262l-.753.565-3.93 2.997-.106.077c-2.9 2.065-5.485 3.116-9.083 3.424l-1.368.114c-7.158.578-12.14.668-17.214.142-6.35-.658-10.89-3.802-13.732-9.014-2.18-4-3.3-9.007-3.74-15.318l-.04-.615c-.14-2.262-.192-4.196-.2-7.215l.004-6.046c-.006-1.253-.024-2.083-.062-2.976-.054-1.288.946-2.377 2.234-2.43z"/><path d="M771.737 923.63c1.288-.052 2.375.95 2.427 2.238l.032.86.07 3.266.04 6.48c.064 7.43.324 11.052 1.228 15.207 1.28 5.885 3.765 10.577 7.996 14.518 5.637 5.25 21.666-.907 21.986-7.95l.005-.214c0-1.29 1.045-2.335 2.335-2.335s2.335 1.045 2.335 2.335c0 11.33-21.245 19.59-29.843 11.58-4.967-4.627-7.903-10.17-9.376-16.943l-.12-.565c-.93-4.496-1.17-8.465-1.22-16.512l-.022-4.516-.017-1.51-.093-3.515c-.052-1.288.95-2.375 2.238-2.427z"/><path d="M781.04 934.833c.122-1.284 1.262-2.225 2.545-2.103 1.234.117 2.152 1.175 2.113 2.398l-.01.147c-.42 4.427 2.67 15.52 6.846 23 4.97 8.9 9.862 11.296 14.837 6.3.9-.913 2.4-.914 3.302-.004s.914 2.4.004 3.302c-4.066 4.075-8.557 5.02-12.862 2.905-3.455-1.698-6.584-5.27-9.358-10.235-4.6-8.23-7.94-20.216-7.418-25.7zm-102.882 29.8l.386-.188c1.053-.492 1.78-.623 2.78-.156 1.13.528 1.564 1.6 1.45 2.666-.052.484-.2.938-.457 1.452-.583 1.204-1.8 2.546-3.454 3.9l-.388.315.1.074a2.33 2.33 0 0 1 .982 2.201l-.023.155a2.52 2.52 0 0 1-.149.521l-.013.027.2-.022a1.26 1.26 0 0 1 .182.001l.442.044.235.07c.6.18.677.283 1.425 1.25l.138.627c.092.45.092.6.016.878l-.028.1.12.043c.5.2.917.546 1.2 1.035l.07.136c.532 1.118.098 2.446-.967 3.042L675.83 986l-11.66 5.438-3.73 1.646-.906.4c-6.77 2.9-12.358 4.998-16.47 6.062-2.52.652-4.498.926-6 .754-2.44-.278-4.076-1.9-3.725-4.396.446-3.16 2.155-5.377 4.9-6.78l.324-.16.014-.085a2.51 2.51 0 0 1 .084-.308l.146-.4.206-.307c.18-.263.23-.302.436-.47l.25-.165a1.3 1.3 0 0 1 .247-.134l.216-.085c.178-.063.348-.097.8-.17l.812-.127a52.97 52.97 0 0 1 3.043-.355l.802-.072.26-.037 1.425-.216 1-.16-.337.018c-4.892.233-9.048-.304-11-1.965l-.147-.13c-1.467-1.364-2.134-2.956-.957-4.58.723-.997 1.757-1.374 3.26-1.553l.255-.028c1.674-.17 3.366-.124 7.695.138l2.85.17c3.37.186 5.237.2 6.562.012 1.94-.275 4.44-1.07 7.056-2.144l.256-.106-.683.076c-2.564.274-5.477.46-9.47.642l-5.922.257-5.5.33a2.32 2.32 0 0 1-2.5-2.146c-.1-1.286.86-2.4 2.146-2.5l1.182-.088 3.53-.206 6.75-.296c7.07-.323 10.62-.647 14.848-1.452.763-.145 2.094-.8 3.924-1.892l.54-.33 1.064-.668 2.3-1.478.493-.3c.7-.435 1.238-.745 1.7-.983zm-26.182 26.92l-1.217.05c-8.453.376-11.697 1.286-12.6 4.025l-.014.044.034-.001c.803-.026 1.96-.215 3.4-.574l.313-.08c2.43-.63 5.495-1.672 9.1-3.073l.993-.392z"/></g><path d="M653.408 996.875c10.857 6.602 5.795 12.94 1.638 26.675-4.664 15.413-10.037-3.55-10.728-8.777-1.967-14.868 1.063-20.834 9.1-17.898z"/><g class="D"><path d="M693.372 970.65l2.275.19 9.5.76.735.067c1.334.132 1.892.267 2.62.617l.118.058.34.17c.9.45 1.433.67 2.736 1.108l.77.255c3.2 1.046 8.21 2.427 15.59 4.237l.53.13c1.225.3 3.27.56 6.478.856l5.343.478 1.135.117c1.292.142 2.127.276 2.703.45.43.13.777.283 1.138.59 1.028.87 1.2 2.442.217 3.512-.565.61-1.105.793-2.187 1.02-5.494 1.15-14.955 1.238-23.8.415l-.44-.042.018.013c1.638 1.134 3.18 2.103 4.794 3l.61.33c.537.286 1.736.645 3.4 1.026l.537.12 3.868.788.314.07.264.063.116.03c.415.1.644.186.944.4l.258.188c.296.227.344.337.78 1.324l-.04.544c-.078.953-.15 1.147-.6 1.576l-.257.24-.03.02 1.543.38a15.95 15.95 0 0 1 .881.242l.05.018a4.83 4.83 0 0 1 .75.342c.576.333 1 .724 1.224 1.52.098.347.125.67.095.965l-.016.122.062.056.147.15c1.082 1.18.842 2.96-.492 3.84-8.463 5.59-18.06 6.092-28.573 2.506-7.768-2.65-15.14-7.036-24.5-13.867-1.042-.76-1.27-2.22-.51-3.262s2.22-1.27 3.262-.51l1.216.882c8.43 6.07 15.15 9.99 22.037 12.337 7.088 2.418 13.5 2.732 19.337.624l.346-.13-.505-.103-4.13-.902-.586-.137-.27-.025c-4.84-.458-8.275-.963-11.668-1.807l-.39-.1c-5.032-1.292-9.444-2.856-13.425-4.85-1.107-.555-1.9-1.123-3.15-2.193l-.6-.518-.544-.217-7.45-3.09-.97-.416c-.2-.1-.39-.18-.566-.29-.564-.356-.95-.735-1.127-1.585a2.36 2.36 0 0 1 .715-2.22c.32-.296.645-.45.984-.548.278-.08.518-.104.785-.107.49-.007 1.19.078 2.038.227.86.152 1.73.342 2.515.554l.122.033-.007-.015c-.323-.74-.532-1.512-.623-2.316l-.022-.22c-.108-1.248.46-2.097 1.302-2.6l.04-.024-.1-.105-.13-.156c-.53-.675-.783-1.595-.368-2.482l.025-.05-.084-.01c-1.16-.173-2.015-1.187-1.988-2.36l.008-.148c.1-1.285 1.24-2.237 2.526-2.127zm6.364 13.59l.103.075c2.402 1.72 6.164 3.44 11.082 5.08l.24.08-.54-.234-.935-.41-1.045-.466-8.903-4.125zm5.2-7.973l.078.034c1.922.852 3.806 1.93 5.816 3.278l.34.23.507.096c2.68.5 5.656.876 8.708 1.15l.4.035-2.26-.596c-2.7-.724-4.898-1.357-6.658-1.912l-.85-.273-.638-.213a36.28 36.28 0 0 1-2.286-.85l-.203-.086a17.89 17.89 0 0 1-.655-.296l-.28-.137-.487-.245c-.165-.074-.338-.108-1.035-.172l-.5-.044z"/><path d="M687.506 993.153c.978-.84 2.452-.728 3.292.25.805.938.736 2.33-.132 3.184l-.118.108c-.5.42-.874 1.387-1.016 2.644-.494 4.387-.548 8.6-.127 12.612 1.376 13.07 12.407 23.756 23.608 20.597 2.7-.764 7.252-6.114 11.7-13.642 1.8-3.046 3.465-6.25 4.73-9.064l.265-.597c1.125-2.568 1.8-4.595 1.82-5.24l.001-.064a2.35 2.35 0 0 1 2.278-2.4c1.288-.04 2.36 1 2.4 2.278.065 2.715-3.105 10.004-7.246 17.08l-.22.372c-5.08 8.6-10.125 14.54-14.452 15.762-14.42 4.067-27.873-8.967-29.52-24.602-.458-4.353-.4-8.913.13-13.623.26-2.32 1.06-4.33 2.614-5.665zm-37.648-8.988c1.855-.97 3.76-.184 5.272 1.23.94.882 1 2.36.108 3.3-.846.903-2.242.984-3.185.2l-.115-.1a2.43 2.43 0 0 0-.223-.185l-.064-.045-.055.053c-.4.387-.77 1-1.072 1.8l-.08.22c-1.466 4.163-2.467 8.266-2.954 12.26-.896 7.343 1.67 15.65 6.542 20.635.9.922.885 2.4-.037 3.302s-2.4.885-3.302-.037c-5.897-6.032-8.9-15.758-7.838-24.466.53-4.345 1.6-8.775 3.184-13.245.775-2.2 2.006-3.982 3.82-4.932z"/><path d="M679.504 980.602c.522-1.18 1.9-1.712 3.08-1.19s1.712 1.9 1.19 3.08l-.328.734c-3.672 8.13-7.716 14.188-16.85 26.233l-2.39 3.147c-7.066 9.342-10.478 14.324-13.64 20.388l-4.05 7.87-1.316 2.616a134.44 134.44 0 0 0-1.843 3.9c-1.647 3.65-2.765 6.676-3.26 8.968-.252 1.166-.327 2.084-.242 2.692.023.166.055.285.085.36l.008.02.273.15c10.758 5.67 31.364-3.24 39.032-15.315l.23-.37c2.16-3.54 5.534-3.94 9.036-1.983 1.16.647 2.304 1.51 3.622 2.665l.44.392 2.968 2.7c10.694 8.644 16.164 19.546 17.058 32.5.752 10.88-1.69 22.905-6.88 36.77-.452 1.208-1.797 1.82-3.005 1.368s-1.82-1.797-1.368-3.005c10.63-28.403 9.334-48.99-8.203-63.552l-.536-.44c-.606-.5-3.075-2.8-3.252-2.948-1.226-1.096-2.224-1.865-3.118-2.364-1.46-.815-2.047-.783-2.696.218l-.075.12c-3.883 6.37-11.658 12.612-20.226 16.323-9.495 4.112-18.79 4.697-25.648.818-2.494-1.4-2.893-4.257-2.064-8.09.58-2.68 1.797-5.98 3.57-9.903a133.76 133.76 0 0 1 1.565-3.335l.662-1.347 4.747-9.265c3.53-6.892 7.158-12.17 15.157-22.71l2.416-3.183c8.637-11.43 12.387-17.17 15.856-25.013z"/><path d="M666.087 1057.22c1.272-.212 2.475.648 2.687 1.92 1.554 9.334 1.712 18.193.722 28.14-.346 3.473-.825 7.066-1.486 11.27l-.256 1.606-.43 2.6-2.215 12.895-.736 4.49c-.203 1.273-1.4 2.142-2.673 1.94s-2.142-1.4-1.94-2.673l.304-1.89.438-2.64.634-3.715 1.304-7.543.587-3.504.117-.718c.78-4.822 1.327-8.79 1.705-12.59.95-9.558.8-18.01-.68-26.91-.212-1.272.648-2.475 1.92-2.687z"/><path d="M708.1 1077.56c1.128-.625 2.55-.218 3.174.91s.218 2.55-.91 3.174l-1.12.615c-18.098 9.845-27.9 10.28-45.986 1.66-1.164-.555-1.658-1.948-1.103-3.112s1.948-1.658 3.112-1.103l1.012.477c16.36 7.62 24.622 6.92 41.82-2.618z"/></g><path d="M689.02 994.237c10.857 6.602 17.466 17.596 13.3 31.33-4.664 15.413-15.786-5.568-16.478-10.794-2.95-22.302 2.322-6.78 2.322-17.785"/></g><path d="M572.26 1132.19c-9.128-11.77-26.293-13.353-40.64-12.763s-19.195 4.12-26.38 15.522 71.257 10.253 68.944.077l-1.925-2.836z" fill="#001c6c"/><path d="M539.115 1001.425c.466 10.082.64 44.487-.204 58.3-.027.434-.823 0-1.235 0" stroke="#0d62fe" stroke-width="11.262" class="B C"/><path d="M565.968 963.725c10.546.758 24.717-4.115 24.717 9.93 0 9.363-12.814 12.54-38.443 9.53v20.097l-25.434 2.257v-22.354c-26.482 2.508-39.297-.67-38.443-9.53.55-5.706 4.467-7.858 12.854-8.6 3.092-.27 9.113-.27 18.062 0 24.094-1.398 39.657-1.845 46.688-1.34z" fill="#001d71"/><path d="M523.906 1031.128h28.806l.724 10.424c.13 2.09.664 19.63 1.605 52.625l-1.203 22.082-30.496 2.606-1.203-52.904 1.766-34.834z" fill="#fb3640"/><g stroke="#011638" stroke-width="6.692" class="C"><path d="M515.596 1131.205c-18.115-.376-4.57-33.816-60.533-33.765-72.43.065-78.732 56.588-28.886 42.905 46.61-12.795 11.672-55.89-32.902-70.373s-184.803-21.142-82.254 6.398 98.907-23.296 103.275-43.87-8.67-87.9-8.292-116.96" class="B"/><path fill="#fff" d="M422.374 902.72l-6.398 31.988h-30.16V898.15z"/></g></g></svg>