<svg xmlns="http://www.w3.org/2000/svg" width="1095" height="364" xmlns:v="https://vecta.io/nano"><style><![CDATA[.B{stroke-linejoin:round}.C{stroke-linecap:round}.D{fill:#001c6c}.E{fill-rule:nonzero}.F{stroke:#212121}.G{stroke-width:2.299}.H{fill:#212121}.I{stroke-width:2.023}.J{stroke:#001d71}.K{stroke:#ffc415}.L{fill:#ffa300}.M{stroke-width:2.253}.N{stroke-width:2.943}]]></style><g fill="none" fill-rule="evenodd"><g transform="matrix(-1 0 0 1 643.21679 236.585)"><path d="M69.588 84.15l-.204-1.545c1.31 10.495 3.528 20.86 5.015 31.333.2 1.48.394 3.643.563 6.02-4.796.314-9.65.187-14.502-.157 2.714-9.066 4.19-17.435 5.812-28.787.318-2.23.527-4.476.71-6.728l2.145-.104a9.37 9.37 0 0 0 .462-.033zm4.66-1.29a118.51 118.51 0 0 1 .781 3.663l.113.587.148.267 1.457 1.306c4.96 4.405 10.104 8.604 15.27 12.77l3.447 2.774c1.04.837 2.184 1.57 3.4 2.102 2.5 1.083 5.085 1.956 7.648 2.883-2.833 1.687-5.942 3.26-9.397 5.025-1.903.973-3.834 1.8-5.8 2.5-1.75-2.605-3.534-5.19-5.1-7.905-2.02-3.502-3.578-7.26-5.442-10.845l-.034-.062.112.263c1.4 3.378 2.61 6.84 4.036 10.208l.625 1.437c.977 2.18 2.1 4.306 3.4 6.305l.768 1.148c-3.934 1.26-7.96 2.03-12.037 2.445.26-9.39-.337-19.582-1.93-29.245l-.13-.773-.808-1.132-3.464-4.74c.123-.028.247-.06.372-.094a43.11 43.11 0 0 0 3.386 3.46h0l.073.065-.03-.162-.43-.78c-.545-1-1.066-2.012-1.543-3.046.323-.117.645-.243.97-.378zM63.88 84.43c-.114 3.208-.32 6.323-1.12 10.09l-1.577 7.414-.278 1.3-.118.645-2.44 13.063a68.92 68.92 0 0 1-.548 2.654l-.438-.04-.003.012 3.548-16.334.198-1.073c5.826-31.677-1.64 4.58-4.05 17.372-3.493-.317-6.977-.715-10.428-1.115.478-.784.942-1.576 1.4-2.377 3.733-6.673 7.276-13.454 10.634-20.322.695-1.422 1.102-2.973 1.504-4.503.588-2.235 1.243-4.466 1.72-6.727l1.878-.053zm-4.648.047l-.113.338c-6.324 18.958-1.164 10.426-12.73 33.573l-3.957-.455-3.123-2.33 7.603-12.978c1.32-2.257 2.61-4.537 3.712-6.908 1.758-3.786 3.236-7.698 4.9-11.53a36.41 36.41 0 0 0 3.718.289zm-7.525-1.048l-.407.925-7.8 18.973c-1.375 3.113-2.958 6.135-4.614 9.11l-1.136 2.006-.537-.4c-1.414-.306-3.11-.88-4.953-1.64 4.326-5.628 8.54-11.34 12.243-17.382 2.336-3.8 4.28-7.833 6.144-11.9.355.113.707.216 1.058.31zm-4.252-1.588l-.27.455L46 84.208c-1.893 3-4.163 5.775-6.02 8.808-2.763 4.514-5 9.338-7.825 13.814-.9 1.443-1.848 2.867-2.802 4.28-3.9-1.844-8.075-4.255-11.47-6.574 6.43-4.3 12.346-9.372 17.282-14.824 3.08-3.402 5.97-6.966 8.844-10.546.974 1.057 2.11 1.965 3.435 2.674zm33.498-2.886c1.75 1.116 3.458 2.307 5.183 3.45 1.905 1.263 3.545 2.89 5.417 4.204 2.747 1.927 5.568 3.75 8.427 5.506 1.76 1.08 3.535 2.153 5.417 3.002 3 1.358 6.07 2.64 9.23 3.605l3.157.92a35.27 35.27 0 0 1-5.771 5.82c-8.51-6.728-17.356-13.036-25.876-19.754-2.3-1.813-4.518-3.728-6.694-5.688a38.9 38.9 0 0 0 1.423-1.001zm-5.78 8.32l.046.235.358 1.982.037.224.067.093a93.87 93.87 0 0 1 3.332 5.009 46.44 46.44 0 0 1 1.212 2.099l.536 1.008-.5-1.18-.644-1.43c-1.26-2.705-2.82-5.26-4.284-7.865l-.04-.073-.117-.105zM41.95 76.343l-.62.407c-13.673 8.97-21.31 13.276-30.847 20.858-2.497-3.865-4.43-9.22-5.694-13.005.893-.35 1.792-.686 2.7-.996 4.506-1.54 9.33-2.116 13.742-3.904l18.808-7.637c.5 1.502 1.135 2.948 1.91 4.277zm48.657-10.398c8.39 1.297 21.042 1.352 24.52 1.645 5 .42 9.94 1.46 14.946 1.802a47.13 47.13 0 0 0 1.58.023c-.14 2.244-.415 4.347-.91 5.882a55.46 55.46 0 0 1-.7 2.035c-5.38-1.287-10.707-2.803-16.12-3.937-4.54-.95-10.634-1.85-16.822-3.116l-.25-.053.45.19c10.265 4.306 20.65 8.572 31.56 9.9-2.334 5.5-5.46 10.907-8.62 15.827-2.64-1.6-5.158-3.38-7.818-4.937-4.597-2.692-9.363-5.09-13.945-7.808-1.444-.856-2.806-1.85-4.113-2.903-2.668-2.148-5.17-4.505-7.788-6.712 1.463-1.697 2.633-3.464 3.337-5.186 2.12.568 4.3 1.07 6.477 1.526l.463.095-.208-.086-6.345-2.64c.148-.505.25-1.003.305-1.492zm-52.112-.252l-.5.196C26.86 70.302 15.852 75.016 4.88 79.802l-1.465.643C2.286 76.95 1.398 73.066.81 69.052c3.864-.315 7.748-.395 11.594-.862 4.174-.506 8.326-1.224 12.44-2.102 4.442-.948 8.83-2.134 13.236-3.244.12.928.255 1.883.417 2.848zm1.097 4.946l-1.472.573c-22.047 8.572-36.427 14.227 1.403-.708l.027-.01.042.146zM7.59 54.077c7.782 1.964 15.667 3.526 23.574 4.906 2.188.382 4.386.71 6.6.995l.027.285.037.354.192 1.664c-1.82.192-3.635.418-5.442.705-10.76 1.712-21.2 4.147-31.788 5.84C-.035 63.15-.245 57.223.31 51.754c2.394.88 4.808 1.7 7.278 2.323zm122.754-12.73c.388 1.378-.108 2.867 0 4.294.18 2.356.518 4.7.797 7.047l-.563.087c-2.862.412-5.792.34-8.628.902-3.74.742-7.283 2.323-11.034 3.002-7.138 1.293-14.427 1.63-21.57 2.903l1.484-.25-.117-2.92.01-.004c13.43-5.71 18.56-8.094 18.963-8.546l.013-.03-2.043.768-17.025 6.35-.022-.363-.005-.074c8.534-3.254 18.943-7.074 19.106-6.706v.026l.826-.31 19.48-7.34.338 1.165zm-92.554 9.11l.114.046c-.407-.098-1.094-.15-2.195-.27l2.71.782V51c-.002-.145-.044-.25-.142-.33l.637.268-.096.202-.4-.116v.023c-.007.186-.07.432-.158.766l-18.535-6.235-14.184-4.925.5.27c2.5 1.322 5 2.645 7.554 3.854 4.248 2.012 8.68 3.622 12.94 5.605 3.2 1.488 6.182 3.428 9.43 4.804.546.23 1.096.455 1.65.67-.028.603-.035 1.277-.01 2.03-.783-.12-1.564-.252-2.343-.398-5.53-1.04-11.05-2.224-16.45-3.803C8.382 50.623 3.582 48.818.882 47.703c.2-1.084.435-2.14.706-3.162.317-1.195 1.026-2.796 1.96-4.596.01.002.018.005.026.008l1.97.692-1-.523-.863-.452.396-.744.01.002c3.42.842 2.774.47.23-.434l.612-1.103 32.85 13.066zM84.983.106c1.53.05 2.97.325 4.352.747l-.99 6.564.02-.087L89.703.97c3.435 1.12 6.537 3.116 9.83 4.727l.23.113L98.385 9l-.146.324.062-.117 1.056-2.033.627-1.256.087.044c4.427 2.2 8.405 4.605 11.945 7.34l2.008-2.77-4.81 6.67-.837 1.18.93-1.043c1.04-1.17 2.118-2.317 3.008-3.603l.087-.13c2.62 2.058 4.993 4.303 7.127 6.784l-2.056 1.555-.724.573.684-.434 2.327-1.423c2.974 3.51 5.474 7.492 7.5 12.083-3.003 1.354-5.988 2.743-8.935 4.213-18.17 9.066-15.285 8.467-27.784 16.698l-.05-.83c-.052-.874-.253-2.755-.62-4.713 3.9-3.624 8.06-6.97 11.903-10.656 4.38-4.204 8.32-8.852 12.74-13.013a37.87 37.87 0 0 1 2.192-1.898l.034-.028-.315.2a52.64 52.64 0 0 0-1.96 1.326l-.954.7c-3.905 2.96-7.26 6.587-11.034 9.7-4.052 3.353-8.48 6.247-12.44 9.7l.2-.17-.04.054-.966 1.328-.12-.388.924-.824.2-.17 2.364-3.282 15.766-22.332-1.503 1.683-19.458 21.633c-.793-1.113-1.623-2.106-2.488-2.992l4.72-12.057 1.04-2.463.178-.4-.375.65c-2.297 3.927-4.775 7.747-7.437 11.424l-.53.723c-.634-.48-1.284-.913-1.95-1.305 1.102-2.856 2.165-5.732 3.066-8.655l.11-.365-.134.268c-.505.994-1.018 1.985-1.446 3.01l-.246.618c-.617 1.64-1 3.37-1.452 5.064-2.427-1.407-5.07-2.263-7.93-2.743.114-.72.203-1.428.253-2.12C73.488 20.748 76.45 10.21 76.57.01c2.772-.03 5.575.005 8.412.095zm-70.316 22C21.673 28.287 26.54 32.1 34.173 40.16c2.156 2.277 4.25 4.61 6.323 6.963l-.958 2.355-.027-.01L5.236 36.855c3.127-5.417 7.27-11.52 8.897-13.983l.316-.464zM27.34 11.946c.875 1.207 1.73 2.426 2.518 3.69C34.79 23.57 40.397 31.18 45.172 39.2c-1.353 1.337-2.286 2.736-3.06 4.246a23.11 23.11 0 0 0-1.215-1.092c-13.932-11.463-8.28-6.28.862 1.802l-.206.45.01.008-26.67-22.825c3.114-4.128 7.686-7.147 12.13-9.67zm12.35-5.768l.098.45c1.776 7.677 4.2 15.192 6.52 22.723.59 1.92 1.342 3.793 2.208 5.605.188.394.39.782.598 1.167-.434.28-.863.573-1.286.88l-3.6-4.536-.304-.38-.067-.122c-1.188-2.146-4.138-6.89-10.126-16l-.876-1.33c-.927-1.406-1.93-2.758-2.974-4.08 3.238-1.697 6.502-3.147 9.797-4.378zm12.982-3.752c1.7 8.892 3.72 19.514 4.17 26.425.082 1.26.2 2.53.357 3.806-2.138.494-4.177 1.274-6.112 2.305-.393-3.257-.696-6.536-1.468-9.717-1.745-7.19-4.17-14.204-6.52-21.22l.29.864c2.836-.916 5.696-1.68 8.584-2.313zm-8.93 29.42l.195.244.09.167c3.313 6.162-11.215-14.016-.286-.41zM73.202.084l-.207 13.75L72.15 32.4c-2.515-.4-5.192-.5-8.032-.443-.078-4.19-.164-9.2-1.156-17.633C62.096 6.967 61.93 3.277 61.655.948 65.42.5 69.235.216 73.1.088zm15.144 7.333l-.44 2.038c-1.084 4.956-2.242 9.895-3.574 14.79l-.335 1.19-.246.82.167-.328c.597-1.195 1.157-2.403 1.518-3.684 1.298-4.607 2.106-9.466 2.838-14.327l.074-.5zm9.893 1.907l-1.013 1.907-4.268 8.1c-.597 1.196-1.172 2.404-1.724 3.622l-.367.822.247-.425c2.47-4.304 4.723-8.73 6.765-13.234l.36-.803z" fill="#54e375"/><g transform="matrix(-1 0 0 1 75.303445 29.251143)" class="D"><g class="E"><path d="M20.457.08c.518-.223 1.1.04 1.32.586s-.037 1.172-.555 1.395l-.54.23-.496.204-.794.32.028.014c.272.153.492.424.546.788l.01.08.01.01c.194.237.356.53.482.886l.014.043.05-.01.23-.03.068-.004a1.11 1.11 0 0 1 .366.041c.426.12.8.492.77 1.126a1.11 1.11 0 0 1-.196.572 1.16 1.16 0 0 1-.175.202 1.47 1.47 0 0 1-.226.17l-.795.5-1.105.718-.045.032-.085.057-.097.06L16.77 9.7l-2.154 1.37-.073.042-.3.162c-.855.45-1.352.577-3.733 1.046l-.143.028-.08.033c-.436.172-.762.216-1.108.107l-.07-.024c-.66-.245-.87-.914-.708-1.524a2.24 2.24 0 0 1 .186-.463l.046-.084-.06-.047a1.11 1.11 0 0 1-.387-.79l-.002-.073c0-.165.03-.304.08-.437.068-.184.167-.345.308-.53l.04-.053L8.6 8.46c-.726-.14-1.25-.485-1.267-1.283V7.08c.015-.606.324-.96.865-1.35.52-.375 1.314-.8 2.525-1.347l.443-.202 1.908-.854.357-.163.73-.35.543-.28c.868-.44 1.7-.804 3.2-1.404l1.643-.66.924-.387zM17.78 5.223l-.313.14-.4.175-.797.325-.042.036-1.402 1.256-.173.16.308-.08.8-.596L17.664 5.3l.118-.075zm6.368-3.08l1.165-.042c1.6-.044 2.978.032 5.573.27l2.307.214 1.798.138c.378.024.698.247.866.564l.033.067.115.024c.246.052.454.107.63.17l.086.032c.193.076.357.167.507.3.305.27.5.67.4 1.14-.167.863-.72 1.07-2.328 1.398l-.14.027.037.036a1.05 1.05 0 0 1 .177 1.287l-.04.068c-.185.292-.385.398-.63.467-.126.035-.236.047-.376.053-.3.012-.833-.018-1.492-.08l-.133-.013c-1.942-.192-3.757-.472-5.288-.858l-.14-.036-1.547-.154c-.124-.012-.257.002-.55.06l-.398.082-.35.058c-.58.077-1.1-.34-1.185-.93a1.09 1.09 0 0 1 .204-.788l.05-.063-.048-.047a2.35 2.35 0 0 1-.465-.647l-.034-.077-.07-.18-.034-.102-.386-.028-.54-.06-.033-.006c-.223-.04-.344-.077-.54-.226-.455-.35-.62-1.055-.164-1.585a1 1 0 0 1 .502-.331c.15-.048.3-.073.577-.096l.225-.018 1.657-.085z"/><path d="M8.908 10.2c1.618-6.9 6.27-10.247 12.043-6.645.27.17.438.446.48.743l.003.026.04.045c.242.286.455.627.64 1l.055.116c.385.84.637 1.873.723 2.737.297 2.958.04 7.345-.914 10.6-1.436 4.884-4.375 7.307-8.786 5.8-4.166-1.414-5.764-8.12-4.284-14.432zm9.43-5.658C14.81 3.215 12.158 5.6 10.97 10.51l-.038.16c-1.256 5.407.07 11.02 2.917 11.997 3.08 1.055 4.995-.538 6.13-4.438.863-2.963 1.102-7.094.833-9.806-.15-1.497-.785-2.924-1.356-2.99l-.042-.002c-.476 0-.876-.335-.99-.79l-.015-.068-.072-.028z"/><path d="M24.003 5.327c-1.156 1.36-1.77 2.906-2.56 5.93l-.207.806-.27.822a.99.99 0 0 0-.017.559l.055.22.206 1.028.17 1.002c.318 1.855.57 2.744 1.185 3.785 1.95 3.298 5.092 4.27 8.113 2.905 2.64-1.192 4.627-3.967 4.798-6.82l.08-2.145-.13-3.523c-.32-3.343-1.157-5.534-3.05-6.143-3.7-1.195-6.45-.638-8.3 1.485l-.076.09zm7.74.41c.72.225 1.352 1.835 1.6 4.35.102 1.035.138 2.156.124 3.312l-.078 2.05c-.13 2.1-1.676 4.188-3.645 5.05-2.012.882-3.943.303-5.366-2.035-.466-.766-.678-1.496-.965-3.123l-.196-1.126-.135-.68-.07-.303.197-.586.02-.067.155-.592c.778-2.924 1.344-4.33 2.322-5.42 1.26-1.403 3.07-1.76 6.037-.833z"/><path d="M21.9 7.314a1.06 1.06 0 0 1 1.109 1.007 1.06 1.06 0 0 1-1.01 1.105l-.696.034c-6.947.356-8.827 1.04-13.27 4.904-.44.384-1.11.34-1.497-.102s-.34-1.108.102-1.492l.305-.264C11.728 8.398 14.1 7.676 21.9 7.314z"/><path d="M22.427 8.76c3.88-2.29 9.717-3.245 13.54-1.825.533.198.782.738.557 1.207s-.84.688-1.372.5c-3.097-1.15-8.216-.314-11.556 1.658-.48.284-1.13.17-1.453-.252s-.194-.995.286-1.278z"/></g><path d="M14.915 10.6c.62 1.678 4.037 8.198 6.406 3.88l.643-5.86-6.86 1.198c-.544.153-.607.413-.188.78zM28.24 8.96c.787 2.266 2.645 6.812 6.275 4l-.13-4.86-2.988-.524L28.24 8.96zM6.4 27.72c1.77-6.32 7.092-3.163 16.464-4.278 7.36-.876 11.82-3.778 18.424 4.278.412.503 8.4 6.278 4.877 8.613s-19.9-4.25-23.3-3.557C11.52 35.1 5.828 36.334 1.4 36.334c-2.944 0-1.28-2.87 5-8.613zm7.196 11.404c6.226 7.52 9.404 14.846 13.328 2.85.26-.792 1.874-4.924 1.1-5.1-1.9-.412-7.12 2.055-9.042 2.307-1.58.207-3.184.023-4.777.034l-.62-.1z"/></g></g><g transform="matrix(-.996195 -.087156 -.087156 .996195 530.915942 261.505529)"><path d="M4.33 89.95C-7.853 49.502 26.47 16.14 57.078 6.747c46.482-14.264 61.698 80.807 59.6 81.61-12.883 4.956-50.335 5.487-112.358 1.59z" fill="#001d71"/><path d="M93.043 41.174c2.084 16.804-14.285 59.23-31.55 56.906-14.5-1.95-22.942-14.344-27.407-27.6-.755-2.244-11.96 3.614-13.49-6.82s10.69-3.886 10.37-5.802c-1.07-6.403-.986-11.836-.82-16.176.026-.685 3.687-2.806 11.513-4.06 3.5-.562 7.837-.95 13.053-.96 7.442-.013 15.756.72 22.735 1.607 2.007.255.18-18.57 1.913-18.305 1.764.272 7.084 19.636 8.455 19.9 3.22.596 5.203 1.104 5.23 1.33z" fill="#f2f4f6"/><path d="M73.257 46.188c.974 7.852 7.36 5.326 7.312.088m-7.81 5.61l-2.357 2.94m6.525-2.575l-1.498 5.112M79.1 51.4l.677 4.254" class="B C F G"/><path d="M64.202 41.7c4.186 10.443 6.757 16.575 7.713 18.397.422.804 1.33 1.843.844 2.636-.447.728-7.6-.06-7.963-1.454-.193-.72.154-3.028.032-2.277-.752 4.622-.914 7.597-.487 8.927" fill="#f5fff6" class="B C G J"/><g class="B C F G"><path d="M49.183 46.088c-1.442 6.475 6.794 7.216 8.402-.773m-7.84 5.607l-2.266 1.9"/><path d="M52.245 51.14l-.063 3.14m2.864-3.943l1.8 3.304"/></g><path d="M63.772 70.588c2.51.278 1.744 3.816 3.706 3.34 1-.24 1.82-1.343 2.823-1.162.955.173 2.844 2.333 4.896 3.1.814.305 2.1.304 3.86-.002-2.385 2.01-4.445 3.437-6.178 4.28-2.918 1.417-10.645 4.386-17.896.027C50.87 77.7 44.195 68.806 43.023 67.74l17.927 8.643c14.6 2.1 13.6 2.748-3.648-2.43-2.572-.773-7.332-2.844-14.28-6.212 2.388-1.333 9.164.935 14.28 2.325 4.37 1.187 5.313.395 6.468.523z" fill="#ff4445"/></g><g transform="matrix(-1 0 0 1 769.768547 212.557736)"><path d="M8.227 51.917c13.412-16.66 38.63-18.9 59.708-18.064s28.202 5.832 38.758 21.97 8.202 28.715 2.19 40.63C94.8 124.37 28.368 132.97 6.39 106.704-5.324 92.706 2 70.334 5.4 55.93l2.828-4.014z" fill="#ff8100"/><g stroke-width="3.86" class="B C K"><path d="M69.028 47.276c3.9 8.26 14.833 2.728 10.5-3.125m-26.174-7.313C60.973 40.643 65.9 47.35 72.23 53.16c3.507 3.214 6.97 6.488 10.175 9.983.943 1.028 2.758 2.256 2.2 3.523-.503 1.164-12.442 2.044-13.5.16-.543-.975-.7-4.363-.664-3.257.336 10.206 4.526 20.867 2.045 29.138-1.328 4.428-19.902 1.4-19.143 4.036 1.6 5.6 8.12 6.028 19.53 1.3 1.127 2.263.468 5.02.332 7.528-.307 5.658-1.105 11.28-1.658 16.922"/><path d="M49.208 50.006c-.796 6.354 7.792 10.37 13.373 5.69 3.75-3.145 1.724-7.227 1.664-11.545"/></g><path d="M70.674 20.04c-4.354 14.46-29.002 16.91-39.8 8.8-10.764-8.085-.684-8.01 5.894-5.034 5.114 3.81 11.678 4.378 19.692 1.703a4.35 4.35 0 0 0 .478-.163l.112-.04.472-.17-.036-.04c5.252-2.624 15.94-14.2 13.186-5.057zM59.356 6.7c2.903 6.566-2.728 14.464-4.212 17.145-4.612 1.156-10.278.522-16.997-1.904-2.082-4.8-2.756-10.42.347-15.176 5.285-8.1 16.516-9.898 20.863-.065z" class="D"/></g><g transform="matrix(-.965926 -.258819 -.258819 .965926 886.692573 217.218361)"><path d="M26.06 21.624C10.463 55.193 4.146 78.497 7.107 91.535c24.463 19.444 50.817 26.497 79.063 21.16 15.032-30.1 19.882-49.593 14.55-58.482 12.84 3.357 20.542 1.974 23.11-4.15S116.13 36.926 93.02 29.026c-15.556-3.97-27.703-6.44-36.443-7.405s-18.912-.965-30.517.003z" fill="#7ee081"/><g class="B C G"><path d="M29.127 28.15c.888-5.912 8.382-15.6 13.69-17.893 1.397-.604 2.86-1.068 4.344-1.385.955-.204 2.547-1.075 2.918-.164 2.722 6.68-10.25 17.585-15.19 19.037-.432.127-.102-.947.08-1.365.538-1.24 1.125-2.508 2.034-3.5 4.66-5.084 10.74-11.276 17.932-12.673.638-.124 1.702-.616 1.946-.008 1.932 4.8-2.677 12.685-7.02 14.98-1.907 1.008-4.362 4.312-5.847 2.758-1.428-1.496 2.087-3.678 3.538-5.176 2.764-2.854 5.778-5.486 9.01-7.778 1.7-1.2 3.657-1.983 5.622-2.605 1.714-.543 3.53-1.01 5.314-.857.49.042.542.868.593 1.362.722 6.973-7.032 13.755-12.636 16.22-.528.232-.18-1.194.007-1.745.235-.692.73-1.276 1.205-1.827 1.284-1.486 2.63-2.92 4.057-4.267.708-.668 1.493-1.26 2.326-1.755 2.85-1.7 5.624-3.6 8.7-4.82 1.45-.576 3.367-1.368 4.64-.475 1 .702.43 2.56-.016 3.72-1.97 5.13-3.494 7.94-7.45 10.732-1.517 1.07-3.593 2.17-5.544 1.997-.245-.022.148-.49.302-.685 1.807-2.3 3.614-4.603 5.564-6.778 2.06-2.298 4.197-4.536 6.46-6.63.58-.538 1.264-1.037 2.026-1.223 2.13-.52 4.507-1.73 6.51-.862 1.098.475.32 2.5-.09 3.643-.912 2.534-4.385 7.483-6.62 9.287-5.03 4.057-4.925.723-2.687-1.734 2.812-3.087 5.596-6.257 8.864-8.84 1.1-.87 2.603-1.055 3.97-1.307 1.057-.194 2.245-.466 3.217-.014.58.27.603 1.174.665 1.82.132 1.36.418 2.83-.09 4.098-1.802 4.492-6.97 9.792-11.862 10.143" stroke="#ff8100"/><path d="M82.414 35.113c.95 1.563 1.716 3.235 2.85 4.7 2.903 3.724 8.785 2.496 9.38-2.02.265-2.015.126-4.076.04-6.117-.004-.094-.2-.003-.3-.005m-8.862 40.302c6.652 6.74 12.97.552 19.5-4.036" stroke="#001c6c"/><path d="M103.036 78.213c3.3 1.395 2.614.496 4.263 5 .66 1.797 1.3 3.63 1.562 5.53.248 1.723.3 3.5-.015 5.23-.56 3.16-7.44 4.8-9.165 2.072-2.7-4.237-3.366-6.506-3.794-11.585-.1-1.06-.4-2.4.3-3.184.598-.65 1.994-.615 2.627-.007a13.2 13.2 0 0 1 3.51 5.902c.74 2.676.63 5.56.427 8.335-.183 2.504-4.752 6.788-6.915 3.734-1.723-2.433-2.503-5.2-2.754-8.18-.23-2.718-.634-5.5-.127-8.184.838-4.436 2.4.48 2.62 2.265.344 2.9.487 5.873.2 8.792-.233 2.36-1.027 4.64-1.746 6.902-.196.615-.527 1.212-.98 1.67s-1.028.855-1.655 1c-.737.16-1.63.278-2.252-.145s-.886-1.292-.97-2.043c-.58-5.206-1.096-10.445-1.007-15.687.007-.436 1.193-.658 1.278-.23 1.15 5.815-.32 9.192-2.894 14.408-.505 1.023-2.598 3.552-4.287 2.665-2.744-1.44-.914-13.9 1.996-15.62.24-.14.777-.352.825-.077.828 4.666-1.78 9.528-5.064 12.672-.765.732-6.125 3.084-6.685 1.685-1.878-4.7-.17-13.35 4.1-16.306.293-.203.994-.507 1.052-.155 1.087 6.7-1.838 7.288-7.315 11.996-.9.766-2.372 2.8-3 1.827l-1.427.307c-2.434-3.76 6.895-10.58 7.102-16.238.02-.533-.46.983-.83 1.365-1.6 1.655-3.36 3.142-5.042 4.713m35.263-34.427c1.403.6 1.1.2 1.792 2.218.272.803.532 1.622.64 2.472.097.772.106 1.573-.032 2.345-.254 1.42-3.193 2.183-3.915.973-1.126-1.888-1.403-2.902-1.56-5.178-.033-.476-.163-1.075.147-1.43.258-.294.853-.285 1.12-.016.694.7 1.217 1.64 1.467 2.63.302 1.197.24 2.5.14 3.736-.1 1.124-2.058 3.067-2.965 1.708-.722-1.083-1.04-2.325-1.134-3.655-.085-1.218-.243-2.464-.014-3.67.38-1.994 1.024.204 1.106 1.004.132 1.303.18 2.632.042 3.942-.1 1.06-.46 2.086-.777 3.104a1.94 1.94 0 0 1-.426.753c-.196.207-.442.4-.7.452-.315.075-.696.132-.96-.054s-.37-.575-.403-.912l-.353-7.03c.005-.196.512-.3.546-.1.46 2.603-.18 4.124-1.303 6.476-.22.46-1.124 1.605-1.84 1.216-1.162-.633-.322-6.234.927-7.014.103-.064.333-.16.352-.04.33 2.1-.804 4.282-2.22 5.707-.33.332-2.625 1.412-2.857.788-.777-2.095-.007-5.987 1.826-7.333.126-.092.426-.232.45-.074.43 3-.82 3.277-3.175 5.415-.383.348-1.024 1.272-1.3.834l-.6.145c-1.02-1.675 3-4.778 3.105-7.317.01-.24-.2.443-.36.616l-2.17 2.138" stroke="#ff8100"/></g></g><g transform="matrix(-1 0 0 1 189.513641 184.793144)"><path d="M74.878 52.066c9.167 0 20.425-.567 33.777-1.702l3.464-16.736H97.107L98.26 9.234H15.12l-.508 13.528C5 20.13.21 21.367.21 26.473s4.296 8.153 12.89 9.14l2.887 13.048c30.095 2.27 49.726 3.404 58.892 3.404z" class="L"/><path d="M63.54 9.082c-.405 7.103 5.884 8.9 7.627 2.373 1.33-4.988-5.92-5.46-8.205-2.373m24.055-1.267c.132 1.6.035 3.236.397 4.802 1.573 6.8 10.16.202 5.607-5.472" class="H"/><path d="M99.93.603c1.766 0-.324 15.414-1.433 18.507-1.407 3.923-4.726 3.077-8.31 3.077-1.258 0-2.32-.045-3.24-.166-1.92-2.212-4.515-4.72-7.252-6.793h0l.27 1.506-.12.285c-2.213 5.106-6.52 6.566-11.72 6.566-12.27 0-17.166-9.138-15.202-22.983H99.93zM75.55 6.847H58.974l-.005.08c-.24 3.8.3 6.625 1.507 8.498l.064.098.06.1c1.446 2.086 4.018 3.174 8.097 3.174 3.008 0 5-2.048 6.193-7.15l.038-.17c.197-.907.39-2.295.575-4.14l.035-.363.01-.117zm19.69 0H82.96l.006.024c1.853 7.428 4.348 10.39 9.193 10.512l.148.003.173.001c.174 0 .264-.036.427-.188.344-.32.72-.95 1.067-1.918.66-1.837 1.085-4.54 1.25-8.07l.016-.365z" fill="#fb3640" class="E"/><path d="M82.834 18.637c5.374 4.525 10.138 11.112 9.32 12.198-1.07 1.422-4.934 1.715-5.878 1.138-.758-.464-.416.165-.416 5.468m-16.623-4.18c6.85 5.393 14.454 6.078 21.964 4.44" class="B C F I"/><g class="J B C I"><path d="M76.558 45.798c1.428 5.928 4.8 9.664 8.367 14.626m-2.09-14.626c4.164 12.462 3.24 7.147 4.184 15.67m1.045-15.67c1.185 12.585 1.04 7.35 1.04 15.67m4.2-15.67l-3.138 16.715m6.275-15.67c-.282 5.9-1.628 10.587-4.184 15.67m8.368-16.715c-.56 5.712-2.26 11.215-6.275 15.67"/><path d="M102.706 52.066c-4.798 6.657-5.378 8.698-12.55 10.447"/></g><path d="M70.283 31.173c-.497 1.022-1.488 2.03-3.138 2.09" class="B C F I"/></g><path d="M951.505 149.106l66.565 4.692c.977 3.873 1.447 11.457 1.412 22.752l.165-.105c.87-.547 1.58-.9 3.048-1.214l.2-.042c1.905-.393 6.012-.885 7.596-.47 4.325 1.132 6.338 6.692 3.847 10.42-3.148 4.71-9.692 7.845-15.123 6.204l-.052 1.663-1.09 24.663c-22.788 3.302-52.173 3.302-88.154 0-1.187-22.71 5.854-45.338 21.124-67.88l.465-.683z" fill="#ff8100"/><g fill="#001d71"><g class="E"><path d="M946.65 143.61c.52.01.936.432.927.945l-.003.115-.028.452-.077.953-.03.418-.07 2.13c.027 1.5.26 2.595.7 3.134 1.81 2.273 4.9 4.574 7.965 5.78 3.52 1.4 6.606 1.25 8.804-.642.392-.338.99-.3 1.333.086s.305.97-.087 1.31c-2.812 2.423-6.634 2.595-10.753.97-3.365-1.33-6.733-3.83-8.748-6.358-.753-.945-1.058-2.37-1.09-4.245-.014-.775.018-1.546.09-2.5l.086-1.08.03-.42.005-.137c.01-.512.44-.92.962-.91z"/><path d="M952.354 143.666c.474-.18.998.076 1.17.57 2.047 5.87 3.81 8.567 7.562 10.522l.5.264a21.68 21.68 0 0 0 .792.387c.708.328 1.358.577 1.96.736 1.21.32 2.04.228 2.487-.258l.043-.05a.89.89 0 0 1 1.288-.105c.383.34.428.94.1 1.34-.994 1.2-2.52 1.403-4.37.915-.643-.17-1.31-.417-2.016-.734l-.237-.108c-.412-.19-.717-.344-1.257-.625l-.12-.062c-4.264-2.223-6.27-5.3-8.46-11.573-.172-.493.073-1.038.547-1.218z"/><path d="M958.743 142.588c.495-.118.987.21 1.1.73l.1.465c.752 3.423 1.382 5.478 2.365 7.295 1.286 2.376 3 3.777 5.406 4.192.5.086.84.583.758 1.1s-.555.884-1.055.798c-2.992-.515-5.162-2.29-6.707-5.143-1.143-2.112-1.826-4.407-2.662-8.29-.112-.52.198-1.04.693-1.156z"/><path d="M965.944 145.896l.29-1.567c.102-.47.552-.783 1.03-.71s.812.51.768.99l-.008.062-.43 2.392-.178 1.156-.038.275c-.192 1.418-.255 2.497-.164 3.016.96 5.5 6.204 9 11.707 7.783 1.813-.4 2.993-1.032 4.418-2.238l.222-.193 2.246-2a.91.91 0 0 1 1.286.095.92.92 0 0 1-.094 1.294l-.15.13-2.336 2.086c-1.638 1.387-3.078 2.156-5.2 2.626-6.513 1.442-12.755-2.725-13.894-9.257-.134-.768-.064-1.974.153-3.58l.175-1.177.05-.307.15-.866z"/><path d="M971.49 144.653c.505 0 .914.433.914.967l.004 1.06c.01.83.05.957.205 1.318l.032.07 2.154 4.1.184.362c2.84 5.62 5.967 6.193 10.877 2.416a.88.88 0 0 1 1.276.213c.297.432.206 1.036-.202 1.35-5.713 4.394-10.09 3.647-13.46-2.87l-.432-.844-2.084-3.98-.055-.13c-.312-.748-.326-1.014-.326-3.068 0-.534.41-.967.914-.967z"/><path d="M976.413 144.697c.454-.16.936.13 1.076.643 1.566 5.734 3.9 8.787 8.115 9.924.462.125.748.65.638 1.175s-.574.848-1.036.724c-4.886-1.317-7.63-4.91-9.36-11.245-.14-.515.113-1.06.567-1.22z"/><path d="M984.174 144.653c.513-.007.935.387.942.88l.002.23-.023 1.066-.076 1.568c-.073 1.65-.038 2.474.178 3.424.928 4.08 3.972 6.346 8.258 6.675 3.95.303 8.373-1.157 11.115-3.652.373-.34.96-.323 1.312.036a.87.87 0 0 1-.037 1.264c-3.128 2.847-8.07 4.478-12.538 4.135-5.06-.388-8.812-3.182-9.924-8.075-.266-1.17-.3-2.118-.214-4.01l.07-1.417a19.6 19.6 0 0 0 .02-1.214c-.008-.494.4-.9.914-.908z"/><path d="M990.617 144.653c.524.008.942.412.934.902l-.003.127c-.01.25-.037.48-.096.862l-.032.204c-.147.916-.153 1.273 0 1.6 1.002 2.14 2.71 4.63 4.56 6.402 2.295 2.2 4.593 3.15 6.74 2.59.5-.128.882-.348 1.684-.918l.477-.342.85-.563c.443-.262 1.03-.137 1.308.278s.147.964-.296 1.226l-.148.1-.51.344-.56.4c-.98.697-1.513.993-2.298 1.198-2.944.77-5.876-.444-8.604-3.058-2.02-1.934-3.85-4.605-4.94-6.93-.337-.72-.34-1.284-.16-2.446l.072-.46a4.57 4.57 0 0 0 .06-.628c.008-.49.44-.882.963-.875z"/><path d="M996.38 144.672c.474-.1.937.215 1.033.7l.375 1.864.08.382.066.3c1.075 4.843 2.236 5.907 7.412 6.432.482.05.833.49.786.982s-.477.854-.958.806l-.36-.038c-5.66-.634-7.36-2.313-8.582-7.752l-.182-.847-.356-1.772c-.096-.486.2-.96.684-1.06z"/><path d="M1004.914 144.654c.5-.022.923.382.944.902l.015.456.01 1.023-.003 1.92.068 3.016.006.108c.31 5.204 1.748 7.948 5.177 8.318 1.952.21 3.908.158 6.872-.107 1.005-.1 1.69-.365 2.516-.958l.113-.083 1.844-1.46c.405-.306.972-.213 1.266.208a.97.97 0 0 1-.2 1.317l-.292.228-1.526 1.21-.04.03c-1.125.834-2.13 1.258-3.526 1.383l-.53.046c-2.78.233-4.713.27-6.682.057-2.465-.266-4.228-1.536-5.33-3.64-.847-1.616-1.28-3.638-1.452-6.188l-.016-.248-.078-2.914v-2.442l-.024-1.202c-.02-.52.367-.96.867-.982z"/><path d="M1009.15 144.654c.53-.02.977.383.998.903l.013.348.03 1.318.017 2.615c.026 3 .133 4.46.505 6.137.526 2.375 1.548 4.27 3.288 5.86 2.318 2.12 8.91-.366 9.04-3.208l.002-.086c0-.52.43-.942.96-.942s.96.422.96.942c0 4.572-8.736 7.906-12.272 4.673-2.042-1.867-3.25-4.105-3.855-6.838l-.05-.228c-.383-1.814-.48-3.416-.502-6.664l-.01-1.823-.007-.6-.038-1.418a.95.95 0 0 1 .92-.98z"/><path d="M1013.48 149.622a.88.88 0 0 1 .964-.786c.468.044.815.44.8.896l-.004.055c-.16 1.654 1.012 5.797 2.593 8.588 1.882 3.322 3.736 4.22 5.62 2.357.345-.34.905-.342 1.25-.001s.346.892.001 1.233c-1.54 1.522-3.24 1.875-4.872 1.085-1.3-.634-2.494-1.97-3.544-3.823-1.742-3.074-3.008-7.552-2.8-9.604zm-40.864 10.958l.152-.076c.416-.198.703-.25 1.098-.063.446.213.618.648.573 1.073a1.78 1.78 0 0 1-.18.584c-.23.485-.715 1.024-1.364 1.573l-.153.127.043.03c.265.2.43.515.388.886l-.01.062a1.03 1.03 0 0 1-.059.21l-.005.01.075-.01a.49.49 0 0 1 .072 0l.175.018.093.028c.237.073.268.114.563.503l.055.252c.036.18.036.245.006.353l-.01.036.047.017c.194.077.362.22.47.416l.028.055a.95.95 0 0 1-.382 1.224l-2.592 1.286-4.606 2.2-1.473.663-.358.157c-2.674 1.17-4.88 2.012-6.506 2.44-.996.262-1.777.373-2.374.303-.964-.112-1.6-.768-1.47-1.77a3.46 3.46 0 0 1 1.932-2.73l.128-.064.006-.034a1.06 1.06 0 0 1 .033-.124l.058-.165.08-.124c.07-.106.1-.122.172-.2l.1-.066a.51.51 0 0 1 .098-.054l.085-.034c.07-.025.138-.04.3-.068l.32-.05 1.202-.143.317-.03.102-.015.563-.087.4-.064-.133.007c-1.932.094-3.574-.122-4.35-.8l-.058-.052c-.58-.55-.843-1.2-.378-1.843.286-.4.694-.553 1.288-.625l.1-.01c.66-.07 1.33-.05 3.04.056l1.125.07c1.33.075 2.07.08 2.592.005.766-.1 1.754-.43 2.787-.863l.1-.043-.27.03-3.74.258-2.34.103-2.172.132c-.508.04-.952-.346-1-.864s.34-.97.848-1l.467-.035 1.395-.083 2.666-.12c2.793-.13 4.195-.26 5.865-.584.3-.058.827-.318 1.55-.76l.214-.133.42-.27.913-.595.195-.124.675-.396zM962.2 171.815l-.46.025c-3.196.2-4.423.653-4.764 2.042l-.005.022h.013c.304-.013.74-.1 1.286-.3l.118-.04c.92-.32 2.078-.848 3.437-1.56l.376-.2z"/></g><path d="M962.82 174.45c4.208 2.484 2.246 4.87.635 10.036-1.808 5.8-3.9-1.336-4.158-3.302-.762-5.594.412-7.84 3.523-6.734z"/><g class="E"><path d="M978.416 163.46l.923.075 3.853.3.298.027c.54.052.767.105 1.062.243l.048.023.138.066c.37.177.58.264 1.11.436l.312.1 6.323 1.67.215.05c.497.118 1.326.22 2.627.337l2.167.188.46.046c.524.056.862.11 1.096.177.175.05.315.112.46.232.417.343.49.962.088 1.384-.23.24-.448.313-.887.402-2.228.453-6.065.488-9.652.164l-.18-.017.007.005 1.944 1.178.247.13c.218.113.704.254 1.38.404l.218.047 1.57.31.127.027.107.025.047.012c.168.044.26.073.383.154l.104.074c.12.09.14.133.316.522l-.017.214c-.03.375-.06.452-.243.62l-.104.094-.012.008.626.15.357.095.02.007c.116.042.214.084.304.135.234.13.405.285.497.6.04.137.05.264.038.38l-.007.048.025.022.06.06a.97.97 0 0 1-.199 1.513c-3.432 2.202-7.324 2.4-11.587.987-3.15-1.044-6.14-2.772-9.935-5.463-.422-.3-.515-.875-.207-1.285s.9-.5 1.323-.2l.493.347c3.42 2.39 6.144 3.935 8.937 4.86 2.874.953 5.48 1.076 7.842.246l.14-.05-.205-.04-1.674-.356-.238-.054-.1-.01c-1.963-.18-3.356-.38-4.732-.712l-.16-.04c-2.04-.51-3.83-1.125-5.444-1.91-.45-.22-.775-.443-1.277-.864l-.24-.204-.22-.085-3.022-1.218-.394-.164c-.085-.035-.16-.07-.23-.115-.23-.14-.385-.29-.457-.624s.05-.66.3-.875a.96.96 0 0 1 .399-.216 1.19 1.19 0 0 1 .318-.042c.2-.003.482.03.827.1a12.12 12.12 0 0 1 1.02.218l.05.013-.003-.006a3.1 3.1 0 0 1-.253-.913l-.01-.087a1.01 1.01 0 0 1 .528-1.024l.017-.01-.04-.04-.053-.06c-.215-.266-.318-.628-.15-.978l.01-.02-.034-.004c-.47-.068-.817-.468-.806-.93l.003-.058c.045-.506.503-.88 1.024-.838zm2.62 5.22l.038.03c.88.687 2.257 1.374 4.058 2.028l.088.03-.198-.093-.342-.163-.383-.186-2.894-1.46-.366-.188zm2.092-3.134l.03.015c.76.37 1.507.836 2.303 1.42l.134.1.2.042c1.06.212 2.24.38 3.448.498l.16.015-.894-.258c-1.07-.313-1.94-.588-2.636-.83l-.336-.118-.253-.092c-.364-.135-.66-.256-.905-.368l-.08-.037a6.8 6.8 0 0 1-.259-.128l-.11-.06-.193-.106c-.065-.032-.134-.047-.4-.075l-.197-.02z"/><path d="M975.995 172.037c.395-.33 1-.286 1.33.098a.9.9 0 0 1-.054 1.251l-.048.043c-.198.165-.353.545-.4 1.04-.2 1.724-.22 3.383-.05 4.955.556 5.134 5.016 9.333 9.543 8.092 1.095-.3 2.932-2.402 4.73-5.36.727-1.197 1.4-2.456 1.912-3.56l.107-.234c.455-1 .723-1.805.736-2.06v-.025c-.013-.506.4-.927.92-.94s.954.388.966.895c.026 1.067-1.255 3.93-2.93 6.7l-.088.146c-2.053 3.38-4.093 5.713-5.842 6.192-5.83 1.598-11.267-3.523-11.933-9.665-.185-1.7-.162-3.502.053-5.352.105-.9.43-1.702 1.057-2.226zm-14.07-2.917c.733-.37 1.487-.07 2.085.47a.87.87 0 0 1 .043 1.26.95.95 0 0 1-1.26.08l-.046-.04a.82.82 0 0 0-.088-.07l-.025-.017-.022.02c-.155.148-.304.386-.424.688l-.032.084c-.58 1.6-.975 3.156-1.168 4.68-.354 2.804.66 5.976 2.587 7.88a.87.87 0 0 1-.015 1.261c-.365.344-.95.338-1.305-.014-2.332-2.303-3.52-6.017-3.1-9.342.2-1.66.637-3.35 1.26-5.057.306-.84.793-1.52 1.5-1.883z"/><path d="M973.275 167.145c.204-.47.743-.68 1.204-.474s.67.756.465 1.225l-.128.292c-1.435 3.234-3.016 5.643-6.587 10.433l-.934 1.252c-2.762 3.715-4.095 5.697-5.332 8.108l-1.583 3.13-.514 1.04-.72 1.55c-.644 1.45-1.08 2.655-1.274 3.567-.098.464-.128.83-.095 1.07.01.066.02.113.033.143l.003.007.107.06c4.205 2.255 12.26-1.288 15.256-6.09l.1-.147c.844-1.408 2.163-1.566 3.532-.79.453.257.9.6 1.416 1.06l.172.156 1.16 1.074c4.18 3.438 6.318 7.774 6.667 12.922.294 4.327-.66 9.1-2.69 14.624-.177.48-.703.724-1.175.544s-.71-.715-.535-1.195c4.155-11.296 3.648-19.483-3.206-25.275l-.2-.175c-.237-.195-1.202-1.1-1.27-1.173-.48-.436-.87-.742-1.22-.94-.57-.324-.8-.31-1.054.087l-.03.048c-1.518 2.533-4.557 5.016-7.906 6.492-3.71 1.635-7.344 1.868-10.025.325-.975-.56-1.13-1.693-.807-3.218.226-1.066.702-2.378 1.395-3.94l.612-1.326.26-.536 1.855-3.685c1.38-2.74 2.798-4.84 5.924-9.032l.944-1.266c3.376-4.546 4.842-6.828 6.198-9.948z"/><path d="M967.908 197.945c.512-.082.997.25 1.082.74.626 3.604.69 7.025.29 10.866-.14 1.34-.332 2.73-.598 4.352l-.103.62-.174 1.008-.748 4.163-.145.817-.296 1.733c-.082.492-.564.827-1.076.75s-.863-.54-.78-1.032l.123-.73.176-1.02.255-1.435.525-2.913.236-1.353.047-.277c.315-1.862.534-3.395.687-4.862.383-3.69.323-6.954-.274-10.392-.085-.49.26-.956.773-1.037z"/><path d="M984.877 205.365c.45-.256 1.02-.09 1.27.372s.087 1.043-.364 1.3l-.448.25c-7.245 4.028-11.17 4.206-18.4.68-.466-.227-.664-.797-.442-1.273s.78-.678 1.246-.45l.405.195c6.55 3.117 9.857 2.83 16.74-1.07z"/></g><path d="M977.404 173.134c4.266 2.618 6.864 6.977 5.23 12.422-1.833 6.11-6.204-2.207-6.475-4.28-1.16-8.842.913-2.688.913-7.05"/></g><path d="M929.168 220.145c22.428 13.882 36.18 47.158 41.26 99.83l.15 1.602c-29.714 8-52.077 12.14-67.088 12.425s-34.135-3.68-57.37-11.9c.23-25.433 2.83-43.8 7.8-58.746 2.54-7.635 11.096-21.232 25.67-40.792l.28-.375c19.08 1.013 35.57.167 49.24-2.042l.06-.01z" class="L"/><g class="J B C M"><path d="M872.264 280.987c10.377 5.156 17.06-1.437 24.055-8.608m11.505 1.045c1.27 5.97 2.07 9.707 5.218 14.523.076.115-.253.07-.38.103m6.668-2.1c-6.882-4.125-2.747-1.02-10.46-11.492m25.1 8.358c-9.37-.648-19.02-4.105-26.147-10.447m27.194 4.643c-5.015.643-15.242 5.24-27.193-4.643m27.193-2.08c-13.45 1.598-5.142.965-25.1.67m-27.194 18.124c5.733-4.605 14.193-9.706 15.688-17.76m-7.31 17.76c6.535-4.6 1.936-.78 9.413-15.67m-2.103 15.67c4.788-10.03 3.208-5.1 5.23-14.626"/><path d="M906.778 288.05c-4.785-7.77-3.028-3.323-4.184-13.58m11.506 13.58c-5.497-8.556-2.827-3.484-7.32-15.67m-28.24-7.314c5.42 3.383 12.913 9.637 18.826 4"/><path d="M875.402 272.54c3.335.76 20.18 5.013 19.867-2.252"/><path d="M888.25 227.458c-.395 3.7-.395 5.998 0 6.925 2.513 5.888 6.438 3.925 8.07-2.424"/><path d="M898.502 223.28c-7.614 33.43-7.054 50.145 1.68 50.145s11.757-5.913 9.07-17.738l-1.344-30.36c4.03 14.327 7.838 15.01 11.42 2.047" class="L"/></g><path d="M869.46 256.538c-1.893-1-2.985-1.915-3.278-2.715-1.556-4.258 1.585-6.57 7.2-3.393.22-4.977 2.076-8.03 5.572-9.162s4.152 1.923 1.967 9.162c3.48-.535 5.664-.535 6.555 0 2.984 1.793 1.6 6.167-4.6 8.823 3.06 2.715 3.496 5.542 1.3 8.483s-4.807 1.584-7.866-4.072c-4.37 5.43-7.757 6.787-10.16 4.072s-1.3-6.447 3.278-11.198zm66.795-3.473c1.824-1.354 2.825-2.466 3.004-3.335.95-4.627-2.715-6.468-8.108-2.263-1.026-5.065-3.464-7.882-7.312-8.453s-4.048 2.67-.596 9.723c-3.735.037-6.028.405-6.877 1.104-2.844 2.34-.7 6.6 6.227 8.27-2.775 3.298-2.78 6.27-.017 8.917s5.297.813 7.6-5.5c5.454 4.83 9.224 5.65 11.3 2.462s.343-6.83-5.23-10.926z" stroke="#f06aa6" fill="#f06aa6" class="B M"/><g fill="#c23362"><ellipse cx="876.448" cy="255.665" rx="4.184" ry="4.179"/><ellipse cx="927.696" cy="253.575" rx="4.184" ry="4.179"/></g><path d="M929.346 226.3c13.996-2.51 21.814-4.327 23.452-5.448l-3.06-8.513c-14.502 3.405-23 5.108-25.49 5.108-1.586-24.745-6.005-37.117-13.255-37.117-2.36 0-5.078 3.405-8.157 10.216-4.305-13.167-8.837-15.664-13.595-7.492s-7.25 20.545-7.477 37.117c-7.485-.24-13.036-.557-16.654-.95s-6.45-.984-8.497-1.775v7.832c-.365.378 2.15.914 7.545 1.61a210.49 210.49 0 0 0 16.247 1.456c6.57.502 22.885-.18 48.943-2.043z" class="D"/><path d="M316.902 222.048c-1.925 42.556-48.603 58.335-18.768 86.068 7.13 6.627-39.097 6.72-35.13 0 21.174-35.862-.962-43.512-.48-82.243.057-4.567.708-8.852 1.862-12.786 23.238-.652 40.262-.056 51.072 1.788.86.147 1.34 2.537 1.444 7.172z" fill="#f06aa6"/><g class="B C"><path d="M323.177 217c-2.426 11.053-7.04 22.384-7.933 33.737-.647 8.228-.3 16.5-.434 24.765M320.04 217c-5.224 14.2-7.25 26.972-7.743 42.316-.387 12.055-1.503 9.1.722 14.097m-.3-48.045c-5.108 22.243-5.343 29.43-1.767 52.234m-.326 2.088c-13.22-11.804-7.682-32.416-4.14-47" class="K N"/><path d="M284.324 222.234c.82 3.922.597 6.55-.67 7.887-6.722 7.096-9.338 9.826-16.896 19.93-.103.138-.072.5.104.502.838.008 1.775-.018 2.466-.477 4.85-3.217 8.597-8.104 13.965-10.424 7.226-3.122-1.348 6.78-3.934 6.78s7.47 4.467 17.812-.838-8.906 6.42-15.227 5.863 2.586 5.025 0 12.563" stroke-width="1.839" class="F"/><path d="M266.7 229.546c-4.255 11.518-9.95 39.582-26.7 42.83-.212.04-.322-.293-.484-.44m25.102-49.702c-3.97 19.05-9.836 35.88-26.147 47m23.01-54.324c-4.807 17.7-7.237 36.966-21.964 49.1m16.734-49.1c-4.372 19.5-4.852 32.333-17.78 45.966" class="K N"/></g><path d="M261.103 211.513c-2.117 0 1.273 12.786 2.602 15.738 1.124 2.497 4.22 3.77 9.285 3.815 5.607.17 9.506-1.084 11.695-3.76l.335-.42c2.603 5.115 7.845 6.565 14.204 6.565 14.705 0 20.574-8.723 18.22-21.938h-56.34zm25.468 4.53l25.017-.352.007.1c.333 4.322-.415 7.536-2.094 9.667l-.09.11-.085.102c-2 2.373-5.76 3.6-11.427 3.6-4.18 0-9.11-1.765-10.768-7.568l-.053-.193c-.274-1.032-.187-2.823-.443-4.922l-.05-.413-.015-.133zm-20.918.693h17.78l-.01.026c.01 8.114.01 11.466-13.312 11.46l-.214.003-.25.001a.9.9 0 0 1-.618-.205c-.498-.348-1.044-1.036-1.546-2.09-.954-2.003-1.57-4.95-1.808-8.798l-.023-.398z" class="D E"/><path d="M273.732 221.113c.203 3.55-2.942 4.455-3.814 1.186-.665-2.494 2.96-2.73 4.103-1.186m22.72 0c.203 3.55-2.942 4.455-3.814 1.186-.665-2.494 2.96-2.73 4.103-1.186" class="H"/><path d="M254.566 316.34c-2.148 3.536-11.164 2.62-6.335-4.546s8.482 1 6.335 4.546zm12.31 5.7c-2.4 3.28-11.168 1.2-5.77-5.458s8.17 2.177 5.77 5.458zm16.703 1.875c-2.43 3.407-11.16 1.864-5.7-5.04s8.13 1.633 5.7 5.04zm17.092-2.043c-2.367 3.368-10.42 1.615-6.98-4.33s9.347.962 6.98 4.33zm12.63-4.192c-2.145 3.33-8.788 1.734-6.328-4.283s8.473.952 6.328 4.283z" fill="#ff0034"/><path d="M1073.07 256.434l2.652 10.674c.472 2.14.963 6.587 1.473 13.343 11.197-4.744 16.796-1.58 16.796 9.488s-5.6 14.826-16.796 11.267v42.4l-111.676 2.67v-45.07c-12.18 2.965-17.778-.79-16.796-11.267s6.58-13.64 16.796-9.488l2.063-24.017h105.488zm-90.94 14.85c-7.676 23.943-8.365 42.195-2.067 54.755 4.005 7.988 37.856 10.12 59.93 7.948 8.424-.83 17.084-3.478 25.98-7.948 1.53-8.123 2.12-16.464 1.77-25.023s-1.63-17.096-3.838-25.61c-5.314-5.888-18.304-9.617-38.97-11.187s-34.935.785-42.808 7.065z" fill="#0d62fe"/><g class="E"><path d="M1015.726 307.242l.37.257a1.13 1.13 0 0 1 .187.2l.047.065c.047.07.066.125.153.383l.008.164c.005.123.005.217-.005.297l-.004.02.012.01.078.07c.218.2.373.493.377.87l-.002.086-.006.066.03.01c.38.13.688.374.86.7l.038.076.013.005a1.27 1.27 0 0 1 .683.648l.037.083a1.17 1.17 0 0 1-.002.892l-.032.07-.455.9-.005.048c-.063.517-.42.954-1 1.02l-.08.007c-.2.01-.38-.02-.634-.095l-.194-.06-.43-.142-.193-.057-.04-.01-.048.1c-.26.597-.45.9-.897 1.165-8.148 4.853-17.654 7.4-25.17 5.992-.875-.165-1.305-1.122-.808-1.928.13-.212.3-.393.54-.574l.04-.03-.04-.016a1.04 1.04 0 0 1-.249-.162l-.063-.058c-.464-.45-.424-1.023-.18-1.443.078-.135.165-.234.27-.334.205-.192.54-.422.994-.697a21.65 21.65 0 0 1 .902-.517l.276-.148-.158.036-.532.118-.585.124a21.67 21.67 0 0 1-1.372.24c-.133.014-.24.02-.35.012-.153-.01-.287-.04-.455-.134-.055-.03-.106-.066-.153-.105l-.02-.018-.287.293-.213.22a.99.99 0 0 1-1.462-.017c-.4-.435-.392-1.132.016-1.557 3.278-3.415 7.012-6.352 10.447-8.034 4.237-2.074 7.92-2.218 10.6.093l.116.102c.236.212.44.38.625.513l.1.062.923-.27c.627-.184 1.136-.196 1.938-.068l.077.012.017-.002c.8-.097 1.415-.042 2.383.172l.258.06.224-.076c.552-.188.957-.246 1.5-.14.257.05.555.183.862.36l.116.068zm-2.155 5.856a1.72 1.72 0 0 0-.486.097l-.35.134c-1.562.607-2.232.95-3.802 1.902l-.752.457-.3.172c-1.26.73-2.492 1.22-4.465 1.695l-.582.136c-1.226.277-2.35.473-4.36.78l-1.663.252-2.962.492-.303.058.08.001c6.184.037 13.35-2.227 19.688-5.95l.188-.112.03-.056.028-.06zm-8.662-5.223l-.005-.004c-3.156-2.183-8.522-.156-14.076 4.485l-.093.078.756-.267c3.684-1.293 7.58-2.538 12.48-4l.938-.28zm3.328 5.247l-1.86.572-1.73.542-4.227 1.337-1.603.502-.78.24 1.12-.173c1.378-.218 2.284-.385 3.24-.6l.367-.084.4-.096c1.612-.4 2.613-.794 3.622-1.365l.12-.07.36-.215.685-.417.288-.173zm4.062-3.36c-.415.072-.802.07-1.266-.014l-.14-.027c-.354-.073-.664-.098-1.003-.088l-.147.006c-.157.01-.705.06-.795.066-.478.034-.9.006-1.337-.105l-.07-.02-.162.042a39.95 39.95 0 0 0-2.225.657l-.627.207c-.978.33-1.877.676-3.367 1.285l-2.497 1.024.702-.157 2.563-.546 3.54-.725 3.017-.645.558-.126.087-.025 1.073-.3.682-.192c.36-.1.73-.178 1.105-.232l.137-.018.267-.077-.096.018zm11.62-1.182l.075-.044.287-.164c.735-.4 1.118-.55 1.633-.436l.43.092 2.338.418.9.14.897.06 4.54.43.27.037 1.998-.003 2.055.03c2.828.1 5.3.5 8.217 1.467l.315.105a3.25 3.25 0 0 0 .244.069l.24.056.454.1.934.247c.418.142.74.3 1 .577.436.462.504 1.102.174 1.66-.362.615-.782.913-1.5 1.1l-.036.008.058.028a.98.98 0 0 1 .547.671l.018.083c.093.508-.14.848-.46 1.067a1.45 1.45 0 0 1-.34.168c-.13.046-.288.1-.492.137l-.106.024-.503.102-.143.027-.027.04a1.18 1.18 0 0 1-.897.485l-.073.003a13.1 13.1 0 0 1-1.209-.039l-.313-.03 1.35.206.1.015.163.03.136.03c.223.054.337.093.518.235.46.362.596 1.1.055 1.576a1 1 0 0 1-.52.26c-.1.024-.224.035-.376.043l-.603.024-.193.005-.005.04a1.09 1.09 0 0 1-.37.656l-.054.044c-.153.118-.312.187-.494.24-4.562 1.3-9.057.957-13.63-.796-3.652-1.4-7.15-3.575-11.37-6.83-.455-.35-.534-.997-.177-1.443a1.06 1.06 0 0 1 1.414-.214l.046.033.023-.05a1.08 1.08 0 0 1 .208-.295l.055-.05a1.14 1.14 0 0 1 .773-.318l.067-.001-.01-.04a1.07 1.07 0 0 1-.017-.13l-.001-.024-.027-.034-.044-.065a1.02 1.02 0 0 1-.164-.475 1.03 1.03 0 0 1 .346-.865c.212-.188.404-.255.6-.27l.045-.002.025-.014c.177-.096.375-.17.597-.228l.015-.004zm3.413 6.968c1.685 1.007 3.3 1.808 4.935 2.435 2.72 1.043 5.385 1.535 8.048 1.425l.22-.01-.517-.093-.568-.097-1.52-.25c-2.27-.378-3.432-.634-4.773-1.108l-.44-.16c-1.334-.5-3.236-1.254-5.04-2.02l-.475-.203.13.08zm10.976-2.5l.686.3c1.028.458 1.608.684 2.307.892l.465.137 1.815.5.122.03-.18-.087a10.48 10.48 0 0 0-.806-.34l-.202-.072a111.11 111.11 0 0 0-3.634-1.184l-.573-.175z" class="H"/><path d="M1004.95 295.42c2.344-.7 4.226-.288 7.322 1.136l1.526.714c.538.246.768.865.513 1.384s-.898.74-1.436.494l-.805-.376-.36-.17c-2.863-1.348-4.374-1.72-6.122-1.197-1.192.356-1.626 2.958-1.43 5.906.233 3.518 5.265 5.385 8.788 3.692.533-.256 1.18-.048 1.446.466a1.02 1.02 0 0 1-.483 1.393c-4.77 2.293-11.56-.228-11.903-5.418-.087-1.315-.073-2.64.14-3.927.353-2.12 1.192-3.615 2.803-4.096zm22.4 3.72c2.135-2.135 4.066-3.14 5.713-2.993 1.615.145 2.763 1.382 3.205 3.2.85 3.5-.933 7.912-4.333 9.572a7.68 7.68 0 0 1-3.07.78l-.205.008c-.7.02-1.213-.012-2.435-.14l-.9-.094-.473-.043c-.55-.045-.96-.575-.92-1.184s.518-1.066 1.067-1.02l.4.037.592.06.882.092c.808.08 1.213.1 1.725.084a5.93 5.93 0 0 0 2.526-.602c2.478-1.2 3.8-4.514 3.212-6.973l-.04-.15c-.585-2.06-2.467-2.15-5.622 1.006-.4.4-1.04.372-1.407-.08s-.336-1.152.073-1.56z" class="D"/></g><path d="M991.244 287.474c-.557-9.766 8.1-12.252 10.487-3.263 1.83 6.858-8.14 7.5-11.282 3.263m35.56 1.742c.17-2.2.044-4.45.5-6.602 2.022-9.338 13.064-.278 7.208 7.524" class="H"/><path d="M1029.103 286.22l.01.186.015.334c.034.89.018 1.765-.04 2.915l-.104 1.87-.08 1.695-.226 3.45-.01.107c-.46 5.056-1.512 8.758-3.7 11.686-3.25 4.346-7.057 4.315-9.78.683-2.26-3.013-3.333-8-2.494-11.84l.153-.693c1.596-7.184 2.725-10.22 3.89-11.083l.04-.03-.017-.29-.18-2.59c-.038-.575.385-1.072.946-1.112s1.045.395 1.084.97l.186 2.707c.025.4.032.627.024.8l-.002.04c-.03.53-.24.963-.763 1.17a1.4 1.4 0 0 1-.104.035l-.077.02-.05.063a2.33 2.33 0 0 0-.074.107l-.03.048c-.178.28-.387.714-.622 1.32l-.05.133c-.664 1.753-1.45 4.622-2.368 8.83-.706 3.235.23 7.59 2.122 10.11 1.913 2.552 4.122 2.57 6.554-.68 1.87-2.502 2.825-5.78 3.264-10.34l.06-.678c.077-.9.128-1.717.194-3.074l.088-1.874.082-1.437c.072-1.352.088-2.293.037-3.273-.147-2.818 1.824-3.505 2.02-.298z" class="D E"/><path d="M1010.495 260.613c2.505 0 5.048.18 7.63.54l.485.07c1.022.15 1.83.942 1.997 1.955.765 4.624 1.074 9.335.93 14.134.673.486 1.56.375 2.663-.333-.12-4.684.192-9.284.94-13.8a2.37 2.37 0 0 1 1.917-1.942l.08-.013.485-.07c2.582-.36 5.125-.54 7.63-.54l.59.003c3.3.03 9.94.295 19.95.795 1.063.053 2 .727 2.367 1.71l.03.08.1.288c1.495 4.433 2.242 9.386 2.242 14.858 0 5.22-.696 9.767-2.09 13.637-.493 1.37-1.776 2.3-3.232 2.35l-.093.002-1.433.012c-2.815.018-5.33.01-7.546-.03l-1.277-.023-15.658-.006c-1.702.01-3.17-1.177-3.514-2.826l-.017-.09-.08-.454a90.48 90.48 0 0 1-.962-7.158c-1.14-1.22-2.314-1.315-3.52-.284a79.05 79.05 0 0 1-1.499 8.871l-.115.498c-.365 1.56-1.735 2.68-3.344 2.74l-7.124.25-8.12.236-1.04.02-7.948.02-.72-.006c-1.5-.014-2.814-.947-3.32-2.34-1.767-4.85-2.65-10-2.65-15.425 0-5.472.747-10.424 2.242-14.858l.1-.288c.356-1.027 1.304-1.737 2.396-1.79l3.376-.166 17.162-.632zm-3.13 3.163l-.477.017c-3.03.122-7.28.5-12.745 1.137l-.89.104c-.564.067-1.005.508-1.06 1.06l-.07.723c-1.103 11.736-.765 19.873 1.016 24.41.8 2.014 8.557 2.31 23.3.886l.133-1.1c.786-6.588 1.137-11.42 1.052-14.497l-.004-.125c-.103-3.236-.497-7.245-1.182-12.026-2.676-.503-5.702-.7-9.078-.6zm27.457 0l-.32-.01c-3.1-.085-4.845.112-5.23.592l-.1.638c-.614 4.433-.97 8.172-1.066 11.218l-.008.294c-.07 3.187.293 7.867 1.09 14.04 15.01.82 22.903.24 23.676-1.746 1.773-4.555 1.827-12.146.162-22.773-.083-.528-.52-.933-1.062-.982l-2.628-.233c-6.848-.6-11.7-.945-14.525-1.038z" fill="#f3a712"/><path d="M1008.467 319.487a1.09 1.09 0 0 1 1.486-.145c2 1.568 4.793 2.235 8.42 2.218l.356-.004c1.54-.024 3.1-.157 5.308-.42l2.073-.248c2.525-.295 3.042-.313 4.017-.22 1.318.125 1.378 1.69.627 2.346l-.025.02-1.307 1.246c-.043.04-.09.078-.138.11l-.076.047c-1.093.608-2.168 1.022-3.25 1.203-.585.098-1.126.063-1.975-.078l-.595-.102-.128-.02.112.053c.555.27.906.5 1.192.823l.057.066c1.043 1.26 1.06 2.53-.06 3.34-.685.496-1.693.732-3.015.832a21.95 21.95 0 0 1-2.115.046l-.748-.015c-.583.03-1.08-.396-1.113-.953s.414-1.034.997-1.065l.176-.003.497.01 2.14-.036c.902-.068 1.574-.22 1.868-.402l.028-.02c-.03-.085-.11-.227-.263-.42l-.048-.06c-.083-.1-.352-.257-.87-.5l-.65-.29-.055-.025c-.526-.243-.86-.44-1.128-.723-.516-.547-.558-1.3-.052-1.894a2.38 2.38 0 0 1 1.12-.749l.083-.025-.02.002-2.813.136h-.196c-4.072.02-7.3-.756-9.766-2.672a.98.98 0 0 1-.151-1.422zm19.6 3.854l.044-.047-.353.04-.783.095-2.785.37-.747.095-.562.067.053.004a7.44 7.44 0 0 1 .771.109l.662.128c.683.133 1.06.167 1.348.112.73-.138 1.492-.455 2.3-.935l.06-.038z" class="D E"/><path d="M958.29 307.873l20.838-3.914a1.73 1.73 0 0 1 1.862.921l15.52 30.808a1.73 1.73 0 0 1-1.543 2.505H973.53a1.73 1.73 0 0 1-1.511-.89l-14.92-26.894a1.73 1.73 0 0 1 1.192-2.537z" stroke="#011638" stroke-width="1.003" fill="#011638" class="B"/><path d="M7.17 122.658c11.69-14.985 33.668-17.002 52.04-16.25s24.58 5.247 33.78 19.763 7.15 25.83 1.9 36.55c-2.622 5.364-7.324 9.935-13.286 13.577-3.164 1.933-9 8.404-4.655 18.208s-13.42-10.743-17.462-9.94c-20.238 4.018-43.18.634-53.927-12.622-10.21-12.592-3.824-32.717-.863-45.674l2.465-3.61z" class="D"/><path d="M1081.587 28.302c-20.235-25.886-58.283-29.37-90.084-28.07s-42.55 9.063-58.476 34.14-12.375 44.62-3.306 63.136c4.538 9.265 12.68 17.16 23 23.453 5.478 3.34 15.563 14.518 8.058 31.452s23.232-18.558 30.23-17.172c35.034 6.94 74.75 1.095 93.354-21.803 17.672-21.75 6.62-56.516 1.494-78.897l-4.267-6.238z" fill="#0d62fe"/></g></svg>