<svg xmlns="http://www.w3.org/2000/svg" xmlns:xlink="http://www.w3.org/1999/xlink" width="1661" height="1453" xmlns:v="https://vecta.io/nano"><style><![CDATA[.B{stroke-linejoin:round}.C{stroke-linecap:round}.D{fill:#001c6c}.E{fill:#0d62fe}.F{fill:#fff}.G{fill-rule:nonzero}.H{fill:#011638}.I{fill:#212121}.J{stroke-width:5.322}.K{stroke:#212121}.L{stroke-width:7.451}.M{stroke-width:5.855}.N{stroke:#ffc415}.O{fill:#ffa300}.P{stroke-width:6.813}]]></style><defs><path id="A" d="M0 234.995l232 20V17L0 0z"/><path id="B" d="M0 331l292-3.798V0L0 15.42z"/><path id="C" d="M0 254l232 8.995V0L0 2z"/><path id="D" d="M0 375l370-4.813V0L0 19.542z"/><path id="E" d="M0 354l331-4.29V0L0 17.415z"/><path id="F" d="M0 278.42L291 292V2.043L0 0z"/><path id="G" d="M0 314.56L310 329V2.173L0 0z"/><path id="H" d="M0 237.995l232 20V15L0 0z"/><path id="I" d="M82.446 26.024c-.497 7.91 7.22 9.924 9.36 2.643 1.632-5.555-7.264-6.082-10.068-2.643"/></defs><g transform="translate(3)" fill="none" fill-rule="evenodd"><path d="M1151 515l232-3.017V252l-232 12.252V515zm-352 729.995l232 20V1022l-232-15v237.995zm-348-30l232 20V997l-232-17v234.995zM799 518l232-3.005V270l-232 12.2V518zm0 356.203L1031 885V640.625L799 639v235.203zM451 523l232-3.016V288l-232 12.246V523zm0 334.164L683 868V636.63L451 635v222.164z" class="E"/><g transform="translate(451 980)"><mask id="J" class="F"><use xlink:href="#A"/></mask><g mask="url(#J)"><g transform="translate(16 57)"><path d="M55.8 15.638l170.43 11.87c2.5 9.798 3.706 28.984 3.614 57.558l.424-.266c2.23-1.383 4.048-2.25 7.803-3.072l.51-.107c4.878-.995 15.393-2.24 19.448-1.192 11.074 2.864 16.228 16.93 9.85 26.363-8.06 11.92-24.815 19.846-38.72 15.695l-.133 4.208-2.792 62.392c-58.346 8.354-133.58 8.354-225.706 0C-2.525 131.632 15.503 74.39 54.6 17.366l1.19-1.728z" fill="#ff8100"/><g fill="#001d71"><g class="G"><path d="M44.613 1.602c1.29.024 2.315 1.088 2.29 2.378l-.008.29-.07 1.138-.2 2.4-.077 1.05-.172 5.364c.066 3.777.646 6.53 1.706 7.886 4.478 5.72 12.138 11.5 19.693 14.546 8.706 3.5 16.334 3.148 21.766-1.616.97-.85 2.445-.754 3.295.216s.754 2.445-.216 3.295c-6.952 6.097-16.4 6.53-26.586 2.438-8.32-3.344-16.647-9.638-21.628-16-1.86-2.377-2.615-5.964-2.7-10.683-.034-1.95.044-3.892.22-6.292l.213-2.718.07-1.055.013-.345c.024-1.29 1.088-2.315 2.378-2.29z"/><path d="M57.9 2.91c1.212-.44 2.55.186 2.99 1.398 5.233 14.42 9.74 21.047 19.327 25.852l1.304.648c.754.37 1.327.64 2.024.95 1.8.807 3.472 1.42 5.006 1.808 3.09.783 5.214.56 6.357-.635l.11-.123c.838-.98 2.312-1.095 3.292-.257s1.095 2.312.257 3.292c-2.542 2.972-6.437 3.448-11.165 2.25-1.644-.417-3.347-1.025-5.154-1.803l-.606-.266c-1.053-.47-1.834-.846-3.214-1.536l-.305-.153C67.227 28.873 62.102 21.337 56.5 5.9c-.44-1.212.186-2.55 1.398-2.99z"/><path d="M75.803.62c1.258-.285 2.508.504 2.793 1.762l.256 1.122c1.91 8.266 3.512 13.23 6.01 17.616 3.266 5.737 7.622 9.122 13.734 10.123 1.273.208 2.135 1.41 1.927 2.68s-1.41 2.135-2.68 1.927c-7.602-1.245-13.114-5.527-17.038-12.42-2.903-5.1-4.64-10.642-6.762-20.017-.285-1.258.504-2.508 1.762-2.793z"/><path d="M92.09 7.943l.74-4c.262-1.195 1.413-1.994 2.638-1.804s2.08 1.3 1.968 2.518l-.02.157-1.104 6.1-.457 2.942-.098.7c-.49 3.6-.652 6.358-.42 7.678 2.457 14.003 15.89 22.914 29.984 19.812 4.644-1.022 7.667-2.628 11.316-5.698l.57-.492 5.752-5.116c.976-.843 2.45-.734 3.293.242s.734 2.45-.242 3.293l-.382.335-5.983 5.31c-4.195 3.53-7.885 5.49-13.32 6.685-16.68 3.67-32.67-6.936-35.587-23.566-.343-1.956-.163-5.026.393-9.114l.447-2.996.128-.782.384-2.204z"/><path d="M106.124 6.147c1.29 0 2.335 1.045 2.335 2.335l.01 2.56c.027 2.008.13 2.312.524 3.185l.083.167c.588 1.14 3.562 6.33 5.505 9.904l.47.874c7.255 13.573 15.25 14.958 27.798 5.836 1.043-.758 2.503-.528 3.26.515s.528 2.503-.515 3.26c-14.6 10.615-25.786 8.81-34.402-6.93l-1.105-2.038-5.326-9.612-.14-.313c-.797-1.807-.833-2.45-.833-7.4 0-1.29 1.045-2.335 2.335-2.335z"/><path d="M119.3 6.12c1.232-.382 2.54.308 2.92 1.54 4.25 13.72 10.58 21.027 22.024 23.746 1.255.298 2.03 1.557 1.732 2.81s-1.557 2.03-2.81 1.732c-13.26-3.15-20.71-11.746-25.405-26.907-.382-1.232.308-2.54 1.54-2.92z"/><path d="M140.558 4.717c1.29-.02 2.35 1 2.37 2.3l.006.6-.058 2.784-.19 4.095c-.183 4.312-.095 6.46.448 8.942 2.333 10.652 9.99 16.573 20.77 17.432 9.937.79 21.06-3.02 27.956-9.538.937-.886 2.415-.844 3.3.093s.844 2.415-.093 3.3c-7.868 7.435-20.295 11.694-31.534 10.8-12.73-1.014-22.163-8.31-24.96-21.088-.67-3.056-.758-5.532-.538-10.476l.174-3.7a53.14 53.14 0 0 0 .05-3.171c-.02-1.29 1.01-2.35 2.3-2.37z"/><path d="M155.792 4.07c1.29.02 2.318 1.082 2.3 2.37l-.01.333c-.024.654-.092 1.262-.237 2.264l-.08.536c-.362 2.407-.376 3.346 0 4.205C160.232 19.4 164.44 25.947 169 30.6c5.65 5.778 11.308 8.276 16.59 6.803 1.207-.337 2.172-.914 4.147-2.413l1.175-.9c.892-.678 1.422-1.055 2.094-1.478 1.09-.688 2.533-.36 3.22.73s.36 2.533-.73 3.22l-.364.236c-.36.24-.73.508-1.253.903l-1.376 1.053c-2.414 1.83-3.724 2.61-5.658 3.148-7.247 2.02-14.466-1.167-21.184-8.036-4.97-5.083-9.482-12.1-12.162-18.21-.83-1.9-.837-3.374-.393-6.428l.176-1.207c.103-.744.142-1.18.15-1.65.02-1.29 1.08-2.318 2.37-2.3z"/><path d="M170.193 4.895c1.264-.257 2.496.56 2.753 1.823l1 4.845.216.992.175.783c2.865 12.586 5.958 15.352 19.748 16.717 1.283.127 2.22 1.27 2.094 2.553s-1.27 2.22-2.553 2.094l-.956-.1c-15.08-1.647-19.613-6.01-22.865-20.147l-.484-2.2-.948-4.606c-.257-1.264.56-2.496 1.823-2.753z"/><path d="M191.94 5.89c1.288-.054 2.377.946 2.43 2.234l.04 1.128.03 2.533-.007 4.75L194.6 24l.016.268c.8 12.884 4.503 19.676 13.335 20.59 5.03.52 10.068.39 17.702-.264 2.588-.222 4.357-.905 6.48-2.37l.292-.205c.69-.5 3.797-2.917 4.75-3.61 1.043-.758 2.503-.528 3.262.515s.528 2.503-.515 3.262l-.753.565-3.93 2.997-.106.077c-2.9 2.065-5.485 3.116-9.083 3.424l-1.368.114c-7.158.578-12.14.668-17.214.142-6.35-.658-10.89-3.802-13.732-9.014-2.18-4-3.3-9.007-3.74-15.318l-.04-.615c-.14-2.262-.192-4.196-.2-7.215l.004-6.046c-.006-1.253-.024-2.083-.062-2.976-.054-1.288.946-2.377 2.234-2.43z"/><path d="M203.737 5.63c1.288-.052 2.375.95 2.427 2.238l.032.86.07 3.266.04 6.48c.064 7.43.324 11.052 1.228 15.207 1.28 5.885 3.765 10.577 7.996 14.518 5.637 5.25 21.666-.907 21.986-7.95l.005-.214c0-1.29 1.045-2.335 2.335-2.335s2.335 1.045 2.335 2.335c0 11.33-21.245 19.59-29.843 11.58-4.967-4.627-7.903-10.17-9.376-16.943l-.12-.565c-.93-4.496-1.17-8.465-1.22-16.512l-.022-4.516-.017-1.51-.093-3.515c-.052-1.288.95-2.375 2.238-2.427z"/><path d="M213.04 16.833c.122-1.284 1.262-2.225 2.545-2.103 1.234.117 2.152 1.175 2.113 2.398l-.01.147c-.42 4.427 2.67 15.52 6.846 23 4.97 8.9 9.862 11.296 14.837 6.3.9-.913 2.4-.914 3.302-.004s.914 2.4.004 3.302c-4.066 4.075-8.557 5.02-12.862 2.905-3.455-1.698-6.584-5.27-9.358-10.235-4.6-8.23-7.94-20.216-7.418-25.7zm-102.882 29.8l.386-.188c1.053-.492 1.78-.623 2.78-.156 1.13.528 1.564 1.6 1.45 2.666-.052.484-.2.938-.457 1.452-.583 1.204-1.8 2.546-3.454 3.9l-.388.315.1.074a2.33 2.33 0 0 1 .982 2.201l-.023.155a2.52 2.52 0 0 1-.149.521l-.013.027.2-.022a1.26 1.26 0 0 1 .182.001l.442.044.235.07c.6.18.677.283 1.425 1.25l.138.627c.092.45.092.6.016.878l-.028.1.12.043c.5.2.917.546 1.2 1.035l.07.136c.532 1.118.098 2.446-.967 3.042L107.83 68l-11.66 5.44-3.73 1.646-.906.4c-6.77 2.9-12.358 4.998-16.47 6.062-2.52.652-4.498.926-6 .754-2.44-.278-4.076-1.9-3.725-4.396.446-3.16 2.155-5.377 4.9-6.78l.324-.16.014-.085a2.51 2.51 0 0 1 .084-.308l.146-.4.206-.307c.18-.263.23-.302.436-.47l.25-.165a1.3 1.3 0 0 1 .247-.134l.216-.085c.178-.063.348-.097.8-.17l.812-.127a52.97 52.97 0 0 1 3.043-.355l.802-.072.26-.037 1.425-.216 1-.16-.337.018c-4.892.233-9.048-.304-11-1.965l-.147-.13c-1.467-1.364-2.134-2.956-.957-4.58.723-.997 1.757-1.374 3.26-1.553l.255-.028c1.674-.17 3.366-.124 7.695.138l2.85.17c3.37.186 5.237.2 6.562.012 1.94-.275 4.44-1.07 7.056-2.144l.256-.106-.683.076c-2.564.274-5.477.46-9.47.642l-5.922.257-5.5.33a2.32 2.32 0 0 1-2.5-2.146c-.1-1.286.86-2.4 2.146-2.5L75 54.258l3.53-.206 6.75-.296c7.07-.323 10.62-.647 14.848-1.452.763-.145 2.094-.8 3.924-1.892l.54-.33 1.064-.668 2.3-1.478.493-.3c.7-.435 1.238-.745 1.7-.983zm-26.182 26.92l-1.217.05c-8.453.376-11.697 1.286-12.6 4.025l-.014.044.034-.001c.803-.026 1.96-.215 3.4-.574l.313-.08c2.43-.63 5.495-1.672 9.1-3.073l.993-.392z"/></g><path d="M85.408 78.875c10.857 6.602 5.795 12.94 1.638 26.675C82.382 120.964 77 102 76.32 96.774c-1.967-14.868 1.063-20.834 9.1-17.898z"/><g class="G"><path d="M125.372 52.65l2.275.19 9.5.76.735.067c1.334.132 1.892.267 2.62.617l.118.058.34.17c.9.45 1.433.67 2.736 1.108l.77.255c3.2 1.046 8.21 2.427 15.59 4.237l.53.13c1.225.3 3.27.56 6.478.856l5.343.478 1.135.117c1.292.142 2.127.276 2.703.45.43.13.777.283 1.138.59 1.028.87 1.2 2.442.217 3.512-.565.61-1.105.793-2.187 1.02-5.494 1.15-14.955 1.238-23.8.415l-.44-.042.018.013c1.638 1.134 3.18 2.103 4.794 3l.61.33c.537.286 1.736.645 3.4 1.026l.537.12 3.868.788.314.07.264.063.116.03c.415.1.644.186.944.4l.258.188c.296.227.344.337.78 1.324l-.04.544c-.078.953-.15 1.147-.6 1.576l-.257.24-.03.02 1.543.38a15.95 15.95 0 0 1 .881.242l.05.018a4.83 4.83 0 0 1 .75.342c.576.333 1 .724 1.224 1.52.098.347.125.67.095.965l-.016.122.062.056.147.15c1.082 1.18.842 2.96-.492 3.84-8.463 5.59-18.06 6.092-28.573 2.506-7.768-2.65-15.14-7.036-24.5-13.867-1.042-.76-1.27-2.22-.51-3.262s2.22-1.27 3.262-.51l1.216.882c8.43 6.07 15.15 9.99 22.037 12.337 7.088 2.418 13.5 2.732 19.337.624l.346-.13-.505-.103-4.13-.902-.586-.137-.27-.025c-4.84-.458-8.275-.963-11.668-1.807l-.39-.1c-5.032-1.292-9.444-2.856-13.425-4.85-1.107-.555-1.9-1.123-3.15-2.193l-.6-.518-.544-.217-7.45-3.09-.97-.416c-.2-.1-.39-.18-.566-.29-.564-.356-.95-.735-1.127-1.585a2.36 2.36 0 0 1 .715-2.22c.32-.296.645-.45.984-.548.278-.08.518-.104.785-.107.49-.007 1.19.078 2.038.227.86.152 1.73.342 2.515.554l.122.033-.007-.015c-.323-.74-.532-1.512-.623-2.316l-.022-.22c-.108-1.248.46-2.097 1.302-2.6l.04-.024-.1-.105-.13-.156c-.53-.675-.783-1.595-.368-2.482l.025-.05-.084-.01c-1.16-.173-2.015-1.187-1.988-2.36l.008-.148c.1-1.285 1.24-2.237 2.526-2.127zm6.364 13.59l.103.075c2.402 1.72 6.164 3.44 11.082 5.08l.24.08-.54-.234-.935-.41-1.045-.466-8.903-4.125zm5.2-7.973l.078.034c1.922.852 3.806 1.93 5.816 3.278l.34.23.507.096c2.68.5 5.656.876 8.708 1.15l.4.035-2.26-.596c-2.7-.724-4.898-1.357-6.658-1.912l-.85-.273-.638-.213a36.28 36.28 0 0 1-2.286-.85l-.203-.086a17.89 17.89 0 0 1-.655-.296l-.28-.137-.487-.245c-.165-.074-.338-.108-1.035-.172l-.5-.044z"/><path d="M119.506 75.153c.978-.84 2.452-.728 3.292.25.805.938.736 2.33-.132 3.184l-.118.108c-.5.42-.874 1.387-1.016 2.644-.494 4.387-.548 8.61-.127 12.612 1.376 13.07 12.407 23.756 23.608 20.597 2.71-.764 7.252-6.114 11.7-13.642 1.8-3.046 3.465-6.25 4.73-9.064l.265-.597c1.125-2.568 1.79-4.595 1.82-5.24l.001-.064c-.03-1.29.99-2.36 2.278-2.4s2.36.99 2.4 2.278c.065 2.715-3.105 10.004-7.246 17.08l-.22.372c-5.08 8.6-10.125 14.54-14.452 15.762-14.42 4.067-27.873-8.967-29.52-24.602-.458-4.353-.4-8.913.13-13.623.26-2.32 1.06-4.33 2.614-5.665z"/><path d="M77.125 66.874c1.59-1.364 3.623-1.026 5.414.013 1.115.647 1.495 2.076.847 3.19-.62 1.07-1.963 1.463-3.056.92l-.135-.073a2.43 2.43 0 0 0-.259-.13l-.073-.03-.042.064c-.294.465-.522 1.158-.64 1.996l-.03.232c-.49 4.386-.544 8.61-.12 12.6.78 7.356 5.148 14.875 11.017 18.635 1.086.696 1.402 2.14.706 3.226s-2.14 1.402-3.226.706c-7.103-4.55-12.218-13.352-13.14-22.075-.46-4.353-.404-8.912.123-13.62.26-2.32 1.06-4.332 2.612-5.665z" transform="matrix(.97437 .224951 -.224951 .97437 21.752964 -16.344028)"/><path d="M111.504 62.602c.522-1.18 1.9-1.712 3.08-1.19s1.712 1.9 1.19 3.08l-.328.734c-3.672 8.13-7.716 14.188-16.85 26.233l-2.39 3.147c-7.066 9.342-10.478 14.324-13.64 20.388l-4.05 7.87-1.316 2.616a134.44 134.44 0 0 0-1.843 3.9c-1.647 3.65-2.765 6.676-3.26 8.968-.252 1.166-.327 2.084-.242 2.692.023.166.055.285.085.36l.008.02.273.15c10.758 5.67 31.364-3.24 39.032-15.315l.23-.37c2.16-3.54 5.534-3.94 9.036-1.983 1.16.647 2.304 1.51 3.622 2.665l.44.392 2.968 2.7c10.694 8.644 16.164 19.546 17.058 32.5.752 10.88-1.69 22.905-6.88 36.77-.452 1.208-1.797 1.82-3.005 1.368s-1.82-1.797-1.368-3.005c10.63-28.403 9.334-48.99-8.203-63.552l-.536-.44c-.606-.5-3.075-2.8-3.252-2.948-1.226-1.096-2.224-1.865-3.118-2.364-1.46-.815-2.047-.783-2.696.218l-.075.12c-3.883 6.37-11.658 12.612-20.226 16.323-9.495 4.112-18.79 4.697-25.648.818-2.494-1.4-2.893-4.257-2.064-8.09.58-2.68 1.797-5.98 3.57-9.903a133.76 133.76 0 0 1 1.565-3.335l.662-1.347 4.747-9.265c3.53-6.892 7.158-12.17 15.157-22.71l2.416-3.183c8.637-11.43 12.387-17.17 15.856-25.013z"/><path d="M98.087 139.22c1.272-.212 2.475.648 2.687 1.92 1.554 9.334 1.712 18.193.722 28.14-.346 3.473-.825 7.066-1.486 11.27l-.256 1.606-.43 2.6-2.215 12.895-.736 4.49c-.203 1.273-1.4 2.142-2.673 1.94s-2.142-1.4-1.94-2.673l.304-1.89.438-2.64.634-3.715 1.304-7.543.587-3.504.117-.718c.78-4.822 1.327-8.79 1.705-12.59.95-9.558.8-18.01-.68-26.91-.212-1.272.648-2.475 1.92-2.687z"/><path d="M140.1 159.56c1.128-.625 2.55-.218 3.174.91s.218 2.55-.91 3.174l-1.12.615c-18.098 9.845-27.9 10.28-45.986 1.66-1.164-.555-1.658-1.948-1.103-3.112s1.948-1.658 3.112-1.103l1.012.477c16.36 7.62 24.622 6.92 41.82-2.618z"/></g><path d="M121.02 76.237c10.857 6.602 17.466 17.596 13.3 31.33-4.664 15.413-15.786-5.568-16.478-10.794-2.95-22.302 2.322-6.78 2.322-17.785"/></g></g></g></g><path d="M1638.153 119.123c-32.352-41.272-93.186-46.825-144.03-44.754s-68.03 14.45-93.493 54.43-19.786 71.142-5.286 100.66c7.256 14.772 20.272 27.36 36.773 37.392C1440.875 272.177 1454 279 1417 290s65.145-2.588 76.33-.378c56.014 11.067 119.512 1.746 149.257-34.762 28.255-34.68 10.585-90.107 2.388-125.79l-6.823-9.946z" class="H"/><g transform="matrix(.978148 -.207912 .207912 .978148 1451.97697 145.665971)"><path d="M91 55V30C91 13.43 77.57 0 61 0S31 13.43 31 30v25c0 8.285-6.72 15-15 15v5h90v-5c-8.28 0-15-6.715-15-15" class="E"/><path d="M17.914 31.987C14.616 59.48 21.4 50.668 5.123 62.805m.007-21.878c-.915 6.52.38 3.444-4.482 8.95m101.68-16.54c-.54 12.154-2.2 22.317 4.792 25.555l9.78 2.08m-3.226-22.41l6.348 8.506" stroke="#0d62fe" stroke-width="6.322" stroke-linecap="square" class="B"/><path d="M44 80c3.42 5.95 9.715 10 16.998 10S74.576 85.95 78 80H44z" class="E"/></g><path d="M14.417 549.055l99.314 23.162c2.254.515 3.944 2.4 4.227 4.666s-.907 4.488-2.98 5.53l-28.205 14.194-2.884 28.477c-.23 2.29-1.886 4.188-4.125 4.747-2.244.568-4.616-.326-5.917-2.22l-.856-.865 5.705-21.734c.24-2.83-1.173-5.548-3.645-7L50.542 583.63l19.586 18.75c1.39 1.334 1.97 3.296 1.538 5.157l-8.932 38.234c-.516 2.235-2.407 3.91-4.703 4.2-2.3.273-4.528-.903-5.584-2.954L5.793 556.71a5.36 5.36 0 0 1-.548-1.065c-.488-1.265-.185-3.197.372-4.527.688-1.64 3.622-2.328 8.8-2.064z" class="E"/><path d="M92.364 636.782c1.592 8.595 18.334 27.846 23.9 32.86 33.66 30.314 38.788 42.326 79.55 45.938 10.7.948 46.163 8.665 62.367-4.105 1.94-1.53 4.14-3.24 4.853-5.607 9.696-32.154-61.7-53.917-49.673-7.464 1.203 4.652 5.16 8.2 8.588 11.577 3.748 3.682 7.96 7.073 12.7 9.335 6.36 3.035 13.25 4.984 20.165 6.347 10.832 2.135 21.873 3.088 32.866 4.105 9.186.85 18.412 1.324 27.636 1.494 17.797.328 35.606.445 53.4 0 2.175-.054 4.236-.996 6.354-1.494" stroke="#001c6c" stroke-dasharray="20" class="B C J"/><path d="M586.847 45.123C619.2 3.85 680.032-1.702 730.877.37s68.03 14.45 93.493 54.43 19.786 71.142 5.286 100.66c-7.256 14.772-20.272 27.36-36.773 37.392C784.125 198.177 766 201 766 240s-23.145-26.588-34.33-24.378c-56.014 11.067-119.512 1.746-149.257-34.762-28.255-34.68-10.585-90.107-2.388-125.79l6.823-9.946z" class="E"/><path d="M735.205 93.817L726.022 103 699 75.978l9.183-9.183c2.394-2.394 6.263-2.394 8.656 0l18.366 18.366c2.394 2.394 2.394 6.263 0 8.656h0zm-43.063 43.37c-1.207 1.207-2.792 1.814-4.377 1.814s-3.17-.607-4.377-1.814l-18.572-18.573c-2.42-2.42-2.42-6.333 0-8.754L692.674 82 720 109.327l-27.858 27.86zm68.04-61.802c2.424-2.424 2.424-6.342 0-8.767l-24.8-24.8c-2.424-2.424-6.342-2.424-8.767 0-3.546 3.546-12.486 3.546-16.033 0-2.424-2.424-6.342-2.424-8.767 0l-61.998 61.998c-2.424 2.424-2.424 6.342 0 8.767 3.745 3.745 3.745 12.288 0 16.033-2.424 2.424-2.424 6.342 0 8.767l24.8 24.8c2.424 2.424 6.342 2.424 8.767 0 3.546-3.546 12.486-3.546 16.033 0 1.21 1.21 2.796 1.817 4.383 1.817s3.174-.608 4.383-1.817l61.998-61.998c2.424-2.424 2.424-6.342 0-8.767-3.745-3.745-3.745-12.288 0-16.033h0z" class="D"/><path d="M1151 515l232-3.017V252l-232 12.252z" class="F"/><g transform="translate(1091 184)"><mask id="K" class="F"><use xlink:href="#B"/></mask><g mask="url(#K)"><g transform="translate(75 47)"><g fill="#f06aa6"><path d="M200.666 27.648C195.777 136.25 77.22 176.518 153 247.293c18.11 16.913-99.3 17.15-89.224 0 53.78-91.52-2.444-111.043-1.222-209.884.144-11.656 1.798-22.59 4.73-32.63 59.02-1.665 102.26-.143 129.717 4.564 2.184.374 3.406 6.476 3.667 18.304z"/></g><g class="B C N P"><path d="M216.533 14.893c-6.495 28.137-18.85 56.982-21.24 85.883-1.732 20.946-.774 42.03-1.16 63.045m14.934-149.86C194.5 50.5 188.85 83.388 187.474 122.882c-1.08 31.03-4.192 23.453 2.012 36.285m-.02-122.867c-13.676 56.285-14.304 74.472-4.73 132.174m-.87 6.516c-33.92-30.382-19.7-83.438-10.622-121.004"/></g><path d="M118.105 26.993c2.064 10.16 1.502 16.97-1.684 20.43-16.923 18.383-23.51 25.455-42.54 51.63-.26.358-.183 1.296.26 1.3 2.1.02 4.468-.048 6.208-1.236 12.208-8.333 21.644-20.994 35.16-27.002 18.193-8.087-3.395 17.564-9.905 17.564s18.807 11.572 44.847-2.17-22.423 16.634-38.337 15.188 6.5 13.018 0 32.545" stroke-width="4.258" class="B C K"/><g class="N P B C"><path d="M72.8 46.54C61.847 75.576 47.188 146.32 4.045 154.504c-.547.104-.83-.738-1.245-1.107M66.267 26.993C56.35 76.024 41.7 119.35.933 147.998M60.667 8.377C48 54.035 41.6 103.683 2.8 134.966M47.6 10.24C35.895 59.205 34.6 91.426 0 125.658"/></g><path d="M199.904.405c5.3 0-3.18 32.548-6.502 40.065-2.808 6.356-10.542 9.593-23.2 9.713-14.01.43-23.75-2.76-29.222-9.57a47.04 47.04 0 0 1-.836-1.072c-6.503 13.02-19.602 16.71-35.49 16.71-36.744 0-51.41-22.206-45.528-55.848h140.78zM135.04 12.832l-62.492-.873-.018.224c-.83 10.725 1.037 18.702 5.23 23.99l.223.276.212.253c5.02 5.888 14.386 8.96 28.544 8.96 10.44 0 22.755-4.38 26.9-18.78l.133-.478c.685-2.56.468-7.005 1.106-12.215l.123-1.025.038-.33zm54.985 1.053h-45.34l.022.065c-.022 20.397-.022 28.822 33.945 28.81l.545.008.64.003c.64 0 .974-.1 1.577-.514 1.27-.876 2.66-2.606 3.94-5.255 2.432-5.035 4.006-12.443 4.61-22.117l.057-1z" transform="matrix(-1 0 0 1 259.466652 0)" class="D G"/><g class="I"><use xlink:href="#I" transform="matrix(-1 0 0 1 173.73999 0)"/><use xlink:href="#I" x="57.284" transform="matrix(-1 0 0 1 288.30665 0)"/></g><g fill="#ff0034"><path d="M23.222 266.83c5.99 8.75 31.132 6.483 17.666-11.25s-23.655 2.5-17.666 11.25z" transform="matrix(-1 0 0 1 66.266662 0)"/><path d="M55.434 281.825c6.16 8.445 28.653 3.066 14.8-14.048s-20.962 5.603-14.8 14.048z" transform="matrix(-1 0 0 1 127.86666 0)"/><path d="M98.448 286.857c6.23 8.768 28.635 4.798 14.624-12.972s-20.855 4.204-14.624 12.972z" transform="matrix(-1 0 0 1 213.73332 0)"/><path d="M140.524 281.412c6.336 8.628 27.895 4.136 18.688-11.093s-25.024 2.465-18.688 11.093z" transform="matrix(-1 0 0 1 300.533316 0)"/><path d="M173.94 271.14c6.017 8.534 24.648 4.442 17.748-10.972s-23.765 2.438-17.748 10.972z" transform="matrix(-1 0 0 1 365.866644 0)"/></g></g></g></g><g transform="translate(1151 637)"><mask id="L" class="F"><use xlink:href="#C"/></mask><use fill="#f4f2ee" xlink:href="#C"/><g mask="url(#L)"><g transform="translate(0 82)"><path d="M317.207 0l6.76 26.973c1.204 5.405 2.456 16.643 3.755 33.716C356.26 48.7 370.53 56.693 370.53 84.665s-14.27 37.462-42.808 28.47v107.142L43.088 227.02V113.136c-31.042 7.492-45.31-1.998-42.808-28.47S17.053 50.2 43.088 60.69L48.345 0h268.862zM85.896 35.964c-19.526 60.94-21.28 107.392-5.257 139.36 10.19 20.33 96.3 25.758 152.455 20.23 21.43-2.1 43.46-8.853 66.09-20.23 3.893-20.674 5.395-41.902 4.506-63.686s-4.143-43.512-9.763-65.184c-13.518-14.985-46.563-24.475-99.134-28.47s-88.87 1.998-108.897 17.982z" class="E"/><g class="I G"><path d="M160.32 113.882c.445.01.823.04 1.135.1a2.81 2.81 0 0 1 .65.201l.18.082c.186.093.29.188.782.633l.203.34c.15.258.258.456.325.64l.016.05.04.006.254.053c.732.183 1.407.6 1.845 1.405l.093.185.062.148.08-.015c1.01-.183 1.987-.034 2.735.437l.17.116.035-.004a3.2 3.2 0 0 1 2.288.558l.18.132a2.66 2.66 0 0 1 1.008 1.905l.006.187-.003 2.49.043.107c.444 1.18.13 2.543-1.113 3.383l-.175.11c-.466.278-.888.42-1.55.563l-.51.103-1.136.216-.502.112-.102.026.015.3c.084 1.59-.003 2.463-.716 3.57-13.007 20.2-31.7 37.142-50.388 43.196-2.176.705-4.238-.818-4.023-3.138.056-.61.256-1.212.575-1.876l.056-.115-.108.013c-.23.02-.477.007-.75-.046l-.21-.047c-1.564-.4-2.124-1.672-2.048-2.862.024-.382.11-.698.237-1.04.247-.656.748-1.552 1.467-2.688.45-.712.953-1.464 1.463-2.192l.46-.65-.32.27-1.076.895-1.19.972c-1.247 1.008-2.226 1.758-2.844 2.17-.287.19-.526.333-.782.448-.36.162-.696.263-1.186.264-.16 0-.315-.013-.468-.04l-.067-.014-.32.972-.234.728a2.66 2.66 0 1 1-5.073-1.611c3.573-11.247 8.722-22.027 14.62-29.766 7.274-9.545 15.48-14.303 24.21-12.618l.38.077a19.63 19.63 0 0 0 2.002.34l.273.024 1.8-1.694c1.216-1.15 2.36-1.8 4.326-2.487l.188-.066.036-.025c1.707-1.172 3.166-1.798 5.61-2.512l.654-.187.423-.434c1.04-1.067 1.895-1.68 3.27-2.126.64-.206 1.468-.28 2.366-.275l.34.005zm1.75 15.102c-.455.3-.757.535-.994.795l-.64.71c-2.86 3.183-3.992 4.727-6.48 8.652l-1.19 1.884-.464.717c-2.034 3.083-4.278 5.61-8.22 9.01l-1.168.992c-2.47 2.07-4.8 3.848-9.018 6.93l-3.493 2.547-6.173 4.628-.623.49.182-.094c14.09-7.39 27.8-20.877 37.98-36.48l.3-.466.001-.154-.004-.162zm-25.606-.683h-.017c-9.648-.847-19.54 9.96-26.89 26.577l-.123.278 1.415-1.482c6.902-7.2 14.342-14.574 23.804-23.637l1.812-1.734zm13.514 7.178l-3.58 3.468-3.318 3.25-8.086 7.96-3.074 3.008-1.5 1.458 2.346-1.72c2.882-2.13 4.753-3.582 6.683-5.197l.737-.623.797-.687c3.208-2.8 5.037-4.85 6.68-7.29l.196-.294.576-.894 1.083-1.718.457-.718zm5.416-12.08c-.86.654-1.744 1.117-2.89 1.5l-.352.112c-.888.27-1.62.593-2.378 1.023l-.327.19c-.348.21-1.534.978-1.732 1.1-1.05.65-2.064 1.114-3.156 1.4l-.18.042-.32.285c-1.388 1.242-2.814 2.597-4.31 4.1l-1.19 1.2c-1.847 1.89-3.497 3.71-6.192 6.81l-4.51 5.202 1.418-1.183 5.203-4.26 7.217-5.82 6.124-5.02 1.126-.943.168-.158L151.2 127l1.333-1.234a23.69 23.69 0 0 1 2.249-1.83l.3-.204.52-.488-.197.155z" transform="matrix(.882948 .469472 -.469472 .882948 83.838795 -47.000005)"/><path d="M198.202 121.507l.217-.045.83-.163c2.114-.397 3.15-.42 4.293.284l.957.582 5.267 2.957 2.025 1.08 2.104.9c4.38 1.862 7.618 3.327 10.552 4.814l.62.315 4.805 1.646 4.914 1.777c6.713 2.59 12.29 5.626 18.516 10.39l.67.517a8.15 8.15 0 0 0 .529.37l.53.336 1.007.62c.885.547 1.486.946 2.037 1.378.886.693 1.517 1.37 1.897 2.233.657 1.492.282 3.114-.982 4.2-1.388 1.205-2.65 1.588-4.497 1.434l-.094-.01.115.116c.503.53.834 1.17.75 2.095l-.027.218c-.204 1.32-1.052 1.96-2.01 2.23-.324.092-.624.124-.96.13-.348.007-.767-.018-1.298-.072l-.275-.03a46.87 46.87 0 0 1-1.294-.167l-.366-.053-.1.078c-.697.51-1.622.698-2.564.444l-.177-.053c-.99-.326-1.934-.685-2.873-1.095l-.727-.33 3.068 1.62.2.1.367.2c.11.065.2.126.3.185.5.316.733.506 1.048 1.004.8 1.266.515 3.16-1.196 3.902-.576.25-.977.263-1.467.206-.285-.033-.568-.1-.94-.207l-1.47-.44-.468-.148-.046.097c-.316.605-.838 1.048-1.443 1.298l-.167.063c-.466.162-.907.2-1.388.176-12.062-.596-22.58-5.155-32.1-13.228-7.6-6.45-14.176-14.67-21.576-26.126a2.66 2.66 0 0 1 4.371-3.032l.083.12.098-.106c.213-.22.465-.406.75-.55l.174-.08c.772-.326 1.386-.363 2.127-.137l.163.053.012-.108a2.64 2.64 0 0 1 .067-.33l.017-.06-.036-.106-.052-.195a2.67 2.67 0 0 1 .006-1.299 2.69 2.69 0 0 1 1.561-1.83c.668-.284 1.186-.29 1.7-.155l.1.032.07-.013c.506-.09 1.046-.108 1.628-.064l.04.003zm2.33 19.88c3.202 3.86 6.41 7.158 9.81 10.044 5.662 4.806 11.65 8.216 18.144 10.15l.535.155-1.164-.655-1.284-.708-3.44-1.868c-5.14-2.804-7.716-4.394-10.54-6.662l-.923-.754c-2.792-2.306-6.722-5.747-10.416-9.117l-.97-.888.248.302zm28.5 2.942l1.387 1.325c2.084 1.973 3.288 3.005 4.793 4.092l1.003.72c1.466 1.045 2.762 1.935 3.95 2.702l.268.172-.36-.363a26.15 26.15 0 0 0-1.651-1.497l-.424-.344c-2.486-1.97-5.045-3.923-7.74-5.907l-1.23-.9z" transform="matrix(.945519 -.325568 .325568 .945519 -35.03892 80.362157)"/></g><g class="D G"><path d="M144.364 97.95c5.784-1.792 10.428-.738 18.07 2.9l3.558 1.73.207.098a2.661 2.661 0 1 1-2.278 4.81l-1.986-.963-.887-.435c-7.064-3.454-10.793-4.403-15.107-3.066-2.943.912-4.012 7.578-3.53 15.128.576 9 12.993 13.795 21.686 9.457a2.661 2.661 0 0 1 2.377 4.762c-11.768 5.874-28.524-.583-29.374-13.88-.215-3.37-.18-6.763.348-10.06.87-5.43 2.94-9.26 6.918-10.492zm55.854 11.272c5.702-5.14 10.86-7.563 15.26-7.206 4.315.35 7.38 3.328 8.563 7.7 2.27 8.406-2.493 19.053-11.575 23.05-2.658 1.17-5.3 1.746-8.203 1.878l-.547.02c-1.894.05-3.24-.03-6.505-.34l-2.406-.227-1.263-.103a2.661 2.661 0 0 1 .392-5.308l1.096.088 1.582.146 2.355.22c2.157.192 3.24.238 4.6.202 2.46-.065 4.6-.5 6.747-1.448 6.62-2.912 10.178-10.87 8.58-16.8l-.104-.358c-1.56-4.96-6.6-5.176-15.017 2.422a2.661 2.661 0 1 1-3.564-3.953z"/></g><g class="I"><g transform="matrix(1 0 0 -1 0 141)"><path d="M108.142 62.185c-1.5 26.347 21.8 33.052 28.26 8.8 4.928-18.502-21.933-20.257-30.4-8.8M196 58.325c.47 5.554.123 11.23 1.4 16.662 5.585 23.564 36.084.702 19.9-18.988"/></g></g><path d="M206.177 75.63l.028.474.04.853c.09 2.266.048 4.503-.103 7.435l-.27 4.767-.207 4.325-.59 8.803-.025.273c-1.204 12.898-3.956 22.342-9.685 29.81-8.506 11.085-18.467 11.007-25.59 1.742-5.9-7.686-8.72-20.408-6.528-30.2l.4-1.768c4.177-18.325 7.132-26.07 10.178-28.27l.107-.076-.045-.742-.468-6.61a2.66 2.66 0 1 1 5.31-.361l.488 6.905c.065 1.02.084 1.6.064 2.065l-.005.106c-.08 1.353-.63 2.456-1.998 2.984-.073.028-.172.06-.272.09l-.2.055-.13.16a5.95 5.95 0 0 0-.194.272l-.08.12c-.467.716-1.012 1.82-1.628 3.37l-.133.34c-1.737 4.473-3.792 11.79-6.196 22.523-1.85 8.252.606 19.36 5.553 25.793 5.006 6.5 10.787 6.556 17.15-1.737 4.897-6.383 7.392-14.745 8.542-26.376l.16-1.73c.2-2.3.334-4.38.507-7.84l.23-4.78.214-3.667c.188-3.45.23-5.85.097-8.35-.385-7.188 4.774-8.94 5.287-.76z" class="D G"/><path d="M157.242 10.02c6.326 0 12.75.457 19.27 1.37l1.224.177a6 6 0 0 1 5.043 4.956c1.93 11.72 2.714 23.662 2.347 35.826 1.7 1.233 3.942.95 6.726-.845-.306-11.872.485-23.532 2.37-34.98a6 6 0 0 1 4.841-4.923l.203-.034 1.224-.177c6.52-.914 12.944-1.37 19.27-1.37l1.487.007c8.308.076 25.104.748 50.386 2.016a6.76 6.76 0 0 1 5.978 4.336l.074.204.25.73c3.775 11.237 5.663 23.79 5.663 37.66 0 13.235-1.76 24.757-5.276 34.567a9.01 9.01 0 0 1-8.164 5.957l-.235.005-3.62.03c-7.11.047-13.464.022-19.06-.074l-3.226-.057-39.548-.015c-4.3.025-8.006-2.982-8.875-7.162l-.044-.225-.206-1.15c-1.026-5.83-1.836-11.878-2.43-18.143-2.883-3.094-5.845-3.334-8.888-.72a201.03 201.03 0 0 1-3.786 22.485l-.29 1.263c-.922 3.95-4.382 6.796-8.445 6.945l-17.994.637-20.507.6-2.625.048-20.075.05-1.818-.016a9.01 9.01 0 0 1-8.388-5.929c-4.462-12.29-6.693-25.323-6.693-39.097 0-13.87 1.888-26.423 5.663-37.66l.25-.73c.9-2.604 3.294-4.402 6.052-4.54l8.527-.42 43.346-1.603zm-7.5 7.492l-1.183.044c-7.523.31-18.066 1.27-31.63 2.885l-2.206.265a3 3 0 0 0-2.628 2.69l-.172 1.835c-2.738 29.79-1.898 50.443 2.52 61.96 1.96 5.11 21.237 5.86 57.828 2.248l.33-2.79c1.95-16.72 2.822-28.986 2.61-36.797l-.01-.318c-.257-8.215-1.234-18.4-2.933-30.525-6.64-1.277-14.152-1.776-22.53-1.498zm69.093 0l-.812-.025c-7.87-.22-12.295.288-13.273 1.523l-.227 1.643c-1.56 11.414-2.46 21.04-2.705 28.883l-.02.758c-.18 8.206.743 20.256 2.768 36.15 38.093 2.114 58.12.616 60.08-4.495 4.5-11.727 4.636-31.272.41-58.634a3 3 0 0 0-2.695-2.528l-6.67-.6c-17.378-1.543-29.664-2.433-36.858-2.672z" fill="#f3a712"/><path d="M152.646 159.34a2.66 2.66 0 0 1 3.744-.381c5.064 4.13 12.075 5.885 21.21 5.84l.896-.01c3.883-.063 7.785-.413 13.372-1.107l5.223-.652c6.362-.778 7.662-.823 10.12-.58 3.32.33 3.47 4.453 1.58 6.177l-.062.053-3.292 3.28a2.66 2.66 0 0 1-.348.292l-.192.123c-2.753 1.602-5.46 2.7-8.185 3.168-1.472.258-2.836.165-4.974-.205l-1.498-.27-.322-.055.282.14c1.4.708 2.28 1.314 3.004 2.168l.143.174c2.627 3.32 2.667 6.663-.15 8.793-1.726 1.305-4.264 1.927-7.594 2.2-1.704.135-3.334.16-5.327.122l-1.884-.04a2.66 2.66 0 1 1-.294-5.314c.128-.007.264-.01.443-.008l1.253.028c2.11.05 3.74.036 5.4-.094 2.27-.18 3.964-.577 4.704-1.06l.07-.05c-.074-.224-.275-.598-.662-1.108l-.122-.157c-.208-.263-.887-.676-2.19-1.29l-1.64-.76-.138-.066c-1.325-.64-2.17-1.16-2.842-1.905-1.3-1.44-1.406-3.397-.13-4.988a5.99 5.99 0 0 1 2.821-1.971l.2-.067-.054.005c-2.53.218-4.8.335-7.086.36l-.493.004c-10.257.052-18.414-1.99-24.6-7.036a2.66 2.66 0 0 1-.381-3.744zm49.285 8.6l.115-.114-.92.094-2.045.232-7.27.9-1.95.23-1.467.163.14.01c.567.04 1.188.125 2.012.264l1.728.3c1.783.322 2.763.405 3.52.273 1.904-.334 3.895-1.105 5.98-2.27l.16-.092z" class="D G"/><path d="M25.34 128.966l53.65-10.384a4 4 0 0 1 4.354 2.17l39.84 81.49a4 4 0 0 1-3.594 5.757H64.39a4 4 0 0 1-3.522-2.104L22.58 134.8a4 4 0 0 1 2.762-5.824z" stroke="#011638" stroke-width="2.322" class="B H"/></g></g></g><path fill="#192bc2" d="M799 518l232-3.005V270l-232 12.2z"/><path fill="#f4f2ee" d="M799 874.203L1031 885V640.625L799 639z"/><path d="M111.847 229.123c32.352-41.272 93.186-46.825 144.03-44.754s68.03 14.45 93.493 54.43 19.786 71.142 5.286 100.66c-7.256 14.772-20.272 27.36-36.773 37.392C309.125 382.177 296 389 333 400s-65.145-2.588-76.33-.378c-56.014 11.067-119.512 1.746-149.257-34.762-28.255-34.68-10.585-90.107-2.388-125.79l6.823-9.946z" class="H"/><path d="M259.833 289.604h-17.556v-8.8h17.556v8.8zm0 17.6h-17.556v-8.8h17.556v8.8zm0 17.596h-48.278V316h48.278v8.8zM207.167 294h15.36a2.2 2.2 0 0 0 2.194-2.2c0-1.2-.987-2.2-2.194-2.2h-4.39c-6.052 0-10.972-4.937-10.972-11a11.01 11.01 0 0 1 8.778-10.776V263.2h8.778v4.4h8.778v8.8h-15.36a2.2 2.2 0 0 0 0 4.4h4.39c6.048 0 10.972 4.937 10.972 11a11.02 11.02 0 0 1-8.778 10.78v4.62h-8.778v-4.4h-8.778V294zm64.547-20.71l-21.944-22a4.37 4.37 0 0 0-3.103-1.289H198.39c-2.423 0-4.39 1.97-4.39 4.4v79.2c0 2.433 1.966 4.4 4.39 4.4h70.222c2.423 0 4.39-1.967 4.39-4.4v-57.2c0-1.166-.46-2.288-1.286-3.11h0z" class="E"/><path d="M451 523l232-3.016V288l-232 12.246z" class="D"/><g transform="translate(314 150)"><mask id="M" class="F"><use xlink:href="#D"/></mask><g mask="url(#M)"><g transform="matrix(-1 0 0 1 388 36)"><g transform="translate(0 97.96)"><path d="M23.487 52.29C61.772 4.463 133.762-1.972 193.93.428s80.506 16.745 110.64 63.076 23.414 82.443 6.255 116.65C270.618 260.312 80.98 285 18.24 209.59-15.198 169.4 5.712 105.17 15.413 63.816l8.074-11.525z" fill="#ff8100"/><g stroke-width="8.935" class="B C N"><path d="M197.678 37.423c11.075 27.076 42.24 8.943 29.933-10.243M153.166 6.702c21.715 11.034 35.75 30.482 53.842 47.328 10 9.32 19.9 18.813 29.04 28.95 2.7 2.98 7.873 6.54 6.3 10.217-1.434 3.376-35.5 5.93-38.504.463-1.55-2.826-1.998-12.65-1.894-9.444.958 29.595 12.917 60.5 5.835 84.496-3.8 12.84-56.8 4.057-54.634 11.705 4.6 16.214 23.172 17.48 55.74 3.8 3.217 6.564 1.335 14.556.947 21.83-.876 16.407-3.155 32.713-4.732 49.07"/><path d="M139.808 44.092c-2.327 18.35 22.782 29.947 39.096 16.43 10.963-9.082 5.042-20.872 4.865-33.342"/></g></g><path d="M203.34 58.72c-12.39 42.372-82.532 49.547-113.257 25.783s-1.768-23.474 16.945-14.67l.292.004c14.385 10.54 32.78 12.208 55.183 5.006.512-.118 1.062-.3 1.644-.534l.097-.04 2.18-.76-.177-.197c15.09-8.103 44.854-41.126 37.094-14.59zm-32.208-39.056c8.303 19.34-7.93 42.626-12.052 50.362-13.133 3.097-29.227 1.22-48.278-5.63-5.945-14.08-7.884-30.58.96-44.54 15.04-23.736 47-29.005 59.37-.19z" class="D"/></g></g></g><path d="M451 857.164L683 868V636.63L451 635z" class="D"/><g transform="translate(700 166)"><mask id="N" class="F"><use xlink:href="#E"/></mask><g mask="url(#N)"><g transform="matrix(.978148 -.207912 .207912 .978148 39.272565 62.076167)"><g transform="translate(0 99.705)"><path d="M198.773.275c53.68 33.443 86.596 113.608 98.75 240.496l.362 3.86c-71.12 19.27-124.642 29.25-160.57 29.933S55.615 265.7 0 245.92c.548-61.27 6.77-105.52 18.668-141.523 6.078-18.393 26.557-51.15 61.437-98.272l.672-.903c45.665 2.44 85.133.402 117.855-4.92l.14-.026z" class="O"/><g transform="translate(43.019 7.934)"><g stroke="#001d71" class="B C L"><path d="M19.303 137.444c24.47 12.58 40.23-3.505 56.727-21m27.533 2.838c3.363 14.523 5.473 23.62 13.802 35.336.2.28-.67.167-1.004.25m16.44-4.76c-16.678-9.896-6.657-2.447-25.346-27.57m59.726 20.427c-22.663-1.538-46.006-9.75-63.242-24.812m65.25 10.653c-11.94 1.7-36.3 13.86-64.748-12.282m63.868-4.887c-31.194 6.273-11.927 3.787-58.22 2.63m-67.275 42.778c13.9-11.06 34.44-23.308 38.068-42.647M62.765 156.83c16.546-10.913 4.903-1.858 23.833-37.263m-5.5 38.233c12.54-24.374 8.4-12.372 13.697-35.54"/><path d="M100.94 155c-9.374-19.037-5.933-8.142-8.196-33.28m26.96 32.362c-14.413-19.465-7.412-7.926-19.195-35.65M34.185 101.04c12.635 7.45 30.106 21.224 43.893 8.832"/><path d="M26.852 117.843c8.04 2.147 48.636 14.15 47.883-6.355"/><path d="M56.64 9.727c-.955 8.64-.955 14.043 0 16.212 6.065 13.784 15.54 9.2 19.48-5.674"/><path d="M82.613 0C64.215 79.44 65.568 119.16 86.67 119.16s28.41-14.05 21.915-42.152L105.34 4.864c9.74 34.046 18.94 35.667 27.597 4.864" class="O"/></g><g stroke="#f06aa6" fill="#f06aa6" class="B L"><path d="M11.186 78.63C6.5 76.217 3.793 74.055 3.07 72.144-.784 61.972 6.995 56.45 20.926 64.038c.54-11.89 5.14-19.184 13.798-21.886s10.28 4.593 4.87 21.886c8.615-1.28 14.026-1.28 16.233 0 7.4 4.283 3.96 14.73-11.363 21.076 7.576 6.485 8.658 13.24 3.247 20.265s-11.905 3.783-19.48-9.727C17.41 108.62 9.02 111.864 3.07 105.38s-3.247-15.402 8.117-26.75z"/><path d="M133.312 73.612c-4.917-2.524-7.755-4.786-8.514-6.786-4.04-10.646 4.122-16.428 18.735-8.488.57-12.444 5.397-20.08 14.48-22.91s10.785 4.806 5.105 22.907c9.04-1.34 14.716-1.342 17.03-.003 7.752 4.48 4.15 15.418-11.926 22.062 7.946 6.786 9.08 13.856 3.402 21.2s-12.5 3.962-20.435-10.177c-11.357 13.577-20.156 16.973-26.4 10.187s-3.403-16.12 8.52-28z" transform="matrix(-.987688 .156434 .156434 .987688 292.798685 -23.043756)"/></g><g fill="#c23362"><ellipse cx="29.449" cy="78.224" rx="10.146" ry="10.133"/><ellipse cx="152.823" cy="71.739" rx="10.146" ry="10.133"/></g></g></g><path d="M198.048 114.123c33.425-5.977 52.093-10.3 56.005-12.97l-7.305-20.265c-34.63 8.106-54.923 12.16-60.875 12.16-3.788-58.904-14.34-88.356-31.655-88.356-5.633 0-12.126 8.106-19.48 24.318-10.28-31.343-21.104-37.288-32.467-17.833S84.955 60.083 84.414 99.532c-17.874-.573-31.132-1.326-39.772-2.26s-15.404-2.34-20.292-4.226v18.644c-.87.9 5.136 2.176 18.018 3.83s25.816 2.81 38.8 3.465c15.692 1.196 54.653-.425 116.88-4.864z" class="D"/></g></g></g><g transform="translate(392 576)"><mask id="O" class="F"><use xlink:href="#F"/></mask><g mask="url(#O)"><g transform="matrix(-.965926 -.258819 -.258819 .965926 360.717073 95.276424)"><path d="M49.854 33.186C10.42 118.144-5.55 177.124 1.944 210.124 63.81 259.34 130.46 277.2 201.9 263.7c38.007-76.176 50.267-125.513 36.78-148.013 32.468 8.5 51.95 5 58.443-10.5s-19.48-33.25-77.924-53.25c-39.34-10.053-70.06-16.303-92.16-18.75s-47.826-2.447-77.175 0z" fill="#7ee081"/><g transform="translate(57.771)" class="B C J"><path d="M.23 49.232c2.18-14.72 20.998-38.77 34.377-44.428 3.522-1.49 7.2-2.63 10.954-3.404 2.408-.497 6.42-2.65 7.366-.378 6.942 16.672-25.69 43.698-38.152 47.263-1.1.312-.267-2.36.187-3.4 1.346-3.08 2.813-6.236 5.1-8.7C31.77 23.57 47.057 8.21 65.2 4.804c1.61-.302 4.3-1.516 4.912 0 4.93 12.003-6.625 31.57-17.565 37.242-4.803 2.5-10.968 10.696-14.733 6.808-3.622-3.74 5.23-9.14 8.878-12.856 6.948-7.08 14.53-13.605 22.664-19.282 4.253-2.97 9.212-4.9 14.168-6.43 4.322-1.333 8.903-2.477 13.408-2.078 1.234.11 1.377 2.167 1.51 3.4 1.897 17.377-17.6 34.2-31.732 40.27-1.33.573-.467-2.976 0-4.348.586-1.72 1.827-3.17 3.023-4.54 3.225-3.69 6.61-7.25 10.198-10.586 1.78-1.656 3.757-3.12 5.855-4.348 7.174-4.2 14.162-8.905 21.912-11.912 3.656-1.42 8.487-3.372 11.7-1.135 2.535 1.76 1.11 6.384 0 9.265-4.922 12.76-8.74 19.743-18.698 26.655-3.82 2.65-9.048 5.367-13.977 4.917-.618-.056.37-1.218.756-1.704 4.538-5.707 9.075-11.428 13.977-16.825 5.18-5.704 10.55-11.254 16.24-16.447 1.46-1.333 3.18-2.57 5.103-3.026 5.372-1.273 11.36-4.263 16.43-2.078 2.776 1.196.836 6.228-.19 9.074-2.275 6.302-10.99 18.593-16.618 23.064-12.653 10.053-12.427 1.75-6.8-4.348 7.067-7.66 14.063-15.528 22.286-21.93 2.766-2.153 6.56-2.602 10.01-3.213 2.666-.472 5.664-1.136 8.122 0 1.465.677 1.534 2.932 1.698 4.54.347 3.386 1.085 7.052-.187 10.208-4.502 11.17-17.492 24.318-29.843 25.142" stroke="#ff8100"/><g stroke="#001c6c"><path d="M135.23 67.942c2.33 4.16 4.2 8.62 6.988 12.478 7.165 9.88 22.087 6.3 23.797-5.86.763-5.43.504-10.965.378-16.447-.006-.252-.504 0-.756 0M143.5 160.865c17.15 16.082 32.735 2 48.92-8.32"/></g><g stroke="#ff8100"><path d="M185.563 177.478c8.336 3.503 6.58 1.255 10.763 12.478 1.672 4.486 3.27 9.067 3.97 13.803.636 4.3.752 8.76 0 13.043-1.385 7.882-18.685 11.894-23.045 5.104-6.8-10.588-8.516-16.252-9.63-28.924-.233-2.648-1.052-6 .756-7.94 1.5-1.616 5.014-1.52 6.6 0a33.11 33.11 0 0 1 8.874 14.747c1.88 6.682 1.624 13.87 1.134 20.795-.443 6.246-11.908 16.898-17.374 9.265-4.354-6.08-6.336-13.014-6.988-20.42-.597-6.78-1.635-13.727-.378-20.416 2.078-11.06 6.067 1.215 6.6 5.67.887 7.26 1.268 14.654.565 21.933-.568 5.887-2.55 11.568-4.343 17.203-.488 1.533-1.317 3.02-2.454 4.157s-2.582 2.127-4.156 2.46c-1.852.393-4.098.68-5.668-.378-1.564-1.056-2.238-3.228-2.454-5.104-1.497-13-2.832-26.063-2.645-39.136.016-1.1 2.998-1.633 3.214-.565 2.933 14.514-.74 22.925-7.18 35.92-1.263 2.55-6.5 8.84-10.767 6.617-6.914-3.612-2.398-34.7 4.912-38.945.6-.35 1.952-.872 2.076-.187 2.115 11.644-4.408 23.754-12.652 31.572-1.92 1.82-15.4 7.648-16.8 4.157-4.758-11.713-.52-33.305 10.198-40.646.735-.503 2.5-1.258 2.645-.378 2.782 16.72-4.573 18.166-18.32 29.872-2.237 1.905-5.948 6.994-7.557 4.535l-3.588.756c-6.15-9.4 17.274-26.34 17.755-40.455.045-1.328-1.153 2.45-2.08 3.4-4.012 4.118-8.435 7.814-12.652 11.72m89.166-85.96c3.64 1.55 2.872.555 4.698 5.518.73 1.984 1.427 4 1.733 6.104.278 1.902.328 3.875 0 5.768-.605 3.486-8.156 5.26-10.06 2.257-2.968-4.683-3.717-7.187-4.203-12.792-.102-1.17-.46-2.65.33-3.5.655-.715 2.2-.672 2.886 0a14.68 14.68 0 0 1 3.873 6.522c.82 2.955.7 6.134.495 9.196-.193 2.762-5.198 7.473-7.584 4.097-1.9-2.7-2.766-5.755-3.05-9.03-.26-3-.714-6.07-.165-9.03.907-4.9 2.648.537 2.886 2.507.387 3.2.553 6.48.247 9.7-.248 2.604-1.113 5.116-1.896 7.608-.213.678-.575 1.335-1.07 1.838s-1.127.94-1.814 1.088c-.8.174-1.8.3-2.474-.167s-.977-1.428-1.07-2.257c-.654-5.744-1.236-11.526-1.155-17.308.007-.48 1.3-.722 1.403-.25 1.28 6.42-.323 10.14-3.134 15.885-.55 1.127-2.842 3.9-4.7 2.926-3.018-1.597-1.047-15.346 2.144-17.224.262-.154.852-.385.906-.083.923 5.15-1.924 10.505-5.523 13.963-.838.805-6.718 3.382-7.337 1.838-2.077-5.18-.227-14.73 4.452-17.975.32-.223 1.1-.556 1.155-.167 1.214 7.394-1.996 8.034-7.997 13.2-.976.842-2.596 3.093-3.3 2.006l-1.566.335c-2.685-4.157 7.54-11.65 7.75-17.9.02-.587-.503 1.083-.908 1.504-1.75 1.82-3.682 3.456-5.523 5.184"/></g></g></g></g></g><g transform="matrix(-1 0 0 1 314 1235)"><path d="M56.142 79.815c-1.5-26.347 21.8-33.052 28.26-8.8 4.928 18.502-21.933 20.257-30.4 8.8" class="I"/><path d="M90.432-.032c8.98 0 18.1.65 27.356 1.948l1.737.25c3.665.545 6.56 3.393 7.16 7.046 2.742 16.663 3.852 33.64 3.332 50.934 2.413 1.752 5.596 1.35 9.55-1.202-.434-16.88.688-33.456 3.366-49.732.585-3.557 3.344-6.35 6.872-7l.288-.048 1.737-.25c9.257-1.3 18.376-1.948 27.356-1.948l2.11.01c11.795.108 35.638 1.064 71.53 2.866 3.81.19 7.136 2.62 8.486 6.165l.105.3.353 1.04c5.36 15.976 8.04 33.823 8.04 53.543 0 18.816-2.497 35.197-7.5 49.145-1.767 4.937-6.367 8.284-11.6 8.47l-.334.008-5.137.042c-10.095.066-19.113.03-27.057-.106l-4.58-.08-56.143-.02c-6.104.035-11.366-4.24-12.6-10.182l-.062-.32-.292-1.634c-1.456-8.29-2.606-16.887-3.45-25.794-4.092-4.4-8.298-4.74-12.617-1.023-1.175 10.682-2.967 21.337-5.375 31.968l-.413 1.796c-1.31 5.617-6.22 9.662-11.99 9.874l-25.545.906-29.112.85-3.727.068-28.5.07-2.58-.023c-5.34-.05-10.088-3.41-11.907-8.43C2.975 101.993-.192 83.464-.192 63.88c0-19.72 2.68-37.567 8.04-53.543L8.2 9.3c1.276-3.703 4.677-6.258 8.59-6.455l12.105-.598L90.432-.032zm-10.78 10.106l-1.677.063c-10.665.44-25.613 1.814-44.842 4.12l-3.127.378a4.27 4.27 0 0 0-3.726 3.841l-.244 2.62c-3.882 42.53-2.7 72.016 3.575 88.46 2.78 7.297 30.108 8.367 81.984 3.21l.47-3.98c2.766-23.872 4-41.383 3.702-52.534l-.013-.455c-.364-11.728-1.75-26.255-4.157-43.58-9.416-1.823-20.063-2.536-31.942-2.14zm98.324 1l-1.15-.035c-11.15-.31-17.418.408-18.803 2.156l-.322 2.325c-2.208 16.158-3.486 29.787-3.833 40.887l-.028 1.073c-.255 11.617 1.052 28.675 3.922 51.174 53.966 2.993 82.338.87 85.116-6.364 6.374-16.6 6.568-44.27.582-83.005a4.25 4.25 0 0 0-3.818-3.579l-9.448-.85c-24.62-2.184-42.025-3.444-52.217-3.782z" fill="#f3a712"/><path d="M105.375 12.52l194.25 13.53c1.9 7.445 2.96 45.128 3.182 113.05l-3.182 71.112c-66.5 9.52-152.25 9.52-257.25 0C38.9 144.727 59.457 79.486 104.017 14.49l1.358-1.97z" fill="#fb3640"/><g class="K B C J"><path d="M196 189.7c20.95-9.986 31.325-8.537 51.252 2.516M45 162.516c20.95 9.986 31.325 8.537 51.252-2.516"/><path d="M116.935 16c-.215 12.262-7.018 58.715 6.237 76.594C155.716 136.492 239.12 190.524 289 144.33"/><path d="M122.38 117.306c3.16-8.323 5.434-15.533 15.343-20.922 5.495-2.99 12.626-1.964 18.752-.698 5.262 1.087 10.542 3.637 14.26 7.516 16.62 17.346 1.243 43.32-18.91 46.65-7.4 1.222-27.04 3.848-31.383-6.5" fill="#ff4445"/><path d="M169 20c15.666 46.232 31.98 83.602 75.24 106.822 14.95 8.025 49.843 26.862 64.76 8.18M234 12c10.944 51.387 25.84 109.575 80 119"/></g></g><g transform="translate(726 470)"><g transform="translate(0 94)"><mask id="P" class="F"><use xlink:href="#G"/></mask><g mask="url(#P)"><g transform="matrix(-1 0 0 1 362 45)"><path d="M189.382 290.843c.544 3.833 1.017 9.454 1.452 15.62-12.24.813-24.63.49-37.012-.4 6.96-23.214 10.734-44.6 14.878-73.652.808-5.662 1.337-11.37 1.8-17.09l5.352-.26a23.87 23.87 0 0 0 1.285-.094c3.378 25.386 8.65 50.502 12.247 75.862zM189 211.648c.707 3.076 1.37 6.19 1.987 9.333l.294 1.514.234.422.137.243 1.907 1.72c15.176 13.602 31.053 26.414 46.93 39.2l2.507 2.02c2.647 2.132 5.56 4.003 8.677 5.356 6.406 2.78 13.033 5.015 19.6 7.396-7.284 4.374-15.285 8.436-24.193 13.01-4.758 2.442-9.586 4.526-14.475 6.294-4.494-6.696-9.078-13.342-13.1-20.322-4.94-8.575-8.794-17.752-13.295-26.564l-.617-1.193.8 1.935c3.55 8.702 6.655 17.596 10.382 26.223l.945 2.15c2.486 5.556 5.347 10.973 8.677 16.07l2.082 3.115c-10.054 3.256-20.345 5.242-30.768 6.32.685-24.142-.85-50.372-4.97-75.213l-.262-1.557-.992-1.4-9.86-13.54.945-.248c2.715 3.082 5.56 6.043 8.597 8.797h0l.19.17-.058-.31-.018-.1-.635-1.146c-1.553-2.826-3.043-5.684-4.39-8.61.777-.284 1.56-.592 2.347-.92zM162.61 215.7c-.29 8.155-.818 16.077-2.846 25.65l-4.714 22.18-.307 1.672-6.2 33.29c-.526 2.798-1.012 5.116-1.46 7.05l-1.116-.098-.006.032 9.1-41.946.5-2.705c14.87-80.97-4.287 12.228-10.364 44.563l.003-.012c-8.925-.8-17.826-1.823-26.64-2.85 1.266-2.09 2.502-4.195 3.693-6.327 9.5-17.006 18.517-34.288 27.063-51.79 1.77-3.624 2.804-7.576 3.828-11.476 1.49-5.676 3.15-11.34 4.36-17.083l5.082-.147zm-11.847.124l-.267.796c-16.118 48.39-2.922 26.504-32.532 85.83l-10.02-1.154-7.992-5.99 19.48-33.295c3.36-5.75 6.645-11.564 9.446-17.606 4.463-9.626 8.216-19.57 12.413-29.315 3.15.417 6.29.64 9.472.73zm-19.176-2.666l-1.3 3.038-19.528 47.602c-3.5 7.934-7.528 15.635-11.742 23.215l-3.016 5.33-1.323-1c-3.618-.786-7.965-2.267-12.684-4.226 11.066-14.4 21.847-29.03 31.318-44.502 5.93-9.687 10.87-19.913 15.602-30.255a70.41 70.41 0 0 0 2.682.788zm-10.816-4.043l-.42.707-3.22 5.252c-4.82 7.67-10.594 14.717-15.317 22.446-7.03 11.505-12.728 23.797-19.913 35.206-2.36 3.745-4.79 7.442-7.267 11.1-9.918-4.728-20.588-10.906-29.224-16.842 16.427-10.98 31.546-23.952 44.152-37.893 7.82-8.647 15.158-17.707 22.452-26.808 2.485 2.696 5.378 5.014 8.757 6.82zm85.244-7.458c4.468 2.853 8.83 5.898 13.235 8.823 4.848 3.22 9.022 7.368 13.784 10.713 6.99 4.9 14.17 9.555 21.445 14.033 4.475 2.754 8.995 5.487 13.784 7.65 7.66 3.46 15.448 6.73 23.488 9.187l8.006 2.34a89.96 89.96 0 0 1-14.609 14.871c-21.676-17.153-44.202-33.24-65.9-50.374-5.863-4.63-11.52-9.52-17.067-14.526a93.63 93.63 0 0 0 3.225-2.267zm-14.66 21.237l.245 1.3.878 4.922.26.37c2.913 4.132 5.74 8.32 8.384 12.63 1.523 2.48 2.936 5.023 4.284 7.6l.185.358-.098-.236a182.65 182.65 0 0 0-2.839-6.45c-3.022-6.5-6.728-12.66-10.262-18.907l-.743-1.32-.295-.266zm-84.62-27.82l-1.513.995c-34.843 22.893-54.28 33.863-78.603 53.236-6.34-9.888-11.244-23.552-14.452-33.2 2.294-.902 4.603-1.763 6.935-2.56 11.467-3.923 23.742-5.392 34.972-9.95l47.796-19.433c1.298 3.833 2.9 7.523 4.865 10.914zm123.76-26.563c21.354 3.326 53.665 3.466 62.533 4.212 12.726 1.07 25.295 3.717 38.036 4.593.3.02 1.702.047 3.844.058-.357 5.722-1.056 11.08-2.312 14.995a142.03 142.03 0 0 1-1.764 5.151c-13.638-3.277-27.143-7.123-40.87-10.002-11.465-2.405-26.823-4.678-42.447-7.867l-.994-.204 1.37.576c26 10.922 52.307 21.72 79.935 25.14-5.916 14.032-13.836 27.78-21.852 40.32-6.695-4.046-13.1-8.594-19.84-12.552-11.698-6.86-23.828-12.974-35.488-19.9-3.674-2.182-7.14-4.716-10.467-7.398-6.817-5.496-13.203-11.528-19.897-17.17 3.697-4.317 6.652-8.8 8.435-13.187 5.795 1.558 11.764 2.922 17.708 4.15l.096.02-1.606-.675-15.208-6.33a22.3 22.3 0 0 0 .773-3.802zm-132.552-.6l-.242.09-.988.385c-28.317 11.248-56.33 23.26-84.25 35.46l-3.78 1.663c-2.87-8.925-5.123-18.823-6.615-29.054 9.843-.806 19.742-1 29.545-2.2 10.624-1.29 21.2-3.12 31.655-5.356 11.28-2.41 22.426-5.426 33.613-8.25.302 2.368.648 4.802 1.062 7.264zm2.793 12.612l-3.678 1.43c-56.093 21.84-92.686 36.25 3.504-1.778l.068-.026.106.373zm-81.38-42.238c19.804 5.005 39.87 8.987 59.992 12.502 5.544.968 11.112 1.805 16.696 2.525l.07.727.087.825.498 4.334c-4.606.49-9.202 1.062-13.777 1.79-27.4 4.365-54.003 10.576-80.938 14.893C-.08 161.4-.622 146.298.78 132.345c6.1 2.252 12.274 4.347 18.578 5.94zm312.22-32.654c.987 3.52-.275 7.324 0 10.97.46 6.076 1.333 12.118 2.048 18.17l-1.28.192c-7.283 1.05-14.74.864-21.956 2.3-9.515 1.892-18.534 5.92-28.08 7.65-16.953 3.075-34.24 4.03-51.245 6.78-.06-2.465-.164-4.935-.29-7.402l.03-.012c34.268-14.592 47.357-20.677 48.38-21.832l.032-.078-5.2 1.955-43.45 16.226-.066-1.114c21.736-8.302 48.33-18.076 48.743-17.136l-.03.07 2.104-.8 49.472-18.67.786 2.723zm-238.04 22.317l2.32.964c-1.07-.184-2.675-.316-5.02-.577l6.898 2 .001-.016c.002-.286-.052-.512-.18-.697l.02.008 1.372.577-.198.422-1.015-.294-.003.096c-.027.5-.196 1.14-.427 2.026l-47.058-15.856L14.15 104.05l1.723.912c6.22 3.293 12.444 6.584 18.8 9.598 10.812 5.128 22.088 9.23 32.934 14.286 8.14 3.793 15.73 8.736 24 12.244l4.115 1.677c-.07 1.545-.085 3.272-.02 5.2a188.84 188.84 0 0 1-5.884-1.009c-14.077-2.65-28.117-5.668-41.864-9.692-26.668-7.806-38.874-12.41-45.734-15.252.515-2.818 1.12-5.564 1.822-8.22.797-3.017 2.565-7.042 4.896-11.574l5.215 1.832-.6-.323-4.232-2.228.988-1.868.02.006c8.943 2.2 7.225 1.23.6-1.12l1.556-2.817-.01-.005 81.085 32.25zm210.778-75.57l-.69.515-6.21 4.768-.228.183.26-.168 7.46-4.596c7.52 8.97 13.838 19.14 18.985 30.86-7.625 3.446-15.208 6.98-22.69 10.72-46.3 23.134-38.88 21.575-70.828 42.633l-.143-2.33c-.13-2.197-.627-6.882-1.535-11.796 9.95-9.265 20.574-17.812 30.378-27.235 11.147-10.713 21.175-22.558 32.423-33.164 1.58-1.5 3.223-2.912 4.903-4.288l.785-.638-1.187.765c-1.924 1.253-3.82 2.545-5.674 3.9l-1.38 1.03c-9.937 7.545-18.473 16.786-28.08 24.746-10.313 8.545-21.58 15.92-31.655 24.746l.505-.437-2.614 3.605-.302-1.015 2.4-2.153.505-.437 1.017-1.403 45.08-63.82-1.228 1.38-52.067 57.98c-2.01-2.857-4.116-5.41-6.312-7.684l11.982-30.66 2.378-5.652.694-1.58-.116.202c-6.31 10.912-13.168 21.508-20.58 31.668l-.43.588a51.34 51.34 0 0 0-4.977-3.375c2.892-7.516 5.677-15.08 8.008-22.78l.023-.082-.184.367c-1.45 2.863-2.94 5.714-4.127 8.68l-.347.893c-1.552 4.13-2.497 8.484-3.654 12.754-6.176-3.625-12.905-5.835-20.183-7.077.272-1.75.484-3.477.606-5.167 1.775-24.623 9.393-51.66 9.617-77.796 7.012-.078 14.1.014 21.275.244 3.964.127 7.7.856 11.27 1.97l-2.535 16.91L228.41 2.55c8.655 2.877 16.484 7.925 24.793 12.006l.852.42-3.5 8.13-.487 1.092.817-1.553 3.107-6.06.65-1.316c11.347 5.666 21.533 11.87 30.585 18.927l-9.42 13.17 2.412-2.71c2.644-2.98 5.39-5.905 7.656-9.182a20.48 20.48 0 0 0 .325-.486l.01-.018c6.653 5.282 12.683 11.04 18.1 17.405zM37.187 56.642C55.113 72.492 67.52 82.208 87 102.82c5.45 5.764 10.747 11.667 15.985 17.624l-2.462 6.075-.07-.025-87.23-32.15c7.95-13.89 18.562-29.594 22.72-35.912a52.98 52.98 0 0 1 .873-1.285zM69.4 30.608c2.305 3.176 4.563 6.383 6.63 9.715 12.5 20.15 26.726 39.488 38.85 59.876-3.446 3.43-5.82 7.02-7.798 10.9-1.086-1.033-2.086-1.937-2.968-2.663-35.392-29.16-21.125-16.05 2.07 4.483l-.522 1.15.022.02-67.93-58.224c8.03-10.777 19.935-18.605 31.44-25.14zm31.556-14.817l.35 1.57c4.52 19.565 10.69 38.718 16.596 57.9 1.505 4.9 3.415 9.667 5.618 14.286.442.927.912 1.843 1.402 2.75a72.68 72.68 0 0 0-3.304 2.273l-.01-.012-9.75-12.325-.166-.306c-3.023-5.47-10.53-17.557-25.77-40.773l-2.23-3.393c-2.43-3.694-5.068-7.243-7.816-10.712a217.31 217.31 0 0 1 24.318-10.982zm33.05-9.59c4.37 22.752 9.544 50.068 10.7 67.798.203 3.118.516 6.26.877 9.418-5.442 1.26-10.633 3.246-15.558 5.876-.983-8.21-1.757-16.467-3.7-24.48-4.44-18.325-10.6-36.2-16.596-54.08l.597 1.78c7.392-2.4 14.847-4.395 22.377-6.033zm-22.642 75.428l.493.615.236.43c8.43 15.704-28.542-35.72-.73-1.046zM186.338.213l-.53 35.516-2.13 47.094c-6.405-1.008-13.228-1.294-20.464-1.155-.196-10.626-.432-23.356-2.936-44.666-2.265-19.28-2.647-28.68-3.385-34.587C166.313 1.266 175.863.57 185.558.24zm38.54 19.144l-.622 2.89c-2.903 13.4-6.003 26.775-9.6 40.01l-.98 3.468-.49 1.645.25-.492c1.582-3.153 3.076-6.337 4.028-9.72 3.338-11.86 5.4-24.375 7.28-36.89l.137-.915zm25.19 4.84l-13.457 25.564c-1.822 3.66-3.566 7.36-5.225 11.097l-.128.29.74-1.288c6.546-11.437 12.496-23.214 17.86-35.193l.21-.472z" fill="#54e375"/><g class="D"><g class="G"><path d="M181.663 89.394a2.66 2.66 0 1 1 2.011 4.928l-1.422.57-1.302.507-2.086.796.073.036c.715.38 1.29 1.054 1.433 1.96l.023.202.022.024c.51.59.936 1.322 1.266 2.205l.038.107.13-.023.605-.076.18-.01a3.07 3.07 0 0 1 .961.101c1.12.302 2.125 1.225 2.02 2.8a2.67 2.67 0 0 1-.516 1.422 2.94 2.94 0 0 1-.46.502c-.185.16-.376.294-.595.426l-2.087 1.272-2.902 1.785-.12.08-.224.14-.254.148-6.48 3.998-5.657 3.406-.193.104-.79.404c-2.245 1.116-3.55 1.435-9.803 2.602l-.375.07-.21.082c-1.146.427-2 .537-2.91.265l-.183-.06c-1.73-.61-2.284-2.274-1.86-3.8.105-.376.267-.753.49-1.15l.12-.21-.156-.116a2.71 2.71 0 0 1-1.016-1.964l-.006-.18c0-.412.08-.757.21-1.087.178-.457.44-.86.808-1.318l.108-.132-.06-.01c-1.906-.35-3.286-1.208-3.327-3.2l.001-.217c.04-1.507.852-2.387 2.27-3.36 1.362-.932 3.452-1.964 6.632-3.35l1.164-.503 5-2.124.937-.405 1.913-.87 1.427-.7c2.28-1.095 4.494-2 8.402-3.493l4.316-1.645 2.426-.962zm-7.217 13.744l-.796.274-1.046.344-2.03.64-.106.07c-.96.63-2.108 1.43-3.57 2.472l-.44.313.783-.16 2.036-1.173c1.98-1.13 3.543-1.978 4.87-2.634l.3-.148z"/><path d="M190.356 95.066l2.93-.103c4.024-.11 7.495.078 14.03.663l5.808.528 4.525.34a2.66 2.66 0 0 1 2.18 1.391l.083.166.3.058c.618.128 1.143.265 1.59.422l.216.08c.485.19.9.412 1.276.737.767.663 1.234 1.653 1.004 2.816-.42 2.13-1.8 2.642-5.86 3.45l-.356.067.093.1c.76.76 1.137 1.956.445 3.178l-.1.167a2.48 2.48 0 0 1-1.588 1.152c-.316.087-.594.117-.945.13-.758.03-2.097-.044-3.755-.198l-.336-.032c-4.888-.474-9.456-1.165-13.31-2.117l-.352-.09-3.894-.38c-.31-.03-.647.004-1.38.147l-1 .2c-.34.066-.584.106-.88.144a2.66 2.66 0 0 1-2.983-2.295c-.094-.72.11-1.41.514-1.946l.126-.155-.12-.115c-.507-.503-.9-1.035-1.17-1.598l-.085-.19c-.064-.15-.122-.3-.174-.445l-.086-.252-.97-.07c-.6-.05-1.047-.098-1.36-.15l-.083-.014c-.562-.102-.866-.19-1.357-.558-1.146-.86-1.558-2.604-.414-3.913a2.52 2.52 0 0 1 1.262-.818c.374-.12.783-.18 1.452-.238l.567-.045c.945-.068 2.318-.137 4.17-.2z"/><path d="M152.018 116.46c4.192-17.546 16.246-26.054 31.203-16.895.702.43 1.134 1.133 1.244 1.888l.007.065.103.115c.627.728 1.18 1.593 1.66 2.57l.142.296c1 2.133 1.65 4.763 1.875 6.96.77 7.522.104 18.674-2.367 26.925-3.72 12.417-11.335 18.577-22.766 14.77-10.795-3.595-14.935-20.645-11.1-36.694zm24.5-14.3c-9.207-3.364-16.12 2.655-19.215 15.122l-.098.404c-3.274 13.705.18 27.935 7.606 30.407 8.032 2.675 13.025-1.365 15.986-11.25 2.25-7.51 2.874-17.98 2.17-24.856-.388-3.795-2.048-7.41-3.536-7.58l-.11-.006c-1.24 0-2.284-.85-2.578-2l-.04-.173-.19-.07z"/><path d="M190.496 102.978c-2.766 3.457-4.237 7.382-6.13 15.064l-.495 2.047-.643 2.09a2.66 2.66 0 0 0-.041 1.419l.132.56c.168.742.3 1.498.493 2.612l.404 2.546c.76 4.713 1.365 6.97 2.838 9.614 4.664 8.377 12.19 10.842 19.42 7.378 6.32-3.028 11.076-10.076 11.486-17.326a113.82 113.82 0 0 0 .19-5.447c.036-3.103-.053-6.123-.308-8.95-.766-8.49-2.77-14.056-7.3-15.604-8.88-3.034-15.437-1.62-19.866 3.773l-.183.225zm18.328 1.04c1.67.57 3.143 4.66 3.72 11.045.237 2.627.32 5.473.287 8.41-.023 1.964-.084 3.473-.182 5.21-.3 5.306-3.895 10.634-8.47 12.826-4.676 2.24-9.165.77-12.47-5.167-1.083-1.945-1.577-3.8-2.242-7.93l-.456-2.86-.314-1.727-.164-.77.46-1.487.047-.17.36-1.503c1.807-7.425 3.124-10.993 5.398-13.76 2.926-3.563 7.135-4.47 14.033-2.114z"/><path d="M184.74 108.902a2.66 2.66 0 0 1 .247 5.317l-1.746.085c-17.43.896-22.147 2.618-33.29 12.34a2.66 2.66 0 1 1-3.499-4.01l.766-.665c12.003-10.34 17.955-12.158 37.523-13.068z"/><path d="M184.973 112.2c9.86-6.617 24.69-9.373 34.4-5.272a2.66 2.66 0 1 1-2.071 4.903c-7.87-3.324-20.876-.908-29.363 4.788a2.66 2.66 0 0 1-2.966-4.419z"/></g><path d="M166.154 116.256c1.694 4.205 11.05 20.542 17.534 9.725l1.76-14.685c-9.72 1.282-15.98 2.283-18.778 3.002-1.5.383-1.66 1.035-.515 1.957zm33.894-4.78c1.98 6.5 6.648 19.514 15.772 11.487l-.33-13.92-7.5-1.5-7.932 3.933zM146 160c4.516-16.253 18.092-8.133 42-11 18.778-2.252 30.154-9.716 47 11 1.05 1.292 21.455 16.142 12.442 22.147S196.65 171.222 188 173c-28.938 5.95-43.462 9.147-54.73 9.147-7.5 0-3.268-7.382 12.73-22.147zm16.392 29.732c16.842 18.854 25.438 37.22 36.054 7.145.7-1.985 5.07-12.345 3.004-12.76-5.136-1.033-19.26 5.15-24.46 5.783-4.275.52-8.614.056-12.92.085l-1.678-.252z"/></g></g></g></g><path d="M483.153 45.123C450.8 3.85 389.968-1.702 339.123.37s-68.03 14.45-93.493 54.43-19.786 71.142-5.286 100.66c7.256 14.772 20.272 27.36 36.773 37.392C285.875 198.177 304 201 304 240s23.145-26.588 34.33-24.378c56.014 11.067 119.512 1.746 149.257-34.762 28.255-34.68 10.585-90.107 2.388-125.79l-6.823-9.946z" class="E"/><path d="M360.774 147.896l-42.738-43.02 25.106-25.27 16.4 16.518 26.28-29.098h-63.905C315.9 67.023 311 71.96 311 78.02v65.983c0 6.065 4.9 10.997 10.925 10.997H398.4c6.025 0 10.925-4.932 10.925-10.997V94.136l-48.55 53.76zm-.822-16.282l-26.856-26.925 9.637-9.664 16.75 16.796 49.7-54.82 10.084 9.188z" class="H"/></g><path d="M799 1244.995l232 20V1022l-232-15z" class="D"/><g transform="translate(799 1007)"><mask id="Q" class="F"><use xlink:href="#H"/></mask><use xlink:href="#H" class="D"/><g mask="url(#Q)"><g transform="matrix(-1 0 0 1 327 53)"><g transform="translate(0 .06)"><path d="M213.384 148.694c26.196 0 58.37-1.647 96.525-4.942l9.9-48.598h-42.9l3.3-70.838H42.61L41.157 63.6C13.72 55.956 0 59.548 0 74.375S12.278 98.05 36.834 100.92l8.25 37.9c86.004 6.6 142.104 9.884 168.3 9.884z" class="O"/><path d="M314 128.94l-10 23c-91.333 9.333-146 26.667-164 52-62.667-44.667-95.333-64.667-98-60l2-12c64 32 96 53.333 96 64 13.218-14.668 25.885-24.335 38-29 26.552-10.224 71.885-22.89 136-38z" transform="matrix(-1 0 0 1 356 0)" class="E"/><path d="M250 184.94h-63l2 83 68 1z" class="D"/><g class="I"><path d="M179.588 23.427c-1.184 20.685 17.203 25.95 22.3 6.9 3.9-14.526-17.308-15.904-24-6.9m70.935-3.295c.36 4.402.094 8.9 1.078 13.205 4.27 18.676 27.6.556 15.225-15.048"/></g><path d="M286.155.01c5.085 0-.932 45.388-4.125 54.497-4.05 11.553-13.61 9.06-23.925 9.06-3.278 0-6.092-.108-8.565-.393-5.37-6.5-12.733-13.962-20.5-20.102h0l1.152 6.71-.676-1.047-.804-1.3c-6.252 15.778-18.845 20.25-34.122 20.25-35.326 0-49.424-26.91-43.77-67.676h135.346zM215.96 18.395h-47.727l-.015.234c-.69 11.187.86 19.508 4.34 25.023l.185.288.176.264c4.164 6.142 11.568 9.345 23.312 9.345 8.66 0 14.394-6.03 17.832-21.05l.1-.5c.568-2.67 1.125-6.756 1.654-12.192l.102-1.07.03-.345zm56.69 0h-35.354l.017.07c5.334 21.873 12.52 30.59 26.47 30.954l.425.008.5.003c.5 0 .76-.106 1.23-.553 1-.94 2.075-2.8 3.073-5.646 1.896-5.4 3.123-13.368 3.596-23.762l.045-1.074z" fill="#fb3640" class="G"/><g class="B C K M"><path d="M234.53 52.97c16.595 13.102 31.305 32.176 28.784 35.322-3.3 4.118-15.235 4.966-18.15 3.295-2.342-1.343-1.284.477-1.284 15.834m-45.595-12.88c19.428 14.4 40.993 16.243 62.292 11.87"/></g><g stroke="#001d71" class="B C M"><path d="M219.092 131.53c4.162 16.64 13.984 27.125 24.384 41.052m-7.396-42.864c11.363 35.943 8.837 20.612 11.415 45.194m2.725-42.604c3.396 34.945 2.983 20.413 2.983 43.512m12.06-43.512l-7.782 47.785m18.3-46.49c-.934 16.94-5.402 30.446-13.88 45.063m25.423-46.75c-1.55 16.523-6.262 32.438-17.38 45.325"/><path d="M293.67 149.66c-13.737 18.403-15.397 24.042-35.93 28.878"/></g><path d="M199.674 88.525c-1.244 3.34-3.72 6.634-7.844 6.824" class="B C K M"/></g></g></g></g><path d="M1297.153 1267.286c-32.352 41.272-93.186 46.825-144.03 44.754s-68.03-14.45-93.493-54.43-19.786-71.142-5.286-100.66c4.328-8.81-60.287-29.77-52.344-36.948 5.374-4.857 82.458 3.604 89.117-.444 8.758-5.324 50.028-20.56 61.214-22.77 56.014-11.067 119.512-1.746 149.257 34.762 28.255 34.68 10.585 90.107 2.388 125.79l-6.823 9.946z" class="E"/><path d="M1235.227 1235.186V1247h-91.756v-11.814h91.756zm-47.907-98.327a2.82 2.82 0 0 1 4.054 0h0l7.415 7.637a3.02 3.02 0 0 1 0 4.176h0l-5.523 5.694c.275.266.637.42.854.756h0l19.905 30.757 23.983-14.826c2-1.23 4.502-1.105 6.366.32s2.713 3.863 2.15 6.178h0l-11.47 47.254c-.637 2.63-2.93 4.47-5.563 4.47h0-80.287c-2.632 0-4.926-1.843-5.563-4.47h0l-11.47-47.254c-.568-2.315.28-4.755 2.15-6.178 1.858-1.418 4.37-1.548 6.36-.32h0l23.99 14.826 19.905-30.757c.218-.337.573-.5.854-.756h0l-5.528-5.694c-1.113-1.146-1.113-3.03 0-4.176h0z" class="D"/><g transform="matrix(-1 0 0 1 524 871)"><path d="M255.153 45.123C222.8 3.85 161.968-1.702 111.123.37S43.094 14.82 17.63 54.8s-19.786 71.142-5.286 100.66c7.256 14.772 20.272 27.36 36.773 37.392C57.875 198.177 71 205 34 216s65.145-2.588 76.33-.378c56.014 11.067 119.512 1.746 149.257-34.762 28.255-34.68 10.585-90.107 2.388-125.79l-6.823-9.946z" class="H"/><path d="M20 24H4c-2.208 0-4 1.867-4 4.167v41.667C0 72.133 1.792 74 4 74h16c2.208 0 4-1.867 4-4.167V28.167c0-2.3-1.792-4.167-4-4.167m73.04-1.97c-.785-.937-1.947-1.476-3.174-1.476h-24.8V4.1c0-2.27-1.848-4.1-4.133-4.1h-12.4a4.13 4.13 0 0 0-3.794 2.487L32 28.778v38.96l15 5.965a4.17 4.17 0 0 0 1.533.296H81.6c2 0 3.712-1.422 4.067-3.38l8.266-45.222a4.08 4.08 0 0 0-.893-3.367" transform="matrix(-1 0 0 1 191 73)" class="F"/></g></g></svg>