<svg xmlns="http://www.w3.org/2000/svg" xmlns:xlink="http://www.w3.org/1999/xlink" width="1653" height="1562" xmlns:v="https://vecta.io/nano"><style><![CDATA[.B{stroke-linejoin:round}.C{stroke-linecap:round}.D{fill:#001c6c}.E{fill:#0d62fe}.F{stroke-width:5.322}.G{stroke:#212121}.H{stroke-width:7.451}.I{stroke-width:5.855}.J{fill:#fb3640}.K{fill:#212121}.L{fill:#ffa300}.M{stroke-width:6.813}.N{fill-rule:nonzero}]]></style><defs><path id="A" d="M0 331l292-3.798V0L0 15.42z"/><path id="B" d="M0 354l331-4.29V0L0 17.415z"/><path id="C" d="M0 278.42L291 292V2.043L0 0z"/><path id="D" d="M82.446 26.024c-.497 7.91 7.22 9.924 9.36 2.643 1.632-5.555-7.264-6.082-10.068-2.643"/></defs><g fill="none" fill-rule="evenodd"><path d="M1146 775l232-3.017V512l-232 12.252V775zm-352 3l232-3.005V530l-232 12.2V778zm0 356.203L1026 1145V900.625L794 899v235.203zM446 783l232-3.016V548l-232 12.246V783zm0 334.164L678 1128V896.63L446 895v222.164zm988.636-1001.42l-116.364 13.094V0L1201.91 15.41v316.3l-116.364 9.62V155.024l-349.09 39.28V77.053L620.09 92.463v287.34l-116.364 9.62v-168.93l-116.364 13.094C323.17 240.773 271 295.1 271 354.666v809.89c0 59.483 52.17 111.983 116.364 116.9l1047.273 80.242c64.146 4.915 116.364-51.034 116.364-124.554V236.12c0-73.62-52.217-127.64-116.364-120.376z" class="E"/><path d="M1633.153 379.123c-32.352-41.272-93.186-46.825-144.03-44.754s-68.03 14.45-93.493 54.43-19.786 71.142-5.286 100.66c7.256 14.772 20.272 27.36 36.773 37.392C1435.875 532.177 1449 539 1412 550s65.145-2.588 76.33-.378c56.014 11.067 119.512 1.746 149.257-34.762 28.255-34.68 10.585-90.107 2.388-125.79l-6.823-9.946z" fill="#011638"/><g transform="matrix(.978148 -.207912 .207912 .978148 1446.97697 405.665971)"><path d="M91 55V30C91 13.43 77.57 0 61 0S31 13.43 31 30v25c0 8.285-6.72 15-15 15v5h90v-5c-8.28 0-15-6.715-15-15" class="E"/><path d="M17.914 31.987C14.616 59.48 21.4 50.668 5.123 62.805m.007-21.878c-.915 6.52.38 3.444-4.482 8.95m101.68-16.54c-.54 12.154-2.2 22.317 4.792 25.555l9.78 2.08m-3.226-22.41l6.348 8.506" stroke="#0d62fe" stroke-width="6.322" stroke-linecap="square" class="B"/><path d="M44 80c3.42 5.95 9.715 10 16.998 10S74.576 85.95 78 80H44z" class="E"/></g><path d="M9.417 809.055l99.314 23.162c2.254.515 3.944 2.4 4.227 4.666s-.907 4.488-2.98 5.53l-28.205 14.194-2.884 28.477c-.23 2.29-1.886 4.188-4.125 4.747-2.244.568-4.616-.326-5.917-2.22l-.856-.865 5.705-21.734c.24-2.83-1.173-5.548-3.645-7L45.542 843.63l19.586 18.75c1.39 1.334 1.97 3.296 1.538 5.157l-8.932 38.234c-.516 2.235-2.407 3.91-4.703 4.2-2.3.273-4.528-.903-5.584-2.954L.793 816.71a5.36 5.36 0 0 1-.548-1.065c-.488-1.265-.185-3.197.372-4.527.688-1.64 3.622-2.328 8.8-2.064z" fill="#00c15a"/><path d="M87.364 896.782c1.592 8.595 18.334 27.846 23.9 32.86 33.66 30.314 38.788 42.326 79.55 45.938 10.7.948 46.163 8.665 62.367-4.105 1.94-1.53 4.14-3.24 4.853-5.607 9.696-32.154-61.7-53.917-49.673-7.464 1.203 4.652 5.16 8.2 8.588 11.577 3.748 3.682 7.96 7.073 12.7 9.335 6.36 3.035 13.25 4.984 20.165 6.347 10.832 2.135 21.873 3.088 32.866 4.105 9.186.85 18.412 1.324 27.636 1.494 17.797.328 35.606.445 53.4 0 2.175-.054 4.236-.996 6.354-1.494" stroke="#001c6c" stroke-dasharray="20" class="B C F"/><path d="M581.847 305.123c32.352-41.272 93.186-46.825 144.03-44.754s68.03 14.45 93.493 54.43 19.786 71.142 5.286 100.66c-7.256 14.772-20.272 27.36-36.773 37.392C779.125 458.177 761 461 761 500s-23.145-26.588-34.33-24.378c-56.014 11.067-119.512 1.746-149.257-34.762-28.255-34.68-10.585-90.107-2.388-125.79l6.823-9.946z" fill="#fff"/><path d="M730.205 353.817L721.022 363 694 335.978l9.183-9.183c2.394-2.394 6.263-2.394 8.656 0l18.366 18.366c2.394 2.394 2.394 6.263 0 8.656h0zm-43.063 43.37c-1.207 1.207-2.792 1.814-4.377 1.814s-3.17-.607-4.377-1.814l-18.572-18.573c-2.42-2.42-2.42-6.333 0-8.754L687.674 342 715 369.327l-27.858 27.86zm68.04-61.802c2.424-2.424 2.424-6.342 0-8.767l-24.8-24.8c-2.424-2.424-6.342-2.424-8.767 0-3.546 3.546-12.486 3.546-16.033 0-2.424-2.424-6.342-2.424-8.767 0l-61.998 61.998c-2.424 2.424-2.424 6.342 0 8.767 3.745 3.745 3.745 12.288 0 16.033-2.424 2.424-2.424 6.342 0 8.767l24.8 24.8c2.424 2.424 6.342 2.424 8.767 0 3.546-3.546 12.486-3.546 16.033 0 1.21 1.21 2.796 1.817 4.383 1.817s3.174-.608 4.383-1.817l61.998-61.998c2.424-2.424 2.424-6.342 0-8.767-3.745-3.745-3.745-12.288 0-16.033h0z" class="J"/><path fill="#fff" d="M1146 775l232-3.017V512l-232 12.252z"/><g transform="translate(1086 444)"><mask id="E" fill="#fff"><use xlink:href="#A"/></mask><g mask="url(#E)"><g transform="translate(75 47)"><g fill="#f06aa6"><path d="M200.666 27.648C195.777 136.25 77.22 176.518 153 247.293c18.11 16.913-99.3 17.15-89.224 0 53.78-91.52-2.444-111.043-1.222-209.884.144-11.656 1.798-22.59 4.73-32.63 59.02-1.665 102.26-.143 129.717 4.564 2.184.374 3.406 6.476 3.667 18.304z"/></g><g stroke="#ffc415" class="B C M"><path d="M216.533 14.893c-6.495 28.137-18.85 56.982-21.24 85.883-1.732 20.946-.774 42.03-1.16 63.045m14.934-149.86C194.5 50.5 188.85 83.388 187.474 122.882c-1.08 31.03-4.192 23.453 2.012 36.285m-.02-122.867c-13.676 56.285-14.304 74.472-4.73 132.174m-.87 6.516c-33.92-30.382-19.7-83.438-10.622-121.004"/></g><path d="M118.105 26.993c2.064 10.16 1.502 16.97-1.684 20.43-16.923 18.383-23.51 25.455-42.54 51.63-.26.358-.183 1.296.26 1.3 2.1.02 4.468-.048 6.208-1.236 12.208-8.333 21.644-20.994 35.16-27.002 18.193-8.087-3.395 17.564-9.905 17.564s18.807 11.572 44.847-2.17-22.423 16.634-38.337 15.188 6.5 13.018 0 32.545" stroke-width="4.258" class="B C G"/><g stroke="#ffc415" class="M B C"><path d="M72.8 46.54C61.847 75.576 47.188 146.32 4.045 154.504c-.547.104-.83-.738-1.245-1.107M66.267 26.993C56.35 76.024 41.7 119.35.933 147.998M60.667 8.377C48 54.035 41.6 103.683 2.8 134.966M47.6 10.24C35.895 59.205 34.6 91.426 0 125.658"/></g><path d="M199.904.405c5.3 0-3.18 32.548-6.502 40.065-2.808 6.356-10.542 9.593-23.2 9.713-14.01.43-23.75-2.76-29.222-9.57a47.04 47.04 0 0 1-.836-1.072c-6.503 13.02-19.602 16.71-35.49 16.71-36.744 0-51.41-22.206-45.528-55.848h140.78zM135.04 12.832l-62.492-.873-.018.224c-.83 10.725 1.037 18.702 5.23 23.99l.223.276.212.253c5.02 5.888 14.386 8.96 28.544 8.96 10.44 0 22.755-4.38 26.9-18.78l.133-.478c.685-2.56.468-7.005 1.106-12.215l.123-1.025.038-.33zm54.985 1.053h-45.34l.022.065c-.022 20.397-.022 28.822 33.945 28.81l.545.008.64.003c.64 0 .974-.1 1.577-.514 1.27-.876 2.66-2.606 3.94-5.255 2.432-5.035 4.006-12.443 4.61-22.117l.057-1z" transform="matrix(-1 0 0 1 259.466652 0)" class="D N"/><g class="K"><use xlink:href="#D" transform="matrix(-1 0 0 1 173.73999 0)"/><use xlink:href="#D" x="57.284" transform="matrix(-1 0 0 1 288.30665 0)"/></g><g fill="#ff0034"><path d="M23.222 266.83c5.99 8.75 31.132 6.483 17.666-11.25s-23.655 2.5-17.666 11.25z" transform="matrix(-1 0 0 1 66.266662 0)"/><path d="M55.434 281.825c6.16 8.445 28.653 3.066 14.8-14.048s-20.962 5.603-14.8 14.048z" transform="matrix(-1 0 0 1 127.86666 0)"/><path d="M98.448 286.857c6.23 8.768 28.635 4.798 14.624-12.972s-20.855 4.204-14.624 12.972z" transform="matrix(-1 0 0 1 213.73332 0)"/><path d="M140.524 281.412c6.336 8.628 27.895 4.136 18.688-11.093s-25.024 2.465-18.688 11.093z" transform="matrix(-1 0 0 1 300.533316 0)"/><path d="M173.94 271.14c6.017 8.534 24.648 4.442 17.748-10.972s-23.765 2.438-17.748 10.972z" transform="matrix(-1 0 0 1 365.866644 0)"/></g></g></g></g><path d="M794 778l232-3.005V530l-232 12.2z" class="D"/><path fill="#011638" d="M794 1134.203L1026 1145V900.625L794 899z"/><path d="M446 783l232-3.016V548l-232 12.246zm0 334.164L678 1128V896.63L446 895z" class="D"/><g transform="translate(695 424)"><mask id="F" fill="#fff"><use xlink:href="#B"/></mask><g mask="url(#F)"><g transform="matrix(.978148 -.207912 .207912 .978148 39.272565 62.076167)"><g transform="translate(0 99.705)"><path d="M198.773.275c53.68 33.443 86.596 113.608 98.75 240.496l.362 3.86c-71.12 19.27-124.642 29.25-160.57 29.933S55.615 265.7 0 245.92c.548-61.27 6.77-105.52 18.668-141.523 6.078-18.393 26.557-51.15 61.437-98.272l.672-.903c45.665 2.44 85.133.402 117.855-4.92l.14-.026z" class="L"/><g transform="translate(43.019 7.934)"><g stroke="#001d71" class="B C H"><path d="M19.303 137.444c24.47 12.58 40.23-3.505 56.727-21m27.533 2.838c3.363 14.523 5.473 23.62 13.802 35.336.2.28-.67.167-1.004.25m16.44-4.76c-16.678-9.896-6.657-2.447-25.346-27.57m59.726 20.427c-22.663-1.538-46.006-9.75-63.242-24.812m65.25 10.653c-11.94 1.7-36.3 13.86-64.748-12.282m63.868-4.887c-31.194 6.273-11.927 3.787-58.22 2.63m-67.275 42.778c13.9-11.06 34.44-23.308 38.068-42.647M62.765 156.83c16.546-10.913 4.903-1.858 23.833-37.263m-5.5 38.233c12.54-24.374 8.4-12.372 13.697-35.54"/><path d="M100.94 155c-9.374-19.037-5.933-8.142-8.196-33.28m26.96 32.362c-14.413-19.465-7.412-7.926-19.195-35.65M34.185 101.04c12.635 7.45 30.106 21.224 43.893 8.832"/><path d="M26.852 117.843c8.04 2.147 48.636 14.15 47.883-6.355"/><path d="M56.64 9.727c-.955 8.64-.955 14.043 0 16.212 6.065 13.784 15.54 9.2 19.48-5.674"/><path d="M82.613 0C64.215 79.44 65.568 119.16 86.67 119.16s28.41-14.05 21.915-42.152L105.34 4.864c9.74 34.046 18.94 35.667 27.597 4.864" class="L"/></g><g stroke="#f06aa6" fill="#f06aa6" class="B H"><path d="M11.186 78.63C6.5 76.217 3.793 74.055 3.07 72.144-.784 61.972 6.995 56.45 20.926 64.038c.54-11.89 5.14-19.184 13.798-21.886s10.28 4.593 4.87 21.886c8.615-1.28 14.026-1.28 16.233 0 7.4 4.283 3.96 14.73-11.363 21.076 7.576 6.485 8.658 13.24 3.247 20.265s-11.905 3.783-19.48-9.727C17.41 108.62 9.02 111.864 3.07 105.38s-3.247-15.402 8.117-26.75z"/><path d="M133.312 73.612c-4.917-2.524-7.755-4.786-8.514-6.786-4.04-10.646 4.122-16.428 18.735-8.488.57-12.444 5.397-20.08 14.48-22.91s10.785 4.806 5.105 22.907c9.04-1.34 14.716-1.342 17.03-.003 7.752 4.48 4.15 15.418-11.926 22.062 7.946 6.786 9.08 13.856 3.402 21.2s-12.5 3.962-20.435-10.177c-11.357 13.577-20.156 16.973-26.4 10.187s-3.403-16.12 8.52-28z" transform="matrix(-.987688 .156434 .156434 .987688 292.798685 -23.043756)"/></g><g fill="#c23362"><ellipse cx="29.449" cy="78.224" rx="10.146" ry="10.133"/><ellipse cx="152.823" cy="71.739" rx="10.146" ry="10.133"/></g></g></g><path d="M198.048 114.123c33.425-5.977 52.093-10.3 56.005-12.97l-7.305-20.265c-34.63 8.106-54.923 12.16-60.875 12.16-3.788-58.904-14.34-88.356-31.655-88.356-5.633 0-12.126 8.106-19.48 24.318-10.28-31.343-21.104-37.288-32.467-17.833S84.955 60.083 84.414 99.532c-17.874-.573-31.132-1.326-39.772-2.26s-15.404-2.34-20.292-4.226v18.644c-.87.9 5.136 2.176 18.018 3.83s25.816 2.81 38.8 3.465c15.692 1.196 54.653-.425 116.88-4.864z" class="D"/></g></g></g><g transform="matrix(-1 0 0 1 1466 1271.06)"><path d="M213.384 148.694c26.196 0 58.37-1.647 96.525-4.942l9.9-48.598h-42.9l3.3-70.838H42.61L41.157 63.6C13.72 55.956 0 59.548 0 74.375S12.278 98.05 36.834 100.92l8.25 37.9c86.004 6.6 142.104 9.884 168.3 9.884z" class="L"/><path d="M42 128.94l10 23c91.333 9.333 146 26.667 164 52 62.667-44.667 95.333-64.667 98-60l-2-12c-64 32-96 53.333-96 64-13.218-14.668-25.885-24.335-38-29-26.552-10.224-71.885-22.89-136-38z" class="E"/><path d="M179.588 23.427c-1.184 20.685 17.203 25.95 22.3 6.9 3.9-14.526-17.308-15.904-24-6.9m70.935-3.295c.36 4.402.094 8.9 1.078 13.205 4.27 18.676 27.6.556 15.225-15.048" class="K"/><path d="M286.155.01c5.085 0-.932 45.388-4.125 54.497-4.05 11.553-13.61 9.06-23.925 9.06-3.278 0-6.092-.108-8.565-.393-5.37-6.5-12.733-13.962-20.5-20.102h0l1.152 6.71-.676-1.047-.804-1.3c-6.252 15.778-18.845 20.25-34.122 20.25-35.326 0-49.424-26.91-43.77-67.676h135.346zM215.96 18.395h-47.727l-.015.234c-.69 11.187.86 19.508 4.34 25.023l.185.288.176.264c4.164 6.142 11.568 9.345 23.312 9.345 8.66 0 14.394-6.03 17.832-21.05l.1-.5c.568-2.67 1.125-6.756 1.654-12.192l.102-1.07.03-.345zm56.69 0h-35.354l.017.07c5.334 21.873 12.52 30.59 26.47 30.954l.425.008.5.003c.5 0 .76-.106 1.23-.553 1-.94 2.075-2.8 3.073-5.646 1.896-5.4 3.123-13.368 3.596-23.762l.045-1.074z" class="J N"/><path d="M234.53 52.97c16.595 13.102 31.305 32.176 28.784 35.322-3.3 4.118-15.235 4.966-18.15 3.295-2.342-1.343-1.284.477-1.284 15.834m-45.595-12.88c19.428 14.4 40.993 16.243 62.292 11.87" class="B C G I"/><g stroke="#001d71" class="B C I"><path d="M219.092 131.53c4.162 16.64 13.984 27.125 24.384 41.052m-7.396-42.864c11.363 35.943 8.837 20.612 11.415 45.194m2.725-42.604c3.396 34.945 2.983 20.413 2.983 43.512m12.06-43.512l-7.782 47.785m18.3-46.49c-.934 16.94-5.402 30.446-13.88 45.063m25.423-46.75c-1.55 16.523-6.262 32.438-17.38 45.325"/><path d="M293.67 149.66c-13.737 18.403-15.397 24.042-35.93 28.878"/></g><path d="M199.674 88.525c-1.244 3.34-3.72 6.634-7.844 6.824" class="B C G I"/><path d="M247 192.94h-63l2 83 68 1z" class="D"/></g><g transform="translate(387 836)"><mask id="G" fill="#fff"><use xlink:href="#C"/></mask><g mask="url(#G)"><g transform="matrix(-.965926 -.258819 -.258819 .965926 360.717073 95.276424)"><path d="M49.854 33.186C10.42 118.144-5.55 177.124 1.944 210.124 63.81 259.34 130.46 277.2 201.9 263.7c38.007-76.176 50.267-125.513 36.78-148.013 32.468 8.5 51.95 5 58.443-10.5s-19.48-33.25-77.924-53.25c-39.34-10.053-70.06-16.303-92.16-18.75s-47.826-2.447-77.175 0z" fill="#7ee081"/><g transform="translate(57.771)" class="B C F"><path d="M.23 49.232c2.18-14.72 20.998-38.77 34.377-44.428 3.522-1.49 7.2-2.63 10.954-3.404 2.408-.497 6.42-2.65 7.366-.378 6.942 16.672-25.69 43.698-38.152 47.263-1.1.312-.267-2.36.187-3.4 1.346-3.08 2.813-6.236 5.1-8.7C31.77 23.57 47.057 8.21 65.2 4.804c1.61-.302 4.3-1.516 4.912 0 4.93 12.003-6.625 31.57-17.565 37.242-4.803 2.5-10.968 10.696-14.733 6.808-3.622-3.74 5.23-9.14 8.878-12.856 6.948-7.08 14.53-13.605 22.664-19.282 4.253-2.97 9.212-4.9 14.168-6.43 4.322-1.333 8.903-2.477 13.408-2.078 1.234.11 1.377 2.167 1.51 3.4 1.897 17.377-17.6 34.2-31.732 40.27-1.33.573-.467-2.976 0-4.348.586-1.72 1.827-3.17 3.023-4.54 3.225-3.69 6.61-7.25 10.198-10.586 1.78-1.656 3.757-3.12 5.855-4.348 7.174-4.2 14.162-8.905 21.912-11.912 3.656-1.42 8.487-3.372 11.7-1.135 2.535 1.76 1.11 6.384 0 9.265-4.922 12.76-8.74 19.743-18.698 26.655-3.82 2.65-9.048 5.367-13.977 4.917-.618-.056.37-1.218.756-1.704 4.538-5.707 9.075-11.428 13.977-16.825 5.18-5.704 10.55-11.254 16.24-16.447 1.46-1.333 3.18-2.57 5.103-3.026 5.372-1.273 11.36-4.263 16.43-2.078 2.776 1.196.836 6.228-.19 9.074-2.275 6.302-10.99 18.593-16.618 23.064-12.653 10.053-12.427 1.75-6.8-4.348 7.067-7.66 14.063-15.528 22.286-21.93 2.766-2.153 6.56-2.602 10.01-3.213 2.666-.472 5.664-1.136 8.122 0 1.465.677 1.534 2.932 1.698 4.54.347 3.386 1.085 7.052-.187 10.208-4.502 11.17-17.492 24.318-29.843 25.142" stroke="#ff8100"/><g stroke="#001c6c"><path d="M135.23 67.942c2.33 4.16 4.2 8.62 6.988 12.478 7.165 9.88 22.087 6.3 23.797-5.86.763-5.43.504-10.965.378-16.447-.006-.252-.504 0-.756 0M143.5 160.865c17.15 16.082 32.735 2 48.92-8.32"/></g><g stroke="#ff8100"><path d="M185.563 177.478c8.336 3.503 6.58 1.255 10.763 12.478 1.672 4.486 3.27 9.067 3.97 13.803.636 4.3.752 8.76 0 13.043-1.385 7.882-18.685 11.894-23.045 5.104-6.8-10.588-8.516-16.252-9.63-28.924-.233-2.648-1.052-6 .756-7.94 1.5-1.616 5.014-1.52 6.6 0a33.11 33.11 0 0 1 8.874 14.747c1.88 6.682 1.624 13.87 1.134 20.795-.443 6.246-11.908 16.898-17.374 9.265-4.354-6.08-6.336-13.014-6.988-20.42-.597-6.78-1.635-13.727-.378-20.416 2.078-11.06 6.067 1.215 6.6 5.67.887 7.26 1.268 14.654.565 21.933-.568 5.887-2.55 11.568-4.343 17.203-.488 1.533-1.317 3.02-2.454 4.157s-2.582 2.127-4.156 2.46c-1.852.393-4.098.68-5.668-.378-1.564-1.056-2.238-3.228-2.454-5.104-1.497-13-2.832-26.063-2.645-39.136.016-1.1 2.998-1.633 3.214-.565 2.933 14.514-.74 22.925-7.18 35.92-1.263 2.55-6.5 8.84-10.767 6.617-6.914-3.612-2.398-34.7 4.912-38.945.6-.35 1.952-.872 2.076-.187 2.115 11.644-4.408 23.754-12.652 31.572-1.92 1.82-15.4 7.648-16.8 4.157-4.758-11.713-.52-33.305 10.198-40.646.735-.503 2.5-1.258 2.645-.378 2.782 16.72-4.573 18.166-18.32 29.872-2.237 1.905-5.948 6.994-7.557 4.535l-3.588.756c-6.15-9.4 17.274-26.34 17.755-40.455.045-1.328-1.153 2.45-2.08 3.4-4.012 4.118-8.435 7.814-12.652 11.72m89.166-85.96c3.64 1.55 2.872.555 4.698 5.518.73 1.984 1.427 4 1.733 6.104.278 1.902.328 3.875 0 5.768-.605 3.486-8.156 5.26-10.06 2.257-2.968-4.683-3.717-7.187-4.203-12.792-.102-1.17-.46-2.65.33-3.5.655-.715 2.2-.672 2.886 0a14.68 14.68 0 0 1 3.873 6.522c.82 2.955.7 6.134.495 9.196-.193 2.762-5.198 7.473-7.584 4.097-1.9-2.7-2.766-5.755-3.05-9.03-.26-3-.714-6.07-.165-9.03.907-4.9 2.648.537 2.886 2.507.387 3.2.553 6.48.247 9.7-.248 2.604-1.113 5.116-1.896 7.608-.213.678-.575 1.335-1.07 1.838s-1.127.94-1.814 1.088c-.8.174-1.8.3-2.474-.167s-.977-1.428-1.07-2.257c-.654-5.744-1.236-11.526-1.155-17.308.007-.48 1.3-.722 1.403-.25 1.28 6.42-.323 10.14-3.134 15.885-.55 1.127-2.842 3.9-4.7 2.926-3.018-1.597-1.047-15.346 2.144-17.224.262-.154.852-.385.906-.083.923 5.15-1.924 10.505-5.523 13.963-.838.805-6.718 3.382-7.337 1.838-2.077-5.18-.227-14.73 4.452-17.975.32-.223 1.1-.556 1.155-.167 1.214 7.394-1.996 8.034-7.997 13.2-.976.842-2.596 3.093-3.3 2.006l-1.566.335c-2.685-4.157 7.54-11.65 7.75-17.9.02-.587-.503 1.083-.908 1.504-1.75 1.82-3.682 3.456-5.523 5.184"/></g></g></g></g></g><g transform="matrix(-1 0 0 1 1046 1344)"><path d="M56.142 79.815c-1.5-26.347 21.8-33.052 28.26-8.8 4.928 18.502-21.933 20.257-30.4 8.8" class="K"/><path d="M90.432-.032c8.98 0 18.1.65 27.356 1.948l1.737.25c3.665.545 6.56 3.393 7.16 7.046 2.742 16.663 3.852 33.64 3.332 50.934 2.413 1.752 5.596 1.35 9.55-1.202-.434-16.88.688-33.456 3.366-49.732.585-3.557 3.344-6.35 6.872-7l.288-.048 1.737-.25c9.257-1.3 18.376-1.948 27.356-1.948l2.11.01c11.795.108 35.638 1.064 71.53 2.866 3.81.19 7.136 2.62 8.486 6.165l.105.3.353 1.04c5.36 15.976 8.04 33.823 8.04 53.543 0 18.816-2.497 35.197-7.5 49.145-1.767 4.937-6.367 8.284-11.6 8.47l-.334.008-5.137.042c-10.095.066-19.113.03-27.057-.106l-4.58-.08-56.143-.02c-6.104.035-11.366-4.24-12.6-10.182l-.062-.32-.292-1.634c-1.456-8.29-2.606-16.887-3.45-25.794-4.092-4.4-8.298-4.74-12.617-1.023-1.175 10.682-2.967 21.337-5.375 31.968l-.413 1.796c-1.31 5.617-6.22 9.662-11.99 9.874l-25.545.906-29.112.85-3.727.068-28.5.07-2.58-.023c-5.34-.05-10.088-3.41-11.907-8.43C2.975 101.993-.192 83.464-.192 63.88c0-19.72 2.68-37.567 8.04-53.543L8.2 9.3c1.276-3.703 4.677-6.258 8.59-6.455l12.105-.598L90.432-.032zm-10.78 10.106l-1.677.063c-10.665.44-25.613 1.814-44.842 4.12l-3.127.378a4.27 4.27 0 0 0-3.726 3.841l-.244 2.62c-3.882 42.53-2.7 72.016 3.575 88.46 2.78 7.297 30.108 8.367 81.984 3.21l.47-3.98c2.766-23.872 4-41.383 3.702-52.534l-.013-.455c-.364-11.728-1.75-26.255-4.157-43.58-9.416-1.823-20.063-2.536-31.942-2.14zm98.324 1l-1.15-.035c-11.15-.31-17.418.408-18.803 2.156l-.322 2.325c-2.208 16.158-3.486 29.787-3.833 40.887l-.028 1.073c-.255 11.617 1.052 28.675 3.922 51.174 53.966 2.993 82.338.87 85.116-6.364 6.374-16.6 6.568-44.27.582-83.005a4.25 4.25 0 0 0-3.818-3.579l-9.448-.85c-24.62-2.184-42.025-3.444-52.217-3.782z" fill="#f3a712"/><path d="M105.375 12.52l194.25 13.53c1.9 7.445 2.96 45.128 3.182 113.05l-3.182 71.112c-66.5 9.52-152.25 9.52-257.25 0C38.9 144.727 59.457 79.486 104.017 14.49l1.358-1.97z" class="J"/><g class="G B C F"><path d="M196 189.7c20.95-9.986 31.325-8.537 51.252 2.516M45 162.516c20.95 9.986 31.325 8.537 51.252-2.516"/><path d="M116.935 16c-.215 12.262-7.018 58.715 6.237 76.594C155.716 136.492 239.12 190.524 289 144.33"/><path d="M122.38 117.306c3.16-8.323 5.434-15.533 15.343-20.922 5.495-2.99 12.626-1.964 18.752-.698 5.262 1.087 10.542 3.637 14.26 7.516 16.62 17.346 1.243 43.32-18.91 46.65-7.4 1.222-27.04 3.848-31.383-6.5" fill="#ff4445"/><path d="M169 20c15.666 46.232 31.98 83.602 75.24 106.822 14.95 8.025 49.843 26.862 64.76 8.18M234 12c10.944 51.387 25.84 109.575 80 119"/></g></g></g></svg>