<svg xmlns="http://www.w3.org/2000/svg" width="1381" height="1061" xmlns:v="https://vecta.io/nano"><style><![CDATA[.B{stroke-linecap:round}.C{stroke-linejoin:round}.D{stroke-width:14.322}]]></style><g fill="none" fill-rule="evenodd"><path d="M82.757 25.245L18.28 90.597l42.834 43.405L125.6 68.658zm53.478 32.632l5.418-5.483c11.807-11.972 11.807-31.44-.008-43.42-11.807-11.965-31.027-11.965-42.842 0l-5.403 5.5 42.834 43.413zm-88.07 84.573l-38.8 9.83a7.48 7.48 0 0 1-7.142-2.013c-1.874-1.9-2.62-4.636-1.98-7.237l9.693-39.318 38.23 38.738z" transform="matrix(-.258819 .965926 -.965926 -.258819 186.868328 749.372257)" fill="#00c15a"/><path d="M1122.654 111.78c-4.297 7.965-9.204 15.63-12.9 23.895-4.676 10.486-5.92 22.582-12.14 32.233-2.746 4.262-.42-10.343 1.142-15.166 4.314-13.313 11.285-25.625 16.308-38.686 3.76-9.776-8.856 19.01-12.515 28.823-4.315 11.575-5.77 24.263-11.38 35.268-2.422 4.75.325-10.728 1.517-15.925 1.984-8.652 4.277-17.337 7.963-25.413 1.102-2.415.773 5.423 0 7.963-3.692 12.13-8.347 23.967-13.273 35.65-.54 1.28-.405-2.84 0-4.17 3.156-10.366 7.956-20.22 10.622-30.724 1.658-6.534 1.925-13.362 2.276-20.094.226-4.337-.734 8.707-1.9 12.9-3.146 11.283-6.985 22.37-10.997 33.375-.433 1.188-2.2 4.298-2.276 3.035-.8-15.528 0-31.1 0-46.65 0-3.035.703 6.152 0 9.104-2.482 10.424-6.932 20.308-9.48 30.716-2.012 8.215 3.992 22.81-4.17 25.03-7.686 2.09-.708-15.962 0-23.895 1.067-11.965 2.794-23.898 5.31-35.644.636-2.97 1.08 6.15.376 9.104-2.492 10.46-7.29 20.274-9.863 30.716-1.74 7.063-1.835 14.436-3.027 21.61-.814 4.9.688-9.963 1.893-14.783 4.492-17.976 9.688-35.777 15.166-53.477.562-1.815.203 3.877-.376 5.686-2.475 7.74-6.135 15.06-8.72 22.76-2.98 8.872-5.785 17.82-7.963 26.922-2.758 11.526-3.342 23.566-6.828 34.893-1.5 4.84-.058-10.176.76-15.174 3.36-20.576 7.667-40.988 11.756-61.432.424-2.12-.07 4.395-.76 6.445-4.133 12.283-8.27 24.614-13.657 36.402-.79 1.728-.87-3.852-.376-5.686 2.95-10.92 7.47-21.367 10.614-32.233 1.034-3.573 3.564-14.325 1.9-10.997-27.486 54.984-14.774 37.33-32.616 91.397-.674 2.043-.57-4.38 0-6.453 7.542-27.46 15.388-54.854 24.27-81.91.7-2.163 1.053 4.644.383 6.82-9.613 31.213-22.094 61.52-31.1 92.914-4.59 16 12.728-30.797 17.826-46.64 4.273-13.28 7.43-26.914 10.24-40.58 1.876-9.125 2.262-18.5 3.793-27.69.773-4.64-.32 9.482-1.517 14.032-10.955 41.647-22.63 83.108-34.893 124.388-.903 3.04.007-6.4.76-9.48 6.97-28.566 15.942-56.636 22.378-85.327 2.68-11.948 9.5-47.76 4.928-36.402-12.573 31.235-20.073 64.29-29.198 96.7-1.88 6.682-7.873 26.094-3.793 20.477 5.967-8.215 7.005-19.077 9.855-28.823 8.023-27.43 18.128-54.464 22.753-82.668 2.127-12.972-10.975 23.943-15.166 36.402-9.347 27.784-17.506 55.963-25.405 84.193-1.6 5.683-1.603 11.717-3.035 17.442-.43 1.717-.4-3.586 0-5.31 2.772-11.978 7.132-23.576 9.48-35.644 5.875-30.2 9.902-60.71 15.166-91.013.588-3.383-.273 6.915-1.134 10.24-7.11 27.43-14.88 54.688-22.753 81.91-2.622 9.065-4.437 18.526-8.73 26.93-1.382 2.705-1.234-6.19-.376-9.104 4.632-15.726 11.74-30.635 16.684-46.265 5.3-16.755 9.012-33.977 14.032-50.818 1.105-3.707-1.185 7.67-2.276 11.38-5.865 19.946-13.018 39.506-18.577 59.54-7.214 25.997-11.253 52.884-19.726 78.5-3.078 9.303 1.83-19.53 3.418-29.198 3.726-22.706 8.916-45.158 12.515-67.884 3.23-20.397 5.064-40.993 7.963-61.44.498-3.514-.032 7.147-.76 10.622-4.464 21.34-9.06 42.674-14.79 63.708-5.78 21.217-13.8 41.777-19.72 62.957-1.304 4.665-3.8 18.868-1.9 14.408 5.007-11.818 8.114-24.373 11.38-36.785l30.34-121.73c.746-2.813.323 5.898-.383 8.72-4.494 17.973-10.572 35.522-15.166 53.47-3.5 13.67-5.71 27.643-9.104 41.338-7.857 31.693-15.293 63.522-24.646 94.807-2.043 6.835 1.108-14.27 2.652-21.236 4.405-19.876 10.447-39.36 15.166-59.163l25.413-111.115c.57-2.335.633 4.892 0 7.21-7.357 26.97-16.41 53.457-23.895 80.392-8.572 30.842-16.58 61.84-24.27 92.914-1.793 7.244-2.577 14.704-4.17 21.995-.71 3.247.59-6.664 1.517-9.855 3.126-10.748 7.435-21.126 10.614-31.858l45.9-158.898c.43-1.46.2 3.142-.376 4.552-7.29 17.876-16.107 35.114-23.137 53.094-15.86 40.566-30.738 81.512-45.507 122.488-3.186 8.84-15.416 33.11-8.346 26.922 6.51-5.696 26.853-68.006 28.064-72.053 24.37-81.455 19.69-82.452 43.99-142.6.524-1.296.128 2.873-.376 4.177-7.86 20.366-17.096 40.193-24.654 60.673L936.45 348.8c-3.727 10.856-7.372 21.787-9.863 32.992-.274 1.234 2.366-1.203 3.035-2.276 4.188-6.72 8.084-13.653 11.38-20.853 4.935-10.778 9.776-21.666 13.273-32.992 12.95-41.942 24.095-84.42 36.027-126.665.708-2.508 1.612-4.996 1.893-7.587.355-3.27 2.23-12.28 0-9.863-8.81 9.543-30.398 52.76-35.268 63.332-14.813 32.15-29.198 66.075-29.198 102.018 0 2.276-.645-4.645 0-6.828 7.6-25.725 17.123-50.858 24.646-76.606C967.6 211.34 983.463 159.326 996 106.477c4.454-18.79-13.526 36.19-19.343 54.603L936.45 294.948c-7.305 23.308-15.304 46.397-23.512 69.402-.512 1.434-.148-3.123.376-4.552 7.46-20.367 16.63-40.104 23.512-60.673 16.263-48.61 30.434-97.894 45.9-146.766 1.425-4.505-2.2 9.21-3.793 13.657L950.1 243.372c-6.406 18.174-12.054 36.61-17.826 54.994l-12.9 42.847c-2.716 10.133-11.118 21.15-6.828 30.724 3.13 6.985 8.25-12.922 11.756-19.726 2.957-5.738 5.444-11.73 7.587-17.818 5.07-14.406 10.724-28.705 14.032-43.614 7.456-33.6 12.72-67.657 18.2-101.635 2.74-16.98 13.317-66.963 6.453-51.193-20.7 47.576-31.796 98.79-48.55 147.9-7.27 21.313-14.68 42.617-23.512 63.332-1.916 4.495 1.283-9.727 2.66-14.415 3.31-11.275 7.954-22.125 11.373-33.367 4.042-13.293 7.783-26.687 10.997-40.203l24.27-108.08c1.12-4.557.16 9.522-1.134 14.032-9.225 32.124-20.545 63.61-30.34 95.566-5.628 18.362-10.946 36.822-15.925 55.37-1.472 5.483-7.165 20.948-3.418 16.684 10.203-11.61 24.8-58.858 28.064-69.777 11.765-39.34 26.214-107.576 33.375-139.938.987-4.46-1.87 8.973-3.4 13.273-6.304 17.592-13.715 34.773-20.102 52.335l-22.378 64.466-28.064 91.02c-2.133 7.33-8.576 29.078-4.928 22.37 27.88-51.265 41.943-109.574 53.852-166.102 2.035-9.658 3.724-19.402 4.928-29.198.57-4.644 1.726-9.55.383-14.032-.443-1.478-2.92 1.38-3.793 2.652-1.987 2.888-3.274 6.216-4.552 9.48-14.275 36.438-29.77 72.455-42.096 109.598-2.397 7.223 8.634-12.58 12.14-19.335 5.238-10.095 9.795-20.545 14.032-31.1 2.22-5.528 3.936-11.27 5.303-17.067 2.8-11.92 5.207-23.945 7.21-36.027 1.92-11.57 3.18-23.238 4.552-34.885.148-1.256.76-2.783 0-3.793-.14-.185-11.83 30.498-14.79 39.437-8.495 25.658-16.518 51.473-24.27 77.364-4.89 16.336-9.477 32.768-13.657 49.3-1.513 5.984-6.598 23.487-3.4 18.2 28.416-47.126 44.734-122.364 51.193-175.965.03-.24-6.456 8.32-7.963 11.38-6.294 12.784-12.87 25.465-18.2 38.678-11.872 29.416-23.025 59.135-33.375 89.12-3.19 9.247-16.582 31.227-7.204 28.447 11.502-3.41 12.437-20.58 17.442-31.482 11.992-26.125 19.144-51.444 24.654-79.633 3.832-19.602 17.328-77.53 9.48-59.163-19.967 46.726-30.276 97.017-46.265 145.25-29.153 87.938 62.008-188.955 36.785-136.903-22.554 46.546-37.308 96.498-54.61 145.24-4.164 11.73 10.567-22.56 15.166-34.126a312.76 312.76 0 0 0 9.863-28.823c2.627-9.105 4.628-18.388 6.445-27.69 1.47-7.527 1.874-15.24 3.4-22.753.405-1.982.64 4.15 0 6.07-9.38 28.145-20.802 55.6-29.957 83.8-3.123 9.626-11.742 38.428-6.828 29.582 27.864-50.166 37.602-112.126 40.962-168.378.1-1.515.387 3.085 0 4.552L860.98 232c-5.24 18.172-14.014 35.505-16.684 54.228-2.05 14.37 10.417-27.115 14.79-40.954 3.344-10.582 6.065-21.37 8.338-32.233 4.556-21.77 22.782-85.137 12.14-65.608-22.62 41.51-31.797 89.05-48.925 133.1-1.484 3.817.718-8.218 1.9-12.14 8.438-27.976 17.31-55.83 26.922-83.426 1.786-5.127-1.517 10.837-3.4 15.925-10.265 27.59-26.055 53.31-32.992 81.917-3.96 16.325 16.92-29.088 23.888-44.372 4.195-9.203 7.33-18.94 9.48-28.823 7.878-36.19 9.468-51.064 6.453-50.06-2.697.9-3.425 4.602-4.552 7.21-7.737 17.906-15.012 36.014-21.995 54.228-6.446 16.814-15.837 43.3-19.726 62.2-.895 4.35-4.006 16.66-1.134 13.273 22.298-26.298 34.27-67.862 40.954-100.876 3.82-18.86 19.7-73.424 9.863-56.88-29.363 49.437-47.883 104.588-69.777 157.756-8.632 20.962 21.95-39.847 29.957-61.056 11.144-29.52 22.743-59.416 27.306-90.638 2.215-15.16-14.205 27.196-20.102 41.338-10.933 26.22-19.838 53.245-30.34 79.64-.907 2.28.55-4.948 1.517-7.204 2.852-6.652 6.997-12.697 9.863-19.343 3.468-8.042 6.835-16.187 9.104-24.646 4.698-17.507 23.96-66.495 11.756-53.094-20.764 22.8-38.595 92.447-49.683 126.28-.275.84-.36-1.845 0-2.652 4.476-10.013 9.97-19.55 14.408-29.582 3.788-8.566 7.66-17.162 10.246-26.164 4.26-14.826 7.453-29.96 10.24-45.13 1.77-9.638 9.36-36.985 3.4-29.198-17.537 22.955-43.583 120.488-48.925 138.796-6.25 21.422 14.14-42.39 19.343-64.09 7.33-30.57 16.344-61.15 18.21-92.53 1.118-18.807-11.502 35.916-15.933 54.228-5.06 20.915-7.76 42.345-12.515 63.332-1.953 8.62-4.898 16.986-7.587 25.405-.224.703-1.106 2.638-1.134 1.9-2.396-63.447 73.062-263.47-10.997 1.517-3.687 11.623-17.517 45.453-12.14 34.51 20.323-41.353 29.427-74.016 39.062-119.078 3.372-15.77 22.132-40.817 7.587-47.783-13.996-6.703-11.704 28.786-16.308 43.606-11.586 37.293-21.12 75.195-32.233 112.632-1.912 6.442-3.888 12.925-6.828 18.967-.72 1.48-.465-3.357 0-4.935 3.728-12.654 8.932-24.848 12.515-37.544 5.02-17.793 9.518-35.75 13.273-53.852 4.72-22.75 8.07-45.76 12.14-68.636 1.033-5.8-1.445 11.76-3.035 17.442-4.363 15.592-10.458 30.665-14.79 46.265-12.104 43.576-24.768 87.052-34.51 131.217-2.185 9.904 8.3-18.532 11.756-28.064 7.157-19.685 13.667-39.603 20.094-59.54 2.297-7.124 4.374-14.33 6.07-21.62 4.63-19.898 9.257-39.812 12.898-59.914 1.677-9.26 5.102-18.885 3.035-28.064-1.056-4.688-4.7 8.416-6.453 12.9-5.087 12.995-9.87 26.124-14.032 39.445-10.378 33.215-18.797 67.03-29.574 100.118-3.65 11.205-7.79 22.388-13.657 32.61-1.574 2.743-.457-6.43.383-9.48 8.663-31.42 19.53-62.208 28.057-93.665 4.502-16.6 7.092-33.683 11.005-50.442 1.257-5.385-1.383 11.03-3.035 16.308-9.993 31.933-21.815 63.273-31.858 95.2-8.417 26.75-21.762 52.787-23.512 80.775-1.26 20.172 15.625-37.323 21.995-56.504 4.522-13.62 7.73-27.664 10.622-41.72 5.33-25.915 9.788-52.007 14.024-78.123 1.2-7.4 5.202-29.27 2.276-22.37-29.85 70.408-35.462 122.74-55.745 198.718-1.34 5.02-.13-10.51 1.134-15.55l51.584-194.55c.534-1.95.412 4.09 0 6.07-.993 4.778-2.525 9.44-4.177 14.032l-64.85 177.858c-.79 2.194-1.517 4.497-1.517 6.828 0 .63 1.222-.576 1.517-1.134l13.657-21.62c6.013-11.342 11.43-23.014 16.3-34.893 5.505-13.43 10.473-27.097 14.79-40.954 5.93-19.033 11.22-38.275 15.933-57.646 2.123-8.724 3.493-17.63 4.552-26.547.462-3.89 1.058-7.983 0-11.756-.152-.542-14.604 23.127-17.826 29.965-6.904 14.655-13.545 29.48-18.96 44.748-12.172 34.325-22.3 69.338-33.758 103.91-.82 2.474-2.32 9.71-3.035 7.204-1.39-4.87-.736-10.335.76-15.174 19.92-64.47 41.483-128.427 63.34-192.265 1.027-3 .255 6.476-.76 9.48-9.386 27.814-21.625 54.643-30.34 82.675-9.385 30.185-14.493 61.592-23.895 91.772-2.23 7.158.4-15.118 2.276-22.378 12.812-49.595 28.206-98.5 41.713-147.9.9-3.328 2.77-13.453 1.517-10.24-22.8 58.495-33.68 114.297-49.676 175.582-1.495 5.728-7.703 22.382-6.07 16.69 28.207-98.238 41.342-125.144 56.128-197.584.626-3.065-1.178 6.175-2.276 9.104-8.012 21.363-17.268 42.252-25.03 63.708-13.735 37.97-26.615 76.247-39.445 114.533-3.1 9.253-11.545 37.28-8.338 28.064 13.08-37.598 71.614-224.86 66.367-215.785-31.193 53.953-40.18 117.988-59.922 177.1-3.14 9.405-6.36 18.8-8.72 28.44-.94 3.826-4.485 13.85-1.142 11.764 4.848-3.024 5.228-10.19 7.21-15.55 3.968-10.723 7.988-21.49 10.614-32.616 10.66-45.173 18.653-90.946 29.206-136.144 2.09-8.95-2.017 18.3-3.793 27.306-1.517 7.702-3.842 15.226-6.07 22.753L635.715 398.86c-1.06 3.434.756-7.205 1.893-10.614 4.062-12.186 9.656-23.828 13.657-36.034 5.992-18.28 11.242-36.802 16.3-55.362l30.724-117.185c4.98-17.66 10.695-35.128 17.067-52.335 1.336-3.607-.68 7.733-1.9 11.38l-45.13 129.316-54.228 145.25c-1.456 3.66-.034-8 1.134-11.764 5.182-16.69 12.26-32.736 17.826-49.3 5.056-15.047 10.02-30.148 14.032-45.507 12.302-47.107 21.435-95.04 34.893-141.83 2.38-8.275.147 17.34-1.517 25.788-4.93 25.028-11.748 49.65-18.2 74.33-5.052 19.32-10.513 38.536-16.308 57.646-13.296 43.846-34.045 85.916-40.962 131.21-4.434 29.03 23.493-53.88 33.375-81.533 7.08-19.816 12.354-40.254 17.442-60.673 4.778-19.173 8.534-38.594 12.14-58.02l15.166-89.12c2.248-13.278-4.057 26.64-6.82 39.82-2.17 10.353-5.127 20.528-7.97 30.716l-60.297 213.884c-2.26 8.224-.702 17.853-5.31 25.03-3.568 5.556.45-13.276 1.9-19.72l40.954-170.654c7.848-37 13.942-74.386 18.967-111.874 1.744-13.007-5.332 25.734-9.104 38.303l-73.195 235.88c-.34 1.084-.384-2.34 0-3.4 3.182-8.86 7.507-17.287 10.622-26.17 4.603-13.127 8.708-26.432 12.515-39.813 4.54-15.955 8.84-32 12.515-48.166l35.65-163.826c1.382-5.782.634 12.04-.76 17.818-4.583 19.01-10.863 37.584-17.067 56.128l-53.477 154.73c-3.828 11.46-6.122 23.393-9.855 34.885-.468 1.44-.47-3.105 0-4.545 8.908-27.203 19.498-53.845 28.064-81.158 8.252-26.3 16.005-52.81 22.37-79.64 4.265-17.977 7.198-36.277 9.48-54.61 1.266-10.167.61-20.484 1.142-30.716.15-2.903.75 5.913 0 8.72l-45.13 160.04-16.684 62.95c-1.61 6.497-6.562 25.813-3.793 19.72 6.92-15.23 21.473-75.302 23.512-86.844 9.72-55.026 17.075-106.567 20.477-161.55.34-5.478-.812 11.018-2.276 16.308-9.295 33.572-20.445 66.607-29.957 100.118-6.924 24.393-13.785 48.83-19.343 73.57-2.292 10.202-5.088 20.675-4.17 31.09.245 2.77 4.955-2.954 6.445-5.303 6.06-9.552 11.482-19.563 15.925-29.965 6.33-14.82 11.408-30.156 16.308-45.507 2.695-8.44 4.634-17.116 6.453-25.788 3.62-17.25 7.075-34.546 9.855-51.952 2.15-13.455 3.73-27.006 4.928-40.58.7-7.936.567-15.923.76-23.888.06-2.528.612-5.133 0-7.587-.153-.612-1.628-.572-1.893 0l-7.963 6.828c-9.174 19.786-16.727 40.33-23.512 61.056-11.685 35.695-21.856 71.877-31.858 108.08-2.647 9.582-4.466 19.388-6.07 29.198-.55 3.37-1.09 6.9-.376 10.24.75 3.5 2.894 3.914 7.58-4.928 4.478-8.45 8.7-17.11 11.756-26.17 4.174-12.375 7.526-25.07 9.863-37.92 2.733-15.025 3.995-30.292 5.31-45.507 1.845-21.33 2.926-42.718 4.17-64.09.147-2.525.727-5.165 0-7.587-.218-.727-1.92-.67-2.276 0l-3.793 3.793c-3.503 6.596-6.44 13.497-9.097 20.477-5.817 15.282-11.498 30.637-16.308 46.265-1.78 5.782-2.784 11.81-3.418 17.826-.635 6.035-.023 12.143-.376 18.2-.228 3.912-.486-7.868 0-11.756.533-4.26 1.772-8.412 3.035-12.515l30.34-95.94c.395-1.2.403 2.595 0 3.793-5.056 15.05-10.592 29.937-16.308 44.748l-33.75 84.944c-.82 2.157-1.41 4.536-1.142 6.828.075.64 1.616.204 1.9-.376l17.06-29.582c4.868-9.926 8.862-20.28 12.515-30.716 3.438-9.82 6.124-19.893 8.73-29.965 1.192-4.608 2.145-9.3 2.652-14.032 1.01-9.447 1.35-18.954 1.893-28.44.087-1.515.84-3.29 0-4.552-.56-.84-2.087-.367-3.027 0-1.44.56-2.854 1.434-3.793 2.66-2.033 2.65-3.563 5.676-4.935 8.72-14.584 32.375-29.278 65.902-32.992 101.635-.34 3.268-.856 6.684 0 9.855.23.856 2.146.723 2.66 0 3.143-4.423 5.402-9.437 7.58-14.408 3.646-8.323 7.024-16.78 9.863-25.413 3.238-9.847 6.165-19.823 8.346-29.957 4.273-19.853 5.29-40.433 10.997-59.922 2.097-7.158.598 14.943 0 22.378-.545 6.775-2.143 13.426-3.418 20.102-12.632 66.138-30.31 131.478-38.303 198.335-3.472 29.033 17.455-55.845 24.654-84.185 8.865-34.898 15.245-70.384 23.512-105.43.32-1.358.646 2.8.376 4.17L543.56 400.76l-10.24 53.47c-1.543 9.168-8.668 35.354-3.418 27.68 17.706-25.88 34.884-111.394 40.58-141.455 1.856-9.8 1.904-19.958 4.552-29.574 1.276-4.632.396 9.666-.376 14.408-3.536 21.73-8.986 43.12-12.522 64.85-2.536 15.584-4.405 31.287-5.686 47.024-2.764 33.96-3.992 68.028-6.445 102.01-.683 9.463-.72-19.135 1.134-28.44 9.93-49.863 22.297-99.214 34.134-148.66.47-1.968.435 4.094 0 6.07-6.53 29.676-14.383 59.05-20.86 88.737-4.144 19-7.705 38.107-10.997 57.263-2.9 16.88-5.713 33.793-7.58 50.818-2.433 22.187-3.732 44.486-5.31 66.75-.315 4.442.622-8.91 1.517-13.273l18.96-86.47c5.2-26.43 8.767-53.154 13.657-79.64 3.582-19.406 7.68-38.714 11.756-58.02.223-1.057 1.05-4.11 1.134-3.035 1.155 14.682-.477 22.81-3.035 37.544l-39.437 224.506c-1.83 9.445-.337-19.382 1.517-28.823 12.324-62.72 26.896-124.982 40.954-187.338.417-1.85.346 3.823 0 5.686l-20.86 106.563-17.442 105.053c-.887 5.005.15-10.278 1.517-15.174 8.01-28.69 18.56-56.63 26.547-85.327 12.498-44.896 22.98-90.33 34.893-135.386.858-3.247.342-8.115 3.4-9.48 2.425-1.08.288 5.324 0 7.963-.598 5.475-1.38 10.95-2.652 16.308l-21.62 86.086-20.86 91.772c-3.432 15.745-6.725 31.53-9.48 47.407-3.695 21.297-6.373 42.76-9.863 64.09-1.06 6.484-1.507 13.18-3.786 19.343-1.053 2.846-.86-6.194 0-9.104 6.007-20.36 14.067-40.062 20.477-60.297 5.727-18.076 11.2-36.247 15.925-54.61 6.404-24.886 12.25-49.924 17.45-75.088 4.286-20.74 6.754-41.826 10.997-62.574.837-4.094.226 8.453-.76 12.515-8.262 34.06-18.96 67.506-26.93 101.635-9.482 40.608-17.492 81.552-25.405 122.496-2.962 15.324-5.63 30.738-7.21 46.265-1.963 19.274-12.08 40.696-3.4 58.02 7.394 14.776 4.95-32.68 7.963-48.925 3.436-18.524 7.184-36.995 11.38-55.362L622.817 481.9c8.27-34.254-15.837 68.677-23.13 103.153l-20.102 101.252c-4.61 25.44-8.932 50.952-12.14 76.606-2.486 19.887-2.585 40.018-4.928 59.922-.576 4.898-.624-9.865-.383-14.79a123.74 123.74 0 0 1 1.901-16.308c1.29-7.027 3.07-13.962 4.928-20.86l34.51-125.523c7.788-29.94 13.178-60.493 21.62-90.255 1.276-4.5.866 9.436 0 14.032-4.965 26.34-12.32 52.188-17.442 78.5-6.006 30.844-11.267 61.84-15.933 92.914-2.796 18.62-5.104 37.34-6.445 56.12-1.694 23.72-1.855 47.527-2.652 71.295-.165 4.93.022-9.904.76-14.783l27.306-171.037 13.65-75.088c4.518-22.714 9.644-45.305 14.79-67.884.596-2.616-.377 5.396-1.134 7.97-3.677 12.502-8.462 24.66-12.14 37.16-4.543 15.445-9.733 30.79-12.515 46.65-8.23 46.924-15.012 94.12-20.477 141.448-2.003 17.34-2.838 34.904-1.9 52.335.098 1.82 3.51-1.54 4.552-3.035 1.975-2.832 3.054-6.215 4.177-9.48 5.707-16.595 11.963-33.055 16.3-50.06 16.15-63.3 29.434-127.323 45.13-190.748 2.892-11.686 6.316-23.275 10.622-34.517 2.04-5.328-2.192 11.215-3.793 16.69-3.208 10.972-7.81 21.528-10.622 32.61-5.54 21.823-10.01 43.9-14.408 65.992L622.44 761.403c-2.123 11.718-4.143 23.46-5.694 35.268-1.357 10.327-1.81 20.755-3.027 31.1-.963 8.194.36-16.62 2.268-24.646 8.48-35.683 19.677-70.67 28.823-106.187 10.45-40.588 16.158-82.54 29.965-122.112 4.46-12.78.696 27.225-1.517 40.58-9.817 59.212-23.416 117.737-34.51 176.723-2.435 12.947-4.433 25.982-6.07 39.054-.75 6 1.763-12 3.4-17.818 4.05-14.31 9.43-28.22 13.657-42.48l29.957-104.662c6.13-20.156 13.052-40.068 20.102-59.922 3.95-11.126 8.894-21.882 12.9-32.992 2.86-7.952-6.633 15.556-9.48 23.512-2.09 5.838-3.775 11.82-5.31 17.826-9.843 38.496-20.4 76.833-28.823 115.667-4.114 18.99-6.672 38.315-8.72 57.638-1.494 14.092-.885 28.336-1.893 42.472-.378 5.295-.6-10.65 0-15.925 1.563-13.982 3.657-27.923 6.445-41.713 1.77-8.748 4.623-17.244 7.204-25.788 2.73-9.033 5.448-18.08 8.72-26.93l51.584-136.137c2.74-7.522 2.375-16.243 6.445-23.137 2.52-4.268-.277 9.992-1.517 14.79L678.57 794.02c-1.038 3.78-2.383 7.5-4.177 10.997-.533 1.036-2.507 3.432-2.652 2.276-4.803-38.464 16.026-76.86 31.475-110.356l21.995-45.9c4.366-8.457 7.38-18.235 14.415-24.646 3.198-2.914-.18 8.776-1.517 12.9-15 46.156-32.662 91.424-47.407 137.662-3.858 12.098-6.44 24.614-8.346 37.17-1.77 11.656-1.714 23.516-2.652 35.268-.18 2.272-.267-4.643.383-6.828 9.23-30.998 18.552-62 29.198-92.53 16.286-46.72 35.365-92.434 51.576-139.18 6.484-18.696-15.265 36.52-22.378 54.987-11.977 31.092-24.302 62.08-34.885 93.673-6.244 18.64-11.418 37.668-15.55 56.887-2.082 9.688-7.95 38.18-3.035 29.574 10.25-17.945 12.62-39.37 19.72-58.78l41.72-109.214c5.82-14.622 11.525-29.368 18.96-43.238 1.023-1.91 1.342 4.367.76 6.453-9.324 33.35-20.614 66.124-30.34 99.36l-36.027 127.416c-.4 1.334-.406-2.84 0-4.17 1.008-3.3 2.698-6.357 4.17-9.48L761.62 732.58c5.696-11.938 11.024-24.077 17.442-35.644 5.104-9.2 10.3-18.493 17.067-26.547 1.645-1.958-.125 5.238-1.134 7.587-11.794 27.44-25.16 54.186-37.17 81.533-5.314 12.1-10.52 24.28-14.79 36.785-4.462 13.063-8.36 26.35-11.373 39.82-1.553 6.948-6.225 27.16-2.276 21.236 7.762-11.646 9.18-26.454 14.408-39.437 6.787-16.86 13.876-33.615 21.62-50.06 6.966-14.794 15.965-30.812 26.164-43.997 1.26-1.628 3.694-6.04 4.552-4.17 1.846 4.023.996 9.065-.376 13.273-14.998 46.037-32.056 91.38-48.55 136.903-1.2 3.315 1.3-6.985 2.66-10.24 9.275-22.194 19.233-44.1 29.198-65.992 5.458-11.99 10.9-24.003 17.067-35.644 6.232-11.763 12.308-23.717 20.102-34.51 1.408-1.95.64 5.027-.383 7.204-9.805 20.88-21.693 40.728-31.85 61.44-9.19 18.74-17.868 37.732-26.17 56.88-1.195 2.756-3.572 11.432-2.276 8.72 31.68-66.276 15.873-84.674 53.477-20.853.574.974-1.974 4.07-1.517 3.035l45.882-103.536c1.546-3.382-1.723 7.308-3.4 10.622-5.292 10.396-12.02 20.01-17.442 30.34-2.553 4.864-9.57 19.683-6.445 15.166 20.872-30.153 32.098-48.62 42.847-81.158 1.037-3.14.755-6.57 1.142-9.855.546-4.638-46.27 96.563-59.163 122.112-.483.958-1.798 3.236-2.276 2.276-1.95-3.914 90.74-223.215-21.236 45.882-.79 1.9-2.45 7.653-1.134 6.07 7.37-8.873 13.973-18.437 19.72-28.44 7.94-13.824 35.805-49.328 21.236-42.855-22.343 9.927-24.973 61.5-48.54 54.987-21.393-5.904 18.443-40.396 26.547-61.056 3.417-8.712 5.58-17.872 7.963-26.922.783-2.975 1.662-6.03 1.517-9.104-.22-4.642-32.425 50.052-41.338 66.743-3.974 7.442-11.484 31.727-8.346 23.895l51.2-130.834c.55-1.492-6.845 5.243-7.963 6.828-4.1 5.815-8.243 11.63-11.756 17.818-7.623 13.426-14.958 27.034-21.62 40.962-5.865 12.264-10.858 24.93-15.925 37.544-1.133 2.82-2.115 5.73-2.66 8.72-.727 3.996-2.26 16.034-1.134 12.132 11.598-40.248 28.402-79.68 32.61-121.354 1.644-16.286-17.154 27.92-24.646 42.472-12.242 23.78-23.308 48.15-34.51 72.437-2.33 5.053-4.377 10.25-6.07 15.55-.234.732-.064 2.907.376 2.276 16.6-23.866 48.19-85.16 11.756-109.598-10.522-7.057-12.477 22.065-18.2 33.367-4.268 8.428-8.207 17.033-11.756 25.788-2.148 5.298-3.148 11.016-5.31 16.308-1.032 2.526.866-5.438 1.9-7.963 12.758-31.133 41.05-59.307 39.437-92.914-.704-14.66-33.67-12.328-43.99-1.893-28.37 28.686-34.08 73.904-58.78 105.804-12.835 16.576 15.65-38.922 22.37-58.78 12.88-38.06 22.885-77.074 36.4-114.91 9-25.18 26.905-47.537 31.1-73.946 2.98-18.772-19.125 32.902-27.306 50.06-12.572 26.37-24.672 53.026-34.893 80.392-12.938 34.64-24.25 69.903-34.51 105.43-1.545 5.348-2.43 21.994-.76 16.684 7.74-24.604 20.962-85.222 24.27-113.767 4.502-38.834 24.446-80.233 10.622-116.8-1.644-4.35-33.456 132.088-36.034 144.866-4.342 21.513-8.27 43.124-11.373 64.85-1.2 8.398-1.96 16.933-1.517 25.405.318 6.09.805-12.2 1.893-18.2 2.835-15.638 6.958-31.023 9.863-46.65 1.774-9.542 3.047-19.175 4.17-28.815l20.86-186.203c1.59-16.12 5.122-32.595 2.276-48.54-1.083-6.066-6.31 10.747-7.963 16.684-17.842 64.066-34.392 128.493-50.442 193.032-1.91 7.685-2.436 15.653-3.4 23.512-.797 6.427-1.66 12.864-1.9 19.335-.392 10.484-4.808 22.15 0 31.475 3.06 5.934 4.73-12.5 6.453-18.96 6.248-23.4 13.316-46.67 17.442-70.536 10.423-60.28 16.638-121.222 26.164-181.65 3.37-21.378 17.112-84.856 12.515-63.708l-25.788 124.764c-15.993 71.106-38.89 141.205-44.748 214.268-.96 11.976-6.3 46.874-1.134 36.027 18.754-39.378 28.09-82.6 42.855-123.63 11.025-30.642 22.71-61.044 34.51-91.397 3.88-9.98 7.964-19.9 12.515-29.582 2.286-4.868 2.79-12.555 7.963-14.032 4.1-1.17-1.28 8.477-2.652 12.515-8.12 23.93-17.63 47.376-25.788 71.295-6.635 19.45-12.796 39.068-18.584 58.788-5.086 17.328-9.955 34.735-14.032 52.327-3.135 13.528-6.23 27.142-7.587 40.962-1.558 15.856-16.535 51.864-1.134 47.783 17.106-4.533 8.966-34.245 14.032-51.2 18.314-61.3 36.084-125.624 70.153-180.51 1.65-2.66 7.724-9.444 6.828-6.445-19.615 65.693-43.464 130.066-63.332 195.683-5.47 18.065-8.633 41.664-7.204 61.056.06.798 1.48.68 2.276.76 10.352 1.035 17.455-15.94 20.853-23.137l65.233-141.83c10.69-22.525 45.672-88.648 33.75-66.75-32.8 60.252-92.81 158.038-90.638 233.986.023.8 1.868-.07 2.276-.76 4.504-7.584 8.493-15.48 12.14-23.512l42.096-95.94c15.218-33.016 30.865-65.848 47.4-98.225 4.596-9 10.237-17.442 15.933-25.788 1.662-2.436 3.118-6.63 6.062-6.445 2.272.144.735 4.674 0 6.828-27.114 79.5-58.724 157.497-83.426 237.78-2.156 7.008 11.48-9.594 15.166-15.933 22.597-38.865 41.908-79.553 63.332-119.078 2.223-4.1 4.75-8.054 7.587-11.756 4.637-6.05 8.577-13.027 14.79-17.442 1.96-1.393.5 4.967-.383 7.204-10.04 25.447-22.88 49.765-32.233 75.47-9.762 26.83-18.008 54.237-25.03 81.91-1.743 6.87-2.292 14.24-1.142 21.236.465 2.83 3.6 8.424 5.694 6.453 9.654-9.132 15.894-21.395 22.37-33 2.3-4.14 55.398-116.427 79.265-140.69 3.912-3.977-1.692 11.133-3.793 16.3-8.928 21.96-19.783 43.093-29.198 64.85-7.273 16.805-14.396 33.686-20.86 50.818-1.138 3.015-3.563 12.236-1.893 9.48 12.075-19.93 22.574-40.78 33.367-61.432 8.17-15.633 26.625-64.77 23.512-47.407-3.97 22.14-17.897 41.28-26.164 62.198-4.38 11.08-8.19 22.384-11.756 33.75-.493 1.572-1.548 3.763-.383 4.928 1.088 1.088 3.573.428 4.552-.76 7.632-9.25 14.76-19.04 20.477-29.582 9.005-16.61 29.117-69.613 23.52-51.57-11.26 36.303-28.1 70.66-40.58 106.563-1.154 3.32 4.728-5.28 6.445-8.346 5.386-9.62 10.147-19.583 14.79-29.582 6.104-13.143 10.906-26.887 17.442-39.82.8-1.58.682 3.677 0 5.31-5.444 13.045-20.533 24.36-18.2 38.303 2.03 12.146 13.64-20.56 19.343-31.475 5.95-11.385 9.73-23.81 15.542-35.268 1.414-2.787-1.012 6.235-2.268 9.097-8.37 19.055-18.303 37.402-26.547 56.512-2.897 6.716-6.1 13.575-6.828 20.853-.258 2.58 3.855-3.54 5.31-5.686 3.37-4.97 6.443-10.163 9.097-15.55 10.122-20.544 18.595-41.894 29.206-62.2 1.93-3.694-1.55 8.236-3.035 12.132-7.63 20.028-16.744 39.472-24.27 59.54-1.22 3.25-4.652 12.355-1.9 10.24 21.35-16.42 56.578-122.686 18.584-25.788-2.438 6.217-4.434 12.6-6.445 18.967-.27.852-.902 3.378-.383 2.652 15.212-21.296 15.907-49.605 27.69-72.053 2.174-4.142 1.11 9.488 0 14.032-6.64 27.21-15.31 53.883-23.137 80.775-1.756 6.035 2.655-12.34 4.928-18.2 5.835-15.043 12.127-29.94 19.343-44.372 1.32-2.64-.416 5.984-1.517 8.72-3.355 8.34-8.207 16.012-11.756 24.27-3.032 7.056-12.152 28.055-7.963 21.62 16.373-25.15 28.102-53.153 44.748-78.123 2.47-3.705-.318 8.985-1.517 13.273-4.76 17.015-10.748 33.662-16.3 50.434-.893 2.7-.897 6.097-3.035 7.97-1.33 1.167-.686-3.68 0-5.31a957.73 957.73 0 0 1 26.164-56.887c.68-1.357.377 3.082 0 4.552-3.555 13.877-8.55 27.375-11.756 41.338-2.493 10.856-3.147 22.065-5.31 32.992-.374 1.89-.795 6.542-2.276 5.31-1.846-1.535-.777-4.932 0-7.204 7.74-22.64 17.668-44.49 25.413-67.126 7.055-20.62 10.78-42.373 18.96-62.574 2.088-5.156.542 11.197-.376 16.684-5.794 34.65-12.645 69.12-19.726 103.528-1.016 4.935-3.993 19.423-4.545 14.415-.668-6.066 2.098-12.086 4.17-17.826 5.657-15.677 13.718-30.445 18.96-46.265 15.885-47.94 28.917-96.786 44.372-144.866.697-2.167.628 4.64 0 6.828-3.067 10.682-7.784 20.836-10.997 31.475-4.123 13.65-8.208 27.355-10.997 41.338-6.95 34.85-11.462 70.153-18.2 105.045-1.107 5.73-2.908 11.365-5.31 16.684-1.187 2.628-3.54 9.104-5.31 6.828-2.308-2.967 1.158-22.06 2.276-25.413 15.596-46.783 33.095-114.91 65.984-156.997.28-.36 1.03-1.202 1.142-.76.43 1.717.523 3.62 0 5.31l-58.405 183.544c-5.096 17.6 14.158-33.85 20.102-51.193 6.457-18.842 10.994-38.294 17.067-57.263 4.17-13.023 8.56-25.994 13.65-38.686 5.664-14.13 12.04-27.97 18.584-41.713 2.312-4.855 2.67-13.07 7.963-14.032 4.527-.824-2.018 9.028-3.793 13.273-4.7 11.217-10.878 21.768-15.55 32.992-5.07 12.185-9.96 24.496-13.65 37.17-7.952 27.317-13.695 55.235-21.236 82.668-.244.886-.96-1.754-.76-2.652 1.722-7.693 3.987-15.264 6.445-22.753l42.472-126.29c4.497-12.927 2.08-33.227 14.79-38.303 10.504-4.194-1.25 22.657-3.4 33.758-4.298 22.088-9.588 44.01-15.925 65.6-14.153 48.22-29.93 95.954-45.514 143.73-2.187 6.704 3.002-13.815 5.31-20.477 9.836-28.38 21.283-56.182 31.1-84.568 8.898-25.73 15.956-52.078 25.03-77.748 6.485-18.347 13.995-36.324 21.62-54.228 3.255-7.645 7.02-15.075 10.997-22.37.6-1.1 2.633-3.91 2.652-2.66.14 9.132.003 18.46-2.276 27.306-16.72 64.87-37.455 128.65-54.61 193.407-3.588 13.542-4.78 27.61-7.58 41.338-.278 1.362-.42-2.845 0-4.17 6.55-20.61 14.618-40.73 20.853-61.44 11.088-36.83 19.188-74.544 31.1-111.115 7.837-24.06 18.085-47.282 28.064-70.536 3.813-8.884 8.41-17.433 13.273-25.788.99-1.698 3.738-6.086 4.17-4.17 1.415 6.296.405 12.996-.76 19.343-4.16 22.683-10.703 44.876-15.166 67.5l-34.51 184.303c-.946 4.747-1.377 10.375-4.935 13.657-2.23 2.058-.736-6.16 0-9.104 12.94-51.76 25.666-103.616 40.962-154.73 20.62-68.896 44.07-136.915 66.743-205.163 1.23-3.703 4.885-14.516 4.935-10.614.174 13.6-1.88 27.233-4.552 40.58l-60.68 285.18c-2.8 12.947-5.723 25.87-9.097 38.678-2.2 8.315.605 22.043-7.587 24.654-7 2.227-1.472-14.693-.76-21.995 1.445-14.79 4.453-29.393 7.204-43.997 3.823-20.293 8.004-40.522 12.515-60.673l16.684-69.777 42.48-147.9c5.564-18.825 11.29-37.62 17.826-56.128 4.72-13.368 12.577-53.213 15.925-39.437 4.742 19.513-20.637 116.252-25.405 133.868l-55.753 199.852c-15.77 59.023-11.58 62.36-24.27 128.182-2.075 10.762 2.048-21.863 4.17-32.616 1.556-7.887 4.422-15.46 6.828-23.13l100.5-318.938c10.292-32.047 21.263-63.88 32.616-95.566 3.19-8.906 6.68-17.746 10.997-26.164 5.7-11.093 12.61-21.51 18.96-32.24 2.684-4.535-5.872 8.82-7.963 13.657-6.78 15.688-12.967 31.643-18.584 47.783l-80.016 235.504c-8.215 25.23-15.63 50.758-21.62 76.606-10.456 45.115-18.136 90.83-27.69 136.144-.816 3.873-1.915 7.708-3.4 11.373-1.048 2.57-1.926 8.837-4.17 7.204-2.76-2.01-.515-6.865 0-10.24.884-5.787 2.342-11.498 4.17-17.06l38.686-113.39c44.772-140.782 81.678-285.424 141.83-420.948 2.093-4.716 9.598-18.167 7.963-13.273l-112.25 325.383c-21.377 63.95-31.16 130.594-50.818 194.925-.4 1.307-2.613 4.735-2.276 3.4 9.663-37.93 26.044-59.376 44.748-100.118 10.04-21.873 19.565-43.995 28.44-66.367 26.463-66.713 82.823-240.236 92.914-268.112 6.047-16.704 16.608-31.615 22.002-48.54 1.805-5.664-8.432 8.673-11.005 14.032-6.613 13.776-11.164 28.456-16.3 42.847l-79.265 224.89c-8.293 24.38-15.854 49.034-22.378 73.946-5.37 20.508-9.2 41.393-13.273 62.198-4.144 21.17-7.304 42.523-11.373 63.708-.235 1.222-1.273 4.63-1.517 3.4-.72-3.595-1.28-7.562 0-10.997L1272.08 606.3c7.427-19.088 24.682-62.845 35.268-84.568 8.47-17.383-73.035 163.505-93.673 211.233-12.662 29.282-24.176 59.072-34.893 89.12-7.374 20.676-39.777 54.93-19.343 62.95 20.472 8.035 20.848-38.766 29.965-58.78 77.754-170.7 43.466-108.327 93.673-209.332 2.24-4.508 4.235-9.208 7.204-13.273.67-.918.398 2.345 0 3.4-4.307 11.523-9.036 22.892-14.032 34.134-8.66 19.484-17.322 38.984-26.922 58.02-12.656 25.097-26.238 49.72-39.82 74.33-10.62 19.24-47.38 74.78-58.405 109.973-.795 2.538-1.223 5.446-.383 7.97.32.96 2.232.616 3.035 0 3.194-2.45 5.926-5.512 8.346-8.73 8.346-11.097 16.632-22.287 23.888-34.126 9.58-15.63 18.237-31.825 26.547-48.166l75.47-152.453c3.925-7.73 17.945-29.674 13.273-22.37-31.878 49.84-47.53 79.76-76.606 139.938-4.632 9.586-34.202 75.66-35.65 95.94-.448 6.272 6.725-10.656 9.48-16.308l48.925-103.528c11.558-22.76 24.435-44.84 37.544-66.743 6.88-11.493 27.92-45.57 22.378-33.375-15.608 34.335-36.223 66.2-52.718 100.118-19.422 39.938-37.21 80.657-54.987 121.354-3.217 7.364-6.22 14.91-7.963 22.753-.297 1.334 2.637-1.15 3.4-2.276 8.39-12.234 17.048-24.384 23.895-37.544 22.388-43.03 41.973-87.47 63.708-130.834 4.44-8.86 9.258-17.567 14.79-25.788.93-1.38-.023 3.442-.76 4.935-12.446 25.252-26.16 49.864-38.678 75.08l-67.126 138.045c-.608 1.275-1.795 5.13-.76 4.17 43.042-39.852 86.903-155.596 107.322-199.094 1.043-2.22-.37 5.034-1.517 7.204l-69.777 127.8c-3.318 6.227-26.647 44.056-21.995 59.163.15.483 1.238.422 1.517 0l12.515-16.308c6.097-9.223 11.78-18.73 17.067-28.44l50.06-94.807c4.975-8.91 10.975-17.227 17.067-25.413 2.4-3.226 4.95-6.553 8.338-8.72.8-.52 1.593 1.802 1.142 2.652-70.187 132.265-41.505 73.056-100.884 178.624-.498.886-1.25 2.506-.376 3.027.847.506 1.735-1.068 2.276-1.893 11.493-17.54 23.493-34.802 33.75-53.094 15.43-27.515 28.272-56.412 43.23-84.185 6.997-12.99-12.16 26.928-19.335 39.82-14.582 26.196-30.917 51.382-45.9 77.357-4.123 7.152-8.466 14.272-11.38 21.995-.5 1.322 2.886-.81 3.793-1.893 8.91-10.644 17.438-21.63 25.413-32.992 6.328-9.015 11.926-18.53 17.442-28.064 10.288-17.78 19.015-36.468 29.957-53.852 1.797-2.855-.765 6.843-2.268 9.863-14.722 29.56-31.157 58.24-46.273 87.603-.347.675-.664 2.643 0 2.276 5.16-2.85 10.523-5.813 14.415-10.24 11.923-13.557 20.532-29.826 32.616-43.238 1.975-2.192-.444 5.973-1.517 8.72-4.137 10.594-9.682 20.59-14.032 31.1-3.872 9.352-11.877 18.404-10.622 28.447.84 6.724 8.38-10.67 12.14-16.308 9.143-13.715 20.252-26.487 26.547-41.72 3.61-8.74-45.637 65.74-40.58 60.68 31.428-31.428 69.828-138.317-1.517 24.27-1.005 2.29 3.824-3.293 5.303-5.31 5.493-7.492 10.816-15.136 15.55-23.13 8.68-14.655 17.066-29.507 24.654-44.756 5.7-11.457 10.586-23.32 15.166-35.268 1.25-3.265 5.35-11.906 2.276-10.24-14.04 7.617-43.077 76.888-47.024 84.568-6.992 13.603-12.2 15.58-4.928-10.24 7.36-26.168 17.64-51.43 25.788-77.364 2.224-7.077 3.7-14.37 5.31-21.61.668-3.003 3.88-7.135 1.517-9.104-2.065-1.72-4.277 3.307-6.07 5.31-2.53 2.827-4.868 5.856-6.828 9.104-16.13 26.73-33.442 52.853-47.407 80.775-5.293 10.583 14.837-18.494 21.236-28.447 10.693-16.632 19.216-34.597 29.965-51.193.893-1.38.345 3.322 0 4.928-.806 3.753-1.855 7.49-3.418 10.997-18.676 41.902-42.112 81.846-57.263 125.147-9.003 25.73 26.807-47.517 38.686-72.053 5.474-11.306 7.996-23.87 13.273-35.268 2.138-4.62-1.89 10.07-3.793 14.79-8.612 21.37-18.46 42.222-27.69 63.332" stroke="#00c15a" class="B C D"/><g transform="matrix(-1 0 0 1 527.934164 618)"><path d="M28.864 185.7c47.05-58.855 135.523-66.773 209.467-63.82s98.938 20.606 135.97 77.62 28.775 101.45 7.687 143.545C332.577 441.68 99.52 472.06 22.414 379.264-18.678 329.8 7.02 250.77 18.942 199.882l9.922-14.183z" fill="#ff8100"/><g stroke="#ffc415" stroke-width="11.31" class="B C"><path d="M242.937 167.404c13.6 33.32 51.9 11.005 36.786-12.604m-91.49-25.2c26.687 13.578 43.933 37.5 66.17 58.24 12.302 11.468 24.444 23.15 35.687 35.623 3.307 3.67 9.675 8.05 7.756 12.572-1.763 4.154-43.64 7.296-47.32.57-1.903-3.478-2.456-15.568-2.328-11.62 1.177 36.418 15.875 74.46 7.17 103.976-4.66 15.8-69.804 4.992-67.142 14.404 5.643 19.952 28.477 21.5 68.503 4.675 3.954 8.077 1.64 17.912 1.164 26.86-1.077 20.2-3.877 40.255-5.816 60.382"/><path d="M171.818 175.6c-2.86 22.582 27.998 36.85 48.048 20.22 13.473-11.176 6.196-25.685 5.98-41.03"/></g><path d="M250.09 72.965c-15.27 52.25-101.7 61.096-139.56 31.793s-2.18-28.945 20.88-18.09l.36.005c17.724 12.995 40.388 15.053 68 6.176a13.93 13.93 0 0 0 2.143-.706l2.696-.944-.22-.242c18.595-9.99 55.27-50.713 45.7-17.992zm-39.688-48.16c10.23 23.848-9.772 52.56-14.85 62.1-16.184 3.82-36.015 1.506-59.5-6.94-7.326-17.364-9.716-37.71 1.183-54.923 18.532-29.27 57.915-35.766 73.158-.236z" fill="#001c6c"/></g><path d="M760.945 425.4c57.79 69.554 10.36 12.6 7.622 8.89-2.322-3.158-2.525-8.2-5.93-10.155-1.958-1.12-.62 4.598 0 6.767 1.952 6.83 5.435 13.14 7.622 19.9.93 2.87.708 6.038 1.694 8.89 2.687 7.77.768-8.33-.428-10.155-4.49-6.845-9.085-13.664-14.39-19.9-6.235-7.328-14.24 28.912-11 34.288 1.553 2.585.433-6.148 1.694-8.89 5.276-11.47 12.03-22.2 17.777-33.44.61-1.194 2.018-2.7 1.275-3.815-1.654-2.484-6.99 1.527-8.897 3.388-5.025 4.9-29.676 32.23-28.36 36.83.388 1.357 3.148.9 4.235 0 4.16-3.447 7.44-7.882 10.582-12.276 9.997-13.974 19.59-28.244 28.787-42.758.302-.477-1.383-.472-1.694 0l-16.51 20.746c-6.322 9.604-12.028 19.653-16.93 30.053-.965 2.047-2.36 5.598-.428 6.776 12.995 7.913 45.424-42.58 49.114-46.992.454-.542.38 1.525 0 2.122-7.587 11.92-16.292 23.112-23.714 35.135-3.746 6.07-10.092 11.93-9.736 19.052.18 3.593 7.35-.544 10.582-2.122 8.727-4.258 42.777-57.23 32.603-39.79-33.346 57.164-24.722 24.553-38.104 57.575-.212.523-.516 1.464 0 1.694 12.243 5.447 28.133-26.017 31.747-31.756 1.177-1.868 4.922-6.95 2.97-5.92-8.17 4.303-28.778 32.1-30.062 33.86-1.674 2.294-6.118 5.97-3.807 7.622 9.682 6.917 28.393-14.474 30.053-16.083 8.385-8.13 28.892-36.065 24.133-25.4-8.724 19.552-24.857 34.887-36.4 52.912-1.35 2.104-3.472 5.097-2.113 7.195 3.23 4.982 13.757-5.288 13.97-5.5 23.895-23.895 72.367-107.376-1.694 9.736-.378.598-.643 1.828 0 2.122 1.412.643 3.195.526 4.654 0 15.288-5.512 88.745-131.232-3.807 7.614-2.276 3.414-4.578 7.013-5.5 11-.222.96 2.055.394 2.96 0 2.442-1.062 4.958-2.288 6.776-4.235 8.136-8.716 15.868-17.854 22.86-27.513 3.778-5.22 6.605-11.093 9.316-16.94 1.82-3.927 3.21-8.07 4.235-12.276.4-1.646.905-6.514 0-5.082-19.625 31.073-32.134 74.17-30.91 110.915.024.707 1.823.64 2.122 0 2.71-5.824 4.728-11.98 6.348-18.196 7.136-27.392 12.365-55.27 19.9-82.555 1.204-4.363-.207 9.07-.847 13.55-1.34 9.37-4.202 18.515-5.082 27.94-1.102 11.803-1.92 23.748-.847 35.554.145 1.6 2.903-1.63 3.807-2.96 1.563-2.3 2.492-5 3.388-7.622 3.766-11.07 8.21-21.992 10.582-33.44 2.592-12.514 2.367-25.46 4.235-38.104.598-4.05.225 8.233-.42 12.276-1.903 11.944-5.66 23.567-7.203 35.563-2.132 16.562-5.47 33.336-3.807 49.952.585 5.844 5.145-10.58 7.195-16.083 2.897-7.78 5.626-15.65 7.622-23.706 1.965-7.928 3.4-16.008 4.235-24.133 1.013-9.975 5.58-39.105 1.266-30.053-9.66 20.276-11.43 66.078-11.43 88.894 0 .565 1.575.552 1.694 0l1.275-2.96c.907-4.196 1.813-8.422 2.113-12.704 1.114-15.92 1.028-31.91 2.122-47.83.387-5.63.38 11.3 0 16.93-.61 9.065-2.468 18.022-2.97 27.093-.63 11.413-.42 22.858-.42 34.288 0 1-.45 2.478.42 2.97 19.79 11.16 12.33-97.077 14.398-78.74 3.005 26.643-1.69 53.705.42 80.433 11.686 148.14-6.702-311.58 4.654-80.014 2.66 54.25-5.308 65.064 5.93 109.648 1.576 6.252 4.194 23.238 7.622 17.777 6.413-10.215 3.264-23.933 3.807-35.982 1-22.416-.003-44.888.847-67.3.28-7.384 2.292-29.405 2.54-22.02 1.094 32.44-.363 64.917 0 97.372.062 5.52.462 11.05 1.275 16.51.746 5.01 3.242 19.882 3.388 14.817 1.27-44.15 3.066-88.445 0-132.507-1.24-17.83-4.714 35.483-5.51 53.34-1.043 23.403-.272 46.854 0 70.28.01.893-.02 2.325.847 2.54 4.64 1.156 8.412-13.234 11-30.062 1.468-9.51 1.854-19.17 2.113-28.787.445-16.505 2.51-65.852 0-49.533-3.35 21.775-2.163 44.016-2.54 66.044-.47 27.372-1.663 109.453 0 82.127 3.215-52.843 1.4-105.913 4.662-158.754 6.545-106.325-8.167 223.842 9.308 140.13 11.74-56.233-9.376-252.6 1.275 7.195.233 5.677 3.25-10.915 4.235-16.51 1.7-9.67 3.292-19.402 3.807-29.207 1.746-33.273-2.626-132.76 2.97-99.913 6.705 39.368-8.125 80.793.42 119.803 7.2 32.827 11.93-152.386 11.857-135.886-.23 52.644-1.883 105.273-2.97 157.907-.096 4.656-.51-9.34 0-13.97 2.318-21.1 6.6-41.95 8.47-63.084 1.943-21.948.45-87.926 2.96-66.035 3.487 30.422-.756 61.25 0 91.863.093 3.765 1.106 14.493 2.54 11h1.694c.93-2.254 1.002-4.78 1.275-7.203 1-8.873 2.24-17.742 2.54-26.666.687-20.45-.432-40.938.42-61.382.42-10.075 1.854-40.03 3.388-30.062 4.06 26.387-2.292 70.83-3.388 97.79-.5 12.548-11.66 42.342 0 37.676 13.377-5.353 7.977-27.74 10.582-41.91 5.73-31.17 10.467-62.53 14.398-93.976 1.296-10.37 2.765-20.985 1.266-31.328-.282-1.944-4.306.554-5.5 2.113-2.312 3.015-3.168 6.936-4.235 10.582-3.315 11.335-6.336 22.766-8.89 34.297-1.544 6.976-2.573 14.067-3.388 21.165-1.584 13.795-3.18 27.61-3.807 41.483-.785 17.34-1.446 34.745-.428 52.074.074 1.26 2.746-.607 3.388-1.694 1.34-2.27 1.696-5.02 2.113-7.622 1.28-8 2.47-16.038 2.97-24.125 1.34-21.708.686-43.527 2.54-65.197 2.1-24.52 4.873-97.445 9.308-73.24 7.452 40.67-.833 82.7 0 124.038.158 7.823 1.63 15.577 2.97 23.287.504 2.904 1.223 5.833 2.54 8.47.34.678 1.976 1.584 2.113.838 3.557-19.35 6.8-38.81 8.47-58.413 3.708-43.804-1.736-88.708 7.622-131.66 6.94-31.86.07 130.57-5.51 142.243-5.3 11.085 1.123-41.304 2.122-46.573 2.31-12.18 4.678-24.358 7.614-36.4 2.57-10.547 2.074-22.885 8.897-31.328 4.257-5.268.674 13.58 0 20.318-2.153 21.528-6.385 42.816-8.47 64.35-1.306 13.494-1.393 27.082-1.694 40.636-.263 11.85-.5 23.72 0 35.563.06 1.388.593 2.96 1.694 3.807 1.012.78 2.837 1.258 3.807.428 1.493-1.278 1.873-3.55 2.122-5.5 1.736-13.636 3.503-27.32 3.807-41.064.966-43.736 0-87.494 0-131.24 0-35.138-.46 70.28 0 105.414.177 13.55-1.08-27.23.847-40.644 4.583-31.884 13.485-63.024 18.624-94.823 1.646-10.183 1.02-20.607 1.694-30.9.25-3.804.232 7.673-.42 11.43-3.588 20.694-8.518 41.137-12.276 61.8-1.325 7.287-2.23 14.65-2.97 22.02-1.664 16.627-3.292 33.268-4.235 49.952-.47 8.31-.832 16.7 0 24.972.41 4.094.52-8.232 1.275-12.276 3.2-17.137 8.478-33.912 10.582-51.218 5.386-44.3-21.91-104.178 11.857-133.354 29.626-25.598 6.085 156.41 6.767 117.262l.428 32.175c.918-52.69-3.1-45.754 4.235-87.21 1.885-10.655-3.63-28.775 6.775-31.747 9.636-2.753.102 20.077-.847 30.053-2.02 21.24-5.99 42.266-8.05 63.503-1.473 15.19-1.16 30.518-2.54 45.718-.537 5.9-.67-11.9 0-17.777 3.85-33.81 9.46-67.398 13.55-101.18 1.84-15.193-1.45-31.51 4.235-45.718 4.35-10.873.532 23.435 0 35.135-.88 19.363-3.297 38.634-4.235 57.994-.614 12.687-1.016 25.416-.42 38.104.047.995 1.858-1.15 2.113-2.113 2.885-10.9 5.53-21.88 7.195-33.022 1.59-10.64 2.213-21.422 2.54-32.175.945-31.034-1.773-62.24 1.275-93.137.957-9.697 3.75 19.134 5.073 28.787 1.078 7.863 1.904 15.78 2.122 23.714.49 17.913 1.278 35.885 0 53.76-.294 4.104-1.05 13.398-4.662 11.43-4.09-2.228-.573-9.35 0-13.97 3.667-29.568 8.148-59.03 12.704-88.475.606-3.913-.136 7.953-.847 11.85l-22.86 118.118c-.912 5.15-5.787 17.377-.847 15.664 7.18-2.5 8.89-12.48 11.85-19.48 21.006-49.716 19.813-87.006 28.368-137.58 1.153-6.818.427 13.844 0 20.746-.422 6.812-1.52 13.57-2.54 20.318l-13.97 88.903c-.79 5.46-1.096 10.988-1.266 16.502-.252 8.183-.42 16.385 0 24.56.022.42 1.112.393 1.266 0l8.89-19.9c2.16-5.53 4.156-11.158 5.51-16.94 3.31-14.147 6.406-28.375 8.46-42.758 6.838-47.872 10.254-96.228 18.205-143.928 1.902-11.412 1.072 23.188 0 34.707-2.744 29.47-8.388 58.614-11.43 88.056-1.758 17.014-10.46 35.855-2.96 51.227 2.106 4.316 13.8-42.343 15.236-49.952 2.372-12.656 4.766-25.325 6.348-38.104 3.923-31.688 10.425-63.32 10.163-95.25-.123-15.092-7.555 29.238-10.582 44.024-3.044 14.865-5.528 29.85-7.622 44.88-1.86 13.35-3.41 26.762-4.235 40.217-.87 14.23-.402 28.51-.847 42.758-.163 5.22-.596-10.477 0-15.664 6.606-57.503.593-118.36 21.593-172.296 14.13-36.29-.812 77.898 0 116.835.46 22.047.888 87.9 3.815 66.044 9.242-68.995 7.448-139.104 15.236-208.278 2.022-17.963 1.758 36.114 2.113 54.187.35 17.777.11 35.56 0 53.34-.03 5.08.15 10.188-.42 15.236-1.266 11.204-1.984 22.6-5.082 33.44-1.983 6.94.427-14.48 1.694-21.584l30.91-161.295c4.907-27.66-12.042 54.894-16.94 82.555-3.152 17.803-5.54 35.755-7.195 53.76-.89 9.7-3.51 38.454-.428 29.215 4.55-13.65 10.655-74.25 11.857-92.29 1.786-26.79 2.272-107.2 4.235-80.433 3.507 47.85-1.68 96.004.42 143.937.553 12.628 3.742-25.054 4.235-37.684 1.767-45.27 1.254-90.6 2.54-135.886.125-4.41.723-8.82 1.694-13.123.093-.41 6.705 108.45 10.582 118.537 8.41 21.876 4.775-46.642 8.042-69.85.692-4.917 3.732-19.362 3.815-14.398.928 55.028-.915 110.067-1.275 165.102-.078 11.855-.118-23.72.428-35.563 1.01-21.894 3.48-43.712 4.235-65.616.94-27.218 1.01-108.934.847-81.7l-1.275 152.825c.013 2.5 1.96 9.7 2.122 7.195l9.308-182.032c.035-.6 1.118-1.855 1.275-1.275 1.076 3.988 1.3 8.163 1.694 12.276l6.767 78.32c1.176 17.2.547 68.804 2.122 51.646 3.122-34.016.595-68.342 2.54-102.445 1.02-17.876 4.31-71.13 6.348-53.34 5.2 45.422 2.05 120.33-8.47 169.755-1.468 6.9-.728-14.148 0-21.165 2.525-24.36 7.37-48.445 9.744-72.82 2.427-24.905 3.582-49.924 4.654-74.924.762-17.766.001-35.578.847-53.34.027-.564 1.583-.554 1.694 0 1.394 6.968 1.9 14.087 2.54 21.165l5.082 64.342c2.34 23.055-6.695 86.534 8.46 69.004 18.49-21.388 3.868-56.42 5.082-84.668.624-14.52 2.308-58.006.428-43.596-6.79 52.04-12.83 316.412-5.082-8.897.85-35.692-.562 71.4 0 107.108.143 9.057.873 18.12 2.113 27.093.6 4.34 2.95 17.065 3.388 12.704 5.352-53.2 7.408-106.7 11.43-160.028.212-2.815.577 5.706 0 8.47-9.843 47.186-20.592 87.627-18.624 136.314.018.444 1.144.008 1.266-.42.785-2.745 1.025-5.625 1.275-8.47 5.255-59.958 3.743-120.84 15.236-179.92 16.004-82.27-10.5 106.334 4.662 121.497 1.773 1.773 3.62-1.233 5.5-8.042 3.417-12.373 7.608-24.598 9.736-37.257 3.672-21.852 2.925-87.7 7.622-66.035 7.15 32.957.7 67.454 0 101.17-.148 7.107-.912 14.254-2.54 21.173-.197.836-2.517 1.277-2.54.42l-2.54-12.276c-.873-31.596-2.423-63.278-.42-94.823.88-13.858 3.346 27.605 3.807 41.483.8 24.4-2.1 48.916 0 73.24 1.12 12.973 2.358-25.944 2.96-38.95 1.514-32.72-2.1-130.502 3.388-98.21 6.608 38.81-.94 78.75 0 118.11.097 4.04 2.057-7.844 2.54-11.857.93-7.724 1.463-15.502 1.694-23.278.757-25.534-1.77-51.262 1.266-76.626 2.615-21.86-.623 44.038 0 66.044.225 7.944 1.22 15.87 2.54 23.706 1.086 6.447 2.633 12.837 4.662 19.052.18.553 1.53.978 1.694.42 1.976-6.776 3.387-13.74 4.235-20.746 2.4-19.835 2.513-79.443 5.5-59.688 4.37 28.884-.633 116.834-1.275 87.628-.784-35.692.847-71.398.847-107.1 0-28.082-3.147 56.253-.847 84.24 10.518 127.972.7-84.8 9.316-38.523 2.198 11.794-.714 24.087.847 35.982.18 1.368 7.488 11.37 11.43 6.776 3.18-3.706 3.772-15.886 3.815-21.165V71.5c-.005-.582.027-1.33-.428-1.694-.44-.352-1.663-.564-1.694 0l-3.807 40.217c-.542 10.003-1.08 40.013 0 30.053 1.783-16.427-2.094-33.546 2.113-49.524 2.844-10.8-.895 22.687 2.122 33.44 2.06 7.34-1.193-15.512.847-22.86 2.232-8.038 8.814 8.548 10.155 3.388 1.816-6.988.67-14.446 1.694-21.593.32-2.24-1.596 5.763.428 6.776" stroke="#00c15a" class="B C D"/></g></svg>