<svg xmlns="http://www.w3.org/2000/svg" xmlns:xlink="http://www.w3.org/1999/xlink" width="1235" height="1136" xmlns:v="https://vecta.io/nano"><style><![CDATA[.B{stroke-width:5.322}.C{stroke-linejoin:round}.D{fill:#42be65}.E{fill:#001c6c}.F{stroke-linecap:round}.G{stroke:#212121}.H{stroke:#14591d}.I{fill:#fb3640}.J{stroke:#001c6c}.K{fill:#0d62fe}.L{fill:#011638}.M{fill:#192bc2}]]></style><g fill="none" fill-rule="evenodd"><path d="M0 72.268C15.468 23.776 53.5 18.76 114.13 57.22c.418-45.705 22.087-64.03 65.008-54.97s72.185 27.38 87.792 54.97c25.64-22.434 51.073-24.734 76.296-6.898s34.42 25.152 27.592 21.947H0zm862 204c15.468-48.492 53.5-53.508 114.13-15.05.418-45.705 22.087-64.03 65.008-54.97s72.185 27.38 87.792 54.97c25.64-22.434 51.073-24.734 76.296-6.898s34.42 25.152 27.592 21.947H862z" fill-opacity=".02" class="K"/><g transform="translate(139 133)"><path d="M584.512 362.58l.396.73c2.4 4.378 4.836 8.658 7.353 12.693l-5.255-.002c-.503-4.07-1.315-8.45-2.307-12.646l-.187-.775zm-5.002-61.282l1.13 1.08c8.923 8.573 15.214 15.41 18.872 20.515l.23.33c3.513 5.212 8.116 19.015 13.81 41.41l3.084-9.94c5.1-16.363.898-18.866 2.993-24.693.975-2.712 4.308-9.712 10-21 1.47 19.745 1.467 34.745-.013 45-1.335 9.252-4.887 17.69-6.795 22l-23.083.001c3.003-6.538 4.492-17.26 2.72-22.43l-.346-1c-4.188-11.962-11.722-29.054-22.6-51.276zm86.388 32.395c-5.762 10.722-4.37 33.597-11.724 42.31l-8.547-.002c-.56-1.62-4.484-3.717-4.312-6.1l.04-.515-.023.078c-.636 2.094-6.075 4.273-6.705 6.538h-3.71l1.15-.376c3.505-1.166 6.54-2.364 6.59-3.156.97-15.922-.402-31.913.122-47.856l.065-1.7c.196-4.507 1.457-13.145 3.784-25.914.46 10.615-.23 20.502.324 26.14.605 6.144 2.45 12.132 2.946 18.285.34 4.212 3.093-9.57 14.73-23.425 6.52-7.762 20.647-13.692 27-21l5-4c-13.156 18.452-22.066 32.016-26.728 40.693zM573.627 337c4.99 9.348 7.893 15.28 8.705 17.798.765 2.37 1.493 4.968 2.15 7.657l.03.125-4.885 8.42c-6-10.667-9.058-22.395-9.174-35.186l.174-5.814c.6 2.477 1.6 4.8 3 7z" class="B D H"/><path d="M590.673 231h31.52l.792 17.228c.14 3.452.727 32.442 1.756 86.97l-1.316 40.8h-33.367l-1.316-87.43 1.933-57.57z" class="L"/><path d="M589.673 231h21.52l.792 17.228c.14 3.452.727 32.442 1.756 86.97l-1.316 40.8h-23.367l-1.316-87.43 1.933-57.57z" class="E"/><path d="M513.16 101h166c36 13.333 49.667 64 41 152h-152l-55-152z" class="K"/><path d="M461.16 253c-10.667-101.333 5.333-152 48-152 64 0 59 144 59 152h-107z" class="B C E G"/><g stroke="#000" class="B C I"><path d="M382.7 156c-18.067 37.06-27.452 61.972-28.156 74.733-.033.6-1.03 0-1.543 0l151.54.267L535 156H382.7z"/><path d="M383 159l55 35 94-35" class="F"/></g><path d="M461.16 253c-36.667 76.667-33.667 115 9 115 64 0 98-107 98-115h-107z" class="B C J K"/><use xlink:href="#B" class="I"/><path d="M582.125 165c-3-10 12.226-20.18 21-13 11 9 2 20-2 23s-16 0-19-10z" class="B C E G"/><use xlink:href="#C" class="I"/><g class="B D H"><use xlink:href="#D"/><use xlink:href="#E"/></g><path d="M.018 17.566c3.9 7.823 88.3 73.7 128.5 65.926 8.077-1.56 95.128 30.108 86.54-33.457S105.288-22.3 140.276 59.11c20.976 48.8 150.215 109.82 196.67 67.36" transform="matrix(-.866025 -.5 -.5 .866025 363.036842 168.947961)" stroke-dasharray="20" class="B C F J"/></g><g transform="matrix(-1 0 0 1 436 400)"><path d="M56.142 79.815c-1.5-26.347 21.8-33.052 28.26-8.8 4.928 18.502-21.933 20.257-30.4 8.8" fill="#212121"/><path d="M90.432-.032c8.98 0 18.1.65 27.356 1.948l1.737.25c3.665.545 6.56 3.393 7.16 7.046 2.742 16.663 3.852 33.64 3.332 50.934 2.413 1.752 5.596 1.35 9.55-1.202-.434-16.88.688-33.456 3.366-49.732.585-3.557 3.344-6.35 6.872-7l.288-.048 1.737-.25c9.257-1.3 18.376-1.948 27.356-1.948l2.11.01c11.795.108 35.638 1.064 71.53 2.866 3.81.19 7.136 2.62 8.486 6.165l.105.3.353 1.04c5.36 15.976 8.04 33.823 8.04 53.543 0 18.816-2.497 35.197-7.5 49.145-1.767 4.937-6.367 8.284-11.6 8.47l-.334.008-5.137.042c-10.095.066-19.113.03-27.057-.106l-4.58-.08-56.143-.02c-6.104.035-11.366-4.24-12.6-10.182l-.062-.32-.292-1.634c-1.456-8.29-2.606-16.887-3.45-25.794-4.092-4.4-8.298-4.74-12.617-1.023-1.175 10.682-2.967 21.337-5.375 31.968l-.413 1.796c-1.31 5.617-6.22 9.662-11.99 9.874l-25.545.906-29.112.85-3.727.068-28.5.07-2.58-.023c-5.34-.05-10.088-3.41-11.907-8.43C2.975 101.993-.192 83.464-.192 63.88c0-19.72 2.68-37.567 8.04-53.543L8.2 9.3c1.276-3.703 4.677-6.258 8.59-6.455l12.105-.598L90.432-.032zm-10.78 10.106l-1.677.063c-10.665.44-25.613 1.814-44.842 4.12l-3.127.378a4.27 4.27 0 0 0-3.726 3.841l-.244 2.62c-3.882 42.53-2.7 72.016 3.575 88.46 2.78 7.297 30.108 8.367 81.984 3.21l.47-3.98c2.766-23.872 4-41.383 3.702-52.534l-.013-.455c-.364-11.728-1.75-26.255-4.157-43.58-9.416-1.823-20.063-2.536-31.942-2.14zm98.324 1l-1.15-.035c-11.15-.31-17.418.408-18.803 2.156l-.322 2.325c-2.208 16.158-3.486 29.787-3.833 40.887l-.028 1.073c-.255 11.617 1.052 28.675 3.922 51.174 53.966 2.993 82.338.87 85.116-6.364 6.374-16.6 6.568-44.27.582-83.005a4.25 4.25 0 0 0-3.818-3.579l-9.448-.85c-24.62-2.184-42.025-3.444-52.217-3.782z" fill="#f3a712"/><path d="M105.375 12.52l194.25 13.53c1.9 7.445 2.96 45.128 3.182 113.05l-3.182 71.112c-66.5 9.52-152.25 9.52-257.25 0C38.9 144.727 59.457 79.486 104.017 14.49l1.358-1.97z" class="I"/><g class="G B C F"><path d="M196 189.7c20.95-9.986 31.325-8.537 51.252 2.516M45 162.516c20.95 9.986 31.325 8.537 51.252-2.516"/><path d="M116.935 16c-.215 12.262-7.018 58.715 6.237 76.594C155.716 136.492 239.12 190.524 289 144.33"/><path d="M122.38 117.306c3.16-8.323 5.434-15.533 15.343-20.922 5.495-2.99 12.626-1.964 18.752-.698 5.262 1.087 10.542 3.637 14.26 7.516 16.62 17.346 1.243 43.32-18.91 46.65-7.4 1.222-27.04 3.848-31.383-6.5" fill="#ff4445"/><path d="M169 20c15.666 46.232 31.98 83.602 75.24 106.822 14.95 8.025 49.843 26.862 64.76 8.18M234 12c10.944 51.387 25.84 109.575 80 119"/></g></g><g transform="matrix(-1 0 0 1 1015 716)"><path d="M623.568 293.58l-.396.73c-2.4 4.378-4.836 8.658-7.353 12.693l5.255-.002c.503-4.07 1.315-8.45 2.307-12.646l.187-.775zm5.002-61.282l-1.13 1.08c-8.923 8.573-15.214 15.41-18.872 20.515l-.23.33c-3.513 5.212-8.116 19.015-13.81 41.41l-3.084-9.94c-5.1-16.363-.898-18.866-2.993-24.693-.975-2.712-4.308-9.712-10-21-1.47 19.745-1.467 34.745.013 45 1.335 9.252 4.887 17.69 6.795 22l23.083.001c-3.003-6.538-4.492-17.26-2.72-22.43l.346-1c4.188-11.962 11.722-29.054 22.6-51.276zm-86.388 32.395c5.762 10.722 4.37 33.597 11.724 42.31l8.547-.002c.56-1.62 4.484-3.717 4.312-6.1l-.04-.515.023.078c.636 2.094 6.075 4.273 6.705 6.538h3.71l-1.15-.376c-3.505-1.166-6.54-2.364-6.59-3.156-.97-15.922.402-31.913-.122-47.856l-.065-1.7c-.196-4.507-1.457-13.145-3.784-25.914-.46 10.615.23 20.502-.324 26.14-.605 6.144-2.45 12.132-2.946 18.285-.34 4.212-3.093-9.57-14.73-23.425-6.52-7.762-20.647-13.692-27-21l-5-4c13.156 18.452 22.066 32.016 26.728 40.693zM634.453 268c-4.99 9.348-7.893 15.28-8.705 17.798-.765 2.37-1.493 4.968-2.15 7.657l-.03.125 4.885 8.42c6-10.667 9.058-22.395 9.174-35.186l-.174-5.814c-.6 2.477-1.6 4.8-3 7z" class="B D H"/><path d="M535.673 162h31.52l.792 17.228c.14 3.452.727 32.442 1.756 86.97l-1.316 40.8h-33.367l-1.316-87.43 1.933-57.57z" class="L"/><path d="M534.673 162h21.52l.792 17.228c.14 3.452.727 32.442 1.756 86.97l-1.316 40.8h-23.367l-1.316-87.43 1.933-57.57z" class="E"/><path d="M458.16 32h166c36 13.333 49.667 64 41 152h-152l-55-152z" class="M"/><path d="M405.94 184c-10.667-101.333 5.333-152 48-152 64 0 59 144 59 152h-107z" class="B C E G"/><g stroke="#000" class="B C D"><path d="M319.7 87c-18.067 37.06-27.452 61.972-28.156 74.733-.033.6-1.03 0-1.543 0l151.54.267L472 87H319.7z"/><path d="M320 90l55 35 94-35" class="F"/></g><path d="M406.16 184c-36.667 57.333-33.667 86 9 86 64 0 98-80.017 98-86h-107z" class="B C J M"/><use xlink:href="#B" x="-55" y="-69" class="L"/><path d="M527.125 96c-3-10 12.226-20.18 21-13 11 9 2 20-2 23s-16 0-19-10z" class="B C E G"/><use xlink:href="#C" x="-55" y="-69" class="M"/><g class="B D H"><use xlink:href="#D" x="-55" y="-69"/><use xlink:href="#E" x="-55" y="-69"/></g><path d="M44.98 48.092C4.993 122.697-8 188.667 6 246c55.913 35.237 119.584 46.105 191.015 32.605 38.007-76.176 50.267-125.513 36.78-148.013 32.468 8.5 51.95 5 58.443-10.5s-19.48-33.25-77.924-53.25c-39.34-10.053-70.06-16.303-92.16-18.75s-47.826-2.447-77.175 0z" class="D"/><g class="B C F"><path d="M49 72.232c2.18-14.72 20.998-38.77 34.377-44.428 3.522-1.49 7.2-2.63 10.954-3.404 2.408-.497 6.42-2.65 7.366-.378 6.942 16.672-25.69 43.698-38.152 47.263-1.1.312-.267-2.36.187-3.4 1.346-3.08 2.813-6.236 5.1-8.7 11.7-12.616 26.997-27.975 45.14-31.38 1.61-.302 4.3-1.516 4.912 0 4.93 12.003-6.625 31.57-17.565 37.242-4.803 2.5-10.968 10.696-14.733 6.808-3.622-3.74 5.23-9.14 8.878-12.856 6.948-7.08 14.53-13.605 22.664-19.282 4.253-2.97 9.212-4.9 14.168-6.43 4.322-1.333 8.903-2.477 13.408-2.078 1.234.11 1.377 2.167 1.51 3.4 1.897 17.377-17.6 34.2-31.732 40.27-1.33.573-.467-2.976 0-4.348.586-1.72 1.827-3.17 3.023-4.54 3.225-3.69 6.61-7.25 10.198-10.586 1.78-1.656 3.757-3.12 5.855-4.348 7.174-4.2 14.162-8.905 21.912-11.912 3.656-1.42 8.487-3.372 11.7-1.135 2.535 1.76 1.11 6.384 0 9.265-4.922 12.76-8.74 19.743-18.698 26.655-3.82 2.65-9.048 5.367-13.977 4.917-.618-.056.37-1.218.756-1.704 4.538-5.707 9.075-11.428 13.977-16.825 5.18-5.704 10.55-11.254 16.24-16.447 1.46-1.333 3.18-2.57 5.103-3.026 5.372-1.273 11.36-4.263 16.43-2.078 2.776 1.196.836 6.228-.19 9.074-2.275 6.302-10.99 18.593-16.618 23.064-12.653 10.053-12.427 1.75-6.8-4.348 7.067-7.66 14.063-15.528 22.286-21.93 2.766-2.153 6.56-2.602 10.01-3.213 2.666-.472 5.664-1.136 8.122 0 1.465.677 1.534 2.932 1.698 4.54.347 3.386 1.085 7.052-.187 10.208-4.502 11.17-17.492 24.318-29.843 25.142" stroke="#ff8100"/><path d="M184 90.942c2.33 4.16 4.2 8.62 6.988 12.478 7.165 9.88 22.087 6.3 23.797-5.86.763-5.43.504-10.965.378-16.447-.006-.252-.504 0-.756 0M192.28 183.865c17.15 16.082 32.735 2 48.92-8.32" class="J"/><path d="M234.334 200.478c8.336 3.503 6.58 1.255 10.763 12.478 1.672 4.486 3.27 9.067 3.97 13.803.636 4.3.752 8.76 0 13.043-1.385 7.882-18.685 11.894-23.045 5.104-6.8-10.588-8.516-16.252-9.63-28.924-.233-2.648-1.052-6 .756-7.94 1.5-1.616 5.014-1.52 6.6 0a33.11 33.11 0 0 1 8.874 14.747c1.88 6.682 1.624 13.87 1.134 20.795-.443 6.246-11.908 16.898-17.374 9.265-4.354-6.08-6.336-13.014-6.988-20.42-.597-6.78-1.635-13.727-.378-20.416 2.078-11.06 6.067 1.215 6.6 5.67.887 7.26 1.268 14.654.565 21.933-.568 5.887-2.55 11.568-4.343 17.203-.488 1.533-1.317 3.02-2.454 4.157s-2.582 2.127-4.156 2.46c-1.852.393-4.098.68-5.668-.378-1.564-1.056-2.238-3.228-2.454-5.104-1.497-13-2.832-26.063-2.645-39.136.016-1.1 2.998-1.633 3.214-.565 2.933 14.514-.74 22.925-7.18 35.92-1.263 2.55-6.5 8.84-10.767 6.617-6.914-3.612-2.398-34.7 4.912-38.945.6-.35 1.952-.872 2.076-.187 2.115 11.644-4.408 23.754-12.652 31.572-1.92 1.82-15.4 7.648-16.8 4.157-4.758-11.713-.52-33.305 10.198-40.646.735-.503 2.5-1.258 2.645-.378 2.782 16.72-4.573 18.166-18.32 29.872-2.237 1.905-5.948 6.994-7.557 4.535l-3.588.756c-6.15-9.4 17.274-26.34 17.755-40.455.045-1.328-1.153 2.45-2.08 3.4-4.012 4.118-8.435 7.814-12.652 11.72m89.165-85.96c3.64 1.55 2.872.555 4.698 5.518.73 1.984 1.427 4 1.733 6.104.278 1.902.328 3.875 0 5.768-.605 3.486-8.156 5.26-10.06 2.257-2.968-4.683-3.717-7.187-4.203-12.792-.102-1.17-.46-2.65.33-3.5.655-.715 2.2-.672 2.886 0a14.68 14.68 0 0 1 3.873 6.522c.82 2.955.7 6.134.495 9.196-.193 2.762-5.198 7.473-7.584 4.097-1.9-2.7-2.766-5.755-3.05-9.03-.26-3-.714-6.07-.165-9.03.907-4.9 2.648.537 2.886 2.507.387 3.2.553 6.48.247 9.7-.248 2.604-1.113 5.116-1.896 7.608-.213.678-.575 1.335-1.07 1.838s-1.127.94-1.814 1.088c-.8.174-1.8.3-2.474-.167s-.977-1.428-1.07-2.257c-.654-5.744-1.236-11.526-1.155-17.308.007-.48 1.3-.722 1.403-.25 1.28 6.42-.323 10.14-3.134 15.885-.55 1.127-2.842 3.9-4.7 2.926-3.018-1.597-1.047-15.346 2.144-17.224.262-.154.852-.385.906-.083.923 5.15-1.924 10.505-5.523 13.963-.838.805-6.718 3.382-7.337 1.838-2.077-5.18-.227-14.73 4.452-17.975.32-.223 1.1-.556 1.155-.167 1.214 7.394-1.996 8.034-7.997 13.2-.976.842-2.596 3.093-3.3 2.006l-1.566.335c-2.685-4.157 7.54-11.65 7.75-17.9.02-.587-.503 1.083-.908 1.504-1.75 1.82-3.682 3.456-5.523 5.184" stroke="#ff8100"/></g></g></g><defs ><path id="B" d="M595.125 150c16.82-27.386 29.82-47.72 39-61s14.848-19.947 17-20c9.513 5.355 16.18 9.355 20 12s5.82 4.645 6 6l-12 17-16-10-44 62-10-6z"/><path id="C" d="M588.328 163.984c-1.576-5.278 6.42-10.65 11.03-6.862 5.777 4.75 1.05 10.557-1.05 12.14s-8.403 0-9.978-5.278z"/><path id="D" d="M569.758 358.54l-.018-.105.007.014 4.23 6.904c1.497 2.27 7.46 7.06 11.63 10.65h-10.34c-1.283-1.548-3.246-3.156-3.745-4.88-1.174-4.06-1.13-8.4-1.765-12.58z"/><path id="E" d="M594.594 349.9c.343-1.05-1.076-4.68-4.256-10.9l18.98 19.11c3.926 4.24 7.038 12.182 10.548 17.9l-7.953.001-.796-.326c-12.897-5.38-20.507-13.592-16.524-25.786z"/></defs></svg>