<svg xmlns="http://www.w3.org/2000/svg" xmlns:xlink="http://www.w3.org/1999/xlink" width="844" height="899" xmlns:v="https://vecta.io/nano"><style><![CDATA[.B{stroke-linejoin:round}.C{stroke-linecap:round}.D{stroke-width:5}.E{fill:#0d62fe}.F{stroke:#001c6c}.G{fill:#fff}.H{fill:#001c6c}.I{fill:#f4f2ee}.J{fill:#e5e9ee}.K{fill-opacity:.177}.L{stroke-width:5.343}]]></style><defs><path d="M93.063 28.89c0-14.473-44.15-50.475-81.28-8.552-19.21 21.692-10.58 41.79.015 63.156 3.262 6.58 8.202 31.526 12.44 34.868 14.194 11.193 24.908 6.438 24.908 7.237 0 .866-.25-16.497 11.79-15.444 17.932 1.57 42.36-13.8 38.683-44.423" id="A"/><path d="M93.063 37.29C89.39 7.2 52.213-15.316 13.526 13.823-8.264 30.235 1.204 70.527 11.8 91.893c3.262 6.58 8.202 31.526 12.44 34.868 14.194 11.193 24.908 6.438 24.908 7.237 0 .866 12.048-4.822 23.54-9.453 14.687-5.92 30.608-19.78 26.93-50.414" id="B"/><path d="M82.362 44.033l15.895 16.59c6.648 6.758 9.972 12.824 9.972 18.198s-5.474 3.7-16.422-5.05c-10.24 2.316-14.016-.423-11.327-8.218" id="C"/><path d="M128.533 48.47c9.344 34.874-11.35 70.72-46.225 80.064s-70.72-11.35-80.064-46.225 11.35-70.72 46.225-80.064 70.72 11.35 80.064 46.225z" id="D"/><filter x="-45.9%" y="-27.5%" width="191.8%" height="191.8%" id="E"><feOffset dy="24" in="SourceAlpha"/><feGaussianBlur stdDeviation="16"/><feColorMatrix values="0 0 0 0 0.35716712 0 0 0 0 0.35716712 0 0 0 0 0.35716712 0 0 0 0.1 0"/></filter><path d="M128.873 82.32c-9.37 34.88-45.3 55.578-80.276 46.232S-7.12 83.355 2.25 48.476 47.56-7.102 82.526 2.244s55.716 45.197 46.347 80.076z" id="F"/><filter x="-45.8%" y="-27.5%" width="191.5%" height="191.7%" id="G"><feOffset dy="24" in="SourceAlpha"/><feGaussianBlur stdDeviation="16"/><feColorMatrix values="0 0 0 0 0.35716712 0 0 0 0 0.35716712 0 0 0 0 0.35716712 0 0 0 0.1 0"/></filter><filter id="H"><feColorMatrix in="SourceGraphic" values="0 0 0 0 0.050980 0 0 0 0 0.384314 0 0 0 0 0.996078 0 0 0 1.000000 0"/></filter><path id="I" d="M136.533 63.47c9.344 34.874-11.35 70.72-46.225 80.064s-70.72-11.35-80.064-46.225 11.35-70.72 46.225-80.064 70.72 11.35 80.064 46.225z"/><path id="J" d="M74.916 68.26c5.38.47 13.516-3.034 12.886 4.216-.42 4.833-3.75 6.764-9.986 5.794"/><path id="K" d="M66.945 35.887c-10.83-.144-16.404 2.755-16.725 8.697"/><path id="L" d="M60.38 60.994c0 5.835 3.817 5.043 3.816 1.862-.001-5.326-3.816-7.482-3.816-1.862z"/><path id="M" d="M85.34 58.048c0 4.376 1.908 3.783 1.908 1.397-.001-3.995-1.908-5.612-1.908-1.397z"/><path id="N" d="M84.48 35.52c0-.784 9.447-9.34 13.15 1.15"/><path id="O" d="M49.238 73.994c0-.668-16.402-9.352-19.255 6.012-1.902 10.243 4.992 18.036 20.68 23.38"/><path id="P" d="M73.71 29.283c-7.483-8.803-10.564-6.023-9.244 8.34"/></defs><g fill="none" fill-rule="evenodd"><g transform="translate(160.000000, 90.500000) scale(-1, 1) translate(-160.000000, -90.500000) translate(87.000000, 15.000000)"><use xlink:href="#I" class="E K"/><g transform="matrix(.996195 -.087156 .087156 .996195 19.096755 17.553037)"><g transform="translate(0.000000, -0.000000)"><path d="M79.515.327c31.238 20.938 27.134 42.136 27.39 79.603.05 7.515-.17 15.03-.35 22.543-.137 5.658-61.316 16.796-61.72 6.645-.704-17.632-.556-16.313 8.338-34.494 1.175-2.402 3.54-4.105 4.644-6.54 8.522-18.798 14.85-36.062 15.732-56.48" class="B C F H L"/><use xlink:href="#A" class="I"/></g><g class="D F B"><g class="C"><use xlink:href="#J" class="J"/><use xlink:href="#K"/></g><path d="M54.345 83.56c2.26 2.307 13.26 7.536 15.967 7.536 3.238 0 5.968-1.367 8.19-4.102l-4.834.18-3.69.882-4.52-3.407c-7.703-1.028-11.407-1.39-11.1-1.088z"/><g class="G"><use xlink:href="#L"/><use xlink:href="#M"/></g><use xlink:href="#N" class="C"/></g></g><g class="B F"><path d="M59.76 49.547c6.498-3.71 19.796-12.346 28.525-14.405 2.55-.6 17.3-2.928 23.408-2.273 2.748.295 4.028-.35-.09-5.092-3.1-3.568-2.945-26.4-41.945-24-15.968.983-44.19 14.306-53.4 34.8C10.388 51.63-.018 91.456 0 106.376c.023 18.866 55.124 21.202 52.65 14.72-1.98-5.187-5.6-9.684-7.296-14.974-3.923-12.31-6.087-23.553 1.502-35.145 2.27-3.466 10.484 13.327 13.2 10.2l-.296-31.63z" class="H L"/><g class="C D"><use xlink:href="#O" class="J"/><path d="M41.745 78.1c3.7-1.312 6.245-.22 7.633 3.28" class="G"/></g></g></g><path d="M183 535c56-38.667 63.333-87 22-145-62-87 14-70 56.03-124 72.144-92.7-64-147-89-121-42.265 43.956 1 89 58 95s84.065-7.067 113-26c80.9-52.944 133-15.888 185 36.428s55.483 121.186 22 150.572c-22.307 19.572-61.955 27.897-92.02-.162S433.03 327 458.03 313 379.794 233.553 418 172 623 0 589 102c-22.667 68-69.333 46.667-140-64M100 0c12 44-71.97 109-97 38s160.03 3 160.03 101m275 227c0 135 168.05 166.65 220.03 127s33-83-18-113-43-73 18-109" transform="translate(55 178)" opacity=".17" stroke="#0d62fe" stroke-dasharray="12" stroke-width="2.322" class="B C"/><g transform="translate(678.000000, 325.000000)"><use xlink:href="#I" x="3" y="10" class="E K"/><g transform="translate(77.000000, 91.000000) scale(-1, 1) translate(-77.000000, -91.000000) "><g transform="matrix(.996195 -.087156 .087156 .996195 21.727706 18.001403)"><g transform="translate(0.000000, -0.000000)"><path d="M79.515.327c31.238 20.938 27.134 42.136 27.39 79.603s-11.137 65.794-19.64 73.482c-2.4 2.17-51.596 5.602-52-4.55-.704-17.632 9.012-56.058 17.906-74.24 1.175-2.402 3.54-4.105 4.644-6.54 8.522-18.798 14.85-36.062 15.732-56.48" class="E"/><use xlink:href="#B" class="I" href="#A"/></g><g class="D F B"><g class="C"><use xlink:href="#J" x="7.081" y="-7.862" class="J"/><use xlink:href="#K"/></g><path d="M66.473 82.27c2.598 3.305 5.517 4.957 8.755 4.957s5.95-1.168 8.136-3.504l-3.923-3.355-3.69.882-4.52-3.407-4.757 4.427z" transform="translate(74.918451, 82.534288) scale(-1, 1) rotate(-20.000000) translate(-74.918451, -82.534288) " class="H"/><g class="G"><use xlink:href="#L" x="4.95" y="-8.4"/><use xlink:href="#M" x="4.604" y="-4.44"/></g><use xlink:href="#N" class="C"/></g></g><path d="M62.35 50.025C68.87 46.3 82.21 37.657 90.964 35.595c2.557-.602 17.354-2.933 23.48-2.277 2.756.295 4.04-.35-.092-5.1-3.11-3.574-2.954-26.445-42.074-24.04-16.017.984-44.326 14.33-53.565 34.86C12.828 52.112-.018 149.1 0 164.046c.024 18.898 60.862 11.302 58.38 4.808-1.986-5.196-8.787-56.86-10.478-62.16-3.935-12.33-6.106-23.592 1.506-35.205 2.276-3.472 10.516 13.35 13.24 10.217l-.297-31.683z" class="E"/><g class="B C D F"><path d="M51.573 74.005c0-.66-16.4-9.226-19.264 5.93C30.406 90.04 37.303 97.728 53 103" class="J"/><path d="M44 78.563c3.88-1.375 6.545-.23 8 3.438" class="G"/></g></g></g><g transform="translate(429.000000, 32.000000)"><use xlink:href="#I" x="4" y="18" class="E K"/><g transform="matrix(-.996195 -.087156 -.087156 .996195 132.850496 18.189162)"><g transform="translate(1.200000, -0.000000)"><use xlink:href="#B" class="I"/><use fill-opacity=".19" xlink:href="#B" class="H"/></g><path d="M65.756 3.164C50.25-1.908 27.082-1.754 8.988 18.676-4.478 33.88-.52 67.876 7.795 83.928c4.717 9.107 7.475 11.154 9.306 15.028.134.284-4.06 27.885 1.858 32.552 9.307 7.34 17.4 9.236 21.87 9.897m16.257-22.055c11.143 7.237 48.45-.165 43.247-43.508" transform="translate(.486 .108)" class="B C D F"/><use xlink:href="#C" class="I"/><use fill-opacity=".19" xlink:href="#C" class="C D F H"/><g class="B C D F"><use xlink:href="#O" x="-22.75" y="-6.612"/><path d="M18.373 72.505c3.7-1.312 6.245-.22 7.633 3.28" class="G"/></g><use xlink:href="#P" stroke="#979797" stroke-width=".954"/><g class="F B D"><g class="C"><use xlink:href="#P"/><path d="M61.355 82.15c3.238 5.088 6.476 7.633 9.714 7.633s5.088-.463 5.55-1.388"/></g><g class="G"><use xlink:href="#L" x="7.572" y="-4.129"/><use xlink:href="#M" x="7.192" y="-6.586"/></g><path d="M81.342 27.268c0-.784 5.838-7.77 9.54 2.722" class="C"/></g></g></g><g transform="translate(433.000000, 416.000000)"><use fill="#000" filter="url(#E)" xlink:href="#D"/><use xlink:href="#D" class="G"/><path d="M48.125.025L1.983 10.798C.936 11.038.15 11.9.02 12.968s.42 2.087 1.385 2.573l13.104 6.6 1.34 13.244c.106 1.065.876 1.948 1.917 2.208s2.145-.152 2.75-1.033l.398-.402-2.65-10.108a3.44 3.44 0 0 1 1.693-3.255l11.387-6.69-9.1 8.72c-.646.62-.915 1.533-.715 2.398l4.15 17.782c.24 1.04 1.118 1.818 2.185 1.95s2.104-.42 2.594-1.374L52.132 3.586c.104-.156.188-.32.255-.495.227-.588.086-1.487-.173-2.105-.32-.763-1.683-1.083-4.09-.96z" transform="translate(39.75 42.444)" class="E"/></g><g transform="translate(128.000000, 241.000000)"><use fill="#000" filter="url(#G)" xlink:href="#F"/><use xlink:href="#F" class="G"/><path d="M36.544 29.386H46.1V19.84h-9.545v9.545zm-14.317 0h9.545V19.84h-9.545v9.545zm0 14.317h9.545v-9.545h-9.545v9.545zM7.9 29.386h9.545V19.84H7.9v9.545zm0 14.317h9.545v-9.545H7.9v9.545zm40.568-38.18h-4.773V.75h-4.773v11.932H34.16v-7.16H19.84V.75h-4.773v11.932h-4.773v-7.16H5.523C2.9 5.52.75 7.663.75 10.295V46.09a4.78 4.78 0 0 0 4.773 4.773h42.955a4.78 4.78 0 0 0 4.773-4.773V10.295a4.78 4.78 0 0 0-4.773-4.773z" transform="translate(39 38.797)" class="E"/></g><g transform="translate(194.000000, 424.000000)"><use fill="#000" filter="url(#G)" xlink:href="#I" href="#F"/><use xlink:href="#I" class="G" href="#F"/><path d="M35 42.5H5c-2.757 0-5-2.242-5-5v-25h5v25h30v5zM35 15h10v-5H35v5zm0 10h10v-5H35v5zm-17.5 0c0-4.602 2.898-7.5 7.5-7.5-2.76 0-5-2.24-5-5s2.24-5 5-5 5 2.24 5 5-2.24 5-5 5c4.602 0 7.5 2.898 7.5 7.5h-15zm30-25H15c-2.758 0-5 2.24-5 5v22.5c0 2.758 2.242 5 5 5h32.5c2.758 0 5-2.242 5-5V5c0-2.76-2.242-5-5-5h0z" transform="translate(39.75 45.38)" class="E"/></g><path d="M88.254 29.2l-19.97 12.346-16.57-25.6c-.18-.278-.48-.408-.706-.63l4.596-4.742a2.51 2.51 0 0 0 0-3.472L49.432.718c-.926-.957-2.448-.957-3.377 0L39.883 7.08a2.51 2.51 0 0 0 0 3.472l4.596 4.742c-.23.223-.526.353-.706.63L27.2 41.537 7.233 29.2c-1.655-1.023-3.75-.92-5.302.264S-.324 32.67.142 34.6l9.546 39.35c.533 2.186 2.445 3.726 4.636 3.726h66.84c2.192 0 4.103-1.54 4.633-3.726l9.55-39.35c.47-1.928-.24-3.956-1.8-5.144a4.66 4.66 0 0 0-5.302-.264zM8.413 93.965H84.8V84.13H8.413z" transform="translate(87.125 713.125)" class="E"/><g filter="url(#H)" opacity=".156" class="C B"><g transform="translate(35.000000, 663.000000)"><g stroke="#0d62fe"><g stroke-width="8.322"><path d="M168 111.305C193.976 90.278 182.808 96.93 199.26 88" transform="translate(183.629265, 99.652734) rotate(29.000000) translate(-183.629265, -99.652734) "/><path d="M155.187 50.105l2.628-34.567" transform="translate(156.500733, 32.821105) rotate(29.000000) translate(-156.500733, -32.821105) "/><path d="M94 31L88 0"/><path d="M54 50L30 39"/><path d="M149 149l27 26"/><path d="M95 165l-4 29"/><path d="M47 149l-24 26"/><path d="M31 98l-31 4" transform="translate(15.500000, 100.000000) rotate(20.000000) translate(-15.500000, -100.000000) "/></g></g></g></g></g></svg>