<svg xmlns="http://www.w3.org/2000/svg" width="2864" height="1087" fill-rule="evenodd" xmlns:v="https://vecta.io/nano"><g fill="#000"><path d="M581.965 1054.592l-.965 11.165 8.95 6.755-11.263 2.96-4.206 10.557-5.996-9.336-11.55-.23 7.557-8.73-2.932-10.7 10.667 3.94 9.738-6.382zm-83.466.52l10.014 5.386 10.532-4.966-2.51 10.922 7.922 7.934-11.565 1.365-5.636 9.87-4.637-10.08-11.405-1.834 8.7-7.594-1.413-11.003zm146.062-8.996l.405 11.2 9.708 5.615-10.818 4.31-2.887 11-7.1-8.537-11.492 1.178 6.436-9.585-4.215-10.262 11.068 2.613 8.886-7.52zm-208.658-.512l9.282 6.565 11.06-3.647-3.824 10.535 6.896 8.84-11.646-.054-6.797 9.11-3.373-10.57-11.097-3.21 9.56-6.478-.06-11.093zm269.74-15.586l1.768 11.067 10.32 4.39-10.212 5.594-1.525 11.26-8.08-7.6-11.262 2.568 5.22-10.297-5.436-9.673 11.304 1.246 7.903-8.546zm-330.69-1.538l8.412 7.646 11.42-2.273-5.08 9.99 5.766 9.613-11.552-1.47-7.858 8.214-2.06-10.9-10.622-4.536 10.28-5.266 1.293-11.017zM546.5 43C822.367 43 1046 266.634 1046 542.5S822.367 1042 546.5 1042 47 818.366 47 542.5 270.634 43 546.5 43zm217.78 963.54l3.104 10.77 10.78 3.102-9.453 6.795-.14 11.36-8.947-6.57-10.865 3.92 3.924-10.855-6.575-8.94 11.372-.14 6.802-9.445zM316.567 1004l7.417 8.613 11.613-.865-6.262 9.298 4.55 10.243-11.287-2.867-8.8 7.196-.714-11.07-10-5.796 10.845-3.975 2.627-10.778zm503.02-27.963l4.395 10.31 11.077 1.766-8.554 7.896 1.247 11.294-9.68-5.43-10.306 5.214 2.57-11.252-7.616-8.07 11.27-1.523 5.6-10.202zm-557.95-3.5l6.31 9.452 11.632.555-7.35 8.466 3.267 10.72-10.853-4.22-9.613 6.07.642-11.074-9.208-6.97 11.25-2.625 3.922-10.378zm609.086-33.562l5.62 9.7 11.2.404-7.527 8.878 2.615 11.058-10.272-4.212-9.593 6.43 1.18-11.48-8.544-7.084 11-2.884 4.313-10.808zm-659.73-4.4l5.11 10.15 11.478 1.968-8.327 7.51 1.935 11.04-10.257-5.5-10.282 4.855 1.988-10.914-8.3-8.038 11.486-1.235 5.16-9.823zm705.92-38.653l6.76 8.942 11.175-.964-6.388 9.73 3.945 10.657-10.71-2.93-8.738 7.55-.23-11.54-9.345-5.99 10.566-4.202 2.962-11.253zm-751.5-5.252l3.835 10.697 11.152 3.35-9.18 6.44.574 11.192-9.51-6.718-10.798 3.567 3.304-10.6-7.247-8.988 11.55.172 6.32-9.12zM957.453 847.5l7.8 8.052 10.975-2.317-5.153 10.434 5.215 10.097-10.986-1.604-7.75 8.558-1.637-11.425-10.006-4.808 9.975-5.457 1.568-11.53zm-831.895-6.013l2.5 11.084 10.66 4.683-9.898 5.273-.795 11.18-8.618-7.825-11.152 2.225 4.57-10.11-6.097-9.803 11.444 1.578 7.384-8.284zm866.174-47l8.725 7.043 10.6-3.636-3.842 10.984 6.408 9.387-11.1-.254-6.65 9.438-3.018-11.14-10.518-3.554 9.235-6.63.15-11.634zm-899.667-6.682l1.13 11.306 10 5.946-10.467 4.028-2.153 10.998-7.6-8.816-11.34.85 5.77-9.477-4.856-10.472 11.166 2.96 8.34-7.323zm927.164-50.15l9.52 5.928 10.087-4.9-2.474 11.37 7.505 8.537-11.048 1.1-5.45 10.177-4.354-10.7-10.873-2.247 8.357-7.706-1.27-11.566zm-953.797-7.25l-.257 11.36 9.2 7.12-10.88 2.724-3.48 10.654-6.468-9.676-11.36-.536 6.883-8.704-3.542-10.986 10.722 4.297 9.17-6.253zm993.68-53.898l-1.07 11.586 8.5 7.56-10.832 2.436-4.167 10.765-5.626-10.08-11.066-.906 7.355-8.666-2.672-11.325 10.172 4.724 9.414-6.093zM26.078 669.68l10.118 5.57 9.865-5.1-1.64 11.243 8.273 8.19-11.132 1.38-4.752 10.15-5.24-10.39-11.2-1.915 7.894-7.8-2.176-11.335zm1045.51-57.377l.353 11.63 9.35 6.47-10.454 3.737-2.823 11.192-6.814-9.32-11.094.448 6.243-9.497-4.034-10.915 10.672 3.45 8.6-7.194zM14.472 605.093l9.363 6.76 10.412-3.85-3 10.96 7.212 9.135-11.217.013-5.955 9.497-3.933-10.952L6.463 623.4l8.786-6.782-.777-11.515zm1061.6-58.03l1.77 11.5 10.07 5.283-9.92 4.982-1.437 11.452-7.9-8.42-10.957 1.795 5.038-10.187-5.335-10.343 11.013 2.126 7.66-8.187zM10.898 539.568l8.468 7.85 10.805-2.554-4.314 10.513 6.044 9.946-11.135-1.353-7.07 8.7-2.567-11.35-10.413-4.568 9.548-5.66.634-11.524zM1072.5 481.763l3.158 11.2 10.638 4.017-9.24 6.153-.03 11.542-8.868-7.397-10.656 3.116 3.758-10.724-6.557-9.616 11.19.77 6.604-9.06zM15.4 474.098l7.448 8.823 11.036-1.22-5.565 9.91 4.786 10.607-10.887-2.698-8.078 7.775-1.164-11.577-9.778-5.802 10.168-4.456 2.035-11.36zm1045.514-56.704l4.5 10.73 11.05 2.692-8.42 7.232 1.38 11.46-9.704-6.262-10.196 4.4 2.422-11.102-7.68-8.746 11.2-.6 5.45-9.795zM27.94 409.677l6.316 9.664 11.102.133-6.732 9.158 3.456 11.11-10.477-4.004-8.966 6.734.257-11.632-8.998-6.95 10.635-3.185 3.405-11.03zm1013.577-54.745l5.776 10.103 11.295 1.327-7.474 8.203 2.766 11.206-10.396-5.033-9.585 5.6 1.05-11.314-8.7-7.745 11.044-1.96 4.214-10.386zM48.298 347.28l5.1 10.36 11.003 1.484-7.8 8.27 2.075 11.45-9.9-5.25-9.72 5.592 1.674-11.515-8.083-7.993 10.945-1.867 4.725-10.532zm966.275-51.956l6.966 9.324 11.372-.058-6.418 9.052 4.113 10.785-10.932-3.73-8.83 6.724-.338-11.357-9.57-6.63 10.723-3.29 2.916-10.822zm-938.396-7.47l3.788 10.903 10.74 2.812-8.75 7.26.663 11.616-9.196-6.417-10.33 4.367 3.066-11.225-7.048-8.917 11.09-.52 5.975-9.878zm904.022-48.26l8.197 8.265 11.254-1.64-5.095 9.856 5.575 10.11-11.345-2.174-7.808 7.887-1.917-11.2-10.4-5.234 10.16-4.748 1.38-11.122zm-868.775-7.23l2.233 11.324 10.244 4.278-9.675 5.97-.96 11.595-8.212-7.633-10.838 2.888 4.6-10.69-5.737-9.81 11.055 1.027 7.293-8.95zm828.11-43.98l9.144 7.206 10.97-2.997-3.854 10.403 6.767 9.354-11.526-.776-6.788 8.78-3.27-10.883-10.962-3.93 9.506-5.95.013-11.207zm-786.572-6.83l.835 11.51 9.646 5.494-10.332 4.75-2.37 11.392-7.22-8.576-11.1 1.547 5.87-10.05-4.497-10.436 10.848 2.366 8.33-7.997zm739.914-39.002l9.955 6.04 10.522-4.31-2.557 10.795 7.857 8.46-11.535.633-5.666 9.54-4.572-10.404-11.36-2.565 8.71-7.063-1.354-11.125zm-692.442-6.324l-.576 11.527 8.904 6.627-10.834 3.455-3.74 11.02-6.12-9.392-11.215.183 7.05-9.26-3.19-10.906 10.478 3.67 9.243-6.923zm661.033-34.21l-1.22 11.026 8.83 7.44-11.37 2.033-4.46 10.158-5.807-9.77-11.587-1.163 7.783-8.07-2.7-10.877 10.617 4.78 9.918-5.56zM253.12 97.073l-1.977 11.37 8.03 7.662-11.175 2.11-5.057 10.48-4.93-10.067-11.154-1.184 8.128-8.332L233.15 97.9l9.953 4.917 10.02-5.746zm551.656-30.63l.133 11.092 9.673 6.3-11.04 3.402-3.188 10.626-6.955-8.99-11.643.257 6.74-8.958-4.008-10.467 11.12 3.453 9.166-6.726zm-514.473-3.37l9.28 6.092 10.645-4.483-3.35 11.046 7.034 8.583-11.35.734-6.298 9.787L292.6 84.24l-10.927-2.534 9.084-7.28-.455-11.353zM744.14 38.096l1.485 10.993 10.37 5.086-10.54 4.72-1.868 10.935-8-8.076-11.525 1.672 5.597-9.712-5.255-9.9 11.46 2.073 8.277-7.792zm-392.835-2.574l8.466 7.177 11.113-3.153-4.672 10.556 5.935 9.375-11.354-.653-7.444 8.947-2.345-10.96-10.536-3.845 9.905-6.12.933-11.324zM680.48 17.407l2.815 10.73 10.913 3.785-9.887 5.97-.52 11.08-8.926-7.04-11.235 3.063 4.37-10.32-6.423-9.188 11.627.663 7.265-8.74zM415.235 15.67l7.528 8.154 11.414-1.777-5.925 9.908L433 41.982l-11.19-2.03-8.48 7.974-.99-11.163-9.988-5.1 10.577-4.87 2.307-11.126zm199.52-10.98l4.103 10.308 11.294 2.428-9.085 7.13.835 11.062-9.718-5.902-10.777 4.408 3.08-10.776L597 15.008l11.62-.758 6.145-9.56zM481.12 3.813l6.477 9 11.546-.374-7.09 9.113 3.49 10.53-10.858-3.378-9.4 6.882.378-11.2-9.292-6.278 11.092-3.544 3.647-10.762zM547.966.135l5.33 9.73L564.8 10.9l-8.148 8.182 2.178 10.877-10.365-4.675-10.16 5.688 1.742-11.07-8.457-7.362 11.442-2.167L547.966.135z"/><path d="M523.31 111.702l-11.595.88 3.4 42.452 10.462-.784-2.277-42.547zm318.16 105.765l-28.538 32.678 8.164 7.21 29.237-31.83-8.863-8.058zm103.265 336.43l14.316 15.174 15.47-15.206-14.835-16.16-14.952 16.19zM135.05 537.812l-15.98 16.233 15.852 15.153 15.714-14.984-15.587-16.403zM107 486.126c16.487 4.352 37.76 7.095 42.685 5.496l1.684-11.256-42.06-7.9-2.308 13.66zm63.418-98.353l-31.873-14-4.924 11.987c13.332 5.91 26.356 11.214 39.593 16.456l15.026-34.224-6.862-3.547-10.96 23.34zm806.307 54.482c-14.264 3.484-27.86 6.894-41.308 10.95l8.25 40.1 7.39-1.6-4.87-27.924 33.695-8.11-3.156-13.406zM570.74 931.614c-7.232 0-13.533-.095-19.833.02-6.417.106-12.898-.508-19.495.35l-1.472 42.357h11.383l.89-16.52c8.545-.942 16.635.17 24.567-1.64-2.277-7.095-2.277-7.074-8.503-7.052-5.316.02-10.62-.02-15.757-.042v-8.958c9.806-.805 19.293.36 28.813-2.012l-.593-6.502zm83.05-8.037c-1.42-.646-2.35-1.25-3.39-1.504-12.58-2.976-24.238-.56-34.7 6.777-3.24 2.266-6.142 5.422-8.25 8.768-5.125 8.154-3.357 16.91 4.3 22.788 2.277 1.747 4.956 3.23 7.688 4.098 14.91 4.755 28.453 1.768 40.652-7.825.837-.667 1.408-1.652 2.626-3.113l-8.418-3.198c-1.885 1.366-3.43 2.7-5.167 3.706-7.783 4.543-16.01 6.142-24.62 2.774-9.774-3.833-11.66-13.12-4.14-20.384 6.428-6.226 14.486-8.715 23.052-6.947 5.506 1.144 7.942-.88 10.367-5.94h0zM465.505 125.88c5.316-.773 9.922-1.8 14.56-2.044 5.178-.265 9.562 2.912 9.9 6.45.296 3.24-2.9 6.608-7.825 8.228-.424.138-.847.402-1.28.402-5.485.032-7.35 3.357-7.603 8.217 7.116.858 15.577-1.26 20.998-5.4 4.3-3.272 7.71-7.317 6.946-13.078-.815-6.004-5.136-9.266-10.547-11.225-1.06-.38-2.128-.805-3.23-.953-11.88-1.663-23.074 1.663-34.976 3.96l9.075 41.89 10.282-1.938-6.3-34.5zm459.843 535.03c-1.6 1.525-3.028 2.605-4.12 3.97-9.678 12.125-14.475 25.848-13.183 41.436.222 2.658.847 5.37 1.78 7.868 3.992 10.632 13.438 14.518 23.402 9.17 4.066-2.18 7.836-5.4 10.907-8.863 6.872-7.804 10.526-17.23 11.945-27.5.73-5.305 1.345-10.663-.826-16.34-4.69 3.103-7.677 5.856-7.38 12.368.455 10.462-3.473 19.982-11.85 26.918-8.29 6.862-16.985 3.643-19.124-6.872-.265-1.324-.35-2.7-.392-4.034-.275-9.17 2.34-17.59 8.344-24.376 4.193-4.733 3.103-8.683.498-13.745h0zm-318.68-538.155l31.047 4.83c.424-1.557.794-2.594.974-3.653.17-1.06.148-2.16.244-3.823-14.073-2.923-27.913-5.295-42.738-6.3l-4.712 42.25L630.63 162l1.228-7.508-28.834-5.062 1.694-9 24.673 3.4-1.843-8.005-21.697-3.664.815-9.393zm-252.825 68.057l-4.278-8.334 23.137-11.108-5.856-5.813-21.284 9.594-4.352-8.302 28.294-13.353c-.56-1.663-.826-2.764-1.302-3.75-.466-.985-1.165-1.843-1.97-3.08-13.522 5.453-26.505 11.362-39.137 18.817l21.01 37.306L384 185.657l-3.494-6.894-26.663 12.05zm378.582-42.135l-18.076 39.445 35.717 17.652 3.57-6.777-25.986-13.692 4.077-8.164 22.703 10.77 1.006-7.9-20.045-10.568 4.236-8.313 27.998 14c1.017-1.567 1.81-2.647 2.446-3.812.413-.762.614-1.63 1.228-3.357l-38.873-19.272zM363.12 909.652c-6.608-4.225-13.903-6.216-19.78-11.076l4.384-7.465 26.674 12.76 3.018-7.052-35.293-17.97-21.994 36.925c13.025 7.603 25.573 14.39 39.38 19.812l2.87-6.862-27.987-14.052 4.627-8.207 22.798 11.066 1.302-7.878zM570.422 141.48c2.18-1.302 4.162-2.33 5.993-3.6 8.228-5.718 8.63-14.666.9-20.998-4.924-4.034-10.8-5.612-17.017-5.77-6.544-.17-13.1-.127-19.653-.064-1.26.01-2.52.53-4.29.932l1.07 41.626h10.8v-34.298c4.987 0 9.043-.18 13.067.053 5.602.318 9.954 3.6 10.166 7.254.222 3.95-4.236 7.232-10.377 7.624-6.745.434-6.745.434-9.308 7.73 5.993-.91 8.852 3.26 11.913 7.127l.868 1.048c4.29 5.2 7.338 5.983 14.867 3.505l-9-12.178zm-403.7 522.292c2.584-21.528-1.684-39.667-16.106-54.842-1.08-1.133-2.446-2.023-3.78-2.85-7.645-4.744-15.11-3.484-20.098 3.94-2.224 3.293-4.034 7.17-4.87 11.045-3.58 16.73-.296 32.287 9.085 46.55 1.28 1.948 3.06 3.558 4.87 5.633 3.558-8.535 3.4-8.45-.604-15.026-5.888-9.647-8.196-20.014-5.115-31.153 1.24-4.48 3.325-8.64 8.418-9.7 5.104-1.07 8.524 2.086 11.616 5.528 1.048 1.175 1.98 2.488 2.796 3.833 4.574 7.55 7.35 15.84 6.1 24.525-.9 6.258 1.747 9.117 7.677 12.527h0zm241.665 276.643c2.954-.868 5.41-1.366 7.688-2.298 7.868-3.21 10.8-11.12 6.322-18.298-1.948-3.145-4.723-6.47-7.942-8.027-8.44-4.066-17.324-7.21-26.568-10.94L370.68 940.52l10.8 4.236 13.427-32.392 11.48 4.246c1.43.572 2.827 1.42 4.013 2.425 2.383 2.023 3.812 4.596 2.732 7.794s-3.854 4.352-6.915 4.458c-1.98.074-4.013-.38-5.962-.868-5.517-1.366-6.724-.858-9.964 4.956 4.86.868 7.052 4.33 8.482 8.61.635 1.906 1.472 3.823 2.584 5.496.953 1.42 2.192 3.007 3.685 3.632 2.986 1.25 6.226 1.885 10.706 3.156l-7.36-15.852zm295.53-757.034l-4.998-15.767c2.393-.392 3.96-.54 5.475-.91 11.52-2.838 15.09-13.374 7.074-22.13-3.08-3.367-7.35-6.046-11.584-7.868-6.406-2.743-13.236-4.51-19.918-6.597-1.197-.37-2.563-.265-4.33-.424l-12.252 40.567 10.05 2.785 11.3-33.07c4.522 1.493 8.196 2.573 11.775 3.918a16.79 16.79 0 0 1 4.67 2.679c2.34 1.927 4.214 4.363 3.166 7.624-1.027 3.198-3.77 4.416-6.883 4.543-2.012.074-4.278.2-5.993-.614-5.263-2.52-7.73.646-11.013 4.68 6.586 1.08 8.365 5.856 9.562 10.642 1.726 6.968 6.83 8.683 13.903 9.943h0zm147.527 620.602l18.902-24.62-6.27-4.416-26.06 32.234 31.714 29.004c10.8-11.542 20.215-23.137 28.96-35.866l-6.195-4.33-20.617 25.838-7.148-6.385c5.475-7.222 11.436-13.3 16.106-21.316l-7.582-2.17-14.782 18.15-7.03-6.12zM182.29 311.54c3.505-.244 5.92-.593 8.323-.54l27.066.752c2.065.02 4.617-.402 6.1-1.64 2.14-1.78 3.494-4.48 5.167-6.745-.868-.7-1.197-1.175-1.525-1.186l-45.936-1.77c-6.343-.084-11.817 9.393-9.234 15.387l17.684 39.52c.593 1.292 1.705 2.35 2.637 3.6 5.05-5.708 7.56-11.33 2.18-17.673l13.353-22.057c-6.385-2.18-9.975-.244-12.39 4.83-1.112 2.34-2.87 4.384-5.062 7.635l-8.365-20.11zm19.653 501.516c.942-2.203 1.747-3.854 2.36-5.59l13.427-38.322c2.732-7.56-2.097-14.984-10.028-15.44-11.044-.635-22.068-1.557-33.102-2.425-4.11-.328-8.217-.868-13.14-1.377l2.287 5.252c1.98 4.183 4.15 8.016 9.87 7.402 2.71-.296 3.78 1.98 4.977 3.93l8.567 13.83c1.24 1.927 2.7 3.706 4.183 5.73 3.982-5.062 4.045-9.18.498-13.544-1.906-2.35-3.198-5.22-5.37-8.863l21.242 1.08-2.457 6.99c-2.933 8.058-5.59 16.233-8.948 24.122-2.36 5.57-1.514 9.964 2.68 14 .794.773 1.514 1.63 2.954 3.22h0zm288.733 159.167c7.963-.572 15.693-1.97 22.09-7.317 7.772-6.49 9.16-16.074 2.986-24.112-2.414-3.145-5.612-5.993-9.01-8.016-10.854-6.48-22.64-7.592-34.605-3.844-3.96 1.24-7.857 3.61-11.002 6.354-6.544 5.75-7.57 14.18-2.743 21.454 2.065 3.124 4.935 5.898 7.963 8.154 7.148 5.305 15.587 6.862 24.323 7.328h0zm196.99-21.168c13.988-.646 26.007-5.485 34.055-17.483 7.232-10.77 3.674-22.407-7.9-27.405-15.757-6.798-39.773 1.28-48.106 16.233-.773 1.355-1.366 2.838-1.864 4.33-2.668 8.048-.127 15.312 7 19.97 5.093 3.325 10.748 4.5 16.805 4.352h0zm243.91-204.637l-1.09-1.006-15.968 4.543c-.148-3.25-.116-5.506-.37-7.73-1.07-9.753-8.514-14.094-17.514-10.22-5.813 2.5-9.943 6.894-13.215 12.2l-10.282 16.73c-.773 1.27-1.28 2.7-2.075 4.405l35.124 24.28 6.724-10.452-29.353-19.505c2.732-4.48 4.998-8.63 7.698-12.464 1.24-1.768 3.145-3.304 5.083-4.33 4.373-2.298 8.492-.233 8.736 4.69.138 2.986-.52 6.49-2.086 8.97-3.018 4.83-1.694 8.365 2.298 12.908 1.8-7.03 7.423-7.667 12.58-9.075 1.737-.477 3.526-.9 5.125-1.694 1.334-.678 2.785-1.62 3.547-2.838 1.874-3.018 3.39-6.27 5.04-9.414h0zm-765.75-26.526l-15.566 8.016 5.76 11.415 38.216-19.696-5.05-10.41-15.45 6.84c-5.432-9.636-9.382-20.15-9.73-25.7l15.037-6.428-4.013-11.267-40.694 14.698 4.83 12.368 16.095-5.74 10.568 25.9zM287.65 243.686c4.5-3.75 8.662-6.83 12.347-10.42 4.755-4.638 8.1-10.197 9.51-16.837 2.467-11.638-4.267-20.66-16.2-21.475-9-.614-16.92 2.383-23.953 7.688-6.13 4.606-11.976 9.583-17.896 14.465-1.324 1.09-2.393 2.478-3.907 4.066l28.675 32.032 8.048-7.02-22.756-27.246c5.284-4.013 9.943-7.93 14.994-11.246 2.563-1.663 5.77-2.54 8.8-3.22 4.69-1.027 9.117-.053 12.23 3.844 3.177 3.97 2.986 8.757.646 12.76-2.33 3.992-5.59 7.56-8.958 10.78-4.5 4.29-4.733 4.215-1.578 11.828h0zm644.728 198.07c2.14-2.52 3.674-4.045 4.882-5.803l21.538-31.206c3.96-5.4 4.394-10.23 1.535-16.212-1.62-3.42-3.473-5.453-7.095-6.27l-28.368-6.534c-5.612-1.175-11.362-1.684-18.17-2.658 1.6 3.61 2.785 6.004 3.727 8.493.91 2.372 2.425 3.75 5.01 3.79 4.363.074 6.13 2.944 7.465 6.576 2.404 6.523 5.03 12.95 7.603 19.537 5.856-5.072 6.1-5.877 3.823-12.178l-3.95-10.77 21.072 5.358c-1.46 2.626-2.393 4.638-3.6 6.46l-16.88 25.382c-1.027 1.567-2.012 3.717-1.768 5.422.466 3.23 1.82 6.322 3.177 10.6h0zM894.925 284.58c.116-17.97-16.837-37.507-34.5-39.763-12.6-1.6-21.072 5.91-20.913 18.552.212 17.144 16.794 36.5 33.716 39.36 13.014 2.192 21.623-5.01 21.708-18.15h0zM267.097 260.5l-29.13-30.71-8.397 7.847c5.04 7.338 12.75 12.008 17.853 19.77-3.304 0-5.76.032-8.217-.01l-23.698-.36c-2.065.02-4.564.7-6.068 1.99-2.457 2.107-4.267 4.966-6.27 7.402 7.518 7.878 28.76 25.287 33.483 27.447l6.343-7.455c-3.62-3.304-7-6.237-10.197-9.36-3.08-3.018-7.074-5.2-9.87-10.197 10.102.582 19.177.54 28.082 1.768 7.36 1.027 12.093-1.63 16.085-8.133h0zm697.557 399.203c4.903-17.938 8.937-34.902 10.96-52.925l-7.222-.74-7.75 38.142-9.17-2.404 5.824-29.766c-7.582-.392-7.836-.265-9.085 5.453-.88 3.97-1.493 7.995-2.404 11.945-.784 3.4-1.82 6.756-2.838 10.462l-8.662-2.774c2.446-12.294 5.602-23.55 6.45-35.78l-7-.815-9.986 47.493 40.895 11.712zm-144.89-452.32c-4.723-17.377-28.23-30.57-44.813-25.478-8.058 2.478-12.855 8.8-12.262 17.27.265 3.717 1.165 7.72 2.933 10.96 7.614 13.914 19.706 21.433 35.4 22.777 8.948.773 15.534-3.187 18.71-10.547-9.36-7.89-19.304-15.132-29.787-21.867l-6.3 5.136c7.508 5.686 15.12 9.912 21.76 16.17-12.42 4.48-27.66-3.558-31.714-15.873-2.71-8.27 1.694-15.196 10.4-15.82 9.01-.646 16.2 3.325 22.036 9.87 1.927 2.16 3.357 4.776 5.157 7.402h8.47zm82.383 156.382l38.13-20.66-6.406-10.992-24.228 13.68 2.33-7.656 6.872-24.8c.56-2.245.667-5.062-.19-7.116-1.27-3.03-3.6-5.612-5.898-9.022l-35.4 24.895 6.226 9.51 23.39-15.46c-.52 2.626-.667 3.918-1.038 5.146l-8.196 27.235c-.572 2.033-.89 4.51-.254 6.438.964 2.912 2.86 5.517 4.67 8.8h0zM316.018 886.6c8.334-5.55 9.922-10.314 6.015-17.63-.847-1.588-1.8-3.293-3.166-4.363l-25.403-19.442-27.648 33.494 9.308 7.02 11.076-13.417 18.13 13.067c2.192 1.652 4.15 4.087 2.15 6.957-1.917 2.764-4.892 2.012-7.338.7-2.764-1.493-5.305-3.42-7.9-5.22-5.422-3.738-5.41-3.76-12.432.9 7.243 4.956 13.332 11.002 21.644 13.702 5.167 1.684 10.367 1.906 14.624-2.15 4.14-3.93 2.944-8.62.953-13.618h0zm87.943-708.366c-2.71-9.32-6.83-17.42-9.647-27.553l24.8 13.342c4.998-7.56 7.254-16.392 13.353-24.06l7.73 27.204 10.07-2.425c-3.44-14.285-6.385-28.008-10.314-41.054-8.8-.38-14.04 3.22-16.826 10.695-1.017 2.72-2.68 5.2-4.024 7.804l-4.204 8.27c-6.544-3.452-12.56-6.1-18.012-9.647-6.608-4.278-12.22-2.404-18.637 1.62l15.98 39.434 9.72-3.632zM724.6 891.884c6.195 12.633 12.4 25.245 19.473 38.058l10.08-5.496-13.543-25.33 27.66 8.45 5.983-27.977 16.38 24.006 9.583-6.64-24.694-34.722c-8.122 2.616-10.896 7.73-11.404 15.058-.402 5.73-2.086 11.373-3.346 17.822-6.904-2.245-13.32-3.685-19.135-6.428-6.586-3.113-11.616-1.408-17.038 3.198h0zm60.55-36.798c7.074 11.352 22.3 30.677 26.62 33.663l8.27-6.375-17.684-22.8 28.56 3.018.9-29.438 20.098 21.422 9-8.736-30.814-29.936c-7.063 4.193-9.55 9.456-8.778 16.816.625 5.972.127 12.06.127 18.976-6.883-.868-12.982-1.09-18.785-2.5-7.2-1.758-12.77-.212-17.504 5.898h0zm-500.875-17.112c-4.744-6.565-9.9-9.043-17.387-7.508-6.036 1.218-12.4 1.08-19.124.296.55-7.465.593-14.264 1.662-20.903 1.154-7.21-2.478-11.256-7.815-15.132l-32.593 27.564 7.974 9.086 21.38-18.616v28.263h28.156L247.03 862.36l9.085 7.783 28.156-32.17zm-152.324-391.26l-.646-1.78c8.884-4.83 17.483-10.293 26.716-14.274 7.57-3.25 9.18-8.884 10.017-16.202l-39.72-14.74-4.15 12.78 26.23 9.128-6.798 3.876c-6.872 3.876-13.543 8.196-20.68 11.52-8.503 3.97-9.33 11.13-9.784 19.463l41.202 9.414 2.912-12.294-25.297-6.894zM548.555 203.49C360.28 201.9 204.536 356.366 204.388 546.463c-.148 186.89 150.207 343.133 342.05 343.952 192.245.812 344.125-153.992 345.147-341.516 1.043-194.175-157.158-346.543-343.03-345.4h0z"/></g><g fill="#fff"><path d="M132.2 446.95l25.34 6.876-2.917 12.262-41.274-9.4c.456-8.3 1.284-15.452 9.8-19.412 7.15-3.316 13.832-7.615 20.716-11.5l6.8-3.866-26.275-9.104 4.158-12.737 39.8 14.7c-.838 7.298-2.45 12.917-10.035 16.16-9.25 3.97-17.863 9.42-26.763 14.237l.647 1.774M284.34 838.096l-28.06 31.992-9.054-7.74 19.428-21.22h-28.06V813.02l-21.306 18.513-7.946-9.025 32.482-27.422c5.32 3.854 8.938 7.877 7.778 15.048-1.066 6.603-1.098 13.364-1.646 20.788 6.7.8 13.043.916 19.048-.295 7.472-1.527 12.6.937 17.34 7.466m500.996 17.26c4.75-6.123 10.347-7.672 17.56-5.9 5.822 1.422 11.94 1.645 18.846 2.515 0-6.93.5-13.032-.127-19.017-.776-7.386 1.72-12.65 8.807-16.852l30.914 30-9.02 8.755-20.163-21.468-.903 29.5-28.65-3.024 17.74 22.848-8.297 6.388c-4.345-3.003-19.62-22.36-26.707-33.736m-61 36.5c5.45-4.625 10.494-6.337 17.124-3.2 5.832 2.754 12.292 4.2 19.23 6.465 1.266-6.486 2.96-12.154 3.352-17.906.52-7.348 3.3-12.494 11.473-15.12 8.142 11.005 16.24 22.606 24.82 34.867l-9.632 6.667-16.475-24.106-6.003 28.093-27.8-8.475 13.623 25.424-10.132 5.53c-7.12-12.877-13.346-25.54-19.572-38.227M404.035 178.47l-9.72 3.62-15.975-39.296c6.416-4 12.026-5.877 18.633-1.614 5.452 3.524 11.465 6.173 18.008 9.613l4.203-8.24c1.345-2.596 3.007-5.065 4.023-7.787 2.784-7.44 8.014-11.027 16.822-10.647 3.928 13 6.87 26.665 10.3 40.9l-10.068 2.416-7.728-27.108c-6.098 7.63-8.353 16.44-13.35 23.974l-24.805-13.296c2.816 10.098 6.934 18.17 9.644 27.456M291.5 865.532c5.104 3.6 9.743 7.043 14.55 10.2 2.394 1.558 5.23 2.042 7.2-.716 2.035-2.884.105-5.232-2.014-6.906-4.355-3.432-8.942-6.58-13.803-10.116l-5.926 7.537m24.832 20.75c1.982 4.97 3.163 9.632-.95 13.538-4.25 4.032-9.416 3.8-14.562 2.137-8.277-2.684-14.35-8.695-21.553-13.622 7-4.632 6.98-4.6 12.38-.895 2.594 1.8 5.125 3.706 7.877 5.2 2.436 1.305 5.4 2.053 7.307-.695 1.993-2.853.042-5.274-2.15-6.916-5.726-4.348-11.652-8.422-18.042-13l-11.04 13.338-9.258-6.98 27.532-33.297 25.296 19.328c1.35 1.063 2.3 2.758 3.142 4.337 3.9 7.274 2.32 12-5.98 17.527m585.84-522.193c-1.802-3.304-3.7-5.926-4.675-8.868-.636-1.93-.318-4.423.254-6.47l8.205-27.414c.382-1.236.52-2.547 1.04-5.2l-23.417 15.562-6.233-9.57 35.45-25.048c2.3 3.432 4.633 6.033 5.905 9.07.86 2.078.753 4.903.2 7.173-2.1 8.367-4.548 16.65-6.88 24.962-.594 2.1-1.272 4.2-2.332 7.706l24.265-13.77 6.403 11.064L902.17 364.1m-81.83-156.53h-8.444c-1.807-2.615-3.223-5.22-5.157-7.37-5.812-6.506-13-10.46-21.992-9.818-8.687.622-13.083 7.52-10.367 15.754 4.048 12.253 19.255 20.257 31.65 15.797-6.626-6.232-14.224-10.44-21.728-16.102l6.288-5.114c10.473 6.707 20.386 13.92 29.738 21.776-3.18 7.33-9.754 11.273-18.684 10.514-15.662-1.35-27.74-8.837-35.33-22.693-1.775-3.227-2.663-7.202-2.927-10.914-.592-8.415 4.185-14.732 12.238-17.2 16.54-5.072 40 8.067 44.713 25.372M965.35 660.088l-41-11.66 10.013-47.34 7.03.813c-.85 12.188-4.014 23.406-6.467 35.657l8.686 2.765c1-3.693 2.06-7.028 2.846-10.426.913-3.936 1.53-7.946 2.4-11.903 1.253-5.698 1.508-5.825 9.1-5.435l-5.85 29.664 9.206 2.395 7.773-38 7.242.74c-2.028 17.96-6.085 34.866-11 52.742m-698-399.334c-3.997 6.493-8.735 9.147-16.114 8.122-8.905-1.237-18-1.195-28.104-1.766 2.8 4.98 6.795 7.17 9.88 10.173 3.2 3.13 6.573 6.06 10.2 9.36l-6.35 7.445c-4.728-2.157-25.994-19.543-33.52-27.4 2.004-2.432 3.816-5.288 6.276-7.392 1.505-1.3 4.007-1.967 6.064-1.988 7.92-.085 15.828.222 23.736.36 2.46.042 4.92.01 8.227.01-5.1-7.75-12.828-12.415-17.874-19.744l8.407-7.836 29.164 30.668m594.3-7.12c-7.807.715-12.85 6.45-11.558 14.306 1.944 11.744 8.753 19.687 19.68 23.937 1.24.47 2.627.64 3.95.715 6.904.406 11.748-3.865 11.832-10.922.147-10.527-5.2-18.203-13.502-23.723-3.08-2.05-6.914-2.915-10.403-4.313m33.7 30.748c-.085 13.26-8.638 20.5-21.552 18.3-16.78-2.883-33.236-22.4-33.446-39.684-.158-12.748 8.25-20.328 20.753-18.705 17.527 2.274 34.35 21.972 34.245 40.1m37.464 157.68c-1.343-4.32-2.697-7.426-3.15-10.66-.24-1.713.735-3.872 1.742-5.447l16.73-25.5c1.197-1.83 2.13-3.85 3.57-6.5l-20.877-5.39 3.915 10.83c2.246 6.33 2.015 7.138-3.8 12.234l-7.536-19.628c-1.323-3.66-3.075-6.532-7.4-6.606-2.56-.043-4.062-1.426-4.965-3.8-.945-2.5-2.1-4.904-3.705-8.532 6.76.968 12.46 1.5 18.022 2.66 9.415 2 18.725 4.447 28.1 6.574 3.6.8 5.426 2.862 7.043 6.287 2.834 6.02 2.404 10.883-1.522 16.287-7.4 10.234-14.222 20.915-21.35 31.362-1.197 1.755-2.718 3.287-4.84 5.83M288.15 243.632c-3.132-7.582-2.9-7.498 1.566-11.763 3.343-3.2 6.57-6.76 8.893-10.72 2.323-4 2.512-8.74-.64-12.7-3.1-3.875-7.484-4.855-12.14-3.823-3.006.663-6.202 1.538-8.735 3.2-5.014 3.296-9.64 7.182-14.885 11.184l22.6 27.086-8 6.982-28.455-31.846c1.493-1.58 2.565-2.96 3.88-4.054 5.876-4.855 11.68-9.794 17.754-14.375 7-5.276 14.864-8.256 23.788-7.646 11.847.8 18.532 9.783 16.072 21.347-1.398 6.614-4.7 12.142-9.43 16.755-3.658 3.56-7.8 6.635-12.257 10.363M165.88 719.55l-10.583-26.02-16.12 5.768-4.836-12.43 40.764-14.78 4.008 11.323-15.058 6.47c.35 5.566 4.305 16.143 9.756 25.827l15.472-6.885 5.058 10.47-38.282 19.794-5.77-11.472 15.6-8.066m766.46 27.35c-1.665 3.144-3.2 6.394-5.08 9.4-.77 1.217-2.23 2.16-3.576 2.826-1.612.794-3.416 1.217-5.166 1.694-5.198 1.408-10.866 2.054-12.68 9.082-4.024-4.552-5.358-8.087-2.316-12.904 1.58-2.477 2.24-5.98 2.103-8.977-.245-4.912-4.408-6.987-8.816-4.68-1.943 1.027-3.864 2.55-5.113 4.32-2.722 3.843-5.006 7.982-7.76 12.47l29.587 19.5-6.778 10.437-35.405-24.273c.8-1.704 1.313-3.133 2.092-4.404l10.364-16.715c3.298-5.303 7.46-9.696 13.32-12.195 9.073-3.885 16.566.466 17.654 10.215.245 2.212.224 4.467.374 7.728l16.085-4.552 1.1 1.016M690.342 942.674c8.614.01 17.377-4.1 21.892-10.242 5.856-7.97 2.747-16.867-6.9-19.17-8.7-2.072-16.62-.02-23.638 5.3-5.9 4.47-8.508 10.694-6.878 15.616 1.725 5.247 7.666 8.507 15.535 8.507m-2.012 8.402c-6.1.147-11.776-1.02-16.898-4.322-7.177-4.627-9.732-11.84-7.05-19.832.5-1.483 1.107-2.944 1.874-4.3 8.38-14.837 32.53-22.87 48.373-16.1 11.638 4.953 15.216 16.5 7.943 27.204-8.092 11.914-20.178 16.72-34.243 17.36m-196.678 13.02c2.004-.535 6.12-1.06 9.684-2.696 9.2-4.227 10.36-13.384 2.9-20.066-7.564-6.766-20.94-8.224-29.728-3.24-8.218 4.678-9.2 13.017-2.205 19.405 4.863 4.447 10.855 6.136 19.358 6.598m-.158 7.982c-8.693-.462-17.1-2.003-24.232-7.26-3.007-2.234-5.876-4.982-7.933-8.077-4.8-7.206-3.787-15.556 2.743-21.25 3.123-2.717 7.005-5.066 10.95-6.294 11.92-3.713 23.662-2.612 34.475 3.808a32.79 32.79 0 0 1 8.988 7.94c6.14 7.96 4.768 17.454-2.975 23.884-6.382 5.297-14.073 6.682-22.016 7.248m-288.705-159l-2.952-3.22c-4.2-4.035-5.047-8.418-2.677-13.962 3.343-7.868 6-16.033 8.94-24.06.762-2.07 1.46-4.16 2.444-6.97L187.34 763.8c2.17 3.633 3.45 6.485 5.353 8.84 3.544 4.35 3.5 8.46-.487 13.498-1.48-2.007-2.94-3.78-4.18-5.714l-8.57-13.783c-1.185-1.943-2.254-4.225-4.962-3.93-5.713.623-7.882-3.2-9.86-7.383-.656-1.394-1.238-2.8-2.296-5.24l13.14 1.384 33.062 2.42c7.935.454 12.76 7.858 10.03 15.4l-13.426 38.222c-.603 1.732-1.418 3.38-2.35 5.577M182.97 312.112l8.315 19.945c2.18-3.233 3.926-5.25 5.03-7.58 2.4-5.028 5.968-6.94 12.314-4.787l-13.272 21.867c5.357 6.288 2.852 11.873-2.168 17.53-.926-1.25-2.03-2.3-2.62-3.58l-17.576-39.167c-2.568-5.952 2.873-15.348 9.178-15.253 15.23.2 30.437 1.092 45.656 1.743.326.01.653.493 1.516 1.176-1.652 2.246-3 4.934-5.136 6.687-1.473 1.228-4 1.648-6.062 1.627-8.967-.094-17.934-.535-26.9-.735-2.4-.052-4.778.294-8.272.525m668.875 491.902l7.068 6.097 14.86-18.08 7.62 2.162c-4.705 7.985-10.686 14.04-16.2 21.233l7.195 6.36 20.724-25.738 6.227 4.314c-8.802 12.68-18.254 24.23-29.1 35.727l-31.9-28.9 26.205-32.1 6.3 4.4-19 24.524m-147.28-619.923c-7.018-1.267-12.08-2.992-13.794-10-1.187-4.813-2.952-9.616-9.486-10.702 3.257-4.057 5.704-7.24 10.926-4.707 1.7.82 3.95.692 5.946.618 3.1-.128 5.8-1.352 6.828-4.568 1.04-3.28-.83-5.73-3.14-7.667a16.75 16.75 0 0 0-4.633-2.694c-3.55-1.352-7.196-2.44-11.682-3.94l-11.2 33.256-9.98-2.8 12.165-40.796c1.754.16 3.1.053 4.297.426 6.63 2.098 13.405 3.876 19.76 6.634 4.202 1.832 8.425 4.526 11.482 7.912 7.963 8.807 4.412 19.402-7.007 22.256-1.502.373-3.057.522-5.43.916l4.96 15.856M409.172 940.352l7.385 15.737c-4.484-1.26-7.736-1.892-10.733-3.133-1.498-.6-2.752-2.197-3.698-3.606-1.116-1.66-1.966-3.553-2.604-5.456-1.435-4.236-3.624-7.684-8.512-8.546 3.262-5.76 4.463-6.276 10-4.9 1.955.484 3.996.936 5.972.862 3.082-.116 5.866-1.25 6.95-4.436 1.073-3.175-.35-5.73-2.752-7.737-1.18-.988-2.582-1.83-4.027-2.407-3.54-1.42-7.173-2.64-11.5-4.205l-13.485 32.146-10.83-4.205 17.268-39.368c9.277 3.7 18.193 6.812 26.652 10.85 3.23 1.545 6.015 4.846 7.98 7.98 4.474 7.117 1.54 14.97-6.355 18.155-2.285.925-4.74 1.42-7.715 2.28M167.63 663.597c-5.933-3.4-8.58-6.27-7.68-12.53 1.25-8.686-1.536-16.98-6.102-24.533-.816-1.345-1.748-2.66-2.797-3.824-3.104-3.453-6.526-6.6-11.632-5.54-5.096 1.08-7.183 5.233-8.422 9.714-3.083 11.144-.763 21.514 5.117 31.175 4.015 6.578 4.163 6.483.614 15.03-1.812-2.087-3.6-3.697-4.873-5.646-9.397-14.258-12.68-29.83-9.1-46.566.837-3.866 2.648-7.754 4.873-11.048 5-7.415 12.458-8.686 20.118-3.94 1.335.826 2.7 1.716 3.77 2.85 14.43 15.18 18.698 33.325 16.113 54.86m403.406-522.034l8.905 12.174c-7.45 2.467-10.467 1.694-14.72-3.515l-.86-1.048c-3.017-3.864-5.846-8.024-11.787-7.125 2.535-7.283 2.535-7.283 9.2-7.728 6.077-.392 10.487-3.673 10.267-7.612-.2-3.663-4.516-6.934-10.058-7.262-3.98-.233-7.994-.042-12.93-.042v34.28H538.4l-1.058-41.615c1.75-.392 2.986-.92 4.233-.932l19.445.064c6.16.17 11.965 1.747 16.837 5.77 7.648 6.34 7.25 15.276-.9 20.993-1.802 1.26-3.76 2.297-5.93 3.6M363.117 910.04l-1.296 7.906-22.684-11.12-4.604 8.257 27.847 14.12-2.855 6.884c-13.74-5.437-26.224-12.258-39.184-19.908l21.883-37.092 35.117 18.046-3.013 7.086-26.53-12.8-4.362 7.5c5.848 4.884 13.107 6.895 19.68 11.14m369.314-760.95l38.9 19.23-1.24 3.362c-.636 1.163-1.43 2.24-2.448 3.806L739.636 161.5l-4.24 8.288 20.06 10.56-.996 7.897-22.72-10.75-4.08 8.15 26.004 13.67-3.582 6.766-35.743-17.622 18.1-39.378"/><path d="M354.133 191.136L380.84 179.1l3.5 6.9-35.956 17.1-21.044-37.23c12.654-7.43 25.657-13.337 39.202-18.77.806 1.226 1.506 2.092 1.973 3.065.477.983.742 2.082 1.305 3.74l-28.34 13.326 4.36 8.285 21.32-9.564 5.865 5.8-23.175 11.086 4.285 8.317m253.247-68.14l-.808 9.36 21.5 3.65 1.825 7.977-24.44-3.387-1.678 8.97 28.56 5.044-1.217 7.48-38.777-5.898 4.667-42.102c14.684.992 28.393 3.355 42.333 6.268-.094 1.657-.073 2.754-.252 3.8-.168 1.055-.535 2.1-.954 3.64l-30.753-4.812m318.5 538.094c2.62 5.075 3.712 9.036-.5 13.782-6.014 6.796-8.624 15.237-8.348 24.443.032 1.348.117 2.708.382 4.035 2.143 10.554 10.862 13.772 19.156 6.902 8.4-6.955 12.325-16.5 11.87-27-.286-6.53 2.694-9.3 7.393-12.402 2.174 5.7 1.57 11.064.827 16.384-1.4 10.3-5.08 19.75-11.965 27.575-3.076 3.483-6.852 6.7-10.915 8.877-9.992 5.362-19.453 1.476-23.442-9.185-.944-2.506-1.57-5.224-1.793-7.9-1.283-15.64 3.5-29.4 13.206-41.55 1.093-1.37 2.535-2.453 4.126-3.982M465.426 125.88l6.33 34.282-10.324 1.925-9.092-41.625c11.928-2.272 23.165-5.575 35.07-3.934 1.105.147 2.188.58 3.24.957 5.438 1.946 9.76 5.175 10.58 11.14.775 5.722-2.634 9.75-6.957 13.002-5.45 4.103-13.935 6.206-21.073 5.365.255-4.84 2.135-8.13 7.637-8.163.425-.01.86-.263 1.285-.4 4.94-1.6 8.146-4.944 7.838-8.163-.34-3.513-4.737-6.68-9.93-6.406-4.652.252-9.262 1.252-14.604 2.03M654.45 923.84c-2.418 5.084-4.847 7.1-10.337 5.964-8.553-1.772-16.577.7-22.987 6.95-7.497 7.28-5.617 16.588 4.118 20.43 8.595 3.375 16.8 1.772 24.56-2.78 1.732-1.008 3.273-2.345 5.142-3.715l8.394 3.205c-1.204 1.465-1.784 2.452-2.62 3.12-12.153 9.615-25.658 12.608-40.525 7.843-2.724-.87-5.396-2.345-7.676-4.097-7.623-5.9-9.387-14.678-4.276-22.85 2.1-3.354 4.994-6.516 8.215-8.787 10.443-7.355 22.068-9.774 34.612-6.792 1.024.255 1.964.86 3.38 1.507m-83.696 7.342l.587 6.53c-9.437 2.382-18.822 1.223-28.532 2.03v8.986l15.593.043c6.176-.02 6.176-.043 8.43 7.082-7.864 1.818-15.876.712-24.338 1.66l-.88 16.58H530.34l1.468-42.537c6.522-.86 12.95-.234 19.305-.35 6.24-.117 12.478-.02 19.64-.02m406.475-489.096l3.113 13.393-33.35 8.103 4.832 27.896-7.316 1.608-8.165-40.062c13.3-4.052 26.758-7.447 40.887-10.938m-805.834-54.52l11.047-23.48 6.9 3.57-15.13 34.43c-13.33-5.273-26.434-10.6-39.87-16.555l4.958-12.06 32.096 14.094"/><path d="M107.34 486.016l2.3-13.927 41.7 8.065-1.66 11.466c-4.894 1.63-25.98-1.166-42.34-5.603m28.2 52.07l15.8 16.2-15.92 14.8-16.08-14.967 16.2-16.033m809.8 15.992l15.06-15.992 14.94 15.96-15.57 15.04-14.43-15.008M841.58 218.088l8.76 8.1-28.92 31.9-8.08-7.24 28.24-32.76m-317.537-106l2.298 42.222-10.56.778-3.44-42.128 11.702-.872"/></g><path d="M794.34 605.404c30.55-21.1 58.533-45.125 85.92-70.315 3.65 9.093 2.568 13.385-3.83 18.164-24.067 18.016-48.95 34.813-75.097 49.703-1.953 1.113-3.97 2.12-5.974 3.126-.096.053-.35-.223-1.02-.678m29-9.964l57-33.35c-.537 2.2-.43 3.863-1.2 4.5-1.694 1.424-3.778 2.376-5.756 3.423l-43.3 23.04-6.43 3.046-.326-.65M291.34 865.626l6.03-7.537c4.946 3.537 9.613 6.685 14.043 10.117 2.156 1.674 4.12 4.02 2.05 6.906-1.995 2.758-4.88 2.274-7.317.716-4.892-3.158-9.613-6.6-14.805-10.2" fill="#000"/><path d="M765.123 465.127l-9.444-22.687c2.4.497 3.846.603 5.142 1.122 8 3.185 16.912 5.164 23.626 10.095 6.703 4.92 11.24 12.804 16.647 19.46l13.247 16.74c-34.207 42.316-67.543 84.78-105.5 125.232-4.823-16.677-8.35-32.337-12.153-47.934l1.222-.794 22.15 23.406.924-.476c-.574-2.053-1.062-4.148-1.742-6.17l-20.716-60.897c-2.603-7.1-1.232-13.08 1.317-20.084l19.58 5.058-26.1-71.193 1.17-1.048 13.247 8.232c2.146-8.2 4.717-15.523 1.848-23.893-3.793-11.1-6.586-22.518-9.784-33.797-.542-1.894-.977-3.8-1.466-5.714l1.264-.698 64.547 86.557.956-.518M360.34 761.188l14.325-4.935-3.1-8.165c6.43 1.463 12.028 3.704 17.626 3.746 5.65.032 11.323-2.125 18.075-3.567l-4.476 7.965 11.558 4.798-.01 1.347c-1.816.316-3.6.737-5.437.884-2.265.18-4.583.358-6.826.126-4.54-.473-7.894 1.22-10.618 4.693-1.08 1.378-2.574 2.462-4.24 4-1.25-1.178-2.66-2-3.322-3.23-2.52-4.6-6.442-5.734-11.43-5.46-3.92.2-7.894-.23-11.847-.368l-.267-1.84m-47.766-50.104c6.812 2.14 12.233 4.7 17.876 5.363 5.463.622 11.16-.738 17.94-1.317l-4.102 6.27 11.053 5.047-.255 1.18c-1.2.148-2.413.537-3.57.4-8.534-.917-17.196-2.74-23.774 5.057-5.952-8.545-14.528-9.188-23.02-10.062a7.78 7.78 0 0 1-1.966-.474c-.372-.158-.648-.558-1.414-1.254 4.007-2.992 9.384-.748 13.327-3.804l-2.094-6.406m125.49 19.852l-8.953.325c-5.435-.303-10.164.964-13.86 5.33-.558.672-1.443 1.05-2.064 1.495-.62-.087-1.264.022-1.454-.227-4.002-5.167-9.364-6.413-15.452-6.088-2.612.152-5.256-.4-8.942-.737 3.95-3.835 8.658-2.85 12.408-5.416l-1.56-6.4c4.034.867 7.405 1.885 10.86 2.253 3.497.368 7.1.38 10.586.01 3.486-.38 6.9-1.43 11.397-2.405l-2.97 6.662 10.28 3.26-.274 1.928m34.97-11.122c5.76.362 10.922 1.384 15.904.806 4.993-.6 9.804-2.738 15.808-4.536l-3.002 6.044 10.54 2.066a41 41 0 0 0 .053 1.167c-3.162.64-6.302 1.467-9.506 1.85-5.12.6-9.602 2.17-12.763 6.395-.5.66-1.363 1.064-1.895 1.477-.735-.072-1.363.04-1.586-.186-3.715-3.947-8.282-4.732-13.53-3.895-3.044.496-6.195.372-10.72.6 4.13-4.02 8.9-3.74 12.444-6.53l-1.746-5.26m-131.315-26.728l32.117 3.336-1.616 3.524 9.114 3.294-.042 1.374c-1.774.042-3.57.24-5.333.094-11.322-.923-11.322-.955-21.46 3.378-5.566-8.77-15.916-5.58-24.164-9.724l11.7-1.74-.306-3.535m89.878 21c-6.922-8.066-16.214-4.012-25.263-7.12l11.968-2.747v-4.6c10.06 2.222 19.975 3.128 30.752-.535l-1.35 4.98 8.628 2.253c-8.228 2.912-17.7-.267-24.737 7.767m-114.13-41.998v2.458l7.868 3.4-.34 1.14-9.822-1.483c-4.916-1.037-9.78-1.42-14.78-.456-1.593.32-4.025.28-4.948-.664-3.76-3.816-8.676-4.5-13.486-5.64-2.963-.705-5.893-1.566-8.622-3.443h10.884l.765-2.313 32.483 7m205.988 24l.137 2.78 7.625 1.03.116.957c-2.088.556-4.145 1.37-6.275 1.585-5.178.556-10.166 1.276-14.343 4.858-.896.772-3.333 1.08-4.187.463-3.913-2.84-8.004-2.07-12.265-1.503-2.383.33-4.85.062-7.93.062 1.835-2.748 4.345-2.84 6.58-3.304 2.615-.556 2.763-2.233 2.34-4.117l28.2-2.8m32.88 2.906c2.356-4.215 8.925-2.217 8.5-7.662l23.634-5.982c1.56-.406 2.515-.538 4.054.9 1.54 1.438 4.383 1.394 7.8 2.305-2.536 1.02-4.203 2.075-5.986 2.338-6.22.878-11.292 4.237-16.375 7.65-5.996-2.986-11.865-.922-17.776.406-1.04.24-2.176.033-3.863.033m-155.998-9.05c-4.458 0-7.76-.176-11.03.044-3.512.23-7.045.594-10.483 1.353-2.334.517-4.122.198-6.3-.847-3.365-1.595-7.055-2.486-10.673-3.42-3.123-.814-6.33-1.265-9.505-1.892l.18-1.694c2.618 0 5.878 1.056 7.728-.187 5.247-3.53 9.926-.65 14.9.022 3.954.55 8.002.462 11.997.748 2.23.154 4.595-.87 6.014 2.662.63 1.573 4.048 1.903 7.192 3.212m32 1.387c5.517-1.364 10.175-3.036 14.948-3.564 5.255-.594 10.762.682 15.892-.33 5.57-1.1 9 4.136 14.16 4.554-2.234.23-4.5.34-6.724.715l-14.36 2.684c-.87.165-1.95.726-2.57.374-6.052-3.3-12.65-2.123-19.017-2.827-.524-.055-.997-.66-2.33-1.606m-13.21-9.252c-8.27-2.332-16.856 1.342-25.137-2.14-1.954-.83-4.605-1-6.643-.405-4.415 1.257-8.354-.085-12.473-1.086-4.362-1.054-8.83-1.63-13.18-2.715-2.852-.703-5.577-1.95-8.354-2.96l.38-1.693 20.004 3.887c4.827.8 9.738 1.235 14.607 1.768L401.03 678c3.802.362 7.615.586 11.396 1.107 2.334.33 4.615 1.097 6.918 1.672l-.2 1.32m83.207 8.35c6.64-2.222 12.28-6.15 19.44-5.214 2.607.352 5.416-.396 8.045-1.023 5.182-1.276 10.194-1.375 15.514 1.408-.883.594-1.5 1.287-2.224 1.474L526.1 691.44c-.65.154-1.437.55-1.98.33-6.693-2.728-13.47-.352-20.207-.43-.35-.01-.68-.385-1.564-.902m-205.4-30.35l37.74 7.333c2.313.48 4.402 2.056 7.663 3.667-8.132-.424-15.188.1-21.806-1.37-8.25-1.85-16.147-5.342-24.194-8.138l.597-1.5m188.402 23.093c-8.62 3.157-17.24 2.013-26 .56 3-2 17.037-2.464 26-.56m-223.62-36.286l-10.38-4.565.396-1.144 21.604 7.216-.418 1.584-11.386-3.234.182.143" fill="#fff"/><g fill="#000"><path d="M2210 416.416l3.703-.403 28.7-.01 55.604 86.202 55.732-85.937h31.956c1.347 5.166 1.825 164.32.605 175.14-4.583 1.73-18.418 2.164-28.953.732-.117-2.43-.36-5.028-.36-7.627l-.02-114.536-1.666-.54c-4.106 5.442-7.565 11.372-11.3 17.07l-33.96 52.447-12.02 18.47-56.782-87.93-1.708.467-.042 122.577c-10.228.53-19.585.393-29.473.095V416.416zM1695.078 416h31.87l69.392 118.1c2.54-8.048 1.672-15.82 1.82-23.53.16-7.9.032-15.788.032-23.688v-70.736h28.6c1.524 5.425 1.694 168.343.01 175.83-5.8 0-11.812.085-17.835-.02-16.776-.296-11.918 2.485-20.248-11.58l-58.617-99.743-4.445-7.34c-2.244 2.284-1.43 4.843-1.43 7.064l-.042 111.186h-29.023c-1.503-5.785-1.566-169.37-.085-175.534m-360.835-.542h28.375c1.5 4.73 1.963 166.318.454 175.853-1.36.202-2.86.594-4.358.605-7.66.064-15.322-.074-22.972.086-3.08.04-5.002-1.104-6.5-3.82-3.028-5.547-6.32-10.956-9.518-16.43l-54.006-92.498c-1.12-1.92-2.343-3.765-3.82-6.14-2.32 2.694-1.498 5.452-1.5 7.9l-.042 110.4H1231v-175.65c1.678-.202 3.377-.573 5.076-.583 6.975-.074 13.97.244 20.946-.138 4.4-.223 6.9 1.252 9.106 5.133l31.34 53.933 31.435 53.87c1.17 2.015 2.48 3.935 3.735 5.897l1.604-.53V415.457zM1887.785 593l12.348-30.322 16.235.01c13.214.116 25.373-3.174 36.284-10.844 20.366-14.325 29.376-40.85 21.918-64.77-7.574-24.3-29.43-40.7-54.58-40.9l-37.182-.01c-1.986.01-3.972.212-6.655.36v145.76c-9.993.635-19.3.264-29.44.222-.243-3.08-.665-5.882-.665-8.686l-.01-161.142c.032-1.968.317-3.925.54-6.327 2.672-.127 4.87-.317 7.077-.317h65.565c44.597.148 81.6 33.506 87.124 77.878 5.873 47.218-28.362 92.754-77.237 97.726-13.14 1.344-26.47.92-41.323 1.354M2600 416.404l6.767-.36 58.4-.01c34.143.127 62.4 26.412 63.778 60.433.986 24.186-9.185 43.327-29.635 56.734-1.686 1.113-3.437 2.152-5.144 3.243-.17.106-.244.37-.774 1.22l34.96 54.307c-1.803.413-3 .9-4.18.922-8.825.064-17.65-.106-26.474.106-3.384.074-5.314-1.24-7.075-4.006l-26.315-41.144c-2.344-3.762-4.953-5.352-9.344-4.992-4.434.36-8.93.085-14.467.085l12.113-29.76c4.2 0 8.422.138 12.633-.032 14.457-.55 25.032-7.175 30.96-20.476 9.63-21.547-5.96-46.02-29.55-46.422-10.395-.18-20.82-.053-31.226-.01-1.74 0-3.5.318-6.003.562V592.47H2600V416.404zm-408 29.74h-88.222c-.956 14.407-.34 28.243-.446 42.862h66.175l7.508 30.146h-73.27v43.36h88.137V592h-117.396c-1.508-4.492-2.113-164.238-.648-174.756 4.896-1.5 111.034-1.744 118.16-.2v29.1z"/><path d="M1682 593h-32.262l-62.513-138.686-1.534-.106-35.214 77.963 6.867.54 33.88-.053c3.672-.074 5.777.997 7.227 4.487 3.354 8.105 7.058 16.072 11.068 25.1-3.227.127-5.576.318-7.936.318-17.607.02-35.225-.095-52.842.042-14.443.117-10.835-2.016-16.74 10.662l-9.005 19.658H1491c.508-1.814.75-3.3 1.344-4.647l75.147-167.075c1.767-3.946 4-5.336 8.17-5.166 7.227.286 14.464.34 21.68-.02 4.35-.212 6.37 1.613 8.042 5.4l74.565 165.855c.7 1.58 1.185 3.3 2.053 5.74M2746 592V417.127c5.5-1.448 110.812-1.533 117-.063v29.093h-86.396c-1.563 5.317-1.838 34.178-.433 42.762h65l7.55 30.023c-24.722.846-48.684-.17-72.984.592V562c2.556.2 5.132.56 7.7.56l79.415.032V592H2746z"/><path d="M2434.074 592h-28.64c-1.435-5.026-2.026-162.415-.665-175.34 1.615-.2 3.335-.56 5.055-.56h60.786c34.308.37 62.158 28.466 62.4 62.645.232 34.612-27.385 63.057-61.978 63.712-8.295.148-16.6.02-26.003.02l12.02-29.65c4.56 0 8.833.17 13.075-.032 23.027-1.088 38.487-22.712 31.543-44-3.947-12.1-16.167-22.078-28.557-22.5-11.914-.4-23.86-.127-35.775-.095-.855 0-1.7.36-3.25.697V592zm-1022.05-29.322H1481V592h-97.783c-1.342-5.113-1.732-165.768-.36-175.422 9.338-.995 18.834-.434 29.165-.296v146.396zM2551 417h29v176h-29zM1210 593h-27.706c-1.475-4.966-1.82-167.7-.345-176H1210v176zm1282.32 104.548h-11.253l-.52-5.852-.02-26.886-.096-5.37c-.48-6.283-3.244-9.77-8.392-10.706-5.85-1.05-12.072 1.628-14.008 6.976-1.478 4.13-2.16 8.7-2.382 13.102-.383 7.134-.106 14.33-.117 21.496v7.123H2444v-56.535c1.383-.273 2.648-.662 3.935-.746 1.34-.084 2.7.126 4.36.23l2.904 6.42c5.212-4.8 10.88-7.964 18.124-7.796 7.243.158 13.36 2.175 17.73 8.668.925-.65 1.723-.998 2.244-1.576 6.7-7.596 15.37-7.985 24.4-6.23 5.478 1.072 9.2 4.696 10.902 10.044.67 2.122 1.32 4.37 1.34 6.556l.053 41.028-11.168.504c-.287-2.217-.68-3.908-.7-5.6l-.043-27.558c-.01-2.028.032-4.055-.266-6.04-.947-6.314-3.85-9.466-9.105-10.14-6.116-.8-11.668 1.975-13.87 7.376a23.7 23.7 0 0 0-1.67 7.806c-.287 8.73-.255 17.462-.404 26.203-.043 2.385-.277 4.76-.447 7.5m-578.895.455h-11.366l-.52-5.605-.032-26.456-.138-6.113c-.52-6.728-3.395-10.267-8.908-11.05-6.322-.9-12.24 2.15-14.038 8.126-1.277 4.26-1.8 8.857-1.948 13.33-.287 9.016-.074 18.054-.074 27.643H1865v-57.34l8.088-.38 3.012 6.77c5.183-4.948 10.898-8.084 18.156-7.915 7.248.16 13.356 2.225 17.73 8.762.947-.7 1.724-1.06 2.256-1.642 6.96-7.83 15.815-8.105 25.074-6.018 5.268 1.187 8.663 4.874 10.206 10 .777 2.575 1.373 5.298 1.405 7.968v37.305c0 .646-.277 1.293-.553 2.5h-10.813c-.16-2.087-.426-4.058-.436-6.018l-.043-26.456c-.01-2.246-.075-4.535-.458-6.75-1.096-6.442-3.948-9.345-9.376-9.906-5.992-.625-11.4 1.907-13.335 7.194-1.352 3.74-1.873 7.904-2.033 11.9-.3 7.68-.075 15.373-.117 23.066-.02 2.204-.202 4.418-.34 7.1"/><path d="M2634 698h-11.38l-.38-6.992-.042-24.42-.348-7.437c-.696-6.145-3.217-9.27-8.1-10.276-5.726-1.165-12.107 1.43-14.163 6.6-1.445 3.687-2.183 7.84-2.362 11.823-.37 7.893-.084 15.817-.127 23.72-.01 2.204-.2 4.407-.316 6.96H2585.5c-.105-2.627-.295-4.82-.306-7.024l-.116-29.834c-.17-7.935-3.46-11.876-9.65-12.406-6.96-.614-12.138 2.935-13.826 10.118-.918 3.9-1.18 8.03-1.255 12.067-.18 8.783-.053 17.587-.053 26.952H2549v-57.04c1.234-.233 2.478-.583 3.733-.657 1.33-.074 2.668.138 4.398.233l2.816 6.706c4.935-5.18 10.662-8.2 17.844-8.073 7.16.106 13.288 2.055 17.57 8.666.917-.604 1.75-.922 2.267-1.526 6.633-7.65 15.24-8.083 24.182-6.304 6.043 1.208 9.713 5.456 11.242 11.4.56 2.172.886 4.46.896 6.706L2634 698m-1309.854-39.78c.032 7.404 3.988 11.656 10.953 11.74 7.2.095 11.484-4.474 11.335-12.1-.15-7.446-4.105-11.645-11.048-11.72-7.348-.063-11.27 4.146-11.24 12.08m11.93 39.103c-3.2.296-6.88.264-10.4 1.015-4.275.9-6.7 4.188-6.86 8.144-.138 4.114 1.946 6.907 6.614 8.197 6.986 1.936 13.93 1.3 20.67-1.142 1.648-.592 3.243-1.692 4.498-2.92 2.2-2.158 3.34-4.844 2.244-7.986-1.02-2.877-3.275-4.252-6.2-4.527-3.38-.338-6.774-.508-10.6-.783m-16.822-3.617c-5.72-8.747-5.55-10.133 2.116-18.9-5.997-4.284-9.357-9.964-8.964-17.6.447-9.15 5.093-15.263 13.95-17.695.86-.233 1.765-.518 2.658-.508l35.367.772c.66 3.025 1.542 5.468-1.85 6.6-2.063.677-4.264.994-6.805 1.555.66 2.295 1.202 3.945 1.627 5.638 2.68 10.778-2.722 20.107-13.547 22.772-3.7.9-7.635.7-11.42 1.3-1.882.275-4.126.698-5.402 1.914-2.765 2.613-1.712 6.166 2 7.214 2.137.624 4.455.73 6.7.793 4.307.148 8.624-.063 12.9.2 7.9.476 13.356 4.4 15.068 10.503 2.052 7.288-.393 14.924-6.37 19.345-1.797 1.333-3.807 2.55-5.902 3.28-10.314 3.564-20.873 4.2-31.433 1.386-6.252-1.67-10.995-5.278-11.824-12.375-.7-5.965 1.308-10.62 6.53-13.76 1.35-.804 2.786-1.46 4.594-2.4m-122.406-36.603c6.66.245 12.614 1.032 18.4-1.277 4.684-1.873 6.858-5.62 7.226-10.483.378-4.832-.82-9.238-5.43-11.462-6.396-3.065-13.16-3.118-20.197-2.075v25.297zm23.515 7.6l10.303 16.55 10.335 16.43c-4.222 1.958-8.224 1.245-12.015.756-1.313-.17-2.594-2.3-3.487-3.778-4.233-6.95-8.696-13.792-12.35-21.05-2.552-5.098-6.08-6.747-11.27-6.034-1.502.213-3.014.33-5.052.532v30.043H1185V621.43c12.194-.192 23.988-1.5 35.604 1.692 7.52 2.075 12.498 6.928 13.832 14.984 1.47 8.865-.03 16.762-7.667 22.434-1.785 1.33-3.728 2.448-6.407 4.182h0zm789.612 3.845c-.898-4.18-1.363-8.475-2.78-12.422-2.02-5.625-6.66-8.148-12.778-7.873-6.278.285-10.273 3.092-11.975 8.992-2.167 7.483-2.167 15.093.032 22.576 1.744 5.92 5.792 8.844 11.9 9.182 6.077.36 10.6-2.132 12.736-7.905 1.448-3.937 1.913-8.232 2.864-12.55m-29.32 22.607l-3.213 6.354h-7.25c-1.363-5.13-1.66-72.856-.35-81.173 1.607-.127 3.34-.348 5.073-.36 1.754-.01 3.52.2 6.035.36v30.438c5.96-6.016 11.7-8.36 18.57-8.137 9.1.296 15.6 4.528 18.97 12.728 4.62 11.25 4.714 22.924.063 34.164-5.644 13.626-22.1 17.604-33.927 8.654l-3.974-3.03"/><path d="M1744.332 697.45H1733v-80.892l5.282-.55c1.803-.053 3.606.137 5.922.243v29.894c1.184-.433 1.942-.475 2.315-.877 6.7-7.257 15.247-7.48 23.976-5.746 6.797 1.363 11.086 5.863 12.665 12.686.34 1.52.8 3.095.8 4.648l.032 40.573-11.396.57c-.267-2.694-.64-4.817-.662-6.95l-.043-24.306c0-2.25 0-4.5-.213-6.75-.63-7.172-3.436-10.616-9.23-11.556-7.224-1.162-13.86 2.102-16.005 8.472-1.12 3.35-1.558 7.024-1.675 10.574-.245 7.648-.064 15.295-.107 22.954-.01 2.187-.192 4.384-.33 7.014m-170.667-27.263c-3.733.18-7.147.042-10.454.58-3.083.506-6.24 1.308-8.992 2.7-3.904 1.983-4.715 5.758-4.17 9.83.427 3.217 2.25 5.463 5.44 6.138 5.835 1.223 11.424.6 15.627-4.06 3.925-4.335 4.373-9.44 2.55-15.198m.533-7.773c1.163-10.483-2.22-14.66-11.616-14.048-5.1.327-10.123 1.94-15.734 3.1l-3.53-7.478c11.36-5.263 22.433-6.75 33.9-2.584 4.768 1.73 7.66 5.548 8.747 10.483.533 2.394.96 4.883.98 7.32l.02 34.382c0 1.287-.352 2.573-.597 4.198h-7.723l-3.02-6.77c-.832.316-1.6.38-1.963.8-6.027 6.94-13.974 7.836-22.422 6.866-7.2-.812-12.064-5.305-13.654-12.224-1.75-7.636.5-15.07 6.603-18.362 4.075-2.204 8.832-3.46 13.45-4.27 5.312-.95 10.816-.96 16.566-1.403m-128.525 8.042l-.645-8.005c-.212-1.542-.677-3.084-1.227-4.552-2.242-6.062-6.928-9.23-13.538-9.23-6.674-.02-11.328 3.02-13.433 9.262-2.433 7.255-2.422 14.67-.074 21.945 2.073 6.4 7.097 9.684 13.95 9.578 6.537-.095 11.2-3.284 13.168-9.63 1.058-3.4 1.375-7.023 1.798-9.367m-42.667-1.352l.01-2.693c.264-17.636 11.994-31.217 35.517-26.433 8.282 1.68 13.972 7.245 16.87 15.102 3.46 9.388 3.5 19.062-.085 28.366-3.512 9.146-10.524 14.34-20.413 15.334-19.906 1.996-31.847-9.124-31.9-29.675m1014.042.073c-.794-3.834-1.207-8.143-2.626-12.114-2.012-5.682-7-8.47-13.383-8.397-6.416.053-10.958 2.968-13.044 8.86-2.636 7.467-2.615 15.093-.148 22.57 2.043 6.147 6.882 9.305 13.457 9.358 6.607.053 11.403-3.02 13.457-9.23 1.133-3.37 1.482-7.002 2.287-11.048m-43.038-.18v-2.683c.36-17.923 12.42-31.146 35.648-26.3 8.82 1.838 14.537 7.92 17.3 16.434 2.753 8.566 2.784 17.332-.148 25.823-3.388 9.843-10.503 15.462-20.974 16.508-19.904 1.975-31.794-9.178-31.815-29.784"/><path d="M2213.94 669.058c-.96-4.214-1.425-8.776-3.06-12.863-2.27-5.64-7.28-7.7-13.16-7.54-5.635.17-10.088 2.44-12.272 7.9-3.335 8.322-3.387 16.75.074 25.02 2.343 5.618 7.06 7.9 12.98 7.88 5.994-.02 10.616-2.588 12.726-8.238 1.403-3.717 1.794-7.826 2.712-12.145m-42.927.127c0-1.13-.032-2.25.01-3.38.76-20.277 16.135-31.028 37.303-25.25 7.176 1.954 12 7.076 14.72 13.824 3.936 9.8 3.957 19.844-.042 29.592-3.6 8.808-10.48 13.803-20.06 14.796-19.775 2.028-31.932-9.22-31.932-29.58m-336.362 1.443c-6.28-.78-12.05-.327-17.578 1.73-5 1.856-7.4 6.412-6.363 11.232.9 4.26 4.24 6.434 9.746 6.4 10.55-.105 15.75-6.908 14.196-19.353m.16-8.237c.95-10.8-2.526-14.618-12.356-14.1-2.442.137-4.873.738-7.262 1.34-2.357.58-4.65 1.445-7.378 2.32l-3.615-7.92c10.612-5.263 21.235-6.56 32.24-3.175 6.194 1.898 10.094 6.687 10.306 12.92.476 14.533.148 29.088.148 43.896-1.46.2-2.537.454-3.615.464-1.3.02-2.632-.17-4.133-.295l-3.044-7.098c-.972.6-1.87.886-2.4 1.498-5.888 6.73-13.625 7.3-21.72 6.423-6.955-.76-11.743-5.084-13.255-11.58-1.945-8.332.074-15.63 6.33-19.047 4.038-2.194 8.763-3.428 13.34-4.25 5.264-.94 10.697-.96 16.426-1.403M2364 625.26l-3.593 8.38c-6.595-1.13-12.48-2.723-18.453-3.05-9.332-.507-16.043 4.306-19.7 12.675-4.745 10.807-4.64 21.95-.18 32.832 2.96 7.24 8.677 11.62 16.57 12.04 5.115.264 10.294-.485 15.43-.97 2.188-.2 4.333-.886 7.06-1.467v10.1c-12.344 3.63-24.677 4.95-36.884-.295-8.148-3.514-13.126-10.216-15.64-18.532-3.276-10.786-3.52-21.772-.37-32.63 4.206-14.564 15.515-23.334 30.7-24.2 10.833-.623 17.945.78 25.08 5.118m-645-.055l-3.978 9.236-8.514-2.73c-15.7-4.702-28.068 2.34-31.52 18.27-1.62 7.528-1.452 15.214.758 22.7 2.852 9.73 9.43 15.056 19.522 15.667 3.336.2 6.735-.042 10.05-.474 3.326-.443 6.567-1.37 10.408-2.204v10.143c-13.344 3.753-26.805 5.46-39.823-2.172-5.82-3.416-9.608-8.825-11.734-15.172-3.957-11.84-4.378-23.87-.305-35.763 4.715-13.77 14.713-21.108 29.057-22.415 10.67-.98 17.87.464 26.078 4.913m327.125 37.278h25.464c.577-8.78-3.2-13.73-10.624-14.383-8.453-.757-13.55 3.9-14.84 14.383m37.807 9h-37.482c-.975 10.503 4.54 17.358 14.074 17.916a48.46 48.46 0 0 0 10.026-.515c3.293-.526 6.46-1.672 10.194-2.692v9.126c-10.446 4.363-21.164 4.984-31.86 1.2-6.9-2.44-11.4-7.8-13.75-14.75-3.115-9.294-2.8-18.6.787-27.662 4.562-11.48 15.5-16.8 29.3-14.614 10.792 1.693 17.892 10.062 18.7 22.205.2 2.88.02 5.793.02 9.788m577.4-8.88c8.733.693 17.38.567 26.02.126.6-8.855-3.292-13.908-10.765-14.58-8.68-.788-13.918 3.866-15.254 14.454m38.643 8.866h-38.536c-.47 11.208 5.13 17.9 15.265 17.868 6.5-.032 12.988-1.45 19.936-2.3v8.278c-10.797 4.317-21.893 5.105-33 .998-7-2.574-11.513-8.026-13.693-15-2.747-8.792-2.64-17.7.684-26.356 4.682-12.238 16.077-17.88 30.583-15.358 11.075 1.9 18.3 10.84 18.74 23.194.096 2.616.02 5.252.02 8.677"/><path d="M1288.85 662.727c-1.297-10.865-5.452-15.06-13.508-14.806-7.8.242-12.307 5.164-12.817 14.648 8.608.632 17.195.422 26.324.158m11.573 8.64H1262.6c-1.073 9.864 4.017 17.04 12.774 17.8 4.644.4 9.437-.4 14.124-.927 2.423-.274 4.772-1.17 7.13-1.8 2.55 7.598 1.945 8.978-4.93 10.865-7.322 2.013-14.857 2.192-22.2.653-9.618-2.034-15.984-8.135-18.8-17.525-2.455-8.188-2.22-16.418.53-24.512 4.177-12.266 13.943-18 28.248-16.777 11.743 1.012 19.108 8.336 20.98 20.95.35 2.424.457 4.9.542 7.366.032 1.064-.298 2.14-.574 3.9M2851.3 662.7c-1.3-10.823-5.352-14.996-13.286-14.774-7.714.2-12.08 4.984-12.783 14.658 8.532.58 17.033.422 26.07.116m11.544 8.8h-37.76c-.514 10.8 4.964 17.693 14.504 17.778 6.38.074 12.783-1.265 19.363-1.98 2.613 6.207 1.826 8.167-4.744 10-7.24 2.034-14.693 2.224-21.934.696-10.106-2.14-16.56-8.768-19.006-18.8-1.847-7.503-1.7-15.175.64-22.636 4.02-12.677 13.8-18.673 28.168-17.398 11.534 1.012 18.943 8.4 20.706 21.044.45 3.277.063 6.66.063 11.286M1523.9 698h-11.256l-.586-5.25-.032-27.034-.043-4.722c-.458-7.617-3.695-11.494-10.116-12.212-7.433-.835-13.63 2.578-15.547 9.17-1.065 3.624-1.5 7.5-1.63 11.304-.234 7.194-.064 14.42-.064 21.614v7.025H1473v-56.698c8.977-1.468 7.475-2.483 11.533 5.588.905-.687 1.8-1.268 2.577-1.954 7.4-6.54 16.07-6.867 24.95-4.448 7.763 2.113 11.5 8.134 11.724 15.677.405 13.712.117 27.446.117 41.94m731.244 0h-12.008v-48.696l-9.1-1.2c-.2-3.977-.2-3.977 8.585-9.197.885-7.602.126-16.33 8.216-20.935 7.5-4.285 15.484-3.456 24.153-.532l-2.728 8.027c-15.284-.83-18.244 1.66-16.475 13.96l13.2.82.4 7.9-14.262.872V698z"/><path d="M2802 642.008l-1.245 4.65c-.55 1.472-1.266 2.86-2.08 4.67l-9.16-2.065c-9.413-1.747-16.262 2.32-17.94 11.724-.96 5.412-.918 11.268.042 16.68 1.5 8.578 7.514 12.613 16.2 11.66 4.2-.466 8.263-1.8 12.833-2.828.18 1.536.412 2.997.507 4.48.084 1.334.02 2.7.02 4.776-2.7.985-5.298 2.52-8.02 2.785-4.897.477-9.92.7-14.785.085-8.77-1.112-14.943-6.248-17.835-14.604-3.42-9.892-3.4-19.995.285-29.866 2.607-6.97 7.598-11.692 14.806-13.694 8.696-2.404 17.276-1.8 26.383 1.546M1616.084 698h-11.053l.01-81h10.54c1.5 4.5 2.024 70.63.503 81"/><path d="M2099 640.442h8.586l2.522 9.35c6.28-7.544 13.083-12.9 23.9-9.977l-.57 9.775-4.637.298c-11.28.372-17.784 6.63-18.117 17.872-.247 7.703-.064 15.407-.075 23.12V698H2099v-57.558zM2726.335 698H2715v-57.54h8.546l2.456 9.707c6.134-8.346 13.222-13.035 23.998-10.462l-.686 10.164c-2.37 0-4.17-.074-5.95.01-9.66.5-16.288 6.868-16.6 16.48-.268 8.4-.054 16.798-.097 25.198-.01 1.988-.193 3.998-.322 6.443M1376.8 641h9.802c1.452 4.96 1.936 44.766.7 57h-10.06c-1.328-4.717-1.76-46.124-.453-57m12.21-16.623c.03 4.166-2.436 6.685-6.518 6.622-4-.052-6.62-2.813-6.476-6.8.134-3.736 2.52-6.076 6.333-6.192 4.266-.147 6.63 2.1 6.662 6.37"/></g><g fill="#fff"><path d="M1336.027 697l10.45.793c2.875.293 5.1 1.695 6.107 4.662 1.08 3.227-.052 5.987-2.214 8.204-1.238 1.26-2.812 2.4-4.44 3-6.653 2.5-13.505 3.162-20.4 1.174-4.607-1.326-6.663-4.194-6.527-8.42.147-4.064 2.55-7.432 6.768-8.367 3.463-.782 7.094-.75 10.252-1.043M1324 658.17c-.03-7.992 3.84-12.233 11.093-12.17 6.853.075 10.757 4.305 10.904 11.807.147 7.683-4.072 12.287-11.187 12.2-6.874-.085-10.778-4.37-10.8-11.828m-127-1.495v-25.07c7.12-1.034 13.966-.98 20.44 2.057 4.666 2.204 5.878 6.57 5.495 11.36-.372 4.82-2.572 8.532-7.313 10.388-5.856 2.3-11.883 1.508-18.62 1.266M2010 668.414c-.946 4.337-1.4 8.654-2.85 12.6-2.134 5.8-6.623 8.304-12.67 7.943-6.077-.34-10.103-3.277-11.838-9.226-2.187-7.52-2.187-15.165-.032-22.684 1.693-5.928 5.667-8.75 11.912-9.035 6.087-.276 10.703 2.26 12.7 7.9 1.4 3.966 1.87 8.282 2.765 12.482"/><path d="M1573.96 670c1.84 5.816 1.387 10.97-2.57 15.348-4.237 4.708-9.872 5.336-15.754 4.1-3.215-.682-5.054-2.95-5.484-6.2-.548-4.1.27-7.924 4.205-9.927 2.774-1.417 5.957-2.226 9.065-2.737 3.334-.543 6.775-.405 10.538-.586M1446 670.9c-.428 2.357-.748 5.998-1.817 9.416-2 6.38-6.702 9.586-13.3 9.68-6.927.106-12.004-3.185-14.1-9.628-2.373-7.314-2.384-14.766.075-22.06 2.127-6.274 6.83-9.33 13.576-9.3 6.68 0 11.417 3.185 13.683 9.278.556 1.476 1.026 3.025 1.24 4.575.33 2.24.396 4.512.652 8.047m971-2.29c-.804 4.066-1.153 7.718-2.284 11.104-2.05 6.242-6.84 9.33-13.44 9.278-6.566-.053-11.4-3.227-13.44-9.406-2.464-7.516-2.485-15.18.148-22.686 2.083-5.924 6.62-8.854 13.027-8.907 6.365-.074 11.356 2.728 13.365 8.44 1.417 3.992 1.83 8.323 2.622 12.176m-202.998-.1c-.918 4.34-1.308 8.47-2.712 12.206-2.1 5.68-6.732 8.258-12.725 8.28-5.92.02-10.636-2.272-12.978-7.918-3.46-8.3-3.408-16.78-.074-25.145 2.184-5.477 6.637-7.76 12.27-7.93 5.877-.16 10.9 1.9 13.158 7.578 1.635 4.108 2.1 8.693 3.06 12.928m-380.264 1.85c1.525 12.626-3.58 19.528-13.935 19.635-5.406.043-8.674-2.16-9.567-6.484-1.017-4.9 1.34-9.512 6.246-11.396 5.427-2.087 11.092-2.547 17.255-1.755M2046 663c1.314-10.86 6.507-15.703 15.118-14.918 7.554.676 11.4 5.812 10.823 14.918H2046zm615-.488c1.332-10.57 6.554-15.214 15.207-14.427 7.45.67 11.34 5.714 10.73 14.553-8.6.44-17.232.566-25.938-.126m-1372 .232c-9.017.262-17.498.472-26-.157.504-9.438 4.954-14.335 12.66-14.576 7.956-.252 12.06 3.922 13.34 14.733"/><path d="M2851 662.727c-9.012.304-17.5.462-26-.115.7-9.637 5.056-14.404 12.75-14.603 7.913-.22 11.964 3.937 13.25 14.72M823.876 595.975l6.468-3.082 43.562-23.3c2-1.06 4.086-2.023 5.8-3.463.762-.635.656-2.3 1.196-4.543l-57.345 33.74.328.657zm-28.413 9.266l5.96-3.135c26.084-14.88 50.908-31.665 74.918-49.668 6.383-4.776 7.463-9.065 3.822-18.152-27.323 25.173-55.238 49.17-85.716 70.266.667.455.92.73 1.016.688zM613.435 356.965l-1.43 6.407c-.36 1.536-1.133 3.06-1.1 4.575.032 1.398.794 3.865 1.43 3.93 1.47.16 3.25-.604 4.563-1.493 1.048-.7 1.598-2.14 2.35-3.272l8.913-13.598c5.706-8.483 12.216-16.065 21.045-21.657 11.052-7 21.712-14.646 32.52-22.038 1.673-1.144 3.42-2.277 4.806-3.728 2.572-2.7 2.117-6.142-1.1-7.953-1.524-.868-3.366-1.313-5.124-1.578-7.42-1.144-14.408.16-20.717 4.33-6.214 4.1-12.227 8.546-18.58 12.422-3.398 2.065-7.188 3.802-11.04 4.713-11.412 2.7-22.94 4.914-34.415 7.328-1.546.328-3.08.7-4.616 1.07-2.096.508-4.3 1.408-3.642 3.865.328 1.24 2.37 2.393 3.864 2.86 2.128.667 4.457.678 6.7.943l9.2 1.006c-.445 1.112-.487 1.663-.773 1.874-2 1.493-4.234 2.7-6.013 4.395-6.585 6.3-13.2 6.82-21.024 1.8-4.266-2.743-9.485-4.173-14.45-5.54-1.768-.487-4.54.38-6.023 1.63-2.128 1.78-1.44 4.564-.275 6.894.603 1.197 1.47 2.266 2.297 3.346l14.482 18.776c4.076 5.2 4.213 4.935 9.9 1.78 8.85-4.903 17.933-9.393 26.9-14.064l1.313.974zm82.042 488.662c41.656-20.534 77.585-48.577 107.618-84.15 33.717-39.925 57.027-85.177 68.598-136.486-2.265 1.165-4.054 2.7-5.58 4.48-20.092 23.5-40.873 46.47-60.076 70.7l-109.68 141.252c-.752.974-1.26 2.13-1.884 3.2a45.05 45.05 0 0 1 1.006 1.006zm-169.896 33c24.877 2.68 49.564.508 74.198-2.912 1.853-.265 3.95-1.313 5.23-2.648l80.18-84.552 110.106-120.57c24.36-26.094 50.834-50.08 78.93-72.193 5.462-4.3 6.458-7.34 4.002-14.88l-6.383 3.75c-38.226 23.065-73.478 50.187-106.612 79.988L642.674 776.57c-37.6 34.217-75.5 68.063-116.638 98.044-.88.646-1.65 1.43-3.102 2.7 1.514.773 2.054 1.26 2.647 1.324zm-137.418-40.35c16.218 9.023 33.05 16.67 50.612 22.705 2.54.88 4.584.328 6.976-.995 31.25-17.294 61.4-36.335 91-56.255 52.306-35.202 103.098-72.5 153.467-110.37 59.335-44.627 121.317-84.954 187.543-118.63.953-.487 1.704-1.408 2.55-2.14-2.18-.392-3.822.085-5.314.847l-40.45 20.534c-38.523 19.348-77.87 37.087-115.177 58.818l-150.248 87.962C510.74 774.684 451.67 807.323 389 832.9c-1.376.55-2.583 1.493-4.33 2.53 1.46 1.207 2.37 2.224 3.493 2.85zM262.4 646.342l5.94 6.704-3.42-.752c-7.463-1.62-14.588-4.7-22.485-4.5-1.937.042-3.95-1.864-5.886-2.933-1.673-.943-3.08-2.764-5.653-1.303.805 5.36 1.747 10.505 6.743 12.496-.56 2.13-1.535 3.728-1.217 5.02.678 2.838 1.927 5.528 3.07 8.24 4.848 11.448 1.778 10.717 16.96 10.2L255.51 673c11.454 6.84 22.877 8.567 35.453 8.642l-3.493 4.67 10.3 5.04c-9.94 1.154-19.67-4.596-29.218 2.5-5.166-9.542-14.058-9.415-23.565-11.564l6.574 13.852c1.28 2.806 3.155 4.067 6.394 3.77 3.017-.275 6.098.064 10.48.16l-5.558 6.026 12.724 6.98-.54 1.207-13.053-1.694c-.106 1.123-.34 1.684-.148 1.98l20.43 31.114c1.44 2.192 3.578 2.573 5.98 1.927l5.346-1.514-2.562-9.15c4.182 1.652 7.156 2.67 9.993 4.003 5.06 2.383 10.1 3.463 15.7 1.874 3.23-.9 6.743-.826 11.412-1.334l-5.62 8.038 13.095 6.598-.53 1.567c-3.08-.233-6.172-.34-9.22-.74-6.743-.9-13.042-.678-17.647 5.4-.476.625-1.482.847-2.647 1.46-1.323-1.726-2.795-3.145-3.673-4.87-2.477-4.85-6.33-5.814-11.168-4.702-.042.667-.233 1.197-.064 1.536.487 1.006.995 2.044 1.704 2.9 12.28 14.5 25.512 28.075 39.93 40.486 2.36 2.033 4.446 2.446 7.336 1.44 7.675-2.648 15.445-5.02 23.162-7.55 74.325-24.336 146.3-54.57 217.618-86.5l89.643-40.084c6.172-2.775 12.1-6.132 18.282-8.832l49.172-21.064c5.293-2.3 10.364-5.168 15.54-7.773-.116-.275-.222-.55-.328-.815l-6.807 1.938c4.5-4.32 9.38-7.56 14.143-10.97 43.276-30.85 80.56-68.36 117.622-106.103.868-.9 1.8-2.298 1.76-3.42-.3-7.34-1.146-14.604-3.2-21.636-1.164.222-1.747.148-2 .402-1.45 1.43-2.848 2.902-4.213 4.406-27.916 30.817-55.588 61.868-85.42 90.874-20.43 19.878-41.688 38.792-65.03 55.238-5.812 4.088-20.484 9.404-27.122 9.743 1.08-1.017 1.82-1.843 2.678-2.52 24.93-19.613 47.88-41.43 68.926-65.077l96.25-110.36c3.356-3.865 8.14-7.7 9-12.2.88-4.564-2.138-9.944-3.673-14.9-1.1-3.558-2.572-7-4.393-11.86L824.5 477.26l-4.817-5.623-28.127-34.8c-2.18-2.753-4.7-4.68-7.97-5.952l-29.567-11.83c-3.536-1.345-6.172-3.4-8.458-6.396L713.2 370.84c-1.24-1.6-2.668-3.103-3.716-4.83-6.098-10.008-18.367-9.478-23.882-.254-.92 1.536-2.2 2.87-3.292 4.3l-46.134 59.453c-1.323 1.705-2.795 3.294-4.467 5.263l-4.68-5.73c-3.758-4.808-7.336-9.775-11.274-14.424-5.08-6.005-11.57-5.878-16.758.085-1.048 1.197-1.97 2.5-2.932 3.738L556.6 469.347c-1.46 1.885-3.07 3.654-4.68 5.55-1.334-.943-2.117-1.387-2.784-1.98l-44.44-39.798c-1.916-1.737-3.377-4.225-4.425-6.63-4.13-9.542-8.1-19.147-11.92-28.805-1.482-3.75-3.716-6.44-7.093-8.663l-52.994-35.382c-3.45-2.35-6.66-5.443-9.072-8.843l-49.5-70.456c-1.27-1.8-2.636-3.558-4.383-5.92l-13.286 9.266c1.1 1.8 1.62 2.806 2.265 3.717l55.62 78.558c1.778 2.5 4.266 4.66 6.817 6.407l46.177 30.923c4.563 2.976 7.527 6.545 9.37 11.766l31.536 87.274c.688 1.917 1.567 3.76 2.35 5.634l1.037-.434v-16.267c0-5.422-.17-10.855.053-16.267.212-5.18-1.048-10.527 1.07-16.044 1.344 1.112 2.244 1.77 3.06 2.53l44.028 41.238c2.604 2.425 4.15 5.2 5.155 8.504l29.652 97.175c.56 1.843.88 3.75 1.302 5.56-.995.307-1.482.635-1.8.508L537.26 590.4c-3.493-1.207-5.092-3.558-5.674-7.487-1.863-12.486-4.298-24.887-6.5-37.32l-1.133-.106-15.265 76.652c-2.572-.995-4.658-1.716-6.67-2.605l-49.638-21.742c-4.436-1.864-6.48-4.638-7.77-9.182L415.676 488.4c-.36-1.26-1.016-2.436-1.524-3.654l-.582.318 1.65 75.603c-4.32-5.4-62.553-147.108-62.955-153.007l19.732 16.732c2.816-4.734 5.04-8.896 7.675-12.782 2.223-3.262 2.107-5.888-.16-9.17-6.563-9.468-12.82-19.147-19.15-28.774-3.23-4.903-8.024-9.552-9.062-14.9-1.037-5.327 1.736-11.395 2.837-17.135.265-1.324.7-2.648.773-3.982.222-4.014.88-8.133.328-12.062-1.482-10.728-3.472-21.382-5.335-32.056-.646-3.685-1.493-7.328-2.424-11.86-2.647 1.8-4.605 2.87-6.267 4.3-7.2 6.163-14.577 12.168-21.447 18.702-33.696 32.014-59.8 69.376-77.924 112.235-16.197 38.294-24.655 78.293-26 119.807-.593 18.1.106 36.187 2.88 54.073 2.085 13.365 5.124 26.58 7.855 39.84.54 2.595 1.25 5.104 4.34 6.344 10.3 4.077 20.622 7.996 31.674 9.52l-.18-.138zm629.925-97.8c-1.027 187.54-152.853 342.36-345.054 341.55-191.778-.822-342.1-157.08-341.94-343.986C205.5 356 361.2 201.512 549.4 203.1c185.818-1.144 343.974 151.25 342.926 345.44z"/></g></svg>