<?xml version="1.0" encoding="UTF-8"?>
<svg width="1647px" height="1916px" viewBox="0 0 1647 1916" version="1.1" xmlns="http://www.w3.org/2000/svg" xmlns:xlink="http://www.w3.org/1999/xlink">
    <title>Combined Shape</title>
    <g id="Page-1" stroke="none" stroke-width="1" fill="none" fill-rule="evenodd">
        <g id="_MCI_LOGO_vectorized_with_BC-(2)" transform="translate(-0.000000, 0.000000)" fill="#000000" fill-rule="nonzero">
            <g id="Group" transform="translate(823.500000, 958.000000) scale(-1, 1) rotate(-180.000000) translate(-823.500000, -958.000000) translate(0.000000, 0.000000)">
                <path d="M1047.5,1478.6 C1054.3,1488.9 1059.8,1495.4 1066,1500 C1067.8,1501.4 1070.4,1503.5 1071.9,1504.7 C1073.3,1506 1075.1,1507 1075.8,1507 C1076.4,1507 1077,1507.5 1077,1508 C1077,1508.6 1077.6,1509 1078.4,1509 C1079.2,1509 1080,1509.3 1080.2,1509.8 C1080.6,1510.8 1088.9,1515 1090.6,1515 C1091.4,1515 1092,1515.5 1092,1516 C1092,1516.6 1093.1,1517 1094.5,1517 C1095.9,1517 1097,1517.5 1097,1518 C1097,1518.6 1098.7,1519 1100.9,1519 C1103,1519 1105.2,1519.6 1105.8,1520.3 C1106.4,1521 1107.4,1524.7 1108,1528.5 C1108.6,1532.4 1112.8,1550.6 1117.5,1569 C1139.6,1657 1148,1708.4 1146.7,1747 C1144.9,1798.5 1130.5,1833 1097.4,1865 C1067.3,1894.1 1043.7,1906.3 1004.5,1913.1 C991.7,1915.4 952.2,1916.5 937.7,1915 C892.2,1910.2 847.8,1895.4 810.4,1872.5 C796.7,1864.1 779.5,1851.1 769.8,1841.9 L762.1,1834.5 L748.4,1805.5 C732.4,1771.6 730.8,1767.5 727.8,1753.8 C725.8,1744.5 725.5,1740.9 725.6,1716.5 C725.6,1693.1 725.9,1687.8 727.8,1676.5 C732,1652.2 736.6,1635.2 744.2,1615.9 L749.1,1603.3 L765.3,1602.7 C806.9,1601.2 846,1586.4 907.8,1548.7 C927.5,1536.7 971.3,1507.7 992.5,1492.5 L993.290873,1491.94777 C1001.33333,1486.33648 1009.36984,1480.86508 1011.5,1479.8 C1014.9,1478 1035.5,1473.1 1041.5,1472.7 C1042.8,1472.5 1044.6,1474.3 1047.5,1478.6 Z M1231.1,1458.7 C1238.1,1460 1245,1460.3 1258.5,1460 C1302.5,1459.2 1320.1,1459.6 1336.5,1461.8 C1405.8,1471 1475.3,1492.6 1509,1515.3 C1542.7,1538.1 1573.5,1597.5 1584.1,1660.6 C1587.1,1678.2 1587.4,1707.5 1584.7,1720 L1584.63077,1720.31466 C1583.46412,1725.46605 1577.97789,1743.27053 1572.3,1760.5 C1560.2,1797.4 1561.1,1795.8 1541,1816.1 C1491.6,1866 1421.4,1897.8 1349.5,1903 C1334.1,1904.1 1330.3,1904.1 1315.3,1902.9 C1297.1,1901.5 1277.4,1896.9 1264.4,1891 C1260.8,1889.4 1252.6,1884.9 1246.1,1881.1 C1200,1853.8 1174.5,1820.9 1163,1773.7 C1156.8,1748.6 1155.6,1736.8 1155.7,1702 C1155.7,1661.1 1159,1618.3 1166.2,1564.5 C1167.9,1551.9 1169.5,1535.3 1169.7,1527.6 C1170.2,1515.1 1170.4,1513.7 1172.1,1513.3 C1173.1,1513 1174,1512.4 1174,1511.9 C1174,1511.4 1174.9,1511 1176,1511 C1177.1,1511 1178,1510.6 1178,1510 C1178,1509.5 1178.6,1509 1179.3,1509 C1180,1509 1181.6,1508.1 1182.8,1507 C1184,1505.9 1185.3,1505 1185.9,1505 C1186.4,1505 1191.1,1500.8 1196.2,1495.8 C1205.1,1486.9 1212,1478.4 1212,1476.1 C1212,1475.5 1212.5,1475 1213,1475 C1213.6,1475 1214,1474.1 1214,1473 C1214,1471.9 1214.5,1471 1215,1471 C1215.6,1471 1216,1470.1 1216,1469 C1216,1467.9 1216.5,1467 1217,1467 C1217.6,1467 1218,1466.1 1218,1465.1 C1218,1464 1218.5,1462.8 1219,1462.5 C1219.6,1462.2 1220,1461 1220,1460 C1220,1459 1220.4,1457.9 1220.8,1457.6 C1221.3,1457.3 1225.9,1457.8 1231.1,1458.7 Z M1162.5,1518.8 C1163.8,1520.1 1162.7,1534.2 1159.5,1559.3 C1154.1,1601.1 1151.2,1631.7 1148.7,1673.5 L1148.5,1677.5 L1147.6,1673 C1140.8,1636.1 1131.1,1592.8 1121.4,1555.8 C1118.4,1544.4 1115.9,1532.5 1115.7,1529.1 L1115.5,1523.1 L1132,1522.7 C1144.6,1522.3 1150.1,1521.8 1155.2,1520.3 C1158.9,1519.2 1162.2,1518.5 1162.5,1518.8 Z M850.5,1169.1 C865.3,1174.1 872.3,1178.4 878.4,1186.5 C898.7,1213.3 935.6,1250.2 968.2,1276.1 C979.3,1284.9 982.9,1289.3 996.8,1310.3 C1007.7,1326.8 1013.9,1338 1019,1350.3 C1023.9,1362.4 1029.2,1372.9 1034.6,1381.3 C1038.8,1387.8 1039.9,1391.5 1038.2,1393.6 C1037.4,1394.5 1036.2,1399.4 1034,1410.5 C1032.7,1417.3 1033.2,1439.8 1034.8,1447 C1035.4,1449.5 1036.1,1453.1 1036.5,1455.1 L1037.2,1458.7 L1020.9,1467 C1010.2,1472.4 999.3,1479 989.5,1486 C930.7,1527.7 876.2,1561.2 843,1576 C827.9,1582.8 807.6,1589.4 792.6,1592.6 C777.7,1595.8 749.3,1596.8 737,1594.6 C718.3,1591.3 705.2,1586.7 686,1577 C666.3,1566.9 653.8,1558.1 641.5,1545.6 C627.8,1531.9 618.5,1518.2 608,1496.6 C588.6,1456.9 579.7,1417.1 579.7,1369.5 C579.7,1330.1 586.2,1295.4 599.6,1263.7 C603,1255.7 603.6,1255 628.8,1229.4 C656.6,1201.1 661.7,1197 680.9,1187.4 C701.8,1177.1 728,1169.2 756.1,1164.9 C768.1,1163 774.8,1162.6 796,1162.6 C824.4,1162.5 834,1163.7 850.5,1169.1 Z M1508.5,1067.2 C1512.4,1068.8 1529,1078 1545.6,1087.8 C1579.4,1107.7 1578.1,1106.5 1592.6,1128.5 C1615.7,1163.6 1630.6,1204.3 1637.7,1251.5 C1640.2,1268.6 1640.2,1313.7 1637.7,1330 C1632.3,1364.6 1621.9,1392.8 1606.9,1413 C1598.6,1424.3 1577.8,1445 1566,1453.7 C1538.2,1474.3 1512,1483.5 1475,1485.4 C1467.1,1485.8 1464.7,1485.6 1460.5,1483.9 C1452.4,1480.7 1427.6,1473.1 1411.5,1469 C1383.5,1461.8 1350.8,1455.9 1321.6,1452.9 C1309.9,1451.7 1303.3,1449.7 1263,1435.2 C1252.3,1431.3 1241.3,1427.6 1238.5,1427 C1225.8,1424.2 1226.4,1424.6 1225.6,1418.7 C1225.3,1415.9 1224.5,1411 1223.9,1408 C1223.4,1405 1222.7,1401 1222.3,1399.2 C1222,1397.4 1221.4,1395.7 1220.9,1395.4 C1220.4,1395.1 1220,1394 1220,1392.9 C1220,1391.9 1219.6,1391 1219,1391 C1218.5,1391 1218,1389.9 1218,1388.5 C1218,1387.16667 1217.63719,1386.10544 1217.08433,1386.0074 L1217,1386 C1216.5,1386 1216,1385.1 1216,1384 C1216,1382.9 1215.6,1382 1215.2,1382 C1214.7,1382 1213.8,1380.4 1213,1378.5 C1212.2,1376.6 1211.3,1375 1210.8,1375 C1210.4,1375 1210,1374.3 1210,1373.5 C1210,1372.7 1209.6,1372 1209,1372 C1208.5,1372 1208,1371.6 1208,1371 C1208,1369.4 1205.1,1366.1 1195.7,1356.7 L1186.8,1348 L1189.4,1337.7 C1192.1,1326.9 1193.4,1319.4 1194.5,1309.5 C1197.5,1281.2 1214.6,1232.8 1238,1185.9 C1249.2,1163.7 1255.9,1152 1267.5,1134.5 C1283.3,1110.7 1295.4,1097.3 1309,1088 C1356.8,1055.59612 1455.2,1045.3 1508.5,1067.2 Z M1228.3,1432.5 C1229.5,1432.7 1233,1433.4 1236,1434 C1239,1434.6 1251.9,1438.8 1264.5,1443.3 L1287.5,1451.5 L1279.5,1452.1 C1261.7,1453.5 1254,1453.7 1244.5,1452.9 C1233.6,1451.9 1224.5,1449.9 1224.5,1448.4 C1224.5,1447.9 1224.9,1444 1225.4,1439.8 C1226.1,1432.5 1226.3,1432 1228.3,1432.5 Z M998.5,1299 C998.8,1299 1002.7,1301.3 1007.3,1304.2 C1011.8,1307 1021.6,1312.2 1029,1315.7 C1044.3,1323 1058.7,1332.2 1067.5,1340.4 L1073.4,1346 L1070.5,1348.3 C1065.5,1352.2 1050,1368.1 1050,1369.3 C1050,1370 1049.1,1371.2 1048,1372 C1046.9,1372.8 1046,1374.2 1046,1375.2 C1046,1376.2 1045.6,1377 1045.1,1377 C1044.6,1377 1044,1377.8 1043.8,1378.8 C1043.5,1380.1 1042.6,1379.4 1040.1,1376 C1036,1370.5 1030,1358.5 1024.9,1346.1 C1020.6,1335.6 1013.1,1321.9 1004.1,1308.2 C1000.7,1303.1 998.3,1299 998.5,1299 Z M1201.7,1252.2 C1194.5,1273.1 1189.6,1292.8 1187.5,1309 C1185.4,1325.9 1181,1343.3 1179.1,1342.9 C1178.8,1342.8 1177.5,1342.3 1176.3,1341.6 C1175,1341 1174,1340.2 1174,1339.8 C1174,1339.3 1173.1,1339 1172,1339 C1170.9,1339 1170,1338.6 1170,1338 C1170,1337.5 1168.9,1337 1167.5,1337 C1166.1,1337 1165,1336.6 1165,1336 C1165,1335.5 1163.9,1335 1162.5,1335 C1161.1,1335 1160,1334.6 1160,1334 C1160,1333.5 1158.4,1333 1156.5,1333 C1154.6,1333 1153,1332.6 1153,1332.1 C1153,1331.5 1151.6,1331 1150,1330.8 L1146.9,1330.5 L1154.7,1316.5 C1160,1307 1166.8,1296.9 1176.1,1285 C1183.6,1275.4 1192.5,1263.7 1196,1259 C1199.4,1254.3 1202,1251.3 1201.7,1252.2 Z M1094.5,872.3 C1146.7,880.1 1188.8,896.6 1223.6,923 C1242.8,937.6 1254.9,953.1 1268.4,980 C1281.3,1006 1285.9,1023.1 1286.7,1048.5 C1287.3,1067.7 1285.9,1079.9 1281.1,1097 C1278.7,1105.5 1277.5,1108 1271.8,1115.7 C1253.4,1140.5 1232.3,1178.1 1217.5,1212.5 C1211.8,1225.7 1196.3,1248 1166.1,1286.4 C1161.4,1292.4 1153.2,1304.7 1148,1313.7 L1138.5,1330.1 L1127,1330.5 C1120.7,1330.6 1113.3,1331.3 1110.5,1331.9 C1107.8,1332.4 1104,1333.2 1102.2,1333.6 C1100.4,1333.9 1098.7,1334.6 1098.4,1335.1 C1098.1,1335.6 1097.1,1336 1096,1336 C1095,1336 1091.6,1337.4 1088.5,1339 C1085.4,1340.7 1082.3,1342 1081.6,1342 C1081,1342 1076.4,1338.6 1071.5,1334.4 C1058.9,1323.8 1049.9,1318.1 1031.5,1309 C1008.9,1297.9 989,1284.5 964,1263.6 C917.9,1225.1 879.4,1181.7 864,1151 C856.3,1135.7 853.7,1125 851.9,1102.5 C848.336,1055.178 864.17798,990.11619 888.364531,953.403773 L889.1,952.3 C897.7,939.4 900.4,936.6 927.9,912.1 C951.7,891 955.1,888.4 960.9,886.2 C977,880.3 996.4,875.5 1017,872.3 C1033.3,869.8 1077.4,869.8 1094.5,872.3 Z M1119.41283,719 C1150.0247,719 1174,744.144065 1174,773.494702 C1174,804.519491 1150.0247,828 1119.41283,828 C1087.98575,828 1064,803.682415 1064,773.494702 C1064,743.317585 1087.98575,719 1119.41283,719 Z M851.719627,248 C906.100691,248 977.044304,268.123303 1008,289.919192 L1008,289.919192 L963.819297,347.769768 C937.056387,331.838384 907.769462,319.262626 868.459483,319.262626 C788.98428,319.262626 747.995101,381.294667 747.995101,455.923373 C747.995101,535.569838 797.348993,592.584121 870.128254,592.584121 C911.127863,592.584121 943.7419,580.834202 970.515239,561.557646 L970.515239,561.557646 L971.349624,636.175899 C947.089871,650.424242 911.127863,663 863.432311,663 C740.464773,663 661,569.094738 661,451.731454 C661,341.905262 725.404118,248 851.719627,248 Z M86.3273137,259 L86.3273137,538.336582 C114.540225,562.364409 149.402574,585.575248 190.903871,585.575248 C240.711721,585.575248 249.836343,549.104065 249.836343,502.682387 L249.836343,502.682387 L249.836343,259 L336.163657,259 L336.163657,539.15357 C363.548011,562.364409 399.238917,585.575248 440.740214,585.575248 C490.548064,585.575248 498.844129,550.758989 498.844129,504.337311 L498.844129,504.337311 L498.844129,259 L586,259 L586,529.203075 C586,629.504065 524.571367,661 459.828504,661 C416.670091,661 363.548011,638.616623 318.721995,599.663054 C302.958424,636.961699 267.267517,661 218.298713,661 C174.301255,661 127.818123,642.764409 82.1740375,607.120688 L82.1740375,607.120688 L72.2103699,651.049505 L1.37083654e-13,651.049505 L8.90714371e-14,259 L86.3273137,259 Z M1162,259 L1162,651 L1077,651 L1077,259 L1162,259 Z M321.9,37.2 C332.8,38 340.1,42.9 348,54.6 L353,62.2 L353,57.3 C353,50.3 354.7,45.3 358.5,41.2 C361.7,37.7 362.2,37.5 368.3,37.5 C373.8,37.5 375.3,37.9 379,40.5 C387.5,46.4 397.4,62.2 403.2,79.3 C405.2,85.2 405.3,86.2 404,87 C400.6,89.2 399.5,88 395.8,78.2 C388.6,59.5 377.1,43.5 371.2,44.2 C368.6,44.5 368.5,44.7 368.6,50.5 C368.7,54.8 374.5,78.2 388.9,133 C400,175.1 409.4,210.3 409.6,211.3 C410.075,212.82 408.5645,212.98625 387.149363,212.999075 L357,213 L357,207.3 L365.9,206.7 C380,205.8 384,203.2 384,195.3 C383.9,190.8 368.2,128.3 368.1,132.1 C367.8,140.9 361.8,150.9 355.3,153.6 C350.6,155.6 339.9,155.3 334.2,153.2 C319.1,147.4 299.5,125.8 291.9,106.7 L289.1,99.5 L289,144.8 L289,190 L264,190 L264,42 L289,42 L289.1,52.3 L289.100779,53.6209988 C289.112069,62.1195986 289.261176,62.2305882 290.5,58.8 C291.3,56.7 293.3,53 294.9,50.6 C301.7,40.8 310.5,36.4 321.9,37.2 Z M761,39.3 C777.5,40 786.9,43.2 798.3,51.8 C807.1,58.5 816.7,73.4 818.5,83.3 C818.9,85.4 819.4,86.9 819.6,86.7 C819.8,86.5 820.9,82.9 822,78.6 C825.4,65 832.1,55.1 842.8,47.8 C853.2,40.7 869.7,37.7 884.9,40.3 C906.8,44 921.4,57.6 926.5,79.1 C928.4,87.4 928.4,104.6 926.5,112.9 C920.6,137.8 901.9,152.1 875,152.3 C862.9,152.4 854.7,150.6 845.9,145.9 C838.8,142.1 830.2,133.3 826.6,126.1 C823.5,120.1 820,107.4 820,102.3 L820,99 L795.2,99 L793.6,91.8 C790.7,78.8 783.4,69 773.1,64.1 C768.2,61.8 766.2,61.5 757,61.5 C747.1,61.5 746,61.7 739.9,64.7 C723.6,72.8 714.1,91.7 714,116.3 C714,146.5 728.2,167.4 751.4,171.2 C769.2,174.2 784.5,165.9 791.6,149.5 L794.4,143 L821,143 L820.4,147.3 C817,168.4 801.6,184.7 778.8,191 C770.4,193.3 754.2,194.3 745.9,193 C708.8,187.1 685.4,154.5 687.3,111.5 C688.9,75 708.5,48.8 740,40.9 C747.2,39.1 750.3,38.8 761,39.3 Z M1490,167 L1490,190 L1465,190 L1465,167 L1490,167 Z M431,167 L431,190 L407,190 L407,167 L431,167 Z M255,167 L255,190 L230,190 L230,167 L255,167 Z M-7.10542736e-15,41.8 L42.3,42.2 C82.5,42.6 84.9,42.8 92,44.9 C105.8,49 114.1,55.4 119.2,65.8 C122.4,72.2 122.5,72.9 122.5,84.5 C122.5,95.6 122.3,97 119.6,102.7 C116.2,110.1 109.5,116.8 102.8,119.6 C100.1,120.6 98,121.7 98,122 C98,122.3 100.3,124 103,125.9 C108.5,129.6 113.4,136.3 115.2,142.4 C117.1,149.1 116.6,161.6 114.1,168.2 C110.1,178.5 100.2,186.1 87.2,188.9 C83.868,189.586 67.85872,189.98388 42.5604512,189.999521 L-7.10542736e-15,190 L-7.10542736e-15,41.8 Z M1583.4,3.4 C1590.2,6.7 1593.9,11.1 1599,21.5 C1602.1,27.8 1647,147.6 1647,149.5 C1647,149.789286 1641.60689,149.985587 1634.9452,149.999239 L1621.4,150 L1608.1,110.4 L1594.7,70.8 L1581,110.2 L1567.3,149.5 L1548.6,149.8 L1530,150 L1530,182 L1506,182 L1506,150 L1465,150 L1465,42 L1490,42 L1490,131 L1505.9,131 L1506.5,57.4 L1509,52.5 C1513.5,43.6 1524.5,40 1543,41.5 L1552,42.2 L1552,61.5 L1544.2,61.2 C1534.7,60.8 1532.3,62.2 1530.9,69 C1530.5,71.5 1530.1,86.5 1530,102.3 L1530,131.1 L1538.6,130.8 L1547.3,130.5 L1563.6,87.6 C1572.6,64 1580,43.9 1580,43 C1580,40.3 1575.8,28.7 1573.9,25.9 C1571,21.8 1567,20.6 1558,21.3 L1550,21.8 L1550,1.2 L1556.6,0.5 C1567.6,-0.7 1577.1,0.3 1583.4,3.4 Z M50.8,129 L27,129 L27,168 L50.8,168 C63.8,168 76.1,167.5 78.2,167 C89.8,163.7 93.8,146.1 85.3,135.9 C80,129.6 77.2,129 50.8,129 Z M1385.9,42 L1386.3,76.8 C1386.7,114.5 1386.9,116.1 1392.3,123.2 C1398.1,130.7 1406.7,134 1416.7,132.5 C1420.4,132 1422.3,130.9 1425.6,127.7 C1431.6,121.6 1432,118.8 1432,77.5 L1432,42 L1456.1,42 L1455.8,85.3 C1455.5,128.3 1455.5,128.5 1453.1,133.7 C1450.4,139.8 1443.7,146.3 1437.6,149.1 C1433.6,150.8 1422,153 1417.5,152.9 C1416.4,152.9 1413,152.3 1410,151.6 C1401.8,149.8 1395.4,146.2 1389.9,140.2 L1385,134.8 L1385,150 L1362,150 L1362,42 L1385.9,42 Z M465,42 L465.000937,80.1979735 C465.0225,114.73041 465.459,116.91 470.6,123.7 C471.9,125.5 475.2,128.2 477.8,129.7 C481.8,132.1 483.6,132.5 490,132.5 C499.1,132.5 503.3,130.3 507,123.8 L509.5,119.5 L509.8,80.7 L510.1,42 L535,42 L535,79.8 C535,100.9 534.5,120.3 534,123.9 C532.6,132 529.2,138.6 524,143.4 C518.6,148.3 513,150.7 504.4,152 C496.6,153.1 496.5,153.1 489.1,151.9 C481.7,150.6 472.7,145.6 467.4,139.7 L463,134.8 L463,150 L440,150 L440,42 L465,42 Z M595,0.3 C615.9,1.4 629.7,8.8 637,22.7 C641.9,32.1 642,33.8 642,93.8 L642,150 L618,150 L618,137.3 L612.8,142.5 C604.7,150.5 591.7,154.2 578.5,152 C553.6,148 538.1,127.3 538,98.2 C538,67.3 551.9,47.2 576.4,42.9 C590.7,40.4 603.1,43.9 612.2,53.1 L618,58.8 L618,49.6 C618,37.3 616,30.7 610.6,25.4 C605.5,20.3 600.4,18.7 589.4,18.8 C577.2,18.9 569.5,23 566.9,30.7 L565.8,34 L541.3,34 L542.1,29.3 C545.8,9.5 565.5,-1.3 595,0.3 Z M1120,42 L1120.00053,79.3318136 C1120.01876,116.70184 1120.546,119.242 1127.7,126.2 C1137.6,135.8 1152.7,135.1 1158.2,124.8 C1160.5,120.5 1160.5,120 1160.8,81.3 L1161.1,42 L1185,42 L1185.00065,75.4054778 C1185.02083,92.7106337 1185.51042,109.26875 1186,112.5 C1187.5,121.9 1190.6,126.9 1197,130.3 C1201.9,132.9 1203.2,133.1 1209.3,132.7 C1217,132.2 1220.3,130.4 1223.5,124.9 C1225.4,121.7 1225.5,119.4 1225.8,81.8 L1226.1,42 L1251.1,42 L1250.8,85.3 C1250.4,133.8 1250.4,133.9 1242.9,142.3 C1238,147.9 1231.9,150.8 1222.4,152 C1207.5,153.9 1195.2,150.1 1186.1,140.9 L1181.3,136 L1179.9,138.6 C1174.5,148.7 1158.3,154.5 1143,151.9 C1135.3,150.6 1129.3,147.4 1123.8,141.7 L1119,136.9 L1119,150 L1095,150 L1095,42 L1120,42 Z M956,42 L956,76.3 C956,114.9 956.4,117.6 962.7,124.9 C964.7,127.3 968.2,130.1 970.4,131.1 C979.4,135.2 990.7,132.1 994.5,124.5 C996.4,120.7 996.5,118.2 996.8,81.3 L997.1,42 L1021.9,42 L1022.2,79.8 C1022.5,116.2 1022.6,117.6 1024.7,121.5 C1025.8,123.7 1027.9,126.5 1029.2,127.7 C1036.5,134.5 1051.1,134.8 1057.2,128.3 C1062.1,123 1062.3,121.1 1062.8,80.3 L1063.2,42 L1087.1,42 L1086.7,85.3 C1086.4,131.3 1086.3,132.3 1081.2,139.8 C1075.3,148.7 1066.4,152.4 1051,152.3 C1038.3,152.2 1032.1,149.9 1023.5,141.9 C1017.9,136.6 1017.1,136.1 1016.5,137.9 C1015.5,141.3 1006.3,148.8 1001.2,150.4 C994.9,152.4 985.7,153.1 979.2,151.9 C971.8,150.6 965.2,147 959.7,141.1 L955,136.1 L955,150 L932,150 L932,42 L956,42 Z M1325.4,51 L1330,55.9 L1330,42 L1354,42 L1354,150 L1329,150 L1329,115.2 C1329,77.4 1328.6,74.1 1323.5,67.4 C1315.8,57.3 1295.5,56.1 1288.6,65.3 C1284.484,70.788 1284.01752,74.3552 1284.00051,111.013942 L1284,150 L1258.9,150 L1259.2,109.3 C1259.6,70.4 1259.7,68.2 1261.8,61.9 C1265.9,49.6 1275.2,42.2 1289.5,40 C1304.1,37.6 1316.5,41.4 1325.4,51 Z M255,42 L255,150 L230,150 L230,42 L255,42 Z M431,42 L431,150 L407,150 L407,42 L431,42 Z M174.6,40.3 C182.1,42.2 189.4,46.4 194,51.6 L197,55.1 L197,42 L221,42 L221,150 L197,150 L197,116.8 C197,81 196.3,75 191.9,68.6 C187.1,61.5 178.6,58.2 167.9,59.2 C159.7,60 154.1,65.7 152.1,75.1 C151.414,78.04 151.01612,93.27312 151.000479,113.74042 L151,150 L127,150 L127.000507,108.583005 C127.01752,69.80268 127.484,64.936 131.6,56.9 C136.6,46.9 145.1,41.7 159.3,39.8 C166.5,38.8 168.8,38.9 174.6,40.3 Z M311.9,46.6 C307.8,50.5 306.5,55.2 306.7,65.5 C307,86.5 319.2,125.9 329.8,139.8 C336.2,148.2 346.6,151.4 353.7,147 C358.8,143.9 361.2,138 361.8,127.4 C363,104 351.3,67.2 338,52.7 C329.1,43 318.3,40.4 311.9,46.6 Z M855.3,66.7 C844.9,77 841.6,95.6 847.1,111.7 C852.8,128.3 866.9,136.2 882.6,131.5 C900.7,126.2 909.5,98 899.8,76.8 C894.7,65.8 887.2,60.1 876.6,59.3 C867.9,58.6 861,60.9 855.3,66.7 Z M589.9,62 C582.8,62 578.1,63.9 573,68.6 C564.7,76.4 560.8,89.8 562.9,103.8 C565.2,119.3 571.7,128.4 583,132.1 C586.9,133.4 597.2,132.5 601.5,130.4 C613.5,124.7 619.8,108.8 617.2,90.8 C614.6,72.6 604.5,62 589.9,62 Z M51.3,64 L27,64 L27,109.1 L54.3,108.8 L81.7,108.5 L86.5,105.5 C93.2,101.4 96,95.8 96,87.1 C95.9,75.6 91,68.6 80.8,65.5 C76.8,64.3 70.2,64 51.3,64 Z" id="Combined-Shape"></path>
            </g>
        </g>
    </g>
</svg>