<?xml version="1.0" encoding="UTF-8"?>
<svg width="230px" height="38px" viewBox="0 0 230 38" version="1.1" xmlns="http://www.w3.org/2000/svg" xmlns:xlink="http://www.w3.org/1999/xlink">
    <title>yale-center-beijing_logo-reverse</title>
    <g id="Page-1" stroke="none" stroke-width="1" fill="none" fill-rule="evenodd">
        <g id="yale-center-beijing_logo-reverse" transform="translate(1.000000, 1.000000)" fill="#000000" fill-rule="nonzero" stroke="#000000">
            <g id="Group">
                <path d="M33.3,4.1 C30.6,4.2 28.8,5.1 27.4,7.5 L19,21.6 L19,31.1 C20,33.4 22.4,33.7 24.7,33.8 L24.7,35.1 L8.3,35.1 L8.3,33.8 C10.6,33.7 13.5,33.3 14.2,31.8 L14.2,22 L5.7,7.6 C4.3,5.1 2.8,4.3 0,4.1 L0,2.8 L14.3,2.8 L14.3,4.1 C11.6,4.3 10.7,4.8 10,5.4 L17.9,19.1 L25.7,5.4 C24.9,4.8 23.8,4.2 21.1,4.1 L21.1,2.8 L33.3,2.8 L33.3,4.1 Z M48.9,32.7 C47.8,34 45.8,35.6 44,35.6 C41.3,35.6 39.9,33.7 39.8,32.4 C38.1,34.2 35.8,35.6 33.7,35.6 C31,35.6 28.6,33.9 28.6,31 C28.6,29.6 29,28.1 29.7,26.9 L39.8,23.2 L39.8,19.4 C39.8,17.1 38.7,14.9 36.4,14.9 C35,14.9 33.7,16.6 33.6,19.2 L29,20 L29,19.5 C30.5,14.9 35.6,13.2 38,13.2 C42.6,13.2 44.3,15.6 44.2,19.4 L44,30.1 C43.9,32.2 45.1,32.7 46.1,32.7 C46.9,32.7 47.7,32.2 48.7,31.2 L48.7,32.7 L48.9,32.7 Z M39.9,24.5 C38.6,25.1 35.3,26.5 33.9,27.2 C33.7,28 33.5,28.7 33.5,29.8 C33.5,31.3 34.4,32.8 36,32.8 C37.5,32.8 38.4,32.3 39.8,31.2 L39.9,24.5 Z M60.6,35.1 L49.4,35.1 L49.4,33.9 C51.7,33.7 52.3,33.2 52.8,32.4 L52.8,6.1 C52.8,4.4 52.5,3.7 49,3.4 L49,2.4 L58.2,0 L58.5,0.9 L57,2.7 L57,32.4 C57.5,33.4 58.5,33.8 60.6,33.9 L60.6,35.1 Z M82.3,31.1 C79.4,33.7 77,35.5 72.9,35.5 C67.6,35.5 63.5,31.3 63.5,25.4 C63.5,18.2 67.9,13.3 74.2,13.3 C79.2,13.3 82,16.1 82,20.7 L82,21.6 L68.3,21.5 C68.1,22 68,22.9 68,24 C68,29.2 71.3,32.6 75.6,32.6 C78.2,32.6 79.5,31.7 81.5,30 L82.3,31.1 Z M77.3,20 C77.3,17.3 75.6,14.9 73.3,14.9 C70.8,14.9 69,16.9 68.4,20.1 L77.3,20 Z" id="Shape"></path>
                <path d="M123.3,26.1 L121.6,34 C118.2,35.2 116.6,35.8 111.8,35.8 C102.7,35.8 95.4,28.6 95.4,18.8 C95.4,9.2 102.7,2.4 111.7,2.4 C116.2,2.4 118.8,3.3 122.2,4.2 L122.2,12.6 L121,12.6 C120.8,10.3 120.2,7.8 118.3,6.5 C117.5,5.9 115.3,4.4 111.2,4.4 C104.7,4.4 101,10.4 101,17.6 C101,27.1 105.7,33.9 113.2,33.9 C115.3,33.9 117.4,33 118.2,32.3 C120,30.7 121.4,28.3 121.9,25.9 L123.3,26.1 Z" id="Path"></path>
                <path d="M144.2,31.1 C141.3,33.7 138.9,35.5 134.8,35.5 C129.5,35.5 125.4,31.3 125.4,25.4 C125.4,18.2 129.8,13.3 136.1,13.3 C141.1,13.3 143.9,16.1 143.9,20.7 L143.9,21.6 L130.2,21.5 C130.1,22.1 130,23 130,24.1 C130,29.3 133.3,32.7 137.6,32.7 C140.2,32.7 141.5,31.8 143.5,30.1 L144.2,31.1 Z M139.2,20 C139.2,17.3 137.5,14.9 135.2,14.9 C132.7,14.9 130.9,16.9 130.3,20.1 L139.2,20 Z" id="Shape"></path>
                <path d="M172,35.1 L160.2,35.1 L160.2,33.9 C162.6,33.7 162.9,33.2 163.3,32.4 L163.3,21.4 C163.3,18.7 161.5,16.3 158.9,16.3 C157.6,16.3 155.5,17.1 154.1,17.9 L154.1,32.4 C154.7,33.4 154.9,33.7 157.5,33.9 L157.5,35.1 L146.6,35.1 L146.6,33.9 C149.1,33.7 149.4,33.2 149.9,32.4 L149.9,19.3 C149.9,18.3 149.1,17.1 146.7,16.5 L146.7,15.5 L153.5,13.1 L154.2,13.1 L154.2,16.7 C156.4,15 160.1,13.1 162,13.1 C166.5,13.1 167.8,15.9 167.8,20 L167.8,32.5 C168.8,33.3 169.8,33.3 172.1,33.5 L172.1,35.1 L172,35.1 Z" id="Path"></path>
                <path d="M188.6,33 C187.3,34.1 183.8,35.5 181.9,35.5 C177.3,35.5 175.8,33 175.8,28.9 C175.8,24.1 176,21 176.1,16.2 L173.3,16.3 L173.3,15.2 L179.4,9.2 L180.4,9.2 L180.3,13.9 L187.4,13.9 L187.4,16.3 L180.4,16.2 C180.3,21.3 180.3,23.7 180.3,28.2 C180.3,31 182.2,32.8 185.2,32.8 C186.4,32.8 188.1,32 188.7,31.8 L188.7,33 L188.6,33 Z" id="Path"></path>
                <path d="M208.1,31.1 C205.2,33.7 202.8,35.5 198.7,35.5 C193.4,35.5 189.3,31.3 189.3,25.4 C189.3,18.2 193.7,13.3 200,13.3 C205,13.3 207.8,16.1 207.8,20.7 L207.8,21.6 L194.1,21.5 C194,22.1 193.9,23 193.9,24.1 C193.9,29.3 197.2,32.7 201.5,32.7 C204.1,32.7 205.4,31.8 207.4,30.1 L208.1,31.1 Z M203.1,20 C203.1,17.3 201.4,14.9 199.1,14.9 C196.6,14.9 194.8,16.9 194.2,20.1 L203.1,20 Z" id="Shape"></path>
                <path d="M225.4,18.9 L224.9,18.9 C223.3,18 222.3,17.4 221,17.4 C219.7,17.4 219.1,18.2 218,19.2 L218,32.3 C218.6,33.3 220.5,33.6 222.7,33.9 L222.7,35.2 L210.6,35.2 L210.6,34 C213.1,33.8 213.3,33.3 213.8,32.5 L213.8,19 C213.8,18 213.1,17.1 210.6,16.5 L210.6,15.5 L217.4,13.1 L217.9,13.1 L218,17.9 C220.3,15.5 222.3,13.3 224.1,13.3 C225.4,13.3 226.5,13.7 227.7,14.3 L225.4,18.9 Z" id="Path"></path>
            </g>
        </g>
    </g>
</svg>